<?xml version="1.0" encoding="UTF-8"?>
<!DOCTYPE svg PUBLIC "-//W3C//DTD SVG 1.1//EN" "http://www.w3.org/Graphics/SVG/1.1/DTD/svg11.dtd">
<!-- Creator: CorelDRAW 2020 (64-Bit Evaluation Version) -->
<svg xmlns="http://www.w3.org/2000/svg" xml:space="preserve" width="60px" height="60px" version="1.1" style="shape-rendering:geometricPrecision; text-rendering:geometricPrecision; image-rendering:optimizeQuality; fill-rule:evenodd; clip-rule:evenodd"
viewBox="0 0 6.13 6.13"
 xmlns:xlink="http://www.w3.org/1999/xlink"
 xmlns:xodm="http://www.corel.com/coreldraw/odm/2003">
 <defs>
  <style type="text/css">
   <![CDATA[
    .fil0 {fill:#FEC00F}
    .fil1 {fill:#263674;fill-rule:nonzero}
   ]]>
  </style>
 </defs>
 <g id="Layer_x0020_1">
  <metadata id="CorelCorpID_0Corel-Layer"/>
  <path class="fil0" d="M3.1 2.03l-1.23 -1.6c-0.24,0.19 -0.39,0.48 -0.39,0.8 0,0.56 0.45,1.01 1,1.01 0.23,0 0.45,-0.08 0.62,-0.21z"/>
  <path class="fil1" d="M2.48 0c0.34,0 0.65,0.14 0.87,0.36 0.23,0.22 0.36,0.53 0.36,0.87 0,0.34 -0.13,0.65 -0.36,0.87 -0.22,0.22 -0.53,0.36 -0.87,0.36 -0.34,0 -0.64,-0.14 -0.87,-0.36 -0.22,-0.22 -0.36,-0.53 -0.36,-0.87 0,-0.34 0.14,-0.65 0.36,-0.87 0.23,-0.22 0.53,-0.36 0.87,-0.36zm0.55 0.68c-0.14,-0.14 -0.33,-0.23 -0.55,-0.23 -0.21,0 -0.41,0.09 -0.55,0.23 -0.14,0.14 -0.22,0.34 -0.22,0.55 0,0.22 0.08,0.41 0.22,0.55 0.14,0.14 0.34,0.23 0.55,0.23 0.22,0 0.41,-0.09 0.55,-0.23 0.14,-0.14 0.23,-0.33 0.23,-0.55 0,-0.21 -0.09,-0.41 -0.23,-0.55z"/>
  <path class="fil0" d="M2.3 4.7l-0.92 -2.01c-0.68,0.39 -1.15,1.12 -1.15,1.96l0 0.01 0 1.24 2.61 0 -0.54 -1.2z"/>
  <path class="fil1" d="M0 4.66l0 0 0 -0.05 0 0c0.01,-0.66 0.29,-1.27 0.73,-1.7 0.45,-0.45 1.07,-0.73 1.75,-0.73 0.36,0 0.71,0.08 1.03,0.22 0.32,0.14 0.61,0.36 0.84,0.63l-0.34 0.29c-0.19,-0.22 -0.43,-0.39 -0.69,-0.51 -0.26,-0.11 -0.54,-0.18 -0.84,-0.18 -0.56,0 -1.06,0.23 -1.43,0.6 -0.37,0.36 -0.59,0.87 -0.6,1.43l0 1.24 -0.45 0 0 -1.24 0 0z"/>
  <path class="fil1" d="M1.37 4.7c-0.13,0 -0.23,-0.1 -0.23,-0.22 0,-0.13 0.1,-0.23 0.23,-0.23l1.13 0 0.66 -1.13 1.14 2.1 0.7 -1.06 0.9 0c0.13,0 0.23,0.11 0.23,0.23 0,0.13 -0.1,0.23 -0.23,0.23l-0.66 0 -0.99 1.51 -1.09 -2 -0.38 0.57 -1.41 0z"/>
 </g>
</svg>
