<?xml version="1.0" encoding="UTF-8"?>
<!DOCTYPE svg PUBLIC "-//W3C//DTD SVG 1.1//EN" "http://www.w3.org/Graphics/SVG/1.1/DTD/svg11.dtd">
<!-- Creator: CorelDRAW 2020 (64-Bit Evaluation Version) -->
<svg xmlns="http://www.w3.org/2000/svg" xml:space="preserve" width="30px" height="30px" version="1.1" style="shape-rendering:geometricPrecision; text-rendering:geometricPrecision; image-rendering:optimizeQuality; fill-rule:evenodd; clip-rule:evenodd"
viewBox="0 0 3.161 3.161"
 xmlns:xlink="http://www.w3.org/1999/xlink"
 xmlns:xodm="http://www.corel.com/coreldraw/odm/2003">
 <defs>
  <style type="text/css">
   <![CDATA[
    .fil2 {fill:#263674}
    .fil0 {fill:#FEC00F}
    .fil3 {fill:white}
    .fil1 {fill:#FEC00F;fill-rule:nonzero}
   ]]>
  </style>
 </defs>
 <g id="Layer_x0020_1">
  <metadata id="CorelCorpID_0Corel-Layer"/>
  <g id="_2141021294048">
   <path class="fil0" d="M0.139 0.716l0.603 0c0,0.012 -0.001,0.025 -0.001,0.037 0,0.281 0.154,0.526 0.382,0.656l-0.456 0c-0.089,0 -0.12,0.083 -0.162,0.162l-0.498 0.926 0 -1.65c0,-0.072 0.059,-0.131 0.132,-0.131z"/>
   <path class="fil1" d="M2.776 0.529c0,-0.292 -0.237,-0.529 -0.53,-0.529l0.022 0.021c0.099,0.1 0.155,0.234 0.155,0.375l0 0.581 -0.24 0 0.417 0.479 0.416 -0.479 -0.24 0 0 -0.448z"/>
   <path class="fil2" d="M0.84 1.592l2.182 0c0.072,0 0.166,0.068 0.132,0.132l-0.702 1.305c-0.034,0.064 -0.059,0.132 -0.131,0.132l-2.182 0c-0.073,0 -0.166,-0.068 -0.132,-0.132l0.701 -1.305c0.035,-0.064 0.06,-0.132 0.132,-0.132z"/>
   <g>
    <path class="fil2" d="M1.568 0.212c0.299,0 0.541,0.243 0.541,0.541 0,0.299 -0.242,0.542 -0.541,0.542 -0.015,0 -0.029,-0.001 -0.044,-0.002 0.279,-0.022 0.498,-0.255 0.498,-0.54 0,-0.284 -0.219,-0.517 -0.498,-0.539 0.015,-0.001 0.029,-0.002 0.044,-0.002z"/>
    <circle class="fil2" cx="1.422" cy="0.753" r="0.541"/>
    <path class="fil3" d="M1.229 0.648l-0.006 0 -0.019 0 0.002 -0.084 0.201 0.004c-0.027,-0.045 -0.105,-0.045 -0.16,-0.046l-0.041 0 0.002 -0.1 0.435 0.008 -0.002 0.076 -0.004 0.002c-0.002,0.008 0.001,0.008 -0.033,0.007l-0.019 0c-0.004,0 -0.008,-0.001 -0.013,-0.001l0 0 -0.001 0 -0.001 0 0 0 -0.002 0 0 0 -0.001 0 -0.001 0 -0.001 0 0 0 -0.001 0 -0.001 0 -0.001 0 -0.001 0 0 0 -0.001 0 -0.001 0 0 0 -0.002 0 -0.001 0 0 0 -0.001 0 -0.001 0 0 0 -0.002 0 0 0 -0.001 0 -0.001 0 0 0 -0.001 0 -0.002 0 0 0 -0.001 -0.001 -0.001 0 0 0 -0.001 0 -0.001 0 -0.001 0 -0.001 0 0 0 -0.001 0 -0.001 0 -0.001 0 -0.001 0 -0.001 0 0 0 -0.001 0 -0.001 0 0 0 -0.002 0 0 0 -0.001 0 -0.001 0 -0.001 0 0 0 -0.002 0 0 0 -0.001 0 -0.001 0 0 0 -0.001 0 -0.001 0 0 0 -0.002 0 -0.001 0 0 0 -0.001 0 -0.001 0 0 0 -0.001 0 -0.001 0 -0.001 0 -0.001 -0.001 0 0 -0.001 0 -0.001 0 -0.001 0 -0.001 0c0.003,0.005 0.005,0.01 0.008,0.015 0.012,0.021 0.014,0.035 0.015,0.044l0.028 0c0.017,0 0.038,0 0.06,0.001l0.02 0 -0.006 0.084 -0.101 0 0 0.001 -0.001 0.006 -0.006 0.016c-0.017,0.049 -0.047,0.081 -0.086,0.101 -0.027,0.015 -0.059,0.023 -0.093,0.028 0.015,0.018 0.087,0.096 0.092,0.107 0.019,0.022 0.039,0.048 0.059,0.074 0.013,0.017 0.026,0.034 0.036,0.046 0.003,0.003 0.005,0.006 0.008,0.009 0.004,0.004 0.008,0.01 0.009,0.014l0.013 0.025 -0.028 0.002c-0.017,0.001 -0.039,0 -0.059,-0.001l-0.025 -0.001c-0.02,0 -0.02,0 -0.029,-0.014 -0.022,-0.028 -0.048,-0.061 -0.074,-0.092l-0.023 -0.029c-0.013,-0.016 -0.03,-0.035 -0.046,-0.054 -0.017,-0.019 -0.033,-0.037 -0.046,-0.054 -0.007,-0.008 -0.012,-0.013 -0.016,-0.016 -0.014,-0.014 -0.018,-0.018 -0.018,-0.047l0.002 -0.059 0.032 0.001c0.042,0.001 0.085,0.002 0.12,-0.013l0.001 0c0.015,-0.005 0.031,-0.014 0.043,-0.027 0.006,-0.007 0.011,-0.015 0.015,-0.025 -0.045,0 -0.147,-0.002 -0.185,-0.006z"/>
   </g>
  </g>
 </g>
</svg>
