<?xml version="1.0" encoding="UTF-8"?>
<!DOCTYPE svg PUBLIC "-//W3C//DTD SVG 1.1//EN" "http://www.w3.org/Graphics/SVG/1.1/DTD/svg11.dtd">
<!-- Creator: CorelDRAW 2020 (64-Bit Evaluation Version) -->
<svg xmlns="http://www.w3.org/2000/svg" xml:space="preserve" width="30px" height="30px" version="1.1" style="shape-rendering:geometricPrecision; text-rendering:geometricPrecision; image-rendering:optimizeQuality; fill-rule:evenodd; clip-rule:evenodd"
viewBox="0 0 2.907 2.908"
 xmlns:xlink="http://www.w3.org/1999/xlink"
 xmlns:xodm="http://www.corel.com/coreldraw/odm/2003">
 <defs>
  <style type="text/css">
   <![CDATA[
    .fil0 {fill:#263674}
    .fil1 {fill:#EFB30C}
   ]]>
  </style>
 </defs>
 <g id="Layer_x0020_1">
  <metadata id="CorelCorpID_0Corel-Layer"/>
  <g id="_2105396215872">
   <path class="fil0" d="M2.176 1.457c0.014,-0.096 -0.103,-0.25 -0.114,-0.268 -0.059,-0.089 -0.103,0.007 -0.103,0.007l-0.362 0.668c-0.059,0.14 -0.103,0.018 -0.103,0.018l-0.258 -0.49c-0.026,-0.074 -0.067,-0.015 -0.067,-0.015l-0.199 0.365c-0.077,0.125 -0.151,0.004 -0.151,0.004l-0.125 -0.237 0.043 -0.065c-0.014,0.093 0.097,0.25 0.108,0.268 0.059,0.093 0.107,-0.003 0.107,-0.003l0.357 -0.672c0.06,-0.14 0.104,-0.018 0.104,-0.018l0.262 0.49c0.022,0.074 0.066,0.019 0.066,0.019l0.188 -0.358c0.078,-0.125 0.155,-0.018 0.155,-0.018l0.133 0.243 -0.041 0.062z"/>
   <path class="fil1" d="M0.494 1.657l-0.331 -0.634c0.132,-0.531 0.649,-1 1.283,-1.022 0.446,-0.018 0.833,0.188 1.062,0.424 0.295,0.288 0.424,0.745 0.395,1.059l-0.502 -0.93c-0.151,-0.206 -0.254,-0.081 -0.254,-0.081 -0.089,0.056 -0.262,0.41 -0.325,0.52 -0.022,0.037 -0.04,0 -0.04,0l-0.071 -0.118c-0.07,-0.151 -0.213,-0.38 -0.217,-0.376 -0.133,-0.162 -0.262,0.026 -0.262,0.026 -0.129,0.184 -0.328,0.56 -0.406,0.719 -0.037,0.063 -0.239,0.631 -0.332,0.413l0 0z"/>
   <path class="fil0" d="M2.416 1.251l0.328 0.638c-0.133,0.528 -0.649,0.996 -1.283,1.018 -0.447,0.019 -0.834,-0.188 -1.059,-0.42 -0.295,-0.292 -0.427,-0.749 -0.398,-1.059l0.505 0.926c0.148,0.207 0.251,0.081 0.251,0.081 0.089,-0.051 0.266,-0.409 0.325,-0.516 0.022,-0.041 0.04,-0.004 0.04,-0.004l0.07 0.122c0.07,0.147 0.218,0.376 0.222,0.372 0.129,0.163 0.258,-0.025 0.258,-0.025 0.129,-0.185 0.328,-0.561 0.405,-0.72 0.041,-0.062 0.24,-0.63 0.336,-0.413l0 0z"/>
  </g>
 </g>
</svg>
