<?xml version="1.0" encoding="UTF-8"?>
<!DOCTYPE svg PUBLIC "-//W3C//DTD SVG 1.1//EN" "http://www.w3.org/Graphics/SVG/1.1/DTD/svg11.dtd">
<!-- Creator: CorelDRAW 2020 (64-Bit Evaluation Version) -->
<svg xmlns="http://www.w3.org/2000/svg" xml:space="preserve" width="60px" height="60px" version="1.1" style="shape-rendering:geometricPrecision; text-rendering:geometricPrecision; image-rendering:optimizeQuality; fill-rule:evenodd; clip-rule:evenodd"
viewBox="0 0 5.84 5.84"
 xmlns:xlink="http://www.w3.org/1999/xlink"
 xmlns:xodm="http://www.corel.com/coreldraw/odm/2003">
 <defs>
  <style type="text/css">
   <![CDATA[
    .str0 {stroke:#263674;stroke-width:0.48;stroke-linecap:round;stroke-linejoin:round;stroke-miterlimit:2.61313}
    .fil1 {fill:none}
    .fil2 {fill:#263674}
    .fil0 {fill:#FEC00F}
   ]]>
  </style>
 </defs>
 <g id="Layer_x0020_1">
  <metadata id="CorelCorpID_0Corel-Layer"/>
  <path class="fil0" d="M0.68 2.55l0.96 0.56c0.09,-0.36 0.28,-0.68 0.53,-0.94l-0.59 -0.59 -0.02 0 0 -0.02 -0.93 -0.93c-0.24,0.24 -0.39,0.57 -0.39,0.94 0,0.38 0.16,0.73 0.44,0.98l0 0z"/>
  <path class="fil0" d="M3.59 4.72c-0.11,-0.53 -0.48,-0.91 -1.12,-1.13 0.27,-0.05 0.5,-0.17 0.68,-0.36 0.02,-0.01 0.03,-0.02 0.04,-0.04l-1.02 -1.02c-0.36,0.37 -0.59,0.87 -0.59,1.42 0,1.11 0.9,2.01 2.01,2.01 0.56,0 1.06,-0.22 1.42,-0.59l-1.02 -1.02c-0.22,0.2 -0.35,0.44 -0.4,0.73z"/>
  <path class="fil1 str0" d="M0.87 2.7c-0.39,-0.25 -0.63,-0.67 -0.63,-1.13 0,-0.73 0.6,-1.33 1.33,-1.33 0.44,0 0.85,0.22 1.09,0.58"/>
  <g id="_2466165745152">
   <line class="fil1 str0" x1="1.96" y1="1.58" x2="1.56" y2= "1.58" />
   <line class="fil1 str0" x1="1.56" y1="1.04" x2="1.56" y2= "1.58" />
  </g>
  <circle class="fil1 str0" cx="3.59" cy="3.59" r="2.01"/>
  <path class="fil2" d="M3.59 2.47c0.15,0.64 0.49,1.09 1.13,1.12 -0.65,0.23 -1.04,0.59 -1.13,1.13 -0.11,-0.53 -0.48,-0.91 -1.12,-1.13 0.27,-0.05 0.5,-0.17 0.68,-0.36 0.19,-0.18 0.34,-0.44 0.44,-0.76z"/>
  <path class="fil2" d="M3.71 0.24c0.05,0.23 0.18,0.4 0.41,0.41 -0.24,0.08 -0.38,0.21 -0.41,0.4 -0.04,-0.19 -0.17,-0.33 -0.41,-0.4 0.1,-0.02 0.18,-0.06 0.25,-0.13 0.07,-0.07 0.12,-0.16 0.16,-0.28z"/>
  <path class="fil2" d="M0.7 3.56c0.06,0.26 0.2,0.44 0.46,0.46 -0.27,0.09 -0.43,0.24 -0.46,0.45 -0.05,-0.21 -0.2,-0.37 -0.46,-0.45 0.11,-0.02 0.2,-0.07 0.28,-0.15 0.08,-0.08 0.13,-0.18 0.18,-0.31z"/>
 </g>
</svg>
