<?xml version="1.0" encoding="UTF-8"?>
<!DOCTYPE svg PUBLIC "-//W3C//DTD SVG 1.1//EN" "http://www.w3.org/Graphics/SVG/1.1/DTD/svg11.dtd">
<!-- Creator: CorelDRAW 2020 (64-Bit Evaluation Version) -->
<svg xmlns="http://www.w3.org/2000/svg" xml:space="preserve" width="50px" height="50px" version="1.1" style="shape-rendering:geometricPrecision; text-rendering:geometricPrecision; image-rendering:optimizeQuality; fill-rule:evenodd; clip-rule:evenodd"
viewBox="0 0 13.27 13.27"
 xmlns:xlink="http://www.w3.org/1999/xlink"
 xmlns:xodm="http://www.corel.com/coreldraw/odm/2003">
 <defs>
  <style type="text/css">
   <![CDATA[
    .fil0 {fill:#263674}
    .fil1 {fill:#EFB30C}
   ]]>
  </style>
 </defs>
 <g id="Layer_x0020_1">
  <metadata id="CorelCorpID_0Corel-Layer"/>
  <g id="_2063900154944">
   <g>
    <rect class="fil0" transform="matrix(5.16636 5.16645 -5.16636 5.16645 1.53285 4.30669)" width="0.16" height="0.16"/>
    <rect class="fil0" transform="matrix(4.9078 4.90788 -4.9078 4.90788 6.59504 0.533558)" width="0.16" height="0.16"/>
    <rect class="fil0" transform="matrix(10.6872 10.6874 -10.6872 10.6874 3.01337 -2.74716E-06)" width="0.16" height="0.16"/>
    <polygon class="fil1" points="3.07,11.72 3.07,7.04 0,7.04 0,11.72 "/>
    <polygon class="fil0" points="5.09,3.57 5.09,10.78 8.15,10.78 8.15,3.57 "/>
    <polygon class="fil1" points="10.21,0 10.21,9.65 13.27,9.65 13.27,0 "/>
    <polygon class="fil0" points="3.07,13.27 3.07,12.41 0,12.41 0,13.27 "/>
    <polygon class="fil1" points="5.09,11.48 5.09,13.27 8.15,13.27 8.15,11.48 "/>
    <polygon class="fil0" points="10.21,10.35 10.21,13.27 13.27,13.27 13.27,10.35 "/>
   </g>
   <g>
    <rect class="fil0" transform="matrix(5.16636 5.16645 -5.16636 5.16645 1.53285 4.30669)" width="0.16" height="0.16"/>
    <rect class="fil0" transform="matrix(4.9078 4.90788 -4.9078 4.90788 6.59504 0.533558)" width="0.16" height="0.16"/>
    <rect class="fil0" transform="matrix(10.6872 10.6874 -10.6872 10.6874 3.01337 -2.66851E-06)" width="0.16" height="0.16"/>
    <polygon class="fil1" points="3.07,11.72 3.07,7.04 0,7.04 0,11.72 "/>
    <polygon class="fil0" points="5.09,3.57 5.09,10.78 8.15,10.78 8.15,3.57 "/>
    <polygon class="fil1" points="10.21,0 10.21,9.65 13.27,9.65 13.27,0 "/>
    <polygon class="fil0" points="3.07,13.27 3.07,12.41 0,12.41 0,13.27 "/>
    <polygon class="fil1" points="5.09,11.48 5.09,13.27 8.15,13.27 8.15,11.48 "/>
    <polygon class="fil0" points="10.21,10.35 10.21,13.27 13.27,13.27 13.27,10.35 "/>
   </g>
  </g>
 </g>
</svg>
