<?xml version="1.0" encoding="UTF-8"?>
<!DOCTYPE svg PUBLIC "-//W3C//DTD SVG 1.1//EN" "http://www.w3.org/Graphics/SVG/1.1/DTD/svg11.dtd">
<!-- Creator: CorelDRAW 2020 (64-Bit Evaluation Version) -->
<svg xmlns="http://www.w3.org/2000/svg" xml:space="preserve" width="30px" height="30px" version="1.1" style="shape-rendering:geometricPrecision; text-rendering:geometricPrecision; image-rendering:optimizeQuality; fill-rule:evenodd; clip-rule:evenodd"
viewBox="0 0 1.33 1.33"
 xmlns:xlink="http://www.w3.org/1999/xlink"
 xmlns:xodm="http://www.corel.com/coreldraw/odm/2003">
 <defs>
  <style type="text/css">
   <![CDATA[
    .fil0 {fill:#FDC116}
   ]]>
  </style>
 </defs>
 <g id="Layer_x0020_1">
  <metadata id="CorelCorpID_0Corel-Layer"/>
  <g id="_1551016635840">
   <path class="fil0" d="M1.06 0.82l0.26 0c0.02,-0.1 0.02,-0.21 0,-0.31l-0.26 0c0,0.03 0.01,0.05 0.01,0.08l0 0.15c0,0.03 -0.01,0.05 -0.01,0.08z"/>
   <path class="fil0" d="M0 0.64c0,0.08 0,0.1 0.02,0.18l0.25 0 0 -0.12c-0.01,-0.01 -0.01,-0.02 -0.01,-0.03l0.01 -0.08c0,-0.03 0,-0.05 0,-0.08l-0.25 0c-0.01,0.04 -0.02,0.08 -0.02,0.13z"/>
   <path class="fil0" d="M0.72 0.82l0.24 0 0.01 -0.06c0,-0.07 0,-0.15 0,-0.22 0,-0.01 -0.01,-0.01 -0.01,-0.03l-0.24 0 0 0.31z"/>
   <path class="fil0" d="M0.36 0.63l0.01 0.16c0,0.02 0,0.02 0,0.03l0.25 0 0 -0.31 -0.25 0 0 0.06c-0.01,0.02 -0.01,0.04 -0.01,0.06z"/>
   <path class="fil0" d="M0.72 0.41l0.23 0c0,-0.04 -0.02,-0.1 -0.03,-0.13 -0.02,-0.08 -0.06,-0.15 -0.11,-0.21 -0.02,-0.02 -0.02,-0.02 -0.04,-0.04 -0.03,-0.02 -0.03,-0.02 -0.05,-0.03l0 0.41z"/>
   <path class="fil0" d="M0.38 0.41l0.24 0 0 -0.41c-0.06,0.03 -0.09,0.05 -0.13,0.11 -0.03,0.04 -0.04,0.06 -0.05,0.11 -0.02,0.04 -0.06,0.14 -0.06,0.19z"/>
   <path class="fil0" d="M0.62 1.33l0 -0.41 -0.24 0c0.01,0.05 0.04,0.17 0.07,0.22 0,0.01 0,0.02 0.01,0.03l0.03 0.05c0.02,0.04 0.06,0.08 0.1,0.1 0.01,0.01 0.02,0.01 0.03,0.01z"/>
   <path class="fil0" d="M0.72 1.33c0.05,-0.02 0.02,0 0.07,-0.04l0.08 -0.12c0.01,-0.01 0.02,-0.04 0.03,-0.05 0.02,-0.05 0.05,-0.15 0.05,-0.2l-0.23 0 0 0.41z"/>
   <path class="fil0" d="M0.05 0.41l0.23 0c0.01,-0.07 0.04,-0.18 0.07,-0.24l0.04 -0.09c0.01,-0.01 0.01,-0.02 0.02,-0.04 -0.06,0.02 -0.17,0.1 -0.21,0.15 -0.04,0.04 -0.06,0.06 -0.09,0.1 -0.01,0.02 -0.05,0.1 -0.06,0.12z"/>
   <path class="fil0" d="M0.41 1.29c-0.01,-0.01 -0.01,-0.03 -0.02,-0.04 -0.02,-0.03 -0.05,-0.1 -0.06,-0.13 -0.02,-0.04 -0.04,-0.15 -0.05,-0.2l-0.23 0c0.01,0.03 0.05,0.1 0.06,0.12 0.03,0.04 0.05,0.07 0.09,0.1 0.04,0.05 0.15,0.13 0.21,0.15z"/>
   <path class="fil0" d="M0.92 1.29c0.02,-0.01 0.1,-0.05 0.12,-0.06 0.07,-0.06 0.06,-0.06 0.12,-0.11 0.02,-0.02 0.04,-0.05 0.06,-0.08 0.01,-0.02 0.06,-0.09 0.06,-0.12l-0.23 0c-0.01,0.09 -0.06,0.25 -0.11,0.33 0,0.01 -0.01,0.03 -0.02,0.04z"/>
   <path class="fil0" d="M1.05 0.41l0.23 0c0,-0.02 -0.05,-0.1 -0.06,-0.12l-0.06 -0.07c-0.06,-0.06 -0.05,-0.06 -0.12,-0.11 -0.02,-0.02 -0.1,-0.06 -0.12,-0.07 0.02,0.04 0.04,0.07 0.07,0.13 0.02,0.06 0.06,0.17 0.06,0.24z"/>
  </g>
 </g>
</svg>
