<?xml version="1.0" encoding="UTF-8"?>
<!DOCTYPE svg PUBLIC "-//W3C//DTD SVG 1.1//EN" "http://www.w3.org/Graphics/SVG/1.1/DTD/svg11.dtd">
<!-- Creator: CorelDRAW 2020 (64-Bit Evaluation Version) -->
<svg xmlns="http://www.w3.org/2000/svg" xml:space="preserve" width="70px" height="70px" version="1.1" style="shape-rendering:geometricPrecision; text-rendering:geometricPrecision; image-rendering:optimizeQuality; fill-rule:evenodd; clip-rule:evenodd"
viewBox="0 0 7.78 7.78"
 xmlns:xlink="http://www.w3.org/1999/xlink"
 xmlns:xodm="http://www.corel.com/coreldraw/odm/2003">
 <defs>
  <style type="text/css">
   <![CDATA[
    .fil1 {fill:#263674}
    .fil0 {fill:#FEC00F}
    .fil2 {fill:#263674;fill-rule:nonzero}
   ]]>
  </style>
 </defs>
 <g id="Layer_x0020_1">
  <metadata id="CorelCorpID_0Corel-Layer"/>
  <g id="_2317180762848">
   <path class="fil0" d="M0.74 6.75c1.24,0 2.48,0.01 3.72,0.01 -0.04,-0.15 -0.06,-0.3 -0.06,-0.46 0,-0.52 0.22,-1 0.56,-1.34l-2.26 -2.26 -1.96 0 0 4.05zm1.74 -1.39c-0.35,0 -0.63,-0.28 -0.63,-0.63 0,-0.35 0.28,-0.63 0.63,-0.63 0.35,0 0.63,0.28 0.63,0.63 0,0.35 -0.28,0.63 -0.63,0.63z"/>
   <polygon class="fil0" points="1.02,1.97 1.97,1.97 1.29,1.29 "/>
   <path class="fil1" d="M6.3 4.82c0.82,0 1.48,0.67 1.48,1.48 0,0.82 -0.66,1.48 -1.48,1.48 -0.81,0 -1.48,-0.66 -1.48,-1.48 0,-0.81 0.67,-1.48 1.48,-1.48zm-0.71 1.26l0.49 0 0 -0.49c0,-0.12 0.1,-0.21 0.22,-0.21l0 0c0.12,0 0.22,0.09 0.22,0.21l0 0.49 0.49 0c0.12,0 0.22,0.1 0.22,0.22l0 0c0,0.12 -0.1,0.22 -0.22,0.22l-0.49 0 0 0.49c0,0.12 -0.1,0.22 -0.22,0.22l0 0c-0.12,0 -0.22,-0.1 -0.22,-0.22l0 -0.49 -0.49 0c-0.12,0 -0.21,-0.1 -0.21,-0.22l0 0c0,-0.12 0.09,-0.22 0.21,-0.22z"/>
   <path class="fil2" d="M7.15 3.88c0,0.21 -0.16,0.37 -0.37,0.37 -0.2,0 -0.37,-0.16 -0.37,-0.37l0 -1.18 -5.67 0 0 4.05 3.37 0c0.2,0 0.37,0.17 0.37,0.37 0,0.2 -0.17,0.37 -0.37,0.37l-3.4 0c-0.19,0 -0.37,-0.08 -0.5,-0.21 -0.13,-0.13 -0.21,-0.31 -0.21,-0.51l0 -4.09c0,-0.2 0.08,-0.37 0.21,-0.5 0.13,-0.13 0.31,-0.21 0.5,-0.21l5.73 0c0.19,0 0.37,0.08 0.5,0.21 0.13,0.13 0.21,0.3 0.21,0.5l0 1.2z"/>
   <path class="fil2" d="M6.72 2.03c0.18,0.07 0.28,0.28 0.2,0.47 -0.07,0.19 -0.29,0.28 -0.47,0.21l-4.95 -1.97 -0.75 1.92c-0.08,0.19 -0.29,0.28 -0.48,0.21 -0.19,-0.07 -0.28,-0.29 -0.21,-0.48 0.26,-0.65 0.51,-1.3 0.77,-1.94l0 0c0.07,-0.19 0.22,-0.32 0.38,-0.39 0.17,-0.07 0.36,-0.08 0.54,-0.01l0 0 4.97 1.98z"/>
   <circle class="fil1" cx="2.48" cy="4.73" r="0.63"/>
  </g>
 </g>
</svg>
