<?xml version="1.0" encoding="UTF-8"?>
<!DOCTYPE svg PUBLIC "-//W3C//DTD SVG 1.1//EN" "http://www.w3.org/Graphics/SVG/1.1/DTD/svg11.dtd">
<!-- Creator: CorelDRAW 2020 (64-Bit Evaluation Version) -->
<svg xmlns="http://www.w3.org/2000/svg" xml:space="preserve" width="70px" height="70px" version="1.1" style="shape-rendering:geometricPrecision; text-rendering:geometricPrecision; image-rendering:optimizeQuality; fill-rule:evenodd; clip-rule:evenodd"
viewBox="0 0 5.94 5.94"
 xmlns:xlink="http://www.w3.org/1999/xlink"
 xmlns:xodm="http://www.corel.com/coreldraw/odm/2003">
 <defs>
  <style type="text/css">
   <![CDATA[
    .fil0 {fill:#FEC00F}
    .fil1 {fill:#263674;fill-rule:nonzero}
   ]]>
  </style>
 </defs>
 <g id="Layer_x0020_1">
  <metadata id="CorelCorpID_0Corel-Layer"/>
  <g id="_2326842490352">
   <polygon class="fil0" points="5.59,5.59 0.35,0.35 0.35,5.59 "/>
   <path class="fil1" d="M5.24 3.62c0,-0.19 0.16,-0.35 0.35,-0.35 0.19,0 0.35,0.16 0.35,0.35l0 1.97c0,0.19 -0.16,0.35 -0.35,0.35l-5.24 0c-0.19,0 -0.35,-0.16 -0.35,-0.35l0 -5.24c0,-0.19 0.16,-0.35 0.35,-0.35l2.09 0c0.19,0 0.35,0.16 0.35,0.35 0,0.19 -0.16,0.35 -0.35,0.35l-1.74 0 0 4.54 4.54 0 0 -1.62z"/>
   <path class="fil1" d="M3.92 0.35c0,-0.19 0.16,-0.35 0.35,-0.35 0.19,0 0.35,0.16 0.35,0.35l0 2.64c0,0.19 -0.16,0.35 -0.35,0.35 -0.19,0 -0.35,-0.16 -0.35,-0.35l0 -2.64z"/>
   <path class="fil1" d="M5.59 1.32c0.19,0 0.35,0.16 0.35,0.35 0,0.19 -0.16,0.35 -0.35,0.35l-2.64 0c-0.19,0 -0.35,-0.16 -0.35,-0.35 0,-0.19 0.16,-0.35 0.35,-0.35l2.64 0z"/>
  </g>
 </g>
</svg>
