<?xml version="1.0" encoding="UTF-8"?>
<!DOCTYPE svg PUBLIC "-//W3C//DTD SVG 1.1//EN" "http://www.w3.org/Graphics/SVG/1.1/DTD/svg11.dtd">
<!-- Creator: CorelDRAW 2020 (64-Bit Evaluation Version) -->
<svg xmlns="http://www.w3.org/2000/svg" xml:space="preserve" width="70px" height="70px" version="1.1" style="shape-rendering:geometricPrecision; text-rendering:geometricPrecision; image-rendering:optimizeQuality; fill-rule:evenodd; clip-rule:evenodd"
viewBox="0 0 12.31 12.31"
 xmlns:xlink="http://www.w3.org/1999/xlink"
 xmlns:xodm="http://www.corel.com/coreldraw/odm/2003">
 <defs>
  <style type="text/css">
   <![CDATA[
    .str0 {stroke:#263674;stroke-width:0.05;stroke-miterlimit:2.61313}
    .str1 {stroke:#263674;stroke-width:0.1;stroke-linecap:round;stroke-miterlimit:2.61313}
    .fil2 {fill:none}
    .fil1 {fill:#FEC00F}
    .fil0 {fill:#263674;fill-rule:nonzero}
   ]]>
  </style>
 </defs>
 <g id="Layer_x0020_1">
  <metadata id="CorelCorpID_0Corel-Layer"/>
  <g id="_2326843753440">
   <path class="fil0" d="M7.38 11.51c0.18,-0.04 0.36,0.07 0.4,0.25 0.04,0.17 -0.07,0.35 -0.25,0.39 -0.23,0.05 -0.45,0.09 -0.68,0.12 -0.24,0.03 -0.47,0.04 -0.7,0.04 -1.7,0 -3.23,-0.69 -4.35,-1.8 -1.11,-1.12 -1.8,-2.66 -1.8,-4.36 0,-1.7 0.69,-3.23 1.8,-4.35 1.12,-1.11 2.65,-1.8 4.35,-1.8 1.7,0 3.24,0.69 4.36,1.8 1.11,1.12 1.8,2.65 1.8,4.35 0,0.31 -0.02,0.62 -0.07,0.92 -0.05,0.3 -0.11,0.6 -0.21,0.9 -0.05,0.17 -0.23,0.27 -0.41,0.22 -0.17,-0.06 -0.27,-0.24 -0.22,-0.42 0.08,-0.26 0.14,-0.52 0.19,-0.8 0.04,-0.27 0.06,-0.54 0.06,-0.82 0,-1.51 -0.62,-2.89 -1.61,-3.88 -1,-0.99 -2.37,-1.61 -3.89,-1.61 -1.51,0 -2.89,0.62 -3.88,1.61 -0.99,0.99 -1.61,2.37 -1.61,3.88 0,1.52 0.62,2.89 1.61,3.89 0.99,0.99 2.37,1.61 3.88,1.61 0.21,0 0.42,-0.01 0.62,-0.04 0.21,-0.02 0.41,-0.06 0.61,-0.1z"/>
   <path class="fil0" d="M10.93 8.86c0.09,-0.15 0.29,-0.21 0.45,-0.12 0.16,0.09 0.22,0.29 0.13,0.45 -0.13,0.22 -0.27,0.43 -0.42,0.64 -0.15,0.2 -0.32,0.4 -0.49,0.58 -0.13,0.13 -0.34,0.14 -0.47,0.01 -0.13,-0.13 -0.13,-0.33 -0.01,-0.47 0.16,-0.16 0.31,-0.33 0.44,-0.51 0.14,-0.19 0.26,-0.38 0.37,-0.58z"/>
   <path class="fil0" d="M9.17 10.74c0.15,-0.1 0.36,-0.05 0.46,0.1 0.1,0.15 0.06,0.36 -0.1,0.46 -0.08,0.05 -0.16,0.1 -0.23,0.14 -0.07,0.05 -0.15,0.09 -0.25,0.14 -0.16,0.09 -0.36,0.03 -0.44,-0.13 -0.09,-0.17 -0.03,-0.37 0.13,-0.45 0.07,-0.04 0.14,-0.08 0.22,-0.12 0.08,-0.05 0.15,-0.1 0.21,-0.14z"/>
   <path class="fil1" d="M4.29 5.5l-0.93 0 0 1.87c0,1.86 2.17,2.79 3.1,2.48l-1.04 -4.61 -1.13 0.26z"/>
   <path class="fil0" d="M4.6 5.5c0,0.18 -0.14,0.31 -0.31,0.31 -0.17,0 -0.31,-0.13 -0.31,-0.31l0 -1.24c0,-0.57 0.29,-1.14 0.77,-1.55 0.44,-0.37 1.04,-0.62 1.71,-0.62 0.38,0 0.76,0.1 1.09,0.29 0.3,0.19 0.57,0.46 0.74,0.81 0.08,0.15 0.02,0.34 -0.13,0.42 -0.16,0.07 -0.34,0.01 -0.42,-0.14 -0.12,-0.24 -0.3,-0.43 -0.51,-0.55 -0.23,-0.14 -0.5,-0.21 -0.77,-0.21 -0.52,0 -0.97,0.19 -1.31,0.47 -0.34,0.3 -0.55,0.69 -0.55,1.08l0 1.24z"/>
   <path class="fil0" d="M4.78 5.5c0,0.14 -0.06,0.26 -0.14,0.35 -0.09,0.09 -0.21,0.14 -0.35,0.14 -0.13,0 -0.25,-0.05 -0.34,-0.14 -0.09,-0.09 -0.15,-0.21 -0.15,-0.35l0 -1.24c0,-0.31 0.08,-0.62 0.23,-0.91 0.14,-0.28 0.35,-0.55 0.61,-0.77 0.24,-0.21 0.52,-0.38 0.85,-0.5 0.3,-0.11 0.63,-0.17 0.97,-0.17 0.21,0 0.41,0.03 0.62,0.08 0.19,0.06 0.38,0.14 0.56,0.24 0.17,0.11 0.33,0.23 0.47,0.38 0.13,0.15 0.25,0.32 0.34,0.5l0 0c0.06,0.12 0.07,0.26 0.03,0.37l0 0c-0.04,0.12 -0.13,0.22 -0.25,0.28l0 0.01c-0.12,0.05 -0.25,0.06 -0.37,0.02 -0.11,-0.04 -0.22,-0.12 -0.28,-0.24 -0.05,-0.1 -0.11,-0.2 -0.18,-0.28 -0.08,-0.08 -0.17,-0.15 -0.26,-0.2 -0.1,-0.06 -0.21,-0.11 -0.32,-0.14 -0.11,-0.03 -0.23,-0.04 -0.36,-0.04 -0.23,0 -0.45,0.04 -0.64,0.11 -0.21,0.07 -0.4,0.18 -0.55,0.32 -0.16,0.13 -0.28,0.28 -0.37,0.45 -0.08,0.16 -0.12,0.33 -0.12,0.49l0 1.24zm-0.39 0.1c0.02,-0.03 0.04,-0.06 0.04,-0.1l0 -1.24c0,-0.22 0.05,-0.44 0.16,-0.65 0.1,-0.21 0.26,-0.4 0.45,-0.56 0.19,-0.16 0.41,-0.29 0.66,-0.38 0.23,-0.09 0.49,-0.14 0.76,-0.14 0.16,0 0.31,0.02 0.45,0.06 0.14,0.04 0.28,0.1 0.41,0.17 0.12,0.08 0.23,0.17 0.33,0.28l0 0c0.1,0.1 0.18,0.22 0.25,0.35 0.01,0.03 0.04,0.06 0.07,0.07 0.04,0.01 0.07,0.01 0.11,-0.01l0 0c0.03,-0.02 0.05,-0.05 0.06,-0.08 0.01,-0.03 0.01,-0.07 0,-0.1l0 0c-0.08,-0.16 -0.18,-0.3 -0.29,-0.42l0 0c-0.12,-0.12 -0.25,-0.23 -0.39,-0.31 -0.15,-0.09 -0.31,-0.16 -0.48,-0.21 -0.16,-0.04 -0.34,-0.07 -0.52,-0.07 -0.3,0 -0.59,0.06 -0.85,0.15 -0.28,0.11 -0.53,0.25 -0.75,0.44 -0.22,0.19 -0.4,0.41 -0.52,0.66 -0.12,0.24 -0.18,0.5 -0.18,0.75l0 1.24c0,0.04 0.01,0.07 0.04,0.1l0 0c0.02,0.02 0.05,0.04 0.09,0.04 0.04,0 0.07,-0.02 0.1,-0.04l0 0z"/>
   <path class="fil0" d="M8.64 6.49c0,-0.17 0.14,-0.31 0.31,-0.31 0.17,0 0.31,0.14 0.31,0.31l0 0.94c0,0.84 -0.33,1.53 -0.88,2.01 -0.56,0.51 -1.35,0.78 -2.23,0.78 -0.87,0 -1.66,-0.27 -2.23,-0.78 -0.54,-0.48 -0.87,-1.17 -0.87,-2.01l0 -2.18 4.66 0c0.17,0 0.31,0.14 0.31,0.31 0,0.17 -0.14,0.31 -0.31,0.31l-4.04 0 0 1.56c0,0.65 0.25,1.18 0.67,1.55 0.45,0.4 1.09,0.62 1.81,0.62 0.73,0 1.37,-0.22 1.82,-0.62 0.42,-0.37 0.67,-0.9 0.67,-1.55l0 -0.94z"/>
   <path class="fil0" d="M8.46 6.49c0,-0.13 0.06,-0.25 0.14,-0.34 0.09,-0.09 0.21,-0.14 0.35,-0.14 0.13,0 0.25,0.05 0.34,0.14l0 0c0.09,0.09 0.15,0.21 0.15,0.34l0 0.94c0,0.43 -0.09,0.83 -0.24,1.19 -0.16,0.37 -0.4,0.69 -0.7,0.96 -0.3,0.26 -0.66,0.47 -1.06,0.61 -0.39,0.13 -0.83,0.21 -1.29,0.21 -0.45,0 -0.89,-0.08 -1.28,-0.21 -0.4,-0.14 -0.76,-0.35 -1.06,-0.61 -0.3,-0.27 -0.54,-0.59 -0.7,-0.96 -0.15,-0.36 -0.24,-0.76 -0.24,-1.19l0 -2.35 4.84 0c0.13,0 0.25,0.05 0.34,0.14 0.09,0.09 0.14,0.21 0.14,0.34 0,0.14 -0.05,0.26 -0.14,0.35 -0.09,0.09 -0.21,0.14 -0.34,0.14l-3.86 0 0 1.38c0,0.29 0.05,0.56 0.15,0.79 0.11,0.25 0.26,0.46 0.45,0.63 0.21,0.18 0.46,0.33 0.75,0.42 0.29,0.1 0.61,0.15 0.95,0.15 0.35,0 0.67,-0.05 0.96,-0.15 0.28,-0.09 0.54,-0.24 0.74,-0.42 0.2,-0.17 0.35,-0.38 0.46,-0.63 0.1,-0.23 0.15,-0.5 0.15,-0.79l0 -0.94zm0.39 -0.09c-0.02,0.02 -0.04,0.06 -0.04,0.09l0 0.94c0,0.34 -0.06,0.65 -0.18,0.93 -0.13,0.3 -0.31,0.55 -0.54,0.75 -0.24,0.22 -0.54,0.38 -0.87,0.5 -0.32,0.11 -0.69,0.17 -1.07,0.17 -0.38,0 -0.74,-0.06 -1.06,-0.17 -0.33,-0.12 -0.63,-0.28 -0.87,-0.5 -0.23,-0.2 -0.42,-0.45 -0.54,-0.75 -0.12,-0.28 -0.19,-0.59 -0.19,-0.93l0 -1.73 4.22 0c0.03,0 0.07,-0.02 0.09,-0.04 0.03,-0.03 0.04,-0.06 0.04,-0.1 0,-0.03 -0.01,-0.07 -0.04,-0.09 -0.02,-0.03 -0.06,-0.04 -0.09,-0.04l-4.48 0 0 2c0,0.39 0.07,0.74 0.2,1.05 0.14,0.32 0.35,0.6 0.61,0.83 0.27,0.24 0.59,0.42 0.94,0.54 0.36,0.13 0.76,0.19 1.17,0.19 0.42,0 0.82,-0.06 1.18,-0.19 0.35,-0.12 0.67,-0.3 0.94,-0.54 0.26,-0.23 0.46,-0.51 0.6,-0.83 0.14,-0.31 0.21,-0.66 0.21,-1.05l0 -0.94c0,-0.03 -0.01,-0.07 -0.04,-0.09 -0.02,-0.02 -0.05,-0.04 -0.09,-0.04 -0.04,0 -0.07,0.02 -0.1,0.04z"/>
   <path class="fil0 str0" d="M5.84 7.68c0,-0.17 0.14,-0.31 0.31,-0.31 0.18,0 0.31,0.14 0.31,0.31l0 0.62c0,0.17 -0.13,0.31 -0.31,0.31 -0.17,0 -0.31,-0.14 -0.31,-0.31l0 -0.62z"/>
   <line class="fil2 str1" x1="6.15" y1="7.37" x2="6.15" y2= "7.37" />
  </g>
 </g>
</svg>
