<?xml version="1.0" encoding="UTF-8"?>
<!DOCTYPE svg PUBLIC "-//W3C//DTD SVG 1.1//EN" "http://www.w3.org/Graphics/SVG/1.1/DTD/svg11.dtd">
<!-- Creator: CorelDRAW 2020 (64-Bit Evaluation Version) -->
<svg xmlns="http://www.w3.org/2000/svg" xml:space="preserve" width="70px" height="70px" version="1.1" style="shape-rendering:geometricPrecision; text-rendering:geometricPrecision; image-rendering:optimizeQuality; fill-rule:evenodd; clip-rule:evenodd"
viewBox="0 0 9.04 9.04"
 xmlns:xlink="http://www.w3.org/1999/xlink"
 xmlns:xodm="http://www.corel.com/coreldraw/odm/2003">
 <defs>
  <style type="text/css">
   <![CDATA[
    .fil2 {fill:#263674}
    .fil1 {fill:#FEC00F}
    .fil0 {fill:#263674;fill-rule:nonzero}
   ]]>
  </style>
 </defs>
 <g id="Layer_x0020_1">
  <metadata id="CorelCorpID_0Corel-Layer"/>
  <g id="_2282279940464">
   <path class="fil0" d="M2.49 6.85l1.95 -2.92c0.12,-0.18 0.37,-0.23 0.54,-0.11 0.06,0.04 0.1,0.08 0.13,0.14l0 0 0.8 1.47 2.43 -3.24c0.13,-0.17 0.37,-0.21 0.55,-0.08 0.1,0.08 0.15,0.2 0.15,0.31l0 0 0 6.23c0,0.22 -0.17,0.39 -0.39,0.39l-8.26 0c-0.21,0 -0.39,-0.17 -0.39,-0.39 0,-0.04 0.01,-0.08 0.02,-0.11l0.64 -2.57c0.06,-0.21 0.27,-0.33 0.48,-0.28 0.06,0.01 0.12,0.05 0.17,0.09l1.18 1.07zm2.24 -1.95l-1.83 2.74c-0.01,0.02 -0.03,0.04 -0.05,0.06 -0.14,0.16 -0.39,0.17 -0.55,0.03l-1.04 -0.94 -0.37 1.47 7.37 0 0 -4.67 -2.08 2.78c-0.03,0.05 -0.08,0.1 -0.14,0.13 -0.19,0.1 -0.43,0.03 -0.53,-0.16l-0.78 -1.44z"/>
   <path class="fil1" d="M7.79 7.79l-1.19 -1.19 -0.03 0.02c-0.03,0.06 -0.08,0.12 -0.13,0.16l0 0c-0.06,0.05 -0.12,0.1 -0.18,0.13 -0.21,0.11 -0.44,0.13 -0.65,0.07 -0.21,-0.07 -0.4,-0.21 -0.51,-0.42l-0.41 -0.76 -1.33 1.99 4.43 0z"/>
   <path class="fil1" d="M3.9 3.9l-0.15 -0.15c-0.13,0.17 -0.21,0.37 -0.25,0.59 -0.13,-0.6 -0.55,-1.04 -1.29,-1.29 0.22,-0.04 0.42,-0.12 0.59,-0.25l-1.5 -1.5c-0.56,0.57 -0.91,1.35 -0.91,2.21l0 2c0.06,-0.07 0.13,-0.13 0.21,-0.18 0.19,-0.11 0.42,-0.15 0.65,-0.1 0.07,0.02 0.14,0.05 0.2,0.08 0.06,0.04 0.12,0.08 0.17,0.12l0 0 0.78 0.71 1.5 -2.24z"/>
   <path class="fil0" d="M0.87 4.21c0.06,0.21 -0.07,0.42 -0.27,0.47 -0.21,0.06 -0.43,-0.07 -0.48,-0.27 -0.04,-0.15 -0.07,-0.3 -0.09,-0.45 -0.02,-0.16 -0.03,-0.31 -0.03,-0.45 0,-0.97 0.39,-1.85 1.03,-2.48 0.63,-0.64 1.51,-1.03 2.48,-1.03 0.91,0 1.76,0.36 2.38,0.94 0.63,0.59 1.05,1.4 1.11,2.32 0.02,0.22 -0.15,0.4 -0.36,0.42 -0.22,0.01 -0.4,-0.15 -0.42,-0.37 -0.05,-0.71 -0.37,-1.34 -0.86,-1.8 -0.48,-0.45 -1.14,-0.73 -1.85,-0.73 -0.76,0 -1.44,0.31 -1.93,0.8 -0.49,0.49 -0.8,1.17 -0.8,1.93 0,0.12 0.01,0.24 0.02,0.35 0.02,0.11 0.04,0.23 0.07,0.35z"/>
   <path class="fil2" d="M3.5 1.76c0.17,0.74 0.56,1.26 1.29,1.29 -0.75,0.26 -1.19,0.68 -1.29,1.29 -0.13,-0.6 -0.55,-1.04 -1.29,-1.29 0.31,-0.05 0.57,-0.19 0.79,-0.41 0.21,-0.21 0.38,-0.51 0.5,-0.88z"/>
  </g>
 </g>
</svg>
