<?xml version="1.0" encoding="UTF-8"?>
<!DOCTYPE svg PUBLIC "-//W3C//DTD SVG 1.1//EN" "http://www.w3.org/Graphics/SVG/1.1/DTD/svg11.dtd">
<!-- Creator: CorelDRAW 2020 (64-Bit Evaluation Version) -->
<svg xmlns="http://www.w3.org/2000/svg" xml:space="preserve" width="60px" height="60px" version="1.1" style="shape-rendering:geometricPrecision; text-rendering:geometricPrecision; image-rendering:optimizeQuality; fill-rule:evenodd; clip-rule:evenodd"
viewBox="0 0 4.7 4.7"
 xmlns:xlink="http://www.w3.org/1999/xlink"
 xmlns:xodm="http://www.corel.com/coreldraw/odm/2003">
 <defs>
  <style type="text/css">
   <![CDATA[
    .str1 {stroke:#263674;stroke-width:0.63;stroke-linecap:round;stroke-linejoin:round;stroke-miterlimit:2.61313}
    .str0 {stroke:#263674;stroke-width:0.38;stroke-linecap:round;stroke-linejoin:round;stroke-miterlimit:2.61313}
    .fil1 {fill:none}
    .fil0 {fill:#FEC00F}
   ]]>
  </style>
 </defs>
 <g id="Layer_x0020_1">
  <metadata id="CorelCorpID_0Corel-Layer"/>
  <g id="_2465789661408">
   <path class="fil0" d="M1.34 4.19l1.15 0c-0.03,-0.14 0.01,-0.3 0.11,-0.43l-2.39 -2.39 -0.02 0 0 3.01 1.15 0 0 -0.19z"/>
   <polyline class="fil1 str0" points="0.19,1.37 0.19,4.38 2.02,4.38 "/>
   <line class="fil1 str0" x1="4.38" y1="1.38" x2="4.39" y2= "1.86" />
   <polyline class="fil1 str0" points="4.38,1.36 4.08,0.19 0.49,0.19 0.19,1.37 3.15,1.37 "/>
   <line class="fil1 str0" x1="1.01" y1="2.88" x2="1.71" y2= "2.88" />
   <line class="fil1 str0" x1="2.21" y1="0.31" x2="2.21" y2= "0.66" />
   <line class="fil1 str1" x1="4.38" y1="2.72" x2="3.01" y2= "4.09" />
   <g>
    <line class="fil1 str1" x1="3.2" y1="2.43" x2="3.17" y2= "2.46" />
    <line class="fil1 str1" x1="4.22" y1="4.35" x2="4.19" y2= "4.38" />
   </g>
  </g>
 </g>
</svg>
