<svg xmlns="http://www.w3.org/2000/svg" xmlns:xlink="http://www.w3.org/1999/xlink" width="100" height="100" viewBox="0 0 13.32 13.32" shape-rendering="geometricPrecision" image-rendering="optimizeQuality" fill-rule="evenodd" xmlns:v="https://vecta.io/nano"><defs><linearGradient id="A" gradientUnits="userSpaceOnUse" x1="6.86" y1="-7.64" x2="6.86" y2="12.35"><stop offset="0" stop-color="#efb30c"/><stop offset="1" stop-color="#fff"/></linearGradient><path id="B" d="M1.73 10.26c-.13-.13-.13-.35 0-.48.13-.12.34-.12.47 0l1.78 1.78c.13.13.13.34 0 .47s-.34.13-.47 0l-1.78-1.77z"/></defs><circle cx="6.66" cy="6.66" r="6.66" fill="url(#A)"/><rect x=".43" y="6.46" width="12.46" height="6.85" rx=".86" ry="1.04" fill="#263674"/><g fill="#fff"><rect x=".8" y="6.91" width="11.72" height="5.95" rx=".81" ry=".9"/><path d="M2.62 6.35l.05.04-.05.05.1-.01.44.38 1.5 1.21c1.09.87 2.9.85 4.01-.04l1.45-1.17h0l.57-.41h-.35c.12-.01.24-.01.35-.01l-.57-.41v-.01L8.67 4.81c-1.11-.89-2.92-.91-4.01-.04l-1.5 1.2-.44.38h-.1zm4.68.06h0-1.66 0H7.3z"/></g><path d="M10.11 6.85l-1.5 1.5c-1.07 1.08-2.83 1.08-3.91 0l-1.5-1.5 1.49 1.2c1.08.86 2.87.84 3.98-.04l1.44-1.16zm-1.5-2.41l1.5 1.49-1.49-1.19c-1.08-.86-2.87-.85-3.98.04L3.2 5.93l1.5-1.49c1.08-1.08 2.84-1.08 3.91 0z" fill="#263674"/><circle cx="6.66" cy="6.39" r="1.46" fill="#efb30c"/><circle cx="6.66" cy="6.39" r=".56" fill="#263674"/><circle cx="6.25" cy="6.06" r=".27" fill="#fff"/><g fill="#efb30c" fill-rule="nonzero"><use xlink:href="#B"/><path d="M3.51 9.78c.13-.12.34-.12.47 0 .13.13.13.35 0 .48L2.2 12.03c-.13.13-.34.13-.47 0s-.13-.34 0-.47l1.78-1.78z"/><use xlink:href="#B" x="3.8"/><path d="M7.31 9.78c.13-.12.34-.12.47 0 .13.13.13.35 0 .48L6 12.03c-.13.13-.34.13-.47 0s-.13-.34 0-.47l1.78-1.78z"/><use xlink:href="#B" x="7.6"/><path d="M11.11 9.78c.13-.12.34-.12.47 0 .13.13.13.35 0 .48L9.8 12.03c-.13.13-.34.13-.47 0s-.13-.34 0-.47l1.78-1.78z"/></g></svg>