<svg xmlns="http://www.w3.org/2000/svg" viewBox="0 0 416.4 416.4" xmlns:v="https://vecta.io/nano"><defs><linearGradient id="A" x1="343.57" y1="375.23" x2="123.12" y2="103.23" gradientUnits="userSpaceOnUse"><stop offset="0" stop-color="#263674"/><stop offset="1" stop-color="#fff" stop-opacity="0"/></linearGradient></defs><circle cx="208.2" cy="208.2" r="208.2" opacity=".1" fill="url(#A)"/><path d="M399.47 328.12l-11 11.06-11.05-11.06a9.37 9.37 0 0 0-13.25 13.25l11 11.05-11 11a9.373 9.373 0 1 0 13.25 13.26l11.05-11.05 11 11.05a9.38 9.38 0 1 0 13.26-13.26l-11.05-11 11.05-11.05a9.373 9.373 0 0 0-13.26-13.25zm-9.89-231.49l-4.7 4.71-4.69-4.71a4 4 0 1 0-5.64 5.64l4.69 4.69-4.69 4.7a4 4 0 0 0 5.64 5.64l4.69-4.7 4.7 4.7a4 4 0 0 0 5.63-5.64l-4.69-4.7 4.69-4.69a4 4 0 1 0-5.63-5.64zm-93-79l-4.7 4.71-4.69-4.71a4 4 0 0 0-5.64 5.64l4.69 4.73-4.69 4.7a4 4 0 0 0 5.64 5.64l4.69-4.7 4.7 4.7a4 4 0 0 0 5.63-5.64l-4.69-4.7 4.69-4.69a4 4 0 0 0-5.63-5.64zM71.86 41.19l-8 8-8-8a6.76 6.76 0 0 0-9.56 9.55l8 8-8 8a6.76 6.76 0 1 0 9.56 9.56l8-8 8 8a6.76 6.76 0 0 0 9.56-9.56l-8-8 8-8a6.76 6.76 0 0 0-9.56-9.55z" opacity=".3" fill="#263674"/><path d="M111.93,375.46l-8.75,8.75-8.74-8.75A7.42,7.42,0,0,0,83.94,386l8.75,8.75-8.76,8.74A7.42,7.42,0,0,0,94.42,414h0l8.75-8.75,8.74,8.75a7.42,7.42,0,0,0,10.5-10.5h0l-8.74-8.74,8.74-8.75a7.42,7.42,0,0,0-10.5-10.5Z" opacity=".3" fill="#fb3"/><g opacity=".3"><path d="M412.32 28.92l-10.12-7.11 7.1-10.12a7.42 7.42 0 1 0-12.13-8.54L390 13.26l-10.1-7.11a7.42 7.42 0 1 0-8.54 12.14l10.11 7.11-7.07 10.12a7.43 7.43 0 0 0 12.16 8.53l7.1-10.12L403.79 41a7.42 7.42 0 0 0 8.53-12.14z" fill="#fb3"/></g><g opacity=".3"><path d="M338,393.09,330.73,388l5.07-7.22a5.29,5.29,0,0,0-8.66-6.09l-5.08,7.21-7.21-5.07a5.29,5.29,0,0,0-6.09,8.66l7.22,5.07-5.07,7.22a5.3,5.3,0,0,0,8.67,6.09l5.06-7.22,7.23,5.07a5.29,5.29,0,0,0,6.09-8.66Z" fill="#fb3"/></g><g opacity=".3"><path d="M36,115.9,30.37,112l3.92-5.59a4.09,4.09,0,1,0-6.7-4.71l-3.93,5.58-5.58-3.92a4.1,4.1,0,0,0-4.72,6.7L18.94,114,15,119.55a4.1,4.1,0,0,0,6.71,4.71l3.92-5.59,5.59,3.92a4.1,4.1,0,1,0,4.72-6.7Z" fill="#fb3"/></g><g opacity=".3"><path d="M46.13,330.42l-6.47-4.54,4.54-6.47A4.74,4.74,0,1,0,36.44,314l-4.55,6.47-6.46-4.55A4.74,4.74,0,1,0,20,323.63l6.46,4.54-4.54,6.48a4.75,4.75,0,0,0,7.77,5.45l4.54-6.47,6.47,4.54a4.74,4.74,0,0,0,5.46-7.76Z" fill="#263674"/></g><path d="M346.49 141.47l-35.89 14.94A119.18 119.18 0 0 0 248.41 99l9.09-38.08a158 158 0 0 1 88.99 80.55z" fill="#324687"/><path d="M257.55,60.91,248.41,99C157.58,59.45,57.52,155,91.74,247.47L55.89,262.38C8.52,141.3,137,14,257.55,60.91Z" fill="#263674"/><path d="M361.78 209.19c.68 94-84 168.49-177 156.38l9.09-38.08c83.57 8.92 151.2-77.64 122.74-156.55L352.48 156a157.7 157.7 0 0 1 9.3 53.19z" fill="#fb3"/><path d="M193.91 327.49l-9.08 38.08A157.71 157.71 0 0 1 61.94 277l35.9-15a118.76 118.76 0 0 0 96.07 65.49zm46.45-185.26v5.36h-10.71v-5.36a5.36 5.36 0 0 1 10.71 0zm-21.42-10.7v16.06h-10.7v-16.06a5.35 5.35 0 1 1 10.7 0zm-21.41 10.7v5.36h-10.71v-5.36a5.36 5.36 0 0 1 10.71 0zm-21.41 0v5.36h-10.7v-5.36a5.35 5.35 0 1 1 10.7 0z" fill="#edb00d"/><path d="M283.17 163.65V169H133.3v-5.34a5.35 5.35 0 0 1 5.36-5.35h139.16a5.34 5.34 0 0 1 5.35 5.34zm-149.86 16.04v53.54a5.36 5.36 0 0 0 5.35 5.35h91.8l2.6-15.54a19.83 19.83 0 0 1 39.4 3.27v12.27h5.35a5.36 5.36 0 0 0 5.36-5.35v-53.54zm42.81 53.54a21.18 21.18 0 0 1-8-1.63 21.08 21.08 0 0 1-8 1.63 21.42 21.42 0 1 1 0-42.83 20.89 20.89 0 0 1 8 1.63 21 21 0 0 1 8-1.63 21.42 21.42 0 1 1 0 42.83z" fill="#263674"/><path d="M186.82 211.82a10.71 10.71 0 0 1-10.7 10.7 10.43 10.43 0 0 1-5.33-1.5l-2.7-1.57-2.7 1.57a10.39 10.39 0 0 1-5.32 1.5 10.71 10.71 0 1 1 0-21.41 10.39 10.39 0 0 1 5.32 1.5l2.7 1.57 2.7-1.57a10.43 10.43 0 0 1 5.33-1.5 10.71 10.71 0 0 1 10.7 10.71zm74.93 14.49v33.51a25.72 25.72 0 0 1-5.59 16l-15.8 19.76v67.32a145.09 145.09 0 0 1-64.24 0v-66.71l-13.35-26.71a25.73 25.73 0 0 1-2.69-11.48v-8.75h79.44l4.1-24.47a9.13 9.13 0 0 1 18.13 1.51z" fill="#edb00d"/></svg>