<svg xmlns="http://www.w3.org/2000/svg" width="100" height="101" viewBox="0 0 5.98 6.01" shape-rendering="geometricPrecision" image-rendering="optimizeQuality" fill-rule="evenodd" xmlns:v="https://vecta.io/nano"><defs><linearGradient id="A" gradientUnits="userSpaceOnUse" x1="3.08" y1="-3.3" x2="3.08" y2="5.33"><stop offset="0" stop-color="#efb30c"/><stop offset="1" stop-color="#fff"/></linearGradient></defs><circle cx="2.99" cy="2.87" r="2.87" fill="url(#A)"/><g fill-rule="nonzero"><path d="M1.3 3.47v1.99h-.17V3.47z" fill="#efb30c"/><path d="M1.48 3.98v.96H.95v-.96z" fill="#fff"/><path d="M1.57 3.98v1.05H.86V3.89h.71v.09zm-.17.88v-.8h-.37v.8h.37zm1.94-.84v1.99h-.17V4.02z" fill="#efb30c"/><path d="M3.52 4.54v.96h-.53v-.96z" fill="#fff"/><path d="M3.61 4.54v1.05H2.9V4.45h.71v.09zm-.17.88v-.8h-.37v.8h.37z" fill="#efb30c"/><path d="M2.32 3.16v1.99h-.17V3.16z" fill="#263674"/><path d="M2.5 3.67v.97h-.53v-.97z" fill="#fff"/><path d="M2.59 3.67v1.05h-.71V3.59h.71v.08zm-.17.89v-.8h-.37v.8h.37z" fill="#263674"/><path d="M5.38 2.65v1.99h-.17V2.65z" fill="#efb30c"/><path d="M5.57 3.16v.97h-.54v-.97z" fill="#fff"/><path d="M5.65 3.16v1.05h-.71V3.08h.71v.08zm-.17.88v-.8h-.37v.8h.37z" fill="#efb30c"/><path d="M4.36 3.52v1.99h-.17V3.52z" fill="#263674"/><path d="M4.55 4.04V5h-.54v-.96z" fill="#fff"/><path d="M4.63 4.04v1.05h-.71V3.95h.71v.09zm-.17.88v-.8h-.37v.8h.37z" fill="#263674"/></g><path d="M.83 2.8c0 .11 0 .15-.08.24-.15.16-.43.1-.5-.1-.1-.26.14-.48.39-.39.09.03.19.14.19.25zm2.68-.32c0-.29.34-.41.52-.22.17.18.05.51-.21.51-.17 0-.31-.13-.31-.29zM2.2 1.37c-.47 0-.4-.6-.03-.6.4 0 .39.6.03.6zM5.47.86a.31.31 0 0 1 0-.61.31.31 0 0 1 .21.51c-.05.05-.12.1-.21.1zM4.94.49v.13c0 .12.06.18.08.25l-.23.29c-.03.03-.03.03-.06.07-.02.03-.04.04-.06.07l-.24.28c-.03.03-.03.04-.06.07l-.3.36c-.3-.16-.56.03-.58.03-.04 0-.37-.31-.43-.36l-.1-.08-.32-.27c.02-.1.06-.11.06-.25 0-.48-.57-.69-.88-.4-.2.19-.22.48-.08.69-.06.04-.07.08-.12.12l-.82.89a.53.53 0 0 0-.8.44.53.53 0 0 0 .69.51c.31-.1.48-.49.27-.81a.68.68 0 0 0 .12-.12l.46-.49c.03-.05.08-.09.12-.13.08-.08.15-.19.24-.24.15.03.04.05.31.05a.47.47 0 0 0 .28-.1l.74.63c.03.03.09.07.11.09-.02.12-.05.09-.05.28 0 .26.22.5.54.5.26 0 .5-.23.5-.48 0-.22 0-.18-.1-.37.05-.03.37-.41.43-.48l.06-.08.48-.56a.53.53 0 0 0 .78-.47.53.53 0 0 0-.88-.38c-.07.06-.16.2-.16.32z" fill="#263674"/></svg>