<svg xmlns="http://www.w3.org/2000/svg" width="100" height="100" viewBox="0 0 13.17 13.2" shape-rendering="geometricPrecision" image-rendering="optimizeQuality" fill-rule="evenodd" xmlns:v="https://vecta.io/nano"><style><![CDATA[.H{fill-rule:nonzero}.I{fill:#efb30c}.J{fill:#263674}.K{fill:#f3c84e}.L{stroke-linecap:round}.M{stroke-miterlimit:2.61313}]]></style><defs><linearGradient id="A" gradientUnits="userSpaceOnUse" x1="6.78" y1="-7.56" x2="6.78" y2="12.21"><stop offset="0" stop-color="#efb30c"/><stop offset="1" stop-color="#fff"/></linearGradient></defs><circle cx="6.58" cy="6.58" r="6.58" fill="url(#A)"/><path d="M10.8 6.72h1.54c.12 0 .21.09.21.2v6.22.03h-1.96v-.02-6.23c0-.11.09-.2.21-.2zm-9.97-.3h1.54c.11 0 .21.09.21.2v6.54.01H.62v-.01-6.54c0-.11.09-.2.21-.2z" class="H I"/><g class="K H"><path d="M1.38 7.13h1.05c.08 0 .15.06.15.14v5.89.01H1.24v-.01-5.89c0-.08.06-.14.14-.14z"/><path d="M1.38 7.13h1.05c.08 0 .15.06.15.14v5.89.01H1.24v-.01-5.89c0-.08.06-.14.14-.14zm9.97.21h1.06c.07 0 .14.07.14.14v5.68.01h-1.34v-.01-5.68c0-.07.06-.14.14-.14z"/></g><path d="M4.15 9.49h1.54c.12 0 .21.09.21.2v3.46.02H3.94v-.01-3.47c0-.11.1-.2.21-.2z" class="H I"/><circle cx="1.6" cy="5.21" r=".94" class="J"/><circle cx="1.6" cy="5.21" r=".19" fill="#fff"/><circle cx="4.92" cy="8.39" r=".94" class="J"/><circle cx="4.92" cy="8.39" r=".19" fill="#fff"/><circle cx="8.25" cy="10.18" r=".94" class="J"/><circle cx="8.25" cy="10.18" r=".19" fill="#fff"/><circle cx="11.6" cy="5.59" r=".94" class="J"/><circle cx="11.6" cy="5.59" r=".19" fill="#fff"/><g class="H"><path d="M1.57 5.31c-.02-.03-.02-.07 0-.09.02-.03.06-.03.09 0l3.3 3.12 3.27 1.79 3.29-4.52c.02-.03.06-.03.09-.01.02.02.03.06.01.08l-3.36 4.61-3.37-1.85-.01-.01-3.31-3.12z" class="I"/><path d="M4.7 10.1h1.06c.08 0 .14.06.14.14v2.92.01H4.56v-.01-2.92c0-.08.06-.14.14-.14z" class="K"/><path d="M7.47 11.22h1.55a.2.2 0 0 1 .2.2v1.73.02H7.27v-.02-1.73a.2.2 0 0 1 .2-.2z" class="I"/></g><path d="M.51 13.17h2.18m1.14 0h2.18m4.47 0h2.18" stroke="#263674" stroke-width=".06" fill="none" class="L M"/><path d="M8.03 11.56h1.05c.08 0 .14.06.14.14v1.46.01H7.88v-.01-1.46c0-.08.07-.14.15-.14z" class="H K"/><path d="M7.16 13.17h2.17" stroke="#263674" stroke-width=".06" fill="none" class="L M"/></svg>