<?xml version="1.0" encoding="UTF-8"?>
<!DOCTYPE svg PUBLIC "-//W3C//DTD SVG 1.1//EN" "http://www.w3.org/Graphics/SVG/1.1/DTD/svg11.dtd">
<!-- Creator: CorelDRAW 2020 (64-Bit Evaluation Version) -->
<svg xmlns="http://www.w3.org/2000/svg" xml:space="preserve" width="60px" height="60px" version="1.1" style="shape-rendering:geometricPrecision; text-rendering:geometricPrecision; image-rendering:optimizeQuality; fill-rule:evenodd; clip-rule:evenodd"
viewBox="0 0 11.21 11.21"
 xmlns:xlink="http://www.w3.org/1999/xlink"
 xmlns:xodm="http://www.corel.com/coreldraw/odm/2003">
 <defs>
  <style type="text/css">
   <![CDATA[
    .fil0 {fill:#FEC00F}
    .fil1 {fill:#263674;fill-rule:nonzero}
   ]]>
  </style>
 </defs>
 <g id="Layer_x0020_1">
  <metadata id="CorelCorpID_0Corel-Layer"/>
  <path class="fil0" d="M2.23 4.11c0.2,0.37 0.51,0.94 0.92,1.69 0.81,1.5 1.42,2.63 1.82,3.39 0.04,0.07 0.08,0.11 0.12,0.12 0.03,0 0.08,-0.01 0.16,-0.04l4.8 -2.6 0.09 -0.05c0.13,-0.05 0.21,-0.1 0.25,-0.14 0.03,-0.05 0.07,-0.14 0.1,-0.26l0.03 -0.13c0.08,-0.25 -0.01,-0.42 -0.27,-0.5l-7.45 -2.22c-0.25,-0.08 -0.41,0.01 -0.49,0.26l-0.09 0.31c-0.02,0.04 -0.02,0.1 0.01,0.17zm5.55 4.39c-0.01,-0.01 -0.01,-0.02 -0.02,-0.04l-0.04 -0.06c-0.04,0.03 -0.07,0.05 -0.08,0.06l-2.2 1.18c-0.17,0.1 -0.33,0.12 -0.48,0.08 -0.14,-0.05 -0.26,-0.15 -0.35,-0.31l-1.19 -2.2c-0.01,-0.03 -0.02,-0.06 -0.04,-0.11 -0.02,0.01 -0.04,0.02 -0.06,0.03l-2.39 1.29c-0.06,0.03 -0.09,0.09 -0.09,0.17 -0.01,0.18 0.08,0.3 0.28,0.36l7.54 2.25c0.14,0.02 0.25,-0.01 0.33,-0.11 0.04,-0.05 0.07,-0.1 0.08,-0.14 0.01,-0.03 -0.01,-0.09 -0.04,-0.15 -0.28,-0.51 -0.7,-1.27 -1.25,-2.3zm-6.73 -0.65l2.08 -1.12c-0.25,-0.47 -0.62,-1.17 -1.12,-2.09l-0.96 3.21zm8.21 2.44l0.96 -3.2 -2.08 1.12 1.12 2.08z"/>
  <path class="fil1" d="M11.15 4.43c-0.06,0.16 -0.13,0.32 -0.21,0.48 -0.08,0.16 -0.17,0.31 -0.26,0.45 -0.1,0.15 -0.21,0.29 -0.32,0.42 -0.11,0.13 -0.24,0.26 -0.37,0.38l-0.11 0.1 -0.87 -0.95 0.11 -0.1c0.09,-0.09 0.18,-0.18 0.26,-0.27 0.08,-0.09 0.16,-0.19 0.23,-0.3 0.06,-0.1 0.12,-0.2 0.18,-0.31 0.06,-0.11 0.11,-0.23 0.15,-0.34l0.05 -0.15 1.22 0.45 -0.06 0.14z"/>
  <path class="fil1" d="M4.68 0.66c0,0.19 -0.25,2.68 0.09,3.57 0.03,0.08 0.07,0.15 0.11,0.21 0.05,0.07 0.1,0.13 0.16,0.19 0.06,0.06 0.12,0.11 0.19,0.15 0.06,0.05 0.13,0.09 0.21,0.12 0.04,0.01 0.07,0.03 0.11,0.04 0.03,0.01 0.07,0.02 0.11,0.03l0.1 0.02 0.02 0.1c0.01,0.03 0.02,0.07 0.02,0.11 0,0.04 0.01,0.08 0.01,0.11 0,0.16 -0.04,0.32 -0.1,0.45 -0.06,0.15 -0.15,0.28 -0.26,0.38l-0.06 0.06 -0.08 -0.02c-0.07,-0.01 -0.13,-0.03 -0.18,-0.05 -0.06,-0.02 -0.12,-0.04 -0.18,-0.06 -0.15,-0.07 -0.29,-0.14 -0.43,-0.23 -0.13,-0.1 -0.26,-0.2 -0.38,-0.31 -0.12,-0.12 -0.22,-0.26 -0.32,-0.4 -0.05,-0.08 -0.1,-0.16 -0.14,-0.25l-0.01 0.01c-0.19,-0.49 -0.24,-0.68 -0.26,-1.2l0 0 0 -1.93 -2.14 0 0 0.58 -1.27 0 0 -2.34 1.27 0 0 0.5 1.09 0c0.67,0.01 1.33,0.01 2.17,0.01l0.15 0 0 0.15z"/>
 </g>
</svg>
