<?xml version="1.0" encoding="UTF-8"?>
<!DOCTYPE svg PUBLIC "-//W3C//DTD SVG 1.1//EN" "http://www.w3.org/Graphics/SVG/1.1/DTD/svg11.dtd">
<!-- Creator: CorelDRAW 2020 (64-Bit Evaluation Version) -->
<svg xmlns="http://www.w3.org/2000/svg" xml:space="preserve" width="60px" height="60px" version="1.1" style="shape-rendering:geometricPrecision; text-rendering:geometricPrecision; image-rendering:optimizeQuality; fill-rule:evenodd; clip-rule:evenodd"
viewBox="0 0 33.27 33.27"
 xmlns:xlink="http://www.w3.org/1999/xlink"
 xmlns:xodm="http://www.corel.com/coreldraw/odm/2003">
 <defs>
  <style type="text/css">
   <![CDATA[
    .fil1 {fill:#263674}
    .fil0 {fill:#FEC00F}
   ]]>
  </style>
 </defs>
 <g id="Layer_x0020_1">
  <metadata id="CorelCorpID_0Corel-Layer"/>
  <g id="_1865225438368">
   <path class="fil0" d="M4.01 0l25.25 0 -0.22 14.1 -12.4 13.74 -12.63 -14.01 0 -13.83zm7.15 3.79l11.96 0c0.84,0 1.53,0.69 1.53,1.53l0 0c0,0.84 -0.69,1.53 -1.53,1.53l-11.96 0c-0.84,0 -1.53,-0.69 -1.53,-1.53l0 0c0,-0.84 0.69,-1.53 1.53,-1.53zm0 10.8l11.96 0c0.84,0 1.53,0.69 1.53,1.53l0 0c0,0.84 -0.69,1.53 -1.53,1.53l-11.96 0c-0.84,0 -1.53,-0.69 -1.53,-1.53l0 0c0,-0.84 0.69,-1.53 1.53,-1.53zm5.98 -5.51l5.98 0c0.84,0 1.53,0.68 1.53,1.53l0 0c0,0.84 -0.69,1.53 -1.53,1.53l-5.98 0c-0.84,0 -1.53,-0.69 -1.53,-1.53l0 0c0,-0.85 0.69,-1.53 1.53,-1.53z"/>
   <path class="fil1" d="M0 9.41l3.12 0 0 3.46 -3.12 -3.46zm29.99 0l3.28 0 -3.34 3.7 0.06 -3.7z"/>
   <polygon class="fil1" points="16.64,30.21 33.27,11.79 33.27,23.54 33.27,29.2 33.27,33.27 0,33.27 0,29.2 0,23.54 0,11.79 "/>
  </g>
 </g>
</svg>
