<?xml version="1.0" encoding="UTF-8"?>
<!DOCTYPE svg PUBLIC "-//W3C//DTD SVG 1.1//EN" "http://www.w3.org/Graphics/SVG/1.1/DTD/svg11.dtd">
<!-- Creator: CorelDRAW 2020 (64-Bit) -->
<svg xmlns="http://www.w3.org/2000/svg" xml:space="preserve" width="2.5in" height="2.54435in" version="1.1" style="shape-rendering:geometricPrecision; text-rendering:geometricPrecision; image-rendering:optimizeQuality; fill-rule:evenodd; clip-rule:evenodd"
viewBox="0 0 105.09 106.96"
 xmlns:xlink="http://www.w3.org/1999/xlink"
 xmlns:xodm="http://www.corel.com/coreldraw/odm/2003">
 <defs>
  <style type="text/css">
   <![CDATA[
    .str0 {stroke:white;stroke-width:2.27;stroke-miterlimit:2.61313}
    .str1 {stroke:#76808F;stroke-width:3.48;stroke-linecap:round;stroke-linejoin:round;stroke-miterlimit:10}
    .fil4 {fill:none}
    .fil11 {fill:none;fill-rule:nonzero}
    .fil3 {fill:#009933}
    .fil2 {fill:#33CC66}
    .fil1 {fill:#76808F}
    .fil12 {fill:#9098A4}
    .fil6 {fill:#CCCCCC}
    .fil8 {fill:#FFCC00}
    .fil0 {fill:#FFDA46}
    .fil9 {fill:white}
    .fil7 {fill:#76808F;fill-rule:nonzero}
    .fil10 {fill:#FFCC00;fill-rule:nonzero}
    .fil5 {fill:white;fill-rule:nonzero}
   ]]>
  </style>
     <clipPath id="id0">
      <path d="M76.65 11.83l4.95 -3.72 3.97 4.76 6.03 -1.39 1.69 5.96 6.08 1.19 -0.88 6.13 5.07 3.56 -3.3 5.24 3.18 5.31 -5.14 3.45 0.75 6.15 -6.1 1.06 -1.82 5.92 -6.01 -1.52 -4.07 4.67 -4.87 -3.83 -5.62 2.61 -2.89 -5.48 -6.19 0.1 -0.41 -6.18 -5.7 -2.43 2.14 -5.81 -4.22 -4.53 4.31 -4.44 -2.01 -5.86 5.75 -2.3 0.55 -6.17 6.19 0.23 3.01 -5.41 5.56 2.73z"/>
     </clipPath>
 </defs>
 <g id="Layer_x0020_1">
  <metadata id="CorelCorpID_0Corel-Layer"/>
  <path class="fil0" d="M93.04 2.7c0.09,-0.85 0.85,-1.47 1.7,-1.35 0.85,0.09 1.44,0.85 1.35,1.7l-0.21 1.64 1.64 0.21c0.85,0.09 1.44,0.85 1.35,1.7 -0.12,0.85 -0.88,1.44 -1.73,1.35l-1.64 -0.21 -0.18 1.64c-0.12,0.85 -0.88,1.44 -1.73,1.35 -0.82,-0.12 -1.44,-0.88 -1.32,-1.73l0.21 -1.64 -1.64 -0.18c-0.85,-0.12 -1.44,-0.88 -1.35,-1.73 0.09,-0.82 0.88,-1.44 1.7,-1.32l1.64 0.18 0.21 -1.61 0 0z"/>
  <path class="fil1" d="M82.5 64.69c0.09,-0.82 0.82,-1.42 1.64,-1.3 0.82,0.08 1.39,0.82 1.3,1.64l-0.2 1.59 1.59 0.2c0.82,0.08 1.39,0.82 1.3,1.64 -0.11,0.82 -0.85,1.39 -1.67,1.3l-1.59 -0.2 -0.17 1.59c-0.11,0.82 -0.85,1.39 -1.67,1.3 -0.79,-0.11 -1.39,-0.85 -1.27,-1.67l0.2 -1.59 -1.59 -0.17c-0.82,-0.11 -1.39,-0.85 -1.3,-1.67 0.08,-0.79 0.85,-1.39 1.64,-1.27l1.59 0.17 0.2 -1.56 -0 0z"/>
  <g id="_2689138646032">
   <g>
    <polygon class="fil2" points="76.65,11.83 81.6,8.11 85.57,12.86 91.6,11.47 93.29,17.43 99.37,18.62 98.49,24.75 103.56,28.31 100.26,33.55 103.44,38.86 98.3,42.31 99.05,48.46 92.95,49.51 91.13,55.43 85.13,53.92 81.06,58.59 76.19,54.76 70.57,57.37 67.68,51.89 61.49,52 61.08,45.82 55.38,43.39 57.52,37.58 53.3,33.04 57.61,28.6 55.6,22.74 61.35,20.44 61.9,14.27 68.09,14.51 71.09,9.1 "/>
    <g style="clip-path:url(#id0)">
     <g>
      <polygon id="1" class="fil3" points="51.89,9.84 103.31,5 56.74,61.26 56.74,61.26 "/>
     </g>
    </g>
    <polygon class="fil4 str0" points="76.65,11.83 81.6,8.11 85.57,12.86 91.6,11.47 93.29,17.43 99.37,18.62 98.49,24.75 103.56,28.31 100.26,33.55 103.44,38.86 98.3,42.31 99.05,48.46 92.95,49.51 91.13,55.43 85.13,53.92 81.06,58.59 76.19,54.76 70.57,57.37 67.68,51.89 61.49,52 61.08,45.82 55.38,43.39 57.52,37.58 53.3,33.04 57.61,28.6 55.6,22.74 61.35,20.44 61.9,14.27 68.09,14.51 71.09,9.1 "/>
    <path class="fil5" d="M64.41 35.55c-0.98,-0.99 -0.98,-2.58 0.01,-3.56 0.99,-0.98 2.58,-0.98 3.56,0.01l7.21 7.27 13.49 -17.21c0.86,-1.1 2.44,-1.29 3.53,-0.43 1.1,0.86 1.29,2.44 0.43,3.53l-15.2 19.38c-0.08,0.11 -0.17,0.21 -0.27,0.31 -0.99,0.98 -2.58,0.98 -3.56,-0.01l-9.21 -9.3z"/>
   </g>
   <path class="fil6" d="M5.09 97.67c0.41,0.94 0.99,1.79 1.71,2.5l0.08 0.08c1.46,1.42 3.46,2.3 5.66,2.3l46.59 0c2.25,0 4.28,-0.91 5.74,-2.37 0.72,-0.72 1.3,-1.57 1.71,-2.51l-20.91 0c0.08,0.23 0.12,0.48 0.12,0.74 0,0.67 -0.27,1.28 -0.72,1.73 -0.44,0.44 -1.06,0.72 -1.73,0.72l-12.73 0c-0.67,0 -1.29,-0.27 -1.73,-0.72 -0.44,-0.45 -0.72,-1.06 -0.72,-1.73 0,-0.26 0.04,-0.51 0.12,-0.74l-23.19 0zm38.98 0l-14.19 0 -0.01 0.01c-0.18,0.18 -0.3,0.45 -0.3,0.73 0,0.29 0.12,0.55 0.3,0.73 0.19,0.18 0.45,0.3 0.73,0.3l12.73 0c0.29,0 0.55,-0.12 0.73,-0.3 0.19,-0.19 0.3,-0.45 0.3,-0.73 0,-0.29 -0.12,-0.55 -0.3,-0.73l-0.01 -0.01z"/>
   <path class="fil7" d="M62.42 1.33c0.96,0 1.74,0.78 1.74,1.74 0,0.96 -0.78,1.74 -1.74,1.74l-50.57 0c-2.31,0 -4.4,0.94 -5.92,2.45 -1.51,1.52 -2.45,3.61 -2.45,5.92l0 81.94c0,2.31 0.94,4.4 2.45,5.91l0.08 0.08c1.5,1.46 3.56,2.36 5.83,2.36l47.98 0c2.31,0 4.41,-0.93 5.91,-2.44 1.52,-1.51 2.45,-3.61 2.45,-5.92l0 -30.03c0,-0.96 0.78,-1.74 1.74,-1.74 0.96,0 1.74,0.78 1.74,1.74l0 30.03c0,3.26 -1.32,6.22 -3.47,8.36 -2.16,2.16 -5.12,3.48 -8.38,3.48l-47.98 0c-3.21,0 -6.14,-1.29 -8.28,-3.37l-0.1 -0.1c-2.14,-2.14 -3.47,-5.11 -3.47,-8.37l0 -81.94c0,-3.27 1.33,-6.23 3.47,-8.37 2.15,-2.14 5.11,-3.47 8.38,-3.47l50.57 0z"/>
   <path class="fil8" d="M9.52 21.42l32.93 0 0 65.99 -36.43 0 0 -62.5c0,-1.92 1.57,-3.49 3.49,-3.49z"/>
   <circle class="fil9" cx="37.45" cy="61.52" r="22.68"/>
   <g>
    <path class="fil10" d="M23.24 57.54c-0,0 -0.01,0 -0.01,0 -0.19,0 -0.39,-0.05 -0.56,-0.15 -0.34,-0.19 -0.56,-0.56 -0.56,-0.95 0,-0.2 0.05,-0.39 0.15,-0.55 1.42,-2.37 5.75,-7.91 15.19,-7.91 4.09,0 7.68,1.07 10.66,3.19 2.45,1.74 3.83,3.71 4.48,4.65 0.13,0.18 0.2,0.4 0.2,0.62 0,0.37 -0.18,0.71 -0.49,0.91 -0.19,0.12 -0.41,0.19 -0.63,0.19 -0.37,0 -0.72,-0.18 -0.93,-0.49 -1.19,-1.7 -4.8,-6.89 -13.28,-6.89 -8.28,0 -12.02,4.77 -13.24,6.82 -0.2,0.34 -0.56,0.56 -0.96,0.56 -0,0 -0.01,0 -0.01,0l0 0z"/>
    <path class="fil7" d="M42.21 79.23c-0,0 -0.01,0 -0.01,0 -0.09,0 -0.18,-0.01 -0.27,-0.03 -6.85,-1.7 -9.41,-8.54 -9.51,-8.83l-0.02 -0.06c-0.06,-0.2 -1.43,-4.89 0.68,-7.64 0.97,-1.25 2.44,-1.9 4.38,-1.9 1.8,0 3.11,0.56 4,1.72 0.74,0.95 1.03,2.12 1.32,3.25 0.6,2.35 1.03,3.58 3.53,3.71 1.09,0.05 1.81,-0.58 2.22,-1.13 1.1,-1.49 1.29,-3.91 0.46,-6.05 -1.07,-2.76 -4.86,-7.96 -11.54,-7.96 -2.85,0 -5.47,0.92 -7.58,2.64 -1.74,1.43 -3.12,3.44 -3.78,5.51 -1.23,3.86 0.38,9.92 0.4,9.97 0.02,0.09 0.04,0.19 0.04,0.28 0,0.51 -0.35,0.95 -0.84,1.06 -0.1,0.03 -0.19,0.04 -0.29,0.04 -0.51,0 -0.95,-0.34 -1.09,-0.82 -0.07,-0.28 -1.8,-6.74 -0.38,-11.2 1.55,-4.83 6.33,-9.7 13.52,-9.7 3.32,0 6.46,1.13 9.09,3.26 2.03,1.66 3.69,3.89 4.55,6.12 1.1,2.84 0.81,6.04 -0.75,8.12 -1.04,1.39 -2.52,2.12 -4.16,2.04 -4.27,-0.21 -5.03,-3.19 -5.59,-5.37 -0.58,-2.23 -0.94,-3.3 -3.14,-3.3 -1.21,0 -2.05,0.33 -2.58,1.02 -0.72,0.94 -0.78,2.41 -0.7,3.48 0.05,0.74 0.18,1.48 0.38,2.2 0.18,0.44 2.46,6.05 7.94,7.4 0.49,0.12 0.84,0.56 0.84,1.07 0,0.09 -0.01,0.18 -0.03,0.27 -0.14,0.49 -0.58,0.83 -1.09,0.83 0,0 -0,0 -0,0l0 0z"/>
    <path class="fil10" d="M33.42 78.72c-0,0 -0,0 -0,0 -0.31,0 -0.61,-0.13 -0.82,-0.35 -2.74,-2.88 -4.29,-6.09 -4.88,-10.11l0 -0.02c-0.33,-2.66 0.15,-6.43 2.5,-9.02 1.73,-1.91 4.17,-2.88 7.23,-2.88 3.62,0 6.46,1.68 8.24,4.86 1.29,2.31 1.54,4.61 1.55,4.7 0,0.03 0,0.07 0,0.1 0,0.58 -0.44,1.05 -1.01,1.11 -0.04,0 -0.08,0.01 -0.12,0.01 -0.57,0 -1.05,-0.42 -1.12,-0.99l0 0c-0.19,-1.38 -0.64,-2.71 -1.32,-3.93 -1.37,-2.43 -3.47,-3.66 -6.23,-3.66 -2.39,0 -4.26,0.72 -5.55,2.14 -1.85,2.05 -2.21,5.2 -1.96,7.29 0.51,3.56 1.88,6.38 4.29,8.91 0.19,0.2 0.3,0.47 0.3,0.75 0,0.31 -0.13,0.6 -0.36,0.81 -0.21,0.19 -0.48,0.29 -0.76,0.29l0 0z"/>
    <path class="fil7" d="M46.04 75.55c-2.4,0 -4.44,-0.66 -6.07,-1.98 -3.28,-2.64 -3.64,-6.94 -3.66,-7.12 -0,-0.03 -0,-0.06 -0,-0.09 0,-0.62 0.5,-1.13 1.13,-1.13 0.59,0 1.08,0.45 1.12,1.04 0.01,0.06 0.34,3.58 2.86,5.6 1.49,1.19 3.49,1.67 5.95,1.39 0.04,-0.01 0.09,-0.01 0.14,-0.01 0.56,0 1.04,0.42 1.11,0.98 0,0.04 0.01,0.08 0.01,0.12 0,0.57 -0.43,1.04 -1,1.1 -0.53,0.06 -1.06,0.09 -1.59,0.09l0 0z"/>
    <path class="fil10" d="M47.94 46.24c-0.94,-0.61 -4.25,-2.42 -10.49,-2.42 -6.55,0 -9.87,2 -10.6,2.51 -0.05,0.03 -0.09,0.06 -0.14,0.1 -0.01,0 -0.01,0.01 -0.02,0.01 -0.24,0.21 -0.37,0.51 -0.38,0.82 0.01,0.61 0.5,1.1 1.11,1.1 0.01,0 0.01,0 0.02,0 0.23,0 0.46,-0.07 0.65,-0.21 0.03,-0.02 2.89,-2.13 9.35,-2.13 6.46,0 9.33,2.1 9.37,2.11 0.19,0.14 0.43,0.22 0.67,0.22 0,0 0.01,0 0.01,0 0.01,0 0.01,0 0.02,0 0.61,0 1.1,-0.49 1.11,-1.1 0,0 0,0 0,0 0,-0.45 -0.27,-0.85 -0.69,-1.02l0 0z"/>
   </g>
   <path class="fil7" d="M1.74 93.42c-0.96,0 -1.74,-0.78 -1.74,-1.74 0,-0.96 0.78,-1.74 1.74,-1.74l68.19 0c0.96,0 1.74,0.78 1.74,1.74 0,0.96 -0.78,1.74 -1.74,1.74l-68.19 0z"/>
   <path class="fil7" d="M30.61 100.15c-0.96,0 -1.74,-0.78 -1.74,-1.74 0,-0.96 0.78,-1.74 1.74,-1.74l12.73 0c0.96,0 1.74,0.78 1.74,1.74 0,0.96 -0.78,1.74 -1.74,1.74l-12.73 0z"/>
   <path class="fil7" d="M50.81 15.03c0.96,0 1.74,0.78 1.74,1.74 0,0.96 -0.78,1.74 -1.74,1.74l-27.66 0c-0.96,0 -1.74,-0.78 -1.74,-1.74 0,-0.96 0.78,-1.74 1.74,-1.74l27.66 0z"/>
   <line class="fil11 str1" x1="17.48" y1="16.77" x2="15.42" y2= "16.77" />
   <path class="fil7" d="M44.75 8.86c0.96,0 1.74,0.78 1.74,1.74 0,0.96 -0.78,1.74 -1.74,1.74l-11.08 0c-0.96,0 -1.74,-0.78 -1.74,-1.74 0,-0.96 0.78,-1.74 1.74,-1.74l11.08 0z"/>
   <path class="fil12" d="M36.98 96.67l0 1 0 1.78 0 0.71 6.37 0c0.96,0 1.74,-0.78 1.74,-1.74 0,-0.96 -0.78,-1.74 -1.74,-1.74l-6.37 0z"/>
   <path class="fil0" d="M14.77 61.52c0,-10.81 7.56,-19.85 17.69,-22.13l9.83 -17.97 -32.77 0c-1.92,0 -3.49,1.57 -3.49,3.49l0 62.5 0.17 0 9.93 -18.16c-0.88,-2.41 -1.35,-5.02 -1.35,-7.73z"/>
  </g>
  <rect class="fil1" transform="matrix(0.976015 0.976015 -0.976015 0.976015 99.0582 72.4662)" width="4.61" height="4.61"/>
  <rect class="fil0" transform="matrix(0.662062 0.662062 -0.662062 0.662062 79.4303 83.6641)" width="4.61" height="4.61"/>
  <rect class="fil1" transform="matrix(0.692585 0.692585 -0.692585 0.692585 74.5123 8.8115E-06)" width="4.61" height="4.61"/>
 </g>
</svg>
