<?xml version="1.0" encoding="UTF-8"?>
<!DOCTYPE svg PUBLIC "-//W3C//DTD SVG 1.1//EN" "http://www.w3.org/Graphics/SVG/1.1/DTD/svg11.dtd">
<!-- Creator: CorelDRAW 2020 (64-Bit Evaluation Version) -->
<svg xmlns="http://www.w3.org/2000/svg" xml:space="preserve" width="60px" height="60px" version="1.1" style="shape-rendering:geometricPrecision; text-rendering:geometricPrecision; image-rendering:optimizeQuality; fill-rule:evenodd; clip-rule:evenodd"
viewBox="0 0 12.56 12.56"
 xmlns:xlink="http://www.w3.org/1999/xlink"
 xmlns:xodm="http://www.corel.com/coreldraw/odm/2003">
 <defs>
  <style type="text/css">
   <![CDATA[
    .fil0 {fill:#263674}
    .fil1 {fill:#FEC00F}
    .fil2 {fill:white}
    .fil3 {fill:#263674;fill-rule:nonzero}
   ]]>
  </style>
 </defs>
 <g id="Layer_x0020_1">
  <metadata id="CorelCorpID_0Corel-Layer"/>
  <path class="fil0" d="M10.66 1.78c1.17,1.14 1.9,2.74 1.9,4.5 0,1.76 -0.73,3.36 -1.9,4.5l0 -8.08 0 -0.92zm-8.76 9c-1.17,-1.14 -1.9,-2.74 -1.9,-4.5 0,-1.76 0.73,-3.36 1.9,-4.5l0 0.92 0 8.08z"/>
  <path class="fil1" d="M10.67 1.99c0,-0.56 -0.42,-1.04 -0.96,-1.12l0 0.02 0 0.75c0,0.3 -0.25,0.54 -0.54,0.54l0 0c-0.3,0 -0.55,-0.24 -0.55,-0.54l0 -0.75 0 -0.03 -0.84 0 0.01 0.03 0 0.75c0,0.3 -0.25,0.54 -0.55,0.54l0 0c-0.29,0 -0.54,-0.24 -0.54,-0.54l0 -0.75 0 -0.03 -0.84 0 0 0.03 0 0.75c0,0.3 -0.24,0.54 -0.54,0.54l0 0c-0.3,0 -0.54,-0.24 -0.54,-0.54l0 -0.75 0 -0.03 -0.84 0 0 0.03 0 0.75c0,0.3 -0.24,0.54 -0.54,0.54l0 0c-0.3,0 -0.54,-0.24 -0.54,-0.54l0 -0.75 0 -0.02c-0.54,0.08 -0.96,0.56 -0.96,1.12 0,0.43 0,0.28 0,0.71l0 8.08c2.42,2.36 6.31,2.38 8.76,0l0 -8.08c0,-0.43 0.01,-0.29 0.01,-0.71z"/>
  <path class="fil0" d="M9.17 0c0.23,0 0.42,0.19 0.42,0.42 0,0.23 -0.19,0.42 -0.42,0.42 -0.23,0 -0.42,-0.19 -0.42,-0.42 0,-0.23 0.19,-0.42 0.42,-0.42z"/>
  <circle class="fil0" cx="3.39" cy="0.42" r="0.42"/>
  <circle class="fil0" cx="5.32" cy="0.42" r="0.42"/>
  <circle class="fil0" cx="7.24" cy="0.42" r="0.42"/>
  <path class="fil2" d="M3.4 8.01l3.26 0c0.35,0 0.64,0.29 0.64,0.64l0 0c0,0.35 -0.29,0.63 -0.64,0.63l-3.26 0c-0.35,0 -0.63,-0.28 -0.63,-0.63l0 0c0,-0.35 0.28,-0.64 0.63,-0.64z"/>
  <path class="fil2" d="M4.91 9.88l4.19 0c0.35,0 0.63,0.29 0.63,0.64l0 0c0,0.34 -0.29,0.63 -0.63,0.63l-4.19 0c-0.35,0 -0.64,-0.29 -0.64,-0.63l0 0c0,-0.35 0.29,-0.64 0.64,-0.64z"/>
  <g id="_1825863937200">
   <rect class="fil2" x="2.77" y="3.37" width="3.87" height="3.87" rx="0.55" ry="0.55"/>
   <path class="fil3" d="M6.93 3.45c-0.03,-0.05 -0.06,-0.09 -0.08,-0.13 -0.06,-0.08 -0.1,-0.12 -0.11,-0.12 -0.5,0.31 -0.98,0.67 -1.45,1.1 -0.31,0.29 -0.59,0.58 -0.85,0.88l-0.85 -0.68c-0.01,-0.01 -0.1,0.06 -0.26,0.2 -0.15,0.14 -0.23,0.21 -0.22,0.22l1.56 1.59c0.01,0.01 0.03,0.02 0.04,0.02l0.01 -0.01c0.03,0 0.04,-0.02 0.05,-0.04 0.09,-0.23 0.24,-0.51 0.44,-0.83 0.22,-0.37 0.46,-0.72 0.73,-1.07 0.32,-0.4 0.64,-0.76 0.97,-1.06 0.01,-0.01 0.02,-0.02 0.02,-0.03 0.01,-0.02 0.01,-0.03 0,-0.04z"/>
  </g>
 </g>
</svg>
