<?xml version="1.0" encoding="UTF-8"?>
<!DOCTYPE svg PUBLIC "-//W3C//DTD SVG 1.1//EN" "http://www.w3.org/Graphics/SVG/1.1/DTD/svg11.dtd">
<!-- Creator: CorelDRAW 2020 (64-Bit Evaluation Version) -->
<svg xmlns="http://www.w3.org/2000/svg" xml:space="preserve" width="60px" height="60px" version="1.1" style="shape-rendering:geometricPrecision; text-rendering:geometricPrecision; image-rendering:optimizeQuality; fill-rule:evenodd; clip-rule:evenodd"
viewBox="0 0 4.9 4.86"
 xmlns:xlink="http://www.w3.org/1999/xlink"
 xmlns:xodm="http://www.corel.com/coreldraw/odm/2003">
 <defs>
  <style type="text/css">
   <![CDATA[
    .fil2 {fill:#263674}
    .fil0 {fill:#FEC00F}
    .fil1 {fill:#263674;fill-rule:nonzero}
   ]]>
  </style>
 </defs>
 <g id="Layer_x0020_1">
  <metadata id="CorelCorpID_0Corel-Layer"/>
  <g id="_1826202892832">
   <path class="fil0" d="M3.1 2.82l-0.78 -0.88 -0.98 0 0 2.56c0,0.09 0.08,0.16 0.17,0.16l3.03 0c0.08,0 0.15,-0.06 0.16,-0.14l-1.14 -1.2 -0.72 0c-0.14,0 -0.25,-0.11 -0.25,-0.25 0,-0.14 0.11,-0.25 0.25,-0.25l0.26 0zm-0.94 0.77l1.05 0c0.13,0 0.24,0.12 0.24,0.25 0,0.14 -0.11,0.25 -0.24,0.25l-1.05 0c-0.14,0 -0.25,-0.11 -0.25,-0.25 0,-0.13 0.11,-0.25 0.25,-0.25z"/>
   <path class="fil1" d="M3.1 0l1.44 0c0.1,0 0.19,0.04 0.25,0.11 0.07,0.06 0.11,0.15 0.11,0.25l0 4.14c0,0.1 -0.04,0.19 -0.11,0.26l0 0c-0.07,0.06 -0.16,0.1 -0.25,0.1l-3.03 0c-0.1,0 -0.19,-0.04 -0.26,-0.1l0 0c-0.06,-0.07 -0.1,-0.16 -0.1,-0.26l0 -2.54 0.05 -0.14 1.82 -1.82 0.08 0zm1.4 0.4l-1.32 0 -1.64 1.64 0 2.43 2.96 0 0 -4.07z"/>
   <path class="fil2" d="M2.84 1.94l-1.61 0 1.78 -1.78 0 1.62c0,0.09 -0.08,0.16 -0.17,0.16z"/>
   <g>
    <rect class="fil2" x="2.59" y="2.82" width="1.54" height="0.5" rx="0.25" ry="0.25"/>
    <rect class="fil2" x="1.91" y="3.59" width="1.54" height="0.5" rx="0.25" ry="0.25"/>
   </g>
   <path class="fil1" d="M1.52 4.86l-1.19 0c-0.09,0 -0.17,-0.03 -0.23,-0.09 -0.06,-0.06 -0.1,-0.15 -0.1,-0.24l0 -2.73 1.52 -1.34 0.13 -0.05 1.02 0 0 0.39 -0.95 0 -1.32 1.18 0 2.49 1.12 0 0 0.39z"/>
  </g>
 </g>
</svg>
