<svg xmlns="http://www.w3.org/2000/svg" width="100" height="100" viewBox="0 0 15.19 15.19" shape-rendering="geometricPrecision" image-rendering="optimizeQuality" fill-rule="evenodd" xmlns:v="https://vecta.io/nano"><defs><linearGradient id="A" gradientUnits="userSpaceOnUse" x1="7.82" y1="-8.72" x2="7.82" y2="14.09"><stop offset="0" stop-color="#efb30c"/><stop offset="1" stop-color="#fff"/></linearGradient></defs><circle cx="7.59" cy="7.59" r="7.59" fill="url(#A)"/><path d="M3.47 8.49h2.64V5.85a1.08 1.08 0 0 1 .32-.77c.19-.19.47-.32.77-.32h4.52c.3 0 .57.13.77.32.19.2.32.47.32.77v4.52c0 .3-.13.58-.32.77a1.08 1.08 0 0 1-.77.32H9.08v2.64a1.08 1.08 0 0 1-.32.77c-.19.2-.47.32-.77.32H3.47a1.08 1.08 0 0 1-.77-.32 1.08 1.08 0 0 1-.32-.77V9.58c0-.3.12-.58.32-.77a1.08 1.08 0 0 1 .77-.32zm2.83.38H3.47a.71.71 0 0 0-.5.21c-.13.13-.21.3-.21.5v4.52a.71.71 0 0 0 .21.5c.13.13.31.2.5.2h4.52c.2 0 .37-.07.5-.2a.71.71 0 0 0 .21-.5v-3.02h3.02a.71.71 0 0 0 .7-.71V5.85a.75.75 0 0 0-.2-.5.75.75 0 0 0-.5-.2H7.2a.71.71 0 0 0-.5.2.71.71 0 0 0-.21.5v3.02H6.3z" fill="#263674"/><g fill="#fff"><path d="M2.76 9.58v4.52a.71.71 0 0 0 .21.5c.13.13.31.2.5.2h4.52c.2 0 .37-.07.5-.2a.71.71 0 0 0 .21-.5v-3.02h3.02a.71.71 0 0 0 .7-.71V5.85a.75.75 0 0 0-.2-.5.75.75 0 0 0-.5-.2H7.2a.71.71 0 0 0-.5.2.71.71 0 0 0-.21.5v3.02H6.3 3.47a.71.71 0 0 0-.5.21c-.13.13-.21.3-.21.5z"/><path d="M6.48 8.87l2.22 2.36v-.15h3.02a.71.71 0 0 0 .7-.71V5.85a.75.75 0 0 0-.2-.5.75.75 0 0 0-.5-.2H7.2a.71.71 0 0 0-.5.2.71.71 0 0 0-.21.5v3.02h-.01z"/></g><path d="M6.7 5.35a.71.71 0 0 1 .5-.2h4.52a.75.75 0 0 1 .5.2.75.75 0 0 1 .2.5v4.52a.71.71 0 0 1-.7.71H8.7v.15l.38.41v-.18h2.64a1.08 1.08 0 0 0 .77-.32c.19-.19.32-.47.32-.77V5.85c0-.3-.13-.57-.32-.77-.2-.19-.47-.32-.77-.32H7.2c-.3 0-.58.13-.77.32a1.08 1.08 0 0 0-.32.77v2.62l.37.4h.01V5.85a.71.71 0 0 1 .21-.5zm4.42 3.23c.01-.48-.22-1.11-.56-1.41-.07-.06-.06-.07-.19-.16-.18-.14-.41-.27-.64-.33-.61-.16-1.24-.03-1.65.31l-.43.38c-.2.19-.36.26-.38.53 0 .21.23.38.45.32.36-.1.68-.94 1.59-.9.6.02 1.12.58 1.1 1.18-.02.43-.16.66-.45.93l-.33.31c-.14.13-.27.19-.28.41-.01.18.15.35.35.36.21 0 .52-.35.71-.52.04-.04.07-.06.1-.1.05-.04.07-.07.11-.11.28-.3.48-.76.5-1.2z" fill="#efb30c"/><path d="M7.82 12.25a.37.37 0 0 0-.37-.38c-.18 0-.37.23-.55.39-.16.15-.33.33-.53.42a1.18 1.18 0 0 1-1.4-.25c-.33-.35-.43-.91-.15-1.4.13-.22.5-.53.71-.73.12-.11.19-.14.19-.33.01-.18-.14-.35-.35-.36-.2-.01-.51.34-.71.52-.4.37-.68.81-.7 1.41a2.02 2.02 0 0 0 .39 1.22c.22.27.33.36.66.54.65.37 1.57.22 2.11-.27l.11-.1c.2-.19.58-.47.59-.68zm-1.78-1.18c0 .16.09.3.19.35.28.13.42-.05.57-.2l1.77-1.63.35-.32c.3-.3-.1-.8-.46-.55l-2.12 1.96c-.09.09-.29.23-.3.39z" fill="#263674"/></svg>