<?xml version="1.0" encoding="UTF-8"?>
<!DOCTYPE svg PUBLIC "-//W3C//DTD SVG 1.1//EN" "http://www.w3.org/Graphics/SVG/1.1/DTD/svg11.dtd">
<!-- Creator: CorelDRAW 2020 (64-Bit Evaluation Version) -->
<svg xmlns="http://www.w3.org/2000/svg" xml:space="preserve" width="60px" height="60px" version="1.1" style="shape-rendering:geometricPrecision; text-rendering:geometricPrecision; image-rendering:optimizeQuality; fill-rule:evenodd; clip-rule:evenodd"
viewBox="0 0 18.08 18.1"
 xmlns:xlink="http://www.w3.org/1999/xlink"
 xmlns:xodm="http://www.corel.com/coreldraw/odm/2003">
 <defs>
  <style type="text/css">
   <![CDATA[
    .str0 {stroke:#263674;stroke-width:0.04;stroke-miterlimit:2.61313}
    .fil1 {fill:#263674}
    .fil0 {fill:#263674;fill-rule:nonzero}
   ]]>
  </style>
 </defs>
 <g id="Layer_x0020_1">
  <metadata id="CorelCorpID_0Corel-Layer"/>
  <g id="_1865468421920">
   <path class="fil0 str0" d="M7.43 7.64c-0.04,0.3 -0.05,0.62 -0.05,0.98 0,0.75 0.34,1.27 0.83,1.61 0.68,0.47 1.65,0.63 2.48,0.63l0 0 0.08 0c1.3,0 3.18,0 3.86,-1.19 0.3,-0.51 0.3,-0.88 0.3,-1.45l0 -0.07 -0.01 0c0,-0.38 -0.09,-0.84 -0.23,-1.29 -0.16,-0.52 -0.39,-1.02 -0.6,-1.38 -0.11,-0.17 -0.33,-0.49 -0.54,-0.78 -0.16,-0.2 -0.31,-0.39 -0.41,-0.47 -0.02,-0.02 -0.06,-0.05 -0.11,-0.09 -0.19,-0.17 -0.47,-0.42 -0.56,-0.42l-2.63 0c-0.05,0 -0.11,0.06 -0.17,0.1 -0.01,0 -0.02,0.01 -0.04,0.03 -0.48,0.37 -0.86,0.79 -1.18,1.27 -0.32,0.47 -0.56,1 -0.78,1.58 -0.13,0.33 -0.2,0.63 -0.24,0.94zm2.14 -4.93c-0.02,0.03 -0.03,0.07 -0.03,0.11 0,0.04 0.01,0.06 0.02,0.08 0.03,0.02 0.09,0.03 0.15,0.03l2.95 0c0.05,0 0.09,-0.03 0.1,-0.06 0.01,-0.03 0.01,-0.05 0.01,-0.07 0,-0.02 0,-0.05 -0.01,-0.07 -0.01,-0.03 -0.02,-0.05 -0.04,-0.05l-3.14 0c0,0 0,0.01 -0.01,0.03zm2.75 -1.9l-2.32 0c0.02,0.08 0.05,0.16 0.08,0.23 0.03,0.1 0.06,0.19 0.08,0.26l0 0 0.21 0.59 1.57 0c0.02,-0.05 0.03,-0.1 0.05,-0.15 0.01,-0.03 0.02,-0.06 0.03,-0.11 0.02,-0.06 0.04,-0.11 0.06,-0.17 0.02,-0.05 0.04,-0.1 0.07,-0.18l0 0 0.17 -0.47zm-2.94 1.12c0.05,-0.02 0.1,-0.03 0.16,-0.03l-0.27 -0.8 0 0c-0.02,-0.05 -0.04,-0.1 -0.06,-0.15 -0.07,-0.18 -0.15,-0.38 -0.15,-0.55 0,-0.23 0.1,-0.38 0.4,-0.38l3.39 0c0.3,0 0.4,0.15 0.4,0.37 0,0.17 -0.08,0.37 -0.15,0.54 -0.02,0.07 -0.05,0.13 -0.07,0.19 -0.01,0.04 -0.05,0.14 -0.09,0.25 -0.06,0.17 -0.14,0.39 -0.19,0.53 0.2,0.03 0.38,0.11 0.51,0.22 0.19,0.15 0.3,0.37 0.3,0.64 0,0.4 -0.12,0.52 -0.23,0.63l0.38 0.32 0.01 0.01c0.06,0.05 0.09,0.1 0.13,0.15 0.03,0.03 0.05,0.06 0.08,0.09 0.05,0.06 0.08,0.09 0.11,0.12 0.04,0.05 0.07,0.08 0.11,0.13 0.13,0.16 0.27,0.36 0.41,0.56 0.12,0.19 0.23,0.38 0.32,0.56l0.05 0.09c0.19,0.39 0.37,0.75 0.5,1.21 0.14,0.44 0.25,0.98 0.28,1.52 0.03,0.44 0,0.87 -0.12,1.26 -0.26,0.88 -0.84,1.44 -1.57,1.79 -0.72,0.33 -1.59,0.45 -2.47,0.45 -0.67,0 -1.31,0 -1.92,-0.09 -0.62,-0.08 -1.21,-0.26 -1.76,-0.6 -0.02,-0.01 -0.04,-0.03 -0.07,-0.05 -1.01,-0.67 -1.3,-1.77 -1.2,-2.92 0.09,-1.11 0.56,-2.27 1.07,-3.1 0.03,-0.05 0.07,-0.1 0.1,-0.16 0.22,-0.32 0.31,-0.42 0.47,-0.61 0.05,-0.06 0.11,-0.13 0.16,-0.18 0,-0.01 0.03,-0.04 0.06,-0.08l0 0c0.04,-0.05 0.08,-0.1 0.15,-0.17l0.01 -0.01 0.33 -0.28c-0.01,-0.01 -0.01,-0.02 -0.02,-0.02 -0.08,-0.1 -0.14,-0.23 -0.16,-0.38 -0.03,-0.14 -0.03,-0.3 0.01,-0.45 0.05,-0.16 0.14,-0.33 0.29,-0.45 0.1,-0.09 0.2,-0.14 0.31,-0.17z"/>
   <g>
    <path class="fil1" d="M4.04 11.16c-0.34,-0.08 -2.93,-0.08 -3.27,0l0 5.04c0,0.2 -0.08,0.63 0.12,0.63l3.03 0c0.2,0 0.12,-0.39 0.12,-0.59l0 -5.08zm13.29 2.56c0,-0.58 -0.54,-0.84 -1.11,-0.56 -0.13,0.07 -0.21,0.09 -0.35,0.15 -0.25,0.12 -0.45,0.21 -0.7,0.31l-2.84 1.28c-0.58,0.28 -0.89,0.46 -1.6,0.46l-2.73 0c-0.25,0 -0.51,-0.05 -0.51,-0.29 0,-0.42 0.54,-0.3 0.97,-0.3l2.61 0c0.91,-0.04 0.92,-1.18 0.22,-1.36 -0.58,-0.16 -2.74,0.23 -4.11,-0.35 -0.83,-0.35 -1.3,-0.81 -2.55,-0.81l0 3.66 2.27 0.84c0.86,0.34 1.54,0.59 2.69,0.59 1.67,0 2.8,-0.75 4.22,-1.46l2.83 -1.42c0.29,-0.17 0.69,-0.3 0.69,-0.74zm-12.7 -2.39l0 0.33c1.9,0 2.39,1.05 4,1.14 0.82,0.04 1.75,-0.06 2.56,0 0.35,0.02 0.69,0.21 0.87,0.43 0.23,0.27 0.31,0.5 0.31,1 0.12,-0.03 0.39,-0.16 0.5,-0.21 0.16,-0.08 0.35,-0.17 0.52,-0.24 0.49,-0.2 2.84,-1.32 3.14,-1.32 0.58,0 1.04,0.19 1.27,0.74 0.26,0.6 0.01,1.22 -0.41,1.51 -0.28,0.18 -0.73,0.37 -1.03,0.52 -1.38,0.7 -2.78,1.44 -4.19,2.12 -0.69,0.33 -1.69,0.57 -2.66,0.57 -2.02,0 -4.24,-1.33 -4.88,-1.38 0,0.5 -0.2,0.88 -0.71,0.88l-3.03 0c-0.44,0 -0.71,-0.35 -0.71,-0.8l0 -5.34c0,-0.34 0.26,-0.71 0.59,-0.71l3.27 0c0.31,0 0.59,0.31 0.59,0.76z"/>
    <path class="fil0" d="M4.08 10.98c-0.18,-0.04 -0.93,-0.06 -1.67,-0.06 -0.75,0 -1.5,0.02 -1.68,0.06l-0.14 0.04 0 5.18 0 0c0,0.03 0,0.08 -0.01,0.13 0,0.07 -0.01,0.14 -0.01,0.21 0,0.25 0.06,0.47 0.32,0.47l3.03 0c0.26,0 0.32,-0.21 0.32,-0.45 0,-0.06 -0.01,-0.13 -0.01,-0.19 -0.01,-0.05 -0.01,-0.1 -0.01,-0.13l0 -5.22 -0.14 -0.04zm-1.67 0.29c0.59,0 1.18,0.02 1.46,0.04l0 4.93c0,0.05 0,0.1 0,0.15 0.01,0.05 0.01,0.11 0.01,0.17 0,0.05 0.07,0.09 0.04,0.09l-3.03 0c-0.03,0 0.04,-0.05 0.04,-0.11 0,-0.07 0,-0.13 0.01,-0.19 0,-0.05 0,-0.1 0,-0.15l0 0 0 -4.89c0.28,-0.02 0.87,-0.04 1.47,-0.04zm15.09 2.45c0,-0.15 -0.03,-0.29 -0.09,-0.41 -0.07,-0.14 -0.17,-0.25 -0.3,-0.33l0 0c-0.13,-0.07 -0.28,-0.11 -0.44,-0.11l0 0c-0.17,0 -0.35,0.04 -0.53,0.13 -0.07,0.03 -0.12,0.06 -0.18,0.08 -0.05,0.02 -0.09,0.04 -0.16,0.07 -0.11,0.06 -0.22,0.11 -0.35,0.16 -0.1,0.05 -0.22,0.1 -0.35,0.15l0 0 -2.85 1.28c-0.02,0.01 -0.06,0.03 -0.14,0.07 -0.47,0.23 -0.77,0.37 -1.38,0.37l-2.73 0c-0.11,0 -0.21,-0.01 -0.28,-0.04 -0.03,-0.01 -0.05,-0.03 -0.05,-0.07 0,-0.12 0.14,-0.14 0.31,-0.14 0.08,0 0.15,0.01 0.23,0.01 0.09,0 0.18,0.01 0.25,0.01l0 0 2.61 0c0.35,-0.02 0.6,-0.17 0.74,-0.38 0.08,-0.12 0.13,-0.26 0.15,-0.4 0.01,-0.14 -0.01,-0.29 -0.06,-0.42 -0.09,-0.24 -0.28,-0.44 -0.56,-0.51 -0.23,-0.06 -0.63,-0.05 -1.13,-0.04 -0.89,0.03 -2.1,0.06 -2.96,-0.3 -0.2,-0.09 -0.39,-0.18 -0.57,-0.28 -0.56,-0.28 -1.08,-0.55 -2.05,-0.55l-0.17 0 0 3.96 2.38 0.88c0.44,0.18 0.83,0.32 1.26,0.43 0.43,0.11 0.9,0.17 1.49,0.17 1.46,0 2.49,-0.54 3.66,-1.14 0.22,-0.12 0.45,-0.24 0.64,-0.33l2.83 -1.42 0.01 -0.01c0.04,-0.02 0.09,-0.05 0.14,-0.08 0.31,-0.16 0.63,-0.34 0.63,-0.81zm-0.4 -0.25c0.03,0.07 0.05,0.15 0.05,0.25 0,0.26 -0.23,0.38 -0.44,0.5 -0.05,0.03 -0.11,0.05 -0.16,0.09l-2.82 1.41c-0.26,0.13 -0.45,0.23 -0.65,0.33 -1.12,0.59 -2.12,1.11 -3.49,1.11 -0.56,0 -1,-0.06 -1.41,-0.16 -0.41,-0.1 -0.79,-0.25 -1.21,-0.42l-2.16 -0.8 0 -3.35c0.78,0.03 1.23,0.26 1.71,0.51 0.19,0.09 0.38,0.19 0.6,0.28 0.93,0.4 2.18,0.36 3.1,0.34 0.47,-0.02 0.85,-0.03 1.03,0.02 0.16,0.04 0.27,0.16 0.32,0.3 0.03,0.08 0.04,0.17 0.04,0.25 -0.01,0.09 -0.04,0.17 -0.09,0.24 -0.09,0.13 -0.24,0.22 -0.46,0.23l-2.6 0 0 -0.01c-0.09,0 -0.16,0 -0.24,0 -0.08,-0.01 -0.17,-0.01 -0.24,-0.01 -0.37,0 -0.67,0.07 -0.67,0.49 0,0.2 0.11,0.32 0.27,0.4 0.12,0.05 0.27,0.07 0.42,0.07l2.73 0c0.69,0 1.02,-0.16 1.54,-0.42l0.13 -0.06 2.84 -1.27 0 0c0.12,-0.05 0.23,-0.1 0.35,-0.16 0.11,-0.04 0.22,-0.09 0.36,-0.16 0.04,-0.02 0.1,-0.04 0.15,-0.06 0.06,-0.03 0.12,-0.05 0.2,-0.09 0.13,-0.07 0.25,-0.1 0.37,-0.1l0 0c0.1,0 0.19,0.03 0.26,0.07l0 0c0.07,0.04 0.13,0.1 0.17,0.18zm-12.64 -2.14l0 0.51 0.17 0c0.98,0 1.57,0.29 2.15,0.57 0.53,0.27 1.05,0.52 1.84,0.56 0.39,0.02 0.8,0.01 1.22,0 0.46,-0.01 0.91,-0.03 1.34,0 0.14,0.02 0.29,0.06 0.41,0.12 0.14,0.07 0.26,0.16 0.34,0.25 0.1,0.12 0.16,0.23 0.2,0.36 0.04,0.13 0.06,0.29 0.06,0.53l0 0.22 0.22 -0.05c0.07,-0.02 0.18,-0.06 0.28,-0.11 0.1,-0.04 0.2,-0.09 0.26,-0.12 0.08,-0.03 0.17,-0.07 0.25,-0.11 0.08,-0.04 0.17,-0.08 0.26,-0.12 0.14,-0.05 0.41,-0.18 0.74,-0.33 0.87,-0.39 2.15,-0.97 2.33,-0.97 0.26,0 0.49,0.04 0.68,0.14 0.18,0.1 0.33,0.26 0.43,0.49 0.11,0.24 0.11,0.49 0.05,0.71 -0.07,0.25 -0.21,0.45 -0.4,0.58 -0.19,0.13 -0.47,0.26 -0.72,0.38 -0.1,0.04 -0.19,0.09 -0.29,0.14 -0.54,0.27 -1.09,0.55 -1.63,0.83 -0.84,0.43 -1.69,0.86 -2.56,1.28 -0.34,0.17 -0.76,0.31 -1.23,0.41 -0.43,0.09 -0.89,0.15 -1.35,0.15 -1.31,0 -2.73,-0.59 -3.71,-0.99 -0.52,-0.21 -0.92,-0.38 -1.15,-0.4l-0.19 -0.02 0 0.2c0,0.22 -0.05,0.42 -0.15,0.54 -0.08,0.1 -0.21,0.16 -0.39,0.16l-3.03 0c-0.16,0 -0.29,-0.06 -0.38,-0.16 -0.1,-0.11 -0.16,-0.27 -0.16,-0.46l0 -5.34c0,-0.13 0.06,-0.28 0.15,-0.38 0.07,-0.09 0.17,-0.15 0.27,-0.15l3.27 0c0.11,0 0.21,0.05 0.28,0.15 0.08,0.1 0.14,0.25 0.14,0.43zm0.35 0.16l0 -0.16c0,-0.26 -0.08,-0.48 -0.21,-0.65 -0.14,-0.18 -0.34,-0.29 -0.56,-0.29l-3.27 0c-0.22,0 -0.41,0.11 -0.54,0.28 -0.14,0.17 -0.23,0.4 -0.23,0.61l0 5.34c0,0.28 0.09,0.52 0.25,0.7 0.15,0.17 0.37,0.28 0.64,0.28l3.03 0c0.3,0 0.52,-0.11 0.66,-0.3 0.12,-0.14 0.19,-0.33 0.22,-0.55 0.2,0.06 0.5,0.19 0.86,0.33 1.01,0.42 2.47,1.02 3.85,1.02 0.48,0 0.97,-0.06 1.43,-0.15 0.49,-0.11 0.94,-0.26 1.31,-0.44 0.85,-0.41 1.71,-0.85 2.56,-1.29 0.54,-0.28 1.09,-0.56 1.63,-0.83 0.07,-0.03 0.17,-0.08 0.28,-0.13 0.26,-0.13 0.56,-0.27 0.77,-0.41 0.25,-0.17 0.45,-0.45 0.54,-0.77 0.08,-0.3 0.08,-0.63 -0.06,-0.95 -0.14,-0.31 -0.34,-0.52 -0.59,-0.66 -0.24,-0.13 -0.53,-0.19 -0.85,-0.19 -0.26,0 -1.58,0.6 -2.47,1.01 -0.33,0.15 -0.6,0.27 -0.73,0.33 -0.09,0.03 -0.18,0.07 -0.27,0.11 -0.1,0.05 -0.19,0.09 -0.27,0.13 -0.05,0.02 -0.15,0.07 -0.24,0.11l-0.01 0.01c-0.01,-0.15 -0.03,-0.27 -0.07,-0.39 -0.06,-0.18 -0.14,-0.32 -0.27,-0.48 -0.11,-0.13 -0.27,-0.25 -0.45,-0.34 -0.16,-0.08 -0.35,-0.13 -0.55,-0.15 -0.43,-0.03 -0.9,-0.02 -1.37,0 -0.41,0.01 -0.81,0.02 -1.19,0 -0.72,-0.04 -1.21,-0.28 -1.71,-0.52 -0.58,-0.29 -1.17,-0.58 -2.12,-0.61z"/>
   </g>
   <path class="fil1" d="M11.16 9.81l0 0c0.21,0 0.38,-0.17 0.38,-0.38l0 -0.14c0.09,-0.03 0.17,-0.06 0.25,-0.1l0 0c0.12,-0.06 0.22,-0.14 0.32,-0.23 0.12,-0.13 0.21,-0.27 0.27,-0.43 0.08,-0.2 0.09,-0.42 0.05,-0.64 -0.05,-0.21 -0.15,-0.41 -0.32,-0.58 -0.13,-0.13 -0.29,-0.24 -0.5,-0.31 -0.12,-0.05 -0.26,-0.07 -0.4,-0.09 -0.28,-0.03 -0.57,-0.07 -0.57,-0.51 0,-0.09 0.06,-0.17 0.14,-0.23 0.05,-0.04 0.11,-0.07 0.18,-0.09 0.06,-0.02 0.14,-0.03 0.21,-0.03 0.16,0 0.32,0.05 0.42,0.18 0.02,0.03 0.04,0.06 0.05,0.09 0.01,0.03 0.02,0.08 0.03,0.14 0.04,0.21 0.14,0.32 0.25,0.37 0.06,0.03 0.12,0.04 0.19,0.04 0.05,-0.01 0.11,-0.03 0.15,-0.06 0.11,-0.06 0.19,-0.17 0.19,-0.28 0,-0.19 -0.02,-0.35 -0.08,-0.49 -0.05,-0.14 -0.14,-0.27 -0.26,-0.39 -0.1,-0.09 -0.2,-0.17 -0.32,-0.23l0 0c-0.08,-0.04 -0.16,-0.07 -0.25,-0.1l0 -0.28c0,-0.21 -0.17,-0.38 -0.38,-0.38l0 0c-0.2,0 -0.37,0.15 -0.38,0.35l-0.01 0 0 0.31c-0.21,0.07 -0.38,0.17 -0.52,0.29 -0.18,0.15 -0.29,0.34 -0.35,0.54 -0.06,0.19 -0.06,0.4 -0.02,0.6 0.04,0.18 0.13,0.36 0.26,0.5 0.33,0.38 0.69,0.41 0.99,0.44 0.11,0.02 0.21,0.03 0.28,0.06 0.07,0.03 0.13,0.07 0.17,0.13 0.04,0.06 0.07,0.13 0.08,0.21 0.01,0.07 0,0.15 -0.03,0.21 -0.02,0.06 -0.06,0.1 -0.1,0.14 -0.09,0.06 -0.18,0.1 -0.28,0.12 -0.1,0.02 -0.2,0.01 -0.29,-0.02 -0.09,-0.03 -0.17,-0.08 -0.22,-0.15 -0.05,-0.07 -0.09,-0.14 -0.1,-0.24 -0.03,-0.19 -0.13,-0.31 -0.24,-0.37 -0.06,-0.03 -0.13,-0.04 -0.19,-0.04 -0.07,0.01 -0.13,0.03 -0.18,0.07 -0.1,0.08 -0.18,0.21 -0.18,0.4 0,0.27 0.12,0.51 0.31,0.7 0.16,0.17 0.38,0.3 0.61,0.38 0,0.05 0,0.1 0.01,0.14 0,0.04 0,0.07 0.01,0.11 0.01,0.02 0.02,0.04 0.03,0.06 0.06,0.12 0.19,0.21 0.34,0.21z"/>
  </g>
 </g>
</svg>
