<?xml version="1.0" encoding="UTF-8"?>
<!DOCTYPE svg PUBLIC "-//W3C//DTD SVG 1.1//EN" "http://www.w3.org/Graphics/SVG/1.1/DTD/svg11.dtd">
<!-- Creator: CorelDRAW 2020 (64-Bit Evaluation Version) -->
<svg xmlns="http://www.w3.org/2000/svg" xml:space="preserve" width="60px" height="60px" version="1.1" style="shape-rendering:geometricPrecision; text-rendering:geometricPrecision; image-rendering:optimizeQuality; fill-rule:evenodd; clip-rule:evenodd"
viewBox="0 0 5.75 5.75"
 xmlns:xlink="http://www.w3.org/1999/xlink"
 xmlns:xodm="http://www.corel.com/coreldraw/odm/2003">
 <defs>
  <style type="text/css">
   <![CDATA[
    .fil0 {fill:#263674;fill-rule:nonzero}
   ]]>
  </style>
 </defs>
 <g id="Layer_x0020_1">
  <metadata id="CorelCorpID_0Corel-Layer"/>
  <path class="fil0" d="M2.71 0c0.37,0 0.7,0.15 0.94,0.39 0.24,0.24 0.39,0.57 0.39,0.93 0,0.37 -0.15,0.7 -0.39,0.94 -0.24,0.24 -0.57,0.39 -0.94,0.39 -0.36,0 -0.69,-0.15 -0.93,-0.39 -0.24,-0.24 -0.39,-0.57 -0.39,-0.94 0,-0.36 0.15,-0.69 0.39,-0.93 0.24,-0.24 0.57,-0.39 0.93,-0.39zm0.55 0.78c-0.14,-0.15 -0.33,-0.23 -0.55,-0.23 -0.21,0 -0.4,0.08 -0.55,0.22 -0.14,0.15 -0.22,0.34 -0.22,0.55 0,0.22 0.08,0.41 0.22,0.55 0.15,0.14 0.34,0.23 0.55,0.23 0.22,0 0.41,-0.09 0.55,-0.23 0.14,-0.14 0.23,-0.33 0.23,-0.55 0,-0.21 -0.09,-0.4 -0.23,-0.54z"/>
  <path class="fil0" d="M0 5.75c0,-0.75 0.3,-1.42 0.8,-1.92 0.49,-0.49 1.17,-0.79 1.91,-0.79 0.75,0 1.43,0.3 1.92,0.79l0 0.01c0.5,0.49 0.8,1.17 0.8,1.91l-0.55 0c0,-0.59 -0.24,-1.14 -0.63,-1.53l0 0c-0.39,-0.39 -0.94,-0.63 -1.54,-0.63 -0.59,0 -1.14,0.24 -1.53,0.63 -0.39,0.39 -0.63,0.94 -0.63,1.53l-0.55 0z"/>
  <polygon class="fil0" points="5.75,2.72 4.18,2.72 4.18,2.27 5.75,2.27 "/>
  <polygon class="fil0" points="4.74,3.28 4.74,1.71 5.19,1.71 5.19,3.28 "/>
 </g>
</svg>
