<?xml version="1.0" encoding="UTF-8"?>
<!DOCTYPE svg PUBLIC "-//W3C//DTD SVG 1.1//EN" "http://www.w3.org/Graphics/SVG/1.1/DTD/svg11.dtd">
<!-- Creator: CorelDRAW 2020 (64-Bit Evaluation Version) -->
<svg xmlns="http://www.w3.org/2000/svg" xml:space="preserve" width="60px" height="60px" version="1.1" style="shape-rendering:geometricPrecision; text-rendering:geometricPrecision; image-rendering:optimizeQuality; fill-rule:evenodd; clip-rule:evenodd"
viewBox="0 0 5.39 5.39"
 xmlns:xlink="http://www.w3.org/1999/xlink"
 xmlns:xodm="http://www.corel.com/coreldraw/odm/2003">
 <defs>
  <style type="text/css">
   <![CDATA[
    .fil0 {fill:#263674;fill-rule:nonzero}
   ]]>
  </style>
 </defs>
 <g id="Layer_x0020_1">
  <metadata id="CorelCorpID_0Corel-Layer"/>
  <path class="fil0" d="M1.12 1.02c-0.14,0.04 -0.29,0.08 -0.44,0.1 -0.09,0.02 -0.18,0.03 -0.27,0.04l0 0.96c0,0.12 0.01,0.24 0.03,0.35 0.18,1.3 1.24,1.83 2.26,2.44 1.01,-0.61 2.08,-1.14 2.25,-2.44 0.02,-0.11 0.03,-0.23 0.03,-0.35l0 -0.96c-0.09,-0.01 -0.18,-0.02 -0.27,-0.04 -0.15,-0.02 -0.29,-0.06 -0.44,-0.1 -0.14,-0.04 -0.29,-0.1 -0.43,-0.16 -0.14,-0.06 -0.27,-0.14 -0.41,-0.22 -0.05,-0.04 -0.12,-0.08 -0.18,-0.11 -0.06,-0.02 -0.11,-0.05 -0.17,-0.06 -0.05,-0.02 -0.12,-0.03 -0.18,-0.04 -0.06,-0.01 -0.13,-0.02 -0.2,-0.02 -0.08,0 -0.15,0.01 -0.21,0.02 -0.06,0.01 -0.12,0.02 -0.18,0.04 -0.05,0.01 -0.11,0.04 -0.17,0.06 -0.06,0.03 -0.12,0.07 -0.18,0.11 -0.14,0.08 -0.27,0.16 -0.41,0.22 -0.14,0.06 -0.28,0.12 -0.43,0.16zm-0.51 -0.3c0.13,-0.03 0.26,-0.06 0.39,-0.1 0.13,-0.03 0.25,-0.08 0.37,-0.13 0.13,-0.06 0.25,-0.13 0.36,-0.2 0.08,-0.05 0.16,-0.09 0.23,-0.13 0.08,-0.03 0.15,-0.06 0.23,-0.09 0.08,-0.02 0.16,-0.04 0.25,-0.05 0.08,-0.01 0.17,-0.02 0.26,-0.02 0.08,0 0.17,0.01 0.26,0.02 0.08,0.01 0.16,0.03 0.24,0.05 0.08,0.03 0.16,0.06 0.23,0.09 0.08,0.04 0.15,0.08 0.23,0.13 0.12,0.07 0.24,0.14 0.36,0.2 0.12,0.05 0.24,0.1 0.37,0.13 0.13,0.04 0.26,0.07 0.39,0.1 0.14,0.02 0.28,0.03 0.42,0.04l0.19 0.01 0 1.35c0,0.13 -0.01,0.27 -0.03,0.4 -0.2,1.48 -1.37,2.12 -2.56,2.81l-0.1 0.06 -0.11 -0.06c-1.19,-0.69 -2.36,-1.33 -2.56,-2.81 -0.02,-0.13 -0.03,-0.27 -0.03,-0.4l0 -1.35 0.2 -0.01c0.14,-0.01 0.27,-0.02 0.41,-0.04z"/>
  <polygon class="fil0" points="2.43,3.26 2.43,1.15 2.97,1.15 2.97,3.26 "/>
  <polygon class="fil0" points="2.43,4.01 2.43,3.62 2.97,3.62 2.97,4.01 "/>
 </g>
</svg>
