<?xml version="1.0" encoding="UTF-8"?>
<!DOCTYPE svg PUBLIC "-//W3C//DTD SVG 1.1//EN" "http://www.w3.org/Graphics/SVG/1.1/DTD/svg11.dtd">
<!-- Creator: CorelDRAW 2020 (64-Bit) -->
<svg xmlns="http://www.w3.org/2000/svg" xml:space="preserve" width="300px" height="272px" version="1.1" style="shape-rendering:geometricPrecision; text-rendering:geometricPrecision; image-rendering:optimizeQuality; fill-rule:evenodd; clip-rule:evenodd"
viewBox="0 0 14.46 13.12"
 xmlns:xlink="http://www.w3.org/1999/xlink"
 xmlns:xodm="http://www.corel.com/coreldraw/odm/2003">
 <defs>
  <style type="text/css">
   <![CDATA[
    .fil2 {fill:#93B3E6}
    .fil0 {fill:#E3EEFF}
    .fil5 {fill:#E65F5F}
    .fil4 {fill:#FF6A6A}
    .fil3 {fill:white}
    .fil1 {fill:#93B3E6;fill-rule:nonzero}
    .fil6 {fill:white;fill-rule:nonzero}
   ]]>
  </style>
 </defs>
 <g id="Layer_x0020_1">
  <metadata id="CorelCorpID_0Corel-Layer"/>
  <rect class="fil0" x="3.85" y="2.37" width="10.61" height="10.05" rx="1.28" ry="1.28"/>
  <g id="_2529630871872">
   <path class="fil1" d="M0.58 6.06c0,0.13 0.11,0.23 0.24,0.23 0.13,0 0.24,-0.1 0.24,-0.23l0 -1.45c0,-0.13 -0.11,-0.23 -0.24,-0.23 -0.13,0 -0.24,0.1 -0.24,0.23l0 1.45z"/>
   <path class="fil1" d="M0.58 6.72c0,0.13 0.11,0.24 0.24,0.24 0.13,0 0.24,-0.11 0.24,-0.24l0 -0.03c0,-0.13 -0.11,-0.23 -0.24,-0.23 -0.13,0 -0.24,0.1 -0.24,0.23l0 0.03z"/>
  </g>
  <g id="_2529630870192">
   <path class="fil1" d="M8 11.18c-0.13,0 -0.23,0.11 -0.23,0.24 0,0.13 0.1,0.24 0.23,0.24l1.44 0c0.13,0 0.24,-0.11 0.24,-0.24 0,-0.13 -0.11,-0.24 -0.24,-0.24l-1.44 0z"/>
   <path class="fil1" d="M7.34 11.18c-0.13,0 -0.24,0.11 -0.24,0.24 0,0.13 0.11,0.24 0.24,0.24l0.03 0c0.13,0 0.23,-0.11 0.23,-0.24 0,-0.13 -0.1,-0.24 -0.23,-0.24l-0.03 0z"/>
  </g>
  <path class="fil1" d="M11.76 1.06c0.17,0 0.31,0.14 0.31,0.31 0,0.17 -0.14,0.31 -0.31,0.31l-3.17 0c0.29,-0.13 0.56,-0.32 0.78,-0.55l0.07 -0.07 2.32 0zm-1.19 0.62l-7.37 0c-0.17,0 -0.31,-0.14 -0.31,-0.31 0,-0.17 0.14,-0.31 0.31,-0.31l6.51 0 0.07 0.07c0.23,0.23 0.49,0.41 0.79,0.55z"/>
  <path class="fil1" d="M11.77 0l-1.72 0c-0.06,0.19 -0.13,0.37 -0.23,0.54l1.95 0c0.45,0 0.81,0.36 0.81,0.8l0 1.08c-0.23,-0.17 -0.5,-0.27 -0.81,-0.27l-8.59 0c-0.44,0 -0.8,-0.36 -0.8,-0.81 0,-0.44 0.36,-0.8 0.8,-0.8l7.54 0c-0.09,-0.17 -0.17,-0.35 -0.23,-0.54l-7.31 0c-0.74,0 -1.34,0.6 -1.34,1.34l0 4.82 0.01 0 0.01 -0.01 0.01 0 0 0 0.01 -0.01 0.01 0 0.01 -0.01 0 0 0.01 0 0 0 0.03 -0.02 0.01 0 0 0 0.01 -0.01 0.01 0 0.01 -0.01 0.01 0 0 0 0.01 0 0 -0.01 0.01 0 0.01 0 0.01 -0.01 0.01 0 0 0 0 -0.01 0.01 0 0.01 0 0.01 -0.01 0.01 0 0 0 0.01 0 0 -0.01 0.01 0 0.01 -0.01 0.01 0 0 0 0.01 0 0.01 -0.01 0 0 0.01 0 0.01 -0.01 0 0 0.01 0 0.01 0 0.01 -0.01 0.01 0 0 0 0.01 -0.01 0 0 0.01 0 0.01 0 0.01 -0.01 0.01 0 0 0 0 0 0.01 -0.01 0.01 0 0.01 0 0.01 -0.01 0 0 0.01 0 0.01 0 0.01 -0.01 0 0 0.01 0 0.01 0 0 -0.01 0.01 0 0.01 0 0.01 0 0.01 -0.01 0 -3.51c0.22,0.17 0.5,0.27 0.8,0.27l8.59 0c0.45,0 0.81,0.36 0.81,0.8l0 1.08 -3.22 0c-1.04,0 -1.88,0.84 -1.88,1.87 0,1.04 0.84,1.88 1.88,1.88l3.22 0 0 0.81c0,0.44 -0.36,0.81 -0.81,0.81l-4.41 0 0 0 0 0.01 0 0 0 0.01 0 0.01 0 0.01 0 0.01 -0.01 0.01 0 0 0 0 0 0.01 0 0.01 0 0.01 0 0.01 0 0.01 0 0 0 0 0 0.01 -0.01 0.01 0 0.01 0 0.01 0 0.02 0 0 0 0.01 -0.01 0.01 0 0.01 0 0 0 0.01 0 0.01 0 0 0 0.01 0 0.01 -0.01 0.01 0 0 0 0.01 0 0.01 0 0.01 0 0 0 0.01 0 0.01 0 0 -0.01 0.01 0 0.01 0 0.01 0 0 0 0.01 0 0 0 0.01 -0.01 0.01 0 0.01 0 0.01 0 0 0 0.01 0 0 -0.01 0.01 0 0.01 0 0.01 0 0.01 0 0 0 0.01 0 0 -0.01 0.01 0 0.01 0 0.01 0 0 0 0.01 0 0 -0.01 0.01 0 0.01 0 0.01 0 0.01 0 0 -0.01 0.01 0 0 4.51 0c0.74,0 1.35,-0.6 1.35,-1.34l0 -0.81 0 -3.75 0 -1.08 0 -2.15c0,-0.74 -0.61,-1.34 -1.35,-1.34zm0.81 7.79l-3.22 0c-0.74,0 -1.35,-0.6 -1.35,-1.35 0,-0.74 0.61,-1.34 1.35,-1.34l3.22 0 0 2.69z"/>
  <circle class="fil2" cx="9.36" cy="6.44" r="0.69"/>
  <circle class="fil3" cx="9.36" cy="6.44" r="0.25"/>
  <rect class="fil2" transform="matrix(0.180496 0.178637 -0.180496 0.178637 13.7854 4.30451)" width="2.17" height="2.17"/>
  <rect class="fil2" transform="matrix(0.180496 0.178637 -0.180496 0.178637 3.6499 3.06013)" width="2.17" height="2.17"/>
  <rect class="fil2" transform="matrix(0.180496 0.178637 -0.180496 0.178637 13.5221 10.1527)" width="2.17" height="2.17"/>
  <rect class="fil2" transform="matrix(0.129658 0.128323 -0.129658 0.128323 12.3575 11.5081)" width="2.17" height="2.17"/>
  <rect class="fil2" transform="matrix(0.129658 0.128323 -0.129658 0.128323 3.01854 4.60732)" width="2.17" height="2.17"/>
  <rect class="fil2" transform="matrix(0.129658 0.128323 -0.129658 0.128323 10.1187 3.10147)" width="2.17" height="2.17"/>
  <rect class="fil2" transform="matrix(0.0696273 0.243051 -0.24558 0.0689102 11.8831 3.40289)" width="2.17" height="2.17"/>
  <g id="_2529630878352">
   <path class="fil4" d="M3.48 6.16c1.92,0 3.47,1.56 3.47,3.48 0,1.92 -1.55,3.48 -3.47,3.48 -1.92,0 -3.48,-1.56 -3.48,-3.48 0,-1.92 1.56,-3.48 3.48,-3.48z"/>
   <path class="fil5" d="M1.92 12.75l3.12 -6.22c-0.47,-0.23 -1,-0.37 -1.56,-0.37 -1.92,0 -3.48,1.56 -3.48,3.48 0,1.36 0.78,2.54 1.92,3.11z"/>
  </g>
  <path class="fil6" d="M2.1 8.96c-0.2,-0.21 -0.2,-0.55 0.01,-0.74 0.21,-0.2 0.54,-0.2 0.74,0.01l0.63 0.66 0.62 -0.66c0.2,-0.21 0.53,-0.21 0.74,-0.01 0.21,0.19 0.21,0.53 0.01,0.74l-0.65 0.68 0.65 0.68c0.2,0.21 0.2,0.54 -0.01,0.74 -0.21,0.2 -0.54,0.19 -0.74,-0.02l-0.62 -0.65 -0.63 0.65c-0.2,0.21 -0.53,0.22 -0.74,0.02 -0.21,-0.2 -0.21,-0.53 -0.01,-0.74l0.65 -0.68 -0.65 -0.68z"/>
 </g>
</svg>
