<?xml version="1.0" encoding="UTF-8"?>
<!DOCTYPE svg PUBLIC "-//W3C//DTD SVG 1.1//EN" "http://www.w3.org/Graphics/SVG/1.1/DTD/svg11.dtd">
<!-- Creator: CorelDRAW 2020 (64-Bit) -->
<svg xmlns="http://www.w3.org/2000/svg" xml:space="preserve" width="300px" height="301px" version="1.1" style="shape-rendering:geometricPrecision; text-rendering:geometricPrecision; image-rendering:optimizeQuality; fill-rule:evenodd; clip-rule:evenodd"
viewBox="0 0 21.21 21.29"
 xmlns:xlink="http://www.w3.org/1999/xlink"
 xmlns:xodm="http://www.corel.com/coreldraw/odm/2003">
 <defs>
  <style type="text/css">
   <![CDATA[
    .str0 {stroke:#93B3E6;stroke-width:0.15;stroke-miterlimit:2.61313}
    .fil2 {fill:none}
    .fil1 {fill:#93B3E6}
    .fil6 {fill:#FFCC00}
    .fil7 {fill:#FFDA46}
    .fil4 {fill:white}
    .fil3 {fill:#93B3E6;fill-rule:nonzero}
    .fil0 {fill:#E3EEFF;fill-rule:nonzero}
    .fil5 {fill:white;fill-rule:nonzero}
   ]]>
  </style>
   <clipPath id="id0">
    <path d="M4.95 0.31l8.51 0 4.02 3.98 0 12.29c0,0.92 -0.76,1.67 -1.68,1.67l-10.85 0c-0.93,0 -1.68,-0.75 -1.68,-1.67l0 -14.6c0,-0.92 0.75,-1.67 1.68,-1.67z"/>
   </clipPath>
 </defs>
 <g id="Layer_x0020_1">
  <metadata id="CorelCorpID_0Corel-Layer"/>
  <path class="fil0" d="M19.21 18.49c0,0.85 -0.7,1.54 -1.56,1.54l-10.57 0c-0.86,0 -1.56,-0.69 -1.56,-1.54l0 -14.7c0,-0.85 0.7,-1.54 1.56,-1.54l10.57 0c0.86,0 1.56,0.69 1.56,1.54l0 14.7z"/>
  <g>
  </g>
  <g style="clip-path:url(#id0)">
   <g>
    <path class="fil1" d="M17.52 4.29l-0.02 0 -2.34 0c-0.94,0 -1.71,-0.76 -1.71,-1.69l0 -2.29 0 -0.05 4.07 4.03z"/>
    <rect class="fil1" transform="matrix(0.180496 0.178637 -0.180496 0.178637 24.9049 -3.63452)" width="3.18" height="3.18"/>
   </g>
  </g>
  <path class="fil2" d="M4.95 0.31l8.51 0 4.02 3.98 0 12.29c0,0.92 -0.76,1.67 -1.68,1.67l-10.85 0c-0.93,0 -1.68,-0.75 -1.68,-1.67l0 -14.6c0,-0.92 0.75,-1.67 1.68,-1.67z"/>
  <path class="fil3 str0" d="M4.95 0.07l8.61 0 4.16 4.12 0 12.39c0,0.52 -0.22,1 -0.57,1.35 -0.34,0.34 -0.83,0.56 -1.35,0.56l-10.85 0c-0.53,0 -1.01,-0.22 -1.36,-0.56 -0.35,-0.35 -0.56,-0.83 -0.56,-1.35l0 -14.6c0,-0.53 0.21,-1 0.56,-1.35 0.35,-0.34 0.83,-0.56 1.36,-0.56zm8.41 0.48l-8.41 0c-0.4,0 -0.76,0.16 -1.02,0.42 -0.26,0.26 -0.43,0.61 -0.43,1.01l0 14.6c0,0.39 0.17,0.75 0.43,1.01 0.26,0.26 0.62,0.42 1.02,0.42l10.85 0c0.39,0 0.76,-0.16 1.02,-0.42 0.26,-0.26 0.42,-0.62 0.42,-1.01l0 -12.19 -3.88 -3.84z"/>
  <rect class="fil4" transform="matrix(0.140835 0.139384 -0.140835 0.139384 4.96032 2.48263)" width="2.92" height="2.92"/>
  <rect class="fil1" transform="matrix(0.180496 0.178637 -0.180496 0.178637 5.3436 1.10971)" width="3.18" height="3.18"/>
  <rect class="fil1" transform="matrix(0.180496 0.178637 -0.180496 0.178637 20.6382 13.9379)" width="3.18" height="3.18"/>
  <rect class="fil1" transform="matrix(0.180496 0.178637 -0.180496 0.178637 15.533 15.6658)" width="3.18" height="3.18"/>
  <rect class="fil1" transform="matrix(0.129658 0.128323 -0.129658 0.128323 13.4502 16.1845)" width="3.18" height="3.18"/>
  <rect class="fil1" transform="matrix(0.0696273 0.243051 -0.24558 0.0689102 7.42905 16.0324)" width="3.18" height="3.18"/>
  <rect class="fil1" transform="matrix(0.0696273 0.243051 -0.24558 0.0689102 8.53481 4.85785)" width="3.18" height="3.18"/>
  <rect class="fil1" transform="matrix(0.0696273 0.243051 -0.24558 0.0689102 14.337 5.06179)" width="3.18" height="3.18"/>
  <path class="fil5" d="M10.15 8.11c-0.18,0 -0.32,-0.14 -0.32,-0.32 0,-0.17 0.14,-0.31 0.32,-0.31l4.79 0c0.17,0 0.32,0.14 0.32,0.31 0,0.18 -0.15,0.32 -0.32,0.32l-4.79 0z"/>
  <path class="fil5" d="M11.3 10.29c-0.15,0 -0.27,-0.14 -0.27,-0.32 0,-0.17 0.12,-0.31 0.27,-0.31l4.53 0c0.15,0 0.27,0.14 0.27,0.31 0,0.18 -0.12,0.32 -0.27,0.32l-4.53 0z"/>
  <path class="fil5" d="M13.09 12.41c-0.15,0 -0.27,-0.14 -0.27,-0.31 0,-0.18 0.12,-0.32 0.27,-0.32l3.09 0c0.15,0 0.28,0.14 0.28,0.32 0,0.17 -0.13,0.31 -0.28,0.31l-3.09 0z"/>
  <path class="fil5" d="M13.41 14.77c-0.15,0 -0.27,-0.14 -0.27,-0.31 0,-0.18 0.12,-0.32 0.27,-0.32l3.09 0c0.15,0 0.27,0.14 0.27,0.32 0,0.17 -0.12,0.31 -0.27,0.31l-3.09 0z"/>
  <path class="fil5" d="M3.53 13.07c-0.11,0.07 -0.26,0.03 -0.33,-0.08 -0.07,-0.12 -0.03,-0.27 0.09,-0.33 0.21,-0.12 0.43,-0.21 0.67,-0.28 0.23,-0.06 0.47,-0.09 0.71,-0.09 0.16,0 0.32,0.01 0.47,0.04 0.16,0.03 0.31,0.07 0.46,0.12 0.13,0.05 0.19,0.19 0.15,0.31 -0.05,0.12 -0.18,0.19 -0.31,0.14 -0.12,-0.04 -0.25,-0.07 -0.38,-0.09 -0.13,-0.03 -0.26,-0.04 -0.39,-0.04 -0.2,0 -0.4,0.03 -0.59,0.08 -0.19,0.05 -0.38,0.13 -0.55,0.22z"/>
  <path class="fil5" d="M2.59 14.1c-0.05,0.12 -0.19,0.18 -0.32,0.13 -0.12,-0.06 -0.17,-0.2 -0.12,-0.32 0.04,-0.09 0.08,-0.17 0.13,-0.25 0.05,-0.09 0.1,-0.17 0.16,-0.24 0.07,-0.11 0.23,-0.13 0.34,-0.06 0.1,0.08 0.13,0.23 0.05,0.34 -0.05,0.06 -0.09,0.13 -0.13,0.2 -0.04,0.07 -0.08,0.13 -0.11,0.2z"/>
  <g>
   <g id="_2529651586912">
    <path class="fil6" d="M5.5 10.29c3.03,0 5.5,2.46 5.5,5.5 0,3.04 -2.47,5.5 -5.5,5.5 -3.04,0 -5.5,-2.46 -5.5,-5.5 0,-3.04 2.46,-5.5 5.5,-5.5z"/>
    <path class="fil7" d="M3.03 20.7l4.93 -9.83c-0.74,-0.37 -1.58,-0.58 -2.46,-0.58 -3.04,0 -5.5,2.46 -5.5,5.5 0,2.15 1.23,4.01 3.03,4.91z"/>
   </g>
   <path class="fil5" d="M5.51 12.24c-0.69,0 -0.89,0.2 -0.89,0.46 0,0.18 0.04,0.37 0.11,0.76 0.21,1.12 0.37,2.24 0.53,3.45 0.02,0.13 0.46,0.12 0.49,0 0.16,-1.21 0.31,-2.33 0.53,-3.45 0.07,-0.39 0.1,-0.58 0.1,-0.76 0,-0.26 -0.2,-0.46 -0.86,-0.46l-0.01 0zm0.01 7.1c0.46,0 0.81,-0.34 0.81,-0.83 0,-0.46 -0.35,-0.8 -0.81,-0.8 -0.46,0 -0.79,0.34 -0.79,0.8 0,0.49 0.33,0.83 0.78,0.83l0.01 0z"/>
  </g>
  <g>
   <path class="fil3" d="M9.54 7.79c0,0.36 -0.29,0.66 -0.65,0.66 -0.36,0 -0.65,-0.3 -0.65,-0.66 0,-0.36 0.29,-0.65 0.65,-0.65 0.36,0 0.65,0.29 0.65,0.65z"/>
   <path class="fil5" d="M8.57 7.64c-0.05,-0.05 -0.05,-0.13 0,-0.18 0.05,-0.04 0.13,-0.04 0.17,0.01l0.15 0.15 0.14 -0.15c0.05,-0.05 0.13,-0.05 0.17,-0.01 0.05,0.05 0.05,0.13 0.01,0.18l-0.15 0.15 0.15 0.16c0.04,0.05 0.04,0.13 -0.01,0.17 -0.04,0.05 -0.12,0.05 -0.17,0l-0.14 -0.15 -0.15 0.15c-0.04,0.05 -0.12,0.05 -0.17,0 -0.05,-0.04 -0.05,-0.12 0,-0.17l0.15 -0.16 -0.15 -0.15z"/>
  </g>
  <g>
   <path class="fil3" d="M10.43 9.97c0,0.36 -0.29,0.66 -0.65,0.66 -0.36,0 -0.65,-0.3 -0.65,-0.66 0,-0.36 0.29,-0.65 0.65,-0.65 0.36,0 0.65,0.29 0.65,0.65z"/>
   <path class="fil5" d="M9.46 9.82c-0.05,-0.05 -0.05,-0.13 0,-0.18 0.05,-0.04 0.13,-0.04 0.17,0.01l0.15 0.15 0.14 -0.15c0.05,-0.05 0.13,-0.05 0.17,-0.01 0.05,0.05 0.05,0.13 0.01,0.18l-0.15 0.15 0.15 0.16c0.04,0.05 0.04,0.13 -0.01,0.17 -0.04,0.05 -0.12,0.05 -0.17,0l-0.14 -0.15 -0.15 0.15c-0.04,0.05 -0.12,0.05 -0.17,0 -0.05,-0.04 -0.05,-0.12 0,-0.17l0.15 -0.16 -0.15 -0.15z"/>
  </g>
  <g>
   <path class="fil3" d="M12.22 12.1c0,0.36 -0.29,0.65 -0.65,0.65 -0.36,0 -0.65,-0.29 -0.65,-0.65 0,-0.36 0.29,-0.66 0.65,-0.66 0.36,0 0.65,0.3 0.65,0.66z"/>
   <path class="fil5" d="M11.25 11.94c-0.05,-0.05 -0.04,-0.13 0,-0.17 0.05,-0.05 0.13,-0.05 0.18,0l0.14 0.15 0.14 -0.15c0.05,-0.05 0.13,-0.05 0.18,0 0.04,0.04 0.05,0.12 0,0.17l-0.15 0.16 0.15 0.15c0.05,0.05 0.04,0.13 0,0.18 -0.05,0.04 -0.13,0.04 -0.18,-0.01l-0.14 -0.15 -0.14 0.15c-0.05,0.05 -0.13,0.05 -0.18,0.01 -0.04,-0.05 -0.05,-0.13 0,-0.18l0.15 -0.15 -0.15 -0.16z"/>
  </g>
  <g>
   <path class="fil3" d="M12.54 14.46c0,0.36 -0.29,0.65 -0.65,0.65 -0.36,0 -0.66,-0.29 -0.66,-0.65 0,-0.36 0.3,-0.66 0.66,-0.66 0.36,0 0.65,0.3 0.65,0.66z"/>
   <path class="fil5" d="M11.57 14.3c-0.05,-0.05 -0.05,-0.13 0,-0.17 0.05,-0.05 0.13,-0.05 0.17,0l0.15 0.15 0.14 -0.15c0.05,-0.05 0.12,-0.05 0.17,0 0.05,0.04 0.05,0.12 0.01,0.17l-0.16 0.16 0.16 0.15c0.04,0.05 0.04,0.13 -0.01,0.18 -0.05,0.04 -0.12,0.04 -0.17,-0.01l-0.14 -0.15 -0.15 0.15c-0.04,0.05 -0.12,0.05 -0.17,0.01 -0.05,-0.05 -0.05,-0.13 0,-0.18l0.15 -0.15 -0.15 -0.16z"/>
  </g>
 </g>
</svg>
