<?xml version="1.0" encoding="UTF-8"?>
<!DOCTYPE svg PUBLIC "-//W3C//DTD SVG 1.1//EN" "http://www.w3.org/Graphics/SVG/1.1/DTD/svg11.dtd">
<!-- Creator: CorelDRAW 2020 (64-Bit Evaluation Version) -->
<svg xmlns="http://www.w3.org/2000/svg" xml:space="preserve" width="60px" height="60px" version="1.1" style="shape-rendering:geometricPrecision; text-rendering:geometricPrecision; image-rendering:optimizeQuality; fill-rule:evenodd; clip-rule:evenodd"
viewBox="0 0 4.97 4.97"
 xmlns:xlink="http://www.w3.org/1999/xlink"
 xmlns:xodm="http://www.corel.com/coreldraw/odm/2003">
 <defs>
  <style type="text/css">
   <![CDATA[
    .fil3 {fill:#263674}
    .fil0 {fill:#FEC00F}
    .fil2 {fill:white}
    .fil1 {fill:#263674;fill-rule:nonzero}
   ]]>
  </style>
 </defs>
 <g id="Layer_x0020_1">
  <metadata id="CorelCorpID_0Corel-Layer"/>
  <g id="_1776940393920">
   <polygon class="fil0" points="3.84,2.49 2.83,0.94 1.82,2.49 2.83,4.03 "/>
   <path class="fil1" d="M2.64 0.24l1.48 2.25 -1.63 2.48 -1.63 -2.48 1.63 -2.49 0.15 0.24zm1.02 2.25l-1.17 -1.8 -1.18 1.8 1.18 1.79 1.17 -1.79z"/>
   <polygon class="fil1" points="1.17,2.32 2.47,3.02 3.74,2.32 3.92,2.65 2.48,3.45 0.99,2.65 "/>
   <path class="fil0" d="M0.8 0.01c0.39,-0.06 0.75,0.21 0.81,0.6 0.06,0.39 -0.21,0.75 -0.6,0.81 -0.02,0.01 -0.03,0.01 -0.05,0.01 0.36,-0.08 0.6,-0.43 0.54,-0.8 -0.06,-0.38 -0.39,-0.64 -0.76,-0.61 0.02,-0.01 0.04,-0.01 0.06,-0.01z"/>
   <circle class="fil0" transform="matrix(1.83407 -0.277987 0.277987 1.83407 0.715763 0.744679)" r="0.39"/>
   <path class="fil2" d="M0.82 1.03l-0.19 0 0 -0.22c0.11,0 0.24,-0.02 0.28,0.03 0.06,0.07 0.02,0.19 -0.09,0.19zm-0.08 -0.36l-0.11 0 0 -0.23c0.11,0 0.22,-0.03 0.22,0.12 0,0.06 -0.04,0.11 -0.11,0.11zm-0.16 -0.4l0 0.03c-0.11,0 -0.22,-0.02 -0.22,0.08 0,0.05 0.07,0.06 0.12,0.06l0 0.59c-0.18,0 -0.12,0.12 -0.08,0.13 0.04,0.01 0.14,0.01 0.18,0.01l0 0.06c0,0.11 0.13,0.11 0.13,0.01l0 -0.07 0.13 0c0.22,0 0.33,-0.35 0.11,-0.47 0.02,-0.07 0.04,-0.03 0.04,-0.16 0,-0.15 -0.13,-0.24 -0.28,-0.24 0,-0.08 0.01,-0.13 -0.07,-0.13 -0.04,0 -0.06,0.06 -0.06,0.1z"/>
   <path class="fil3" d="M4.15 3.52c0.39,-0.06 0.75,0.21 0.81,0.6 0.06,0.39 -0.21,0.75 -0.6,0.81 -0.02,0.01 -0.04,0.01 -0.05,0.01 0.35,-0.08 0.6,-0.43 0.54,-0.8 -0.06,-0.38 -0.39,-0.64 -0.76,-0.61 0.02,0 0.04,-0.01 0.06,-0.01z"/>
   <circle class="fil3" transform="matrix(1.83407 -0.277987 0.277987 1.83407 4.0646 4.25538)" r="0.39"/>
   <path class="fil2" d="M4.38 4.67l-0.64 0 0.1 -0.37 -0.13 0.03 0.03 -0.08 0.13 -0.03 0.13 -0.49c0.01,-0.01 0.01,-0.02 0.02,-0.02l0.16 0c0.01,0 0.02,0.02 0.02,0.03l-0.13 0.42 0.14 -0.04 -0.04 0.08 -0.13 0.04 -0.08 0.26 0.44 0c0.02,0 0.03,0.01 0.02,0.03l-0.04 0.14z"/>
   <g>
    <circle class="fil3" cx="1.11" cy="4.35" r="0.55"/>
    <rect class="fil2" transform="matrix(0.792242 0.792242 -0.792242 0.792242 1.10726 4.07696)" width="0.35" height="0.35" rx="0.02" ry="0.02"/>
   </g>
   <g>
    <circle class="fil3" cx="4.05" cy="1.25" r="0.34"/>
    <rect class="fil2" transform="matrix(0.495922 0.495922 -0.495922 0.495922 4.05163 1.08137)" width="0.35" height="0.35" rx="0.02" ry="0.02"/>
   </g>
  </g>
 </g>
</svg>
