<?xml version="1.0" encoding="UTF-8"?>
<!DOCTYPE svg PUBLIC "-//W3C//DTD SVG 1.1//EN" "http://www.w3.org/Graphics/SVG/1.1/DTD/svg11.dtd">
<!-- Creator: CorelDRAW 2020 (64-Bit) -->
<svg xmlns="http://www.w3.org/2000/svg" xml:space="preserve" width="300px" height="300px" version="1.1" style="shape-rendering:geometricPrecision; text-rendering:geometricPrecision; image-rendering:optimizeQuality; fill-rule:evenodd; clip-rule:evenodd"
viewBox="0 0 21.21 21.21"
 xmlns:xlink="http://www.w3.org/1999/xlink"
 xmlns:xodm="http://www.corel.com/coreldraw/odm/2003">
 <defs>
  <style type="text/css">
   <![CDATA[
    .str0 {stroke:#93B3E6;stroke-width:0.29;stroke-miterlimit:2.61313}
    .fil12 {fill:none}
    .fil3 {fill:#93B3E6}
    .fil4 {fill:#FAF5E8;fill-rule:nonzero}
    .fil6 {fill:#FBF1D0;fill-rule:nonzero}
    .fil2 {fill:#FBE285;fill-rule:nonzero}
    .fil9 {fill:#FCD73D;fill-rule:nonzero}
    .fil10 {fill:#233145;fill-rule:nonzero}
    .fil11 {fill:#466289;fill-rule:nonzero}
    .fil8 {fill:#5193FF;fill-rule:nonzero}
    .fil7 {fill:#72A8FF;fill-rule:nonzero}
    .fil1 {fill:#93B3E6;fill-rule:nonzero}
    .fil0 {fill:#E3EEFF;fill-rule:nonzero}
    .fil5 {fill:white;fill-rule:nonzero}
   ]]>
  </style>
 </defs>
 <g id="Layer_x0020_1">
  <metadata id="CorelCorpID_0Corel-Layer"/>
  <g id="_1175687245664">
   <path class="fil0" d="M14.51 19.56c0,0.91 -0.73,1.65 -1.65,1.65l-11.21 0c-0.91,0 -1.65,-0.74 -1.65,-1.65l0 -15.76c0,-0.91 0.74,-1.65 1.65,-1.65l11.21 0c0.92,0 1.65,0.74 1.65,1.65l0 15.76z"/>
   <path class="fil1" d="M5.71 1.16c-0.15,0 -0.26,-0.12 -0.26,-0.27 0,-0.14 0.11,-0.26 0.26,-0.26l10.25 0c0.52,0 1,0.21 1.35,0.56l0 0c0.35,0.35 0.56,0.83 0.56,1.35l0 15.61c0,0.52 -0.21,1 -0.56,1.35 -0.35,0.35 -0.82,0.56 -1.35,0.56l-11.69 0c-0.53,0 -1,-0.21 -1.35,-0.56l0 0c-0.35,-0.35 -0.56,-0.83 -0.56,-1.35l0 -13.97c0,-0.15 0.12,-0.26 0.26,-0.26 0.15,0 0.27,0.11 0.27,0.26l0 13.97c0,0.38 0.15,0.72 0.4,0.98 0.25,0.25 0.6,0.4 0.98,0.4l11.69 0c0.38,0 0.73,-0.15 0.98,-0.4 0.25,-0.26 0.4,-0.6 0.4,-0.98l0 -15.61c0,-0.38 -0.15,-0.72 -0.4,-0.97 -0.25,-0.26 -0.6,-0.41 -0.98,-0.41l-10.25 0z"/>
   <g>
    <path class="fil2" d="M6.25 8.73c0,0.49 -0.4,0.89 -0.89,0.89 -0.5,0 -0.9,-0.4 -0.9,-0.89 0,-0.5 0.4,-0.89 0.9,-0.89 0.49,0 0.89,0.39 0.89,0.89z"/>
    <g>
     <path class="fil1" d="M4.86 8.73c-0.04,-0.05 -0.03,-0.11 0.01,-0.15 0.04,-0.04 0.11,-0.04 0.15,0.01l-0.16 0.14zm0.33 0.35l-0.33 -0.35 0.16 -0.14 0.32 0.35 0 0.14 -0.15 0zm0.15 -0.14c0.04,0.04 0.04,0.11 -0.01,0.15 -0.04,0.04 -0.1,0.03 -0.14,-0.01l0.15 -0.14zm0.59 -0.46l-0.59 0.6 -0.15 -0.14 0.59 -0.61 0.15 0.15zm-0.15 -0.15c0.04,-0.04 0.1,-0.04 0.14,0 0.05,0.04 0.05,0.11 0.01,0.15l-0.15 -0.15z"/>
    </g>
   </g>
   <rect class="fil3" transform="matrix(0.251826 0.249232 -0.251826 0.249232 19.55 15.338)" width="3.18" height="3.18"/>
   <rect class="fil3" transform="matrix(0.156055 0.154448 -0.156055 0.154448 1.174 19.0848)" width="3.18" height="3.18"/>
   <rect class="fil3" transform="matrix(0.156055 0.154448 -0.156055 0.154448 18.7635 3.22518)" width="3.18" height="3.18"/>
   <rect class="fil3" transform="matrix(0.186337 0.184417 -0.186337 0.184417 18.9387 -2.98811E-06)" width="3.18" height="3.18"/>
   <g id="_1175687258672">
    <rect class="fil3" transform="matrix(0.221606 0.219323 -0.221606 0.219323 0.705162 5.77797)" width="3.18" height="3.18"/>
    <rect class="fil3" transform="matrix(0.139752 0.138313 -0.139752 0.138313 2.37705 3.41825)" width="3.18" height="3.18"/>
   </g>
   <g id="_1175687258192">
    <path class="fil3" d="M6.1 0l0 0c0.11,0 0.19,0.09 0.19,0.19l0 1.2c0,0.1 -0.08,0.19 -0.19,0.19l0 0c-0.1,0 -0.19,-0.09 -0.19,-0.19l0 -1.2c0,-0.1 0.09,-0.19 0.19,-0.19z"/>
    <path class="fil3" d="M8.11 0l0 0c0.1,0 0.19,0.09 0.19,0.19l0 1.2c0,0.1 -0.09,0.19 -0.19,0.19l0 0c-0.11,0 -0.19,-0.09 -0.19,-0.19l0 -1.2c0,-0.1 0.08,-0.19 0.19,-0.19z"/>
    <path class="fil3" d="M10.11 0l0 0c0.11,0 0.19,0.09 0.19,0.19l0 1.2c0,0.1 -0.08,0.19 -0.19,0.19l0 0c-0.1,0 -0.18,-0.09 -0.18,-0.19l0 -1.2c0,-0.1 0.08,-0.19 0.18,-0.19z"/>
    <path class="fil3" d="M12.12 0l0 0c0.11,0 0.19,0.09 0.19,0.19l0 1.2c0,0.1 -0.08,0.19 -0.19,0.19l0 0c-0.1,0 -0.19,-0.09 -0.19,-0.19l0 -1.2c0,-0.1 0.09,-0.19 0.19,-0.19z"/>
    <path class="fil3" d="M14.13 0l0 0c0.1,0 0.19,0.09 0.19,0.19l0 1.2c0,0.1 -0.09,0.19 -0.19,0.19l0 0c-0.11,0 -0.19,-0.09 -0.19,-0.19l0 -1.2c0,-0.1 0.08,-0.19 0.19,-0.19z"/>
   </g>
   <path class="fil1" d="M6.95 6.3c-0.1,0 -0.19,-0.09 -0.19,-0.19 0,-0.1 0.09,-0.19 0.19,-0.19l9.07 0c0.1,0 0.18,0.09 0.18,0.19 0,0.1 -0.08,0.19 -0.18,0.19l-9.07 0z"/>
   <g id="_1175687253776">
    <path class="fil1" d="M6.89 7.22c-0.04,0 -0.07,-0.08 -0.07,-0.18 0,-0.1 0.03,-0.18 0.07,-0.18l3.5 0c0.04,0 0.07,0.08 0.07,0.18 0,0.1 -0.03,0.18 -0.07,0.18l-3.5 0z"/>
    <path class="fil1" d="M10.82 7.22c-0.04,0 -0.07,-0.08 -0.07,-0.18 0,-0.1 0.03,-0.18 0.07,-0.18l1.09 0c0.04,0 0.07,0.08 0.07,0.18 0,0.1 -0.03,0.18 -0.07,0.18l-1.09 0z"/>
    <path class="fil1" d="M12.57 7.22c-0.04,0 -0.07,-0.08 -0.07,-0.18 0,-0.1 0.03,-0.18 0.07,-0.18l1.09 0c0.04,0 0.07,0.08 0.07,0.18 0,0.1 -0.03,0.18 -0.07,0.18l-1.09 0z"/>
   </g>
   <g id="_1175687254784">
    <path class="fil1" d="M6.91 9.75c-0.05,0 -0.09,-0.09 -0.09,-0.18 0,-0.1 0.04,-0.19 0.09,-0.19l4.33 0c0.04,0 0.08,0.09 0.08,0.19 0,0.09 -0.04,0.18 -0.08,0.18l-4.33 0z"/>
    <path class="fil1" d="M11.77 9.75c-0.05,0 -0.09,-0.09 -0.09,-0.18 0,-0.1 0.04,-0.19 0.09,-0.19l1.34 0c0.05,0 0.09,0.09 0.09,0.19 0,0.09 -0.04,0.18 -0.09,0.18l-1.34 0z"/>
    <path class="fil1" d="M13.94 9.75c-0.05,0 -0.09,-0.09 -0.09,-0.18 0,-0.1 0.04,-0.19 0.09,-0.19l1.34 0c0.05,0 0.09,0.09 0.09,0.19 0,0.09 -0.04,0.18 -0.09,0.18l-1.34 0z"/>
   </g>
   <g id="_1175687253488">
    <path class="fil1" d="M6.89 12.47c-0.04,0 -0.07,-0.08 -0.07,-0.18 0,-0.1 0.03,-0.18 0.07,-0.18l3.25 0c0.04,0 0.07,0.08 0.07,0.18 0,0.1 -0.03,0.18 -0.07,0.18l-3.25 0z"/>
    <path class="fil1" d="M10.54 12.47c-0.03,0 -0.06,-0.08 -0.06,-0.18 0,-0.1 0.03,-0.18 0.06,-0.18l1.01 0c0.04,0 0.07,0.08 0.07,0.18 0,0.1 -0.03,0.18 -0.07,0.18l-1.01 0z"/>
    <path class="fil1" d="M12.17 12.47c-0.04,0 -0.07,-0.08 -0.07,-0.18 0,-0.1 0.03,-0.18 0.07,-0.18l1.01 0c0.04,0 0.07,0.08 0.07,0.18 0,0.1 -0.03,0.18 -0.07,0.18l-1.01 0z"/>
   </g>
   <g id="_1175687253296">
    <path class="fil1" d="M12.21 15.68c0.03,0 0.05,-0.08 0.05,-0.18 0,-0.1 -0.02,-0.18 -0.05,-0.18l-2.76 0c-0.03,0 -0.05,0.08 -0.05,0.18 0,0.1 0.02,0.18 0.05,0.18l2.76 0z"/>
    <path class="fil1" d="M9.11 15.68c0.03,0 0.06,-0.08 0.06,-0.18 0,-0.1 -0.03,-0.18 -0.06,-0.18l-0.85 0c-0.03,0 -0.06,0.08 -0.06,0.18 0,0.1 0.03,0.18 0.06,0.18l0.85 0z"/>
    <path class="fil1" d="M7.73 15.68c0.03,0 0.06,-0.08 0.06,-0.18 0,-0.1 -0.03,-0.18 -0.06,-0.18l-0.85 0c-0.03,0 -0.06,0.08 -0.06,0.18 0,0.1 0.03,0.18 0.06,0.18l0.85 0z"/>
   </g>
   <g id="_1175687254832">
    <path class="fil1" d="M13.62 18.85c0.04,0 0.07,-0.08 0.07,-0.18 0,-0.1 -0.03,-0.18 -0.07,-0.18l-3.48 0c-0.04,0 -0.07,0.08 -0.07,0.18 0,0.1 0.03,0.18 0.07,0.18l3.48 0z"/>
    <path class="fil1" d="M9.71 18.85c0.04,0 0.07,-0.08 0.07,-0.18 0,-0.1 -0.03,-0.18 -0.07,-0.18l-1.08 0c-0.04,0 -0.07,0.08 -0.07,0.18 0,0.1 0.03,0.18 0.07,0.18l1.08 0z"/>
    <path class="fil1" d="M7.97 18.85c0.04,0 0.07,-0.08 0.07,-0.18 0,-0.1 -0.03,-0.18 -0.07,-0.18l-1.08 0c-0.04,0 -0.07,0.08 -0.07,0.18 0,0.1 0.03,0.18 0.07,0.18l1.08 0z"/>
   </g>
   <path class="fil1" d="M6.95 8.91c-0.1,0 -0.19,-0.08 -0.19,-0.18 0,-0.11 0.09,-0.19 0.19,-0.19l9.07 0c0.1,0 0.18,0.08 0.18,0.19 0,0.1 -0.08,0.18 -0.18,0.18l-9.07 0z"/>
   <g id="_1175687251232">
    <path class="fil2" d="M6.25 11.38c0,0.5 -0.4,0.9 -0.89,0.9 -0.5,0 -0.9,-0.4 -0.9,-0.9 0,-0.49 0.4,-0.89 0.9,-0.89 0.49,0 0.89,0.4 0.89,0.89z"/>
    <g>
     <path class="fil1" d="M4.86 11.38c-0.04,-0.04 -0.03,-0.11 0.01,-0.15 0.04,-0.03 0.11,-0.03 0.15,0.01l-0.16 0.14zm0.33 0.36l-0.33 -0.36 0.16 -0.14 0.32 0.36 0 0.14 -0.15 0zm0.15 -0.14c0.04,0.04 0.04,0.11 -0.01,0.15 -0.04,0.03 -0.1,0.03 -0.14,-0.01l0.15 -0.14zm0.59 -0.47l-0.59 0.61 -0.15 -0.14 0.59 -0.61 0.15 0.14zm-0.15 -0.14c0.04,-0.04 0.1,-0.04 0.14,0 0.05,0.04 0.05,0.1 0.01,0.14l-0.15 -0.14z"/>
    </g>
   </g>
   <path class="fil1" d="M6.91 11.57c-0.08,0 -0.15,-0.08 -0.15,-0.19 0,-0.1 0.07,-0.18 0.15,-0.18l6.77 0c0.08,0 0.15,0.08 0.15,0.18 0,0.11 -0.07,0.19 -0.15,0.19l-6.77 0z"/>
   <g>
    <path class="fil2" d="M6.25 14.51c0,0.5 -0.4,0.9 -0.89,0.9 -0.5,0 -0.9,-0.4 -0.9,-0.9 0,-0.49 0.4,-0.89 0.9,-0.89 0.49,0 0.89,0.4 0.89,0.89z"/>
    <g>
     <path class="fil1" d="M4.86 14.51c-0.04,-0.04 -0.03,-0.11 0.01,-0.15 0.04,-0.03 0.11,-0.03 0.15,0.01l-0.16 0.14zm0.33 0.36l-0.33 -0.36 0.16 -0.14 0.32 0.36 0 0.14 -0.15 0zm0.15 -0.14c0.04,0.04 0.04,0.11 -0.01,0.15 -0.04,0.03 -0.1,0.03 -0.14,-0.01l0.15 -0.14zm0.59 -0.47l-0.59 0.61 -0.15 -0.14 0.59 -0.61 0.15 0.14zm-0.15 -0.14c0.04,-0.04 0.1,-0.04 0.14,0 0.05,0.04 0.05,0.1 0.01,0.14l-0.15 -0.14z"/>
    </g>
   </g>
   <path class="fil1" d="M6.91 14.7c-0.08,0 -0.15,-0.08 -0.15,-0.19 0,-0.1 0.07,-0.18 0.15,-0.18l5.89 0c0.08,0 0.15,0.08 0.15,0.18 0,0.11 -0.07,0.19 -0.15,0.19l-5.89 0z"/>
   <g>
    <path class="fil2" d="M6.25 17.72c0,0.5 -0.4,0.9 -0.89,0.9 -0.5,0 -0.9,-0.4 -0.9,-0.9 0,-0.49 0.4,-0.89 0.9,-0.89 0.49,0 0.89,0.4 0.89,0.89z"/>
    <g>
     <path class="fil1" d="M4.86 17.72c-0.04,-0.04 -0.03,-0.11 0.01,-0.14 0.04,-0.04 0.11,-0.04 0.15,0l-0.16 0.14zm0.33 0.36l-0.33 -0.36 0.16 -0.14 0.32 0.36 0 0.14 -0.15 0zm0.15 -0.14c0.04,0.04 0.04,0.11 -0.01,0.15 -0.04,0.03 -0.1,0.03 -0.14,-0.01l0.15 -0.14zm0.59 -0.47l-0.59 0.61 -0.15 -0.14 0.59 -0.61 0.15 0.14zm-0.15 -0.14c0.04,-0.04 0.1,-0.04 0.14,0 0.05,0.04 0.05,0.1 0.01,0.14l-0.15 -0.14z"/>
    </g>
   </g>
   <path class="fil1" d="M6.9 17.91c-0.08,0 -0.14,-0.08 -0.14,-0.19 0,-0.1 0.06,-0.18 0.14,-0.18l5.21 0c0.07,0 0.13,0.08 0.13,0.18 0,0.11 -0.06,0.19 -0.13,0.19l-5.21 0z"/>
   <path id="XMLID_1153_" class="fil4" d="M14.65 16.48l0.94 -0.57 1 -0.61 0 0c1.61,-3.08 2.14,-4.07 3.77,-7.18l-0.01 -0.01 0.29 -0.56 0.44 -0.83c0.3,-0.57 0.08,-1.29 -0.5,-1.59 -0.57,-0.3 -1.28,-0.07 -1.58,0.5l-0.44 0.83 -0.32 0.62 -3.73 7.14 0.07 1.16 0.07 1.1z"/>
   <path class="fil5" d="M14.58 15.83l0.98 -0.58c0.95,-1.83 1.38,-2.64 1.81,-3.45 0.57,-1.09 1.14,-2.18 1.7,-3.24l-0.01 -0.01 0.91 -1.74c0.08,-0.14 0.08,-0.31 0.04,-0.45 -0.05,-0.14 -0.15,-0.27 -0.29,-0.35 -0.14,-0.07 -0.3,-0.08 -0.44,-0.03 -0.15,0.04 -0.28,0.14 -0.35,0.28l-4.42 8.44 0.07 1.13zm0.72 0.95l0.93 -3.6 -1.33 -1.29 0.07 -0.31 2.92 -5.86c0.23,-0.43 0.61,-0.73 1.04,-0.87 0.42,-0.13 0.91,-0.1 1.34,0.12 0.43,0.23 0.73,0.61 0.86,1.04 0.14,0.43 0.11,0.91 -0.12,1.34l-0.54 1.04 0.01 0.01 -0.19 0.36c-1.01,1.92 -1.45,2.76 -1.88,3.59 -0.64,1.21 -1.28,2.42 -1.89,3.59l-0.17 0.32 -0.19 0 -0.86 0.52z"/>
   <g>
    <polygon id="XMLID_1153__0" class="fil4" points="14.25,16.47 13.25,17.87 14.07,18.03 15.07,17.43 "/>
    <polygon id="XMLID_1154_" class="fil6" points="12.99,16.34 13.07,17.51 13.46,17.98 14.25,16.47 "/>
    <path id="XMLID_1155_" class="fil2" d="M18.95 7.52l0.82 0.96c-1.63,3.11 -3.08,5.87 -4.7,8.95l-1.04 -0.55 4.92 -9.36z"/>
    <path id="XMLID_1156_" class="fil7" d="M20.49 7.08l-0.43 0.83 -1.68 -0.34 1.62 -2.08c0.57,0.3 0.79,1.02 0.49,1.59z"/>
    <path id="XMLID_1157_" class="fil8" d="M18.41 5.99l-0.44 0.83 0.83 0.96 1.2 -2.29c-0.58,-0.3 -1.29,-0.07 -1.59,0.5z"/>
    <polygon id="XMLID_1158_" class="fil9" points="18.91,7.58 14.03,16.88 12.99,16.34 17.65,7.45 "/>
    <polygon id="XMLID_1159_" class="fil4" points="19.73,8.54 18.69,7.99 18.64,7.57 19.02,7.37 20.06,7.91 "/>
    <rect id="XMLID_1160_" class="fil6" transform="matrix(-0.0530876 -0.0277891 -0.027789 0.0530877 19.0153 7.3671)" width="19.6" height="11.76"/>
    <polygon id="XMLID_1161_" class="fil10" points="13.57,17.77 13.14,18.08 13.13,18.6 14.07,18.03 "/>
    <polygon id="XMLID_1162_" class="fil11" points="13.07,17.51 13.13,18.6 13.57,17.77 "/>
   </g>
   <g>
    <polygon class="fil12 str0" points="4.85,2.66 6.41,2.66 6.41,4.23 4.85,4.23 "/>
    <polygon class="fil12 str0" points="7.84,2.66 9.4,2.66 9.4,4.23 7.84,4.23 "/>
    <polygon class="fil12 str0" points="10.83,2.66 12.39,2.66 12.39,4.23 10.83,4.23 "/>
    <polygon class="fil12 str0" points="13.82,2.66 15.38,2.66 15.38,4.23 13.82,4.23 "/>
   </g>
  </g>
 </g>
</svg>
