<?xml version="1.0" encoding="UTF-8"?>
<!DOCTYPE svg PUBLIC "-//W3C//DTD SVG 1.1//EN" "http://www.w3.org/Graphics/SVG/1.1/DTD/svg11.dtd">
<!-- Creator: CorelDRAW 2020 (64-Bit Evaluation Version) -->
<svg xmlns="http://www.w3.org/2000/svg" xml:space="preserve" width="60px" height="59px" version="1.1" style="shape-rendering:geometricPrecision; text-rendering:geometricPrecision; image-rendering:optimizeQuality; fill-rule:evenodd; clip-rule:evenodd"
viewBox="0 0 5.01 4.97"
 xmlns:xlink="http://www.w3.org/1999/xlink"
 xmlns:xodm="http://www.corel.com/coreldraw/odm/2003">
 <defs>
  <style type="text/css">
   <![CDATA[
    .str0 {stroke:#263674;stroke-width:0.1;stroke-miterlimit:2.61313}
    .str1 {stroke:#263674;stroke-width:0.04;stroke-linecap:round;stroke-miterlimit:2.61313}
    .fil2 {fill:none}
    .fil0 {fill:#FEC00F}
    .fil1 {fill:#263674;fill-rule:nonzero}
   ]]>
  </style>
 </defs>
 <g id="Layer_x0020_1">
  <metadata id="CorelCorpID_0Corel-Layer"/>
  <path class="fil0" d="M0.7 2.43l-0.49 0 0 0.98c0,0.98 1.15,1.47 1.64,1.31l-0.82 -3.44c-0.33,0.16 -0.33,0.16 -0.33,0.49 0,0 0,0.66 0,0.66z"/>
  <path class="fil1 str0" d="M0.87 2.43c0,0.09 -0.07,0.16 -0.17,0.16 -0.09,0 -0.16,-0.07 -0.16,-0.16l0 -0.66c0,-0.3 0.15,-0.6 0.41,-0.82 0.23,-0.2 0.54,-0.33 0.9,-0.33 0.2,0 0.4,0.06 0.57,0.16 0.16,0.1 0.3,0.24 0.4,0.43 0.04,0.08 0,0.18 -0.08,0.22 -0.08,0.04 -0.17,0 -0.21,-0.08 -0.07,-0.13 -0.16,-0.22 -0.27,-0.29 -0.13,-0.07 -0.27,-0.11 -0.41,-0.11 -0.27,0 -0.52,0.1 -0.69,0.25 -0.18,0.16 -0.29,0.37 -0.29,0.57l0 0.66z"/>
  <path class="fil1 str0" d="M3 2.95c0,-0.09 0.07,-0.16 0.16,-0.16 0.09,0 0.17,0.07 0.17,0.16l0 0.49c0,0.45 -0.18,0.81 -0.47,1.07 -0.29,0.26 -0.71,0.41 -1.17,0.41 -0.46,0 -0.88,-0.15 -1.18,-0.41 -0.29,-0.26 -0.46,-0.62 -0.46,-1.07l0 -1.15 2.46 0c0.09,0 0.16,0.08 0.16,0.17 0,0.09 -0.07,0.16 -0.16,0.16l-2.13 0 0 0.82c0,0.35 0.13,0.63 0.35,0.82 0.24,0.21 0.58,0.33 0.96,0.33 0.38,0 0.72,-0.12 0.96,-0.33 0.22,-0.19 0.35,-0.47 0.35,-0.82l0 -0.49z"/>
  <path class="fil1 str0" d="M1.52 3.57c0,-0.09 0.08,-0.16 0.17,-0.16 0.09,0 0.16,0.07 0.16,0.16l0 0.33c0,0.09 -0.07,0.17 -0.16,0.17 -0.09,0 -0.17,-0.08 -0.17,-0.17l0 -0.33z"/>
  <line class="fil2 str1" x1="1.69" y1="3.41" x2="1.69" y2= "3.41" />
  <path class="fil1 str0" d="M4.79 1.95c0.1,0 0.18,0.08 0.18,0.18 0,0.1 -0.08,0.17 -0.18,0.17l-1.19 0c-0.1,0 -0.17,-0.07 -0.17,-0.17 0,-0.1 0.07,-0.18 0.17,-0.18l1.19 0z"/>
  <circle class="fil0" cx="3.86" cy="0.66" r="0.66"/>
  <path class="fil1" d="M4.79 0.61c0.07,0 0.13,0.06 0.13,0.13 0,0.08 -0.06,0.14 -0.13,0.14l-0.25 0 0.14 0.27c0.03,0.06 0,0.15 -0.06,0.18 -0.07,0.03 -0.15,0 -0.18,-0.06l-0.12 -0.23 -0.11 0.23c-0.03,0.06 -0.12,0.09 -0.18,0.06 -0.07,-0.03 -0.09,-0.12 -0.06,-0.18l0.13 -0.27 -0.24 0c-0.08,0 -0.14,-0.06 -0.14,-0.14 0,-0.07 0.06,-0.13 0.14,-0.13l0.24 0 -0.13 -0.28c-0.03,-0.06 -0.01,-0.14 0.06,-0.18 0.06,-0.03 0.15,0 0.18,0.06l0.11 0.23 0.12 -0.23c0.03,-0.06 0.11,-0.09 0.18,-0.06 0.06,0.04 0.09,0.12 0.06,0.18l-0.14 0.28 0.25 0z"/>
 </g>
</svg>
