<?xml version="1.0" encoding="UTF-8"?>
<!DOCTYPE svg PUBLIC "-//W3C//DTD SVG 1.1//EN" "http://www.w3.org/Graphics/SVG/1.1/DTD/svg11.dtd">
<!-- Creator: CorelDRAW 2020 (64-Bit Evaluation Version) -->
<svg xmlns="http://www.w3.org/2000/svg" xml:space="preserve" width="60px" height="60px" version="1.1" style="shape-rendering:geometricPrecision; text-rendering:geometricPrecision; image-rendering:optimizeQuality; fill-rule:evenodd; clip-rule:evenodd"
viewBox="0 0 5.67 5.67"
 xmlns:xlink="http://www.w3.org/1999/xlink"
 xmlns:xodm="http://www.corel.com/coreldraw/odm/2003">
 <defs>
  <style type="text/css">
   <![CDATA[
    .fil2 {fill:#263674}
    .fil0 {fill:#FEC00F}
    .fil1 {fill:#263674;fill-rule:nonzero}
   ]]>
  </style>
 </defs>
 <g id="Layer_x0020_1">
  <metadata id="CorelCorpID_0Corel-Layer"/>
  <g id="_1908036118832">
   <path class="fil0" d="M4.34 4.82l-1.46 -2.5 -0.87 0 -0.7 2.29c-0.03,0.11 0.1,0.21 0.22,0.21l2.81 0z"/>
   <path class="fil1" d="M3.75 1.97l-1.96 0c-0.01,0.01 -0.02,0.04 -0.03,0.07l-0.95 3.09c0,0 0.01,0 0.01,0.01 0,0 0,0 0.01,0l4.02 0c0,0 0.01,0 0.01,0l0 -0.01 -1.07 -3.07c-0.01,-0.04 -0.02,-0.07 -0.04,-0.09zm-1.97 -0.54l1.98 0c0.15,0 0.28,0.06 0.37,0.15 0.09,0.09 0.15,0.21 0.18,0.34l1.08 3.13c0.02,0.04 0.02,0.08 0.02,0.11 0,0.13 -0.05,0.25 -0.14,0.34 -0.07,0.07 -0.17,0.13 -0.27,0.15 -0.05,0.02 -0.1,0.02 -0.15,0.02l-4.02 0c-0.04,0 -0.08,0 -0.12,-0.01 -0.11,-0.02 -0.22,-0.08 -0.3,-0.16 -0.09,-0.09 -0.15,-0.21 -0.15,-0.34 0,-0.03 0.01,-0.06 0.01,-0.1l0.96 -3.13c0.03,-0.13 0.09,-0.25 0.18,-0.35 0.1,-0.09 0.22,-0.15 0.37,-0.15z"/>
   <ellipse class="fil2" cx="2.84" cy="3.35" rx="0.84" ry="0.51"/>
   <g>
    <rect class="fil2" width="5.67" height="0.68"/>
    <rect class="fil2" y="1.56" width="1" height="0.68"/>
    <rect class="fil2" x="4.68" y="1.56" width="1" height="0.68"/>
    <rect class="fil2" transform="matrix(3.02294E-13 4.4931 -8.00723 8.34802E-14 0.684823 -8.71347E-06)" width="0.5" height="0.09"/>
    <rect class="fil2" transform="matrix(3.02294E-13 4.4931 -8.00723 8.34802E-14 5.67479 -8.71347E-06)" width="0.5" height="0.09"/>
   </g>
  </g>
 </g>
</svg>
