<?xml version="1.0" encoding="UTF-8"?>
<!DOCTYPE svg PUBLIC "-//W3C//DTD SVG 1.1//EN" "http://www.w3.org/Graphics/SVG/1.1/DTD/svg11.dtd">
<!-- Creator: CorelDRAW 2020 (64-Bit Evaluation Version) -->
<svg xmlns="http://www.w3.org/2000/svg" xml:space="preserve" width="30px" height="41px" version="1.1" style="shape-rendering:geometricPrecision; text-rendering:geometricPrecision; image-rendering:optimizeQuality; fill-rule:evenodd; clip-rule:evenodd"
viewBox="0 0 1.38 1.87"
 xmlns:xlink="http://www.w3.org/1999/xlink"
 xmlns:xodm="http://www.corel.com/coreldraw/odm/2003">
 <defs>
  <style type="text/css">
   <![CDATA[
    .fil2 {fill:#263674}
    .fil0 {fill:#EFB30C}
    .fil1 {fill:#F0B90B}
    .fil3 {fill:#263674;fill-rule:nonzero}
    .fil4 {fill:white;fill-rule:nonzero}
   ]]>
  </style>
 </defs>
 <g id="Layer_x0020_1">
  <metadata id="CorelCorpID_0Corel-Layer"/>
  <g id="_2106509098352">
   <path class="fil0" d="M0.92 0.93l0 -0.01c-0.01,-0.13 -0.11,-0.23 -0.24,-0.23l0 0c-0.14,0 -0.24,0.11 -0.25,0.24l-0.05 0 0 0.82c0,0.08 0.01,0.13 -0.07,0.11 -0.02,-0.05 -0.01,-0.79 -0.01,-0.94 -0.05,0 -0.18,0 -0.22,0 -0.05,-0.02 -0.1,-0.07 -0.07,-0.14 0,-0.03 0.11,-0.16 0.14,-0.19l0.44 -0.56c0.04,-0.04 0.12,-0.04 0.16,0l0.49 0.62c0.02,0.03 0.08,0.1 0.09,0.13 0.05,0.15 -0.13,0.15 -0.24,0.14l0 0.18c0,0.04 -0.04,0.08 -0.08,0.08l0 0c-0.05,0 -0.09,-0.03 -0.09,-0.08l0 -0.17z"/>
   <rect class="fil1" x="0.26" y="0.81" width="0.17" height="1.06" rx="0.09" ry="0.06"/>
   <path class="fil2" d="M0.92 0.57l-0.21 -0.3c-0.02,-0.03 -0.06,-0.03 -0.07,0l-0.22 0.3 0.5 0z"/>
   <g>
    <path class="fil3" d="M1.21 1.55c0.04,0 0.08,-0.02 0.12,-0.05 0.03,-0.03 0.05,-0.07 0.05,-0.12 0,-0.05 -0.02,-0.09 -0.05,-0.12 -0.04,-0.03 -0.08,-0.05 -0.12,-0.05 -0.05,0 -0.09,0.02 -0.12,0.05 -0.03,0.03 -0.05,0.07 -0.05,0.12 0,0.05 0.02,0.09 0.05,0.12 0.03,0.03 0.07,0.05 0.12,0.05z"/>
    <polygon class="fil3" points="1.14,1.86 0.88,1.22 0.76,1.22 1.02,1.86 "/>
    <path class="fil3" d="M0.71 1.87c0.04,0 0.08,-0.02 0.11,-0.05 0.04,-0.03 0.05,-0.07 0.05,-0.12 0,-0.05 -0.01,-0.09 -0.05,-0.12 -0.03,-0.03 -0.07,-0.05 -0.11,-0.05 -0.05,0 -0.09,0.02 -0.12,0.05 -0.04,0.04 -0.05,0.08 -0.05,0.12 0,0.05 0.01,0.09 0.05,0.12 0.03,0.03 0.07,0.05 0.12,0.05z"/>
    <path class="fil4" d="M0.71 1.77c-0.02,0 -0.04,0 -0.06,-0.02 -0.01,-0.01 -0.02,-0.03 -0.02,-0.05 0,-0.02 0.01,-0.04 0.02,-0.05 0.02,-0.02 0.04,-0.02 0.06,-0.02 0.02,0 0.03,0 0.05,0.02 0.01,0.01 0.02,0.03 0.02,0.05 0,0.02 -0.01,0.04 -0.02,0.05 -0.02,0.02 -0.03,0.02 -0.05,0.02z"/>
    <path class="fil4" d="M1.21 1.45c-0.02,0 -0.04,0 -0.06,-0.02 -0.01,-0.01 -0.02,-0.03 -0.02,-0.05 0,-0.02 0.01,-0.04 0.02,-0.05 0.02,-0.02 0.04,-0.02 0.06,-0.02 0.02,0 0.03,0 0.05,0.02 0.01,0.01 0.02,0.03 0.02,0.05 0,0.02 -0.01,0.04 -0.02,0.05 -0.02,0.02 -0.03,0.02 -0.05,0.02z"/>
   </g>
  </g>
 </g>
</svg>
