<?xml version="1.0" encoding="UTF-8"?>
<!DOCTYPE svg PUBLIC "-//W3C//DTD SVG 1.1//EN" "http://www.w3.org/Graphics/SVG/1.1/DTD/svg11.dtd">
<!-- Creator: CorelDRAW 2020 (64-Bit Evaluation Version) -->
<svg xmlns="http://www.w3.org/2000/svg" xml:space="preserve" width="30px" height="30px" version="1.1" style="shape-rendering:geometricPrecision; text-rendering:geometricPrecision; image-rendering:optimizeQuality; fill-rule:evenodd; clip-rule:evenodd"
viewBox="0 0 2.62 2.62"
 xmlns:xlink="http://www.w3.org/1999/xlink"
 xmlns:xodm="http://www.corel.com/coreldraw/odm/2003">
 <defs>
  <style type="text/css">
   <![CDATA[
    .fil0 {fill:#263674}
    .fil1 {fill:#EFB30C}
   ]]>
  </style>
 </defs>
 <g id="Layer_x0020_1">
  <metadata id="CorelCorpID_0Corel-Layer"/>
  <g id="_2106503532448">
   <path class="fil0" d="M0.66 1.09l0 1.16c-0.18,0.09 -0.33,0.22 -0.46,0.37l-0.01 0 0 -1.11 0 0 0.01 0 0.46 -0.42z"/>
   <path class="fil0" d="M1.26 1.66l0 0.44c-0.17,0 -0.32,0.04 -0.47,0.1l0 -0.98 0 0 0.01 0.01 0 0 0.01 0.01 0.01 0.01 0 0 0.01 0.01 0.01 0.01 0 0 0.01 0.01 0 0.01 0.01 0 0.01 0.01 0 0.01 0.01 0 0 0.01 0.01 0 0 0.01 0.01 0 0 0.01 0.01 0 0 0.01 0.01 0 0 0 0 0.01 0.01 0 0 0 0 0.01 0 0 0.01 0 0 0 0 0 0 0 0.19 0.19c0.01,0.01 0.03,0.02 0.04,0.04l0 0 0.01 0 0 0.01 0 0 0.01 0 0 0.01 0 0 0.01 0 0 0.01 0 0 0.01 0 0 0.01 0 0 0.01 0 0 0 0 0.01 0.01 0 0.01 0 0.01 0 0.01 0.01 0 0z"/>
   <path class="fil0" d="M1.86 1.52l0 0.68c-0.15,-0.06 -0.31,-0.09 -0.47,-0.1l0 -0.53 0.12 -0.12c0.01,0 0.01,0 0.02,-0.01 0.01,-0.01 0.02,-0.02 0.03,-0.04l0.12 -0.12 0 0.01c0,0.11 0.08,0.21 0.18,0.23z"/>
   <path class="fil0" d="M2.46 0.67l0 1.95 -0.04 0c-0.12,-0.14 -0.27,-0.27 -0.43,-0.36l0 -0.74c0.1,-0.02 0.17,-0.12 0.17,-0.23 0,-0.11 -0.07,-0.2 -0.17,-0.23l0 -0.08 0.18 -0.18c0.02,-0.02 0.05,-0.06 0.07,-0.07 0.04,-0.03 0.1,-0.11 0.14,-0.13l0.02 0.01 0 0.01 0.02 0.02 0.01 0 0.01 0.02 0.01 0 0 0.01 0.01 0z"/>
   <path class="fil1" d="M2.05 0.07c0,0.02 0.05,0.06 0.07,0.09l0.09 0.08c-0.01,0.02 -0.1,0.1 -0.12,0.12 -0.04,0.04 -0.07,0.08 -0.11,0.12l-0.48 0.47c-0.03,0.04 -0.07,0.08 -0.11,0.12l-0.12 0.11 -0.16 -0.15c-0.11,-0.1 -0.22,-0.22 -0.33,-0.32l-0.06 -0.06c-0.03,-0.03 -0.05,-0.06 -0.1,-0.05 -0.03,0.01 -0.03,0.02 -0.05,0.03l-0.04 0.04c-0.01,0.01 -0.01,0.01 -0.02,0.02 -0.01,0.01 -0.01,0.01 -0.02,0.02l-0.15 0.15c-0.02,0.02 -0.03,0.03 -0.04,0.04l-0.27 0.27c-0.03,0.04 -0.03,0.02 -0.03,0.08 0,0.03 0.05,0.08 0.08,0.1 0.02,0.01 0.07,0.02 0.09,0 0.01,-0.01 0.02,-0.02 0.03,-0.03l0.07 -0.06c0.01,-0.01 0.02,-0.02 0.03,-0.03 0.06,-0.06 0.15,-0.16 0.21,-0.22 0.02,-0.02 0.12,-0.11 0.13,-0.12 0.01,0.01 0.29,0.29 0.3,0.3l0.19 0.19c0.01,0.01 0.02,0.02 0.04,0.04 0.04,0.04 0.05,0.06 0.1,0.06 0.03,0 0.06,-0.04 0.09,-0.06l0.15 -0.15c0,0 0.01,-0.01 0.02,-0.01 0.01,-0.01 0.02,-0.02 0.03,-0.04l0.61 -0.6c0.02,-0.02 0.05,-0.06 0.07,-0.07 0.04,-0.03 0.1,-0.11 0.14,-0.13 0.03,0.03 0.07,0.06 0.1,0.09 0.01,0.01 0.05,0.06 0.07,0.06 0.05,0 0.05,-0.04 0.06,-0.08l0.01 -0.2c0,-0.01 0,-0.02 0,-0.03 0,-0.01 0,-0.02 0,-0.03 0,-0.02 0,-0.02 0,-0.03l0 -0.16c0,-0.01 0,-0.02 -0.01,-0.03 0,-0.01 -0.01,-0.01 -0.02,-0.01l-0.02 0c-0.05,0 -0.09,0 -0.14,0 -0.01,0 -0.02,0.01 -0.03,0.01 -0.01,0 -0.03,-0.01 -0.04,0 -0.03,0 -0.07,0 -0.1,0 -0.03,0 -0.17,0.01 -0.18,0.01 -0.02,0.01 -0.03,0.04 -0.03,0.05z"/>
   <path class="fil1" d="M1.48 0.42c0.09,0 0.17,0.08 0.17,0.17 0,0.1 -0.08,0.17 -0.17,0.17 -0.09,0 -0.17,-0.07 -0.17,-0.17 0,-0.09 0.08,-0.17 0.17,-0.17zm0 0.1c0.04,0 0.07,0.03 0.07,0.07 0,0.04 -0.03,0.07 -0.07,0.07 -0.04,0 -0.07,-0.03 -0.07,-0.07 0,-0.04 0.03,-0.07 0.07,-0.07z"/>
   <path class="fil1" d="M1.92 1.12c0.09,0 0.17,0.08 0.17,0.17 0,0.1 -0.08,0.17 -0.17,0.17 -0.09,0 -0.17,-0.07 -0.17,-0.17 0,-0.09 0.08,-0.17 0.17,-0.17zm0 0.1c0.04,0 0.07,0.04 0.07,0.07 0,0.04 -0.03,0.07 -0.07,0.07 -0.04,0 -0.07,-0.03 -0.07,-0.07 0,-0.03 0.03,-0.07 0.07,-0.07z"/>
  </g>
 </g>
</svg>
