<?xml version="1.0" encoding="UTF-8"?>
<!DOCTYPE svg PUBLIC "-//W3C//DTD SVG 1.1//EN" "http://www.w3.org/Graphics/SVG/1.1/DTD/svg11.dtd">
<!-- Creator: CorelDRAW 2020 (64-Bit Evaluation Version) -->
<svg xmlns="http://www.w3.org/2000/svg" xml:space="preserve" width="50px" height="50px" version="1.1" style="shape-rendering:geometricPrecision; text-rendering:geometricPrecision; image-rendering:optimizeQuality; fill-rule:evenodd; clip-rule:evenodd"
viewBox="0 0 1.14 1.14"
 xmlns:xlink="http://www.w3.org/1999/xlink"
 xmlns:xodm="http://www.corel.com/coreldraw/odm/2003">
 <defs>
  <style type="text/css">
   <![CDATA[
    .fil2 {fill:#263674}
    .fil1 {fill:#EFB30C}
    .fil0 {fill:#263674;fill-rule:nonzero}
   ]]>
  </style>
 </defs>
 <g id="Layer_x0020_1">
  <metadata id="CorelCorpID_0Corel-Layer"/>
  <g id="_3235372144496">
   <g>
    <path class="fil0" d="M0.78 0.39c-0.23,0.22 -0.26,0.55 -0.26,0.71 0,0.01 0.01,0.02 0.01,0.02 0.01,0 0.01,-0.01 0.02,-0.01 0.06,-0.34 0.19,-0.51 0.29,-0.59 -0.01,0 -0.02,-0.01 -0.02,-0.02 -0.03,-0.02 -0.04,-0.06 -0.04,-0.09 0,-0.01 0,-0.01 0,-0.02z"/>
    <path class="fil0" d="M0.23 0.38c0.12,0.18 0.19,0.53 0.21,0.7 0,0.01 0.01,0.01 0.01,0.01 0,0 0.01,0 0.01,-0.01 0,-0.36 -0.05,-0.61 -0.11,-0.77 0,0.01 -0.01,0.02 -0.02,0.03 -0.03,0.02 -0.06,0.04 -0.1,0.04z"/>
    <path class="fil0" d="M0.83 0.85c-0.08,0.03 -0.2,0.09 -0.23,0.23 -0.01,0.01 0,0.01 0,0.02 0.01,0 0.02,0 0.03,-0.01 0.04,-0.06 0.11,-0.14 0.22,-0.16 -0.01,-0.02 -0.02,-0.04 -0.02,-0.06 0,-0.01 0,-0.01 0,-0.02z"/>
    <path class="fil0" d="M0.21 0.83c0.07,0.08 0.12,0.19 0.16,0.27 0,0 0,0.01 0.01,0.01 0.01,-0.01 0.01,-0.01 0.01,-0.02 -0.03,-0.15 -0.07,-0.25 -0.11,-0.31 -0.01,0.01 -0.01,0.01 -0.02,0.02 -0.01,0.01 -0.03,0.02 -0.05,0.03z"/>
    <path class="fil0" d="M0.52 0.18c-0.02,0.08 -0.04,0.2 -0.02,0.37 0,0.01 0.02,0.01 0.02,0 0,-0.08 0.02,-0.21 0.07,-0.32 -0.02,-0.01 -0.04,-0.02 -0.06,-0.03 0,-0.01 0,-0.01 -0.01,-0.02z"/>
    <circle class="fil1" cx="0.22" cy="0.22" r="0.13"/>
    <circle class="fil1" cx="0.62" cy="0.11" r="0.11"/>
    <circle class="fil1" cx="0.93" cy="0.4" r="0.13"/>
    <circle class="fil1" cx="0.18" cy="0.72" r="0.1"/>
    <circle class="fil1" cx="0.93" cy="0.86" r="0.08"/>
   </g>
   <rect class="fil2" x="0.77" y="1.08" width="0.36" height="0.05"/>
   <rect class="fil2" y="1.08" width="0.7" height="0.05"/>
  </g>
 </g>
</svg>
