<?xml version="1.0" encoding="UTF-8"?>
<!DOCTYPE svg PUBLIC "-//W3C//DTD SVG 1.1//EN" "http://www.w3.org/Graphics/SVG/1.1/DTD/svg11.dtd">
<!-- Creator: CorelDRAW 2020 (64-Bit Evaluation Version) -->
<svg xmlns="http://www.w3.org/2000/svg" xml:space="preserve" width="60px" height="60px" version="1.1" style="shape-rendering:geometricPrecision; text-rendering:geometricPrecision; image-rendering:optimizeQuality; fill-rule:evenodd; clip-rule:evenodd"
viewBox="0 0 3.83 3.83"
 xmlns:xlink="http://www.w3.org/1999/xlink"
 xmlns:xodm="http://www.corel.com/coreldraw/odm/2003">
 <defs>
  <style type="text/css">
   <![CDATA[
    .str1 {stroke:#263674;stroke-width:0.25;stroke-miterlimit:2.61313}
    .str0 {stroke:#263674;stroke-width:0.3;stroke-linecap:round;stroke-linejoin:round;stroke-miterlimit:2.61313}
    .fil1 {fill:none}
    .fil0 {fill:#FEC00F}
   ]]>
  </style>
 </defs>
 <g id="Layer_x0020_1">
  <metadata id="CorelCorpID_0Corel-Layer"/>
  <g id="_2466292882080">
   <path class="fil0" d="M1.5 1.5l-0.87 -0.87c-0.3,0.31 -0.47,0.71 -0.48,1.14l0 0.07c0,0.23 0.06,0.46 0.16,0.67 0.21,0.45 0.6,0.75 1.03,0.88 0.02,-0.04 0.05,-0.08 0.08,-0.12 -0.07,-0.08 -0.12,-0.19 -0.12,-0.31 0,-0.11 0.04,-0.22 0.11,-0.3 -0.07,-0.07 -0.11,-0.18 -0.11,-0.29 0,-0.13 0.05,-0.24 0.13,-0.32 0.05,-0.05 0.1,-0.08 0.17,-0.11 -0.09,-0.06 -0.15,-0.16 -0.15,-0.27 0,-0.06 0.02,-0.12 0.05,-0.17z"/>
   <path class="fil1 str0" d="M0.91 3.19c-0.26,-0.17 -0.47,-0.4 -0.6,-0.68 -0.39,-0.82 -0.04,-1.81 0.78,-2.2 0.82,-0.39 1.81,-0.04 2.2,0.78 0.07,0.14 0.12,0.28 0.14,0.43"/>
   <path class="fil0" d="M2.65 2.65l-0.38 -0.38 -0.13 -0.13 -0.26 0c-0.14,0 -0.26,0.12 -0.26,0.26 0,0.13 0.09,0.23 0.21,0.26 0.02,0 0.03,0 0.05,0l0.78 0 -0.01 -0.01z"/>
   <path class="fil0" d="M2.66 2.66l-0.78 0c-0.02,0 -0.03,0 -0.05,0 -0.12,0.02 -0.21,0.13 -0.21,0.25 0,0.15 0.12,0.26 0.26,0.26l0.84 0 0.45 0 -0.2 -0.2 -0.12 -0.12 -0.19 -0.19z"/>
   <path class="fil0" d="M2.71 3.18l-0.83 0c-0.14,0 -0.26,0.12 -0.26,0.26 0,0 0,0 0,0 0,0.15 0.12,0.26 0.26,0.26l1.56 0c0.07,0 0.14,-0.03 0.19,-0.07l-0.45 -0.45 -0.47 0z"/>
   <g>
    <line class="fil1 str0" x1="2.24" y1="1.82" x2="1.77" y2= "1.82" />
    <line class="fil1 str0" x1="1.77" y1="1.2" x2="1.77" y2= "1.82" />
   </g>
   <path class="fil1 str1" d="M1.88 3.18l1.56 0c0.15,0 0.26,0.12 0.26,0.26l0 0c0,0.15 -0.11,0.26 -0.26,0.26l-1.56 0c-0.14,0 -0.26,-0.11 -0.26,-0.26l0 0c0,-0.14 0.12,-0.26 0.26,-0.26z"/>
   <path class="fil1 str1" d="M1.88 2.65l1.56 0c0.15,0 0.26,0.12 0.26,0.26l0 0c0,0.15 -0.11,0.26 -0.26,0.26l-1.56 0c-0.14,0 -0.26,-0.11 -0.26,-0.26l0 0c0,-0.14 0.12,-0.26 0.26,-0.26z"/>
   <path class="fil1 str1" d="M1.88 2.14l1.56 0c0.15,0 0.26,0.12 0.26,0.26l0 0c0,0.14 -0.11,0.26 -0.26,0.26l-1.56 0c-0.14,0 -0.26,-0.12 -0.26,-0.26l0 0c0,-0.14 0.12,-0.26 0.26,-0.26z"/>
  </g>
 </g>
</svg>
