<?xml version="1.0" encoding="UTF-8"?>
<!DOCTYPE svg PUBLIC "-//W3C//DTD SVG 1.1//EN" "http://www.w3.org/Graphics/SVG/1.1/DTD/svg11.dtd">
<!-- Creator: CorelDRAW 2020 (64-Bit Evaluation Version) -->
<svg xmlns="http://www.w3.org/2000/svg" xml:space="preserve" width="60px" height="60px" version="1.1" style="shape-rendering:geometricPrecision; text-rendering:geometricPrecision; image-rendering:optimizeQuality; fill-rule:evenodd; clip-rule:evenodd"
viewBox="0 0 9.65 9.65"
 xmlns:xlink="http://www.w3.org/1999/xlink"
 xmlns:xodm="http://www.corel.com/coreldraw/odm/2003">
 <defs>
  <style type="text/css">
   <![CDATA[
    .str0 {stroke:#263674;stroke-width:0.8;stroke-linecap:round;stroke-linejoin:round;stroke-miterlimit:2.61313}
    .fil1 {fill:none}
    .fil2 {fill:#263674}
    .fil0 {fill:#FEC00F}
   ]]>
  </style>
 </defs>
 <g id="Layer_x0020_1">
  <metadata id="CorelCorpID_0Corel-Layer"/>
  <g id="_2317046980960">
   <polygon class="fil0" points="2.03,6.38 0.4,9.25 3.42,9.25 "/>
   <path class="fil0" d="M1.33 2.6c0,1.21 0.98,2.2 2.2,2.2 0.41,0 0.8,-0.12 1.13,-0.32l-0.7 -1.45c-0.24,0.22 -0.38,0.48 -0.43,0.8 -0.13,-0.58 -0.53,-1 -1.23,-1.23 0.29,-0.06 0.54,-0.19 0.75,-0.39 0.11,-0.12 0.22,-0.27 0.31,-0.44l-0.59 -1.24c-0.84,0.31 -1.44,1.12 -1.44,2.07z"/>
   <path class="fil0" d="M5.6 6.44l-1.1 1.37c-0.01,0.01 -0.02,0.02 -0.03,0.03l1.11 1.02 1.18 0 -1.16 -2.42z"/>
   <g>
    <circle class="fil1 str0" cx="3.53" cy="2.6" r="2.2"/>
    <path class="fil2" d="M3.53 1.37c0.16,0.7 0.53,1.2 1.23,1.23 -0.72,0.24 -1.14,0.64 -1.23,1.23 -0.13,-0.58 -0.53,-1 -1.23,-1.23 0.29,-0.06 0.54,-0.19 0.75,-0.39 0.2,-0.21 0.36,-0.49 0.48,-0.84z"/>
   </g>
   <polygon class="fil1 str0" points="0.4,9.25 2.33,5.86 6.01,9.25 "/>
   <polyline class="fil1 str0" points="5.47,9.25 9.25,9.25 6.59,4.56 4.19,7.56 "/>
  </g>
 </g>
</svg>
