<?xml version="1.0" encoding="UTF-8"?>
<!DOCTYPE svg PUBLIC "-//W3C//DTD SVG 1.1//EN" "http://www.w3.org/Graphics/SVG/1.1/DTD/svg11.dtd">
<!-- Creator: CorelDRAW 2020 (64-Bit) -->
<svg xmlns="http://www.w3.org/2000/svg" xml:space="preserve" width="1in" height="1in" version="1.1" style="shape-rendering:geometricPrecision; text-rendering:geometricPrecision; image-rendering:optimizeQuality; fill-rule:evenodd; clip-rule:evenodd"
viewBox="0 0 38.36 38.36"
 xmlns:xlink="http://www.w3.org/1999/xlink"
 xmlns:xodm="http://www.corel.com/coreldraw/odm/2003">
 <defs>
  <style type="text/css">
   <![CDATA[
    .str0 {stroke:#93B3E6;stroke-width:0.26;stroke-miterlimit:2.61313}
    .fil4 {fill:#FEFEFE}
    .fil2 {fill:#FCE8A4}
    .fil3 {fill:#93B3E6}
    .fil9 {fill:#E65F5F}
    .fil8 {fill:#FF6A6A}
    .fil5 {fill:white}
    .fil7 {fill:#FCD73D;fill-rule:nonzero}
    .fil1 {fill:#93B3E6;fill-rule:nonzero}
    .fil0 {fill:#E3EEFF;fill-rule:nonzero}
    .fil6 {fill:white;fill-rule:nonzero}
   ]]>
  </style>
 </defs>
 <g id="Layer_x0020_1">
  <metadata id="CorelCorpID_0Corel-Layer"/>
  <g id="_2534736151184">
   <path class="fil0" d="M38.36 35.37c0,1.65 -1.34,2.98 -2.98,2.98l-20.28 0c-1.65,0 -2.98,-1.34 -2.98,-2.98l0 -28.49c0,-1.65 1.34,-2.98 2.98,-2.98l20.28 0c1.65,0 2.98,1.34 2.98,2.98l0 28.49z"/>
   <path class="fil1" d="M4.26 30.14l0 -22.59c0,-0.26 0.21,-0.48 0.48,-0.48 0.26,0 0.48,0.21 0.48,0.48l0 22.37c-0.14,0 -0.28,0.02 -0.41,0.04 -0.19,0.04 -0.37,0.09 -0.55,0.17z"/>
   <path class="fil1" d="M10.33 2.1c-0.26,0 -0.48,-0.21 -0.48,-0.48 0,-0.26 0.21,-0.48 0.48,-0.48l18.53 0c0.95,0 1.82,0.39 2.45,1.01l0 0c0.63,0.63 1.01,1.49 1.01,2.45l0 28.21c0,0.96 -0.39,1.82 -1.01,2.45 -0.63,0.63 -1.49,1.01 -2.45,1.01l-21.13 0c-0.65,0 -1.26,-0.18 -1.78,-0.49l0.54 -0.79c0.36,0.21 0.79,0.33 1.24,0.33l21.13 0c0.69,0 1.32,-0.28 1.77,-0.73 0.45,-0.45 0.73,-1.08 0.73,-1.77l0 -28.21c0,-0.69 -0.28,-1.32 -0.73,-1.77 -0.45,-0.45 -1.08,-0.73 -1.77,-0.73l-18.53 0z"/>
   <rect class="fil2" transform="matrix(0.251826 0.249232 -0.251826 0.249232 35.3501 27.7339)" width="5.75" height="5.75"/>
   <rect class="fil3" transform="matrix(0.156055 0.154448 -0.156055 0.154448 33.9279 5.83174)" width="5.75" height="5.75"/>
   <rect class="fil3" transform="matrix(0.186337 0.184417 -0.186337 0.184417 34.2448 -5.40307E-06)" width="5.75" height="5.75"/>
   <g>
    <rect class="fil3" transform="matrix(0.221606 0.219323 -0.221606 0.219323 1.27507 7.53139)" width="5.75" height="5.75"/>
    <rect class="fil2" transform="matrix(0.139752 0.138313 -0.139752 0.138313 4.29816 3.26455)" width="5.75" height="5.75"/>
   </g>
   <g>
    <path class="fil3" d="M11.03 0l0 0c0.19,0 0.34,0.15 0.34,0.34l0 2.17c0,0.19 -0.15,0.34 -0.34,0.34l0 0c-0.19,0 -0.34,-0.15 -0.34,-0.34l0 -2.17c0,-0.19 0.15,-0.34 0.34,-0.34z"/>
    <path class="fil3" d="M14.66 0l0 0c0.19,0 0.34,0.15 0.34,0.34l0 2.17c0,0.19 -0.15,0.34 -0.34,0.34l0 0c-0.19,0 -0.34,-0.15 -0.34,-0.34l0 -2.17c0,-0.19 0.15,-0.34 0.34,-0.34z"/>
    <path class="fil3" d="M18.29 0l0 0c0.19,0 0.34,0.15 0.34,0.34l0 2.17c0,0.19 -0.15,0.34 -0.34,0.34l0 0c-0.19,0 -0.34,-0.15 -0.34,-0.34l0 -2.17c0,-0.19 0.15,-0.34 0.34,-0.34z"/>
    <path class="fil3" d="M21.92 0l0 0c0.19,0 0.34,0.15 0.34,0.34l0 2.17c0,0.19 -0.15,0.34 -0.34,0.34l0 0c-0.19,0 -0.34,-0.15 -0.34,-0.34l0 -2.17c0,-0.19 0.15,-0.34 0.34,-0.34z"/>
    <path class="fil3" d="M25.55 0l0 0c0.19,0 0.34,0.15 0.34,0.34l0 2.17c0,0.19 -0.15,0.34 -0.34,0.34l0 0c-0.19,0 -0.34,-0.15 -0.34,-0.34l0 -2.17c0,-0.19 0.15,-0.34 0.34,-0.34z"/>
   </g>
   <path class="fil1" d="M14.07 11.42c-0.18,0 -0.33,-0.16 -0.33,-0.36 0,-0.2 0.15,-0.36 0.33,-0.36l15.76 0c0.18,0 0.33,0.16 0.33,0.36 0,0.2 -0.15,0.36 -0.33,0.36l-15.76 0z"/>
   <g>
    <path class="fil1" d="M14 13.18c-0.08,0 -0.14,-0.15 -0.14,-0.34 0,-0.19 0.06,-0.34 0.14,-0.34l6.66 0c0.08,0 0.14,0.15 0.14,0.34 0,0.19 -0.06,0.34 -0.14,0.34l-6.66 0z"/>
    <path class="fil1" d="M21.48 13.18c-0.08,0 -0.14,-0.15 -0.14,-0.34 0,-0.19 0.06,-0.34 0.14,-0.34l2.06 0c0.08,0 0.14,0.15 0.14,0.34 0,0.19 -0.06,0.34 -0.14,0.34l-2.06 0z"/>
    <path class="fil1" d="M24.82 13.18c-0.08,0 -0.14,-0.15 -0.14,-0.34 0,-0.19 0.06,-0.34 0.14,-0.34l2.06 0c0.08,0 0.14,0.15 0.14,0.34 0,0.19 -0.06,0.34 -0.14,0.34l-2.06 0z"/>
   </g>
   <g>
    <path class="fil1" d="M19.04 17.62c-0.06,0 -0.12,-0.15 -0.12,-0.33 0,-0.18 0.05,-0.33 0.12,-0.33l5.58 0c0.06,0 0.12,0.15 0.12,0.33 0,0.18 -0.05,0.33 -0.12,0.33l-5.58 0z"/>
    <path class="fil1" d="M25.31 17.62c-0.06,0 -0.12,-0.15 -0.12,-0.33 0,-0.18 0.05,-0.33 0.12,-0.33l1.73 0c0.06,0 0.12,0.15 0.12,0.33 0,0.18 -0.05,0.33 -0.12,0.33l-1.73 0z"/>
    <path class="fil1" d="M28.11 17.62c-0.06,0 -0.12,-0.15 -0.12,-0.33 0,-0.18 0.05,-0.33 0.12,-0.33l1.73 0c0.06,0 0.12,0.15 0.12,0.33 0,0.18 -0.05,0.33 -0.12,0.33l-1.73 0z"/>
   </g>
   <path class="fil1" d="M16.98 15.44c-0.14,0 -0.25,-0.15 -0.25,-0.34 0,-0.19 0.11,-0.34 0.25,-0.34l12.07 0c0.14,0 0.25,0.15 0.25,0.34 0,0.19 -0.11,0.34 -0.25,0.34l-12.07 0z"/>
   <g>
    <g>
     <path class="fil1" d="M30.47 29.66c0.05,0 0.09,-0.15 0.09,-0.33 0,-0.18 -0.04,-0.33 -0.09,-0.33l-4.24 0c-0.05,0 -0.09,0.15 -0.09,0.33 0,0.18 0.04,0.33 0.09,0.33l4.24 0z"/>
     <path class="fil1" d="M25.7 29.66c0.05,0 0.09,-0.15 0.09,-0.33 0,-0.18 -0.04,-0.33 -0.09,-0.33l-1.32 0c-0.05,0 -0.09,0.15 -0.09,0.33 0,0.18 0.04,0.33 0.09,0.33l1.32 0z"/>
     <path class="fil1" d="M23.57 29.66c0.05,0 0.09,-0.15 0.09,-0.33 0,-0.18 -0.04,-0.33 -0.09,-0.33l-1.32 0c-0.05,0 -0.09,0.15 -0.09,0.33 0,0.18 0.04,0.33 0.09,0.33l1.32 0z"/>
    </g>
    <path class="fil1" d="M30.43 28.02c0.11,0 0.2,-0.15 0.2,-0.34 0,-0.19 -0.09,-0.34 -0.2,-0.34l-8.83 0c-0.11,0 -0.2,0.15 -0.2,0.34 0,0.19 0.09,0.34 0.2,0.34l8.83 0z"/>
   </g>
   <g>
    <g>
     <path class="fil1" d="M21.71 24.28c-0.05,0 -0.09,-0.15 -0.09,-0.33 0,-0.18 0.04,-0.33 0.09,-0.33l4.24 0c0.05,0 0.09,0.15 0.09,0.33 0,0.18 -0.04,0.33 -0.09,0.33l-4.24 0z"/>
     <path class="fil1" d="M26.48 24.28c-0.05,0 -0.09,-0.15 -0.09,-0.33 0,-0.18 0.04,-0.33 0.09,-0.33l1.32 0c0.05,0 0.09,0.15 0.09,0.33 0,0.18 -0.04,0.33 -0.09,0.33l-1.32 0z"/>
     <path class="fil1" d="M28.6 24.28c-0.05,0 -0.09,-0.15 -0.09,-0.33 0,-0.18 0.04,-0.33 0.09,-0.33l1.32 0c0.05,0 0.09,0.15 0.09,0.33 0,0.18 -0.04,0.33 -0.09,0.33l-1.32 0z"/>
    </g>
    <path class="fil1" d="M21.74 22.65c-0.11,0 -0.2,-0.15 -0.2,-0.34 0,-0.19 0.09,-0.34 0.2,-0.34l8.83 0c0.11,0 0.2,0.15 0.2,0.34 0,0.19 -0.09,0.34 -0.2,0.34l-8.83 0z"/>
   </g>
   <g>
    <g>
     <path class="fil1" d="M30.44 34.21c0.06,0 0.1,-0.15 0.1,-0.33 0,-0.18 -0.05,-0.33 -0.1,-0.33l-4.92 0c-0.06,0 -0.1,0.15 -0.1,0.33 0,0.18 0.05,0.33 0.1,0.33l4.92 0z"/>
     <path class="fil1" d="M24.91 34.21c0.06,0 0.1,-0.15 0.1,-0.33 0,-0.18 -0.05,-0.33 -0.1,-0.33l-1.53 0c-0.06,0 -0.1,0.15 -0.1,0.33 0,0.18 0.05,0.33 0.1,0.33l1.53 0z"/>
     <path class="fil1" d="M22.44 34.21c0.06,0 0.1,-0.15 0.1,-0.33 0,-0.18 -0.05,-0.33 -0.1,-0.33l-1.53 0c-0.06,0 -0.1,0.15 -0.1,0.33 0,0.18 0.05,0.33 0.1,0.33l1.53 0z"/>
    </g>
    <path class="fil1" d="M30.4 32.57c0.13,0 0.23,-0.15 0.23,-0.34 0,-0.19 -0.1,-0.34 -0.23,-0.34l-10.24 0c-0.13,0 -0.23,0.15 -0.23,0.34 0,0.19 0.1,0.34 0.23,0.34l10.24 0z"/>
   </g>
   <circle class="fil4" transform="matrix(0.863517 0.0614898 -0.0621297 0.854623 10.4766 24.7827)" r="8.95"/>
   <g>
    <polygon class="fil5 str0" points="8.06,4.82 11.75,4.82 11.75,8.5 8.06,8.5 "/>
    <path class="fil6" d="M9 6.21c-0.13,-0.14 -0.13,-0.35 0.01,-0.49 0.14,-0.13 0.35,-0.13 0.49,0.01l0.41 0.43 0.41 -0.43c0.13,-0.14 0.35,-0.14 0.49,-0.01 0.14,0.13 0.14,0.35 0.01,0.49l-0.43 0.45 0.43 0.45c0.13,0.14 0.13,0.35 -0.01,0.49 -0.14,0.13 -0.35,0.12 -0.49,-0.01l-0.41 -0.43 -0.41 0.43c-0.13,0.14 -0.35,0.14 -0.49,0.01 -0.14,-0.13 -0.14,-0.35 -0.01,-0.49l0.43 -0.45 -0.43 -0.45z"/>
    <path class="fil1" d="M8.88 6.33l-0 -0c-0.1,-0.1 -0.14,-0.23 -0.14,-0.36 0,-0.13 0.05,-0.26 0.15,-0.35l0 -0c0.1,-0.1 0.23,-0.14 0.36,-0.14 0.13,0 0.26,0.06 0.35,0.16l0.29 0.3 0.29 -0.3c0.1,-0.1 0.23,-0.15 0.36,-0.15 0.13,-0 0.26,0.04 0.36,0.14l0 0c0.1,0.1 0.15,0.23 0.15,0.36 0,0.13 -0.05,0.26 -0.14,0.36l-0.32 0.33 0.32 0.33c0.1,0.1 0.14,0.23 0.14,0.36 -0,0.13 -0.05,0.26 -0.15,0.36l-0 0c-0.1,0.1 -0.23,0.14 -0.36,0.14 -0.13,-0 -0.26,-0.06 -0.36,-0.16l-0.29 -0.3 -0.29 0.3c-0.1,0.1 -0.23,0.15 -0.36,0.16 -0.13,0 -0.26,-0.04 -0.36,-0.14 -0.1,-0.1 -0.15,-0.23 -0.16,-0.36 -0,-0.13 0.05,-0.26 0.14,-0.36l0.32 -0.33 -0.32 -0.33zm0.23 -0.24c0.18,0.19 0.36,0.38 0.54,0.56l-0.54 0.56c-0.03,0.04 -0.05,0.08 -0.05,0.13 0,0.04 0.02,0.09 0.05,0.12 0.03,0.03 0.08,0.05 0.13,0.05 0.05,-0 0.09,-0.02 0.13,-0.06l0.53 -0.55 0.53 0.55c0.03,0.04 0.08,0.05 0.13,0.06 0.04,0 0.09,-0.01 0.12,-0.05l0 -0c0.03,-0.03 0.05,-0.08 0.05,-0.12 0,-0.04 -0.02,-0.09 -0.05,-0.12 -0.18,-0.19 -0.36,-0.38 -0.54,-0.56 0.13,-0.14 0.47,-0.45 0.54,-0.56 0.03,-0.04 0.05,-0.08 0.05,-0.12 -0,-0.04 -0.02,-0.09 -0.05,-0.12l-0 -0c-0.03,-0.03 -0.08,-0.05 -0.12,-0.05 -0.05,0 -0.09,0.02 -0.13,0.06 -0.07,0.11 -0.4,0.42 -0.53,0.55 -0.18,-0.18 -0.36,-0.36 -0.53,-0.55 -0.03,-0.04 -0.08,-0.05 -0.13,-0.06 -0.04,-0 -0.09,0.01 -0.12,0.05l-0 0c-0.03,0.03 -0.05,0.08 -0.05,0.12 -0,0.04 0.02,0.09 0.05,0.13z"/>
   </g>
   <g>
    <polygon class="fil5 str0" points="14.4,4.82 18.08,4.82 18.08,8.5 14.4,8.5 "/>
    <path class="fil6" d="M15.34 6.21c-0.13,-0.14 -0.13,-0.35 0.01,-0.49 0.14,-0.13 0.35,-0.13 0.49,0.01l0.41 0.43 0.41 -0.43c0.13,-0.14 0.35,-0.14 0.49,-0.01 0.14,0.13 0.14,0.35 0.01,0.49l-0.43 0.45 0.43 0.45c0.13,0.14 0.13,0.35 -0.01,0.49 -0.14,0.13 -0.35,0.12 -0.49,-0.01l-0.41 -0.43 -0.41 0.43c-0.13,0.14 -0.35,0.14 -0.49,0.01 -0.14,-0.13 -0.14,-0.35 -0.01,-0.49l0.43 -0.45 -0.43 -0.45z"/>
    <path class="fil1" d="M15.22 6.33l-0 -0c-0.1,-0.1 -0.14,-0.23 -0.14,-0.36 0,-0.13 0.05,-0.26 0.15,-0.35l0 -0c0.1,-0.1 0.23,-0.14 0.36,-0.14 0.13,0 0.26,0.06 0.35,0.16l0.29 0.3 0.29 -0.3c0.1,-0.1 0.23,-0.15 0.36,-0.15 0.13,-0 0.26,0.04 0.36,0.14l0 0c0.1,0.1 0.15,0.23 0.15,0.36 0,0.13 -0.05,0.26 -0.14,0.36l-0.32 0.33 0.32 0.33c0.1,0.1 0.14,0.23 0.14,0.36 -0,0.13 -0.05,0.26 -0.15,0.36l-0 0c-0.1,0.1 -0.23,0.14 -0.36,0.14 -0.13,-0 -0.26,-0.06 -0.36,-0.16l-0.29 -0.3 -0.29 0.3c-0.1,0.1 -0.23,0.15 -0.36,0.16 -0.13,0 -0.26,-0.04 -0.36,-0.14 -0.1,-0.1 -0.15,-0.23 -0.16,-0.36 -0,-0.13 0.05,-0.26 0.14,-0.36l0.32 -0.33 -0.32 -0.33zm0.24 -0.24c0.18,0.19 0.36,0.38 0.54,0.56l-0.54 0.56c-0.03,0.04 -0.05,0.08 -0.05,0.13 0,0.04 0.02,0.09 0.05,0.12 0.03,0.03 0.08,0.05 0.13,0.05 0.05,-0 0.09,-0.02 0.13,-0.06l0.53 -0.55 0.53 0.55c0.03,0.04 0.08,0.05 0.13,0.06 0.04,0 0.09,-0.01 0.12,-0.05l0 -0c0.03,-0.03 0.05,-0.08 0.05,-0.12 0,-0.04 -0.02,-0.09 -0.05,-0.12 -0.18,-0.19 -0.36,-0.38 -0.54,-0.56 0.13,-0.14 0.47,-0.45 0.54,-0.56 0.03,-0.04 0.05,-0.08 0.05,-0.12 -0,-0.04 -0.02,-0.09 -0.05,-0.12l-0 -0c-0.03,-0.03 -0.08,-0.05 -0.12,-0.05 -0.05,0 -0.09,0.02 -0.13,0.06 -0.07,0.11 -0.4,0.42 -0.53,0.55 -0.18,-0.18 -0.36,-0.36 -0.53,-0.55 -0.03,-0.04 -0.08,-0.05 -0.13,-0.06 -0.04,-0 -0.09,0.01 -0.12,0.05l-0 0c-0.03,0.03 -0.05,0.08 -0.05,0.12 -0,0.04 0.02,0.09 0.05,0.13z"/>
   </g>
   <g>
    <polygon class="fil5 str0" points="20.41,4.82 24.1,4.82 24.1,8.5 20.41,8.5 "/>
    <path class="fil6" d="M21.36 6.21c-0.13,-0.14 -0.13,-0.35 0.01,-0.49 0.14,-0.13 0.35,-0.13 0.49,0.01l0.41 0.43 0.41 -0.43c0.13,-0.14 0.35,-0.14 0.49,-0.01 0.14,0.13 0.14,0.35 0.01,0.49l-0.43 0.45 0.43 0.45c0.13,0.14 0.13,0.35 -0.01,0.49 -0.14,0.13 -0.35,0.12 -0.49,-0.01l-0.41 -0.43 -0.41 0.43c-0.13,0.14 -0.35,0.14 -0.49,0.01 -0.14,-0.13 -0.14,-0.35 -0.01,-0.49l0.43 -0.45 -0.43 -0.45z"/>
    <path class="fil1" d="M21.24 6.33l-0 -0c-0.1,-0.1 -0.14,-0.23 -0.14,-0.36 0,-0.13 0.05,-0.26 0.15,-0.35l0 -0c0.1,-0.1 0.23,-0.14 0.36,-0.14 0.13,0 0.26,0.06 0.35,0.16l0.29 0.3 0.29 -0.3c0.1,-0.1 0.23,-0.15 0.36,-0.15 0.13,-0 0.26,0.04 0.36,0.14l0 0c0.1,0.1 0.15,0.23 0.15,0.36 0,0.13 -0.05,0.26 -0.14,0.36l-0.32 0.33 0.32 0.33c0.1,0.1 0.14,0.23 0.14,0.36 -0,0.13 -0.05,0.26 -0.15,0.36l-0 0c-0.1,0.1 -0.23,0.14 -0.36,0.14 -0.13,-0 -0.26,-0.06 -0.36,-0.16l-0.29 -0.3 -0.29 0.3c-0.1,0.1 -0.23,0.15 -0.36,0.16 -0.13,0 -0.26,-0.04 -0.36,-0.14 -0.1,-0.1 -0.15,-0.23 -0.16,-0.36 -0,-0.13 0.05,-0.26 0.14,-0.36l0.32 -0.33 -0.32 -0.33zm0.23 -0.24c0.18,0.19 0.36,0.38 0.54,0.56l-0.54 0.56c-0.03,0.04 -0.05,0.08 -0.05,0.13 0,0.04 0.02,0.09 0.05,0.12 0.03,0.03 0.08,0.05 0.12,0.05 0.05,-0 0.09,-0.02 0.13,-0.06l0.53 -0.55 0.53 0.55c0.03,0.04 0.08,0.05 0.13,0.06 0.04,0 0.09,-0.01 0.12,-0.05l0 -0c0.03,-0.03 0.05,-0.08 0.05,-0.12 0,-0.04 -0.02,-0.09 -0.05,-0.12 -0.18,-0.19 -0.36,-0.38 -0.54,-0.56 0.13,-0.14 0.47,-0.45 0.54,-0.56 0.03,-0.04 0.05,-0.08 0.05,-0.12 -0,-0.04 -0.02,-0.09 -0.05,-0.12l-0 -0c-0.03,-0.03 -0.08,-0.05 -0.12,-0.05 -0.05,0 -0.09,0.02 -0.13,0.06 -0.07,0.11 -0.4,0.42 -0.53,0.55 -0.18,-0.18 -0.36,-0.36 -0.53,-0.55 -0.03,-0.04 -0.08,-0.05 -0.13,-0.06 -0.04,-0 -0.09,0.01 -0.12,0.05l-0 0c-0.03,0.03 -0.05,0.08 -0.05,0.12 -0,0.04 0.02,0.09 0.05,0.13z"/>
   </g>
   <g>
    <polygon class="fil5 str0" points="26.14,4.82 29.83,4.82 29.83,8.5 26.14,8.5 "/>
    <path class="fil6" d="M27.08 6.21c-0.13,-0.14 -0.13,-0.35 0.01,-0.49 0.14,-0.13 0.35,-0.13 0.49,0.01l0.41 0.43 0.41 -0.43c0.13,-0.14 0.35,-0.14 0.49,-0.01 0.14,0.13 0.14,0.35 0.01,0.49l-0.43 0.45 0.43 0.45c0.13,0.14 0.13,0.35 -0.01,0.49 -0.14,0.13 -0.35,0.12 -0.49,-0.01l-0.41 -0.43 -0.41 0.43c-0.13,0.14 -0.35,0.14 -0.49,0.01 -0.14,-0.13 -0.14,-0.35 -0.01,-0.49l0.43 -0.45 -0.43 -0.45z"/>
    <path class="fil1" d="M26.96 6.33l-0 -0c-0.1,-0.1 -0.14,-0.23 -0.14,-0.36 0,-0.13 0.05,-0.26 0.15,-0.35l0 -0c0.1,-0.1 0.23,-0.14 0.36,-0.14 0.13,0 0.26,0.06 0.35,0.16l0.29 0.3 0.29 -0.3c0.1,-0.1 0.23,-0.15 0.36,-0.15 0.13,-0 0.26,0.04 0.36,0.14l0 0c0.1,0.1 0.15,0.23 0.15,0.36 0,0.13 -0.05,0.26 -0.14,0.36l-0.32 0.33 0.32 0.33c0.1,0.1 0.14,0.23 0.14,0.36 -0,0.13 -0.05,0.26 -0.15,0.36l-0 0c-0.1,0.1 -0.23,0.14 -0.36,0.14 -0.13,-0 -0.26,-0.06 -0.36,-0.16l-0.29 -0.3 -0.29 0.3c-0.1,0.1 -0.23,0.15 -0.36,0.16 -0.13,0 -0.26,-0.04 -0.36,-0.14 -0.1,-0.1 -0.15,-0.23 -0.16,-0.36 -0,-0.13 0.05,-0.26 0.14,-0.36l0.32 -0.33 -0.32 -0.33zm0.23 -0.24c0.18,0.19 0.36,0.38 0.54,0.56l-0.54 0.56c-0.03,0.04 -0.05,0.08 -0.05,0.13 0,0.04 0.02,0.09 0.05,0.12 0.03,0.03 0.08,0.05 0.12,0.05 0.05,-0 0.09,-0.02 0.13,-0.06l0.53 -0.55 0.53 0.55c0.03,0.04 0.08,0.05 0.13,0.06 0.04,0 0.09,-0.01 0.12,-0.05l0 -0c0.03,-0.03 0.05,-0.08 0.05,-0.12 0,-0.04 -0.02,-0.09 -0.05,-0.12 -0.18,-0.19 -0.36,-0.38 -0.54,-0.56 0.13,-0.14 0.47,-0.45 0.54,-0.56 0.03,-0.04 0.05,-0.08 0.05,-0.12 -0,-0.04 -0.02,-0.09 -0.05,-0.12l-0 -0c-0.03,-0.03 -0.08,-0.05 -0.12,-0.05 -0.05,0 -0.09,0.02 -0.13,0.06 -0.07,0.11 -0.4,0.42 -0.53,0.55 -0.18,-0.18 -0.36,-0.36 -0.53,-0.55 -0.03,-0.04 -0.08,-0.05 -0.13,-0.06 -0.04,-0 -0.09,0.01 -0.12,0.05l-0 0c-0.03,0.03 -0.05,0.08 -0.05,0.12 -0,0.04 0.02,0.09 0.05,0.13z"/>
   </g>
   <g>
    <g>
     <path class="fil6" d="M16.35 16.2c2.39,1.61 3.91,4.02 4.41,6.63 0.51,2.61 0.01,5.4 -1.61,7.77 -1.62,2.37 -4.06,3.87 -6.69,4.37 -2.63,0.5 -5.46,0.01 -7.85,-1.6 -2.39,-1.61 -3.91,-4.02 -4.41,-6.63 -0.51,-2.61 -0.01,-5.4 1.61,-7.77 1.62,-2.37 4.06,-3.87 6.69,-4.37 2.63,-0.5 5.46,-0.01 7.85,1.6zm2.92 6.91c-0.43,-2.23 -1.73,-4.29 -3.77,-5.67 -2.05,-1.37 -4.47,-1.8 -6.72,-1.37 -2.25,0.43 -4.34,1.71 -5.73,3.73 -1.39,2.03 -1.81,4.42 -1.38,6.65 0.43,2.23 1.73,4.29 3.77,5.67 2.05,1.37 4.47,1.8 6.72,1.37 2.25,-0.43 4.34,-1.71 5.73,-3.74 1.39,-2.03 1.81,-4.42 1.38,-6.65z"/>
     <path class="fil7" d="M15.66 17.21c2.11,1.42 3.45,3.55 3.89,5.85 0.45,2.3 0.01,4.77 -1.42,6.86 -1.43,2.09 -3.58,3.41 -5.91,3.85 -2.32,0.44 -4.82,0.01 -6.93,-1.41 -2.11,-1.42 -3.45,-3.55 -3.89,-5.85 -0.45,-2.3 -0.01,-4.77 1.42,-6.86 1.43,-2.09 3.58,-3.41 5.91,-3.85 2.32,-0.44 4.82,-0.01 6.93,1.41zm2.4 6.13c-0.37,-1.92 -1.49,-3.7 -3.25,-4.89 -1.77,-1.18 -3.85,-1.55 -5.79,-1.18 -1.94,0.37 -3.74,1.47 -4.94,3.22 -1.2,1.75 -1.56,3.81 -1.19,5.73 0.37,1.92 1.49,3.7 3.25,4.89 1.77,1.18 3.85,1.55 5.79,1.18 1.94,-0.37 3.74,-1.47 4.94,-3.22 1.2,-1.75 1.56,-3.81 1.19,-5.73z"/>
    </g>
    <path class="fil7" d="M4.02 31.55c0.47,-0.69 1.41,-0.86 2.1,-0.4 0.69,0.46 0.87,1.4 0.4,2.08l-3.06 4.47c-0.47,0.69 -1.41,0.86 -2.1,0.4 -0.69,-0.46 -0.87,-1.4 -0.4,-2.08l3.06 -4.47z"/>
    <g>
     <g>
      <path class="fil8" d="M10.42 18.31c3.6,0 6.52,2.92 6.52,6.52 0,3.6 -2.92,6.52 -6.52,6.52 -3.6,0 -6.52,-2.92 -6.52,-6.52 0,-3.6 2.92,-6.52 6.52,-6.52z"/>
      <path class="fil9" d="M7.5 30.66l5.85 -11.66c-0.88,-0.44 -1.87,-0.69 -2.93,-0.69 -3.6,0 -6.52,2.92 -6.52,6.52 0,2.55 1.46,4.76 3.59,5.83z"/>
     </g>
     <path class="fil6" d="M7.84 23.55c-0.38,-0.39 -0.37,-1.02 0.02,-1.39 0.39,-0.38 1.01,-0.36 1.39,0.04l1.17 1.22 1.17 -1.22c0.38,-0.39 1,-0.41 1.39,-0.04 0.39,0.37 0.4,1 0.02,1.39l-1.23 1.28 1.23 1.28c0.38,0.39 0.37,1.02 -0.02,1.39 -0.39,0.37 -1.01,0.36 -1.39,-0.04l-1.17 -1.22 -1.17 1.22c-0.38,0.39 -1,0.41 -1.39,0.04 -0.39,-0.38 -0.4,-1 -0.02,-1.39l1.23 -1.28 -1.23 -1.28z"/>
    </g>
   </g>
  </g>
 </g>
</svg>
