<?xml version="1.0" encoding="UTF-8"?>
<!DOCTYPE svg PUBLIC "-//W3C//DTD SVG 1.1//EN" "http://www.w3.org/Graphics/SVG/1.1/DTD/svg11.dtd">
<!-- Creator: CorelDRAW 2020 (64-Bit) -->
<svg xmlns="http://www.w3.org/2000/svg" xml:space="preserve" width="300px" height="301px" version="1.1" style="shape-rendering:geometricPrecision; text-rendering:geometricPrecision; image-rendering:optimizeQuality; fill-rule:evenodd; clip-rule:evenodd"
viewBox="0 0 21.21 21.29"
 xmlns:xlink="http://www.w3.org/1999/xlink"
 xmlns:xodm="http://www.corel.com/coreldraw/odm/2003">
 <defs>
  <style type="text/css">
   <![CDATA[
    .str0 {stroke:#93B3E6;stroke-width:0.15;stroke-miterlimit:2.61313}
    .fil2 {fill:none}
    .fil5 {fill:#FEFEFE}
    .fil9 {fill:#FCE8A4}
    .fil1 {fill:#93B3E6}
    .fil4 {fill:white}
    .fil8 {fill:#FBF1D0;fill-rule:nonzero}
    .fil7 {fill:#FCD73D;fill-rule:nonzero}
    .fil3 {fill:#93B3E6;fill-rule:nonzero}
    .fil0 {fill:#E3EEFF;fill-rule:nonzero}
    .fil6 {fill:white;fill-rule:nonzero}
   ]]>
  </style>
    <clipPath id="id0">
     <path d="M6.13 0.29l7.89 0 3.73 3.69 0 11.41c0,0.85 -0.7,1.55 -1.56,1.55l-10.06 0c-0.86,0 -1.57,-0.7 -1.57,-1.55l0 -13.55c0,-0.85 0.71,-1.55 1.57,-1.55z"/>
    </clipPath>
 </defs>
 <g id="Layer_x0020_1">
  <metadata id="CorelCorpID_0Corel-Layer"/>
  <g id="_1175698919824">
   <path class="fil0" d="M19.35 17.16c0,0.79 -0.64,1.43 -1.44,1.43l-9.81 0c-0.8,0 -1.44,-0.64 -1.44,-1.43l0 -13.64c0,-0.79 0.64,-1.43 1.44,-1.43l9.81 0c0.8,0 1.44,0.64 1.44,1.43l0 13.64z"/>
   <g>
   </g>
   <g style="clip-path:url(#id0)">
    <g id="_1175698909408">
     <path class="fil1" d="M17.79 3.98l-0.02 0 -2.18 0c-0.87,0 -1.58,-0.7 -1.58,-1.57l0 -2.12 0 -0.04 3.78 3.73z"/>
     <rect class="fil1" transform="matrix(0.167444 0.165719 -0.167444 0.165719 24.6379 -3.36643)" width="3.18" height="3.18"/>
    </g>
   </g>
   <path class="fil2" d="M6.13 0.29l7.89 0 3.73 3.69 0 11.41c0,0.85 -0.7,1.55 -1.56,1.55l-10.06 0c-0.86,0 -1.57,-0.7 -1.57,-1.55l0 -13.55c0,-0.85 0.71,-1.55 1.57,-1.55z"/>
   <path class="fil3 str0" d="M6.13 0.07l7.98 0 3.86 3.82 0 11.5c0,0.48 -0.2,0.93 -0.52,1.25 -0.33,0.31 -0.77,0.51 -1.26,0.51l-10.06 0c-0.49,0 -0.94,-0.2 -1.26,-0.51 -0.33,-0.32 -0.53,-0.77 -0.53,-1.25l0 -13.55c0,-0.49 0.2,-0.93 0.53,-1.25 0.32,-0.32 0.77,-0.52 1.26,-0.52zm7.8 0.44l-7.8 0c-0.37,0 -0.71,0.15 -0.95,0.39 -0.24,0.24 -0.4,0.57 -0.4,0.94l0 13.55c0,0.36 0.16,0.69 0.4,0.94 0.24,0.24 0.58,0.39 0.95,0.39l10.06 0c0.37,0 0.7,-0.15 0.95,-0.39 0.24,-0.25 0.39,-0.58 0.39,-0.94l0 -11.32 -3.6 -3.56z"/>
   <rect class="fil4" transform="matrix(0.130651 0.129305 -0.130651 0.129305 6.13553 2.30838)" width="2.92" height="2.92"/>
   <rect class="fil1" transform="matrix(0.167444 0.165719 -0.167444 0.165719 6.4911 1.03474)" width="3.18" height="3.18"/>
   <rect class="fil1" transform="matrix(0.167444 0.165719 -0.167444 0.165719 20.6797 12.9353)" width="3.18" height="3.18"/>
   <rect class="fil1" transform="matrix(0.0645925 0.225476 -0.227822 0.0639272 8.42575 14.8783)" width="3.18" height="3.18"/>
   <rect class="fil1" transform="matrix(0.0645925 0.225476 -0.227822 0.0639272 9.45155 4.51184)" width="3.18" height="3.18"/>
   <rect class="fil1" transform="matrix(0.0645925 0.225476 -0.227822 0.0639272 14.8342 4.70104)" width="3.18" height="3.18"/>
   <path class="fil3" d="M9.32 7.58c-0.16,0 -0.29,-0.13 -0.29,-0.29 0,-0.16 0.13,-0.29 0.29,-0.29l6.84 0c0.16,0 0.3,0.13 0.3,0.29 0,0.16 -0.14,0.29 -0.3,0.29l-6.84 0z"/>
   <path class="fil3" d="M11.18 9.55c-0.16,0 -0.29,-0.13 -0.29,-0.29 0,-0.16 0.13,-0.29 0.29,-0.29l4.98 0c0.16,0 0.3,0.13 0.3,0.29 0,0.16 -0.14,0.29 -0.3,0.29l-4.98 0z"/>
   <path class="fil3" d="M12.82 11.52c-0.17,0 -0.3,-0.13 -0.3,-0.29 0,-0.16 0.13,-0.29 0.3,-0.29l3.34 0c0.16,0 0.3,0.13 0.3,0.29 0,0.16 -0.14,0.29 -0.3,0.29l-3.34 0z"/>
   <path class="fil3" d="M12.82 13.49c-0.17,0 -0.3,-0.13 -0.3,-0.3 0,-0.16 0.13,-0.29 0.3,-0.29l3.34 0c0.16,0 0.3,0.13 0.3,0.29 0,0.17 -0.14,0.3 -0.3,0.3l-3.34 0z"/>
   <path class="fil3" d="M12.82 15.45c-0.17,0 -0.3,-0.13 -0.3,-0.29 0,-0.16 0.13,-0.29 0.3,-0.29l3.34 0c0.16,0 0.3,0.13 0.3,0.29 0,0.16 -0.14,0.29 -0.3,0.29l-3.34 0z"/>
   <g id="_1175698921360">
    <circle class="fil5" transform="matrix(0.863517 0.0614898 -0.0621297 0.854623 5.7939 13.7796)" r="4.95"/>
    <g>
     <path class="fil6" d="M9.04 9.03c1.33,0.89 2.16,2.23 2.44,3.67 0.28,1.44 0.01,2.98 -0.89,4.3 -0.9,1.31 -2.25,2.13 -3.7,2.41 -1.46,0.28 -3.02,0 -4.35,-0.88 -1.32,-0.89 -2.16,-2.23 -2.44,-3.67 -0.28,-1.44 0,-2.99 0.9,-4.3 0.89,-1.31 2.24,-2.13 3.7,-2.41 1.46,-0.28 3.02,-0.01 4.34,0.88zm1.62 3.82c-0.24,-1.23 -0.95,-2.37 -2.09,-3.13 -1.13,-0.76 -2.47,-0.99 -3.71,-0.76 -1.25,0.24 -2.4,0.95 -3.17,2.07 -0.77,1.12 -1,2.44 -0.76,3.68 0.24,1.23 0.95,2.37 2.08,3.13 1.14,0.76 2.47,0.99 3.72,0.76 1.24,-0.24 2.4,-0.95 3.17,-2.07 0.76,-1.12 1,-2.44 0.76,-3.68z"/>
     <path class="fil7" d="M8.66 9.59c1.17,0.78 1.91,1.96 2.15,3.23 0.25,1.28 0.01,2.64 -0.78,3.8 -0.8,1.15 -1.99,1.88 -3.27,2.13 -1.29,0.24 -2.66,0 -3.83,-0.78 -1.17,-0.79 -1.91,-1.96 -2.16,-3.24 -0.24,-1.27 0,-2.63 0.79,-3.79 0.79,-1.15 1.98,-1.88 3.27,-2.13 1.28,-0.24 2.66,0 3.83,0.78zm1.33 3.39c-0.21,-1.06 -0.82,-2.05 -1.8,-2.7 -0.98,-0.66 -2.13,-0.86 -3.2,-0.65 -1.08,0.2 -2.07,0.81 -2.73,1.78 -0.67,0.96 -0.87,2.11 -0.66,3.17 0.2,1.06 0.82,2.05 1.8,2.7 0.97,0.66 2.13,0.86 3.2,0.65 1.07,-0.2 2.07,-0.81 2.73,-1.78 0.66,-0.97 0.87,-2.11 0.66,-3.17z"/>
    </g>
    <path class="fil8" d="M3.85 11.19c-1.45,1.06 -1.75,3.08 -0.67,4.51 1.07,1.43 3.11,1.73 4.56,0.67 1.44,-1.06 1.74,-3.09 0.67,-4.52 -1.07,-1.43 -3.12,-1.72 -4.56,-0.66z"/>
    <path class="fil9" d="M3.96 16.45l3.66 -5.34c-1.11,-0.75 -2.63,-0.76 -3.77,0.08 -1.45,1.06 -1.75,3.08 -0.67,4.51 0.22,0.3 0.49,0.55 0.78,0.75z"/>
    <path class="fil7" d="M2.22 17.52c0.26,-0.38 0.78,-0.48 1.17,-0.22 0.38,0.26 0.48,0.77 0.22,1.15l-1.69 2.47c-0.26,0.38 -0.78,0.48 -1.17,0.22 -0.38,-0.25 -0.48,-0.77 -0.22,-1.15l1.69 -2.47z"/>
   </g>
   <path class="fil6" d="M4.81 12.13c-0.11,0.06 -0.24,0.03 -0.31,-0.08 -0.06,-0.11 -0.02,-0.24 0.09,-0.3 0.19,-0.11 0.4,-0.2 0.61,-0.26 0.22,-0.05 0.44,-0.08 0.67,-0.08 0.14,0 0.29,0.01 0.43,0.04 0.15,0.02 0.29,0.06 0.43,0.11 0.12,0.04 0.18,0.17 0.14,0.28 -0.04,0.12 -0.17,0.18 -0.29,0.14 -0.11,-0.04 -0.23,-0.07 -0.35,-0.09 -0.12,-0.03 -0.24,-0.04 -0.36,-0.04 -0.19,0 -0.37,0.03 -0.55,0.08 -0.18,0.04 -0.35,0.11 -0.51,0.2z"/>
   <path class="fil6" d="M3.94 13.09c-0.05,0.11 -0.18,0.16 -0.3,0.11 -0.11,-0.05 -0.16,-0.18 -0.11,-0.29 0.04,-0.08 0.08,-0.16 0.12,-0.24 0.04,-0.07 0.09,-0.15 0.14,-0.22 0.08,-0.1 0.22,-0.12 0.32,-0.05 0.1,0.08 0.12,0.22 0.05,0.31 -0.04,0.06 -0.08,0.13 -0.12,0.19 -0.04,0.06 -0.07,0.12 -0.1,0.19z"/>
  </g>
 </g>
</svg>
