<?xml version="1.0" encoding="UTF-8"?>
<!DOCTYPE svg PUBLIC "-//W3C//DTD SVG 1.1//EN" "http://www.w3.org/Graphics/SVG/1.1/DTD/svg11.dtd">
<!-- Creator: CorelDRAW 2020 (64-Bit Evaluation Version) -->
<svg xmlns="http://www.w3.org/2000/svg" xml:space="preserve" width="60px" height="60px" version="1.1" style="shape-rendering:geometricPrecision; text-rendering:geometricPrecision; image-rendering:optimizeQuality; fill-rule:evenodd; clip-rule:evenodd"
viewBox="0 0 4.86 4.88"
 xmlns:xlink="http://www.w3.org/1999/xlink"
 xmlns:xodm="http://www.corel.com/coreldraw/odm/2003">
 <defs>
  <style type="text/css">
   <![CDATA[
    .str0 {stroke:#263674;stroke-width:0.42;stroke-linecap:round;stroke-linejoin:round;stroke-miterlimit:2.61313}
    .str2 {stroke:#263674;stroke-width:0.46;stroke-linecap:round;stroke-linejoin:round;stroke-miterlimit:2.61313}
    .str1 {stroke:#263674;stroke-width:0.58;stroke-linecap:round;stroke-linejoin:round;stroke-miterlimit:2.61313}
    .fil1 {fill:none}
    .fil3 {fill:#263674}
    .fil0 {fill:#FEC00F}
    .fil2 {fill:#263674;fill-rule:nonzero}
   ]]>
  </style>
 </defs>
 <g id="Layer_x0020_1">
  <metadata id="CorelCorpID_0Corel-Layer"/>
  <g id="_2466085565888">
   <path class="fil0" d="M1.61 3.15l-0.99 -0.99c-0.25,0.26 -0.41,0.6 -0.41,0.99l0 0 0 0.01c0,0.77 0.63,1.4 1.4,1.4 0.39,0 0.74,-0.16 0.99,-0.42l-0.99 -0.99z"/>
   <path class="fil1 str0" d="M0.21 3.15c0,-0.77 0.63,-1.4 1.4,-1.4 0.77,0 1.4,0.63 1.4,1.4 0,0.78 -0.63,1.41 -1.4,1.41 -0.2,0 -0.4,-0.05 -0.59,-0.13"/>
   <line class="fil1 str1" x1="1.6" y1="2.94" x2="1.62" y2= "3.36" />
   <path class="fil2" d="M3.22 4.23l1.31 0c0.18,0 0.33,0.15 0.33,0.33 0,0.17 -0.15,0.32 -0.33,0.32l-2.05 0c0.3,-0.15 0.55,-0.37 0.74,-0.65zm-0.31 -2.5l1.62 0c0.18,0 0.33,0.14 0.33,0.32 0,0.18 -0.15,0.32 -0.33,0.32l-1.15 0c-0.11,-0.24 -0.27,-0.46 -0.47,-0.64zm0.54 0.83l1.08 0c0.18,0 0.33,0.15 0.33,0.33 0,0.17 -0.15,0.32 -0.33,0.32l-0.99 0c0,-0.02 0,-0.04 0,-0.06 0,-0.2 -0.03,-0.4 -0.09,-0.59zm0.08 0.84l1 0c0.18,0 0.33,0.14 0.33,0.32 0,0.18 -0.15,0.32 -0.33,0.32l-1.2 0c0.1,-0.19 0.17,-0.41 0.2,-0.64z"/>
   <g>
    <line class="fil1 str2" x1="2.93" y1="1.03" x2="3.73" y2= "0.23" />
    <line class="fil1 str2" x1="4.53" y1="1.03" x2="3.73" y2= "0.23" />
   </g>
   <rect class="fil3" x="3.36" y="0.49" width="0.75" height="1.09"/>
  </g>
 </g>
</svg>
