<?xml version="1.0" encoding="UTF-8"?>
<!DOCTYPE svg PUBLIC "-//W3C//DTD SVG 1.1//EN" "http://www.w3.org/Graphics/SVG/1.1/DTD/svg11.dtd">
<!-- Creator: CorelDRAW 2020 (64-Bit Evaluation Version) -->
<svg xmlns="http://www.w3.org/2000/svg" xml:space="preserve" width="60px" height="60px" version="1.1" style="shape-rendering:geometricPrecision; text-rendering:geometricPrecision; image-rendering:optimizeQuality; fill-rule:evenodd; clip-rule:evenodd"
viewBox="0 0 6.68 6.68"
 xmlns:xlink="http://www.w3.org/1999/xlink"
 xmlns:xodm="http://www.corel.com/coreldraw/odm/2003">
 <defs>
  <style type="text/css">
   <![CDATA[
    .str0 {stroke:#263674;stroke-width:0.55;stroke-linecap:round;stroke-linejoin:round;stroke-miterlimit:2.61313}
    .str1 {stroke:#263674;stroke-width:0.55;stroke-linecap:round;stroke-linejoin:round;stroke-miterlimit:2.61313;stroke-dasharray:1.100000 1.660000}
    .fil1 {fill:none}
    .fil2 {fill:#263674}
    .fil0 {fill:#FEC00F}
   ]]>
  </style>
 </defs>
 <g id="Layer_x0020_1">
  <metadata id="CorelCorpID_0Corel-Layer"/>
  <g id="_2317051877200">
   <path class="fil0" d="M3.34 4.33c-0.1,-0.47 -0.42,-0.8 -0.98,-0.99 0.23,-0.04 0.43,-0.15 0.6,-0.31 0.01,-0.02 0.02,-0.03 0.03,-0.04l-0.89 -0.89c-0.32,0.31 -0.52,0.76 -0.52,1.24 0,0.97 0.79,1.76 1.76,1.76 0.49,0 0.93,-0.19 1.25,-0.51l-0.9 -0.9c-0.19,0.17 -0.31,0.38 -0.35,0.64z"/>
   <circle class="fil1 str0" cx="3.34" cy="3.34" r="1.76"/>
   <path class="fil2" d="M3.34 2.36c0.13,0.56 0.43,0.95 0.99,0.98 -0.57,0.2 -0.92,0.52 -0.99,0.99 -0.1,-0.47 -0.42,-0.8 -0.98,-0.99 0.23,-0.04 0.43,-0.15 0.6,-0.31 0.16,-0.17 0.29,-0.39 0.38,-0.67z"/>
  </g>
  <path class="fil1 str0" d="M3.34 6.41c-1.69,0 -3.06,-1.38 -3.06,-3.07 0,-1.69 1.37,-3.06 3.06,-3.06"/>
  <path class="fil1 str0" d="M6.2 4.46c-0.08,0.18 -0.17,0.36 -0.27,0.53"/>
  <path class="fil1 str1" d="M4.4 0.46c1.2,0.45 2.01,1.6 2.01,2.88 0,1.27 -0.79,2.41 -1.97,2.86"/>
 </g>
</svg>
