<?xml version="1.0" encoding="UTF-8"?>
<!DOCTYPE svg PUBLIC "-//W3C//DTD SVG 1.1//EN" "http://www.w3.org/Graphics/SVG/1.1/DTD/svg11.dtd">
<!-- Creator: CorelDRAW 2020 (64-Bit Evaluation Version) -->
<svg xmlns="http://www.w3.org/2000/svg" xml:space="preserve" width="50px" height="50px" version="1.1" style="shape-rendering:geometricPrecision; text-rendering:geometricPrecision; image-rendering:optimizeQuality; fill-rule:evenodd; clip-rule:evenodd"
viewBox="0 0 10.03 10.03"
 xmlns:xlink="http://www.w3.org/1999/xlink"
 xmlns:xodm="http://www.corel.com/coreldraw/odm/2003">
 <defs>
  <style type="text/css">
   <![CDATA[
    .fil1 {fill:#EFB30C}
    .fil0 {fill:#263674;fill-rule:nonzero}
   ]]>
  </style>
 </defs>
 <g id="Layer_x0020_1">
  <metadata id="CorelCorpID_0Corel-Layer"/>
  <g id="_2064451018560">
   <path class="fil0" d="M2.46 8.46l0 -1.45c0,-0.04 0.02,-0.08 0.05,-0.11 0.03,-0.02 0.07,-0.04 0.11,-0.04l0.72 0c0.04,0 0.07,-0.01 0.08,-0.03 0.01,-0.02 0,-0.05 -0.03,-0.08l-1.58 -1.8c-0.03,-0.03 -0.06,-0.06 -0.09,-0.06 -0.04,0 -0.07,0.02 -0.11,0.06l-1.58 1.8c-0.03,0.03 -0.04,0.06 -0.03,0.08 0.02,0.02 0.04,0.03 0.09,0.03l0.72 0c0.04,0 0.07,0.02 0.1,0.04 0.04,0.03 0.05,0.07 0.05,0.11l0 2.01c0,0.28 0.1,0.52 0.3,0.72 0.2,0.19 0.44,0.29 0.72,0.29l7.97 0c0.04,0 0.06,-0.01 0.07,-0.03 0.02,-0.02 0,-0.04 -0.02,-0.07l-1.1 -1.21c-0.03,-0.02 -0.06,-0.05 -0.11,-0.08 -0.05,-0.02 -0.1,-0.03 -0.15,-0.03l-6.02 0c-0.04,0 -0.08,-0.02 -0.11,-0.05 -0.03,-0.03 -0.05,-0.06 -0.05,-0.1z"/>
   <path class="fil1" d="M5.66 4.48c0.07,-0.16 0.17,-0.3 0.29,-0.42 0.12,-0.12 0.26,-0.22 0.42,-0.29 0.17,-0.07 0.34,-0.11 0.53,-0.11 0.18,0 0.36,0.04 0.52,0.11 0.16,0.07 0.3,0.17 0.42,0.29 0.13,0.12 0.22,0.26 0.29,0.42 0.07,0.17 0.11,0.34 0.11,0.53 0,0.18 -0.04,0.36 -0.11,0.52 -0.07,0.16 -0.16,0.3 -0.29,0.43 -0.12,0.12 -0.26,0.21 -0.42,0.28 -0.16,0.07 -0.34,0.11 -0.52,0.11 -0.19,0 -0.36,-0.04 -0.53,-0.11 -0.16,-0.07 -0.3,-0.16 -0.42,-0.28 -0.12,-0.13 -0.22,-0.27 -0.29,-0.43 -0.07,-0.16 -0.11,-0.34 -0.11,-0.52 0,-0.19 0.04,-0.36 0.11,-0.53zm3.54 0.35c0,-0.05 -0.01,-0.11 -0.01,-0.16l0.84 -0.53 -0.31 -0.74 -0.97 0.23c-0.07,-0.09 -0.14,-0.18 -0.22,-0.25 -0.08,-0.08 -0.16,-0.16 -0.25,-0.23l0.22 -0.97 -0.74 -0.31 -0.53 0.85c-0.05,-0.01 -0.11,-0.01 -0.17,-0.02 -0.05,0 -0.11,-0.01 -0.16,-0.01 -0.06,0 -0.12,0.01 -0.17,0.01 -0.06,0.01 -0.12,0.01 -0.17,0.02l-0.53 -0.85 -0.74 0.31 0.22 0.97c-0.09,0.07 -0.17,0.15 -0.24,0.22 -0.08,0.08 -0.16,0.17 -0.23,0.26l-0.97 -0.23 -0.31 0.74 0.84 0.53c0,0.06 0,0.11 -0.01,0.17 0,0.06 -0.01,0.11 -0.01,0.17 0,0.06 0.01,0.11 0.01,0.17 0.01,0.05 0.01,0.11 0.01,0.17l-0.84 0.52 0.31 0.74 0.97 -0.22c0.07,0.09 0.15,0.17 0.22,0.25 0.08,0.07 0.16,0.15 0.25,0.23l-0.22 0.96 0.74 0.31 0.53 -0.84c0.06,0 0.11,0.01 0.17,0.01 0.06,0.01 0.11,0.01 0.17,0.01 0.05,0 0.11,0 0.17,-0.01 0.05,0 0.11,-0.01 0.16,-0.01l0.53 0.84 0.74 -0.31 -0.22 -0.96c0.09,-0.08 0.17,-0.15 0.25,-0.23 0.07,-0.08 0.15,-0.16 0.22,-0.25l0.97 0.22 0.31 -0.74 -0.84 -0.53c0,-0.06 0.01,-0.11 0.01,-0.17 0.01,-0.05 0.01,-0.11 0.01,-0.17 0,-0.05 0,-0.11 -0.01,-0.17z"/>
   <path class="fil1" d="M2.22 1.3c0.11,-0.04 0.23,-0.06 0.35,-0.05 0.11,0 0.23,0.03 0.34,0.08 0.11,0.05 0.21,0.12 0.3,0.22 0.08,0.09 0.14,0.19 0.18,0.31 0.04,0.11 0.06,0.23 0.06,0.35 -0.01,0.11 -0.03,0.23 -0.08,0.34 -0.05,0.11 -0.13,0.21 -0.22,0.29 -0.09,0.09 -0.2,0.15 -0.31,0.19 -0.12,0.04 -0.23,0.06 -0.35,0.06 -0.12,-0.01 -0.23,-0.04 -0.34,-0.09 -0.11,-0.05 -0.21,-0.12 -0.3,-0.21 -0.08,-0.09 -0.15,-0.2 -0.19,-0.31 -0.04,-0.12 -0.05,-0.23 -0.05,-0.35 0.01,-0.12 0.03,-0.23 0.08,-0.34 0.05,-0.11 0.12,-0.21 0.22,-0.3 0.09,-0.08 0.19,-0.15 0.31,-0.19zm1.46 1.95c0.03,-0.03 0.06,-0.06 0.08,-0.08l0.66 0.18 0.23 -0.5 -0.56 -0.39c0.01,-0.07 0.01,-0.15 0.02,-0.23 0,-0.07 0,-0.15 0,-0.23l0.59 -0.33 -0.19 -0.52 -0.67 0.13c-0.02,-0.03 -0.05,-0.06 -0.07,-0.1 -0.03,-0.03 -0.05,-0.06 -0.08,-0.08 -0.02,-0.03 -0.05,-0.06 -0.08,-0.09 -0.03,-0.02 -0.05,-0.05 -0.08,-0.07l0.18 -0.66 -0.5 -0.23 -0.38 0.56c-0.08,-0.01 -0.16,-0.02 -0.23,-0.02 -0.08,0 -0.16,0 -0.24,0l-0.33 -0.59 -0.52 0.19 0.13 0.67c-0.03,0.02 -0.07,0.05 -0.1,0.07 -0.03,0.02 -0.06,0.05 -0.08,0.07 -0.03,0.03 -0.06,0.06 -0.09,0.09 -0.02,0.02 -0.05,0.05 -0.07,0.08l-0.66 -0.18 -0.23 0.5 0.56 0.38c-0.01,0.08 -0.02,0.16 -0.02,0.23 0,0.07 0,0.15 0,0.23l-0.59 0.34 0.19 0.51 0.67 -0.12c0.02,0.03 0.05,0.06 0.07,0.09 0.02,0.03 0.05,0.06 0.07,0.09 0.03,0.03 0.06,0.06 0.09,0.08 0.02,0.03 0.05,0.05 0.08,0.08l-0.18 0.65 0.5 0.24 0.38 -0.56c0.08,0.01 0.16,0.01 0.23,0.02 0.08,0 0.15,0 0.23,-0.01l0.34 0.6 0.52 -0.19 -0.13 -0.67c0.03,-0.03 0.06,-0.05 0.09,-0.07 0.03,-0.03 0.06,-0.05 0.09,-0.08 0.03,-0.02 0.06,-0.05 0.08,-0.08z"/>
   <circle class="fil1" cx="6.9" cy="5.01" r="0.56"/>
   <circle class="fil1" cx="2.53" cy="2.17" r="0.42"/>
  </g>
 </g>
</svg>
