<svg xmlns="http://www.w3.org/2000/svg" viewBox="0 0 594.82 487.56"><defs><style>.cls-1{isolation:isolate;}.cls-2{fill:#2f3972;}.cls-3{fill:#1d2a5e;}.cls-11,.cls-4{fill:#fff;}.cls-5{fill:#e4e4e0;}.cls-6{fill:#b78462;}.cls-7{fill:#916446;}.cls-8{fill:#141414;}.cls-9{fill:#5162a8;}.cls-10{fill:#c1c1c1;}.cls-11{opacity:0.2;}.cls-12{fill:#deb02d;fill-rule:evenodd;}.cls-13{fill:#1e2f9f;}.cls-14{fill:#3129cd;}.cls-15{fill:#3827be;}.cls-16{fill:#6259fa;}.cls-17,.cls-23{fill:#355cb8;}.cls-18{fill:#dae2f3;}.cls-19{fill:#b8c8e0;}.cls-20{fill:#7ede95;}.cls-21{fill:#dd6966;}.cls-22,.cls-23{opacity:0.5;}.cls-23{mix-blend-mode:screen;}.cls-24{fill:#3a4fa5;}.cls-25{fill:#eab92c;}.cls-26{fill:#b3c5ff;}</style></defs><g class="cls-1"><g id="Layer_2" data-name="Layer 2"><g id="OBJECTS"><path class="cls-2" d="M418.52,237.74l-39.46,92.43,20.42,22.38v29.23a186,186,0,0,1-5.78,46l-11.94,46.72H552.47l-11.35-40.3a185.71,185.71,0,0,1-2.78-89.65l11.76-54.49a45,45,0,0,0-35.52-53.72L493,232.22Z"/><path class="cls-3" d="M399,394.94l15,16.13a34.73,34.73,0,0,0,54.33-4.28l73.26-109.38L434.77,401.3Z"/><rect class="cls-3" x="473.47" y="438.87" width="47.69" height="8.96"/><path class="cls-3" d="M432.05,440.8c0,3.3-1.77,6-3.95,6s-4-2.67-4-6,1.76-6,4-6S432.05,437.5,432.05,440.8Z"/><path class="cls-4" d="M493,232.22,449,311a45,45,0,0,0-5.45,17l-5.34,47.88-10.48-50a45.1,45.1,0,0,1,.19-19.35l16.25-70.64Z"/><path class="cls-3" d="M444.16,235.84,415.5,270.92a8.09,8.09,0,0,0,.68,11l3.82,3.64-12.63,21.51a8.08,8.08,0,0,0,0,8.16l28.38,48.86-8-38.24a45.1,45.1,0,0,1,.19-19.35Z"/><path class="cls-3" d="M493,232.22,449,311a45,45,0,0,0-5.45,17l-4,36.08,34.73-46.37a17.37,17.37,0,0,0,2.19-16.92l-4.7-11.56,13.93-9.82A17.33,17.33,0,0,0,493,265.23Z"/><polygon class="cls-5" points="465 245.03 452.81 270.47 466.27 255.63 474.63 261.22 465 245.03"/><polygon class="cls-5" points="448.43 251.01 452.95 255.34 452.81 270.47 448.42 256.98 438.2 261.75 439.35 256.74 446.7 249.15 448.43 251.01"/><path class="cls-3" d="M259.88,235.4h0a42.19,42.19,0,0,1-31.82,25.29l-3.15.53,13.49-22.16Z"/><path class="cls-6" d="M261.75,249.36l-17.19-30.72,4.93-26.47a10.38,10.38,0,0,0-1.06-6.81L239,167.67a10.44,10.44,0,0,0-6.44-5.13l-15.84-4.32a5.07,5.07,0,0,0-6.3,3.93h0a5.06,5.06,0,0,0,3.69,5.85l13.14,3.43,4.63,9.06-1.74,19.65L216.33,182.6a5.17,5.17,0,0,0-7.24-.89h0a5.18,5.18,0,0,0-1.26,6.77L217.2,204c-4.24,14.84-.19,23.7,7.71,30.06l12.72,30.45C256.32,264.5,261.75,249.36,261.75,249.36Z"/><path class="cls-4" d="M230.71,252.31a52.46,52.46,0,0,0,24.67-18.24l6.37,15.29-4.85,16.58-19.27-1.44Z"/><path class="cls-2" d="M418.52,237.74h0A88.62,88.62,0,0,0,369.6,257L307,307.37l-47.11-72h0a42.19,42.19,0,0,1-31.82,25.29l-3.15.53L279.6,344.6a31.21,31.21,0,0,0,44.17,8.33l65.38-46.4Z"/><path class="cls-3" d="M321.71,329.85,307,307.37l2.41-1.94C323,307.08,321.71,329.85,321.71,329.85Z"/><path class="cls-3" d="M389.15,306.53l19.34-45.31c-26,17.92-26.64,40-24,48.64Z"/><polygon class="cls-6" points="448.43 207.65 451.7 237.33 448.43 251.01 452.95 255.34 452.81 270.47 465 245.03 486.58 223.84 486.58 200.33 448.43 207.65"/><path class="cls-7" d="M472.11,218.54a37.3,37.3,0,0,0,14.47-15.4v-2.81l-38.16,7.32,1.73,15.61A37.23,37.23,0,0,0,472.11,218.54Z"/><polygon class="cls-4" points="489.81 220.66 465 245.03 478.53 267.77 493.02 232.22 489.81 220.66"/><polygon class="cls-4" points="448.43 251.01 436.62 238.29 450.53 226.73 451.7 237.33 448.43 251.01"/><polygon class="cls-5" points="436.62 238.29 433.01 263.29 446.7 249.15 436.62 238.29"/><path class="cls-3" d="M353.24,286.85,353,288a46.9,46.9,0,0,1-23.17,30.54l-2,1.09,7.37-23.36Z"/><path class="cls-6" d="M357.67,300.53l-11.75-12.72-4.77-39.05a5.79,5.79,0,0,0-1.67-3.4l-14.31-14.17a5.79,5.79,0,0,0-7.26-.72l-14.09,9.32a4.15,4.15,0,0,0-1.11,5.85h0a4.17,4.17,0,0,0,5.43,1.22l11.76-6.64,5.21,5.59L313,247.57a6.37,6.37,0,0,0-5.41,5.5l-3.52,28a6.37,6.37,0,0,0,2.8,6.1l4.36,2.89a6.24,6.24,0,0,0,7.95-.88h0c2.32,5.78,9.83,9.1,9.83,9.1l14.16,20.67Z"/><path class="cls-7" d="M307.21,255.75l-3.38-2.17a5.62,5.62,0,0,0-8.28,2.7h0a5.63,5.63,0,0,0,1.57,6.27l8.32,7.21Z"/><path class="cls-4" d="M333.48,307.26a40.14,40.14,0,0,0,17.18-16.56l7,9.83-14.55,18.4Z"/><path class="cls-7" d="M319.13,289.16l-8.52-9.83C309.67,286,315.59,289.74,319.13,289.16Z"/><path class="cls-2" d="M499,261.73l-73.35,92.94-72.45-67.82L353,288a46.9,46.9,0,0,1-23.17,30.54l-2,1.09,74.76,79.09a33.48,33.48,0,0,0,49.32-.71l89.68-100.57a27.77,27.77,0,0,0-2.5-39.43h0A27.77,27.77,0,0,0,499,261.73Z"/><path class="cls-3" d="M410.57,391.93l-73.82-78.09a47.31,47.31,0,0,1-6.94,4.67l-2,1.09,74.76,79.09a33.48,33.48,0,0,0,49.32-.71l.36-.4A33.5,33.5,0,0,1,410.57,391.93Z"/><path class="cls-3" d="M443.84,371.67l-18.15-17,1.64-2.08C440.67,351.73,443.12,362.85,443.84,371.67Z"/><path class="cls-6" d="M413.43,148.86l2.29,30.42a41,41,0,0,0,40.86,37.91h0a41,41,0,0,0,40.67-36L501,150.92a44,44,0,0,0-43.66-49.34h0A44,44,0,0,0,413.43,148.86Z"/><path class="cls-8" d="M494.69,185.09a30.73,30.73,0,0,1-5.51-29.23c-9.61-8.63-15-21.71-12.14-34.31-6.78,8-17.08,13-27.08,16.08s-20.49,4.1-30.93,4.8c-5.33.36-10.72.63-16-.24-2.42-15.4,5.2-32,17-42.22s27.4-15.15,42.93-16.5c6.5-.57,13.23-.52,19.33,1.8s11.51,7.27,12.91,13.64c7.13-4,17.49-.84,22.68,5.47s6.56,15,5.77,23.15-3.5,15.92-5.71,23.78-3.93,16.08-2.66,24.15Z"/><path class="cls-2" d="M472.9,140.47H448.05a9.25,9.25,0,0,1,9.25,9.25v24.21a9.25,9.25,0,0,1-9.25,9.25H472.9a9.25,9.25,0,0,0,9.24-9.25V149.72A9.25,9.25,0,0,0,472.9,140.47Z"/><rect class="cls-9" x="388.69" y="140.47" width="68.61" height="42.71" rx="9.25"/><path class="cls-4" d="M399.05,154.33h0a4.19,4.19,0,0,1-4.19-4.19h0a4.18,4.18,0,0,1,4.19-4.19h0a4.19,4.19,0,0,1,4.19,4.19h0A4.2,4.2,0,0,1,399.05,154.33Z"/><path class="cls-4" d="M399.05,177.5h0a4.19,4.19,0,0,1-4.19-4.19V162.9a4.19,4.19,0,0,1,4.19-4.19h0a4.2,4.2,0,0,1,4.19,4.19v10.41A4.2,4.2,0,0,1,399.05,177.5Z"/><polygon class="cls-10" points="517.09 167.99 476.75 167.99 476.75 155.66 518.75 155.66 517.09 167.99"/><path class="cls-6" d="M495.33,172.05a13.27,13.27,0,0,1,9.55-6.15,11.17,11.17,0,0,1,10.24,4.52,12.1,12.1,0,0,1,1.92,7.81,19,19,0,0,1-2.52,7.73,18.81,18.81,0,0,1-5,6,11.88,11.88,0,0,1-7.26,2.53,8.69,8.69,0,0,1-6.8-3.32c-1.52-2-2-4.78-2.25-7.26a21.37,21.37,0,0,1,.28-7.48A15,15,0,0,1,495.33,172.05Z"/><path class="cls-7" d="M509.18,172.17a11.14,11.14,0,0,0-9.59,10.49,6.53,6.53,0,0,0,.92,4,3.58,3.58,0,0,0,3.54,1.61,4.1,4.1,0,0,0,2.58-2.23,5.58,5.58,0,0,0,.21-5,3.93,3.93,0,0,0-4.35-2.09C503.7,176.15,506.36,173.14,509.18,172.17Z"/><path class="cls-6" d="M472.9,183.18H416.2A34.11,34.11,0,0,0,429,187.43C443.4,189.47,459.06,187.51,472.9,183.18Z"/><rect class="cls-4" x="444.71" y="193" width="18.67" height="5.87" rx="2.94"/><rect class="cls-11" x="36.47" y="37.38" width="13.34" height="13.34"/><rect class="cls-11" x="62.19" y="50.72" width="8.03" height="8.03"/><rect class="cls-11" x="83.58" y="26.59" width="9.83" height="9.83"/><rect class="cls-11" x="97.16" y="44.05" width="4.42" height="4.42"/><rect class="cls-11" x="108.72" y="17.05" width="14.45" height="14.45"/><rect class="cls-11" x="9.42" y="82.85" width="19.22" height="19.22"/><rect class="cls-11" y="97.69" width="13.73" height="13.73"/><rect class="cls-11" x="13.73" y="149.16" width="10.58" height="10.58"/><rect class="cls-11" x="347.19" y="21.97" width="22.09" height="22.09"/><rect class="cls-11" x="383.45" y="36.42" width="9.85" height="9.85"/><rect class="cls-11" x="363.07" y="39.02" width="23.7" height="23.7"/><rect class="cls-11" x="416.2" width="10.98" height="10.98"/><rect class="cls-11" x="441.1" y="17.34" width="6.95" height="6.95"/><rect class="cls-11" x="281.25" y="24.95" width="13.1" height="13.1"/><rect class="cls-11" x="371.33" y="89.32" width="10.6" height="10.6"/><rect class="cls-11" x="549.34" y="120.58" width="18.16" height="18.16"/><rect class="cls-11" x="560.03" y="130.48" width="14.68" height="14.68"/><rect class="cls-11" x="558.42" y="104.06" width="7.13" height="7.13"/><rect class="cls-11" x="529.4" y="102.62" width="5.01" height="5.01"/><rect class="cls-9" x="360.87" y="474.52" width="219.26" height="13.04" rx="6.52"/><path class="cls-12" d="M317.31,170.49V147.41a5.21,5.21,0,0,0-2.85-5.29H288.53a8.86,8.86,0,0,0-1.9,2,4.52,4.52,0,0,0-.68,2.71v23.76c0,2.85,1.36,4.34,4.21,4.34H313C315.82,175,317.31,173.48,317.31,170.49Z"/><path class="cls-2" d="M351,187.05c-1.76-1.9-4.48-4.75-8-8.41l-8.14-8.42a4.06,4.06,0,0,0-3-1.36,3.4,3.4,0,0,0-2.85,1.36c-3.66,3.8-9.23,9.64-16.56,17.38a4.82,4.82,0,0,0-1.08,3.12,4.22,4.22,0,0,0,1.35,2.71l16.16,17c2,2,4.07,2,6.11-.13l.67-.68c6.79-7.06,11.95-12.36,15.34-15.89a4.66,4.66,0,0,0,1.63-3.25A4.72,4.72,0,0,0,351,187.05Z"/><path class="cls-4" d="M301.56,161.8a2.43,2.43,0,0,1-2-1,2.88,2.88,0,0,1-.95-2.17,2.72,2.72,0,0,1,.95-2.31,2.86,2.86,0,0,1,2.17-1,2.43,2.43,0,0,1,2,1,3.19,3.19,0,0,1,.95,2.31,3.52,3.52,0,0,1-.95,2.31A2.87,2.87,0,0,1,301.56,161.8Z"/><path class="cls-4" d="M293.42,153.25a2.9,2.9,0,0,1-2.18-.95,3,3,0,0,1-.95-2.17,3.21,3.21,0,0,1,.95-2.31,3,3,0,0,1,4.35,0,3.09,3.09,0,0,1,.81,2.17,3,3,0,0,1-.81,2.31A3,3,0,0,1,293.42,153.25Z"/><path class="cls-4" d="M296.4,167.37a2.52,2.52,0,0,1-.95,2.17,2.87,2.87,0,0,1-2.17.82,2.49,2.49,0,0,1-2-1,3.57,3.57,0,0,1-.95-2.31,3,3,0,0,1,1.09-2.17,2.89,2.89,0,0,1,2.17-1,2.56,2.56,0,0,1,2,1.08A3.7,3.7,0,0,1,296.4,167.37Z"/><path class="cls-4" d="M309.71,146.87a2.26,2.26,0,0,1,2.17.82,3.15,3.15,0,0,1,.95,2.3,2.51,2.51,0,0,1-.82,2.31,2.89,2.89,0,0,1-2,.95,3.57,3.57,0,0,1-2.31-.95,3.35,3.35,0,0,1-.81-2.17,3.7,3.7,0,0,1,.81-2.31A2.89,2.89,0,0,1,309.71,146.87Z"/><path class="cls-4" d="M343.64,193.57a2.94,2.94,0,0,1-2.3-.95,2.88,2.88,0,0,1-.82-2.31,3.67,3.67,0,0,1,.82-2.31,3.47,3.47,0,0,1,2.17-.95,3.52,3.52,0,0,1,2.17.95,3.89,3.89,0,0,1,.95,2.31,3.29,3.29,0,0,1-.95,2.31A2.44,2.44,0,0,1,343.64,193.57Z"/><path class="cls-4" d="M335,202.53a3.25,3.25,0,0,1-3.13,3.12,2.43,2.43,0,0,1-2-1,3,3,0,0,1-.95-2.31,3.25,3.25,0,0,1,3.25-3.12,3,3,0,0,1,2,1.09A3.32,3.32,0,0,1,335,202.53Z"/><path class="cls-4" d="M328.85,178a2.44,2.44,0,0,1,.95-2,3,3,0,0,1,4.34,0,3.8,3.8,0,0,1,.82,2.44,2.93,2.93,0,0,1-.95,2.18,2.6,2.6,0,0,1-2.18.81,3.09,3.09,0,0,1-2.17-1.08A3.45,3.45,0,0,1,328.85,178Z"/><path class="cls-4" d="M331.83,193.57a3.52,3.52,0,0,1-2.17-.95,3.7,3.7,0,0,1-.81-2.31,3,3,0,0,1,.95-2.31,2.89,2.89,0,0,1,2-.95,3.25,3.25,0,0,1,3.13,3.26,3.71,3.71,0,0,1-.82,2.31A3,3,0,0,1,331.83,193.57Z"/><path class="cls-4" d="M320.29,193.57a2.71,2.71,0,0,1-2.17-.95,3.91,3.91,0,0,1-.95-2.44,4.54,4.54,0,0,1,.95-2.18,3,3,0,0,1,4.35,0,3.89,3.89,0,0,1,.95,2.31,3.57,3.57,0,0,1-.95,2.31A2.54,2.54,0,0,1,320.29,193.57Z"/><path class="cls-4" d="M312.83,167.51a3,3,0,0,1-3.12,2.85,2.46,2.46,0,0,1-2-1,3.72,3.72,0,0,1-.81-2.31A3.25,3.25,0,0,1,310,164a2.56,2.56,0,0,1,2,1.08A3.76,3.76,0,0,1,312.83,167.51Z"/><rect class="cls-13" x="553.9" y="194.59" width="18.21" height="18.21"/><polygon class="cls-14" points="565.32 191.04 572.11 194.59 572.11 212.8 553.9 212.8 547.11 209.25 565.32 191.04"/><polygon class="cls-15" points="565.32 209.25 572.11 212.8 553.9 212.8 547.11 209.25 565.32 209.25"/><rect class="cls-16" x="547.11" y="191.04" width="18.21" height="18.21"/><path class="cls-4" d="M568.59,200.9a1.35,1.35,0,0,1-.12-2.7,14.35,14.35,0,0,0,3.62-.78A1.35,1.35,0,0,1,573,200a17.56,17.56,0,0,1-4.3.93Zm-5.63-.53a1.64,1.64,0,0,1-.37-.05,17.15,17.15,0,0,1-4-1.73,1.35,1.35,0,1,1,1.37-2.33,14.06,14.06,0,0,0,3.41,1.45,1.36,1.36,0,0,1-.37,2.66Zm14.49-3.13a1.35,1.35,0,0,1-.87-2.39,14.41,14.41,0,0,0,2.5-2.73,1.36,1.36,0,1,1,2.21,1.57,17.2,17.2,0,0,1-3,3.23A1.3,1.3,0,0,1,577.45,197.24ZM555,195.09a1.35,1.35,0,0,1-1.05-.5,16.77,16.77,0,0,1-2.31-3.74,1.35,1.35,0,1,1,2.46-1.11,14.89,14.89,0,0,0,2,3.15,1.35,1.35,0,0,1-1,2.2Zm27.63-6a1.41,1.41,0,0,1-.35,0,1.35,1.35,0,0,1-1-1.65,14.6,14.6,0,0,0,.47-3.67,13.52,13.52,0,0,0-.13-1.91,1.36,1.36,0,1,1,2.69-.35,18.78,18.78,0,0,1,.14,2.26,17.18,17.18,0,0,1-.55,4.35A1.36,1.36,0,0,1,582.58,189.14Zm-31.13-3a1.35,1.35,0,0,1-1.35-1.26c0-.37,0-.76,0-1.13a17.55,17.55,0,0,1,.31-3.25A1.35,1.35,0,1,1,553,181a14.63,14.63,0,0,0-.26,2.74c0,.32,0,.64,0,.95a1.35,1.35,0,0,1-1.26,1.44Zm29.78-8.5a1.36,1.36,0,0,1-1.2-.72,14.48,14.48,0,0,0-2.15-3,1.36,1.36,0,1,1,2-1.84,17.21,17.21,0,0,1,2.55,3.57,1.37,1.37,0,0,1-.56,1.84A1.44,1.44,0,0,1,581.23,177.66Zm-27.49-.81a1.29,1.29,0,0,1-.7-.2,1.35,1.35,0,0,1-.45-1.86,17.41,17.41,0,0,1,2.75-3.42,1.35,1.35,0,1,1,1.88,1.95,14.36,14.36,0,0,0-2.32,2.89A1.37,1.37,0,0,1,553.74,176.85ZM574.35,171a1.29,1.29,0,0,1-.6-.14,14.42,14.42,0,0,0-3.5-1.23,1.35,1.35,0,1,1,.56-2.64A16.9,16.9,0,0,1,575,168.4a1.35,1.35,0,0,1-.61,2.56ZM561,170.57a1.36,1.36,0,0,1-.54-2.6,17.32,17.32,0,0,1,4.23-1.2,1.35,1.35,0,1,1,.4,2.67,14.58,14.58,0,0,0-3.55,1A1.31,1.31,0,0,1,561,170.57Z"/><path class="cls-17" d="M19.47,193c-.23,0-.45,0-.68,0v8h6.59A23.55,23.55,0,0,0,19.47,193Z"/><path class="cls-17" d="M18.79,217.19h7.52a24.11,24.11,0,0,0,1-6.59H18.79Z"/><path class="cls-17" d="M23,223.74a19.7,19.7,0,0,0,2.81-5h-7v8.84A15.81,15.81,0,0,0,23,223.74Z"/><path class="cls-17" d="M22.12,193.39a25.58,25.58,0,0,1,2.37,2.94A24.28,24.28,0,0,1,27,201h5.62A17.39,17.39,0,0,0,22.12,193.39Z"/><path class="cls-17" d="M33.53,202.47H27.6a22.64,22.64,0,0,1,1.22,6.61h6.52A17.38,17.38,0,0,0,33.53,202.47Z"/><path class="cls-17" d="M26,202.47H18.79v6.61h8.52A21.69,21.69,0,0,0,26,202.47Z"/><path class="cls-17" d="M27.41,218.71a20.92,20.92,0,0,1-3.28,6,18.64,18.64,0,0,1-2.26,2.42,17.22,17.22,0,0,0,11.28-8.43Z"/><path class="cls-17" d="M35.37,210.6H28.83a26.47,26.47,0,0,1-.94,6.59h6A17,17,0,0,0,35.37,210.6Z"/><path class="cls-17" d="M.75,209.08H7.43a23,23,0,0,1,1.22-6.61H2.55A16.85,16.85,0,0,0,.75,209.08Z"/><path class="cls-17" d="M14.44,227.19a18.2,18.2,0,0,1-2.32-2.47,20.92,20.92,0,0,1-3.28-6H2.92A17.55,17.55,0,0,0,14.44,227.19Z"/><path class="cls-17" d="M8.37,217.19a26,26,0,0,1-.95-6.59H.71a17,17,0,0,0,1.46,6.59Z"/><path class="cls-17" d="M13,197.23A22.48,22.48,0,0,0,10.87,201h6.41v-8l-.48,0A21.88,21.88,0,0,0,13,197.23Z"/><path class="cls-17" d="M17.28,210.6H8.94a24.5,24.5,0,0,0,1,6.59h7.34Z"/><path class="cls-17" d="M17.28,227.45v-8.74H10.46A17.82,17.82,0,0,0,17.28,227.45Z"/><path class="cls-17" d="M14.19,193.33A17.5,17.5,0,0,0,3.41,201h5.8a24.28,24.28,0,0,1,2.55-4.63A25.27,25.27,0,0,1,14.19,193.33Z"/><path class="cls-17" d="M17.28,202.47h-7a21.75,21.75,0,0,0-1.31,6.61h8.34Z"/><rect class="cls-18" x="55.62" y="148.06" width="127.18" height="203.47" rx="12.05"/><path class="cls-19" d="M182.8,160.11v8H55.62v-8a12.05,12.05,0,0,1,12.06-12.05H170.75A12,12,0,0,1,182.8,160.11Z"/><rect class="cls-2" x="69.69" y="219.04" width="99.04" height="70.88"/><polygon class="cls-20" points="168.73 271.17 163.92 263.06 147.97 236.19 116.07 289.92 168.73 289.92 168.73 271.17"/><polygon class="cls-21" points="109.46 289.92 69.69 289.92 89.58 257.88 109.46 225.84 129.35 257.88 149.23 289.92 109.46 289.92"/><polygon class="cls-4" points="96.57 246.61 109.46 256.26 122.35 246.61 109.46 225.84 96.57 246.61"/><polygon class="cls-4" points="137.11 254.48 147.97 263.06 158.83 254.48 147.97 236.19 137.11 254.48"/><rect class="cls-19" x="69.69" y="182.04" width="99.04" height="8.27" rx="1.24"/><rect class="cls-19" x="69.69" y="196.45" width="99.04" height="8.27" rx="1.24"/><rect class="cls-19" x="69.69" y="303.15" width="99.04" height="8.27" rx="1.24"/><rect class="cls-19" x="69.69" y="317.57" width="99.04" height="8.27" rx="1.24"/><circle class="cls-2" cx="143.65" cy="160.76" r="3.35"/><circle class="cls-20" cx="168.1" cy="159.97" r="3.35"/><circle class="cls-21" cx="155.62" cy="159.97" r="3.35"/><circle class="cls-11" cx="390.02" cy="213.9" r="13.39"/><circle class="cls-4" cx="27.4" cy="247.12" r="13.39" transform="translate(-218.97 213.59) rotate(-75.92)"/><circle class="cls-11" cx="581.43" cy="245.08" r="13.39" transform="translate(-49.53 241.16) rotate(-22.5)"/><g class="cls-22"><rect class="cls-23" x="82.92" y="397.69" width="24.8" height="24.8"/></g><g class="cls-22"><rect class="cls-23" x="70.52" y="386.32" width="24.8" height="24.8"/></g><rect class="cls-24" x="144.44" y="53.87" width="184.45" height="56.97" rx="5.92"/><polygon class="cls-25" points="228.01 100.22 222.49 103.12 223.54 96.97 219.08 92.62 225.25 91.72 228.01 86.13 230.77 91.72 236.94 92.62 232.47 96.97 233.53 103.12 228.01 100.22"/><polygon class="cls-25" points="253.09 100.22 247.57 103.12 248.63 96.97 244.16 92.62 250.33 91.72 253.09 86.13 255.85 91.72 262.02 92.62 257.56 96.97 258.61 103.12 253.09 100.22"/><polygon class="cls-4" points="283.34 97.3 284.39 103.44 278.87 100.53 278.87 86.45 281.63 92.05 287.8 92.94 283.34 97.3"/><polygon class="cls-25" points="278.87 86.45 278.87 100.53 273.35 103.44 274.4 97.3 269.94 92.94 276.11 92.05 278.87 86.45"/><polygon class="cls-4" points="303.25 100.22 297.74 103.12 298.79 96.97 294.32 92.62 300.5 91.72 303.25 86.13 306.01 91.72 312.19 92.62 307.72 96.97 308.77 103.12 303.25 100.22"/><polygon class="cls-4" points="186.5 78.96 186.5 87.57 177.72 87.57 177.72 96.36 169.11 96.36 169.11 87.57 160.32 87.57 160.32 78.96 169.11 78.96 169.11 70.17 177.72 70.17 177.72 78.96 186.5 78.96"/><path class="cls-26" d="M192.73,103.7H154.09a1.12,1.12,0,0,1-1.11-1.12V64a1.12,1.12,0,0,1,1.11-1.12h38.64A1.12,1.12,0,0,1,193.85,64v38.63A1.12,1.12,0,0,1,192.73,103.7Zm-37.52-2.23h36.4V65.06h-36.4Z"/><path class="cls-26" d="M313.51,64a1.32,1.32,0,0,1-1.32,1.32H219.08a1.33,1.33,0,1,1,0-2.65h93.11A1.32,1.32,0,0,1,313.51,64Z"/><path class="cls-21" d="M290.19,62.62v2.65H219.08a1.33,1.33,0,1,1,0-2.65Z"/><path class="cls-26" d="M313.51,73a1.32,1.32,0,0,1-1.32,1.33H219.08a1.33,1.33,0,1,1,0-2.65h93.11A1.32,1.32,0,0,1,313.51,73Z"/><path class="cls-4" d="M269.24,71.64v2.65H219.08a1.33,1.33,0,1,1,0-2.65Z"/><path class="cls-26" d="M313.51,82a1.32,1.32,0,0,1-1.32,1.33H219.08a1.33,1.33,0,1,1,0-2.65h93.11A1.32,1.32,0,0,1,313.51,82Z"/><path class="cls-20" d="M290.29,80.66v2.65H219.08a1.33,1.33,0,1,1,0-2.65Z"/><path class="cls-24" d="M123.68,101.73a.72.72,0,0,0-.56-.16l-20.88,2.55-1.83-20.7a.74.74,0,0,0-.27-.51.76.76,0,0,0-.56-.16l-21.5,2.63a.74.74,0,0,0,.18,1.47L99,84.32,100.83,105a.76.76,0,0,0,.27.51.72.72,0,0,0,.56.16l20.88-2.55L124.29,123a.76.76,0,0,0,.81.68.74.74,0,0,0,.67-.81L124,102.24A.76.76,0,0,0,123.68,101.73Z"/><path class="cls-24" d="M128.23,126.13a4.49,4.49,0,1,0-6.32.67A4.48,4.48,0,0,0,128.23,126.13Z"/><path class="cls-24" d="M127.37,105.67a4.5,4.5,0,1,0-6.33.66A4.51,4.51,0,0,0,127.37,105.67Z"/><path class="cls-24" d="M103,85.91a4.49,4.49,0,1,0-6.33.67A4.49,4.49,0,0,0,103,85.91Z"/><circle class="cls-24" cx="101.58" cy="104.56" r="4.5" transform="translate(-19.71 23.69) rotate(-12.14)"/><path class="cls-24" d="M81.92,88.64a4.5,4.5,0,1,0-6.33.66A4.51,4.51,0,0,0,81.92,88.64Z"/><path class="cls-2" d="M223.08,334.53a.74.74,0,0,0-.25.52l-.74,21-20.73-1.43a.79.79,0,0,0-.55.19.7.7,0,0,0-.24.53L199.8,377a.74.74,0,0,0,.71.77.75.75,0,0,0,.77-.72l.74-20.87,20.73,1.42a.72.72,0,0,0,.79-.71l.75-21,19.9,1.37a.73.73,0,0,0,.79-.69.75.75,0,0,0-.69-.79l-20.66-1.42A.7.7,0,0,0,223.08,334.53Z"/><path class="cls-2" d="M247.9,333.84a4.5,4.5,0,1,0-.34,6.35A4.5,4.5,0,0,0,247.9,333.84Z"/><path class="cls-2" d="M227.55,331.5a4.5,4.5,0,1,0-.33,6.35A4.49,4.49,0,0,0,227.55,331.5Z"/><path class="cls-2" d="M204.22,352.51a4.5,4.5,0,1,0-.33,6.35A4.49,4.49,0,0,0,204.22,352.51Z"/><path class="cls-2" d="M225.76,353.78a4.5,4.5,0,1,0-.33,6.35A4.5,4.5,0,0,0,225.76,353.78Z"/><path class="cls-2" d="M203.62,373.73a4.49,4.49,0,1,0-.33,6.34A4.49,4.49,0,0,0,203.62,373.73Z"/><path class="cls-4" d="M65.35,137.09l0,22.51A4.34,4.34,0,0,1,61,164H56.16V176.7L43.4,164H11.92a4.34,4.34,0,0,1-4.34-4.35l0-22.52A4.34,4.34,0,0,1,12,132.74H61A4.35,4.35,0,0,1,65.35,137.09Z"/><path class="cls-2" d="M32.26,148.57a4.21,4.21,0,1,0,4.21-4.2A4.2,4.2,0,0,0,32.26,148.57Z"/><path class="cls-2" d="M45,148.57a4.2,4.2,0,1,0,4.2-4.2A4.2,4.2,0,0,0,45,148.57Z"/><path class="cls-2" d="M19.56,148.57a4.21,4.21,0,1,0,4.2-4.2A4.2,4.2,0,0,0,19.56,148.57Z"/></g></g></g></svg>