<?xml version="1.0" encoding="UTF-8"?>
<!DOCTYPE svg PUBLIC "-//W3C//DTD SVG 1.1//EN" "http://www.w3.org/Graphics/SVG/1.1/DTD/svg11.dtd">
<!-- Creator: CorelDRAW 2020 (64-Bit Evaluation Version) -->
<svg xmlns="http://www.w3.org/2000/svg" xml:space="preserve" width="50px" height="50px" version="1.1" style="shape-rendering:geometricPrecision; text-rendering:geometricPrecision; image-rendering:optimizeQuality; fill-rule:evenodd; clip-rule:evenodd"
viewBox="0 0 9.11 9.11"
 xmlns:xlink="http://www.w3.org/1999/xlink"
 xmlns:xodm="http://www.corel.com/coreldraw/odm/2003">
 <defs>
  <style type="text/css">
   <![CDATA[
    .fil0 {fill:#EFB30C}
    .fil2 {fill:white}
    .fil1 {fill:#263674;fill-rule:nonzero}
    .fil3 {fill:white;fill-rule:nonzero}
   ]]>
  </style>
 </defs>
 <g id="Layer_x0020_1">
  <metadata id="CorelCorpID_0Corel-Layer"/>
  <g id="_2064451946608">
   <rect class="fil0" y="5.48" width="9.11" height="3.63"/>
   <path class="fil1" d="M0.51 5.48l0 -1.43c0,-1.11 0.45,-2.13 1.18,-2.86 0.74,-0.73 1.75,-1.19 2.87,-1.19 1.11,0 2.12,0.46 2.86,1.19 0.73,0.73 1.19,1.75 1.19,2.86l-1.34 0c0,-0.75 -0.3,-1.43 -0.8,-1.92 -0.49,-0.49 -1.17,-0.8 -1.91,-0.8 -0.75,0 -1.43,0.31 -1.92,0.8 -0.5,0.49 -0.8,1.17 -0.8,1.92l0 1.43 -1.33 0z"/>
   <rect class="fil2" x="4.12" y="7.12" width="0.86" height="1.33"/>
   <g>
    <path class="fil0" d="M5.7 4.49c0,-0.12 0,-0.31 0,-0.56 0,-0.51 0,-0.89 0,-1.14 0.01,-0.18 -0.06,-0.31 -0.21,-0.39l-1.91 0c-0.06,0.05 -0.11,0.1 -0.14,0.15 -0.04,0.06 -0.05,0.12 -0.05,0.2 0,0.19 0,0.48 0,0.87 0,0.39 0,0.68 0,0.88 0,0.21 0.1,0.32 0.31,0.32l1.68 0c0.21,0 0.32,-0.11 0.32,-0.33z"/>
    <path class="fil1" d="M8.18 5.71c-0.13,-0.14 -0.33,-0.35 -0.59,-0.62l-0.6 -0.62c-0.07,-0.07 -0.14,-0.1 -0.22,-0.1 -0.07,-0.01 -0.15,0.03 -0.21,0.1 -0.27,0.28 -0.68,0.71 -1.22,1.28 -0.05,0.06 -0.08,0.14 -0.08,0.23 0,0.06 0.03,0.12 0.1,0.2l1.19 1.25c0.15,0.15 0.3,0.15 0.45,-0.01l0.05 -0.05c0.5,-0.52 0.88,-0.91 1.13,-1.17 0.08,-0.08 0.12,-0.16 0.12,-0.24 0,-0.09 -0.04,-0.17 -0.12,-0.25z"/>
    <path class="fil3" d="M4.54 3.85c-0.06,0 -0.11,-0.02 -0.15,-0.07 -0.05,-0.05 -0.07,-0.1 -0.07,-0.16 -0.01,-0.06 0.02,-0.12 0.07,-0.17 0.05,-0.05 0.1,-0.07 0.16,-0.07 0.06,0 0.11,0.02 0.15,0.07 0.05,0.05 0.07,0.11 0.07,0.17 0,0.07 -0.03,0.12 -0.07,0.17 -0.04,0.04 -0.09,0.06 -0.16,0.06z"/>
    <path class="fil3" d="M3.94 3.22c-0.06,0 -0.11,-0.02 -0.16,-0.07 -0.04,-0.04 -0.07,-0.09 -0.07,-0.16 0,-0.06 0.02,-0.12 0.07,-0.17 0.05,-0.05 0.1,-0.07 0.16,-0.07 0.06,0 0.11,0.02 0.16,0.07 0.04,0.04 0.06,0.1 0.06,0.16 0.01,0.06 -0.02,0.12 -0.06,0.17 -0.04,0.04 -0.09,0.07 -0.16,0.07z"/>
    <path class="fil3" d="M4.16 4.26c0,0.07 -0.02,0.12 -0.07,0.16 -0.04,0.04 -0.09,0.06 -0.16,0.06 -0.06,0 -0.11,-0.02 -0.15,-0.07 -0.04,-0.05 -0.07,-0.1 -0.07,-0.17 0,-0.06 0.03,-0.11 0.08,-0.16 0.05,-0.05 0.1,-0.07 0.16,-0.07 0.06,0 0.11,0.03 0.15,0.08 0.04,0.05 0.06,0.11 0.06,0.17z"/>
    <path class="fil3" d="M5.14 2.75c0.06,-0.01 0.12,0.01 0.16,0.06 0.05,0.05 0.07,0.11 0.07,0.17 0.01,0.07 -0.01,0.12 -0.06,0.17 -0.04,0.04 -0.09,0.07 -0.15,0.07 -0.07,0 -0.12,-0.03 -0.17,-0.07 -0.04,-0.05 -0.06,-0.1 -0.06,-0.16 0,-0.06 0.02,-0.12 0.06,-0.17 0.04,-0.04 0.09,-0.07 0.15,-0.07z"/>
    <path class="fil3" d="M7.64 6.19c-0.07,0 -0.12,-0.02 -0.17,-0.07 -0.04,-0.05 -0.07,-0.1 -0.06,-0.17 0,-0.06 0.02,-0.12 0.06,-0.17 0.05,-0.04 0.1,-0.07 0.16,-0.07 0.06,0 0.11,0.03 0.16,0.07 0.04,0.05 0.07,0.11 0.07,0.17 0,0.07 -0.03,0.13 -0.07,0.17 -0.04,0.05 -0.09,0.07 -0.15,0.07z"/>
    <path class="fil3" d="M7 6.85c0,0.07 -0.02,0.12 -0.07,0.16 -0.04,0.05 -0.09,0.07 -0.16,0.07 -0.06,0 -0.11,-0.02 -0.15,-0.07 -0.05,-0.05 -0.07,-0.1 -0.07,-0.17 0,-0.06 0.03,-0.12 0.07,-0.16 0.05,-0.05 0.11,-0.07 0.17,-0.07 0.06,0.01 0.11,0.03 0.15,0.08 0.04,0.05 0.06,0.1 0.06,0.16z"/>
    <path class="fil3" d="M6.55 5.04c0,-0.06 0.02,-0.11 0.07,-0.15 0.04,-0.05 0.1,-0.07 0.16,-0.07 0.06,0 0.12,0.02 0.16,0.07 0.04,0.05 0.06,0.11 0.06,0.18 0,0.06 -0.02,0.11 -0.07,0.16 -0.04,0.04 -0.1,0.07 -0.16,0.06 -0.06,0 -0.11,-0.03 -0.16,-0.08 -0.04,-0.05 -0.06,-0.1 -0.06,-0.17z"/>
    <path class="fil3" d="M6.77 6.19c-0.06,0 -0.11,-0.03 -0.16,-0.07 -0.04,-0.05 -0.06,-0.11 -0.06,-0.17 0,-0.07 0.02,-0.12 0.07,-0.17 0.04,-0.04 0.09,-0.07 0.15,-0.07 0.07,0 0.12,0.03 0.16,0.07 0.05,0.05 0.07,0.1 0.07,0.17 0,0.06 -0.02,0.12 -0.06,0.17 -0.05,0.05 -0.1,0.07 -0.17,0.07z"/>
    <path class="fil3" d="M5.92 6.19c-0.06,0 -0.12,-0.02 -0.16,-0.07 -0.04,-0.05 -0.07,-0.11 -0.07,-0.18 0.01,-0.06 0.03,-0.11 0.07,-0.16 0.05,-0.04 0.1,-0.07 0.16,-0.07 0.06,0 0.11,0.03 0.16,0.07 0.04,0.05 0.07,0.11 0.07,0.17 0,0.07 -0.03,0.12 -0.07,0.17 -0.04,0.05 -0.09,0.07 -0.16,0.07z"/>
    <path class="fil3" d="M5.37 4.27c0,0.06 -0.02,0.11 -0.07,0.15 -0.04,0.05 -0.09,0.06 -0.16,0.06 -0.06,0 -0.11,-0.02 -0.15,-0.07 -0.04,-0.05 -0.06,-0.11 -0.06,-0.17 0,-0.06 0.02,-0.11 0.07,-0.16 0.05,-0.05 0.1,-0.07 0.16,-0.07 0.06,0 0.11,0.03 0.15,0.08 0.04,0.05 0.06,0.11 0.06,0.18z"/>
   </g>
  </g>
 </g>
</svg>
