<?xml version="1.0" encoding="UTF-8"?>
<!DOCTYPE svg PUBLIC "-//W3C//DTD SVG 1.1//EN" "http://www.w3.org/Graphics/SVG/1.1/DTD/svg11.dtd">
<!-- Creator: CorelDRAW 2020 (64-Bit Evaluation Version) -->
<svg xmlns="http://www.w3.org/2000/svg" xml:space="preserve" width="50px" height="50px" version="1.1" style="shape-rendering:geometricPrecision; text-rendering:geometricPrecision; image-rendering:optimizeQuality; fill-rule:evenodd; clip-rule:evenodd"
viewBox="0 0 2.82 2.82"
 xmlns:xlink="http://www.w3.org/1999/xlink"
 xmlns:xodm="http://www.corel.com/coreldraw/odm/2003">
 <defs>
  <style type="text/css">
   <![CDATA[
    .fil0 {fill:#263674}
    .fil1 {fill:#EFB30C}
    .fil3 {fill:white}
    .fil2 {fill:white;fill-rule:nonzero}
   ]]>
  </style>
 </defs>
 <g id="Layer_x0020_1">
  <metadata id="CorelCorpID_0Corel-Layer"/>
  <g id="_2064480173920">
   <rect class="fil0" y="1.3" width="2.82" height="0.22"/>
   <g>
    <rect class="fil0" y="0.34" width="2.82" height="0.22"/>
    <g>
     <path class="fil1" d="M0.64 0.21l0 0.49c0,0.11 -0.1,0.21 -0.21,0.21l0 0c-0.12,0 -0.21,-0.1 -0.21,-0.21l0 -0.49c0,-0.12 0.09,-0.21 0.21,-0.21l0 0c0.11,0 0.21,0.09 0.21,0.21z"/>
     <path class="fil2" d="M0.39 0.23c0,-0.02 0.02,-0.04 0.04,-0.04 0.02,0 0.03,0.02 0.03,0.04l0 0.45c0,0.02 -0.01,0.04 -0.03,0.04 -0.02,0 -0.04,-0.02 -0.04,-0.04l0 -0.45z"/>
    </g>
   </g>
   <rect class="fil0" y="2.25" width="2.82" height="0.22"/>
   <g>
    <path class="fil1" d="M2.71 2.12l0 0.49c0,0.11 -0.09,0.21 -0.21,0.21l0 0c-0.12,0 -0.21,-0.1 -0.21,-0.21l0 -0.49c0,-0.12 0.09,-0.21 0.21,-0.21l0 0c0.12,0 0.21,0.09 0.21,0.21z"/>
    <path class="fil2" d="M2.46 2.14c0,-0.02 0.02,-0.04 0.04,-0.04 0.02,0 0.04,0.02 0.04,0.04l0 0.45c0,0.02 -0.02,0.04 -0.04,0.04 -0.02,0 -0.04,-0.02 -0.04,-0.04l0 -0.45z"/>
   </g>
   <g>
    <circle class="fil1" cx="1.41" cy="1.42" r="0.75"/>
    <path class="fil3" d="M1.41 1.77c-0.06,-0.17 -0.17,-0.28 -0.34,-0.35 0.08,-0.03 0.15,-0.07 0.21,-0.13 0.05,-0.06 0.1,-0.13 0.13,-0.21 0.03,0.08 0.07,0.15 0.13,0.21 0.06,0.06 0.13,0.11 0.21,0.13 -0.16,0.07 -0.28,0.18 -0.34,0.35z"/>
   </g>
  </g>
 </g>
</svg>
