<?xml version="1.0" encoding="UTF-8"?>
<!DOCTYPE svg PUBLIC "-//W3C//DTD SVG 1.1//EN" "http://www.w3.org/Graphics/SVG/1.1/DTD/svg11.dtd">
<!-- Creator: CorelDRAW 2020 (64-Bit Evaluation Version) -->
<svg xmlns="http://www.w3.org/2000/svg" xml:space="preserve" width="50px" height="50px" version="1.1" style="shape-rendering:geometricPrecision; text-rendering:geometricPrecision; image-rendering:optimizeQuality; fill-rule:evenodd; clip-rule:evenodd"
viewBox="0 0 4.25 4.25"
 xmlns:xlink="http://www.w3.org/1999/xlink"
 xmlns:xodm="http://www.corel.com/coreldraw/odm/2003">
 <defs>
  <style type="text/css">
   <![CDATA[
    .fil0 {fill:#EFB30C;fill-rule:nonzero}
   ]]>
  </style>
 </defs>
 <g id="Layer_x0020_1">
  <metadata id="CorelCorpID_0Corel-Layer"/>
  <path class="fil0" d="M1.02 4.25c-0.02,0 -0.04,0 -0.04,0 -0.14,0 -0.26,-0.03 -0.38,-0.09 -0.12,-0.05 -0.23,-0.12 -0.32,-0.22 -0.08,-0.09 -0.15,-0.2 -0.2,-0.32 -0.05,-0.12 -0.08,-0.25 -0.08,-0.38l0 -2.26c0.01,-0.13 0.04,-0.26 0.09,-0.38 0.06,-0.12 0.13,-0.23 0.22,-0.32 0.09,-0.08 0.2,-0.15 0.32,-0.2 0.12,-0.05 0.25,-0.08 0.39,-0.08l2.21 0c0.02,0 0.03,0 0.03,0 0.13,0.01 0.26,0.04 0.38,0.09 0.12,0.05 0.23,0.13 0.32,0.22 0.09,0.09 0.16,0.2 0.21,0.32 0.05,0.12 0.08,0.25 0.08,0.39l0 2.22c0,0.02 0,0.03 0,0.03 -0.01,0.14 -0.04,0.27 -0.09,0.39 -0.06,0.12 -0.13,0.22 -0.22,0.31 -0.1,0.09 -0.2,0.16 -0.33,0.21 -0.12,0.05 -0.25,0.07 -0.38,0.07l-2.21 0zm2.21 -0.56c0.06,0 0.12,-0.01 0.18,-0.04 0.05,-0.02 0.1,-0.05 0.14,-0.1 0.09,-0.08 0.13,-0.19 0.13,-0.31l0 -2.22c0,-0.06 -0.01,-0.12 -0.03,-0.18 -0.03,-0.05 -0.06,-0.1 -0.1,-0.14 -0.08,-0.09 -0.19,-0.14 -0.32,-0.14l-2.21 0c-0.12,0 -0.23,0.05 -0.32,0.13 -0.09,0.09 -0.14,0.19 -0.14,0.32l0 2.23c0,0.12 0.05,0.23 0.14,0.31 0.09,0.09 0.19,0.14 0.32,0.14l2.21 0z"/>
 </g>
</svg>
