<?xml version="1.0" encoding="UTF-8"?>
<!DOCTYPE svg PUBLIC "-//W3C//DTD SVG 1.1//EN" "http://www.w3.org/Graphics/SVG/1.1/DTD/svg11.dtd">
<!-- Creator: CorelDRAW 2020 (64-Bit Evaluation Version) -->
<svg xmlns="http://www.w3.org/2000/svg" xml:space="preserve" width="30px" height="28px" version="1.1" style="shape-rendering:geometricPrecision; text-rendering:geometricPrecision; image-rendering:optimizeQuality; fill-rule:evenodd; clip-rule:evenodd"
viewBox="0 0 8.341 7.744"
 xmlns:xlink="http://www.w3.org/1999/xlink"
 xmlns:xodm="http://www.corel.com/coreldraw/odm/2003">
 <defs>
  <style type="text/css">
   <![CDATA[
    .fil0 {fill:black}
   ]]>
  </style>
 </defs>
 <g id="Layer_x0020_1">
  <metadata id="CorelCorpID_0Corel-Layer"/>
  <g id="_1639493797328">
   <g id="_2804943342944">
    <path class="fil0" d="M4.161 6.549c-1.194,0 -2.177,-0.982 -2.177,-2.176 0,-1.214 0.983,-2.196 2.177,-2.196 1.213,0 2.196,0.982 2.196,2.196 0,1.194 -0.983,2.176 -2.196,2.176zm-2.87 -4.603l0.77 0c0.096,0 0.174,0.077 0.174,0.173l0 0c0,0.077 -0.078,0.154 -0.174,0.154l-0.77 0c-0.097,0 -0.174,-0.077 -0.174,-0.154l0 0c0,-0.096 0.077,-0.173 0.174,-0.173zm4.295 -1.811c-0.038,-0.077 -0.135,-0.135 -0.25,-0.135l-2.292 0c-0.097,0 -0.174,0.039 -0.232,0.116l-0.038 0.038 -0.636 1.079c-0.038,0.096 -0.154,0.154 -0.25,0.154l-1.195 0c-0.385,0 -0.693,0.308 -0.693,0.693l0 4.97c0,0.386 0.308,0.694 0.693,0.694l6.954 0c0.386,0 0.694,-0.308 0.694,-0.694l0 -4.97c0,-0.385 -0.308,-0.693 -0.694,-0.693l-1.117 0c-0.096,0 -0.193,-0.058 -0.25,-0.135l-0.694 -1.117 0 0z"/>
    <path class="fil0" d="M2.851 4.373c0,0.712 0.597,1.31 1.31,1.31 0.732,0 1.329,-0.598 1.329,-1.31 0,-0.732 -0.597,-1.31 -1.329,-1.31 -0.713,0 -1.31,0.578 -1.31,1.31z"/>
   </g>
  </g>
 </g>
</svg>
