<?xml version="1.0" encoding="UTF-8"?>
<!DOCTYPE svg PUBLIC "-//W3C//DTD SVG 1.1//EN" "http://www.w3.org/Graphics/SVG/1.1/DTD/svg11.dtd">
<!-- Creator: CorelDRAW 2020 (64-Bit Evaluation Version) -->
<svg xmlns="http://www.w3.org/2000/svg" xml:space="preserve" width="30px" height="30px" version="1.1" style="shape-rendering:geometricPrecision; text-rendering:geometricPrecision; image-rendering:optimizeQuality; fill-rule:evenodd; clip-rule:evenodd"
viewBox="0 0 30.282 30.282"
 xmlns:xlink="http://www.w3.org/1999/xlink"
 xmlns:xodm="http://www.corel.com/coreldraw/odm/2003">
 <defs>
  <style type="text/css">
   <![CDATA[
    .fil0 {fill:#EFB30C;fill-rule:nonzero}
   ]]>
  </style>
 </defs>
 <g id="Layer_x0020_1">
  <metadata id="CorelCorpID_0Corel-Layer"/>
  <path class="fil0" d="M20.84 9.768l-7.815 7.815 -3.582 -3.581c-0.543,-0.543 -1.411,-0.543 -1.954,0 -0.542,0.542 -0.542,1.411 0,1.953l4.559 4.559c0.217,0.217 0.651,0.326 0.977,0.326 0,0 0,0 0,0 0.325,0 0.651,-0.109 0.976,-0.326l8.683 -8.792c0.543,-0.542 0.543,-1.411 0,-1.953 -0.542,-0.543 -1.41,-0.543 -1.845,0l0.001 -0.001zm-5.753 -9.768c-8.358,0 -15.087,6.729 -15.087,15.087 0,8.357 6.729,15.195 15.087,15.195 8.357,0 15.195,-6.838 15.195,-15.195 0,-8.358 -6.838,-15.087 -15.195,-15.087zm0 27.46c-6.838,0 -12.374,-5.535 -12.374,-12.373 0,-6.838 5.536,-12.374 12.374,-12.374 6.838,0 12.373,5.536 12.373,12.374 0,6.838 -5.535,12.373 -12.373,12.373z"/>
 </g>
</svg>
