<?xml version="1.0" encoding="UTF-8"?>
<!DOCTYPE svg PUBLIC "-//W3C//DTD SVG 1.1//EN" "http://www.w3.org/Graphics/SVG/1.1/DTD/svg11.dtd">
<!-- Creator: CorelDRAW 2020 (64-Bit Evaluation Version) -->
<svg xmlns="http://www.w3.org/2000/svg" xml:space="preserve" width="30px" height="30px" version="1.1" style="shape-rendering:geometricPrecision; text-rendering:geometricPrecision; image-rendering:optimizeQuality; fill-rule:evenodd; clip-rule:evenodd"
viewBox="0 0 18.425 18.425"
 xmlns:xlink="http://www.w3.org/1999/xlink"
 xmlns:xodm="http://www.corel.com/coreldraw/odm/2003">
 <defs>
  <style type="text/css">
   <![CDATA[
    .fil0 {fill:#CCCCCC;fill-rule:nonzero}
   ]]>
  </style>
 </defs>
 <g id="Layer_x0020_1">
  <metadata id="CorelCorpID_0Corel-Layer"/>
  <path class="fil0" d="M9.18 0c-5.086,0 -9.18,4.094 -9.18,9.18 0,5.085 4.094,9.245 9.18,9.245 5.085,0 9.245,-4.16 9.245,-9.245 0,-5.086 -4.16,-9.18 -9.245,-9.18zm3.5 5.944l-4.755 4.754 -2.179 -2.179c-0.331,-0.33 -0.859,-0.33 -1.189,0 -0.33,0.33 -0.33,0.859 0,1.189l2.773 2.774c0.133,0.132 0.397,0.198 0.595,0.198 0,0 0,0 0,0 0.198,0 0.396,-0.066 0.594,-0.198l5.283 -5.35c0.33,-0.33 0.33,-0.858 0,-1.188 -0.33,-0.33 -0.858,-0.33 -1.123,0l0.001 0zm-3.5 10.764c-4.161,0 -7.529,-3.368 -7.529,-7.528 0,-4.161 3.368,-7.529 7.529,-7.529 4.16,0 7.528,3.368 7.528,7.529 0,4.16 -3.368,7.528 -7.528,7.528z"/>
  <g id="_1639494023984">
  </g>
  <g id="_1639494023504">
  </g>
  <g id="_1639494023600">
  </g>
  <g id="_1639494021872">
  </g>
  <g id="_1639494022688">
  </g>
  <g id="_1639494026096">
  </g>
  <g id="_1639494025568">
  </g>
  <g id="_1639494026624">
  </g>
  <g id="_1639494027296">
  </g>
  <g id="_1639494027488">
  </g>
  <g id="_1639494028208">
  </g>
  <g id="_1639494028688">
  </g>
  <g id="_1639494027776">
  </g>
  <g id="_1639494030560">
  </g>
  <g id="_1639494029648">
  </g>
  <g id="_1639494031376">
  </g>
  <g id="_1639494031856">
  </g>
  <g id="_1639494030800">
  </g>
  <g id="_1639494031520">
  </g>
  <g id="_1639494031568">
  </g>
  <g id="_1639494031280">
  </g>
  <g id="_1639494032864">
  </g>
  <g id="_1639494033008">
  </g>
  <g id="_1639494035264">
  </g>
  <g id="_1639494035312">
  </g>
  <g id="_1639494035456">
  </g>
  <g id="_1639494035504">
  </g>
  <g id="_1639494033872">
  </g>
  <g id="_1639494036032">
  </g>
  <g id="_1639494035120">
  </g>
 </g>
</svg>
