<?xml version="1.0" encoding="UTF-8"?>
<!DOCTYPE svg PUBLIC "-//W3C//DTD SVG 1.1//EN" "http://www.w3.org/Graphics/SVG/1.1/DTD/svg11.dtd">
<!-- Creator: CorelDRAW 2020 (64-Bit Evaluation Version) -->
<svg xmlns="http://www.w3.org/2000/svg" xml:space="preserve" width="60px" height="59px" version="1.1" style="shape-rendering:geometricPrecision; text-rendering:geometricPrecision; image-rendering:optimizeQuality; fill-rule:evenodd; clip-rule:evenodd"
viewBox="0 0 0.33 0.33"
 xmlns:xlink="http://www.w3.org/1999/xlink"
 xmlns:xodm="http://www.corel.com/coreldraw/odm/2003">
 <defs>
  <style type="text/css">
   <![CDATA[
    .str0 {stroke:#263674;stroke-width:0.01;stroke-linecap:round;stroke-linejoin:round;stroke-miterlimit:2.61313}
    .fil0 {fill:none}
    .fil1 {fill:#263674}
    .fil2 {fill:#EFB30C}
    .fil3 {fill:#263674;fill-rule:nonzero}
   ]]>
  </style>
 </defs>
 <g id="Layer_x0020_1">
  <metadata id="CorelCorpID_0Corel-Layer"/>
  <g id="_2237277920896">
   <polygon class="fil0 str0" points="0.16,0 0.22,0.03 0.28,0.05 0.3,0.11 0.33,0.16 0.3,0.22 0.28,0.28 0.22,0.3 0.16,0.32 0.11,0.3 0.05,0.28 0.03,0.22 0,0.16 0.03,0.11 0.05,0.05 0.11,0.03 "/>
   <g>
    <g>
     <polygon class="fil1" points="0.04,0.11 0.02,0.16 0.04,0.21 0.06,0.25 0.07,0.17 0.07,0.17 0.07,0.16 0.07,0.14 0.06,0.07 "/>
     <polygon class="fil1" points="0.26,0.15 0.26,0.16 0.26,0.19 0.27,0.25 0.29,0.21 0.31,0.16 0.29,0.11 0.27,0.07 "/>
     <polygon class="fil2" points="0.16,0.02 0.11,0.04 0.07,0.06 0.08,0.11 0.12,0.08 0.16,0.06 "/>
     <polygon class="fil1" points="0.17,0.06 0.21,0.08 0.25,0.11 0.26,0.06 0.21,0.04 0.17,0.02 "/>
     <polygon class="fil2" points="0.17,0.3 0.21,0.28 0.26,0.27 0.25,0.22 0.21,0.24 0.17,0.27 "/>
     <polygon class="fil1" points="0.16,0.27 0.12,0.24 0.08,0.22 0.07,0.27 0.11,0.28 0.16,0.3 "/>
    </g>
    <path class="fil3" d="M0.11 0.13c-0.01,-0.01 -0.01,-0.02 0,-0.03 0.01,-0.01 0.02,0 0.03,0l0.04 0.06c0,0.01 0,0.02 -0.01,0.02 0,0.01 -0.02,0.01 -0.02,0l-0.04 -0.05z"/>
    <path class="fil3" d="M0.19 0.1c0.01,0 0.02,-0.01 0.03,0 0.01,0.01 0.01,0.02 0,0.03l-0.04 0.05c-0.01,0.01 -0.02,0.01 -0.02,0 -0.01,0 -0.01,-0.01 -0.01,-0.02l0.04 -0.06z"/>
    <path class="fil3" d="M0.15 0.17c0,-0.01 0,-0.02 0.01,-0.02 0.01,0 0.02,0.01 0.02,0.02l0 0.07c0,0.01 -0.01,0.01 -0.02,0.01 -0.01,0 -0.01,0 -0.01,-0.01l0 -0.07z"/>
   </g>
  </g>
 </g>
</svg>
