<?xml version="1.0" encoding="UTF-8"?>
<!DOCTYPE svg PUBLIC "-//W3C//DTD SVG 1.1//EN" "http://www.w3.org/Graphics/SVG/1.1/DTD/svg11.dtd">
<!-- Creator: CorelDRAW 2020 (64-Bit Evaluation Version) -->
<svg xmlns="http://www.w3.org/2000/svg" xml:space="preserve" width="20px" height="20px" version="1.1" style="shape-rendering:geometricPrecision; text-rendering:geometricPrecision; image-rendering:optimizeQuality; fill-rule:evenodd; clip-rule:evenodd"
viewBox="0 0 2.382 2.345"
 xmlns:xlink="http://www.w3.org/1999/xlink"
 xmlns:xodm="http://www.corel.com/coreldraw/odm/2003">
 <defs>
  <style type="text/css">
   <![CDATA[
    .fil1 {fill:#EFB30C}
    .fil0 {fill:#EFB30C;fill-rule:nonzero}
   ]]>
  </style>
 </defs>
 <g id="Layer_x0020_1">
  <metadata id="CorelCorpID_0Corel-Layer"/>
  <path class="fil0" d="M1.864 1.675c0.052,-0.071 0.151,-0.087 0.222,-0.035 0.071,0.051 0.087,0.151 0.036,0.222 -0.111,0.152 -0.254,0.273 -0.417,0.356 -0.163,0.082 -0.345,0.127 -0.532,0.127 -0.324,0 -0.617,-0.131 -0.829,-0.343 -0.213,-0.212 -0.344,-0.505 -0.344,-0.829 0,-0.324 0.131,-0.617 0.344,-0.829 0.212,-0.213 0.505,-0.344 0.829,-0.344 0.22,0 0.431,0.062 0.612,0.173 0.181,0.111 0.332,0.271 0.432,0.467 0.04,0.078 0.009,0.174 -0.069,0.214 -0.079,0.04 -0.174,0.009 -0.214,-0.07 -0.073,-0.143 -0.183,-0.259 -0.315,-0.34 -0.131,-0.081 -0.285,-0.126 -0.446,-0.126 -0.236,0 -0.45,0.096 -0.604,0.251 -0.155,0.154 -0.251,0.368 -0.251,0.604 0,0.236 0.096,0.449 0.251,0.604 0.154,0.154 0.368,0.25 0.604,0.25 0.137,0 0.269,-0.033 0.388,-0.093 0.118,-0.06 0.223,-0.148 0.303,-0.259z"/>
  <rect class="fil1" transform="matrix(6.48255 6.48255 -6.48255 6.48255 1.20445 0.750496)" width="0.065" height="0.065"/>
  <circle class="fil1" cx="2.196" cy="1.125" r="0.186"/>
 </g>
</svg>
