<?xml version="1.0" encoding="UTF-8"?>
<!DOCTYPE svg PUBLIC "-//W3C//DTD SVG 1.1//EN" "http://www.w3.org/Graphics/SVG/1.1/DTD/svg11.dtd">
<!-- Creator: CorelDRAW 2020 (64-Bit Evaluation Version) -->
<svg xmlns="http://www.w3.org/2000/svg" xml:space="preserve" width="400px" height="255px" version="1.1" style="shape-rendering:geometricPrecision; text-rendering:geometricPrecision; image-rendering:optimizeQuality; fill-rule:evenodd; clip-rule:evenodd"
viewBox="0 0 71.22 45.38"
 xmlns:xlink="http://www.w3.org/1999/xlink"
 xmlns:xodm="http://www.corel.com/coreldraw/odm/2003">
 <defs>
  <style type="text/css">
   <![CDATA[
    .fil0 {fill:#EFB30C}
   ]]>
  </style>
 </defs>
 <g id="Layer_x0020_1">
  <metadata id="CorelCorpID_0Corel-Layer"/>
  <path class="fil0" d="M2.1 0l67.02 0c1.15,0 2.1,0.94 2.1,2.1l0 41.18c0,1.16 -0.95,2.1 -2.1,2.1l-67.02 0c-1.16,0 -2.1,-0.94 -2.1,-2.1l0 -41.18c0,-1.16 0.94,-2.1 2.1,-2.1zm19.2 10.2c2.99,0 5.4,2.42 5.4,5.41 0,2.98 -2.41,5.4 -5.4,5.4 -2.98,0 -5.41,-2.42 -5.41,-5.4 0,-2.99 2.43,-5.41 5.41,-5.41zm-4.73 13.17l9.46 0c3.25,0 5.9,2.66 5.9,5.9l0 5.91 -21.26 0 0 -5.91c0,-3.24 2.66,-5.9 5.9,-5.9zm30.36 -16.57l16.96 0c2,0 3.64,1.63 3.64,3.63l0 0c0,2.01 -1.64,3.64 -3.64,3.64l-16.96 0c-2,0 -3.63,-1.63 -3.63,-3.64l0 0c0,-2 1.63,-3.63 3.63,-3.63zm0 24.51l16.96 0c2,0 3.64,1.63 3.64,3.63l0 0.01c0,2 -1.64,3.63 -3.64,3.63l-16.96 0c-2,0 -3.63,-1.63 -3.63,-3.63l0 -0.01c0,-2 1.63,-3.63 3.63,-3.63zm4.24 -11.59l8.48 0c2,0 3.63,1.63 3.63,3.63l0 0c0,2 -1.63,3.64 -3.63,3.64l-8.48 0c-2,0 -3.64,-1.63 -3.64,-3.64l0 0c0,-2 1.64,-3.63 3.64,-3.63zm-44.11 -14.74l28.49 0c1.91,0 3.46,1.56 3.46,3.47l0 28.48c0,1.91 -1.55,3.47 -3.46,3.47l-28.49 0c-1.91,0 -3.47,-1.56 -3.47,-3.47l0 -28.48c0,-1.91 1.56,-3.47 3.47,-3.47z"/>
 </g>
</svg>
