<?xml version="1.0" encoding="UTF-8"?>
<!DOCTYPE svg PUBLIC "-//W3C//DTD SVG 1.1//EN" "http://www.w3.org/Graphics/SVG/1.1/DTD/svg11.dtd">
<!-- Creator: CorelDRAW 2020 (64-Bit Evaluation Version) -->
<svg xmlns="http://www.w3.org/2000/svg" xml:space="preserve" width="50px" height="50px" version="1.1" style="shape-rendering:geometricPrecision; text-rendering:geometricPrecision; image-rendering:optimizeQuality; fill-rule:evenodd; clip-rule:evenodd"
viewBox="0 0 9.57 9.57"
 xmlns:xlink="http://www.w3.org/1999/xlink"
 xmlns:xodm="http://www.corel.com/coreldraw/odm/2003">
 <defs>
  <style type="text/css">
   <![CDATA[
    .fil0 {fill:none}
    .fil1 {fill:#EFB30C;fill-rule:nonzero}
   ]]>
  </style>
 </defs>
 <g id="Layer_x0020_1">
  <metadata id="CorelCorpID_0Corel-Layer"/>
  <g id="_2804938435728">
   <g>
    <polygon class="fil0" points="0,0 9.57,0 9.57,9.57 0,9.57 "/>
    <path class="fil1" d="M1.2 1.59c0,-0.22 0.17,-0.39 0.39,-0.39l6.39 0c0.22,0 0.39,0.17 0.39,0.39l0 6.39c0,0.22 -0.17,0.39 -0.39,0.39l-6.39 0c-0.22,0 -0.39,-0.17 -0.39,-0.39l0 -6.39zm0.79 0.4l0 5.59 5.59 0 0 -5.59 -5.59 0zm2.24 1.37l1.95 1.29c0.04,0.03 0.07,0.08 0.07,0.13 0,0.06 -0.03,0.11 -0.07,0.14l-1.95 1.29c-0.02,0.02 -0.05,0.03 -0.08,0.03 -0.09,0 -0.16,-0.07 -0.16,-0.16l0 -2.59c0,-0.09 0.07,-0.16 0.16,-0.16 0.03,0 0.06,0.01 0.09,0.03l-0.01 0z"/>
   </g>
  </g>
 </g>
</svg>
