<?xml version="1.0" encoding="UTF-8"?>
<!DOCTYPE svg PUBLIC "-//W3C//DTD SVG 1.1//EN" "http://www.w3.org/Graphics/SVG/1.1/DTD/svg11.dtd">
<!-- Creator: CorelDRAW 2020 (64-Bit Evaluation Version) -->
<svg xmlns="http://www.w3.org/2000/svg" xml:space="preserve" width="79px" height="87px" version="1.1" style="shape-rendering:geometricPrecision; text-rendering:geometricPrecision; image-rendering:optimizeQuality; fill-rule:evenodd; clip-rule:evenodd"
viewBox="0 0 0.62 0.68"
 xmlns:xlink="http://www.w3.org/1999/xlink"
 xmlns:xodm="http://www.corel.com/coreldraw/odm/2003">
 <defs>
  <style type="text/css">
   <![CDATA[
    .str0 {stroke:#263674;stroke-width:0.02;stroke-miterlimit:2.61313}
    .str1 {stroke:#263674;stroke-width:0.02;stroke-miterlimit:2.61313}
    .fil0 {fill:none}
    .fil1 {fill:#EFB30C}
    .fil3 {fill:#263674;fill-rule:nonzero}
    .fil2 {fill:white;fill-opacity:0.200000}
   ]]>
  </style>
    <clipPath id="id0">
     <path d="M0.31 0.16l0.08 0.04 0.08 0.05 0 0.09 0 0.09 -0.08 0.05 -0.08 0.05 -0.08 -0.05 -0.08 -0.05 0 -0.09 0 -0.09 0.08 -0.05 0.08 -0.04z"/>
    </clipPath>
 </defs>
 <g id="Layer_x0020_1">
  <metadata id="CorelCorpID_0Corel-Layer"/>
  <g id="_2237520100656">
   <path class="fil0 str0" d="M0.37 0.07l0.07 0.04 0.08 0.05c0.01,-0.01 0.02,-0.01 0.04,-0.01 0.03,0 0.05,0.03 0.05,0.06 0,0.02 -0.01,0.04 -0.03,0.05l0 0.09 0 0.07c0.02,0 0.03,0.03 0.03,0.05 0,0.03 -0.02,0.06 -0.05,0.06 -0.01,0 -0.02,-0.01 -0.02,-0.01l-0.1 0.06 -0.07 0.04c-0.01,0.03 -0.03,0.05 -0.06,0.05 -0.03,0 -0.06,-0.02 -0.06,-0.05l-0.07 -0.04 -0.1 -0.06c0,0.01 -0.01,0.01 -0.01,0.01 -0.03,0 -0.06,-0.03 -0.06,-0.06 0,-0.02 0.01,-0.04 0.03,-0.05l0 -0.07 0 -0.09c-0.02,-0.01 -0.03,-0.03 -0.03,-0.05 0,-0.03 0.03,-0.06 0.06,-0.06 0.01,0 0.02,0 0.03,0.01l0.08 -0.05 0.07 -0.04 0 0c0,-0.03 0.03,-0.06 0.06,-0.06 0.03,0 0.06,0.03 0.06,0.06l0 0zm-0.06 0.49c0.01,0 0.03,0.01 0.04,0.02l0.07 -0.04 0.08 -0.05c0,-0.01 0,-0.01 0,-0.02 0,-0.02 0.01,-0.04 0.03,-0.05l0 -0.07 0 -0.09c-0.02,-0.01 -0.03,-0.03 -0.03,-0.05l0 -0.01 -0.08 -0.05 -0.08 -0.04c-0.01,0.01 -0.02,0.01 -0.03,0.01 -0.01,0 -0.03,0 -0.04,-0.01l-0.07 0.04 -0.08 0.05c0,0 0,0 0,0.01 0,0.02 -0.01,0.04 -0.03,0.05l0 0.09 0 0.07c0.02,0.01 0.03,0.03 0.03,0.05 0,0.01 0,0.01 0,0.02l0.08 0.05 0.07 0.04c0.01,-0.01 0.02,-0.02 0.04,-0.02z"/>
   <circle class="fil1" cx="0.07" cy="0.21" r="0.03"/>
   <circle class="fil1" cx="0.56" cy="0.21" r="0.03"/>
   <circle class="fil1" cx="0.07" cy="0.47" r="0.03"/>
   <circle class="fil1" cx="0.56" cy="0.47" r="0.03"/>
   <circle class="fil1" cx="0.31" cy="0.62" r="0.03"/>
   <circle class="fil1" cx="0.31" cy="0.07" r="0.03"/>
   <polygon class="fil1" points="0.31,0.16 0.39,0.2 0.47,0.25 0.47,0.34 0.47,0.43 0.39,0.48 0.31,0.53 0.23,0.48 0.15,0.43 0.15,0.34 0.15,0.25 0.23,0.2 "/>
   <g style="clip-path:url(#id0)">
    <g>
     <polygon id="1" class="fil2" points="0.5,0.22 0.45,0.55 0.1,0.46 "/>
    </g>
   </g>
   <polygon class="fil0 str1" points="0.31,0.16 0.39,0.2 0.47,0.25 0.47,0.34 0.47,0.43 0.39,0.48 0.31,0.53 0.23,0.48 0.15,0.43 0.15,0.34 0.15,0.25 0.23,0.2 "/>
   <path class="fil3" d="M0.36 0.24c0.01,0 0.02,0.01 0.02,0.02 0,0.01 0,0.02 0,0.02 0,0.01 -0.01,0.02 -0.02,0.02 0,0 -0.01,0 -0.02,0l-0.01 0.02c0.01,0 0.01,0 0.01,0.01 0.01,0 0.01,0.01 0.01,0.02 0,0 0,0.01 0,0.01l0 0.01c0.01,-0.01 0.01,-0.01 0.02,-0.01 0.01,0 0.02,0 0.02,0l0 0c0.01,0.01 0.02,0.02 0.02,0.02 0,0.01 0,0.02 -0.01,0.03l0 0c0,0.01 -0.01,0.01 -0.02,0.01 -0.01,0 -0.02,0 -0.02,-0.01l0 0c-0.01,0 -0.02,-0.01 -0.02,-0.02 0,0 0,-0.01 0.01,-0.02l-0.01 0c0,0.01 -0.01,0.01 -0.02,0.01 0,0 -0.01,0 -0.01,0l-0.01 0.01c0.01,0 0.01,0.01 0.01,0.01 0,0.01 0,0.02 0,0.03 0,0.01 -0.01,0.01 -0.02,0.01 -0.01,0.01 -0.01,0.01 -0.02,0 -0.01,0 -0.02,-0.01 -0.02,-0.01 0,-0.01 0,-0.02 0,-0.03 0.01,-0.01 0.01,-0.01 0.02,-0.02 0.01,0 0.01,0 0.02,0l0.01 -0.01c-0.01,-0.01 -0.01,-0.01 -0.01,-0.02 0,-0.01 0,-0.01 0,-0.02l-0.02 -0.01c-0.01,0 -0.01,0 -0.02,0 -0.01,0.01 -0.02,0 -0.02,0 -0.01,-0.01 -0.01,-0.01 -0.01,-0.02 -0.01,-0.01 0,-0.02 0,-0.03l0 0c0.01,0 0.01,-0.01 0.02,-0.01 0.01,0 0.02,0 0.03,0.01l0 0c0,0 0.01,0.01 0.01,0.02 0,0 0,0.01 0,0.02l0.02 0.02c0,-0.01 0.01,-0.01 0.02,-0.01l0 0 0.01 -0.02c0,-0.01 -0.01,-0.01 -0.01,-0.02 0,-0.01 0,-0.02 0,-0.02 0.01,-0.01 0.01,-0.02 0.02,-0.02 0.01,0 0.02,0 0.02,0zm-0.02 0.09c-0.01,0 -0.01,0 -0.02,0 -0.01,0 -0.01,0 -0.01,0 -0.01,0.01 -0.01,0.01 -0.01,0.02 0,0 0,0.01 0.01,0.01 0,0.01 0,0.01 0.01,0.01 0.01,0 0.01,0 0.02,-0.01 0,0 0,-0.01 0,-0.01 0,-0.01 0,-0.01 0,-0.02zm0.02 0.05l0 0c-0.01,0 -0.01,0.01 -0.01,0.01 0,0.01 0.01,0.01 0.01,0.02l0 0c0.01,0 0.01,0 0.02,0 0,0 0.01,0 0.01,-0.01l0 0c0.01,0 0.01,-0.01 0.01,-0.01 0,-0.01 -0.01,-0.01 -0.01,-0.02l0 0c-0.01,0 -0.01,0 -0.02,0 0,0 -0.01,0 -0.01,0.01zm-0.06 0.03c0,-0.01 0,-0.01 -0.01,-0.01 0,-0.01 -0.01,-0.01 -0.02,-0.01 0,0.01 0,0.01 -0.01,0.02 0,0 0,0.01 0,0.01 0,0.01 0.01,0.01 0.01,0.01 0.01,0.01 0.01,0.01 0.02,0 0,0 0.01,0 0.01,-0.01 0,0 0,-0.01 0,-0.01zm-0.06 -0.14c0,0 -0.01,0.01 -0.01,0.01 0,0 0,0.01 0,0.02 0,0 0,0.01 0,0.01 0.01,0 0.01,0 0.02,0 0.01,0 0.01,0 0.01,0 0.01,-0.01 0.01,-0.01 0.01,-0.02 0,-0.01 -0.01,-0.01 -0.01,-0.01 0,-0.01 -0.01,-0.01 -0.02,-0.01zm0.13 -0.01c0,0 0,-0.01 -0.01,-0.01 -0.01,0 -0.01,0 -0.02,0 0,0 -0.01,0.01 -0.01,0.01 0,0.01 0,0.01 0,0.02 0,0 0.01,0.01 0.01,0.01 0.01,0 0.01,0 0.02,0 0,0 0.01,-0.01 0.01,-0.01 0,-0.01 0,-0.01 0,-0.02z"/>
  </g>
 </g>
</svg>
