<?xml version="1.0" encoding="UTF-8"?>
<!DOCTYPE svg PUBLIC "-//W3C//DTD SVG 1.1//EN" "http://www.w3.org/Graphics/SVG/1.1/DTD/svg11.dtd">
<!-- Creator: CorelDRAW 2020 (64-Bit Evaluation Version) -->
<svg xmlns="http://www.w3.org/2000/svg" xml:space="preserve" width="50px" height="81px" version="1.1" style="shape-rendering:geometricPrecision; text-rendering:geometricPrecision; image-rendering:optimizeQuality; fill-rule:evenodd; clip-rule:evenodd"
viewBox="0 0 3.69 5.96"
 xmlns:xlink="http://www.w3.org/1999/xlink"
 xmlns:xodm="http://www.corel.com/coreldraw/odm/2003">
 <defs>
  <style type="text/css">
   <![CDATA[
    .fil1 {fill:#EFB30C;fill-rule:nonzero}
    .fil0 {fill:white;fill-rule:nonzero}
   ]]>
  </style>
 </defs>
 <g id="Layer_x0020_1">
  <metadata id="CorelCorpID_0Corel-Layer"/>
  <g id="_2804946661408">
   <polygon class="fil0" points="0.11,1.12 2.73,1.12 2.73,0.11 "/>
   <path class="fil1" d="M0 1.13l0 4.72c0,0.06 0.05,0.11 0.11,0.11l3.47 0c0.06,0 0.11,-0.05 0.11,-0.11l0 -4.73c0,-0.06 -0.05,-0.1 -0.11,-0.1l-0.75 0 0 -0.91c0,-0.03 0,-0.05 -0.02,-0.07 -0.03,-0.04 -0.08,-0.05 -0.12,-0.03l-2.62 1.01 0 0c-0.04,0.02 -0.07,0.06 -0.07,0.11zm2.86 1.81c-0.27,-0.27 -0.63,-0.42 -1.02,-0.42 -0.38,0 -0.74,0.15 -1.01,0.42 -0.28,0.27 -0.43,0.64 -0.43,1.03 0,0.04 0,0.08 0.01,0.12 -0.01,0.04 -0.01,0.08 -0.01,0.12 0,0.8 0.65,1.44 1.44,1.44 0.8,0 1.45,-0.64 1.45,-1.44 0,-0.04 -0.01,-0.08 -0.01,-0.12 0,-0.04 0.01,-0.08 0.01,-0.12 0,-0.39 -0.16,-0.76 -0.43,-1.03zm-1.65 2.32c0.03,0.02 0.06,0.03 0.09,0.05l0.01 0.01c-0.03,-0.02 -0.07,-0.04 -0.1,-0.06zm0.49 0.14l0.04 0.01 0 0.01c-0.02,0 -0.03,-0.01 -0.04,-0.02zm0.25 0.01l0.04 -0.01c-0.01,0.01 -0.03,0.02 -0.04,0.02l0 -0.01zm0.43 -0.1c0.04,-0.02 0.07,-0.03 0.1,-0.05 -0.03,0.02 -0.07,0.04 -0.11,0.06l0.01 -0.01zm-1.17 -2.4c0.03,-0.02 0.07,-0.03 0.1,-0.05l0 0.01c-0.04,0.01 -0.07,0.03 -0.1,0.04zm-0.06 0.29c-0.07,0.19 -0.11,0.42 -0.12,0.66l-0.37 0c0.06,-0.2 0.17,-0.37 0.32,-0.52 0.05,-0.05 0.11,-0.1 0.17,-0.14zm-0.53 0.87l0.41 0 0 0.02 0 0.01 -0.41 0 0 -0.01 0 -0.02zm0.53 0.91c-0.23,-0.16 -0.4,-0.39 -0.48,-0.66l0.36 0c0.01,0.24 0.05,0.47 0.12,0.66zm0.59 0.2c-0.23,-0.09 -0.41,-0.43 -0.48,-0.86l0.48 0 0 0.86zm-0.5 -1.08l0 -0.01 0 -0.02 0.5 0 0 0.03 -0.5 0zm0.5 -0.24l-0.48 0c0.07,-0.43 0.25,-0.77 0.48,-0.86l0 0.86zm-0.04 -1.08c0.01,-0.01 0.02,-0.02 0.04,-0.02l0 0.01 -0.04 0.01zm1.32 1.08l-0.36 0c-0.01,-0.24 -0.05,-0.47 -0.12,-0.66 0.06,0.04 0.12,0.09 0.17,0.14 0.15,0.15 0.25,0.32 0.31,0.52zm-0.64 -0.99l-0.01 -0.01c0.04,0.02 0.07,0.03 0.11,0.05 -0.03,-0.01 -0.07,-0.02 -0.1,-0.04zm-0.43 -0.11c0.01,0 0.03,0.01 0.04,0.02l-0.04 -0.01 0 -0.01zm0.47 1.1l-0.47 0 0 -0.86c0.22,0.09 0.41,0.43 0.47,0.86zm-0.47 1.32l0 -0.86 0.47 0c-0.06,0.43 -0.25,0.77 -0.47,0.86zm0 -1.08l0 -0.03 0.5 0 0 0.02 0 0.01 -0.5 0zm0.71 -0.01l0 -0.02 0.41 0 0 0.02 0 0.01 -0.41 0 0 -0.01zm0.36 0.23c-0.08,0.27 -0.25,0.5 -0.48,0.66 0.07,-0.19 0.11,-0.42 0.12,-0.66l0.36 0zm0.47 -2.12c0,0.07 -0.06,0.14 -0.14,0.14l-1.22 0c-0.08,0 -0.14,-0.07 -0.14,-0.14 0,-0.08 0.06,-0.14 0.14,-0.14l1.22 0c0.08,0 0.14,0.06 0.14,0.14zm-1.78 0c0,0.07 -0.06,0.14 -0.13,0.14l-1.25 0c-0.07,0 -0.13,-0.07 -0.13,-0.14 0,-0.08 0.06,-0.14 0.13,-0.14l1.25 0c0.07,0 0.13,0.06 0.13,0.14zm1.33 -0.54c0,0.08 -0.06,0.14 -0.14,0.14l-2.12 0c-0.07,0 -0.14,-0.06 -0.14,-0.14 0,-0.07 0.07,-0.13 0.14,-0.13l2.12 0c0.08,0 0.14,0.06 0.14,0.13zm-0.42 -1.4l0 0.76 -1.94 0 1.94 -0.76z"/>
   <path class="fil0" d="M2.86 3.19c-0.27,-0.27 -0.63,-0.42 -1.02,-0.42 -0.38,0 -0.74,0.15 -1.01,0.42 -0.28,0.27 -0.43,0.63 -0.43,1.02 0,0.8 0.65,1.44 1.44,1.44 0.8,0 1.45,-0.64 1.45,-1.44 0,-0.39 -0.16,-0.75 -0.43,-1.02zm-1.88 0.15c0.1,-0.1 0.21,-0.18 0.33,-0.24 -0.16,0.24 -0.27,0.6 -0.28,1l-0.41 0c0.02,-0.29 0.15,-0.56 0.36,-0.76zm-0.36 0.98l0.41 0c0.01,0.4 0.12,0.76 0.28,1 -0.38,-0.18 -0.65,-0.56 -0.69,-1zm1.12 1.1c-0.27,-0.1 -0.48,-0.56 -0.5,-1.1l0.5 0 0 1.1zm0 -1.32l-0.5 0c0.02,-0.54 0.23,-1 0.5,-1.1l0 1.1zm0.97 -0.76c0.21,0.2 0.33,0.47 0.36,0.76l-0.41 0c-0.02,-0.4 -0.12,-0.76 -0.29,-1 0.13,0.06 0.24,0.14 0.34,0.24zm-0.76 -0.34c0.26,0.1 0.47,0.56 0.5,1.1l-0.5 0 0 -1.1zm0 2.42l0 -1.1 0.5 0c-0.03,0.54 -0.24,1 -0.5,1.1zm0.42 -0.1c0.17,-0.24 0.27,-0.6 0.29,-1l0.41 0c-0.04,0.44 -0.31,0.82 -0.7,1z"/>
  </g>
 </g>
</svg>
