<?xml version="1.0" encoding="UTF-8"?>
<!DOCTYPE svg PUBLIC "-//W3C//DTD SVG 1.1//EN" "http://www.w3.org/Graphics/SVG/1.1/DTD/svg11.dtd">
<!-- Creator: CorelDRAW 2020 (64-Bit Evaluation Version) -->
<svg xmlns="http://www.w3.org/2000/svg" xml:space="preserve" width="50px" height="50px" version="1.1" style="shape-rendering:geometricPrecision; text-rendering:geometricPrecision; image-rendering:optimizeQuality; fill-rule:evenodd; clip-rule:evenodd"
viewBox="0 0 1.52 1.52"
 xmlns:xlink="http://www.w3.org/1999/xlink"
 xmlns:xodm="http://www.corel.com/coreldraw/odm/2003">
 <defs>
  <style type="text/css">
   <![CDATA[
    .fil0 {fill:#0CEF63}
    .fil2 {fill:#263674;fill-rule:nonzero}
    .fil3 {fill:#D99D1A;fill-rule:nonzero}
    .fil1 {fill:#EFB30C;fill-rule:nonzero}
   ]]>
  </style>
 </defs>
 <g id="Layer_x0020_1">
  <metadata id="CorelCorpID_0Corel-Layer"/>
  <g id="_2804771205280">
   <path class="fil0" d="M0.2 0.33c-0.02,0 -0.05,-0.03 -0.06,-0.04 -0.02,-0.02 -0.05,-0.05 -0.05,-0.07 0,0 0.01,-0.02 0.01,-0.02 0.04,-0.04 0.08,0.03 0.1,0.04 0,0 0.02,-0.02 0.03,-0.03l0.06 -0.07c0,-0.01 0.01,-0.02 0.03,-0.02 0.03,0 0.05,0.03 0.03,0.06l-0.12 0.13c-0.01,0.01 -0.02,0.02 -0.03,0.02zm0.03 0.14c0.05,0 0.06,-0.01 0.1,-0.03 0.05,-0.01 0.1,-0.06 0.11,-0.11 0.02,-0.04 0.03,-0.06 0.03,-0.11 0,-0.06 -0.03,-0.11 -0.07,-0.15 -0.06,-0.06 -0.14,-0.08 -0.22,-0.06 -0.02,0 -0.03,0.01 -0.05,0.01l-0.03 0.02c-0.03,0.02 -0.06,0.06 -0.08,0.09 -0.01,0.05 -0.01,0.05 -0.02,0.1 0,0.01 0,0.04 0.01,0.05 0,0.04 0.03,0.09 0.06,0.11 0.04,0.04 0.09,0.08 0.16,0.08z"/>
   <path class="fil1" d="M0.02 0.64c-0.02,-0.01 -0.02,-0.03 -0.02,-0.04 0.01,-0.02 0.03,-0.03 0.04,-0.02l0.07 0.03 0.02 -0.06c0.01,-0.02 0.03,-0.02 0.05,-0.02 0.01,0.01 0.02,0.03 0.01,0.05l-0.03 0.05 0.07 0.03c0.01,0.01 0.02,0.03 0.01,0.04 0,0.02 -0.02,0.03 -0.04,0.02l-0.06 -0.03 -0.03 0.06c-0.01,0.02 -0.02,0.02 -0.04,0.02 -0.02,-0.01 -0.02,-0.03 -0.02,-0.05l0.03 -0.05 -0.06 -0.03z"/>
   <path class="fil1" d="M0.88 0.06c0,-0.01 0.01,-0.02 0.02,-0.02 0.02,0 0.03,0.01 0.03,0.02l0 0.06 0.05 0c0.02,0 0.03,0.01 0.03,0.03 0,0.01 -0.01,0.02 -0.03,0.02l-0.05 0 0 0.06c0,0.02 -0.02,0.03 -0.03,0.03 -0.01,0 -0.03,-0.01 -0.03,-0.03l0.01 -0.06 -0.06 0c-0.01,0 -0.03,-0.01 -0.03,-0.02 0.01,-0.02 0.02,-0.03 0.03,-0.03l0.06 0 0 -0.06z"/>
   <path class="fil1" d="M0.54 0.41c0,-0.01 0.01,-0.02 0.03,-0.02 0.01,0 0.02,0.01 0.02,0.02l0 0.06 0.05 0c0.01,0 0.02,0.01 0.02,0.02 0,0.02 -0.01,0.03 -0.02,0.03l-0.05 0 0 0.05c0,0.01 -0.01,0.02 -0.03,0.02 -0.01,0 -0.02,-0.01 -0.02,-0.02l0 -0.06 -0.05 0c-0.01,0 -0.02,-0.01 -0.02,-0.02 0,-0.01 0.01,-0.02 0.02,-0.02l0.05 0 0 -0.06z"/>
   <path class="fil1" d="M0.54 0.05c0,-0.01 0,-0.01 0.01,-0.01 0.01,0 0.02,0 0.01,0.01l0 0.03 0.03 0c0.01,0 0.02,0.01 0.02,0.02 0,0 -0.01,0.01 -0.02,0.01l-0.03 0 0 0.03c0,0.01 0,0.01 -0.01,0.01 -0.01,0 -0.01,0 -0.01,-0.01l0 -0.03 -0.03 0c-0.01,0 -0.02,-0.01 -0.02,-0.02 0,0 0.01,-0.01 0.02,-0.01l0.03 0 0 -0.03z"/>
   <path class="fil2" d="M0.88 0.91c-0.02,0 -0.03,-0.01 -0.03,-0.02l0 -0.02 -0.05 -0.01 0 0.01c0,0.02 -0.01,0.03 -0.03,0.03 -0.01,0 -0.02,-0.01 -0.02,-0.03l0 -0.19c0,-0.21 0.16,-0.37 0.37,-0.37l0.03 0c0.1,0 0.19,0.04 0.26,0.11 0.07,0.07 0.11,0.16 0.11,0.26l0 0.07c0,0.04 -0.04,0.07 -0.08,0.07 -0.04,0 -0.08,-0.03 -0.08,-0.07l0 -0.06c0,-0.13 -0.1,-0.23 -0.22,-0.23l-0.02 0c-0.12,0 -0.22,0.1 -0.22,0.23l0 0.2c0,0.01 -0.01,0.02 -0.02,0.02z"/>
   <path class="fil1" d="M0.93 0.85c0.05,0 0.1,0.04 0.1,0.1l0 0.46c0,0.06 -0.05,0.11 -0.1,0.11l-0.38 0c0,-0.01 0,-0.01 0,-0.02l0 -0.15c0.03,-0.01 0.05,-0.04 0.05,-0.07 0,-0.05 -0.04,-0.08 -0.09,-0.08 -0.04,0 -0.08,0.03 -0.08,0.08 0,0.03 0.02,0.06 0.04,0.07l0 0.15c0,0.01 0.01,0.01 0.01,0.02l-0.38 0c-0.05,0 -0.1,-0.05 -0.1,-0.11l0 -0.46c0,-0.06 0.05,-0.1 0.1,-0.1l0.83 0 0 0z"/>
   <g>
    <path class="fil3" d="M0.88 1.03l-0.04 0c-0.02,0 -0.03,-0.01 -0.03,-0.03 0,-0.01 0.01,-0.02 0.03,-0.02l0.04 0c0.01,0 0.02,0.01 0.02,0.02 0,0.02 -0.01,0.03 -0.02,0.03z"/>
    <path class="fil3" d="M0.72 1.03l-0.63 0c-0.01,0 -0.02,-0.01 -0.02,-0.03 0,-0.01 0.01,-0.02 0.02,-0.02l0.63 0c0.02,0 0.03,0.01 0.03,0.02 0,0.02 -0.01,0.03 -0.03,0.03z"/>
   </g>
   <path class="fil3" d="M0.12 1.11l0.04 0c0.01,0 0.03,0.01 0.03,0.02 0,0.02 -0.02,0.03 -0.03,0.03l-0.04 0c-0.01,0 -0.02,-0.01 -0.02,-0.03 0,-0.01 0.01,-0.02 0.02,-0.02z"/>
   <path class="fil3" d="M0.28 1.11l0.63 0c0.01,0 0.02,0.01 0.02,0.02 0,0.02 -0.01,0.03 -0.02,0.03l-0.63 0c-0.02,0 -0.03,-0.01 -0.03,-0.03 0,-0.01 0.01,-0.02 0.03,-0.02z"/>
  </g>
 </g>
</svg>
