<?xml version="1.0" encoding="UTF-8"?>
<!DOCTYPE svg PUBLIC "-//W3C//DTD SVG 1.1//EN" "http://www.w3.org/Graphics/SVG/1.1/DTD/svg11.dtd">
<!-- Creator: CorelDRAW 2020 (64-Bit Evaluation Version) -->
<svg xmlns="http://www.w3.org/2000/svg" xml:space="preserve" width="50px" height="37px" version="1.1" style="shape-rendering:geometricPrecision; text-rendering:geometricPrecision; image-rendering:optimizeQuality; fill-rule:evenodd; clip-rule:evenodd"
viewBox="0 0 1.7 1.27"
 xmlns:xlink="http://www.w3.org/1999/xlink"
 xmlns:xodm="http://www.corel.com/coreldraw/odm/2003">
 <defs>
  <style type="text/css">
   <![CDATA[
    .str0 {stroke:white;stroke-miterlimit:2.61313}
    .fil0 {fill:#EFB30C}
    .fil1 {fill:white}
    .fil3 {fill:#263674;fill-rule:nonzero}
    .fil2 {fill:white;fill-rule:nonzero}
   ]]>
  </style>
 </defs>
 <g id="Layer_x0020_1">
  <metadata id="CorelCorpID_0Corel-Layer"/>
  <path class="fil0" d="M0 0.35l1.7 0 0 0.67 -1.7 0 0 -0.67zm0.66 0.32c0,0.02 0.02,0.05 0.05,0.05l0.62 0c0.03,0 0.05,-0.03 0.05,-0.05 0,-0.03 -0.02,-0.05 -0.05,-0.05l-0.62 0c-0.03,0 -0.05,0.02 -0.05,0.05zm0.26 -0.21c0,0.03 0.02,0.05 0.04,0.05l0.63 0c0.02,0 0.04,-0.02 0.04,-0.05 0,-0.02 -0.02,-0.05 -0.04,-0.05l-0.63 0c-0.02,0 -0.04,0.03 -0.04,0.05zm0.51 0.21c0,0.03 0.02,0.05 0.04,0.05l0.17 0c0.02,0 0.04,-0.03 0.04,-0.05 0,-0.02 -0.02,-0.05 -0.04,-0.05l-0.17 0c-0.02,0 -0.04,0.03 -0.04,0.05zm-0.85 -0.21c0,0.03 0.02,0.05 0.04,0.05l0.18 0c0.02,0 0.04,-0.02 0.04,-0.05 0,-0.02 -0.02,-0.05 -0.04,-0.05l-0.18 0c-0.02,0 -0.04,0.03 -0.04,0.05z"/>
  <rect class="fil0" width="1.7" height="0.26"/>
  <g id="_2804860821392">
   <path class="fil1" d="M0.12 0.82l0 0.04c0,0.02 0.02,0.04 0.04,0.04l0.36 0c0.05,0 0.03,-0.1 0.02,-0.13 -0.05,-0.11 -0.15,-0.09 -0.26,-0.09 -0.09,0 -0.16,0.06 -0.16,0.14z"/>
   <path class="fil1" d="M0.44 0.53c0,-0.03 0,-0.06 -0.03,-0.08 -0.07,-0.08 -0.2,-0.01 -0.18,0.1 0,0.01 0.01,0.03 0.02,0.04 0,0 0,0 0.01,0 0,0 0,0 0,0 0.07,0.08 0.18,0.02 0.18,-0.06z"/>
  </g>
  <g id="_2804860819040">
   <path class="fil2 str0" d="M0.95 1.27c-0.01,0 -0.01,0 -0.02,-0.01 -0.01,0 -0.01,-0.01 -0.01,-0.01 -0.01,-0.01 -0.01,-0.02 -0.01,-0.02 0,-0.01 0,-0.02 0,-0.02l0.34 -0.57c0.01,-0.01 0.01,-0.01 0.02,-0.02 0,0 0.01,0 0.02,0 0,0 0.01,0 0.02,0 0,0.01 0.01,0.01 0.01,0.02l0.34 0.57c0,0 0,0.01 0,0.02 0,0 0,0.01 0,0.01 0,0.01 -0.01,0.02 -0.02,0.02l0 0 0 0c-0.01,0 -0.01,0 -0.02,0l-0.67 0.01zm0.61 -0.08l-0.27 -0.46 -0.27 0.46 0.54 0zm-0.28 -0.16c-0.01,0 -0.02,0 -0.02,-0.01 -0.01,-0.01 -0.02,-0.02 -0.02,-0.03l0 -0.1c0,-0.01 0.01,-0.02 0.02,-0.03 0,-0.01 0.01,-0.01 0.02,-0.01 0.02,0 0.02,0 0.03,0.01 0.01,0.01 0.01,0.02 0.01,0.03l0 0.1c0,0.01 0,0.02 -0.01,0.03 -0.01,0.01 -0.02,0.01 -0.03,0.01zm0.01 0.13c-0.02,0 -0.03,-0.01 -0.04,-0.02 0,-0.01 -0.01,-0.02 -0.01,-0.03 0,0 0,-0.01 0.01,-0.01 0,-0.01 0,-0.01 0,-0.02 0.01,0 0.01,-0.01 0.02,-0.01 0,0 0.01,0 0.02,0 0,0 0.01,0 0.01,0 0.01,0 0.01,0.01 0.02,0.01 0,0.01 0,0.01 0.01,0.02 0,0 0,0.01 0,0.01 0,0.01 -0.01,0.02 -0.01,0.03 -0.01,0.01 -0.01,0.01 -0.02,0.01 0,0 -0.01,0.01 -0.01,0.01z"/>
   <path class="fil3" d="M0.95 1.27c-0.01,0 -0.01,0 -0.02,-0.01 -0.01,0 -0.01,-0.01 -0.01,-0.01 -0.01,-0.01 -0.01,-0.02 -0.01,-0.02 0,-0.01 0,-0.02 0,-0.02l0.34 -0.57c0.01,-0.01 0.01,-0.01 0.02,-0.02 0,0 0.01,0 0.02,0 0,0 0.01,0 0.02,0 0,0.01 0.01,0.01 0.01,0.02l0.34 0.57c0,0 0,0.01 0,0.02 0,0 0,0.01 0,0.01 0,0.01 -0.01,0.02 -0.02,0.02l0 0 0 0c-0.01,0 -0.01,0 -0.02,0l-0.67 0.01zm0.61 -0.08l-0.27 -0.46 -0.27 0.46 0.54 0zm-0.28 -0.16c-0.01,0 -0.02,0 -0.02,-0.01 -0.01,-0.01 -0.02,-0.02 -0.02,-0.03l0 -0.1c0,-0.01 0.01,-0.02 0.02,-0.03 0,-0.01 0.01,-0.01 0.02,-0.01 0.02,0 0.02,0 0.03,0.01 0.01,0.01 0.01,0.02 0.01,0.03l0 0.1c0,0.01 0,0.02 -0.01,0.03 -0.01,0.01 -0.02,0.01 -0.03,0.01zm0.01 0.13c-0.02,0 -0.03,-0.01 -0.04,-0.02 0,-0.01 -0.01,-0.02 -0.01,-0.03 0,0 0,-0.01 0.01,-0.01 0,-0.01 0,-0.01 0,-0.02 0.01,0 0.01,-0.01 0.02,-0.01 0,0 0.01,0 0.02,0 0,0 0.01,0 0.01,0 0.01,0 0.01,0.01 0.02,0.01 0,0.01 0,0.01 0.01,0.02 0,0 0,0.01 0,0.01 0,0.01 -0.01,0.02 -0.01,0.03 -0.01,0.01 -0.01,0.01 -0.02,0.01 0,0 -0.01,0.01 -0.01,0.01z"/>
  </g>
 </g>
</svg>
