<?xml version="1.0" encoding="UTF-8"?>
<!DOCTYPE svg PUBLIC "-//W3C//DTD SVG 1.1//EN" "http://www.w3.org/Graphics/SVG/1.1/DTD/svg11.dtd">
<!-- Creator: CorelDRAW 2020 (64-Bit Evaluation Version) -->
<svg xmlns="http://www.w3.org/2000/svg" xml:space="preserve" width="50px" height="42px" version="1.1" style="shape-rendering:geometricPrecision; text-rendering:geometricPrecision; image-rendering:optimizeQuality; fill-rule:evenodd; clip-rule:evenodd"
viewBox="0 0 29.17 24.37"
 xmlns:xlink="http://www.w3.org/1999/xlink"
 xmlns:xodm="http://www.corel.com/coreldraw/odm/2003">
 <defs>
  <style type="text/css">
   <![CDATA[
    .fil0 {fill:#263674}
    .fil1 {fill:#FDCB08}
   ]]>
  </style>
 </defs>
 <g id="Layer_x0020_1">
  <metadata id="CorelCorpID_0Corel-Layer"/>
  <g id="_2508698495936">
   <path class="fil0" d="M26.98 19.81c-0.29,-0.64 -0.91,-1.71 -1.29,-2.27l-1.4 2.07 0 0c-1.15,1.5 -2.63,2.69 -4.28,3.51 -1.66,0.82 -3.5,1.25 -5.4,1.25 -3.38,0 -6.44,-1.36 -8.64,-3.57 -2.03,-2.03 -3.35,-4.76 -3.55,-7.81l-2.27 -4.29 -0.15 -0.28 0.38 -0.65 0.17 0.33 5.39 10.38 0 0 0.68 1.26c1.25,1.74 2.12,0.68 2.12,0.68 0.75,-0.45 2.21,-3.44 2.73,-4.34 0.18,-0.33 0.34,-0.01 0.34,-0.01l0.59 1c0.58,1.26 1.8,3.16 1.83,3.14 1.1,1.35 2.17,-0.21 2.17,-0.21 1.1,-1.55 2.76,-4.71 3.41,-6.05 0.33,-0.51 2.02,-5.29 2.8,-3.44l4.67 8.78 -0.3 0.52z"/>
   <path class="fil1" d="M20.48 12.48c0.05,-0.23 0.04,-0.35 0.04,-0.35 0.13,-0.78 -0.75,-1.99 -0.85,-2.13 -0.49,-0.77 -0.88,0.04 -0.88,0.04l-3.01 5.61c-0.5,1.17 -0.88,0.15 -0.88,0.15l-2.17 -4.1c-0.2,-0.62 -0.55,-0.14 -0.55,-0.14l-1.67 3.06c-0.63,1.06 -1.26,0.02 -1.26,0.02l-1.07 -1.98c-0.41,0.7 -0.96,2.35 -1.52,1.46l0 0 -4.5 -8.47 -0.27 -0.51 0.38 -0.65 0.29 0.55 0.93 1.76 1.36 -2.03 0 0c1.15,-1.51 2.63,-2.7 4.29,-3.52 1.66,-0.81 3.5,-1.25 5.4,-1.25 3.38,0 6.43,1.36 8.64,3.58 2.04,2.03 3.36,4.79 3.55,7.84l2.44 4.58 -0.37 0.65 -5.51 -10.57 0.01 -0.01 -0.78 -1.44c-1.24,-1.73 -2.12,-0.69 -2.12,-0.69 -0.74,0.46 -2.2,3.45 -2.72,4.36 -0.18,0.33 -0.35,0 -0.35,0l-0.58 -0.99c-0.58,-1.27 -1.8,-3.17 -1.83,-3.15 -1.11,-1.35 -2.17,0.21 -2.17,0.21 -1.1,1.55 -2.77,4.72 -3.42,6.05 -0.78,1.23 -0.71,1.82 -0.71,1.82 -0.13,0.78 0.76,1.99 0.85,2.14 0.49,0.77 0.88,-0.05 0.88,-0.05l3.01 -5.6c0.5,-1.18 0.88,-0.16 0.88,-0.16l2.17 4.11c0.2,0.61 0.56,0.13 0.56,0.13l1.6 -2.98c0.64,-1.05 1.29,-0.16 1.29,-0.16l1.04 1.94c-0.15,0.29 -0.29,0.59 -0.42,0.87z"/>
   <path class="fil1" d="M15.35 20.74c0.61,-0.1 1.05,-0.74 1.05,-0.74 1.09,-1.55 2.76,-4.71 3.41,-6.05l0.03 -0.05 -0.03 0.05c-0.65,1.34 -2.31,4.5 -3.41,6.05 0,0 -0.44,0.64 -1.05,0.74z"/>
   <path class="fil1" d="M8.21 20.72c0.34,-0.06 0.53,-0.3 0.53,-0.3 0.74,-0.45 2.21,-3.44 2.72,-4.34 0.06,-0.11 0.12,-0.15 0.17,-0.15 -0.05,0 -0.11,0.04 -0.16,0.15 -0.52,0.9 -1.98,3.89 -2.73,4.34 0,0 -0.19,0.24 -0.53,0.3z"/>
   <path class="fil1" d="M26.98 19.81c-0.29,-0.64 -0.91,-1.7 -1.3,-2.27l0.01 0c0.38,0.56 1,1.62 1.29,2.26l0 0.01z"/>
  </g>
 </g>
</svg>
