<svg xmlns="http://www.w3.org/2000/svg" xmlns:xlink="http://www.w3.org/1999/xlink" viewBox="0 0 642.61 574.12"><defs><style>.cls-1,.cls-31{fill:#2f539b;}.cls-2{fill:#243993;}.cls-3{fill:#10235e;}.cls-4,.cls-9{fill:#6795ff;}.cls-24,.cls-5,.cls-65{fill:#fff;}.cls-6{fill:#333;}.cls-7{fill:#1a1a1a;}.cls-8{fill:#0058ee;}.cls-31,.cls-9{opacity:0.5;}.cls-16,.cls-31,.cls-39,.cls-65,.cls-9{isolation:isolate;}.cls-10{fill:#e0e0e0;}.cls-11{fill:#05080c;}.cls-12{fill:#fcca07;}.cls-13{fill:#ffd917;}.cls-14{fill:#263674;}.cls-15{fill:#dda905;}.cls-16{opacity:0.1;}.cls-17,.cls-21{fill:#231f20;}.cls-17{fill-rule:evenodd;}.cls-18{fill:#baa393;}.cls-19{fill:#ad917f;}.cls-20{fill:#999;}.cls-22{fill:#b78f74;}.cls-23{fill:#9b6b4b;}.cls-24{stroke:#231f20;stroke-width:0.77px;}.cls-24,.cls-62,.cls-64{stroke-miterlimit:10;}.cls-25{fill:#1b5d9e;}.cls-26{fill:#185384;}.cls-27{fill:#db9c94;}.cls-28{fill:#3668cc;}.cls-29{fill:#181919;}.cls-30{fill:#2b2b2b;}.cls-32{fill:#106ab5;}.cls-33{fill:#ffe65a;}.cls-34{fill:#f4ef89;}.cls-35{fill:#f9bf05;}.cls-36{fill:#d4a205;}.cls-37{fill:#ffc72e;}.cls-38{fill:#ffa50a;}.cls-39{fill:#1e2d64;opacity:0.2;}.cls-40{opacity:0.61;}.cls-41{fill:url(#radial-gradient);}.cls-42{fill:url(#linear-gradient);}.cls-43{fill:url(#linear-gradient-2);}.cls-44{opacity:0.33;}.cls-45{fill:url(#linear-gradient-3);}.cls-46{fill:#53db9d;}.cls-47{fill:#07a863;}.cls-48{fill:#0d7c49;}.cls-49{fill:#16b56d;}.cls-50{fill:#39b278;}.cls-51{fill:#41c486;}.cls-52{fill:url(#radial-gradient-2);}.cls-53{fill:url(#linear-gradient-4);}.cls-54{fill:url(#linear-gradient-5);}.cls-55{fill:url(#linear-gradient-6);}.cls-56{fill:url(#radial-gradient-3);}.cls-57{fill:url(#linear-gradient-7);}.cls-58{fill:url(#linear-gradient-8);}.cls-59{fill:url(#linear-gradient-9);}.cls-60{fill:url(#linear-gradient-10);}.cls-61{fill:#7ce8b4;}.cls-62,.cls-64{fill:none;stroke-linecap:round;}.cls-62{stroke:#1e2d64;stroke-width:4.18px;}.cls-63{fill:#ffc305;}.cls-64{stroke:#ffe65a;stroke-width:1.48px;}.cls-65{opacity:0.38;}.cls-66{fill:#fa870a;}</style><radialGradient id="radial-gradient" cx="568.24" cy="-7282.56" r="74.24" gradientTransform="matrix(1, 0, 0, -1, 0, -7246.55)" gradientUnits="userSpaceOnUse"><stop offset="0" stop-color="#3fa9f5" stop-opacity="0"/><stop offset="0.19" stop-color="#3fa9f5" stop-opacity="0.01"/><stop offset="0.32" stop-color="#3fa9f5" stop-opacity="0.05"/><stop offset="0.44" stop-color="#3fa9f5" stop-opacity="0.11"/><stop offset="0.55" stop-color="#3fa9f5" stop-opacity="0.21"/><stop offset="0.65" stop-color="#3fa9f5" stop-opacity="0.32"/><stop offset="0.75" stop-color="#3fa9f5" stop-opacity="0.47"/><stop offset="0.84" stop-color="#3fa9f5" stop-opacity="0.64"/><stop offset="0.93" stop-color="#3fa9f5" stop-opacity="0.83"/><stop offset="1" stop-color="#3fa9f5"/></radialGradient><linearGradient id="linear-gradient" x1="618.85" y1="-7288.91" x2="620.44" y2="-7358.37" gradientTransform="matrix(1, 0, 0, -1, 0, -7246.55)" xlink:href="#radial-gradient"/><linearGradient id="linear-gradient-2" x1="592.85" y1="-7308.53" x2="593.12" y2="-7361.56" gradientTransform="matrix(1, 0, 0, -1, 0, -7246.55)" xlink:href="#radial-gradient"/><linearGradient id="linear-gradient-3" x1="593.1" y1="-7244.65" x2="592.84" y2="-7300.59" gradientTransform="matrix(1, 0, 0, -1, 0, -7246.55)" xlink:href="#radial-gradient"/><radialGradient id="radial-gradient-2" cx="63.58" cy="-7418.33" r="74.24" xlink:href="#radial-gradient"/><linearGradient id="linear-gradient-4" x1="114.19" y1="-7424.68" x2="115.78" y2="-7494.14" gradientTransform="matrix(1, 0, 0, -1, 0, -7246.55)" xlink:href="#radial-gradient"/><linearGradient id="linear-gradient-5" x1="88.15" y1="-7444.3" x2="88.41" y2="-7497.33" gradientTransform="matrix(1, 0, 0, -1, 0, -7246.55)" xlink:href="#radial-gradient"/><linearGradient id="linear-gradient-6" x1="25.44" y1="-7338.42" x2="25.18" y2="-7394.36" gradientTransform="matrix(1, 0, 0, -1, 0, -7246.55)" xlink:href="#radial-gradient"/><radialGradient id="radial-gradient-3" cx="25.64" cy="-7628.84" r="74.24" xlink:href="#radial-gradient"/><linearGradient id="linear-gradient-7" x1="55.93" y1="-7658.44" x2="56.2" y2="-7711.46" gradientTransform="matrix(1, 0, 0, -1, 0, -7246.55)" xlink:href="#radial-gradient"/><linearGradient id="linear-gradient-8" x1="56.23" y1="-7594.55" x2="55.96" y2="-7650.5" gradientTransform="matrix(1, 0, 0, -1, 0, -7246.55)" xlink:href="#radial-gradient"/><linearGradient id="linear-gradient-9" x1="65.87" y1="-7335.87" x2="67.46" y2="-7405.34" gradientTransform="matrix(1, 0, 0, -1, 0, -7246.55)" xlink:href="#radial-gradient"/><linearGradient id="linear-gradient-10" x1="631.49" y1="-7472.08" x2="633.09" y2="-7541.55" gradientTransform="matrix(1, 0, 0, -1, 0, -7246.55)" xlink:href="#radial-gradient"/></defs><g id="Layer_2" data-name="Layer 2"><g id="Layer_1-2" data-name="Layer 1"><g id="Layer_2-2" data-name="Layer 2"><g id="Layer_1-2-2" data-name="Layer 1-2"><path class="cls-1" d="M247.34,135.71h4.43v64.92h-4.43a1.09,1.09,0,0,1-1.09-1.09V136.8A1.09,1.09,0,0,1,247.34,135.71Z"/><path class="cls-1" d="M512.81,106.94h-4.43V85.19h4.43a1.09,1.09,0,0,1,1.09,1.09v19.57A1.09,1.09,0,0,1,512.81,106.94Z"/><path class="cls-1" d="M512.81,162.81h-4.43v-41h4.43a1.09,1.09,0,0,1,1.09,1.09v38.83a1.09,1.09,0,0,1-1.09,1.09Z"/><path class="cls-1" d="M512.81,213.27h-4.43v-41h4.43a1.09,1.09,0,0,1,1.09,1.09v38.82A1.09,1.09,0,0,1,512.81,213.27Z"/><path class="cls-2" d="M249,52.42V510a38,38,0,0,0,38,38H472.74a38,38,0,0,0,38-38V52.42a38,38,0,0,0-38-38H287.05A38,38,0,0,0,249,52.37Z"/><rect class="cls-3" x="248.73" y="8.38" width="262.32" height="545.63" rx="13.39"/><rect class="cls-4" x="259.05" y="24.42" width="241.68" height="513.54" rx="11.22"/><rect class="cls-5" x="261.05" y="26.43" width="237.67" height="509.53" rx="10.35"/><path class="cls-2" d="M449.29,23.58a11.58,11.58,0,0,0-4.82,8.26c-.67,6.46-3,14.36-12.88,14.36H328.19c-9.87,0-12.21-7.9-12.88-14.36a11.58,11.58,0,0,0-4.82-8.26Z"/><path class="cls-6" d="M396.39,33.27v.84a1.56,1.56,0,0,1-1.54,1.55H364.93a1.56,1.56,0,0,1-1.54-1.55v-.84a1.55,1.55,0,0,1,.73-1.31,1.38,1.38,0,0,1,.81-.24h29.92a1.38,1.38,0,0,1,.81.24A1.55,1.55,0,0,1,396.39,33.27Z"/><path class="cls-7" d="M395.89,32.72v.52a1.42,1.42,0,0,1-1.4,1.41h-29.2a1.42,1.42,0,0,1-1.4-1.41v-.52a1.36,1.36,0,0,1,.23-.76,1.38,1.38,0,0,1,.81-.24h29.92a1.38,1.38,0,0,1,.81.24A1.36,1.36,0,0,1,395.89,32.72Z"/><path d="M412.23,34.25a3.5,3.5,0,1,1-3.51-3.49h0A3.5,3.5,0,0,1,412.23,34.25Z"/><path class="cls-6" d="M413.75,34.25a5,5,0,1,1-5-5A5,5,0,0,1,413.75,34.25Z"/><path d="M412.84,34.25a4.11,4.11,0,1,1-4.12-4.1h0A4.11,4.11,0,0,1,412.84,34.25Z"/><path class="cls-8" d="M409.7,30.91a3.49,3.49,0,0,1-2.87,5.49,3.37,3.37,0,0,1-1-.15,3.49,3.49,0,1,0,3.84-5.34Z"/><path class="cls-5" d="M408.06,31.28c.23.28,0,.86-.55,1.29s-1.16.54-1.38.25,0-.86.55-1.29S407.83,31,408.06,31.28Z"/><path class="cls-4" d="M287.39,42.94c0,1.18-1,1.64-2.08,1.64s-2.06-.46-2.06-1.64a1.4,1.4,0,0,1,1.05-1.33,1.15,1.15,0,0,1-.8-1.16c0-.89.7-1.49,1.89-1.49s1.87.6,1.87,1.49a1.2,1.2,0,0,1-.9,1.16A1.4,1.4,0,0,1,287.39,42.94Zm-1.14,0a.83.83,0,0,0-.78-.88h-.16a.86.86,0,0,0-.93.77v.1a.83.83,0,0,0,.79.87h.15a.8.8,0,0,0,.92-.68.66.66,0,0,0,0-.2Zm-1.63-2.42a.68.68,0,0,0,.6.75h.14a.75.75,0,1,0-.74-.76Z"/><path class="cls-4" d="M289.37,40.85a.66.66,0,1,1-.66-.66.63.63,0,0,1,.66.6Zm0,3.07a.66.66,0,1,1-1.31.16.43.43,0,0,1,0-.16.66.66,0,1,1,1.31-.16A.43.43,0,0,1,289.37,43.92Z"/><path class="cls-4" d="M294.17,42.91c0,1-.88,1.67-2.1,1.67A1.84,1.84,0,0,1,290,43s0-.09,0-.13v-.07h1.08v.07a1,1,0,0,0,1,.89A.84.84,0,0,0,293,43v0c0-.54-.37-.83-1.07-.85h-.18V41.4H292a.86.86,0,0,0,.95-.77v-.08a.7.7,0,0,0-.67-.73h-.1a.85.85,0,0,0-.84.86h0v.07h-1.08v-.07a1.83,1.83,0,0,1,2-1.66h0c1.17,0,1.79.62,1.79,1.4a1.22,1.22,0,0,1-1,1.25A1.26,1.26,0,0,1,294.17,42.91Z"/><path class="cls-4" d="M299.1,41.77c0,1.69-.57,2.81-2.09,2.81s-2.11-1.12-2.11-2.81S295.47,39,297,39,299.1,40.06,299.1,41.77Zm-1.14,0c0-1.38-.3-2-.95-2s-1,.63-1,2,.3,2,1,2,1-.64,1-2Z"/><rect class="cls-4" x="449.03" y="42.15" width="1.59" height="2.6"/><rect class="cls-4" x="451.31" y="41.1" width="1.59" height="3.65"/><rect class="cls-4" x="453.59" y="40.08" width="1.59" height="4.67"/><rect class="cls-4" x="455.87" y="38.93" width="1.59" height="5.82"/><path class="cls-4" d="M460.93,41.89a5,5,0,0,1,7.07,0h0l1.07-1.07a6.57,6.57,0,0,0-9.22,0Z"/><path class="cls-4" d="M462.36,43.32a3,3,0,0,1,4.22,0l1.07-1.07a4.55,4.55,0,0,0-6.36,0Z"/><path class="cls-4" d="M463.79,44.75a1,1,0,0,1,1.36,0l1.08-1.07a2.55,2.55,0,0,0-3.52,0Z"/><rect class="cls-4" x="471.32" y="39.63" width="10.13" height="4.41" rx="0.12"/><rect class="cls-4" x="481.68" y="40.89" width="0.81" height="1.9" rx="0.12"/><path class="cls-9" d="M473.26,403.36H286.52a6.21,6.21,0,0,1-6.19-6.19h0a6.21,6.21,0,0,1,6.19-6.2H473.26a6.22,6.22,0,0,1,6.2,6.2h0A6.22,6.22,0,0,1,473.26,403.36Z"/><path class="cls-9" d="M473.26,426.49H286.52a6.21,6.21,0,0,1-6.19-6.19h0a6.21,6.21,0,0,1,6.19-6.2H473.26a6.22,6.22,0,0,1,6.2,6.2h0A6.22,6.22,0,0,1,473.26,426.49Z"/><path class="cls-9" d="M473.26,449.62H286.52a6.21,6.21,0,0,1-6.19-6.19h0a6.21,6.21,0,0,1,6.19-6.2H473.26a6.22,6.22,0,0,1,6.2,6.2h0A6.22,6.22,0,0,1,473.26,449.62Z"/><path class="cls-9" d="M473.26,472.75H286.52a6.21,6.21,0,0,1-6.19-6.19h0a6.21,6.21,0,0,1,6.19-6.2H473.26a6.22,6.22,0,0,1,6.2,6.2h0A6.22,6.22,0,0,1,473.26,472.75Z"/><path class="cls-9" d="M473.26,495.88H286.52a6.2,6.2,0,0,1-6.19-6.19h0a6.21,6.21,0,0,1,6.19-6.2H473.26a6.22,6.22,0,0,1,6.2,6.2h0A6.21,6.21,0,0,1,473.26,495.88Z"/><path class="cls-10" d="M484.34,329.82c0,4.57-37.34,8.27-83.41,8.27s-83.41-3.7-83.41-8.27,37.34-8.26,83.41-8.26S484.34,325.26,484.34,329.82Z"/><path class="cls-11" d="M374.25,176.26a1.47,1.47,0,0,1-.84.4h-.28a1.39,1.39,0,0,1-.94-.44,13.7,13.7,0,0,0-6.07-3.08c-3.39-.87-8.23-1.07-14.63,1.1a1.45,1.45,0,0,1-1.85-.88v0a1.46,1.46,0,0,1,.92-1.86c7.15-2.42,12.63-2.15,16.53-1.1a16.88,16.88,0,0,1,7,3.62l.21.2A1.47,1.47,0,0,1,374.25,176.26Z"/><path d="M374.07,174c-.23.93-.46,1.85-.66,2.67h-.28a1.39,1.39,0,0,1-.94-.44,13.7,13.7,0,0,0-6.07-3.08,3.15,3.15,0,0,1,1-.85,6.18,6.18,0,0,1-.06-1.92A16.75,16.75,0,0,1,374.07,174Z"/><path class="cls-11" d="M377.74,176.82a1.45,1.45,0,0,1-1.89.82h0c-.85-.34-1.67-.62-2.46-.86a22.32,22.32,0,0,0-8-1,13.51,13.51,0,0,0-8,2.84,1.46,1.46,0,0,1-1.12.4,1.43,1.43,0,0,1-.95-.44,1.47,1.47,0,0,1,0-2.07c.22-.2,3.95-3.69,11.12-3.71A26.43,26.43,0,0,1,374,174c.91.27,1.86.6,2.84,1A1.46,1.46,0,0,1,377.74,176.82Z"/><path d="M374.08,173.93c-.25,1-.49,2-.7,2.85a22.32,22.32,0,0,0-8-1,3.59,3.59,0,0,1,1.11-3A26.4,26.4,0,0,1,374.08,173.93Z"/><path class="cls-12" d="M479.56,255.86v2.43a78.46,78.46,0,0,1-35.18,65.49,46.55,46.55,0,0,1-25.75,7.63h-35.2a46.55,46.55,0,0,1-25.73-7.62,78.45,78.45,0,0,1-35.2-65.5s-6.27-32.82,40.69-78.06c.81-.78,1.65-1.57,2.5-2.37Q367.79,176,370,174l.65-.58h0c.56-.48,1.12-1,1.68-1.47.36-.3.7-.61,1.06-.92l.06-.05.49-.41-.13-.18-.55-.77c-8-11.32-20.07-30.4-12.57-32.22,10.73-2.62,23.17,6.16,23.17,6.16s5.12-11,15.6-11h2.92c10.49,0,15.61,11,15.61,11l.1-.07h0l.14-.09.13-.09.84-.54.35-.21c.26-.16.55-.33.86-.5l.24-.14.77-.43.85-.45q.3-.14.6-.3l.34-.17.93-.44.32-.15.76-.33,1.48-.6.77-.28.39-.14.41-.14c.51-.17,1-.33,1.57-.49l1.32-.34.43-.1.43-.09h.28a2.7,2.7,0,0,1,.41-.08h.2l.35-.07h.27l.69-.09c.32,0,.65-.07,1-.09h.83a18.42,18.42,0,0,1,5.07.48c7.55,1.83-4.77,21.15-12.72,32.44l-.39.55h0l-.12.18,1.2,1h0l.38.33c.83.72,1.64,1.44,2.45,2.16h0l.19.17.21.2,1.83,1.65c.77.7,1.51,1.39,2.25,2.08l.45.43.9.85,1.76,1.7,1.72,1.68c.84.85,1.67,1.68,2.47,2.52l.8.82.33.34c.69.72,1.35,1.43,2,2.13,1,1.09,2,2.17,2.95,3.25l.7.8c1.17,1.33,2.29,2.65,3.36,3.94l.67.81c.53.65,1.05,1.3,1.55,1.94l1.5,1.92.87,1.15c.57.75,1.12,1.5,1.66,2.25l.8,1.11.52.74.92,1.32c.2.3.39.59.59.87l.95,1.43c1.25,1.92,2.4,3.79,3.47,5.61l.39.68c.35.6.69,1.2,1,1.79l.13.23c.22.39.43.78.64,1.17s.29.54.42.8l.34.66c.59,1.14,1.14,2.26,1.66,3.36.17.35.33.71.49,1l.27.62c.19.41.37.81.54,1.21.69,1.59,1.29,3.12,1.85,4.61h0c.14.38.27.75.41,1.11h0q.38,1.08.72,2.13c.23.71.44,1.4.64,2.08.1.34.2.67.29,1a.63.63,0,0,0,.09.33l.18.66a1.78,1.78,0,0,0,.1.38l.15.59c.24.94.45,1.86.63,2.74v.1l.15.78c.06.29.12.57.17.85v.18a3.68,3.68,0,0,0,.11.65c0,.22.12.72.17,1.07s.11.79.16,1.16v.16a4.91,4.91,0,0,0,.08.67c.09.78.16,1.51.21,2.2v.43a8.24,8.24,0,0,0,.06,1.23v1A6.48,6.48,0,0,1,479.56,255.86Z"/><circle class="cls-5" cx="400.66" cy="253.24" r="35.18" transform="translate(-61.72 357.49) rotate(-45)"/><path class="cls-13" d="M426.38,266.37c.13-4.88-2.78-8-9.41-9.73-4.8-1.26-6.39-2.58-6.33-5.12S412.58,248,415,248c3.16.08,4.82,2.05,5.1,5.13l6.18.16c-.44-4.64-2.87-8.38-8.11-9.47l.11-4.53-6.16-.16-.12,4.66c-4.29.9-7.62,3.82-7.73,8.29-.14,5.57,3.71,7.82,9.86,9.47,4.45,1.16,6,2.69,5.93,5.24-.06,2.33-2.29,3.76-5.06,3.69a6,6,0,0,1-6.15-5.2l-6.18-.16c.33,5.18,3.5,8.32,8.56,9.42l-.12,4.64,6.16.16.11-4.46C422.29,274.28,426.26,271.29,426.38,266.37Z"/><circle class="cls-5" cx="400.66" cy="253.24" r="35.18" transform="translate(-61.72 357.49) rotate(-45)"/><path class="cls-14" d="M412.53,260.35c.12-4.88-2.79-8-9.42-9.73-4.8-1.26-6.39-2.58-6.33-5.12s1.94-3.55,4.35-3.49c3.16.08,4.83,2.05,5.1,5.13l6.19.16c-.45-4.64-2.88-8.38-8.12-9.47l.11-4.53-6.16-.16-.11,4.66c-4.3.9-7.63,3.82-7.74,8.29-.14,5.57,3.71,7.82,9.86,9.47,4.45,1.16,6,2.69,5.93,5.24-.06,2.32-2.29,3.76-5.05,3.69a6,6,0,0,1-6.15-5.2l-6.19-.16c.33,5.18,3.51,8.32,8.56,9.42l-.12,4.64,6.16.15.11-4.45C408.43,268.26,412.4,265.27,412.53,260.35Z"/><path class="cls-15" d="M390.54,173.54s-5.43-15.76-11.1-24.17a63.37,63.37,0,0,1,16.28,25Z"/><path class="cls-15" d="M411.32,173.54s5.43-15.76,11.1-24.17a63.37,63.37,0,0,0-16.28,25Z"/><path class="cls-15" d="M479.59,253.57v-1.06a8.65,8.65,0,0,0-.06-1.23v-.43c0-.69-.12-1.42-.21-2.2a2,2,0,0,0-.08-.67v-.16c-.05-.38-.1-.76-.16-1.16s-.11-.71-.17-1.07-.07-.43-.11-.65v-.18c-.05-.28-.11-.56-.17-.85l-.15-.78V243c-.18-.88-.39-1.8-.63-2.74l-.15-.59a1.78,1.78,0,0,0-.1-.38l-.18-.66a.75.75,0,0,0-.09-.33c-.09-.33-.19-.66-.29-1-.2-.68-.41-1.37-.64-2.08s-.47-1.41-.72-2.13h0c-.14-.36-.27-.73-.41-1.11h0c-.56-1.49-1.16-3-1.85-4.61-.17-.4-.35-.8-.54-1.21l-.27-.62c-.16-.34-.33-.69-.49-1-.52-1.1-1.07-2.22-1.66-3.36-.11-.22-.22-.44-.34-.66s-.28-.52-.42-.8-.42-.78-.64-1.17l-.13-.23c-.32-.59-.65-1.19-1-1.79l-.39-.68c-1.07-1.82-2.22-3.69-3.47-5.61l-.95-1.43c-.2-.28-.39-.57-.59-.87l-.92-1.32-.52-.74-.8-1.11c-.54-.75-1.09-1.5-1.66-2.25l-.87-1.15-1.5-1.92-1.55-1.94-.67-.81c-1.08-1.3-2.19-2.61-3.36-3.94l-.7-.8c-1-1.07-1.94-2.16-3-3.25-.76-.82-1.54-1.64-2.34-2.47l-.8-.82-2.47-2.52-1.72-1.68-1.76-1.7-.9-.85-.45-.43c-1.39-1.3-2.81-2.61-4.29-3.93l-.19-.17c-.8-.71-1.62-1.44-2.45-2.16l-.38-.33-1.22-1,.12-.18h0l.39-.55c7.95-11.29,20.27-30.61,12.72-32.44a18.42,18.42,0,0,0-5.07-.48h-.83a3.8,3.8,0,0,0-1,.09l-.69.09h-.27l-.35.07a.67.67,0,0,0-.2,0,2.7,2.7,0,0,0-.41.08h-.28l-.43.09-.43.1-1.32.34c-.54.16-1.06.32-1.57.49l-.41.14-.39.14-.77.28c-.51.19-1,.4-1.48.6l-.76.33-.32.15-.93.44-.34.17-.6.3-.85.45-.77.43-.24.14c-.31.17-.6.34-.86.5l-.35.21-.84.54-.13.09-.14.09h0c-1.5,6.08-7.27,15.48-12.34,22.92l-1.28,1.8c-.31.41-.65.82-1,1.23-.61.73-1.24,1.47-1.9,2.16a19.12,19.12,0,0,1-3.33,2.83c3.37,1.56,11.19,5.4,16.49,9.74a102.62,102.62,0,0,1,12.87,11.42c25.69,30.5,27.05,53.26,26.69,60.48v2.43a78.54,78.54,0,0,1-49.85,73.12h14a46.55,46.55,0,0,0,25.75-7.63,78.46,78.46,0,0,0,35.18-65.49v-2.43C479.59,255.22,479.61,254.46,479.59,253.57Z"/><path class="cls-15" d="M444.88,186.51c-42.12-12.75-71.72-8.44-81.65-6.28.81-.78,1.65-1.57,2.5-2.37L370,174l.65-.58h0c.56-.48,1.12-1,1.68-1.47.36-.3.7-.61,1.06-.92l.06-.05c7.54-2.1,16.65-3.09,28.17-3.15a101.81,101.81,0,0,1,27.49,3.78h0l.38.33c.83.72,1.64,1.44,2.45,2.16h0l.19.17.21.2,1.83,1.65c.77.7,1.51,1.39,2.25,2.08l.45.43.9.85,1.76,1.7,1.72,1.68c.84.85,1.67,1.68,2.47,2.52l.8.82Z"/><path d="M433.55,175.49c-.19-4.44-5.11-5.69-5.11-5.69a110,110,0,0,0-22.68-3.43c-1.78-.08-3.55-.12-5.33-.12a111,111,0,0,0-27.16,3.33s-5.11,1.75-5,5.91l4.05-2.56c1.46-.4,2.93-.78,4.43-1.13a106.87,106.87,0,0,1,23.64-2.63c1.08,0,2.17,0,3.25.06a106.55,106.55,0,0,1,24.4,3.71Z"/><path d="M438.7,180.31a10.26,10.26,0,0,0-2.25-3.92,12.83,12.83,0,0,0-4.29-2.15,172,172,0,0,0-30.38-2.85H400.4a176.41,176.41,0,0,0-20.29,1.14c-3.06.35-6.06.77-9,1.28L370,174s-4.38.9-6.11,3.28-1.58,3.87-1.58,3.87l4.24-3.45c2.51-.52,5.08-1,7.71-1.41a165.08,165.08,0,0,1,18.7-1.83c1.78-.07,3.57-.12,5.37-.14h2.1A164.65,164.65,0,0,1,435.7,178Z"/><path class="cls-16" d="M94.86,544.65c-7.18-2.16-11.26-4.59-11.26-7.17,0-8.73,46.29-15.81,103.4-15.81s103.4,7.08,103.4,15.81c0,5.84-20.72,10.93-51.51,13.67,7.18,2.15,11.25,4.58,11.25,7.17,0,8.73-46.29,15.8-103.4,15.8s-103.4-7.07-103.4-15.8C43.34,552.48,64.06,547.38,94.86,544.65Z"/><path class="cls-17" d="M245.24,113.38l31.13-23.31c2.74-.8,3.68-5,1.22-6.71,2.68-2.8,1.89-8-2.66-8.26,1.38-3.84-2.15-7.56-6.19-5.47.13-3.87-4.55-6.35-7.84-2.93a5.15,5.15,0,0,0-9.73.3c-3.09-4.38-9.89-.9-8.56,4a4.62,4.62,0,0,0-5.73,6.52c-3.35.51-4.12,5.16-1.28,7.24-4.34,1.34-3.88,6.83,0,8.43-2.52,3.6.16,7.37,3.66,6.18a55.05,55.05,0,0,0,6,14Z"/><path class="cls-18" d="M324.74,91.41a33.32,33.32,0,0,0,.91,3.25,18.74,18.74,0,0,1,.51,3.33c.41,5.32,8,11.69,9,14.16a21.14,21.14,0,0,1,.62,5.66c.11,4.82-.2,10.76-.57,10.76.84.59,17.33,12,18.38,13.35-.09-1,.6-8,1.26-16.37.89-11.63,1.72-25.94.22-30.63-2.67-8.41-6.78-7.4-6.78-7.4C343.61,84,342.57,84,342.57,84c-4.71-2.67-6.76-1.64-6.76-1.64L334,81c-5.56-1.85-8.83,3.46-9.23,7.79A10.44,10.44,0,0,0,324.74,91.41Z"/><path class="cls-19" d="M335.22,128.57c.85.59,17.33,12,18.4,13.36-.1-1.05.59-8,1.24-16.38-4.08-2.84-10.2-5.88-19.06-7.73C335.91,122.63,335.6,128.57,335.22,128.57Z"/><path class="cls-5" d="M356.87,140l2.18-7.86s-9.22-8.59-25.84-10.64L331,129.73Z"/><path class="cls-20" d="M268.46,131.71a2.81,2.81,0,0,0,.05-2c-.43-.75-2.66-1.59-2.66-1.59L247.69,126l1,5.42,15.11,4.84s5.16-2.52,5.13-2.52S268.46,131.71,268.46,131.71Z"/><path class="cls-18" d="M248.2,134.48a98.21,98.21,0,0,0,12.4,44.58c7.2-20.35,7.06-47,7.06-47s.08-5.37.06-10.18c0-3.8-.15-7.27-.46-7.47l-18.55.42-.34,13Z"/><path class="cls-19" d="M248.37,127.79c9.27.44,15.56-2.86,19.35-5.92,0-3.8-.15-7.27-.46-7.47l-18.55.42Z"/><path class="cls-21" d="M239.27,102.22s-2.59-18.82,14.29-22.68l-1.19,21.35Z"/><path class="cls-22" d="M243.92,109.39a3.91,3.91,0,0,1-1.92-.13c-3.6-1.12-6.31-6.87-4.21-8.8a2.58,2.58,0,0,1,1.45-.73c1.89-.28,3.46,2,3.46,2Z"/><path class="cls-23" d="M243.92,109.39a3.91,3.91,0,0,1-1.92-.13,30.87,30.87,0,0,1-2.76-9.53c1.89-.28,3.46,2,3.46,2Z"/><path class="cls-18" d="M275.22,102.38c.24,11.49-6.88,20.94-15.89,21.13s-16.5-9-16.73-20.47a23.51,23.51,0,0,1,5.25-15.77l.18-.22a13.78,13.78,0,0,1,21.6.12,22.14,22.14,0,0,1,4.84,9.48A25.22,25.22,0,0,1,275.22,102.38Z"/><path class="cls-19" d="M274.47,96.65c-13.42,2.58-26-4.2-26-4.2l-.62-5.18v-.21h.2l21.6.12A22.13,22.13,0,0,1,274.47,96.65Z"/><path class="cls-21" d="M274.92,87.48s.87-1.34-1-4.15c-2.2-3.33-8.53-4.7-15-4.45h-.08c-10.65-.46-20.17,9.85-17.84,24.19,0,0,1.74,7,3.2,9.33l4.06-2.77s-2.69-4.37-3.1-7.2a28.21,28.21,0,0,1-.12-5.81s4.36-1,5.71-4.39a25.17,25.17,0,0,0,9,1.69h0C284.83,96.27,274.92,87.48,274.92,87.48Z"/><path class="cls-24" d="M350.12,139.26v-.12C350.09,139.23,350.11,139.27,350.12,139.26Z"/><path class="cls-24" d="M350.12,139.26v-.12C350.09,139.23,350.11,139.27,350.12,139.26Z"/><path class="cls-25" d="M285.62,133.42l10.21,13.07,7.56,41.44a80.39,80.39,0,0,0,18.55,7c7.11,1.51,14.3,1.31,17.62-4.08,7.68-12.49,20.14-51.38,20.14-51.38-10.33-11-29.32-13-29.32-13-2.63,8.17-9.56,30.48-9.56,30.48s0,1.82-5.77-4.15a151,151,0,0,0-17.61-15.72,62.35,62.35,0,0,0-8-5.36Z"/><path class="cls-26" d="M285.62,133.42l10.21,13.07,7.56,41.44a80.39,80.39,0,0,0,18.55,7,151.35,151.35,0,0,0-9.77-34.34,79,79,0,0,0-14.73-23.48,62.35,62.35,0,0,0-8-5.36Z"/><path class="cls-27" d="M194.39,78.66c.3-.09,0-3.84,3.83-5.1s6.57,5.1,3.82,15Z"/><path class="cls-19" d="M194.39,78.66c.3-.09,0-3.84,3.83-5.1s6.57,5.1,3.82,15Z"/><path class="cls-18" d="M171.22,140.71a37.28,37.28,0,0,0,20,1.27l2.85-14L197,113.55a16.17,16.17,0,0,0,4-10.12c.08-3-.91-5.71-1.18-8.63-.23-2.72,4-3.78,3.2-6.89s-.78-7.45-5.36-10.06-8.66-6.15-13.5-3.14-5,5.35-9.1,9,.73,9.66,2.69,15.55c1.9,5.68,1.11,21.59.11,24.81a.92.92,0,0,1-.11.29C176.71,126.75,171.22,140.71,171.22,140.71Z"/><path class="cls-19" d="M171.22,140.71a37.28,37.28,0,0,0,20,1.27l2.85-14a43.56,43.56,0,0,1-16.22-3.89.92.92,0,0,1-.11.29C176.71,126.75,171.22,140.71,171.22,140.71Z"/><path class="cls-28" d="M333.19,310.8s-2.53-1.15-11.72-3.64S299.68,304,299.68,304l-14.06-46.84h32.07Z"/><path class="cls-21" d="M259.56,497.08s3.36,5.53,13.45,8.89,14.65,5.29,14.9,12-40.36,1.92-54.05,0l-5.05-1.44,6.51-20.42Z"/><path d="M230.49,500.69h34.05l3.37-10.09s11.23-20.9,17-40.72,22.7-79.27,24.86-120c1.34-25.24-1.42-43-3.71-52.86a70.5,70.5,0,0,0-2.66-9.12l-6,.38-28.65,1.78s-.22,5.59-.65,16.09c-.13,3.76-.3,8.17-.52,13.17-.27,6.82-.6,14.74-1,23.71-1.45,33.87-17.3,84.67-21.62,114.22S230.49,500.69,230.49,500.69Z"/><path class="cls-29" d="M230.49,500.69H260.7c11.2-40.92,27.82-132,29.61-153,1.91-22.57,0-54.05,0-54.05l-22.79,5.72c-.27,6.82-.6,14.74-1,23.71-1.45,33.87-17.3,84.67-21.62,114.22S230.49,500.69,230.49,500.69Z"/><path class="cls-21" d="M241.66,514c1.45.72,2.56,10.45,12.09,20.54s11,17.29,3.77,19.09-22.7.36-39.28-14.41c0,0-6.29-2.27-8.37-5.1s-2.08-16.16,3.33-22.28S241.66,514,241.66,514Z"/><path class="cls-30" d="M209.87,514.38c13.62,10.45,35.76,5.4,35.76,5.4a206.34,206.34,0,0,0,9.45-19.09c3.53-8.16,6.91-17.63,7.84-25.59,2.16-18.37,19.1-103,25.95-148.81,3.05-20.41,5.24-34.72,6.67-44.5.89-6.16,1.5-10.53,1.8-13.49s.38-4.47.17-5.06l-74.22,4.68s-1.07,6.9-2.11,17.12a341.6,341.6,0,0,0-1.86,37.29c.36,26.66,10.09,79.63,7,95.48s-2.32,49.73-9.53,68.46S209.87,514.38,209.87,514.38Z"/><path class="cls-31" d="M221.18,285A318.9,318.9,0,0,0,261,286.41c2.45,0,4.79-.13,7-.24,12-.64,20.91-2.28,27.5-4.38A43.66,43.66,0,0,0,306.05,277a70.5,70.5,0,0,0-2.66-9.12l-6.05.38c.33-2.9.38-4.47.17-5.06l-74.22,4.68S222.22,274.82,221.18,285Z"/><path class="cls-5" d="M210,147.57c1.44,9.37,10.44,64.51,7.56,78.91s-1.07,35.68,0,45.76,62.69,6.85,76.75,4.69,13-3.61,13-3.61c5-7.57,7.92-23.06,0-54s-8.66-68.09-16.94-76c-3.58-3.41-8.44-5.63-12.8-7A55.91,55.91,0,0,0,267,134s-10-1.24-20.78-1.87c-2.2-.12-4.43-.24-6.61-.29C226.53,131.36,208.51,138.21,210,147.57Z"/><path class="cls-9" d="M254.5,163.18l7.9-13.57,11.48-2s6.22,1.64,6.71,1.93c-.14-.61-1.68-7.33-3.08-13.36a55.91,55.91,0,0,0-10.62-2.32s-1.48,4-3.91,3.73c-3.89-.42-10.22-5.21-16.87-5.6a76.33,76.33,0,0,1-4.54,6.2C241,138.53,254.5,163.18,254.5,163.18Z"/><path class="cls-32" d="M182.38,323.41s19.65,4.32,36,5.76,28.29,11.71,35.18,5.22,11.66-38.91,11.66-50.62,6.48-53,4.7-64.13c-.72-4.4-1.2-8.09-2-12.7-1.33-7.11-3.52-16.4-8.76-33.78-8.65-28.64-16.59-41.07-16.59-41.07l-8.77-.1s-30.84-.51-34.11,3.33c-3.57,4.23.26,19.5.76,35.69q.13,3.77,0,7.55c-.37,7.77,1.18,17.1,2.64,26.61,2.07,13.43,4,27.27.07,37.7C196.45,260.71,182.38,323.41,182.38,323.41Z"/><path class="cls-26" d="M203,205.17c6.8-7.86,14.15-19.83,14.48-35.13.64-28.82-11.8-35.68-11.8-35.68s-1.53,6.37-2.06,6.07l2.16,12.36L200.44,171q.13,3.76,0,7.55C200,186.33,201.58,195.66,203,205.17Z"/><path class="cls-26" d="M233.2,132.06c5.68-1.55,15.17-4.27,15.17-4.27s2.13,16.73,10.78,45.37c5.24,17.38,7.43,26.67,8.76,33.78-3.29-4.24-8.45-10.74-15.08-18.46a135.91,135.91,0,0,1-18.37-27.93l4.86-5.94-7.38-3.07C231.78,143.41,234,136.51,233.2,132.06Z"/><path class="cls-32" d="M271.21,136.76c1.36,2.46,20.72,38,25.76,55.13.92,3.15,1.83,6.69,2.68,10.49a374,374,0,0,1,7.42,50.94c.89,15.15,1.25,25,6.84,38.92s16,28.47,18.2,27.38,6.66-9.37,3.24-21.62-11.89-61.42-11.89-61.42-4.87-38.2-11.3-61.81-16.81-40.89-22.76-43.06-19.55,0-19.55,0v.73A9.08,9.08,0,0,0,271.21,136.76Z"/><path class="cls-26" d="M271.21,136.76c1.36,2.46,20.72,38,25.76,55.13.92,3.15,1.83,6.69,2.68,10.49-.59-20-9.76-48.42-9.76-48.42l-7.78-4.35,2.56-3.12c-4-4.15-10.8-10.69-14.45-14.2A8.29,8.29,0,0,0,271.21,136.76Z"/><path class="cls-5" d="M268.51,129.74c.72-.18,8.11,15.73,7.51,15.49-2.7-1.08-10.57-9.37-10.57-9.37L257.7,152.8l-14.56-21.56,4.69-5.18s12.28,8.1,16.39,7.51S268.51,129.74,268.51,129.74Z"/><path class="cls-4" d="M264.88,149.17c1.44,11.82,6.89,37.88,9,54.25,2.52,19.28,4.51,52.78,4.51,53.15S291,270.08,291,270.08l8.64-15.85S298.41,236,293,208.47c-4.37-22.34-16.57-50.6-21.05-60.51-1-2.32-1.66-3.63-1.66-3.63h-5.76A34,34,0,0,0,264.88,149.17Z"/><path class="cls-9" d="M264.88,149.17,272,148c-1-2.32-1.66-3.63-1.66-3.63h-5.76A35,35,0,0,0,264.88,149.17Z"/><path class="cls-4" d="M267.51,135c.59.29,5,6.77,5.89,9.54.66,1.94-5.82,2.06-9.82,2a2.61,2.61,0,0,1-2.56-2.66,3.12,3.12,0,0,1,.05-.44c.52-2.7,1.41-6.46,2.52-7.83a2.72,2.72,0,0,1,3.78-.71Z"/><path class="cls-25" d="M164.44,202.07a3.58,3.58,0,0,0,.36.59c2.31,3,9.69,4.18,17,4.08s14.43-1.37,16.52-3.23c4.32-3.84,18.49-21.86,17.3-44.68s-11.89-26-12.46-25.82c0,0-5.08-2-12,6s-5,32.1-14.41,37.38S161.07,195.34,164.44,202.07Z"/><path class="cls-26" d="M164.8,202.93c2.31,3,9.69,4.18,17,4.08a28.7,28.7,0,0,0,12-14c9.73-22.7,3.32-54.76,3.32-54.76l-5.12,11s-20.09,44.68-20.9,44.68C170.67,193.78,167.6,198.48,164.8,202.93Z"/><path class="cls-5" d="M195.18,138.57l2-7.83s-12.47.14-22.68-3.34l-2.23,8S183.26,141.71,195.18,138.57Z"/><path class="cls-25" d="M196.9,134.36s2.61,47.56-9.88,62-25.71,9.37-26.19,0-2.88-26.67,4.09-45.88l7-19.22S180.6,141.33,196.9,134.36Z"/><path class="cls-19" d="M324.74,91.41a33.32,33.32,0,0,0,.91,3.25c.79-1.51,1-4,1.53-5.56.39-1.26,1-2.7,2.25-3a2.57,2.57,0,0,1,2.51,1,6,6,0,0,1,1.1,2.59,19.49,19.49,0,0,1,.47,4.31c1.74.54,3.58,1.14,4.76,2.53.84,1,1.34,2.29,2.5,2.82s3,0,4,.94A5,5,0,0,0,342.18,98a3.34,3.34,0,0,1-1.53-.81,5.34,5.34,0,0,1-.56-1.27c-.83-1.82-3.55-2.14-4.37-4a7.15,7.15,0,0,1-.37-1.71,7.46,7.46,0,0,0-2.82-4.54c-1.42-1.07-3.59-1.52-4.91-.32a5.35,5.35,0,0,0-1.24,2.2C325.93,88.75,325.29,90.09,324.74,91.41Z"/><path class="cls-33" d="M343,452.82c-9.35-7.92-32-12.44-50.62-10.11l.15.13-.15-.13c-18.61,2.33-26.11,10.64-16.76,18.56s32,12.43,50.62,10.1S352.35,460.73,343,452.82Zm-19.78,16c-15.26,1.91-33.92-1.82-41.59-8.31h0c-7.67-6.49-1.49-13.33,13.77-15.24h0c15.26-1.92,33.92,1.81,41.59,8.3S338.48,466.9,323.22,468.82Z"/><path class="cls-34" d="M292.38,442.71l3,2.56c-15.26,1.91-21.44,8.75-13.77,15.24l-6,.76C266.27,453.35,273.77,445,292.38,442.71Z"/><path class="cls-35" d="M295.4,445.27c15.26-1.92,33.92,1.81,41.59,8.3s1.49,13.33-13.77,15.25-33.92-1.82-41.59-8.31S280.14,447.18,295.4,445.27Z"/><path class="cls-36" d="M294.59,447.44c15.26-1.92,33.92,1.81,41.59,8.3,2.48,2.1,3.5,4.23,3.25,6.22,1.64-2.56,1-5.51-2.44-8.39-7.67-6.49-26.33-10.22-41.59-8.3-10.34,1.29-16.5,4.85-17,9C280.43,451.09,286.1,448.5,294.59,447.44Z"/><path class="cls-37" d="M271.63,453.77l-1.42,13c-.27,2.4,1,5,4,7.5l1.42-13C272.63,458.74,271.37,456.17,271.63,453.77Z"/><path class="cls-38" d="M347,460.31c-1,9.18-20.32,11.65-30.77,11.67-12.66,0-31.51-3-40.6-10.71l-1.42,13c14,11.88,54.61,14.58,67.87,4.39h0a8.08,8.08,0,0,0,3.44-5.3Z"/><path class="cls-39" d="M634,139.33c-3.23-18.73-17-31.54-32.77-32.21h0c-2.45-.18-8-1.38-13.33-.87h0a29.44,29.44,0,0,0-3.37.5h0a37,37,0,0,0-12.28,5.16h0c-13.5,9.07-21.39,28-17.68,46.56h0a45.08,45.08,0,0,0,5.2,13.73h0c5.56,9.32,14.69,15.91,25.3,17.06h0l9.09,1h-.09a31.46,31.46,0,0,0,11.63-.89C625.19,184.15,637.85,161.74,634,139.33Z"/><g class="cls-40"><path class="cls-41" d="M569.27,153.06a6.08,6.08,0,0,1-6.08-6.08h0V49.25a6.08,6.08,0,0,1,12.16,0V147A6.08,6.08,0,0,1,569.27,153.06Z"/></g><path class="cls-42" d="M619.75,116a6.08,6.08,0,0,1-6.08-6.08h0V53.53a6.09,6.09,0,0,1,12.17,0v56.38A6.09,6.09,0,0,1,619.75,116Z"/><path class="cls-43" d="M593,116a6.08,6.08,0,0,1-6.08-6.08h0V73.57a6.08,6.08,0,0,1,12.16,0v36.33a6.08,6.08,0,0,1-6,6.13Z"/><g class="cls-44"><path class="cls-45" d="M593,51.07a6.08,6.08,0,0,1-6.12-6V12.13a6.08,6.08,0,0,1,12.16,0V45A6.08,6.08,0,0,1,593,51.07Z"/></g><path class="cls-46" d="M569.74,147s-6.11-36.12,31.5-49.41c0,0-6.08-.82-8.91-1-.16,0-3.35,0-4.42.11h0c-2.28.25-2.89.43-3.37.5h0a7.49,7.49,0,0,0-1.18.26c-21.09,5.11-32.92,29.15-28.94,50.75h0a43.69,43.69,0,0,0,5.35,14.45h0c5.56,9.32,14.69,15.91,25.3,17.06h0l9.09,1C587.39,180,572.52,166.11,569.74,147Z"/><path class="cls-47" d="M572.29,102.36h18.64a56.78,56.78,0,0,1,10.31-4.79s-6.08-.82-8.91-1c-.16,0-3.35,0-4.42.11h0c-2.28.25-2.89.43-3.37.5h0a7.49,7.49,0,0,0-1.18.26A34.2,34.2,0,0,0,572.29,102.36Z"/><path class="cls-47" d="M564.76,109.09a44.65,44.65,0,0,0-7.82,13.18H573.2a41.64,41.64,0,0,1,9-13.18Z"/><path class="cls-48" d="M570.06,148.92H554.6a43.39,43.39,0,0,0,5.2,13.73h0c5.56,9.32,14.69,15.91,25.3,17.06h0l9.09,1C587.62,180,573.53,167,570.06,148.92Z"/><path class="cls-49" d="M593.91,111.39a26.52,26.52,0,0,1,9-.82,42.29,42.29,0,0,1,.92,4.16c3.7,21.45-8.4,42.88-27,47.87l-.28.07A34.75,34.75,0,0,1,569.74,147a4.28,4.28,0,0,0-.1-.59C569.69,130.12,579.61,115.22,593.91,111.39Z"/><path class="cls-50" d="M591.71,98.63l1.25,7.24c-16,4.28-26.4,22.72-23.22,41.11l-6.29,1.68C559.58,126.25,572.24,103.84,591.71,98.63Z"/><path class="cls-51" d="M592.59,106h0Zm-.37.11h0Zm-.37.11-.16.06Zm-.36.12h0Zm-.37.12-.18.07Zm-.36.13-.17.06Zm-.36.13-.15.06Zm-.35.14-.17.06Zm-.36.14-.16.07Zm-.35.15-.16.07Zm-.35.15-.16.07Zm-.35.16-.15.07Zm-.35.16-.15.07Zm-.34.16-.15.08Zm-.34.17-.15.08Zm-.34.18-.15.08Zm-.33.18a.8.8,0,0,0-.16.08.91.91,0,0,1,.16-.11Zm-.34.18-.15.08Zm-.33.19-.14.08Zm-.33.19-.14.08Zm-.33.2-.14.08Zm-.32.2-.14.09Zm-.32.2-.14.09Zm-.32.21-.14.09Zm-.32.22-.13.09Zm-.31.22-.13.09Zm-.31.22-.13.09Zm-.31.22-.13.1Zm-.31.23-.13.1Zm-.3.24-.13.1Zm-.3.24-.13.1Zm-.3.24-.12.1Zm-.3.25-.12.09Zm-.29.24-.12.11Zm-.29.26-.12.1Zm-.29.25-.12.11Zm-.28.27-.12.1Zm-.28.26-.12.11Zm-.28.27a.57.57,0,0,0-.11.11Zm-.28.27a.57.57,0,0,1-.11.11.76.76,0,0,0,.11-.14Zm-.27.27-.11.12Zm-.27.29-.1.1Zm-.27.28-.1.11Zm-.26.28-.1.12Zm-.26.29-.1.12Zm-.26.3-.1.11Zm-.25.29-.1.12Zm-.25.3-.1.12ZM596.88,97.7a32.83,32.83,0,0,0-4.4.73l-.22.06h-.15l-.4.1,1.25,7.24a25.38,25.38,0,0,1,8-.86A39,39,0,0,0,596.88,97.7Zm-27.24,48.69a8.27,8.27,0,0,0-.12-.85C569.55,145.82,569.59,146.11,569.64,146.39Zm-.12-.85-.06-.42Zm.22,1.44a3.91,3.91,0,0,0-.1-.58c0,.19.06.39.1.6Zm-6.29,1.68.09.53a43.5,43.5,0,0,0,5.35,14.44,30.44,30.44,0,0,0,7.66-1A34.82,34.82,0,0,1,569.74,147Zm6-4v-.41a.72.72,0,0,0,0,.43Zm0-.42v-.42a.63.63,0,0,0-.09.44Zm0-.42v0Zm0-.44v0Zm0-.42v0Zm0-.44v-.4a.4.4,0,0,0-.22.42Zm0-.42v-.4a.39.39,0,0,0-.24.42Zm0-.41v-.42a.42.42,0,0,0-.26.44Zm0-.42v-.42a.41.41,0,0,0-.27.44Zm0-1.27v-1.26a3.1,3.1,0,0,0-.28,1.26Zm0-1.26a7.43,7.43,0,0,1,.07-1.25,2.25,2.25,0,0,0-.32,1.27Zm.07-1.26a39.5,39.5,0,0,1,1.12-6.91,39.71,39.71,0,0,0-1.37,6.93Zm1.12-6.92a1.11,1.11,0,0,1,.08-.3c-.28.12-.31.22-.33.32Zm.1-.41a2.33,2.33,0,0,0,.07-.25,2.69,2.69,0,0,1-.32.27Zm.11-.39a2.5,2.5,0,0,0,.07-.26,2.79,2.79,0,0,1-.32.28Zm.11-.4a2,2,0,0,0,.08-.26,1.75,1.75,0,0,1-.33.28Zm.12-.39a.35.35,0,0,1,.08-.26c-.28.11-.31.2-.33.29Zm.12-.39a.32.32,0,0,1,.07-.24c-.27.1-.27.18-.27.26Zm.12-.39a1.72,1.72,0,0,0,.07-.21,1.44,1.44,0,0,1-.32.23Zm.13-.39a1.59,1.59,0,0,1,.07-.2,1.4,1.4,0,0,0-.32.22Zm.13-.39.07-.19Zm.14-.38a1.07,1.07,0,0,1,.07-.19,1,1,0,0,0-.32.21Zm.14-.39.06-.17Zm.14-.38.07-.18Zm.15-.37a.62.62,0,0,1,.07-.19c0-.06-.3.14-.32.21Zm.15-.38a.87.87,0,0,1,.07-.17,1.29,1.29,0,0,0-.32.19Zm.15-.38.06-.15Zm.16-.37.07-.15Zm.16-.37a1,1,0,0,0,.07-.15,1,1,0,0,1-.32.17Zm.17-.37a1,1,0,0,1,.07-.15,1,1,0,0,0-.32.13Zm.17-.36a.16.16,0,0,1,.07-.16c.07,0-.3.12-.32.18Zm.17-.37.07-.15Zm.18-.36.07-.15Zm.18-.36.07-.15Zm.18-.36a.18.18,0,0,1,.08-.14,1.26,1.26,0,0,0-.33.16Zm.19-.35a.19.19,0,0,1,.07-.14c.07,0-.3.11-.32.16Zm.19-.36.07-.13Zm.19-.34.08-.14Zm.2-.35.08-.13Zm.2-.34.08-.14Zm.21-.35.08-.12Zm.21-.34.07-.12Zm.21-.33.08-.13Zm.21-.33.08-.13Zm.22-.33.08-.13Zm.22-.33.08-.12a.81.81,0,0,1-.33.14Zm.23-.33.08-.12Zm.22-.31.09-.13Zm.23-.33.09-.12Zm.24-.31.09-.12Zm.24-.32.09-.12Zm.33-.43a.64.64,0,0,1-.1.13.58.58,0,0,0-.15-.11Zm.15-.18.1-.12Zm-8.05,28.43a1.1,1.1,0,0,0,.05.4.38.38,0,0,1-.3-.38Z"/><path class="cls-46" d="M593,98.31c19-4.25,37.16,9.57,40.94,31.47,3.87,22.42-8.79,44.82-28.26,50-19.18,5.13-37.83-8.32-42.09-30.13a43.62,43.62,0,0,0,5.26,13.94,30.44,30.44,0,0,0,7.66-1c6.74,8.58,17.24,12.76,27.92,9.91,16-4.28,26.39-22.73,23.22-41.11a3.83,3.83,0,0,0-.1-.59c-2.78-14.87-13.84-25.11-26.55-25.8a38.7,38.7,0,0,0-4.13-7.31A30,30,0,0,0,593,98.31Z"/><path class="cls-47" d="M627.69,131.47a3.83,3.83,0,0,0-.1-.59C624.77,115.93,613.71,105.69,601,105a43.4,43.4,0,0,1,2.86,9.72c3.7,21.45-8.4,42.88-27,47.87l-.28.07c6.74,8.58,17.24,12.76,27.92,9.91C620.44,168.3,630.86,149.85,627.69,131.47Z"/><path class="cls-48" d="M627.69,131.47a3.83,3.83,0,0,0-.1-.59C624.77,115.93,613.71,105.69,601,105c.07.16.12.33.19.5,11.07,2.29,20.27,11.92,22.81,25.37a4.28,4.28,0,0,0,.1.59c3.17,18.38-7.25,36.83-23.22,41.11a27.63,27.63,0,0,1-5,.81,25.82,25.82,0,0,0,8.53-.81C620.44,168.3,630.86,149.85,627.69,131.47Z"/><path class="cls-48" d="M593,105.87a25.38,25.38,0,0,1,8-.86,43.56,43.56,0,0,1,1.94,5.56,26.52,26.52,0,0,0-9,.82c-14.3,3.83-24.22,18.73-24.27,35C566.79,128.2,577.15,110.1,593,105.87Z"/><g class="cls-40"><path class="cls-52" d="M64.61,288.83a6.08,6.08,0,0,1-6.08-6.08V185a6.08,6.08,0,0,1,12.16,0v97.73a6.08,6.08,0,0,1-6.06,6.1Z"/></g><path class="cls-53" d="M115.09,251.76a6.08,6.08,0,0,1-6.08-6.08h0V189.3a6.08,6.08,0,1,1,12.16,0v56.38A6.08,6.08,0,0,1,115.09,251.76Z"/><path class="cls-54" d="M88.3,251.72a6.09,6.09,0,0,1-6.09-6.08v-36.3a6.09,6.09,0,0,1,12.17,0v36.3a6.08,6.08,0,0,1-6.08,6.08Z"/><g class="cls-44"><path class="cls-55" d="M25.3,144.84a6.09,6.09,0,0,1-6.09-6.08V105.9a6.09,6.09,0,0,1,12.17,0v32.86A6.08,6.08,0,0,1,25.3,144.84Z"/></g><g class="cls-40"><path class="cls-56" d="M26.67,499.34a6.08,6.08,0,0,1-6.08-6.08V395.52a6.08,6.08,0,0,1,12.16,0v97.74a6.08,6.08,0,0,1-6.08,6.08Z"/></g><path class="cls-57" d="M56.12,465.85a6.08,6.08,0,0,1-6.12-6V423.47a6.08,6.08,0,0,1,12.16,0v36.3A6.08,6.08,0,0,1,56.12,465.85Z"/><g class="cls-44"><path class="cls-58" d="M56.12,401A6.08,6.08,0,0,1,50,395V362a6.08,6.08,0,0,1,12.16,0v32.86a6.08,6.08,0,0,1-6,6.14Z"/></g><path class="cls-59" d="M66.77,163a6.08,6.08,0,0,1-6.08-6.08h0V100.49a6.08,6.08,0,0,1,12.16,0v56.38a6.08,6.08,0,0,1-6,6.13Z"/><path class="cls-60" d="M632.4,299.16a6.09,6.09,0,0,1-6.09-6.08V236.7a6.09,6.09,0,0,1,12.17,0v56.38A6.08,6.08,0,0,1,632.4,299.16Z"/><path class="cls-39" d="M345.4,254.93v.32c0-3.06-2.08-6-6.34-8.54-12.89-7.64-41.15-8.48-63.11-1.88l.21.13-.21-.13q-3.09.93-5.79,2c-1.2.47-2.33.95-3.41,1.45a42,42,0,0,0-6.94,3.94c-3.07,2.21-5.12,4.55-6.05,6.89a8.4,8.4,0,0,0-.5,1.76,8.09,8.09,0,0,0-.07,1.63v-.08l.93,16c.17,2.94,2.23,5.78,6.34,8.22C279.8,298,329.29,293,343.2,278h0c1.87-2,3.22-4.49,3.07-7.09Z"/><path class="cls-61" d="M338.7,237.31c-12.89-7.64-41.15-8.48-63.11-1.87l.21.12-.21-.12c-22,6.6-29.32,18.15-16.42,25.79s41.14,8.48,63.1,1.87S351.59,245,338.7,237.31Zm-20.59,23.33c-18,5.41-41.28,4.72-51.85-1.54h0c-10.58-6.27-4.52-15.78,13.49-21.19h0c18-5.42,41.28-4.73,51.86,1.54s4.51,15.77-13.5,21.19Z"/><path class="cls-46" d="M275.59,235.44l4.16,2.47c-18,5.41-24.07,14.92-13.49,21.19l-7.09,2.13C246.27,253.59,253.63,242,275.59,235.44Z"/><path class="cls-47" d="M279.75,237.91c18-5.42,41.28-4.73,51.86,1.54s4.51,15.77-13.5,21.19-41.28,4.72-51.85-1.54S261.74,243.32,279.75,237.91Z"/><path class="cls-48" d="M279.22,240.69c18-5.42,41.27-4.73,51.85,1.54,3.42,2,5.09,4.38,5.19,6.83,1.45-3.41,0-6.83-4.65-9.61-10.58-6.27-33.84-7-51.86-1.54-12.2,3.66-18.9,9.21-18.68,14.35C262.89,248,269.2,243.7,279.22,240.69Z"/><path class="cls-47" d="M252.82,253l.93,15.94c.18,2.95,2.23,5.79,6.35,8.23l-.93-15.95C255.05,258.79,253,256,252.82,253Z"/><path class="cls-48" d="M345,245.53c.66,11.28-22.13,18.19-34.73,20.35-15.26,2.61-38.62,2.77-51.14-4.65l.93,15.95c19.34,11.46,68.83,6.46,82.74-8.54h0v-.05a9.9,9.9,0,0,0,3.07-7.1Z"/><path class="cls-39" d="M101.31,68l.27-.16c-2.61,1.59-4.13,4.84-4.14,9.79,0,15,13.56,39.77,30.39,55.35h0c1.58,1.46,3.13,2.78,4.64,4,1,.8,2,1.53,3,2.21a41.77,41.77,0,0,0,6.92,4c3.46,1.52,6.51,2.1,9,1.72a7.25,7.25,0,0,0,3.2-1.23h-.06l13.27-8.89c2.45-1.65,3.86-4.85,3.87-9.64.07-22.48-29.34-62.6-49.32-67h-.09c-2.7-.58-5.5-.5-7.67,1Z"/><path class="cls-61" d="M89.52,82.69c0,15,13.57,39.76,30.4,55.34h0c16.82,15.58,30.51,16.06,30.56,1.07s-13.57-39.75-30.4-55.33S89.57,67.7,89.52,82.69Zm30.55,5.92c13.8,12.78,25,33.17,25,45.46h0c0,12.3-11.3,11.9-25.11-.88h0C106.15,120.41,95,100,95,87.72S106.26,75.83,120.07,88.61Z"/><path class="cls-46" d="M119.92,138v-4.84C133.74,146,145,146.37,145,134.07l5.44,5C150.43,154.09,136.74,153.61,119.92,138Z"/><path class="cls-47" d="M119.93,133.19c-13.81-12.78-25-33.18-25-45.47s11.3-11.89,25.11.89,25,33.17,25,45.46S133.74,146,119.93,133.19Z"/><path class="cls-48" d="M122.6,132.24c-13.8-12.78-25-33.18-25-45.47,0-4,1.2-6.61,3.26-7.94-3.68.48-5.92,3.43-5.93,8.89,0,12.29,11.16,32.69,25,45.47,9.35,8.65,17.53,11.62,21.85,8.82C137.17,142.62,130.28,139.35,122.6,132.24Z"/><path class="cls-47" d="M146.6,148.74l13.28-8.89c2.45-1.64,3.85-4.85,3.87-9.63l-13.27,8.88C150.46,143.89,149.06,147.1,146.6,148.74Z"/><path class="cls-48" d="M93.39,73.06c9.39-6.29,26.9,9.85,35.15,19.61,10,11.83,22,31.87,21.94,46.43l13.27-8.88c.07-22.49-29.35-62.6-49.33-67h-.08c-2.71-.58-5.5-.5-7.67,1Z"/><path class="cls-39" d="M547.1,255.92l-.26.18c2.51-1.75,3.82-5.1,3.52-10-.91-15-16.07-38.82-33.86-53.29v0q-2.5-2-4.89-3.68c-1.05-.73-2.09-1.41-3.11-2a42.41,42.41,0,0,0-7.15-3.53c-3.55-1.3-6.64-1.68-9.11-1.15a8.71,8.71,0,0,0-1.72.58,6.86,6.86,0,0,0-1.39.86l.06-.06-12.68,9.72c-2.35,1.8-3.54,5.09-3.26,9.86,1.37,22.45,33.28,60.61,53.49,63.72h.09c2.74.4,5.52.14,7.59-1.44Z"/><path class="cls-61" d="M557.93,240.49c-.91-15-16.07-38.82-33.85-53.29h0c-17.79-14.48-31.48-14.09-30.57.87s16.07,38.82,33.85,53.29S558.84,255.45,557.93,240.49Zm-30.86-4C512.48,224.66,500,205,499.25,192.75h0c-.74-12.28,10.53-12.59,25.12-.72h0c14.59,11.87,27.07,31.51,27.82,43.79s-10.53,12.58-25.12.71Z"/><path class="cls-46" d="M524.08,187.2l.29,4.83c-14.59-11.87-25.86-11.56-25.12.72l-5.74-4.68C492.6,173.11,506.29,172.72,524.08,187.2Z"/><path class="cls-47" d="M524.37,192c14.59,11.87,27.07,31.51,27.82,43.79s-10.53,12.58-25.12.71S500,205,499.25,192.75,509.78,180.16,524.37,192Z"/><path class="cls-48" d="M521.76,193.15c14.59,11.87,27.07,31.51,27.82,43.79.24,4-.78,6.66-2.75,8.13,3.65-.72,5.69-3.81,5.36-9.25C551.44,223.54,539,203.9,524.37,192c-9.88-8-18.23-10.49-22.37-7.42C506.57,183.72,513.65,186.54,521.76,193.15Z"/><path class="cls-47" d="M496.76,178.21l-12.68,9.71c-2.34,1.8-3.54,5.09-3.25,9.87l12.68-9.72C493.22,183.29,494.42,180,496.76,178.21Z"/><path class="cls-48" d="M554.68,250.35c-9,6.87-27.47-8.12-36.33-17.34-10.72-11.16-24-30.4-24.84-44.94l-12.68,9.72c1.36,22.44,33.27,60.6,53.49,63.71h.08c2.74.41,5.53.15,7.6-1.44Z"/><path class="cls-33" d="M172.17,186.85h0a12.51,12.51,0,0,0,9,9h0a12.48,12.48,0,0,0-9,9h0a12.45,12.45,0,0,0-9-9h0A12.48,12.48,0,0,0,172.17,186.85Z"/><path class="cls-33" d="M149.74,222h0a7.77,7.77,0,0,0,5.58,5.58h0a7.77,7.77,0,0,0-5.58,5.58h0a7.78,7.78,0,0,0-5.59-5.58h0A7.78,7.78,0,0,0,149.74,222Z"/><path class="cls-33" d="M195.74,235.16h0a6,6,0,0,0,4.28,4.28h0a6,6,0,0,0-4.28,4.28h0a6,6,0,0,0-4.28-4.28h0A6,6,0,0,0,195.74,235.16Z"/><path class="cls-33" d="M531.11,300.79h0a12.48,12.48,0,0,0,9,9h0a12.45,12.45,0,0,0-9,8.95h0a12.48,12.48,0,0,0-9-8.95h0A12.51,12.51,0,0,0,531.11,300.79Z"/><path class="cls-33" d="M508.67,336h0a7.78,7.78,0,0,0,5.59,5.58h0a7.78,7.78,0,0,0-5.59,5.58h0a7.77,7.77,0,0,0-5.58-5.58h0A7.8,7.8,0,0,0,508.67,336Z"/><path class="cls-33" d="M554.67,349.1h0a6,6,0,0,0,4.28,4.28h0a6,6,0,0,0-4.28,4.28h0a6,6,0,0,0-4.27-4.28h0A6,6,0,0,0,554.67,349.1Z"/><path class="cls-33" d="M286.53,358.83h0a7.78,7.78,0,0,0,5.59,5.58h0a7.78,7.78,0,0,0-5.59,5.58h0a7.77,7.77,0,0,0-5.58-5.58h0A7.74,7.74,0,0,0,286.53,358.83Z"/><path class="cls-33" d="M323.41,344.66h0a6,6,0,0,0,4.28,4.28h0a6,6,0,0,0-4.28,4.28h0a6,6,0,0,0-4.28-4.28h0A6,6,0,0,0,323.41,344.66Z"/><path class="cls-33" d="M9,370.29H9a12.48,12.48,0,0,0,9,9h0a12.48,12.48,0,0,0-9,9H9a12.48,12.48,0,0,0-9-9H0A12.51,12.51,0,0,0,9,370.29Z"/><path class="cls-33" d="M153.41,360.9h0a9.2,9.2,0,0,0,6.59,6.59h0a9.17,9.17,0,0,0-6.59,6.58h0a9.14,9.14,0,0,0-6.58-6.58h0A9.17,9.17,0,0,0,153.41,360.9Z"/><path class="cls-33" d="M8,324.71H8a7.78,7.78,0,0,0,5.59,5.58h0A7.78,7.78,0,0,0,8,335.87H8a7.77,7.77,0,0,0-5.58-5.58h0A7.77,7.77,0,0,0,8,324.71Z"/><path class="cls-33" d="M54,337.84h0a6,6,0,0,0,4.27,4.28h0A6,6,0,0,0,54,346.4h0a6,6,0,0,0-4.28-4.28h0A6,6,0,0,0,54,337.84Z"/><path class="cls-33" d="M37.42,86h0a12.51,12.51,0,0,0,9,9h0a12.48,12.48,0,0,0-9,9h0a12.48,12.48,0,0,0-9-9h0A12.48,12.48,0,0,0,37.42,86Z"/><path class="cls-33" d="M22,54.2h0a7.74,7.74,0,0,0,5.58,5.58h0A7.77,7.77,0,0,0,22,65.36h0a7.78,7.78,0,0,0-5.59-5.58h0A7.78,7.78,0,0,0,22,54.2Z"/><path class="cls-33" d="M154,47.34h0a6,6,0,0,0,4.28,4.27h0A6,6,0,0,0,154,55.89h0a6,6,0,0,0-4.28-4.28h0A6,6,0,0,0,154,47.34Z"/><path class="cls-33" d="M61.39,73.28h0a8.52,8.52,0,0,0,6.1,6.11h0a8.49,8.49,0,0,0-6.1,6.11h0a8.55,8.55,0,0,0-6.11-6.11h0A8.55,8.55,0,0,0,61.39,73.28Z"/><path class="cls-33" d="M169.11,0h0a7.77,7.77,0,0,0,5.58,5.58h0a7.78,7.78,0,0,0-5.58,5.59h0a7.78,7.78,0,0,0-5.58-5.59h0A7.74,7.74,0,0,0,169.11,0Z"/><path class="cls-33" d="M191.46,31.77h0a6,6,0,0,0,4.28,4.28h0a6,6,0,0,0-4.28,4.27h0a6,6,0,0,0-4.28-4.27h0A6,6,0,0,0,191.46,31.77Z"/><path class="cls-39" d="M105.16,464.57a.43.43,0,0,0,.08.3c-.81-2.95-3.52-5.29-8.29-6.66-14.4-4.14-41.95,2.19-61.54,14.12l.24.07-.24-.07q-2.74,1.68-5.1,3.38c-1,.75-2,1.5-2.94,2.26a42.86,42.86,0,0,0-5.71,5.56c-2.41,2.92-3.8,5.7-4.12,8.2a7.91,7.91,0,0,0,0,1.82,7.36,7.36,0,0,0,.34,1.6v-.07l4.93,15.19c.91,2.81,3.61,5,8.21,6.36,21.61,6.21,68.23-11.13,77.91-29.15h0v-.06c1.3-2.44,2-5.15,1.18-7.64Z"/><path class="cls-61" d="M94.24,449.21c-14.41-4.14-42,2.19-61.54,14.12l.23.07-.23-.07c-19.59,11.94-23.79,25-9.39,29.1s42-2.18,61.54-14.12S108.64,453.35,94.24,449.21ZM80.2,477c-16.07,9.79-38.75,15-50.56,11.6h0c-11.82-3.39-8.36-14.12,7.71-23.91h0c16.06-9.79,38.74-15,50.56-11.6S96.26,467.19,80.2,477Z"/><path class="cls-46" d="M32.7,463.33l4.65,1.34c-16.07,9.79-19.53,20.52-7.71,23.91l-6.33,3.85C8.91,488.3,13.11,475.27,32.7,463.33Z"/><path class="cls-47" d="M37.35,464.67c16.06-9.79,38.74-15,50.56-11.6S96.26,467.19,80.2,477s-38.75,15-50.56,11.6S21.28,474.46,37.35,464.67Z"/><path class="cls-48" d="M37.53,467.5c16.06-9.79,38.75-15,50.57-11.6,3.81,1.09,6,3,6.74,5.3.54-3.67-1.69-6.63-6.93-8.13-11.82-3.4-34.5,1.81-50.56,11.6-10.88,6.63-16,13.68-14.46,18.61C23.57,478.67,28.6,472.94,37.53,467.5Z"/><path class="cls-47" d="M15.1,486.08,20,501.27c.91,2.81,3.61,5,8.21,6.36l-4.93-15.2C18.71,491.11,16,488.89,15.1,486.08Z"/><path class="cls-48" d="M102.44,455.57C105.93,466.31,85.62,478.75,74,484c-14.1,6.38-36.66,12.44-50.66,8.41l4.93,15.2c21.61,6.21,68.23-11.13,77.91-29.15h0v-.06c1.3-2.44,2-5.15,1.18-7.64Z"/><path class="cls-39" d="M210.44,363.09l.3.09c-2.93-.87-6.35.2-10,3.53-11.11,10.05-20.27,36.8-20.46,59.73l.18-.17-.18.17c0,2.15.05,4.19.18,6.11.09,1.28.21,2.51.37,3.69a42.34,42.34,0,0,0,1.72,7.79c1.2,3.59,2.83,6.24,4.79,7.83a9.15,9.15,0,0,0,1.53,1,7.64,7.64,0,0,0,1.54.55h-.08l15.51,3.83c2.86.71,6.18-.41,9.73-3.62,16.67-15.09,26.53-63.84,16.33-81.57h0V372c-1.39-2.4-3.34-4.41-5.87-5Z"/><path class="cls-61" d="M191.63,364.27c-11.11,10.06-20.27,36.8-20.46,59.73l.18-.16-.18.16c-.19,22.93,8.67,33.38,19.78,23.32s20.27-36.79,20.46-59.73S202.74,354.22,191.63,364.27Zm16.19,26.57c-.16,18.81-7.69,40.83-16.81,49.08h0c-9.12,8.25-16.4-.35-16.25-19.17h0c.16-18.81,7.69-40.82,16.81-49.07S208,372,207.82,390.84Z"/><path class="cls-46" d="M171.17,424l3.59-3.25c-.15,18.82,7.13,27.42,16.25,19.17l-.06,7.4C179.84,457.38,171,446.93,171.17,424Z"/><path class="cls-47" d="M174.76,420.75c.16-18.81,7.69-40.82,16.81-49.07s16.4.35,16.25,19.16-7.69,40.83-16.81,49.08S174.61,439.57,174.76,420.75Z"/><path class="cls-48" d="M177.26,422.09c.16-18.81,7.7-40.83,16.81-49.08,3-2.66,5.69-3.56,8.07-2.93-2.84-2.4-6.52-2.06-10.57,1.6-9.12,8.25-16.65,30.26-16.81,49.07-.1,12.74,3.21,20.79,8.19,22.1C179.39,439.85,177.18,432.55,177.26,422.09Z"/><path class="cls-47" d="M181.22,451l15.51,3.83c2.86.7,6.18-.42,9.73-3.63L191,447.32C187.4,450.53,184.08,451.65,181.22,451Z"/><path class="cls-48" d="M201.36,360.65c11,2.71,10.83,26.52,9.16,39.2-2,15.34-8.77,37.7-19.57,47.47l15.51,3.83c16.67-15.08,26.53-63.84,16.33-81.57h0v-.05c-1.39-2.39-3.34-4.41-5.87-5Z"/><path class="cls-39" d="M53.77,122.09a1.71,1.71,0,0,1,.3.09c-2.93-.87-6.35.2-10,3.53-11.11,10-20.27,36.8-20.46,59.73l.18-.17-.18.17c0,2.15.05,4.19.18,6.11.09,1.28.22,2.51.37,3.69A42.14,42.14,0,0,0,25.85,203c1.2,3.59,2.83,6.24,4.79,7.83a9.15,9.15,0,0,0,1.53,1,7.64,7.64,0,0,0,1.54.55h-.08l15.51,3.83c2.86.71,6.18-.41,9.73-3.62C75.54,197.5,85.4,148.75,75.2,131h0V131c-1.39-2.4-3.34-4.41-5.87-5Z"/><path class="cls-61" d="M35,123.27C23.85,133.33,14.69,160.07,14.5,183l.19-.16-.19.16c-.19,22.93,8.67,33.38,19.78,23.32s20.27-36.79,20.46-59.73S46.07,113.22,35,123.27Zm16.19,26.57c-.15,18.81-7.69,40.83-16.81,49.08h0c-9.12,8.25-16.4-.35-16.25-19.17h0c.16-18.81,7.7-40.82,16.81-49.07s16.36.32,16.21,19.16Z"/><path class="cls-46" d="M14.5,183l3.59-3.25c-.15,18.82,7.13,27.42,16.25,19.17l-.06,7.4C23.17,216.38,14.31,205.93,14.5,183Z"/><path class="cls-47" d="M18.09,179.75c.16-18.81,7.7-40.82,16.81-49.07s16.4.35,16.25,19.16-7.69,40.83-16.81,49.08S17.94,198.57,18.09,179.75Z"/><path class="cls-48" d="M20.59,181.09c.16-18.81,7.7-40.83,16.81-49.08,3-2.66,5.69-3.56,8.07-2.93-2.84-2.4-6.52-2.06-10.57,1.6-9.11,8.25-16.65,30.26-16.81,49.07-.1,12.74,3.21,20.79,8.19,22.1C22.72,198.85,20.51,191.55,20.59,181.09Z"/><path class="cls-47" d="M24.55,210l15.51,3.83c2.86.7,6.18-.42,9.73-3.63l-15.51-3.83C30.73,209.53,27.41,210.65,24.55,210Z"/><path class="cls-48" d="M44.69,119.65c11,2.71,10.83,26.52,9.16,39.2-2,15.34-8.77,37.7-19.57,47.47l15.51,3.83c16.67-15.08,26.53-63.84,16.33-81.57h0v-.05c-1.39-2.39-3.33-4.41-5.87-5Z"/><path class="cls-39" d="M616.71,349h-.32c3.06.11,6.11-1.78,8.84-5.91,8.26-12.51,10.46-40.7,4.93-62.95l-.14.21.14-.21q-.78-3.13-1.7-5.88c-.41-1.22-.83-2.38-1.28-3.48a43.22,43.22,0,0,0-3.6-7.12c-2.06-3.17-4.3-5.33-6.59-6.38a8.56,8.56,0,0,0-1.73-.57,7.44,7.44,0,0,0-1.63-.15h.08l-16,.16c-3,0-5.89,1.94-8.52,5.93-12.39,18.77-9.79,68.44,4.51,83.07h0v0c1.94,2,4.33,3.43,6.94,3.4Z"/><path class="cls-61" d="M634.63,343.2c8.26-12.51,10.46-40.69,4.93-62.94l-.14.2.14-.2c-5.54-22.26-16.71-30.17-25-17.66s-10.46,40.69-4.93,62.94S626.37,355.71,634.63,343.2Zm-22.3-21.7c-4.54-18.25-2.72-41.45,4-51.71h0c6.77-10.26,16-3.75,20.51,14.51h0c4.54,18.25,2.73,41.45-4,51.72S616.87,339.76,612.33,321.5Z"/><path class="cls-46" d="M639.56,280.26l-2.67,4c-4.54-18.26-13.74-24.77-20.51-14.51l-1.79-7.19C622.85,250.09,634,258,639.56,280.26Z"/><path class="cls-47" d="M636.89,284.3c4.54,18.25,2.73,41.45-4,51.72s-16,3.74-20.51-14.52-2.72-41.45,4-51.71S632.35,266,636.89,284.3Z"/><path class="cls-48" d="M634.14,283.63c4.53,18.25,2.72,41.45-4,51.71-2.19,3.32-4.63,4.87-7.08,4.86,3.34,1.61,6.83.37,9.83-4.18,6.78-10.27,8.59-33.47,4-51.72-3.07-12.37-8.29-19.34-13.43-19.36C627.64,267,631.61,273.47,634.14,283.63Z"/><path class="cls-47" d="M623.11,256.67l-16,.15c-3,0-5.89,1.94-8.52,5.94l16-.16C617.23,258.61,620.16,256.7,623.11,256.67Z"/><path class="cls-48" d="M626.11,349.13c-11.29.12-17.09-23-18.64-35.67-1.87-15.37-.9-38.71,7.12-50.86l-16,.16c-12.39,18.76-9.79,68.44,4.51,83.06h0c1.94,2,4.33,3.44,6.94,3.41Z"/><path class="cls-46" d="M67.74,288s-6.11-36.12,31.5-49.41c0,0-6.08-.82-8.91-1-.16,0-3.35,0-4.42.11h0c-2.28.25-2.89.43-3.37.5h0c-.22.05-.51.1-1.18.26-21.06,5.1-32.89,29.14-28.91,50.74h0a43.69,43.69,0,0,0,5.35,14.45h0c5.56,9.32,14.69,15.91,25.3,17.06h0l9.09,1C85.39,321,70.52,307.11,67.74,288Z"/><path class="cls-47" d="M70.29,243.36H88.93a56.78,56.78,0,0,1,10.31-4.79s-6.08-.82-8.91-1c-.16,0-3.35,0-4.42.11h0c-2.28.25-2.89.43-3.37.5h0c-.22,0-.51.1-1.18.26A34.2,34.2,0,0,0,70.29,243.36Z"/><path class="cls-47" d="M62.76,250.09a44.65,44.65,0,0,0-7.82,13.18H71.2a41.64,41.64,0,0,1,9-13.18Z"/><path class="cls-48" d="M68.06,289.92H52.6a43.39,43.39,0,0,0,5.2,13.73h0c5.56,9.32,14.69,15.91,25.3,17.06h0l9.09,1C85.62,321,71.53,308,68.06,289.92Z"/><path class="cls-49" d="M91.91,252.39a26.52,26.52,0,0,1,9-.82,42.29,42.29,0,0,1,.92,4.16c3.7,21.45-8.4,42.88-27,47.87l-.28.07A34.75,34.75,0,0,1,67.74,288a4.28,4.28,0,0,0-.1-.59C67.69,271.12,77.61,256.22,91.91,252.39Z"/><path class="cls-50" d="M89.71,239.63,91,246.87C75,251.15,64.6,269.59,67.78,288l-6.29,1.68C57.58,267.25,70.24,244.84,89.71,239.63Z"/><path class="cls-51" d="M90.59,247h0Zm-.37.11h0Zm-.37.11-.16.06Zm-.36.12-.16,0Zm-.37.12-.18.07Zm-.36.13-.17.06Zm-.36.13-.15.06Zm-.35.14-.17.06Zm-.36.14-.16.07Zm-.35.15-.16.07Zm-.35.15-.16.07Zm-.35.16-.15.07Zm-.35.16-.15.07Zm-.34.16-.15.08Zm-.34.17-.15.08Zm-.34.18-.15.08Zm-.33.18-.16.08Zm-.34.18-.15.08Zm-.33.19-.14.08Zm-.33.19-.14.08Zm-.33.2-.14.08Zm-.32.2-.14.09Zm-.32.2-.14.09Zm-.32.21-.14.09Zm-.32.22-.13.09Zm-.31.22-.13.09Zm-.31.22-.13.09Zm-.31.22-.13.1Zm-.31.23-.13.1Zm-.3.24-.13.1Zm-.3.24-.13.1Zm-.3.24-.12.1Zm-.3.25-.12.09Zm-.29.24-.12.11Zm-.29.26-.12.1Zm-.29.25-.12.11Zm-.28.27-.12.1Zm-.28.26-.12.11Zm-.28.27-.11.11Zm-.28.27-.11.11Zm-.27.27-.11.12Zm-.27.29a.47.47,0,0,0-.1.1.64.64,0,0,1,.1-.13Zm-.27.28-.1.11Zm-.26.28-.1.12Zm-.26.29-.1.12Zm-.26.3-.1.11Zm-.25.29-.1.12Zm-.25.3-.1.12ZM94.88,238.7a32.83,32.83,0,0,0-4.4.73l-.22.06h-.15l-.4.1L91,246.87a25.68,25.68,0,0,1,8-.87A39.45,39.45,0,0,0,94.88,238.7ZM67.64,287.39a8.27,8.27,0,0,0-.12-.85C67.55,286.82,67.59,287.11,67.64,287.39Zm-.12-.85-.06-.42Zm.22,1.44a3.91,3.91,0,0,0-.1-.58c0,.19.06.39.1.6Zm-6.29,1.68.09.53a43.5,43.5,0,0,0,5.35,14.44,30.44,30.44,0,0,0,7.66-1A34.82,34.82,0,0,1,67.74,288Zm6-4v-.41a.72.72,0,0,0,0,.43Zm0-.42v-.42a.63.63,0,0,0-.09.44Zm0-.42v0Zm0-.44v0Zm0-.42v0Zm0-.44v-.4a.4.4,0,0,0-.22.42Zm0-.42v-.4a.39.39,0,0,0-.24.42Zm0-.41v-.42a.42.42,0,0,0-.26.44Zm0-.42v-.42a.41.41,0,0,0-.27.44Zm0-1.27v-1.26a3.1,3.1,0,0,0-.28,1.26Zm0-1.26a7.43,7.43,0,0,1,.07-1.25,2.25,2.25,0,0,0-.32,1.27Zm.07-1.26a39.5,39.5,0,0,1,1.12-6.91,39.71,39.71,0,0,0-1.37,6.93Zm1.12-6.92a.43.43,0,0,1,.08-.3c-.28.12-.31.22-.33.32Zm.1-.41a2.33,2.33,0,0,0,.07-.25,2.69,2.69,0,0,1-.32.27Zm.11-.39a2.5,2.5,0,0,0,.07-.26,2.79,2.79,0,0,1-.32.28Zm.11-.4a2,2,0,0,0,.08-.26,2.22,2.22,0,0,1-.33.28Zm.12-.39a.35.35,0,0,1,.08-.26c-.28.11-.31.2-.33.29Zm.12-.39a.32.32,0,0,1,.07-.24c-.27.1-.27.18-.27.26Zm.12-.39a1.72,1.72,0,0,0,.07-.21,1.44,1.44,0,0,1-.32.23Zm.13-.39a1.18,1.18,0,0,1,.07-.2,1.4,1.4,0,0,0-.32.22Zm.13-.39.07-.19Zm.14-.38a1.07,1.07,0,0,1,.07-.19,1,1,0,0,0-.32.21Zm.14-.39.06-.17Zm.14-.38.07-.18Zm.15-.37a.21.21,0,0,1,.07-.19c.07-.06-.3.14-.32.21Zm.15-.38a.87.87,0,0,1,.07-.17,1.29,1.29,0,0,0-.32.19Zm.15-.38.06-.15Zm.16-.37.07-.15Zm.16-.37a1,1,0,0,0,.07-.15,1,1,0,0,1-.32.17Zm.17-.37a1,1,0,0,1,.07-.15,1,1,0,0,0-.32.13Zm.17-.36a.16.16,0,0,1,.07-.16c.07-.05-.3.12-.32.18Zm.17-.37.07-.15Zm.18-.36.07-.15Zm.18-.36.07-.15Zm.18-.36.08-.14c0-.05-.3.12-.33.16Zm.19-.35a.14.14,0,0,1,.07-.14c.07-.05-.3.11-.32.16Zm.19-.36.07-.13Zm.19-.34.08-.14Zm.2-.35.08-.13Zm.2-.34.08-.14Zm.21-.35.08-.12Zm.21-.34.07-.12Zm.21-.33.08-.13Zm.21-.33.08-.13Zm.22-.33.08-.13Zm.22-.33.08-.12Zm.23-.33.08-.12Zm.22-.31.09-.13Zm.23-.33.09-.12Zm.24-.31.09-.12Zm.24-.32.09-.12Zm.33-.43a.64.64,0,0,1-.1.13.58.58,0,0,0-.15-.11Zm.15-.18.1-.12Zm-8,28.43v.4a.38.38,0,0,1-.3-.38Z"/><path class="cls-46" d="M91,239.31c19-4.25,37.16,9.57,40.94,31.47,3.87,22.42-8.79,44.82-28.26,50C84.54,326,65.89,312.5,61.63,290.69a43.62,43.62,0,0,0,5.26,13.94,30.44,30.44,0,0,0,7.66-1c6.74,8.58,17.24,12.76,27.92,9.91,16-4.28,26.39-22.73,23.22-41.11a3.83,3.83,0,0,0-.1-.59C122.77,256.93,111.71,246.69,99,246a38.7,38.7,0,0,0-4.13-7.31A30,30,0,0,0,91,239.31Z"/><path class="cls-47" d="M125.69,272.47a3.83,3.83,0,0,0-.1-.59C122.77,256.93,111.71,246.69,99,246a43.4,43.4,0,0,1,2.86,9.72c3.7,21.45-8.4,42.88-27,47.87l-.28.07c6.74,8.58,17.24,12.76,27.92,9.91C118.44,309.3,128.86,290.85,125.69,272.47Z"/><path class="cls-48" d="M125.69,272.47a3.83,3.83,0,0,0-.1-.59C122.77,256.93,111.71,246.69,99,246c.07.16.12.33.19.5,11.07,2.29,20.27,11.92,22.81,25.37a4.28,4.28,0,0,0,.1.59c3.17,18.38-7.25,36.83-23.22,41.11a26.47,26.47,0,0,1-5,.81,25.82,25.82,0,0,0,8.53-.81C118.44,309.3,128.86,290.85,125.69,272.47Z"/><path class="cls-48" d="M91,246.87a25.68,25.68,0,0,1,8-.87,43.56,43.56,0,0,1,1.94,5.56,26.52,26.52,0,0,0-9,.82c-14.3,3.83-24.22,18.73-24.27,35C64.79,269.2,75.15,251.1,91,246.87Z"/><line class="cls-62" x1="361" y1="551.76" x2="544.01" y2="551.76"/><rect class="cls-63" x="432.75" y="493.25" width="85.31" height="18.81" rx="2.03"/><path class="cls-38" d="M515,512.06H435.82a3.13,3.13,0,0,1-3-2.78,3.29,3.29,0,0,0,.44.05h58.18a9.26,9.26,0,0,0,9-9.5V493.3h15a3.17,3.17,0,0,1,2.64,3.19v12.33a3.16,3.16,0,0,1-3.08,3.24Z"/><line class="cls-64" x1="475.26" y1="507.76" x2="475.26" y2="497.32"/><line class="cls-64" x1="468.99" y1="507.76" x2="468.99" y2="497.32"/><line class="cls-64" x1="462.71" y1="507.76" x2="462.71" y2="497.32"/><line class="cls-64" x1="456.44" y1="507.76" x2="456.44" y2="497.32"/><line class="cls-64" x1="450.17" y1="507.76" x2="450.17" y2="497.32"/><line class="cls-64" x1="443.89" y1="507.76" x2="443.89" y2="497.32"/><line class="cls-64" x1="437.62" y1="507.76" x2="437.62" y2="497.32"/><line class="cls-64" x1="512.91" y1="507.7" x2="512.91" y2="497.26"/><line class="cls-64" x1="506.63" y1="507.7" x2="506.63" y2="497.26"/><line class="cls-64" x1="500.36" y1="507.7" x2="500.36" y2="497.26"/><line class="cls-64" x1="494.08" y1="507.7" x2="494.08" y2="497.26"/><line class="cls-64" x1="487.81" y1="507.7" x2="487.81" y2="497.26"/><line class="cls-64" x1="481.54" y1="507.7" x2="481.54" y2="497.26"/><rect class="cls-65" x="446.59" y="493.3" width="25.44" height="18.77" rx="1.92"/><rect class="cls-63" x="438.6" y="512.17" width="85.31" height="18.81" rx="2.03"/><path class="cls-38" d="M520.83,531H441.67a3.13,3.13,0,0,1-3-2.78h58.61a9.26,9.26,0,0,0,9-9.49v-6.54h15a3.19,3.19,0,0,1,2.64,3.2v12.33a3.16,3.16,0,0,1-3,3.28Z"/><line class="cls-64" x1="481.11" y1="526.68" x2="481.11" y2="516.24"/><line class="cls-64" x1="474.84" y1="526.68" x2="474.84" y2="516.24"/><line class="cls-64" x1="468.56" y1="526.68" x2="468.56" y2="516.24"/><line class="cls-64" x1="462.29" y1="526.68" x2="462.29" y2="516.24"/><line class="cls-64" x1="456.01" y1="526.68" x2="456.01" y2="516.24"/><line class="cls-64" x1="449.74" y1="526.68" x2="449.74" y2="516.24"/><line class="cls-64" x1="443.47" y1="526.68" x2="443.47" y2="516.24"/><line class="cls-64" x1="518.75" y1="526.62" x2="518.75" y2="516.18"/><line class="cls-64" x1="512.48" y1="526.62" x2="512.48" y2="516.18"/><line class="cls-64" x1="506.21" y1="526.62" x2="506.21" y2="516.18"/><line class="cls-64" x1="499.93" y1="526.62" x2="499.93" y2="516.18"/><line class="cls-64" x1="493.66" y1="526.62" x2="493.66" y2="516.18"/><line class="cls-64" x1="487.38" y1="526.62" x2="487.38" y2="516.18"/><rect class="cls-65" x="452.44" y="512.21" width="25.44" height="18.77" rx="1.92"/><rect class="cls-63" x="428.21" y="530.78" width="85.31" height="18.81" rx="2.03"/><path class="cls-38" d="M510.44,549.59H431.29a3.14,3.14,0,0,1-3-2.78,3.29,3.29,0,0,0,.44.05h58.18a9.26,9.26,0,0,0,9-9.5v-6.53h15a3.17,3.17,0,0,1,2.64,3.19v12.33a3.17,3.17,0,0,1-3.08,3.24Z"/><line class="cls-64" x1="470.72" y1="545.29" x2="470.72" y2="534.85"/><line class="cls-64" x1="464.45" y1="545.29" x2="464.45" y2="534.85"/><line class="cls-64" x1="458.18" y1="545.29" x2="458.18" y2="534.85"/><line class="cls-64" x1="451.9" y1="545.29" x2="451.9" y2="534.85"/><line class="cls-64" x1="445.63" y1="545.29" x2="445.63" y2="534.85"/><line class="cls-64" x1="439.35" y1="545.29" x2="439.35" y2="534.85"/><line class="cls-64" x1="433.08" y1="545.29" x2="433.08" y2="534.85"/><line class="cls-64" x1="508.37" y1="545.23" x2="508.37" y2="534.79"/><line class="cls-64" x1="502.09" y1="545.23" x2="502.09" y2="534.79"/><line class="cls-64" x1="495.82" y1="545.23" x2="495.82" y2="534.79"/><line class="cls-64" x1="489.55" y1="545.23" x2="489.55" y2="534.79"/><line class="cls-64" x1="483.27" y1="545.23" x2="483.27" y2="534.79"/><line class="cls-64" x1="477" y1="545.23" x2="477" y2="534.79"/><rect class="cls-65" x="442.06" y="530.83" width="25.44" height="18.77" rx="1.92"/><path class="cls-66" d="M480.24,512.17v-.11c-.18-1.45-.31-2.91-.38-4.39a44,44,0,0,1,1.78-14.42h-46v56.34H500.9v-.43A55.19,55.19,0,0,1,480.24,512.17Z"/><line class="cls-62" x1="243.87" y1="551.76" x2="341.54" y2="551.76"/><rect class="cls-63" x="256.23" y="493.25" width="85.31" height="18.81" rx="2.03"/><path class="cls-38" d="M338.46,512.06H259.31a3.14,3.14,0,0,1-3-2.78,3.29,3.29,0,0,0,.44.05h58.18a9.26,9.26,0,0,0,9-9.5V493.3h15a3.17,3.17,0,0,1,2.64,3.19v12.33a3.17,3.17,0,0,1-3.08,3.24Z"/><line class="cls-64" x1="298.74" y1="507.76" x2="298.74" y2="497.32"/><line class="cls-64" x1="292.47" y1="507.76" x2="292.47" y2="497.32"/><line class="cls-64" x1="286.2" y1="507.76" x2="286.2" y2="497.32"/><line class="cls-64" x1="279.92" y1="507.76" x2="279.92" y2="497.32"/><line class="cls-64" x1="273.65" y1="507.76" x2="273.65" y2="497.32"/><line class="cls-64" x1="267.37" y1="507.76" x2="267.37" y2="497.32"/><line class="cls-64" x1="261.1" y1="507.76" x2="261.1" y2="497.32"/><line class="cls-64" x1="336.39" y1="507.7" x2="336.39" y2="497.26"/><line class="cls-64" x1="330.11" y1="507.7" x2="330.11" y2="497.26"/><line class="cls-64" x1="323.84" y1="507.7" x2="323.84" y2="497.26"/><line class="cls-64" x1="317.57" y1="507.7" x2="317.57" y2="497.26"/><line class="cls-64" x1="311.29" y1="507.7" x2="311.29" y2="497.26"/><line class="cls-64" x1="305.02" y1="507.7" x2="305.02" y2="497.26"/><rect class="cls-65" x="270.08" y="493.3" width="25.44" height="18.77" rx="1.92"/><rect class="cls-63" x="264.76" y="512.17" width="85.31" height="18.81" rx="2.03"/><path class="cls-38" d="M347,531H267.83a3.13,3.13,0,0,1-3-2.78h58.61a9.26,9.26,0,0,0,9-9.49v-6.54h15a3.19,3.19,0,0,1,2.64,3.2v12.33a3.16,3.16,0,0,1-3,3.28Z"/><line class="cls-64" x1="307.27" y1="526.68" x2="307.27" y2="516.24"/><line class="cls-64" x1="301" y1="526.68" x2="301" y2="516.24"/><line class="cls-64" x1="294.72" y1="526.68" x2="294.72" y2="516.24"/><line class="cls-64" x1="288.45" y1="526.68" x2="288.45" y2="516.24"/><line class="cls-64" x1="282.17" y1="526.68" x2="282.17" y2="516.24"/><line class="cls-64" x1="275.9" y1="526.68" x2="275.9" y2="516.24"/><line class="cls-64" x1="269.63" y1="526.68" x2="269.63" y2="516.24"/><line class="cls-64" x1="344.91" y1="526.62" x2="344.91" y2="516.18"/><line class="cls-64" x1="338.64" y1="526.62" x2="338.64" y2="516.18"/><line class="cls-64" x1="332.37" y1="526.62" x2="332.37" y2="516.18"/><line class="cls-64" x1="326.09" y1="526.62" x2="326.09" y2="516.18"/><line class="cls-64" x1="319.82" y1="526.62" x2="319.82" y2="516.18"/><line class="cls-64" x1="313.54" y1="526.62" x2="313.54" y2="516.18"/><rect class="cls-65" x="278.6" y="512.21" width="25.44" height="18.77" rx="1.92"/><rect class="cls-63" x="251.83" y="531.09" width="85.31" height="18.81" rx="2.03"/><path class="cls-38" d="M334.06,549.9H254.9a3.13,3.13,0,0,1-3-2.78h58.61a9.26,9.26,0,0,0,9-9.49v-6.54h15a3.19,3.19,0,0,1,2.64,3.2v12.33a3.16,3.16,0,0,1-3,3.28Z"/><line class="cls-64" x1="294.34" y1="545.6" x2="294.34" y2="535.15"/><line class="cls-64" x1="288.07" y1="545.6" x2="288.07" y2="535.15"/><line class="cls-64" x1="281.79" y1="545.6" x2="281.79" y2="535.15"/><line class="cls-64" x1="275.52" y1="545.6" x2="275.52" y2="535.15"/><line class="cls-64" x1="269.24" y1="545.6" x2="269.24" y2="535.15"/><line class="cls-64" x1="262.97" y1="545.6" x2="262.97" y2="535.15"/><line class="cls-64" x1="256.7" y1="545.6" x2="256.7" y2="535.15"/><line class="cls-64" x1="331.98" y1="545.54" x2="331.98" y2="535.1"/><line class="cls-64" x1="325.71" y1="545.54" x2="325.71" y2="535.1"/><line class="cls-64" x1="319.44" y1="545.54" x2="319.44" y2="535.1"/><line class="cls-64" x1="313.16" y1="545.54" x2="313.16" y2="535.1"/><line class="cls-64" x1="306.89" y1="545.54" x2="306.89" y2="535.1"/><line class="cls-64" x1="300.61" y1="545.54" x2="300.61" y2="535.1"/><rect class="cls-65" x="265.67" y="531.13" width="25.44" height="18.77" rx="1.92"/><line class="cls-62" x1="229.77" y1="551.76" x2="205.9" y2="551.76"/><rect class="cls-63" x="370.13" y="530.78" width="85.31" height="18.81" rx="2.03"/><path class="cls-38" d="M452.37,549.59H373.21a3.13,3.13,0,0,1-3-2.78,3.29,3.29,0,0,0,.44.05h58.17a9.26,9.26,0,0,0,9-9.5v-6.53h15a3.17,3.17,0,0,1,2.64,3.19v12.33a3.16,3.16,0,0,1-3.08,3.24Z"/><line class="cls-64" x1="412.65" y1="545.29" x2="412.65" y2="534.85"/><line class="cls-64" x1="406.37" y1="545.29" x2="406.37" y2="534.85"/><line class="cls-64" x1="400.1" y1="545.29" x2="400.1" y2="534.85"/><line class="cls-64" x1="393.83" y1="545.29" x2="393.83" y2="534.85"/><line class="cls-64" x1="387.55" y1="545.29" x2="387.55" y2="534.85"/><line class="cls-64" x1="381.28" y1="545.29" x2="381.28" y2="534.85"/><line class="cls-64" x1="375" y1="545.29" x2="375" y2="534.85"/><line class="cls-64" x1="450.29" y1="545.23" x2="450.29" y2="534.79"/><line class="cls-64" x1="444.02" y1="545.23" x2="444.02" y2="534.79"/><line class="cls-64" x1="437.74" y1="545.23" x2="437.74" y2="534.79"/><line class="cls-64" x1="431.47" y1="545.23" x2="431.47" y2="534.79"/><line class="cls-64" x1="425.2" y1="545.23" x2="425.2" y2="534.79"/><line class="cls-64" x1="418.92" y1="545.23" x2="418.92" y2="534.79"/><rect class="cls-65" x="383.98" y="530.83" width="25.44" height="18.77" rx="1.92"/><rect class="cls-63" x="359.48" y="511.92" width="85.31" height="18.81" rx="2.03"/><path class="cls-38" d="M441.71,530.73H362.56a3.14,3.14,0,0,1-3-2.78h58.62a9.26,9.26,0,0,0,9-9.49V512h15a3.19,3.19,0,0,1,2.64,3.2v12.33A3.16,3.16,0,0,1,441.71,530.73Z"/><line class="cls-64" x1="401.99" y1="526.43" x2="401.99" y2="515.98"/><line class="cls-64" x1="395.72" y1="526.43" x2="395.72" y2="515.98"/><line class="cls-64" x1="389.44" y1="526.43" x2="389.44" y2="515.98"/><line class="cls-64" x1="383.17" y1="526.43" x2="383.17" y2="515.98"/><line class="cls-64" x1="376.9" y1="526.43" x2="376.9" y2="515.98"/><line class="cls-64" x1="370.62" y1="526.43" x2="370.62" y2="515.98"/><line class="cls-64" x1="364.35" y1="526.43" x2="364.35" y2="515.98"/><line class="cls-64" x1="439.64" y1="526.37" x2="439.64" y2="515.93"/><line class="cls-64" x1="433.36" y1="526.37" x2="433.36" y2="515.93"/><line class="cls-64" x1="427.09" y1="526.37" x2="427.09" y2="515.93"/><line class="cls-64" x1="420.81" y1="526.37" x2="420.81" y2="515.93"/><line class="cls-64" x1="414.54" y1="526.37" x2="414.54" y2="515.93"/><line class="cls-64" x1="408.27" y1="526.37" x2="408.27" y2="515.93"/><rect class="cls-65" x="373.32" y="511.96" width="25.44" height="18.77" rx="1.92"/><rect class="cls-63" x="390.09" y="493.27" width="85.31" height="18.81" rx="2.03"/><path class="cls-38" d="M472.33,512.08H393.17a3.13,3.13,0,0,1-3-2.78,3.15,3.15,0,0,0,.43.05h58.18a9.26,9.26,0,0,0,9-9.49v-6.54h15a3.19,3.19,0,0,1,2.64,3.2v12.32a3.16,3.16,0,0,1-3.08,3.24Z"/><line class="cls-64" x1="432.61" y1="507.78" x2="432.61" y2="497.34"/><line class="cls-64" x1="426.33" y1="507.78" x2="426.33" y2="497.34"/><line class="cls-64" x1="420.06" y1="507.78" x2="420.06" y2="497.34"/><line class="cls-64" x1="413.78" y1="507.78" x2="413.78" y2="497.34"/><line class="cls-64" x1="407.51" y1="507.78" x2="407.51" y2="497.34"/><line class="cls-64" x1="401.24" y1="507.78" x2="401.24" y2="497.34"/><line class="cls-64" x1="394.96" y1="507.78" x2="394.96" y2="497.34"/><line class="cls-64" x1="470.25" y1="507.73" x2="470.25" y2="497.28"/><line class="cls-64" x1="463.98" y1="507.73" x2="463.98" y2="497.28"/><line class="cls-64" x1="457.7" y1="507.73" x2="457.7" y2="497.28"/><line class="cls-64" x1="451.43" y1="507.73" x2="451.43" y2="497.28"/><line class="cls-64" x1="445.15" y1="507.73" x2="445.15" y2="497.28"/><line class="cls-64" x1="438.88" y1="507.73" x2="438.88" y2="497.28"/><rect class="cls-65" x="403.94" y="493.32" width="25.44" height="18.77" rx="1.92"/></g></g></g></g></svg>