<?xml version="1.0" encoding="UTF-8"?>
<!DOCTYPE svg PUBLIC "-//W3C//DTD SVG 1.1//EN" "http://www.w3.org/Graphics/SVG/1.1/DTD/svg11.dtd">
<!-- Creator: CorelDRAW 2020 (64-Bit Evaluation Version) -->
<svg xmlns="http://www.w3.org/2000/svg" xml:space="preserve" width="30px" height="29px" version="1.1" style="shape-rendering:geometricPrecision; text-rendering:geometricPrecision; image-rendering:optimizeQuality; fill-rule:evenodd; clip-rule:evenodd"
viewBox="0 0 1.48 1.42"
 xmlns:xlink="http://www.w3.org/1999/xlink"
 xmlns:xodm="http://www.corel.com/coreldraw/odm/2003">
 <defs>
  <style type="text/css">
   <![CDATA[
    .fil0 {fill:#263674}
    .fil1 {fill:#EFB30C}
    .fil2 {fill:white}
   ]]>
  </style>
 </defs>
 <g id="Layer_x0020_1">
  <metadata id="CorelCorpID_0Corel-Layer"/>
  <path class="fil0" d="M0.77 0l0.02 0 0.6 0c0.05,0 0.08,0.04 0.08,0.08 0,0.04 -0.03,0.08 -0.08,0.08l-0.17 0c0.16,0.13 0.26,0.33 0.26,0.55 0,0.39 -0.32,0.71 -0.71,0.71l-0.03 0 -0.01 0 -0.65 0c-0.04,0 -0.08,-0.04 -0.08,-0.08 0,-0.05 0.04,-0.08 0.08,-0.08l0.24 0c-0.16,-0.13 -0.26,-0.33 -0.26,-0.55 0,-0.38 0.29,-0.68 0.66,-0.71l0.02 0 0.01 0 0.02 0zm0 0.13c0.16,0 0.3,0.06 0.41,0.17 0.1,0.1 0.17,0.25 0.17,0.41 0,0.16 -0.07,0.3 -0.17,0.41 -0.11,0.1 -0.25,0.17 -0.41,0.17 -0.16,0 -0.3,-0.07 -0.41,-0.17 -0.1,-0.11 -0.17,-0.25 -0.17,-0.41 0,-0.16 0.07,-0.31 0.17,-0.41 0.11,-0.11 0.25,-0.17 0.41,-0.17z"/>
  <circle class="fil1" cx="0.76" cy="0.71" r="0.5"/>
  <path class="fil2" d="M0.76 0.41c0.05,0.05 0.06,0.14 0.11,0.18 0.06,0.03 0.15,0.02 0.21,0.04 -0.03,0.06 -0.11,0.11 -0.15,0.16 0,0.07 0.04,0.15 0.03,0.21 -0.06,-0.01 -0.13,-0.07 -0.2,-0.08 -0.06,0.01 -0.12,0.07 -0.19,0.09 -0.01,-0.07 0.03,-0.15 0.03,-0.22 -0.04,-0.05 -0.12,-0.09 -0.15,-0.15 0.06,-0.03 0.15,-0.02 0.21,-0.05 0.04,-0.04 0.06,-0.13 0.1,-0.18z"/>
 </g>
</svg>
