<svg xmlns="http://www.w3.org/2000/svg" xmlns:xlink="http://www.w3.org/1999/xlink" width="500" height="334" viewBox="0 0 17.51 11.69" shape-rendering="geometricPrecision" image-rendering="optimizeQuality" fill-rule="evenodd" xmlns:v="https://vecta.io/nano"><defs><clipPath id="A"><path d="M17.14 11.24V.45H7.2.38v10.79h13.67 3.09z"/></clipPath><path id="B" d="M15.86 9.27c.01-.02.02-.07.02-.12a.39.39 0 0 0-.02-.13c-.02-.02-.04-.04-.07-.04s-.06.02-.07.04c-.02.03-.03.07-.03.13 0 .05.01.1.03.12.01.03.04.04.07.04s.05-.01.07-.04zm-.18.03c-.02-.03-.03-.08-.03-.15a.35.35 0 0 1 .03-.16c.03-.03.06-.05.11-.05.04 0 .08.02.1.05.03.04.04.09.04.16 0 .06-.01.12-.04.15-.02.04-.06.05-.1.05-.05 0-.08-.01-.11-.05z"/><path id="C" d="M15.86 6.85a.39.39 0 0 0 .02-.13c0-.05-.01-.1-.02-.12-.02-.03-.04-.04-.07-.04s-.06.01-.07.04c-.02.02-.03.07-.03.12 0 .06.01.1.03.13.01.03.04.04.07.04s.05-.01.07-.04zm-.18.03a.35.35 0 0 1-.03-.16c0-.06.01-.11.03-.15.03-.03.06-.05.11-.05.04 0 .08.02.1.05.03.04.04.09.04.15 0 .07-.01.12-.04.16-.02.03-.06.05-.1.05-.05 0-.08-.02-.11-.05z"/><path id="D" d="M15.86 4.43a.39.39 0 0 0 .02-.13.39.39 0 0 0-.02-.13c-.02-.02-.04-.04-.07-.04s-.06.02-.07.04c-.02.03-.03.07-.03.13s.01.1.03.13c.01.02.04.04.07.04s.05-.02.07-.04zm-.18.02c-.02-.03-.03-.08-.03-.15s.01-.12.03-.15c.03-.04.06-.06.11-.06a.11.11 0 0 1 .1.06c.03.03.04.08.04.15s-.01.12-.04.15a.11.11 0 0 1-.1.06c-.05 0-.08-.02-.11-.06z"/><path id="E" d="M15.86 2a.39.39 0 0 0 .02-.13c0-.05-.01-.09-.02-.12-.02-.03-.04-.04-.07-.04s-.06.01-.07.04c-.02.03-.03.07-.03.12 0 .06.01.1.03.13.01.03.04.04.07.04s.05-.01.07-.04zm-.18.03c-.02-.04-.03-.09-.03-.15a.35.35 0 0 1 .03-.16c.03-.03.06-.05.11-.05.04 0 .08.02.1.05.03.04.04.09.04.15 0 .07-.01.12-.04.16-.02.03-.06.05-.1.05-.05 0-.08-.02-.11-.05z"/><path id="F" d="M.41 2.06H.19v-.02h.22v.02zm.44 0H.63v-.02h.22v.02zm.44 0h-.22v-.02h.22v.02zm.44 0h-.22v-.02h.22v.02zm.44 0h-.22v-.02h.22v.02zm.44 0h-.22v-.02h.22v.02zm.43 0h-.22v-.02h.22v.02zm.44 0h-.22v-.02h.22v.02zm.44 0H3.7v-.02h.22v.02zm.44 0h-.22v-.02h.22v.02zm.44 0h-.22v-.02h.22v.02zm.43 0h-.21v-.02h.21v.02zm.44 0h-.22v-.02h.22v.02zm.44 0h-.22v-.02h.22v.02zm.44 0h-.22v-.02h.22v.02zm.44 0h-.22v-.02h.22v.02zm.44 0h-.22v-.02h.22v.02zm.44 0h-.22v-.02h.22v.02zm.43 0h-.22v-.02h.22v.02zm.44 0h-.22v-.02h.22v.02zm.44 0h-.22v-.02h.22v.02zm.44 0H9.4v-.02h.22v.02zm.44 0h-.22v-.02h.22v.02zm.43 0h-.21v-.02h.21v.02zm.44 0h-.22v-.02h.22v.02zm.44 0h-.22v-.02h.22v.02zm.44 0h-.22v-.02h.22v.02zm.44 0h-.22v-.02h.22v.02zm.44 0h-.22v-.02h.22v.02zm.43 0h-.21v-.02h.21v.02zm.44 0h-.22v-.02h.22v.02zm.44 0h-.22v-.02H14v.02zm.44 0h-.22v-.02h.22v.02zm.37 0h-.15v-.02h.15v.02z"/></defs><path d="M17.14 11.24V.45H7.2.38v10.79h13.67z" fill="#fefefe"/><g clip-path="url(#A)" fill-rule="nonzero"><path d="M15.14 9.67h1.94v-.81h-1.94z" fill="#263674"/><path d="M15.14 9.54h1.94v-.8h-1.94z" fill="#fdcb08"/><g fill="#fefefe"><path d="M15.32 8.95h.26v.03l-.19.37h-.05l.19-.36h-.21z"/><use xlink:href="#B"/><path d="M16.2 9.27c.01-.02.02-.07.02-.12a.39.39 0 0 0-.02-.13c-.02-.02-.04-.04-.07-.04s-.06.02-.07.04c-.02.03-.03.07-.03.13 0 .05.01.1.03.12.01.03.04.04.07.04s.05-.01.07-.04zm-.18.03c-.02-.03-.03-.08-.03-.15a.35.35 0 0 1 .03-.16c.03-.03.06-.05.11-.05.04 0 .08.02.1.05.03.04.04.09.04.16 0 .06-.01.12-.04.15-.02.04-.06.05-.1.05-.05 0-.08-.01-.11-.05z"/><path d="M16.33 9.35h.06v-.06h-.06zm.31-.04h.08v.04h-.22v-.04h.09V9l-.08.06v-.05l.1-.06h.03zm.33 0h.09v.04h-.22v-.04h.09V9l-.09.06v-.05l.11-.06h.02z"/></g><g fill="#cfd1d2"><path d="M15.32 6.52h.26v.04l-.19.36h-.05l.19-.36h-.21z"/><use xlink:href="#C"/><path d="M16.2 6.85a.39.39 0 0 0 .02-.13c0-.05-.01-.1-.02-.12-.02-.03-.04-.04-.07-.04s-.06.01-.07.04c-.02.02-.03.07-.03.12 0 .06.01.1.03.13.01.03.04.04.07.04s.05-.01.07-.04zm-.18.03a.35.35 0 0 1-.03-.16c0-.06.01-.11.03-.15.03-.03.06-.05.11-.05.04 0 .08.02.1.05.03.04.04.09.04.15 0 .07-.01.12-.04.16-.02.03-.06.05-.1.05-.05 0-.08-.02-.11-.05z"/><path d="M16.33 6.92h.06v-.05h-.06zm.31-.03h.08v.03h-.22v-.03h.09v-.31l-.08.05v-.04l.1-.07h.03zm.43 0v.03h-.26v-.03l.14-.16.05-.05c0-.02.01-.04.01-.05 0-.03-.01-.04-.02-.06-.01-.01-.03-.01-.06-.01s-.07.01-.11.04l-.02-.03c.02-.02.04-.03.06-.04.03-.01.05-.01.08-.01s.06.01.08.03.04.04.04.07-.01.05-.02.07-.03.05-.05.07l-.12.13h.2zM15.32 4.1h.26v.03l-.19.37h-.05l.19-.36h-.21z"/><use xlink:href="#D"/><path d="M16.2 4.43a.39.39 0 0 0 .02-.13.39.39 0 0 0-.02-.13c-.02-.02-.04-.04-.07-.04s-.06.02-.07.04c-.02.03-.03.07-.03.13s.01.1.03.13c.01.02.04.04.07.04s.05-.02.07-.04zm-.18.02c-.02-.03-.03-.08-.03-.15s.01-.12.03-.15c.03-.04.06-.06.11-.06a.11.11 0 0 1 .1.06c.03.03.04.08.04.15s-.01.12-.04.15a.11.11 0 0 1-.1.06c-.05 0-.08-.02-.11-.06z"/><path d="M16.33 4.5h.06v-.06h-.06zm.31-.04h.08v.04h-.22v-.04h.09v-.3l-.08.05v-.05l.1-.06h.03z"/><path d="M17.05 4.33c.01.02.01.04.01.06 0 .04-.01.06-.03.08s-.06.03-.1.03c-.02 0-.05 0-.07-.01-.03-.01-.05-.02-.06-.04l.01-.03c.04.03.08.05.12.05.03 0 .05-.01.07-.02.01-.02.02-.04.02-.06 0-.05-.03-.07-.09-.07h-.05v-.04h.04c.03 0 .05-.01.07-.02.01-.02.02-.03.02-.06 0-.02-.01-.04-.02-.05s-.03-.02-.06-.02-.07.02-.11.05l-.02-.04.06-.03c.03-.01.05-.02.08-.02s.06.01.08.03.04.04.04.08c0 .02-.01.04-.02.06-.01.01-.03.03-.05.03.03.01.04.02.06.04zm-1.73-2.66h.26v.04l-.19.37h-.05l.19-.37h-.21z"/><use xlink:href="#E"/><path d="M16.2 2a.39.39 0 0 0 .02-.13c0-.05-.01-.09-.02-.12-.02-.03-.04-.04-.07-.04s-.06.01-.07.04c-.02.03-.03.07-.03.12 0 .06.01.1.03.13.01.03.04.04.07.04s.05-.01.07-.04zm-.18.03c-.02-.04-.03-.09-.03-.15a.35.35 0 0 1 .03-.16c.03-.03.06-.05.11-.05.04 0 .08.02.1.05.03.04.04.09.04.15 0 .07-.01.12-.04.16-.02.03-.06.05-.1.05-.05 0-.08-.02-.11-.05z"/><path d="M16.33 2.08h.06v-.06h-.06zm.31-.04h.08v.04h-.22v-.04h.09v-.31l-.08.05v-.04l.1-.07h.03zm.2-.09h.14v-.2l-.14.2zm.25 0v.04h-.06v.09h-.05v-.09h-.19v-.04l.2-.28h.04v.28h.06z"/></g><g fill="#babcbe"><use xlink:href="#F"/><path d="M.41 4.49H.19v-.02h.22v.02zm.44 0H.63v-.02h.22v.02zm.44 0h-.22v-.02h.22v.02zm.44 0h-.22v-.02h.22v.02zm.44 0h-.22v-.02h.22v.02zm.44 0h-.22v-.02h.22v.02zm.43 0h-.22v-.02h.22v.02zm.44 0h-.22v-.02h.22v.02zm.44 0H3.7v-.02h.22v.02zm.44 0h-.22v-.02h.22v.02zm.44 0h-.22v-.02h.22v.02zm.43 0h-.21v-.02h.21v.02zm.44 0h-.22v-.02h.22v.02zm.44 0h-.22v-.02h.22v.02zm.44 0h-.22v-.02h.22v.02zm.44 0h-.22v-.02h.22v.02zm.44 0h-.22v-.02h.22v.02zm.44 0h-.22v-.02h.22v.02zm.43 0h-.22v-.02h.22v.02zm.44 0h-.22v-.02h.22v.02zm.44 0h-.22v-.02h.22v.02zm.44 0H9.4v-.02h.22v.02zm.44 0h-.22v-.02h.22v.02zm.43 0h-.21v-.02h.21v.02zm.44 0h-.22v-.02h.22v.02zm.44 0h-.22v-.02h.22v.02zm.44 0h-.22v-.02h.22v.02zm.44 0h-.22v-.02h.22v.02zm.44 0h-.22v-.02h.22v.02zm.43 0h-.21v-.02h.21v.02zm.44 0h-.22v-.02h.22v.02zm.44 0h-.22v-.02H14v.02zm.44 0h-.22v-.02h.22v.02zm.37 0h-.15v-.02h.15v.02zM.41 6.91H.19v-.02h.22v.02zm.44 0H.63v-.02h.22v.02zm.44 0h-.22v-.02h.22v.02zm.44 0h-.22v-.02h.22v.02zm.44 0h-.22v-.02h.22v.02zm.44 0h-.22v-.02h.22v.02zm.43 0h-.22v-.02h.22v.02zm.44 0h-.22v-.02h.22v.02zm.44 0H3.7v-.02h.22v.02zm.44 0h-.22v-.02h.22v.02zm.44 0h-.22v-.02h.22v.02zm.43 0h-.21v-.02h.21v.02zm.44 0h-.22v-.02h.22v.02zm.44 0h-.22v-.02h.22v.02zm.44 0h-.22v-.02h.22v.02zm.44 0h-.22v-.02h.22v.02zm.44 0h-.22v-.02h.22v.02zm.44 0h-.22v-.02h.22v.02zm.43 0h-.22v-.02h.22v.02zm.44 0h-.22v-.02h.22v.02zm.44 0h-.22v-.02h.22v.02zm.44 0H9.4v-.02h.22v.02zm.44 0h-.22v-.02h.22v.02zm.43 0h-.21v-.02h.21v.02zm.44 0h-.22v-.02h.22v.02zm.44 0h-.22v-.02h.22v.02zm.44 0h-.22v-.02h.22v.02zm.44 0h-.22v-.02h.22v.02zm.44 0h-.22v-.02h.22v.02zm.43 0h-.21v-.02h.21v.02zm.44 0h-.22v-.02h.22v.02zm.44 0h-.22v-.02H14v.02zm.44 0h-.22v-.02h.22v.02zm.37 0h-.15v-.02h.15v.02zM.41 9.34H.19v-.03h.22v.03zm.44 0H.63v-.03h.22v.03zm.44 0h-.22v-.03h.22v.03zm.44 0h-.22v-.03h.22v.03zm.44 0h-.22v-.03h.22v.03zm.44 0h-.22v-.03h.22v.03zm.43 0h-.22v-.03h.22v.03zm.44 0h-.22v-.03h.22v.03zm.44 0H3.7v-.03h.22v.03zm.44 0h-.22v-.03h.22v.03zm.44 0h-.22v-.03h.22v.03zm.43 0h-.21v-.03h.21v.03zm.44 0h-.22v-.03h.22v.03zm.44 0h-.22v-.03h.22v.03zm.44 0h-.22v-.03h.22v.03zm.44 0h-.22v-.03h.22v.03zm.44 0h-.22v-.03h.22v.03zm.44 0h-.22v-.03h.22v.03zm.43 0h-.22v-.03h.22v.03zm.44 0h-.22v-.03h.22v.03zm.44 0h-.22v-.03h.22v.03zm.44 0H9.4v-.03h.22v.03zm.44 0h-.22v-.03h.22v.03zm.43 0h-.21v-.03h.21v.03zm.44 0h-.22v-.03h.22v.03zm.44 0h-.22v-.03h.22v.03zm.44 0h-.22v-.03h.22v.03zm.44 0h-.22v-.03h.22v.03zm.44 0h-.22v-.03h.22v.03zm.43 0h-.21v-.03h.21v.03zm.44 0h-.22v-.03h.22v.03zm.44 0h-.22v-.03H14v.03zm.44 0h-.22v-.03h.22v.03zm.37 0h-.15v-.03h.15v.03z"/></g><path d="M.53 9.5c-.01.02-.02.05-.02.08-.02-.01-.04-.01-.06-.02.02-.03.04-.05.05-.08.01-.02.05 0 .06.01.02.03.04.06.06.08-.01 0-.03 0-.04-.01l.06-.06c.02-.01.04-.01.05 0l.09.06c-.02 0-.03 0-.05.01.02-.04.02-.07.03-.11 0-.02.04-.01.05 0 .02.01.03.02.05.03-.01 0-.03 0-.04.01.01-.08.03-.15.03-.22 0-.02.03-.02.05-.02.02.02.06.03.09.04-.02 0-.03 0-.05.01.01-.05.03-.09.03-.14 0-.02.05-.01.06 0 .08.1.11.23.18.33h-.06l.03-.11c.01-.02.06-.01.06.01.01.08.04.15.09.21-.02 0-.03-.01-.05-.01.02-.03.05-.06.07-.1.01-.02.05 0 .05.01.03.06.09.1.13.15h-.06a.57.57 0 0 1 .11-.22c.01-.02.04-.01.05 0 .03.04.07.07.1.1h-.06c.01-.07.04-.14.04-.22 0-.02.04-.02.05 0 .03.04.08.06.11.1h-.05c0-.06.03-.11.03-.17 0-.02.03-.01.04-.01l.08.03c-.01.01-.02.01-.04.02-.05-.5-.04-1.01.04-1.51.08-.46.05-.96.23-1.4.01-.02.05-.01.06.01.15.21.12.48.22.71-.02 0-.04 0-.06-.01.14-.1.18-.23.17-.4 0-.03.06-.02.06.01l.03.1c-.02 0-.04 0-.06-.01-.01-.22.13-.42.22-.62.05-.12.09-.23.12-.35.02-.06.03-.12.04-.18.01-.02.05-.05.07-.07.01-.02.05-.01.06.01.01.13.08.24.13.36-.02-.01-.04-.01-.06-.01 0-.03.01-.06.01-.08s.02-.02.03-.02c.02 0 .05.01.07.02.01.01.01.01.01.02v.01c0 .02-.06.01-.06-.02.01-.11.07-.22.13-.32.05-.09.08-.18.1-.29.03-.13.09-.29.25-.28-.01 0-.02.01-.02.01.01-.14 0-.34.2-.29-.01.01-.02.01-.03.01.01-.08.04-.15.07-.23.01-.02.05-.01.06.01.19.26.12.57.21.86-.02 0-.04-.01-.06-.01V5.3c0-.03.05-.01.06.01.01.05.03.09.05.14-.02-.01-.04-.01-.06-.01a.3.3 0 0 0 .04-.08c.01-.02.05-.01.06.01.03.04.05.08.08.12.01.03-.01.09 0 .12a.19.19 0 0 0 .1.18h-.05c.02-.04.03-.08.03-.12 0-.02.05-.01.06 0 .01.02.02.03.03.05-.01 0-.03 0-.05-.01.01-.06.04-.11.11-.1.08.01.16.11.21-.01 0-.02.04-.01.05.01l.26.33c-.02-.01-.04-.01-.06-.01.01-.02.02-.03.03-.05.01-.01.05 0 .06.01.02.06.07.1.1.15-.02 0-.04 0-.05-.01.02-.04.05-.08.08-.13 0-.01.03-.01.04 0 .02.01.04.02.06.02-.01.01-.03.01-.04.01 0-.03 0-.06.01-.09 0-.02.04-.01.04-.01.02.01.03.02.04.02-.01.01-.03.01-.04.01.01-.05.03-.09.05-.14.01-.02.04-.02.05-.01l.09.06h-.05c.01-.06.05-.12.07-.18 0-.02.04-.01.05 0 .02.02.05.04.07.05-.01.01-.03.01-.05.01.01-.06.03-.12.03-.19 0-.03.05-.01.06 0 .02.04.04.06.06.09-.02-.01-.04-.01-.06-.01.02-.15.11-.29.15-.44.03-.14.05-.3.07-.45 0-.01.03-.01.04-.01s.03.01.05.01c-.01.01-.02.01-.03.01.08-.53.03-1.08.2-1.6.01-.03.05-.01.06 0l.03.03h-.05c.03-.11.04-.22.06-.34 0-.02.04-.01.05 0 .02.01.03.01.05.02-.01 0-.03.01-.04.01.01-.08.03-.16.05-.24.01-.02.06-.01.06.01.02.05.05.08.07.12-.02-.01-.04-.01-.06-.01.02-.04.05-.07.07-.1.01-.02.05-.01.06.01 0 .05.02.11.03.16-.02-.01-.04-.01-.06-.01l.06-.12c.01-.02.04-.01.06 0 .03.04.08.06.11.1h-.05c.01-.04.03-.08.05-.12.01-.02.05-.01.06.02.02.08.04.15.11.2H7c.01-.04.04-.08.07-.12 0-.02.03-.01.05 0 .03.02.06.03.09.05h-.05c.03-.05.07-.08.1-.13.01-.02.04-.01.05 0 .04.05.09.07.12.12h-.06c.03-.05.07-.08.1-.12.01-.01.06 0 .06.02.01.08.06.15.16.11.02-.01.05-.01.05.02.04.16.11.31.15.47-.02-.01-.04-.02-.05-.02.18-.07.16-.41.2-.57 0-.02.04-.01.05 0s.03.02.04.03c-.02 0-.03.01-.05.01.06-.2.22-.34.36-.48.01-.02.04-.01.05.01a.43.43 0 0 0 .17.13c-.01 0-.03 0-.04.01.01-.05.05-.08.06-.13 0-.02.05-.01.06.01.03.06.09.11.13.16-.02 0-.04 0-.06-.01.02-.01.03-.03.04-.05.02-.01.06-.01.06.02.01.06.08.12.14.06.01-.02.05-.01.05.01.01.01.01.01.01.02-.01-.01-.02-.01-.03-.02.01 0 .02 0 .03.01h-.04c.05-.06.1-.13.14-.19.01-.02.05-.01.06.01.01.03.03.05.04.08-.02 0-.03-.01-.05-.01.09-.15.3-.17.43-.27.01-.01.04 0 .05.01.07.06.12.13.19.19h-.06l.03-.06c.01-.02.05 0 .06.01.03.06.09.1.15.15h-.05c.03-.03.06-.05.09-.07.01-.01.04 0 .05.01a.36.36 0 0 0 .18.12c-.01.01-.02.01-.04.01l.06-.06c.02-.01.05 0 .06.01l.06.09h-.06c.01-.03.02-.04.04-.06.02-.01.04-.01.06.01.05.05.12.07.18.1h-.04c.01-.02.01-.04.02-.05 0-.01.02-.02.03-.02.3.06.61.07.91.07l.94-.01.47-.04.36-.03.28.02c.07.01.23.04.28-.03.02-.02.07 0 .06.02-.09.11-.35.05-.46.04-.3-.02-.6.03-.89.05-.33.03-.65.02-.98.02-.32 0-.65-.01-.97-.07.01 0 .02 0 .03-.01-.01.03-.01.05-.03.07 0 .01-.03 0-.04 0-.07-.04-.14-.06-.2-.12.01 0 .03 0 .05.01-.02.01-.03.02-.04.04-.01.03-.05.01-.06 0l-.06-.09c.02 0 .04 0 .06.01-.02.02-.04.03-.06.05-.01.01-.03.01-.04.01a.51.51 0 0 1-.21-.15.09.09 0 0 0 .05.01l-.09.06c-.01.01-.03.01-.04 0-.07-.05-.13-.09-.17-.17.02.01.04.01.06.01l-.03.06c-.01.02-.04.01-.05 0-.06-.07-.12-.14-.19-.2.01.01.03.01.05.01-.13.1-.34.12-.43.27-.01.01-.05 0-.05-.02-.02-.02-.03-.05-.05-.08.02 0 .04.01.06.01l-.14.2c-.01.01-.02.01-.03 0-.04-.01-.05-.01-.06-.04.02 0 .04.01.06.01-.1.11-.24.06-.25-.09.02.01.04.01.06.02-.01.01-.03.03-.04.05-.02.02-.05 0-.06-.01-.04-.06-.1-.1-.13-.17.02 0 .04.01.06.01-.01.04-.04.08-.06.12-.01.02-.03.02-.04.01-.09-.03-.15-.08-.2-.16.02.01.04.01.05.01-.13.15-.29.28-.35.47-.01.02-.04.01-.05.01-.02-.02-.03-.02-.05-.04h.06c-.04.18-.02.51-.23.58-.01.01-.04 0-.05-.02l-.14-.47c.02.01.04.01.06.02-.14.06-.26 0-.27-.15.02.01.04.01.06.02-.04.03-.07.06-.1.1-.01.02-.04.01-.05 0-.03-.05-.08-.07-.12-.11h.06c-.03.05-.07.08-.1.13-.01.02-.04.01-.05 0-.03-.02-.06-.03-.09-.05h.05c-.03.04-.06.07-.07.12-.01.02-.05.01-.06 0-.07-.06-.1-.14-.12-.23.02 0 .04.01.06.01-.02.04-.04.07-.05.11-.01.02-.05.01-.06 0-.03-.03-.08-.06-.11-.09h.05l-.06.11c-.01.03-.06.01-.06-.01-.01-.05-.03-.1-.04-.15.02 0 .04.01.06.01-.02.04-.04.07-.06.1-.01.02-.05.01-.06-.01-.02-.04-.05-.08-.07-.12.02 0 .04 0 .06.01-.02.08-.04.15-.05.24-.01.01-.04.01-.05 0l-.06-.03h.05l-.06.34c-.01.02-.05.01-.06 0s-.02-.03-.03-.04h.05c-.17.52-.12 1.08-.2 1.61 0 .01-.02.01-.03.01-.02 0-.04-.01-.06-.01.01-.01.02-.01.03-.01L6 5.12c-.04.15-.13.28-.15.44 0 .02-.05 0-.06-.01-.02-.03-.04-.06-.06-.08h.06c0 .07-.02.13-.03.19 0 .02-.04.01-.05.01-.02-.02-.05-.04-.07-.06h.05c-.02.06-.06.11-.07.18-.01.02-.04.01-.05 0-.03-.02-.06-.03-.09-.05.02-.01.03-.01.05-.01-.01.05-.04.1-.05.15 0 .02-.03.01-.04.01l-.05-.03c.01-.01.03-.01.05-.01-.01.04-.01.06-.01.1 0 .02-.03.01-.04.01-.02-.01-.05-.02-.07-.03.02 0 .03-.01.05-.01-.03.05-.06.08-.08.13-.02.02-.05.01-.06-.01-.04-.05-.09-.08-.11-.14.02 0 .04 0 .06.01-.01.01-.02.03-.03.04-.01.02-.05 0-.06-.01-.08-.11-.18-.21-.25-.33.02 0 .04.01.06.01-.03.06-.07.09-.13.08l-.09-.03c-.06-.03-.09-.01-.1.06 0 .02-.05.01-.06 0s-.02-.03-.03-.05c.01.01.03.01.05.01 0 .04-.01.08-.02.12-.01.02-.04.01-.05.01-.08-.05-.12-.12-.14-.21 0-.03.02-.1 0-.12-.02-.04-.04-.08-.07-.12.02 0 .04.01.06.01a.69.69 0 0 0-.03.08c-.01.02-.06.01-.06-.01-.03-.05-.05-.09-.06-.15.02 0 .04.01.06.01v.03c.01.03-.05.01-.06-.01-.09-.29-.02-.59-.21-.85.02 0 .04.01.06.01-.03.07-.06.15-.07.23-.01.02-.03.01-.04.01-.15-.04-.12.18-.13.27 0 .01-.02.01-.03.01-.16-.01-.19.23-.22.34-.04.19-.19.34-.21.53-.02-.01-.04-.01-.06-.02 0 .02 0 .01-.02.01.01 0 .02 0 .03-.01 0 .03-.01.06-.01.09 0 .02-.05 0-.06-.01-.05-.12-.12-.23-.14-.36.02 0 .04.01.06.01-.06.08-.07.15-.1.24-.03.11-.07.22-.11.32-.08.21-.24.42-.23.65 0 .03-.06.02-.06-.01l-.03-.1c.02 0 .04 0 .06.01.02.17-.03.32-.18.42-.01.01-.05 0-.05-.01-.09-.24-.07-.51-.22-.72.02 0 .04 0 .06.01-.17.42-.13.89-.21 1.33-.09.52-.11 1.04-.06 1.56 0 .02-.03.02-.04.01l-.08-.03h.04c0 .05-.03.11-.03.17 0 .02-.05 0-.06 0-.03-.04-.07-.07-.11-.11h.06c0 .08-.03.15-.04.23 0 .02-.05.01-.05 0-.03-.04-.07-.07-.1-.1h.05a.67.67 0 0 0-.1.21c-.01.03-.05.01-.06 0-.04-.06-.09-.09-.12-.15a.09.09 0 0 1 .05.01c-.02.03-.05.06-.07.1-.01.01-.04 0-.05-.01-.05-.07-.08-.14-.1-.22.02 0 .04 0 .06.01l-.03.1c0 .03-.05.01-.05 0-.07-.11-.1-.23-.18-.33.02 0 .04.01.05.01 0 .04-.02.09-.03.13 0 .02-.03.01-.04.01L.87 9.3c.02-.01.03-.01.04-.02 0 .08-.02.15-.03.23 0 .02-.04.01-.04.01-.03-.01-.05-.02-.07-.04h.05c0 .04-.01.07-.03.1-.01.02-.04.01-.05 0-.03-.01-.06-.03-.09-.05h.04c-.02.02-.04.04-.07.06-.01.02-.04.01-.05 0a.36.36 0 0 1-.07-.1c.02.01.04.01.06.01-.02.03-.03.06-.05.08s-.07.01-.06-.02c0-.03.01-.06.03-.09.01-.02.07 0 .05.03z" fill="#fdcb08"/><path d="M.37 9.68c-.01.04-.03.06 0 .1-.02 0-.04-.01-.06-.01.14-.06.29-.04.43 0H.71c.13-.08.34-.08.46.02-.02-.01-.04-.01-.06-.01.05-.04.09-.06.14-.06.03 0 .05.01.07.01.05.02.1.01.16.01.01 0 .02 0 .03.01.07.03.09.02.15-.01.07-.04.13-.09.2-.14.01-.01.06 0 .06.02.01.02.02.03.03.05-.02 0-.04-.01-.07-.01l.03-.11c0-.02.06 0 .06.02.02.04.05.08.07.13-.02-.01-.05-.01-.07-.02.07-.13.09-.27.1-.42l.01-.22c0-.04-.03-.14 0-.16.01-.02.06 0 .06.01.01.01.01.01.01.02-.02-.01-.04-.01-.06-.02.04-.14.03-.28.03-.42 0-.02.06 0 .07.01.04.06.07.14.1.22-.03 0-.05-.01-.07-.01.03-.15.01-.31.02-.46 0-.02.06.01.07.02.02.03.04.05.06.08-.02 0-.04-.01-.06-.01.04-.19.02-.38.02-.58.01-.02.07.01.07.02.02.03.04.06.05.09-.02-.01-.04-.01-.07-.02.02-.11.02-.22.02-.33 0-.01.06 0 .07.02.02.05.05.1.08.16-.03-.01-.05-.01-.07-.02.05-.12.04-.26.07-.39 0-.02.06 0 .07.01l.06.11c-.02 0-.05-.01-.07-.01.08-.13.05-.28.12-.41.01-.02.06 0 .07.01.02.07.05.12.07.18-.02-.01-.04-.01-.07-.02.02-.09.02-.18.05-.27 0-.02.05 0 .06 0 .03.02.04.05.05.08-.02 0-.04-.01-.06-.01.01-.02.03-.03.04-.05s.06 0 .07.02c.03.15.04.32.1.47-.03 0-.05-.01-.07-.01l.04-.95c0-.02.07 0 .07.02a1.49 1.49 0 0 0 .02.21c-.02-.01-.05-.01-.07-.02.04-.13.04-.26.08-.39 0-.03.06 0 .06.01.02.03.05.06.07.09-.02 0-.04 0-.06-.01.04-.09.06-.18.07-.28.01-.02.07 0 .07.01.02.03.04.06.05.09-.02 0-.04-.01-.07-.01.02-.09.02-.17.04-.26.01-.02.07 0 .07.02.01.06.04.12.05.18-.02 0-.04-.01-.06-.01l.09-.3c.01-.02.06 0 .07.01.02.04.03.08.05.13-.03-.01-.05-.01-.07-.02 0-.01.03-.04.02-.05.02 0 .04.01.06.01.01.08.06.1.11.15-.02 0-.04 0-.07-.01.02-.05.05-.1.07-.16 0-.02.05.01.06.02.01 0 .02 0 .02.01h-.04l.06-.12c.01-.02.07 0 .07.02.01.06.05.1.08.16-.02-.01-.05-.01-.07-.02.02-.01.04-.03.05-.04.02-.02.06 0 .07.02.02.04.07.07.1.11-.02 0-.04 0-.07-.01.08-.22.09-.46.12-.69.01-.02.07 0 .07.01.02.04.04.07.05.1-.02 0-.04-.01-.07-.01l.01-.21c0-.02.06 0 .07.02-.02-.04-.01-.05-.01-.1.01-.04.02-.09.04-.13 0-.02.06 0 .07.01.01.02.02.04.03.05-.02 0-.04 0-.06-.01-.01-.05 0-.09.01-.14 0-.02.05 0 .06.01.06.05.12.12.2.16h-.06c.02-.07.06-.12.08-.18 0-.02.06 0 .06.01.03.07.08.11.12.17-.03 0-.05-.01-.07-.01l.03-.15c0-.02.06 0 .06.01.04.07.09.1.14.15-.02-.01-.04-.01-.06-.01.02-.04.04-.08.04-.12 0-.02.07 0 .07.02a.77.77 0 0 0 .02.15c-.03 0-.05-.01-.07-.01.03-.21.1-.42.1-.63 0-.02.07 0 .07.01.02.04.03.08.04.11-.02 0-.04-.01-.06-.01.01-.03.01-.06.02-.08s.05 0 .06 0c.22.14.18.5.18.71 0 .15 0 .3.04.44.01.06.04.11.08.15.02.02.05.02.08.03.03.02.04.07.05.1-.02 0-.05-.01-.07-.01.04-.06.09-.09.1-.16.01-.02.06 0 .07.01s.02.02.04.03c-.02 0-.04 0-.06-.01.01-.05.02-.1.02-.16 0-.03.06-.01.06.01.01.03.03.07.04.11-.03-.01-.05-.01-.07-.02.01-.06.04-.11.04-.17.01-.02.07 0 .07.01.02.07.04.13.05.2-.02 0-.05-.01-.07-.01.05-.03.06-.11.07-.15.02-.1.03-.2.04-.3.02-.17.03-.34.03-.52 0-.01.06.01.07.02l.02.02c-.02 0-.05 0-.07-.01 0-.22.11-.43.12-.66.02-.23.05-.45.11-.67.01-.02.06 0 .07.01.04.03.11.03.16.06h-.06c.03-.08.04-.17.07-.25.01-.02.06 0 .07.01.03.04.07.05.11.09-.02-.01-.04-.01-.06-.01.02-.06.05-.12.05-.18 0-.02.06 0 .07.01a.3.3 0 0 1 .04.08c-.02-.01-.04-.01-.06-.02.01-.01.02-.02.04-.03.01 0 .06 0 .06.02.02.07.06.1.1.15-.02-.01-.04-.01-.06-.01.01-.06.04-.12.05-.18 0-.02.06 0 .07.02.01.04.04.08.06.12-.02 0-.04-.01-.07-.01l.03-.13c0-.02.06 0 .06.01l.14.13c.1.09.12-.03.13-.11 0-.02.07 0 .07.02l.07.18c-.02 0-.04-.01-.07-.01l.03-.12c0-.03.06 0 .07.01.05.09.08.2.18.25h-.05c.04-.07.07-.14.1-.22 0-.02.06 0 .06.02a.5.5 0 0 0 .09.24c-.02 0-.04-.01-.06-.01l.03-.1c0-.01.04 0 .05 0 .03.01.06-.17.07-.19 0-.02.06 0 .06.02l.07.19c-.02-.01-.05-.01-.07-.02l.03-.1c.01-.01.07 0 .07.02.03.16.03.33.09.49-.02 0-.05-.01-.07-.01.09-.26.09-.53.12-.8.01-.02.07 0 .07.01.01.05.03.09.05.14-.02 0-.05-.01-.07-.01.01-.06.03-.11.05-.16.01-.01.03 0 .04 0 .1.02.14.11.17.21.03.16.02.34.01.5 0 .18-.01.36.03.53a.37.37 0 0 0 .08.18c.02.01.03.13.04.16.02.07.05.13.07.2-.02 0-.04-.01-.06-.01.01-.02.02-.03.03-.05.01-.01.06 0 .07.02.03.11.04.21.12.3-.02-.01-.04-.01-.07-.01.06-.19.04-.38.02-.57l-.02-.47v-.5c0-.17.02-.33.03-.5 0-.02.06 0 .07.01.04.07.1.13.19.06.01-.01.06 0 .06.02.02.12 0 .25.08.36-.03 0-.05-.01-.07-.01.01-.05.04-.07.06-.11.02-.02.05 0 .07 0 .09.08.14.04.18-.05.02-.03.02-.13.05-.15a.23.23 0 0 0 .09-.14c.01-.06.01-.12.01-.18 0-.01.06.01.07.02.07.11.15.03.15-.07.01-.02.06 0 .06 0 .03.02.05.04.07.07-.02 0-.04-.01-.06-.01.02-.02.04-.03.05-.06.01-.02.05 0 .06.01.11.1.18.06.25-.02.01-.01.06.01.06.02.02.08.05.14.05.22-.02-.01-.04-.01-.06-.02.02-.01.04-.02.06-.04.01-.01.06 0 .06.02.01.04.04.08.05.12-.02-.01-.04-.01-.06-.02a.36.36 0 0 1 .07-.1c.01-.02.05 0 .06.01.13.14.26.08.3-.08 0-.02.04-.01.04 0 .03 0 .04.01.05.03-.02 0-.05-.01-.07-.01.01-.06.04-.11.05-.16 0-.02.05 0 .06 0a.38.38 0 0 0 .13.09c.08.05.12-.01.14-.08 0-.02.06 0 .06.01l.04.04h-.06c.02-.03.02-.05.05-.06.02-.01.05 0 .06.02.05.09.12.12.15 0 .01-.01.03 0 .04 0 .33.1.71 0 1.05-.01.31-.01.67.01.96-.12.02 0 .08.02.06.03-.32.14-.69.11-1.03.12-.34.02-.71.11-1.05.01.02 0 .03-.01.04-.01-.05.19-.22.09-.29-.03.02 0 .05.01.07.02-.02.01-.03.03-.04.05-.01.01-.05 0-.06-.01-.03-.02-.04-.04-.05-.06.02 0 .04.01.06.01-.06.23-.27.08-.38-.01.02 0 .04 0 .06.01-.01.05-.04.1-.05.15 0 .03-.06 0-.07-.01h0c.01 0 .03-.01.05-.01-.06.24-.29.22-.43.07.02 0 .04 0 .06.01-.02.03-.05.06-.07.1-.01.02-.06 0-.06-.01-.02-.04-.04-.08-.05-.12.02 0 .04.01.06.01-.02.03-.03.04-.06.05-.02 0-.06 0-.07-.02 0-.08-.03-.15-.05-.22.03.01.05.01.07.02-.11.12-.26.1-.37-.01.02 0 .04.01.06.01-.01.03-.02.04-.05.06-.01.01-.05 0-.06-.01a.09.09 0 0 0-.06-.06h.06c-.01.19-.2.18-.28.05.02.01.04.01.06.01 0 .09 0 .19-.04.27-.01.02-.03.04-.06.05-.02.02-.04.12-.05.15-.06.15-.2.13-.31.04.02 0 .04 0 .06.01-.02.03-.05.06-.06.1-.01.02-.06 0-.07-.01-.07-.11-.06-.24-.08-.36.03 0 .05.01.07.01-.12.11-.25.04-.32-.09a.17.17 0 0 0 .07.01l-.03.51v.5c0 .33.09.7 0 1.03 0 .02-.05 0-.06-.01-.08-.08-.1-.19-.13-.3.02 0 .04.01.07.02-.02.01-.03.03-.04.04s-.06 0-.07-.02c-.02-.11-.08-.21-.1-.33-.01-.05-.05-.09-.07-.14-.05-.14-.05-.29-.05-.43l.01-.5c-.01-.09-.01-.32-.13-.35h.04c-.02.05-.04.1-.05.15 0 .02-.06 0-.07-.01-.01-.05-.03-.09-.05-.14.03.01.05.01.07.02-.03.26-.03.54-.12.8-.01.02-.07 0-.07-.02-.05-.16-.06-.33-.09-.49.02 0 .05.01.07.01l-.03.1c0 .02-.06 0-.07-.02-.02-.06-.05-.12-.06-.18.02 0 .04.01.06.01-.01.07-.03.13-.05.2h0c-.04.02-.07.01-.11-.01h.05a.3.3 0 0 1-.04.1c-.01.02-.05 0-.06-.01a.41.41 0 0 1-.09-.26c.02.01.04.01.06.02a.85.85 0 0 1-.09.22c-.01.01-.05 0-.06 0-.11-.06-.15-.17-.21-.28.02 0 .04.01.07.01l-.03.13c0 .01-.06 0-.07-.02l-.07-.19c.02.01.05.01.07.02-.03.32-.28.08-.4-.04.02 0 .04 0 .07.01l-.03.13c0 .02-.06-.01-.07-.02L7 3.23c.02 0 .04.01.07.01-.01.06-.04.12-.06.18 0 .02-.05-.01-.06-.02-.05-.05-.09-.08-.1-.15.02.01.04.01.06.02-.01.01-.03.02-.04.03-.02.01-.06 0-.07-.02s-.02-.05-.04-.07c.03 0 .05.01.07.01-.01.06-.04.12-.05.18 0 .02-.05 0-.06-.01-.04-.03-.09-.05-.13-.09a.17.17 0 0 1 .07.01c-.03.08-.05.16-.07.25 0 .01-.04 0-.05-.01-.06-.03-.12-.03-.18-.07.02.01.04.01.06.01-.06.22-.09.44-.11.67s-.12.43-.12.66c0 .02-.06 0-.06-.01-.01-.01-.02-.02-.02-.03.02.01.04.01.06.01 0 .18-.01.35-.03.52l-.04.29c-.01.05-.03.13-.07.16-.02.01-.07 0-.07-.02-.01-.07-.03-.13-.05-.2.03 0 .05.01.07.01 0 .07-.03.12-.04.18-.01.02-.07 0-.07-.01l-.03-.11c.02 0 .04 0 .06.01.01.06-.01.11-.02.17 0 .02-.05 0-.06 0-.02-.02-.03-.02-.05-.04.03 0 .05 0 .07.01-.02.07-.06.1-.1.16-.01.01-.06 0-.07-.02-.01-.03-.02-.06-.04-.09.02.01.03.02.04.02-.24-.04-.24-.33-.24-.53l-.02-.48c-.01-.12-.04-.26-.15-.33.02 0 .04 0 .06.01-.01.02-.02.05-.03.07 0 .02-.06 0-.06-.01l-.05-.11c.03.01.05.01.07.02-.01.21-.08.41-.1.62-.01.02-.07.01-.07-.01-.01-.05-.02-.11-.02-.16.02 0 .05.01.07.02-.01.04-.03.08-.04.12-.01.02-.05 0-.06-.01-.06-.05-.12-.09-.15-.16.02.01.04.01.06.02 0 .05-.01.1-.02.15 0 .02-.06 0-.07-.01-.03-.06-.09-.11-.11-.18.02.01.04.01.07.02-.02.06-.06.11-.08.17 0 .02-.04.01-.05 0-.08-.04-.15-.11-.22-.16h.07c-.01.05-.02.09-.02.14 0 .02-.06 0-.06-.01-.02-.03-.03-.03-.04-.06.02.01.04.01.07.02-.03.07-.04.15-.06.23-.05.02-.09.01-.11-.04.02.01.05.01.07.02l-.01.21c0 .01-.06-.01-.07-.02-.01-.03-.03-.06-.04-.1.02.01.04.01.06.02-.03.23-.04.47-.12.69-.01.02-.06 0-.06-.01-.04-.04-.08-.08-.11-.13.02.01.04.02.07.02-.02.02-.04.03-.05.04-.02.02-.06 0-.07-.01-.03-.06-.06-.1-.08-.17.02.01.05.01.07.02-.02.04-.05.08-.06.12-.01.01-.04 0-.05 0-.03-.01-.04-.02-.06-.04.02.01.04.01.06.01-.01.06-.04.11-.06.16 0 .02-.05 0-.06-.01-.07-.06-.11-.07-.11-.17-.01-.02.06 0 .06.01.02.03 0 .05-.01.07s-.07 0-.07-.02a.61.61 0 0 0-.05-.12c.02.01.05.01.07.02-.04.09-.07.19-.1.29 0 .02-.06 0-.06-.01l-.06-.18c.03 0 .05 0 .07.01-.02.08-.03.17-.04.26 0 .02-.06-.01-.07-.02-.01-.03-.03-.06-.05-.09.03.01.05.01.07.02-.01.09-.04.19-.07.28-.01.02-.06 0-.07-.01-.02-.03-.05-.06-.07-.1.02 0 .04.01.06.01-.03.13-.04.27-.07.4-.01.02-.07 0-.07-.01-.01-.07-.02-.15-.02-.22.03 0 .05.01.07.02l-.04.94c0 .02-.07 0-.07-.01-.06-.15-.07-.32-.1-.48.02.01.04.02.06.02-.01.02-.02.04-.04.05-.01.01-.06 0-.07-.02s-.01-.05-.03-.06c.02 0 .04 0 .06.01-.03.09-.03.18-.05.27 0 .02-.06 0-.07-.01l-.07-.18c.02.01.05.01.07.02-.07.13-.04.28-.12.41-.01.01-.06 0-.07-.02l-.06-.11c.02.01.04.01.07.02-.03.13-.02.26-.07.39-.01.02-.07 0-.07-.01l-.08-.16c.02 0 .04.01.07.01 0 .11 0 .22-.02.33 0 .02-.06 0-.07-.01-.01-.03-.03-.06-.05-.09.03 0 .05.01.07.01-.01.19.02.39-.02.58-.01.02-.06 0-.07-.01-.02-.03-.05-.06-.07-.09.02 0 .05.01.07.01-.01.15.01.3-.02.45-.01.02-.07 0-.07-.01a.85.85 0 0 0-.09-.22c.02.01.04.01.06.01 0 .15.01.29-.03.43-.01.02-.06 0-.07-.01.01-.01.03 0 .06 0-.03.03-.01.15-.01.18l-.01.23c-.01.13-.03.27-.09.39-.01.02-.06 0-.07-.01-.02-.05-.05-.09-.06-.13.02 0 .04.01.06.01 0 .04-.01.07-.02.11 0 .02-.06 0-.06-.01-.03-.03-.02-.02-.03-.06.02 0 .04.01.06.02-.13.08-.29.26-.45.13.02 0 .03.01.05.01-.12.03-.24-.05-.35.03-.01.01-.04 0-.05-.01-.11-.08-.24-.03-.35.01-.03.01-.07-.01-.1-.02-.1-.03-.2-.03-.3.02-.02 0-.05-.01-.06-.02-.04-.05-.03-.07 0-.12 0-.02.07.01.06.02z" fill="#263674"/></g><path d="M.62.6h16.27v10.49H.62V.6zM16.97 0H.55C.25 0 0 .25 0 .55v10.59c0 .3.25.55.55.55h16.42c.3 0 .54-.25.54-.55V.55c0-.3-.24-.55-.54-.55z" fill="#434242"/><path d="M12.39 11.09l.1.15.29.45h4.19c.3 0 .54-.25.54-.55V.55c0-.3-.24-.55-.54-.55H5.32l.29.45.1.15 6.68 10.49z" fill="#d9dada" fill-opacity=".2"/></svg>