<svg xmlns="http://www.w3.org/2000/svg" width="50" height="50" viewBox="0 0 4.53 4.53" shape-rendering="geometricPrecision" image-rendering="optimizeQuality" fill-rule="evenodd" xmlns:v="https://vecta.io/nano"><path d="M1.84.01c.93.08 1.62.9 1.54 1.83-.09.93-.91 1.62-1.84 1.54A1.7 1.7 0 0 1 .01 1.54C.09.61.91-.07 1.84.01zm-.56 1.92c-.07.1-.12-.01-.12-.01l-.08-.19c-.04.07-.12.24-.16.1l-.27-.65a.67.67 0 0 0-.1.44h0l.33.76c.1.18.19.09.19.09.07-.04.23-.31.29-.39.02-.03.03 0 .03 0l.05.1c.04.11.09.21.14.31.09.14.2 0 .2 0a4.08 4.08 0 0 0 .37-.55c.08-.1.08-.16.08-.16.02-.07-.05-.2-.06-.21-.04-.08-.08 0-.08 0l-.33.5c-.05.11-.08.01-.08.01l-.17-.41c-.01-.06-.05-.01-.05-.01l-.18.27zm-.08-.12c.03.08.08 0 .08 0l.32-.5c.06-.11.09-.01.09-.01l.16.41c.02.06.05.01.05.01l.18-.27c.07-.09.12 0 .12 0l.08.2c.05-.07.12-.24.17-.1l.29.7a.66.66 0 0 0 .09-.28c.02-.25-.24-.73-.34-.97C2.39.82 2.3.91 2.3.91c-.08.04-.24.31-.29.39-.02.03-.03 0-.03 0l-.05-.1c-.04-.11-.09-.21-.15-.31-.09-.14-.2 0-.2 0-.11.14-.29.42-.36.55-.09.11-.09.16-.09.16-.01.07.06.2.07.21z" fill="#fdcb08"/><g fill="#2a3874"><path d="M2.55 1.78h1.97v1.97H2.55z"/><path d="M2.55.55h.44v1.4h-.44zm-.71 1.993l.379-.223.713 1.211-.379.223zM3.07.8h.44v1.4h-.44zm.51.29h.44v.82h-.44zm.51.22h.44v.62h-.44zM2.55 3.99h1.97v.54H2.55z"/></g></svg>