<svg xmlns="http://www.w3.org/2000/svg" width="50" height="50" viewBox="0 0 3.19 3.19" shape-rendering="geometricPrecision" image-rendering="optimizeQuality" fill-rule="evenodd" xmlns:v="https://vecta.io/nano"><defs><clipPath id="A"><path d="M1.6 0a1.59 1.59 0 0 1 1.59 1.6A1.59 1.59 0 0 1 1.6 3.19 1.59 1.59 0 0 1 0 1.6 1.59 1.59 0 0 1 1.6 0z"/></clipPath></defs><path d="M1.6 0a1.59 1.59 0 0 1 1.59 1.6A1.59 1.59 0 0 1 1.6 3.19 1.59 1.59 0 0 1 0 1.6 1.59 1.59 0 0 1 1.6 0z" fill="#fdcb08"/><g clip-path="url(#A)"><path d="M1.18.97l1.3 1.19-.17.19-.42-.39-.14-.12-.07.07.06.05.5.46-.21.23.04-.04-.57-.51-.08.09.57.51-.18.19-1.02-.93h-.83V.97z" fill="#fefefe"/><path d="M3.23.97H2.11L1.74.6h0 0l-.77.77.31.3.32-.32.67.61h.96z" fill="#263674"/></g></svg>