<?xml version="1.0" encoding="UTF-8"?>
<!DOCTYPE svg PUBLIC "-//W3C//DTD SVG 1.1//EN" "http://www.w3.org/Graphics/SVG/1.1/DTD/svg11.dtd">
<!-- Creator: CorelDRAW 2020 (64-Bit Evaluation Version) -->
<svg xmlns="http://www.w3.org/2000/svg" xml:space="preserve" width="60px" height="60px" version="1.1" style="shape-rendering:geometricPrecision; text-rendering:geometricPrecision; image-rendering:optimizeQuality; fill-rule:evenodd; clip-rule:evenodd"
viewBox="0 0 1.72 1.72"
 xmlns:xlink="http://www.w3.org/1999/xlink"
 xmlns:xodm="http://www.corel.com/coreldraw/odm/2003">
 <defs>
  <style type="text/css">
   <![CDATA[
    .str0 {stroke:#263674;stroke-width:0.11;stroke-miterlimit:2.61313}
    .str1 {stroke:#FEC00F;stroke-width:0.11;stroke-miterlimit:2.61313}
    .fil1 {fill:none}
    .fil0 {fill:#FEC00F}
    .fil2 {fill:white}
   ]]>
  </style>
 </defs>
 <g id="Layer_x0020_1">
  <metadata id="CorelCorpID_0Corel-Layer"/>
  <g id="_1964147706576">
   <g>
    <path class="fil0" d="M0.3 1.54l0 -0.34 -0.25 -0.06 0 0.4c0,0.07 0.06,0.12 0.13,0.12 0.06,0 0.12,-0.05 0.12,-0.12z"/>
    <path class="fil0" d="M0.51 1.25l0 0.29c0,0.07 0.05,0.12 0.12,0.12 0.07,0 0.12,-0.05 0.12,-0.12l0 -0.23 -0.24 -0.06z"/>
    <path class="fil0" d="M0.96 1.36l0 0.18c0,0.07 0.06,0.12 0.13,0.12 0.06,0 0.12,-0.05 0.12,-0.12l0 -0.12 -0.25 -0.06z"/>
    <path class="fil0" d="M1.42 1.54c0,0.07 0.05,0.12 0.12,0.12 0.07,0 0.12,-0.05 0.12,-0.12l0 -0.01 -0.24 -0.06 0 0.07z"/>
   </g>
   <path class="fil1 str0" d="M1.09 1.14l0 0c0.06,0 0.12,0.05 0.12,0.12l0 0.28c0,0.07 -0.06,0.12 -0.12,0.12l0 0c-0.07,0 -0.13,-0.05 -0.13,-0.12l0 -0.28c0,-0.07 0.06,-0.12 0.13,-0.12z"/>
   <path class="fil1 str0" d="M0.18 1l0 0c0.06,0 0.12,0.06 0.12,0.12l0 0.42c0,0.07 -0.06,0.12 -0.12,0.12l0 0c-0.07,0 -0.13,-0.05 -0.13,-0.12l0 -0.42c0,-0.06 0.06,-0.12 0.13,-0.12z"/>
   <path class="fil1 str0" d="M0.63 0.67l0 0c0.07,0 0.12,0.06 0.12,0.12l0 0.75c0,0.07 -0.05,0.12 -0.12,0.12l0 0c-0.07,0 -0.12,-0.05 -0.12,-0.12l0 -0.75c0,-0.06 0.05,-0.12 0.12,-0.12z"/>
   <path class="fil1 str0" d="M1.54 0.57l0 0c0.07,0 0.12,0.05 0.12,0.12l0 0.85c0,0.07 -0.05,0.12 -0.12,0.12l0 0c-0.07,0 -0.12,-0.05 -0.12,-0.12l0 -0.85c0,-0.07 0.05,-0.12 0.12,-0.12z"/>
   <polyline class="fil1 str0" points="0.18,0.72 0.63,0.26 1.09,0.76 1.54,0.18 "/>
   <circle class="fil2 str1" cx="0.18" cy="0.72" r="0.12"/>
   <circle class="fil2 str1" cx="1.54" cy="0.18" r="0.12"/>
   <circle class="fil2 str1" cx="1.09" cy="0.76" r="0.12"/>
   <circle class="fil2 str1" cx="0.63" cy="0.26" r="0.12"/>
  </g>
 </g>
</svg>
