<?xml version="1.0" encoding="UTF-8"?>
<!DOCTYPE svg PUBLIC "-//W3C//DTD SVG 1.1//EN" "http://www.w3.org/Graphics/SVG/1.1/DTD/svg11.dtd">
<!-- Creator: CorelDRAW 2020 (64-Bit) -->
<svg xmlns="http://www.w3.org/2000/svg" xml:space="preserve" width="2.5in" height="2.50422in" version="1.1" style="shape-rendering:geometricPrecision; text-rendering:geometricPrecision; image-rendering:optimizeQuality; fill-rule:evenodd; clip-rule:evenodd"
viewBox="0 0 131.92 132.15"
 xmlns:xlink="http://www.w3.org/1999/xlink"
 xmlns:xodm="http://www.corel.com/coreldraw/odm/2003">
 <defs>
  <style type="text/css">
   <![CDATA[
    .str0 {stroke:white;stroke-width:2.75;stroke-miterlimit:2.61313}
    .fil7 {fill:none}
    .fil6 {fill:#009933}
    .fil5 {fill:#33CC66}
    .fil1 {fill:#76808F}
    .fil0 {fill:#FFDA46}
    .fil3 {fill:#76808F;fill-rule:nonzero}
    .fil2 {fill:#FFCC00;fill-rule:nonzero}
    .fil4 {fill:white;fill-rule:nonzero}
   ]]>
  </style>
      <clipPath id="id0">
       <path d="M96.91 18.3l5.08 -3.82 4.07 4.88 6.19 -1.42 1.73 6.11 6.24 1.22 -0.9 6.29 5.2 3.65 -3.38 5.38 3.27 5.45 -5.28 3.54 0.77 6.31 -6.26 1.08 -1.86 6.08 -6.16 -1.56 -4.17 4.79 -4.99 -3.93 -5.76 2.68 -2.97 -5.62 -6.35 0.1 -0.43 -6.34 -5.85 -2.49 2.19 -5.97 -4.33 -4.65 4.43 -4.56 -2.06 -6.01 5.9 -2.36 0.56 -6.33 6.35 0.24 3.09 -5.55 5.7 2.8z"/>
      </clipPath>
 </defs>
 <g id="Layer_x0020_1">
  <metadata id="CorelCorpID_0Corel-Layer"/>
  <g id="_2688917440048">
   <path class="fil0" d="M121.84 118.15c0.15,-1.47 1.47,-2.53 2.93,-2.33 1.47,0.15 2.48,1.47 2.33,2.93l-0.35 2.83 2.83 0.35c1.47,0.15 2.48,1.47 2.33,2.93 -0.2,1.47 -1.52,2.48 -2.99,2.33l-2.83 -0.36 -0.3 2.83c-0.2,1.47 -1.52,2.48 -2.99,2.33 -1.42,-0.2 -2.48,-1.52 -2.28,-2.99l0.35 -2.83 -2.83 -0.3c-1.47,-0.2 -2.48,-1.52 -2.33,-2.99 0.15,-1.42 1.52,-2.48 2.93,-2.28l2.83 0.3 0.35 -2.78 0 0z"/>
   <path class="fil0" d="M6.14 14.91c0.15,-1.47 1.47,-2.53 2.93,-2.33 1.47,0.15 2.48,1.47 2.33,2.93l-0.35 2.83 2.83 0.35c1.47,0.15 2.48,1.47 2.33,2.93 -0.2,1.47 -1.52,2.48 -2.99,2.33l-2.83 -0.36 -0.3 2.83c-0.2,1.47 -1.52,2.48 -2.99,2.33 -1.42,-0.2 -2.48,-1.52 -2.28,-2.99l0.35 -2.83 -2.83 -0.3c-1.47,-0.2 -2.48,-1.52 -2.33,-2.99 0.15,-1.42 1.52,-2.48 2.93,-2.28l2.83 0.3 0.35 -2.78 0 0z"/>
   <path class="fil1" d="M9.34 119.13c0.1,-1 1,-1.72 1.99,-1.58 0.99,0.1 1.68,1 1.58,1.99l-0.24 1.92 1.92 0.24c1,0.1 1.68,0.99 1.58,1.99 -0.14,1 -1.03,1.68 -2.02,1.58l-1.92 -0.24 -0.21 1.92c-0.14,0.99 -1.03,1.68 -2.02,1.58 -0.96,-0.14 -1.68,-1.03 -1.54,-2.02l0.24 -1.92 -1.92 -0.2c-0.99,-0.14 -1.68,-1.03 -1.58,-2.03 0.1,-0.96 1.03,-1.68 1.99,-1.54l1.92 0.2 0.24 -1.89 -0 0z"/>
   <g>
    <path class="fil2" d="M14.99 53.87l0 32.73c0,24.89 20.18,45.06 45.07,45.06 24.89,0 45.07,-20.17 45.07,-45.06l0 -32.73 -90.14 0z"/>
    <path class="fil0" d="M98.95 53.87l-67.53 67.53c7.79,6.41 17.76,10.26 28.63,10.26 24.89,0 45.07,-20.17 45.07,-45.06l0 -32.73 -6.17 0z"/>
    <path class="fil3" d="M7.74 69.46c0,-1.4 1.14,-2.55 2.55,-2.55 1.4,0 2.55,1.14 2.55,2.55l0 2.61c0,1.4 -1.14,2.55 -2.55,2.55 -1.4,0 -2.55,-1.14 -2.55,-2.55l0 -2.61z"/>
    <g>
     <path class="fil4" d="M80.46 99.34c-0.9,1.31 -2.71,1.64 -4.02,0.74 -1.31,-0.9 -1.64,-2.71 -0.74,-4.02l4.75 3.28zm-1.07 -14.91l5.78 0 0 0 -0 0.51 -0.01 0.51 -0.03 0.51 -0.03 0.5 -0.05 0.51 -0.05 0.5 -0.06 0.5 -0.07 0.5 -0.08 0.49 -0.09 0.49 -0.1 0.49 -0.11 0.48 -0.12 0.48 -0.13 0.48 -0.14 0.48 -0.15 0.47 -0.15 0.46 -0.16 0.46 -0.17 0.46 -0.18 0.45 -0.19 0.45 -0.2 0.45 -0.2 0.44 -0.21 0.44 -0.22 0.44 -0.23 0.44 -0.24 0.43 -0.24 0.42 -0.25 0.42 -0.26 0.41 -0.27 0.41 -0.28 0.41 -4.75 -3.28 0.22 -0.32 0.21 -0.32 0.2 -0.33 0.2 -0.33 0.19 -0.34 0.19 -0.34 0.18 -0.34 0.17 -0.34 0.17 -0.35 0.16 -0.35 0.15 -0.34 0.15 -0.36 0.14 -0.36 0.13 -0.35 0.13 -0.36 0.12 -0.37 0.12 -0.37 0.11 -0.37 0.1 -0.37 0.09 -0.37 0.09 -0.38 0.08 -0.37 0.07 -0.38 0.06 -0.38 0.06 -0.38 0.05 -0.39 0.04 -0.39 0.03 -0.39 0.03 -0.4 0.02 -0.39 0.01 -0.4 0 -0.4 0 0zm0 0c0,-1.59 1.29,-2.89 2.89,-2.89 1.59,0 2.89,1.29 2.89,2.89l-5.78 0zm5.78 -16.46l0 16.46 -5.78 0 0 -16.46 5.78 0zm-5.78 0c0,-1.59 1.29,-2.89 2.89,-2.89 1.59,0 2.89,1.29 2.89,2.89l-5.78 0z"/>
    </g>
    <path class="fil4" d="M61.43 110.53c2.86,0 4.8,-2.9 3.7,-5.55l-4.68 -11.29c2.96,-1.76 4.96,-4.94 4.96,-8.63 0,-5.55 -4.5,-10.06 -10.05,-10.06 -5.56,0 -10.06,4.5 -10.06,10.06 0,3.69 2.01,6.87 4.96,8.63l-4.68 11.29c-1.09,2.65 0.85,5.55 3.7,5.55l12.14 0z"/>
    <path class="fil3" d="M81.24 10.11c2.23,2.05 2.37,5.53 0.32,7.76 -2.05,2.23 -5.53,2.37 -7.76,0.32 -2.47,-2.28 -5.37,-4.1 -8.55,-5.35 -3.04,-1.19 -6.38,-1.84 -9.89,-1.84 -7.72,0 -14.67,2.78 -19.61,7.48 -4.74,4.5 -7.66,10.82 -7.66,18.17l-0.01 0.4c0.06,3.69 0.19,7.42 0.19,11.1 0.05,3.02 -2.37,5.52 -5.39,5.56 -2.99,0.05 -5.47,-2.32 -5.56,-5.31l-0.36 -10.73c-0.01,-0.49 0.03,-0.96 0.14,-1.42 0.1,-10.34 4.32,-19.29 11.1,-25.73 6.96,-6.61 16.59,-10.53 27.17,-10.53 4.87,0 9.56,0.93 13.88,2.61 4.47,1.74 8.53,4.3 11.99,7.49z"/>
    <path class="fil3" d="M7.4 79.92c0,-1.59 1.29,-2.89 2.89,-2.89 1.59,0 2.89,1.29 2.89,2.89l0 4.27c0,11.65 4.72,22.19 12.35,29.82 7.63,7.63 18.18,12.35 29.83,12.35 11.65,0 22.2,-4.72 29.83,-12.35l0.15 -0.13c7.55,-7.61 12.21,-18.1 12.21,-29.69l0 -29.84 -84.36 0 0 7.2c0,1.59 -1.29,2.89 -2.89,2.89 -1.59,0 -2.89,-1.29 -2.89,-2.89l0 -10.09c0,-1.59 1.29,-2.89 2.89,-2.89l90.14 0c1.59,0 2.89,1.29 2.89,2.89l0 32.73c0,13.15 -5.3,25.06 -13.89,33.73l-0.16 0.17c-8.68,8.68 -20.67,14.05 -33.91,14.05 -13.24,0 -25.23,-5.37 -33.91,-14.05 -8.68,-8.67 -14.05,-20.67 -14.05,-33.9l0 -4.27z"/>
    <g>
     <polygon class="fil5" points="96.91,18.3 101.99,14.49 106.06,19.37 112.26,17.94 113.99,24.06 120.23,25.28 119.32,31.57 124.52,35.22 121.14,40.6 124.41,46.05 119.13,49.58 119.9,55.89 113.63,56.97 111.77,63.05 105.61,61.49 101.43,66.28 96.44,62.36 90.68,65.04 87.71,59.42 81.36,59.52 80.93,53.18 75.09,50.69 77.28,44.73 72.95,40.08 77.38,35.52 75.31,29.51 81.21,27.14 81.77,20.81 88.12,21.06 91.21,15.5 "/>
     <g style="clip-path:url(#id0)">
      <g>
       <polygon id="1" class="fil6" points="71.51,16.27 124.26,11.3 76.48,69.03 76.48,69.03 "/>
      </g>
     </g>
     <polygon class="fil7 str0" points="96.91,18.3 101.99,14.49 106.06,19.37 112.26,17.94 113.99,24.06 120.23,25.28 119.32,31.57 124.52,35.22 121.14,40.6 124.41,46.05 119.13,49.58 119.9,55.89 113.63,56.97 111.77,63.05 105.61,61.49 101.43,66.28 96.44,62.36 90.68,65.04 87.71,59.42 81.36,59.52 80.93,53.18 75.09,50.69 77.28,44.73 72.95,40.08 77.38,35.52 75.31,29.51 81.21,27.14 81.77,20.81 88.12,21.06 91.21,15.5 "/>
     <path class="fil4" d="M84.35 42.65c-1.01,-1.01 -1,-2.65 0.01,-3.66 1.01,-1.01 2.65,-1 3.66,0.01l7.39 7.46 13.85 -17.66c0.88,-1.12 2.5,-1.32 3.63,-0.45 1.12,0.88 1.32,2.5 0.45,3.63l-15.6 19.89c-0.08,0.11 -0.17,0.22 -0.27,0.32 -1.01,1.01 -2.65,1 -3.66,-0.01l-9.45 -9.54z"/>
    </g>
   </g>
   <rect class="fil1" transform="matrix(0.692585 0.692585 -0.692585 0.692585 115.886 96.1913)" width="5.59" height="5.59"/>
   <rect class="fil0" transform="matrix(0.74055 0.74055 -0.74055 0.74055 96.4146 1.681)" width="5.59" height="5.59"/>
   <rect class="fil0" transform="matrix(0.951887 0.951887 -0.951887 0.951887 121.85 72.2369)" width="5.59" height="5.59"/>
   <rect class="fil1" transform="matrix(0.692585 0.692585 -0.692585 0.692585 126.512 10.1428)" width="5.59" height="5.59"/>
  </g>
 </g>
</svg>
