<?xml version="1.0" encoding="UTF-8"?>
<!DOCTYPE svg PUBLIC "-//W3C//DTD SVG 1.1//EN" "http://www.w3.org/Graphics/SVG/1.1/DTD/svg11.dtd">
<!-- Creator: CorelDRAW 2020 (64-Bit Evaluation Version) -->
<svg xmlns="http://www.w3.org/2000/svg" xml:space="preserve" width="60px" height="60px" version="1.1" style="shape-rendering:geometricPrecision; text-rendering:geometricPrecision; image-rendering:optimizeQuality; fill-rule:evenodd; clip-rule:evenodd"
viewBox="0 0 9.17 9.16"
 xmlns:xlink="http://www.w3.org/1999/xlink"
 xmlns:xodm="http://www.corel.com/coreldraw/odm/2003">
 <defs>
  <style type="text/css">
   <![CDATA[
    .fil2 {fill:#FEC00F}
    .fil0 {fill:#263674;fill-rule:nonzero}
    .fil1 {fill:#FEC00F;fill-rule:nonzero}
   ]]>
  </style>
 </defs>
 <g id="Layer_x0020_1">
  <metadata id="CorelCorpID_0Corel-Layer"/>
  <g id="_1826150937920">
   <path class="fil0" d="M5.94 0.96c-0.24,-0.1 -0.36,-0.37 -0.27,-0.61 0.1,-0.25 0.38,-0.36 0.62,-0.27 0.87,0.35 1.59,0.95 2.09,1.69 0.5,0.74 0.79,1.63 0.79,2.57 0,0.43 -0.07,0.86 -0.19,1.27 -0.12,0.42 -0.29,0.81 -0.52,1.18 -0.14,0.22 -0.43,0.28 -0.65,0.14 -0.23,-0.13 -0.29,-0.43 -0.15,-0.65 0.18,-0.29 0.32,-0.6 0.42,-0.93 0.09,-0.32 0.14,-0.66 0.14,-1.01 0,-0.75 -0.23,-1.45 -0.62,-2.04 -0.4,-0.59 -0.97,-1.06 -1.66,-1.34z"/>
   <path class="fil1" d="M1.48 6.24c0.14,0.23 0.07,0.52 -0.15,0.65 -0.23,0.14 -0.52,0.07 -0.65,-0.16 -0.22,-0.36 -0.39,-0.74 -0.51,-1.15 -0.11,-0.4 -0.17,-0.82 -0.17,-1.24 0,-0.97 0.3,-1.88 0.83,-2.64 0.53,-0.75 1.29,-1.34 2.2,-1.67 0.24,-0.09 0.51,0.04 0.6,0.28 0.09,0.25 -0.04,0.52 -0.28,0.6 -0.72,0.26 -1.32,0.74 -1.74,1.34 -0.42,0.59 -0.66,1.32 -0.66,2.09 0,0.34 0.04,0.67 0.13,0.99 0.09,0.32 0.23,0.63 0.4,0.91z"/>
   <g>
    <path class="fil2" d="M5.54 6.09l-2.21 -3.82c-0.36,0.41 -0.58,0.95 -0.58,1.54 0,1.28 1.04,2.32 2.32,2.32 0.16,0 0.31,-0.01 0.47,-0.04z"/>
    <path class="fil0" d="M4.58 1.62c0.66,0 1.26,0.27 1.69,0.7 0.43,0.43 0.7,1.03 0.7,1.69 0,0.66 -0.27,1.25 -0.7,1.68 -0.43,0.43 -1.03,0.7 -1.69,0.7 -0.66,0 -1.25,-0.27 -1.68,-0.7 -0.43,-0.43 -0.7,-1.02 -0.7,-1.68 0,-0.66 0.27,-1.26 0.7,-1.69 0.43,-0.43 1.02,-0.7 1.68,-0.7zm1.02 1.37c-0.26,-0.26 -0.62,-0.42 -1.02,-0.42 -0.39,0 -0.75,0.16 -1.01,0.42 -0.26,0.26 -0.43,0.62 -0.43,1.02 0,0.4 0.17,0.76 0.43,1.02 0.26,0.26 0.62,0.42 1.01,0.42 0.4,0 0.76,-0.16 1.02,-0.42 0.26,-0.26 0.42,-0.62 0.42,-1.02 0,-0.4 -0.16,-0.76 -0.42,-1.02z"/>
    <path class="fil0" d="M2.35 8.69c0,0.26 -0.22,0.47 -0.48,0.47 -0.26,0 -0.47,-0.21 -0.47,-0.47 0,-0.88 0.36,-1.67 0.93,-2.25 0.58,-0.57 1.37,-0.93 2.25,-0.93 0.88,0 1.68,0.36 2.25,0.93 0.58,0.58 0.94,1.37 0.94,2.25 0,0.26 -0.22,0.47 -0.48,0.47 -0.26,0 -0.47,-0.21 -0.47,-0.47 0,-0.62 -0.25,-1.18 -0.66,-1.58 -0.4,-0.41 -0.96,-0.66 -1.58,-0.66 -0.61,0 -1.17,0.25 -1.58,0.66 -0.4,0.4 -0.65,0.96 -0.65,1.58z"/>
   </g>
  </g>
 </g>
</svg>
