<?xml version="1.0" encoding="UTF-8"?>
<!DOCTYPE svg PUBLIC "-//W3C//DTD SVG 1.1//EN" "http://www.w3.org/Graphics/SVG/1.1/DTD/svg11.dtd">
<!-- Creator: CorelDRAW 2020 (64-Bit Evaluation Version) -->
<svg xmlns="http://www.w3.org/2000/svg" xml:space="preserve" width="60px" height="60px" version="1.1" style="shape-rendering:geometricPrecision; text-rendering:geometricPrecision; image-rendering:optimizeQuality; fill-rule:evenodd; clip-rule:evenodd"
viewBox="0 0 0.87 0.87"
 xmlns:xlink="http://www.w3.org/1999/xlink"
 xmlns:xodm="http://www.corel.com/coreldraw/odm/2003">
 <defs>
  <style type="text/css">
   <![CDATA[
    .fil1 {fill:none}
    .fil0 {fill:#263674}
    .fil2 {fill:#FEC00F}
    .fil3 {fill:white}
    .fil4 {fill:white;fill-rule:nonzero}
   ]]>
  </style>
 </defs>
 <g id="Layer_x0020_1">
  <metadata id="CorelCorpID_0Corel-Layer"/>
  <g id="_2465916147024">
   <path class="fil0" d="M0.68 0.39c0.01,0 0.03,0.01 0.04,0.01l0 -0.12c0,-0.04 0.04,-0.07 0.07,-0.07l0 0c0.04,0 0.08,0.03 0.08,0.07 0,0.19 0.06,0.59 -0.25,0.59 -0.12,0 -0.2,-0.07 -0.23,-0.17l0.07 0c0.12,0 0.22,-0.1 0.22,-0.22l0 -0.09z"/>
   <path class="fil0" d="M0.12 0.02l0.23 0.21c0.02,0.02 0.02,0.07 0,0.1l0 0c-0.03,0.02 -0.07,0.02 -0.1,0l-0.23 -0.21c-0.03,-0.03 -0.03,-0.07 0,-0.1l0 0c0.03,-0.03 0.07,-0.03 0.1,0z"/>
   <line class="fil1" x1="0.25" y1="0.07" x2="0.25" y2= "0.41" />
   <path class="fil2" d="M0.3 0l0.4 0c0.01,0 0.02,0.01 0.02,0.02l0 0.66c0,0.01 -0.01,0.02 -0.02,0.02l-0.4 0c-0.01,0 -0.02,-0.01 -0.02,-0.02l0 -0.66c0,-0.01 0.01,-0.02 0.02,-0.02z"/>
   <path class="fil0" d="M0.63 0.48l0.13 0 0 0.26 -0.25 0 0 -0.13c0,-0.07 0.05,-0.13 0.12,-0.13z"/>
   <path class="fil0" d="M0.29 0.57c0.03,0 0.05,0.03 0.05,0.06l0 0c0,0.03 -0.03,0.06 -0.06,0.06l-0.21 0c0,0 -0.01,-0.01 -0.01,-0.01l0 -0.1c0,-0.01 0.01,-0.01 0.01,-0.01 0,-0.01 -0.01,-0.01 -0.01,-0.01l0 -0.1c0,-0.01 0.01,-0.01 0.01,-0.01 0,0 -0.01,-0.01 -0.01,-0.01l0 -0.1c0,-0.01 0.01,-0.01 0.01,-0.01l0.28 0c0.03,0 0.06,0.02 0.06,0.06l0 0c0,0.03 -0.03,0.05 -0.06,0.06 0.03,0 0.06,0.03 0.06,0.06l0 0c0,0.03 -0.03,0.06 -0.06,0.06l-0.06 0z"/>
   <g>
    <circle class="fil3" transform="matrix(0.314247 0.19434 -0.19434 0.314247 0.579353 0.163642)" r="0.21"/>
    <circle class="fil3" transform="matrix(0.187525 0.115972 -0.115972 0.187525 0.430928 0.151937)" r="0.21"/>
    <circle class="fil3" transform="matrix(0.187525 0.115972 -0.115972 0.187525 0.459189 0.261409)" r="0.21"/>
    <circle class="fil3" transform="matrix(0.187525 0.115972 -0.115972 0.187525 0.566954 0.313241)" r="0.21"/>
   </g>
   <path class="fil4" d="M0.07 0.46c-0.01,0 -0.01,-0.01 -0.01,-0.01 0,-0.01 0,-0.01 0.01,-0.01l0.15 0c0.01,0 0.01,0 0.01,0.01 0,0 0,0.01 -0.01,0.01l-0.15 0z"/>
   <path class="fil4" d="M0.07 0.58c-0.01,0 -0.01,-0.01 -0.01,-0.01 0,-0.01 0,-0.02 0.01,-0.02l0.1 0c0.01,0 0.02,0.01 0.02,0.02 0,0 -0.01,0.01 -0.02,0.01l-0.1 0z"/>
  </g>
 </g>
</svg>
