<?xml version="1.0" encoding="UTF-8"?>
<!DOCTYPE svg PUBLIC "-//W3C//DTD SVG 1.1//EN" "http://www.w3.org/Graphics/SVG/1.1/DTD/svg11.dtd">
<!-- Creator: CorelDRAW 2020 (64-Bit Evaluation Version) -->
<svg xmlns="http://www.w3.org/2000/svg" xml:space="preserve" width="60px" height="60px" version="1.1" style="shape-rendering:geometricPrecision; text-rendering:geometricPrecision; image-rendering:optimizeQuality; fill-rule:evenodd; clip-rule:evenodd"
viewBox="0 0 0.68 0.68"
 xmlns:xlink="http://www.w3.org/1999/xlink"
 xmlns:xodm="http://www.corel.com/coreldraw/odm/2003">
 <defs>
  <style type="text/css">
   <![CDATA[
    .fil0 {fill:#FEC00F}
    .fil1 {fill:#263674;fill-rule:nonzero}
   ]]>
  </style>
 </defs>
 <g id="Layer_x0020_1">
  <metadata id="CorelCorpID_0Corel-Layer"/>
  <g id="_1964133401328">
   <path class="fil0" d="M0.06 0.02c-0.01,-0.03 -0.04,0.02 -0.04,0.04l0 0.34c0,0.02 0.02,0.04 0.04,0.04l0.14 0 -0.14 -0.42z"/>
   <path class="fil1" d="M0.14 0.42c0.01,0 0.02,0.01 0.02,0.02 0,0.01 -0.01,0.01 -0.02,0.01l-0.08 0c-0.02,0 -0.03,0 -0.04,-0.01 -0.01,-0.01 -0.02,-0.03 -0.02,-0.04l0 -0.34c0,-0.02 0.01,-0.03 0.02,-0.04l0 0c0.01,-0.01 0.02,-0.02 0.04,-0.02l0.56 0c0.02,0 0.03,0.01 0.04,0.02 0.01,0.01 0.02,0.02 0.02,0.04l0 0.34c0,0.01 -0.01,0.03 -0.02,0.04 -0.01,0.01 -0.02,0.01 -0.04,0.01l-0.09 0c-0.01,0 -0.01,0 -0.01,-0.01 0,-0.01 0,-0.02 0.01,-0.02l0.09 0c0.01,0 0.01,0 0.02,-0.01 0,0 0.01,-0.01 0.01,-0.01l0 -0.34c0,-0.01 -0.01,-0.02 -0.01,-0.02 -0.01,0 -0.01,-0.01 -0.02,-0.01l-0.56 0c-0.01,0 -0.02,0.01 -0.02,0.01l0 0c0,0 -0.01,0.01 -0.01,0.02l0 0.34c0,0 0.01,0.01 0.01,0.01 0,0.01 0.01,0.01 0.02,0.01l0.08 0z"/>
   <path class="fil1" d="M0.57 0.08c0.01,-0.01 0.02,-0.01 0.02,0 0.01,0.01 0.01,0.02 0,0.02l-0.21 0.16c-0.01,0.01 -0.03,0.01 -0.04,0.01 -0.01,0 -0.02,0 -0.04,-0.01l-0.22 -0.16c0,0 -0.01,-0.01 0,-0.02 0.01,-0.01 0.02,-0.01 0.02,0l0.22 0.15c0.01,0 0.02,0.01 0.02,0.01 0.01,0 0.01,-0.01 0.02,-0.01l0.21 -0.15z"/>
   <path class="fil1" d="M0.6 0.36c0.01,0 0.01,0.01 0,0.02 0,0.01 -0.01,0.01 -0.02,0l-0.1 -0.1c-0.01,0 -0.01,-0.01 0,-0.02 0,-0.01 0.01,-0.01 0.02,0l0.1 0.1z"/>
   <path class="fil1" d="M0.1 0.38c-0.01,0.01 -0.02,0.01 -0.02,0 -0.01,-0.01 -0.01,-0.02 0,-0.02l0.1 -0.1c0.01,-0.01 0.02,-0.01 0.02,0 0.01,0.01 0.01,0.02 0,0.02l-0.1 0.1z"/>
   <g>
    <path class="fil1" d="M0.34 0.38c0.04,0 0.08,0.01 0.11,0.04 0.03,0.03 0.04,0.07 0.04,0.11 0,0.04 -0.01,0.08 -0.04,0.11 -0.03,0.02 -0.07,0.04 -0.11,0.04 -0.04,0 -0.08,-0.02 -0.11,-0.04 -0.03,-0.03 -0.04,-0.07 -0.04,-0.11 0,-0.04 0.01,-0.08 0.04,-0.11 0.03,-0.03 0.07,-0.04 0.11,-0.04zm0.08 0.06c-0.02,-0.02 -0.05,-0.03 -0.08,-0.03 -0.03,0 -0.06,0.01 -0.08,0.03 -0.03,0.02 -0.04,0.05 -0.04,0.09 0,0.03 0.01,0.06 0.04,0.08 0.02,0.02 0.05,0.04 0.08,0.04 0.03,0 0.06,-0.02 0.08,-0.04 0.03,-0.02 0.04,-0.05 0.04,-0.08 0,-0.04 -0.01,-0.07 -0.04,-0.09z"/>
    <path class="fil1" d="M0.27 0.55c-0.01,-0.01 -0.01,-0.02 0,-0.02 0,-0.01 0.01,-0.01 0.02,-0.01l0.03 0.03 0.07 -0.07c0,-0.01 0.01,-0.01 0.02,0 0.01,0 0.01,0.01 0,0.02l-0.09 0.09 -0.05 -0.04z"/>
   </g>
  </g>
 </g>
</svg>
