<?xml version="1.0" encoding="UTF-8"?>
<!DOCTYPE svg PUBLIC "-//W3C//DTD SVG 1.1//EN" "http://www.w3.org/Graphics/SVG/1.1/DTD/svg11.dtd">
<!-- Creator: CorelDRAW 2020 (64-Bit Evaluation Version) -->
<svg xmlns="http://www.w3.org/2000/svg" xml:space="preserve" width="30px" height="30px" version="1.1" style="shape-rendering:geometricPrecision; text-rendering:geometricPrecision; image-rendering:optimizeQuality; fill-rule:evenodd; clip-rule:evenodd"
viewBox="0 0 6.02 6.02"
 xmlns:xlink="http://www.w3.org/1999/xlink"
 xmlns:xodm="http://www.corel.com/coreldraw/odm/2003">
 <defs>
  <style type="text/css">
   <![CDATA[
    .fil3 {fill:#24407C}
    .fil0 {fill:#EFB30C}
    .fil5 {fill:#F0F0F0}
    .fil2 {fill:white}
    .fil1 {fill:#009933;fill-rule:nonzero}
    .fil4 {fill:#FFC72E;fill-opacity:0.501961}
   ]]>
  </style>
 </defs>
 <g id="Layer_x0020_1">
  <metadata id="CorelCorpID_0Corel-Layer"/>
  <g id="_2606583827040">
   <path class="fil0" d="M0.36 0l2.9 0c0.2,0 0.36,0.16 0.36,0.35l0 1.35 -0.29 0 0 -1.08c0,-0.16 -0.14,-0.29 -0.3,-0.29l-2.43 0c-0.17,0 -0.3,0.13 -0.3,0.29l0 4.55c0,0.16 0.13,0.29 0.3,0.29l2.43 0c0.16,0 0.3,-0.13 0.3,-0.29l0 -0.84 0.29 0 0 1.34c0,0.2 -0.16,0.35 -0.36,0.35l-2.9 0c-0.2,0 -0.36,-0.15 -0.36,-0.35l0 -5.32c0,-0.19 0.16,-0.35 0.36,-0.35zm0.48 0.84l1.95 0c0.13,0 0.24,0.1 0.24,0.23l0 0.63 -0.83 0 0 2.63 0.83 0 0 0.39c0,0.13 -0.11,0.23 -0.24,0.23l-1.95 0c-0.14,0 -0.24,-0.1 -0.24,-0.23l0 -3.65c0,-0.13 0.1,-0.23 0.24,-0.23z"/>
   <polygon class="fil1" points="2.48,2.06 2.48,3.98 3.54,3.02 "/>
   <polygon class="fil1" points="5.38,1.9 2.65,1.9 4.02,3.14 "/>
   <path class="fil1" d="M4.76 3.26c0.03,-0.06 0.07,-0.11 0.12,-0.15 0.15,-0.14 0.35,-0.22 0.56,-0.22 0.04,0 0.08,0 0.11,0.01l0 -0.84 -1.06 0.96 0.27 0.24z"/>
   <path class="fil1" d="M5.44 3.12c-0.32,0 -0.59,0.27 -0.59,0.59l0 0.62c0,0.19 0.16,0.35 0.35,0.35 0.2,0 0.35,-0.16 0.35,-0.35l0 -0.62 -0.23 0 0 0.62c0,0.06 -0.05,0.12 -0.12,0.12 -0.06,0 -0.11,-0.06 -0.11,-0.12l0 -0.62c0,-0.19 0.15,-0.35 0.35,-0.35 0.19,0 0.35,0.16 0.35,0.35l0 0.62c0,0.32 -0.26,0.59 -0.59,0.59 -0.32,0 -0.58,-0.27 -0.58,-0.59l0 -0.68 0 -0.01c0.01,-0.05 0.02,-0.11 0.03,-0.16l-0.33 -0.3 -0.3 0.27 -0.31 -0.27 -1.06 0.96 1.74 0 0 0.19c0,0.45 0.36,0.82 0.81,0.82 0.45,0 0.82,-0.37 0.82,-0.82l0 -0.62c0,-0.32 -0.26,-0.59 -0.58,-0.59z"/>
   <circle class="fil2" cx="1.81" cy="5.3" r="0.67"/>
   <circle class="fil2" cx="1.81" cy="5.3" r="0.47"/>
   <rect class="fil2" x="1.62" y="5.1" width="0.39" height="0.39"/>
   <circle class="fil2" cx="1.81" cy="5.3" r="0.67"/>
   <circle class="fil3" cx="1.81" cy="5.3" r="0.47"/>
   <rect class="fil2" x="1.67" y="5.16" width="0.28" height="0.28"/>
   <path class="fil4" d="M0.6 0.33l2.43 0c0.09,0 0.18,0.04 0.24,0.12l0.22 -0.37c-0.06,-0.05 -0.14,-0.08 -0.23,-0.08l-2.9 0c-0.2,0 -0.36,0.16 -0.36,0.35l0 5.32c0,0.05 0.01,0.1 0.03,0.14l0.3 -0.5c-0.02,-0.05 -0.03,-0.09 -0.03,-0.14l0 -4.55c0,-0.16 0.13,-0.29 0.3,-0.29z"/>
   <path class="fil5" d="M3.03 0.33l-2.43 0c-0.17,0 -0.3,0.13 -0.3,0.29l0 4.55c0,0.05 0.01,0.09 0.03,0.14l0.29 -0.49c-0.01,-0.03 -0.02,-0.07 -0.02,-0.1l0 -3.65c0,-0.13 0.1,-0.23 0.24,-0.23l1.95 0c0.07,0 0.14,0.03 0.19,0.09l0.29 -0.48c-0.06,-0.08 -0.15,-0.12 -0.24,-0.12z"/>
   <path class="fil4" d="M2.79 0.84l-1.95 0c-0.14,0 -0.24,0.1 -0.24,0.23l0 3.65c0,0.03 0.01,0.07 0.02,0.1l1.58 -2.6 0 -0.52 0.31 0 0.47 -0.77c-0.05,-0.06 -0.12,-0.09 -0.19,-0.09z"/>
   <polygon class="fil5" points="2.51,1.7 2.2,1.7 2.2,2.22 "/>
  </g>
 </g>
</svg>
