<?xml version="1.0" encoding="UTF-8"?>
<!DOCTYPE svg PUBLIC "-//W3C//DTD SVG 1.1//EN" "http://www.w3.org/Graphics/SVG/1.1/DTD/svg11.dtd">
<!-- Creator: CorelDRAW 2020 (64-Bit Evaluation Version) -->
<svg xmlns="http://www.w3.org/2000/svg" xml:space="preserve" width="60px" height="60px" version="1.1" style="shape-rendering:geometricPrecision; text-rendering:geometricPrecision; image-rendering:optimizeQuality; fill-rule:evenodd; clip-rule:evenodd"
viewBox="0 0 33.58 33.58"
 xmlns:xlink="http://www.w3.org/1999/xlink"
 xmlns:xodm="http://www.corel.com/coreldraw/odm/2003">
 <defs>
  <style type="text/css">
   <![CDATA[
    .fil0 {fill:#263674}
    .fil2 {fill:#FEC00F}
    .fil1 {fill:white}
   ]]>
  </style>
 </defs>
 <g id="Layer_x0020_1">
  <metadata id="CorelCorpID_0Corel-Layer"/>
  <g id="_1826170114048">
   <path class="fil0" d="M2.16 0l24.02 0c1.18,0 2.15,0.97 2.15,2.16l0 9.98c-0.73,-0.36 -1.51,-0.63 -2.33,-0.8l0 -2.56 -23.67 0 0 15.58c0,0.79 0.65,1.45 1.44,1.45l4.26 0c0.16,0.89 0.45,1.74 0.84,2.52l-6.71 0c-1.19,0 -2.16,-0.97 -2.16,-2.15l0 -24.02c0,-1.19 0.97,-2.16 2.16,-2.16z"/>
   <rect class="fil1" x="2.33" y="3.25" width="5.68" height="2.39"/>
   <path class="fil2" d="M14.3 26.68l3.15 0 0 -6.67c0,-2.75 1.99,-5.05 4.6,-5.55 -0.11,-0.18 -0.17,-0.4 -0.17,-0.62 0,-0.68 0.54,-1.23 1.22,-1.23 0.67,0 1.22,0.55 1.22,1.23 0,0.22 -0.06,0.44 -0.17,0.62 2.61,0.5 4.59,2.8 4.59,5.55l0 6.67 3.15 0c0.93,0 1.69,0.76 1.69,1.69l0 0c0,0.93 -0.76,1.69 -1.69,1.69l-17.59 0c-0.93,0 -1.69,-0.76 -1.69,-1.69l0 0c0,-0.93 0.76,-1.69 1.69,-1.69zm8.8 4.28l2.62 0c0,1.45 -1.17,2.62 -2.62,2.62 -1.45,0 -2.63,-1.17 -2.63,-2.62l2.63 0z"/>
  </g>
 </g>
</svg>
