<?xml version="1.0" encoding="UTF-8"?>
<!DOCTYPE svg PUBLIC "-//W3C//DTD SVG 1.1//EN" "http://www.w3.org/Graphics/SVG/1.1/DTD/svg11.dtd">
<!-- Creator: CorelDRAW 2020 (64-Bit Evaluation Version) -->
<svg xmlns="http://www.w3.org/2000/svg" xml:space="preserve" width="60px" height="60px" version="1.1" style="shape-rendering:geometricPrecision; text-rendering:geometricPrecision; image-rendering:optimizeQuality; fill-rule:evenodd; clip-rule:evenodd"
viewBox="0 0 7.42 7.42"
 xmlns:xlink="http://www.w3.org/1999/xlink"
 xmlns:xodm="http://www.corel.com/coreldraw/odm/2003">
 <defs>
  <style type="text/css">
   <![CDATA[
    .fil0 {fill:#263674}
    .fil1 {fill:#FEC00F}
    .fil2 {fill:#263674;fill-rule:nonzero}
   ]]>
  </style>
 </defs>
 <g id="Layer_x0020_1">
  <metadata id="CorelCorpID_0Corel-Layer"/>
  <g id="_2465919523392">
   <path class="fil0" d="M2.65 5.85c0,0.01 0,0.02 0,0.03 0,0.01 0,0.01 0,0.02 0,0.01 0,0.02 0,0.03 0,0.01 0,0.02 0,0.03l0.39 0.24 -0.24 0.57 -0.44 -0.1c-0.03,0.02 -0.05,0.05 -0.08,0.07l0.11 0.45 -0.58 0.23 -0.24 -0.38c-0.01,0 -0.01,0 -0.02,0 -0.01,0 -0.02,0 -0.03,0 -0.01,0 -0.02,0 -0.03,0 -0.01,0 -0.02,0 -0.02,0l-0.24 0.38 -0.58 -0.23 0.11 -0.45c-0.03,-0.02 -0.06,-0.05 -0.08,-0.07l-0.44 0.1 -0.24 -0.57 0.39 -0.24c0,-0.01 0,-0.02 0,-0.03 0,-0.01 -0.01,-0.02 -0.01,-0.03 0,-0.01 0.01,-0.01 0.01,-0.02 0,-0.01 0,-0.02 0,-0.03l-0.39 -0.24 0.24 -0.57 0.44 0.1c0.02,-0.03 0.05,-0.05 0.08,-0.08l-0.11 -0.44 0.58 -0.24 0.24 0.39c0,0 0.01,0 0.02,0 0.01,0 0.02,0 0.03,0 0.01,0 0.02,0 0.03,0 0.01,0 0.01,0 0.02,0l0.24 -0.39 0.58 0.24 -0.11 0.44c0.03,0.03 0.05,0.05 0.08,0.08l0.44 -0.1 0.24 0.57 -0.39 0.24zm-1.13 -0.61c0.36,0 0.66,0.3 0.66,0.66 0,0.37 -0.3,0.66 -0.66,0.66 -0.37,0 -0.66,-0.29 -0.66,-0.66 0,-0.36 0.29,-0.66 0.66,-0.66z"/>
   <path class="fil0" d="M7.04 1.47c0,0 0,0.01 0,0.02 0,0.01 0,0.02 0,0.03 0,0.01 0,0.02 0,0.03 0,0.01 0,0.01 0,0.02l0.38 0.24 -0.23 0.58 -0.45 -0.11c-0.02,0.03 -0.05,0.05 -0.07,0.08l0.1 0.44 -0.57 0.24 -0.24 -0.39c-0.01,0 -0.02,0 -0.03,0 -0.01,0 -0.02,0 -0.03,0 -0.01,0 -0.01,0 -0.02,0 -0.01,0 -0.02,0 -0.03,0l-0.24 0.39 -0.57 -0.24 0.1 -0.44c-0.03,-0.03 -0.05,-0.05 -0.07,-0.08l-0.45 0.11 -0.24 -0.58 0.39 -0.24c0,-0.01 0,-0.01 0,-0.02 0,-0.01 0,-0.02 0,-0.03 0,-0.01 0,-0.02 0,-0.03 0,-0.01 0,-0.02 0,-0.02l-0.39 -0.24 0.24 -0.58 0.45 0.11c0.02,-0.03 0.04,-0.06 0.07,-0.08l-0.1 -0.44 0.57 -0.24 0.24 0.39c0.01,0 0.02,0 0.03,0 0.01,0 0.01,-0.01 0.02,-0.01 0.01,0 0.02,0.01 0.03,0.01 0.01,0 0.02,0 0.03,0l0.24 -0.39 0.57 0.24 -0.1 0.44c0.02,0.02 0.05,0.05 0.07,0.08l0.45 -0.11 0.23 0.58 -0.38 0.24zm-1.14 -0.61c0.37,0 0.66,0.29 0.66,0.66 0,0.36 -0.29,0.66 -0.66,0.66 -0.36,0 -0.66,-0.3 -0.66,-0.66 0,-0.37 0.3,-0.66 0.66,-0.66z"/>
   <g>
    <path class="fil1" d="M2.88 3.1l-1.54 -2.65c-0.25,0.28 -0.4,0.66 -0.4,1.07 0,0.89 0.72,1.62 1.61,1.62 0.11,0 0.22,-0.02 0.33,-0.04z"/>
    <path class="fil2" d="M2.21 0c0.46,0 0.88,0.19 1.18,0.49 0.3,0.3 0.48,0.71 0.48,1.17 0,0.46 -0.18,0.87 -0.48,1.17 -0.3,0.3 -0.72,0.49 -1.18,0.49 -0.45,0 -0.87,-0.19 -1.17,-0.49 -0.3,-0.3 -0.48,-0.71 -0.48,-1.17 0,-0.46 0.18,-0.87 0.48,-1.17 0.3,-0.3 0.72,-0.49 1.17,-0.49zm0.71 0.95c-0.18,-0.18 -0.43,-0.29 -0.71,-0.29 -0.27,0 -0.52,0.11 -0.7,0.29 -0.19,0.18 -0.3,0.43 -0.3,0.71 0,0.27 0.12,0.52 0.3,0.71 0.18,0.18 0.43,0.29 0.7,0.29 0.28,0 0.53,-0.11 0.71,-0.29 0.18,-0.19 0.29,-0.44 0.29,-0.71 0,-0.28 -0.11,-0.53 -0.29,-0.71z"/>
    <path class="fil2" d="M0.15 4.12l0.01 -0.03c0.11,-0.28 0.28,-0.53 0.49,-0.74 0.4,-0.4 0.95,-0.65 1.56,-0.65 0.61,0 1.17,0.25 1.57,0.65 0.4,0.4 0.65,0.95 0.65,1.56 0,0.19 -0.15,0.33 -0.33,0.33 -0.18,0 -0.33,-0.14 -0.33,-0.33 0,-0.42 -0.18,-0.81 -0.46,-1.1 -0.28,-0.28 -0.67,-0.45 -1.1,-0.45 -0.43,0 -0.82,0.17 -1.1,0.45 -0.08,0.08 -0.15,0.17 -0.21,0.27 -0.01,0.01 -0.01,0.02 -0.02,0.04l-0.73 0z"/>
   </g>
   <g>
    <path class="fil1" d="M4.47 4.32l1.53 2.66c0.25,-0.29 0.41,-0.67 0.41,-1.08 0,-0.89 -0.73,-1.61 -1.62,-1.61 -0.11,0 -0.22,0.01 -0.32,0.03z"/>
    <path class="fil2" d="M5.13 7.42c-0.46,0 -0.87,-0.18 -1.17,-0.48 -0.3,-0.3 -0.49,-0.72 -0.49,-1.17 0,-0.46 0.19,-0.88 0.49,-1.18 0.3,-0.3 0.71,-0.48 1.17,-0.48 0.46,0 0.87,0.18 1.17,0.48 0.3,0.3 0.49,0.72 0.49,1.18 0,0.45 -0.19,0.87 -0.49,1.17 -0.3,0.3 -0.71,0.48 -1.17,0.48zm-0.71 -0.95c0.18,0.18 0.43,0.3 0.71,0.3 0.27,0 0.52,-0.12 0.7,-0.3 0.19,-0.18 0.3,-0.43 0.3,-0.7 0,-0.28 -0.11,-0.53 -0.3,-0.71 -0.18,-0.18 -0.43,-0.29 -0.7,-0.29 -0.28,0 -0.53,0.11 -0.71,0.29 -0.18,0.18 -0.29,0.43 -0.29,0.71 0,0.27 0.11,0.52 0.29,0.7z"/>
    <path class="fil2" d="M7.19 3.31l-0.01 0.03c-0.11,0.28 -0.28,0.53 -0.49,0.73 -0.4,0.4 -0.95,0.65 -1.56,0.65 -0.61,0 -1.17,-0.25 -1.57,-0.65 -0.4,-0.4 -0.65,-0.95 -0.65,-1.56 0,-0.18 0.15,-0.33 0.33,-0.33 0.18,0 0.33,0.15 0.33,0.33 0,0.43 0.18,0.82 0.46,1.1 0.28,0.28 0.67,0.45 1.1,0.45 0.43,0 0.82,-0.17 1.1,-0.45 0.08,-0.08 0.15,-0.17 0.21,-0.27 0.01,-0.01 0.02,-0.02 0.02,-0.03l0.73 0z"/>
   </g>
  </g>
 </g>
</svg>
