<?xml version="1.0" encoding="UTF-8"?>
<!DOCTYPE svg PUBLIC "-//W3C//DTD SVG 1.1//EN" "http://www.w3.org/Graphics/SVG/1.1/DTD/svg11.dtd">
<!-- Creator: CorelDRAW 2020 (64-Bit Evaluation Version) -->
<svg xmlns="http://www.w3.org/2000/svg" xml:space="preserve" width="60px" height="59px" version="1.1" style="shape-rendering:geometricPrecision; text-rendering:geometricPrecision; image-rendering:optimizeQuality; fill-rule:evenodd; clip-rule:evenodd"
viewBox="0 0 0.68 0.67"
 xmlns:xlink="http://www.w3.org/1999/xlink"
 xmlns:xodm="http://www.corel.com/coreldraw/odm/2003">
 <defs>
  <style type="text/css">
   <![CDATA[
    .fil2 {fill:#263674}
    .fil0 {fill:#FEC00F}
    .fil1 {fill:#263674;fill-rule:nonzero}
   ]]>
  </style>
 </defs>
 <g id="Layer_x0020_1">
  <metadata id="CorelCorpID_0Corel-Layer"/>
  <g id="_1963360274464">
   <path class="fil0" d="M0.06 0.01l0.19 0.63 -0.24 0 0.01 -0.58c0,-0.03 0.03,-0.07 0.04,-0.05z"/>
   <path class="fil1" d="M0.46 0.43c-0.01,0 -0.01,-0.01 0,-0.02 0,-0.01 0.01,-0.01 0.02,0l0.03 0.02 0.06 -0.07c0.01,-0.01 0.02,-0.01 0.03,0 0,0.01 0,0.02 0,0.02l-0.09 0.09 -0.05 -0.04z"/>
   <path class="fil1" d="M0.53 0.26c0.04,0 0.08,0.02 0.1,0.04 0.03,0.03 0.05,0.07 0.05,0.11 0,0.04 -0.02,0.08 -0.05,0.11 -0.02,0.02 -0.06,0.04 -0.1,0.04 -0.05,0 -0.08,-0.02 -0.11,-0.04 -0.03,-0.03 -0.05,-0.07 -0.05,-0.11 0,-0.04 0.02,-0.08 0.05,-0.11 0.03,-0.02 0.06,-0.04 0.11,-0.04zm0.08 0.07c-0.02,-0.02 -0.05,-0.04 -0.08,-0.04 -0.04,0 -0.07,0.02 -0.09,0.04 -0.02,0.02 -0.03,0.05 -0.03,0.08 0,0.03 0.01,0.06 0.03,0.08 0.02,0.02 0.05,0.04 0.09,0.04 0.03,0 0.06,-0.02 0.08,-0.04 0.02,-0.02 0.04,-0.05 0.04,-0.08 0,-0.03 -0.02,-0.06 -0.04,-0.08z"/>
   <path class="fil1" d="M0.03 0.65c0,0.01 0,0.02 -0.01,0.02 -0.01,0 -0.02,-0.01 -0.02,-0.02l0 -0.59c0,-0.02 0.01,-0.03 0.02,-0.04 0.01,-0.01 0.02,-0.02 0.04,-0.02l0.42 0c0.02,0 0.03,0.01 0.04,0.02 0.01,0.01 0.02,0.02 0.02,0.04l0 0.17c0,0 -0.01,0.01 -0.02,0.01 -0.01,0 -0.02,-0.01 -0.02,-0.01l0 -0.17c0,-0.01 0,-0.02 0,-0.02 -0.01,0 -0.01,-0.01 -0.02,-0.01l-0.42 0c-0.01,0 -0.02,0.01 -0.02,0.01 0,0 -0.01,0.01 -0.01,0.02l0 0.59z"/>
   <path class="fil1" d="M0.21 0.11c-0.01,0 -0.01,-0.01 -0.01,-0.02 0,-0.01 0,-0.01 0.01,-0.01l0.11 0c0.01,0 0.02,0 0.02,0.01 0,0.01 -0.01,0.02 -0.02,0.02l-0.11 0z"/>
   <path class="fil1" d="M0.5 0.59c0,0 0.01,-0.01 0.02,-0.01 0.01,0 0.02,0.01 0.02,0.01l0 0.06c0,0.01 -0.01,0.02 -0.02,0.02 -0.01,0 -0.02,-0.01 -0.02,-0.02l0 -0.06z"/>
   <path class="fil1" d="M0.31 0.47c0.01,0 0.01,0.01 0.01,0.02 0,0.01 0,0.01 -0.01,0.01l-0.13 0c-0.03,0 -0.05,-0.01 -0.07,-0.02 -0.02,-0.02 -0.03,-0.05 -0.03,-0.07 0,-0.03 0.01,-0.06 0.03,-0.08 0.02,-0.01 0.04,-0.02 0.07,-0.02l0.19 0c0,0 0.01,0 0.01,0.01 0,0.01 -0.01,0.02 -0.01,0.02l-0.19 0c-0.02,0 -0.03,0.01 -0.05,0.02 -0.01,0.01 -0.02,0.03 -0.02,0.05 0,0.01 0.01,0.03 0.02,0.04 0.02,0.01 0.03,0.02 0.05,0.02l0.13 0z"/>
   <circle class="fil2" cx="0.18" cy="0.41" r="0.03"/>
   <circle class="fil2" cx="0.28" cy="0.41" r="0.03"/>
   <circle class="fil2" cx="0.1" cy="0.09" r="0.02"/>
  </g>
 </g>
</svg>
