<?xml version="1.0" encoding="UTF-8"?>
<!DOCTYPE svg PUBLIC "-//W3C//DTD SVG 1.1//EN" "http://www.w3.org/Graphics/SVG/1.1/DTD/svg11.dtd">
<!-- Creator: CorelDRAW 2020 (64-Bit Evaluation Version) -->
<svg xmlns="http://www.w3.org/2000/svg" xml:space="preserve" width="80px" height="80px" version="1.1" style="shape-rendering:geometricPrecision; text-rendering:geometricPrecision; image-rendering:optimizeQuality; fill-rule:evenodd; clip-rule:evenodd"
viewBox="0 0 13.06 13.06"
 xmlns:xlink="http://www.w3.org/1999/xlink"
 xmlns:xodm="http://www.corel.com/coreldraw/odm/2003">
 <defs>
  <style type="text/css">
   <![CDATA[
    .fil2 {fill:#263674}
    .fil0 {fill:#FEC00F}
    .fil1 {fill:#263674;fill-rule:nonzero}
   ]]>
  </style>
 </defs>
 <g id="Layer_x0020_1">
  <metadata id="CorelCorpID_0Corel-Layer"/>
  <g id="_1964239278432">
   <g>
    <path class="fil0" d="M6.3 8.94c-0.32,0 -0.61,-0.06 -0.89,-0.18 -0.28,-0.12 -0.52,-0.28 -0.72,-0.49 -0.21,-0.21 -0.37,-0.45 -0.49,-0.72 -0.12,-0.28 -0.18,-0.58 -0.18,-0.89 0,-0.31 0.06,-0.61 0.18,-0.89 0.12,-0.27 0.28,-0.52 0.49,-0.72l-1.16 -1.16c-0.13,0.13 -0.26,0.27 -0.39,0.43l-1.64 -0.39 -0.52 1.26 1.43 0.9c-0.01,0.1 -0.02,0.19 -0.02,0.29 -0.01,0.09 -0.02,0.19 -0.02,0.29 0,0.09 0.01,0.18 0.02,0.28 0,0.1 0.01,0.19 0.02,0.28l-1.43 0.89 0.52 1.26 1.64 -0.38c0.13,0.16 0.26,0.3 0.39,0.43 0.13,0.12 0.27,0.26 0.42,0.38l-0.38 1.64 1.26 0.53 0.9 -1.43c0.09,0.01 0.19,0.01 0.28,0.02 0.1,0.01 0.19,0.01 0.29,0.01 0.1,0 0.19,0 0.29,-0.01 0.09,-0.01 0.19,-0.01 0.28,-0.02l0.89 1.43 1.26 -0.53 -0.38 -1.64c0.15,-0.12 0.3,-0.25 0.43,-0.38l-1.16 -1.16c-0.21,0.21 -0.45,0.37 -0.73,0.49 -0.27,0.12 -0.57,0.18 -0.88,0.18z"/>
    <path class="fil0" d="M5.67 8.13c0.2,0.09 0.41,0.13 0.63,0.13 0.22,0 0.43,-0.04 0.62,-0.13 0.2,-0.08 0.37,-0.19 0.51,-0.34l-2.26 -2.26c-0.15,0.14 -0.26,0.31 -0.35,0.5 -0.08,0.2 -0.12,0.41 -0.12,0.63 0,0.22 0.04,0.43 0.12,0.62 0.09,0.2 0.2,0.37 0.35,0.51 0.14,0.15 0.31,0.26 0.5,0.34z"/>
    <path class="fil1" d="M10.96 6.09c0,0.03 0,0.07 0,0.1 0,0.04 0,0.07 0,0.11 0,0.03 0,0.07 0,0.1 0,0.04 0,0.07 0,0.11l1.51 0.94 -0.93 2.23 -1.73 -0.39c-0.09,0.1 -0.19,0.19 -0.29,0.29l0.39 1.73 -2.23 0.93 -0.94 -1.51c-0.03,0 -0.07,0 -0.1,0 -0.04,0 -0.07,0 -0.11,0 -0.04,0 -0.07,0 -0.11,0 -0.03,0 -0.07,0 -0.1,0l-0.94 1.51 -2.23 -0.93 0.39 -1.73c-0.1,-0.1 -0.2,-0.19 -0.29,-0.29l-1.73 0.39 -0.93 -2.23 1.51 -0.94c0,-0.04 0,-0.07 0,-0.11 0,-0.03 0,-0.07 0,-0.1 0,-0.04 0,-0.07 0,-0.11 0,-0.03 0,-0.07 0,-0.1l-1.51 -0.94 0.93 -2.23 1.73 0.39c0.09,-0.1 0.19,-0.2 0.29,-0.29l-0.39 -1.73 2.23 -0.93 0.94 1.51c0.03,0 0.07,0 0.1,0 0.04,0 0.07,-0.01 0.11,-0.01 0.04,0 0.07,0.01 0.11,0.01 0.03,0 0.07,0 0.1,0l0.94 -1.51 2.23 0.93 -0.39 1.73c0.1,0.09 0.2,0.19 0.29,0.29l1.73 -0.39 0.93 2.23 -1.51 0.94zm-0.68 0.76c0,-0.1 0.01,-0.19 0.02,-0.28 0.01,-0.09 0.01,-0.18 0.01,-0.28 0,-0.09 0,-0.18 -0.01,-0.27 -0.01,-0.1 -0.02,-0.19 -0.02,-0.27l1.37 -0.86 -0.5 -1.22 -1.58 0.37c-0.12,-0.15 -0.24,-0.28 -0.37,-0.41 -0.13,-0.12 -0.26,-0.25 -0.41,-0.37l0.36 -1.58 -1.21 -0.5 -0.86 1.37c-0.09,0 -0.18,-0.01 -0.28,-0.02 -0.09,-0.01 -0.18,-0.01 -0.27,-0.01 -0.09,0 -0.19,0 -0.28,0.01 -0.09,0.01 -0.18,0.02 -0.27,0.02l-0.86 -1.37 -1.21 0.5 0.36 1.58c-0.15,0.12 -0.28,0.24 -0.41,0.37 -0.12,0.13 -0.25,0.26 -0.37,0.41l-1.58 -0.37 -0.5 1.22 1.37 0.86c0,0.09 -0.01,0.19 -0.02,0.28 -0.01,0.09 -0.01,0.18 -0.01,0.27 0,0.09 0,0.19 0.01,0.28 0.01,0.09 0.02,0.18 0.02,0.27l-1.37 0.86 0.5 1.21 1.58 -0.36c0.12,0.14 0.24,0.28 0.37,0.4 0.13,0.13 0.26,0.25 0.41,0.38l-0.36 1.58 1.21 0.5 0.86 -1.38c0.09,0.01 0.18,0.02 0.28,0.03 0.09,0 0.18,0.01 0.27,0.01 0.09,0 0.19,-0.01 0.28,-0.01 0.09,-0.01 0.18,-0.02 0.27,-0.03l0.86 1.38 1.21 -0.5 -0.36 -1.58c0.15,-0.12 0.28,-0.25 0.41,-0.37 0.12,-0.13 0.25,-0.27 0.37,-0.41l1.58 0.36 0.5 -1.21 -1.37 -0.86zm-3.75 -2.75c0.3,0 0.59,0.06 0.85,0.18 0.27,0.11 0.5,0.27 0.7,0.47 0.2,0.19 0.36,0.43 0.47,0.69 0.12,0.27 0.17,0.56 0.17,0.86 0,0.3 -0.05,0.59 -0.17,0.85 -0.11,0.27 -0.27,0.5 -0.47,0.7 -0.2,0.2 -0.43,0.35 -0.7,0.47 -0.26,0.12 -0.55,0.17 -0.85,0.17 -0.3,0 -0.59,-0.05 -0.85,-0.17 -0.27,-0.12 -0.5,-0.27 -0.7,-0.47 -0.2,-0.2 -0.36,-0.43 -0.47,-0.7 -0.12,-0.26 -0.17,-0.55 -0.17,-0.85 0,-0.3 0.05,-0.59 0.17,-0.86 0.11,-0.26 0.27,-0.5 0.47,-0.69 0.2,-0.2 0.43,-0.36 0.7,-0.47 0.26,-0.12 0.55,-0.18 0.85,-0.18zm0 3.74c0.21,0 0.41,-0.04 0.6,-0.12 0.19,-0.08 0.35,-0.19 0.49,-0.33 0.14,-0.14 0.25,-0.3 0.33,-0.49 0.08,-0.19 0.12,-0.39 0.12,-0.6 0,-0.21 -0.04,-0.42 -0.12,-0.6 -0.08,-0.19 -0.19,-0.35 -0.33,-0.49 -0.14,-0.14 -0.3,-0.25 -0.49,-0.33 -0.19,-0.08 -0.39,-0.12 -0.6,-0.12 -0.21,0 -0.41,0.04 -0.6,0.12 -0.19,0.08 -0.35,0.19 -0.49,0.33 -0.14,0.14 -0.25,0.3 -0.33,0.49 -0.08,0.18 -0.12,0.39 -0.12,0.6 0,0.21 0.04,0.41 0.12,0.6 0.08,0.19 0.19,0.35 0.33,0.49 0.14,0.14 0.3,0.25 0.49,0.33 0.19,0.08 0.39,0.12 0.6,0.12z"/>
   </g>
   <path class="fil0" d="M0.47 0.18c0.01,-0.11 0.11,-0.19 0.22,-0.18 0.12,0.01 0.19,0.11 0.18,0.23l-0.03 0.21 0.22 0.03c0.11,0.01 0.19,0.11 0.18,0.22 -0.02,0.12 -0.12,0.19 -0.23,0.18l-0.22 -0.02 -0.02 0.21c-0.01,0.11 -0.12,0.19 -0.23,0.18 -0.11,-0.02 -0.19,-0.12 -0.17,-0.23l0.03 -0.21 -0.22 -0.03c-0.11,-0.01 -0.19,-0.11 -0.18,-0.23 0.01,-0.1 0.12,-0.19 0.23,-0.17l0.21 0.02 0.03 -0.21 0 0z"/>
   <path class="fil0" d="M10.57 11.77c0.04,-0.11 0.16,-0.16 0.27,-0.12 0.1,0.04 0.15,0.16 0.11,0.26l-0.08 0.21 0.21 0.08c0.1,0.03 0.15,0.15 0.12,0.26 -0.05,0.1 -0.16,0.15 -0.27,0.11l-0.2 -0.08 -0.08 0.21c-0.04,0.1 -0.16,0.15 -0.26,0.12 -0.1,-0.05 -0.16,-0.16 -0.12,-0.27l0.08 -0.2 -0.2 -0.08c-0.11,-0.04 -0.16,-0.16 -0.12,-0.26 0.04,-0.1 0.16,-0.16 0.26,-0.12l0.21 0.08 0.07 -0.2 0 0z"/>
   <path class="fil2" d="M0.61 10.09c0.01,-0.08 0.07,-0.13 0.15,-0.12 0.08,0 0.13,0.07 0.12,0.15l-0.02 0.14 0.15 0.02c0.07,0.01 0.13,0.08 0.12,0.16 -0.01,0.07 -0.08,0.12 -0.16,0.12l-0.14 -0.02 -0.02 0.14c-0.01,0.08 -0.08,0.13 -0.15,0.13 -0.08,-0.02 -0.13,-0.08 -0.12,-0.16l0.02 -0.15 -0.15 -0.01c-0.08,-0.01 -0.13,-0.08 -0.12,-0.16 0.01,-0.07 0.08,-0.13 0.15,-0.11l0.15 0.01 0.02 -0.14 0 0z"/>
   <rect class="fil0" transform="matrix(1.73819 1.73818 -1.73819 1.73818 12.7436 2.21191)" width="0.18" height="0.18"/>
   <rect class="fil0" transform="matrix(1.73819 1.73818 -1.73819 1.73818 0.316265 5.83307)" width="0.18" height="0.18"/>
   <rect class="fil0" transform="matrix(1.73819 1.73818 -1.73819 1.73818 6.4617 12.4274)" width="0.18" height="0.18"/>
   <rect class="fil0" transform="matrix(1.73819 1.73818 -1.73819 1.73818 10.1562 7.83287E-05)" width="0.18" height="0.18"/>
   <rect class="fil0" transform="matrix(1.73819 1.73818 -1.73819 1.73818 0.316253 11.7704)" width="0.18" height="0.18"/>
   <rect class="fil2" transform="matrix(3.25328 3.25327 -3.25328 3.25327 12.4679 2.46962E-05)" width="0.18" height="0.18"/>
   <rect class="fil2" transform="matrix(2.55955 2.55954 -2.55955 2.55954 0.698511 1.90842)" width="0.18" height="0.18"/>
   <rect class="fil2" transform="matrix(2.55955 2.55954 -2.55955 2.55954 2.23264 11.8971)" width="0.18" height="0.18"/>
   <rect class="fil2" transform="matrix(1.91959 1.91958 -1.91959 1.91958 2.95318 3.58795E-05)" width="0.18" height="0.18"/>
   <rect class="fil2" transform="matrix(1.68561 1.68561 -1.68561 1.68561 12.7531 10.5125)" width="0.18" height="0.18"/>
  </g>
 </g>
</svg>
