<?xml version="1.0" encoding="UTF-8"?>
<!DOCTYPE svg PUBLIC "-//W3C//DTD SVG 1.1//EN" "http://www.w3.org/Graphics/SVG/1.1/DTD/svg11.dtd">
<!-- Creator: CorelDRAW 2020 (64-Bit Evaluation Version) -->
<svg xmlns="http://www.w3.org/2000/svg" xml:space="preserve" width="60px" height="60px" version="1.1" style="shape-rendering:geometricPrecision; text-rendering:geometricPrecision; image-rendering:optimizeQuality; fill-rule:evenodd; clip-rule:evenodd"
viewBox="0 0 3.81 3.81"
 xmlns:xlink="http://www.w3.org/1999/xlink"
 xmlns:xodm="http://www.corel.com/coreldraw/odm/2003">
 <defs>
  <style type="text/css">
   <![CDATA[
    .fil0 {fill:#FEC00F}
    .fil1 {fill:#263674;fill-rule:nonzero}
   ]]>
  </style>
 </defs>
 <g id="Layer_x0020_1">
  <metadata id="CorelCorpID_0Corel-Layer"/>
  <g id="_1964002812848">
   <path class="fil0" d="M1.1 2.2c-0.08,0.08 -0.2,0.14 -0.33,0.15 -0.01,0.01 -0.03,0.01 -0.05,0.01 -0.18,0 -0.34,0.07 -0.46,0.19 -0.11,0.12 -0.18,0.28 -0.18,0.46 0,0.18 0.07,0.34 0.18,0.46 0.12,0.11 0.28,0.19 0.46,0.19 0.06,0 0.12,-0.01 0.17,-0.03 0.06,-0.01 0.11,-0.03 0.16,-0.06 0.07,-0.04 0.15,-0.02 0.19,0.05 0.02,0.03 0.03,0.07 0.02,0.1 0,0.01 0,0.01 -0.01,0.02l1.47 0 -0.02 -0.04 -0.42 -0.97 -0.42 -0.95 -0.26 -0.59c-0.05,0.02 -0.1,0.04 -0.14,0.07 -0.12,0.06 -0.22,0.15 -0.3,0.25 0.06,0.09 0.1,0.19 0.1,0.31 0,0.15 -0.06,0.28 -0.16,0.38z"/>
   <path class="fil1" d="M1.96 0c0.17,0 0.32,0.07 0.44,0.18 0.11,0.11 0.18,0.27 0.18,0.44 0,0.17 -0.07,0.33 -0.18,0.44 -0.12,0.11 -0.27,0.18 -0.44,0.18 -0.17,0 -0.33,-0.07 -0.44,-0.18 -0.11,-0.11 -0.18,-0.27 -0.18,-0.44 0,-0.17 0.07,-0.33 0.18,-0.44 0.11,-0.11 0.27,-0.18 0.44,-0.18zm0.29 0.33c-0.08,-0.07 -0.18,-0.12 -0.29,-0.12 -0.11,0 -0.22,0.05 -0.29,0.12 -0.07,0.08 -0.12,0.18 -0.12,0.29 0,0.11 0.05,0.22 0.12,0.29 0.07,0.07 0.18,0.12 0.29,0.12 0.11,0 0.21,-0.05 0.29,-0.12 0.07,-0.07 0.12,-0.18 0.12,-0.29 0,-0.11 -0.05,-0.21 -0.12,-0.29z"/>
   <path class="fil1" d="M1.36 1.46c-0.05,0.04 -0.12,0.03 -0.15,-0.02 -0.04,-0.04 -0.03,-0.11 0.01,-0.15 0.1,-0.08 0.22,-0.14 0.34,-0.19 0.12,-0.04 0.25,-0.06 0.39,-0.06 0.13,0 0.27,0.02 0.4,0.07 0.12,0.05 0.24,0.12 0.35,0.21 0.04,0.04 0.05,0.1 0.01,0.15 -0.04,0.04 -0.11,0.05 -0.15,0.01 -0.09,-0.08 -0.18,-0.13 -0.29,-0.17 -0.1,-0.04 -0.21,-0.06 -0.32,-0.06 -0.11,0 -0.22,0.02 -0.32,0.05 -0.1,0.04 -0.19,0.09 -0.27,0.16z"/>
   <g>
    <path class="fil1" d="M2.98 1.41c0.13,0 0.24,0.06 0.33,0.14 0.08,0.09 0.14,0.2 0.14,0.33 0,0.13 -0.06,0.25 -0.14,0.33 -0.09,0.09 -0.2,0.14 -0.33,0.14 -0.13,0 -0.25,-0.05 -0.34,-0.14 -0.08,-0.08 -0.13,-0.2 -0.13,-0.33 0,-0.13 0.05,-0.24 0.13,-0.33 0.09,-0.08 0.21,-0.14 0.34,-0.14zm0.17 0.29c-0.04,-0.04 -0.1,-0.07 -0.17,-0.07 -0.07,0 -0.14,0.03 -0.18,0.07 -0.05,0.05 -0.08,0.11 -0.08,0.18 0,0.07 0.03,0.13 0.08,0.18 0.04,0.05 0.11,0.07 0.18,0.07 0.07,0 0.13,-0.02 0.17,-0.07 0.05,-0.05 0.08,-0.11 0.08,-0.18 0,-0.07 -0.03,-0.13 -0.08,-0.18z"/>
    <path class="fil1" d="M2.98 2.36c-0.06,0 -0.11,-0.05 -0.11,-0.11 0,-0.06 0.05,-0.11 0.11,-0.11 0.23,0 0.44,0.09 0.59,0.24 0.15,0.16 0.24,0.36 0.24,0.6 0,0.23 -0.09,0.44 -0.24,0.59 -0.15,0.15 -0.36,0.24 -0.59,0.24 -0.08,0 -0.15,-0.01 -0.22,-0.03 -0.07,-0.02 -0.14,-0.04 -0.2,-0.08 -0.05,-0.03 -0.07,-0.1 -0.04,-0.15 0.03,-0.05 0.09,-0.07 0.15,-0.04 0.04,0.03 0.09,0.05 0.15,0.06 0.05,0.02 0.1,0.02 0.16,0.02 0.17,0 0.32,-0.07 0.43,-0.18 0.11,-0.11 0.18,-0.26 0.18,-0.43 0,-0.18 -0.07,-0.33 -0.18,-0.44 -0.11,-0.11 -0.26,-0.18 -0.43,-0.18z"/>
   </g>
   <g>
    <path class="fil1" d="M0.83 1.63c-0.07,0 -0.13,0.03 -0.18,0.08 -0.04,0.04 -0.07,0.1 -0.07,0.18 0,0.07 0.03,0.13 0.07,0.18 0.05,0.04 0.11,0.07 0.18,0.07 0.07,0 0.14,-0.03 0.18,-0.07 0.05,-0.05 0.08,-0.11 0.08,-0.18 0,-0.08 -0.03,-0.14 -0.08,-0.18 -0.04,-0.05 -0.11,-0.08 -0.18,-0.08zm-0.33 -0.07c0.09,-0.09 0.2,-0.14 0.33,-0.14 0.13,0 0.25,0.05 0.33,0.14 0.09,0.08 0.14,0.2 0.14,0.33 0,0.12 -0.05,0.24 -0.14,0.33 -0.08,0.08 -0.2,0.13 -0.33,0.13 -0.13,0 -0.24,-0.05 -0.33,-0.13 -0.08,-0.09 -0.13,-0.21 -0.13,-0.33 0,-0.13 0.05,-0.25 0.13,-0.33z"/>
    <path class="fil1" d="M0.83 2.15c0.06,0 0.11,0.04 0.11,0.1 0,0.06 -0.05,0.11 -0.11,0.11 -0.17,0 -0.32,0.07 -0.44,0.18 -0.11,0.11 -0.18,0.27 -0.18,0.44 0,0.17 0.07,0.33 0.18,0.44 0.12,0.11 0.27,0.18 0.44,0.18 0.06,0 0.11,-0.01 0.16,-0.02 0.06,-0.02 0.11,-0.04 0.15,-0.06 0.05,-0.03 0.12,-0.02 0.15,0.04 0.03,0.05 0.01,0.11 -0.04,0.14 -0.06,0.04 -0.13,0.06 -0.2,0.08 -0.07,0.02 -0.14,0.03 -0.22,0.03 -0.23,0 -0.43,-0.09 -0.59,-0.24 -0.15,-0.15 -0.24,-0.36 -0.24,-0.59 0,-0.23 0.09,-0.44 0.24,-0.59 0.15,-0.15 0.36,-0.24 0.59,-0.24z"/>
   </g>
   <path class="fil1" d="M2.68 2.59c-0.04,-0.04 -0.04,-0.09 0,-0.12 0.03,-0.03 0.08,-0.03 0.11,0l0.44 0.44 -0.44 0.43c-0.03,0.03 -0.08,0.03 -0.11,0 -0.04,-0.03 -0.04,-0.08 0,-0.11l0.32 -0.32 -0.32 -0.32z"/>
   <path class="fil1" d="M2.73 2.66c0.05,0 0.08,0.03 0.08,0.08 0,0.04 -0.03,0.08 -0.08,0.08l-0.47 0c-0.05,0 -0.09,-0.04 -0.09,-0.08 0,-0.05 0.04,-0.08 0.09,-0.08l0.47 0z"/>
   <path class="fil1" d="M2.81 2.74c0,0.04 -0.03,0.08 -0.08,0.08 -0.04,0 -0.08,-0.04 -0.08,-0.08l0 -0.21c0,-0.05 0.04,-0.08 0.08,-0.08 0.05,0 0.08,0.03 0.08,0.08l0 0.21z"/>
   <path class="fil1" d="M2.81 3.28c0,0.05 -0.03,0.09 -0.08,0.09 -0.04,0 -0.08,-0.04 -0.08,-0.09l0 -0.21c0,-0.04 0.04,-0.08 0.08,-0.08 0.05,0 0.08,0.04 0.08,0.08l0 0.21z"/>
   <path class="fil1" d="M2.73 2.99c0.05,0 0.08,0.04 0.08,0.08 0,0.05 -0.03,0.08 -0.08,0.08l-0.28 0c-0.05,0 -0.09,-0.03 -0.09,-0.08 0,-0.04 0.04,-0.08 0.09,-0.08l0.28 0z"/>
   <path class="fil1" d="M2.41 2.1c0.03,0.03 0.03,0.09 0,0.12 -0.04,0.03 -0.09,0.03 -0.12,0l-0.32 -0.32 -0.32 0.32c-0.03,0.03 -0.09,0.03 -0.12,0 -0.03,-0.03 -0.03,-0.09 0,-0.12l0.44 -0.43 0.44 0.43z"/>
   <path class="fil1" d="M2.14 2.24c-0.05,0 -0.09,-0.04 -0.09,-0.08 0,-0.05 0.04,-0.08 0.09,-0.08l0.21 0c0.04,0 0.08,0.03 0.08,0.08 0,0.04 -0.04,0.08 -0.08,0.08l-0.21 0z"/>
   <path class="fil1" d="M1.59 2.24c-0.04,0 -0.08,-0.04 -0.08,-0.08 0,-0.05 0.04,-0.08 0.08,-0.08l0.21 0c0.05,0 0.08,0.03 0.08,0.08 0,0.04 -0.03,0.08 -0.08,0.08l-0.21 0z"/>
   <path class="fil1" d="M1.72 2.16c0,-0.05 0.04,-0.08 0.08,-0.08 0.05,0 0.08,0.03 0.08,0.08l0 0.29c0,0.04 -0.03,0.08 -0.08,0.08 -0.04,0 -0.08,-0.04 -0.08,-0.08l0 -0.29z"/>
   <path class="fil1" d="M1.38 3.23c0.04,0.03 0.04,0.08 0,0.11 -0.03,0.03 -0.08,0.03 -0.11,0l-0.44 -0.43 0.44 -0.44c0.03,-0.03 0.08,-0.03 0.11,0 0.04,0.03 0.04,0.08 0,0.12l-0.32 0.32 0.32 0.32z"/>
   <path class="fil1" d="M1.33 3.15c-0.05,0 -0.09,-0.03 -0.09,-0.08 0,-0.04 0.04,-0.08 0.09,-0.08l0.84 0c0.05,0 0.08,0.04 0.08,0.08 0,0.05 -0.03,0.08 -0.08,0.08l-0.84 0z"/>
   <path class="fil1" d="M1.25 3.07c0,-0.04 0.03,-0.08 0.08,-0.08 0.04,0 0.08,0.04 0.08,0.08l0 0.21c0,0.05 -0.04,0.09 -0.08,0.09 -0.05,0 -0.08,-0.04 -0.08,-0.09l0 -0.21z"/>
   <path class="fil1" d="M1.25 2.53c0,-0.05 0.03,-0.08 0.08,-0.08 0.04,0 0.08,0.03 0.08,0.08l0 0.21c0,0.04 -0.04,0.08 -0.08,0.08 -0.05,0 -0.08,-0.04 -0.08,-0.08l0 -0.21z"/>
   <path class="fil1" d="M1.33 2.82c-0.05,0 -0.09,-0.04 -0.09,-0.08 0,-0.05 0.04,-0.08 0.09,-0.08l0.28 0c0.05,0 0.09,0.03 0.09,0.08 0,0.04 -0.04,0.08 -0.09,0.08l-0.28 0z"/>
  </g>
 </g>
</svg>
