<svg xmlns="http://www.w3.org/2000/svg" width="50" height="37" viewBox="0 0 0.47 0.35" shape-rendering="geometricPrecision" image-rendering="optimizeQuality" fill-rule="evenodd" stroke="#2b2a29" stroke-width=".02" stroke-miterlimit="2.61313" xmlns:v="https://vecta.io/nano"><path d="M.19.18v.16C.1.34.03.27.03.18S.1.01.19.01v.17z" fill="#2b2a29"/><g fill="none"><path d="M.19.07h.04M.19.28h.04M0 .18h.03"/><path d="M.27.18v.07C.29.25.3.26.3.28.3.29.29.3.27.31v.03C.36.34.44.27.44.18S.36.01.27.01v.03C.29.05.3.06.3.07.3.09.29.1.27.1v.08z"/><path d="M.44.18h.03"/></g></svg>