<svg xmlns="http://www.w3.org/2000/svg" width="50" height="34" viewBox="0 0 2.05 1.39" shape-rendering="geometricPrecision" image-rendering="optimizeQuality" fill-rule="evenodd" xmlns:v="https://vecta.io/nano"><path d="M.85 1.19c-.07 0-.15 0-.19-.05-.03-.03-.04-.13-.04-.2h.09L.58.79.46.94h.09c.01.06.01.19.06.24.07.07.16.07.24.07h.02v-.07l-.02.01zm.34-.93c.08 0 .15 0 .19.04.03.04.04.13.04.2h-.09l.13.16.12-.16h-.09c0-.06-.01-.18-.06-.24-.06-.07-.16-.07-.24-.07L1.17.2v.06h.02z" fill="#263674" fill-rule="nonzero"/><path d="M.11 0L.5.35.89 0zm.24.3L.04.64h.92L.65.3.52.42H.5.48L.35.3zM0 .59L.31.26.02 0C.01.01 0 .02 0 .03v.56zM.69.26L1 .59V.03C1 .02.99.01.98 0L.69.26z" fill="#efb30c"/><path d="M1.16.75l.39.35.39-.35zm.24.3l-.31.34h.92l-.31-.34-.13.12h-.02-.02l-.13-.12zm-.35.29l.31-.33-.29-.26c-.01.01-.02.02-.02.03v.56zm.69-.33l.31.33V.78c0-.01-.01-.02-.02-.03l-.29.26z" fill="#263674"/></svg>