<svg xmlns="http://www.w3.org/2000/svg" width="70" height="82" viewBox="0 0 54.39 63.41" shape-rendering="geometricPrecision" image-rendering="optimizeQuality" fill-rule="evenodd" xmlns:v="https://vecta.io/nano"><g stroke="#263674"><path d="M11.23 16.85l-1.34.05m-1.24 2.73l-.05-1.34m-.11-2.68l-.05-1.34M7.2 17l-1.34.05" stroke-width=".01" stroke-linecap="round" stroke-linejoin="round" stroke-miterlimit="2.61313" fill="none"/><path d="M22.73 9.36l-.69.02m-.63 1.4l-.02-.69m-.06-1.36l-.02-.69m-.63 1.4l-.69.02" stroke-linecap="round" stroke-linejoin="round" stroke-miterlimit="2.61313" fill="none"/></g><path d="M28.66 53.63h1.92c.19.27.23.63.09.95-.21.5-.79.73-1.29.51a12.32 12.32 0 0 1-2.56-1.51v5.51c0 .07-.01.13-.02.2h17.77c-.02-.07-.02-.13-.02-.2v-5.06a.89.89 0 0 1 .07-.4h1.66a12.96 12.96 0 0 0 3.01-2.24l.47-.47c2.33-2.33 3.65-5.5 3.65-8.81V24.12a3.44 3.44 0 0 0-3.43-3.44 3.44 3.44 0 0 0-3.44 3.44l-.03.02V7.88a2.96 2.96 0 0 0-2.95-2.96c-1.63 0-2.96 1.33-2.96 2.96l.01-3.94c0-1.63-1.33-2.96-2.96-2.96a2.96 2.96 0 0 0-2.95 2.96v3.94c0-1.63-1.33-2.96-2.96-2.96a2.96 2.96 0 0 0-2.95 2.96v4.92 1.97a2.96 2.96 0 0 0-2.96-2.95 2.95 2.95 0 0 0-2.95 2.95v10.77l1.73.83 1.46 6.39 1.45 6.4-4.08 5.12-.49.62c.4 3.65 2.52 6.9 5.71 8.73zM40.6 45.3h0z" fill="#f0b90b"/><g fill="#263674"><g fill-rule="nonzero"><path d="M26.82 59.09c0 .55-.44.99-.99.99-.54 0-.98-.44-.98-.99v-7.6a.98.98 0 0 1 .98-.98c.55 0 .99.44.99.98v7.6zm12.8-51.21a.99.99 0 0 1 .98-.99c.55 0 .99.45.99.99v19.7c0 .54-.44.98-.99.98a.98.98 0 0 1-.98-.98V7.88zM27.8 12.8c0-.54.44-.98.99-.98a.98.98 0 0 1 .98.98v15.76a.99.99 0 0 1-.98.99c-.55 0-.99-.45-.99-.99V12.8zm7.88 13.79c0 .55-.44.99-.98.99-.55 0-.99-.44-.99-.99V7.88c0-.54.44-.99.99-.99a.99.99 0 0 1 .98.99v18.71zm7.04 5.92c.54.08.91.58.83 1.12s-.58.91-1.12.83c-.02 0-5.34-.9-11.88 7.51-.33.43-.95.51-1.38.17-.43-.33-.51-.95-.18-1.38 7.26-9.32 13.71-8.25 13.73-8.25z"/><path d="M28.29 34.33c-.47-.27-.63-.88-.35-1.34.28-.47.88-.63 1.35-.35l5.2 3.09a.98.98 0 1 1-1.01 1.69l-5.19-3.09z"/></g><path d="M22.94 58.61h25.64v4.8H22.94z"/></g><path d="M12.79 22.57l5.13 2.47 5.13 2.47 1.27 5.56 1.26 5.55-3.55 4.45-3.55 4.45h-5.69H7.1l-3.55-4.45L0 38.62l1.27-5.55 1.26-5.56 5.13-2.47 5.13-2.47zm0 2.22l4.22 2.03 4.22 2.03 1.04 4.57 1.04 4.56-2.92 3.66-2.92 3.66h-4.68-4.68l-2.92-3.66-2.91-3.66 1.04-4.56 1.04-4.57 4.22-2.03 4.21-2.03z" fill="#efb30c"/><path d="M10.36 36.79c-.38.64-.75.01-.75.01l-.62-1.18c-.26.45-.62 1.56-.97.72l-2.08-3.96a4.29 4.29 0 0 0-.34 2.82v.01l2.48 4.64c.73 1.04 1.23.41 1.23.41.44-.27 1.3-2.06 1.61-2.6.1-.2.2 0 .2 0l.34.6a15.24 15.24 0 0 0 1.08 1.88c.65.8 1.28-.13 1.28-.13.64-.92 1.62-2.82 2-3.62.46-.73.41-1.09.41-1.09.08-.46-.44-1.19-.49-1.28-.28-.46-.52.03-.52.03l-1.77 3.35c-.29.71-.52.1-.52.1l-1.27-2.46c-.12-.37-.33-.08-.33-.08l-.97 1.83z" fill="#1f2f70"/><path d="M9.75 36.07c.27.46.51-.03.51-.03l1.77-3.35c.3-.71.52-.1.52-.1l1.27 2.46c.11.37.32.08.32.08l.95-1.78c.38-.63.76-.1.76-.1l.64 1.22c.26-.45.62-1.56.97-.72L19.68 38a4.33 4.33 0 0 0 .4-1.83c0-1.59-1.88-4.44-2.67-5.93-.73-1.04-1.24-.41-1.24-.41-.44.27-1.3 2.06-1.6 2.61-.11.19-.2 0-.2 0l-.35-.6a14.17 14.17 0 0 0-1.08-1.89c-.64-.8-1.27.13-1.27.13-.64.93-1.62 2.82-2.01 3.62-.45.73-.41 1.09-.41 1.09-.08.47.44 1.19.5 1.28z" fill="#efb30c"/><path d="M20.39 41.64l-2.92 3.66h-4.68-4.68l-.72-.9-1.17 2.02.88 1.1h5.69 5.69l3.55-4.45 3.55-4.45-1.26-5.55-1.27-5.56-4.62-2.22-1.01 1.73 3.81 1.83 1.04 4.57 1.04 4.56z" fill="#1f2f70"/><path d="M50.77 38.17s-4.66 15.3-20.04 15.81c.04.2.03.41-.06.6-.21.5-.79.73-1.29.51a12.46 12.46 0 0 1-2.2-1.24l-.36-.04v4.8h17.73v-4.58a.89.89 0 0 1 .07-.4c.09-.23.27-.42.5-.53.65-.29 1.26-.64 1.85-1.05.56-.39 1.09-.82 1.58-1.31l.52-.51c1.07-1.08 1.91-2.35 2.48-3.72a11.51 11.51 0 0 0 .87-4.4l.01-17.99c-.01-.66-.26-1.26-.68-1.69l-.04-.05c-.26-.25-.58-.46-.94-.58v16.37zM43.81 5.03h1.72V36.9h-1.72z" fill="#fefefe"/><g fill="#263674"><g fill-rule="nonzero"><path d="M30.16 53.29c.5.21.73.79.51 1.29-.21.5-.79.73-1.29.51a12.49 12.49 0 0 1-5.45-4.61 12.38 12.38 0 0 1-1.82-4.53l1.33-1.67.42-.53c.02 2.05.64 4 1.72 5.65 1.1 1.68 2.67 3.05 4.58 3.89zM21.9 25.07v-10.3a3.85 3.85 0 0 1 1.15-2.78h0a3.94 3.94 0 0 1 2.78-1.16c.72 0 1.39.2 1.97.53V7.88a3.9 3.9 0 0 1 1.16-2.78v-.01a3.93 3.93 0 0 1 2.78-1.15 3.87 3.87 0 0 1 1.97.53v-.53a3.93 3.93 0 0 1 1.15-2.78l.01-.01A3.93 3.93 0 0 1 37.65 0h.03a3.97 3.97 0 0 1 2.76 1.15c.71.71 1.15 1.7 1.15 2.79v.53a3.87 3.87 0 0 1 1.97-.53 3.93 3.93 0 0 1 2.78 1.15l.01.01a3.93 3.93 0 0 1 1.15 2.78v12.58c.7-.48 1.56-.76 2.47-.76 1.22 0 2.33.49 3.13 1.29l.06.07a4.4 4.4 0 0 1 1.23 3.06v17.99c0 1.78-.35 3.52-1.02 5.14s-1.66 3.11-2.92 4.37l-.52.52c-.57.56-1.19 1.07-1.84 1.53a13.99 13.99 0 0 1-1.58.94v4.48a.98.98 0 0 1-1.96 0v-5.06c-.01-.39.2-.76.57-.93.65-.29 1.26-.64 1.85-1.05.56-.39 1.09-.82 1.58-1.31l.52-.51c1.07-1.08 1.91-2.35 2.48-3.72a11.51 11.51 0 0 0 .87-4.4l.01-17.99c-.01-.66-.26-1.26-.68-1.69l-.04-.05c-.45-.44-1.06-.71-1.73-.71a2.44 2.44 0 0 0-1.74.72c-.44.44-.71 1.05-.71 1.73v.02c0 .55-.44.99-.99.99h-.03c-.54-.01-.98-.45-.98-.99V7.88c0-.55-.22-1.04-.58-1.4-.35-.35-.85-.57-1.39-.57-.55 0-1.04.22-1.4.57-.35.36-.57.85-.57 1.4h-1.97V3.94c0-.54-.22-1.03-.58-1.39a1.94 1.94 0 0 0-1.39-.58h-.02c-.54.01-1.02.22-1.37.57-.36.36-.58.85-.58 1.4v3.94h-1.97c0-.55-.22-1.04-.57-1.4-.36-.35-.85-.57-1.4-.57-.54 0-1.04.22-1.39.57-.36.36-.58.85-.58 1.4v6.89H27.8c0-.54-.22-1.03-.58-1.39-.35-.36-.84-.58-1.39-.58a1.94 1.94 0 0 0-1.39.58 1.94 1.94 0 0 0-.58 1.39v11.24l-1.96-.94z"/><path d="M45.53 24.62a.98.98 0 0 1 .98-.98c.55 0 .99.44.99.98v9.85a.99.99 0 0 1-.29.7l-2.48 2.47c-1 1.01-1.78 2.2-2.31 3.49-.54 1.3-.83 2.72-.83 4.17 0 .55-.44.99-.99.99-.54 0-.98-.44-.98-.99 0-1.7.34-3.37.98-4.92.63-1.52 1.56-2.93 2.74-4.12l2.19-2.2v-9.44z"/></g><circle cx="17.26" cy="20.6" r=".55"/></g><g stroke="#263674" fill="none"><circle cx="16.7" cy="15.37" r=".59"/><circle cx="3.56" cy="22.54" r=".95"/></g></svg>