<svg xmlns="http://www.w3.org/2000/svg" width="70" height="70" viewBox="0 0 71.76 71.76" shape-rendering="geometricPrecision" image-rendering="optimizeQuality" fill-rule="evenodd" xmlns:v="https://vecta.io/nano"><circle cx="35.88" cy="35.88" r="35.88" fill="#f0b90b"/><path d="M60.62 35.72L40.03 59.64 28.71 47.47 9.75 65.61 4.6 58.78l25.2-24.04 1.81 2.4.02-.02 8.43 11.21 13.79-17.84-5.1-3.94 15.04-1.93 1.93 15.04z" fill="#fefefe"/><path d="M40.09 44.71l10.68-13.83-7.56-5.83 14.08-1.81c-4.33-7.31-12.3-12.22-21.41-12.22-13.73 0-24.86 11.13-24.86 24.86a24.75 24.75 0 0 0 2.61 11.1l16.45-15.52 1.97 2.61.02-.01 8.02 10.65z" fill="#263674"/><path d="M35.88 71.76c19.81 0 35.88-16.07 35.88-35.88v-.22l-7.55-7.75 1.51 11.75-5.1-3.94-20.59 23.92-11.32-12.17-11.89 11.38 11.65 12.14a36.17 36.17 0 0 0 7.41.77z" fill="#d6a400"/></svg>