<svg xmlns="http://www.w3.org/2000/svg" width="70" height="57" viewBox="0 0 1.5 1.22" shape-rendering="geometricPrecision" image-rendering="optimizeQuality" fill-rule="nonzero" xmlns:v="https://vecta.io/nano"><path d="M.28.71v-.3C.28.38.27.35.24.32.22.3.2.29.16.29H.12C.08.29.06.3.03.32.01.35 0 .38 0 .41v.3c0 .03.01.06.03.08.03.03.05.04.09.04h.04C.2.83.22.82.24.79.27.77.28.74.28.71zM.57.09H.52C.49.09.46.1.44.12.42.15.41.17.41.2v.28c0 .03.01.05.03.08.02.02.05.03.08.03h.05C.6.59.63.58.65.56.67.53.68.51.68.48V.2C.68.17.67.15.65.12.63.1.6.09.57.09zM.98.07H.93C.89.07.87.08.84.1.82.12.81.15.81.18v.17c0 .03.01.06.03.08.03.02.05.04.09.04h.05c.03 0 .05-.02.08-.04.02-.02.03-.05.03-.08V.18c0-.03-.01-.06-.03-.08C1.03.08 1.01.07.98.07zm.4-.07h-.05c-.03 0-.06.01-.08.03-.02.03-.03.05-.03.08v.05c0 .03.01.06.03.08s.05.04.08.04h.05c.03 0 .06-.02.08-.04S1.5.19 1.5.16V.11c0-.03-.02-.05-.04-.08C1.44.01 1.41 0 1.38 0z" fill="#263674"/><path d="M1.22.5v.6c0 .03.01.06.03.08.02.03.05.04.08.04h.05c.03 0 .06-.01.08-.04.02-.02.04-.05.04-.08V.5c0-.03-.02-.06-.04-.08S1.41.39 1.38.39h-.05c-.03 0-.06.01-.08.03s-.03.05-.03.08zm-.29.71h.05c.03 0 .05-.01.08-.03.02-.02.03-.05.03-.08V.65c0-.03-.01-.06-.03-.08C1.03.55 1.01.53.98.53H.93C.9.53.87.55.85.57.82.59.81.62.81.65v.45c0 .03.01.06.04.08.02.02.05.03.08.03zm-.41.01h.05c.03 0 .06-.01.08-.04.02-.02.04-.05.04-.08V.77C.69.74.67.71.65.69S.6.66.57.66H.52C.49.66.46.67.44.69S.4.74.4.77v.33c0 .03.02.06.04.08.02.03.05.04.08.04zm-.4-.01h.04c.03 0 .06-.01.08-.03.03-.02.04-.05.04-.08v-.05C.28 1.02.27.99.24.97.22.95.19.94.16.94H.12C.08.94.06.95.03.97.01.99 0 1.02 0 1.05v.05c0 .03.01.06.03.08.03.02.05.03.09.03z" fill="#efb30c"/></svg>