<svg xmlns="http://www.w3.org/2000/svg" width="70" height="36" viewBox="0 0 6.23 3.17" shape-rendering="geometricPrecision" image-rendering="optimizeQuality" fill-rule="evenodd" xmlns:v="https://vecta.io/nano"><path d="M4.84.63c.42.11.67.37.74.76a1 1 0 0 1-.04.57c-.07.17-.19.32-.36.44-.31.22-.61.24-.89.06a1.07 1.07 0 0 1-.21-.17c-.06-.05-.14-.15-.25-.27l-.14-.16-.35.47c0 .01 0 .03.02.06v.01l.22.24c.26.3.57.47.92.51.42.06.8-.06 1.15-.35a1.65 1.65 0 0 0 .47-.62c.1-.24.13-.5.09-.78C6.15.87 5.86.47 5.35.18c-.26-.14-.53-.2-.8-.17-.39.04-.72.23-1 .55l-.06.06-.47.59-.01.02-.28 1.35c.04-.04.08-.09.12-.14l.36-.48.52-.67c.19-.24.39-.43.61-.58.17-.1.33-.13.5-.08z" fill="#f0b90b"/><path d="M.93 2.31c-.16-.16-.26-.35-.3-.57-.03-.22.01-.43.12-.62.11-.2.26-.34.47-.43.11-.05.2-.08.29-.09.1 0 .2.02.3.06.17.1.31.22.44.35l.17.2.1.09.37-.5-.26-.29C2.44.3 2.23.16 1.99.07c-.23-.08-.47-.09-.71-.04A1.54 1.54 0 0 0 .6.36c-.27.21-.45.48-.54.8a1.52 1.52 0 0 0 .02.92c.11.32.3.58.57.77a1.5 1.5 0 0 0 .73.31c.26.03.52-.01.78-.14a1.72 1.72 0 0 0 .57-.44l.28-1.35-.41.51-.49.58c-.18.2-.38.29-.6.26a.95.95 0 0 1-.58-.27z" fill="#263674"/><circle cx="1.47" cy="1.59" r=".34" fill="#f0b90b"/><circle cx="4.79" cy="1.59" r=".34" fill="#263674"/></svg>