<svg xmlns="http://www.w3.org/2000/svg" width="70" height="70" viewBox="0 0 124.67 124.67" shape-rendering="geometricPrecision" image-rendering="optimizeQuality" fill-rule="evenodd" xmlns:v="https://vecta.io/nano"><path d="M97.34 19.24l-2.66-3.07C89.99 11.3 84.51 7.45 78.23 4.64S65.43.28 58.68 0h-1.83c-7.49 0-14.69 1.62-21.58 4.85a53.37 53.37 0 0 0-17.86 13.57C12.4 24.23 8.84 30.77 6.73 38.04c-2.11 7.26-2.6 14.64-1.48 22.14.09 1.03.33 2.25.7 3.66 1.78 8.15 4.95 15.19 9.49 21.09 4.55 5.91 10.01 10.22 16.39 12.94 2.54 1.11 5.18 1.75 7.92 1.92l57.59-80.55zm-76.9 41.08a8.58 8.58 0 0 1 2.74-2.46c1.08-.61 2.22-.91 3.44-.91 1.6 0 2.91.37 3.94 1.12 1.69 1.03 2.74 2.51 3.16 4.43.43 1.92.12 3.78-.91 5.56-.66 1.03-1.52 1.85-2.6 2.46s-2.27.91-3.59.91c-1.5 0-2.76-.37-3.79-1.12-1.69-1.03-2.77-2.53-3.24-4.5s-.18-3.8.85-5.49zm7.73-16.03c-1.41 0-2.72-.37-3.94-1.12-1.78-1.13-2.88-2.67-3.3-4.64s-.07-3.8 1.05-5.49c.66-1.03 1.53-1.85 2.6-2.46 1.08-.61 2.28-.91 3.59-.91s2.58.38 3.8 1.12c1.78 1.04 2.88 2.54 3.3 4.5.42 1.97.12 3.85-.91 5.63-.75 1.03-1.67 1.85-2.74 2.46a6.9 6.9 0 0 1-3.45.91zm15.61-27.27c.75-1.04 1.66-1.86 2.74-2.47 1.08-.6 2.27-.91 3.59-.91 1.31 0 2.57.38 3.79 1.13 1.69 1.03 2.74 2.53 3.17 4.5.42 1.96.11 3.79-.92 5.48-.65 1.12-1.52 1.99-2.6 2.6s-2.27.91-3.58.91c-1.32 0-2.58-.37-3.8-1.12-1.78-1.13-2.88-2.67-3.31-4.64-.42-1.97-.11-3.8.92-5.48zm39.51 14.06c-.66 1.03-1.52 1.85-2.6 2.46s-2.28.91-3.59.91c-1.5 0-2.76-.37-3.79-1.12-1.69-1.03-2.77-2.56-3.24-4.57-.47-2.02-.14-3.82.99-5.42.65-1.03 1.52-1.85 2.6-2.46s2.27-.91 3.58-.91c1.5 0 2.77.37 3.8 1.12 1.69 1.03 2.77 2.56 3.23 4.57.47 2.02.14 3.82-.98 5.42z" fill="#263674" fill-rule="nonzero"/><path d="M108.76 48.33l-14.2-10-49.98 70.95-.21 15.39 14.41-5.39zm-4.24-24.14l14.19 10 5.96-8.45-14.2-10zM0 64.1v60.57h22.18l.21-14.66h-7.74V91.03C7.54 83.67 2.38 74.42 0 64.1zM29.92 0H0v38.23C3.85 21.52 15 7.59 29.92 0z" fill="#fdcb08"/></svg>