<svg xmlns="http://www.w3.org/2000/svg" width="50" height="50" viewBox="0 0 1.78 1.78" shape-rendering="geometricPrecision" image-rendering="optimizeQuality" fill-rule="evenodd" xmlns:v="https://vecta.io/nano"><path d="M.78 1.4h.82c.1 0 .18.08.18.17h0c0 .1-.08.17-.18.17H.29v-.11-.23-.41h.18c.18 0 .33.14.33.32h0c0 .03-.01.06-.02.09z" fill="#f0b90b"/><path d="M.31.85H.03C.01.85 0 .86 0 .88v.84c0 .03.03.06.06.06h.25V.85z" fill="#263674"/><g fill="#f0b90b"><path d="M.85.33c.16 0 .29.13.29.28 0 .16-.13.28-.29.28C.7.89.58.77.58.61.58.46.7.33.85.33z"/><path d="M.65.13C.65.12.66.1.68.1s.03.02.03.03v.3C.71.44.7.46.68.46S.65.44.65.43v-.3zm.38.18c0-.02.01-.03.03-.03.01 0 .02.01.02.03v.15c0 .01-.01.02-.02.02-.02 0-.03-.01-.03-.02V.31zM.9.22C.9.21.91.19.93.19s.03.02.03.03v.15C.96.39.95.4.93.4S.9.39.9.37V.22zM.77.28C.77.26.79.24.81.24.82.24.84.26.84.28v.06C.84.36.82.37.81.37.79.37.77.36.77.34V.28z" fill-rule="nonzero"/></g><circle cx=".93" cy=".12" r=".04" fill="#ffcd3f"/><circle cx=".68" cy=".04" r=".04" fill="#f0b90b"/><g fill="#263674"><path d="M1.48.75a.28.28 0 1 1 0 .56c-.15 0-.28-.13-.28-.28s.13-.28.28-.28zm-.05.31v-.03h.02.03v-.02h-.05V.99h.05V.97h-.03-.02V.94h.1v.03H1.5c.01 0 .02.01.02.02h.01v.02h-.01c0 .02-.01.02-.02.03 0 .01-.01.01-.01.02h-.02l.06.1h-.04l-.06-.1z"/><path d="M1.27.55c0-.01.02-.03.04-.03s.03.02.03.03v.3c0 .01-.01.03-.03.03S1.27.86 1.27.85v-.3zm.38.18c0-.02.02-.03.03-.03.02 0 .03.01.03.03v.14c0 .02-.01.04-.03.04-.01 0-.03-.02-.03-.04V.73zM1.53.64c0-.02.01-.03.03-.03.01 0 .03.01.03.03v.15c0 .02-.02.03-.03.03-.02 0-.03-.01-.03-.03V.64zM1.4.69c0-.02.01-.03.03-.03s.03.01.03.03v.07c0 .01-.01.03-.03.03S1.4.77 1.4.76V.69z" fill-rule="nonzero"/><circle cx="1.56" cy=".53" r=".04"/><circle cx="1.31" cy=".46" r=".04"/></g><g fill="#fff"><path d="M.79.67c0 .02-.01 0-.01 0L.76.64C.75.66.74.68.74.66L.68.56C.67.58.67.61.68.63h0l.06.12c.02.03.03.01.03.01C.78.75.8.71.81.7l.01.01c.01.02.02.03.03.05C.87.78.88.75.88.75.9.73.92.68.93.66L.94.64C.94.62.93.61.93.6L.87.69c0 .02-.01 0-.01 0L.83.63.79.67z"/><path d="M.78.66L.84.57c0-.02.01 0 .01 0l.03.06.03-.04C.92.57.93.58.93.58l.02.03C.96.6.97.58.97.6l.06.1c.01-.01.01-.03.01-.04C1.04.62.99.55.97.51.95.48.94.5.94.5.93.5.91.55.9.56L.89.55C.88.53.87.52.86.5.84.48.83.5.83.5.81.53.79.58.78.6.77.61.77.62.77.62c0 .01.01.03.01.04z"/></g></svg>