<svg xmlns="http://www.w3.org/2000/svg" width="50" height="57" viewBox="0 0 0.22 0.25" shape-rendering="geometricPrecision" image-rendering="optimizeQuality" fill-rule="evenodd" xmlns:v="https://vecta.io/nano"><path d="M.17.14H.12v.01h.05 0C.16.16.16.16.16.17H.14.12v.02h0 .02c.01.02.02.02.02.02l.02.04H.2L.17.21.16.19.15.18h0 0C.17.18.17.17.17.17.18.16.18.16.18.15h0 .03V.14H.18h0C.18.12.18.12.17.12h0 .04V.11H.12v.01h.02.02l.01.02h0 0z" fill="#263674"/><g fill-rule="nonzero"><path d="M.13 0h0 0v.08l.08.01h.01L.13 0H.02 0v.02.21c.01.01.01.02.02.02h.15L.15.21C.14.2.14.2.14.19H.12.11V.17h.03C.15.16.16.16.16.16h0-.05V.14h0 .05V.13h0-.01L.11.12V.1h.11V.09L.13 0z" fill="#fdcb08"/><path d="M.14.09h.07.01L.13 0h0v.08z" fill="#fefefe"/><path d="M.15.08h.06.01L.13 0h0v.07c.01.01.02.01.02.01z" fill="#263674"/></g><path d="M.02.1h.07v.02H.02zm0 .04h.03v.02H.02zm0 .03h.07v.02H.02z" fill="#fefefe"/></svg>