<?xml version="1.0" encoding="UTF-8"?>
<!DOCTYPE svg PUBLIC "-//W3C//DTD SVG 1.1//EN" "http://www.w3.org/Graphics/SVG/1.1/DTD/svg11.dtd">
<!-- Creator: CorelDRAW 2020 (64-Bit Evaluation Version) -->
<svg xmlns="http://www.w3.org/2000/svg" xml:space="preserve" width="30px" height="29px" version="1.1" style="shape-rendering:geometricPrecision; text-rendering:geometricPrecision; image-rendering:optimizeQuality; fill-rule:evenodd; clip-rule:evenodd"
viewBox="0 0 1.22 1.18"
 xmlns:xlink="http://www.w3.org/1999/xlink"
 xmlns:xodm="http://www.corel.com/coreldraw/odm/2003">
 <defs>
  <style type="text/css">
   <![CDATA[
    .str0 {stroke:white;stroke-width:0.01;stroke-miterlimit:2.61313}
    .fil4 {fill:#263674}
    .fil3 {fill:#FEC00F}
    .fil0 {fill:white}
    .fil1 {fill:#263674;fill-rule:nonzero}
    .fil2 {fill:white;fill-rule:nonzero}
   ]]>
  </style>
 </defs>
 <g id="Layer_x0020_1">
  <metadata id="CorelCorpID_0Corel-Layer"/>
  <g id="_2104781982864">
   <circle class="fil0" cx="0.61" cy="0.56" r="0.45"/>
   <path class="fil1" d="M0.61 0.05c0.14,0 0.27,0.06 0.36,0.15 0.1,0.09 0.15,0.22 0.15,0.36 0,0.15 -0.05,0.27 -0.15,0.37 -0.09,0.09 -0.22,0.15 -0.36,0.15 -0.14,0 -0.27,-0.06 -0.36,-0.15 -0.09,-0.1 -0.15,-0.22 -0.15,-0.37 0,-0.14 0.06,-0.27 0.15,-0.36 0.09,-0.09 0.22,-0.15 0.36,-0.15zm0.28 0.24c-0.07,-0.07 -0.17,-0.12 -0.28,-0.12 -0.11,0 -0.2,0.05 -0.27,0.12 -0.08,0.07 -0.12,0.17 -0.12,0.27 0,0.11 0.04,0.21 0.12,0.28 0.07,0.07 0.16,0.12 0.27,0.12 0.11,0 0.21,-0.05 0.28,-0.12 0.07,-0.07 0.11,-0.17 0.11,-0.28 0,-0.1 -0.04,-0.2 -0.11,-0.27z"/>
   <circle class="fil0" cx="0.39" cy="0.16" r="0.1"/>
   <path class="fil2" d="M0.39 0c0.05,0 0.09,0.02 0.12,0.05 0.03,0.03 0.04,0.07 0.04,0.11 0,0.04 -0.01,0.09 -0.04,0.11 -0.03,0.03 -0.07,0.05 -0.12,0.05 -0.04,0 -0.08,-0.02 -0.11,-0.05 -0.03,-0.02 -0.05,-0.07 -0.05,-0.11 0,-0.04 0.02,-0.08 0.05,-0.11 0.03,-0.03 0.07,-0.05 0.11,-0.05zm0.03 0.13c-0.01,0 -0.02,-0.01 -0.03,-0.01 -0.01,0 -0.02,0.01 -0.03,0.01 0,0.01 -0.01,0.02 -0.01,0.03 0,0.01 0.01,0.02 0.01,0.03 0.01,0.01 0.02,0.01 0.03,0.01 0.01,0 0.02,0 0.03,-0.01 0.01,-0.01 0.01,-0.02 0.01,-0.03 0,-0.01 0,-0.02 -0.01,-0.03z"/>
   <circle class="fil3" cx="0.39" cy="0.16" r="0.1"/>
   <circle class="fil0" transform="matrix(0.402107 -2.97162 2.97163 0.402105 0.830668 0.160813)" r="0.03"/>
   <path class="fil2" d="M0.67 0.14c0.01,-0.04 0.03,-0.08 0.06,-0.11 0.04,-0.02 0.08,-0.03 0.12,-0.03 0.05,0.01 0.08,0.03 0.11,0.06 0.02,0.04 0.04,0.08 0.03,0.12 -0.01,0.05 -0.03,0.08 -0.06,0.11 -0.03,0.02 -0.08,0.04 -0.12,0.03 -0.04,-0.01 -0.08,-0.03 -0.11,-0.06 -0.02,-0.03 -0.03,-0.08 -0.03,-0.12zm0.14 -0.01c-0.01,0 -0.02,0.01 -0.02,0.03 0,0.01 0,0.02 0.01,0.02 0,0.01 0.01,0.02 0.03,0.02 0.01,0 0.02,0 0.03,-0.01 0,0 0.01,-0.01 0.01,-0.02 0,-0.01 0,-0.03 -0.01,-0.03 0,-0.01 -0.01,-0.02 -0.02,-0.02 -0.01,0 -0.03,0 -0.03,0.01z"/>
   <circle class="fil3" transform="matrix(0.402107 -2.97162 2.97163 0.402105 0.830668 0.160813)" r="0.03"/>
   <circle class="fil0" cx="0.39" cy="1.02" r="0.1"/>
   <path class="fil2" d="M0.39 0.86c0.05,0 0.09,0.01 0.12,0.04 0.03,0.03 0.04,0.07 0.04,0.12 0,0.04 -0.01,0.08 -0.04,0.11 -0.03,0.03 -0.07,0.05 -0.12,0.05 -0.04,0 -0.08,-0.02 -0.11,-0.05 -0.03,-0.03 -0.05,-0.07 -0.05,-0.11 0,-0.05 0.02,-0.09 0.05,-0.12 0.03,-0.03 0.07,-0.04 0.11,-0.04zm0.03 0.13c-0.01,-0.01 -0.02,-0.01 -0.03,-0.01 -0.01,0 -0.02,0 -0.03,0.01 0,0 -0.01,0.01 -0.01,0.03 0,0.01 0.01,0.02 0.01,0.02 0.01,0.01 0.02,0.02 0.03,0.02 0.01,0 0.02,-0.01 0.03,-0.02 0.01,0 0.01,-0.01 0.01,-0.02 0,-0.02 0,-0.03 -0.01,-0.03z"/>
   <circle class="fil3" cx="0.39" cy="1.02" r="0.1"/>
   <g>
    <path class="fil0 str0" d="M0.83 0.92c0.06,0 0.1,0.04 0.1,0.1 0,0.05 -0.04,0.1 -0.1,0.1 -0.05,0 -0.1,-0.05 -0.1,-0.1 0,-0.06 0.05,-0.1 0.1,-0.1z"/>
    <path class="fil3" d="M0.83 0.92c0.06,0 0.1,0.04 0.1,0.1 0,0.05 -0.04,0.1 -0.1,0.1 -0.05,0 -0.1,-0.05 -0.1,-0.1 0,-0.06 0.05,-0.1 0.1,-0.1z"/>
   </g>
   <circle class="fil0" cx="0.16" cy="0.56" r="0.1"/>
   <path class="fil2" d="M0.16 0.4c0.04,0 0.09,0.02 0.11,0.05 0.03,0.03 0.05,0.07 0.05,0.11 0,0.05 -0.02,0.09 -0.05,0.12 -0.02,0.03 -0.06,0.04 -0.11,0.04 -0.04,0 -0.08,-0.01 -0.11,-0.04 -0.03,-0.03 -0.05,-0.07 -0.05,-0.12 0,-0.04 0.02,-0.08 0.05,-0.11 0.03,-0.03 0.07,-0.05 0.11,-0.05zm0.03 0.14c-0.01,-0.01 -0.02,-0.02 -0.03,-0.02 -0.01,0 -0.02,0.01 -0.03,0.02 0,0 -0.01,0.01 -0.01,0.02 0,0.02 0.01,0.03 0.01,0.03 0.01,0.01 0.02,0.01 0.03,0.01 0.01,0 0.02,0 0.03,-0.01 0.01,0 0.01,-0.01 0.01,-0.03 0,-0.01 0,-0.02 -0.01,-0.02z"/>
   <circle class="fil4" cx="0.16" cy="0.56" r="0.1"/>
   <circle class="fil0" cx="1.06" cy="0.56" r="0.1"/>
   <path class="fil2" d="M1.06 0.4c0.05,0 0.09,0.02 0.12,0.05 0.03,0.03 0.04,0.07 0.04,0.11 0,0.05 -0.01,0.09 -0.04,0.12 -0.03,0.03 -0.07,0.04 -0.12,0.04 -0.04,0 -0.08,-0.01 -0.11,-0.04 -0.03,-0.03 -0.05,-0.07 -0.05,-0.12 0,-0.04 0.02,-0.08 0.05,-0.11 0.03,-0.03 0.07,-0.05 0.11,-0.05zm0.03 0.14c-0.01,-0.01 -0.02,-0.02 -0.03,-0.02 -0.01,0 -0.02,0.01 -0.03,0.02 0,0 -0.01,0.01 -0.01,0.02 0,0.02 0.01,0.03 0.01,0.03 0.01,0.01 0.02,0.01 0.03,0.01 0.01,0 0.02,0 0.03,-0.01 0.01,0 0.01,-0.01 0.01,-0.03 0,-0.01 0,-0.02 -0.01,-0.02z"/>
   <circle class="fil3" cx="1.06" cy="0.56" r="0.1"/>
   <path class="fil3" d="M0.63 0.72c0.02,-0.05 0.06,-0.09 0.11,-0.13 0.02,-0.01 0.04,-0.02 0.05,-0.03 0,0 -0.02,-0.01 -0.02,-0.01 -0.03,-0.02 -0.06,-0.04 -0.08,-0.06 -0.02,-0.02 -0.04,-0.04 -0.05,-0.05 -0.01,-0.03 -0.02,-0.04 -0.03,-0.06 -0.01,0.02 -0.02,0.04 -0.03,0.06 -0.03,0.04 -0.07,0.08 -0.12,0.11 -0.01,0 -0.02,0.01 -0.03,0.01 0.02,0.01 0.03,0.02 0.06,0.03 0.02,0.02 0.03,0.03 0.05,0.05 0.03,0.03 0.05,0.07 0.07,0.11 0.01,-0.01 0.01,-0.02 0.02,-0.03z"/>
   <path class="fil4" d="M0.3 0.5c0,0.01 0.01,0.02 0.02,0.02 0.01,0.01 0.01,0.02 0.02,0.02l-0.03 0 -0.08 0 0 0.04 0.06 0 0.05 0 -0.04 0.04c0,0.01 0.02,0.03 0.03,0.03 0.01,0 0.04,-0.03 0.05,-0.04 0,-0.01 0.01,-0.01 0.02,-0.02 0.03,-0.03 0.01,-0.03 -0.03,-0.07 0,-0.01 -0.02,-0.03 -0.03,-0.04 0,0 -0.01,-0.01 -0.01,-0.01 0,0.01 -0.02,0.03 -0.03,0.03z"/>
   <path class="fil3" d="M0.81 0.5c0,0.01 0.01,0.02 0.02,0.02 0.01,0.01 0.01,0.02 0.02,0.02l-0.03 0 -0.08 0 0 0.04 0.06 0 0.05 0 -0.04 0.04c0,0.01 0.03,0.03 0.03,0.03 0.01,0 0.04,-0.03 0.05,-0.04 0.01,-0.01 0.01,-0.01 0.02,-0.02 0.03,-0.03 0.02,-0.03 -0.02,-0.07 -0.01,-0.01 -0.03,-0.03 -0.04,-0.04 0,0 -0.01,-0.01 -0.01,-0.01 0,0.01 -0.02,0.03 -0.03,0.03z"/>
   <circle class="fil0" cx="0.39" cy="0.16" r="0.05"/>
   <circle class="fil0" cx="0.83" cy="0.16" r="0.05"/>
   <circle class="fil0" cx="1.06" cy="0.56" r="0.05"/>
   <circle class="fil0" cx="0.83" cy="1.02" r="0.05"/>
   <circle class="fil0" cx="0.39" cy="1.02" r="0.05"/>
   <circle class="fil0" cx="0.16" cy="0.56" r="0.05"/>
  </g>
 </g>
</svg>
