<?xml version="1.0" encoding="UTF-8"?>
<!DOCTYPE svg PUBLIC "-//W3C//DTD SVG 1.1//EN" "http://www.w3.org/Graphics/SVG/1.1/DTD/svg11.dtd">
<!-- Creator: CorelDRAW 2020 (64-Bit Evaluation Version) -->
<svg xmlns="http://www.w3.org/2000/svg" xml:space="preserve" width="75px" height="59px" version="1.1" style="shape-rendering:geometricPrecision; text-rendering:geometricPrecision; image-rendering:optimizeQuality; fill-rule:evenodd; clip-rule:evenodd"
viewBox="0 0 0.62 0.48"
 xmlns:xlink="http://www.w3.org/1999/xlink"
 xmlns:xodm="http://www.corel.com/coreldraw/odm/2003">
 <defs>
  <style type="text/css">
   <![CDATA[
    .fil1 {fill:none}
    .fil3 {fill:#263674}
    .fil0 {fill:#EFB30C}
    .fil2 {fill:#263674;fill-rule:nonzero}
   ]]>
  </style>
   <clipPath id="id0">
    <path d="M0.06 0.01l0.5 0c0.03,0 0.05,0.02 0.05,0.05l0 0.36c0,0.03 -0.02,0.05 -0.05,0.05l-0.5 0c-0.03,0 -0.05,-0.02 -0.05,-0.05 0,-0.13 0,-0.23 0,-0.36 0,-0.03 0.02,-0.05 0.05,-0.05z"/>
   </clipPath>
 </defs>
 <g id="Layer_x0020_1">
  <metadata id="CorelCorpID_0Corel-Layer"/>
  <g>
  </g>
  <g style="clip-path:url(#id0)">
   <g>
    <polygon class="fil0" points="0.58,0.01 0.62,0.01 0.62,0.47 0.17,0.47 "/>
   </g>
  </g>
  <path class="fil1" d="M0.06 0.01l0.5 0c0.03,0 0.05,0.02 0.05,0.05l0 0.36c0,0.03 -0.02,0.05 -0.05,0.05l-0.5 0c-0.03,0 -0.05,-0.02 -0.05,-0.05 0,-0.13 0,-0.23 0,-0.36 0,-0.03 0.02,-0.05 0.05,-0.05z"/>
  <path class="fil2" d="M0.06 0l0.5 0c0.02,0 0.04,0.01 0.05,0.02 0.01,0.01 0.01,0.02 0.01,0.04l0 0.36c0,0.02 0,0.04 -0.01,0.05 -0.01,0.01 -0.03,0.01 -0.05,0.01l-0.5 0c-0.02,0 -0.03,0 -0.04,-0.01 -0.01,-0.01 -0.02,-0.03 -0.02,-0.05l0 -0.36c0,-0.02 0.01,-0.03 0.02,-0.04 0.01,-0.01 0.02,-0.02 0.04,-0.02zm0.5 0.02l-0.5 0c-0.01,0 -0.02,0.01 -0.03,0.01 0,0.01 -0.01,0.02 -0.01,0.03l0 0.36c0,0.02 0.01,0.03 0.01,0.03 0.01,0.01 0.02,0.01 0.03,0.01l0.5 0c0.01,0 0.02,0 0.03,-0.01 0.01,0 0.01,-0.01 0.01,-0.03l0 -0.36c0,-0.01 0,-0.02 -0.01,-0.03 -0.01,0 -0.02,-0.01 -0.03,-0.01z"/>
  <rect class="fil3" y="0.2" width="0.62" height="0.09"/>
 </g>
</svg>
