<?xml version="1.0" encoding="UTF-8"?>
<!DOCTYPE svg PUBLIC "-//W3C//DTD SVG 1.1//EN" "http://www.w3.org/Graphics/SVG/1.1/DTD/svg11.dtd">
<!-- Creator: CorelDRAW 2020 (64-Bit Evaluation Version) -->
<svg xmlns="http://www.w3.org/2000/svg" xml:space="preserve" width="30px" height="33px" version="1.1" style="shape-rendering:geometricPrecision; text-rendering:geometricPrecision; image-rendering:optimizeQuality; fill-rule:evenodd; clip-rule:evenodd"
viewBox="0 0 1.22 1.35"
 xmlns:xlink="http://www.w3.org/1999/xlink"
 xmlns:xodm="http://www.corel.com/coreldraw/odm/2003">
 <defs>
  <style type="text/css">
   <![CDATA[
    .str0 {stroke:#263674;stroke-width:0.01;stroke-miterlimit:2.61313}
    .fil3 {fill:none}
    .fil1 {fill:#EFB30C}
    .fil4 {fill:white}
    .fil0 {fill:#263674;fill-rule:nonzero}
    .fil2 {fill:white;fill-opacity:0.200000}
   ]]>
  </style>
    <clipPath id="id0">
     <path d="M0.61 0.31l0.16 0.09 0.16 0.09 0 0.18 0 0.19 -0.16 0.09 -0.16 0.09 -0.16 -0.09 -0.16 -0.09 0 -0.19 0 -0.18 0.16 -0.09 0.16 -0.09z"/>
    </clipPath>
 </defs>
 <g id="Layer_x0020_1">
  <metadata id="CorelCorpID_0Corel-Layer"/>
  <g id="_2104941350720">
   <path class="fil0" d="M0.74 0.13l0.29 0.17 0.03 -0.02c0.01,0 0.02,0 0.04,0 0.03,0 0.06,0.01 0.09,0.03 0.02,0.03 0.03,0.06 0.03,0.09 0,0.03 0,0.06 -0.02,0.08 -0.01,0.01 -0.03,0.03 -0.05,0.04l0 0.29c0.02,0.01 0.04,0.03 0.05,0.04 0.02,0.02 0.02,0.05 0.02,0.08 0,0.03 -0.01,0.06 -0.03,0.09 -0.03,0.02 -0.06,0.03 -0.09,0.03l-0.04 0 -0.32 0.19c-0.01,0.03 -0.02,0.05 -0.04,0.07 -0.03,0.02 -0.06,0.04 -0.09,0.04 -0.04,0 -0.07,-0.02 -0.09,-0.04 -0.02,-0.02 -0.03,-0.04 -0.04,-0.07l-0.32 -0.19 -0.03 0c-0.04,0 -0.07,-0.01 -0.09,-0.03 -0.03,-0.03 -0.04,-0.06 -0.04,-0.09 0,-0.03 0.01,-0.05 0.02,-0.07 0.01,-0.02 0.03,-0.03 0.04,-0.05l0 -0.29c-0.01,-0.01 -0.03,-0.03 -0.04,-0.05 -0.01,-0.02 -0.02,-0.04 -0.02,-0.07 0,-0.03 0.01,-0.06 0.04,-0.09 0.02,-0.02 0.05,-0.03 0.09,-0.03 0.01,0 0.02,0 0.04,0l0.02 0.01 0.29 -0.16c0,-0.04 0.02,-0.07 0.04,-0.09 0.02,-0.03 0.05,-0.04 0.09,-0.04 0.03,0 0.07,0.01 0.09,0.04 0.02,0.02 0.04,0.05 0.04,0.09zm0.13 0.11l-0.17 -0.1 0 -0.01c0,-0.03 -0.01,-0.05 -0.02,-0.07 -0.02,-0.02 -0.04,-0.03 -0.07,-0.03 -0.03,0 -0.05,0.01 -0.07,0.03 -0.02,0.02 -0.03,0.04 -0.03,0.07l0 0.01 -0.32 0.19 -0.01 -0.01c-0.01,0 -0.01,0 -0.02,-0.01 -0.01,0 -0.02,0 -0.03,0 -0.03,0 -0.05,0.01 -0.07,0.03 -0.02,0.01 -0.03,0.04 -0.03,0.06 0,0.02 0.01,0.04 0.02,0.06 0.01,0.01 0.02,0.02 0.04,0.03l0.01 0.01 0 0.33 -0.01 0.01c-0.02,0.01 -0.03,0.02 -0.04,0.03 -0.01,0.02 -0.02,0.04 -0.02,0.06 0,0.02 0.01,0.05 0.03,0.06 0.02,0.02 0.04,0.03 0.07,0.03 0.01,0 0.02,0 0.03,0 0.12,0.06 0.24,0.13 0.35,0.2l0 0.01c0,0.02 0.02,0.04 0.03,0.06 0.02,0.02 0.04,0.03 0.07,0.03 0.02,0 0.05,-0.01 0.06,-0.03 0.02,-0.02 0.03,-0.04 0.03,-0.06l0.01 -0.01 0.35 -0.21 0.02 0.01 0.02 0c0.02,0 0.05,-0.01 0.06,-0.03 0.02,-0.01 0.03,-0.04 0.03,-0.06 0,-0.02 0,-0.04 -0.01,-0.06 -0.01,-0.01 -0.03,-0.03 -0.05,-0.03l-0.01 -0.01 0 -0.33 0.01 -0.01c0.02,0 0.04,-0.02 0.05,-0.03 0.01,-0.02 0.01,-0.04 0.01,-0.06 0,-0.02 -0.01,-0.05 -0.03,-0.06 -0.01,-0.02 -0.04,-0.03 -0.06,-0.03 -0.01,0 -0.02,0 -0.03,0 -0.01,0.01 -0.02,0.01 -0.03,0.02l-0.01 0 -0.16 -0.09zm-0.26 0.85c0.02,0 0.03,0.01 0.05,0.01 0.01,0.01 0.02,0.01 0.03,0.02l0.28 -0.16 0 -0.03c0,-0.03 0.01,-0.05 0.02,-0.07 0.01,-0.02 0.02,-0.03 0.04,-0.04l0 -0.31c-0.02,-0.01 -0.03,-0.02 -0.04,-0.04 -0.01,-0.02 -0.02,-0.04 -0.02,-0.07l0 0 -0.29 -0.17c-0.01,0.01 -0.02,0.02 -0.03,0.02 -0.01,0 -0.03,0.01 -0.04,0.01 -0.02,0 -0.03,-0.01 -0.04,-0.01 -0.01,0 -0.02,-0.01 -0.03,-0.02l-0.28 0.17 0 0c0,0.03 -0.01,0.06 -0.03,0.08 -0.01,0.01 -0.02,0.03 -0.04,0.04l0 0.29c0.02,0.01 0.03,0.03 0.04,0.05 0.02,0.02 0.03,0.04 0.03,0.07l-0.01 0.03 0.28 0.16c0.01,-0.01 0.02,-0.01 0.03,-0.02 0.01,0 0.03,-0.01 0.05,-0.01zm0.04 0.04c-0.02,0 -0.03,-0.01 -0.04,-0.01 -0.01,0 -0.03,0.01 -0.04,0.01 -0.01,0.01 -0.02,0.01 -0.03,0.02l-0.01 0.01 -0.32 -0.18 0.01 -0.04 0 -0.01c0,-0.02 0,-0.04 -0.01,-0.06 -0.01,-0.01 -0.03,-0.03 -0.04,-0.03l-0.01 -0.01 0 -0.33 0.01 -0.01c0.01,0 0.03,-0.02 0.04,-0.03 0.01,-0.02 0.01,-0.04 0.01,-0.05l0 -0.03 0.32 -0.18 0.01 0c0.01,0.01 0.02,0.02 0.03,0.02 0.01,0 0.02,0 0.03,0 0.01,0 0.02,0 0.03,0 0.01,0 0.02,-0.01 0.03,-0.02l0.01 0c0.1,0.06 0.21,0.12 0.32,0.18l0 0.03c0,0.01 0.01,0.03 0.01,0.04 0.01,0.02 0.03,0.03 0.04,0.04l0.01 0 0 0.35 -0.01 0c-0.01,0.01 -0.03,0.02 -0.04,0.04 0,0.01 -0.01,0.03 -0.01,0.05l0 0.01 0.01 0.03 -0.33 0.19 0 -0.01c-0.01,-0.01 -0.02,-0.01 -0.03,-0.02z"/>
   <circle class="fil1" cx="0.13" cy="0.41" r="0.07"/>
   <circle class="fil1" cx="0.61" cy="0.13" r="0.07"/>
   <polygon class="fil1" points="0.61,0.31 0.77,0.4 0.93,0.49 0.93,0.67 0.93,0.86 0.77,0.95 0.61,1.04 0.45,0.95 0.29,0.86 0.29,0.67 0.29,0.49 0.45,0.4 "/>
   <g style="clip-path:url(#id0)">
    <g>
     <polygon id="1" class="fil2" points="0.99,0.44 0.88,1.09 0.19,0.91 "/>
    </g>
   </g>
   <polygon class="fil3 str0" points="0.61,0.31 0.77,0.4 0.93,0.49 0.93,0.67 0.93,0.86 0.77,0.95 0.61,1.04 0.45,0.95 0.29,0.86 0.29,0.67 0.29,0.49 0.45,0.4 "/>
   <g>
    <g>
     <circle class="fil1" cx="0.13" cy="0.93" r="0.07"/>
     <circle class="fil1" cx="0.61" cy="1.23" r="0.07"/>
    </g>
    <g>
     <circle class="fil1" cx="1.1" cy="0.93" r="0.07"/>
     <circle class="fil1" cx="1.1" cy="0.41" r="0.07"/>
    </g>
   </g>
   <circle class="fil4" cx="0.47" cy="0.53" r="0.07"/>
   <circle class="fil4" cx="0.79" cy="0.71" r="0.07"/>
   <circle class="fil4" cx="0.6" cy="0.67" r="0.07"/>
   <circle class="fil4" cx="0.52" cy="0.83" r="0.07"/>
   <circle class="fil4" cx="0.7" cy="0.54" r="0.07"/>
   <path class="fil0" d="M0.64 0.67l0.11 0.02c0.01,-0.01 0.02,-0.02 0.04,-0.02 0.02,0 0.04,0.02 0.04,0.04 0,0.02 -0.02,0.04 -0.04,0.04 -0.02,0 -0.04,-0.01 -0.04,-0.04l-0.11 -0.02c-0.01,0.02 -0.03,0.02 -0.04,0.02l-0.01 0 -0.04 0.09c0,0 0.01,0.01 0.01,0.03 0,0.02 -0.02,0.04 -0.04,0.04 -0.02,0 -0.04,-0.02 -0.04,-0.04 0,-0.03 0.02,-0.04 0.04,-0.04l0 0 0.05 -0.09c-0.01,0 -0.01,-0.02 -0.01,-0.03 0,0 0,-0.01 0,-0.02l-0.07 -0.08c-0.01,0 -0.01,0 -0.02,0 -0.02,0 -0.04,-0.02 -0.04,-0.04 0,-0.02 0.02,-0.04 0.04,-0.04 0.02,0 0.04,0.02 0.04,0.04 0,0.01 0,0.02 -0.01,0.02l0.08 0.09c0.01,-0.01 0.01,-0.01 0.02,-0.01 0,0 0.01,0 0.01,0l0.05 -0.07c0,0 0,-0.01 0,-0.02 0,-0.02 0.01,-0.04 0.04,-0.04 0.02,0 0.04,0.02 0.04,0.04 0,0.02 -0.02,0.04 -0.04,0.04 -0.01,0 -0.01,0 -0.02,0l-0.05 0.07c0.01,0 0.01,0.01 0.01,0.02z"/>
  </g>
 </g>
</svg>
