<?xml version="1.0" encoding="UTF-8"?>
<!DOCTYPE svg PUBLIC "-//W3C//DTD SVG 1.1//EN" "http://www.w3.org/Graphics/SVG/1.1/DTD/svg11.dtd">
<!-- Creator: CorelDRAW 2020 (64-Bit) -->
<svg xmlns="http://www.w3.org/2000/svg" xml:space="preserve" width="200px" height="200px" version="1.1" style="shape-rendering:geometricPrecision; text-rendering:geometricPrecision; image-rendering:optimizeQuality; fill-rule:evenodd; clip-rule:evenodd"
viewBox="0 0 5.74 5.74"
 xmlns:xlink="http://www.w3.org/1999/xlink"
 xmlns:xodm="http://www.corel.com/coreldraw/odm/2003">
 <defs>
  <style type="text/css">
   <![CDATA[
    .fil0 {fill:#FEC00F}
    .fil3 {fill:white}
    .fil2 {fill:#76808F;fill-rule:nonzero}
    .fil1 {fill:#FEC00F;fill-rule:nonzero}
   ]]>
  </style>
 </defs>
 <g id="Layer_x0020_1">
  <metadata id="CorelCorpID_0Corel-Layer"/>
  <g id="_2005831008000">
   <path class="fil0" d="M1.03 0.3l2.17 0 0.94 0.84 -2.59 0c-0.39,0 -0.71,0.32 -0.71,0.71l0 2.34c0,0.39 0.32,0.71 0.71,0.71l2.34 0c0.39,0 0.71,-0.32 0.71,-0.71l0 -0.22 0.84 0 0 0.74c0,0.57 -0.46,1.03 -1.03,1.03l-3.38 0c-0.57,0 -1.03,-0.46 -1.03,-1.03l0 -3.38c0,-0.56 0.46,-1.03 1.03,-1.03z"/>
   <g>
    <polygon class="fil1" points="3.84,3.36 3.02,3.84 2.19,4.31 2.19,2.41 3.02,2.89 "/>
    <path class="fil2" d="M2.02 2.07l0 1.57 1.35 -0.79 -1.35 -0.78zm-0.2 1.91l0 -2.25 1.94 1.12 -1.94 1.13z"/>
   </g>
   <g>
    <polygon class="fil2" points="3.46,0.28 4.89,0.28 4.9,1.6 "/>
    <g>
     <circle class="fil3" cx="4.49" cy="0.79" r="0.21"/>
     <circle class="fil3" cx="4.69" cy="0.5" r="0.09"/>
    </g>
    <g>
     <path class="fil2" d="M5.14 0.5c-0.04,0.03 -0.09,0.02 -0.13,-0.01 -0.03,-0.04 -0.02,-0.1 0.01,-0.13l0.4 -0.34c0.04,-0.03 0.1,-0.03 0.13,0.01 0.03,0.04 0.03,0.1 -0.01,0.13l-0.4 0.34z"/>
     <path class="fil2" d="M5.15 0.88c-0.05,0 -0.09,-0.04 -0.09,-0.1 0,-0.05 0.04,-0.09 0.09,-0.09l0.5 0c0.05,0 0.09,0.04 0.09,0.09 0,0.06 -0.04,0.1 -0.09,0.1l-0.5 0z"/>
     <path class="fil2" d="M5.02 1.19c-0.03,-0.03 -0.04,-0.09 -0.01,-0.12 0.04,-0.04 0.09,-0.05 0.13,-0.01l0.44 0.37c0.04,0.03 0.04,0.09 0.01,0.12 -0.03,0.04 -0.09,0.05 -0.13,0.01l-0.44 -0.37z"/>
    </g>
   </g>
  </g>
 </g>
</svg>
