<?xml version="1.0" encoding="UTF-8"?>
<!DOCTYPE svg PUBLIC "-//W3C//DTD SVG 1.1//EN" "http://www.w3.org/Graphics/SVG/1.1/DTD/svg11.dtd">
<!-- Creator: CorelDRAW 2020 (64-Bit Evaluation Version) -->
<svg xmlns="http://www.w3.org/2000/svg" xml:space="preserve" width="30px" height="17px" version="1.1" style="shape-rendering:geometricPrecision; text-rendering:geometricPrecision; image-rendering:optimizeQuality; fill-rule:evenodd; clip-rule:evenodd"
viewBox="0 0 1.16 0.66"
 xmlns:xlink="http://www.w3.org/1999/xlink"
 xmlns:xodm="http://www.corel.com/coreldraw/odm/2003">
 <defs>
  <style type="text/css">
   <![CDATA[
    .fil0 {fill:#EFB30C}
    .fil2 {fill:#24407C;fill-rule:nonzero}
    .fil1 {fill:#263674;fill-rule:nonzero}
    .fil3 {fill:#EFB30C;fill-rule:nonzero}
   ]]>
  </style>
 </defs>
 <g id="Layer_x0020_1">
  <metadata id="CorelCorpID_0Corel-Layer"/>
  <g id="_2104828933728">
   <circle class="fil0" cx="0.25" cy="0.33" r="0.25"/>
   <g>
    <path class="fil1" d="M0.84 0.64l-0.32 0c-0.16,0 -0.3,-0.14 -0.3,-0.31 0,-0.16 0.14,-0.3 0.3,-0.3l0.08 0c0.01,0 0.01,0.01 0.01,0.01 0,0.01 0,0.02 -0.01,0.02l-0.08 0c-0.15,0 -0.27,0.12 -0.27,0.27 0,0.16 0.12,0.28 0.27,0.28l0.32 0c0.15,0 0.27,-0.12 0.27,-0.28 0,-0.11 -0.07,-0.22 -0.18,-0.26 -0.01,0 -0.01,-0.01 -0.01,-0.01 0,-0.01 0.01,-0.02 0.02,-0.01 0.12,0.04 0.2,0.16 0.2,0.28 0,0.17 -0.13,0.31 -0.3,0.31z"/>
    <path class="fil2" d="M0.82 0.05c0,0 0,0 -0.01,0 -0.01,0 -0.03,0 -0.04,0l-0.04 0c-0.01,0 -0.02,-0.01 -0.02,-0.01 0,-0.01 0.01,-0.02 0.02,-0.02l0.04 0c0.02,0 0.03,0 0.05,0.01 0.01,0 0.01,0 0.01,0.01 0,0.01 -0.01,0.01 -0.01,0.01z"/>
    <path class="fil1" d="M0.82 0.08c-0.03,0 -0.06,-0.01 -0.09,-0.01 -0.01,0 -0.02,0 -0.03,-0.01 0,0 -0.01,-0.01 -0.01,-0.02 0,-0.01 0.01,-0.02 0.01,-0.03 0.01,-0.01 0.02,-0.01 0.03,-0.01l0.04 0c0.02,0 0.03,0 0.05,0 0.01,0.01 0.02,0.01 0.03,0.02 0,0.01 0,0.02 0,0.03 0,0 0,0.01 -0.01,0.02 -0.01,0 -0.01,0.01 -0.02,0.01z"/>
    <g>
     <polygon class="fil3" points="0.92,0.38 0.77,0.47 0.62,0.56 0.62,0.21 0.77,0.3 "/>
     <path class="fil1" d="M0.84 0.66l-0.32 0c-0.09,0 -0.17,-0.03 -0.23,-0.09 -0.06,-0.06 -0.09,-0.14 -0.09,-0.24 0,-0.09 0.03,-0.17 0.09,-0.23 0.06,-0.06 0.14,-0.09 0.23,-0.09l0.08 0c0.01,0 0.02,0 0.03,0.01 0,0 0.01,0.01 0.01,0.02 0,0.01 -0.01,0.02 -0.01,0.03 -0.01,0.01 -0.02,0.01 -0.03,0.01l-0.08 0c-0.07,0 -0.13,0.03 -0.18,0.07 -0.04,0.05 -0.07,0.11 -0.07,0.18 0,0.08 0.03,0.14 0.07,0.18 0.05,0.05 0.11,0.08 0.18,0.08l0.32 0c0.07,0 0.13,-0.03 0.18,-0.08 0.04,-0.04 0.07,-0.1 0.07,-0.18 0,-0.05 -0.02,-0.1 -0.05,-0.14 -0.03,-0.04 -0.07,-0.08 -0.12,-0.1 -0.01,0 -0.02,-0.01 -0.02,-0.01 0,-0.01 0,-0.02 0,-0.03 0,-0.01 0.01,-0.02 0.02,-0.02 0.01,-0.01 0.02,-0.01 0.03,0 0.06,0.02 0.12,0.06 0.15,0.12 0.04,0.05 0.06,0.12 0.06,0.18 0,0.1 -0.03,0.18 -0.09,0.24 -0.06,0.06 -0.14,0.09 -0.23,0.09z"/>
     <path class="fil2" d="M0.57 0.2l0 0.24 0.2 -0.12 -0.2 -0.12zm-0.03 0.29l0 -0.34 0.29 0.17 -0.29 0.17z"/>
     <path class="fil1" d="M0.59 0.23l0 0.18 0.15 -0.09 -0.15 -0.09zm-0.07 0.26l0 -0.37 0.35 0.2 -0.35 0.2 0 -0.03z"/>
    </g>
   </g>
  </g>
 </g>
</svg>
