<?xml version="1.0" encoding="UTF-8"?>
<!DOCTYPE svg PUBLIC "-//W3C//DTD SVG 1.1//EN" "http://www.w3.org/Graphics/SVG/1.1/DTD/svg11.dtd">
<!-- Creator: CorelDRAW 2020 (64-Bit Evaluation Version) -->
<svg xmlns="http://www.w3.org/2000/svg" xml:space="preserve" width="50px" height="50px" version="1.1" style="shape-rendering:geometricPrecision; text-rendering:geometricPrecision; image-rendering:optimizeQuality; fill-rule:evenodd; clip-rule:evenodd"
viewBox="0 0 428.65 428.65"
 xmlns:xlink="http://www.w3.org/1999/xlink"
 xmlns:xodm="http://www.corel.com/coreldraw/odm/2003">
 <defs>
  <style type="text/css">
   <![CDATA[
    .fil2 {fill:#263674}
    .fil0 {fill:#EFB30C}
    .fil1 {fill:white}
   ]]>
  </style>
 </defs>
 <g id="Layer_x0020_1">
  <metadata id="CorelCorpID_0Corel-Layer"/>
  <g id="_2645887874016">
   <circle class="fil0" cx="214.33" cy="214.33" r="214.33"/>
   <circle class="fil1" cx="214.33" cy="214.33" r="181.16"/>
   <path class="fil2" d="M165.17 116.76c-26.96,0 -51.98,0 -51.98,0l0 27.44c0,0 11.11,0 15.28,0 4.16,0 11.57,0.47 14.71,3.98 3.15,3.52 3.71,5.37 3.71,12.22 0,6.85 0,106.76 0,109.35 0,2.59 -0.49,5.81 -2.71,7.92 -2.22,2.08 -4.44,2.57 -9.74,2.57 -5.33,0 -15.81,0 -15.81,0l-5.44 31.75c0,0 25.83,0 51.98,0l0 42.21 26.43 0 0 -42.21c8.12,0 15.18,0 20.13,0l0 42.21 26.43 0 0 -42.91c6.83,-0.39 13.19,-0.92 16.9,-1.41 7.54,-0.97 24.57,-2.96 40.52,-14.07 15.9,-11.11 19.49,-28.53 19.86,-46.05 0.37,-17.55 -6.3,-29.51 -15.3,-36.31 -9.03,-6.78 -21.87,-9.52 -21.87,-9.52 0,0 10.88,-6.29 15.3,-12.59 4.46,-6.29 6.68,-16.03 7.06,-21.1 0.37,-5.07 1.22,-26.31 -15.33,-38.53 -12.79,-9.45 -27.47,-13.22 -47.16,-14.45l0 -42.83 -26.43 0 0 42.35c-5.9,0 -12.77,0 -20.11,0l0 -42.35 -26.43 0 0 42.33zm26.43 80.88l0 -50.98c0,0 8.4,-0.74 16.66,-0.63 8.29,0.12 15.55,0.37 26.43,3.7 10.88,3.34 17.29,11.48 17.54,21.11 0.23,9.65 -3.95,16.06 -11.36,20.13 -7.41,4.08 -17.66,6.3 -27.29,6.67 -9.65,0.37 -21.98,0 -21.98,0zm29.88 26.31c13.1,0.86 24.09,4.19 29.02,6.67 4.93,2.47 13.58,7.89 13.58,20.85 0,12.98 -7.29,18.17 -13.33,21.5 -6.06,3.33 -18.16,6.29 -29.88,7.15 -11.73,0.88 -29.27,0.49 -29.27,0.49l0 -56.66c0,0 16.8,-0.88 29.88,0z"/>
  </g>
 </g>
</svg>
