<svg xmlns="http://www.w3.org/2000/svg" viewBox="0 0 100 100"><defs><style>.cls-1{fill:#263674;}.cls-2{fill:#efb30c;fill-rule:evenodd;}</style></defs><g id="Layer_2" data-name="Layer 2"><g id="Layer_1-2" data-name="Layer 1"><rect class="cls-1" x="65.2" y="71.99" width="9.94" height="9.94"/><rect class="cls-1" x="65.2" y="54.77" width="9.94" height="9.94"/><rect class="cls-1" x="65.2" y="37.55" width="9.94" height="9.94"/><polygon class="cls-1" points="95.03 90.06 95.03 21.3 70.65 21.3 70.65 31.25 85.08 31.25 85.08 90.06 56.92 90.06 56.92 100 100 100 100 90.06 95.03 90.06"/><g id="icon"><path id="Combined-Shape" class="cls-2" d="M61.11,100H0V88.89H5.56V0H61.11V88.89M50,11.11H16.67V88.89H27.78V72.22H38.89V88.89H50ZM38.89,44.44V55.56H27.78V44.44Zm0-22.22V33.33H27.78V22.22Z"/></g></g></g></svg>