<svg xmlns="http://www.w3.org/2000/svg" viewBox="0 0 100 136.26"><defs><style>.cls-1{fill:#efb30c;}.cls-2{fill:#263674;}</style></defs><g id="Layer_2" data-name="Layer 2"><g id="Layer_1-2" data-name="Layer 1"><path class="cls-1" d="M99.08,91.65C97.4,83.58,93.5,76.53,88.69,70,82.86,62,75.86,55,68.76,48.21c-.86-.83-1.66-1.74-2.62-2.76h2a4.54,4.54,0,1,0,0-9.07c-2.11-.06-4.22,0-6.52,0,.28-.6.47-1,.67-1.43,2.54-5,5.11-9.92,7.6-14.9A13.61,13.61,0,0,0,57.55,0c-5,0-9.94,0-14.91,0-11,0-17.4,10.51-12.44,20.31,2.46,4.84,4.95,9.67,7.42,14.51.22.45.41.91.68,1.53H34.89c-1.09,0-2.18,0-3.27,0a4.53,4.53,0,0,0,.2,9.06h1.75c-1.39,1.51-2.69,3.06-4.13,4.47-7,6.89-14,13.89-19.58,22C2.7,82.33-1.4,93.53.44,106.37c1.17,8.16,4.31,15.26,10.92,20.49A39.27,39.27,0,0,0,27.26,134c8.82,2,17.79,2.42,26.8,2.17,8-.22,16-1,23.61-3.57,9.52-3.2,16.7-9,20.06-18.72A41.48,41.48,0,0,0,99.08,91.65Z"/><path class="cls-2" d="M54.45,63.61h4.18c2.88,0,4.9,1.92,4.88,4.57s-2,4.5-4.94,4.51c-4.21,0-8.42,0-12.63,0-3,0-5.1,1.85-5.12,4.51s2.08,4.53,5.06,4.58a104.18,104.18,0,0,1,11,.31c6.31.8,11.06,6.64,11.13,13.13a13.6,13.6,0,0,1-10.91,13.53c-.84.15-1.68.24-2.7.38,0,1.39,0,2.8,0,4.21a4.54,4.54,0,1,1-9.07.1c-.05-1.41,0-2.83,0-4.41h-3.9c-3.1,0-5.22-1.88-5.2-4.58s2.12-4.5,5.27-4.5H53.89c3,0,5.07-1.82,5.08-4.52s-2-4.53-5-4.57c-3.55,0-7.14.22-10.62-.25A13.38,13.38,0,0,1,31.74,76.84a13.7,13.7,0,0,1,12.63-13.2l1-.08c0-1.54-.06-3,0-4.54a4.55,4.55,0,0,1,4.13-4.48,4.49,4.49,0,0,1,4.78,3.39,24.22,24.22,0,0,1,.15,3.82C54.47,62.31,54.45,62.87,54.45,63.61Z"/></g></g></svg>