<?xml version="1.0" encoding="UTF-8"?>
<!DOCTYPE svg PUBLIC "-//W3C//DTD SVG 1.1//EN" "http://www.w3.org/Graphics/SVG/1.1/DTD/svg11.dtd">
<!-- Creator: CorelDRAW 2020 (64-Bit Evaluation Version) -->
<svg xmlns="http://www.w3.org/2000/svg" xml:space="preserve" width="60px" height="60px" version="1.1" style="shape-rendering:geometricPrecision; text-rendering:geometricPrecision; image-rendering:optimizeQuality; fill-rule:evenodd; clip-rule:evenodd"
viewBox="0 0 9.73 9.73"
 xmlns:xlink="http://www.w3.org/1999/xlink"
 xmlns:xodm="http://www.corel.com/coreldraw/odm/2003">
 <defs>
  <style type="text/css">
   <![CDATA[
    .fil2 {fill:#263674}
    .fil0 {fill:#FEC00F}
    .fil1 {fill:#263674;fill-rule:nonzero}
   ]]>
  </style>
 </defs>
 <g id="Layer_x0020_1">
  <metadata id="CorelCorpID_0Corel-Layer"/>
  <g id="_2326833722944">
   <polygon class="fil0" points="1.86,7.05 2.35,5.73 0.72,3.74 0.32,3.74 0.32,7.92 1.31,7.92 1.3,9.42 3.61,7.92 4.14,7.92 3.06,6.61 2.69,6.61 2.53,7.05 "/>
   <path class="fil0" d="M3.36 0.43l-0.01 -0.01 0 3.32 2.55 0 0 1.08 3.52 0 0 0c-3.25,-2.36 -1.05,-0.76 -6.06,-4.39z"/>
   <path class="fil1" d="M0.32 3.43l5.58 0c0.18,0 0.32,0.14 0.32,0.31l0 4.18c0,0.17 -0.14,0.31 -0.32,0.31 -0.01,0 -0.02,0 -0.02,0l-2.18 0 -2.23 1.45c-0.14,0.1 -0.34,0.06 -0.43,-0.09 -0.04,-0.06 -0.06,-0.12 -0.05,-0.18l0.01 -1.18 -0.68 0c-0.18,0 -0.32,-0.14 -0.32,-0.31l0 0 0 -4.18c0,-0.17 0.14,-0.31 0.32,-0.31zm5.27 0.63l-4.96 0 0 3.55 0.69 0c0.17,0 0.31,0.14 0.31,0.31l-0.01 0.92 1.82 -1.18 0 0c0.05,-0.04 0.11,-0.05 0.17,-0.05l1.98 0 0 -3.55z"/>
   <path class="fil1" d="M3.68 2.14c0,0.17 -0.14,0.32 -0.32,0.32 -0.17,0 -0.31,-0.15 -0.31,-0.32l0 -1.82c0,-0.18 0.14,-0.32 0.31,-0.32l6.06 0c0.17,0 0.31,0.14 0.31,0.32l0 4.52c0,0.17 -0.14,0.32 -0.31,0.32 -0.01,0 -0.02,-0.01 -0.03,-0.01l-1.71 0c-0.17,0 -0.31,-0.14 -0.31,-0.31 0,-0.17 0.14,-0.31 0.31,-0.31l1.42 0 0 -3.9 -5.42 0 0 1.51z"/>
   <path class="fil2" d="M7.98 3.39c0.37,-0.37 0.56,-0.89 0.54,-1.41l-0.02 -0.24 -0.82 0 0 -0.49 -0.49 0 0 0.49 -0.74 0 0 0.49 1.48 0c-0.02,0.37 -0.2,0.69 -0.47,0.91 -0.17,-0.15 -0.32,-0.32 -0.39,-0.54l-0.52 0c0.08,0.29 0.22,0.56 0.44,0.79 -0.17,0.04 -0.34,0.07 -0.51,0.07l0.02 0.49c0.35,-0.02 0.69,-0.1 0.99,-0.24 0.29,0.14 0.64,0.24 0.96,0.24l0 -0.49c-0.15,0 -0.3,-0.03 -0.47,-0.07z"/>
   <path class="fil2" d="M4.36 7.05l-0.92 -2.47 -0.66 0 -0.92 2.47 0.67 0 0.16 -0.44 0.86 0 0.14 0.44 0.67 0zm-0.97 -0.92l-0.56 0 0.28 -0.86 0.28 0.86z"/>
  </g>
 </g>
</svg>
