<?xml version="1.0" encoding="UTF-8"?>
<!DOCTYPE svg PUBLIC "-//W3C//DTD SVG 1.1//EN" "http://www.w3.org/Graphics/SVG/1.1/DTD/svg11.dtd">
<!-- Creator: CorelDRAW 2020 (64-Bit Evaluation Version) -->
<svg xmlns="http://www.w3.org/2000/svg" xml:space="preserve" width="50px" height="46px" version="1.1" style="shape-rendering:geometricPrecision; text-rendering:geometricPrecision; image-rendering:optimizeQuality; fill-rule:evenodd; clip-rule:evenodd"
viewBox="0 0 431.26 400.46"
 xmlns:xlink="http://www.w3.org/1999/xlink"
 xmlns:xodm="http://www.corel.com/coreldraw/odm/2003">
 <defs>
  <style type="text/css">
   <![CDATA[
    .fil1 {fill:#263674;fill-rule:nonzero}
    .fil0 {fill:#EFB30C;fill-rule:nonzero}
   ]]>
  </style>
 </defs>
 <g id="Layer_x0020_1">
  <metadata id="CorelCorpID_0Corel-Layer"/>
  <g id="_2645877209904">
   <path class="fil0" d="M318.64 123.22l-112.63 277.24 45.47 0 23.58 -55.83 87.15 0 23.58 55.83 45.47 0 -112.62 -277.24zm-25.7 179.05l25.7 -79.08 25.69 79.08 -51.39 0z"/>
   <path class="fil1" d="M231.03 261.84c-0.24,-0.18 -19.82,-15.18 -43.72,-41.08 38.1,-51.63 59.69,-110.33 68.49,-137.97l52.25 0 0 -42.36 -132.85 0 0 -40.43 -42.36 0 0 40.43 -132.84 0 0 42.36 211.06 0c-9.16,25.94 -26.04,66.9 -51.78,104.31 -31.46,-41.82 -45.38,-73.05 -45.56,-73.37l-6.87 -13.62 -36.58 21.18 6.62 13.34c0.85,1.51 16.54,36.49 52.66,83.34 0.89,1.17 1.78,2.3 2.68,3.44 -47.86,54.73 -85.82,76.13 -86.31,76.5l-15.12 10.14 22.15 34.65 18.57 -11.04c2.12,-1.61 39.79,-23.1 88.57,-77.76 23.6,25.3 41.6,39.3 42.64,40.11l11.94 8.26 16.36 -40.43z"/>
  </g>
 </g>
</svg>
