<?xml version="1.0" encoding="UTF-8"?>
<!DOCTYPE svg PUBLIC "-//W3C//DTD SVG 1.1//EN" "http://www.w3.org/Graphics/SVG/1.1/DTD/svg11.dtd">
<!-- Creator: CorelDRAW 2020 (64-Bit Evaluation Version) -->
<svg xmlns="http://www.w3.org/2000/svg" xml:space="preserve" width="60px" height="60px" version="1.1" style="shape-rendering:geometricPrecision; text-rendering:geometricPrecision; image-rendering:optimizeQuality; fill-rule:evenodd; clip-rule:evenodd"
viewBox="0 0 6.53 6.53"
 xmlns:xlink="http://www.w3.org/1999/xlink"
 xmlns:xodm="http://www.corel.com/coreldraw/odm/2003">
 <defs>
  <style type="text/css">
   <![CDATA[
    .str0 {stroke:#263674;stroke-width:0.53;stroke-linecap:round;stroke-linejoin:round;stroke-miterlimit:2.61313}
    .fil1 {fill:none}
    .fil0 {fill:#FEC00F}
    .fil2 {fill:#263674;fill-rule:nonzero}
   ]]>
  </style>
 </defs>
 <g id="Layer_x0020_1">
  <metadata id="CorelCorpID_0Corel-Layer"/>
  <path class="fil0" d="M5.36 5.41l-4.24 -4.24c-0.53,0.54 -0.85,1.28 -0.85,2.1 0,1.65 1.34,2.99 3,2.99 0.8,0 1.54,-0.32 2.09,-0.85z"/>
  <path class="fil1 str0" d="M5.28 5.48c-0.55,0.51 -1.27,0.78 -2.01,0.78 -1.66,0 -3,-1.34 -3,-2.99 0,-1.66 1.34,-3 3,-3 1.07,0 2.07,0.58 2.6,1.51"/>
  <path class="fil1 str0" d="M6.24 2.89c0.02,0.13 0.02,0.25 0.02,0.38 0,0.28 -0.04,0.57 -0.12,0.84"/>
  <path class="fil2" d="M4.51 2.56l0 0.28 0 0.01c0,0.05 -0.04,0.08 -0.09,0.08 0,0 0,0 0,0l0 0 -0.46 0c-0.04,0.26 -0.17,0.49 -0.36,0.65l0 0c-0.21,0.17 -0.47,0.28 -0.76,0.31l-0.01 0c0.31,0.32 0.74,0.82 1.27,1.48 0.02,0.01 0.03,0.03 0.03,0.05 0,0.02 -0.01,0.03 -0.02,0.04l0 0c-0.01,0.03 -0.04,0.05 -0.07,0.05 0,0 0,0 -0.01,0l0.01 0 -0.54 0c-0.01,0 -0.01,0 -0.01,0 -0.02,0 -0.05,-0.01 -0.06,-0.03l0 0c-0.57,-0.68 -1.03,-1.2 -1.38,-1.58 -0.02,-0.01 -0.03,-0.04 -0.03,-0.06 0,0 0,0 0,0l0 0 0 -0.35c0,-0.05 0.04,-0.09 0.09,-0.09l0.31 0c0.02,0 0.04,0 0.05,0 0.2,0 0.38,-0.04 0.55,-0.12l-0.01 0c0.14,-0.07 0.24,-0.19 0.28,-0.34l0 -0.01 -1.18 0c0,0 0,0 0,0 -0.05,0 -0.09,-0.03 -0.09,-0.08 0,0 0,0 0,-0.01l0 0 0 -0.28c0,0 0,0 0,0 0,-0.05 0.04,-0.09 0.09,-0.09l0 0 0 0 1.14 0c-0.1,-0.2 -0.35,-0.31 -0.74,-0.31l-0.4 0c-0.05,0 -0.09,-0.04 -0.09,-0.09l0 -0.37c0,0 0,0 0,0 0,-0.05 0.04,-0.08 0.09,-0.08l0 0 0 0 2.3 0 0.01 0c0.04,0 0.08,0.03 0.08,0.08l0 0 0 0 0 0.29 0 0c0,0.05 -0.04,0.09 -0.08,0.09 0,0 0,0 -0.01,0l0 0 -0.64 0c0.08,0.11 0.15,0.24 0.18,0.39l0 0 0.47 0 0 0c0.05,0 0.09,0.04 0.09,0.09l0 0 0 0 0 0z"/>
 </g>
</svg>
