<?xml version="1.0" encoding="UTF-8"?>
<!DOCTYPE svg PUBLIC "-//W3C//DTD SVG 1.1//EN" "http://www.w3.org/Graphics/SVG/1.1/DTD/svg11.dtd">
<!-- Creator: CorelDRAW 2020 (64-Bit Evaluation Version) -->
<svg xmlns="http://www.w3.org/2000/svg" xml:space="preserve" width="50px" height="58px" version="1.1" style="shape-rendering:geometricPrecision; text-rendering:geometricPrecision; image-rendering:optimizeQuality; fill-rule:evenodd; clip-rule:evenodd"
viewBox="0 0 130.23 150.38"
 xmlns:xlink="http://www.w3.org/1999/xlink"
 xmlns:xodm="http://www.corel.com/coreldraw/odm/2003">
 <defs>
  <style type="text/css">
   <![CDATA[
    .str0 {stroke:#263674;stroke-width:0.02;stroke-miterlimit:2.61313}
    .fil2 {fill:#263674}
    .fil3 {fill:#EFB30C}
    .fil0 {fill:white}
    .fil1 {fill:#263674;fill-rule:nonzero}
   ]]>
  </style>
 </defs>
 <g id="Layer_x0020_1">
  <metadata id="CorelCorpID_0Corel-Layer"/>
  <g id="_2646149489328">
   <polygon class="fil0" points="65.12,16.14 90.69,30.91 116.25,45.66 116.25,75.19 116.25,104.72 90.69,119.47 65.12,134.24 39.54,119.47 13.98,104.72 13.98,75.19 13.98,45.66 39.54,30.91 "/>
   <path class="fil1 str0" d="M33.46 56.34l11.56 24.61 0 -24.77c0,-1.15 0.24,-2.01 0.73,-2.58 0.49,-0.57 1.16,-0.86 1.99,-0.86 0.86,0 1.55,0.29 2.04,0.85 0.49,0.57 0.75,1.46 0.75,2.59l0 37.55c0,2.59 -1.07,3.9 -3.23,3.9 -0.54,0 -1.03,-0.08 -1.46,-0.23 -0.43,-0.15 -0.84,-0.41 -1.21,-0.73 -0.37,-0.34 -0.73,-0.74 -1.05,-1.19 -0.32,-0.45 -0.75,-0.87 -0.98,-1.38l-11.27 -24.39 0 24.48c0,1.13 -0.26,2 -0.79,2.57 -0.52,0.58 -1.2,0.87 -2.03,0.87 -0.85,0 -1.53,-0.29 -2.04,-0.88 -0.52,-0.58 -0.78,-1.44 -0.78,-2.56l0 -37.1c0,-0.98 0.11,-1.74 0.33,-2.28 0.24,-0.61 0.68,-1.12 1.28,-1.5 0.58,-0.38 1.23,-0.57 1.91,-0.57 0.55,0 1.01,0.08 1.4,0.26 0.38,0.18 0.72,0.41 1.01,0.71 0.29,0.3 0.59,0.68 0.89,1.15 0.3,0.47 0.69,0.94 0.95,1.48zm41.4 1.54l-11.86 0 0 14.7 9.91 0c0.92,0 1.6,0.2 2.05,0.61 0.45,0.42 0.68,0.96 0.68,1.65 0,0.69 -0.23,1.24 -0.68,1.64 -0.47,0.41 -1.15,0.61 -2.05,0.61l-9.91 0 0 16.88c0,1.24 -0.29,2.16 -0.84,2.77 -0.55,0.59 -1.28,0.89 -2.15,0.89 -0.89,0 -1.62,-0.3 -2.18,-0.91 -0.55,-0.6 -0.84,-1.52 -0.84,-2.75l0 -37.05c0,-0.86 0.14,-1.58 0.39,-2.11 0.25,-0.54 0.67,-0.96 1.21,-1.2 0.54,-0.25 1.24,-0.37 2.08,-0.37l14.19 0c0.95,0 1.67,0.21 2.13,0.63 0.46,0.42 0.69,0.99 0.69,1.68 0,0.7 -0.23,1.27 -0.69,1.69 -0.46,0.42 -1.18,0.64 -2.13,0.64zm26.6 0.33l-6.56 0 0 35.76c0,1.23 -0.29,2.17 -0.83,2.77 -0.55,0.59 -1.27,0.89 -2.16,0.89 -0.89,0 -1.63,-0.31 -2.18,-0.91 -0.55,-0.6 -0.84,-1.52 -0.84,-2.75l0 -35.76 -6.56 0c-1.02,0 -1.8,-0.23 -2.29,-0.68 -0.5,-0.44 -0.75,-1.05 -0.75,-1.8 0,-0.77 0.26,-1.39 0.78,-1.83 0.52,-0.44 1.27,-0.66 2.26,-0.66l19.13 0c1.04,0 1.81,0.22 2.32,0.69 0.5,0.45 0.76,1.06 0.76,1.8 0,0.75 -0.26,1.36 -0.78,1.8 -0.5,0.45 -1.28,0.68 -2.3,0.68z"/>
   <polygon class="fil2" points="13.98,45.66 39.55,30.91 65.12,16.14 90.69,30.91 104.06,38.63 116.6,29.73 97.68,18.8 65.12,0 32.55,18.8 0,37.59 0,75.19 0,112.46 13.98,102.54 13.98,75.19 "/>
   <polygon class="fil3" points="90.69,119.47 65.12,134.24 39.55,119.47 26.17,111.75 13.63,120.65 32.55,131.58 65.12,150.38 97.68,131.58 130.23,112.79 130.23,75.19 130.23,37.92 116.25,47.84 116.25,75.19 116.25,104.72 "/>
  </g>
 </g>
</svg>
