<?xml version="1.0" encoding="UTF-8"?>
<!DOCTYPE svg PUBLIC "-//W3C//DTD SVG 1.1//EN" "http://www.w3.org/Graphics/SVG/1.1/DTD/svg11.dtd">
<!-- Creator: CorelDRAW 2020 (64-Bit Evaluation Version) -->
<svg xmlns="http://www.w3.org/2000/svg" xml:space="preserve" width="50px" height="50px" version="1.1" style="shape-rendering:geometricPrecision; text-rendering:geometricPrecision; image-rendering:optimizeQuality; fill-rule:evenodd; clip-rule:evenodd"
viewBox="0 0 2640.31 2662.35"
 xmlns:xlink="http://www.w3.org/1999/xlink"
 xmlns:xodm="http://www.corel.com/coreldraw/odm/2003">
 <defs>
  <style type="text/css">
   <![CDATA[
    .fil0 {fill:#263674;fill-rule:nonzero}
    .fil1 {fill:#EFB30C;fill-rule:nonzero}
   ]]>
  </style>
 </defs>
 <g id="Layer_x0020_1">
  <metadata id="CorelCorpID_0Corel-Layer"/>
  <g id="_2646141014992">
   <path class="fil0" d="M2524.55 1686.67l-2495.79 0c-16,0 -28.76,12.76 -28.76,28.53l0 215.51 1.86 9.04 -1.4 -3.94 0 158.9 1679.95 0 0 0c65.88,0 102.53,75.62 61.93,127.12l-347.26 440.52 309.22 0 260.04 0c17.63,0 34.1,-8.12 45.24,-22.04l605.44 -767.83c59.39,-75.39 5.8,-185.81 -90.47,-185.81l0 0zm-2506.46 270.25c3.25,1.39 6.73,2.32 10.67,2.32 -3.94,0 -7.65,-0.93 -10.67,-2.32z"/>
   <path class="fil1" d="M115.75 975.68l2495.79 0c16.01,0 28.77,-12.76 28.77,-28.54l0 -215.5 -1.86 -9.04 1.39 3.94 0 -158.9 -1679.94 0 0 0c-65.88,0 -102.53,-75.63 -61.94,-127.12l347.27 -440.52 -309.22 0 -260.04 0c-17.63,0 -34.1,8.12 -45.24,22.04l-605.44 767.83c-59.39,75.39 -5.81,185.81 90.46,185.81l0 0zm2506.46 -270.25c-3.24,-1.39 -6.72,-2.32 -10.67,-2.32 3.95,0 7.66,0.93 10.67,2.32z"/>
  </g>
 </g>
</svg>
