<?xml version="1.0" encoding="UTF-8"?>
<!DOCTYPE svg PUBLIC "-//W3C//DTD SVG 1.1//EN" "http://www.w3.org/Graphics/SVG/1.1/DTD/svg11.dtd">
<!-- Creator: CorelDRAW 2020 (64-Bit Evaluation Version) -->
<svg xmlns="http://www.w3.org/2000/svg" xml:space="preserve" width="339px" height="339px" version="1.1" style="shape-rendering:geometricPrecision; text-rendering:geometricPrecision; image-rendering:optimizeQuality; fill-rule:evenodd; clip-rule:evenodd"
viewBox="0 0 26.43 26.47"
 xmlns:xlink="http://www.w3.org/1999/xlink"
 xmlns:xodm="http://www.corel.com/coreldraw/odm/2003">
 <defs>
  <style type="text/css">
   <![CDATA[
    .fil0 {fill:#EFB30C;fill-rule:nonzero}
    .fil1 {fill:white;fill-rule:nonzero}
   ]]>
  </style>
 </defs>
 <g id="Layer_x0020_1">
  <metadata id="CorelCorpID_0Corel-Layer"/>
  <path class="fil0" d="M13.21 0c7.3,0 13.22,5.93 13.22,13.23 0,7.31 -5.92,13.24 -13.22,13.24 -7.29,0 -13.21,-5.93 -13.21,-13.24 0,-7.3 5.92,-13.23 13.21,-13.23z"/>
  <path class="fil1" d="M15.69 16.54l-4.94 0c-0.46,0 -0.83,-0.38 -0.83,-0.83 0,-0.45 0.37,-0.83 0.83,-0.83l4.94 0c0.46,0 0.83,0.38 0.83,0.83 0,0.45 -0.37,0.83 -0.83,0.83zm-4.93 -6.61l2.44 0c0.46,0 0.84,0.37 0.84,0.82 0,0.45 -0.38,0.83 -0.84,0.83l-2.44 0c-0.47,0 -0.84,-0.38 -0.84,-0.83 0,-0.45 0.37,-0.82 0.84,-0.82zm9.03 2.18l-0.12 -0.23 -0.18 -0.14c-0.25,-0.19 -1.48,0.01 -1.81,-0.29 -0.24,-0.22 -0.27,-0.61 -0.34,-1.13 -0.14,-1.03 -0.22,-1.08 -0.38,-1.42 -0.58,-1.23 -2.15,-2.16 -3.24,-2.28l-2.93 0c-2.3,0 -4.19,1.88 -4.19,4.18l0 4.88c0,2.29 1.89,4.17 4.19,4.17l4.82 0c2.3,0 4.18,-1.88 4.19,-4.17l0.02 -3.38c0,0 -0.03,-0.19 -0.03,-0.19z"/>
 </g>
</svg>
