<?xml version="1.0" encoding="UTF-8"?>
<!DOCTYPE svg PUBLIC "-//W3C//DTD SVG 1.1//EN" "http://www.w3.org/Graphics/SVG/1.1/DTD/svg11.dtd">
<!-- Creator: CorelDRAW 2020 (64-Bit Evaluation Version) -->
<svg xmlns="http://www.w3.org/2000/svg" xml:space="preserve" width="301px" height="307px" version="1.1" style="shape-rendering:geometricPrecision; text-rendering:geometricPrecision; image-rendering:optimizeQuality; fill-rule:evenodd; clip-rule:evenodd"
viewBox="0 0 4.43 4.52"
 xmlns:xlink="http://www.w3.org/1999/xlink"
 xmlns:xodm="http://www.corel.com/coreldraw/odm/2003">
 <defs>
  <style type="text/css">
   <![CDATA[
    .str0 {stroke:#EFB30C;stroke-width:0.06;stroke-miterlimit:10}
    .fil1 {fill:none;fill-rule:nonzero}
    .fil2 {fill:#263674;fill-rule:nonzero}
    .fil0 {fill:white;fill-rule:nonzero}
   ]]>
  </style>
 </defs>
 <g id="Layer_x0020_1">
  <metadata id="CorelCorpID_0Corel-Layer"/>
  <path class="fil0" d="M4.4 2.76l0 1.23c0,0.28 -0.21,0.5 -0.48,0.5l-3.4 0c-0.27,0 -0.49,-0.22 -0.49,-0.5l0 -3.46c0,-0.28 0.22,-0.5 0.49,-0.5l1.21 0 0 0.5 -1.21 0 0 3.46 3.4 0 0 -1.23 0.48 0z"/>
  <path class="fil1 str0" d="M4.4 2.76l0 1.23c0,0.28 -0.21,0.5 -0.48,0.5l-3.4 0c-0.27,0 -0.49,-0.22 -0.49,-0.5l0 -3.46c0,-0.28 0.22,-0.5 0.49,-0.5l1.21 0 0 0.5 -1.21 0 0 3.46 3.4 0 0 -1.23 0.48 0z"/>
  <polygon class="fil2" points="4.4,1.02 3.43,1.02 3.43,0.03 2.95,0.03 2.95,1.02 1.97,1.02 1.97,1.52 2.95,1.52 2.95,2.51 3.43,2.51 3.43,1.52 4.4,1.52 "/>
 </g>
</svg>
