<?xml version="1.0" encoding="UTF-8"?>
<!DOCTYPE svg PUBLIC "-//W3C//DTD SVG 1.1//EN" "http://www.w3.org/Graphics/SVG/1.1/DTD/svg11.dtd">
<!-- Creator: CorelDRAW 2020 (64-Bit Evaluation Version) -->
<svg xmlns="http://www.w3.org/2000/svg" xml:space="preserve" width="220px" height="250px" version="1.1" style="shape-rendering:geometricPrecision; text-rendering:geometricPrecision; image-rendering:optimizeQuality; fill-rule:evenodd; clip-rule:evenodd"
viewBox="0 0 50.9 57.68"
 xmlns:xlink="http://www.w3.org/1999/xlink"
 xmlns:xodm="http://www.corel.com/coreldraw/odm/2003">
 <defs>
  <style type="text/css">
   <![CDATA[
    .fil0 {fill:#263674;fill-rule:nonzero}
    .fil1 {fill:#EFB30C;fill-rule:nonzero}
   ]]>
  </style>
 </defs>
 <g id="Layer_x0020_1">
  <metadata id="CorelCorpID_0Corel-Layer"/>
  <path class="fil0" d="M33.6 36.11l-16.27 0 0 -13.83 16.27 0 0 13.83zm-11.77 -20.28c0,-2.03 1.63,-3.69 3.62,-3.69 1.99,0 3.62,1.66 3.62,3.69l0 4.6 -7.24 0 0 -4.6zm9.06 4.6l0 -4.6c0,-3.06 -2.44,-5.54 -5.44,-5.54 -2.98,0 -5.41,2.48 -5.41,5.54l0 4.6 -4.53 0 0 17.51 19.88 0 0 -17.51 -4.5 0z"/>
  <path class="fil0" d="M25.32 26.78c1,0 1.81,0.83 1.81,1.85 0,1.01 -0.81,1.84 -1.81,1.84 -1,0 -1.81,-0.83 -1.81,-1.84 0,-1.02 0.81,-1.85 1.81,-1.85zm-0.9 5.4l0 1.98c0,0.51 0.4,0.92 0.9,0.92 0.5,0 0.9,-0.41 0.9,-0.92l0 -1.98c1.56,-0.41 2.72,-1.84 2.72,-3.55 0,-2.04 -1.63,-3.69 -3.62,-3.69 -1.99,0 -3.61,1.65 -3.61,3.69 0,1.71 1.15,3.14 2.71,3.55z"/>
  <path class="fil1" d="M25.45 0c-14.03,0 -25.45,11.64 -25.45,25.96 0,13.56 10.26,24.72 23.28,25.85l-4.15 4.23c-0.37,0.37 -0.37,0.98 0,1.36 0.18,0.18 0.42,0.28 0.67,0.28 0.24,0 0.48,-0.1 0.66,-0.28l5.66 -5.77c0.08,-0.09 0.15,-0.2 0.2,-0.31 0.1,-0.24 0.1,-0.5 0,-0.74 -0.05,-0.12 -0.12,-0.22 -0.2,-0.31l-5.66 -5.77c-0.37,-0.37 -0.96,-0.37 -1.33,0 -0.37,0.38 -0.37,0.98 0,1.36l3.92 4c-11.87,-1.22 -21.17,-11.48 -21.17,-23.9 0,-13.26 10.58,-24.04 23.57,-24.04 13,0 23.57,10.78 23.57,24.04 0,6.37 -2.42,12.38 -6.82,16.91 -0.37,0.37 -0.37,0.98 0,1.36 0.37,0.37 0.97,0.37 1.34,-0.01 4.75,-4.89 7.36,-11.38 7.36,-18.26 0,-14.32 -11.41,-25.96 -25.45,-25.96z"/>
 </g>
</svg>
