<?xml version="1.0" encoding="UTF-8"?>
<!DOCTYPE svg PUBLIC "-//W3C//DTD SVG 1.1//EN" "http://www.w3.org/Graphics/SVG/1.1/DTD/svg11.dtd">
<!-- Creator: CorelDRAW 2020 (64-Bit Evaluation Version) -->
<svg xmlns="http://www.w3.org/2000/svg" xml:space="preserve" width="341px" height="341px" version="1.1" style="shape-rendering:geometricPrecision; text-rendering:geometricPrecision; image-rendering:optimizeQuality; fill-rule:evenodd; clip-rule:evenodd"
viewBox="0 0 1194.2 1195.88"
 xmlns:xlink="http://www.w3.org/1999/xlink"
 xmlns:xodm="http://www.corel.com/coreldraw/odm/2003">
 <defs>
  <style type="text/css">
   <![CDATA[
    .fil0 {fill:#EFB30C;fill-rule:nonzero}
    .fil1 {fill:white;fill-rule:nonzero}
   ]]>
  </style>
 </defs>
 <g id="Layer_x0020_1">
  <metadata id="CorelCorpID_0Corel-Layer"/>
  <path class="fil0" d="M1194.2 597.94c0,330.23 -267.33,597.94 -597.09,597.94 -329.78,0 -597.11,-267.71 -597.11,-597.94 0,-330.23 267.33,-597.94 597.11,-597.94 329.76,0 597.09,267.71 597.09,597.94z"/>
  <path class="fil1" d="M816.06 711.21l-0.02 0c0,21.66 -17.54,39.22 -39.17,39.22l-359.55 0c-21.63,0 -39.15,-17.56 -39.15,-39.22l0 -207.06c0,-2.3 0.23,-4.51 0.61,-6.72l206.64 129.03c0.24,0.17 0.5,0.27 0.77,0.42 0.28,0.15 0.55,0.29 0.83,0.44 1.46,0.76 2.97,1.36 4.5,1.75 0.16,0.04 0.3,0.07 0.48,0.1 1.68,0.4 3.39,0.66 5.1,0.66l0 0 0.03 0c1.71,0 3.41,-0.25 5.09,-0.66 0.16,-0.03 0.33,-0.06 0.48,-0.1 1.54,-0.39 3.04,-0.99 4.5,-1.75 0.28,-0.15 0.56,-0.29 0.83,-0.44 0.25,-0.15 0.53,-0.25 0.8,-0.42l206.62 -129.03c0.37,2.21 0.61,4.42 0.61,6.72l0 207.06zm-218.96 -350.71l216.25 135.05 -432.51 0 216.26 -135.05zm0 -128.53c-201.83,0 -365.46,163.84 -365.46,365.96 0,202.11 163.63,365.98 365.46,365.98 201.83,0 365.45,-163.87 365.45,-365.98 0,-202.12 -163.62,-365.96 -365.45,-365.96z"/>
 </g>
</svg>
