<?xml version="1.0" encoding="UTF-8"?>
<!DOCTYPE svg PUBLIC "-//W3C//DTD SVG 1.1//EN" "http://www.w3.org/Graphics/SVG/1.1/DTD/svg11.dtd">
<!-- Creator: CorelDRAW 2020 (64-Bit Evaluation Version) -->
<svg xmlns="http://www.w3.org/2000/svg" xml:space="preserve" width="341px" height="341px" version="1.1" style="shape-rendering:geometricPrecision; text-rendering:geometricPrecision; image-rendering:optimizeQuality; fill-rule:evenodd; clip-rule:evenodd"
viewBox="0 0 21.12 21.15"
 xmlns:xlink="http://www.w3.org/1999/xlink"
 xmlns:xodm="http://www.corel.com/coreldraw/odm/2003">
 <defs>
  <style type="text/css">
   <![CDATA[
    .fil0 {fill:#EFB30C;fill-rule:nonzero}
    .fil1 {fill:white;fill-rule:nonzero}
   ]]>
  </style>
 </defs>
 <g id="Layer_x0020_1">
  <metadata id="CorelCorpID_0Corel-Layer"/>
  <path class="fil0" d="M21.12 10.58c0,5.84 -4.73,10.57 -10.56,10.57 -5.83,0 -10.56,-4.73 -10.56,-10.57 0,-5.84 4.73,-10.58 10.56,-10.58 5.83,0 10.56,4.74 10.56,10.58z"/>
  <path class="fil1" d="M14.84 13.17l-2.41 -0.97 -0.57 -0.48c-0.15,-0.13 -0.37,-0.12 -0.51,0.02l-0.79 0.79 -0.79 -0.79c-0.14,-0.14 -0.36,-0.15 -0.51,-0.02l-0.56 0.48 -2.42 0.97c-0.78,0.31 -0.78,3.07 -0.85,3.32l10.26 0c-0.07,-0.25 -0.07,-3.01 -0.85,-3.32z"/>
  <path class="fil1" d="M12.86 7.21c-0.3,-0.93 -1.15,-1.49 -2.3,-1.49 -1.14,0 -2,0.56 -2.3,1.49 -0.04,-0.04 -0.1,-0.07 -0.16,-0.09 0.19,-1.07 1.22,-1.89 2.46,-1.89 1.24,0 2.27,0.82 2.46,1.89 -0.06,0.02 -0.11,0.05 -0.16,0.09zm0.74 -0.05c-0.17,-1.4 -1.47,-2.5 -3.04,-2.5 -1.57,0 -2.87,1.1 -3.04,2.5 -0.14,0.09 -0.23,0.25 -0.23,0.43l0 1.14c0,0.28 0.22,0.5 0.5,0.5l0.46 0c0.28,1.47 1.27,2.3 2.31,2.3 1.04,0 1.65,-0.49 2.05,-1.4 -0.31,0.24 -0.75,0.46 -1.38,0.5 -0.05,0.09 -0.15,0.14 -0.26,0.14l-0.29 0c-0.18,0 -0.32,-0.14 -0.32,-0.31 0,-0.18 0.14,-0.32 0.32,-0.32l0.29 0c0.1,0 0.19,0.05 0.25,0.12 1,-0.08 1.47,-0.69 1.66,-1.03l0.45 0c0.28,0 0.5,-0.22 0.5,-0.5l0 -1.14c0,-0.18 -0.09,-0.34 -0.23,-0.43z"/>
 </g>
</svg>
