<?xml version="1.0" encoding="UTF-8"?>
<!DOCTYPE svg PUBLIC "-//W3C//DTD SVG 1.1//EN" "http://www.w3.org/Graphics/SVG/1.1/DTD/svg11.dtd">
<!-- Creator: CorelDRAW 2020 (64-Bit Evaluation Version) -->
<svg xmlns="http://www.w3.org/2000/svg" xml:space="preserve" width="301px" height="307px" version="1.1" style="shape-rendering:geometricPrecision; text-rendering:geometricPrecision; image-rendering:optimizeQuality; fill-rule:evenodd; clip-rule:evenodd"
viewBox="0 0 25.46 25.95"
 xmlns:xlink="http://www.w3.org/1999/xlink"
 xmlns:xodm="http://www.corel.com/coreldraw/odm/2003">
 <defs>
  <style type="text/css">
   <![CDATA[
    .str0 {stroke:#EFB30C;stroke-width:0.35;stroke-miterlimit:10}
    .fil1 {fill:none;fill-rule:nonzero}
    .fil2 {fill:#263674;fill-rule:nonzero}
    .fil0 {fill:white;fill-rule:nonzero}
   ]]>
  </style>
 </defs>
 <g id="Layer_x0020_1">
  <metadata id="CorelCorpID_0Corel-Layer"/>
  <path class="fil0" d="M25.28 12.98c0,7.07 -5.62,12.8 -12.55,12.8 -6.93,0 -12.55,-5.73 -12.55,-12.8 0,-7.07 5.62,-12.8 12.55,-12.8 6.93,0 12.55,5.73 12.55,12.8z"/>
  <path class="fil1 str0" d="M25.28 12.98c0,7.07 -5.62,12.8 -12.55,12.8 -6.93,0 -12.55,-5.73 -12.55,-12.8 0,-7.07 5.62,-12.8 12.55,-12.8 6.93,0 12.55,5.73 12.55,12.8z"/>
  <path class="fil2" d="M10.39 13.46l4.73 0c1.05,0 1.89,0.86 1.89,1.93 0,1.06 -0.84,1.93 -1.89,1.93l-4.73 0 0 -3.86zm4.61 -2.89c0,1.06 -0.85,1.93 -1.9,1.93l-2.71 0 0 -3.86 2.71 0c1.05,0 1.9,0.86 1.9,1.93zm-1.77 9.64c0.26,0 0.47,-0.22 0.47,-0.48l0 -1.45 1.42 0c1.57,-0.03 2.81,-1.35 2.78,-2.95 -0.03,-1.52 -1.21,-2.75 -2.69,-2.83 1.05,-1.18 0.96,-3.01 -0.2,-4.08 -0.37,-0.34 -0.82,-0.57 -1.31,-0.68l0 -1.51c0,-0.27 -0.21,-0.48 -0.47,-0.48 -0.26,0 -0.47,0.21 -0.47,0.48l0 1.44 -0.95 0 0 -1.44c0,-0.27 -0.21,-0.48 -0.47,-0.48 -0.26,0 -0.47,0.21 -0.47,0.48l0 1.44 -2.84 0c-0.26,0 -0.47,0.22 -0.47,0.49 0,0.26 0.21,0.48 0.47,0.48l1.42 0 0 8.68 -1.42 0c-0.26,0 -0.47,0.21 -0.47,0.48 0,0.26 0.21,0.48 0.47,0.48l2.84 0 0 1.45c0,0.26 0.21,0.48 0.47,0.48 0.26,0 0.47,-0.22 0.47,-0.48l0 -1.45 0.95 0 0 1.45c0,0.26 0.21,0.48 0.47,0.48z"/>
 </g>
</svg>
