<?xml version="1.0" encoding="UTF-8"?>
<!DOCTYPE svg PUBLIC "-//W3C//DTD SVG 1.1//EN" "http://www.w3.org/Graphics/SVG/1.1/DTD/svg11.dtd">
<!-- Creator: CorelDRAW 2020 (64-Bit Evaluation Version) -->
<svg xmlns="http://www.w3.org/2000/svg" xml:space="preserve" width="292px" height="233px" version="1.1" style="shape-rendering:geometricPrecision; text-rendering:geometricPrecision; image-rendering:optimizeQuality; fill-rule:evenodd; clip-rule:evenodd"
viewBox="0 0 2.9 2.32"
 xmlns:xlink="http://www.w3.org/1999/xlink"
 xmlns:xodm="http://www.corel.com/coreldraw/odm/2003">
 <defs>
  <style type="text/css">
   <![CDATA[
    .str0 {stroke:#EFB30C;stroke-width:0.04;stroke-miterlimit:10}
    .fil1 {fill:none;fill-rule:nonzero}
    .fil2 {fill:#263674;fill-rule:nonzero}
    .fil0 {fill:white;fill-rule:nonzero}
   ]]>
  </style>
 </defs>
 <g id="Layer_x0020_1">
  <metadata id="CorelCorpID_0Corel-Layer"/>
  <path class="fil0" d="M2.63 2.3l-2.36 0c-0.14,0 -0.25,-0.11 -0.25,-0.25l0 -1.78c0,-0.14 0.11,-0.25 0.25,-0.25l2.36 0c0.14,0 0.25,0.11 0.25,0.25l0 1.78c0,0.14 -0.11,0.25 -0.25,0.25z"/>
  <path class="fil1 str0" d="M2.63 2.3l-2.36 0c-0.14,0 -0.25,-0.11 -0.25,-0.25l0 -1.78c0,-0.14 0.11,-0.25 0.25,-0.25l2.36 0c0.14,0 0.25,0.11 0.25,0.25l0 1.78c0,0.14 -0.11,0.25 -0.25,0.25z"/>
  <path class="fil2" d="M2.46 1.36c0,0.04 -0.05,0.06 -0.08,0.03l-0.23 -0.23 -0.52 0.46c-0.06,0.06 -0.15,0.06 -0.21,0l-0.31 -0.37 -0.56 0.5c-0.02,0.02 -0.05,0.02 -0.07,0l-0.03 -0.02c-0.02,-0.02 -0.02,-0.05 0,-0.07l0.56 -0.77c0.05,-0.06 0.15,-0.06 0.2,0l0.32 0.32 0.32 -0.38 -0.21 -0.19c-0.03,-0.03 -0.01,-0.09 0.04,-0.09l0.69 0c0.05,0 0.09,0.05 0.09,0.11l0 0.7 0 0z"/>
 </g>
</svg>
