<svg id="Layer_1" data-name="Layer 1" xmlns="http://www.w3.org/2000/svg" xmlns:xlink="http://www.w3.org/1999/xlink" viewBox="0 0 1666 97"><defs><style>.cls-1{fill:none;}.cls-2{clip-path:url(#clip-path);}.cls-3{fill:#fff;}.cls-4{fill:#fffffe;}.cls-5{fill:#fffefd;}.cls-6{fill:#fffefc;}.cls-7{fill:#fffefb;}.cls-8{fill:#fffdfa;}.cls-9{fill:#fffdf9;}.cls-10{fill:#fffdf8;}.cls-11{fill:#fefcf7;}.cls-12{fill:#fefcf6;}.cls-13{fill:#fefcf5;}.cls-14{fill:#fefcf4;}.cls-15{fill:#fefbf3;}.cls-16{fill:#fefbf2;}.cls-17{fill:#fefbf1;}.cls-18{fill:#fefaf0;}.cls-19{fill:#fefaef;}.cls-20{fill:#fefaee;}.cls-21{fill:#fef9ed;}.cls-22{fill:#fef9ec;}.cls-23{fill:#fef9eb;}.cls-24{fill:#fef8ea;}.cls-25{fill:#fef8e9;}.cls-26{fill:#fdf8e8;}.cls-27{fill:#fdf7e7;}.cls-28{fill:#fdf7e6;}.cls-29{fill:#fdf7e5;}.cls-30{fill:#fdf7e4;}.cls-31{fill:#fdf6e3;}.cls-32{fill:#fdf6e2;}.cls-33{fill:#fdf6e1;}.cls-34{fill:#fdf5e0;}.cls-35{fill:#fdf5df;}.cls-36{fill:#fdf5de;}.cls-37{fill:#fdf4dd;}.cls-38{fill:#fdf4dc;}.cls-39{fill:#fdf4db;}.cls-40{fill:#fdf3da;}.cls-41{fill:#fcf3d9;}.cls-42{fill:#fcf3d8;}.cls-43{fill:#fcf2d7;}.cls-44{fill:#fcf2d6;}.cls-45{fill:#fcf2d5;}.cls-46{fill:#fcf1d4;}.cls-47{fill:#fcf1d3;}.cls-48{fill:#fcf1d2;}.cls-49{fill:#fcf1d1;}.cls-50{fill:#fcf0d0;}.cls-51{fill:#fcf0cf;}.cls-52{fill:#fcf0ce;}.cls-53{fill:#fcefcd;}.cls-54{fill:#fcefcc;}.cls-55{fill:#fcefcb;}.cls-56{fill:#fbeeca;}.cls-57{fill:#fbeec9;}.cls-58{fill:#fbeec8;}.cls-59{fill:#fbedc7;}.cls-60{fill:#fbedc6;}.cls-61{fill:#fbedc5;}.cls-62{fill:#fbecc4;}.cls-63{fill:#fbecc3;}.cls-64{fill:#fbecc2;}.cls-65{fill:#fbecc1;}.cls-66{fill:#fbebc0;}.cls-67{fill:#fbebbf;}.cls-68{fill:#fbebbe;}.cls-69{fill:#fbeabd;}.cls-70{fill:#fbeabc;}.cls-71{fill:#fbeabb;}.cls-72{fill:#fae9ba;}.cls-73{fill:#fae9b9;}.cls-74{fill:#fae9b8;}.cls-75{fill:#fae8b7;}.cls-76{fill:#fae8b6;}.cls-77{fill:#fae8b5;}.cls-78{fill:#fae7b4;}.cls-79{fill:#fae7b3;}.cls-80{fill:#fae7b2;}.cls-81{fill:#fae7b1;}.cls-82{fill:#fae6b0;}.cls-83{fill:#fae6af;}.cls-84{fill:#fae6ae;}.cls-85{fill:#fae5ad;}.cls-86{fill:#fae5ac;}.cls-87{fill:#f9e5ab;}.cls-88{fill:#f9e4aa;}.cls-89{fill:#f9e4a9;}.cls-90{fill:#f9e4a8;}.cls-91{fill:#f9e3a7;}.cls-92{fill:#f9e3a6;}.cls-93{fill:#f9e3a5;}.cls-94{fill:#f9e2a4;}.cls-95{fill:#f9e2a3;}.cls-96{fill:#f9e2a2;}.cls-97{fill:#f9e1a1;}.cls-98{fill:#f9e1a0;}.cls-99{fill:#f9e19f;}.cls-100{fill:#f9e19e;}.cls-101{fill:#f9e09d;}.cls-102{fill:#f8e09c;}.cls-103{fill:#f8e09b;}.cls-104{fill:#f8df9a;}.cls-105{fill:#f8df99;}.cls-106{fill:#f8df98;}.cls-107{fill:#f8de97;}.cls-108{fill:#f8de96;}.cls-109{fill:#f8de95;}.cls-110{fill:#f8dd94;}.cls-111{fill:#f8dd93;}.cls-112{fill:#f8dd92;}.cls-113{fill:#f8dc91;}.cls-114{fill:#f8dc90;}.cls-115{fill:#f8dc8f;}.cls-116{fill:#f8dc8e;}.cls-117{fill:#f7db8d;}.cls-118{fill:#f7db8c;}.cls-119{fill:#f7db8b;}.cls-120{fill:#f7da8a;}.cls-121{fill:#f7da89;}.cls-122{fill:#f7da88;}.cls-123{fill:#f7d987;}.cls-124{fill:#f7d985;}.cls-125{fill:#f7d984;}.cls-126{fill:#f7d883;}.cls-127{fill:#f7d882;}.cls-128{fill:#f7d881;}.cls-129{fill:#f7d780;}.cls-130{fill:#f7d77f;}.cls-131{fill:#f7d77e;}.cls-132{fill:#f6d67d;}.cls-133{fill:#f6d67c;}.cls-134{fill:#f6d67b;}.cls-135{fill:#f6d67a;}.cls-136{fill:#f6d579;}.cls-137{fill:#f6d578;}.cls-138{fill:#f6d577;}.cls-139{fill:#f6d476;}.cls-140{fill:#f6d475;}.cls-141{fill:#f6d474;}.cls-142{fill:#f6d373;}.cls-143{fill:#f6d372;}.cls-144{fill:#f6d371;}.cls-145{fill:#f6d270;}.cls-146{fill:#f6d26f;}.cls-147{fill:#f5d26e;}.cls-148{fill:#f5d16d;}.cls-149{fill:#f5d16c;}.cls-150{fill:#f5d16b;}.cls-151{fill:#f5d16a;}.cls-152{fill:#f5d069;}.cls-153{fill:#f5d068;}.cls-154{fill:#f5d067;}.cls-155{fill:#f5cf66;}.cls-156{fill:#f5cf65;}.cls-157{fill:#f5cf64;}.cls-158{fill:#f5ce63;}.cls-159{fill:#f5ce62;}.cls-160{fill:#f5ce61;}.cls-161{fill:#f5cd60;}.cls-162{fill:#f4cd5f;}.cls-163{fill:#f4cd5e;}.cls-164{fill:#f4cc5d;}.cls-165{fill:#f4cc5c;}.cls-166{fill:#f4cc5b;}.cls-167{fill:#f4cb5a;}.cls-168{fill:#f4cb59;}.cls-169{fill:#f4cb58;}.cls-170{fill:#f4cb57;}.cls-171{fill:#f4ca56;}.cls-172{fill:#f4ca55;}.cls-173{fill:#f4ca54;}.cls-174{fill:#f4c953;}.cls-175{fill:#f4c952;}.cls-176{fill:#f4c951;}.cls-177{fill:#f3c850;}.cls-178{fill:#f3c84f;}.cls-179{fill:#f3c84e;}.cls-180{fill:#f3c74d;}.cls-181{fill:#f3c74c;}.cls-182{fill:#f3c74b;}.cls-183{fill:#f3c64a;}.cls-184{fill:#f3c649;}.cls-185{fill:#f3c648;}.cls-186{fill:#f3c647;}.cls-187{fill:#f3c546;}.cls-188{fill:#f3c545;}.cls-189{fill:#f3c544;}.cls-190{fill:#f3c443;}.cls-191{fill:#f3c442;}.cls-192{fill:#f3c441;}.cls-193{fill:#f2c340;}.cls-194{fill:#f2c33f;}.cls-195{fill:#f2c33e;}.cls-196{fill:#f2c23d;}.cls-197{fill:#f2c23c;}.cls-198{fill:#f2c23b;}.cls-199{fill:#f2c13a;}.cls-200{fill:#f2c139;}.cls-201{fill:#f2c138;}.cls-202{fill:#f2c137;}.cls-203{fill:#f2c036;}.cls-204{fill:#f2c035;}.cls-205{fill:#f2c034;}.cls-206{fill:#f2bf33;}.cls-207{fill:#f2bf32;}.cls-208{fill:#f1bf31;}.cls-209{fill:#f1be30;}.cls-210{fill:#f1be2f;}.cls-211{fill:#f1be2e;}.cls-212{fill:#f1bd2d;}.cls-213{fill:#f1bd2c;}.cls-214{fill:#f1bd2b;}.cls-215{fill:#f1bc2a;}.cls-216{fill:#f1bc29;}.cls-217{fill:#f1bc28;}.cls-218{fill:#f1bb27;}.cls-219{fill:#f1bb26;}.cls-220{fill:#f1bb25;}.cls-221{fill:#f1bb24;}.cls-222{fill:#f1ba23;}.cls-223{fill:#f0ba22;}.cls-224{fill:#f0ba21;}.cls-225{fill:#f0b920;}.cls-226{fill:#f0b91f;}.cls-227{fill:#f0b91e;}.cls-228{fill:#f0b81d;}.cls-229{fill:#f0b81c;}.cls-230{fill:#f0b81b;}.cls-231{fill:#f0b71a;}.cls-232{fill:#f0b719;}.cls-233{fill:#f0b718;}.cls-234{fill:#f0b617;}.cls-235{fill:#f0b616;}.cls-236{fill:#f0b615;}.cls-237{fill:#f0b614;}.cls-238{fill:#efb513;}.cls-239{fill:#efb512;}.cls-240{fill:#efb511;}.cls-241{fill:#efb410;}.cls-242{fill:#efb40f;}.cls-243{fill:#efb40e;}.cls-244{fill:#efb30d;}.cls-245{fill:#efb30c;}.cls-246{fill:#f7d986;}</style><clipPath id="clip-path"><rect class="cls-1" x="36.46" y="34.27" width="1599" height="8"/></clipPath></defs><g class="cls-2"><rect class="cls-3" x="36.46" y="34.27" width="227.79" height="8"/><rect class="cls-3" x="264.25" y="34.27" width="2.39" height="8"/><rect class="cls-4" x="266.64" y="34.27" width="2.39" height="8"/><rect class="cls-5" x="269.03" y="34.27" width="2.39" height="8"/><rect class="cls-6" x="271.42" y="34.27" width="2.39" height="8"/><rect class="cls-7" x="273.81" y="34.27" width="2.39" height="8"/><rect class="cls-8" x="276.2" y="34.27" width="2.39" height="8"/><rect class="cls-9" x="278.59" y="34.27" width="2.39" height="8"/><rect class="cls-10" x="280.98" y="34.27" width="2.39" height="8"/><rect class="cls-11" x="283.37" y="34.27" width="2.39" height="8"/><rect class="cls-12" x="285.76" y="34.27" width="2.39" height="8"/><rect class="cls-13" x="288.15" y="34.27" width="2.39" height="8"/><rect class="cls-14" x="290.54" y="34.27" width="2.39" height="8"/><rect class="cls-15" x="292.93" y="34.27" width="2.39" height="8"/><rect class="cls-16" x="295.32" y="34.27" width="2.39" height="8"/><rect class="cls-17" x="297.71" y="34.27" width="2.39" height="8"/><rect class="cls-18" x="300.1" y="34.27" width="2.39" height="8"/><rect class="cls-19" x="302.48" y="34.27" width="2.39" height="8"/><rect class="cls-20" x="304.87" y="34.27" width="2.39" height="8"/><rect class="cls-21" x="307.26" y="34.27" width="2.39" height="8"/><rect class="cls-22" x="309.65" y="34.27" width="2.39" height="8"/><rect class="cls-23" x="312.04" y="34.27" width="2.39" height="8"/><rect class="cls-24" x="314.43" y="34.27" width="2.39" height="8"/><rect class="cls-25" x="316.82" y="34.27" width="2.39" height="8"/><rect class="cls-26" x="319.21" y="34.27" width="2.39" height="8"/><rect class="cls-27" x="321.6" y="34.27" width="2.39" height="8"/><rect class="cls-28" x="323.99" y="34.27" width="2.39" height="8"/><rect class="cls-29" x="326.38" y="34.27" width="2.39" height="8"/><rect class="cls-30" x="328.77" y="34.27" width="2.39" height="8"/><rect class="cls-31" x="331.16" y="34.27" width="2.39" height="8"/><rect class="cls-32" x="333.55" y="34.27" width="2.39" height="8"/><rect class="cls-33" x="335.94" y="34.27" width="2.39" height="8"/><rect class="cls-34" x="338.33" y="34.27" width="2.39" height="8"/><rect class="cls-35" x="340.72" y="34.27" width="2.39" height="8"/><rect class="cls-36" x="343.11" y="34.27" width="2.39" height="8"/><rect class="cls-37" x="345.5" y="34.27" width="2.39" height="8"/><rect class="cls-38" x="347.88" y="34.27" width="2.39" height="8"/><rect class="cls-39" x="350.27" y="34.27" width="2.39" height="8"/><rect class="cls-40" x="352.66" y="34.27" width="2.39" height="8"/><rect class="cls-41" x="355.05" y="34.27" width="2.39" height="8"/><rect class="cls-42" x="357.44" y="34.27" width="2.39" height="8"/><rect class="cls-43" x="359.83" y="34.27" width="2.39" height="8"/><rect class="cls-44" x="362.22" y="34.27" width="2.39" height="8"/><rect class="cls-45" x="364.61" y="34.27" width="2.39" height="8"/><rect class="cls-46" x="367" y="34.27" width="2.39" height="8"/><rect class="cls-47" x="369.39" y="34.27" width="2.39" height="8"/><rect class="cls-48" x="371.78" y="34.27" width="2.39" height="8"/><rect class="cls-49" x="374.17" y="34.27" width="2.39" height="8"/><rect class="cls-50" x="376.56" y="34.27" width="2.39" height="8"/><rect class="cls-51" x="378.95" y="34.27" width="2.39" height="8"/><rect class="cls-52" x="381.34" y="34.27" width="2.39" height="8"/><rect class="cls-53" x="383.73" y="34.27" width="2.39" height="8"/><rect class="cls-54" x="386.12" y="34.27" width="2.39" height="8"/><rect class="cls-55" x="388.51" y="34.27" width="2.39" height="8"/><rect class="cls-56" x="390.9" y="34.27" width="2.39" height="8"/><rect class="cls-57" x="393.28" y="34.27" width="2.39" height="8"/><rect class="cls-58" x="395.67" y="34.27" width="2.39" height="8"/><rect class="cls-59" x="398.06" y="34.27" width="2.39" height="8"/><rect class="cls-60" x="400.45" y="34.27" width="2.39" height="8"/><rect class="cls-61" x="402.84" y="34.27" width="2.39" height="8"/><rect class="cls-62" x="405.23" y="34.27" width="2.39" height="8"/><rect class="cls-63" x="407.62" y="34.27" width="2.39" height="8"/><rect class="cls-64" x="410.01" y="34.27" width="2.39" height="8"/><rect class="cls-65" x="412.4" y="34.27" width="2.39" height="8"/><rect class="cls-66" x="414.79" y="34.27" width="2.39" height="8"/><rect class="cls-67" x="417.18" y="34.27" width="2.39" height="8"/><rect class="cls-68" x="419.57" y="34.27" width="2.39" height="8"/><rect class="cls-69" x="421.96" y="34.27" width="2.39" height="8"/><rect class="cls-70" x="424.35" y="34.27" width="2.39" height="8"/><rect class="cls-71" x="426.74" y="34.27" width="2.39" height="8"/><rect class="cls-72" x="429.13" y="34.27" width="2.39" height="8"/><rect class="cls-73" x="431.52" y="34.27" width="2.39" height="8"/><rect class="cls-74" x="433.91" y="34.27" width="2.39" height="8"/><rect class="cls-75" x="436.3" y="34.27" width="2.39" height="8"/><rect class="cls-76" x="438.69" y="34.27" width="2.39" height="8"/><rect class="cls-77" x="441.07" y="34.27" width="2.39" height="8"/><rect class="cls-78" x="443.46" y="34.27" width="2.39" height="8"/><rect class="cls-79" x="445.85" y="34.27" width="2.39" height="8"/><rect class="cls-80" x="448.24" y="34.27" width="2.39" height="8"/><rect class="cls-81" x="450.63" y="34.27" width="2.39" height="8"/><rect class="cls-82" x="453.02" y="34.27" width="2.39" height="8"/><rect class="cls-83" x="455.41" y="34.27" width="2.39" height="8"/><rect class="cls-84" x="457.8" y="34.27" width="2.39" height="8"/><rect class="cls-85" x="460.19" y="34.27" width="2.39" height="8"/><rect class="cls-86" x="462.58" y="34.27" width="2.39" height="8"/><rect class="cls-87" x="464.97" y="34.27" width="2.39" height="8"/><rect class="cls-88" x="467.36" y="34.27" width="2.39" height="8"/><rect class="cls-89" x="469.75" y="34.27" width="2.39" height="8"/><rect class="cls-90" x="472.14" y="34.27" width="2.39" height="8"/><rect class="cls-91" x="474.53" y="34.27" width="2.39" height="8"/><rect class="cls-92" x="476.92" y="34.27" width="2.39" height="8"/><rect class="cls-93" x="479.31" y="34.27" width="2.39" height="8"/><rect class="cls-94" x="481.7" y="34.27" width="2.39" height="8"/><rect class="cls-95" x="484.09" y="34.27" width="2.39" height="8"/><rect class="cls-96" x="486.47" y="34.27" width="2.39" height="8"/><rect class="cls-97" x="488.86" y="34.27" width="2.39" height="8"/><rect class="cls-98" x="491.25" y="34.27" width="2.39" height="8"/><rect class="cls-99" x="493.64" y="34.27" width="2.39" height="8"/><rect class="cls-100" x="496.03" y="34.27" width="2.39" height="8"/><rect class="cls-101" x="498.42" y="34.27" width="2.39" height="8"/><rect class="cls-102" x="500.81" y="34.27" width="2.39" height="8"/><rect class="cls-103" x="503.2" y="34.27" width="2.39" height="8"/><rect class="cls-104" x="505.59" y="34.27" width="2.39" height="8"/><rect class="cls-105" x="507.98" y="34.27" width="2.39" height="8"/><rect class="cls-106" x="510.37" y="34.27" width="2.39" height="8"/><rect class="cls-107" x="512.76" y="34.27" width="2.39" height="8"/><rect class="cls-108" x="515.15" y="34.27" width="2.39" height="8"/><rect class="cls-109" x="517.54" y="34.27" width="2.39" height="8"/><rect class="cls-110" x="519.93" y="34.27" width="2.39" height="8"/><rect class="cls-111" x="522.32" y="34.27" width="2.39" height="8"/><rect class="cls-112" x="524.71" y="34.27" width="2.39" height="8"/><rect class="cls-113" x="527.1" y="34.27" width="2.39" height="8"/><rect class="cls-114" x="529.49" y="34.27" width="2.39" height="8"/><rect class="cls-115" x="531.87" y="34.27" width="2.39" height="8"/><rect class="cls-116" x="534.26" y="34.27" width="2.39" height="8"/><rect class="cls-117" x="536.65" y="34.27" width="2.39" height="8"/><rect class="cls-118" x="539.04" y="34.27" width="2.39" height="8"/><rect class="cls-119" x="541.43" y="34.27" width="2.39" height="8"/><rect class="cls-120" x="543.82" y="34.27" width="2.39" height="8"/><rect class="cls-121" x="546.21" y="34.27" width="2.39" height="8"/><rect class="cls-122" x="548.6" y="34.27" width="2.39" height="8"/><rect class="cls-123" x="550.99" y="34.27" width="2.39" height="8"/><rect class="cls-124" x="553.38" y="34.27" width="2.39" height="8"/><rect class="cls-125" x="555.77" y="34.27" width="2.39" height="8"/><rect class="cls-126" x="558.16" y="34.27" width="2.39" height="8"/><rect class="cls-127" x="560.55" y="34.27" width="2.39" height="8"/><rect class="cls-128" x="562.94" y="34.27" width="2.39" height="8"/><rect class="cls-129" x="565.33" y="34.27" width="2.39" height="8"/><rect class="cls-130" x="567.72" y="34.27" width="2.39" height="8"/><rect class="cls-131" x="570.11" y="34.27" width="2.39" height="8"/><rect class="cls-132" x="572.5" y="34.27" width="2.39" height="8"/><rect class="cls-133" x="574.89" y="34.27" width="2.39" height="8"/><rect class="cls-134" x="577.27" y="34.27" width="2.39" height="8"/><rect class="cls-135" x="579.66" y="34.27" width="2.39" height="8"/><rect class="cls-136" x="582.05" y="34.27" width="2.39" height="8"/><rect class="cls-137" x="584.44" y="34.27" width="2.39" height="8"/><rect class="cls-138" x="586.83" y="34.27" width="2.39" height="8"/><rect class="cls-139" x="589.22" y="34.27" width="2.39" height="8"/><rect class="cls-140" x="591.61" y="34.27" width="2.39" height="8"/><rect class="cls-141" x="594" y="34.27" width="2.39" height="8"/><rect class="cls-142" x="596.39" y="34.27" width="2.39" height="8"/><rect class="cls-143" x="598.78" y="34.27" width="2.39" height="8"/><rect class="cls-144" x="601.17" y="34.27" width="2.39" height="8"/><rect class="cls-145" x="603.56" y="34.27" width="2.39" height="8"/><rect class="cls-146" x="605.95" y="34.27" width="2.39" height="8"/><rect class="cls-147" x="608.34" y="34.27" width="2.39" height="8"/><rect class="cls-148" x="610.73" y="34.27" width="2.39" height="8"/><rect class="cls-149" x="613.12" y="34.27" width="2.39" height="8"/><rect class="cls-150" x="615.51" y="34.27" width="2.39" height="8"/><rect class="cls-151" x="617.9" y="34.27" width="2.39" height="8"/><rect class="cls-152" x="620.29" y="34.27" width="2.39" height="8"/><rect class="cls-153" x="622.67" y="34.27" width="2.39" height="8"/><rect class="cls-154" x="625.06" y="34.27" width="2.39" height="8"/><rect class="cls-155" x="627.45" y="34.27" width="2.39" height="8"/><rect class="cls-156" x="629.84" y="34.27" width="2.39" height="8"/><rect class="cls-157" x="632.23" y="34.27" width="2.39" height="8"/><rect class="cls-158" x="634.62" y="34.27" width="2.39" height="8"/><rect class="cls-159" x="637.01" y="34.27" width="2.39" height="8"/><rect class="cls-160" x="639.4" y="34.27" width="2.39" height="8"/><rect class="cls-161" x="641.79" y="34.27" width="2.39" height="8"/><rect class="cls-162" x="644.18" y="34.27" width="2.39" height="8"/><rect class="cls-163" x="646.57" y="34.27" width="2.39" height="8"/><rect class="cls-164" x="648.96" y="34.27" width="2.39" height="8"/><rect class="cls-165" x="651.35" y="34.27" width="2.39" height="8"/><rect class="cls-166" x="653.74" y="34.27" width="2.39" height="8"/><rect class="cls-167" x="656.13" y="34.27" width="2.39" height="8"/><rect class="cls-168" x="658.52" y="34.27" width="2.39" height="8"/><rect class="cls-169" x="660.91" y="34.27" width="2.39" height="8"/><rect class="cls-170" x="663.3" y="34.27" width="2.39" height="8"/><rect class="cls-171" x="665.69" y="34.27" width="2.39" height="8"/><rect class="cls-172" x="668.07" y="34.27" width="2.39" height="8"/><rect class="cls-173" x="670.46" y="34.27" width="2.39" height="8"/><rect class="cls-174" x="672.85" y="34.27" width="2.39" height="8"/><rect class="cls-175" x="675.24" y="34.27" width="2.39" height="8"/><rect class="cls-176" x="677.63" y="34.27" width="2.39" height="8"/><rect class="cls-177" x="680.02" y="34.27" width="2.39" height="8"/><rect class="cls-178" x="682.41" y="34.27" width="2.39" height="8"/><rect class="cls-179" x="684.8" y="34.27" width="2.39" height="8"/><rect class="cls-180" x="687.19" y="34.27" width="2.39" height="8"/><rect class="cls-181" x="689.58" y="34.27" width="2.39" height="8"/><rect class="cls-182" x="691.97" y="34.27" width="2.39" height="8"/><rect class="cls-183" x="694.36" y="34.27" width="2.39" height="8"/><rect class="cls-184" x="696.75" y="34.27" width="2.39" height="8"/><rect class="cls-185" x="699.14" y="34.27" width="2.39" height="8"/><rect class="cls-186" x="701.53" y="34.27" width="2.39" height="8"/><rect class="cls-187" x="703.92" y="34.27" width="2.39" height="8"/><rect class="cls-188" x="706.31" y="34.27" width="2.39" height="8"/><rect class="cls-189" x="708.7" y="34.27" width="2.39" height="8"/><rect class="cls-190" x="711.09" y="34.27" width="2.39" height="8"/><rect class="cls-191" x="713.47" y="34.27" width="2.39" height="8"/><rect class="cls-192" x="715.86" y="34.27" width="2.39" height="8"/><rect class="cls-193" x="718.25" y="34.27" width="2.39" height="8"/><rect class="cls-194" x="720.64" y="34.27" width="2.39" height="8"/><rect class="cls-195" x="723.03" y="34.27" width="2.39" height="8"/><rect class="cls-196" x="725.42" y="34.27" width="2.39" height="8"/><rect class="cls-197" x="727.81" y="34.27" width="2.39" height="8"/><rect class="cls-198" x="730.2" y="34.27" width="2.39" height="8"/><rect class="cls-199" x="732.59" y="34.27" width="2.39" height="8"/><rect class="cls-200" x="734.98" y="34.27" width="2.39" height="8"/><rect class="cls-201" x="737.37" y="34.27" width="2.39" height="8"/><rect class="cls-202" x="739.76" y="34.27" width="2.39" height="8"/><rect class="cls-203" x="742.15" y="34.27" width="2.39" height="8"/><rect class="cls-204" x="744.54" y="34.27" width="2.39" height="8"/><rect class="cls-205" x="746.93" y="34.27" width="2.39" height="8"/><rect class="cls-206" x="749.32" y="34.27" width="2.39" height="8"/><rect class="cls-207" x="751.71" y="34.27" width="2.39" height="8"/><rect class="cls-208" x="754.1" y="34.27" width="2.39" height="8"/><rect class="cls-209" x="756.49" y="34.27" width="2.39" height="8"/><rect class="cls-210" x="758.87" y="34.27" width="2.39" height="8"/><rect class="cls-211" x="761.26" y="34.27" width="2.39" height="8"/><rect class="cls-212" x="763.65" y="34.27" width="2.39" height="8"/><rect class="cls-213" x="766.04" y="34.27" width="2.39" height="8"/><rect class="cls-214" x="768.43" y="34.27" width="2.39" height="8"/><rect class="cls-215" x="770.82" y="34.27" width="2.39" height="8"/><rect class="cls-216" x="773.21" y="34.27" width="2.39" height="8"/><rect class="cls-217" x="775.6" y="34.27" width="2.39" height="8"/><rect class="cls-218" x="777.99" y="34.27" width="2.39" height="8"/><rect class="cls-219" x="780.38" y="34.27" width="2.39" height="8"/><rect class="cls-220" x="782.77" y="34.27" width="2.39" height="8"/><rect class="cls-221" x="785.16" y="34.27" width="2.39" height="8"/><rect class="cls-222" x="787.55" y="34.27" width="2.39" height="8"/><rect class="cls-223" x="789.94" y="34.27" width="2.39" height="8"/><rect class="cls-224" x="792.33" y="34.27" width="2.39" height="8"/><rect class="cls-225" x="794.72" y="34.27" width="2.39" height="8"/><rect class="cls-226" x="797.11" y="34.27" width="2.39" height="8"/><rect class="cls-227" x="799.5" y="34.27" width="2.39" height="8"/><rect class="cls-228" x="801.89" y="34.27" width="2.39" height="8"/><rect class="cls-229" x="804.27" y="34.27" width="2.39" height="8"/><rect class="cls-230" x="806.66" y="34.27" width="2.39" height="8"/><rect class="cls-231" x="809.05" y="34.27" width="2.39" height="8"/><rect class="cls-232" x="811.44" y="34.27" width="2.39" height="8"/><rect class="cls-233" x="813.83" y="34.27" width="2.39" height="8"/><rect class="cls-234" x="816.22" y="34.27" width="2.39" height="8"/><rect class="cls-235" x="818.61" y="34.27" width="2.39" height="8"/><rect class="cls-236" x="821" y="34.27" width="2.39" height="8"/><rect class="cls-237" x="823.39" y="34.27" width="2.39" height="8"/><rect class="cls-238" x="825.78" y="34.27" width="2.39" height="8"/><rect class="cls-239" x="828.17" y="34.27" width="2.39" height="8"/><rect class="cls-240" x="830.56" y="34.27" width="2.39" height="8"/><rect class="cls-241" x="832.95" y="34.27" width="2.39" height="8"/><rect class="cls-242" x="835.34" y="34.27" width="2.39" height="8"/><rect class="cls-243" x="837.73" y="34.27" width="2.39" height="8"/><rect class="cls-244" x="840.12" y="34.27" width="2.39" height="8"/><rect class="cls-245" x="842.51" y="34.27" width="2.39" height="8"/><rect class="cls-245" x="844.9" y="34.27" width="2.43" height="8"/><rect class="cls-244" x="847.32" y="34.27" width="2.43" height="8"/><rect class="cls-243" x="849.75" y="34.27" width="2.43" height="8"/><rect class="cls-242" x="852.17" y="34.27" width="2.43" height="8"/><rect class="cls-241" x="854.6" y="34.27" width="2.43" height="8"/><rect class="cls-240" x="857.03" y="34.27" width="2.43" height="8"/><rect class="cls-239" x="859.45" y="34.27" width="2.43" height="8"/><rect class="cls-238" x="861.88" y="34.27" width="2.43" height="8"/><rect class="cls-237" x="864.31" y="34.27" width="2.43" height="8"/><rect class="cls-236" x="866.73" y="34.27" width="2.43" height="8"/><rect class="cls-235" x="869.16" y="34.27" width="2.43" height="8"/><rect class="cls-234" x="871.58" y="34.27" width="2.43" height="8"/><rect class="cls-233" x="874.01" y="34.27" width="2.43" height="8"/><rect class="cls-232" x="876.44" y="34.27" width="2.43" height="8"/><rect class="cls-231" x="878.86" y="34.27" width="2.43" height="8"/><rect class="cls-230" x="881.29" y="34.27" width="2.43" height="8"/><rect class="cls-229" x="883.72" y="34.27" width="2.43" height="8"/><rect class="cls-228" x="886.14" y="34.27" width="2.43" height="8"/><rect class="cls-227" x="888.57" y="34.27" width="2.43" height="8"/><rect class="cls-226" x="890.99" y="34.27" width="2.43" height="8"/><rect class="cls-225" x="893.42" y="34.27" width="2.43" height="8"/><rect class="cls-224" x="895.85" y="34.27" width="2.43" height="8"/><rect class="cls-223" x="898.27" y="34.27" width="2.43" height="8"/><rect class="cls-222" x="900.7" y="34.27" width="2.43" height="8"/><rect class="cls-221" x="903.13" y="34.27" width="2.43" height="8"/><rect class="cls-220" x="905.55" y="34.27" width="2.43" height="8"/><rect class="cls-219" x="907.98" y="34.27" width="2.43" height="8"/><rect class="cls-218" x="910.4" y="34.27" width="2.43" height="8"/><rect class="cls-217" x="912.83" y="34.27" width="2.43" height="8"/><rect class="cls-216" x="915.26" y="34.27" width="2.43" height="8"/><rect class="cls-215" x="917.68" y="34.27" width="2.43" height="8"/><rect class="cls-214" x="920.11" y="34.27" width="2.43" height="8"/><rect class="cls-213" x="922.54" y="34.27" width="2.43" height="8"/><rect class="cls-212" x="924.96" y="34.27" width="2.43" height="8"/><rect class="cls-211" x="927.39" y="34.27" width="2.43" height="8"/><rect class="cls-210" x="929.81" y="34.27" width="2.43" height="8"/><rect class="cls-209" x="932.24" y="34.27" width="2.43" height="8"/><rect class="cls-208" x="934.67" y="34.27" width="2.43" height="8"/><rect class="cls-207" x="937.09" y="34.27" width="2.43" height="8"/><rect class="cls-206" x="939.52" y="34.27" width="2.43" height="8"/><rect class="cls-205" x="941.95" y="34.27" width="2.43" height="8"/><rect class="cls-204" x="944.37" y="34.27" width="2.43" height="8"/><rect class="cls-203" x="946.8" y="34.27" width="2.43" height="8"/><rect class="cls-202" x="949.22" y="34.27" width="2.43" height="8"/><rect class="cls-201" x="951.65" y="34.27" width="2.43" height="8"/><rect class="cls-200" x="954.08" y="34.27" width="2.43" height="8"/><rect class="cls-199" x="956.5" y="34.27" width="2.43" height="8"/><rect class="cls-198" x="958.93" y="34.27" width="2.43" height="8"/><rect class="cls-197" x="961.36" y="34.27" width="2.43" height="8"/><rect class="cls-196" x="963.78" y="34.27" width="2.43" height="8"/><rect class="cls-195" x="966.21" y="34.27" width="2.43" height="8"/><rect class="cls-194" x="968.63" y="34.27" width="2.43" height="8"/><rect class="cls-193" x="971.06" y="34.27" width="2.43" height="8"/><rect class="cls-192" x="973.49" y="34.27" width="2.43" height="8"/><rect class="cls-191" x="975.91" y="34.27" width="2.43" height="8"/><rect class="cls-190" x="978.34" y="34.27" width="2.43" height="8"/><rect class="cls-189" x="980.77" y="34.27" width="2.43" height="8"/><rect class="cls-188" x="983.19" y="34.27" width="2.43" height="8"/><rect class="cls-187" x="985.62" y="34.27" width="2.43" height="8"/><rect class="cls-186" x="988.04" y="34.27" width="2.43" height="8"/><rect class="cls-185" x="990.47" y="34.27" width="2.43" height="8"/><rect class="cls-184" x="992.9" y="34.27" width="2.43" height="8"/><rect class="cls-183" x="995.32" y="34.27" width="2.43" height="8"/><rect class="cls-182" x="997.75" y="34.27" width="2.43" height="8"/><rect class="cls-181" x="1000.17" y="34.27" width="2.43" height="8"/><rect class="cls-180" x="1002.6" y="34.27" width="2.43" height="8"/><rect class="cls-179" x="1005.03" y="34.27" width="2.43" height="8"/><rect class="cls-178" x="1007.45" y="34.27" width="2.43" height="8"/><rect class="cls-177" x="1009.88" y="34.27" width="2.43" height="8"/><rect class="cls-176" x="1012.31" y="34.27" width="2.43" height="8"/><rect class="cls-175" x="1014.73" y="34.27" width="2.43" height="8"/><rect class="cls-174" x="1017.16" y="34.27" width="2.43" height="8"/><rect class="cls-173" x="1019.58" y="34.27" width="2.43" height="8"/><rect class="cls-172" x="1022.01" y="34.27" width="2.43" height="8"/><rect class="cls-171" x="1024.44" y="34.27" width="2.43" height="8"/><rect class="cls-170" x="1026.86" y="34.27" width="2.43" height="8"/><rect class="cls-169" x="1029.29" y="34.27" width="2.43" height="8"/><rect class="cls-168" x="1031.72" y="34.27" width="2.43" height="8"/><rect class="cls-167" x="1034.14" y="34.27" width="2.43" height="8"/><rect class="cls-166" x="1036.57" y="34.27" width="2.43" height="8"/><rect class="cls-165" x="1038.99" y="34.27" width="2.43" height="8"/><rect class="cls-164" x="1041.42" y="34.27" width="2.43" height="8"/><rect class="cls-163" x="1043.85" y="34.27" width="2.43" height="8"/><rect class="cls-162" x="1046.27" y="34.27" width="2.43" height="8"/><rect class="cls-161" x="1048.7" y="34.27" width="2.43" height="8"/><rect class="cls-160" x="1051.13" y="34.27" width="2.43" height="8"/><rect class="cls-159" x="1053.55" y="34.27" width="2.43" height="8"/><rect class="cls-158" x="1055.98" y="34.27" width="2.43" height="8"/><rect class="cls-157" x="1058.4" y="34.27" width="2.43" height="8"/><rect class="cls-156" x="1060.83" y="34.27" width="2.43" height="8"/><rect class="cls-155" x="1063.26" y="34.27" width="2.43" height="8"/><rect class="cls-154" x="1065.68" y="34.27" width="2.43" height="8"/><rect class="cls-153" x="1068.11" y="34.27" width="2.43" height="8"/><rect class="cls-152" x="1070.54" y="34.27" width="2.43" height="8"/><rect class="cls-151" x="1072.96" y="34.27" width="2.43" height="8"/><rect class="cls-150" x="1075.39" y="34.27" width="2.43" height="8"/><rect class="cls-149" x="1077.81" y="34.27" width="2.43" height="8"/><rect class="cls-148" x="1080.24" y="34.27" width="2.43" height="8"/><rect class="cls-147" x="1082.67" y="34.27" width="2.43" height="8"/><rect class="cls-146" x="1085.09" y="34.27" width="2.43" height="8"/><rect class="cls-145" x="1087.52" y="34.27" width="2.43" height="8"/><rect class="cls-144" x="1089.95" y="34.27" width="2.43" height="8"/><rect class="cls-143" x="1092.37" y="34.27" width="2.43" height="8"/><rect class="cls-142" x="1094.8" y="34.27" width="2.43" height="8"/><rect class="cls-141" x="1097.22" y="34.27" width="2.43" height="8"/><rect class="cls-140" x="1099.65" y="34.27" width="2.43" height="8"/><rect class="cls-139" x="1102.08" y="34.27" width="2.43" height="8"/><rect class="cls-138" x="1104.5" y="34.27" width="2.43" height="8"/><rect class="cls-137" x="1106.93" y="34.27" width="2.43" height="8"/><rect class="cls-136" x="1109.36" y="34.27" width="2.43" height="8"/><rect class="cls-135" x="1111.78" y="34.27" width="2.43" height="8"/><rect class="cls-134" x="1114.21" y="34.27" width="2.43" height="8"/><rect class="cls-133" x="1116.63" y="34.27" width="2.43" height="8"/><rect class="cls-132" x="1119.06" y="34.27" width="2.43" height="8"/><rect class="cls-131" x="1121.49" y="34.27" width="2.43" height="8"/><rect class="cls-130" x="1123.91" y="34.27" width="2.43" height="8"/><rect class="cls-129" x="1126.34" y="34.27" width="2.43" height="8"/><rect class="cls-128" x="1128.77" y="34.27" width="2.43" height="8"/><rect class="cls-127" x="1131.19" y="34.27" width="2.43" height="8"/><rect class="cls-126" x="1133.62" y="34.27" width="2.43" height="8"/><rect class="cls-125" x="1136.04" y="34.27" width="2.43" height="8"/><rect class="cls-246" x="1138.47" y="34.27" width="2.43" height="8"/><rect class="cls-123" x="1140.9" y="34.27" width="2.43" height="8"/><rect class="cls-122" x="1143.32" y="34.27" width="2.43" height="8"/><rect class="cls-121" x="1145.75" y="34.27" width="2.43" height="8"/><rect class="cls-120" x="1148.18" y="34.27" width="2.43" height="8"/><rect class="cls-119" x="1150.6" y="34.27" width="2.43" height="8"/><rect class="cls-118" x="1153.03" y="34.27" width="2.43" height="8"/><rect class="cls-117" x="1155.45" y="34.27" width="2.43" height="8"/><rect class="cls-116" x="1157.88" y="34.27" width="2.43" height="8"/><rect class="cls-115" x="1160.31" y="34.27" width="2.43" height="8"/><rect class="cls-114" x="1162.73" y="34.27" width="2.43" height="8"/><rect class="cls-113" x="1165.16" y="34.27" width="2.43" height="8"/><rect class="cls-112" x="1167.59" y="34.27" width="2.43" height="8"/><rect class="cls-111" x="1170.01" y="34.27" width="2.43" height="8"/><rect class="cls-110" x="1172.44" y="34.27" width="2.43" height="8"/><rect class="cls-109" x="1174.86" y="34.27" width="2.43" height="8"/><rect class="cls-108" x="1177.29" y="34.27" width="2.43" height="8"/><rect class="cls-107" x="1179.72" y="34.27" width="2.43" height="8"/><rect class="cls-106" x="1182.14" y="34.27" width="2.43" height="8"/><rect class="cls-105" x="1184.57" y="34.27" width="2.43" height="8"/><rect class="cls-104" x="1187" y="34.27" width="2.43" height="8"/><rect class="cls-103" x="1189.42" y="34.27" width="2.43" height="8"/><rect class="cls-102" x="1191.85" y="34.27" width="2.43" height="8"/><rect class="cls-101" x="1194.27" y="34.27" width="2.43" height="8"/><rect class="cls-100" x="1196.7" y="34.27" width="2.43" height="8"/><rect class="cls-99" x="1199.13" y="34.27" width="2.43" height="8"/><rect class="cls-98" x="1201.55" y="34.27" width="2.43" height="8"/><rect class="cls-97" x="1203.98" y="34.27" width="2.43" height="8"/><rect class="cls-96" x="1206.4" y="34.27" width="2.43" height="8"/><rect class="cls-95" x="1208.83" y="34.27" width="2.43" height="8"/><rect class="cls-94" x="1211.26" y="34.27" width="2.43" height="8"/><rect class="cls-93" x="1213.68" y="34.27" width="2.43" height="8"/><rect class="cls-92" x="1216.11" y="34.27" width="2.43" height="8"/><rect class="cls-91" x="1218.54" y="34.27" width="2.43" height="8"/><rect class="cls-90" x="1220.96" y="34.27" width="2.43" height="8"/><rect class="cls-89" x="1223.39" y="34.27" width="2.43" height="8"/><rect class="cls-88" x="1225.81" y="34.27" width="2.43" height="8"/><rect class="cls-87" x="1228.24" y="34.27" width="2.43" height="8"/><rect class="cls-86" x="1230.67" y="34.27" width="2.43" height="8"/><rect class="cls-85" x="1233.09" y="34.27" width="2.43" height="8"/><rect class="cls-84" x="1235.52" y="34.27" width="2.43" height="8"/><rect class="cls-83" x="1237.95" y="34.27" width="2.43" height="8"/><rect class="cls-82" x="1240.37" y="34.27" width="2.43" height="8"/><rect class="cls-81" x="1242.8" y="34.27" width="2.43" height="8"/><rect class="cls-80" x="1245.22" y="34.27" width="2.43" height="8"/><rect class="cls-79" x="1247.65" y="34.27" width="2.43" height="8"/><rect class="cls-78" x="1250.08" y="34.27" width="2.43" height="8"/><rect class="cls-77" x="1252.5" y="34.27" width="2.43" height="8"/><rect class="cls-76" x="1254.93" y="34.27" width="2.43" height="8"/><rect class="cls-75" x="1257.36" y="34.27" width="2.43" height="8"/><rect class="cls-74" x="1259.78" y="34.27" width="2.43" height="8"/><rect class="cls-73" x="1262.21" y="34.27" width="2.43" height="8"/><rect class="cls-72" x="1264.63" y="34.27" width="2.43" height="8"/><rect class="cls-71" x="1267.06" y="34.27" width="2.43" height="8"/><rect class="cls-70" x="1269.49" y="34.27" width="2.43" height="8"/><rect class="cls-69" x="1271.91" y="34.27" width="2.43" height="8"/><rect class="cls-68" x="1274.34" y="34.27" width="2.43" height="8"/><rect class="cls-67" x="1276.77" y="34.27" width="2.43" height="8"/><rect class="cls-66" x="1279.19" y="34.27" width="2.43" height="8"/><rect class="cls-65" x="1281.62" y="34.27" width="2.43" height="8"/><rect class="cls-64" x="1284.04" y="34.27" width="2.43" height="8"/><rect class="cls-63" x="1286.47" y="34.27" width="2.43" height="8"/><rect class="cls-62" x="1288.9" y="34.27" width="2.43" height="8"/><rect class="cls-61" x="1291.32" y="34.27" width="2.43" height="8"/><rect class="cls-60" x="1293.75" y="34.27" width="2.43" height="8"/><rect class="cls-59" x="1296.18" y="34.27" width="2.43" height="8"/><rect class="cls-58" x="1298.6" y="34.27" width="2.43" height="8"/><rect class="cls-57" x="1301.03" y="34.27" width="2.43" height="8"/><rect class="cls-56" x="1303.45" y="34.27" width="2.43" height="8"/><rect class="cls-55" x="1305.88" y="34.27" width="2.43" height="8"/><rect class="cls-54" x="1308.31" y="34.27" width="2.43" height="8"/><rect class="cls-53" x="1310.73" y="34.27" width="2.43" height="8"/><rect class="cls-52" x="1313.16" y="34.27" width="2.43" height="8"/><rect class="cls-51" x="1315.59" y="34.27" width="2.43" height="8"/><rect class="cls-50" x="1318.01" y="34.27" width="2.43" height="8"/><rect class="cls-49" x="1320.44" y="34.27" width="2.43" height="8"/><rect class="cls-48" x="1322.86" y="34.27" width="2.43" height="8"/><rect class="cls-47" x="1325.29" y="34.27" width="2.43" height="8"/><rect class="cls-46" x="1327.72" y="34.27" width="2.43" height="8"/><rect class="cls-45" x="1330.14" y="34.27" width="2.43" height="8"/><rect class="cls-44" x="1332.57" y="34.27" width="2.43" height="8"/><rect class="cls-43" x="1335" y="34.27" width="2.43" height="8"/><rect class="cls-42" x="1337.42" y="34.27" width="2.43" height="8"/><rect class="cls-41" x="1339.85" y="34.27" width="2.43" height="8"/><rect class="cls-40" x="1342.27" y="34.27" width="2.43" height="8"/><rect class="cls-39" x="1344.7" y="34.27" width="2.43" height="8"/><rect class="cls-38" x="1347.13" y="34.27" width="2.43" height="8"/><rect class="cls-37" x="1349.55" y="34.27" width="2.43" height="8"/><rect class="cls-36" x="1351.98" y="34.27" width="2.43" height="8"/><rect class="cls-35" x="1354.41" y="34.27" width="2.43" height="8"/><rect class="cls-34" x="1356.83" y="34.27" width="2.43" height="8"/><rect class="cls-33" x="1359.26" y="34.27" width="2.43" height="8"/><rect class="cls-32" x="1361.68" y="34.27" width="2.43" height="8"/><rect class="cls-31" x="1364.11" y="34.27" width="2.43" height="8"/><rect class="cls-30" x="1366.54" y="34.27" width="2.43" height="8"/><rect class="cls-29" x="1368.96" y="34.27" width="2.43" height="8"/><rect class="cls-28" x="1371.39" y="34.27" width="2.43" height="8"/><rect class="cls-27" x="1373.82" y="34.27" width="2.43" height="8"/><rect class="cls-26" x="1376.24" y="34.27" width="2.43" height="8"/><rect class="cls-25" x="1378.67" y="34.27" width="2.43" height="8"/><rect class="cls-24" x="1381.09" y="34.27" width="2.43" height="8"/><rect class="cls-23" x="1383.52" y="34.27" width="2.43" height="8"/><rect class="cls-22" x="1385.95" y="34.27" width="2.43" height="8"/><rect class="cls-21" x="1388.37" y="34.27" width="2.43" height="8"/><rect class="cls-20" x="1390.8" y="34.27" width="2.43" height="8"/><rect class="cls-19" x="1393.23" y="34.27" width="2.43" height="8"/><rect class="cls-18" x="1395.65" y="34.27" width="2.43" height="8"/><rect class="cls-17" x="1398.08" y="34.27" width="2.43" height="8"/><rect class="cls-16" x="1400.5" y="34.27" width="2.43" height="8"/><rect class="cls-15" x="1402.93" y="34.27" width="2.43" height="8"/><rect class="cls-14" x="1405.36" y="34.27" width="2.43" height="8"/><rect class="cls-13" x="1407.78" y="34.27" width="2.43" height="8"/><rect class="cls-12" x="1410.21" y="34.27" width="2.43" height="8"/><rect class="cls-11" x="1412.64" y="34.27" width="2.43" height="8"/><rect class="cls-10" x="1415.06" y="34.27" width="2.43" height="8"/><rect class="cls-9" x="1417.49" y="34.27" width="2.43" height="8"/><rect class="cls-8" x="1419.91" y="34.27" width="2.43" height="8"/><rect class="cls-7" x="1422.34" y="34.27" width="2.43" height="8"/><rect class="cls-6" x="1424.77" y="34.27" width="2.43" height="8"/><rect class="cls-5" x="1427.19" y="34.27" width="2.43" height="8"/><rect class="cls-4" x="1429.62" y="34.27" width="2.43" height="8"/><rect class="cls-3" x="1432.04" y="34.27" width="2.43" height="8"/><rect class="cls-3" x="1434.47" y="34.27" width="200.99" height="8"/></g></svg>