<?xml version="1.0" encoding="UTF-8"?>
<!DOCTYPE svg PUBLIC "-//W3C//DTD SVG 1.1//EN" "http://www.w3.org/Graphics/SVG/1.1/DTD/svg11.dtd">
<!-- Creator: CorelDRAW 2020 (64-Bit Evaluation Version) -->
<svg xmlns="http://www.w3.org/2000/svg" xml:space="preserve" width="301px" height="320px" version="1.1" style="shape-rendering:geometricPrecision; text-rendering:geometricPrecision; image-rendering:optimizeQuality; fill-rule:evenodd; clip-rule:evenodd"
viewBox="0 0 17.13 18.21"
 xmlns:xlink="http://www.w3.org/1999/xlink"
 xmlns:xodm="http://www.corel.com/coreldraw/odm/2003">
 <defs>
  <style type="text/css">
   <![CDATA[
    .str0 {stroke:#EFB30C;stroke-width:0.24;stroke-miterlimit:10}
    .fil0 {fill:none;fill-rule:nonzero}
    .fil1 {fill:#263674;fill-rule:nonzero}
   ]]>
  </style>
 </defs>
 <g id="Layer_x0020_1">
  <metadata id="CorelCorpID_0Corel-Layer"/>
  <path class="fil0 str0" d="M14.13 7.87c-0.23,2.98 -2.68,5.26 -5.57,5.26 -0.14,0 -0.28,-0.01 -0.43,-0.02 -3.07,-0.24 -5.37,-2.98 -5.13,-6.11 0.24,-3.13 2.92,-5.48 5.99,-5.24 3.07,0.24 5.37,2.98 5.14,6.11zm0.85 -5.61c-0.55,-0.59 -0.9,-1.34 -1,-2.14l-10.83 0c-0.1,0.8 -0.45,1.55 -1,2.14 -0.56,0.59 -1.25,0.97 -2.02,1.11 0.31,3.88 1.89,10.35 8.43,14.69 6.54,-4.34 8.12,-10.81 8.44,-14.69 -0.77,-0.14 -1.47,-0.52 -2.02,-1.11z"/>
  <path class="fil1" d="M11.46 6.62l-3.45 3.01c-0.12,0.1 -0.26,0.15 -0.4,0.15 -0.19,0 -0.36,-0.07 -0.48,-0.22l-1.44 -1.71c-0.22,-0.26 -0.2,-0.67 0.07,-0.9 0.27,-0.23 0.66,-0.2 0.89,0.07l1.02 1.22 2.98 -2.6c0.26,-0.23 0.65,-0.19 0.88,0.07 0.23,0.27 0.2,0.68 -0.07,0.91z"/>
 </g>
</svg>
