<?xml version="1.0" encoding="UTF-8"?>
<!DOCTYPE svg PUBLIC "-//W3C//DTD SVG 1.1//EN" "http://www.w3.org/Graphics/SVG/1.1/DTD/svg11.dtd">
<!-- Creator: CorelDRAW 2020 (64-Bit Evaluation Version) -->
<svg xmlns="http://www.w3.org/2000/svg" xml:space="preserve" width="24px" height="24px" version="1.1" style="shape-rendering:geometricPrecision; text-rendering:geometricPrecision; image-rendering:optimizeQuality; fill-rule:evenodd; clip-rule:evenodd"
viewBox="0 0 1.64 1.65"
 xmlns:xlink="http://www.w3.org/1999/xlink"
 xmlns:xodm="http://www.corel.com/coreldraw/odm/2003">
 <defs>
  <style type="text/css">
   <![CDATA[
    .fil1 {fill:white;fill-rule:nonzero}
    .fil0 {fill:url(#id0);fill-rule:nonzero}
   ]]>
  </style>
  <linearGradient id="id0" gradientUnits="userSpaceOnUse" x1="0" y1="0" x2="0" y2="1.65">
   <stop offset="0" style="stop-opacity:1; stop-color:#F9AA4B"/>
   <stop offset="1" style="stop-opacity:1; stop-color:#F7931A"/>
  </linearGradient>
 </defs>
 <g id="Layer_x0020_1">
  <metadata id="CorelCorpID_0Corel-Layer"/>
  <g id="_2479096468400">
   <g id="g16">
    <path id="coin" class="fil0" d="M1.62 1.02c-0.11,0.44 -0.56,0.71 -1,0.6 -0.44,-0.11 -0.71,-0.56 -0.6,-1 0.11,-0.44 0.56,-0.71 1,-0.6 0.44,0.11 0.71,0.56 0.6,1l0 0z"/>
    <path id="symbol" class="fil1" d="M1.18 0.71c0.02,-0.11 -0.06,-0.17 -0.18,-0.21l0.04 -0.15 -0.09 -0.02 -0.04 0.14c-0.02,0 -0.04,-0.01 -0.07,-0.02l0.04 -0.14 -0.09 -0.02 -0.04 0.14c-0.02,0 -0.04,0 -0.06,-0.01l0 0 -0.12 -0.03 -0.02 0.1c0,0 0.06,0.01 0.06,0.01 0.04,0.01 0.04,0.04 0.04,0.05l-0.04 0.17c0,0 0.01,0.01 0.01,0.01 0,0 -0.01,0 -0.01,-0.01l-0.06 0.24c0,0.01 -0.01,0.03 -0.04,0.02 0,0 -0.07,-0.01 -0.07,-0.01l-0.04 0.1 0.12 0.03c0.02,0 0.04,0.01 0.06,0.02l-0.04 0.15 0.09 0.02 0.04 -0.15c0.03,0.01 0.05,0.01 0.07,0.02l-0.03 0.15 0.09 0.02 0.03 -0.15c0.16,0.03 0.27,0.02 0.32,-0.12 0.04,-0.12 0,-0.18 -0.08,-0.22 0.06,-0.02 0.1,-0.05 0.11,-0.13l0 0zm-0.2 0.28c-0.03,0.12 -0.22,0.06 -0.28,0.04l0.05 -0.2c0.06,0.02 0.26,0.05 0.23,0.16zm0.03 -0.29c-0.03,0.11 -0.19,0.05 -0.24,0.04l0.05 -0.18c0.05,0.01 0.21,0.04 0.19,0.14l0 0z"/>
   </g>
  </g>
 </g>
</svg>
