<?xml version="1.0" encoding="UTF-8"?>
<!DOCTYPE svg PUBLIC "-//W3C//DTD SVG 1.1//EN" "http://www.w3.org/Graphics/SVG/1.1/DTD/svg11.dtd">
<!-- Creator: CorelDRAW 2020 (64-Bit Evaluation Version) -->
<svg xmlns="http://www.w3.org/2000/svg" xml:space="preserve" width="24px" height="24px" version="1.1" style="shape-rendering:geometricPrecision; text-rendering:geometricPrecision; image-rendering:optimizeQuality; fill-rule:evenodd; clip-rule:evenodd"
viewBox="0 0 2.12 2.12"
 xmlns:xlink="http://www.w3.org/1999/xlink"
 xmlns:xodm="http://www.corel.com/coreldraw/odm/2003">
 <defs>
  <style type="text/css">
   <![CDATA[
    .fil1 {fill:white;fill-rule:nonzero}
    .fil0 {fill:url(#id0);fill-rule:nonzero}
    .fil4 {fill:url(#id1);fill-rule:nonzero}
    .fil2 {fill:url(#id2);fill-rule:nonzero}
    .fil3 {fill:url(#id3);fill-rule:nonzero}
   ]]>
  </style>
  <linearGradient id="id0" gradientUnits="userSpaceOnUse" x1="1.4" y1="-11.02" x2="0.25" y2="0.46">
   <stop offset="0" style="stop-opacity:1; stop-color:#00FFA3"/>
   <stop offset="1" style="stop-opacity:1; stop-color:#DC1FFF"/>
  </linearGradient>
  <linearGradient id="id1" gradientUnits="userSpaceOnUse" xlink:href="#id0" x1="1.4" y1="-0.57" x2="0.74" y2="0.71">
  </linearGradient>
  <linearGradient id="id2" gradientUnits="userSpaceOnUse" xlink:href="#id0" x1="1.55" y1="-0.5" x2="0.89" y2="0.79">
  </linearGradient>
  <linearGradient id="id3" gradientUnits="userSpaceOnUse" xlink:href="#id0" x1="1.26" y1="-0.65" x2="0.59" y2="0.63">
  </linearGradient>
 </defs>
 <g id="Layer_x0020_1">
  <metadata id="CorelCorpID_0Corel-Layer"/>
  <g id="_2478909560032">
   <circle class="fil0" cx="1.06" cy="1.06" r="1.06"/>
   <circle class="fil1" cx="1.06" cy="1.06" r="0.91"/>
  </g>
  <g id="_2478909560272">
   <path class="fil2" d="M0.65 1.31c0.01,-0.01 0.02,-0.01 0.03,-0.01l0.97 0c0.02,0 0.02,0.02 0.01,0.03l-0.19 0.19c-0.01,0.01 -0.02,0.02 -0.03,0.02l-0.97 0c-0.02,0 -0.02,-0.03 -0.01,-0.04l0.19 -0.19z"/>
   <path class="fil3" d="M0.65 0.6c0.01,-0.01 0.02,-0.02 0.03,-0.02l0.97 0c0.02,0 0.02,0.03 0.01,0.04l-0.19 0.19c-0.01,0.01 -0.02,0.01 -0.03,0.01l-0.97 0c-0.02,0 -0.02,-0.02 -0.01,-0.03l0.19 -0.19z"/>
   <path class="fil4" d="M1.47 0.95c-0.01,-0.01 -0.02,-0.01 -0.03,-0.01l-0.97 0c-0.02,0 -0.02,0.02 -0.01,0.03l0.19 0.19c0.01,0.01 0.02,0.02 0.03,0.02l0.97 0c0.02,0 0.02,-0.03 0.01,-0.04l-0.19 -0.19z"/>
  </g>
 </g>
</svg>
