<?xml version="1.0" encoding="UTF-8"?>
<!DOCTYPE svg PUBLIC "-//W3C//DTD SVG 1.1//EN" "http://www.w3.org/Graphics/SVG/1.1/DTD/svg11.dtd">
<!-- Creator: CorelDRAW 2020 (64-Bit Evaluation Version) -->
<svg xmlns="http://www.w3.org/2000/svg" xml:space="preserve" width="60px" height="60px" version="1.1" style="shape-rendering:geometricPrecision; text-rendering:geometricPrecision; image-rendering:optimizeQuality; fill-rule:evenodd; clip-rule:evenodd"
viewBox="0 0 0.37 0.37"
 xmlns:xlink="http://www.w3.org/1999/xlink"
 xmlns:xodm="http://www.corel.com/coreldraw/odm/2003">
 <defs>
  <style type="text/css">
   <![CDATA[
    .fil1 {fill:#263674}
    .fil0 {fill:#EFB30C}
   ]]>
  </style>
 </defs>
 <g id="Layer_x0020_1">
  <metadata id="CorelCorpID_0Corel-Layer"/>
  <g id="_2237347536496">
   <path class="fil0" d="M0.06 0.15c0,0.01 -0.01,0.02 -0.01,0.03 0,0.07 0.06,0.13 0.13,0.13 0.08,0 0.13,-0.06 0.13,-0.13 0,-0.01 0,-0.02 0,-0.03l-0.11 0.06c-0.01,0 -0.02,0 -0.03,0l-0.11 -0.06z"/>
   <path class="fil1" d="M0.17 0l-0.17 0.09c0,0 0,0.01 0.01,0.01l0.01 0 0 0.15c-0.01,0.01 -0.02,0.02 -0.02,0.03 0,0.01 0.01,0.02 0.02,0.02l-0.01 0.07 0.03 0 -0.01 -0.07c0.01,0 0.02,-0.01 0.02,-0.02 0,-0.01 -0.01,-0.02 -0.02,-0.03l0 -0.14 0.14 0.07c0.01,0 0.02,0.01 0.03,0l0.16 -0.08c0.01,-0.01 0.01,-0.01 0,-0.01l-0.16 -0.09c-0.01,0 -0.02,0 -0.03,0z"/>
  </g>
 </g>
</svg>
