<?xml version="1.0" encoding="UTF-8"?>
<!DOCTYPE svg PUBLIC "-//W3C//DTD SVG 1.1//EN" "http://www.w3.org/Graphics/SVG/1.1/DTD/svg11.dtd">
<!-- Creator: CorelDRAW 2020 (64-Bit Evaluation Version) -->
<svg xmlns="http://www.w3.org/2000/svg" xml:space="preserve" width="500px" height="148px" version="1.1" style="shape-rendering:geometricPrecision; text-rendering:geometricPrecision; image-rendering:optimizeQuality; fill-rule:evenodd; clip-rule:evenodd"
viewBox="0 0 167.98 49.85"
 xmlns:xlink="http://www.w3.org/1999/xlink"
 xmlns:xodm="http://www.corel.com/coreldraw/odm/2003">
 <defs>
  <style type="text/css">
   <![CDATA[
    .fil0 {fill:black;fill-rule:nonzero}
    .fil1 {fill:white;fill-rule:nonzero}
   ]]>
  </style>
 </defs>
 <g id="Layer_x0020_1">
  <metadata id="CorelCorpID_0Corel-Layer"/>
  <g id="_2646111855280">
   <g>
    <path class="fil0" d="M161.76 49.85l-155.54 0c-3.42,0 -6.22,-2.8 -6.22,-6.23l0 -37.39c0,-3.43 2.8,-6.23 6.22,-6.23l155.54 0c3.42,0 6.22,2.8 6.22,6.23l0 37.39c0,3.43 -2.8,6.23 -6.22,6.23l0 0zm0 0l0 0 0 0z"/>
   </g>
   <path class="fil1" d="M58.63 17.81l0 -6.82 2.35 0c0.53,0 0.94,0.03 1.22,0.1 0.39,0.09 0.72,0.25 1,0.49 0.36,0.3 0.63,0.69 0.8,1.16 0.18,0.47 0.27,1.02 0.27,1.62 0,0.52 -0.06,0.98 -0.18,1.38 -0.12,0.4 -0.28,0.73 -0.46,0.99 -0.19,0.27 -0.4,0.47 -0.63,0.62 -0.22,0.15 -0.49,0.27 -0.81,0.34 -0.32,0.08 -0.68,0.12 -1.1,0.12l-2.46 0zm0.91 -0.8l1.45 0c0.45,0 0.8,-0.04 1.06,-0.13 0.25,-0.08 0.46,-0.2 0.61,-0.35 0.21,-0.21 0.38,-0.5 0.5,-0.86 0.12,-0.37 0.18,-0.81 0.18,-1.32 0,-0.72 -0.12,-1.26 -0.35,-1.65 -0.24,-0.38 -0.52,-0.64 -0.85,-0.77 -0.25,-0.09 -0.64,-0.14 -1.17,-0.14l-1.43 0 0 5.22z"/>
   <path id="1" class="fil1" d="M65.09 15.34c0,-0.91 0.26,-1.59 0.77,-2.03 0.42,-0.37 0.94,-0.55 1.55,-0.55 0.68,0 1.23,0.22 1.67,0.67 0.43,0.44 0.64,1.06 0.64,1.84 0,0.63 -0.09,1.13 -0.28,1.5 -0.19,0.36 -0.47,0.64 -0.84,0.84 -0.36,0.2 -0.76,0.3 -1.19,0.3 -0.69,0 -1.25,-0.22 -1.68,-0.66 -0.42,-0.44 -0.64,-1.08 -0.64,-1.91zm0.86 0c0,0.63 0.14,1.1 0.41,1.42 0.28,0.31 0.63,0.47 1.05,0.47 0.42,0 0.76,-0.16 1.04,-0.47 0.28,-0.32 0.42,-0.8 0.42,-1.45 0,-0.61 -0.14,-1.07 -0.42,-1.38 -0.28,-0.32 -0.63,-0.47 -1.04,-0.47 -0.42,0 -0.77,0.15 -1.05,0.46 -0.27,0.32 -0.41,0.79 -0.41,1.42z"/>
   <path id="2" class="fil1" d="M71.59 17.81l-1.49 -4.94 0.88 0 0.79 2.85 0.28 1.06c0.01,-0.05 0.09,-0.39 0.25,-1.02l0.78 -2.89 0.86 0 0.75 2.87 0.24 0.94 0.28 -0.96 0.86 -2.85 0.81 0 -1.55 4.94 -0.87 0 -0.78 -2.96 -0.2 -0.84 -1 3.8 -0.89 0z"/>
   <path id="3" class="fil1" d="M77.58 17.81l0 -4.94 0.76 0 0 0.7c0.36,-0.54 0.88,-0.81 1.57,-0.81 0.3,0 0.57,0.06 0.82,0.16 0.25,0.11 0.43,0.25 0.56,0.42 0.12,0.18 0.21,0.38 0.26,0.62 0.03,0.16 0.04,0.43 0.04,0.81l0 3.04 -0.83 0 0 -3c0,-0.35 -0.04,-0.6 -0.1,-0.77 -0.07,-0.17 -0.18,-0.3 -0.35,-0.4 -0.16,-0.1 -0.36,-0.15 -0.58,-0.15 -0.35,0 -0.66,0.11 -0.92,0.33 -0.26,0.23 -0.39,0.66 -0.39,1.29l0 2.7 -0.84 0z"/>
   <polygon id="4" class="fil1" points="82.86,17.81 82.86,10.99 83.7,10.99 83.7,17.81 "/>
   <path id="5" class="fil1" d="M84.68 15.34c0,-0.91 0.26,-1.59 0.77,-2.03 0.42,-0.37 0.94,-0.55 1.55,-0.55 0.68,0 1.24,0.22 1.67,0.67 0.43,0.44 0.64,1.06 0.64,1.84 0,0.63 -0.09,1.13 -0.28,1.5 -0.19,0.36 -0.47,0.64 -0.84,0.84 -0.36,0.2 -0.76,0.3 -1.19,0.3 -0.69,0 -1.25,-0.22 -1.68,-0.66 -0.42,-0.44 -0.64,-1.08 -0.64,-1.91zm0.86 0c0,0.63 0.14,1.1 0.42,1.42 0.27,0.31 0.62,0.47 1.04,0.47 0.42,0 0.76,-0.16 1.04,-0.47 0.28,-0.32 0.42,-0.8 0.42,-1.45 0,-0.61 -0.14,-1.07 -0.42,-1.38 -0.28,-0.32 -0.63,-0.47 -1.04,-0.47 -0.42,0 -0.77,0.15 -1.04,0.46 -0.28,0.32 -0.42,0.79 -0.42,1.42z"/>
   <path id="6" class="fil1" d="M93.53 17.19c-0.32,0.27 -0.62,0.45 -0.9,0.56 -0.29,0.11 -0.6,0.16 -0.93,0.16 -0.54,0 -0.96,-0.13 -1.25,-0.39 -0.29,-0.27 -0.44,-0.6 -0.44,-1.02 0,-0.24 0.06,-0.46 0.17,-0.66 0.11,-0.2 0.25,-0.36 0.43,-0.48 0.18,-0.12 0.38,-0.21 0.6,-0.27 0.17,-0.04 0.42,-0.09 0.75,-0.13 0.67,-0.08 1.18,-0.17 1.49,-0.28 0.01,-0.12 0.01,-0.19 0.01,-0.22 0,-0.34 -0.08,-0.58 -0.24,-0.72 -0.21,-0.19 -0.53,-0.28 -0.95,-0.28 -0.4,0 -0.69,0.07 -0.88,0.2 -0.19,0.14 -0.33,0.39 -0.42,0.74l-0.82 -0.11c0.08,-0.36 0.2,-0.64 0.37,-0.86 0.17,-0.21 0.42,-0.38 0.74,-0.49 0.33,-0.12 0.7,-0.18 1.13,-0.18 0.42,0 0.77,0.05 1.03,0.15 0.26,0.1 0.46,0.22 0.58,0.38 0.13,0.15 0.21,0.34 0.27,0.57 0.02,0.14 0.04,0.4 0.04,0.77l0 1.11c0,0.77 0.01,1.27 0.05,1.47 0.03,0.21 0.1,0.41 0.2,0.6l-0.87 0c-0.09,-0.18 -0.14,-0.38 -0.16,-0.62zm-0.07 -1.86c-0.31,0.13 -0.76,0.23 -1.37,0.32 -0.35,0.05 -0.59,0.1 -0.74,0.16 -0.14,0.07 -0.25,0.16 -0.33,0.27 -0.07,0.12 -0.11,0.26 -0.11,0.4 0,0.22 0.08,0.41 0.25,0.56 0.17,0.14 0.42,0.22 0.74,0.22 0.33,0 0.61,-0.07 0.87,-0.21 0.25,-0.14 0.43,-0.34 0.55,-0.58 0.09,-0.19 0.13,-0.47 0.13,-0.83l0.01 -0.31z"/>
   <path id="7" class="fil1" d="M98.79 17.81l0 -0.63c-0.32,0.49 -0.78,0.73 -1.39,0.73 -0.39,0 -0.75,-0.1 -1.08,-0.32 -0.33,-0.22 -0.59,-0.52 -0.77,-0.91 -0.18,-0.39 -0.27,-0.83 -0.27,-1.34 0,-0.49 0.08,-0.94 0.25,-1.34 0.16,-0.4 0.41,-0.71 0.74,-0.92 0.32,-0.21 0.69,-0.32 1.1,-0.32 0.29,0 0.56,0.06 0.79,0.19 0.23,0.13 0.42,0.29 0.57,0.49l0 -2.45 0.84 0 0 6.82 -0.78 0zm-2.65 -2.47c0,0.64 0.13,1.11 0.4,1.42 0.27,0.31 0.58,0.47 0.95,0.47 0.36,0 0.67,-0.15 0.93,-0.45 0.26,-0.3 0.38,-0.75 0.38,-1.37 0,-0.67 -0.13,-1.16 -0.39,-1.48 -0.26,-0.32 -0.58,-0.47 -0.96,-0.47 -0.38,0 -0.69,0.15 -0.94,0.45 -0.25,0.3 -0.37,0.78 -0.37,1.43z"/>
   <path id="8" class="fil1" d="M103.22 15.34c0,-0.91 0.26,-1.59 0.77,-2.03 0.42,-0.37 0.94,-0.55 1.55,-0.55 0.68,0 1.24,0.22 1.67,0.67 0.43,0.44 0.64,1.06 0.64,1.84 0,0.63 -0.09,1.13 -0.28,1.5 -0.19,0.36 -0.47,0.64 -0.84,0.84 -0.36,0.2 -0.76,0.3 -1.19,0.3 -0.69,0 -1.25,-0.22 -1.68,-0.66 -0.42,-0.44 -0.64,-1.08 -0.64,-1.91zm0.86 0c0,0.63 0.14,1.1 0.42,1.42 0.27,0.31 0.62,0.47 1.04,0.47 0.42,0 0.76,-0.16 1.04,-0.47 0.28,-0.32 0.42,-0.8 0.42,-1.45 0,-0.61 -0.14,-1.07 -0.42,-1.38 -0.28,-0.32 -0.62,-0.47 -1.04,-0.47 -0.42,0 -0.77,0.15 -1.04,0.46 -0.28,0.32 -0.42,0.79 -0.42,1.42z"/>
   <path id="9" class="fil1" d="M108.84 17.81l0 -4.94 0.75 0 0 0.7c0.36,-0.54 0.89,-0.81 1.57,-0.81 0.3,0 0.57,0.06 0.82,0.16 0.25,0.11 0.44,0.25 0.56,0.42 0.12,0.18 0.21,0.38 0.26,0.62 0.03,0.16 0.05,0.43 0.05,0.81l0 3.04 -0.84 0 0 -3c0,-0.35 -0.03,-0.6 -0.1,-0.77 -0.06,-0.17 -0.18,-0.3 -0.34,-0.4 -0.17,-0.1 -0.36,-0.15 -0.59,-0.15 -0.35,0 -0.66,0.11 -0.92,0.33 -0.26,0.23 -0.39,0.66 -0.39,1.29l0 2.7 -0.83 0z"/>
   <path id="10" class="fil1" d="M118.6 17.06l0.11 0.74c-0.23,0.05 -0.44,0.08 -0.63,0.08 -0.3,0 -0.53,-0.05 -0.7,-0.15 -0.17,-0.09 -0.29,-0.22 -0.35,-0.38 -0.07,-0.15 -0.11,-0.48 -0.11,-0.99l0 -2.85 -0.62 0 0 -0.64 0.62 0 0 -1.23 0.84 -0.5 0 1.73 0.84 0 0 0.64 -0.84 0 0 2.9c0,0.24 0.02,0.39 0.05,0.46 0.03,0.07 0.07,0.12 0.14,0.17 0.07,0.03 0.16,0.06 0.29,0.06 0.09,0 0.21,-0.02 0.36,-0.04z"/>
   <path id="11" class="fil1" d="M119.43 17.81l0 -6.82 0.84 0 0 2.45c0.38,-0.45 0.88,-0.68 1.47,-0.68 0.36,0 0.68,0.07 0.95,0.22 0.27,0.14 0.46,0.34 0.57,0.59 0.12,0.26 0.18,0.63 0.18,1.11l0 3.13 -0.84 0 0 -3.13c0,-0.41 -0.09,-0.72 -0.27,-0.91 -0.18,-0.19 -0.44,-0.28 -0.77,-0.28 -0.24,0 -0.47,0.06 -0.69,0.19 -0.22,0.13 -0.37,0.3 -0.47,0.52 -0.09,0.22 -0.13,0.52 -0.13,0.91l0 2.7 -0.84 0z"/>
   <path id="12" class="fil1" d="M128.1 16.21l0.86 0.11c-0.13,0.51 -0.38,0.9 -0.75,1.18 -0.37,0.27 -0.84,0.41 -1.41,0.41 -0.72,0 -1.29,-0.22 -1.72,-0.66 -0.42,-0.45 -0.63,-1.07 -0.63,-1.87 0,-0.83 0.21,-1.47 0.64,-1.93 0.43,-0.46 0.98,-0.69 1.66,-0.69 0.66,0 1.2,0.23 1.62,0.67 0.41,0.45 0.62,1.09 0.62,1.9 0,0.05 0,0.12 0,0.22l-3.68 0c0.03,0.54 0.18,0.96 0.46,1.25 0.27,0.28 0.62,0.43 1.03,0.43 0.3,0 0.57,-0.08 0.78,-0.24 0.22,-0.17 0.39,-0.42 0.52,-0.78zm-2.75 -1.34l2.76 0c-0.04,-0.42 -0.15,-0.73 -0.32,-0.94 -0.26,-0.32 -0.61,-0.48 -1.03,-0.48 -0.39,0 -0.71,0.13 -0.97,0.38 -0.26,0.26 -0.41,0.6 -0.44,1.04z"/>
   <path class="fil1" d="M72.34 37.67l-2.98 0 -1.18 -3.11 -5.49 0 -1.13 3.11 -2.93 0 5.31 -13.67 2.92 0 5.48 13.67zm-5.06 -5.42l-1.9 -5.06 -1.85 5.06 3.75 0z"/>
   <path id="1" class="fil1" d="M73.71 27.76l2.45 0 0 1.45c0.31,-0.49 0.74,-0.89 1.28,-1.2 0.54,-0.31 1.14,-0.46 1.8,-0.46 1.15,0 2.13,0.45 2.93,1.36 0.8,0.9 1.2,2.16 1.2,3.77 0,1.65 -0.4,2.94 -1.21,3.86 -0.81,0.92 -1.79,1.37 -2.94,1.37 -0.55,0 -1.04,-0.1 -1.49,-0.32 -0.44,-0.22 -0.91,-0.59 -1.4,-1.12l0 4.96 -2.62 0 0 -13.67zm2.58 4.8c0,1.12 0.22,1.94 0.66,2.48 0.44,0.53 0.98,0.79 1.61,0.79 0.61,0 1.11,-0.24 1.52,-0.73 0.4,-0.49 0.6,-1.29 0.6,-2.41 0,-1.04 -0.21,-1.81 -0.62,-2.32 -0.42,-0.51 -0.93,-0.76 -1.55,-0.76 -0.64,0 -1.17,0.25 -1.59,0.75 -0.42,0.49 -0.63,1.23 -0.63,2.2z"/>
   <path id="2" class="fil1" d="M85.37 27.76l2.44 0 0 1.45c0.32,-0.49 0.75,-0.89 1.29,-1.2 0.54,-0.31 1.14,-0.46 1.8,-0.46 1.15,0 2.12,0.45 2.93,1.36 0.8,0.9 1.2,2.16 1.2,3.77 0,1.65 -0.41,2.94 -1.21,3.86 -0.81,0.92 -1.79,1.37 -2.94,1.37 -0.55,0 -1.05,-0.1 -1.49,-0.32 -0.44,-0.22 -0.91,-0.59 -1.4,-1.12l0 4.96 -2.62 0 0 -13.67zm2.58 4.8c0,1.12 0.22,1.94 0.66,2.48 0.44,0.53 0.98,0.79 1.61,0.79 0.6,0 1.11,-0.24 1.51,-0.73 0.41,-0.49 0.61,-1.29 0.61,-2.41 0,-1.04 -0.21,-1.81 -0.63,-2.32 -0.41,-0.51 -0.92,-0.76 -1.54,-0.76 -0.64,0 -1.17,0.25 -1.59,0.75 -0.42,0.49 -0.63,1.23 -0.63,2.2z"/>
   <path id="3" class="fil1" d="M101.7 33.24l2.69 -0.27c0.17,0.9 0.49,1.56 0.98,1.98 0.5,0.43 1.16,0.64 2,0.64 0.88,0 1.55,-0.19 2,-0.57 0.45,-0.37 0.67,-0.81 0.67,-1.31 0,-0.33 -0.09,-0.6 -0.28,-0.83 -0.19,-0.23 -0.52,-0.42 -0.99,-0.59 -0.32,-0.11 -1.05,-0.31 -2.2,-0.6 -1.47,-0.37 -2.5,-0.82 -3.1,-1.36 -0.84,-0.75 -1.25,-1.67 -1.25,-2.75 0,-0.7 0.19,-1.36 0.59,-1.96 0.39,-0.61 0.96,-1.07 1.7,-1.39 0.74,-0.32 1.63,-0.48 2.68,-0.48 1.71,0 3,0.38 3.86,1.14 0.86,0.76 1.31,1.77 1.36,3.04l-2.77 0.1c-0.12,-0.71 -0.37,-1.21 -0.75,-1.52 -0.39,-0.31 -0.97,-0.47 -1.74,-0.47 -0.79,0 -1.41,0.17 -1.86,0.5 -0.29,0.21 -0.44,0.5 -0.44,0.85 0,0.33 0.14,0.6 0.41,0.83 0.35,0.3 1.19,0.6 2.53,0.92 1.34,0.32 2.33,0.65 2.97,0.98 0.64,0.34 1.14,0.81 1.51,1.39 0.36,0.59 0.54,1.32 0.54,2.18 0,0.78 -0.22,1.52 -0.65,2.2 -0.44,0.69 -1.05,1.19 -1.85,1.53 -0.79,0.33 -1.78,0.49 -2.97,0.49 -1.73,0 -3.05,-0.39 -3.98,-1.19 -0.93,-0.8 -1.48,-1.96 -1.66,-3.48z"/>
   <path id="4" class="fil1" d="M119.66 27.76l0 2.08 -1.79 0 0 4.01c0,0.82 0.01,1.29 0.05,1.42 0.03,0.14 0.11,0.25 0.23,0.34 0.12,0.08 0.27,0.13 0.45,0.13 0.24,0 0.59,-0.08 1.05,-0.25l0.22 2.03c-0.61,0.26 -1.29,0.39 -2.06,0.39 -0.47,0 -0.9,-0.08 -1.28,-0.23 -0.37,-0.16 -0.65,-0.37 -0.83,-0.62 -0.17,-0.26 -0.29,-0.6 -0.36,-1.03 -0.06,-0.3 -0.09,-0.92 -0.09,-1.85l0 -4.34 -1.2 0 0 -2.08 1.2 0 0 -1.96 2.62 -1.55 0 3.51 1.79 0z"/>
   <path id="5" class="fil1" d="M120.88 32.59c0,-0.87 0.22,-1.71 0.65,-2.53 0.43,-0.81 1.03,-1.43 1.82,-1.86 0.78,-0.43 1.66,-0.65 2.63,-0.65 1.5,0 2.72,0.49 3.68,1.46 0.96,0.98 1.43,2.21 1.43,3.69 0,1.51 -0.48,2.75 -1.44,3.74 -0.97,0.98 -2.19,1.47 -3.65,1.47 -0.91,0 -1.77,-0.2 -2.6,-0.61 -0.82,-0.41 -1.44,-1.01 -1.87,-1.81 -0.43,-0.79 -0.65,-1.76 -0.65,-2.9zm2.69 0.14c0,0.99 0.24,1.74 0.7,2.26 0.47,0.53 1.04,0.79 1.72,0.79 0.69,0 1.26,-0.26 1.72,-0.79 0.46,-0.52 0.69,-1.28 0.69,-2.28 0,-0.97 -0.23,-1.71 -0.69,-2.24 -0.46,-0.52 -1.03,-0.78 -1.72,-0.78 -0.68,0 -1.25,0.26 -1.72,0.78 -0.46,0.53 -0.7,1.28 -0.7,2.26z"/>
   <path id="6" class="fil1" d="M135.65 37.67l-2.61 0 0 -9.91 2.42 0 0 1.41c0.42,-0.67 0.79,-1.1 1.13,-1.31 0.33,-0.21 0.71,-0.31 1.13,-0.31 0.6,0 1.18,0.17 1.73,0.49l-0.81 2.29c-0.44,-0.29 -0.85,-0.43 -1.23,-0.43 -0.37,0 -0.68,0.1 -0.94,0.3 -0.25,0.2 -0.45,0.57 -0.6,1.1 -0.14,0.52 -0.22,1.63 -0.22,3.31l0 3.06z"/>
   <path id="7" class="fil1" d="M146.3 34.54l2.62 0.44c-0.33,0.95 -0.87,1.68 -1.59,2.18 -0.72,0.5 -1.63,0.75 -2.71,0.75 -1.73,0 -3,-0.56 -3.82,-1.68 -0.66,-0.91 -0.98,-2.05 -0.98,-3.42 0,-1.65 0.43,-2.93 1.28,-3.86 0.86,-0.93 1.94,-1.4 3.25,-1.4 1.47,0 2.63,0.49 3.48,1.46 0.85,0.97 1.26,2.47 1.22,4.48l-6.54 0c0.02,0.77 0.23,1.38 0.63,1.81 0.4,0.43 0.9,0.65 1.5,0.65 0.41,0 0.76,-0.11 1.03,-0.34 0.28,-0.22 0.49,-0.58 0.63,-1.07zm0.16 -2.66c-0.02,-0.76 -0.22,-1.34 -0.59,-1.73 -0.37,-0.4 -0.82,-0.59 -1.36,-0.59 -0.57,0 -1.04,0.21 -1.41,0.62 -0.37,0.42 -0.55,0.99 -0.55,1.7l3.91 0z"/>
   <g>
    <path class="fil1" d="M36.18 13.43c-1.11,1.32 -2.89,2.35 -4.66,2.2 -0.22,-1.77 0.65,-3.66 1.66,-4.82 1.11,-1.35 3.05,-2.31 4.62,-2.38 0.19,1.84 -0.53,3.66 -1.62,5l0 0zm1.6 2.56c-2.56,-0.15 -4.76,1.46 -5.98,1.46 -1.24,0 -3.11,-1.39 -5.14,-1.35 -2.64,0.03 -5.1,1.53 -6.45,3.91 -2.77,4.77 -0.72,11.83 1.96,15.71 1.31,1.92 2.88,4.03 4.95,3.96 1.96,-0.08 2.74,-1.28 5.1,-1.28 2.39,0 3.07,1.28 5.14,1.24 2.14,-0.04 3.49,-1.92 4.8,-3.84 1.5,-2.18 2.11,-4.31 2.15,-4.42 -0.04,-0.04 -4.14,-1.61 -4.18,-6.34 -0.04,-3.95 3.24,-5.84 3.38,-5.95 -1.84,-2.74 -4.73,-3.03 -5.73,-3.1l0 0zm0.49 5.59l0 0z"/>
   </g>
  </g>
 </g>
</svg>
