<svg xmlns="http://www.w3.org/2000/svg" width="200" height="200" viewBox="0 0 4.59 4.59" shape-rendering="geometricPrecision" image-rendering="optimizeQuality" fill-rule="nonzero" xmlns:v="https://vecta.io/nano"><path d="M1.59 2.24v-.13H.63v.78h.96v-.34c0-.04.04-.08.08-.08v-.16c-.04 0-.08-.03-.08-.07z" fill="#fff"/><path d="M3.24.72h.61L3.24.11z" fill="#263674"/><path d="M4.35 4.43h-.31c-.04 0-.08-.03-.08-.08V.88h-.8c-.04 0-.07-.04-.07-.08V0H0v4.35c0 .13.11.24.23.24h4.12c.13 0 .24-.11.24-.24h-.16c0 .05-.03.08-.08.08zm-2.96-3.4l.27-.21c.03-.02.07-.02.09 0l.23.17.23-.17c.03-.02.06-.02.09 0l.28.21c.03.02.04.07.01.11-.01.02-.04.03-.06.03s-.03-.01-.05-.02L2.25.98l-.22.17c-.03.02-.07.02-.1 0L1.71.98l-.23.17c-.03.03-.08.02-.11-.01-.02-.04-.02-.09.02-.11zm.28 2.48H.55c-.05 0-.08-.03-.08-.07 0-.05.03-.08.08-.08h1.12c.04 0 .08.03.08.08 0 .04-.04.07-.08.07zm.08-1.27c0 .04-.04.07-.08.07v.16c.04 0 .08.04.08.08v.42c0 .04-.04.07-.08.07H.55c-.05 0-.08-.03-.08-.07v-.94c0-.05.03-.08.08-.08h1.12c.04 0 .08.03.08.08v.21zm1.66 1.27H2.29c-.04 0-.07-.03-.07-.07 0-.05.03-.08.07-.08h1.12c.05 0 .08.03.08.08 0 .04-.03.07-.08.07zm0-.47H2.29c-.04 0-.07-.03-.07-.07 0-.05.03-.08.07-.08h1.12c.05 0 .08.03.08.08 0 .04-.03.07-.08.07zm0-.46H2.29c-.04 0-.07-.04-.07-.08 0-.05.03-.08.07-.08h1.12c.05 0 .08.03.08.08 0 .04-.03.08-.08.08zm0-.47H2.29c-.04 0-.07-.04-.07-.08 0-.05.03-.08.07-.08h1.12c.05 0 .08.03.08.08 0 .04-.03.08-.08.08zm0-.47H.55c-.05 0-.08-.04-.08-.08s.03-.08.08-.08h2.86c.05 0 .08.04.08.08s-.03.08-.08.08z" fill="#fdcb08"/><path d="M4.1.74c.01.01.01.02.01.02l.01.02V.8v3.49h.47V.42h-.57c-.04 0-.07-.04-.07-.08h-.26l.41.4zm-2.62.41l.23-.17.22.17c.03.02.07.02.1 0l.22-.17.23.17c.02.01.03.02.05.02s.05-.01.06-.03c.03-.04.02-.09-.01-.11L2.3.82C2.27.8 2.24.8 2.21.82l-.23.17-.23-.17C1.73.8 1.69.8 1.66.82l-.27.21c-.04.02-.04.07-.02.11.03.03.08.04.11.01zm.19 2.21H.55c-.05 0-.08.03-.08.08 0 .04.03.07.08.07h1.12c.04 0 .08-.03.08-.07 0-.05-.04-.08-.08-.08zm1.74 0H2.29c-.04 0-.07.03-.07.08 0 .04.03.07.07.07h1.12c.05 0 .08-.03.08-.07 0-.05-.03-.08-.08-.08zm0-.47H2.29c-.04 0-.07.03-.07.08 0 .04.03.07.07.07h1.12c.05 0 .08-.03.08-.07 0-.05-.03-.08-.08-.08zm0-.47H2.29c-.04 0-.07.03-.07.08 0 .04.03.08.07.08h1.12c.05 0 .08-.04.08-.08 0-.05-.03-.08-.08-.08zm-1.74-.47H.55c-.05 0-.08.03-.08.08v.94c0 .04.03.07.08.07h1.12c.04 0 .08-.03.08-.07v-.42c0-.04-.04-.08-.08-.08s-.08.04-.08.08v.34H.63v-.78h.96v.13c0 .04.04.07.08.07s.08-.03.08-.07v-.21c0-.05-.04-.08-.08-.08zm1.74 0H2.29c-.04 0-.07.03-.07.08 0 .04.03.08.07.08h1.12c.05 0 .08-.04.08-.08 0-.05-.03-.08-.08-.08zm0-.47H.55c-.05 0-.08.04-.08.08s.03.08.08.08h2.86c.05 0 .08-.04.08-.08s-.03-.08-.08-.08z" fill="#263674"/></svg>