<?xml version="1.0" encoding="UTF-8"?>
<!DOCTYPE svg PUBLIC "-//W3C//DTD SVG 1.1//EN" "http://www.w3.org/Graphics/SVG/1.1/DTD/svg11.dtd">
<!-- Creator: CorelDRAW 2020 (64-Bit Evaluation Version) -->
<svg xmlns="http://www.w3.org/2000/svg" xml:space="preserve" width="70px" height="70px" version="1.1" style="shape-rendering:geometricPrecision; text-rendering:geometricPrecision; image-rendering:optimizeQuality; fill-rule:evenodd; clip-rule:evenodd"
viewBox="0 0 22.59 22.59"
 xmlns:xlink="http://www.w3.org/1999/xlink"
 xmlns:xodm="http://www.corel.com/coreldraw/odm/2003">
 <defs>
  <style type="text/css">
   <![CDATA[
    .fil0 {fill:#697CAC;fill-rule:nonzero}
    .fil1 {fill:#6997AC;fill-rule:nonzero}
   ]]>
  </style>
 </defs>
 <g id="Layer_x0020_1">
  <metadata id="CorelCorpID_0Corel-Layer"/>
  <g id="_2064451033920">
   <path class="fil0" d="M9.56 20.03c0.71,0 1.28,0.57 1.28,1.28 0,0.71 -0.57,1.28 -1.28,1.28l-9.56 0 0 -11.3c0,-3.1 1.27,-5.93 3.32,-7.97 2.04,-2.05 4.87,-3.32 7.97,-3.32l11.3 0 0 9.51c0,0.71 -0.57,1.28 -1.28,1.28 -0.71,0 -1.28,-0.57 -1.28,-1.28l0 -6.95 -8.74 0c-2.4,0 -4.58,0.99 -6.16,2.57 -1.58,1.58 -2.57,3.76 -2.57,6.16l0 8.74 7 0z"/>
   <path class="fil1" d="M17.48 12.36l5.11 0 0 10.23 -10.23 0 0 -5.11c0,-1.41 0.58,-2.69 1.5,-3.61l0.01 -0.01c0.92,-0.92 2.2,-1.5 3.61,-1.5zm2.55 2.57l-2.55 0c-0.71,0 -1.34,0.28 -1.81,0.74 -0.46,0.47 -0.74,1.1 -0.74,1.81l0 2.55 5.1 0 0 -5.1z"/>
   <path class="fil0" d="M7.54 16.86c-0.5,0.5 -1.31,0.5 -1.81,0 -0.5,-0.5 -0.5,-1.32 0,-1.82l9.31 -9.31c0.5,-0.5 1.32,-0.5 1.82,0 0.5,0.5 0.5,1.31 0,1.81l-9.32 9.32z"/>
   <path class="fil1" d="M6.2 8.34c-0.5,-0.5 -0.5,-1.31 0,-1.81 0.5,-0.5 1.31,-0.5 1.81,0l1.09 1.09c0.5,0.5 0.5,1.31 0,1.81 -0.5,0.5 -1.31,0.5 -1.81,0l-1.09 -1.09z"/>
  </g>
 </g>
</svg>
