<?xml version="1.0" encoding="UTF-8"?>
<!DOCTYPE svg PUBLIC "-//W3C//DTD SVG 1.1//EN" "http://www.w3.org/Graphics/SVG/1.1/DTD/svg11.dtd">
<!-- Creator: CorelDRAW 2020 (64-Bit Evaluation Version) -->
<svg xmlns="http://www.w3.org/2000/svg" xml:space="preserve" width="40px" height="40px" version="1.1" style="shape-rendering:geometricPrecision; text-rendering:geometricPrecision; image-rendering:optimizeQuality; fill-rule:evenodd; clip-rule:evenodd"
viewBox="0 0 16.63 16.63"
 xmlns:xlink="http://www.w3.org/1999/xlink"
 xmlns:xodm="http://www.corel.com/coreldraw/odm/2003">
 <defs>
  <style type="text/css">
   <![CDATA[
    .fil1 {fill:#263674}
    .fil3 {fill:#EFB30C}
    .fil2 {fill:white}
    .fil0 {fill:#EFB30C;fill-rule:nonzero}
   ]]>
  </style>
 </defs>
 <g id="Layer_x0020_1">
  <metadata id="CorelCorpID_0Corel-Layer"/>
  <g id="_2403669959312">
   <g>
    <path class="fil0" d="M8.31 0c4,0 7.23,3.24 7.23,7.23 0,3.99 -3.23,7.23 -7.23,7.23 -3.99,0 -7.23,-3.24 -7.23,-7.23 0,-3.99 3.24,-7.23 7.23,-7.23z"/>
    <circle class="fil1" transform="matrix(2.46601E-13 9.31102 -9.31112 2.46598E-13 8.31453 7.2296)" r="0.49"/>
    <rect class="fil2" transform="matrix(-3.36222 3.36219 -3.36222 -3.36219 10.8479 7.22957)" width="0.75" height="0.75"/>
   </g>
   <rect class="fil1" transform="matrix(2.9737E-13 11.228 -11.228 2.97366E-13 16.6289 11.815)" width="0.43" height="1.48"/>
   <g>
    <rect class="fil3" transform="matrix(3.42761E-13 10.0698 -16.7517 3.45203E-13 15.3535 12.7751)" width="0.29" height="0.08"/>
    <rect class="fil3" transform="matrix(3.42761E-13 10.0698 -16.7517 3.45203E-13 12.8099 12.7751)" width="0.29" height="0.08"/>
    <rect class="fil3" transform="matrix(3.42761E-13 10.0698 -16.7517 3.45203E-13 10.2663 12.7751)" width="0.29" height="0.08"/>
    <rect class="fil3" transform="matrix(3.42761E-13 10.0698 -16.7517 3.45203E-13 7.72275 12.7751)" width="0.29" height="0.08"/>
    <rect class="fil3" transform="matrix(3.42761E-13 10.0698 -16.7517 3.45203E-13 5.17917 12.7751)" width="0.29" height="0.08"/>
    <rect class="fil3" transform="matrix(3.42761E-13 10.0698 -16.7517 3.45203E-13 2.63559 12.7751)" width="0.29" height="0.08"/>
   </g>
   <g>
    <rect class="fil1" transform="matrix(2.05662E-13 11.228 -7.76535 2.97366E-13 16.6289 7.03594)" width="0.43" height="1.48"/>
    <rect class="fil3" transform="matrix(3.42761E-13 10.0698 -16.7517 3.45203E-13 15.3946 7.99601)" width="0.29" height="0.08"/>
    <rect class="fil3" transform="matrix(3.42761E-13 10.0698 -16.7517 3.45203E-13 12.851 7.99601)" width="0.29" height="0.08"/>
    <rect class="fil3" transform="matrix(3.42761E-13 10.0698 -16.7517 3.45203E-13 10.3074 7.99601)" width="0.29" height="0.08"/>
    <rect class="fil3" transform="matrix(3.42761E-13 10.0698 -16.7517 3.45203E-13 7.76387 7.99601)" width="0.29" height="0.08"/>
   </g>
  </g>
 </g>
</svg>
