<?xml version="1.0" encoding="UTF-8"?>
<!DOCTYPE svg PUBLIC "-//W3C//DTD SVG 1.1//EN" "http://www.w3.org/Graphics/SVG/1.1/DTD/svg11.dtd">
<!-- Creator: CorelDRAW 2020 (64-Bit Evaluation Version) -->
<svg xmlns="http://www.w3.org/2000/svg" xml:space="preserve" width="700px" height="607px" version="1.1" style="shape-rendering:geometricPrecision; text-rendering:geometricPrecision; image-rendering:optimizeQuality; fill-rule:evenodd; clip-rule:evenodd"
viewBox="0 0 1029.82 892.52"
 xmlns:xlink="http://www.w3.org/1999/xlink"
 xmlns:xodm="http://www.corel.com/coreldraw/odm/2003">
 <defs>
  <style type="text/css">
   <![CDATA[
    .str1 {stroke:#FFB400;stroke-width:1.92;stroke-miterlimit:2.61313;stroke-opacity:0.501961}
    .str2 {stroke:#FFB400;stroke-width:3.83;stroke-miterlimit:2.61313;stroke-opacity:0.501961}
    .str0 {stroke:white;stroke-width:3.83;stroke-miterlimit:2.61313;stroke-opacity:0.501961}
    .fil4 {fill:white}
    .fil39 {fill:black;fill-rule:nonzero}
    .fil35 {fill:#002999;fill-rule:nonzero}
    .fil9 {fill:#003899;fill-rule:nonzero}
    .fil8 {fill:#006099;fill-rule:nonzero}
    .fil48 {fill:#21246E;fill-rule:nonzero}
    .fil7 {fill:#E6E6E6;fill-rule:nonzero}
    .fil10 {fill:white;fill-rule:nonzero}
    .fil1 {fill:white;fill-rule:nonzero}
    .fil2 {fill:white;fill-rule:nonzero;fill-opacity:0.101961}
    .fil5 {fill:white;fill-opacity:0.298039}
    .fil22 {fill:white;fill-rule:nonzero;fill-opacity:0.301961}
    .fil3 {fill:white;fill-opacity:0.501961}
    .fil0 {fill:white;fill-rule:nonzero;fill-opacity:0.501961}
    .fil6 {fill:white;fill-opacity:0.800000}
    .fil32 {fill:url(#id0)}
    .fil23 {fill:url(#id1)}
    .fil33 {fill:url(#id2)}
    .fil34 {fill:url(#id3)}
    .fil16 {fill:url(#id4)}
    .fil30 {fill:url(#id5);fill-rule:nonzero}
    .fil38 {fill:url(#id6);fill-rule:nonzero}
    .fil47 {fill:url(#id7);fill-rule:nonzero}
    .fil14 {fill:url(#id8);fill-rule:nonzero}
    .fil29 {fill:url(#id9);fill-rule:nonzero}
    .fil31 {fill:url(#id10);fill-rule:nonzero}
    .fil26 {fill:url(#id11);fill-rule:nonzero}
    .fil36 {fill:url(#id12);fill-rule:nonzero}
    .fil28 {fill:url(#id13);fill-rule:nonzero}
    .fil13 {fill:url(#id14);fill-rule:nonzero}
    .fil27 {fill:url(#id15);fill-rule:nonzero}
    .fil12 {fill:url(#id16);fill-rule:nonzero}
    .fil25 {fill:url(#id17);fill-rule:nonzero}
    .fil11 {fill:url(#id18);fill-rule:nonzero}
    .fil24 {fill:url(#id19);fill-rule:nonzero}
    .fil40 {fill:url(#id20);fill-rule:nonzero}
    .fil43 {fill:url(#id21);fill-rule:nonzero}
    .fil18 {fill:url(#id22);fill-rule:nonzero}
    .fil41 {fill:url(#id23);fill-rule:nonzero}
    .fil45 {fill:url(#id24);fill-rule:nonzero}
    .fil44 {fill:url(#id25);fill-rule:nonzero}
    .fil20 {fill:url(#id26);fill-rule:nonzero}
    .fil17 {fill:url(#id27);fill-rule:nonzero}
    .fil19 {fill:url(#id28);fill-rule:nonzero}
    .fil21 {fill:url(#id29);fill-rule:nonzero}
    .fil50 {fill:url(#id30);fill-rule:nonzero}
    .fil15 {fill:url(#id31);fill-rule:nonzero}
    .fil46 {fill:url(#id32);fill-rule:nonzero}
    .fil42 {fill:url(#id33);fill-rule:nonzero}
    .fil49 {fill:url(#id34);fill-rule:nonzero}
    .fil37 {fill:url(#id35);fill-rule:nonzero;fill-opacity:0.349020}
   ]]>
  </style>
  <linearGradient id="id0" gradientUnits="userSpaceOnUse" x1="829.32" y1="473.19" x2="827.84" y2="466.36">
   <stop offset="0" style="stop-opacity:1; stop-color:#FEBF10"/>
   <stop offset="1" style="stop-opacity:1; stop-color:#E89D36"/>
  </linearGradient>
  <linearGradient id="id1" gradientUnits="userSpaceOnUse" xlink:href="#id0" x1="914.15" y1="609.26" x2="875.49" y2="557.95">
  </linearGradient>
  <linearGradient id="id2" gradientUnits="userSpaceOnUse" xlink:href="#id0" x1="828.62" y1="477.63" x2="827.14" y2="470.8">
  </linearGradient>
  <linearGradient id="id3" gradientUnits="userSpaceOnUse" xlink:href="#id0" x1="834.45" y1="481.66" x2="831.85" y2="475.64">
  </linearGradient>
  <linearGradient id="id4" gradientUnits="userSpaceOnUse" xlink:href="#id0" x1="922.38" y1="529.43" x2="833.6" y2="479.79">
  </linearGradient>
  <linearGradient id="id5" gradientUnits="userSpaceOnUse" x1="817.34" y1="579.16" x2="792.69" y2="579.16">
   <stop offset="0" style="stop-opacity:1; stop-color:white"/>
   <stop offset="1" style="stop-opacity:1; stop-color:#F2FAFC"/>
  </linearGradient>
  <linearGradient id="id6" gradientUnits="userSpaceOnUse" x1="740.48" y1="661.03" x2="740.48" y2="817.01">
   <stop offset="0" style="stop-opacity:1; stop-color:#002999"/>
   <stop offset="1" style="stop-opacity:1; stop-color:#006A99"/>
  </linearGradient>
  <linearGradient id="id7" gradientUnits="userSpaceOnUse" x1="349.64" y1="533.96" x2="349.64" y2="343.55">
   <stop offset="0" style="stop-opacity:1; stop-color:#C8C8C8"/>
   <stop offset="1" style="stop-opacity:1; stop-color:white"/>
  </linearGradient>
  <linearGradient id="id8" gradientUnits="userSpaceOnUse" x1="884.12" y1="636.84" x2="884.12" y2="430.41">
   <stop offset="0" style="stop-opacity:1; stop-color:#CCCCCC"/>
   <stop offset="0.921569" style="stop-opacity:1; stop-color:white"/>
   <stop offset="1" style="stop-opacity:1; stop-color:white"/>
  </linearGradient>
  <linearGradient id="id9" gradientUnits="userSpaceOnUse" xlink:href="#id5" x1="818.04" y1="574.72" x2="793.39" y2="574.72">
  </linearGradient>
  <linearGradient id="id10" gradientUnits="userSpaceOnUse" xlink:href="#id5" x1="816.64" y1="583.6" x2="804.3" y2="583.6">
  </linearGradient>
  <linearGradient id="id11" gradientUnits="userSpaceOnUse" xlink:href="#id5" x1="966.72" y1="502.97" x2="942.07" y2="502.97">
  </linearGradient>
  <linearGradient id="id12" gradientUnits="userSpaceOnUse" x1="698.3" y1="665.12" x2="698.3" y2="813.88">
   <stop offset="0" style="stop-opacity:1; stop-color:#003399"/>
   <stop offset="1" style="stop-opacity:1; stop-color:#006A99"/>
  </linearGradient>
  <linearGradient id="id13" gradientUnits="userSpaceOnUse" xlink:href="#id5" x1="818.75" y1="570.28" x2="794.1" y2="570.28">
  </linearGradient>
  <linearGradient id="id14" gradientUnits="userSpaceOnUse" x1="889.46" y1="642.83" x2="889.46" y2="431.71">
   <stop offset="0" style="stop-opacity:1; stop-color:white"/>
   <stop offset="0.0784314" style="stop-opacity:1; stop-color:white"/>
   <stop offset="1" style="stop-opacity:1; stop-color:#CCCCCC"/>
  </linearGradient>
  <linearGradient id="id15" gradientUnits="userSpaceOnUse" xlink:href="#id5" x1="966.02" y1="507.41" x2="953.68" y2="507.41">
  </linearGradient>
  <linearGradient id="id16" gradientUnits="userSpaceOnUse" xlink:href="#id8" x1="870.59" y1="889.45" x2="870.59" y2="565.83">
  </linearGradient>
  <linearGradient id="id17" gradientUnits="userSpaceOnUse" xlink:href="#id5" x1="967.43" y1="498.53" x2="942.78" y2="498.53">
  </linearGradient>
  <linearGradient id="id18" gradientUnits="userSpaceOnUse" xlink:href="#id14" x1="878.53" y1="889.45" x2="878.53" y2="565.83">
  </linearGradient>
  <linearGradient id="id19" gradientUnits="userSpaceOnUse" xlink:href="#id5" x1="968.13" y1="494.09" x2="943.48" y2="494.09">
  </linearGradient>
  <linearGradient id="id20" gradientUnits="userSpaceOnUse" xlink:href="#id7" x1="726.32" y1="614.48" x2="726.32" y2="469.75">
  </linearGradient>
  <linearGradient id="id21" gradientUnits="userSpaceOnUse" xlink:href="#id6" x1="380.07" y1="569.87" x2="380.07" y2="764.77">
  </linearGradient>
  <linearGradient id="id22" gradientUnits="userSpaceOnUse" xlink:href="#id12" x1="862.68" y1="499.17" x2="862.13" y2="531.56">
  </linearGradient>
  <linearGradient id="id23" gradientUnits="userSpaceOnUse" xlink:href="#id12" x1="753.67" y1="466.71" x2="775.92" y2="514.02">
  </linearGradient>
  <linearGradient id="id24" gradientUnits="userSpaceOnUse" x1="349.27" y1="221.97" x2="334.29" y2="320.79">
   <stop offset="0" style="stop-opacity:1; stop-color:black"/>
   <stop offset="1" style="stop-opacity:1; stop-color:#333333"/>
  </linearGradient>
  <linearGradient id="id25" gradientUnits="userSpaceOnUse" xlink:href="#id24" x1="327.66" y1="242.94" x2="320.62" y2="327.47">
  </linearGradient>
  <linearGradient id="id26" gradientUnits="userSpaceOnUse" xlink:href="#id12" x1="889.77" y1="477.99" x2="889.07" y2="533.39">
  </linearGradient>
  <linearGradient id="id27" gradientUnits="userSpaceOnUse" xlink:href="#id12" x1="850.68" y1="492.02" x2="850.08" y2="532.18">
  </linearGradient>
  <linearGradient id="id28" gradientUnits="userSpaceOnUse" xlink:href="#id12" x1="875.74" y1="494.06" x2="875.16" y2="532">
  </linearGradient>
  <linearGradient id="id29" gradientUnits="userSpaceOnUse" xlink:href="#id12" x1="901.51" y1="488.07" x2="900.88" y2="532.52">
  </linearGradient>
  <linearGradient id="id30" gradientUnits="userSpaceOnUse" xlink:href="#id12" x1="373.11" y1="326.17" x2="406.68" y2="448.42">
  </linearGradient>
  <linearGradient id="id31" gradientUnits="userSpaceOnUse" xlink:href="#id12" x1="888.19" y1="444.22" x2="877.06" y2="642.83">
  </linearGradient>
  <linearGradient id="id32" gradientUnits="userSpaceOnUse" xlink:href="#id12" x1="239.39" y1="326.09" x2="286.31" y2="422.69">
  </linearGradient>
  <linearGradient id="id33" gradientUnits="userSpaceOnUse" x1="322.51" y1="536.52" x2="341.56" y2="784.83">
   <stop offset="0" style="stop-opacity:1; stop-color:#00338D"/>
   <stop offset="1" style="stop-opacity:1; stop-color:#006A99"/>
  </linearGradient>
  <linearGradient id="id34" gradientUnits="userSpaceOnUse" x1="382.32" y1="503.38" x2="319.58" y2="376.9">
   <stop offset="0" style="stop-opacity:1; stop-color:#160EBF"/>
   <stop offset="1" style="stop-opacity:1; stop-color:#5450FF"/>
  </linearGradient>
  <linearGradient id="id35" gradientUnits="userSpaceOnUse" xlink:href="#id12" x1="723.9" y1="686.36" x2="723.9" y2="742.21">
  </linearGradient>
 </defs>
 <g id="Layer_x0020_1">
  <metadata id="CorelCorpID_0Corel-Layer"/>
  <g id="_2139153078352">
   <path class="fil0" d="M569.56 24.45c0,5.48 -4.44,9.93 -9.93,9.93 -5.48,0 -9.93,-4.45 -9.93,-9.93 0,-5.48 4.45,-9.93 9.93,-9.93 5.49,0 9.93,4.45 9.93,9.93z"/>
   <path class="fil1" d="M696.91 42.92c0,1.66 -1.34,3 -3,3 -1.66,0 -3,-1.34 -3,-3 0,-1.66 1.34,-3.01 3,-3.01 1.66,0 3,1.35 3,3.01z"/>
   <path class="fil2" d="M951.76 46.2c0,8.73 -7.08,15.8 -15.8,15.8 -8.72,0 -15.8,-7.07 -15.8,-15.8 0,-8.72 7.08,-15.8 15.8,-15.8 8.72,0 15.8,7.08 15.8,15.8z"/>
   <path class="fil1" d="M849.94 263.55c0,5.16 -4.19,9.34 -9.34,9.34 -5.15,0 -9.33,-4.18 -9.33,-9.34 0,-5.15 4.18,-9.33 9.33,-9.33 5.15,0 9.34,4.18 9.34,9.33z"/>
   <path class="fil1" d="M903.09 187.15l-7.53 0 0 -7.52c0,-1.64 -1.33,-2.98 -2.97,-2.98 -1.64,0 -2.98,1.34 -2.98,2.98l0 7.52 -7.52 0c-1.64,0 -2.98,1.33 -2.98,2.98 0,1.64 1.34,2.97 2.98,2.97l7.52 0 0 7.53c0,1.64 1.34,2.97 2.98,2.97 1.64,0 2.97,-1.33 2.97,-2.97l0 -7.53 7.53 0c1.64,0 2.98,-1.33 2.98,-2.97 0,-1.65 -1.34,-2.98 -2.98,-2.98z"/>
   <path class="fil0" d="M669.14 83.4l-3.72 0 0 -3.72c0,-0.81 -0.66,-1.47 -1.47,-1.47 -0.82,0 -1.47,0.66 -1.47,1.47l0 3.72 -3.72 0c-0.82,0 -1.48,0.66 -1.48,1.47 0,0.81 0.66,1.48 1.48,1.48l3.72 0 0 3.71c0,0.82 0.65,1.48 1.47,1.48 0.81,0 1.47,-0.66 1.47,-1.48l0 -3.71 3.72 0c0.81,0 1.47,-0.67 1.47,-1.48 0,-0.81 -0.66,-1.47 -1.47,-1.47z"/>
   <path class="fil3" d="M315.29 81.7c-22.56,0 -40.85,-18.29 -40.85,-40.85 0,-22.56 18.29,-40.85 40.85,-40.85 22.56,0 40.85,18.29 40.85,40.85 0,22.56 -18.29,40.85 -40.85,40.85zm20.41 -40.29l-19.14 -31.2 -19.14 31.2 19.14 11.11 19.14 -11.11 0 0zm0.02 3.57l-19.16 11.1 -19.14 -11.1 19.14 26.49 19.16 -26.49z"/>
   <path class="fil4" d="M471.51 345.94c-14.95,0 -27.07,-12.12 -27.07,-27.07 0,-14.95 12.12,-27.07 27.07,-27.07 14.95,0 27.07,12.12 27.07,27.07 0,14.95 -12.12,27.07 -27.07,27.07zm13.52 -26.7l-12.68 -20.67 -12.68 20.67 12.68 7.37 12.68 -7.37 0 0zm0.02 2.36l-12.7 7.37 -12.68 -7.36 12.68 17.55 12.7 -17.56z"/>
   <g>
    <path class="fil5" d="M924.92 346.18l0 21.22 17.94 8.02 -17.94 -29.24zm0 42.99l0 14.42 17.95 -24.83 -17.95 10.41z"/>
    <polygon class="fil6" points="924.92,385.83 942.86,375.42 924.92,367.41 "/>
    <polygon class="fil5" points="906.98,375.42 924.92,385.83 924.92,367.41 "/>
   </g>
   <g>
    <polygon class="fil0" points="863.84,51.03 851.76,51.03 872.41,86.75 904.89,30.48 851.74,30.48 857.73,40.86 886.91,40.86 872.39,65.84 "/>
    <polygon class="fil0" points="834.26,40.86 846.1,40.86 840.11,30.48 816.28,30.48 860.59,107.23 866.59,96.82 "/>
   </g>
   <path id="coin" class="fil0" d="M912.14 281.74c-2.62,10.51 -13.27,16.92 -23.79,14.29 -10.52,-2.62 -16.92,-13.27 -14.3,-23.79 2.63,-10.52 13.28,-16.92 23.8,-14.3 10.51,2.62 16.91,13.28 14.29,23.8l0 0zm-10.39 -7.55c0.39,-2.61 -1.6,-4.02 -4.32,-4.95l0.89 -3.54 -2.16 -0.54 -0.86 3.45c-0.56,-0.15 -1.15,-0.28 -1.72,-0.41l0.86 -3.47 -2.15 -0.54 -0.88 3.54c-0.47,-0.1 -0.93,-0.21 -1.38,-0.32l0 -0.01 -2.97 -0.74 -0.57 2.3c0,0 1.6,0.36 1.56,0.39 0.88,0.21 1.03,0.79 1.01,1.25l-1.01 4.03c0.06,0.02 0.14,0.04 0.23,0.07 -0.07,-0.02 -0.15,-0.04 -0.23,-0.05l-1.41 5.64c-0.11,0.27 -0.38,0.66 -0.99,0.52 0.03,0.03 -1.56,-0.4 -1.56,-0.4l-1.07 2.47 2.8 0.7c0.52,0.13 1.03,0.27 1.54,0.39l-0.89 3.59 2.15 0.53 0.88 -3.54c0.59,0.16 1.16,0.31 1.72,0.45l-0.88 3.52 2.15 0.54 0.89 -3.58c3.68,0.7 6.44,0.42 7.6,-2.9 0.94,-2.68 -0.05,-4.22 -1.98,-5.23 1.41,-0.32 2.47,-1.25 2.75,-3.16l0 0zm-4.92 6.9c-0.67,2.68 -5.17,1.23 -6.63,0.87l1.18 -4.74c1.46,0.36 6.15,1.08 5.45,3.87zm0.67 -6.94c-0.61,2.43 -4.36,1.2 -5.57,0.89l1.07 -4.3c1.21,0.31 5.13,0.87 4.5,3.41l0 0z"/>
   <path id="coin_0" class="fil1" d="M710.19 628.19c-5.14,20.61 -26.01,33.15 -46.61,28.01 -20.61,-5.14 -33.15,-26.01 -28.01,-46.62 5.14,-20.6 26.01,-33.15 46.61,-28.01 20.61,5.14 33.15,26.01 28.01,46.62l0 0zm-20.36 -14.78c0.77,-5.12 -3.13,-7.87 -8.45,-9.71l1.72 -6.93 -4.22 -1.06 -1.68 6.76c-1.11,-0.28 -2.25,-0.54 -3.38,-0.8l1.69 -6.8 -4.21 -1.05 -1.73 6.93c-0.92,-0.21 -1.82,-0.41 -2.7,-0.63l0.01 -0.02 -5.82 -1.45 -1.13 4.5c0,0 3.13,0.72 3.07,0.77 1.71,0.42 2.02,1.55 1.97,2.45l-1.97 7.9c0.11,0.03 0.27,0.07 0.44,0.14 -0.14,-0.04 -0.3,-0.07 -0.45,-0.11l-2.76 11.06c-0.21,0.52 -0.74,1.3 -1.93,1 0.04,0.07 -3.07,-0.76 -3.07,-0.76l-2.1 4.83 5.5 1.37c1.02,0.25 2.02,0.52 3,0.78l-1.74 7.01 4.21 1.05 1.73 -6.94c1.15,0.31 2.27,0.6 3.37,0.87l-1.73 6.91 4.22 1.05 1.75 -7c7.2,1.36 12.61,0.82 14.88,-5.69 1.84,-5.24 -0.09,-8.27 -3.87,-10.24 2.75,-0.63 4.83,-2.45 5.38,-6.19l0 0zm-9.64 13.52c-1.3,5.24 -10.12,2.4 -12.99,1.69l2.32 -9.29c2.86,0.72 12.03,2.13 10.67,7.6zm1.31 -13.6c-1.19,4.77 -8.54,2.34 -10.92,1.75l2.1 -8.43c2.39,0.6 10.06,1.71 8.82,6.68l0 0z"/>
   <path class="fil1" d="M269.38 238.38c0,2.04 -1.66,3.69 -3.69,3.69 -2.05,0 -3.7,-1.65 -3.7,-3.69 0,-2.05 1.65,-3.7 3.7,-3.7 2.03,0 3.69,1.65 3.69,3.7z"/>
   <path class="fil1" d="M153.22 113.09c0,2.55 -2.07,4.62 -4.62,4.62 -2.54,0 -4.61,-2.07 -4.61,-4.62 0,-2.55 2.07,-4.61 4.61,-4.61 2.55,0 4.62,2.06 4.62,4.61z"/>
   <g>
    <g>
     <path class="fil1" d="M103.79 296.09c-0.81,0 -1.47,-0.66 -1.47,-1.48l0 -10.38c0,-0.81 0.66,-1.47 1.47,-1.47 0.82,0 1.48,0.66 1.48,1.47l0 10.38c0,0.82 -0.66,1.48 -1.48,1.48z"/>
    </g>
    <g>
     <path class="fil1" d="M108.99 290.89l-10.39 0c-0.81,0 -1.47,-0.66 -1.47,-1.47 0,-0.81 0.66,-1.47 1.47,-1.47l10.39 0c0.81,0 1.47,0.66 1.47,1.47 0,0.81 -0.66,1.47 -1.47,1.47z"/>
    </g>
   </g>
   <g id="Layer_2" data-name="Layer 2">
    <g id="Layer_1-2" data-name="Layer 1">
     <polygon class="fil0" points="104.71,654.19 110.91,660.54 95.29,676.16 89.09,669.96 "/>
     <polygon class="fil0" points="114.12,663.61 120.33,669.96 95.29,694.99 89.09,688.79 "/>
     <polygon class="fil0" points="85.88,673.02 92.08,679.37 85.88,685.57 79.67,679.37 "/>
     <polygon class="fil0" points="123.54,673.02 129.74,679.37 104.71,704.41 98.5,698.21 "/>
    </g>
   </g>
   <g id="Layer_2_1_">
    <g id="Layer_1-2_1">
     <path class="fil1" d="M587.87 634.86c-0.08,1.42 1.01,2.63 2.43,2.71 0.05,0 0.1,0 0.15,0 1.42,0 2.58,-1.15 2.56,-2.57 0,-1.43 -1.15,-2.58 -2.57,-2.57 -1.36,0 -2.5,1.07 -2.57,2.43z"/>
     <path class="fil1" d="M578.28 634.2c-0.46,-0.03 -0.85,0.33 -0.87,0.78 -0.02,0.46 0.32,0.86 0.78,0.88 0.46,0.03 0.85,-0.33 0.88,-0.78 0.03,-0.46 -0.33,-0.85 -0.79,-0.88 0,0 0,0 0,0z"/>
     <path class="fil1" d="M587.71 619.94c0.41,-0.21 0.57,-0.72 0.37,-1.12 -0.21,-0.41 -0.72,-0.57 -1.12,-0.37 -0.41,0.2 -0.57,0.7 -0.37,1.11 0.2,0.42 0.7,0.59 1.12,0.38 -0.01,0 0,0 0,0z"/>
     <path class="fil1" d="M590.32 624.49c0.63,-0.32 0.88,-1.09 0.57,-1.72 -0.32,-0.63 -1.09,-0.89 -1.72,-0.57 -0.64,0.31 -0.89,1.09 -0.57,1.72 0.31,0.63 1.08,0.88 1.72,0.57z"/>
     <path class="fil1" d="M581.54 627.61c0.49,0.32 1.14,0.19 1.47,-0.3 0.31,-0.49 0.18,-1.14 -0.31,-1.47 -0.49,-0.31 -1.14,-0.18 -1.46,0.31 0,0 0,0 0,0 -0.33,0.49 -0.19,1.15 0.3,1.46z"/>
     <path class="fil1" d="M583.1 633.74c-0.72,-0.04 -1.31,0.5 -1.36,1.21 -0.04,0.72 0.5,1.32 1.22,1.36 0.71,0.04 1.31,-0.5 1.35,-1.21 0,0 0,0 0,0 0.04,-0.71 -0.5,-1.32 -1.21,-1.36z"/>
     <path class="fil1" d="M581.68 642.36c-0.52,0.27 -0.73,0.9 -0.47,1.43 0.27,0.52 0.9,0.73 1.43,0.47 0.52,-0.27 0.73,-0.9 0.47,-1.43 0,0 0,0 0,0 -0.27,-0.51 -0.91,-0.73 -1.43,-0.47 0,0 0,0 0,0z"/>
     <path class="fil1" d="M586.67 631.08c0.7,0.46 1.64,0.27 2.09,-0.43 0.46,-0.7 0.26,-1.64 -0.44,-2.09 -0.7,-0.46 -1.64,-0.26 -2.08,0.44 -0.46,0.69 -0.27,1.63 0.43,2.08 0,0 0,0 0,0z"/>
     <path class="fil1" d="M602.5 624.39c0.59,0.38 1.4,0.22 1.78,-0.37 0.39,-0.59 0.23,-1.39 -0.36,-1.78 -0.59,-0.39 -1.4,-0.23 -1.78,0.36 0,0 0,0 0,0 -0.4,0.6 -0.24,1.4 0.36,1.79 0,0 0,0 0,0z"/>
     <path class="fil1" d="M605.13 619.85c0.39,0.26 0.9,0.15 1.15,-0.24 0.26,-0.39 0.14,-0.89 -0.24,-1.15 -0.39,-0.25 -0.9,-0.14 -1.15,0.24 -0.25,0.38 -0.14,0.9 0.24,1.15 0,0 0,0 0,0z"/>
     <path class="fil1" d="M602.7 632.41c-1.42,-0.08 -2.64,1.01 -2.71,2.42 -0.08,1.42 1.01,2.64 2.42,2.71 0.05,0 0.1,0 0.14,0 1.42,0 2.57,-1.15 2.57,-2.58 0.01,-1.35 -1.06,-2.48 -2.42,-2.55l0 0z"/>
     <path class="fil1" d="M591.16 630.9c0.44,0.87 1.32,1.42 2.3,1.42 1.42,0 2.57,-1.15 2.57,-2.58 0,-0.4 -0.09,-0.79 -0.28,-1.16 -0.64,-1.27 -2.19,-1.78 -3.45,-1.14 -1.27,0.65 -1.78,2.2 -1.14,3.46l0 0z"/>
     <path class="fil1" d="M611.31 627.61c0.52,-0.26 0.72,-0.9 0.46,-1.42 -0.27,-0.52 -0.91,-0.72 -1.43,-0.46 -0.52,0.27 -0.72,0.89 -0.47,1.42 0.28,0.51 0.91,0.73 1.44,0.46 0,0 0,0 0,0z"/>
     <path class="fil1" d="M604.79 628.43c-0.74,0.37 -1.04,1.28 -0.67,2.02 0.38,0.75 1.28,1.05 2.03,0.67 0.74,-0.37 1.05,-1.28 0.67,-2.02 -0.38,-0.74 -1.28,-1.04 -2.03,-0.67z"/>
     <path class="fil1" d="M596.4 619.47c0.58,0.03 1.07,-0.42 1.11,-1 0.04,-0.58 -0.41,-1.08 -0.99,-1.12 -0.58,-0.03 -1.08,0.41 -1.12,0.99 -0.03,0.59 0.41,1.09 1,1.13 0,0 0,0 0,0z"/>
     <path class="fil1" d="M596.38 626.12c0.84,0.05 1.55,-0.59 1.59,-1.43 0.05,-0.83 -0.59,-1.55 -1.42,-1.59 -0.84,-0.05 -1.55,0.59 -1.59,1.43 -0.04,0.83 0.59,1.55 1.42,1.59 0,0 0,0 0,0z"/>
     <path class="fil1" d="M588.2 641.55c0.74,-0.38 1.05,-1.28 0.67,-2.03 -0.38,-0.74 -1.28,-1.04 -2.02,-0.67 -0.75,0.38 -1.05,1.29 -0.68,2.03 0.38,0.74 1.29,1.05 2.03,0.67z"/>
     <path class="fil1" d="M597.36 628.33c-0.77,1.19 -0.45,2.77 0.74,3.55 1.2,0.77 2.78,0.45 3.56,-0.74 0.77,-1.19 0.45,-2.78 -0.74,-3.56 -0.42,-0.27 -0.91,-0.41 -1.41,-0.41 -0.86,0 -1.67,0.43 -2.15,1.16z"/>
     <path class="fil1" d="M601.83 639.08c-0.64,-1.28 -2.19,-1.79 -3.45,-1.14 -1.27,0.64 -1.78,2.19 -1.14,3.45 0.64,1.27 2.19,1.78 3.45,1.14 0,0 0,0 0,0 1.26,-0.63 1.78,-2.16 1.15,-3.43 0,-0.01 0,-0.01 -0.01,-0.02z"/>
     <path class="fil1" d="M606.32 638.89c-0.7,-0.45 -1.64,-0.26 -2.09,0.44 -0.45,0.7 -0.26,1.64 0.44,2.09 0.71,0.46 1.64,0.26 2.09,-0.44 0.46,-0.69 0.26,-1.63 -0.44,-2.09 0,0 0,0 0,0z"/>
     <path class="fil1" d="M611.25 635.04c0.04,-0.72 -0.5,-1.32 -1.21,-1.36 -0.72,-0.04 -1.31,0.5 -1.36,1.21 -0.04,0.72 0.5,1.32 1.22,1.36 0,0 0,0 0,0 0.7,0.04 1.31,-0.51 1.35,-1.21z"/>
     <path class="fil1" d="M614.8 634.12c-0.46,-0.03 -0.85,0.33 -0.87,0.78 -0.02,0.46 0.32,0.86 0.78,0.88 0.46,0.03 0.85,-0.33 0.88,-0.78 0.02,-0.46 -0.33,-0.85 -0.79,-0.88z"/>
     <path class="fil1" d="M611.45 642.36c-0.49,-0.31 -1.14,-0.18 -1.46,0.31 -0.32,0.49 -0.19,1.14 0.3,1.47 0.49,0.31 1.14,0.18 1.47,-0.31 0.32,-0.49 0.18,-1.15 -0.31,-1.47 0,0 0,0 0,0z"/>
     <path class="fil1" d="M587.85 650.12c-0.38,-0.25 -0.89,-0.14 -1.15,0.24 -0.25,0.38 -0.14,0.89 0.24,1.15 0.38,0.25 0.89,0.14 1.15,-0.24 0,0 0,0 0,0 0.26,-0.37 0.15,-0.89 -0.24,-1.15z"/>
     <path class="fil1" d="M605.28 650.04c-0.41,0.21 -0.57,0.71 -0.36,1.12 0.2,0.41 0.71,0.57 1.12,0.37 0.4,-0.21 0.57,-0.7 0.36,-1.11 -0.2,-0.42 -0.7,-0.59 -1.12,-0.38 0.01,0 0,0 0,0z"/>
     <path class="fil1" d="M595.63 641.65c0.77,-1.19 0.45,-2.78 -0.74,-3.56 -1.19,-0.77 -2.78,-0.45 -3.56,0.74 -0.79,1.19 -0.45,2.78 0.74,3.57 0.41,0.27 0.9,0.41 1.4,0.41 0.88,0.01 1.68,-0.42 2.16,-1.16z"/>
     <path class="fil1" d="M590.49 645.59c-0.59,-0.38 -1.39,-0.22 -1.78,0.37 -0.39,0.59 -0.22,1.39 0.37,1.78 0.58,0.39 1.39,0.22 1.78,-0.37 0,0 0,0 0,0 0.39,-0.59 0.23,-1.39 -0.37,-1.78z"/>
     <path class="fil1" d="M596.49 650.51c-0.58,-0.03 -1.08,0.42 -1.12,1 -0.04,0.58 0.41,1.08 0.99,1.12 0.58,0.03 1.08,-0.41 1.12,-0.99 0.03,-0.59 -0.41,-1.09 -0.99,-1.13 0,0 0,0 0,0z"/>
     <path class="fil1" d="M596.5 643.86c-0.84,-0.05 -1.55,0.59 -1.59,1.43 -0.05,0.83 0.59,1.55 1.42,1.59 0.84,0.04 1.55,-0.59 1.59,-1.43 0.05,-0.82 -0.59,-1.55 -1.42,-1.59 0,0 0,0 0,0z"/>
     <path class="fil1" d="M602.68 645.49c-0.63,0.33 -0.89,1.1 -0.56,1.73 0.32,0.63 1.1,0.89 1.73,0.56 0.63,-0.31 0.88,-1.09 0.57,-1.72 -0.33,-0.63 -1.1,-0.9 -1.74,-0.57 0,0 0,0 0,0z"/>
    </g>
   </g>
   <path id="coin_2" class="fil1" d="M697.51 425.15c2.64,9.95 -3.29,20.15 -13.23,22.78 -9.95,2.64 -20.15,-3.29 -22.79,-13.23 -2.64,-9.95 3.29,-20.15 13.23,-22.79 9.95,-2.64 20.15,3.29 22.79,13.24l0 0zm-12.1 -1.52c-0.87,-2.35 -3.16,-2.6 -5.85,-2.14l-0.89 -3.35 -2.04 0.55 0.86 3.25c-0.53,0.15 -1.08,0.3 -1.62,0.46l-0.87 -3.28 -2.03 0.54 0.88 3.34c-0.43,0.13 -0.86,0.25 -1.29,0.36l0 -0.01 -2.81 0.75 0.58 2.17c0,0 1.49,-0.43 1.48,-0.39 0.82,-0.22 1.22,0.19 1.41,0.58l1.01 3.81c0.05,-0.01 0.13,-0.03 0.22,-0.04 -0.07,0.02 -0.15,0.04 -0.22,0.06l1.41 5.34c0.04,0.27 0,0.72 -0.58,0.88 0.03,0.01 -1.48,0.39 -1.48,0.39l0.24 2.54 2.65 -0.7c0.49,-0.13 0.98,-0.25 1.46,-0.38l0.9 3.39 2.03 -0.54 -0.89 -3.35c0.56,-0.14 1.11,-0.28 1.63,-0.42l0.89 3.34 2.03 -0.54 -0.89 -3.38c3.37,-1.11 5.54,-2.61 4.98,-5.9 -0.44,-2.65 -1.96,-3.49 -4.03,-3.44 1.02,-0.91 1.47,-2.17 0.83,-3.89l0 0zm-0.93 8c0.68,2.52 -3.73,3.39 -5.11,3.75l-1.19 -4.48c1.38,-0.37 5.6,-1.91 6.3,0.73zm-2.62 -6.08c0.61,2.3 -3.08,2.99 -4.23,3.3l-1.07 -4.07c1.15,-0.31 4.66,-1.63 5.3,0.77l0 0z"/>
   <g>
    <path class="fil1" d="M518.05 509.59c-32.55,0 -59.03,-26.48 -59.03,-59.03l0 -26.27c0,-32.55 26.48,-59.03 59.03,-59.03 32.56,0 59.04,26.48 59.04,59.03l0 26.27c0,32.55 -26.48,59.03 -59.04,59.03zm0 -122.45l0 0c-20.48,0 -37.15,16.67 -37.15,37.15l0 26.27c0,20.48 16.67,37.15 37.15,37.15 20.49,0 37.16,-16.67 37.16,-37.15l0 -26.27c0,-20.48 -16.67,-37.15 -37.16,-37.15z"/>
    <path class="fil7" d="M554.97 420.16c0.16,1.36 0.24,2.74 0.24,4.13l0 26.27c0,20.48 -16.67,37.15 -37.16,37.15 -20.48,0 -37.15,-16.67 -37.15,-37.15l0 -26.27c0,-1.37 0.08,-2.72 0.22,-4.05 -7.46,1.7 -14.84,3.93 -22.1,6.69l0 23.63c0,32.55 26.48,59.03 59.03,59.03 32.56,0 59.04,-26.48 59.04,-59.03l0 -23.95c-7.26,-2.65 -14.65,-4.8 -22.12,-6.45z"/>
    <path class="fil8" d="M553.12 449.5l-70.13 0c-24.61,0 -44.57,19.95 -44.57,44.56l0 67.89c0,9.77 7.92,17.69 17.69,17.69l123.88 0c9.78,0 17.7,-7.92 17.7,-17.69l0 -67.89c0,-24.61 -19.96,-44.56 -44.57,-44.56z"/>
    <path class="fil9" d="M517.19 551.44c-43.23,-1.44 -67.89,-47.4 -65.53,-89.06 -8.17,8.08 -13.24,19.29 -13.24,31.68l0 67.89c0,9.77 7.92,17.69 17.69,17.69l123.88 0c9.78,0 17.7,-7.92 17.7,-17.69l0 -30.32c-23.54,15.24 -54.02,20.87 -80.5,19.81z"/>
    <g>
     <path class="fil10" d="M538.76 492.73c0,11.44 -9.27,20.7 -20.71,20.7 -11.43,0 -20.7,-9.26 -20.7,-20.7 0,-11.43 9.27,-20.7 20.7,-20.7 11.44,0 20.71,9.27 20.71,20.7z"/>
    </g>
    <g>
     <polygon class="fil10" points="512.35,502.13 501.1,554.84 534.76,554.84 523.67,502.13 "/>
    </g>
   </g>
   <g>
    <g>
     <polygon class="fil0 str0" points="244.2,737.51 239.1,737.51 239.1,736.49 244.2,736.49 "/>
     <path class="fil0 str0" d="M782.88 737.51l-10.36 0 0 -1.02 10.36 0 0 1.02zm-20.72 0l0 0 -10.36 0 0 -1.02 10.36 0 0 1.02zm-20.72 0l0 0 -10.36 0 0 -1.02 10.36 0 0 1.02zm-20.72 0l0 0 -10.36 0 0 -1.02 10.36 0 0 1.02zm-20.72 0l0 0 -10.36 0 0 -1.02 10.36 0 0 1.02zm-20.72 0l0 0 -10.36 0 0 -1.02 10.36 0 0 1.02zm-20.71 0l0 0 -10.36 0 0 -1.02 10.36 0 0 1.02zm-20.72 0l0 0 -10.36 0 0 -1.02 10.36 0 0 1.02zm-20.72 0l0 0 -10.36 0 0 -1.02 10.36 0 0 1.02zm-20.72 0l0 0 -10.36 0 0 -1.02 10.36 0 0 1.02zm-20.72 0l0 0 -10.36 0 0 -1.02 10.36 0 0 1.02zm-20.72 0l0 0 -10.36 0 0 -1.02 10.36 0 0 1.02zm-20.72 0l0 0 -10.35 0 0 -1.02 10.35 0 0 1.02zm-20.71 0l0 0 -10.36 0 0 -1.02 10.36 0 0 1.02zm-20.72 0l0 0 -10.36 0 0 -1.02 10.36 0 0 1.02zm-20.72 0l0 0 -10.36 0 0 -1.02 10.36 0 0 1.02zm-20.72 0l0 0 -10.36 0 0 -1.02 10.36 0 0 1.02zm-20.72 0l0 0 -10.36 0 0 -1.02 10.36 0 0 1.02zm-20.72 0l0 0 -10.35 0 0 -1.02 10.35 0 0 1.02zm-20.71 0l0 0 -10.36 0 0 -1.02 10.36 0 0 1.02zm-20.72 0l0 0 -10.36 0 0 -1.02 10.36 0 0 1.02zm-20.72 0l0 0 -10.36 0 0 -1.02 10.36 0 0 1.02zm-20.72 0l0 0 -10.36 0 0 -1.02 10.36 0 0 1.02zm-20.72 0l0 0 -10.36 0 0 -1.02 10.36 0 0 1.02zm-20.72 0l0 0 -10.35 0 0 -1.02 10.35 0 0 1.02zm-20.71 0l0 0 -10.36 0 0 -1.02 10.36 0 0 1.02z"/>
     <polygon class="fil0 str0" points="798.33,737.51 793.24,737.51 793.24,736.49 798.33,736.49 "/>
    </g>
    <g>
     <polygon class="fil0 str0" points="456.15,148.58 244.89,139.73 "/>
     <g>
      <polygon class="fil0 str0" points="456.13,149.09 451.04,148.87 451.08,147.86 456.17,148.07 "/>
      <path class="fil0 str0" d="M440.45 148.43l-10.58 -0.44 0.04 -1.02 10.58 0.44 -0.04 1.02zm-21.16 -0.88l0 0 -10.59 -0.45 0.05 -1.02 10.58 0.44 -0.04 1.03zm-21.17 -0.89l0 0 -10.58 -0.45 0.04 -1.01 10.58 0.44 -0.04 1.02zm-21.17 -0.89l0 0 -10.58 -0.44 0.04 -1.02 10.59 0.44 -0.05 1.02zm-21.16 -0.88l0 0 -10.58 -0.45 0.04 -1.02 10.58 0.45 -0.04 1.02zm-21.17 -0.89l0 0 -10.58 -0.44 0.04 -1.02 10.58 0.44 -0.04 1.02zm-21.16 -0.89l0 0 -10.59 -0.44 0.05 -1.02 10.58 0.44 -0.04 1.02zm-21.17 -0.88l0 0 -10.58 -0.45 0.04 -1.02 10.58 0.45 -0.04 1.02zm-21.17 -0.89l0 0 -10.58 -0.44 0.04 -1.02 10.59 0.44 -0.05 1.02z"/>
      <polygon class="fil0 str0" points="249.96,140.45 244.87,140.24 244.91,139.22 250,139.44 "/>
     </g>
    </g>
    <g>
     <polygon class="fil0 str0" points="185.85,340.99 184.87,340.7 186.31,335.82 187.29,336.11 "/>
     <path class="fil0 str0" d="M190.27 326.04l-0.97 -0.29 2.98 -10.07 0.97 0.28 -2.98 10.08zm5.96 -20.15l0 0 -0.97 -0.29 2.98 -10.07 0.98 0.29 -2.99 10.07zm5.97 -20.14l0 0 -0.98 -0.29 2.98 -10.07 0.98 0.29 -2.98 10.07zm5.96 -20.14l0 0 -0.98 -0.29 2.98 -10.07 0.98 0.29 -2.98 10.07zm5.96 -20.14l0 0 -0.98 -0.29 2.98 -10.07 0.98 0.29 -2.98 10.07zm5.96 -20.14l0 0 -0.97 -0.29 2.98 -10.07 0.97 0.28 -2.98 10.08zm5.96 -20.15l0 0 -0.97 -0.28 2.98 -10.07 0.98 0.28 -2.99 10.07zm5.97 -20.14l0 0 -0.98 -0.29 2.98 -10.07 0.98 0.29 -2.98 10.07zm5.96 -20.14l0 0 -0.98 -0.29 2.98 -10.07 0.98 0.29 -2.98 10.07z"/>
     <polygon class="fil0 str0" points="243.93,144.76 242.95,144.47 244.4,139.59 245.38,139.87 "/>
    </g>
    <g>
     <polygon class="fil0 str0" points="115.88,512.35 112.88,508.23 113.7,507.63 116.71,511.74 "/>
     <path class="fil0 str0" d="M226.9 664.4l-6.17 -8.45 0.83 -0.6 6.16 8.45 -0.82 0.6zm-12.34 -16.89l0 0 -6.16 -8.45 0.82 -0.6 6.17 8.44 -0.83 0.61zm-12.33 -16.9l0 0 -6.17 -8.45 0.82 -0.6 6.17 8.45 -0.82 0.6zm-12.34 -16.89l0 0 -6.16 -8.45 0.82 -0.6 6.17 8.45 -0.83 0.6zm-12.33 -16.9l0 0 -6.17 -8.45 0.82 -0.6 6.17 8.45 -0.82 0.6zm-12.34 -16.89l0 0 -6.17 -8.45 0.83 -0.6 6.17 8.44 -0.83 0.61zm-12.33 -16.9l0 0 -6.17 -8.45 0.82 -0.6 6.17 8.45 -0.82 0.6zm-12.34 -16.89l0 0 -6.16 -8.45 0.82 -0.6 6.17 8.45 -0.83 0.6zm-12.33 -16.9l0 0 -6.17 -8.45 0.82 -0.6 6.17 8.45 -0.82 0.6z"/>
     <polygon class="fil0 str0" points="236.07,676.96 233.07,672.85 233.89,672.25 236.9,676.36 "/>
    </g>
    <g>
     <polygon class="fil0 str0" points="173.72,368.8 172.78,368.4 174.8,363.72 175.73,364.12 "/>
     <path class="fil0 str0" d="M119.63 494.48l-0.93 -0.4 3.86 -8.98 0.94 0.4 -3.87 8.98zm7.73 -17.96l0 0 -0.93 -0.4 3.86 -8.98 0.93 0.41 -3.86 8.97zm7.73 -17.95l0 0 -0.94 -0.4 3.86 -8.98 0.94 0.4 -3.86 8.98zm7.72 -17.95l0 0 -0.93 -0.41 3.86 -8.97 0.94 0.4 -3.87 8.98zm7.73 -17.96l0 0 -0.94 -0.4 3.87 -8.98 0.93 0.41 -3.86 8.97zm7.72 -17.95l0 0 -0.93 -0.4 3.86 -8.98 0.94 0.4 -3.87 8.98zm7.73 -17.95l0 0 -0.93 -0.41 3.86 -8.97 0.93 0.4 -3.86 8.98z"/>
     <polygon class="fil0 str0" points="113.76,508.13 112.82,507.73 114.84,503.05 115.77,503.45 "/>
    </g>
    <g>
     <polygon class="fil0 str0" points="503.45,831.66 498.66,829.92 499.01,828.96 503.79,830.7 "/>
     <path class="fil0 str0" d="M488.94 826.4l-9.71 -3.52 0.35 -0.96 9.71 3.52 -0.35 0.96zm-19.42 -7.04l0 0 -9.72 -3.51 0.35 -0.96 9.71 3.52 -0.34 0.95zm-19.43 -7.03l0 0 -9.71 -3.52 0.34 -0.96 9.72 3.52 -0.35 0.96zm-19.43 -7.04l0 0 -9.71 -3.52 0.34 -0.96 9.72 3.52 -0.35 0.96zm-19.43 -7.04l0 0 -9.71 -3.52 0.35 -0.96 9.71 3.52 -0.35 0.96zm-19.42 -7.04l0 0 -9.72 -3.52 0.35 -0.96 9.71 3.52 -0.34 0.96zm-19.43 -7.04l0 0 -9.71 -3.52 0.34 -0.96 9.72 3.52 -0.35 0.96zm-19.43 -7.04l0 0 -9.71 -3.52 0.34 -0.96 9.72 3.52 -0.35 0.96zm-19.43 -7.04l0 0 -9.71 -3.52 0.35 -0.96 9.71 3.52 -0.35 0.96zm-19.43 -7.03l0 0 -9.71 -3.53 0.35 -0.96 9.71 3.53 -0.35 0.96zm-19.42 -7.04l0 0 -9.72 -3.52 0.35 -0.96 9.72 3.52 -0.35 0.96zm-19.43 -7.04l0 0 -9.71 -3.52 0.34 -0.96 9.72 3.52 -0.35 0.96zm-19.43 -7.04l0 0 -9.71 -3.52 0.35 -0.96 9.71 3.52 -0.35 0.96zm-19.43 -7.04l0 0 -9.71 -3.52 0.35 -0.96 9.71 3.52 -0.35 0.96zm-19.42 -7.04l0 0 -9.72 -3.52 0.35 -0.96 9.71 3.52 -0.34 0.96z"/>
     <polygon class="fil0 str0" points="197.53,720.82 192.74,719.09 193.09,718.13 197.88,719.86 "/>
    </g>
    <g>
     <polygon class="fil0 str0" points="760.68,147.16 760.67,146.14 765.77,146.1 765.77,147.12 "/>
     <path class="fil0 str0" d="M524.54 148.97l-0.01 -1.02 9.84 -0.07 0.01 1.02 -9.84 0.07zm19.68 -0.15l0 0 -0.01 -1.02 9.84 -0.07 0.01 1.02 -9.84 0.07zm19.67 -0.15l0 0 0 -1.02 9.83 -0.07 0.01 1.02 -9.84 0.07zm19.68 -0.15l0 0 0 -1.02 9.83 -0.07 0.01 1.01 -9.84 0.08zm19.68 -0.15l0 0 -0.01 -1.02 9.84 -0.08 0.01 1.02 -9.84 0.08zm19.68 -0.15l0 0 -0.01 -1.02 9.84 -0.08 0.01 1.02 -9.84 0.08zm19.68 -0.16l0 0 -0.01 -1.02 9.84 -0.07 0.01 1.02 -9.84 0.07zm19.68 -0.15l0 0 -0.01 -1.01 9.84 -0.08 0.01 1.02 -9.84 0.07zm19.67 -0.15l0 0 0 -1.02 9.83 -0.07 0.01 1.02 -9.84 0.07zm19.69 -0.15l0 0 -0.01 -1.02 9.84 -0.07 0 1.01 -9.83 0.08zm19.67 -0.15l0 0 0 -1.02 9.83 -0.08 0.01 1.02 -9.84 0.08zm19.68 -0.15l0 0 -0.01 -1.02 9.84 -0.08 0.01 1.02 -9.84 0.08z"/>
     <polygon class="fil0 str0" points="509.6,149.09 509.6,148.07 514.69,148.03 514.7,149.05 "/>
    </g>
    <g>
     <polygon class="fil0 str0" points="816.11,346.69 814.86,341.75 815.85,341.5 817.1,346.44 "/>
     <path class="fil0 str0" d="M812.32 331.75l-2.55 -10.01 0.99 -0.25 2.54 10.01 -0.98 0.25zm-5.09 -20.01l0 0 -2.54 -10 0.98 -0.26 2.55 10.01 -0.99 0.25zm-5.09 -20.01l0 0 -2.54 -10 0.98 -0.25 2.55 10 -0.99 0.25zm-5.09 -20.01l0 0 -2.54 -10 0.99 -0.25 2.54 10 -0.99 0.25zm-5.08 -20l0 0 -2.54 -10.01 0.98 -0.25 2.54 10 -0.98 0.26zm-5.09 -20.01l0 0 -2.54 -10.01 0.98 -0.25 2.55 10 -0.99 0.26zm-5.09 -20.01l0 0 -2.54 -10.01 0.99 -0.25 2.54 10.01 -0.99 0.25zm-5.08 -20.01l0 0 -2.55 -10 0.99 -0.26 2.54 10.01 -0.98 0.25zm-5.09 -20.01l0 0 -2.55 -10 0.99 -0.26 2.55 10.01 -0.99 0.25z"/>
     <polygon class="fil0 str0" points="766.53,151.67 765.28,146.73 766.26,146.48 767.52,151.42 "/>
    </g>
    <g>
     <polygon class="fil0 str0" points="899.62,494.91 897.12,490.48 898.01,489.97 900.51,494.41 "/>
     <path class="fil0 str0" d="M891.89 481.19l-5.23 -9.28 0.89 -0.5 5.23 9.28 -0.89 0.5zm-10.46 -18.56l0 0 -5.23 -9.28 0.89 -0.5 5.23 9.28 -0.89 0.5zm-10.46 -18.56l0 0 -5.23 -9.28 0.89 -0.5 5.23 9.28 -0.89 0.5zm-10.46 -18.56l0 0 -5.23 -9.29 0.89 -0.5 5.23 9.29 -0.89 0.5zm-10.46 -18.57l0 0 -5.23 -9.28 0.88 -0.5 5.24 9.28 -0.89 0.5zm-10.46 -18.56l0 0 -5.23 -9.28 0.89 -0.5 5.23 9.28 -0.89 0.5zm-10.46 -18.56l0 0 -5.23 -9.29 0.88 -0.49 5.23 9.28 -0.88 0.5z"/>
     <polygon class="fil0 str0" points="818.67,351.25 816.16,346.82 817.05,346.32 819.55,350.75 "/>
    </g>
    <g>
     <polygon class="fil0 str0" points="767.31,668.3 766.5,667.68 769.6,663.64 770.41,664.26 "/>
     <path class="fil0 str0" d="M776.46 656.39l-0.81 -0.62 6.05 -7.86 0.8 0.62 -6.04 7.86zm12.09 -15.73l0 0 -0.81 -0.62 6.05 -7.87 0.81 0.62 -6.05 7.87zm12.09 -15.74l0 0 -0.81 -0.62 6.05 -7.87 0.8 0.62 -6.04 7.87zm12.09 -15.74l0 0 -0.81 -0.62 6.05 -7.87 0.81 0.62 -6.05 7.87zm12.09 -15.74l0 0 -0.81 -0.62 6.05 -7.87 0.81 0.62 -6.05 7.87zm12.09 -15.74l0 0 -0.8 -0.62 6.04 -7.86 0.81 0.62 -6.05 7.86zm12.09 -15.73l0 0 -0.81 -0.63 6.05 -7.86 0.81 0.62 -6.05 7.87zm12.09 -15.74l0 0 -0.8 -0.62 6.04 -7.87 0.81 0.62 -6.05 7.87zm12.1 -15.74l0 0 -0.81 -0.62 6.04 -7.87 0.81 0.62 -6.04 7.87zm12.09 -15.74l0 0 -0.81 -0.62 6.04 -7.87 0.81 0.62 -6.04 7.87z"/>
     <polygon class="fil0 str0" points="897.37,499.01 896.56,498.39 899.66,494.35 900.47,494.97 "/>
    </g>
    <g>
     <polygon class="fil0 str0" points="185.62,345.96 184.85,340.92 185.86,340.77 186.63,345.81 "/>
     <path class="fil0 str0" d="M233.71 661.83l-1.5 -9.87 1 -0.15 1.51 9.87 -1.01 0.15zm-3 -19.74l0 0 -1.51 -9.87 1.01 -0.16 1.5 9.87 -1 0.16zm-3.01 -19.74l0 0 -1.5 -9.87 1 -0.16 1.51 9.88 -1.01 0.15zm-3.01 -19.74l0 0 -1.5 -9.87 1.01 -0.16 1.5 9.87 -1.01 0.16zm-3 -19.75l0 0 -1.51 -9.87 1.01 -0.15 1.5 9.87 -1 0.15zm-3.01 -19.74l0 0 -1.5 -9.87 1.01 -0.15 1.5 9.87 -1.01 0.15zm-3 -19.74l0 0 -1.51 -9.87 1.01 -0.15 1.5 9.86 -1 0.16zm-3.01 -19.74l0 0 -1.5 -9.87 1 -0.16 1.51 9.87 -1.01 0.16zm-3 -19.74l0 0 -1.51 -9.87 1.01 -0.16 1.5 9.87 -1 0.16zm-3.01 -19.75l0 0 -1.5 -9.86 1 -0.16 1.51 9.87 -1.01 0.15zm-3.01 -19.74l0 0 -1.5 -9.87 1.01 -0.15 1.5 9.87 -1.01 0.15zm-3 -19.74l0 0 -1.5 -9.87 1 -0.15 1.5 9.87 -1 0.15zm-3.01 -19.74l0 0 -1.5 -9.87 1.01 -0.15 1.5 9.87 -1.01 0.15zm-3 -19.74l0 0 -1.51 -9.88 1.01 -0.15 1.5 9.87 -1 0.16zm-3.01 -19.75l0 0 -1.5 -9.87 1.01 -0.15 1.5 9.87 -1.01 0.15zm-3 -19.74l0 0 -1.51 -9.87 1.01 -0.15 1.5 9.87 -1 0.15z"/>
     <polygon class="fil0 str0" points="235.98,676.74 235.21,671.7 236.22,671.55 236.99,676.59 "/>
    </g>
    <g>
     <polygon class="fil0 str0" points="816.37,351.68 815.37,351.53 816.11,346.49 817.11,346.64 "/>
     <path class="fil0 str0" d="M769.61 669.74l-1.01 -0.15 1.46 -9.94 1.01 0.15 -1.46 9.94zm2.92 -19.88l0 0 -1 -0.15 1.46 -9.94 1 0.15 -1.46 9.94zm2.93 -19.88l0 0 -1.01 -0.15 1.46 -9.93 1.01 0.14 -1.46 9.94zm2.92 -19.88l0 0 -1.01 -0.14 1.46 -9.94 1.01 0.14 -1.46 9.94zm2.92 -19.88l0 0 -1.01 -0.14 1.46 -9.94 1.01 0.14 -1.46 9.94zm2.92 -19.87l0 0 -1 -0.15 1.46 -9.94 1 0.14 -1.46 9.95zm2.93 -19.88l0 0 -1.01 -0.15 1.46 -9.94 1.01 0.15 -1.46 9.94zm2.92 -19.88l0 0 -1.01 -0.15 1.46 -9.94 1.01 0.15 -1.46 9.94zm2.92 -19.88l0 0 -1.01 -0.15 1.47 -9.94 1 0.15 -1.46 9.94zm2.92 -19.88l0 0 -1 -0.15 1.46 -9.94 1.01 0.15 -1.47 9.94zm2.92 -19.88l0 0 -1 -0.15 1.46 -9.93 1.01 0.14 -1.47 9.94zm2.93 -19.88l0 0 -1.01 -0.15 1.46 -9.93 1.01 0.14 -1.46 9.94zm2.92 -19.88l0 0 -1.01 -0.14 1.46 -9.94 1.01 0.14 -1.46 9.94zm2.92 -19.87l0 0 -1 -0.15 1.46 -9.94 1 0.15 -1.46 9.94zm2.93 -19.88l0 0 -1.01 -0.15 1.46 -9.94 1.01 0.15 -1.46 9.94zm2.92 -19.88l0 0 -1.01 -0.15 1.46 -9.94 1.01 0.15 -1.46 9.94z"/>
     <polygon class="fil0 str0" points="767.41,684.72 766.4,684.57 767.14,679.53 768.15,679.68 "/>
    </g>
    <g>
     <polygon class="fil0 str0" points="486.89,151.61 482.51,149.02 483.03,148.14 487.41,150.74 "/>
     <path class="fil0 str0" d="M803.18 339.19l-8.79 -5.21 0.52 -0.87 8.79 5.21 -0.52 0.87zm-17.57 -10.42l0 0 -8.79 -5.21 0.52 -0.87 8.79 5.21 -0.52 0.87zm-17.57 -10.42l0 0 -8.79 -5.21 0.52 -0.88 8.79 5.22 -0.52 0.87zm-17.57 -10.42l0 0 -8.79 -5.21 0.52 -0.88 8.79 5.21 -0.52 0.88zm-17.57 -10.42l0 0 -8.79 -5.21 0.52 -0.88 8.79 5.21 -0.52 0.88zm-17.58 -10.42l0 0 -8.79 -5.21 0.53 -0.88 8.78 5.21 -0.52 0.88zm-17.57 -10.42l0 0 -8.79 -5.21 0.53 -0.88 8.78 5.21 -0.52 0.88zm-17.57 -10.42l0 0 -8.79 -5.21 0.52 -0.88 8.79 5.21 -0.52 0.88zm-17.57 -10.42l0 0 -8.79 -5.21 0.52 -0.88 8.79 5.21 -0.52 0.88zm-17.58 -10.43l0 0 -8.78 -5.21 0.52 -0.87 8.78 5.21 -0.52 0.87zm-17.57 -10.42l0 0 -8.78 -5.21 0.52 -0.87 8.78 5.21 -0.52 0.87zm-17.57 -10.42l0 0 -8.78 -5.21 0.52 -0.87 8.78 5.21 -0.52 0.87zm-17.57 -10.42l0 0 -8.79 -5.21 0.53 -0.88 8.78 5.22 -0.52 0.87zm-17.57 -10.42l0 0 -8.79 -5.21 0.52 -0.88 8.79 5.21 -0.52 0.88zm-17.57 -10.42l0 0 -8.79 -5.21 0.52 -0.88 8.79 5.21 -0.52 0.88zm-17.57 -10.42l0 0 -8.79 -5.21 0.52 -0.88 8.79 5.21 -0.52 0.88zm-17.58 -10.42l0 0 -8.78 -5.21 0.52 -0.88 8.78 5.21 -0.52 0.88zm-17.57 -10.42l0 0 -8.78 -5.21 0.52 -0.88 8.78 5.21 -0.52 0.88z"/>
     <polygon class="fil0 str0" points="816.35,347 811.97,344.4 812.49,343.53 816.87,346.13 "/>
    </g>
    <g>
     <polygon class="fil0 str0" points="175.55,364.34 174.97,363.51 179.14,360.58 179.73,361.42 "/>
     <path class="fil0 str0" d="M188.28 355.43l-0.59 -0.83 8.55 -5.99 0.58 0.84 -8.54 5.98zm17.09 -11.97l0 0 -0.59 -0.83 8.55 -5.99 0.59 0.83 -8.55 5.99zm17.1 -11.97l0 0 -0.59 -0.84 8.55 -5.98 0.58 0.83 -8.54 5.99zm17.09 -11.97l0 0 -0.59 -0.84 8.55 -5.98 0.59 0.83 -8.55 5.99zm17.09 -11.97l0 0 -0.58 -0.84 8.55 -5.98 0.58 0.83 -8.55 5.99zm17.1 -11.98l0 0 -0.59 -0.83 8.55 -5.99 0.59 0.84 -8.55 5.98zm17.09 -11.97l0 0 -0.58 -0.83 8.55 -5.99 0.58 0.84 -8.55 5.98zm17.1 -11.97l0 0 -0.59 -0.83 8.55 -5.99 0.59 0.83 -8.55 5.99zm17.09 -11.97l0 0 -0.58 -0.83 8.55 -5.99 0.58 0.84 -8.55 5.98zm17.1 -11.97l0 0 -0.59 -0.83 8.55 -5.99 0.59 0.83 -8.55 5.99zm17.09 -11.97l0 0 -0.58 -0.84 8.55 -5.98 0.58 0.83 -8.55 5.99zm17.1 -11.97l0 0 -0.59 -0.84 8.55 -5.98 0.59 0.83 -8.55 5.99zm17.09 -11.98l0 0 -0.58 -0.83 8.55 -5.99 0.58 0.84 -8.55 5.98zm17.1 -11.97l0 0 -0.59 -0.83 8.55 -5.99 0.59 0.84 -8.55 5.98zm17.09 -11.97l0 0 -0.58 -0.83 8.55 -5.99 0.58 0.84 -8.55 5.98zm17.1 -11.97l0 0 -0.59 -0.83 8.55 -5.99 0.59 0.83 -8.55 5.99zm17.09 -11.97l0 0 -0.58 -0.84 8.55 -5.98 0.58 0.83 -8.55 5.99z"/>
     <polygon class="fil0 str0" points="478.89,151.92 478.3,151.08 482.48,148.16 483.06,149 "/>
    </g>
    <g>
     <polygon class="fil0 str0" points="503.77,831.66 503.48,830.69 508.36,829.23 508.65,830.2 "/>
     <path class="fil0 str0" d="M518.2 827.34l-0.29 -0.98 9.54 -2.86 0.3 0.98 -9.55 2.86zm19.1 -5.73l0 0 -0.29 -0.97 9.55 -2.87 0.29 0.98 -9.55 2.86zm19.1 -5.73l0 0 -0.29 -0.97 9.55 -2.87 0.29 0.98 -9.55 2.86zm19.1 -5.73l0 0 -0.29 -0.97 9.55 -2.86 0.29 0.97 -9.55 2.86zm19.11 -5.72l0 0 -0.3 -0.98 9.55 -2.86 0.3 0.97 -9.55 2.87zm19.1 -5.73l0 0 -0.29 -0.98 9.54 -2.86 0.3 0.97 -9.55 2.87zm19.1 -5.73l0 0 -0.3 -0.98 9.56 -2.86 0.29 0.98 -9.55 2.86zm19.1 -5.73l0 0 -0.29 -0.97 9.55 -2.87 0.29 0.98 -9.55 2.86zm19.1 -5.73l0 0 -0.29 -0.97 9.55 -2.86 0.29 0.97 -9.55 2.86zm19.1 -5.72l0 0 -0.29 -0.98 9.55 -2.86 0.3 0.97 -9.56 2.87zm19.11 -5.73l0 0 -0.3 -0.98 9.55 -2.86 0.3 0.97 -9.55 2.87zm19.1 -5.73l0 0 -0.3 -0.98 9.55 -2.86 0.3 0.98 -9.55 2.86zm19.1 -5.73l0 0 -0.29 -0.97 9.55 -2.87 0.29 0.98 -9.55 2.86zm19.1 -5.73l0 0 -0.29 -0.97 9.55 -2.87 0.29 0.98 -9.55 2.86zm19.11 -5.72l0 0 -0.3 -0.98 9.55 -2.86 0.29 0.97 -9.54 2.87z"/>
     <polygon class="fil0 str0" points="804.72,741.42 804.43,740.44 809.31,738.98 809.6,739.95 "/>
    </g>
   </g>
   <g>
    <g>
     <polygon class="fil0 str1" points="270.2,190.49 299.95,177.06 301.45,107.26 271.71,120.68 "/>
    </g>
    <g>
     <polygon class="fil0 str1" points="271.71,120.68 301.45,107.26 235.17,101.31 205.42,114.73 "/>
    </g>
    <g>
     <polygon class="fil0 str1" points="205.42,114.73 203.92,184.53 270.2,190.49 271.71,120.68 "/>
    </g>
   </g>
   <g>
    <g>
     <polygon class="fil0 str1" points="204.65,389.57 234.39,376.15 235.9,306.35 206.16,319.77 "/>
    </g>
    <g>
     <polygon class="fil0 str1" points="206.16,319.77 235.9,306.35 169.61,300.4 139.87,313.82 "/>
    </g>
    <g>
     <polygon class="fil0 str1" points="139.87,313.82 138.36,383.62 204.65,389.57 206.16,319.77 "/>
    </g>
   </g>
   <g>
    <g>
     <polygon class="fil0 str1" points="235.45,751.11 265.19,737.69 266.7,667.89 236.95,681.31 "/>
    </g>
    <g>
     <polygon class="fil0 str1" points="236.95,681.31 266.7,667.89 200.41,661.94 170.67,675.36 "/>
    </g>
    <g>
     <polygon class="fil0 str1" points="170.67,675.36 169.16,745.16 235.45,751.11 236.95,681.31 "/>
    </g>
   </g>
   <g>
    <g>
     <polygon class="fil0 str1" points="830.97,756.13 860.71,742.71 862.22,672.91 832.48,686.33 "/>
    </g>
    <g>
     <polygon class="fil0 str1" points="832.48,686.33 862.22,672.91 795.94,666.96 766.19,680.38 "/>
    </g>
    <g>
     <polygon class="fil0 str1" points="766.19,680.38 764.69,750.18 830.97,756.13 832.48,686.33 "/>
    </g>
   </g>
   <g>
    <g>
     <polygon class="fil0 str1" points="825.86,389.57 855.61,376.15 857.11,306.35 827.37,319.77 "/>
    </g>
    <g>
     <polygon class="fil0 str1" points="827.37,319.77 857.11,306.35 790.83,300.4 761.08,313.82 "/>
    </g>
    <g>
     <polygon class="fil0 str1" points="761.08,313.82 759.58,383.62 825.86,389.57 827.37,319.77 "/>
    </g>
   </g>
   <g>
    <g>
     <polygon class="fil0 str1" points="761.51,190.49 791.25,177.06 792.76,107.26 763.01,120.68 "/>
    </g>
    <g>
     <polygon class="fil0 str1" points="763.01,120.68 792.76,107.26 726.47,101.31 696.73,114.73 "/>
    </g>
    <g>
     <polygon class="fil0 str1" points="696.73,114.73 695.22,184.53 761.51,190.49 763.01,120.68 "/>
    </g>
   </g>
   <path class="fil0" d="M128.7 193.11c-14.03,0 -25.42,11.38 -25.42,25.42 0,14.03 11.39,25.41 25.42,25.41 14.04,0 25.42,-11.38 25.42,-25.41l0 0c0,-0.02 0,-0.05 0,-0.08 0,-13.96 -11.31,-25.3 -25.27,-25.34l-0.15 0zm0.43 26.28l-2.65 8.92 14.16 0c0.01,0 0.02,0 0.02,0 0.39,0 0.7,0.31 0.72,0.69l0 0.23 -1.23 4.25c-0.11,0.4 -0.48,0.68 -0.89,0.68 -0.01,0 -0.02,0 -0.04,0l-21.66 0 3.63 -12.37 -4.06 1.23 0.92 -2.83 4.06 -1.23 5.11 -17.36c0.11,-0.4 0.48,-0.68 0.9,-0.68 0.01,0 0.02,0 0.02,0.01l5.48 0c0.01,-0.01 0.02,-0.01 0.03,-0.01 0.38,0 0.7,0.31 0.71,0.7l0 0.23 -4.31 14.65 4.07 -1.23 -0.87 2.95 -4.12 1.17z"/>
   <g>
    <g>
     <path class="fil1" d="M659.49 398.5c-26.87,0 -48.73,-21.86 -48.73,-48.73 0,-26.87 21.86,-48.73 48.73,-48.73 26.86,0 48.72,21.86 48.72,48.73 0,26.87 -21.86,48.73 -48.72,48.73zm0 -91.02l0 0c-23.32,0 -42.3,18.97 -42.3,42.29 0,23.32 18.98,42.29 42.3,42.29 23.32,0 42.29,-18.97 42.29,-42.29 0,-23.32 -18.97,-42.29 -42.29,-42.29z"/>
    </g>
    <g>
     <path class="fil1" d="M680.95 361.28c0,-3.24 -0.81,-5.83 -2.38,-7.79 -1.63,-1.99 -3.67,-3.51 -6.05,-4.52 -2.33,-0.98 -5.17,-1.85 -8.46,-2.64l0 -15.73c2.42,0.3 4.84,0.92 7.2,1.83 2.23,0.86 4.65,-0.15 5.53,-2.31 0.45,-1.08 0.43,-2.32 -0.02,-3.37 -0.43,-0.99 -1.18,-1.74 -2.15,-2.12 -3.03,-1.21 -6.61,-1.99 -10.56,-2.36l0 -4.79c0,-2.52 -2.05,-4.57 -4.57,-4.57 -2.53,0 -4.58,2.05 -4.58,4.57l0 4.99c-5.35,0.73 -9.53,2.51 -12.41,5.33 -3.01,2.96 -4.47,6.41 -4.47,10.55 0,3.26 0.8,5.92 2.36,7.85 1.64,2 3.69,3.54 6.12,4.57 2.31,1 5.15,1.9 8.4,2.72l0 15.52c-2.74,-0.31 -5.43,-0.94 -8.02,-1.9 -0.92,-0.34 -1.82,-0.71 -2.66,-1.11 -0.51,-0.24 -1.05,-0.37 -1.6,-0.37 -0.48,0 -0.95,0.09 -1.4,0.26 -1.09,0.41 -1.99,1.24 -2.47,2.29 -0.96,2.13 0,4.66 2.11,5.65 1.18,0.53 2.48,1.05 3.88,1.5 3.22,1.06 6.63,1.69 10.16,1.95l0 4.78c0,2.53 2.05,4.58 4.58,4.58 2.52,0 4.57,-2.05 4.57,-4.58l0 -5.05c5.38,-0.77 9.57,-2.55 12.45,-5.35 2.98,-2.92 4.44,-6.31 4.44,-10.38zm-30.41 -19.5l0 0c-1.24,-1.05 -1.89,-2.42 -1.89,-4.07 0,-1.65 0.58,-3.11 1.72,-4.33 1.01,-1.12 2.57,-1.93 4.54,-2.45l0 13.06c-1.87,-0.59 -3.33,-1.32 -4.37,-2.21zm18.04 24.62l0 0c-1.05,1.04 -2.58,1.8 -4.52,2.26l0 -12.85c1.9,0.67 3.35,1.45 4.41,2.36 1.22,1.05 1.84,2.42 1.84,4.05 0,1.61 -0.58,3.03 -1.73,4.18z"/>
    </g>
   </g>
   <g>
    <g>
     <path class="fil1" d="M491.3 653.06c-11.77,0 -21.34,-9.57 -21.34,-21.34 0,-11.77 9.57,-21.34 21.34,-21.34 11.77,0 21.34,9.57 21.34,21.34 0,11.77 -9.57,21.34 -21.34,21.34zm0 -39.86l0 0c-10.21,0 -18.52,8.31 -18.52,18.52 0,10.21 8.31,18.52 18.52,18.52 10.22,0 18.53,-8.31 18.53,-18.52 0,-10.21 -8.31,-18.52 -18.53,-18.52z"/>
    </g>
    <g>
     <path class="fil1" d="M500.7 636.76c0,-1.42 -0.35,-2.55 -1.04,-3.41 -0.71,-0.87 -1.6,-1.54 -2.65,-1.98 -1.02,-0.43 -2.26,-0.81 -3.7,-1.16l0 -6.88c1.06,0.13 2.11,0.4 3.15,0.8 0.98,0.37 2.04,-0.07 2.42,-1.02 0.2,-0.47 0.19,-1.01 -0.01,-1.47 -0.18,-0.43 -0.51,-0.76 -0.94,-0.93 -1.33,-0.53 -2.89,-0.87 -4.62,-1.03l0 -2.1c0,-1.11 -0.9,-2 -2.01,-2 -1.1,0 -2,0.89 -2,2l0 2.18c-2.35,0.33 -4.18,1.1 -5.44,2.34 -1.31,1.29 -1.95,2.81 -1.95,4.62 0,1.43 0.35,2.59 1.03,3.44 0.72,0.87 1.62,1.55 2.68,2 1.01,0.44 2.26,0.83 3.68,1.19l0 6.8c-1.2,-0.14 -2.38,-0.41 -3.51,-0.83 -0.41,-0.15 -0.8,-0.31 -1.17,-0.49 -0.22,-0.1 -0.46,-0.16 -0.7,-0.16 -0.21,0 -0.42,0.03 -0.61,0.11 -0.48,0.18 -0.88,0.55 -1.08,1.01 -0.43,0.92 0,2.03 0.92,2.47 0.52,0.23 1.09,0.46 1.7,0.65 1.41,0.47 2.91,0.75 4.45,0.86l0 2.09c0,1.11 0.9,2.01 2,2.01 1.11,0 2.01,-0.9 2.01,-2.01l0 -2.21c2.35,-0.33 4.19,-1.12 5.45,-2.34 1.31,-1.28 1.94,-2.76 1.94,-4.55zm-13.32 -8.54l0 0c-0.54,-0.46 -0.82,-1.06 -0.82,-1.78 0,-0.73 0.25,-1.36 0.75,-1.9 0.45,-0.49 1.13,-0.84 1.99,-1.07l0 5.72c-0.82,-0.26 -1.46,-0.58 -1.92,-0.97zm7.9 10.79l0 0c-0.45,0.45 -1.13,0.78 -1.97,0.99l0 -5.63c0.83,0.29 1.46,0.63 1.93,1.03 0.53,0.46 0.8,1.06 0.8,1.77 0,0.71 -0.25,1.33 -0.76,1.84z"/>
    </g>
   </g>
   <g>
    <polygon class="fil0 str2" points="536.23,271.82 609.54,238.74 613.25,66.7 539.94,99.78 "/>
   </g>
   <g>
    <polygon class="fil0 str2" points="539.94,99.78 613.25,66.7 449.88,52.03 376.58,85.1 "/>
   </g>
   <g>
    <polygon class="fil0 str2" points="376.58,85.1 372.86,257.14 536.23,271.82 539.94,99.78 "/>
   </g>
   <g>
    <polygon class="fil0 str2" points="165.32,617.29 238.63,584.21 242.34,412.17 169.03,445.25 "/>
   </g>
   <g>
    <polygon class="fil0 str2" points="169.03,445.25 242.34,412.17 78.97,397.49 5.67,430.57 "/>
   </g>
   <g>
    <polygon class="fil0 str2" points="5.67,430.57 1.95,602.61 165.32,617.29 169.03,445.25 "/>
   </g>
   <g>
    <polygon class="fil0 str2" points="555.52,889.52 628.82,856.44 632.54,684.4 559.23,717.48 "/>
   </g>
   <g>
    <polygon class="fil0 str2" points="559.23,717.48 632.54,684.4 469.17,669.72 395.86,702.8 "/>
   </g>
   <g>
    <polygon class="fil0 str2" points="395.86,702.8 392.15,874.84 555.52,889.52 559.23,717.48 "/>
   </g>
   <g>
    <polygon class="fil11" points="836.45,889.45 920.62,889.45 920.62,553.01 836.45,553.01 "/>
    <polygon class="fil12" points="831.72,889.45 909.45,889.45 909.45,553.01 831.72,553.01 "/>
    <path class="fil13" d="M749.09 635.85l11.93 -1.41 31.86 -200.88c0.31,-1.91 1.96,-3.32 3.9,-3.32l220.34 0 2.16 -6.88 8.74 5.54c0.09,0.06 0.19,0.11 0.28,0.18l0.03 0.02 -0.01 0c1.07,0.85 1.68,2.23 1.45,3.7l-32.79 206.71c-0.31,1.92 -1.96,3.33 -3.89,3.33l-232.06 0c-1.02,0 -1.93,-0.41 -2.62,-1.03l-0.01 0.02 -9.31 -5.98z"/>
    <path class="fil14" d="M751.7 636.84l232.05 0c1.94,0 3.59,-1.41 3.89,-3.33l32.79 -206.71c0.38,-2.39 -1.47,-4.56 -3.89,-4.56l-232.06 0c-1.94,0 -3.58,1.41 -3.89,3.32l-32.79 206.72c-0.38,2.39 1.47,4.56 3.9,4.56z"/>
    <path class="fil15" d="M762.55 627.02l213.01 0c1.23,0 2.27,-0.9 2.47,-2.11l30.13 -189.96c0.24,-1.52 -0.94,-2.89 -2.47,-2.89l-213.01 0c-1.23,0 -2.28,0.89 -2.47,2.11l-30.13 189.96c-0.24,1.51 0.93,2.89 2.47,2.89z"/>
    <path class="fil16" d="M836.31 537.49l70.81 0c1.55,0 2.88,-1.14 3.13,-2.67l9.94 -62.71c0.3,-1.92 -1.18,-3.66 -3.13,-3.66l-70.8 0c-1.56,0 -2.88,1.14 -3.13,2.67l-9.94 62.7c-0.31,1.93 1.17,3.67 3.12,3.67z"/>
    <path class="fil17" d="M849.77 528.98l-4.88 0c-0.72,0 -1.21,-0.58 -1.1,-1.3l5.86 -36.83c0.11,-0.72 0.78,-1.3 1.5,-1.3l4.89 0c0.71,0 1.2,0.58 1.09,1.3l-5.85 36.83c-0.12,0.72 -0.79,1.3 -1.51,1.3z"/>
    <path class="fil18" d="M862.4 528.98l-4.89 0c-0.72,0 -1.21,-0.58 -1.09,-1.3l4.64 -29.2c0.11,-0.71 0.78,-1.29 1.5,-1.29l4.89 0c0.71,0 1.2,0.58 1.08,1.29l-4.63 29.2c-0.12,0.72 -0.79,1.3 -1.5,1.3z"/>
    <path class="fil19" d="M875.02 528.98l-4.89 0c-0.72,0 -1.21,-0.58 -1.09,-1.3l5.5 -34.65c0.12,-0.71 0.79,-1.29 1.5,-1.29l4.89 0c0.72,0 1.21,0.58 1.09,1.29l-5.5 34.65c-0.12,0.72 -0.79,1.3 -1.5,1.3z"/>
    <path class="fil20" d="M887.64 528.98l-4.89 0c-0.72,0 -1.21,-0.58 -1.09,-1.3l8.23 -51.79c0.11,-0.71 0.78,-1.29 1.5,-1.29l4.89 0c0.71,0 1.2,0.58 1.09,1.29l-8.23 51.79c-0.11,0.72 -0.79,1.3 -1.5,1.3z"/>
    <path class="fil21" d="M900.26 528.98l-4.89 0c-0.72,0 -1.2,-0.58 -1.09,-1.3l6.52 -41.04c0.11,-0.71 0.79,-1.29 1.5,-1.29l4.89 0c0.72,0 1.2,0.58 1.09,1.29l-6.52 41.04c-0.12,0.72 -0.79,1.3 -1.5,1.3z"/>
    <path class="fil0" d="M926.15 581.73l38.87 0c0.86,0 1.58,-0.63 1.72,-1.47l5.46 -34.42c0.16,-1.05 -0.65,-2.01 -1.72,-2.01l-38.87 0c-0.85,0 -1.58,0.62 -1.71,1.47l-5.46 34.42c-0.17,1.05 0.65,2.01 1.71,2.01z"/>
    <path class="fil22" d="M846.74 607.97l86.28 0c1.16,0 2.15,-0.84 2.33,-1.99l7.43 -46.83c0.23,-1.44 -0.88,-2.74 -2.33,-2.74l-86.28 0c-1.17,0 -2.16,0.85 -2.34,2l-7.43 46.83c-0.23,1.43 0.88,2.73 2.34,2.73z"/>
    <path class="fil23" d="M856.88 576.51l-3.14 19.78 75.9 0 3.88 -24.47c0,0 -4.75,-2.51 -11.12,0.99 -5.01,2.75 -12.26,10.68 -17.27,10.11 -5.01,-0.57 -8.11,-13.36 -14.92,-13.27 -6.82,0.09 -12.37,14.11 -17.83,14.26 -5.45,0.14 -11.94,-7.56 -15.5,-7.4z"/>
    <path class="fil0" d="M937.08 485.5l41.93 0c0.57,0 1.05,-0.41 1.14,-0.97l3.61 -22.75c0.11,-0.7 -0.43,-1.34 -1.14,-1.34l-41.93 0c-0.56,0 -1.05,0.42 -1.13,0.98l-3.61 22.75c-0.12,0.7 0.42,1.33 1.13,1.33z"/>
    <path class="fil24" d="M944.49 495.27l22.25 0c0.66,0 1.27,-0.52 1.38,-1.18 0.1,-0.65 -0.35,-1.18 -1,-1.18l-22.25 0c-0.66,0 -1.27,0.53 -1.38,1.18 -0.1,0.66 0.35,1.18 1,1.18z"/>
    <path class="fil25" d="M943.79 499.72l22.25 0c0.65,0 1.27,-0.53 1.37,-1.19 0.11,-0.65 -0.34,-1.18 -0.99,-1.18l-22.26 0c-0.65,0 -1.27,0.53 -1.37,1.18 -0.1,0.66 0.34,1.19 1,1.19z"/>
    <path class="fil26" d="M943.08 504.15l22.26 0c0.65,0 1.27,-0.53 1.37,-1.18 0.1,-0.65 -0.34,-1.18 -1,-1.18l-22.25 0c-0.65,0 -1.27,0.53 -1.37,1.18 -0.11,0.65 0.34,1.18 0.99,1.18z"/>
    <path class="fil27" d="M954.69 508.59l9.95 0c0.65,0 1.26,-0.53 1.37,-1.18 0.1,-0.65 -0.35,-1.18 -1,-1.18l-9.94 0c-0.66,0 -1.27,0.53 -1.37,1.18 -0.11,0.65 0.34,1.18 0.99,1.18z"/>
    <path class="fil28" d="M795.1 571.46l22.26 0c0.65,0 1.27,-0.53 1.37,-1.18 0.11,-0.65 -0.34,-1.19 -0.99,-1.19l-22.26 0c-0.65,0 -1.27,0.54 -1.37,1.19 -0.11,0.65 0.34,1.18 0.99,1.18z"/>
    <path class="fil29" d="M794.4 575.9l22.26 0c0.65,0 1.27,-0.53 1.37,-1.18 0.1,-0.66 -0.34,-1.19 -1,-1.19l-22.25 0c-0.66,0 -1.27,0.53 -1.38,1.19 -0.1,0.65 0.35,1.18 1,1.18z"/>
    <path class="fil30" d="M793.7 580.34l22.25 0c0.66,0 1.27,-0.53 1.38,-1.18 0.1,-0.66 -0.35,-1.19 -1,-1.19l-22.26 0c-0.65,0 -1.26,0.53 -1.37,1.19 -0.1,0.65 0.34,1.18 1,1.18z"/>
    <path class="fil31" d="M805.31 584.78l9.94 0c0.65,0 1.27,-0.53 1.37,-1.18 0.11,-0.66 -0.34,-1.19 -0.99,-1.19l-9.95 0c-0.65,0 -1.27,0.53 -1.37,1.19 -0.1,0.65 0.34,1.18 1,1.18z"/>
    <path class="fil32" d="M816.9 470.9l22.25 0c0.66,0 1.27,-0.53 1.38,-1.18 0.1,-0.66 -0.35,-1.19 -1,-1.19l-22.25 0c-0.66,0 -1.27,0.53 -1.38,1.19 -0.1,0.65 0.35,1.18 1,1.18z"/>
    <path class="fil33" d="M816.2 475.34l22.25 0c0.65,0 1.27,-0.53 1.37,-1.18 0.11,-0.66 -0.34,-1.19 -0.99,-1.19l-22.26 0c-0.65,0 -1.27,0.53 -1.37,1.19 -0.1,0.65 0.34,1.18 1,1.18z"/>
    <path class="fil34" d="M827.81 479.78l9.94 0c0.65,0 1.27,-0.53 1.37,-1.18 0.1,-0.66 -0.34,-1.19 -1,-1.19l-9.94 0c-0.65,0 -1.27,0.53 -1.37,1.19 -0.1,0.65 0.34,1.18 1,1.18z"/>
    <path class="fil1" d="M810.87 471.8c-0.27,-0.24 -0.66,-0.25 -1.01,-0.21 -0.01,-0.15 -0.03,-0.29 -0.14,-0.39 -0.38,-0.38 -1.66,-0.07 -3.04,0.29 0.1,-0.28 0.08,-0.5 -0.08,-0.65 -0.61,-0.52 -1.81,0 -1.81,0l-7.94 3.49 -0.29 0.37c-0.33,0.2 -0.64,0.41 -0.9,0.64 -1.06,0.94 -2.16,2.19 -3.12,3.38 -2.07,2.57 -4.78,4.53 -7.84,5.77l-31.77 12.86 25.45 1.7c0,0 10.7,-6.84 13.85,-7.49 3.14,-0.64 7.24,-0.44 8.89,-2.17 1.65,-1.73 6.05,-5.96 5.9,-7.76 -0.11,-1.33 -1.28,-1.03 -1.67,-0.86 -1.28,0.56 -3.67,2.9 -4.44,3.38 -0.66,0.42 -3.18,0.91 -4.02,-0.22l4.33 -4.5c0,0 3.12,-2.56 6.1,-4.09 2.98,-1.53 4.15,-3.02 3.55,-3.54z"/>
    <path class="fil1" d="M749.13 851.52l0.83 18.33c0,0 10.4,4.49 18.67,0l2.22 -22.16 -21.72 3.83z"/>
    <path class="fil35" d="M749.96 869.85c0,0 -2.97,2.98 -3.63,7.44 -0.66,4.47 0.2,10.25 0.2,11.24 0,0.48 12.05,0.23 24.32,0.31 12.8,0.09 25.88,0.48 26.89,0.01 1.98,-0.91 -29.11,-19 -29.11,-19 0,0 -8.64,2.16 -18.67,0z"/>
    <path class="fil1" d="M654.34 844l-5.29 17.57c0,0 7.42,7.56 16.7,6.07l8.96 -21.54 -20.37 -2.1z"/>
    <path class="fil35" d="M643.16 867.39c2.1,-3.99 5.89,-5.82 5.89,-5.82 2.39,2.13 17.16,6.26 17.16,6.26 0,0 -0.03,0.64 2.73,3.44 2.12,2.14 4.61,4.76 7.3,7.09 1.41,0.41 16.09,9.64 14.1,10.53 -1.99,0.9 -15.2,0.62 -19.9,0.43 -1.11,-0.04 -16.43,-6.23 -21.55,-8.11 -5.11,-1.89 -9.77,-4.21 -9.44,-5.14 0.33,-0.94 1.61,-4.69 3.71,-8.68z"/>
    <path class="fil36" d="M744.91 602.29c0,0 -7.73,69.6 -11.78,104.82 -1.34,11.49 -2.27,19.3 -2.42,19.89 -2.4,9.15 -6.03,20.36 -10.23,32.37 -15.82,45.11 -39.57,100.23 -39.57,100.23 0,0 -18.49,-3.01 -29.2,-10.59l27.02 -125.46c0,0 -1.46,-100.85 -2.21,-117.57l68.39 -3.69z"/>
    <path class="fil37" d="M733.13 707.11c-1.34,11.49 -2.27,19.3 -2.42,19.89 -2.4,9.15 -6.03,20.36 -10.23,32.37 -0.8,-12.71 -5.8,-96.6 -5.8,-96.6l18.45 44.34z"/>
    <path class="fil1" d="M783.64 401.97c-1.94,10.52 -7.46,32.54 -13.17,40.72 -0.8,1.14 -2.2,1.69 -3.56,1.38 -6.24,-1.41 -26.93,-7.89 -30.66,-32.18 -4.4,-28.66 16.53,-34.25 26.31,-31.85 9.78,2.4 24.35,4.25 21.08,21.93z"/>
    <path class="fil38" d="M774.03 596.07l4.15 120.62 -5.52 146.45c0,0 -18.64,3.21 -32.18,1.04 0,0 -12.32,-113.06 -12.99,-129.12 -0.86,-20.61 -25.27,-126.43 -24.7,-139.9l71.24 0.91z"/>
    <path class="fil1" d="M762.31 436.75c0,0 -2.62,9.36 -4.23,21.73 0,0 -17.79,-0.6 -28.09,-6.19 0,0 7.76,-18.96 8.87,-37.93l23.45 22.39z"/>
    <path class="fil39" d="M795.4 389.73c-0.71,-1.77 -2.14,-3.29 -3.94,-3.93 -1.35,-0.47 -2.85,-0.46 -4.13,-1.09 -3.38,-1.66 -3.51,-6.63 -6.35,-9.09 -0.95,-0.83 -2.15,-1.31 -3.36,-1.68 -3.05,-0.94 -6.3,-1.23 -9.48,-0.85 -1.44,0.17 -2.9,0.48 -4.33,0.21 -0.79,-0.16 -1.53,-0.48 -2.29,-0.77 -3.02,-1.13 -6.41,-1.53 -9.48,-0.53 -1.24,0.4 -2.4,1.06 -3.4,1.92 -10.05,3.52 -6.97,10.25 -6.97,10.25 -6.97,1.56 -11.43,5.25 -11.66,18.05 -0.22,12.8 1.8,28.96 3.49,31.25 1.66,2.25 16.19,6.29 23.15,2.93 2.29,-1.11 9.15,-21.48 9.93,-23.69 0.19,-0.52 0.34,-1.09 0.76,-1.46 0.64,-0.57 1.62,-0.44 2.48,-0.4 2.1,0.09 4.1,-0.57 5.92,-1.64 2.27,0.2 4.59,-0.07 6.73,-0.87 1.57,-0.58 3.06,-1.45 4.18,-2.7 0.59,-0.66 1.05,-1.45 1.34,-2.29 3.68,-1.19 6.78,-4.21 7.71,-7.99 0.45,-1.86 0.41,-3.86 -0.3,-5.63z"/>
    <path class="fil40" d="M674.85 612.26c3.33,1.86 74.24,5.97 99.93,-1.21 0,0 -0.2,-16.27 0,-24.27 0.08,-3.45 4.45,-85.77 3.16,-107.51 0,0 -6.56,-18.4 -20.17,-22.31 -16,-4.6 -32.75,-6.85 -32.75,-6.85 -7.09,1.29 -21.05,15.21 -25.88,28.02 -14.73,39.1 -27.03,132.61 -24.29,134.13z"/>
    <path class="fil1" d="M870.61 491.89c-0.32,0.03 -1.29,0.26 -2.61,0.58 0.72,-0.94 0.51,-1.96 -0.12,-1.75 -0.89,0.28 -5.64,1.65 -6.85,2.25 -1.21,0.61 -5.23,3.23 -5.23,3.23l0 0c-0.52,0.22 -0.94,0.43 -1.2,0.61 -2.15,1.5 -4.18,6.12 -6.87,8.38 -2.68,2.25 -6.65,4.42 -6.65,4.42l-44.24 12 -9.98 -20.61 -31.19 6.87c0,0 17.88,33.34 26.7,39.83 3.19,2.36 52.35,-23.69 63.81,-29.83 1.98,-1.05 9.62,-2.63 11.67,-5.53 2.05,-2.9 2.58,-4.91 2.58,-4.91l3.62 -4.39c0,0 4.08,-2.76 4.4,-3.97 0.25,-0.95 -0.5,-1.22 -0.5,-1.22l1.37 -1.01c1.62,-1.49 0.61,-2.42 0.61,-2.42 1.57,-0.8 2.01,-2.69 0.68,-2.53z"/>
    <path class="fil41" d="M744.6 478.6c-0.82,9.18 12.68,41.99 12.68,41.99 0,0 19.02,-3.55 32.53,-15.94 0,0 -11.67,-30.01 -17.27,-35.7 -6.82,-6.93 -26.67,-4.72 -27.94,9.65z"/>
   </g>
   <g>
    <g>
     <path class="fil1" d="M273.67 845.5l18.99 2.36 7.95 -43.97 -25.2 -1.31c0,0 -1.22,41.2 -1.74,42.92z"/>
    </g>
    <g>
     <path class="fil1" d="M413.57 810.27c0,0 11.89,32.78 12.03,34.62l21.42 -6.68 -8.2 -33.89 -25.25 5.95z"/>
    </g>
    <path class="fil42" d="M275.29 665.42c4.39,-37.34 13.14,-140.07 16.84,-174.84l65.79 -15.23c31.87,67.67 -1.26,84.44 -8.92,99.4 -1.75,3.43 -4.78,36.54 -16.2,87.23 -7.15,74.18 -18.85,163.88 -18.85,163.88 0,0 -32.13,1.21 -42.99,-4.56l4.33 -155.88z"/>
    <path class="fil43" d="M397.69 488.47c0,0 16.02,27.9 13.75,52.64 -1.99,21.25 -6.17,83.89 -9.15,118.01 16.38,51.84 40.47,153.42 40.47,153.42 0,0 -7.8,4.47 -26.62,9.81 -3.68,1.05 -16.42,2.86 -18.7,2.15 0,0 -42.93,-131.18 -50.14,-157.98 -17.06,-63.43 -29.93,-178.97 -29.93,-178.97l80.32 0.92z"/>
    <path class="fil39" d="M228.69 851.76c0,0 -4.29,1.66 -2.09,6.16 3.15,6.43 28.03,13.11 40.08,14.43l29.26 0 -44.01 -16.07c0,0 -9.72,-4.38 -13.9,-4.93 -4.17,-0.55 -9.34,0.41 -9.34,0.41z"/>
    <path class="fil35" d="M292.98 846.1c0,0 -12.63,0.62 -19.21,-1.74 0,0 -16.23,5.55 -25.26,5.55 -9.04,0 -17.49,-0.07 -19.82,1.85 6.14,-0.97 12.33,0.84 19.61,5.13 27.38,16.16 47.64,15.46 47.64,15.46 0,0 2.69,-17.92 -2.96,-26.25z"/>
    <path class="fil35" d="M394.54 872.38c-1.4,-10.9 12.08,-15.96 20.43,-17.47 5.48,-2.88 9.98,-12.34 9.98,-12.34 11.75,0.06 21.55,-6.53 21.55,-6.53 0,0 3.38,2.61 6.39,8.85 3.02,6.25 3.84,13.66 3.84,13.66 0,0 -9.17,6.01 -15.06,9.43 -5.89,3.42 -18.07,4.4 -18.07,4.4l-29.06 0z"/>
    <path class="fil44" d="M307.7 239.4c0,0 -8.55,14.04 1.47,28.54 0,0 4.83,7.62 8.01,21.02 3.18,13.4 -1.01,39.35 -1.01,39.35 0,0 17.08,2.34 24.62,-1.17 7.53,-3.52 1.51,-46.38 1.51,-46.38 0,0 -5.2,-23.95 -6.03,-26.29 -0.84,-2.35 -15.91,-20.26 -15.91,-20.26l-12.66 5.19z"/>
    <g>
     <path class="fil1" d="M334.17 316.18c0.16,-1.44 -0.23,-25.83 -0.23,-25.83l2.18 -3.66 9.96 -16.8c0,0 15.97,-9.86 17.59,0 1.15,7.16 0.35,45.48 0.35,45.48l17.52 6.14c-6.2,16.06 -28.01,17.62 -28.01,17.62 -31,2.9 -44.18,-16.92 -44.18,-16.92 0,0 24.47,-4.69 24.82,-6.03z"/>
    </g>
    <g>
     <path class="fil7" d="M355.29 283.98c0,0 -5.15,16.16 -21.15,20.95l0 -5.89 21.15 -15.06z"/>
    </g>
    <g>
     <path class="fil1" d="M194.04 345.19c0.26,-1.53 0.69,-2.89 1.43,-3.18 0.43,-0.17 0.95,-0.25 1.48,-0.29 -1.29,-1.63 -2.74,-3.41 -3.27,-4.06 -1.02,-1.22 -5.26,-5.76 -5.5,-7.64 -0.24,-1.89 1.87,-1.52 2.44,-1.17 1.74,1.08 4.49,3.88 6.75,6.39 1.41,1.57 4.12,4.54 6.02,6.61 -0.77,-1.84 -2.88,-4.84 -3.11,-6.27 -0.27,-1.56 0.95,-2.01 0.95,-2.01 2.79,1.81 7.92,8.04 8.97,10.73 1.05,2.68 1.51,8.12 1.51,8.12 0.93,3.21 3.5,5.75 4.75,6.84l26.04 21.35 -12.84 12.52 -23.14 -25.01c-3.37,-3.24 -4.26,-2.74 -6.12,-4.06 -2.75,-1.93 -3.18,-2.86 -3.61,-3.49 -0.59,-0.85 -1.02,-1.83 -1.36,-2.79 -0.29,0.86 -1.04,1.13 -1.54,0.46 -0.71,-0.95 -2.39,-5.53 -2.43,-6.68 -0.04,-1.16 -0.34,-5.15 0.42,-5.96 0.46,-0.5 1.44,-0.49 2.16,-0.41z"/>
    </g>
    <g>
     <path class="fil1" d="M308.06 234.97c0,0 -0.13,63.15 17.31,65.54 7.97,1.09 24.59,-7.88 33.11,-20.74 0,0 12.75,-18.13 10.88,-37.84 -1.87,-19.71 -53.28,-34.28 -61.3,-6.96z"/>
    </g>
    <path class="fil45" d="M307.62 265.44c0,0 -3.72,-12.55 0.75,-19.42 0,0 3.09,-3.73 11.21,-1.12 5.91,1.89 17.55,6.38 28.72,-2.16 0,0 -1.27,14.44 9.15,21.19 0,0 3.4,7.57 3.66,14.48 0.24,6.35 1.29,22.29 2.91,36.96l21.29 7.29c0,0 -0.81,-7.1 -1.42,-31.94 -0.58,-23.82 7.04,-52.31 -14.25,-60.73 0,0 -6.56,-22.31 -36.63,-17.57 -30.07,4.73 -43.29,28.97 -25.39,53.02z"/>
    <g>
     <path class="fil1" d="M351.56 261.6c0,0 3.56,-10.05 10.13,-5.01 4.8,3.68 3.71,21.05 -4.93,21.78l-5.2 -16.77z"/>
    </g>
    <path class="fil46" d="M234.23 373.68c0,0 17.01,12.88 31.15,22.78 5.58,-11.79 8.02,-16.57 20.91,-46.44 11.03,-25.57 19.48,-27.1 19.48,-27.1l9.84 62.2c0,0 -28.12,48.38 -42.68,50.93 -8.26,1.44 -36.55,-25.18 -52.77,-42.67 0,0 4.41,-11.06 11.5,-18.31 0.51,-0.52 2.57,-1.39 2.57,-1.39z"/>
    <path class="fil47" d="M401.56 440.7c-0.99,13.33 8.52,73.09 9.52,80.44 0.45,3.34 -1.05,4.29 -1.05,4.29 0,0 -71.37,21.03 -120.52,0.1 0,0 -1.9,-0.7 -1.4,-5.2 0.9,-8.19 8.05,-104.86 8.05,-104.86 0,0 -7.64,-15.94 -9.64,-25.92 -2,-9.95 9.29,-27.23 10.64,-34.87 1.35,-7.65 8.59,-31.77 8.59,-31.77 0,0 5.4,-1.53 21.54,-5.2 0,0 10.58,27.72 45,0 3.45,0.65 17.93,3.4 22.78,4.45 0.5,0.15 0.9,0.25 1.2,0.3 3.15,0.8 9.19,4.54 13.19,10.24 3.44,11.54 5.69,32.07 0.3,54.9 -4.05,17.23 -7,36.31 -8.2,53.1z"/>
    <path class="fil48" d="M404.16 484.46l-67.25 25.67c-1.73,0.66 -3.67,-0.2 -4.33,-1.93l-37.6 -98.48c-0.65,-1.73 0.21,-3.66 1.94,-4.32l67.25 -25.68c1.73,-0.66 3.67,0.21 4.33,1.93l37.6 98.48c0.65,1.73 -0.21,3.67 -1.94,4.33z"/>
    <path class="fil49" d="M396.46 494.7l-68.28 11.11c-2.59,0.42 -5.03,-1.34 -5.45,-3.93l-16.48 -101.27c-0.42,-2.59 1.34,-5.03 3.93,-5.46l68.28 -11.1c2.59,-0.43 5.04,1.33 5.46,3.92l16.47 101.27c0.42,2.59 -1.34,5.04 -3.93,5.46z"/>
    <g>
     <path class="fil1" d="M309.26 447.91c-1.36,0 -2.8,-0.91 -2.17,-1.72 0.63,-0.82 9.32,-4.62 11.37,-3.98 2.05,0.63 5.27,2.53 7.44,3.08 2.18,0.55 6.74,0 6.74,0l28.87 -6.25 9.21 16.68 -40.87 2.43c0,0 -4.11,1.72 -6.93,2.96 -0.12,0.05 -0.23,0.06 -0.35,0.1 -1.54,0.59 -4.03,1.44 -5.68,1.48 -2.49,0.04 -3.57,-1.51 -3.61,-2.55 0,-0.01 0,-0.01 0,-0.02 -1.37,-0.32 -1.91,-1.14 -1.94,-1.94 -0.02,-0.47 0.1,-0.86 0.23,-1.18 -1.24,-0.34 -1.73,-1.13 -1.76,-1.9 -0.03,-0.5 0.11,-0.94 0.26,-1.26 -1.34,-0.33 -1.87,-1.14 -1.9,-1.94 -0.04,-1.04 0.59,-1.81 0.59,-1.81 0.63,-1.02 6.16,-2.57 7.71,-2.99 -0.01,0 -0.04,-0.01 -0.04,-0.01 -2.22,0.5 -5.81,0.82 -7.17,0.82z"/>
    </g>
    <path class="fil50" d="M359.8 439.11l36.71 -8.6c-4.81,-18.7 -11.08,-47.06 -15.03,-64.64 -4.84,-21.78 1.05,-41.26 13.59,-43.71 0.5,0.15 0.9,0.25 1.2,0.3 1.28,0.32 9.42,2.85 13.5,9.55 5.98,9.79 8.2,24.85 8.2,24.85 0,0 17.73,91.38 5.2,97.35 -10.86,5.17 -55.39,11.19 -55.39,11.19 0,0 -4.4,-5.55 -7.91,-19.65 -1.12,-4.5 -0.07,-6.64 -0.07,-6.64z"/>
    <path id="coin_3" class="fil0" d="M371.38 418.96c0.02,11.05 -8.92,20.03 -19.97,20.06 -11.05,0.02 -20.03,-8.92 -20.06,-19.97 -0.03,-11.05 8.91,-20.03 19.97,-20.06 11.05,-0.03 20.03,8.91 20.06,19.97l0 0zm-12.16 -4.88c-0.26,-2.68 -2.58,-3.57 -5.5,-3.82l-0.01 -3.72 -2.26 0.01 0.01 3.62c-0.6,0 -1.21,0.01 -1.81,0.03l-0.01 -3.65 -2.26 0.01 0.01 3.71c-0.49,0.02 -0.98,0.02 -1.44,0.03l-0.01 -0.01 -3.12 0 0.01 2.42c0,0 1.67,-0.04 1.64,0 0.92,-0.01 1.22,0.52 1.31,0.98l0.01 4.24c0.06,0 0.14,0 0.24,0.02 -0.08,0 -0.16,0 -0.24,0l0.01 5.93c-0.04,0.29 -0.21,0.75 -0.85,0.75 0.03,0.03 -1.64,0.01 -1.64,0.01l-0.45 2.7 2.95 -0.01c0.55,0 1.09,0.01 1.62,0.01l0.01 3.77 2.26 -0.01 -0.01 -3.72c0.62,0.01 1.22,0.01 1.81,0.01l0.01 3.71 2.26 -0.01 -0.01 -3.76c3.81,-0.22 6.47,-1.19 6.79,-4.76 0.26,-2.88 -1.1,-4.16 -3.26,-4.67 1.31,-0.68 2.13,-1.86 1.93,-3.82l0 0zm-3.14 8.05c0,2.81 -4.81,2.5 -6.34,2.51l-0.02 -4.98c1.54,-0.01 6.35,-0.46 6.36,2.47zm-1.07 -7.03c0,2.56 -4.01,2.27 -5.29,2.27l-0.01 -4.51c1.28,-0.01 5.29,-0.42 5.3,2.24l0 0z"/>
   </g>
  </g>
 </g>
</svg>
