<svg width="104" height="104" viewBox="0 0 104 104" fill="none" xmlns="http://www.w3.org/2000/svg">
<path d="M52 27.07C42.25 27.06 34.35 34.96 34.34 44.71C34.33 54.46 42.23 62.36 51.98 62.37C61.73 62.38 69.63 54.48 69.64 44.73C69.64 44.72 69.64 44.72 69.64 44.71C69.64 34.97 61.74 27.07 52 27.07ZM48.36 53.83L41.7 47.16L43.82 45L48.36 49.54L60.13 37.81L62.25 39.93L48.36 53.83Z" fill="url(#paint0_linear)"/>
<path d="M45.5 73L43.73 74.77L45.5 76.53L47.26 74.77L45.5 73ZM41.61 76.89L39.84 78.6L41.61 80.37L43.38 78.6L41.61 76.89ZM37.72 80.78L36 82.49L37.77 84.26L39.54 82.49L37.72 80.78ZM33.83 84.67L32.06 86.43L33.83 88.2L35.6 86.43L33.83 84.67Z" fill="#929AA5"/>
<path d="M78.22 47.88C78.36 46.83 78.42 45.77 78.42 44.71C78.42 30.12 66.59 18.29 52 18.29C37.41 18.29 25.59 30.12 25.58 44.71C25.58 45.77 25.64 46.83 25.78 47.88L4.89999 68.76L6.64999 70.52H27.3V91.17L29.06 92.92L30.74 91.24L31.74 90.24L29.94 88.5L29.8 88.64V68H9.17999L26.32 50.88C28.81 61.19 37.22 69.02 47.68 70.77L47.62 70.83L49.39 72.59L50.87 71.11H52H53.13L74.94 92.92L76.7 91.17V70.52H97.35L99.1 68.76L78.22 47.88ZM52 68.63C38.79 68.63 28.08 57.92 28.08 44.71C28.08 31.5 38.79 20.79 52 20.79C65.21 20.79 75.92 31.5 75.92 44.71C75.9 57.91 65.2 68.61 52 68.63ZM74.2 68V88.64L56.33 70.77C66.79 69.02 75.19 61.19 77.69 50.89L94.82 68H74.2Z" fill="#929AA5"/>
<defs>
<linearGradient id="paint0_linear" x1="39.5071" y1="57.1982" x2="64.4759" y2="32.2393" gradientUnits="userSpaceOnUse">
<stop stop-color="#F0B90B"/>
<stop offset="0.99" stop-color="#FBDA3C"/>
</linearGradient>
</defs>
</svg>
