<?xml version="1.0" encoding="UTF-8"?>
<!DOCTYPE svg PUBLIC "-//W3C//DTD SVG 1.1//EN" "http://www.w3.org/Graphics/SVG/1.1/DTD/svg11.dtd">
<!-- Creator: CorelDRAW 2020 (64-Bit Evaluation Version) -->
<svg xmlns="http://www.w3.org/2000/svg" xml:space="preserve" width="2002px" height="1229px" version="1.1" style="shape-rendering:geometricPrecision; text-rendering:geometricPrecision; image-rendering:optimizeQuality; fill-rule:evenodd; clip-rule:evenodd"
viewBox="0 0 407.78 250.24"
 xmlns:xlink="http://www.w3.org/1999/xlink"
 xmlns:xodm="http://www.corel.com/coreldraw/odm/2003">
 <defs>
  <style type="text/css">
   <![CDATA[
    .str1 {stroke:#3C5BA3;stroke-width:0.41;stroke-miterlimit:2.61313;stroke-opacity:0.101961}
    .str0 {stroke:#6699FF;stroke-width:0.41;stroke-miterlimit:2.61313;stroke-opacity:0.200000}
    .str2 {stroke:#C79610;stroke-width:0.18;stroke-miterlimit:2.61313}
    .fil1 {fill:none}
    .fil10 {fill:black;fill-rule:nonzero}
    .fil14 {fill:#0068B8;fill-rule:nonzero}
    .fil13 {fill:#0075CF;fill-rule:nonzero}
    .fil12 {fill:#1A1A1A;fill-rule:nonzero}
    .fil11 {fill:#21212B;fill-rule:nonzero}
    .fil5 {fill:#263138;fill-rule:nonzero}
    .fil15 {fill:#5F1D0F;fill-rule:nonzero}
    .fil6 {fill:#C79610;fill-rule:nonzero}
    .fil8 {fill:#D4B19D;fill-rule:nonzero}
    .fil4 {fill:#EFB30C;fill-rule:nonzero}
    .fil9 {fill:#F8F9FC;fill-rule:nonzero}
    .fil3 {fill:white;fill-rule:nonzero}
    .fil2 {fill:#CED3DB;fill-opacity:0.101961}
    .fil7 {fill:black;fill-rule:nonzero;fill-opacity:0.301961}
    .fil0 {fill:url(#id0)}
   ]]>
  </style>
  <linearGradient id="id0" gradientUnits="userSpaceOnUse" x1="10.22" y1="-5.6" x2="341.83" y2="218.54">
   <stop offset="0" style="stop-opacity:1; stop-color:#0033AB"/>
   <stop offset="1" style="stop-opacity:1; stop-color:#213E6A"/>
  </linearGradient>
 </defs>
 <g id="Layer_x0020_1">
  <metadata id="CorelCorpID_0Corel-Layer"/>
  <g id="_2064295431152">
   <rect class="fil0" x="0.2" y="0.2" width="407.37" height="249.84"/>
   <g>
    <g>
     <line class="fil1 str0" x1="0.2" y1="0.2" x2="0.2" y2= "250.04" />
     <line class="fil1 str0" x1="20.57" y1="0.2" x2="20.57" y2= "250.04" />
     <line class="fil1 str0" x1="40.94" y1="0.2" x2="40.94" y2= "250.04" />
     <line class="fil1 str0" x1="61.31" y1="0.2" x2="61.31" y2= "250.04" />
     <line class="fil1 str0" x1="81.68" y1="0.2" x2="81.68" y2= "250.04" />
     <line class="fil1 str0" x1="102.05" y1="0.2" x2="102.05" y2= "250.04" />
     <line class="fil1 str0" x1="122.41" y1="0.2" x2="122.41" y2= "250.04" />
     <line class="fil1 str0" x1="142.78" y1="0.2" x2="142.78" y2= "250.04" />
     <line class="fil1 str0" x1="163.15" y1="0.2" x2="163.15" y2= "250.04" />
     <line class="fil1 str0" x1="183.52" y1="0.2" x2="183.52" y2= "250.04" />
     <line class="fil1 str0" x1="203.89" y1="0.2" x2="203.89" y2= "250.04" />
     <line class="fil1 str0" x1="224.26" y1="0.2" x2="224.26" y2= "250.04" />
     <line class="fil1 str0" x1="244.62" y1="0.2" x2="244.62" y2= "250.04" />
     <line class="fil1 str0" x1="264.99" y1="0.2" x2="264.99" y2= "250.04" />
     <line class="fil1 str0" x1="285.36" y1="0.2" x2="285.36" y2= "250.04" />
     <line class="fil1 str0" x1="305.73" y1="0.2" x2="305.73" y2= "250.04" />
     <line class="fil1 str0" x1="326.1" y1="0.2" x2="326.1" y2= "250.04" />
     <line class="fil1 str0" x1="346.47" y1="0.2" x2="346.47" y2= "250.04" />
     <line class="fil1 str0" x1="366.84" y1="0.2" x2="366.84" y2= "250.04" />
     <line class="fil1 str0" x1="387.2" y1="0.2" x2="387.2" y2= "250.04" />
     <line class="fil1 str0" x1="407.57" y1="0.2" x2="407.57" y2= "250.04" />
    </g>
    <g>
     <line class="fil1 str0" x1="0.2" y1="0.2" x2="407.57" y2= "0.2" />
     <line class="fil1 str0" x1="0.2" y1="22.92" x2="407.57" y2= "22.92" />
     <line class="fil1 str0" x1="0.2" y1="45.63" x2="407.57" y2= "45.63" />
     <line class="fil1 str0" x1="0.2" y1="68.34" x2="407.57" y2= "68.34" />
     <line class="fil1 str0" x1="0.2" y1="91.05" x2="407.57" y2= "91.05" />
     <line class="fil1 str0" x1="0.2" y1="113.76" x2="407.57" y2= "113.76" />
     <line class="fil1 str0" x1="0.2" y1="136.48" x2="407.57" y2= "136.48" />
     <line class="fil1 str0" x1="0.2" y1="159.19" x2="407.57" y2= "159.19" />
     <line class="fil1 str0" x1="0.2" y1="181.9" x2="407.57" y2= "181.9" />
     <line class="fil1 str0" x1="0.2" y1="204.61" x2="407.57" y2= "204.61" />
     <line class="fil1 str0" x1="0.2" y1="227.33" x2="407.57" y2= "227.33" />
     <line class="fil1 str0" x1="0.2" y1="250.04" x2="407.57" y2= "250.04" />
    </g>
   </g>
   <polygon class="fil2 str1" points="186.21,250.04 0.2,250.04 326.1,91.05 358.47,165.54 "/>
   <g>
    <g>
     <g>
      <g>
       <path class="fil3" d="M316.94 98.97l50.73 0c2.09,0 3.15,-2.52 1.68,-4.02l-25.36 -25.9c-0.93,-0.95 -2.45,-0.95 -3.37,0l-25.37 25.9c-1.46,1.5 -0.4,4.02 1.69,4.02z"/>
      </g>
     </g>
    </g>
    <g>
     <g>
      <g>
       <polygon class="fil3" points="359.27,226.91 326.75,226.91 326.75,94.14 359.27,94.14 "/>
      </g>
     </g>
    </g>
   </g>
   <g>
    <g>
     <g>
      <g>
       <g>
        <g>
         <g>
          <g>
           <polygon class="fil4" points="310.85,179.85 382.98,179.85 382.98,165.3 310.85,165.3 "/>
          </g>
         </g>
        </g>
       </g>
      </g>
     </g>
     <g>
      <g>
       <g>
        <g>
         <g>
          <g>
           <g>
            <path class="fil5 str2" d="M378.35 165.54c-0.18,0 -0.32,3.16 -0.32,7.05 0,3.9 0.14,7.06 0.32,7.06 0.17,0 0.31,-3.16 0.31,-7.06 0,-3.89 -0.14,-7.05 -0.31,-7.05z"/>
           </g>
          </g>
         </g>
        </g>
       </g>
      </g>
     </g>
     <g>
      <g>
       <g>
        <g>
         <g>
          <g>
           <g>
            <path class="fil6" d="M371.66 165.54c-0.18,0 -0.32,3.16 -0.32,7.05 0,3.9 0.14,7.06 0.32,7.06 0.17,0 0.31,-3.16 0.31,-7.06 0,-3.89 -0.14,-7.05 -0.31,-7.05z"/>
           </g>
          </g>
         </g>
        </g>
       </g>
      </g>
     </g>
     <g>
      <g>
       <g>
        <g>
         <g>
          <g>
           <g>
            <path class="fil6" d="M365.05 165.54c-0.18,0 -0.32,3.16 -0.32,7.05 0,3.9 0.14,7.06 0.32,7.06 0.17,0 0.31,-3.16 0.31,-7.06 0,-3.89 -0.14,-7.05 -0.31,-7.05z"/>
           </g>
          </g>
         </g>
        </g>
       </g>
      </g>
     </g>
     <g>
      <g>
       <g>
        <g>
         <g>
          <g>
           <g>
            <path class="fil6" d="M358.47 165.54c-0.17,0 -0.31,3.16 -0.31,7.05 0,3.9 0.14,7.06 0.31,7.06 0.17,0 0.31,-3.16 0.31,-7.06 0,-3.89 -0.14,-7.05 -0.31,-7.05z"/>
           </g>
          </g>
         </g>
        </g>
       </g>
      </g>
     </g>
     <g>
      <g>
       <g>
        <g>
         <g>
          <g>
           <g>
            <path class="fil6" d="M351.9 165.54c-0.18,0 -0.32,3.16 -0.32,7.05 0,3.9 0.14,7.06 0.32,7.06 0.17,0 0.31,-3.16 0.31,-7.06 0,-3.89 -0.14,-7.05 -0.31,-7.05z"/>
           </g>
          </g>
         </g>
        </g>
       </g>
      </g>
     </g>
     <g>
      <g>
       <g>
        <g>
         <g>
          <g>
           <g>
            <path class="fil6" d="M345.32 165.54c-0.17,0 -0.31,3.16 -0.31,7.05 0,3.9 0.14,7.06 0.31,7.06 0.17,0 0.32,-3.16 0.32,-7.06 0,-3.89 -0.15,-7.05 -0.32,-7.05z"/>
           </g>
          </g>
         </g>
        </g>
       </g>
      </g>
     </g>
     <g>
      <g>
       <g>
        <g>
         <g>
          <g>
           <g>
            <path class="fil6" d="M338.75 165.54c-0.18,0 -0.32,3.16 -0.32,7.05 0,3.9 0.14,7.06 0.32,7.06 0.17,0 0.31,-3.16 0.31,-7.06 0,-3.89 -0.14,-7.05 -0.31,-7.05z"/>
           </g>
          </g>
         </g>
        </g>
       </g>
      </g>
     </g>
     <g>
      <g>
       <g>
        <g>
         <g>
          <g>
           <g>
            <path class="fil6" d="M332.17 165.54c-0.17,0 -0.31,3.16 -0.31,7.05 0,3.9 0.14,7.06 0.31,7.06 0.18,0 0.32,-3.16 0.32,-7.06 0,-3.89 -0.14,-7.05 -0.32,-7.05z"/>
           </g>
          </g>
         </g>
        </g>
       </g>
      </g>
     </g>
     <g>
      <g>
       <g>
        <g>
         <g>
          <g>
           <g>
            <path class="fil6" d="M325.6 165.54c-0.18,0 -0.32,3.16 -0.32,7.05 0,3.9 0.14,7.06 0.32,7.06 0.17,0 0.31,-3.16 0.31,-7.06 0,-3.89 -0.14,-7.05 -0.31,-7.05z"/>
           </g>
          </g>
         </g>
        </g>
       </g>
      </g>
     </g>
     <g>
      <g>
       <g>
        <g>
         <g>
          <g>
           <g>
            <path class="fil6" d="M319.02 165.54c-0.17,0 -0.31,3.16 -0.31,7.05 0,3.9 0.14,7.06 0.31,7.06 0.18,0 0.32,-3.16 0.32,-7.06 0,-3.89 -0.14,-7.05 -0.32,-7.05z"/>
           </g>
          </g>
         </g>
        </g>
       </g>
      </g>
     </g>
     <g>
      <g>
       <g>
        <g>
         <g>
          <g>
           <g>
            <path class="fil6" d="M312.45 165.54c-0.18,0 -0.32,3.16 -0.32,7.05 0,3.9 0.14,7.06 0.32,7.06 0.17,0 0.31,-3.16 0.31,-7.06 0,-3.89 -0.14,-7.05 -0.31,-7.05z"/>
           </g>
          </g>
         </g>
        </g>
       </g>
      </g>
     </g>
    </g>
    <g>
     <g>
      <g>
       <g>
        <g>
         <g>
          <g>
           <polygon class="fil4" points="309.23,194.15 381.36,194.15 381.36,179.6 309.23,179.6 "/>
          </g>
         </g>
        </g>
       </g>
      </g>
     </g>
     <g>
      <g>
       <g>
        <g>
         <g>
          <g>
           <g>
            <path class="fil6" d="M376.73 179.85c-0.18,0 -0.32,3.15 -0.32,7.05 0,3.89 0.14,7.05 0.32,7.05 0.17,0 0.31,-3.16 0.31,-7.05 0,-3.9 -0.14,-7.05 -0.31,-7.05z"/>
           </g>
          </g>
         </g>
        </g>
       </g>
      </g>
     </g>
     <g>
      <g>
       <g>
        <g>
         <g>
          <g>
           <g>
            <path class="fil6" d="M370.04 179.85c-0.18,0 -0.32,3.15 -0.32,7.05 0,3.89 0.14,7.05 0.32,7.05 0.17,0 0.31,-3.16 0.31,-7.05 0,-3.9 -0.14,-7.05 -0.31,-7.05z"/>
           </g>
          </g>
         </g>
        </g>
       </g>
      </g>
     </g>
     <g>
      <g>
       <g>
        <g>
         <g>
          <g>
           <g>
            <path class="fil6" d="M363.43 179.85c-0.18,0 -0.32,3.15 -0.32,7.05 0,3.89 0.14,7.05 0.32,7.05 0.17,0 0.31,-3.16 0.31,-7.05 0,-3.9 -0.14,-7.05 -0.31,-7.05z"/>
           </g>
          </g>
         </g>
        </g>
       </g>
      </g>
     </g>
     <g>
      <g>
       <g>
        <g>
         <g>
          <g>
           <g>
            <path class="fil6" d="M356.85 179.85c-0.17,0 -0.31,3.15 -0.31,7.05 0,3.89 0.14,7.05 0.31,7.05 0.17,0 0.31,-3.16 0.31,-7.05 0,-3.9 -0.14,-7.05 -0.31,-7.05z"/>
           </g>
          </g>
         </g>
        </g>
       </g>
      </g>
     </g>
     <g>
      <g>
       <g>
        <g>
         <g>
          <g>
           <g>
            <path class="fil6" d="M350.28 179.85c-0.18,0 -0.32,3.15 -0.32,7.05 0,3.89 0.14,7.05 0.32,7.05 0.17,0 0.31,-3.16 0.31,-7.05 0,-3.9 -0.14,-7.05 -0.31,-7.05z"/>
           </g>
          </g>
         </g>
        </g>
       </g>
      </g>
     </g>
     <g>
      <g>
       <g>
        <g>
         <g>
          <g>
           <g>
            <path class="fil6" d="M343.7 179.85c-0.17,0 -0.31,3.15 -0.31,7.05 0,3.89 0.14,7.05 0.31,7.05 0.17,0 0.31,-3.16 0.31,-7.05 0,-3.9 -0.14,-7.05 -0.31,-7.05z"/>
           </g>
          </g>
         </g>
        </g>
       </g>
      </g>
     </g>
     <g>
      <g>
       <g>
        <g>
         <g>
          <g>
           <g>
            <path class="fil6" d="M337.13 179.85c-0.18,0 -0.32,3.15 -0.32,7.05 0,3.89 0.14,7.05 0.32,7.05 0.17,0 0.31,-3.16 0.31,-7.05 0,-3.9 -0.14,-7.05 -0.31,-7.05z"/>
           </g>
          </g>
         </g>
        </g>
       </g>
      </g>
     </g>
     <g>
      <g>
       <g>
        <g>
         <g>
          <g>
           <g>
            <path class="fil6" d="M330.55 179.85c-0.17,0 -0.31,3.15 -0.31,7.05 0,3.89 0.14,7.05 0.31,7.05 0.17,0 0.31,-3.16 0.31,-7.05 0,-3.9 -0.14,-7.05 -0.31,-7.05z"/>
           </g>
          </g>
         </g>
        </g>
       </g>
      </g>
     </g>
     <g>
      <g>
       <g>
        <g>
         <g>
          <g>
           <g>
            <path class="fil6" d="M323.98 179.85c-0.18,0 -0.32,3.15 -0.32,7.05 0,3.89 0.14,7.05 0.32,7.05 0.17,0 0.31,-3.16 0.31,-7.05 0,-3.9 -0.14,-7.05 -0.31,-7.05z"/>
           </g>
          </g>
         </g>
        </g>
       </g>
      </g>
     </g>
     <g>
      <g>
       <g>
        <g>
         <g>
          <g>
           <g>
            <path class="fil6" d="M317.4 179.85c-0.17,0 -0.31,3.15 -0.31,7.05 0,3.89 0.14,7.05 0.31,7.05 0.18,0 0.32,-3.16 0.32,-7.05 0,-3.9 -0.14,-7.05 -0.32,-7.05z"/>
           </g>
          </g>
         </g>
        </g>
       </g>
      </g>
     </g>
     <g>
      <g>
       <g>
        <g>
         <g>
          <g>
           <g>
            <path class="fil6" d="M310.83 179.85c-0.18,0 -0.31,3.15 -0.31,7.05 0,3.89 0.13,7.05 0.31,7.05 0.17,0 0.31,-3.16 0.31,-7.05 0,-3.9 -0.14,-7.05 -0.31,-7.05z"/>
           </g>
          </g>
         </g>
        </g>
       </g>
      </g>
     </g>
     <g>
      <g>
       <g>
        <g>
         <g>
          <g>
           <g>
            <path class="fil7" d="M380.2 179.62c-22.52,3.06 -47.35,3.16 -69.82,0.01l69.82 -0.01z"/>
           </g>
          </g>
         </g>
        </g>
       </g>
      </g>
     </g>
     <g>
      <g>
       <g>
        <g>
         <g>
          <g>
           <g>
            <path class="fil6" d="M309.21 179.65c0,0.17 16.12,0.31 36,0.31 19.89,0 36.01,-0.14 36.01,-0.31 0,-0.17 -16.12,-0.31 -36.01,-0.31 -19.88,0 -36,0.14 -36,0.31z"/>
           </g>
          </g>
         </g>
        </g>
       </g>
      </g>
     </g>
    </g>
    <g>
     <g>
      <g>
       <g>
        <g>
         <g>
          <g>
           <polygon class="fil4" points="316.08,208.23 388.21,208.23 388.21,193.68 316.08,193.68 "/>
          </g>
         </g>
        </g>
       </g>
      </g>
     </g>
     <g>
      <g>
       <g>
        <g>
         <g>
          <g>
           <g>
            <path class="fil6" d="M383.57 193.92c-0.17,0 -0.31,3.16 -0.31,7.05 0,3.9 0.14,7.06 0.31,7.06 0.18,0 0.32,-3.16 0.32,-7.06 0,-3.89 -0.14,-7.05 -0.32,-7.05z"/>
           </g>
          </g>
         </g>
        </g>
       </g>
      </g>
     </g>
     <g>
      <g>
       <g>
        <g>
         <g>
          <g>
           <g>
            <path class="fil6" d="M376.89 193.92c-0.18,0 -0.32,3.16 -0.32,7.05 0,3.9 0.14,7.06 0.32,7.06 0.17,0 0.31,-3.16 0.31,-7.06 0,-3.89 -0.14,-7.05 -0.31,-7.05z"/>
           </g>
          </g>
         </g>
        </g>
       </g>
      </g>
     </g>
     <g>
      <g>
       <g>
        <g>
         <g>
          <g>
           <g>
            <path class="fil6" d="M370.28 193.92c-0.18,0 -0.32,3.16 -0.32,7.05 0,3.9 0.14,7.06 0.32,7.06 0.17,0 0.31,-3.16 0.31,-7.06 0,-3.89 -0.14,-7.05 -0.31,-7.05z"/>
           </g>
          </g>
         </g>
        </g>
       </g>
      </g>
     </g>
     <g>
      <g>
       <g>
        <g>
         <g>
          <g>
           <g>
            <path class="fil6" d="M363.7 193.92c-0.17,0 -0.31,3.16 -0.31,7.05 0,3.9 0.14,7.06 0.31,7.06 0.17,0 0.31,-3.16 0.31,-7.06 0,-3.89 -0.14,-7.05 -0.31,-7.05z"/>
           </g>
          </g>
         </g>
        </g>
       </g>
      </g>
     </g>
     <g>
      <g>
       <g>
        <g>
         <g>
          <g>
           <g>
            <path class="fil6" d="M357.13 193.92c-0.18,0 -0.32,3.16 -0.32,7.05 0,3.9 0.14,7.06 0.32,7.06 0.17,0 0.31,-3.16 0.31,-7.06 0,-3.89 -0.14,-7.05 -0.31,-7.05z"/>
           </g>
          </g>
         </g>
        </g>
       </g>
      </g>
     </g>
     <g>
      <g>
       <g>
        <g>
         <g>
          <g>
           <g>
            <path class="fil6" d="M350.55 193.92c-0.17,0 -0.31,3.16 -0.31,7.05 0,3.9 0.14,7.06 0.31,7.06 0.17,0 0.31,-3.16 0.31,-7.06 0,-3.89 -0.14,-7.05 -0.31,-7.05z"/>
           </g>
          </g>
         </g>
        </g>
       </g>
      </g>
     </g>
     <g>
      <g>
       <g>
        <g>
         <g>
          <g>
           <g>
            <path class="fil6" d="M343.98 193.92c-0.18,0 -0.32,3.16 -0.32,7.05 0,3.9 0.14,7.06 0.32,7.06 0.17,0 0.31,-3.16 0.31,-7.06 0,-3.89 -0.14,-7.05 -0.31,-7.05z"/>
           </g>
          </g>
         </g>
        </g>
       </g>
      </g>
     </g>
     <g>
      <g>
       <g>
        <g>
         <g>
          <g>
           <g>
            <path class="fil6" d="M337.4 193.92c-0.17,0 -0.31,3.16 -0.31,7.05 0,3.9 0.14,7.06 0.31,7.06 0.17,0 0.31,-3.16 0.31,-7.06 0,-3.89 -0.14,-7.05 -0.31,-7.05z"/>
           </g>
          </g>
         </g>
        </g>
       </g>
      </g>
     </g>
     <g>
      <g>
       <g>
        <g>
         <g>
          <g>
           <g>
            <path class="fil6" d="M330.83 193.92c-0.18,0 -0.32,3.16 -0.32,7.05 0,3.9 0.14,7.06 0.32,7.06 0.17,0 0.31,-3.16 0.31,-7.06 0,-3.89 -0.14,-7.05 -0.31,-7.05z"/>
           </g>
          </g>
         </g>
        </g>
       </g>
      </g>
     </g>
     <g>
      <g>
       <g>
        <g>
         <g>
          <g>
           <g>
            <path class="fil6" d="M324.25 193.92c-0.17,0 -0.31,3.16 -0.31,7.05 0,3.9 0.14,7.06 0.31,7.06 0.17,0 0.31,-3.16 0.31,-7.06 0,-3.89 -0.14,-7.05 -0.31,-7.05z"/>
           </g>
          </g>
         </g>
        </g>
       </g>
      </g>
     </g>
     <g>
      <g>
       <g>
        <g>
         <g>
          <g>
           <g>
            <path class="fil6" d="M317.68 193.92c-0.18,0 -0.32,3.16 -0.32,7.05 0,3.9 0.14,7.06 0.32,7.06 0.17,0 0.31,-3.16 0.31,-7.06 0,-3.89 -0.14,-7.05 -0.31,-7.05z"/>
           </g>
          </g>
         </g>
        </g>
       </g>
      </g>
     </g>
     <g>
      <g>
       <g>
        <g>
         <g>
          <g>
           <g>
            <path class="fil7" d="M387.05 193.69c-22.52,3.06 -47.35,3.17 -69.82,0.02l69.82 -0.02z"/>
           </g>
          </g>
         </g>
        </g>
       </g>
      </g>
     </g>
     <g>
      <g>
       <g>
        <g>
         <g>
          <g>
           <g>
            <path class="fil6" d="M316.06 193.72c0,0.18 16.12,0.32 36,0.32 19.89,0 36.01,-0.14 36.01,-0.32 0,-0.17 -16.12,-0.31 -36.01,-0.31 -19.88,0 -36,0.14 -36,0.31z"/>
           </g>
          </g>
         </g>
        </g>
       </g>
      </g>
     </g>
    </g>
    <g>
     <g>
      <g>
       <g>
        <g>
         <g>
          <g>
           <polygon class="fil4" points="307.63,222.11 379.76,222.11 379.76,208.12 307.63,208.12 "/>
          </g>
         </g>
        </g>
       </g>
      </g>
     </g>
     <g>
      <g>
       <g>
        <g>
         <g>
          <g>
           <g>
            <path class="fil6" d="M375.12 208.35c-0.17,0 -0.31,3.04 -0.31,6.78 0,3.75 0.14,6.79 0.31,6.79 0.18,0 0.32,-3.04 0.32,-6.79 0,-3.74 -0.14,-6.78 -0.32,-6.78z"/>
           </g>
          </g>
         </g>
        </g>
       </g>
      </g>
     </g>
     <g>
      <g>
       <g>
        <g>
         <g>
          <g>
           <g>
            <path class="fil6" d="M368.44 208.35c-0.18,0 -0.32,3.04 -0.32,6.78 0,3.75 0.14,6.79 0.32,6.79 0.17,0 0.31,-3.04 0.31,-6.79 0,-3.74 -0.14,-6.78 -0.31,-6.78z"/>
           </g>
          </g>
         </g>
        </g>
       </g>
      </g>
     </g>
     <g>
      <g>
       <g>
        <g>
         <g>
          <g>
           <g>
            <path class="fil6" d="M361.83 208.35c-0.18,0 -0.32,3.04 -0.32,6.78 0,3.75 0.14,6.79 0.32,6.79 0.17,0 0.31,-3.04 0.31,-6.79 0,-3.74 -0.14,-6.78 -0.31,-6.78z"/>
           </g>
          </g>
         </g>
        </g>
       </g>
      </g>
     </g>
     <g>
      <g>
       <g>
        <g>
         <g>
          <g>
           <g>
            <path class="fil6" d="M355.25 208.35c-0.17,0 -0.31,3.04 -0.31,6.78 0,3.75 0.14,6.79 0.31,6.79 0.17,0 0.31,-3.04 0.31,-6.79 0,-3.74 -0.14,-6.78 -0.31,-6.78z"/>
           </g>
          </g>
         </g>
        </g>
       </g>
      </g>
     </g>
     <g>
      <g>
       <g>
        <g>
         <g>
          <g>
           <g>
            <path class="fil6" d="M348.67 208.35c-0.17,0 -0.31,3.04 -0.31,6.78 0,3.75 0.14,6.79 0.31,6.79 0.18,0 0.32,-3.04 0.32,-6.79 0,-3.74 -0.14,-6.78 -0.32,-6.78z"/>
           </g>
          </g>
         </g>
        </g>
       </g>
      </g>
     </g>
     <g>
      <g>
       <g>
        <g>
         <g>
          <g>
           <g>
            <path class="fil6" d="M342.1 208.35c-0.17,0 -0.31,3.04 -0.31,6.78 0,3.75 0.14,6.79 0.31,6.79 0.17,0 0.31,-3.04 0.31,-6.79 0,-3.74 -0.14,-6.78 -0.31,-6.78z"/>
           </g>
          </g>
         </g>
        </g>
       </g>
      </g>
     </g>
     <g>
      <g>
       <g>
        <g>
         <g>
          <g>
           <g>
            <path class="fil6" d="M335.53 208.35c-0.18,0 -0.32,3.04 -0.32,6.78 0,3.75 0.14,6.79 0.32,6.79 0.17,0 0.31,-3.04 0.31,-6.79 0,-3.74 -0.14,-6.78 -0.31,-6.78z"/>
           </g>
          </g>
         </g>
        </g>
       </g>
      </g>
     </g>
     <g>
      <g>
       <g>
        <g>
         <g>
          <g>
           <g>
            <path class="fil6" d="M328.95 208.35c-0.17,0 -0.31,3.04 -0.31,6.78 0,3.75 0.14,6.79 0.31,6.79 0.17,0 0.31,-3.04 0.31,-6.79 0,-3.74 -0.14,-6.78 -0.31,-6.78z"/>
           </g>
          </g>
         </g>
        </g>
       </g>
      </g>
     </g>
     <g>
      <g>
       <g>
        <g>
         <g>
          <g>
           <g>
            <path class="fil6" d="M322.38 208.35c-0.18,0 -0.32,3.04 -0.32,6.78 0,3.75 0.14,6.79 0.32,6.79 0.17,0 0.31,-3.04 0.31,-6.79 0,-3.74 -0.14,-6.78 -0.31,-6.78z"/>
           </g>
          </g>
         </g>
        </g>
       </g>
      </g>
     </g>
     <g>
      <g>
       <g>
        <g>
         <g>
          <g>
           <g>
            <path class="fil6" d="M315.8 208.35c-0.17,0 -0.31,3.04 -0.31,6.78 0,3.75 0.14,6.79 0.31,6.79 0.17,0 0.31,-3.04 0.31,-6.79 0,-3.74 -0.14,-6.78 -0.31,-6.78z"/>
           </g>
          </g>
         </g>
        </g>
       </g>
      </g>
     </g>
     <g>
      <g>
       <g>
        <g>
         <g>
          <g>
           <g>
            <path class="fil6" d="M309.23 208.35c-0.18,0 -0.32,3.04 -0.32,6.78 0,3.75 0.14,6.79 0.32,6.79 0.17,0 0.31,-3.04 0.31,-6.79 0,-3.74 -0.14,-6.78 -0.31,-6.78z"/>
           </g>
          </g>
         </g>
        </g>
       </g>
      </g>
     </g>
     <g>
      <g>
       <g>
        <g>
         <g>
          <g>
           <g>
            <path class="fil7" d="M378.6 208.13c-22.52,3.91 -47.35,4.05 -69.82,0.02l69.82 -0.02z"/>
           </g>
          </g>
         </g>
        </g>
       </g>
      </g>
     </g>
     <g>
      <g>
       <g>
        <g>
         <g>
          <g>
           <g>
            <path class="fil6" d="M307.61 208.16c0,0.17 16.12,0.32 36,0.32 19.89,0 36.01,-0.15 36.01,-0.32 0,-0.17 -16.12,-0.31 -36.01,-0.31 -19.88,0 -36,0.14 -36,0.31z"/>
           </g>
          </g>
         </g>
        </g>
       </g>
      </g>
     </g>
    </g>
    <g>
     <g>
      <g>
       <g>
        <g>
         <g>
          <g>
           <polygon class="fil4" points="312.26,236.11 384.4,236.11 384.4,222.12 312.26,222.12 "/>
          </g>
         </g>
        </g>
       </g>
      </g>
     </g>
     <g>
      <g>
       <g>
        <g>
         <g>
          <g>
           <g>
            <path class="fil6" d="M379.76 222.35c-0.17,0 -0.31,3.04 -0.31,6.78 0,3.75 0.14,6.78 0.31,6.78 0.18,0 0.32,-3.03 0.32,-6.78 0,-3.74 -0.14,-6.78 -0.32,-6.78z"/>
           </g>
          </g>
         </g>
        </g>
       </g>
      </g>
     </g>
     <g>
      <g>
       <g>
        <g>
         <g>
          <g>
           <g>
            <path class="fil6" d="M373.07 222.35c-0.17,0 -0.31,3.04 -0.31,6.78 0,3.75 0.14,6.78 0.31,6.78 0.18,0 0.32,-3.03 0.32,-6.78 0,-3.74 -0.14,-6.78 -0.32,-6.78z"/>
           </g>
          </g>
         </g>
        </g>
       </g>
      </g>
     </g>
     <g>
      <g>
       <g>
        <g>
         <g>
          <g>
           <g>
            <path class="fil6" d="M366.46 222.35c-0.17,0 -0.31,3.04 -0.31,6.78 0,3.75 0.14,6.78 0.31,6.78 0.18,0 0.32,-3.03 0.32,-6.78 0,-3.74 -0.14,-6.78 -0.32,-6.78z"/>
           </g>
          </g>
         </g>
        </g>
       </g>
      </g>
     </g>
     <g>
      <g>
       <g>
        <g>
         <g>
          <g>
           <g>
            <path class="fil6" d="M359.89 222.35c-0.17,0 -0.32,3.04 -0.32,6.78 0,3.75 0.15,6.78 0.32,6.78 0.17,0 0.31,-3.03 0.31,-6.78 0,-3.74 -0.14,-6.78 -0.31,-6.78z"/>
           </g>
          </g>
         </g>
        </g>
       </g>
      </g>
     </g>
     <g>
      <g>
       <g>
        <g>
         <g>
          <g>
           <g>
            <path class="fil6" d="M353.31 222.35c-0.17,0 -0.31,3.04 -0.31,6.78 0,3.75 0.14,6.78 0.31,6.78 0.18,0 0.32,-3.03 0.32,-6.78 0,-3.74 -0.14,-6.78 -0.32,-6.78z"/>
           </g>
          </g>
         </g>
        </g>
       </g>
      </g>
     </g>
     <g>
      <g>
       <g>
        <g>
         <g>
          <g>
           <g>
            <path class="fil6" d="M346.74 222.35c-0.17,0 -0.31,3.04 -0.31,6.78 0,3.75 0.14,6.78 0.31,6.78 0.17,0 0.31,-3.03 0.31,-6.78 0,-3.74 -0.14,-6.78 -0.31,-6.78z"/>
           </g>
          </g>
         </g>
        </g>
       </g>
      </g>
     </g>
     <g>
      <g>
       <g>
        <g>
         <g>
          <g>
           <g>
            <path class="fil6" d="M340.16 222.35c-0.17,0 -0.31,3.04 -0.31,6.78 0,3.75 0.14,6.78 0.31,6.78 0.18,0 0.32,-3.03 0.32,-6.78 0,-3.74 -0.14,-6.78 -0.32,-6.78z"/>
           </g>
          </g>
         </g>
        </g>
       </g>
      </g>
     </g>
     <g>
      <g>
       <g>
        <g>
         <g>
          <g>
           <g>
            <path class="fil6" d="M333.59 222.35c-0.17,0 -0.31,3.04 -0.31,6.78 0,3.75 0.14,6.78 0.31,6.78 0.17,0 0.31,-3.03 0.31,-6.78 0,-3.74 -0.14,-6.78 -0.31,-6.78z"/>
           </g>
          </g>
         </g>
        </g>
       </g>
      </g>
     </g>
     <g>
      <g>
       <g>
        <g>
         <g>
          <g>
           <g>
            <path class="fil6" d="M327.01 222.35c-0.17,0 -0.31,3.04 -0.31,6.78 0,3.75 0.14,6.78 0.31,6.78 0.18,0 0.32,-3.03 0.32,-6.78 0,-3.74 -0.14,-6.78 -0.32,-6.78z"/>
           </g>
          </g>
         </g>
        </g>
       </g>
      </g>
     </g>
     <g>
      <g>
       <g>
        <g>
         <g>
          <g>
           <g>
            <path class="fil6" d="M320.44 222.35c-0.17,0 -0.31,3.04 -0.31,6.78 0,3.75 0.14,6.78 0.31,6.78 0.17,0 0.31,-3.03 0.31,-6.78 0,-3.74 -0.14,-6.78 -0.31,-6.78z"/>
           </g>
          </g>
         </g>
        </g>
       </g>
      </g>
     </g>
     <g>
      <g>
       <g>
        <g>
         <g>
          <g>
           <g>
            <path class="fil6" d="M313.86 222.35c-0.17,0 -0.31,3.04 -0.31,6.78 0,3.75 0.14,6.78 0.31,6.78 0.18,0 0.32,-3.03 0.32,-6.78 0,-3.74 -0.14,-6.78 -0.32,-6.78z"/>
           </g>
          </g>
         </g>
        </g>
       </g>
      </g>
     </g>
     <g>
      <g>
       <g>
        <g>
         <g>
          <g>
           <g>
            <path class="fil7" d="M383.24 222.13c-22.52,4.42 -47.35,4.58 -69.82,0.02l69.82 -0.02z"/>
           </g>
          </g>
         </g>
        </g>
       </g>
      </g>
     </g>
     <g>
      <g>
       <g>
        <g>
         <g>
          <g>
           <g>
            <path class="fil6" d="M312.24 222.16c0,0.17 16.13,0.31 36.01,0.31 19.89,0 36,-0.14 36,-0.31 0,-0.17 -16.11,-0.31 -36,-0.31 -19.88,0 -36.01,0.14 -36.01,0.31z"/>
           </g>
          </g>
         </g>
        </g>
       </g>
      </g>
     </g>
    </g>
    <g>
     <g>
      <g>
       <g>
        <g>
         <g>
          <g>
           <polygon class="fil4" points="308.14,249.9 380.28,249.9 380.28,235.91 308.14,235.91 "/>
          </g>
         </g>
        </g>
       </g>
      </g>
     </g>
     <g>
      <g>
       <g>
        <g>
         <g>
          <g>
           <g>
            <path class="fil6" d="M375.64 236.15c-0.17,0 -0.31,3.04 -0.31,6.78 0,3.75 0.14,6.78 0.31,6.78 0.17,0 0.31,-3.03 0.31,-6.78 0,-3.74 -0.14,-6.78 -0.31,-6.78z"/>
           </g>
          </g>
         </g>
        </g>
       </g>
      </g>
     </g>
     <g>
      <g>
       <g>
        <g>
         <g>
          <g>
           <g>
            <path class="fil6" d="M368.95 236.15c-0.17,0 -0.31,3.04 -0.31,6.78 0,3.75 0.14,6.78 0.31,6.78 0.18,0 0.32,-3.03 0.32,-6.78 0,-3.74 -0.14,-6.78 -0.32,-6.78z"/>
           </g>
          </g>
         </g>
        </g>
       </g>
      </g>
     </g>
     <g>
      <g>
       <g>
        <g>
         <g>
          <g>
           <g>
            <path class="fil6" d="M362.34 236.15c-0.17,0 -0.31,3.04 -0.31,6.78 0,3.75 0.14,6.78 0.31,6.78 0.17,0 0.31,-3.03 0.31,-6.78 0,-3.74 -0.14,-6.78 -0.31,-6.78z"/>
           </g>
          </g>
         </g>
        </g>
       </g>
      </g>
     </g>
     <g>
      <g>
       <g>
        <g>
         <g>
          <g>
           <g>
            <path class="fil6" d="M355.77 236.15c-0.18,0 -0.32,3.04 -0.32,6.78 0,3.75 0.14,6.78 0.32,6.78 0.17,0 0.31,-3.03 0.31,-6.78 0,-3.74 -0.14,-6.78 -0.31,-6.78z"/>
           </g>
          </g>
         </g>
        </g>
       </g>
      </g>
     </g>
     <g>
      <g>
       <g>
        <g>
         <g>
          <g>
           <g>
            <path class="fil6" d="M349.19 236.15c-0.17,0 -0.31,3.04 -0.31,6.78 0,3.75 0.14,6.78 0.31,6.78 0.17,0 0.31,-3.03 0.31,-6.78 0,-3.74 -0.14,-6.78 -0.31,-6.78z"/>
           </g>
          </g>
         </g>
        </g>
       </g>
      </g>
     </g>
     <g>
      <g>
       <g>
        <g>
         <g>
          <g>
           <g>
            <path class="fil6" d="M342.62 236.15c-0.18,0 -0.32,3.04 -0.32,6.78 0,3.75 0.14,6.78 0.32,6.78 0.17,0 0.31,-3.03 0.31,-6.78 0,-3.74 -0.14,-6.78 -0.31,-6.78z"/>
           </g>
          </g>
         </g>
        </g>
       </g>
      </g>
     </g>
     <g>
      <g>
       <g>
        <g>
         <g>
          <g>
           <g>
            <path class="fil6" d="M336.04 236.15c-0.17,0 -0.31,3.04 -0.31,6.78 0,3.75 0.14,6.78 0.31,6.78 0.17,0 0.32,-3.03 0.32,-6.78 0,-3.74 -0.15,-6.78 -0.32,-6.78z"/>
           </g>
          </g>
         </g>
        </g>
       </g>
      </g>
     </g>
     <g>
      <g>
       <g>
        <g>
         <g>
          <g>
           <g>
            <path class="fil6" d="M329.47 236.15c-0.18,0 -0.32,3.04 -0.32,6.78 0,3.75 0.14,6.78 0.32,6.78 0.17,0 0.31,-3.03 0.31,-6.78 0,-3.74 -0.14,-6.78 -0.31,-6.78z"/>
           </g>
          </g>
         </g>
        </g>
       </g>
      </g>
     </g>
     <g>
      <g>
       <g>
        <g>
         <g>
          <g>
           <g>
            <path class="fil6" d="M322.89 236.15c-0.17,0 -0.31,3.04 -0.31,6.78 0,3.75 0.14,6.78 0.31,6.78 0.18,0 0.32,-3.03 0.32,-6.78 0,-3.74 -0.14,-6.78 -0.32,-6.78z"/>
           </g>
          </g>
         </g>
        </g>
       </g>
      </g>
     </g>
     <g>
      <g>
       <g>
        <g>
         <g>
          <g>
           <g>
            <path class="fil6" d="M316.32 236.15c-0.17,0 -0.31,3.04 -0.31,6.78 0,3.75 0.14,6.78 0.31,6.78 0.17,0 0.31,-3.03 0.31,-6.78 0,-3.74 -0.14,-6.78 -0.31,-6.78z"/>
           </g>
          </g>
         </g>
        </g>
       </g>
      </g>
     </g>
     <g>
      <g>
       <g>
        <g>
         <g>
          <g>
           <g>
            <path class="fil6" d="M309.74 236.15c-0.17,0 -0.31,3.04 -0.31,6.78 0,3.75 0.14,6.78 0.31,6.78 0.18,0 0.32,-3.03 0.32,-6.78 0,-3.74 -0.14,-6.78 -0.32,-6.78z"/>
           </g>
          </g>
         </g>
        </g>
       </g>
      </g>
     </g>
     <g>
      <g>
       <g>
        <g>
         <g>
          <g>
           <g>
            <path class="fil7" d="M379.12 235.93c-22.52,3.91 -47.36,4.04 -69.83,0.02l69.83 -0.02z"/>
           </g>
          </g>
         </g>
        </g>
       </g>
      </g>
     </g>
     <g>
      <g>
       <g>
        <g>
         <g>
          <g>
           <g>
            <path class="fil5 str2" d="M308.12 235.96c0,0.17 16.12,0.31 36.01,0.31 19.88,0 36,-0.14 36,-0.31 0,-0.17 -16.12,-0.31 -36,-0.31 -19.89,0 -36.01,0.14 -36.01,0.31z"/>
           </g>
          </g>
         </g>
        </g>
       </g>
      </g>
     </g>
    </g>
    <g>
     <g>
      <g>
       <g>
        <g>
         <g>
          <path class="fil6" d="M380.28 249.9c-0.01,0 -0.02,-0.08 -0.02,-0.23 -0.01,-0.19 -0.02,-0.42 -0.03,-0.71 0,-0.65 -0.02,-1.56 -0.04,-2.72 -0.01,-2.41 -0.04,-5.85 -0.07,-10.13l0 -0.16 0.16 0c1.25,-0.01 2.58,-0.01 3.97,-0.02l-0.17 0.18c-0.01,-4.09 -0.03,-8.82 -0.04,-14l0.21 0.21c-1.45,0 -3.03,0.01 -4.63,0.01l-0.23 0 0 -0.22c0,-4.33 -0.01,-9.01 -0.01,-13.88l0 -0.24 0.24 0c1.53,0 3.17,0 4.82,0 1.22,0 2.43,0 3.63,0l-0.24 0.24c0,-5.18 0.01,-10.15 0.01,-14.82l0.23 0.22c-2.38,0 -4.66,0 -6.85,-0.01l-0.21 0 0 -0.21c0.01,-5.06 0.03,-9.63 0.04,-13.56l0 -0.17 0.17 0c0.63,0 1.21,0 1.76,0.01l-0.16 0.16c-0.01,-4.51 -0.02,-8.13 -0.03,-10.65 0,-1.22 0.01,-2.18 0.01,-2.86 0.01,-0.31 0.01,-0.55 0.02,-0.74 0,-0.17 0.01,-0.25 0.02,-0.25 0,0 0.01,0.08 0.02,0.25 0.01,0.19 0.02,0.43 0.03,0.74 0.02,0.68 0.04,1.63 0.07,2.86 0.05,2.52 0.11,6.14 0.18,10.64l0.01 0.16 -0.17 0c-0.55,0.01 -1.13,0.01 -1.76,0.01l0.16 -0.16c0.02,3.93 0.03,8.5 0.05,13.56l-0.21 -0.21c2.19,0 4.47,-0.01 6.85,-0.01l0.22 0 0 0.22c0,4.67 0.01,9.64 0.01,14.82l0 0.23 -0.23 0c-1.2,0 -2.41,0 -3.63,0 -1.65,0 -3.29,0 -4.82,0l0.23 -0.23c0,4.87 -0.01,9.55 -0.01,13.88l-0.22 -0.22c1.6,0 3.18,0 4.63,0l0.22 0 0 0.22c-0.02,5.18 -0.03,9.91 -0.04,14l0 0.17 -0.18 0c-1.39,-0.01 -2.72,-0.01 -3.97,-0.02l0.15 -0.15c-0.03,4.28 -0.05,7.72 -0.07,10.13 -0.01,1.16 -0.03,2.07 -0.04,2.72 -0.01,0.29 -0.01,0.52 -0.02,0.71 -0.01,0.15 -0.01,0.23 -0.02,0.23z"/>
         </g>
        </g>
       </g>
      </g>
     </g>
    </g>
   </g>
   <g>
    <g>
     <g>
      <g>
       <path class="fil3" d="M218.34 118.89l50.73 0c2.09,0 3.15,-2.52 1.69,-4.02l-25.37 -25.9c-0.92,-0.95 -2.45,-0.95 -3.37,0l-25.36 25.9c-1.47,1.5 -0.41,4.02 1.68,4.02z"/>
      </g>
     </g>
    </g>
    <g>
     <g>
      <g>
       <polygon class="fil3" points="260.68,246.83 228.15,246.83 228.15,114.06 260.68,114.06 "/>
      </g>
     </g>
    </g>
   </g>
   <g>
    <g>
     <g>
      <g>
       <g>
        <g>
         <g>
          <g>
           <polygon class="fil4" points="207.2,222.11 279.34,222.11 279.34,208.12 207.2,208.12 "/>
          </g>
         </g>
        </g>
       </g>
      </g>
     </g>
     <g>
      <g>
       <g>
        <g>
         <g>
          <g>
           <g>
            <path class="fil6" d="M274.7 208.35c-0.17,0 -0.31,3.04 -0.31,6.78 0,3.75 0.14,6.79 0.31,6.79 0.18,0 0.32,-3.04 0.32,-6.79 0,-3.74 -0.14,-6.78 -0.32,-6.78z"/>
           </g>
          </g>
         </g>
        </g>
       </g>
      </g>
     </g>
     <g>
      <g>
       <g>
        <g>
         <g>
          <g>
           <g>
            <path class="fil6" d="M268.01 208.35c-0.17,0 -0.31,3.04 -0.31,6.78 0,3.75 0.14,6.79 0.31,6.79 0.18,0 0.32,-3.04 0.32,-6.79 0,-3.74 -0.14,-6.78 -0.32,-6.78z"/>
           </g>
          </g>
         </g>
        </g>
       </g>
      </g>
     </g>
     <g>
      <g>
       <g>
        <g>
         <g>
          <g>
           <g>
            <path class="fil6" d="M261.4 208.35c-0.17,0 -0.31,3.04 -0.31,6.78 0,3.75 0.14,6.79 0.31,6.79 0.18,0 0.32,-3.04 0.32,-6.79 0,-3.74 -0.14,-6.78 -0.32,-6.78z"/>
           </g>
          </g>
         </g>
        </g>
       </g>
      </g>
     </g>
     <g>
      <g>
       <g>
        <g>
         <g>
          <g>
           <g>
            <path class="fil6" d="M254.83 208.35c-0.17,0 -0.31,3.04 -0.31,6.78 0,3.75 0.14,6.79 0.31,6.79 0.17,0 0.31,-3.04 0.31,-6.79 0,-3.74 -0.14,-6.78 -0.31,-6.78z"/>
           </g>
          </g>
         </g>
        </g>
       </g>
      </g>
     </g>
     <g>
      <g>
       <g>
        <g>
         <g>
          <g>
           <g>
            <path class="fil6" d="M248.25 208.35c-0.17,0 -0.31,3.04 -0.31,6.78 0,3.75 0.14,6.79 0.31,6.79 0.18,0 0.32,-3.04 0.32,-6.79 0,-3.74 -0.14,-6.78 -0.32,-6.78z"/>
           </g>
          </g>
         </g>
        </g>
       </g>
      </g>
     </g>
     <g>
      <g>
       <g>
        <g>
         <g>
          <g>
           <g>
            <path class="fil6" d="M241.68 208.35c-0.17,0 -0.31,3.04 -0.31,6.78 0,3.75 0.14,6.79 0.31,6.79 0.17,0 0.31,-3.04 0.31,-6.79 0,-3.74 -0.14,-6.78 -0.31,-6.78z"/>
           </g>
          </g>
         </g>
        </g>
       </g>
      </g>
     </g>
     <g>
      <g>
       <g>
        <g>
         <g>
          <g>
           <g>
            <path class="fil6" d="M235.1 208.35c-0.17,0 -0.31,3.04 -0.31,6.78 0,3.75 0.14,6.79 0.31,6.79 0.18,0 0.32,-3.04 0.32,-6.79 0,-3.74 -0.14,-6.78 -0.32,-6.78z"/>
           </g>
          </g>
         </g>
        </g>
       </g>
      </g>
     </g>
     <g>
      <g>
       <g>
        <g>
         <g>
          <g>
           <g>
            <path class="fil6" d="M228.53 208.35c-0.17,0 -0.31,3.04 -0.31,6.78 0,3.75 0.14,6.79 0.31,6.79 0.17,0 0.31,-3.04 0.31,-6.79 0,-3.74 -0.14,-6.78 -0.31,-6.78z"/>
           </g>
          </g>
         </g>
        </g>
       </g>
      </g>
     </g>
     <g>
      <g>
       <g>
        <g>
         <g>
          <g>
           <g>
            <path class="fil6" d="M221.95 208.35c-0.17,0 -0.31,3.04 -0.31,6.78 0,3.75 0.14,6.79 0.31,6.79 0.18,0 0.32,-3.04 0.32,-6.79 0,-3.74 -0.14,-6.78 -0.32,-6.78z"/>
           </g>
          </g>
         </g>
        </g>
       </g>
      </g>
     </g>
     <g>
      <g>
       <g>
        <g>
         <g>
          <g>
           <g>
            <path class="fil6" d="M215.38 208.35c-0.17,0 -0.31,3.04 -0.31,6.78 0,3.75 0.14,6.79 0.31,6.79 0.17,0 0.31,-3.04 0.31,-6.79 0,-3.74 -0.14,-6.78 -0.31,-6.78z"/>
           </g>
          </g>
         </g>
        </g>
       </g>
      </g>
     </g>
     <g>
      <g>
       <g>
        <g>
         <g>
          <g>
           <g>
            <path class="fil6" d="M208.81 208.35c-0.18,0 -0.32,3.04 -0.32,6.78 0,3.75 0.14,6.79 0.32,6.79 0.17,0 0.31,-3.04 0.31,-6.79 0,-3.74 -0.14,-6.78 -0.31,-6.78z"/>
           </g>
          </g>
         </g>
        </g>
       </g>
      </g>
     </g>
     <g>
      <g>
       <g>
        <g>
         <g>
          <g>
           <g>
            <path class="fil6" d="M207.18 208.16c0,0.17 16.13,0.32 36.01,0.32 19.89,0 36,-0.15 36,-0.32 0,-0.17 -16.11,-0.31 -36,-0.31 -19.88,0 -36.01,0.14 -36.01,0.31z"/>
           </g>
          </g>
         </g>
        </g>
       </g>
      </g>
     </g>
    </g>
    <g>
     <g>
      <g>
       <g>
        <g>
         <g>
          <g>
           <polygon class="fil4" points="211.84,236.11 283.98,236.11 283.98,222.12 211.84,222.12 "/>
          </g>
         </g>
        </g>
       </g>
      </g>
     </g>
     <g>
      <g>
       <g>
        <g>
         <g>
          <g>
           <g>
            <path class="fil6" d="M279.34 222.35c-0.17,0 -0.31,3.04 -0.31,6.78 0,3.75 0.14,6.78 0.31,6.78 0.17,0 0.31,-3.03 0.31,-6.78 0,-3.74 -0.14,-6.78 -0.31,-6.78z"/>
           </g>
          </g>
         </g>
        </g>
       </g>
      </g>
     </g>
     <g>
      <g>
       <g>
        <g>
         <g>
          <g>
           <g>
            <path class="fil6" d="M272.65 222.35c-0.17,0 -0.31,3.04 -0.31,6.78 0,3.75 0.14,6.78 0.31,6.78 0.17,0 0.32,-3.03 0.32,-6.78 0,-3.74 -0.15,-6.78 -0.32,-6.78z"/>
           </g>
          </g>
         </g>
        </g>
       </g>
      </g>
     </g>
     <g>
      <g>
       <g>
        <g>
         <g>
          <g>
           <g>
            <path class="fil6" d="M266.04 222.35c-0.17,0 -0.31,3.04 -0.31,6.78 0,3.75 0.14,6.78 0.31,6.78 0.17,0 0.31,-3.03 0.31,-6.78 0,-3.74 -0.14,-6.78 -0.31,-6.78z"/>
           </g>
          </g>
         </g>
        </g>
       </g>
      </g>
     </g>
     <g>
      <g>
       <g>
        <g>
         <g>
          <g>
           <g>
            <path class="fil6" d="M259.47 222.35c-0.18,0 -0.32,3.04 -0.32,6.78 0,3.75 0.14,6.78 0.32,6.78 0.17,0 0.31,-3.03 0.31,-6.78 0,-3.74 -0.14,-6.78 -0.31,-6.78z"/>
           </g>
          </g>
         </g>
        </g>
       </g>
      </g>
     </g>
     <g>
      <g>
       <g>
        <g>
         <g>
          <g>
           <g>
            <path class="fil6" d="M252.89 222.35c-0.17,0 -0.31,3.04 -0.31,6.78 0,3.75 0.14,6.78 0.31,6.78 0.18,0 0.32,-3.03 0.32,-6.78 0,-3.74 -0.14,-6.78 -0.32,-6.78z"/>
           </g>
          </g>
         </g>
        </g>
       </g>
      </g>
     </g>
     <g>
      <g>
       <g>
        <g>
         <g>
          <g>
           <g>
            <path class="fil6" d="M246.32 222.35c-0.18,0 -0.32,3.04 -0.32,6.78 0,3.75 0.14,6.78 0.32,6.78 0.17,0 0.31,-3.03 0.31,-6.78 0,-3.74 -0.14,-6.78 -0.31,-6.78z"/>
           </g>
          </g>
         </g>
        </g>
       </g>
      </g>
     </g>
     <g>
      <g>
       <g>
        <g>
         <g>
          <g>
           <g>
            <path class="fil6" d="M239.74 222.35c-0.17,0 -0.31,3.04 -0.31,6.78 0,3.75 0.14,6.78 0.31,6.78 0.18,0 0.32,-3.03 0.32,-6.78 0,-3.74 -0.14,-6.78 -0.32,-6.78z"/>
           </g>
          </g>
         </g>
        </g>
       </g>
      </g>
     </g>
     <g>
      <g>
       <g>
        <g>
         <g>
          <g>
           <g>
            <path class="fil6" d="M233.17 222.35c-0.18,0 -0.32,3.04 -0.32,6.78 0,3.75 0.14,6.78 0.32,6.78 0.17,0 0.31,-3.03 0.31,-6.78 0,-3.74 -0.14,-6.78 -0.31,-6.78z"/>
           </g>
          </g>
         </g>
        </g>
       </g>
      </g>
     </g>
     <g>
      <g>
       <g>
        <g>
         <g>
          <g>
           <g>
            <path class="fil6" d="M226.59 222.35c-0.17,0 -0.31,3.04 -0.31,6.78 0,3.75 0.14,6.78 0.31,6.78 0.18,0 0.32,-3.03 0.32,-6.78 0,-3.74 -0.14,-6.78 -0.32,-6.78z"/>
           </g>
          </g>
         </g>
        </g>
       </g>
      </g>
     </g>
     <g>
      <g>
       <g>
        <g>
         <g>
          <g>
           <g>
            <path class="fil6" d="M220.02 222.35c-0.18,0 -0.32,3.04 -0.32,6.78 0,3.75 0.14,6.78 0.32,6.78 0.17,0 0.31,-3.03 0.31,-6.78 0,-3.74 -0.14,-6.78 -0.31,-6.78z"/>
           </g>
          </g>
         </g>
        </g>
       </g>
      </g>
     </g>
     <g>
      <g>
       <g>
        <g>
         <g>
          <g>
           <g>
            <path class="fil6" d="M213.44 222.35c-0.17,0 -0.31,3.04 -0.31,6.78 0,3.75 0.14,6.78 0.31,6.78 0.18,0 0.32,-3.03 0.32,-6.78 0,-3.74 -0.14,-6.78 -0.32,-6.78z"/>
           </g>
          </g>
         </g>
        </g>
       </g>
      </g>
     </g>
     <g>
      <g>
       <g>
        <g>
         <g>
          <g>
           <g>
            <path class="fil7" d="M282.82 222.13c-22.52,4.42 -47.36,4.58 -69.83,0.02l69.83 -0.02z"/>
           </g>
          </g>
         </g>
        </g>
       </g>
      </g>
     </g>
     <g>
      <g>
       <g>
        <g>
         <g>
          <g>
           <g>
            <path class="fil6" d="M211.82 222.16c0,0.17 16.12,0.31 36.01,0.31 19.89,0 36,-0.14 36,-0.31 0,-0.17 -16.11,-0.31 -36,-0.31 -19.89,0 -36.01,0.14 -36.01,0.31z"/>
           </g>
          </g>
         </g>
        </g>
       </g>
      </g>
     </g>
    </g>
    <g>
     <g>
      <g>
       <g>
        <g>
         <g>
          <g>
           <polygon class="fil4" points="207.72,249.9 279.86,249.9 279.86,235.91 207.72,235.91 "/>
          </g>
         </g>
        </g>
       </g>
      </g>
     </g>
     <g>
      <g>
       <g>
        <g>
         <g>
          <g>
           <g>
            <path class="fil6" d="M275.22 236.15c-0.17,0 -0.31,3.04 -0.31,6.78 0,3.75 0.14,6.78 0.31,6.78 0.17,0 0.31,-3.03 0.31,-6.78 0,-3.74 -0.14,-6.78 -0.31,-6.78z"/>
           </g>
          </g>
         </g>
        </g>
       </g>
      </g>
     </g>
     <g>
      <g>
       <g>
        <g>
         <g>
          <g>
           <g>
            <path class="fil6" d="M268.53 236.15c-0.17,0 -0.31,3.04 -0.31,6.78 0,3.75 0.14,6.78 0.31,6.78 0.17,0 0.31,-3.03 0.31,-6.78 0,-3.74 -0.14,-6.78 -0.31,-6.78z"/>
           </g>
          </g>
         </g>
        </g>
       </g>
      </g>
     </g>
     <g>
      <g>
       <g>
        <g>
         <g>
          <g>
           <g>
            <path class="fil6" d="M261.92 236.15c-0.17,0 -0.31,3.04 -0.31,6.78 0,3.75 0.14,6.78 0.31,6.78 0.17,0 0.31,-3.03 0.31,-6.78 0,-3.74 -0.14,-6.78 -0.31,-6.78z"/>
           </g>
          </g>
         </g>
        </g>
       </g>
      </g>
     </g>
     <g>
      <g>
       <g>
        <g>
         <g>
          <g>
           <g>
            <path class="fil6" d="M255.35 236.15c-0.18,0 -0.32,3.04 -0.32,6.78 0,3.75 0.14,6.78 0.32,6.78 0.17,0 0.31,-3.03 0.31,-6.78 0,-3.74 -0.14,-6.78 -0.31,-6.78z"/>
           </g>
          </g>
         </g>
        </g>
       </g>
      </g>
     </g>
     <g>
      <g>
       <g>
        <g>
         <g>
          <g>
           <g>
            <path class="fil6" d="M248.77 236.15c-0.17,0 -0.31,3.04 -0.31,6.78 0,3.75 0.14,6.78 0.31,6.78 0.17,0 0.31,-3.03 0.31,-6.78 0,-3.74 -0.14,-6.78 -0.31,-6.78z"/>
           </g>
          </g>
         </g>
        </g>
       </g>
      </g>
     </g>
     <g>
      <g>
       <g>
        <g>
         <g>
          <g>
           <g>
            <path class="fil6" d="M242.2 236.15c-0.18,0 -0.32,3.04 -0.32,6.78 0,3.75 0.14,6.78 0.32,6.78 0.17,0 0.31,-3.03 0.31,-6.78 0,-3.74 -0.14,-6.78 -0.31,-6.78z"/>
           </g>
          </g>
         </g>
        </g>
       </g>
      </g>
     </g>
     <g>
      <g>
       <g>
        <g>
         <g>
          <g>
           <g>
            <path class="fil6" d="M235.62 236.15c-0.17,0 -0.31,3.04 -0.31,6.78 0,3.75 0.14,6.78 0.31,6.78 0.17,0 0.31,-3.03 0.31,-6.78 0,-3.74 -0.14,-6.78 -0.31,-6.78z"/>
           </g>
          </g>
         </g>
        </g>
       </g>
      </g>
     </g>
     <g>
      <g>
       <g>
        <g>
         <g>
          <g>
           <g>
            <path class="fil6" d="M229.05 236.15c-0.18,0 -0.32,3.04 -0.32,6.78 0,3.75 0.14,6.78 0.32,6.78 0.17,0 0.31,-3.03 0.31,-6.78 0,-3.74 -0.14,-6.78 -0.31,-6.78z"/>
           </g>
          </g>
         </g>
        </g>
       </g>
      </g>
     </g>
     <g>
      <g>
       <g>
        <g>
         <g>
          <g>
           <g>
            <path class="fil6" d="M222.47 236.15c-0.17,0 -0.31,3.04 -0.31,6.78 0,3.75 0.14,6.78 0.31,6.78 0.17,0 0.31,-3.03 0.31,-6.78 0,-3.74 -0.14,-6.78 -0.31,-6.78z"/>
           </g>
          </g>
         </g>
        </g>
       </g>
      </g>
     </g>
     <g>
      <g>
       <g>
        <g>
         <g>
          <g>
           <g>
            <path class="fil6" d="M215.9 236.15c-0.18,0 -0.32,3.04 -0.32,6.78 0,3.75 0.14,6.78 0.32,6.78 0.17,0 0.31,-3.03 0.31,-6.78 0,-3.74 -0.14,-6.78 -0.31,-6.78z"/>
           </g>
          </g>
         </g>
        </g>
       </g>
      </g>
     </g>
     <g>
      <g>
       <g>
        <g>
         <g>
          <g>
           <g>
            <path class="fil6" d="M209.32 236.15c-0.17,0 -0.31,3.04 -0.31,6.78 0,3.75 0.14,6.78 0.31,6.78 0.17,0 0.31,-3.03 0.31,-6.78 0,-3.74 -0.14,-6.78 -0.31,-6.78z"/>
           </g>
          </g>
         </g>
        </g>
       </g>
      </g>
     </g>
     <g>
      <g>
       <g>
        <g>
         <g>
          <g>
           <g>
            <path class="fil7" d="M278.7 235.93c-22.52,3.91 -47.36,4.04 -69.83,0.02l69.83 -0.02z"/>
           </g>
          </g>
         </g>
        </g>
       </g>
      </g>
     </g>
     <g>
      <g>
       <g>
        <g>
         <g>
          <g>
           <g>
            <path class="fil6" d="M207.7 235.96c0,0.17 16.12,0.31 36,0.31 19.89,0 36.01,-0.14 36.01,-0.31 0,-0.17 -16.12,-0.31 -36.01,-0.31 -19.88,0 -36,0.14 -36,0.31z"/>
           </g>
          </g>
         </g>
        </g>
       </g>
      </g>
     </g>
    </g>
   </g>
   <g>
    <g>
     <g>
      <g>
       <path class="fil3" d="M126.04 148.11l50.72 0c2.1,0 3.15,-2.52 1.69,-4.01l-25.36 -25.91c-0.93,-0.94 -2.45,-0.94 -3.38,0l-25.36 25.91c-1.46,1.49 -0.4,4.01 1.69,4.01z"/>
      </g>
     </g>
    </g>
    <g>
     <g>
      <g>
       <polygon class="fil3" points="168.37,246.42 135.84,246.42 135.84,143.28 168.37,143.28 "/>
      </g>
     </g>
    </g>
   </g>
   <g>
    <g>
     <g>
      <g>
       <g>
        <g>
         <g>
          <polygon class="fil4" points="114.08,250.04 186.21,250.04 186.21,236.05 114.08,236.05 "/>
         </g>
        </g>
       </g>
      </g>
     </g>
    </g>
    <g>
     <g>
      <g>
       <g>
        <g>
         <g>
          <g>
           <path class="fil6" d="M181.58 236.28c-0.18,0 -0.32,3.04 -0.32,6.79 0,3.74 0.14,6.78 0.32,6.78 0.17,0 0.31,-3.04 0.31,-6.78 0,-3.75 -0.14,-6.79 -0.31,-6.79z"/>
          </g>
         </g>
        </g>
       </g>
      </g>
     </g>
    </g>
    <g>
     <g>
      <g>
       <g>
        <g>
         <g>
          <g>
           <path class="fil6" d="M174.89 236.28c-0.18,0 -0.32,3.04 -0.32,6.79 0,3.74 0.14,6.78 0.32,6.78 0.17,0 0.31,-3.04 0.31,-6.78 0,-3.75 -0.14,-6.79 -0.31,-6.79z"/>
          </g>
         </g>
        </g>
       </g>
      </g>
     </g>
    </g>
    <g>
     <g>
      <g>
       <g>
        <g>
         <g>
          <g>
           <path class="fil6" d="M168.28 236.28c-0.18,0 -0.32,3.04 -0.32,6.79 0,3.74 0.14,6.78 0.32,6.78 0.17,0 0.31,-3.04 0.31,-6.78 0,-3.75 -0.14,-6.79 -0.31,-6.79z"/>
          </g>
         </g>
        </g>
       </g>
      </g>
     </g>
    </g>
    <g>
     <g>
      <g>
       <g>
        <g>
         <g>
          <g>
           <path class="fil6" d="M161.7 236.28c-0.17,0 -0.31,3.04 -0.31,6.79 0,3.74 0.14,6.78 0.31,6.78 0.17,0 0.31,-3.04 0.31,-6.78 0,-3.75 -0.14,-6.79 -0.31,-6.79z"/>
          </g>
         </g>
        </g>
       </g>
      </g>
     </g>
    </g>
    <g>
     <g>
      <g>
       <g>
        <g>
         <g>
          <g>
           <path class="fil6" d="M155.13 236.28c-0.18,0 -0.32,3.04 -0.32,6.79 0,3.74 0.14,6.78 0.32,6.78 0.17,0 0.31,-3.04 0.31,-6.78 0,-3.75 -0.14,-6.79 -0.31,-6.79z"/>
          </g>
         </g>
        </g>
       </g>
      </g>
     </g>
    </g>
    <g>
     <g>
      <g>
       <g>
        <g>
         <g>
          <g>
           <path class="fil6" d="M148.55 236.28c-0.17,0 -0.31,3.04 -0.31,6.79 0,3.74 0.14,6.78 0.31,6.78 0.17,0 0.31,-3.04 0.31,-6.78 0,-3.75 -0.14,-6.79 -0.31,-6.79z"/>
          </g>
         </g>
        </g>
       </g>
      </g>
     </g>
    </g>
    <g>
     <g>
      <g>
       <g>
        <g>
         <g>
          <g>
           <path class="fil6" d="M141.98 236.28c-0.18,0 -0.32,3.04 -0.32,6.79 0,3.74 0.14,6.78 0.32,6.78 0.17,0 0.31,-3.04 0.31,-6.78 0,-3.75 -0.14,-6.79 -0.31,-6.79z"/>
          </g>
         </g>
        </g>
       </g>
      </g>
     </g>
    </g>
    <g>
     <g>
      <g>
       <g>
        <g>
         <g>
          <g>
           <path class="fil6" d="M135.4 236.28c-0.17,0 -0.31,3.04 -0.31,6.79 0,3.74 0.14,6.78 0.31,6.78 0.17,0 0.32,-3.04 0.32,-6.78 0,-3.75 -0.15,-6.79 -0.32,-6.79z"/>
          </g>
         </g>
        </g>
       </g>
      </g>
     </g>
    </g>
    <g>
     <g>
      <g>
       <g>
        <g>
         <g>
          <g>
           <path class="fil6" d="M128.83 236.28c-0.18,0 -0.32,3.04 -0.32,6.79 0,3.74 0.14,6.78 0.32,6.78 0.17,0 0.31,-3.04 0.31,-6.78 0,-3.75 -0.14,-6.79 -0.31,-6.79z"/>
          </g>
         </g>
        </g>
       </g>
      </g>
     </g>
    </g>
    <g>
     <g>
      <g>
       <g>
        <g>
         <g>
          <g>
           <path class="fil6" d="M122.25 236.28c-0.17,0 -0.31,3.04 -0.31,6.79 0,3.74 0.14,6.78 0.31,6.78 0.18,0 0.32,-3.04 0.32,-6.78 0,-3.75 -0.14,-6.79 -0.32,-6.79z"/>
          </g>
         </g>
        </g>
       </g>
      </g>
     </g>
    </g>
    <g>
     <g>
      <g>
       <g>
        <g>
         <g>
          <g>
           <path class="fil6" d="M115.68 236.28c-0.18,0 -0.32,3.04 -0.32,6.79 0,3.74 0.14,6.78 0.32,6.78 0.17,0 0.31,-3.04 0.31,-6.78 0,-3.75 -0.14,-6.79 -0.31,-6.79z"/>
          </g>
         </g>
        </g>
       </g>
      </g>
     </g>
    </g>
    <g>
     <g>
      <g>
       <g>
        <g>
         <g>
          <g>
           <path class="fil6" d="M114.06 236.09c0,0.18 16.12,0.32 36,0.32 19.89,0 36.01,-0.14 36.01,-0.32 0,-0.17 -16.12,-0.31 -36.01,-0.31 -19.88,0 -36,0.14 -36,0.31z"/>
          </g>
         </g>
        </g>
       </g>
      </g>
     </g>
    </g>
   </g>
   <g>
    <path class="fil8" d="M80.35 88.79l-0.02 0.67 -0.11 5.86c0,0 -0.53,0.79 -1.48,1.6 0,0 -0.02,-0.01 -0.03,-0.01 -0.16,-0.01 -0.31,-0.03 -0.47,-0.04 -4.54,-0.46 -10.18,-1.38 -10.17,-4.51 0,-0.03 -0.07,-0.08 -0.09,-0.11l0.24 -4.46 0.55 0.05 8.16 0.67 3.42 0.28z"/>
    <path class="fil9" d="M66.6 91.58c-0.68,0.63 -0.39,6.53 -0.3,7.44 0.22,2.42 0.65,-1 3.03,-0.07 2.39,0.93 5.1,0.87 7.62,0.38 1.43,-0.27 2.07,-0.42 3.07,-1.41 1,-0.99 1,-4.98 0.12,-5.05 -0.89,-0.08 -2.97,0.05 -3.86,0.09 -2.11,0.12 -4.25,-0.22 -6.21,-0.98 -1.41,-0.53 -1.95,-1.81 -3.47,-0.4z"/>
    <path class="fil10" d="M73.63 185.38c-0.45,3.6 -1.24,7.18 -1.86,10.76 -1.72,9.72 -6.96,28.56 -6.96,36.01 0,1.33 -8.86,1.45 -9.27,-0.51 -4.15,-7.17 1.38,-56.51 0.13,-67.97 -0.47,-4.4 -0.04,-11.8 3.92,-14.12 5.97,-3.49 13.49,4.26 15.12,7.64 2.37,4.85 0.85,11.91 -1.08,28.19z"/>
    <path class="fil11" d="M91.77 185.52l0 0c-4.75,35.85 -6.19,31.06 -6.31,56.54 -6.43,2.32 -10.89,6.05 -11.16,-1.78 0,-3.64 -3.66,-47.74 6.48,-47.79 1.71,-0.02 9.67,-5.97 10.99,-6.97z"/>
    <path class="fil12" d="M92.81 161.31c-0.42,9.12 -0.47,17.88 -1.04,24.21l0 0c-0.72,7.95 -1.81,8.23 -4,12.93 -1.53,3.3 -1.33,5.73 -3.31,7.35 -1.52,1.27 -3.85,1.23 -5.56,0.26 -1.72,-0.97 -4,6.81 -4.64,4.96 -0.5,-1.52 -0.8,-8.43 -0.88,-10.04 -0.79,-15.76 -7.94,-26.15 -6.39,-39.05 0.08,-0.67 25.82,-0.62 25.82,-0.62z"/>
    <path class="fil13" d="M96.87 105.75c0,0 -0.41,2.45 -0.96,5.98 -0.03,0.22 -0.06,0.44 -0.09,0.66 -0.8,5.21 -1.84,12.44 -2.34,17.68 -0.17,1.73 -0.27,3.24 -0.29,4.39 -0.08,5.67 0.83,21.37 1.13,26.33 0.07,0.98 -0.45,1.91 -1.31,2.41 -0.92,0.53 -1.8,0.97 -2.68,1.33 -1.5,0.61 -3,1.01 -4.68,1.29 -1.17,0.19 -2.41,0.32 -3.8,0.43 -5.23,0.38 -10.83,0.23 -16,-0.63 -3.86,-0.64 -7.42,-1.92 -10.34,-4.13 -0.68,-0.51 -1.09,-1.28 -1.1,-2.1l0 -0.01c-0.14,-5.37 2.87,-20.19 2.88,-25.96 0.03,-9.89 -3.76,-26.51 -3.51,-32.03 0.23,-4.63 2,-10.25 12.68,-8.97l14.08 3.02c2.92,1.55 15.16,3.61 16.33,10.31z"/>
    <path class="fil8" d="M85.71 85.87c-0.82,1.88 -3.5,2.64 -5.38,3.59 -0.69,0.34 -1.43,0.59 -2.22,0.7 -0.14,0.02 -0.29,0.04 -0.43,0.05 -0.74,0.06 -1.52,-0.01 -2.17,-0.33 -1.3,-0.63 -6.03,0.16 -6.51,-1.15 -0.11,-0.28 -0.18,-0.58 -0.22,-0.89 -0.53,-3.39 1.95,-8.45 2.52,-11.63 0.53,-3 2.44,-5.67 4.86,-7.68 2.05,-1.7 6.04,-3 8.64,-3.77l1.31 1.49 1.07 1.22 -1.47 18.4z"/>
    <path class="fil10" d="M87.34 66.76c-0.26,1.78 -1.86,1.66 -2.85,3.19 -1.15,1.75 -1.2,3.31 -2.35,5.08 -0.41,0.63 -2.09,6.67 -4.02,5.61 -2.82,-1.54 0.41,5.64 -4.79,8.21 -0.9,0.45 -3.33,0.07 -4.33,-0.11 -0.58,-0.11 -1.03,-0.54 -1.43,-0.95 -0.02,-0.03 -0.05,-0.06 -0.08,-0.08 -1.46,-1.5 -6.84,-6.3 -8.01,-8.73 -1.02,-2.12 -1.26,-4.81 -1.21,-7.19 0.04,-2.19 1.46,-4.2 2.73,-5.96 1.29,-1.81 2.95,-3.3 4.99,-4.33 3.45,-1.76 8.13,-2.09 12.13,-1.59 0.54,0.07 1.07,0.15 1.57,0.24 0.91,0.18 1.81,0.41 2.71,0.67 0.37,0.18 0.76,0.37 1.15,0.57 3.82,1.99 3.76,4.06 3.79,4.2 0,0 0.04,0.87 0,1.17z"/>
    <path class="fil8" d="M77.88 80.31c1.13,1.38 1.18,3.13 0.1,3.92 -1.09,0.8 -2.88,0.32 -4.02,-1.06 -1.13,-1.38 -1.18,-3.14 -0.09,-3.93 1.08,-0.79 2.87,-0.31 4.01,1.07z"/>
    <path class="fil14" d="M79.26 94.09c0.85,0.17 1.69,0.4 2.51,0.71 0.54,0.21 1.15,1.01 1.15,1.56 -3.3,0.66 -9.37,-0.58 -12.7,-1.1 -2.86,-0.46 -5.65,-2.17 -6.08,-2.85 -1.13,-1.78 5.81,0.15 6.54,0.33 2.79,0.73 5.76,0.77 8.58,1.35z"/>
    <path class="fil8" d="M103.18 161.97c1.27,-0.16 2.53,-0.29 3.81,-0.44 0.26,2.13 0.43,3.49 0.43,3.49 0.27,0.25 1.25,1.37 1.4,1.58 0.9,1.39 1.27,3.04 2.14,4.44 0.27,0.41 1.32,1.64 1.18,2.17 -0.05,0.11 -0.2,0.2 -0.32,0.21 -1.66,0.53 -2.44,-0.99 -3.02,-2.23 0.13,0.63 0.3,1.25 0.45,1.91 0.16,0.73 1.17,4.54 0.2,4.7 -0.49,0.07 -0.72,-0.57 -0.86,-0.89 -0.57,-1.45 -1.05,-2.91 -1.41,-4.44 0.25,1.31 0.55,2.57 0.8,3.84 0.12,0.59 0.47,2.91 -0.49,3.05 -0.26,0.04 -0.51,-0.14 -0.62,-0.4 -0.46,-1.15 -0.72,-2.35 -0.89,-3.6 0.08,0.78 0.16,1.57 0.23,2.37 0.05,0.38 0.08,1.09 -0.42,1.29 -0.61,0.27 -0.93,-0.46 -1.06,-0.84 -0.45,-1.59 -0.73,-3.06 -0.92,-4.72 -0.17,0.97 0.14,3.45 -0.17,4.25 0,0 0.02,0.01 0,0.04 -0.07,0.24 -0.2,0.3 -0.42,0.14 -0.28,-0.19 -0.42,-0.51 -0.5,-0.81 -0.56,-1.85 -0.91,-2.93 -1.5,-4.76 -0.21,-0.77 -0.48,-2.02 -0.52,-2.81 -0.09,-0.97 -0.19,-1.74 -0.34,-2.68 -0.07,-0.54 -0.14,-1.26 -0.17,-2.03 0,0 -0.3,-0.79 -0.79,-2.11 1.25,-0.28 2.49,-0.56 3.78,-0.72z"/>
    <path class="fil14" d="M87.77 103.64c1.5,-2.12 4.23,-3.28 6.31,-2.15 1.23,0.68 2.46,2.47 2.79,3.89l6.68 28.4c0.72,3.55 4.17,20.99 5.96,30.29 -2.95,2.99 -5.98,4.41 -10.49,4.12 -3.21,-7.97 -7.25,-17.43 -8.66,-20.48 -1.7,-3.65 -2.6,-7.56 -3.27,-11.52 0.03,-0.08 0.05,-0.15 0.06,-0.22l-1.85 -8.02c-0.98,-8.38 -2.3,-17.06 2.47,-24.31z"/>
    <path class="fil15" d="M105.9 135.99c0.24,-0.03 0.48,-0.06 0.72,-0.1 -0.24,-0.01 -0.48,0.02 -0.72,0.1z"/>
    <path class="fil10" d="M54.79 229.49l13.97 3.26c1.8,0.42 3.36,1.51 3.36,3.36l0 2.87 -17.33 0 0 -9.49z"/>
    <path class="fil10" d="M74.2 236.49l13.97 3.26c1.81,0.42 3.37,1.52 3.37,3.37l0 2.86 -17.34 0 0 -9.49z"/>
    <rect class="fil8" transform="matrix(0.750241 0.750241 -0.750241 0.750241 85.7869 76.9751)" width="2.94" height="2.94" rx="0.78" ry="0.78"/>
   </g>
  </g>
 </g>
</svg>
