<?xml version="1.0" encoding="UTF-8"?>
<!DOCTYPE svg PUBLIC "-//W3C//DTD SVG 1.1//EN" "http://www.w3.org/Graphics/SVG/1.1/DTD/svg11.dtd">
<!-- Creator: CorelDRAW 2020 (64-Bit Evaluation Version) -->
<svg xmlns="http://www.w3.org/2000/svg" xml:space="preserve" width="100px" height="100px" version="1.1" style="shape-rendering:geometricPrecision; text-rendering:geometricPrecision; image-rendering:optimizeQuality; fill-rule:evenodd; clip-rule:evenodd"
viewBox="0 0 15.19 15.19"
 xmlns:xlink="http://www.w3.org/1999/xlink"
 xmlns:xodm="http://www.corel.com/coreldraw/odm/2003">
 <defs>
  <style type="text/css">
   <![CDATA[
    .fil1 {fill:#263674}
    .fil3 {fill:#EFB30C}
    .fil2 {fill:white}
    .fil0 {fill:url(#id0)}
   ]]>
  </style>
  <linearGradient id="id0" gradientUnits="userSpaceOnUse" x1="7.82" y1="-8.72" x2="7.82" y2="14.09">
   <stop offset="0" style="stop-opacity:1; stop-color:#EFB30C"/>
   <stop offset="1" style="stop-opacity:1; stop-color:white"/>
  </linearGradient>
 </defs>
 <g id="Layer_x0020_1">
  <metadata id="CorelCorpID_0Corel-Layer"/>
  <g id="_2162310766736">
   <circle class="fil0" cx="7.59" cy="7.59" r="7.59"/>
   <path class="fil1" d="M3.47 8.49l2.64 0 0 -2.64c0,-0.3 0.12,-0.57 0.32,-0.77 0.19,-0.19 0.47,-0.32 0.77,-0.32l4.52 0c0.3,0 0.57,0.13 0.77,0.32 0.19,0.2 0.32,0.47 0.32,0.77l0 4.52c0,0.3 -0.13,0.58 -0.32,0.77 -0.2,0.2 -0.47,0.32 -0.77,0.32l-2.64 0 0 2.64c0,0.3 -0.12,0.57 -0.32,0.77 -0.19,0.2 -0.47,0.32 -0.77,0.32l-4.52 0c-0.3,0 -0.57,-0.12 -0.77,-0.32 -0.2,-0.2 -0.32,-0.47 -0.32,-0.77l0 -4.52c0,-0.3 0.12,-0.58 0.32,-0.77 0.2,-0.2 0.47,-0.32 0.77,-0.32zm2.83 0.38l-2.83 0c-0.19,0 -0.37,0.08 -0.5,0.21 -0.13,0.13 -0.21,0.3 -0.21,0.5l0 4.52c0,0.19 0.08,0.37 0.21,0.5 0.13,0.13 0.31,0.2 0.5,0.2l4.52 0c0.2,0 0.37,-0.07 0.5,-0.2 0.13,-0.13 0.21,-0.31 0.21,-0.5l0 -3.02 3.02 0c0.19,0 0.37,-0.08 0.5,-0.21 0.12,-0.12 0.2,-0.3 0.2,-0.5l0 -4.52c0,-0.19 -0.08,-0.37 -0.2,-0.5 -0.13,-0.12 -0.31,-0.2 -0.5,-0.2l-4.52 0c-0.2,0 -0.38,0.08 -0.5,0.2 -0.13,0.13 -0.21,0.31 -0.21,0.5l0 3.02 -0.19 0z"/>
   <path class="fil2" d="M2.76 9.58l0 4.52c0,0.19 0.08,0.37 0.21,0.5 0.13,0.13 0.31,0.2 0.5,0.2l4.52 0c0.2,0 0.37,-0.07 0.5,-0.2 0.13,-0.13 0.21,-0.31 0.21,-0.5l0 -3.02 3.02 0c0.19,0 0.37,-0.08 0.5,-0.21 0.12,-0.12 0.2,-0.3 0.2,-0.5l0 -4.52c0,-0.19 -0.08,-0.37 -0.2,-0.5 -0.13,-0.12 -0.31,-0.2 -0.5,-0.2l-4.52 0c-0.2,0 -0.38,0.08 -0.5,0.2 -0.13,0.13 -0.21,0.31 -0.21,0.5l0 3.02 -0.19 0 -2.83 0c-0.19,0 -0.37,0.08 -0.5,0.21 -0.13,0.13 -0.21,0.3 -0.21,0.5z"/>
   <path class="fil2" d="M6.48 8.87l2.22 2.36 0 -0.15 3.02 0c0.19,0 0.37,-0.08 0.5,-0.21 0.12,-0.12 0.2,-0.3 0.2,-0.5l0 -4.52c0,-0.19 -0.08,-0.37 -0.2,-0.5 -0.13,-0.12 -0.31,-0.2 -0.5,-0.2l-4.52 0c-0.2,0 -0.38,0.08 -0.5,0.2 -0.13,0.13 -0.21,0.31 -0.21,0.5l0 3.02 -0.01 0z"/>
   <path class="fil3" d="M6.7 5.35c0.12,-0.12 0.3,-0.2 0.5,-0.2l4.52 0c0.19,0 0.37,0.08 0.5,0.2 0.12,0.13 0.2,0.31 0.2,0.5l0 4.52c0,0.2 -0.08,0.38 -0.2,0.5 -0.13,0.13 -0.31,0.21 -0.5,0.21l-3.02 0 0 0.15 0.38 0.41 0 -0.18 2.64 0c0.3,0 0.57,-0.12 0.77,-0.32 0.19,-0.19 0.32,-0.47 0.32,-0.77l0 -4.52c0,-0.3 -0.13,-0.57 -0.32,-0.77 -0.2,-0.19 -0.47,-0.32 -0.77,-0.32l-4.52 0c-0.3,0 -0.58,0.13 -0.77,0.32 -0.2,0.2 -0.32,0.47 -0.32,0.77l0 2.62 0.37 0.4 0.01 0 0 -3.02c0,-0.19 0.08,-0.37 0.21,-0.5z"/>
   <path class="fil3" d="M11.12 8.58c0.01,-0.48 -0.22,-1.11 -0.56,-1.41 -0.07,-0.06 -0.06,-0.07 -0.19,-0.16 -0.18,-0.14 -0.41,-0.27 -0.64,-0.33 -0.61,-0.16 -1.24,-0.03 -1.65,0.31l-0.43 0.38c-0.2,0.19 -0.36,0.26 -0.38,0.53 0,0.21 0.23,0.38 0.45,0.32 0.36,-0.1 0.68,-0.94 1.59,-0.9 0.6,0.02 1.12,0.58 1.1,1.18 -0.02,0.43 -0.16,0.66 -0.45,0.93 -0.11,0.11 -0.22,0.2 -0.33,0.31 -0.14,0.13 -0.27,0.19 -0.28,0.41 -0.01,0.18 0.15,0.35 0.35,0.36 0.21,0 0.52,-0.35 0.71,-0.52 0.04,-0.04 0.07,-0.06 0.1,-0.1 0.05,-0.04 0.07,-0.07 0.11,-0.11 0.28,-0.3 0.48,-0.76 0.5,-1.2z"/>
   <path class="fil1" d="M7.82 12.25c0,-0.21 -0.15,-0.37 -0.37,-0.38 -0.18,0 -0.37,0.23 -0.55,0.39 -0.16,0.15 -0.33,0.33 -0.53,0.42 -0.52,0.26 -1.08,0.1 -1.4,-0.25 -0.33,-0.35 -0.43,-0.91 -0.15,-1.4 0.13,-0.22 0.5,-0.53 0.71,-0.73 0.12,-0.11 0.19,-0.14 0.19,-0.33 0.01,-0.18 -0.14,-0.35 -0.35,-0.36 -0.2,-0.01 -0.51,0.34 -0.71,0.52 -0.4,0.37 -0.68,0.81 -0.7,1.41 -0.02,0.4 0.15,0.92 0.39,1.22 0.22,0.27 0.33,0.36 0.66,0.54 0.65,0.37 1.57,0.22 2.11,-0.27 0.04,-0.04 0.07,-0.07 0.11,-0.1 0.2,-0.19 0.58,-0.47 0.59,-0.68z"/>
   <path class="fil1" d="M6.04 11.07c0,0.16 0.09,0.3 0.19,0.35 0.28,0.13 0.42,-0.05 0.57,-0.2l1.77 -1.63c0.12,-0.11 0.24,-0.21 0.35,-0.32 0.3,-0.3 -0.1,-0.8 -0.46,-0.55l-2.12 1.96c-0.09,0.09 -0.29,0.23 -0.3,0.39z"/>
  </g>
 </g>
</svg>
