<?xml version="1.0" encoding="UTF-8"?>
<!DOCTYPE svg PUBLIC "-//W3C//DTD SVG 1.1//EN" "http://www.w3.org/Graphics/SVG/1.1/DTD/svg11.dtd">
<!-- Creator: CorelDRAW 2020 (64-Bit Evaluation Version) -->
<svg xmlns="http://www.w3.org/2000/svg" xml:space="preserve" width="60px" height="59px" version="1.1" style="shape-rendering:geometricPrecision; text-rendering:geometricPrecision; image-rendering:optimizeQuality; fill-rule:evenodd; clip-rule:evenodd"
viewBox="0 0 0.28 0.28"
 xmlns:xlink="http://www.w3.org/1999/xlink"
 xmlns:xodm="http://www.corel.com/coreldraw/odm/2003">
 <defs>
  <style type="text/css">
   <![CDATA[
    .fil3 {fill:#263674}
    .fil2 {fill:white}
    .fil0 {fill:#263674;fill-rule:nonzero}
    .fil1 {fill:#EFB30C;fill-rule:nonzero}
   ]]>
  </style>
 </defs>
 <g id="Layer_x0020_1">
  <metadata id="CorelCorpID_0Corel-Layer"/>
  <g id="_2731753891216">
   <g>
    <path class="fil0" d="M0.11 0.16l-0.11 0 0 0.09c0,0.01 0.01,0.03 0.03,0.03l0.22 0c0.02,0 0.03,-0.02 0.03,-0.03l0 -0.09 -0.11 0 -0.06 0 0 0z"/>
    <path class="fil1" d="M0.25 0.06l-0.04 0 0 -0.03c0,-0.02 -0.01,-0.03 -0.03,-0.03l-0.08 0c-0.02,0 -0.03,0.01 -0.03,0.03l0 0.03 -0.04 0c-0.02,0 -0.03,0.01 -0.03,0.03l0 0.06c0.11,0 0.17,0 0.28,0l0 -0.06c0,-0.02 -0.02,-0.03 -0.03,-0.03l0 0 0 0zm-0.07 0l-0.08 0 0 -0.03 0.08 0 0 0.03z"/>
   </g>
   <circle class="fil2" cx="0.14" cy="0.17" r="0.05"/>
   <path class="fil3" d="M0.14 0.16c0,0 0,0 0,0 -0.01,0 -0.01,0 -0.01,0.01 0,0 0,0.01 0.01,0.01 0,0 0.01,-0.01 0.01,-0.01 0,0 0,0 0,0 0,-0.01 0,-0.01 -0.01,-0.01l0 0 0 0zm0.02 0.01c0,0 0,0 0,0l0.01 0c0,0 0,0.01 0,0.01 0,0 0,0 0,0l-0.01 0.01c0,0 0,0 0,0 0,0 0,0 0,0l0 0c0,0 -0.01,0 -0.01,0 0,0 0,0 0,0 0,0 0,0 0,0 0,0 0,0 0,0l0 0.01c0,0 0,0 0,0l-0.02 0c0,0 0,0 0,0l0 -0.01c0,0 0,0 0,0 0,0 0,0 0,0 0,0 0,0 0,0 0,0 -0.01,0 -0.01,0l0 0c0,0 0,0 0,0 0,0 0,0 0,0l-0.01 -0.01c0,0 0,0 0,0 0,0 0,-0.01 0,-0.01l0.01 0c0,0 0,0 0,0 0,0 0,0 0,0 0,0 0,0 0,0 0,-0.01 0,-0.01 0,-0.01 0,0 0,0 0,0 0,0 0,0 0,0l-0.01 0c0,0 0,0 0,0 0,0 0,-0.01 0,-0.01l0.01 -0.01c0,0 0,0 0,0 0,0 0,0 0,0l0 0.01c0,0 0.01,0 0.01,0 0,0 0,0 0,0 0,-0.01 0,-0.01 0,-0.01 0,0 0,0 0,0l0 -0.01c0,0 0,0 0,0l0.02 0c0,0 0,0 0,0l0 0.01c0,0 0,0 0,0 0,0 0,0 0,0.01 0,0 0,0 0,0 0,0 0.01,0 0.01,0l0 -0.01c0,0 0,0 0,0 0,0 0,0 0,0l0.01 0.01c0,0 0,0.01 0,0.01 0,0 0,0 0,0l-0.01 0c0,0 0,0 0,0 0,0 0,0 0,0 0,0 0,0 0,0.01l0 0z"/>
  </g>
 </g>
</svg>
