<?xml version="1.0" encoding="UTF-8"?>
<!DOCTYPE svg PUBLIC "-//W3C//DTD SVG 1.1//EN" "http://www.w3.org/Graphics/SVG/1.1/DTD/svg11.dtd">
<!-- Creator: CorelDRAW 2020 (64-Bit Evaluation Version) -->
<svg xmlns="http://www.w3.org/2000/svg" xml:space="preserve" width="700px" height="753px" version="1.1" style="shape-rendering:geometricPrecision; text-rendering:geometricPrecision; image-rendering:optimizeQuality; fill-rule:evenodd; clip-rule:evenodd"
viewBox="0 0 23.19 24.94"
 xmlns:xlink="http://www.w3.org/1999/xlink"
 xmlns:xodm="http://www.corel.com/coreldraw/odm/2003">
 <defs>
  <style type="text/css">
   <![CDATA[
    .str1 {stroke:#F2C753;stroke-width:0.04;stroke-miterlimit:2.61313}
    .str0 {stroke:#F5F8FF;stroke-width:0.18;stroke-linecap:round;stroke-miterlimit:2.61313}
    .str2 {stroke:#1B5EAB;stroke-width:0.07;stroke-linecap:round;stroke-miterlimit:2.61313}
    .fil1 {fill:none}
    .fil6 {fill:black}
    .fil5 {fill:#1A1A1A}
    .fil3 {fill:#1B5EAB}
    .fil2 {fill:#2269BA}
    .fil11 {fill:#CCAA72}
    .fil4 {fill:#D9BE93}
    .fil8 {fill:#EFB30C}
    .fil7 {fill:#F2C753}
    .fil0 {fill:#F5F8FF}
    .fil12 {fill:white}
    .fil10 {fill:black;fill-rule:nonzero}
    .fil9 {fill:#D9BE93;fill-rule:nonzero}
   ]]>
  </style>
 </defs>
 <g id="Layer_x0020_1">
  <metadata id="CorelCorpID_0Corel-Layer"/>
  <g id="_2139155225104">
   <circle class="fil0" cx="7.85" cy="7.85" r="7.1"/>
   <path class="fil1 str0" d="M2.3 2.42c1.46,-1.49 3.46,-2.33 5.55,-2.33 1.39,0 2.75,0.37 3.95,1.08"/>
   <path class="fil1 str0" d="M0.83 4.54c0.24,-0.52 0.54,-1 0.89,-1.45"/>
   <polygon class="fil2" points="11.18,22.26 11.63,16.67 11.64,13.91 8.92,13.92 8.92,14 8.92,22.26 "/>
   <path class="fil1 str0" d="M1.36 12.1c-0.83,-1.27 -1.27,-2.74 -1.27,-4.25 0,-0.77 0.11,-1.53 0.34,-2.27"/>
   <circle class="fil0" cx="18.2" cy="7.26" r="5"/>
   <polygon class="fil2" points="11.63,16.67 12.26,22.26 14.19,22.26 14.36,14 14.36,13.91 11.64,13.91 "/>
   <path class="fil3" d="M12.13 14.38l-0.51 0 0 2.29 0.26 0c0.13,0 0.25,-0.11 0.25,-0.25l0 -2.04z"/>
   <g>
    <rect class="fil4" x="9.45" y="22.27" width="1.21" height="0.77"/>
    <polygon class="fil5" points="9.45,23.04 10.66,23.04 10.49,23.7 9.62,23.7 "/>
    <path class="fil6" d="M11.19 24.79c0,-0.67 -0.51,-1.2 -1.14,-1.2 -0.62,0 -1.14,0.53 -1.13,1.2 0,0.15 2.27,0.23 2.27,0z"/>
    <path class="fil5" d="M10.75 24.9c-0.01,-0.17 -0.31,-0.3 -0.7,-0.3 -0.38,0 -0.69,0.13 -0.69,0.3 0,0.04 1.39,0.06 1.39,0z"/>
   </g>
   <g>
    <rect class="fil4" x="12.69" y="22.27" width="1.01" height="0.64"/>
    <polygon class="fil5" points="12.69,22.91 13.7,22.91 13.56,23.46 12.83,23.46 "/>
    <path class="fil6" d="M14.14 24.36c0,-0.55 -0.42,-1 -0.94,-1 -0.53,0 -0.95,0.45 -0.95,1 0,0.13 1.89,0.2 1.89,0z"/>
    <path class="fil5" d="M13.77 24.45c0,-0.13 -0.26,-0.25 -0.57,-0.25 -0.32,0 -0.58,0.12 -0.58,0.25 0,0.04 1.15,0.05 1.15,0z"/>
   </g>
   <path class="fil7" d="M12.95 6.72c1.33,0.1 2.26,0.41 2.26,1.17l0 0.23c0,0.51 -0.33,0.92 -0.85,1.21l0 4.43c0,1.74 -1.32,0.25 -2.63,1.01l-0.1 -4.44 -0.15 4.44c-1.19,-1.2 -2.56,1.24 -2.56,-0.26l0 -5.09c-0.62,-0.3 -1.03,-0.73 -1.03,-1.3l0 -0.23c0,-0.8 1.04,-1.09 2.47,-1.18 0.04,-0.03 0.27,-0.18 0.32,-0.2l1.93 0.01c0.05,0.02 0.29,0.17 0.34,0.2z"/>
   <path class="fil8" d="M13.94 7.17l0 0c-0.43,0.22 -0.62,0.75 -0.39,1.18l1.04 1.95c0.23,0.43 0.7,0.4 1.18,0.4l0 0c0.48,0 0.62,-0.75 0.39,-1.18l-1.04 -1.95c-0.23,-0.43 -0.75,-0.61 -1.18,-0.4z"/>
   <path class="fil9" d="M15.37 8.99c0.05,-0.14 0.1,-0.27 0.15,-0.4 0.09,-0.24 0.19,-0.48 0.31,-0.72 0.12,-0.22 0.24,-0.43 0.36,-0.65 0.12,-0.22 0.23,-0.44 0.32,-0.68 0.04,-0.1 0.08,-0.22 0.16,-0.3 0.06,-0.05 0.44,-0.4 0.54,-0.43 0.17,-0.04 0.35,0.01 0.52,-0.03 0.08,-0.01 0.15,-0.04 0.21,-0.09 0.06,-0.06 0.11,-0.13 0.17,-0.19 0.03,-0.05 0.08,-0.02 0.1,0.03 0.02,0.03 0.03,0.07 0.02,0.11 -0.02,0.09 -0.07,0.17 -0.12,0.24 -0.09,0.11 -0.22,0.2 -0.37,0.23 -0.02,0.01 -0.03,0.03 -0.02,0.05 0,0.01 0.01,0.02 0.01,0.02 0.01,0.01 0.01,0.02 0.02,0.02 0.18,0.14 0.36,0.27 0.55,0.39 0.21,0.14 0.44,0.27 0.65,0.43 0.06,0.04 0.19,0.13 0.17,0.2 -0.06,0.19 -0.73,-0.37 -0.9,-0.41l-0.06 0.04c0.17,0.12 0.44,0.27 0.64,0.42 0.04,0.03 0.08,0.06 0.11,0.09 0.04,0.03 0.09,0.08 0.08,0.13 0,0.03 -0.01,0.05 -0.04,0.06 -0.03,0.01 -0.07,0 -0.11,-0.02 -0.16,-0.12 -0.67,-0.47 -0.84,-0.59l-0.08 0.05c0,0 0,0 0,0.01 0.19,0.16 0.41,0.28 0.63,0.4 0.05,0.04 0.11,0.07 0.17,0.11 0.02,0.02 0.05,0.04 0.07,0.06 0.02,0.02 0.06,0.05 0.07,0.08 0.01,0.06 -0.16,0 -0.19,-0.01 -0.01,0 -0.56,-0.26 -0.61,-0.29 -0.05,-0.03 -0.1,-0.06 -0.14,-0.1 -0.08,-0.08 -0.16,-0.17 -0.22,-0.26 -0.02,-0.04 -0.08,-0.01 -0.06,0.03 0.05,0.08 0.12,0.15 0.18,0.22 0.06,0.07 0.13,0.14 0.22,0.17 0.04,0.02 0.08,0.04 0.13,0.04 0.05,0 0.1,-0.01 0.15,0 0.04,0 0.11,0 0.13,0.04 0.01,0.03 -0.02,0.05 -0.05,0.06 -0.13,0.04 -0.27,0.07 -0.41,0.02 -0.12,-0.04 -0.23,-0.12 -0.32,-0.2 -0.41,-0.35 -0.55,-0.73 -0.58,-0.47 -0.04,0.36 -0.1,0.71 -0.17,1.07 -0.12,0.63 -0.28,1.25 -0.52,1.84 -0.06,0.15 -0.12,0.3 -0.2,0.43 -0.07,0.14 -0.17,0.26 -0.3,0.34 -0.13,0.07 -0.28,0.08 -0.41,0 -0.41,-0.26 -0.26,-1.21 -0.12,-1.59z"/>
   <path class="fil8" d="M9.34 7.19l0 0c0.43,0.21 0.62,0.75 0.4,1.18l-1.05 1.95c-0.23,0.42 -0.69,0.39 -1.18,0.39l0 0c-0.48,0 -0.62,-0.75 -0.39,-1.17l1.04 -1.95c0.23,-0.43 0.75,-0.61 1.18,-0.4z"/>
   <path class="fil9" d="M7.92 9c-0.05,-0.13 -0.11,-0.26 -0.16,-0.39 -0.09,-0.25 -0.19,-0.49 -0.31,-0.72 -0.11,-0.22 -0.24,-0.44 -0.35,-0.66 -0.12,-0.21 -0.24,-0.44 -0.33,-0.67 -0.04,-0.1 -0.08,-0.22 -0.16,-0.3 -0.06,-0.05 -0.44,-0.41 -0.53,-0.43 -0.18,-0.04 -0.36,0.01 -0.53,-0.03 -0.08,-0.01 -0.15,-0.05 -0.21,-0.1 -0.06,-0.05 -0.11,-0.12 -0.16,-0.19 -0.04,-0.04 -0.09,-0.01 -0.11,0.03 -0.02,0.04 -0.02,0.08 -0.02,0.12 0.02,0.08 0.07,0.17 0.12,0.23 0.1,0.12 0.23,0.21 0.37,0.24 0.03,0 0.04,0.03 0.02,0.05 0,0.01 -0.01,0.01 -0.01,0.02 0,0.01 -0.01,0.01 -0.02,0.02 -0.17,0.13 -0.36,0.26 -0.54,0.39 -0.22,0.14 -0.45,0.27 -0.66,0.43 -0.05,0.03 -0.19,0.13 -0.17,0.2 0.06,0.18 0.74,-0.38 0.9,-0.41l0.07 0.04c-0.18,0.12 -0.45,0.27 -0.65,0.42 -0.04,0.03 -0.07,0.06 -0.11,0.09 -0.04,0.03 -0.09,0.08 -0.08,0.13 0,0.03 0.02,0.05 0.04,0.06 0.04,0.01 0.08,0 0.11,-0.02 0.16,-0.12 0.67,-0.48 0.84,-0.59l0.09 0.05c-0.01,0 -0.01,0 -0.01,0 -0.19,0.17 -0.41,0.29 -0.62,0.41 -0.06,0.04 -0.12,0.07 -0.18,0.11 -0.02,0.02 -0.04,0.04 -0.07,0.06 -0.02,0.02 -0.06,0.05 -0.07,0.08 -0.01,0.05 0.17,0 0.19,-0.01 0.01,0 0.56,-0.27 0.61,-0.29 0.05,-0.03 0.1,-0.06 0.14,-0.1 0.08,-0.08 0.16,-0.17 0.22,-0.27 0.02,-0.03 0.08,0 0.06,0.04 -0.05,0.08 -0.11,0.15 -0.18,0.22 -0.06,0.07 -0.13,0.13 -0.21,0.17 -0.05,0.02 -0.09,0.03 -0.14,0.04 -0.05,0 -0.1,-0.01 -0.15,-0.01 -0.03,0 -0.1,0.01 -0.12,0.04 -0.02,0.03 0.01,0.05 0.04,0.06 0.14,0.04 0.28,0.07 0.42,0.03 0.12,-0.04 0.22,-0.12 0.31,-0.2 0.41,-0.36 0.55,-0.74 0.58,-0.47 0.04,0.36 0.1,0.71 0.17,1.06 0.12,0.63 0.29,1.26 0.53,1.85 0.05,0.15 0.12,0.29 0.19,0.43 0.08,0.13 0.17,0.26 0.31,0.33 0.13,0.07 0.28,0.09 0.4,0.01 0.42,-0.26 0.27,-1.22 0.13,-1.6z"/>
   <g>
    <g>
     <path class="fil10" d="M6.15 3.63c-0.01,0.01 -0.01,0.02 -0.02,0.03 0.04,0 0.07,0 0.11,0 -0.02,-0.01 -0.01,0 0,0 -0.01,-0.02 -0.03,-0.03 -0.04,-0.04 -0.01,0 -0.01,0 -0.02,-0.01 0.01,0.01 0,0 0,0 0,0.01 0,-0.01 0,-0.01 -0.01,-0.01 -0.01,-0.01 -0.02,-0.02 0,-0.01 0,-0.01 -0.01,-0.02 -0.01,-0.03 0,0.01 0,-0.02 -0.01,0 -0.01,-0.01 -0.01,-0.02 0.01,0.02 0,0.01 0,0 0,-0.01 0,-0.03 0,-0.04 0,-0.03 0,-0.01 0,0 0,-0.01 0,-0.02 0.01,-0.02 0,-0.01 0,-0.02 0,-0.03 0,0 0.02,-0.03 0,-0.01 0.01,-0.01 0.02,-0.02 0.03,-0.04 0,0 0.02,-0.04 0.01,-0.02 0.01,-0.01 0.02,-0.02 0.03,-0.03 0.01,-0.01 0.01,-0.01 0.02,-0.01 -0.02,0.01 -0.01,0 0,-0.01 0.01,0 0.05,-0.02 0.03,-0.01 0.01,-0.01 0.02,-0.01 0.04,-0.02 0,0 0.02,0 0,0 0.01,0 0.02,0 0.03,0 0.01,0 0.02,0 0.03,0 0,0 0.03,0 0.02,0 0.01,0 0.06,0.02 0.08,0.02 0.02,0.01 0.06,0.04 0.09,0.06 0.05,0.03 0.1,0.09 0.14,0.14 0.09,0.12 0.16,0.26 0.18,0.41 0,0.04 0,0.08 0,0.11 0,0.03 -0.01,0.06 -0.02,0.09 -0.01,0.04 -0.04,0.12 -0.08,0.14 -0.07,0.02 -0.09,0.11 -0.02,0.15 0.15,0.09 0.27,0.2 0.38,0.34 0.03,0.04 0.09,0.03 0.13,0.01 0.04,-0.03 0.05,-0.08 0.02,-0.13 -0.02,-0.04 -0.07,-0.06 -0.12,-0.06 -0.05,0 -0.07,0.05 -0.05,0.09 0,-0.03 0,-0.03 0,-0.01 -0.01,0.01 -0.01,0.02 -0.01,0.03 0.06,-0.02 0.11,-0.04 0.17,-0.07 -0.12,-0.14 -0.27,-0.26 -0.44,-0.35 0,0.06 -0.01,0.11 -0.02,0.16 0.09,-0.04 0.17,-0.08 0.21,-0.17 0.05,-0.08 0.07,-0.17 0.07,-0.26 0,-0.21 -0.08,-0.43 -0.2,-0.6 -0.12,-0.18 -0.3,-0.33 -0.52,-0.35 -0.21,-0.02 -0.4,0.12 -0.47,0.31 -0.04,0.11 -0.04,0.23 0.01,0.33 0.06,0.11 0.24,0.21 0.33,0.08 0.02,-0.03 0.01,-0.07 -0.01,-0.09 -0.01,-0.01 -0.01,-0.01 -0.01,-0.02 -0.02,-0.03 -0.06,-0.05 -0.08,-0.01z"/>
    </g>
    <g>
     <path class="fil10" d="M7.42 5c0,0 0,0.01 0,0.01 0,0.01 0,0.03 0,0.04 0.01,0.02 0.02,0.03 0.03,0.05 0.01,0.01 0.02,0.02 0.03,0.03 0.01,0 0.02,0.01 0.03,0.01 0.02,0.01 0.04,0.01 0.06,0.01 0.01,-0.01 0.02,-0.01 0.03,-0.01 0.01,-0.01 0.03,-0.02 0.04,-0.03 0.01,-0.01 0.01,-0.02 0.02,-0.03 0.01,-0.02 0.02,-0.04 0.02,-0.06 0,0 0,0 0,-0.01 0,0.02 0,0.03 -0.01,0.04 0,-0.01 0.01,-0.01 0.01,-0.01 -0.01,0.01 -0.01,0.02 -0.02,0.03 0,0 0,0 0,0 0.02,-0.02 0.02,-0.05 0.02,-0.07 0,-0.02 0,-0.05 -0.02,-0.07 0,-0.01 -0.01,-0.01 -0.02,-0.02 -0.01,-0.02 -0.03,-0.03 -0.05,-0.04 -0.02,0 -0.04,0 -0.06,0 -0.01,0 -0.03,0.01 -0.05,0.02 -0.02,0.01 -0.03,0.02 -0.04,0.04 -0.02,0.02 -0.02,0.05 -0.02,0.07z"/>
    </g>
   </g>
   <g>
    <g>
     <path class="fil10" d="M16.69 3.53c0,0.02 0.01,0.02 0.02,0.03 -0.04,0 -0.07,0 -0.11,0 0.01,-0.01 0,0 0,0 0.01,-0.01 0.02,-0.02 0.04,-0.03 0,-0.01 0.01,-0.01 0.02,-0.01 -0.02,0.01 0,-0.01 0,-0.01 -0.01,0.01 0,0 0,-0.01 0,0 0.01,-0.01 0.01,-0.02 0.01,0 0.01,-0.01 0.02,-0.02 0.01,-0.02 0,0.02 0,-0.01 0,-0.01 0,-0.02 0.01,-0.03 -0.01,0.03 0,0.01 0,0 0,-0.01 0,-0.02 0,-0.04 0,-0.03 0,0 0,0 0,-0.01 -0.01,-0.01 -0.01,-0.02 0,-0.01 0,-0.02 0,-0.02 -0.01,-0.01 -0.02,-0.04 -0.01,-0.01 0,-0.02 -0.01,-0.03 -0.02,-0.04 0,-0.01 -0.03,-0.04 -0.01,-0.02 -0.01,-0.02 -0.02,-0.03 -0.03,-0.04 -0.01,0 -0.01,-0.01 -0.02,-0.01 0.02,0.01 0,0 0,0 -0.01,-0.01 -0.05,-0.03 -0.03,-0.02 -0.01,-0.01 -0.03,-0.01 -0.04,-0.01 -0.01,0 -0.03,-0.01 -0.01,0 -0.01,-0.01 -0.01,-0.01 -0.02,-0.01 -0.01,0 -0.02,0 -0.03,0 0,0 -0.03,0.01 -0.02,0 -0.01,0.01 -0.07,0.02 -0.08,0.03 -0.02,0.01 -0.06,0.03 -0.09,0.05 -0.05,0.03 -0.11,0.09 -0.14,0.14 -0.1,0.12 -0.16,0.27 -0.18,0.42 -0.01,0.03 -0.01,0.07 0,0.11 0,0.02 0,0.05 0.01,0.09 0.02,0.04 0.05,0.11 0.09,0.13 0.06,0.03 0.09,0.11 0.02,0.15 -0.15,0.09 -0.28,0.21 -0.38,0.34 -0.03,0.04 -0.1,0.04 -0.13,0.01 -0.04,-0.03 -0.05,-0.08 -0.03,-0.12 0.03,-0.05 0.08,-0.07 0.13,-0.07 0.05,0 0.07,0.05 0.05,0.09 0,-0.02 0,-0.03 0,-0.01 0.01,0.01 0.01,0.02 0.01,0.03 -0.06,-0.02 -0.11,-0.04 -0.17,-0.06 0.12,-0.15 0.27,-0.27 0.43,-0.35 0.01,0.05 0.02,0.1 0.02,0.15 -0.09,-0.03 -0.16,-0.08 -0.21,-0.17 -0.04,-0.08 -0.06,-0.17 -0.06,-0.26 0,-0.21 0.08,-0.43 0.2,-0.6 0.12,-0.17 0.3,-0.33 0.52,-0.35 0.21,-0.02 0.4,0.12 0.47,0.31 0.04,0.11 0.04,0.23 -0.01,0.33 -0.06,0.12 -0.24,0.21 -0.33,0.08 -0.02,-0.03 -0.01,-0.07 0.01,-0.09 0.01,0 0.01,-0.01 0.01,-0.02 0.01,-0.03 0.06,-0.04 0.08,-0.01z"/>
    </g>
    <g>
     <path class="fil10" d="M15.42 4.9c0,0.01 0,0.01 0,0.01 0,0.02 0,0.03 -0.01,0.05 0,0.01 -0.01,0.03 -0.02,0.04 -0.01,0.01 -0.02,0.03 -0.04,0.03 -0.01,0.01 -0.02,0.01 -0.03,0.02 -0.01,0 -0.03,0 -0.05,0 -0.01,0 -0.02,0 -0.03,-0.01 -0.02,-0.01 -0.03,-0.01 -0.04,-0.03 -0.01,-0.01 -0.02,-0.01 -0.02,-0.02 -0.01,-0.02 -0.02,-0.04 -0.02,-0.07 0,0 0,0 0,0 0,0.01 0,0.02 0,0.03 0,0 0,-0.01 0,-0.01 0,0.01 0.01,0.02 0.01,0.03 0,0 0,0 0,0 -0.01,-0.02 -0.01,-0.04 -0.01,-0.07 0,-0.02 0,-0.04 0.01,-0.06 0.01,-0.01 0.02,-0.02 0.02,-0.03 0.02,-0.02 0.04,-0.03 0.06,-0.03 0.02,-0.01 0.04,-0.01 0.05,-0.01 0.02,0 0.04,0.01 0.05,0.02 0.02,0.01 0.04,0.03 0.05,0.05 0.01,0.02 0.02,0.04 0.02,0.06z"/>
    </g>
   </g>
   <path class="fil11" d="M12.61 6.51c0.04,0.11 0.06,0.23 0.06,0.36 0,0.57 -0.46,1.03 -1.03,1.03 -0.57,0 -1.03,-0.46 -1.03,-1.03 0,-0.13 0.02,-0.25 0.07,-0.36l1.93 0z"/>
   <ellipse class="fil6" cx="11.64" cy="3.59" rx="2.6" ry="1.88"/>
   <path class="fil4" d="M11.64 2.91c0.13,0 1.65,0.88 1.71,0.99 0.07,0.12 -0.16,1.86 -0.23,1.98 -0.16,0.28 -0.57,0.72 -0.86,0.88 -0.28,0.17 -0.29,0.49 -0.62,0.49 -0.33,0 -0.34,-0.32 -0.62,-0.49 -0.29,-0.16 -0.69,-0.6 -0.86,-0.88 -0.06,-0.12 -0.3,-1.86 -0.23,-1.98 0.07,-0.11 1.58,-0.99 1.71,-0.99z"/>
   <ellipse class="fil6" cx="11.64" cy="3.17" rx="2.44" ry="1.12"/>
   <g>
    <g>
     <g>
      <circle class="fil6" cx="11.09" cy="5.12" r="0.17"/>
      <circle class="fil12" cx="11.02" cy="5.08" r="0.05"/>
     </g>
     <path class="fil6" d="M11.09 4.73c0.23,0 0.41,0.06 0.45,0.14 -0.05,-0.07 -0.24,-0.11 -0.46,-0.08 -0.2,0.02 -0.36,0.09 -0.42,0.16 -0.02,-0.02 -0.03,-0.04 -0.03,-0.06 0,-0.09 0.21,-0.16 0.46,-0.16z"/>
    </g>
    <g>
     <g>
      <circle class="fil6" cx="12.2" cy="5.12" r="0.17"/>
      <circle class="fil12" cx="12.14" cy="5.08" r="0.05"/>
     </g>
     <path class="fil6" d="M12.19 4.74c-0.22,0 -0.41,0.06 -0.45,0.13 0.05,-0.06 0.24,-0.1 0.47,-0.07 0.19,0.02 0.35,0.09 0.41,0.16 0.02,-0.02 0.03,-0.04 0.03,-0.06 0,-0.09 -0.2,-0.16 -0.46,-0.16z"/>
    </g>
   </g>
   <path class="fil6" d="M10.05 3.71l0 0c0.09,0 0.16,0.08 0.16,0.17l0 1.29c0,0.09 -0.07,0.17 -0.16,0.17l0 0c-0.1,0 -0.17,-0.08 -0.17,-0.17l0 -1.29c0,-0.09 0.07,-0.17 0.17,-0.17z"/>
   <path class="fil6" d="M13.24 3.71l0 0c0.09,0 0.16,0.08 0.16,0.17l0 1.29c0,0.09 -0.07,0.17 -0.16,0.17l0 0c-0.1,0 -0.17,-0.08 -0.17,-0.17l0 -1.29c0,-0.09 0.07,-0.17 0.17,-0.17z"/>
   <path class="fil12" d="M11.65 5.82l0.43 0c0,0.24 -0.19,0.42 -0.43,0.42 -0.19,0 -0.37,-0.13 -0.41,-0.33l0.41 -0.09z"/>
   <path class="fil6" d="M11.69 5.78c0.31,0 0.57,0.07 0.61,0.17 -0.14,-0.21 -1.06,0.1 -1.19,0.11 -0.02,-0.02 -0.04,-0.04 -0.04,-0.07 0,-0.12 0.28,-0.21 0.62,-0.21z"/>
   <circle class="fil12" cx="11.55" cy="8.5" r="0.1"/>
   <circle class="fil12" cx="11.48" cy="9.42" r="0.1"/>
   <circle class="fil12" cx="11.41" cy="10.34" r="0.1"/>
   <circle class="fil12" cx="11.34" cy="11.26" r="0.1"/>
   <circle class="fil12" cx="11.28" cy="12.19" r="0.1"/>
   <rect class="fil8" x="12.54" y="9.22" width="1.2" height="1.43"/>
   <rect class="fil1 str1" x="12.67" y="9.37" width="0.94" height="1.11"/>
   <polygon class="fil8 str1" points="12.67,9.37 13.61,9.37 13.33,9.59 12.95,9.59 "/>
   <circle class="fil12" cx="11.23" cy="13.11" r="0.08"/>
   <circle class="fil12" cx="11.21" cy="14.03" r="0.08"/>
   <line class="fil1 str2" x1="9.37" y1="15.24" x2="8.97" y2= "16.29" />
   <line class="fil1 str2" x1="13.87" y1="15.24" x2="14.27" y2= "16.29" />
   <path class="fil1 str2" d="M12.88 19.45c0.34,0.28 0.6,0.19 0.82,-0.09"/>
   <path class="fil1 str2" d="M9.52 19.29c0.47,0.4 0.82,0.27 1.12,-0.11"/>
  </g>
 </g>
</svg>
