<svg width="95" height="67" viewBox="0 0 95 67" fill="none" xmlns="http://www.w3.org/2000/svg">
<path d="M48.36 32.43L92.12 29.6L92 27.56L84.59 28.04L82.79 0.160004L55.15 1.95L56.95 29.82L25.21 31.87L24.03 13.6L6.81001 14.71L7.99 32.98L0.880005 33.48L1 35.48L45.86 32.59V34.23L40 40.09V54.79H54.23V40.14L48.36 34.27V32.43ZM80.91 2.28L82.59 28.16L58.95 29.71L57.27 3.83L80.91 2.28ZM9.99 32.86L8.93001 16.59L22.15 15.72L23.21 31.99L9.99 32.86ZM52.23 41.01V52.79H42V40.92L47.08 35.83L52.23 41.01Z" fill="black"/>
<path d="M19.77 25.91C19.8 26.35 19.74 26.79 19.6 27.2C19.46 27.58 19.23 27.92 18.94 28.2C18.61 28.51 18.22 28.76 17.8 28.92C17.56 29.01 17.3 29.08 17.05 29.14L17.14 30.44L15.56 30.55L15.47 29.25C14.98 29.23 14.49 29.13 14.03 28.95C13.44 28.72 12.91 28.38 12.45 27.95L13.74 26.46C14.39 27.13 15.31 27.48 16.24 27.41C16.65 27.42 17.05 27.28 17.37 27.03C17.6 26.81 17.72 26.49 17.69 26.17C17.68 25.93 17.59 25.7 17.43 25.52C17.16 25.32 16.84 25.21 16.5 25.21H15.5C14.66 25.21 13.85 24.93 13.19 24.42C12.66 23.91 12.36 23.2 12.37 22.46C12.33 22.05 12.39 21.64 12.54 21.26C12.68 20.88 12.9 20.54 13.19 20.26C13.51 19.97 13.88 19.73 14.29 19.58C14.46 19.51 14.64 19.46 14.82 19.42L14.74 18.13L16.31 18.03L16.37 19.3C16.83 19.3 17.28 19.38 17.72 19.52C18.28 19.71 18.79 20.03 19.21 20.45L17.95 21.98C17.7 21.73 17.4 21.53 17.07 21.39C16.67 21.23 16.24 21.17 15.81 21.21C15.45 21.21 15.1 21.33 14.81 21.53C14.6 21.7 14.49 21.97 14.52 22.24C14.51 22.5 14.62 22.76 14.82 22.93C15.09 23.09 15.4 23.18 15.72 23.18L16.72 23.28C17.54 23.3 18.32 23.58 18.98 24.06C19.49 24.54 19.77 25.21 19.77 25.91Z" fill="black"/>
<path d="M73.7499 15.8C72.8599 15.15 71.7999 14.77 70.6999 14.71L69.4499 14.56C68.9399 14.54 68.4499 14.39 68.0199 14.13C67.3999 13.54 67.3699 12.56 67.9599 11.94C67.9799 11.92 67.9999 11.9 68.0199 11.88C68.4899 11.54 69.0499 11.37 69.6199 11.37C70.2299 11.31 70.8399 11.4 71.4099 11.63C71.8799 11.84 72.3099 12.15 72.6599 12.53L74.2399 10.81C73.6899 10.21 72.9999 9.75001 72.2399 9.47001C71.5999 9.24001 70.9199 9.12 70.2399 9.13L70.1299 7.42001L68.2399 7.54001L68.3499 9.32001C68.0799 9.37001 67.8099 9.45001 67.5499 9.55C67.0099 9.75001 66.5099 10.04 66.0899 10.43C65.7199 10.79 65.4199 11.23 65.2399 11.71C65.0499 12.23 64.9699 12.79 65.0199 13.34C65.1699 15.51 66.5699 16.71 69.2399 16.96L70.4999 17.06C71.0299 17.07 71.5399 17.25 71.9599 17.57C72.2299 17.84 72.3899 18.19 72.4099 18.57C72.4699 19.08 72.2799 19.59 71.9099 19.95C71.4299 20.35 70.8199 20.57 70.1899 20.56C69.5499 20.61 68.8999 20.51 68.2999 20.27C67.6999 20.01 67.1599 19.64 66.6999 19.17L65.1199 20.91C65.7199 21.55 66.4399 22.06 67.2399 22.42C67.8799 22.68 68.5499 22.83 69.2399 22.85L69.3599 24.58L71.2399 24.46L71.1299 22.71C71.5099 22.65 71.8799 22.54 72.2399 22.4C72.7999 22.17 73.3099 21.83 73.7399 21.4C74.1299 21.01 74.4299 20.53 74.6199 20.01C74.8099 19.45 74.8899 18.86 74.8399 18.27C74.8299 17.33 74.4299 16.43 73.7499 15.8Z" fill="black"/>
<path d="M89.96 61.59C89.38 62.17 88.76 62.7 88.1 63.19C87.46 63.66 86.79 64.08 86.1 64.45C85.64 64.7 85.17 64.92 84.68 65.11C83.48 65.59 82.22 65.93 80.94 66.11C79.41 66.33 77.87 66.33 76.34 66.11C75.06 65.93 73.8 65.59 72.6 65.11C72.11 64.92 71.64 64.7 71.18 64.45C70.49 64.08 69.82 63.66 69.18 63.19C68.52 62.71 67.9 62.17 67.32 61.59C61.05 55.36 61.02 45.23 67.25 38.96C67.27 38.94 67.3 38.91 67.32 38.89C67.9 38.31 68.52 37.77 69.18 37.29C69.61 36.98 70.05 36.69 70.51 36.41L70.96 36.16C71.72 35.74 72.52 35.38 73.35 35.09C74.05 34.84 74.77 34.63 75.5 34.48C76.01 34.39 76.5 34.31 77.03 34.26C77.56 34.21 78.03 34.19 78.57 34.19C79.11 34.19 79.57 34.19 80.11 34.26C80.65 34.33 81.11 34.39 81.64 34.48C82.4 34.63 83.15 34.83 83.88 35.09L84.4 35.29C85.2 35.6 85.98 35.97 86.72 36.41C87.18 36.68 87.63 36.98 88.06 37.29C88.72 37.78 89.34 38.31 89.92 38.89C96.2 45.11 96.25 55.24 90.03 61.52C90.01 61.54 89.98 61.57 89.96 61.59Z" fill="url(#paint0_linear)"/>
<path d="M79.85 57.29H77.35V59.79H79.85V57.29Z" fill="black"/>
<path d="M79.85 40.69H77.35V54.79H79.85V40.69Z" fill="black"/>
<path d="M36.99 52.79H34.99V54.79H36.99V52.79Z" fill="black"/>
<path d="M59.22 52.79H57.22V54.79H59.22V52.79Z" fill="black"/>
<path d="M32.49 52.79H30.49V54.79H32.49V52.79Z" fill="black"/>
<path d="M27.99 52.79H25.99V54.79H27.99V52.79Z" fill="black"/>
<path d="M23.49 52.79H21.49V54.79H23.49V52.79Z" fill="black"/>
<path d="M18.99 52.79H16.99V54.79H18.99V52.79Z" fill="black"/>
<path d="M14.49 52.79H12.49V54.79H14.49V52.79Z" fill="black"/>
<path d="M9.98999 52.79H7.98999V54.79H9.98999V52.79Z" fill="black"/>
<defs>
<linearGradient id="paint0_linear" x1="67.3049" y1="61.5752" x2="89.9551" y2="38.9248" gradientUnits="userSpaceOnUse">
<stop stop-color="#F0B90B"/>
<stop offset="0.2795" stop-color="#F1BC0F"/>
<stop offset="0.5691" stop-color="#F4C41C"/>
<stop offset="0.8624" stop-color="#F8D230"/>
<stop offset="0.9934" stop-color="#FBDA3C"/>
</linearGradient>
</defs>
</svg>
