<svg width="16" height="16" viewBox="0 0 16 16" fill="none" xmlns="http://www.w3.org/2000/svg">
<path d="M7.99997 3.90761C9.40426 3.90761 10.5427 3.24521 10.5427 2.42811C10.5427 1.611 9.40426 0.948608 7.99997 0.948608C6.59567 0.948608 5.45727 1.611 5.45727 2.42811C5.45727 3.24521 6.59567 3.90761 7.99997 3.90761Z" fill="#E6007A"/>
<path d="M7.99997 15.0513C9.40426 15.0513 10.5427 14.3889 10.5427 13.5718C10.5427 12.7547 9.40426 12.0923 7.99997 12.0923C6.59567 12.0923 5.45727 12.7547 5.45727 13.5718C5.45727 14.3889 6.59567 15.0513 7.99997 15.0513Z" fill="#E6007A"/>
<path d="M4.45598 5.95385C5.15813 4.7377 5.15368 3.42061 4.44604 3.01206C3.73841 2.60351 2.59556 3.2582 1.89341 4.47435C1.19126 5.6905 1.19571 7.00759 1.90334 7.41614C2.61098 7.82469 3.75383 7.17 4.45598 5.95385Z" fill="#E6007A"/>
<path d="M14.1066 11.5257C14.8087 10.3095 14.8043 8.99245 14.0967 8.5839C13.389 8.17534 12.2462 8.83003 11.544 10.0462C10.8419 11.2623 10.8463 12.5794 11.554 12.988C12.2616 13.3965 13.4044 12.7418 14.1066 11.5257Z" fill="#E6007A"/>
<path d="M4.44604 12.9879C5.15367 12.5793 5.15812 11.2622 4.45597 10.0461C3.75383 8.82994 2.61097 8.17524 1.90334 8.5838C1.19571 8.99235 1.19126 10.3094 1.8934 11.5256C2.59555 12.7417 3.7384 13.3964 4.44604 12.9879Z" fill="#E6007A"/>
<path d="M14.0966 7.41617C14.8042 7.00761 14.8087 5.69053 14.1065 4.47437C13.4044 3.25822 12.2615 2.60353 11.5539 3.01208C10.8463 3.42063 10.8418 4.73772 11.544 5.95387C12.2461 7.17003 13.389 7.82472 14.0966 7.41617Z" fill="#E6007A"/>
</svg>
