<svg xmlns="http://www.w3.org/2000/svg" version="1.1" xmlns:xlink="http://www.w3.org/1999/xlink" xmlns:svgjs="http://svgjs.com/svgjs" width="1920" height="600" preserveAspectRatio="none" viewBox="0 0 1920 600"><g mask="url(&quot;#SvgjsMask1060&quot;)" fill="none"><rect width="1920" height="600" x="0" y="0" fill="rgba(38, 54, 116, 1)"></rect><path d="M-97.96 509L-97.96 509" stroke="rgba(245, 219, 140, 1)" stroke-width="1.5"></path><path d="M-97.96 509L45.77 559.93" stroke="rgba(245, 219, 140, 1)" stroke-width="1.5"></path><path d="M-97.96 509L-94.54 675.71" stroke="rgba(245, 219, 140, 1)" stroke-width="1.5"></path><path d="M-97.96 509L56.28 395.11" stroke="rgba(245, 219, 140, 1)" stroke-width="1.5"></path><path d="M-97.96 509L43.59 686.59" stroke="rgba(245, 219, 140, 1)" stroke-width="1.5"></path><path d="M-97.96 509L216.52 520.85" stroke="rgba(245, 219, 140, 1)" stroke-width="1.5"></path><path d="M-97.96 509L189.3 666.6" stroke="rgba(245, 219, 140, 1)" stroke-width="1.5"></path><path d="M-94.54 675.71L-94.54 675.71" stroke="rgba(245, 219, 140, 1)" stroke-width="1.5"></path><path d="M-94.54 675.71L43.59 686.59" stroke="rgba(245, 219, 140, 1)" stroke-width="1.5"></path><path d="M56.28 395.11L56.28 395.11" stroke="rgba(245, 219, 140, 1)" stroke-width="1.5"></path><path d="M56.28 395.11L45.77 559.93" stroke="rgba(245, 219, 140, 1)" stroke-width="1.5"></path><path d="M45.77 559.93L45.77 559.93" stroke="rgba(245, 219, 140, 1)" stroke-width="1.5"></path><path d="M45.77 559.93L43.59 686.59" stroke="rgba(245, 219, 140, 1)" stroke-width="1.5"></path><path d="M45.77 559.93L216.52 520.85" stroke="rgba(245, 219, 140, 1)" stroke-width="1.5"></path><path d="M43.59 686.59L43.59 686.59" stroke="rgba(245, 219, 140, 1)" stroke-width="1.5"></path><path d="M43.59 686.59L189.3 666.6" stroke="rgba(245, 219, 140, 1)" stroke-width="1.5"></path><path d="M216.52 520.85L216.52 520.85" stroke="rgba(245, 219, 140, 1)" stroke-width="1.5"></path><path d="M216.52 520.85L349.86 547.9" stroke="rgba(245, 219, 140, 1)" stroke-width="1.5"></path><path d="M216.52 520.85L189.3 666.6" stroke="rgba(245, 219, 140, 1)" stroke-width="1.5"></path><path d="M189.3 666.6L189.3 666.6" stroke="rgba(245, 219, 140, 1)" stroke-width="1.5"></path><path d="M189.3 666.6L45.77 559.93" stroke="rgba(245, 219, 140, 1)" stroke-width="1.5"></path><path d="M189.3 666.6L349.86 547.9" stroke="rgba(245, 219, 140, 1)" stroke-width="1.5"></path><path d="M189.3 666.6L393.95 681.21" stroke="rgba(245, 219, 140, 1)" stroke-width="1.5"></path><path d="M189.3 666.6L-94.54 675.71" stroke="rgba(245, 219, 140, 1)" stroke-width="1.5"></path><path d="M408.1 412.09L408.1 412.09" stroke="rgba(245, 219, 140, 1)" stroke-width="1.5"></path><path d="M408.1 412.09L511.53 354.53" stroke="rgba(245, 219, 140, 1)" stroke-width="1.5"></path><path d="M408.1 412.09L349.86 547.9" stroke="rgba(245, 219, 140, 1)" stroke-width="1.5"></path><path d="M349.86 547.9L349.86 547.9" stroke="rgba(245, 219, 140, 1)" stroke-width="1.5"></path><path d="M349.86 547.9L393.95 681.21" stroke="rgba(245, 219, 140, 1)" stroke-width="1.5"></path><path d="M349.86 547.9L509.14 522" stroke="rgba(245, 219, 140, 1)" stroke-width="1.5"></path><path d="M393.95 681.21L393.95 681.21" stroke="rgba(245, 219, 140, 1)" stroke-width="1.5"></path><path d="M393.95 681.21L506.92 681.05" stroke="rgba(245, 219, 140, 1)" stroke-width="1.5"></path><path d="M393.95 681.21L509.14 522" stroke="rgba(245, 219, 140, 1)" stroke-width="1.5"></path><path d="M393.95 681.21L216.52 520.85" stroke="rgba(245, 219, 140, 1)" stroke-width="1.5"></path><path d="M511.53 354.53L511.53 354.53" stroke="rgba(245, 219, 140, 1)" stroke-width="1.5"></path><path d="M511.53 354.53L509.14 522" stroke="rgba(245, 219, 140, 1)" stroke-width="1.5"></path><path d="M511.53 354.53L705.17 399.35" stroke="rgba(245, 219, 140, 1)" stroke-width="1.5"></path><path d="M511.53 354.53L708.74 493.93" stroke="rgba(245, 219, 140, 1)" stroke-width="1.5"></path><path d="M511.53 354.53L349.86 547.9" stroke="rgba(245, 219, 140, 1)" stroke-width="1.5"></path><path d="M511.53 354.53L798 398.17" stroke="rgba(245, 219, 140, 1)" stroke-width="1.5"></path><path d="M509.14 522L509.14 522" stroke="rgba(245, 219, 140, 1)" stroke-width="1.5"></path><path d="M509.14 522L408.1 412.09" stroke="rgba(245, 219, 140, 1)" stroke-width="1.5"></path><path d="M509.14 522L506.92 681.05" stroke="rgba(245, 219, 140, 1)" stroke-width="1.5"></path><path d="M506.92 681.05L506.92 681.05" stroke="rgba(245, 219, 140, 1)" stroke-width="1.5"></path><path d="M506.92 681.05L698.46 659.98" stroke="rgba(245, 219, 140, 1)" stroke-width="1.5"></path><path d="M506.92 681.05L349.86 547.9" stroke="rgba(245, 219, 140, 1)" stroke-width="1.5"></path><path d="M506.92 681.05L708.74 493.93" stroke="rgba(245, 219, 140, 1)" stroke-width="1.5"></path><path d="M506.92 681.05L408.1 412.09" stroke="rgba(245, 219, 140, 1)" stroke-width="1.5"></path><path d="M705.17 399.35L705.17 399.35" stroke="rgba(245, 219, 140, 1)" stroke-width="1.5"></path><path d="M705.17 399.35L798 398.17" stroke="rgba(245, 219, 140, 1)" stroke-width="1.5"></path><path d="M705.17 399.35L708.74 493.93" stroke="rgba(245, 219, 140, 1)" stroke-width="1.5"></path><path d="M705.17 399.35L836.95 527.32" stroke="rgba(245, 219, 140, 1)" stroke-width="1.5"></path><path d="M705.17 399.35L837.53 255.48" stroke="rgba(245, 219, 140, 1)" stroke-width="1.5"></path><path d="M708.74 493.93L708.74 493.93" stroke="rgba(245, 219, 140, 1)" stroke-width="1.5"></path><path d="M698.46 659.98L698.46 659.98" stroke="rgba(245, 219, 140, 1)" stroke-width="1.5"></path><path d="M698.46 659.98L845.42 641.74" stroke="rgba(245, 219, 140, 1)" stroke-width="1.5"></path><path d="M698.46 659.98L708.74 493.93" stroke="rgba(245, 219, 140, 1)" stroke-width="1.5"></path><path d="M698.46 659.98L836.95 527.32" stroke="rgba(245, 219, 140, 1)" stroke-width="1.5"></path><path d="M837.53 255.48L837.53 255.48" stroke="rgba(245, 219, 140, 1)" stroke-width="1.5"></path><path d="M837.53 255.48L798 398.17" stroke="rgba(245, 219, 140, 1)" stroke-width="1.5"></path><path d="M837.53 255.48L995.21 258.66" stroke="rgba(245, 219, 140, 1)" stroke-width="1.5"></path><path d="M837.53 255.48L991.69 352.88" stroke="rgba(245, 219, 140, 1)" stroke-width="1.5"></path><path d="M798 398.17L798 398.17" stroke="rgba(245, 219, 140, 1)" stroke-width="1.5"></path><path d="M798 398.17L708.74 493.93" stroke="rgba(245, 219, 140, 1)" stroke-width="1.5"></path><path d="M798 398.17L836.95 527.32" stroke="rgba(245, 219, 140, 1)" stroke-width="1.5"></path><path d="M798 398.17L991.69 352.88" stroke="rgba(245, 219, 140, 1)" stroke-width="1.5"></path><path d="M836.95 527.32L836.95 527.32" stroke="rgba(245, 219, 140, 1)" stroke-width="1.5"></path><path d="M836.95 527.32L845.42 641.74" stroke="rgba(245, 219, 140, 1)" stroke-width="1.5"></path><path d="M836.95 527.32L708.74 493.93" stroke="rgba(245, 219, 140, 1)" stroke-width="1.5"></path><path d="M836.95 527.32L1007.42 543.02" stroke="rgba(245, 219, 140, 1)" stroke-width="1.5"></path><path d="M845.42 641.74L845.42 641.74" stroke="rgba(245, 219, 140, 1)" stroke-width="1.5"></path><path d="M845.42 641.74L942.22 709.5" stroke="rgba(245, 219, 140, 1)" stroke-width="1.5"></path><path d="M845.42 641.74L1007.42 543.02" stroke="rgba(245, 219, 140, 1)" stroke-width="1.5"></path><path d="M995.21 258.66L995.21 258.66" stroke="rgba(245, 219, 140, 1)" stroke-width="1.5"></path><path d="M995.21 258.66L991.69 352.88" stroke="rgba(245, 219, 140, 1)" stroke-width="1.5"></path><path d="M995.21 258.66L1094.52 344.53" stroke="rgba(245, 219, 140, 1)" stroke-width="1.5"></path><path d="M995.21 258.66L1129.25 206.28" stroke="rgba(245, 219, 140, 1)" stroke-width="1.5"></path><path d="M991.69 352.88L991.69 352.88" stroke="rgba(245, 219, 140, 1)" stroke-width="1.5"></path><path d="M1007.42 543.02L1007.42 543.02" stroke="rgba(245, 219, 140, 1)" stroke-width="1.5"></path><path d="M1007.42 543.02L1087.88 539.78" stroke="rgba(245, 219, 140, 1)" stroke-width="1.5"></path><path d="M1007.42 543.02L942.22 709.5" stroke="rgba(245, 219, 140, 1)" stroke-width="1.5"></path><path d="M1007.42 543.02L991.69 352.88" stroke="rgba(245, 219, 140, 1)" stroke-width="1.5"></path><path d="M1007.42 543.02L1142.97 711.98" stroke="rgba(245, 219, 140, 1)" stroke-width="1.5"></path><path d="M942.22 709.5L942.22 709.5" stroke="rgba(245, 219, 140, 1)" stroke-width="1.5"></path><path d="M942.22 709.5L1142.97 711.98" stroke="rgba(245, 219, 140, 1)" stroke-width="1.5"></path><path d="M942.22 709.5L836.95 527.32" stroke="rgba(245, 219, 140, 1)" stroke-width="1.5"></path><path d="M1129.25 206.28L1129.25 206.28" stroke="rgba(245, 219, 140, 1)" stroke-width="1.5"></path><path d="M1129.25 206.28L1094.52 344.53" stroke="rgba(245, 219, 140, 1)" stroke-width="1.5"></path><path d="M1129.25 206.28L1278.56 192.57" stroke="rgba(245, 219, 140, 1)" stroke-width="1.5"></path><path d="M1129.25 206.28L1286.18 92.88" stroke="rgba(245, 219, 140, 1)" stroke-width="1.5"></path><path d="M1129.25 206.28L991.69 352.88" stroke="rgba(245, 219, 140, 1)" stroke-width="1.5"></path><path d="M1129.25 206.28L1303.58 374.31" stroke="rgba(245, 219, 140, 1)" stroke-width="1.5"></path><path d="M1094.52 344.53L1094.52 344.53" stroke="rgba(245, 219, 140, 1)" stroke-width="1.5"></path><path d="M1094.52 344.53L991.69 352.88" stroke="rgba(245, 219, 140, 1)" stroke-width="1.5"></path><path d="M1094.52 344.53L1087.88 539.78" stroke="rgba(245, 219, 140, 1)" stroke-width="1.5"></path><path d="M1094.52 344.53L1303.58 374.31" stroke="rgba(245, 219, 140, 1)" stroke-width="1.5"></path><path d="M1094.52 344.53L1007.42 543.02" stroke="rgba(245, 219, 140, 1)" stroke-width="1.5"></path><path d="M1087.88 539.78L1087.88 539.78" stroke="rgba(245, 219, 140, 1)" stroke-width="1.5"></path><path d="M1087.88 539.78L1260.98 528.01" stroke="rgba(245, 219, 140, 1)" stroke-width="1.5"></path><path d="M1087.88 539.78L1142.97 711.98" stroke="rgba(245, 219, 140, 1)" stroke-width="1.5"></path><path d="M1142.97 711.98L1142.97 711.98" stroke="rgba(245, 219, 140, 1)" stroke-width="1.5"></path><path d="M1142.97 711.98L1255.43 705.6" stroke="rgba(245, 219, 140, 1)" stroke-width="1.5"></path><path d="M1286.18 92.88L1286.18 92.88" stroke="rgba(245, 219, 140, 1)" stroke-width="1.5"></path><path d="M1286.18 92.88L1278.56 192.57" stroke="rgba(245, 219, 140, 1)" stroke-width="1.5"></path><path d="M1286.18 92.88L1388.09 212.37" stroke="rgba(245, 219, 140, 1)" stroke-width="1.5"></path><path d="M1286.18 92.88L1443.02 72.62" stroke="rgba(245, 219, 140, 1)" stroke-width="1.5"></path><path d="M1278.56 192.57L1278.56 192.57" stroke="rgba(245, 219, 140, 1)" stroke-width="1.5"></path><path d="M1278.56 192.57L1388.09 212.37" stroke="rgba(245, 219, 140, 1)" stroke-width="1.5"></path><path d="M1278.56 192.57L1303.58 374.31" stroke="rgba(245, 219, 140, 1)" stroke-width="1.5"></path><path d="M1278.56 192.57L1443.02 72.62" stroke="rgba(245, 219, 140, 1)" stroke-width="1.5"></path><path d="M1303.58 374.31L1303.58 374.31" stroke="rgba(245, 219, 140, 1)" stroke-width="1.5"></path><path d="M1303.58 374.31L1443.29 383.69" stroke="rgba(245, 219, 140, 1)" stroke-width="1.5"></path><path d="M1303.58 374.31L1260.98 528.01" stroke="rgba(245, 219, 140, 1)" stroke-width="1.5"></path><path d="M1303.58 374.31L1422.77 502.22" stroke="rgba(245, 219, 140, 1)" stroke-width="1.5"></path><path d="M1303.58 374.31L1388.09 212.37" stroke="rgba(245, 219, 140, 1)" stroke-width="1.5"></path><path d="M1260.98 528.01L1260.98 528.01" stroke="rgba(245, 219, 140, 1)" stroke-width="1.5"></path><path d="M1260.98 528.01L1422.77 502.22" stroke="rgba(245, 219, 140, 1)" stroke-width="1.5"></path><path d="M1260.98 528.01L1255.43 705.6" stroke="rgba(245, 219, 140, 1)" stroke-width="1.5"></path><path d="M1260.98 528.01L1142.97 711.98" stroke="rgba(245, 219, 140, 1)" stroke-width="1.5"></path><path d="M1255.43 705.6L1255.43 705.6" stroke="rgba(245, 219, 140, 1)" stroke-width="1.5"></path><path d="M1255.43 705.6L1460.41 650.67" stroke="rgba(245, 219, 140, 1)" stroke-width="1.5"></path><path d="M1255.43 705.6L1087.88 539.78" stroke="rgba(245, 219, 140, 1)" stroke-width="1.5"></path><path d="M1422.08 -65.68L1422.08 -65.68" stroke="rgba(245, 219, 140, 1)" stroke-width="1.5"></path><path d="M1422.08 -65.68L1553.21 -60.45" stroke="rgba(245, 219, 140, 1)" stroke-width="1.5"></path><path d="M1422.08 -65.68L1443.02 72.62" stroke="rgba(245, 219, 140, 1)" stroke-width="1.5"></path><path d="M1422.08 -65.68L1286.18 92.88" stroke="rgba(245, 219, 140, 1)" stroke-width="1.5"></path><path d="M1422.08 -65.68L1600.45 64.68" stroke="rgba(245, 219, 140, 1)" stroke-width="1.5"></path><path d="M1422.08 -65.68L1388.09 212.37" stroke="rgba(245, 219, 140, 1)" stroke-width="1.5"></path><path d="M1422.08 -65.68L1710.94 -84.37" stroke="rgba(245, 219, 140, 1)" stroke-width="1.5"></path><path d="M1443.02 72.62L1443.02 72.62" stroke="rgba(245, 219, 140, 1)" stroke-width="1.5"></path><path d="M1443.02 72.62L1388.09 212.37" stroke="rgba(245, 219, 140, 1)" stroke-width="1.5"></path><path d="M1388.09 212.37L1388.09 212.37" stroke="rgba(245, 219, 140, 1)" stroke-width="1.5"></path><path d="M1443.29 383.69L1443.29 383.69" stroke="rgba(245, 219, 140, 1)" stroke-width="1.5"></path><path d="M1443.29 383.69L1422.77 502.22" stroke="rgba(245, 219, 140, 1)" stroke-width="1.5"></path><path d="M1443.29 383.69L1548.32 525.94" stroke="rgba(245, 219, 140, 1)" stroke-width="1.5"></path><path d="M1443.29 383.69L1388.09 212.37" stroke="rgba(245, 219, 140, 1)" stroke-width="1.5"></path><path d="M1422.77 502.22L1422.77 502.22" stroke="rgba(245, 219, 140, 1)" stroke-width="1.5"></path><path d="M1422.77 502.22L1548.32 525.94" stroke="rgba(245, 219, 140, 1)" stroke-width="1.5"></path><path d="M1422.77 502.22L1460.41 650.67" stroke="rgba(245, 219, 140, 1)" stroke-width="1.5"></path><path d="M1460.41 650.67L1460.41 650.67" stroke="rgba(245, 219, 140, 1)" stroke-width="1.5"></path><path d="M1460.41 650.67L1600.16 699.56" stroke="rgba(245, 219, 140, 1)" stroke-width="1.5"></path><path d="M1460.41 650.67L1548.32 525.94" stroke="rgba(245, 219, 140, 1)" stroke-width="1.5"></path><path d="M1460.41 650.67L1260.98 528.01" stroke="rgba(245, 219, 140, 1)" stroke-width="1.5"></path><path d="M1460.41 650.67L1697.31 653.21" stroke="rgba(245, 219, 140, 1)" stroke-width="1.5"></path><path d="M1553.21 -60.45L1553.21 -60.45" stroke="rgba(245, 219, 140, 1)" stroke-width="1.5"></path><path d="M1553.21 -60.45L1600.45 64.68" stroke="rgba(245, 219, 140, 1)" stroke-width="1.5"></path><path d="M1600.45 64.68L1600.45 64.68" stroke="rgba(245, 219, 140, 1)" stroke-width="1.5"></path><path d="M1600.45 64.68L1738.17 63.98" stroke="rgba(245, 219, 140, 1)" stroke-width="1.5"></path><path d="M1600.45 64.68L1576.91 211.82" stroke="rgba(245, 219, 140, 1)" stroke-width="1.5"></path><path d="M1600.45 64.68L1443.02 72.62" stroke="rgba(245, 219, 140, 1)" stroke-width="1.5"></path><path d="M1576.91 211.82L1576.91 211.82" stroke="rgba(245, 219, 140, 1)" stroke-width="1.5"></path><path d="M1576.91 211.82L1747.4 226.05" stroke="rgba(245, 219, 140, 1)" stroke-width="1.5"></path><path d="M1576.91 211.82L1388.09 212.37" stroke="rgba(245, 219, 140, 1)" stroke-width="1.5"></path><path d="M1548.32 525.94L1548.32 525.94" stroke="rgba(245, 219, 140, 1)" stroke-width="1.5"></path><path d="M1600.16 699.56L1600.16 699.56" stroke="rgba(245, 219, 140, 1)" stroke-width="1.5"></path><path d="M1600.16 699.56L1697.31 653.21" stroke="rgba(245, 219, 140, 1)" stroke-width="1.5"></path><path d="M1600.16 699.56L1548.32 525.94" stroke="rgba(245, 219, 140, 1)" stroke-width="1.5"></path><path d="M1710.94 -84.37L1710.94 -84.37" stroke="rgba(245, 219, 140, 1)" stroke-width="1.5"></path><path d="M1710.94 -84.37L1856.34 -54.71" stroke="rgba(245, 219, 140, 1)" stroke-width="1.5"></path><path d="M1710.94 -84.37L1738.17 63.98" stroke="rgba(245, 219, 140, 1)" stroke-width="1.5"></path><path d="M1738.17 63.98L1738.17 63.98" stroke="rgba(245, 219, 140, 1)" stroke-width="1.5"></path><path d="M1738.17 63.98L1899.46 47.3" stroke="rgba(245, 219, 140, 1)" stroke-width="1.5"></path><path d="M1738.17 63.98L1747.4 226.05" stroke="rgba(245, 219, 140, 1)" stroke-width="1.5"></path><path d="M1738.17 63.98L1856.34 -54.71" stroke="rgba(245, 219, 140, 1)" stroke-width="1.5"></path><path d="M1747.4 226.05L1747.4 226.05" stroke="rgba(245, 219, 140, 1)" stroke-width="1.5"></path><path d="M1747.4 226.05L1871.52 245.14" stroke="rgba(245, 219, 140, 1)" stroke-width="1.5"></path><path d="M1747.4 226.05L1761.79 407.16" stroke="rgba(245, 219, 140, 1)" stroke-width="1.5"></path><path d="M1747.4 226.05L1600.45 64.68" stroke="rgba(245, 219, 140, 1)" stroke-width="1.5"></path><path d="M1761.79 407.16L1761.79 407.16" stroke="rgba(245, 219, 140, 1)" stroke-width="1.5"></path><path d="M1761.79 407.16L1723.32 490.13" stroke="rgba(245, 219, 140, 1)" stroke-width="1.5"></path><path d="M1761.79 407.16L1912.13 372.22" stroke="rgba(245, 219, 140, 1)" stroke-width="1.5"></path><path d="M1761.79 407.16L1845.41 537.07" stroke="rgba(245, 219, 140, 1)" stroke-width="1.5"></path><path d="M1761.79 407.16L1871.52 245.14" stroke="rgba(245, 219, 140, 1)" stroke-width="1.5"></path><path d="M1761.79 407.16L1548.32 525.94" stroke="rgba(245, 219, 140, 1)" stroke-width="1.5"></path><path d="M1723.32 490.13L1723.32 490.13" stroke="rgba(245, 219, 140, 1)" stroke-width="1.5"></path><path d="M1723.32 490.13L1845.41 537.07" stroke="rgba(245, 219, 140, 1)" stroke-width="1.5"></path><path d="M1723.32 490.13L1697.31 653.21" stroke="rgba(245, 219, 140, 1)" stroke-width="1.5"></path><path d="M1723.32 490.13L1548.32 525.94" stroke="rgba(245, 219, 140, 1)" stroke-width="1.5"></path><path d="M1697.31 653.21L1697.31 653.21" stroke="rgba(245, 219, 140, 1)" stroke-width="1.5"></path><path d="M1697.31 653.21L1845.41 537.07" stroke="rgba(245, 219, 140, 1)" stroke-width="1.5"></path><path d="M1697.31 653.21L1548.32 525.94" stroke="rgba(245, 219, 140, 1)" stroke-width="1.5"></path><path d="M1697.31 653.21L1908.97 648.7" stroke="rgba(245, 219, 140, 1)" stroke-width="1.5"></path><path d="M1856.34 -54.71L1856.34 -54.71" stroke="rgba(245, 219, 140, 1)" stroke-width="1.5"></path><path d="M1856.34 -54.71L1899.46 47.3" stroke="rgba(245, 219, 140, 1)" stroke-width="1.5"></path><path d="M1856.34 -54.71L1989.55 -43.94" stroke="rgba(245, 219, 140, 1)" stroke-width="1.5"></path><path d="M1856.34 -54.71L2032.84 87.45" stroke="rgba(245, 219, 140, 1)" stroke-width="1.5"></path><path d="M1856.34 -54.71L1600.45 64.68" stroke="rgba(245, 219, 140, 1)" stroke-width="1.5"></path><path d="M1899.46 47.3L1899.46 47.3" stroke="rgba(245, 219, 140, 1)" stroke-width="1.5"></path><path d="M1899.46 47.3L1989.55 -43.94" stroke="rgba(245, 219, 140, 1)" stroke-width="1.5"></path><path d="M1871.52 245.14L1871.52 245.14" stroke="rgba(245, 219, 140, 1)" stroke-width="1.5"></path><path d="M1871.52 245.14L2004.23 254.72" stroke="rgba(245, 219, 140, 1)" stroke-width="1.5"></path><path d="M1871.52 245.14L1912.13 372.22" stroke="rgba(245, 219, 140, 1)" stroke-width="1.5"></path><path d="M1912.13 372.22L1912.13 372.22" stroke="rgba(245, 219, 140, 1)" stroke-width="1.5"></path><path d="M1912.13 372.22L2004.23 254.72" stroke="rgba(245, 219, 140, 1)" stroke-width="1.5"></path><path d="M1912.13 372.22L1992.97 522.18" stroke="rgba(245, 219, 140, 1)" stroke-width="1.5"></path><path d="M1912.13 372.22L1845.41 537.07" stroke="rgba(245, 219, 140, 1)" stroke-width="1.5"></path><path d="M1845.41 537.07L1845.41 537.07" stroke="rgba(245, 219, 140, 1)" stroke-width="1.5"></path><path d="M1845.41 537.07L1908.97 648.7" stroke="rgba(245, 219, 140, 1)" stroke-width="1.5"></path><path d="M1845.41 537.07L1992.97 522.18" stroke="rgba(245, 219, 140, 1)" stroke-width="1.5"></path><path d="M1908.97 648.7L1908.97 648.7" stroke="rgba(245, 219, 140, 1)" stroke-width="1.5"></path><path d="M1908.97 648.7L2030.51 693.15" stroke="rgba(245, 219, 140, 1)" stroke-width="1.5"></path><path d="M1908.97 648.7L1992.97 522.18" stroke="rgba(245, 219, 140, 1)" stroke-width="1.5"></path><path d="M1908.97 648.7L1723.32 490.13" stroke="rgba(245, 219, 140, 1)" stroke-width="1.5"></path><path d="M1908.97 648.7L1912.13 372.22" stroke="rgba(245, 219, 140, 1)" stroke-width="1.5"></path><path d="M1989.55 -43.94L1989.55 -43.94" stroke="rgba(245, 219, 140, 1)" stroke-width="1.5"></path><path d="M1989.55 -43.94L2032.84 87.45" stroke="rgba(245, 219, 140, 1)" stroke-width="1.5"></path><path d="M1989.55 -43.94L1738.17 63.98" stroke="rgba(245, 219, 140, 1)" stroke-width="1.5"></path><path d="M1989.55 -43.94L1710.94 -84.37" stroke="rgba(245, 219, 140, 1)" stroke-width="1.5"></path><path d="M2032.84 87.45L2032.84 87.45" stroke="rgba(245, 219, 140, 1)" stroke-width="1.5"></path><path d="M2032.84 87.45L1899.46 47.3" stroke="rgba(245, 219, 140, 1)" stroke-width="1.5"></path><path d="M2004.23 254.72L2004.23 254.72" stroke="rgba(245, 219, 140, 1)" stroke-width="1.5"></path><path d="M2004.23 254.72L2032.84 87.45" stroke="rgba(245, 219, 140, 1)" stroke-width="1.5"></path><path d="M1992.97 522.18L1992.97 522.18" stroke="rgba(245, 219, 140, 1)" stroke-width="1.5"></path><path d="M2030.51 693.15L2030.51 693.15" stroke="rgba(245, 219, 140, 1)" stroke-width="1.5"></path><path d="M2030.51 693.15L1992.97 522.18" stroke="rgba(245, 219, 140, 1)" stroke-width="1.5"></path><path d="M2030.51 693.15L1845.41 537.07" stroke="rgba(245, 219, 140, 1)" stroke-width="1.5"></path><path d="M2030.51 693.15L1697.31 653.21" stroke="rgba(245, 219, 140, 1)" stroke-width="1.5"></path><path d="M2030.51 693.15L1912.13 372.22" stroke="rgba(245, 219, 140, 1)" stroke-width="1.5"></path><circle r="5" cx="-97.96" cy="509" fill="rgba(245, 219, 140, 1)"></circle><circle r="5" cx="-94.54" cy="675.71" fill="rgba(245, 219, 140, 1)"></circle><circle r="5" cx="56.28" cy="395.11" fill="rgba(245, 219, 140, 1)"></circle><circle r="5" cx="45.77" cy="559.93" fill="rgba(245, 219, 140, 1)"></circle><circle r="5" cx="43.59" cy="686.59" fill="rgba(245, 219, 140, 1)"></circle><circle r="5" cx="216.52" cy="520.85" fill="rgba(245, 219, 140, 1)"></circle><circle r="5" cx="189.3" cy="666.6" fill="rgba(245, 219, 140, 1)"></circle><circle r="5" cx="408.1" cy="412.09" fill="rgba(245, 219, 140, 1)"></circle><circle r="5" cx="349.86" cy="547.9" fill="rgba(245, 219, 140, 1)"></circle><circle r="5" cx="393.95" cy="681.21" fill="rgba(245, 219, 140, 1)"></circle><circle r="5" cx="511.53" cy="354.53" fill="rgba(245, 219, 140, 1)"></circle><circle r="5" cx="509.14" cy="522" fill="rgba(245, 219, 140, 1)"></circle><circle r="5" cx="506.92" cy="681.05" fill="rgba(245, 219, 140, 1)"></circle><circle r="5" cx="705.17" cy="399.35" fill="rgba(245, 219, 140, 1)"></circle><circle r="5" cx="708.74" cy="493.93" fill="rgba(245, 219, 140, 1)"></circle><circle r="5" cx="698.46" cy="659.98" fill="rgba(245, 219, 140, 1)"></circle><circle r="5" cx="837.53" cy="255.48" fill="rgba(245, 219, 140, 1)"></circle><circle r="5" cx="798" cy="398.17" fill="rgba(245, 219, 140, 1)"></circle><circle r="5" cx="836.95" cy="527.32" fill="rgba(245, 219, 140, 1)"></circle><circle r="5" cx="845.42" cy="641.74" fill="rgba(245, 219, 140, 1)"></circle><circle r="5" cx="995.21" cy="258.66" fill="rgba(245, 219, 140, 1)"></circle><circle r="5" cx="991.69" cy="352.88" fill="rgba(245, 219, 140, 1)"></circle><circle r="5" cx="1007.42" cy="543.02" fill="rgba(245, 219, 140, 1)"></circle><circle r="5" cx="942.22" cy="709.5" fill="rgba(245, 219, 140, 1)"></circle><circle r="5" cx="1129.25" cy="206.28" fill="rgba(245, 219, 140, 1)"></circle><circle r="5" cx="1094.52" cy="344.53" fill="rgba(245, 219, 140, 1)"></circle><circle r="5" cx="1087.88" cy="539.78" fill="rgba(245, 219, 140, 1)"></circle><circle r="5" cx="1142.97" cy="711.98" fill="rgba(245, 219, 140, 1)"></circle><circle r="5" cx="1286.18" cy="92.88" fill="rgba(245, 219, 140, 1)"></circle><circle r="5" cx="1278.56" cy="192.57" fill="rgba(245, 219, 140, 1)"></circle><circle r="5" cx="1303.58" cy="374.31" fill="rgba(245, 219, 140, 1)"></circle><circle r="5" cx="1260.98" cy="528.01" fill="rgba(245, 219, 140, 1)"></circle><circle r="5" cx="1255.43" cy="705.6" fill="rgba(245, 219, 140, 1)"></circle><circle r="5" cx="1422.08" cy="-65.68" fill="rgba(245, 219, 140, 1)"></circle><circle r="5" cx="1443.02" cy="72.62" fill="rgba(245, 219, 140, 1)"></circle><circle r="5" cx="1388.09" cy="212.37" fill="rgba(245, 219, 140, 1)"></circle><circle r="5" cx="1443.29" cy="383.69" fill="rgba(245, 219, 140, 1)"></circle><circle r="5" cx="1422.77" cy="502.22" fill="rgba(245, 219, 140, 1)"></circle><circle r="5" cx="1460.41" cy="650.67" fill="rgba(245, 219, 140, 1)"></circle><circle r="5" cx="1553.21" cy="-60.45" fill="rgba(245, 219, 140, 1)"></circle><circle r="5" cx="1600.45" cy="64.68" fill="rgba(245, 219, 140, 1)"></circle><circle r="5" cx="1576.91" cy="211.82" fill="rgba(245, 219, 140, 1)"></circle><circle r="5" cx="1548.32" cy="525.94" fill="rgba(245, 219, 140, 1)"></circle><circle r="5" cx="1600.16" cy="699.56" fill="rgba(245, 219, 140, 1)"></circle><circle r="5" cx="1710.94" cy="-84.37" fill="rgba(245, 219, 140, 1)"></circle><circle r="5" cx="1738.17" cy="63.98" fill="rgba(245, 219, 140, 1)"></circle><circle r="5" cx="1747.4" cy="226.05" fill="rgba(245, 219, 140, 1)"></circle><circle r="5" cx="1761.79" cy="407.16" fill="rgba(245, 219, 140, 1)"></circle><circle r="5" cx="1723.32" cy="490.13" fill="rgba(245, 219, 140, 1)"></circle><circle r="5" cx="1697.31" cy="653.21" fill="rgba(245, 219, 140, 1)"></circle><circle r="5" cx="1856.34" cy="-54.71" fill="rgba(245, 219, 140, 1)"></circle><circle r="5" cx="1899.46" cy="47.3" fill="rgba(245, 219, 140, 1)"></circle><circle r="5" cx="1871.52" cy="245.14" fill="rgba(245, 219, 140, 1)"></circle><circle r="5" cx="1912.13" cy="372.22" fill="rgba(245, 219, 140, 1)"></circle><circle r="5" cx="1845.41" cy="537.07" fill="rgba(245, 219, 140, 1)"></circle><circle r="5" cx="1908.97" cy="648.7" fill="rgba(245, 219, 140, 1)"></circle><circle r="5" cx="1989.55" cy="-43.94" fill="rgba(245, 219, 140, 1)"></circle><circle r="5" cx="2032.84" cy="87.45" fill="rgba(245, 219, 140, 1)"></circle><circle r="5" cx="2004.23" cy="254.72" fill="rgba(245, 219, 140, 1)"></circle><circle r="5" cx="1992.97" cy="522.18" fill="rgba(245, 219, 140, 1)"></circle><circle r="5" cx="2030.51" cy="693.15" fill="rgba(245, 219, 140, 1)"></circle><path d="M374.73 653.26L374.73 653.26" stroke="hsl(45.30000000000001, 83.6%, 98.9%)" stroke-width="1.5"></path><path d="M374.73 653.26L498.16 663.58" stroke="hsl(45.30000000000001, 83.6%, 98.9%)" stroke-width="1.5"></path><path d="M374.73 653.26L405.44 525.62" stroke="hsl(45.30000000000001, 83.6%, 98.9%)" stroke-width="1.5"></path><path d="M374.73 653.26L214.59 646.07" stroke="hsl(45.30000000000001, 83.6%, 98.9%)" stroke-width="1.5"></path><path d="M374.73 653.26L532.23 549.12" stroke="hsl(45.30000000000001, 83.6%, 98.9%)" stroke-width="1.5"></path><path d="M532.23 549.12L532.23 549.12" stroke="hsl(45.30000000000001, 83.6%, 98.9%)" stroke-width="1.5"></path><path d="M532.23 549.12L498.16 663.58" stroke="hsl(45.30000000000001, 83.6%, 98.9%)" stroke-width="1.5"></path><path d="M532.23 549.12L405.44 525.62" stroke="hsl(45.30000000000001, 83.6%, 98.9%)" stroke-width="1.5"></path><path d="M532.23 549.12L641.99 656.68" stroke="hsl(45.30000000000001, 83.6%, 98.9%)" stroke-width="1.5"></path><path d="M851.52 654.78L851.52 654.78" stroke="hsl(45.30000000000001, 83.6%, 98.9%)" stroke-width="1.5"></path><path d="M851.52 654.78L956.19 705.36" stroke="hsl(45.30000000000001, 83.6%, 98.9%)" stroke-width="1.5"></path><path d="M851.52 654.78L815.1 510.01" stroke="hsl(45.30000000000001, 83.6%, 98.9%)" stroke-width="1.5"></path><path d="M851.52 654.78L1007.75 535.77" stroke="hsl(45.30000000000001, 83.6%, 98.9%)" stroke-width="1.5"></path><path d="M851.52 654.78L641.99 656.68" stroke="hsl(45.30000000000001, 83.6%, 98.9%)" stroke-width="1.5"></path><path d="M851.52 654.78L1100.07 667.2" stroke="hsl(45.30000000000001, 83.6%, 98.9%)" stroke-width="1.5"></path><path d="M851.52 654.78L1124.35 522.31" stroke="hsl(45.30000000000001, 83.6%, 98.9%)" stroke-width="1.5"></path><path d="M1007.75 535.77L1007.75 535.77" stroke="hsl(45.30000000000001, 83.6%, 98.9%)" stroke-width="1.5"></path><path d="M1007.75 535.77L1124.35 522.31" stroke="hsl(45.30000000000001, 83.6%, 98.9%)" stroke-width="1.5"></path><path d="M1007.75 535.77L1100.07 667.2" stroke="hsl(45.30000000000001, 83.6%, 98.9%)" stroke-width="1.5"></path><path d="M1007.75 535.77L956.19 705.36" stroke="hsl(45.30000000000001, 83.6%, 98.9%)" stroke-width="1.5"></path><path d="M1007.75 535.77L815.1 510.01" stroke="hsl(45.30000000000001, 83.6%, 98.9%)" stroke-width="1.5"></path><path d="M1007.75 535.77L1116.97 371.9" stroke="hsl(45.30000000000001, 83.6%, 98.9%)" stroke-width="1.5"></path><path d="M1882.81 -68.63L1882.81 -68.63" stroke="hsl(45.30000000000001, 83.6%, 98.9%)" stroke-width="1.5"></path><path d="M1882.81 -68.63L1760.47 -102.02" stroke="hsl(45.30000000000001, 83.6%, 98.9%)" stroke-width="1.5"></path><path d="M1882.81 -68.63L2009.98 -95.02" stroke="hsl(45.30000000000001, 83.6%, 98.9%)" stroke-width="1.5"></path><path d="M1882.81 -68.63L1840.26 57.96" stroke="hsl(45.30000000000001, 83.6%, 98.9%)" stroke-width="1.5"></path><path d="M1882.81 -68.63L1990.88 99.75" stroke="hsl(45.30000000000001, 83.6%, 98.9%)" stroke-width="1.5"></path><path d="M1882.81 -68.63L1717.88 69.82" stroke="hsl(45.30000000000001, 83.6%, 98.9%)" stroke-width="1.5"></path><path d="M-45.72 532.1L-45.72 532.1" stroke="hsl(45.30000000000001, 83.6%, 98.9%)" stroke-width="1.5"></path><path d="M-45.72 532.1L45.2 543.52" stroke="hsl(45.30000000000001, 83.6%, 98.9%)" stroke-width="1.5"></path><path d="M-45.72 532.1L49.8 647.77" stroke="hsl(45.30000000000001, 83.6%, 98.9%)" stroke-width="1.5"></path><path d="M-74.56 692.7L-74.56 692.7" stroke="hsl(45.30000000000001, 83.6%, 98.9%)" stroke-width="1.5"></path><path d="M-74.56 692.7L49.8 647.77" stroke="hsl(45.30000000000001, 83.6%, 98.9%)" stroke-width="1.5"></path><path d="M-74.56 692.7L-45.72 532.1" stroke="hsl(45.30000000000001, 83.6%, 98.9%)" stroke-width="1.5"></path><path d="M45.2 543.52L45.2 543.52" stroke="hsl(45.30000000000001, 83.6%, 98.9%)" stroke-width="1.5"></path><path d="M45.2 543.52L49.8 647.77" stroke="hsl(45.30000000000001, 83.6%, 98.9%)" stroke-width="1.5"></path><path d="M45.2 543.52L212.31 531.05" stroke="hsl(45.30000000000001, 83.6%, 98.9%)" stroke-width="1.5"></path><path d="M45.2 543.52L-74.56 692.7" stroke="hsl(45.30000000000001, 83.6%, 98.9%)" stroke-width="1.5"></path><path d="M49.8 647.77L49.8 647.77" stroke="hsl(45.30000000000001, 83.6%, 98.9%)" stroke-width="1.5"></path><path d="M212.31 531.05L212.31 531.05" stroke="hsl(45.30000000000001, 83.6%, 98.9%)" stroke-width="1.5"></path><path d="M212.31 531.05L214.59 646.07" stroke="hsl(45.30000000000001, 83.6%, 98.9%)" stroke-width="1.5"></path><path d="M214.59 646.07L214.59 646.07" stroke="hsl(45.30000000000001, 83.6%, 98.9%)" stroke-width="1.5"></path><path d="M405.44 525.62L405.44 525.62" stroke="hsl(45.30000000000001, 83.6%, 98.9%)" stroke-width="1.5"></path><path d="M498.16 663.58L498.16 663.58" stroke="hsl(45.30000000000001, 83.6%, 98.9%)" stroke-width="1.5"></path><path d="M498.16 663.58L641.99 656.68" stroke="hsl(45.30000000000001, 83.6%, 98.9%)" stroke-width="1.5"></path><path d="M498.16 663.58L405.44 525.62" stroke="hsl(45.30000000000001, 83.6%, 98.9%)" stroke-width="1.5"></path><path d="M498.16 663.58L214.59 646.07" stroke="hsl(45.30000000000001, 83.6%, 98.9%)" stroke-width="1.5"></path><path d="M641.99 656.68L641.99 656.68" stroke="hsl(45.30000000000001, 83.6%, 98.9%)" stroke-width="1.5"></path><path d="M815.1 510.01L815.1 510.01" stroke="hsl(45.30000000000001, 83.6%, 98.9%)" stroke-width="1.5"></path><path d="M815.1 510.01L641.99 656.68" stroke="hsl(45.30000000000001, 83.6%, 98.9%)" stroke-width="1.5"></path><path d="M815.1 510.01L956.19 705.36" stroke="hsl(45.30000000000001, 83.6%, 98.9%)" stroke-width="1.5"></path><path d="M815.1 510.01L532.23 549.12" stroke="hsl(45.30000000000001, 83.6%, 98.9%)" stroke-width="1.5"></path><path d="M815.1 510.01L1124.35 522.31" stroke="hsl(45.30000000000001, 83.6%, 98.9%)" stroke-width="1.5"></path><path d="M956.19 705.36L956.19 705.36" stroke="hsl(45.30000000000001, 83.6%, 98.9%)" stroke-width="1.5"></path><path d="M956.19 705.36L1100.07 667.2" stroke="hsl(45.30000000000001, 83.6%, 98.9%)" stroke-width="1.5"></path><path d="M1116.97 371.9L1116.97 371.9" stroke="hsl(45.30000000000001, 83.6%, 98.9%)" stroke-width="1.5"></path><path d="M1116.97 371.9L1254.18 349.03" stroke="hsl(45.30000000000001, 83.6%, 98.9%)" stroke-width="1.5"></path><path d="M1116.97 371.9L1124.35 522.31" stroke="hsl(45.30000000000001, 83.6%, 98.9%)" stroke-width="1.5"></path><path d="M1124.35 522.31L1124.35 522.31" stroke="hsl(45.30000000000001, 83.6%, 98.9%)" stroke-width="1.5"></path><path d="M1124.35 522.31L1253.17 514.31" stroke="hsl(45.30000000000001, 83.6%, 98.9%)" stroke-width="1.5"></path><path d="M1124.35 522.31L1100.07 667.2" stroke="hsl(45.30000000000001, 83.6%, 98.9%)" stroke-width="1.5"></path><path d="M1100.07 667.2L1100.07 667.2" stroke="hsl(45.30000000000001, 83.6%, 98.9%)" stroke-width="1.5"></path><path d="M1100.07 667.2L1240.01 711.87" stroke="hsl(45.30000000000001, 83.6%, 98.9%)" stroke-width="1.5"></path><path d="M1254.18 349.03L1254.18 349.03" stroke="hsl(45.30000000000001, 83.6%, 98.9%)" stroke-width="1.5"></path><path d="M1254.18 349.03L1393.29 411.54" stroke="hsl(45.30000000000001, 83.6%, 98.9%)" stroke-width="1.5"></path><path d="M1254.18 349.03L1253.17 514.31" stroke="hsl(45.30000000000001, 83.6%, 98.9%)" stroke-width="1.5"></path><path d="M1254.18 349.03L1405.13 262.32" stroke="hsl(45.30000000000001, 83.6%, 98.9%)" stroke-width="1.5"></path><path d="M1254.18 349.03L1124.35 522.31" stroke="hsl(45.30000000000001, 83.6%, 98.9%)" stroke-width="1.5"></path><path d="M1254.18 349.03L1420.63 556.25" stroke="hsl(45.30000000000001, 83.6%, 98.9%)" stroke-width="1.5"></path><path d="M1253.17 514.31L1253.17 514.31" stroke="hsl(45.30000000000001, 83.6%, 98.9%)" stroke-width="1.5"></path><path d="M1240.01 711.87L1240.01 711.87" stroke="hsl(45.30000000000001, 83.6%, 98.9%)" stroke-width="1.5"></path><path d="M1240.01 711.87L1253.17 514.31" stroke="hsl(45.30000000000001, 83.6%, 98.9%)" stroke-width="1.5"></path><path d="M1240.01 711.87L1444.71 704.97" stroke="hsl(45.30000000000001, 83.6%, 98.9%)" stroke-width="1.5"></path><path d="M1240.01 711.87L1124.35 522.31" stroke="hsl(45.30000000000001, 83.6%, 98.9%)" stroke-width="1.5"></path><path d="M1240.01 711.87L1420.63 556.25" stroke="hsl(45.30000000000001, 83.6%, 98.9%)" stroke-width="1.5"></path><path d="M1405.13 262.32L1405.13 262.32" stroke="hsl(45.30000000000001, 83.6%, 98.9%)" stroke-width="1.5"></path><path d="M1405.13 262.32L1393.29 411.54" stroke="hsl(45.30000000000001, 83.6%, 98.9%)" stroke-width="1.5"></path><path d="M1405.13 262.32L1560.21 237.74" stroke="hsl(45.30000000000001, 83.6%, 98.9%)" stroke-width="1.5"></path><path d="M1405.13 262.32L1594.27 337.98" stroke="hsl(45.30000000000001, 83.6%, 98.9%)" stroke-width="1.5"></path><path d="M1393.29 411.54L1393.29 411.54" stroke="hsl(45.30000000000001, 83.6%, 98.9%)" stroke-width="1.5"></path><path d="M1393.29 411.54L1420.63 556.25" stroke="hsl(45.30000000000001, 83.6%, 98.9%)" stroke-width="1.5"></path><path d="M1393.29 411.54L1253.17 514.31" stroke="hsl(45.30000000000001, 83.6%, 98.9%)" stroke-width="1.5"></path><path d="M1393.29 411.54L1594.27 337.98" stroke="hsl(45.30000000000001, 83.6%, 98.9%)" stroke-width="1.5"></path><path d="M1393.29 411.54L1595.52 492.89" stroke="hsl(45.30000000000001, 83.6%, 98.9%)" stroke-width="1.5"></path><path d="M1420.63 556.25L1420.63 556.25" stroke="hsl(45.30000000000001, 83.6%, 98.9%)" stroke-width="1.5"></path><path d="M1420.63 556.25L1444.71 704.97" stroke="hsl(45.30000000000001, 83.6%, 98.9%)" stroke-width="1.5"></path><path d="M1444.71 704.97L1444.71 704.97" stroke="hsl(45.30000000000001, 83.6%, 98.9%)" stroke-width="1.5"></path><path d="M1444.71 704.97L1605.96 688.38" stroke="hsl(45.30000000000001, 83.6%, 98.9%)" stroke-width="1.5"></path><path d="M1444.71 704.97L1595.52 492.89" stroke="hsl(45.30000000000001, 83.6%, 98.9%)" stroke-width="1.5"></path><path d="M1444.71 704.97L1253.17 514.31" stroke="hsl(45.30000000000001, 83.6%, 98.9%)" stroke-width="1.5"></path><path d="M1444.71 704.97L1726.03 662.39" stroke="hsl(45.30000000000001, 83.6%, 98.9%)" stroke-width="1.5"></path><path d="M1542.82 -91.72L1542.82 -91.72" stroke="hsl(45.30000000000001, 83.6%, 98.9%)" stroke-width="1.5"></path><path d="M1542.82 -91.72L1569.16 40.04" stroke="hsl(45.30000000000001, 83.6%, 98.9%)" stroke-width="1.5"></path><path d="M1542.82 -91.72L1760.47 -102.02" stroke="hsl(45.30000000000001, 83.6%, 98.9%)" stroke-width="1.5"></path><path d="M1569.16 40.04L1569.16 40.04" stroke="hsl(45.30000000000001, 83.6%, 98.9%)" stroke-width="1.5"></path><path d="M1569.16 40.04L1717.88 69.82" stroke="hsl(45.30000000000001, 83.6%, 98.9%)" stroke-width="1.5"></path><path d="M1569.16 40.04L1560.21 237.74" stroke="hsl(45.30000000000001, 83.6%, 98.9%)" stroke-width="1.5"></path><path d="M1560.21 237.74L1560.21 237.74" stroke="hsl(45.30000000000001, 83.6%, 98.9%)" stroke-width="1.5"></path><path d="M1560.21 237.74L1594.27 337.98" stroke="hsl(45.30000000000001, 83.6%, 98.9%)" stroke-width="1.5"></path><path d="M1594.27 337.98L1594.27 337.98" stroke="hsl(45.30000000000001, 83.6%, 98.9%)" stroke-width="1.5"></path><path d="M1594.27 337.98L1731.22 406.3" stroke="hsl(45.30000000000001, 83.6%, 98.9%)" stroke-width="1.5"></path><path d="M1594.27 337.98L1595.52 492.89" stroke="hsl(45.30000000000001, 83.6%, 98.9%)" stroke-width="1.5"></path><path d="M1594.27 337.98L1723.48 228.97" stroke="hsl(45.30000000000001, 83.6%, 98.9%)" stroke-width="1.5"></path><path d="M1594.27 337.98L1714.27 514.41" stroke="hsl(45.30000000000001, 83.6%, 98.9%)" stroke-width="1.5"></path><path d="M1595.52 492.89L1595.52 492.89" stroke="hsl(45.30000000000001, 83.6%, 98.9%)" stroke-width="1.5"></path><path d="M1595.52 492.89L1714.27 514.41" stroke="hsl(45.30000000000001, 83.6%, 98.9%)" stroke-width="1.5"></path><path d="M1595.52 492.89L1731.22 406.3" stroke="hsl(45.30000000000001, 83.6%, 98.9%)" stroke-width="1.5"></path><path d="M1595.52 492.89L1420.63 556.25" stroke="hsl(45.30000000000001, 83.6%, 98.9%)" stroke-width="1.5"></path><path d="M1595.52 492.89L1605.96 688.38" stroke="hsl(45.30000000000001, 83.6%, 98.9%)" stroke-width="1.5"></path><path d="M1605.96 688.38L1605.96 688.38" stroke="hsl(45.30000000000001, 83.6%, 98.9%)" stroke-width="1.5"></path><path d="M1605.96 688.38L1726.03 662.39" stroke="hsl(45.30000000000001, 83.6%, 98.9%)" stroke-width="1.5"></path><path d="M1760.47 -102.02L1760.47 -102.02" stroke="hsl(45.30000000000001, 83.6%, 98.9%)" stroke-width="1.5"></path><path d="M1760.47 -102.02L1717.88 69.82" stroke="hsl(45.30000000000001, 83.6%, 98.9%)" stroke-width="1.5"></path><path d="M1760.47 -102.02L1840.26 57.96" stroke="hsl(45.30000000000001, 83.6%, 98.9%)" stroke-width="1.5"></path><path d="M1717.88 69.82L1717.88 69.82" stroke="hsl(45.30000000000001, 83.6%, 98.9%)" stroke-width="1.5"></path><path d="M1717.88 69.82L1840.26 57.96" stroke="hsl(45.30000000000001, 83.6%, 98.9%)" stroke-width="1.5"></path><path d="M1717.88 69.82L1723.48 228.97" stroke="hsl(45.30000000000001, 83.6%, 98.9%)" stroke-width="1.5"></path><path d="M1717.88 69.82L1861.71 209.91" stroke="hsl(45.30000000000001, 83.6%, 98.9%)" stroke-width="1.5"></path><path d="M1723.48 228.97L1723.48 228.97" stroke="hsl(45.30000000000001, 83.6%, 98.9%)" stroke-width="1.5"></path><path d="M1723.48 228.97L1861.71 209.91" stroke="hsl(45.30000000000001, 83.6%, 98.9%)" stroke-width="1.5"></path><path d="M1723.48 228.97L1560.21 237.74" stroke="hsl(45.30000000000001, 83.6%, 98.9%)" stroke-width="1.5"></path><path d="M1731.22 406.3L1731.22 406.3" stroke="hsl(45.30000000000001, 83.6%, 98.9%)" stroke-width="1.5"></path><path d="M1731.22 406.3L1714.27 514.41" stroke="hsl(45.30000000000001, 83.6%, 98.9%)" stroke-width="1.5"></path><path d="M1714.27 514.41L1714.27 514.41" stroke="hsl(45.30000000000001, 83.6%, 98.9%)" stroke-width="1.5"></path><path d="M1714.27 514.41L1841.74 520.2" stroke="hsl(45.30000000000001, 83.6%, 98.9%)" stroke-width="1.5"></path><path d="M1714.27 514.41L1726.03 662.39" stroke="hsl(45.30000000000001, 83.6%, 98.9%)" stroke-width="1.5"></path><path d="M1714.27 514.41L1605.96 688.38" stroke="hsl(45.30000000000001, 83.6%, 98.9%)" stroke-width="1.5"></path><path d="M1726.03 662.39L1726.03 662.39" stroke="hsl(45.30000000000001, 83.6%, 98.9%)" stroke-width="1.5"></path><path d="M1840.26 57.96L1840.26 57.96" stroke="hsl(45.30000000000001, 83.6%, 98.9%)" stroke-width="1.5"></path><path d="M1861.71 209.91L1861.71 209.91" stroke="hsl(45.30000000000001, 83.6%, 98.9%)" stroke-width="1.5"></path><path d="M1861.71 209.91L1884.1 345.33" stroke="hsl(45.30000000000001, 83.6%, 98.9%)" stroke-width="1.5"></path><path d="M1884.1 345.33L1884.1 345.33" stroke="hsl(45.30000000000001, 83.6%, 98.9%)" stroke-width="1.5"></path><path d="M1884.1 345.33L1731.22 406.3" stroke="hsl(45.30000000000001, 83.6%, 98.9%)" stroke-width="1.5"></path><path d="M1884.1 345.33L1841.74 520.2" stroke="hsl(45.30000000000001, 83.6%, 98.9%)" stroke-width="1.5"></path><path d="M1884.1 345.33L2051.82 411.98" stroke="hsl(45.30000000000001, 83.6%, 98.9%)" stroke-width="1.5"></path><path d="M1841.74 520.2L1841.74 520.2" stroke="hsl(45.30000000000001, 83.6%, 98.9%)" stroke-width="1.5"></path><path d="M1841.74 520.2L1876 655.47" stroke="hsl(45.30000000000001, 83.6%, 98.9%)" stroke-width="1.5"></path><path d="M1841.74 520.2L1731.22 406.3" stroke="hsl(45.30000000000001, 83.6%, 98.9%)" stroke-width="1.5"></path><path d="M1841.74 520.2L1726.03 662.39" stroke="hsl(45.30000000000001, 83.6%, 98.9%)" stroke-width="1.5"></path><path d="M1841.74 520.2L1996.49 662.13" stroke="hsl(45.30000000000001, 83.6%, 98.9%)" stroke-width="1.5"></path><path d="M1876 655.47L1876 655.47" stroke="hsl(45.30000000000001, 83.6%, 98.9%)" stroke-width="1.5"></path><path d="M1876 655.47L1996.49 662.13" stroke="hsl(45.30000000000001, 83.6%, 98.9%)" stroke-width="1.5"></path><path d="M1876 655.47L1726.03 662.39" stroke="hsl(45.30000000000001, 83.6%, 98.9%)" stroke-width="1.5"></path><path d="M2009.98 -95.02L2009.98 -95.02" stroke="hsl(45.30000000000001, 83.6%, 98.9%)" stroke-width="1.5"></path><path d="M2009.98 -95.02L1990.88 99.75" stroke="hsl(45.30000000000001, 83.6%, 98.9%)" stroke-width="1.5"></path><path d="M2009.98 -95.02L1840.26 57.96" stroke="hsl(45.30000000000001, 83.6%, 98.9%)" stroke-width="1.5"></path><path d="M2009.98 -95.02L1760.47 -102.02" stroke="hsl(45.30000000000001, 83.6%, 98.9%)" stroke-width="1.5"></path><path d="M2009.98 -95.02L2011.23 203.77" stroke="hsl(45.30000000000001, 83.6%, 98.9%)" stroke-width="1.5"></path><path d="M2009.98 -95.02L1717.88 69.82" stroke="hsl(45.30000000000001, 83.6%, 98.9%)" stroke-width="1.5"></path><path d="M1990.88 99.75L1990.88 99.75" stroke="hsl(45.30000000000001, 83.6%, 98.9%)" stroke-width="1.5"></path><path d="M1990.88 99.75L2011.23 203.77" stroke="hsl(45.30000000000001, 83.6%, 98.9%)" stroke-width="1.5"></path><path d="M1990.88 99.75L1840.26 57.96" stroke="hsl(45.30000000000001, 83.6%, 98.9%)" stroke-width="1.5"></path><path d="M1990.88 99.75L1861.71 209.91" stroke="hsl(45.30000000000001, 83.6%, 98.9%)" stroke-width="1.5"></path><path d="M2011.23 203.77L2011.23 203.77" stroke="hsl(45.30000000000001, 83.6%, 98.9%)" stroke-width="1.5"></path><path d="M2011.23 203.77L1861.71 209.91" stroke="hsl(45.30000000000001, 83.6%, 98.9%)" stroke-width="1.5"></path><path d="M2011.23 203.77L1884.1 345.33" stroke="hsl(45.30000000000001, 83.6%, 98.9%)" stroke-width="1.5"></path><path d="M2011.23 203.77L2051.82 411.98" stroke="hsl(45.30000000000001, 83.6%, 98.9%)" stroke-width="1.5"></path><path d="M2011.23 203.77L1840.26 57.96" stroke="hsl(45.30000000000001, 83.6%, 98.9%)" stroke-width="1.5"></path><path d="M2051.82 411.98L2051.82 411.98" stroke="hsl(45.30000000000001, 83.6%, 98.9%)" stroke-width="1.5"></path><path d="M2051.82 411.98L2058.74 513.16" stroke="hsl(45.30000000000001, 83.6%, 98.9%)" stroke-width="1.5"></path><path d="M2051.82 411.98L1841.74 520.2" stroke="hsl(45.30000000000001, 83.6%, 98.9%)" stroke-width="1.5"></path><path d="M2058.74 513.16L2058.74 513.16" stroke="hsl(45.30000000000001, 83.6%, 98.9%)" stroke-width="1.5"></path><path d="M2058.74 513.16L1996.49 662.13" stroke="hsl(45.30000000000001, 83.6%, 98.9%)" stroke-width="1.5"></path><path d="M1996.49 662.13L1996.49 662.13" stroke="hsl(45.30000000000001, 83.6%, 98.9%)" stroke-width="1.5"></path><path d="M1996.49 662.13L2051.82 411.98" stroke="hsl(45.30000000000001, 83.6%, 98.9%)" stroke-width="1.5"></path><path d="M1996.49 662.13L1726.03 662.39" stroke="hsl(45.30000000000001, 83.6%, 98.9%)" stroke-width="1.5"></path><circle r="25" cx="374.73" cy="653.26" fill="url(#SvgjsRadialGradient1061)"></circle><circle r="25" cx="532.23" cy="549.12" fill="url(#SvgjsRadialGradient1061)"></circle><circle r="25" cx="851.52" cy="654.78" fill="url(#SvgjsRadialGradient1061)"></circle><circle r="25" cx="1007.75" cy="535.77" fill="url(#SvgjsRadialGradient1061)"></circle><circle r="25" cx="1882.81" cy="-68.63" fill="url(#SvgjsRadialGradient1061)"></circle><circle r="5" cx="-45.72" cy="532.1" fill="#faeec7"></circle><circle r="5" cx="-74.56" cy="692.7" fill="#faeec7"></circle><circle r="5" cx="45.2" cy="543.52" fill="#faeec7"></circle><circle r="5" cx="49.8" cy="647.77" fill="#faeec7"></circle><circle r="5" cx="212.31" cy="531.05" fill="#faeec7"></circle><circle r="5" cx="214.59" cy="646.07" fill="#faeec7"></circle><circle r="5" cx="405.44" cy="525.62" fill="#faeec7"></circle><circle r="5" cx="498.16" cy="663.58" fill="#faeec7"></circle><circle r="5" cx="641.99" cy="656.68" fill="#faeec7"></circle><circle r="5" cx="815.1" cy="510.01" fill="#faeec7"></circle><circle r="5" cx="956.19" cy="705.36" fill="#faeec7"></circle><circle r="5" cx="1116.97" cy="371.9" fill="#faeec7"></circle><circle r="5" cx="1124.35" cy="522.31" fill="#faeec7"></circle><circle r="5" cx="1100.07" cy="667.2" fill="#faeec7"></circle><circle r="5" cx="1254.18" cy="349.03" fill="#faeec7"></circle><circle r="5" cx="1253.17" cy="514.31" fill="#faeec7"></circle><circle r="5" cx="1240.01" cy="711.87" fill="#faeec7"></circle><circle r="5" cx="1405.13" cy="262.32" fill="#faeec7"></circle><circle r="5" cx="1393.29" cy="411.54" fill="#faeec7"></circle><circle r="5" cx="1420.63" cy="556.25" fill="#faeec7"></circle><circle r="5" cx="1444.71" cy="704.97" fill="#faeec7"></circle><circle r="5" cx="1542.82" cy="-91.72" fill="#faeec7"></circle><circle r="5" cx="1569.16" cy="40.04" fill="#faeec7"></circle><circle r="5" cx="1560.21" cy="237.74" fill="#faeec7"></circle><circle r="5" cx="1594.27" cy="337.98" fill="#faeec7"></circle><circle r="5" cx="1595.52" cy="492.89" fill="#faeec7"></circle><circle r="5" cx="1605.96" cy="688.38" fill="#faeec7"></circle><circle r="5" cx="1760.47" cy="-102.02" fill="#faeec7"></circle><circle r="5" cx="1717.88" cy="69.82" fill="#faeec7"></circle><circle r="5" cx="1723.48" cy="228.97" fill="#faeec7"></circle><circle r="5" cx="1731.22" cy="406.3" fill="#faeec7"></circle><circle r="5" cx="1714.27" cy="514.41" fill="#faeec7"></circle><circle r="5" cx="1726.03" cy="662.39" fill="#faeec7"></circle><circle r="5" cx="1840.26" cy="57.96" fill="#faeec7"></circle><circle r="5" cx="1861.71" cy="209.91" fill="#faeec7"></circle><circle r="5" cx="1884.1" cy="345.33" fill="#faeec7"></circle><circle r="5" cx="1841.74" cy="520.2" fill="#faeec7"></circle><circle r="5" cx="1876" cy="655.47" fill="#faeec7"></circle><circle r="5" cx="2009.98" cy="-95.02" fill="#faeec7"></circle><circle r="5" cx="1990.88" cy="99.75" fill="#faeec7"></circle><circle r="5" cx="2011.23" cy="203.77" fill="#faeec7"></circle><circle r="5" cx="2051.82" cy="411.98" fill="#faeec7"></circle><circle r="5" cx="2058.74" cy="513.16" fill="#faeec7"></circle><circle r="5" cx="1996.49" cy="662.13" fill="#faeec7"></circle></g><defs><mask id="SvgjsMask1060"><rect width="1920" height="600" fill="#ffffff"></rect></mask><radialGradient id="SvgjsRadialGradient1061"><stop stop-color="#ffffff" offset="0.1"></stop><stop stop-color="rgba(245, 220, 143, 1)" offset="0.2"></stop><stop stop-color="rgba(245, 220, 143, 0)" offset="1"></stop></radialGradient></defs></svg>