<?xml version="1.0" encoding="UTF-8"?>
<!DOCTYPE svg PUBLIC "-//W3C//DTD SVG 1.1//EN" "http://www.w3.org/Graphics/SVG/1.1/DTD/svg11.dtd">
<!-- Creator: CorelDRAW 2020 (64-Bit Evaluation Version) -->
<svg xmlns="http://www.w3.org/2000/svg" xml:space="preserve" width="200px" height="168px" version="1.1" style="shape-rendering:geometricPrecision; text-rendering:geometricPrecision; image-rendering:optimizeQuality; fill-rule:evenodd; clip-rule:evenodd"
viewBox="0 0 47.25 39.71"
 xmlns:xlink="http://www.w3.org/1999/xlink"
 xmlns:xodm="http://www.corel.com/coreldraw/odm/2003">
 <defs>
  <style type="text/css">
   <![CDATA[
    .str0 {stroke:#E5AD11;stroke-width:0.38;stroke-miterlimit:2.61313}
    .fil4 {fill:none}
    .fil0 {fill:#263674}
    .fil1 {fill:#E5AD11}
    .fil2 {fill:white}
    .fil3 {fill:#263674;fill-rule:nonzero}
    .fil5 {fill:#E5AD11;fill-rule:nonzero}
    .fil6 {fill:white;fill-rule:nonzero}
   ]]>
  </style>
    <clipPath id="id0">
     <path d="M2.29 0l42.67 0c1.26,0 2.29,1.03 2.29,2.29l0 27.91c0,1.26 -1.03,2.28 -2.29,2.28l-42.67 0c-1.26,0 -2.29,-1.02 -2.29,-2.28l0 -27.91c0,-1.26 1.03,-2.29 2.29,-2.29z"/>
    </clipPath>
 </defs>
 <g id="Layer_x0020_1">
  <metadata id="CorelCorpID_0Corel-Layer"/>
  <g id="_2389820826288">
   <path class="fil0" d="M17.19 31.95l12.86 0 0 4.86 2.77 0c0.42,0 0.76,0.34 0.76,0.76l0 1.38c0,0.42 -0.34,0.76 -0.76,0.76l-18.39 0c-0.42,0 -0.76,-0.34 -0.76,-0.76l0 -1.38c0,-0.42 0.34,-0.76 0.76,-0.76l2.76 0 0 -4.86z"/>
   <path class="fil1" d="M2.29 0l42.67 0c1.26,0 2.29,1.03 2.29,2.29l0 27.91c0,1.26 -1.03,2.28 -2.29,2.28l-42.67 0c-1.26,0 -2.29,-1.02 -2.29,-2.28l0 -27.91c0,-1.26 1.03,-2.29 2.29,-2.29z"/>
   <g style="clip-path:url(#id0)">
    <g>
     <rect class="fil2" x="-1.11" y="1.76" width="49.19" height="26.23"/>
     <rect class="fil3" x="-1.11" y="-2.32" width="49.19" height="5.22"/>
    </g>
   </g>
   <path class="fil4" d="M2.29 0l42.67 0c1.26,0 2.29,1.03 2.29,2.29l0 27.91c0,1.26 -1.03,2.28 -2.29,2.28l-42.67 0c-1.26,0 -2.29,-1.02 -2.29,-2.28l0 -27.91c0,-1.26 1.03,-2.29 2.29,-2.29z"/>
   <g>
    <path class="fil3" d="M29.14 20.84l0 -4.71c0.64,0 1.25,0.13 1.83,0.38 0.59,0.25 1.09,0.58 1.51,1 0.42,0.42 0.76,0.92 1,1.5 0.25,0.58 0.38,1.19 0.38,1.83l-4.72 0z"/>
    <path class="fil5" d="M24.17 23.26c-0.25,-0.58 -0.37,-1.19 -0.37,-1.83 0,-0.63 0.12,-1.24 0.37,-1.82 0.25,-0.58 0.58,-1.08 1,-1.5 0.42,-0.42 0.92,-0.75 1.5,-1 0.58,-0.25 1.19,-0.37 1.83,-0.37l0 4.7 4.71 0c0,0.64 -0.13,1.25 -0.38,1.83 -0.25,0.58 -0.58,1.08 -1,1.51 -0.42,0.42 -0.92,0.75 -1.5,1 -0.58,0.25 -1.19,0.37 -1.83,0.37 -0.63,0 -1.24,-0.12 -1.82,-0.37 -0.58,-0.25 -1.09,-0.59 -1.51,-1.01 -0.42,-0.42 -0.75,-0.92 -1,-1.51z"/>
   </g>
   <g>
    <path class="fil3" d="M28.28 9l0 -2.78c-0.37,0 -0.74,0.07 -1.08,0.22 -0.35,0.15 -0.64,0.34 -0.89,0.59 -0.25,0.25 -0.45,0.54 -0.59,0.89 -0.15,0.34 -0.23,0.7 -0.23,1.08l2.79 0z"/>
    <path class="fil6 str0" d="M32.21 11.07c0.18,-0.42 0.27,-0.86 0.27,-1.32 0,-0.47 -0.09,-0.91 -0.27,-1.33 -0.18,-0.42 -0.42,-0.78 -0.73,-1.08 -0.3,-0.31 -0.67,-0.55 -1.09,-0.73 -0.42,-0.18 -0.86,-0.27 -1.32,-0.27l0 3.41 -3.42 0c0,0.46 0.09,0.91 0.27,1.33 0.18,0.42 0.43,0.78 0.73,1.09 0.3,0.31 0.67,0.55 1.09,0.73 0.42,0.18 0.86,0.27 1.32,0.27 0.46,0 0.91,-0.09 1.33,-0.27 0.42,-0.18 0.78,-0.43 1.09,-0.73 0.3,-0.31 0.55,-0.67 0.73,-1.1z"/>
   </g>
   <g>
    <path class="fil3" d="M2.65 25.12l0 -11.86c0,-0.33 0.11,-0.62 0.34,-0.85 0.23,-0.23 0.51,-0.35 0.85,-0.35l14.06 0c0.33,0 0.62,0.12 0.85,0.35 0.24,0.23 0.36,0.52 0.36,0.85l0 11.86c0,0.34 -0.12,0.62 -0.36,0.84 -0.23,0.23 -0.52,0.34 -0.85,0.34l-14.06 0c-0.34,0 -0.62,-0.11 -0.85,-0.34 -0.23,-0.22 -0.34,-0.5 -0.34,-0.84zm1.09 0c0,0.06 0.03,0.09 0.1,0.09l14.08 0c0.06,0 0.1,-0.03 0.1,-0.09l0 -8 -14.28 0 0 8zm0 -9.09l14.28 0 0 -2.76c0,-0.08 -0.04,-0.12 -0.1,-0.12l-14.08 0c-0.07,0 -0.1,0.04 -0.1,0.12l0 2.76zm1.1 -1.02c-0.1,-0.11 -0.16,-0.23 -0.16,-0.39 0,-0.14 0.06,-0.27 0.16,-0.38 0.11,-0.11 0.23,-0.16 0.39,-0.16 0.14,0 0.27,0.05 0.38,0.16 0.11,0.11 0.16,0.24 0.16,0.38 0,0.16 -0.05,0.28 -0.16,0.39 -0.11,0.1 -0.24,0.15 -0.38,0.15 -0.16,0 -0.28,-0.05 -0.39,-0.15zm1.36 0c-0.11,-0.11 -0.17,-0.23 -0.17,-0.39 0,-0.14 0.06,-0.27 0.17,-0.38 0.1,-0.11 0.23,-0.16 0.38,-0.16 0.15,0 0.28,0.05 0.38,0.16 0.11,0.11 0.16,0.24 0.16,0.38 0,0.16 -0.05,0.28 -0.16,0.39 -0.1,0.1 -0.23,0.15 -0.38,0.15 -0.15,0 -0.28,-0.05 -0.38,-0.15zm0.1 -3.77l0 -3.88c0,-0.32 0.11,-0.6 0.34,-0.83 0.24,-0.23 0.52,-0.35 0.85,-0.35l14.09 0c0.33,0 0.61,0.12 0.84,0.35 0.23,0.23 0.35,0.51 0.35,0.83l0 11.88c0,0.32 -0.12,0.6 -0.35,0.83 -0.23,0.23 -0.51,0.35 -0.83,0.35l-1.64 0 0 -1.09 1.63 0c0.07,0 0.1,-0.03 0.1,-0.09l0 -8 -14.29 0 -1.09 0zm1.24 3.77c-0.1,-0.11 -0.16,-0.23 -0.16,-0.39 0,-0.14 0.06,-0.27 0.16,-0.38 0.11,-0.11 0.24,-0.16 0.39,-0.16 0.15,0 0.28,0.05 0.38,0.16 0.11,0.11 0.16,0.24 0.16,0.38 0,0.16 -0.05,0.28 -0.16,0.39 -0.1,0.1 -0.23,0.15 -0.38,0.15 -0.15,0 -0.28,-0.05 -0.39,-0.15zm-0.16 -4.86l14.3 0 0 -2.78c0,-0.02 -0.01,-0.04 -0.04,-0.07 -0.02,-0.02 -0.04,-0.03 -0.06,-0.03l-14.1 0c-0.02,0 -0.04,0.01 -0.06,0.03 -0.03,0.03 -0.04,0.05 -0.04,0.07l0 2.78z"/>
    <circle class="fil5" cx="5.22" cy="14.61" r="0.57"/>
   </g>
   <circle class="fil2" cx="23.62" cy="30.56" r="1.19"/>
   <g>
    <path class="fil1" d="M34.13 11.78l0 5.04c0,0.05 0.02,0.07 0.07,0.07l0.91 0 9.86 0 0.91 0c0.05,0 0.07,-0.02 0.07,-0.07l0 -5.04c0,-0.05 -0.02,-0.08 -0.07,-0.08l-0.9 0 -0.8 0 -8.26 0 -0.81 0 -0.91 0c-0.05,0 -0.07,0.03 -0.07,0.08zm5.15 1.67c-0.08,-0.08 -0.12,-0.17 -0.12,-0.29 0,-0.11 0.04,-0.2 0.12,-0.28 0.08,-0.08 0.18,-0.12 0.29,-0.12l4.61 0 0.39 0c0.11,0 0.2,0.04 0.28,0.12 0.08,0.08 0.12,0.17 0.12,0.28 0,0.12 -0.04,0.21 -0.12,0.29 -0.08,0.08 -0.17,0.12 -0.28,0.12l-0.39 0 -4.61 0c-0.11,0 -0.21,-0.04 -0.29,-0.12zm1.98 1.51c0,-0.11 0.03,-0.2 0.11,-0.28 0.08,-0.07 0.18,-0.11 0.29,-0.11l2.52 0 0.39 0c0.11,0 0.2,0.04 0.28,0.11 0.08,0.08 0.12,0.17 0.12,0.28 0,0.11 -0.04,0.21 -0.12,0.29 -0.08,0.08 -0.17,0.12 -0.28,0.12l-0.39 0 -2.52 0c-0.11,0 -0.21,-0.04 -0.29,-0.12 -0.08,-0.08 -0.11,-0.18 -0.11,-0.29z"/>
    <path class="fil0" d="M35.92 10.9l8.26 0 0 -2.08 -4.32 0c-0.25,0 -0.46,-0.08 -0.64,-0.25 -0.18,-0.18 -0.26,-0.38 -0.26,-0.63l0 -4.34 -2.97 0c-0.05,0 -0.07,0.03 -0.07,0.08l0 7.22z"/>
    <path class="fil1" d="M39.86 8.02l3.96 0 -4.06 -4.06 0 3.99c0,0.01 0.01,0.03 0.04,0.04 0.02,0.02 0.04,0.03 0.06,0.03z"/>
   </g>
  </g>
 </g>
</svg>
