<svg width="20" height="20" viewBox="0 0 20 20" fill="none" xmlns="http://www.w3.org/2000/svg">
<circle cx="10" cy="10" r="10" fill="white"/>
<path d="M11.1916 8.46546C11.3691 8.22356 11.4497 7.91717 11.3691 7.61077C11.2562 7.22374 10.9174 6.98185 10.5303 6.90122C9.90119 6.75609 9.15919 7.06248 8.54622 7.20762C8.70753 7.83654 8.86884 8.46546 9.03014 9.1105C9.04627 9.14275 9.0624 9.35239 9.09466 9.36852C9.15919 9.4169 9.54632 9.25564 9.62697 9.23951C10.2077 9.09437 10.8206 8.98149 11.1916 8.46546Z" fill="#00BE81"/>
<path d="M12.742 10.7352C12.6775 10.4127 12.4355 10.1708 12.1452 10.0257C11.6935 9.81604 11.1773 9.83217 10.6934 9.96117C10.4353 10.0257 10.1772 10.0902 9.93529 10.1547C9.85464 10.1708 9.43524 10.2192 9.40298 10.2998C9.38685 10.3321 9.4675 10.5256 9.4675 10.5578C9.51589 10.7352 9.56429 10.9126 9.61268 11.1061C9.72559 11.5093 9.82238 11.9286 9.93529 12.3317C9.95142 12.3801 9.96755 12.5897 10.0159 12.6381C10.0643 12.6865 10.4031 12.5575 10.4676 12.5414C11.016 12.3962 11.6451 12.2995 12.1291 11.9769C12.5001 11.6867 12.8388 11.2351 12.742 10.7352Z" fill="#00BE81"/>
<path d="M20 10.011C20 7.94684 19.3548 5.91495 18.1611 4.2217C16.9997 2.57684 15.3383 1.30287 13.451 0.609449C11.4831 -0.116227 9.28929 -0.196858 7.27297 0.383683C5.3373 0.931972 3.57907 2.07693 2.28862 3.64116C0.982044 5.22152 0.191646 7.18891 0.03034 9.2208C-0.130966 11.3011 0.352952 13.3975 1.4337 15.1713C2.46606 16.8968 4.03072 18.2837 5.85348 19.1061C7.75689 19.9769 9.93452 20.2188 11.9831 19.7995C13.9672 19.3964 15.806 18.3804 17.2094 16.913C18.6128 15.4455 19.5645 13.5587 19.871 11.543C19.9677 11.0431 20 10.527 20 10.011ZM14.6285 11.7687C14.3866 12.3654 13.9026 12.8492 13.3542 13.1556C13.1768 13.2523 12.9671 13.3491 12.7735 13.4136C12.6928 13.4458 12.5961 13.462 12.5154 13.4942C12.4348 13.5104 12.2251 13.5265 12.1605 13.591C12.096 13.6555 12.1928 13.8813 12.2251 13.978C12.2896 14.236 12.3541 14.494 12.4186 14.7521C12.4509 14.865 12.4831 14.994 12.5154 15.1068C12.5315 15.1552 12.5799 15.2842 12.5799 15.3326C12.5638 15.4132 12.6122 15.3487 12.5315 15.3971C12.4509 15.4455 12.2896 15.4616 12.2089 15.4777C11.9831 15.5422 11.7573 15.5906 11.5314 15.6551C11.4024 15.1552 11.2734 14.6714 11.1443 14.1715C11.1282 14.107 11.112 13.9458 11.0798 13.9135C11.0475 13.8651 11.0314 13.8974 10.9507 13.9135C10.7088 13.978 10.4668 14.0425 10.2087 14.107C10.3378 14.6069 10.4668 15.1068 10.5959 15.6068C10.612 15.6551 10.6765 15.8164 10.6604 15.8648C10.6443 15.897 10.5959 15.897 10.5313 15.9131C10.2571 15.9777 9.95065 16.1228 9.67643 16.1389C9.59577 16.1389 9.62804 16.1712 9.59577 16.1228C9.54738 16.0744 9.53125 15.897 9.51512 15.8325C9.43447 15.5261 9.35382 15.2036 9.27316 14.8972C9.25703 14.8166 9.20864 14.4295 9.14412 14.3812C9.0796 14.3489 8.69246 14.494 8.62794 14.5102C8.06337 14.6553 7.51493 14.8004 6.95036 14.9456C6.93423 14.5747 6.9181 14.2199 6.9181 13.849C6.9181 13.7522 6.88584 13.6394 6.95036 13.591C6.99875 13.5587 7.1278 13.5426 7.19232 13.5265C7.30523 13.4942 7.41815 13.462 7.54719 13.4297C7.77302 13.3813 7.98272 13.2846 7.96659 13.0104C7.96659 12.9459 7.93432 12.8976 7.93432 12.8331C7.8698 12.5589 7.78915 12.2686 7.72463 11.9945C7.4988 11.0914 7.25684 10.2045 7.03101 9.30143C6.95036 8.99504 6.86971 8.67251 6.78905 8.36612C6.7084 8.07585 6.61162 7.78558 6.25674 7.75332C6.06318 7.7372 5.83735 7.83396 5.64378 7.88234C5.56313 7.89846 5.24052 8.02747 5.17599 7.99522C5.14373 7.96297 5.1276 7.81783 5.11147 7.76945C5.07921 7.64044 5.04695 7.52756 5.01469 7.39855C4.9663 7.22116 4.91791 7.04378 4.88565 6.88251C5.46635 6.73738 6.04705 6.57612 6.64388 6.43098C6.74066 6.39873 7.06327 6.36648 7.0794 6.28585C7.09553 6.22134 7.01488 6.0117 6.99875 5.9472C6.95036 5.76981 6.90197 5.5763 6.85358 5.39891C6.77292 5.10864 6.7084 4.81837 6.62775 4.5281C6.77292 4.49585 6.9181 4.44747 7.04714 4.41522C7.20845 4.36684 7.46654 4.25395 7.62784 4.27008C7.7085 4.27008 7.69237 4.30233 7.72463 4.41522C7.77302 4.60873 7.82141 4.80224 7.8698 4.99576C7.93433 5.22152 7.98272 5.44729 8.04724 5.65693C8.06337 5.72143 8.09563 5.99558 8.14402 6.02783C8.19241 6.06008 8.46663 5.9472 8.53116 5.93107C8.69246 5.89882 8.83764 5.85044 8.99894 5.81819C8.85377 5.22152 8.69246 4.62486 8.54729 4.04431C8.85377 3.96368 9.17638 3.88305 9.48286 3.80242C9.57964 3.77017 9.57964 3.75404 9.62803 3.81855C9.69256 3.89918 9.70869 4.12495 9.74095 4.2217C9.83773 4.60873 9.93452 4.97963 10.0313 5.36666C10.0474 5.43116 10.0474 5.52792 10.0958 5.54405C10.1442 5.56017 10.3378 5.47954 10.37 5.47954C10.5636 5.43116 10.7733 5.41504 10.9669 5.41504C12.1444 5.41504 13.3381 6.20522 13.2735 7.49531C13.2574 7.99522 12.9993 8.46288 12.6606 8.81765C13.6284 8.94666 14.4995 9.55945 14.7253 10.5431C14.806 10.9463 14.7898 11.3656 14.6285 11.7687Z" fill="#00BE81"/>
</svg>
