<?xml version="1.0" encoding="UTF-8"?>
<!DOCTYPE svg PUBLIC "-//W3C//DTD SVG 1.1//EN" "http://www.w3.org/Graphics/SVG/1.1/DTD/svg11.dtd">
<!-- Creator: CorelDRAW 2020 (64-Bit Evaluation Version) -->
<svg xmlns="http://www.w3.org/2000/svg" xml:space="preserve" width="1920px" height="650px" version="1.1" style="shape-rendering:geometricPrecision; text-rendering:geometricPrecision; image-rendering:optimizeQuality; fill-rule:evenodd; clip-rule:evenodd"
viewBox="0 0 1920 650"
 xmlns:xlink="http://www.w3.org/1999/xlink"
 xmlns:xodm="http://www.corel.com/coreldraw/odm/2003">
 <defs>
  <style type="text/css">
   <![CDATA[
    .fil2 {fill:none}
    .fil0 {fill:#263674}
    .fil1 {fill:#1A1A1A;fill-opacity:0.101961}
   ]]>
  </style>
   <clipPath id="id0">
    <path d="M0 0l1920 0 0 650 -1920 0 0 -650z"/>
   </clipPath>
 </defs>
 <g id="Layer_x0020_1">
  <metadata id="CorelCorpID_0Corel-Layer"/>
  <polygon class="fil0" points="0,0 1920,0 1920,650 0,650 "/>
  <g style="clip-path:url(#id0)">
   <g id="_2389658239984">
    <path id="1" class="fil1" d="M108.91 -81.88c233.57,0 422.92,189.34 422.92,422.91 0,233.57 -189.35,422.92 -422.92,422.92 -233.57,0 -422.91,-189.35 -422.91,-422.92 0,-233.57 189.34,-422.91 422.91,-422.91z"/>
    <path class="fil1" d="M604.75 -950.67c400.77,0 725.66,324.89 725.66,725.67 0,400.78 -324.89,725.67 -725.66,725.67 -400.78,0 -725.67,-324.89 -725.67,-725.67 0,-400.78 324.89,-725.67 725.67,-725.67z"/>
    <path class="fil1" d="M2013.08 -8.97c322.52,0 583.97,261.45 583.97,583.97 0,322.51 -261.45,583.96 -583.97,583.96 -322.52,0 -583.97,-261.45 -583.97,-583.96 0,-322.52 261.45,-583.97 583.97,-583.97z"/>
    <path class="fil1" d="M1667.24 363.95c288,0 521.47,233.47 521.47,521.47 0,287.99 -233.47,521.46 -521.47,521.46 -287.99,0 -521.46,-233.47 -521.46,-521.46 0,-288 233.47,-521.47 521.46,-521.47z"/>
    <path class="fil1" d="M277.66 216.03c254.63,0 461.05,206.42 461.05,461.05 0,254.63 -206.42,461.05 -461.05,461.05 -254.63,0 -461.05,-206.42 -461.05,-461.05 0,-254.63 206.42,-461.05 461.05,-461.05z"/>
   </g>
  </g>
  <polygon class="fil2" points="0,0 1920,0 1920,650 0,650 "/>
 </g>
</svg>
