<?xml version="1.0" encoding="UTF-8"?>
<!DOCTYPE svg PUBLIC "-//W3C//DTD SVG 1.1//EN" "http://www.w3.org/Graphics/SVG/1.1/DTD/svg11.dtd">
<!-- Creator: CorelDRAW 2020 (64-Bit Evaluation Version) -->
<svg xmlns="http://www.w3.org/2000/svg" xml:space="preserve" width="70px" height="65px" version="1.1" style="shape-rendering:geometricPrecision; text-rendering:geometricPrecision; image-rendering:optimizeQuality; fill-rule:evenodd; clip-rule:evenodd"
viewBox="0 0 0.82 0.76"
 xmlns:xlink="http://www.w3.org/1999/xlink"
 xmlns:xodm="http://www.corel.com/coreldraw/odm/2003">
 <defs>
  <style type="text/css">
   <![CDATA[
    .fil2 {fill:none;fill-rule:nonzero}
    .fil3 {fill:#263674;fill-rule:nonzero}
    .fil0 {fill:#EFB30C;fill-rule:nonzero}
    .fil1 {fill:white;fill-opacity:0.501961}
   ]]>
  </style>
    <clipPath id="id0" style="clip-rule:nonzero">
     <path d="M0.07 0.38c-0.02,-0.09 0,-0.17 0.06,-0.24 -0.03,0.06 -0.03,0.12 -0.01,0.18 0.04,0.12 0.17,0.19 0.29,0.15 0.04,-0.01 0.07,-0.04 0.1,-0.06 -0.03,0.05 -0.08,0.1 -0.14,0.12 -0.12,0.04 -0.25,-0.03 -0.3,-0.15z"/>
    </clipPath>
 </defs>
 <g id="Layer_x0020_1">
  <metadata id="CorelCorpID_0Corel-Layer"/>
  <g id="_2237274955056">
   <path class="fil0" d="M0.07 0.38c-0.02,-0.09 0,-0.17 0.06,-0.24 -0.03,0.06 -0.03,0.12 -0.01,0.18 0.04,0.12 0.17,0.19 0.29,0.15 0.04,-0.01 0.07,-0.04 0.1,-0.06 -0.03,0.05 -0.08,0.1 -0.14,0.12 -0.12,0.04 -0.25,-0.03 -0.3,-0.15z"/>
   <g style="clip-path:url(#id0)">
    <g>
     <path id="1" class="fil1" d="M0.69 0.82c0.11,0.04 0.23,0 0.29,-0.1 0.03,-0.05 0.04,-0.1 0.03,-0.15l-0.32 0.25z"/>
    </g>
   </g>
   <path class="fil2" d="M0.07 0.38c-0.02,-0.09 0,-0.17 0.06,-0.24 -0.03,0.06 -0.03,0.12 -0.01,0.18 0.04,0.12 0.17,0.19 0.29,0.15 0.04,-0.01 0.07,-0.04 0.1,-0.06 -0.03,0.05 -0.08,0.1 -0.14,0.12 -0.12,0.04 -0.25,-0.03 -0.3,-0.15z"/>
   <path class="fil3" d="M0.3 0.03c-0.08,0 -0.15,0.03 -0.2,0.09 -0.05,0.06 -0.07,0.13 -0.07,0.2 0.01,0.07 0.04,0.14 0.09,0.18 0.06,0.05 0.13,0.07 0.2,0.07 0.07,-0.01 0.14,-0.04 0.18,-0.09 0.1,-0.12 0.09,-0.29 -0.03,-0.38 -0.05,-0.05 -0.11,-0.07 -0.17,-0.07zm0 0.57c-0.07,0 -0.14,-0.03 -0.2,-0.07 -0.06,-0.06 -0.09,-0.13 -0.1,-0.21 -0.01,-0.08 0.02,-0.16 0.07,-0.22 0.05,-0.06 0.13,-0.09 0.21,-0.1 0.08,-0.01 0.15,0.02 0.22,0.07l0 0c0.12,0.11 0.13,0.3 0.03,0.43 -0.06,0.06 -0.13,0.09 -0.21,0.1 -0.01,0 -0.01,0 -0.02,0z"/>
   <path class="fil3" d="M0.49 0.23c0,0 -0.01,0 -0.01,-0.01 -0.01,-0.01 -0.03,-0.03 -0.04,-0.05 -0.04,-0.03 -0.08,-0.04 -0.13,-0.05 -0.01,0 -0.01,0 -0.01,-0.01 0,-0.01 0.01,-0.02 0.01,-0.02 0.06,0.01 0.11,0.03 0.15,0.06 0.02,0.02 0.03,0.04 0.05,0.06 0,0 0,0.01 -0.01,0.02 0,0 -0.01,0 -0.01,0z"/>
   <path class="fil3" d="M0.17 0.16c0,0 -0.01,0 -0.01,0 -0.01,-0.01 0,-0.02 0,-0.03 0.02,-0.01 0.04,-0.02 0.06,-0.02 0,-0.01 0.01,0 0.02,0.01 0,0.01 -0.01,0.01 -0.01,0.02 -0.02,0 -0.03,0.01 -0.05,0.02 0,0 0,0 -0.01,0z"/>
   <path class="fil3" d="M0.52 0.5l0.06 0.05 0.01 -0.01 -0.06 -0.05 -0.01 0.01zm0.06 0.09l-0.11 -0.09 0.06 -0.06 0.1 0.09 -0.05 0.06z"/>
   <path class="fil3" d="M0.59 0.61l0.12 0.1c0.01,0.01 0.02,0.02 0.03,0.02 0.02,-0.01 0.03,-0.01 0.04,-0.02 0,-0.01 0.01,-0.02 0.01,-0.03 0,-0.02 -0.01,-0.03 -0.02,-0.04l-0.12 -0.1 -0.06 0.07zm0.15 0.15c-0.02,0 -0.04,-0.01 -0.05,-0.02l-0.15 -0.13 0.1 -0.12 0.15 0.13c0.02,0.01 0.03,0.03 0.03,0.05 0,0.02 -0.01,0.04 -0.02,0.06 -0.01,0.02 -0.03,0.03 -0.05,0.03 -0.01,0 -0.01,0 -0.01,0z"/>
  </g>
 </g>
</svg>
