<svg width="20" height="20" viewBox="0 0 20 20" fill="none" xmlns="http://www.w3.org/2000/svg">
<path d="M17.0711 17.0711C13.1658 20.9763 6.83417 20.9763 2.92893 17.0711C-0.976311 13.1658 -0.976311 6.83417 2.92893 2.92893C6.83417 -0.976311 13.1658 -0.976311 17.0711 2.92893C20.9763 6.83417 20.9763 13.1658 17.0711 17.0711Z" fill="url(#paint0_linear_6520_69985)"/>
<path d="M4.54518 7.18554L6.09999 5.62528C6.14533 5.57978 6.20694 5.5542 6.27118 5.5542H15.1823C15.487 5.5542 15.6399 5.92239 15.4248 6.13825L13.87 7.69851C13.8247 7.74401 13.7631 7.76959 13.6988 7.76959H4.7877C4.48296 7.76959 4.33007 7.4014 4.54518 7.18554Z" fill="#222222"/>
<path d="M15.4242 10.5088L13.8693 8.94855C13.824 8.90304 13.7624 8.87746 13.6982 8.87746H4.78703C4.4823 8.87746 4.32941 9.24566 4.54451 9.46152L6.09933 11.0218C6.14467 11.0673 6.20627 11.0929 6.27052 11.0929H15.1816C15.4864 11.0929 15.6393 10.7247 15.4242 10.5088Z" fill="#222222"/>
<path d="M4.54456 13.8924L6.09938 12.3321C6.14472 12.2866 6.20632 12.2611 6.27057 12.2611H15.1817C15.4864 12.2611 15.6393 12.6292 15.4242 12.8451L13.8694 14.4054C13.8241 14.4509 13.7625 14.4764 13.6982 14.4764H4.78709C4.48235 14.4764 4.32946 14.1082 4.54456 13.8924Z" fill="#222222"/>
<defs>
<linearGradient id="paint0_linear_6520_69985" x1="19.972" y1="0.027975" x2="0.0279869" y2="19.972" gradientUnits="userSpaceOnUse">
<stop offset="0.142987" stop-color="#13EFB2"/>
<stop offset="0.856604" stop-color="#D142E9"/>
</linearGradient>
</defs>
</svg>
