<svg id="Layer_1" data-name="Layer 1" xmlns="http://www.w3.org/2000/svg" viewBox="0 0 300 350"><defs><style>.cls-1{fill:#e9ebf1;}.cls-2{fill:#324687;}.cls-2,.cls-3,.cls-4,.cls-5,.cls-6,.cls-7,.cls-8{fill-rule:evenodd;}.cls-3{fill:#263675;}.cls-4{fill:#f7c19b;}.cls-5{opacity:0.11;isolation:isolate;}.cls-6{fill:#ebab7f;}.cls-7{fill:#425999;}.cls-8{fill:#e6e6e6;}</style></defs><rect class="cls-1" width="300" height="350"/><path class="cls-2" d="M280.62,350V316a78.78,78.78,0,0,0-78.55-78.55H97.93A78.78,78.78,0,0,0,19.38,316v34Z"/><path class="cls-3" d="M70.44,249.72c-12.74-43.78,21.9-65.31,35.15-71.51,0,20.22,18.93,6.8,42.42,7.06,19.33.21,57.58,19.68,57.58-6,21.27,6.29,44.46,46.84,28.5,71.75C216,270,145.58,372.33,70.44,249.72Z"/><path class="cls-4" d="M111,210.4l86.49.52v19.93l0,.3a16,16,0,0,1-.4,2.68l-.29,2-.18.41c-5.6,29.41-30.1,40.78-45.23,48.7-15.94-8.68-38.48-24.33-40.27-52l-.08-.34v-1.16c0-.4,0-.8,0-1.2,0,.21,0,.4,0,.61Z"/><path class="cls-5" d="M197.52,210v23.22a41.83,41.83,0,0,1-.55,6.42,34.62,34.62,0,0,1-2.21,7.66c-30,22.7-77.93,4.08-85.58-34.68Z"/><path class="cls-6" d="M213.2,135.18c28.64,7.36,8.54,44.31-9.48,44.16C211,166.33,211.4,150,213.2,135.18Z"/><path class="cls-4" d="M149.87,52c119,0,72.6,188.09,0,188.09C81.29,240.12,30.89,52,149.87,52Z"/><path class="cls-7" d="M86.43,271.16c.17.22,60.39,78.16,131.19-1.16-8.55,23.49-45.44,42.15-66.53,42.09C110.8,312,88.5,279.63,86.43,271.16Z"/><path class="cls-8" d="M182.35,341.66c-2.38.42-4.77.78-7.17,1.11V291a3.64,3.64,0,0,1,7.17,0Zm-56.93,1q-3.6-.51-7.17-1.16V291a3.65,3.65,0,0,1,7.18,0Z"/><path d="M106.18,103s-24.32,75.77-27.87,32.18,0-49.37,0-49.37,10-41.37,66.61-44.48c0,0,43.44-2.67,67.18,31.45,24.71,35.49,16.15,56.29,16.15,56.29S218,166.42,209.88,149.22c-18.37-39.11-2.71-57.1-8.74-50.47C158,146.08,106.18,103,106.18,103Z"/></svg>