<svg width="76" height="76" viewBox="0 0 76 76" fill="none" xmlns="http://www.w3.org/2000/svg">
  <circle cx="38" cy="38" r="38" fill="#FCD535"/>
  <circle cx="38" cy="38" r="38" fill="url(#paint0_linear)" fill-opacity="0.5"/>
  <path d="M34.3228 67.4193L38.0002 70.4838L41.6776 67.4193" stroke="#474D57" stroke-width="1.83871"/>
  <path opacity="0.5" d="M52.7098 8.34363C52.9153 8.44576 53.1196 8.54997 53.3227 8.65623C63.8874 14.1842 71.0969 25.2502 71.0969 38.0001C71.0969 50.9951 63.6076 62.2408 52.7098 67.6566M22.0646 8.9852C11.8349 14.6155 4.90332 25.4983 4.90332 38.0001C4.90332 50.5019 11.8349 61.3847 22.0646 67.015" stroke="white" stroke-width="0.7"/>
  <path d="M33.413 42.981V35.3207H37.9641C39.4061 35.3207 40.4725 34.9452 41.1635 34.1942C41.8544 33.4432 42.1999 32.5119 42.1999 31.4004C42.1999 30.2889 41.8694 29.3727 41.2085 28.6517C40.5777 27.9307 39.6464 27.5702 38.4148 27.5702C37.2131 27.5702 36.2819 27.9458 35.621 28.6968C34.9601 29.4478 34.6297 30.349 34.6297 31.4004H26.7891C26.7891 29.3276 27.2547 27.4801 28.186 25.8579C29.1172 24.2057 30.4691 22.914 32.2414 21.9827C34.0439 21.0214 36.1918 20.5408 38.6851 20.5408C41.0283 20.5408 43.041 20.9764 44.7232 21.8475C46.4356 22.6887 47.7423 23.8753 48.6435 25.4073C49.5748 26.9094 50.0404 28.6817 50.0404 30.7245V31.2652C50.0404 33.7586 49.3044 35.8314 47.8324 37.4836C46.3604 39.1358 44.2726 40.2623 41.569 40.8631L41.5239 42.981H33.413ZM32.8723 54.4264V46.5858H42.0647V54.4264H32.8723Z" fill="#5E6673"/>
  <path d="M25.9249 7.03853L28.4025 12.4913L31.1679 11.2348C31.9726 10.8691 32.2617 9.90835 31.8642 9.0334C31.4418 8.10377 30.5861 8.08732 30.106 8.29604L30.0847 8.24917C30.5704 7.99074 30.905 7.46173 30.5287 6.63365C30.1454 5.78995 29.3465 5.48378 28.4481 5.89199L25.9249 7.03853ZM27.989 8.84328L27.3536 7.44492L28.627 6.86633C29.0019 6.69594 29.3165 6.80748 29.4833 7.17464L29.5934 7.41682C29.7567 7.77617 29.6373 8.0943 29.2623 8.26468L27.989 8.84328ZM29.0361 11.1478L28.3723 9.68698L29.8097 9.03384C30.2003 8.85636 30.5341 8.9686 30.708 9.35139L30.8287 9.617C31.0026 9.99979 30.8641 10.3172 30.4735 10.4947L29.0361 11.1478Z" fill="#474D57"/>
  <path d="M37.9604 7.15396L39.7624 10.2258H41.0066V4.23654H39.934V8.5526H39.9082L39.2904 7.30841L37.4885 4.23654H36.2443V10.2258H37.3169V5.90977H37.3426L37.9604 7.15396Z" fill="#474D57"/>
  <path d="M46.7669 5.26687L44.2893 10.7196L47.0547 11.9762C47.8594 12.3418 48.7733 11.9276 49.1708 11.0527C49.5932 10.1231 49.0428 9.4677 48.5698 9.24336L48.5911 9.19649C49.1053 9.39241 49.7238 9.29646 50.1001 8.46839C50.4834 7.62469 50.1886 6.82157 49.2902 6.41337L46.7669 5.26687ZM46.7652 8.0087L47.4006 6.61035L48.6739 7.18893C49.0489 7.35931 49.1718 7.66962 49.005 8.03678L48.8949 8.27895C48.7316 8.6383 48.4135 8.75765 48.0385 8.58727L46.7652 8.0087ZM45.718 10.3132L46.3818 8.85239L47.8192 9.50551C48.2098 9.68299 48.3448 10.0082 48.1709 10.391L48.0502 10.6566C47.8762 11.0394 47.546 11.1438 47.1554 10.9664L45.718 10.3132Z" fill="#474D57"/>
  <defs>
    <linearGradient id="paint0_linear" x1="38" y1="0" x2="38" y2="76" gradientUnits="userSpaceOnUse">
      <stop stop-color="white"/>
      <stop offset="1" stop-color="white" stop-opacity="0"/>
    </linearGradient>
  </defs>
</svg>
