<svg xmlns="http://www.w3.org/2000/svg" viewBox="0 0 923.14 235.93"><defs><style>.cls-1{isolation:isolate;}.cls-2,.cls-3,.cls-5,.cls-6,.cls-7{fill:#f1d050;}.cls-3{mix-blend-mode:overlay;}.cls-4{opacity:0.26;}.cls-4,.cls-7{mix-blend-mode:color-dodge;}.cls-5,.cls-6{opacity:0.87;}.cls-5{mix-blend-mode:lighten;}</style></defs><g class="cls-1"><g id="图层_1" data-name="图层 1"><path class="cls-2" d="M422.24,389.12H439.8v15.71H404.69V358.61h44.36a9.14,9.14,0,0,0-2.71-6.52,9.74,9.74,0,0,0-2.95-2,8.79,8.79,0,0,0-3.59-.75H404.69a8.75,8.75,0,0,0-3.59.75,9.74,9.74,0,0,0-3,2,9.2,9.2,0,0,0-2.72,6.52v46.22a9.25,9.25,0,0,0,9.26,9.25H439.8a9.19,9.19,0,0,0,6.54-2.71,9.2,9.2,0,0,0,2-2.95,9.1,9.1,0,0,0,.72-3.59v-25H422.24Z" transform="translate(-178.96 -260)"/><path class="cls-2" d="M507.28,358.61v-9.25H460.11v64.72h47.17v-9.25H469.37V386.37h0v-9.25h0V358.61Zm-31.35,18.51v9.25h25.79v-9.25Z" transform="translate(-178.96 -260)"/><path class="cls-2" d="M563.74,349.36v50.19l-38.9-50.19h-9.25V352l9.25,11.94,38.9,50.18H573V349.36Zm-48.15,13.3v51.42h9.25V374.6Z" transform="translate(-178.96 -260)"/><path class="cls-2" d="M631.22,358.61v-9.25H584.06v64.72h47.16v-9.25H593.31V386.37h0v-9.25h0V358.61Zm-31.31,18.51v9.25h25.76v-9.25Z" transform="translate(-178.96 -260)"/><path class="cls-2" d="M686.74,379.82a9.38,9.38,0,0,0-3-2,9.1,9.1,0,0,0-3.59-.72H648.78V358.61h40.66a9.19,9.19,0,0,0-2.7-6.52,9.91,9.91,0,0,0-3-2,8.79,8.79,0,0,0-3.59-.75H648.78a8.79,8.79,0,0,0-3.59.75,9.86,9.86,0,0,0-3,2,9.14,9.14,0,0,0-2.71,6.52v18.51a9.1,9.1,0,0,0,.72,3.59,8.8,8.8,0,0,0,2,2.93,9.89,9.89,0,0,0,3,2,8.78,8.78,0,0,0,3.59.74h31.41v18.46h-.05v.07H638.63a8.76,8.76,0,0,0,.72,3.52,9.33,9.33,0,0,0,2,2.95,9.23,9.23,0,0,0,6.54,2.71h32.32a9.1,9.1,0,0,0,3.59-.72,9.24,9.24,0,0,0,3-2,9.33,9.33,0,0,0,2-2.95,9.1,9.1,0,0,0,.72-3.59V386.37a9.1,9.1,0,0,0-.72-3.59A9.49,9.49,0,0,0,686.74,379.82Z" transform="translate(-178.96 -260)"/><path class="cls-2" d="M700.55,349.36v64.72h9.25V349.36Z" transform="translate(-178.96 -260)"/><path class="cls-2" d="M854.56,389.44a14.84,14.84,0,0,0-1.81-4.31,10.59,10.59,0,0,0-2.84-3,13.4,13.4,0,0,0-3.7-1.81,10.93,10.93,0,0,0,5.39-5.12,19.79,19.79,0,0,0,1.74-8.91v-1.18q0-15.75-15.71-15.75H804.05v64.72h35.43q15.71,0,15.71-15.71v-3.24A23.24,23.24,0,0,0,854.56,389.44Zm-41.43-31h24.23q3.66,0,5.28,1.72c1.08,1.14,1.62,3,1.62,5.41v4.25c0,2.34-.48,4.08-1.46,5.21s-2.58,1.74-4.81,1.83H813.13Zm33,39.5q0,3.65-1.62,5.36T839.21,405H813.13V385.87h26.08q3.66,0,5.28,1.68t1.62,5.36Z" transform="translate(-178.96 -260)"/><path class="cls-2" d="M872.75,404.83V349.36H863.5v64.72H906v-9.25Z" transform="translate(-178.96 -260)"/><path class="cls-2" d="M966.31,355a9.07,9.07,0,0,0-2-2.94,9.91,9.91,0,0,0-3-2,8.79,8.79,0,0,0-3.59-.75h-37a8.79,8.79,0,0,0-3.59.75,9.86,9.86,0,0,0-3,2,9.14,9.14,0,0,0-2.71,6.52v46.22a9.1,9.1,0,0,0,.72,3.59,9.33,9.33,0,0,0,4.94,4.94,9.1,9.1,0,0,0,3.59.72h37a9.1,9.1,0,0,0,3.59-.72,9.24,9.24,0,0,0,3-2,9.33,9.33,0,0,0,2-2.95,9.11,9.11,0,0,0,.73-3.59V358.61A9,9,0,0,0,966.31,355Zm-8.53,49.8h-37V358.61h37Z" transform="translate(-178.96 -260)"/><path class="cls-2" d="M987.35,358.61h44.36a9.14,9.14,0,0,0-2.71-6.52,9.86,9.86,0,0,0-3-2,8.79,8.79,0,0,0-3.59-.75H987.35a8.79,8.79,0,0,0-3.59.75,9.91,9.91,0,0,0-3,2,9.19,9.19,0,0,0-2.7,6.52v46.22a9.1,9.1,0,0,0,.72,3.59,9.33,9.33,0,0,0,2,2.95,9.24,9.24,0,0,0,3,2,9.1,9.1,0,0,0,3.59.72h35.11a9.1,9.1,0,0,0,3.59-.72,9.33,9.33,0,0,0,4.94-4.94,9.1,9.1,0,0,0,.72-3.59H987.35Z" transform="translate(-178.96 -260)"/><path class="cls-2" d="M1041,349.36v64.72h9.25V349.36Z" transform="translate(-178.96 -260)"/><line class="cls-2" x1="748.4" y1="128.62" x2="772.27" y2="114.84"/><polygon class="cls-2" points="772.27 120.37 772.27 109.31 748.4 123.08 748.4 134.14 772.27 120.37"/><polyline class="cls-2" points="877.83 124.97 877.83 117.3 908.7 89.36 921.74 89.36 886.72 121.09 923.14 154.08 910.1 154.08 877.83 124.97"/><path class="cls-2" d="M1056.78,385" transform="translate(-178.96 -260)"/><path class="cls-2" d="M768.07,379.82a9.27,9.27,0,0,0-3-2,9,9,0,0,0-3.58-.72H730.12V358.61h40.66a9.14,9.14,0,0,0-2.71-6.52,9.79,9.79,0,0,0-3-2,8.7,8.7,0,0,0-3.58-.75H730.12a8.72,8.72,0,0,0-3.59.75,9.91,9.91,0,0,0-3,2,9.19,9.19,0,0,0-2.7,6.52v18.51a9.1,9.1,0,0,0,.72,3.59,8.92,8.92,0,0,0,2,2.93,9.94,9.94,0,0,0,3,2,8.71,8.71,0,0,0,3.59.74h31.41v18.46h-.06v.07H720a9.12,9.12,0,0,0,.72,3.52,9.36,9.36,0,0,0,2,2.95,9.13,9.13,0,0,0,3,2,9,9,0,0,0,3.58.72h32.32a9,9,0,0,0,3.58-.72,9.13,9.13,0,0,0,3-2,9.36,9.36,0,0,0,2-2.95,9.1,9.1,0,0,0,.72-3.59V386.37a9.1,9.1,0,0,0-.72-3.59A9.52,9.52,0,0,0,768.07,379.82Z" transform="translate(-178.96 -260)"/><path class="cls-2" d="M344.58,448.29a6.62,6.62,0,0,0-.63-.49l-4.19-2.46-13.82-8.14-6.25-3.68-12.37-7.27-11.14-6.56-6.9-4.09L274.6,407c-3.5-2.06-7-4.15-10.47-6.22a1,1,0,0,0-1.17-.06c-3.63,2.19-7.29,4.35-10.94,6.5l-19.54,11.5-14.41,8.5-19.48,11.45-12.29,7.25c-1.28.75-2.56,1.52-4,2.38,1,.63,1.89,1.16,2.75,1.66l12.46,7.24c2,1.16,3.9,2.38,5.87,3.54,5.6,3.31,11.21,6.59,16.82,9.89l17.27,10.18,15.09,8.88c3.5,2.07,7,4.14,10.5,6.19a1,1,0,0,0,.83,0c1.82-1,3.62-2.11,5.44-3.18l21.33-12.56,25.26-14.87,26-15.31C342.77,449.41,343.63,448.87,344.58,448.29Z" transform="translate(-178.96 -260)"/><path class="cls-2" d="M271,291.18c7.17,1.39,11.57-8.47,13.27-11.34.52-.89-5.33,9.48-11.52,9.14-7.06-.38-7.61-28.69-7.61-28.69H264C264.17,263.86,265.48,290.11,271,291.18Zm6.59,10.57h2.78c.72-13,7.29-23.21,8.15-24.66,0,0-.08-.3-.22-.66C286.31,279.37,278.33,291.88,277.55,301.75Z" transform="translate(-178.96 -260)"/><path class="cls-2" d="M262.62,260.29h-1.1S261,288.6,253.92,289c-6.19.34-12-10-11.53-9.14,1.71,2.87,6.1,12.73,13.27,11.34C261.14,290.11,262.45,263.86,262.62,260.29Zm-24.26,16.14c-.13.36-.22.66-.22.66.87,1.45,7.43,11.64,8.15,24.66h2.78C248.3,291.88,240.31,279.37,238.36,276.43Z" transform="translate(-178.96 -260)"/><polygon class="cls-3" points="85.27 0 85.26 0.01 85.27 0 85.27 0"/><path class="cls-2" d="M288.44,276.73" transform="translate(-178.96 -260)"/><g class="cls-4"><line class="cls-2" x1="108.69" y1="17.08" x2="109.16" y2="16.78"/><line class="cls-2" x1="109.16" y1="16.78" x2="109.63" y2="17.04"/></g><line class="cls-5" x1="108.89" y1="16.5" x2="108.81" y2="16.74"/><line class="cls-6" x1="109.48" y1="16.73" x2="109.37" y2="16.49"/><path class="cls-7" d="M288.67,277.26" transform="translate(-178.96 -260)"/><polygon class="cls-3" points="60.3 16.58 60.3 16.59 60.3 16.58 60.3 16.58"/><path class="cls-2" d="M250.71,281.52a18,18,0,0,1,.7,6c.61.59,3.33.61,3.78-.61a20.85,20.85,0,0,1-3.83-5.44A.92.92,0,0,1,250.71,281.52Z" transform="translate(-178.96 -260)"/><path class="cls-2" d="M275.58,281.52a18,18,0,0,0-.7,6c-.61.59-3.33.61-3.78-.61a20.61,20.61,0,0,0,3.83-5.44A.92.92,0,0,0,275.58,281.52Z" transform="translate(-178.96 -260)"/><line class="cls-2" x1="96.23" y1="21.44" x2="95.86" y2="21.39"/><polygon class="cls-3" points="96.46 21.38 96.46 21.39 96.46 21.38 96.46 21.38"/><path class="cls-2" d="M260.17,303.48c0-.25,0-.5-.05-.9L253,306.77l-16.89,10-17,10-21.81,12.84c-5.88,3.46-11.74,6.94-17.62,10.38a1.21,1.21,0,0,0-.69,1.22q0,45.3,0,90.59c0,.27,0,.54,0,.9a4.5,4.5,0,0,0,.67-.26l8.91-5.24q10-5.88,19.93-11.77L235,409.84l24.35-14.32a1.48,1.48,0,0,0,.84-1.46Q260.16,348.78,260.17,303.48Zm-9.82,27.26a1.19,1.19,0,0,1-.58,1L238,338.64l-36.24,21.18a1.74,1.74,0,0,0-.86,1.5v44.37a.27.27,0,0,0,.42.23l36.56-23.38a.26.26,0,0,0,.12-.23V363.84a.27.27,0,0,0-.4-.24l-23.34,13.64a.54.54,0,0,1-.81-.47V366a1,1,0,0,1,.5-.88L238,351l11.85-6.93a.34.34,0,0,1,.51.3v45.87a.29.29,0,0,1-.13.24L238,397.66l-37.1,21.72-11.95,7a.27.27,0,0,1-.41-.23V356.52a2.27,2.27,0,0,1,1.13-2l3.62-2.12L238,326.32l12-7a.27.27,0,0,1,.4.23Z" transform="translate(-178.96 -260)"/><path class="cls-2" d="M288.33,363.62,325,385.41l-.36,21.26-35.59-21.13a1.53,1.53,0,0,1-.75-1.32Z" transform="translate(-178.96 -260)"/><path class="cls-2" d="M325.44,361.64l-.18,10.5a.49.49,0,0,1-.73.41l-35.37-21a1.69,1.69,0,0,1-.83-1.46V338.55l36.34,21.72A1.56,1.56,0,0,1,325.44,361.64Z" transform="translate(-178.96 -260)"/><path class="cls-2" d="M347.1,350.28q-8.82-5.16-17.62-10.38-10.91-6.42-21.82-12.84l-17-10-16.89-9.95-7.12-4.19c0,.4-.06.65-.06.9q0,45.3,0,90.59a1.49,1.49,0,0,0,.85,1.46q12.18,7.14,24.34,14.31Q305,418,318.22,425.72q10,5.88,19.94,11.77l8.91,5.25c.17.09.37.14.67.26,0-.37,0-.64,0-.9q0-45.3,0-90.59A1.23,1.23,0,0,0,347.1,350.28Zm-15,33.07,5.47,8a2.85,2.85,0,0,1,.49,1.6v34.21l-13.66-8.11h0l-36.12-21.45h0l-12.07-7.16V319.1h0v-.45l.76.45h0l11.27,6.74h0l37.34,22.33h0l12.44,7.43h0l0,24.09a1,1,0,0,1-.59.87l-5.22,2.2A.4.4,0,0,0,332.15,383.35Z" transform="translate(-178.96 -260)"/><line class="cls-2" x1="109.37" y1="65.84" x2="98.1" y2="59.1"/><path class="cls-2" d="M289.3,275a1.55,1.55,0,1,1-2.2-.36A1.57,1.57,0,0,1,289.3,275Z" transform="translate(-178.96 -260)"/><path class="cls-2" d="M240,275.18a1.55,1.55,0,1,1-2.49,1.86,1.55,1.55,0,1,1,2.49-1.86Z" transform="translate(-178.96 -260)"/><path class="cls-2" d="M251.81,280.94a1,1,0,1,1-1-1A1,1,0,0,1,251.81,280.94Z" transform="translate(-178.96 -260)"/><path class="cls-2" d="M274.48,280.94a1,1,0,0,0,1,1,1,1,0,1,0-1-1Z" transform="translate(-178.96 -260)"/></g></g></svg>