<svg enable-background="new 0 0 400 162" viewBox="0 0 400 162" xmlns="http://www.w3.org/2000/svg"><g fill="#3c80f1"><path d="m201.4 89.2c0-14.7 6.5-23.1 19.9-23.1 11.4 0 18.7 6.7 18.7 21.5v1.9c-.1 1.5-1.3 2.8-2.9 2.8h-25.5c.5 9.7 4.5 13.1 13.4 13.1 3.7 0 7.1-.6 10.3-1.7 1.1-.4 2.3.3 2.5 1.5l.6 4.3c.1.9-.4 1.7-1.2 2-3.7 1.6-8.3 2.5-13.4 2.5-15.6 0-22.4-8.2-22.4-24.8zm29.5-3.6c-.2-8.2-3.8-11.2-9.6-11.2-6.7 0-9.5 3.4-10 11.2z"/><path d="m258.8 74.4v25.8c0 4.1 2.2 5.8 6.1 5.8h.8c1.7-.1 3.1 1.2 3.3 2.8l.1 1.5c.1 1.6-.9 3-2.5 3.3-1.4.3-2.9.4-4.5.4-8.7 0-13-5-13-13.5v-26h-2.8c-1.7 0-3-1.3-3-3v-1.5c0-1.7 1.3-3 3-3h3.1l1.4-8.5c.2-1.4 1.3-2.4 2.7-2.6l2-.2c1.8-.2 3.4 1.2 3.4 3.1v8.2h7.8c1.7 0 3 1.3 3 3v1.5c0 1.7-1.3 3-3 3h-7.9z"/><path d="m307.7 113.2c-1.8 0-3.3-1.5-3.3-3.3v-26.7c0-5.4-2.8-8.2-8.8-8.2-4.1 0-7.6 1.8-9.2 4.3v30.9c0 1.7-1.4 3.1-3.1 3.1h-3.6c-1.7 0-3.1-1.4-3.1-3.1v-53.9c0-1.9 1.5-3.4 3.4-3.5l2.7-.1c2-.1 3.8 1.5 3.8 3.5v8.1l-.2 6.2.2.2c3.5-3.2 7.8-4.5 12.2-4.5 9.8 0 15.5 6.2 15.5 17.2v26.7c0 1.8-1.5 3.3-3.3 3.3h-3.2z"/><path d="m321.1 89.2c0-14.7 6.5-23.1 19.9-23.1 11.4 0 18.7 6.7 18.7 21.5v.9c0 2.1-1.8 3.8-3.9 3.8h-24.5c.5 9.7 4.5 13.1 13.4 13.1 3.4 0 6.5-.5 9.5-1.4 1.6-.5 3.2.5 3.4 2.1l.4 2.9c.2 1.2-.5 2.3-1.6 2.8-3.6 1.4-8 2.3-12.9 2.3-15.6-.1-22.4-8.3-22.4-24.9zm29.6-3.6c-.2-8.2-3.8-11.2-9.6-11.2-6.7 0-9.5 3.4-10 11.2z"/><path d="m367.1 110v-39.8c0-1.7 1.3-3.1 3-3.2l1.8-.1c1.7-.1 3.2 1.2 3.3 2.9l.6 5.7h.2c2.8-6 7.6-9.2 13.3-9.2.6 0 1.1 0 1.6.1 1.8.1 3.1 1.7 3 3.4l-.2 3.3c-.1 1.8-1.7 3.2-3.6 3-.5-.1-1-.1-1.5-.1-6.7 0-11.9 5.2-11.9 13.9v20.1c0 1.7-1.4 3.2-3.2 3.2h-3.5c-1.5 0-2.9-1.4-2.9-3.2z"/><path d="m168.8 52h-18.6c-1.6 0-2.9 1.3-2.9 2.9v4.6 2.3 41.8.7 6.1c0 1.6 1.3 2.9 2.9 2.9h18.8c16.9 0 28.2-9.3 28.2-30.3 0-20.2-10.4-31-28.4-31zm0 51.5h-2.9-7.9-.6v-41.8h.6 1.9 8.8c10.4 0 18.5 6.2 18.5 21.1.1 16.1-8.4 20.7-18.4 20.7z"/><path d="m61 14.6c-30.8 0-55.8 25-55.8 55.8 0 3 .3 5.9.9 8.9.1.7.9 1 1.4.6.4-.3.8-.5 1.2-.8 1.9-1.1 4-1.6 6.2-1.6.5 0 1-.5.9-1-.4-2.1-.6-4.1-.6-6.1 0-25.3 20.6-45.9 45.9-45.9s45.9 20.6 45.9 45.9-32.4 57.6-44 69c-1.1 1-2.8 1-3.8 0-3.4-3.4-8.6-8.5-14.3-14.8-.1 0-.2 0-.2 0-4.5-.4-8.8-1.5-12.9-3.1-.3-.1-.5-.2-.8-.3-.8-.3-1.5.7-1 1.3 7.4 9 15.5 17.4 22.8 24.6 2.3 2.3 5.3 3.4 8.3 3.4s6-1.1 8.3-3.4c20.4-20.1 47.5-49.9 47.5-76.7-.1-30.7-25.1-55.8-55.9-55.8z"/><path d="m94.2 73.5c-.1-2-.3-4-.7-6s-1-3.9-1.7-5.8-1.6-3.7-2.6-5.4c-4.2-6.9-10.2-12.4-17.5-15.8-3.6-1.7-7.6-2.8-11.7-3.1-.5 0-1 0-1.6-.1h-.4-.3-.7-2.6-5.2-1.3-.3-.5c-.4 0-.7 0-1.1.1-1.5.2-2.9.6-4.2 1.3-2.6 1.4-4.7 3.7-5.7 6.5-.3.7-.4 1.4-.6 2.1-.1.4-.1.7-.1 1.1v.6.4 2.6 5.2 20.8 5.2 2.6c0 1 0 1.4-.1 2-.1.5-.2.9-.3 1.3-.1.3-.3.6-.5.9-.4.5-1 .8-1.9 1.1s-2.1.4-3.4.3-2.6-.4-3.9-.8c-2.6-.9-5.1-2.3-7-4.1-1.5-1.5-3.9-1.8-5.9-.7-2.4 1.3-3.2 4.4-1.9 6.8 3.5 6.2 8.2 12 14.1 16.5 3 2.2 6.3 4.1 9.8 5.4 3.5 1.4 7.2 2.2 10.9 2.6 7.5.7 15-.6 21.8-3.4s12.9-7.2 17.7-12.9l.1.1c2.5-2.9 4.8-6.2 6.4-10s2.4-7.8 2.7-11.6c.1-1 .1-1.9.2-2.9v-1.4c0-.5 0-1 0-1.5zm-10 2.6c0 .8-.1 1.6-.1 2.3-.3 3.1-.9 5.9-2 8.5s-2.8 5-4.8 7.4l.1.1c-3.9 4.3-8.7 7.9-14.1 10.1-5.4 2.3-11.3 3.3-16.9 2.7-5.5-.5-10.7-2.5-15.3-5.8 1.4-.1 2.8-.2 4.3-.7 1.2-.3 2.4-.8 3.6-1.5s2.3-1.6 3.2-2.7 1.6-2.3 2.2-3.6c.5-1.3.8-2.5 1-3.7s.2-2.5.2-3.2v-2.6-5.2-20.9-5.2-2.6-.2-.1c0-.1 0-.1 0-.2s.1-.2.1-.4c.2-.5.5-.9 1-1.1.2-.1.5-.2.7-.2h.2.1.3 1.3 5.2 2.5.7.3.3 1c2.8.2 5.6 1 8.2 2.2 5.3 2.5 10 6.7 13 11.8.7 1.3 1.4 2.6 1.9 3.9.5 1.4.9 2.8 1.2 4.2s.5 2.9.5 4.3v1.1z"/></g></svg>