<svg width="300" height="100" viewBox="0 0 300 100" fill="none" xmlns="http://www.w3.org/2000/svg">
  <g filter="url(#filter0_bii)">
    <mask id="path-1-inside-1" fill="white">
      <path fill-rule="evenodd" clip-rule="evenodd" d="M300 0H0V88H135L150 100L165 88H300V0Z"/>
    </mask>
    <path fill-rule="evenodd" clip-rule="evenodd" d="M300 0H0V88H135L150 100L165 88H300V0Z" fill="#E2D6C9" fill-opacity="0.5"/>
    <path fill-rule="evenodd" clip-rule="evenodd" d="M300 0H0V88H135L150 100L165 88H300V0Z" fill="url(#paint0_linear)"/>
    <path d="M0 0V-1H-1V0H0ZM300 0H301V-1H300V0ZM0 88H-1V89H0V88ZM135 88L135.625 87.2191L135.351 87H135V88ZM150 100L149.375 100.781L150 101.281L150.625 100.781L150 100ZM165 88V87H164.649L164.375 87.2191L165 88ZM300 88V89H301V88H300ZM0 1H300V-1H0V1ZM1 88V0H-1V88H1ZM135 87H0V89H135V87ZM150.625 99.2191L135.625 87.2191L134.375 88.7809L149.375 100.781L150.625 99.2191ZM164.375 87.2191L149.375 99.2191L150.625 100.781L165.625 88.7809L164.375 87.2191ZM300 87H165V89H300V87ZM299 0V88H301V0H299Z" fill="white" mask="url(#path-1-inside-1)"/>
  </g>
  <defs>
    <filter id="filter0_bii" x="-44" y="-44" width="388" height="188" filterUnits="userSpaceOnUse" color-interpolation-filters="sRGB">
      <feFlood flood-opacity="0" result="BackgroundImageFix"/>
      <feGaussianBlur in="BackgroundImage" stdDeviation="22"/>
      <feComposite in2="SourceAlpha" operator="in" result="effect1_backgroundBlur"/>
      <feBlend mode="normal" in="SourceGraphic" in2="effect1_backgroundBlur" result="shape"/>
      <feColorMatrix in="SourceAlpha" type="matrix" values="0 0 0 0 0 0 0 0 0 0 0 0 0 0 0 0 0 0 127 0" result="hardAlpha"/>
      <feOffset/>
      <feGaussianBlur stdDeviation="5.5"/>
      <feComposite in2="hardAlpha" operator="arithmetic" k2="-1" k3="1"/>
      <feColorMatrix type="matrix" values="0 0 0 0 1 0 0 0 0 1 0 0 0 0 1 0 0 0 0.07 0"/>
      <feBlend mode="normal" in2="shape" result="effect2_innerShadow"/>
      <feColorMatrix in="SourceAlpha" type="matrix" values="0 0 0 0 0 0 0 0 0 0 0 0 0 0 0 0 0 0 127 0" result="hardAlpha"/>
      <feOffset/>
      <feGaussianBlur stdDeviation="2"/>
      <feComposite in2="hardAlpha" operator="arithmetic" k2="-1" k3="1"/>
      <feColorMatrix type="matrix" values="0 0 0 0 1 0 0 0 0 1 0 0 0 0 1 0 0 0 0.09 0"/>
      <feBlend mode="normal" in2="effect2_innerShadow" result="effect3_innerShadow"/>
    </filter>
    <linearGradient id="paint0_linear" x1="150" y1="0" x2="150" y2="100" gradientUnits="userSpaceOnUse">
      <stop stop-color="#F5F5F5"/>
      <stop offset="1" stop-color="white" stop-opacity="0"/>
    </linearGradient>
  </defs>
</svg>
