<svg viewBox="0 0 875.48 142.76" xmlns="http://www.w3.org/2000/svg" xmlns:xlink="http://www.w3.org/1999/xlink"><linearGradient id="a" gradientTransform="matrix(1 0 0 -1 -36.08 144.62)" gradientUnits="userSpaceOnUse" x1="36.03" x2="983.75" y1="81.29" y2="103.61"><stop offset="0" stop-color="#4400e2"/><stop offset=".04" stop-color="#7013c5"/><stop offset=".09" stop-color="#9a25aa"/><stop offset=".13" stop-color="#bc3494"/><stop offset=".18" stop-color="#d73f82"/><stop offset=".23" stop-color="#ea4876"/><stop offset=".28" stop-color="#f54c6e"/><stop offset=".33" stop-color="#f94e6c"/><stop offset="1" stop-color="#ffd402"/></linearGradient><linearGradient id="b" gradientTransform="matrix(1 0 0 -1 0 162)" x1="36.49" x2="984.21" xlink:href="#a" y1="61.65" y2="83.98"/><linearGradient id="c" gradientTransform="matrix(1 0 0 -1 0 162)" x1="36.28" x2="984" xlink:href="#a" y1="70.84" y2="93.17"/><linearGradient id="d" gradientTransform="matrix(1 0 0 -1 0 162)" x1="36.57" x2="984.29" xlink:href="#a" y1="58.28" y2="80.6"/><linearGradient id="e" x1="36.19" x2="983.91" xlink:href="#a" y1="74.56" y2="96.89"/><linearGradient id="f" gradientTransform="matrix(1 0 0 -1 0 162)" x1="36.24" x2="983.96" xlink:href="#a" y1="72.35" y2="94.67"/><linearGradient id="g" gradientTransform="matrix(1 0 0 -1 0 162)" x1="36.7" x2="984.42" xlink:href="#a" y1="52.91" y2="75.24"/><linearGradient id="h" x1="37.09" x2="984.81" xlink:href="#a" y1="36.16" y2="58.49"/><linearGradient id="i" gradientTransform="matrix(1 0 0 -1 0 162)" x1="35.97" x2="983.69" xlink:href="#a" y1="83.77" y2="106.09"/><linearGradient id="j" gradientTransform="matrix(1 0 0 -1 0 162)" x1="35.9" x2="983.62" xlink:href="#a" y1="86.86" y2="109.18"/><linearGradient id="k" gradientTransform="matrix(1 0 0 -1 0 162)" x1="35.92" x2="983.64" xlink:href="#a" y1="85.83" y2="108.15"/><linearGradient id="l" gradientTransform="matrix(1 0 0 -1 0 162)" x1="35.95" x2="983.66" xlink:href="#a" y1="84.9" y2="107.22"/><path d="m249.17 81.96-33.2-79.63h-28.37v110.26h20.58v-76.67l31.79 76.67h17.93l31.8-77.29v77.29h21.2v-110.26h-29.31z" fill="url(#a)"/><path d="m402.16 51.12c-19.64 0-37.72 15.86-37.72 40.28 0 25.82 18.55 40.9 39.59 40.9 18.86 0 31-11 34.91-24.26l-17.3-5.13c-2.5 6.84-7.79 11.66-17.46 11.66-10.29 0-18.86-7.31-19.33-17.42h54.87c0-.31.31-3.42.31-6.38-.03-24.56-14.18-39.65-37.87-39.65zm-16.84 31.88c.47-7 6.39-15.09 17.15-15.09 11.85 0 16.83 7.46 17.15 15.09z" fill="url(#b)" transform="translate(-36.08 -17.38)"/><path d="m482 30.6h-18.7v10.73c0 6.84-3.74 12.13-11.85 12.13h-3.9v18.35h13.87v35.61c0 14.77 9.35 23.64 24.32 23.64 6.08 0 9.82-1.09 11.69-1.87v-17.11a30.26 30.26 0 0 1 -6.39.62c-5.92 0-9-2.18-9-8.86v-32h15.43v-18.39h-15.47z" fill="url(#c)" transform="translate(-36.08 -17.38)"/><path d="m587.8 53.46h-20.11v9.49c-1.87-4.35-8.26-11.66-22-11.66-22.29 0-36.94 17.73-36.94 40.12 0 23.17 15 40.75 37.57 40.75 10.29 0 18.24-5.29 21.51-12.6v.93a62.23 62.23 0 0 0 .78 9.49h19.8c-.16-1.71-.62-7-.62-13.84v-62.68zm-39 60.8c-11.22 0-19.17-9-19.17-22.86 0-14 8.1-22.24 19.17-22.24 10.91 0 18.86 8.24 18.86 22.24s-8.07 22.86-18.82 22.86z" fill="url(#d)" transform="translate(-36.08 -17.38)"/><path d="m573.86 0v112.59.01h20.74v-112.6h-.01z" fill="url(#e)"/><path d="m695.67 19.71h-41.31v110.29h21.51v-41.55h19.79c21.82 0 36.32-14.31 36.32-34.37s-14.49-34.37-36.31-34.37zm-2.67 50.23h-17v-31.57h17c10.76 0 17.3 6.07 17.3 15.86.02 9.49-6.52 15.71-17.3 15.71z" fill="url(#f)" transform="translate(-36.08 -17.38)"/><path d="m815.54 53.46h-20.11v9.49c-1.87-4.35-8.26-11.66-22-11.66-22.29 0-36.94 17.73-36.94 40.12 0 23.17 15 40.75 37.57 40.75 10.29 0 18.24-5.29 21.51-12.6v.93a62.23 62.23 0 0 0 .78 9.49h19.8c-.16-1.71-.62-7-.62-13.84v-62.68zm-39 60.8c-11.22 0-19.17-9-19.17-22.86 0-14 8.11-22.24 19.17-22.24 10.91 0 18.86 8.24 18.86 22.24s-8.08 22.86-18.83 22.86z" fill="url(#g)" transform="translate(-36.08 -17.38)"/><path d="m853.34 36.08-18.86 44.79-20.42-44.79h-23.22l32.57 66.87-18.08 39.81h21.98l48.17-106.68z" fill="url(#h)"/><path d="m176.84 18a9.46 9.46 0 0 0 -9.46 9.46v95a9.46 9.46 0 0 0 18.92 0v-95a9.45 9.45 0 0 0 -9.46-9.46z" fill="url(#i)" transform="translate(-36.08 -17.38)"/><path d="m45.54 18a9.46 9.46 0 0 0 -9.46 9.46v95a9.46 9.46 0 0 0 18.92 0v-95a9.45 9.45 0 0 0 -9.46-9.46z" fill="url(#j)" transform="translate(-36.08 -17.38)"/><path d="m89.31 37.71a9.46 9.46 0 0 0 -9.46 9.46v55.49a9.46 9.46 0 0 0 18.92 0v-55.49a9.46 9.46 0 0 0 -9.46-9.46z" fill="url(#k)" transform="translate(-36.08 -17.38)"/><path d="m133.08 53.65a9.46 9.46 0 0 0 -9.46 9.46v23.41a9.46 9.46 0 0 0 18.92 0v-23.41a9.46 9.46 0 0 0 -9.46-9.46z" fill="url(#l)" transform="translate(-36.08 -17.38)"/></svg>