<svg xmlns="http://www.w3.org/2000/svg" width="60" height="60" viewBox="0 0 12.84 12.84" shape-rendering="geometricPrecision" image-rendering="optimizeQuality" fill-rule="evenodd" xmlns:v="https://vecta.io/nano"><path d="M2.01 4.08h4.08V0l-.71.71v2.45H2.93z" fill="#263674"/><path d="M12.84 6.67H8.76v4.08l.86-.85V7.59h2.3z" fill="#fdcb08"/><path d="M1.47 12.84H0v-1.47z" fill="#263674"/><circle cx="4.16" cy="8.68" r="4.16" fill="#fdcb08"/><circle cx="4.16" cy="8.68" r="3.76" fill="#ffe063"/><circle cx="4.16" cy="8.68" r="3.3" fill="#fdcb08"/><g stroke="#ffe063" stroke-width=".19" stroke-linecap="round" stroke-miterlimit="2.61313" fill="none"><path d="M4.16 5.7v.82m-.62-.75l.17.79m-.76-.6l.33.74m-.87-.43l.48.66m-.94-.24l.61.54m-.98-.04l.71.41m-.96.16l.78.25m-.91.36l.81.08m-.81.54l.81-.09m-.68.7l.78-.25m-.53.82l.71-.41m-.34.91l.61-.55m-.15.97l.48-.66m.06.97l.33-.75m.26.94l.17-.8m.45.87v-.82m.62.75l-.17-.8m.76.61l-.33-.75m.87.44l-.48-.66m.94.24l-.6-.55m.97.05l-.71-.41m.96-.16l-.77-.25m.9-.36l-.81-.09m.81-.53l-.81.08"/><path d="M6.99 7.76l-.77.25m.52-.82l-.71.41m.34-.91l-.6.54m.14-.96l-.48.66m-.06-.97l-.33.74m-.26-.93l-.17.79"/></g><circle cx="9.79" cy="3.06" r="3.06" fill="#263674"/><circle cx="9.79" cy="3.06" r="2.76" fill="#505c8f"/><circle cx="9.79" cy="3.06" r="2.42" fill="#263674"/><g stroke-width=".19" stroke-linecap="round" stroke-miterlimit="2.61313" fill="none" stroke="#505c8f"><path d="M9.79.87v.6M9.33.92l.13.58m-.56-.44l.24.55m-.64-.32l.35.48m-.69-.18l.45.4m-.72-.03l.52.3m-.7.12l.57.18m-.67.27l.6.06m-.6.39l.6-.06m-.5.51l.57-.18m-.39.6l.52-.3m-.25.67l.45-.4m-.11.7l.35-.48m.05.71l.24-.55m.19.69l.13-.58m.33.63v-.6m.45.55l-.13-.58m.56.44l-.24-.55m.64.32l-.35-.48m.69.18l-.45-.4m.72.03l-.52-.3m.7-.12l-.57-.18m.67-.27l-.6-.06m.6-.39l-.6.06"/><path d="M11.86 2.38l-.57.18m.39-.6l-.52.3m.25-.67l-.45.4m.11-.7l-.35.48m-.05-.71l-.24.55m-.19-.69l-.12.58"/></g><circle cx="4.16" cy="8.68" r="1.52" fill="#ffe063"/><circle cx="9.79" cy="3.06" r="1.09" fill="#505c8f"/></svg>