<?xml version="1.0" encoding="UTF-8"?>
<!DOCTYPE svg PUBLIC "-//W3C//DTD SVG 1.1//EN" "http://www.w3.org/Graphics/SVG/1.1/DTD/svg11.dtd">
<!-- Creator: CorelDRAW 2020 (64-Bit Evaluation Version) -->
<svg xmlns="http://www.w3.org/2000/svg" xml:space="preserve" width="200px" height="199px" version="1.1" style="shape-rendering:geometricPrecision; text-rendering:geometricPrecision; image-rendering:optimizeQuality; fill-rule:evenodd; clip-rule:evenodd"
viewBox="0 0 22.61 22.47"
 xmlns:xlink="http://www.w3.org/1999/xlink"
 xmlns:xodm="http://www.corel.com/coreldraw/odm/2003">
 <defs>
  <style type="text/css">
   <![CDATA[
    .fil0 {fill:#263674}
    .fil1 {fill:#FACC0D}
   ]]>
  </style>
 </defs>
 <g id="Layer_x0020_1">
  <metadata id="CorelCorpID_0Corel-Layer"/>
  <g id="_2074137309920">
   <path class="fil0" d="M0.07 9.98c-0.2,1.79 0.04,3.84 0.71,5.44 0.9,2.12 2.1,3.57 3.56,4.75 0.34,0.26 0.84,0.59 1.26,0.83 4.89,2.84 11.77,1.46 14.93,-3.29 0.23,-0.34 0.28,-0.42 0.14,-0.64l-0.54 -0.91c-0.16,-0.28 -0.33,-0.63 -0.5,-0.88 -2.23,6.41 -14.29,7.45 -17.12,-1.29 -0.13,-0.4 -0.24,-0.84 -0.29,-1.28 -0.05,-0.41 -0.08,-0.72 -0.06,-1.14 0,-0.11 -0.01,-0.2 0.06,-0.28 0.31,0.59 0.66,1.21 0.98,1.79l1.47 2.66c0.28,0.52 0.67,1.31 1.09,1.69 1.53,1.38 2.64,-3.11 3.33,-3.36 0.2,0.1 1.24,2.01 1.36,2.33 0.09,0.04 0.4,0.74 0.75,1.05 0.41,0.36 0.92,0.25 1.25,-0.07 0.45,-0.44 2.11,-3.68 2.65,-4.6 0.21,-0.36 0.47,-0.74 0.59,-1.2 0.15,-0.58 -0.4,-1.9 -0.78,-2.17 -0.29,-0.05 -0.41,0.14 -0.51,0.34 -0.7,1.38 -1.52,2.73 -2.22,4.11 -0.07,0.14 -0.14,0.33 -0.27,0.39 -0.22,0.09 -0.28,-0.06 -0.34,-0.21 -0.12,-0.28 -0.3,-0.56 -0.45,-0.84l-1.28 -2.5c-0.33,-0.14 -0.38,0.15 -0.52,0.41 -0.11,0.21 -0.22,0.4 -0.33,0.61 -0.23,0.41 -0.46,0.82 -0.68,1.23 -0.25,0.46 -0.58,1.06 -0.92,0.29 -0.14,-0.31 -0.65,-1.37 -0.89,-1.6 -0.01,0.01 -0.02,0.02 -0.02,0.02 -0.23,0.25 -0.6,1.07 -0.78,1.26 -0.27,-0.02 -0.43,-0.38 -0.54,-0.6l-2.69 -5.06 -0.88 -1.57c-0.69,0.08 -1.41,3.66 -1.52,4.29z"/>
   <path class="fil1" d="M21.02 16.84c0.53,-0.38 1.21,-2.81 1.37,-3.61 0.61,-3.01 -0.1,-5.1 -1.43,-7.73 -1.96,-3.03 -4.7,-5 -8.37,-5.43 -1.51,-0.18 -3.22,0 -4.64,0.44 -2.36,0.74 -4.61,2.29 -5.98,4.37 -0.27,0.41 0.61,2.26 1.07,2.29 0.94,-1.56 1.65,-2.57 3.19,-3.58 3.94,-2.61 9.66,-1.58 12.44,2.22 0.89,1.22 1.99,3.84 1.78,5.41 -0.17,-0.01 -0.45,-0.61 -0.54,-0.76 -0.45,-0.74 -0.89,-1.6 -1.3,-2.37 -0.26,-0.52 -1.59,-3.28 -2.42,-3.28 -1.08,0 -2.12,3.53 -2.77,3.65 -0.3,-0.51 -0.6,-1.07 -0.91,-1.58 -0.31,-0.52 -0.9,-1.89 -1.56,-2.03 -0.96,-0.2 -1.67,1.55 -2.06,2.21 -0.08,0.2 -0.47,0.84 -0.61,1.13 -0.42,0.85 -0.88,1.61 -1.28,2.39 -0.31,0.59 -0.38,0.44 -0.15,1.06 0.17,0.27 0.65,1.4 0.86,1.47 0.35,0.14 0.92,-1.26 1.05,-1.5 0.33,-0.64 0.8,-1.45 1.1,-2.05 0.13,-0.28 0.63,-1.61 1.04,-1.18 0.52,0.54 1.3,2.78 1.99,3.56 0.15,-0.12 0.99,-1.74 1.1,-1.95 0.09,-0.18 0.59,-1.2 0.92,-1.05 0.44,0.19 0.93,1.46 1.21,1.94 0.19,-0.33 0.49,-0.78 0.84,-1.38 0.74,1.15 3.74,7.21 4.06,7.34z"/>
  </g>
 </g>
</svg>
