<svg width="111" height="55" viewBox="0 0 111 55" fill="none" xmlns="http://www.w3.org/2000/svg">
<rect x="0.960693" y="0.720703" width="110" height="54" rx="5" fill="#2B3139"/>
<path d="M43.0081 17.4387V23.7207H45.2311C46.8331 23.7207 47.8861 22.6767 47.8861 20.5797C47.8861 18.4827 46.8331 17.4387 45.2311 17.4387H43.0081ZM45.2311 22.8207H44.0251V18.3387H45.2311C46.1671 18.3387 46.7971 18.9417 46.7971 20.0757V21.0837C46.7971 22.2177 46.1671 22.8207 45.2311 22.8207ZM50.9157 23.8287C52.2207 23.8287 53.0667 22.8747 53.0667 21.3807C53.0667 19.8867 52.2207 18.9327 50.9157 18.9327C49.6107 18.9327 48.7647 19.8867 48.7647 21.3807C48.7647 22.8747 49.6107 23.8287 50.9157 23.8287ZM50.9157 23.0187C50.2497 23.0187 49.7997 22.6047 49.7997 21.7767V20.9847C49.7997 20.1567 50.2497 19.7427 50.9157 19.7427C51.5817 19.7427 52.0317 20.1567 52.0317 20.9847V21.7767C52.0317 22.6047 51.5817 23.0187 50.9157 23.0187ZM53.6302 19.0407L54.9082 23.7207H55.9882L56.6092 21.5877L56.9782 20.2737H56.9962L57.9862 23.7207H59.0932L60.3532 19.0407H59.4442L58.9582 21.0027L58.5442 22.7757H58.5172L58.0222 21.0027L57.4462 19.0407H56.5642L55.9972 21.0027L55.5112 22.7757H55.4842L55.0612 21.0027L54.5842 19.0407H53.6302ZM61.2877 23.7207H62.2687V20.5887C62.2687 20.0397 62.7727 19.7787 63.2857 19.7787C63.8887 19.7787 64.1677 20.1477 64.1677 20.8767V23.7207H65.1487V20.7507C65.1487 19.5987 64.5817 18.9327 63.6277 18.9327C62.9077 18.9327 62.5117 19.3107 62.3137 19.8147H62.2687V19.0407H61.2877V23.7207ZM67.5074 23.7207H68.1374V22.9197H67.4894V17.0607H66.5084V22.7487C66.5084 23.3517 66.8414 23.7207 67.5074 23.7207ZM70.9108 23.8287C72.2158 23.8287 73.0618 22.8747 73.0618 21.3807C73.0618 19.8867 72.2158 18.9327 70.9108 18.9327C69.6058 18.9327 68.7598 19.8867 68.7598 21.3807C68.7598 22.8747 69.6058 23.8287 70.9108 23.8287ZM70.9108 23.0187C70.2448 23.0187 69.7948 22.6047 69.7948 21.7767V20.9847C69.7948 20.1567 70.2448 19.7427 70.9108 19.7427C71.5768 19.7427 72.0268 20.1567 72.0268 20.9847V21.7767C72.0268 22.6047 71.5768 23.0187 70.9108 23.0187ZM77.5839 23.7207H78.1329V22.9197H77.6379V20.5707C77.6379 19.5267 76.9629 18.9327 75.7569 18.9327C74.8479 18.9327 74.2989 19.3197 73.9929 19.8417L74.5779 20.3727C74.8119 20.0037 75.1449 19.7337 75.6939 19.7337C76.3509 19.7337 76.6569 20.0667 76.6569 20.6337V21.0297H75.8109C74.5059 21.0297 73.8129 21.5067 73.8129 22.4337C73.8129 23.2797 74.3619 23.8287 75.3249 23.8287C76.0089 23.8287 76.5129 23.5227 76.6929 22.9377H76.7379C76.8009 23.3967 77.0709 23.7207 77.5839 23.7207ZM75.6039 23.0817C75.1179 23.0817 74.8119 22.8657 74.8119 22.4517V22.2897C74.8119 21.8847 75.1449 21.6597 75.8289 21.6597H76.6569V22.3347C76.6569 22.7937 76.2069 23.0817 75.6039 23.0817ZM82.0373 22.9467V23.7207H83.0183V17.0607H82.0373V19.8147H81.9923C81.7943 19.2567 81.2993 18.9327 80.6783 18.9327C79.4993 18.9327 78.8153 19.8417 78.8153 21.3807C78.8153 22.9197 79.4993 23.8287 80.6783 23.8287C81.2993 23.8287 81.7943 23.4957 81.9923 22.9467H82.0373ZM80.9753 22.9827C80.3003 22.9827 79.8503 22.5057 79.8503 21.7857V20.9757C79.8503 20.2557 80.3003 19.7787 80.9753 19.7787C81.5693 19.7787 82.0373 20.1027 82.0373 20.5797V22.1817C82.0373 22.6587 81.5693 22.9827 80.9753 22.9827ZM86.7905 19.8417V23.7207H87.7715V19.8417H88.7525V19.0407H87.7715V17.8617H88.7525V17.0607H87.9785C87.1955 17.0607 86.7905 17.5107 86.7905 18.2667V19.0407H86.0795V19.8417H86.7905ZM91.4069 23.8287C92.7119 23.8287 93.5579 22.8747 93.5579 21.3807C93.5579 19.8867 92.7119 18.9327 91.4069 18.9327C90.1019 18.9327 89.2559 19.8867 89.2559 21.3807C89.2559 22.8747 90.1019 23.8287 91.4069 23.8287ZM91.4069 23.0187C90.7409 23.0187 90.2909 22.6047 90.2909 21.7767V20.9847C90.2909 20.1567 90.7409 19.7427 91.4069 19.7427C92.0729 19.7427 92.5229 20.1567 92.5229 20.9847V21.7767C92.5229 22.6047 92.0729 23.0187 91.4069 23.0187ZM94.651 23.7207H95.632V20.7327C95.632 20.2467 96.064 19.9857 96.838 19.9857H97.225V19.0407H96.964C96.217 19.0407 95.812 19.4637 95.677 19.9407H95.632V19.0407H94.651V23.7207Z" fill="#EAECEF"/>
<path d="M44.6067 37.3105H46.3847L47.6587 32.2565L48.4007 29.2885H48.4287L49.1567 32.2565L50.4027 37.3105H52.1807L54.5887 27.5385H53.0347L52.0127 32.2425L51.2987 35.4765H51.2567L50.4867 32.2425L49.3387 27.5385H47.5747L46.4127 32.2425L45.6287 35.4905H45.5867L43.9067 27.5385H42.2967L44.6067 37.3105ZM56.7836 28.7285C57.4136 28.7285 57.6796 28.3925 57.6796 27.9305V27.6925C57.6796 27.2305 57.4136 26.8945 56.7836 26.8945C56.1536 26.8945 55.8736 27.2305 55.8736 27.6925V27.9305C55.8736 28.3925 56.1536 28.7285 56.7836 28.7285ZM56.0136 30.0305V37.3105H57.5396V30.0305H56.0136ZM59.7187 37.3105H61.2447V32.4385C61.2447 31.5845 62.0287 31.1785 62.8267 31.1785C63.7647 31.1785 64.1987 31.7525 64.1987 32.8865V37.3105H65.7247V32.6905C65.7247 30.8985 64.8427 29.8625 63.3587 29.8625C62.2387 29.8625 61.6227 30.4505 61.3147 31.2345H61.2447V30.0305H59.7187V37.3105ZM72.4178 36.1065V37.3105H73.9438V26.9505H72.4178V31.2345H72.3478C72.0398 30.3665 71.2698 29.8625 70.3038 29.8625C68.4698 29.8625 67.4058 31.2765 67.4058 33.6705C67.4058 36.0645 68.4698 37.4785 70.3038 37.4785C71.2698 37.4785 72.0398 36.9605 72.3478 36.1065H72.4178ZM70.7658 36.1625C69.7158 36.1625 69.0158 35.4205 69.0158 34.3005V33.0405C69.0158 31.9205 69.7158 31.1785 70.7658 31.1785C71.6898 31.1785 72.4178 31.6825 72.4178 32.4245V34.9165C72.4178 35.6585 71.6898 36.1625 70.7658 36.1625ZM78.981 37.4785C81.011 37.4785 82.327 35.9945 82.327 33.6705C82.327 31.3465 81.011 29.8625 78.981 29.8625C76.951 29.8625 75.635 31.3465 75.635 33.6705C75.635 35.9945 76.951 37.4785 78.981 37.4785ZM78.981 36.2185C77.945 36.2185 77.245 35.5745 77.245 34.2865V33.0545C77.245 31.7665 77.945 31.1225 78.981 31.1225C80.017 31.1225 80.717 31.7665 80.717 33.0545V34.2865C80.717 35.5745 80.017 36.2185 78.981 36.2185ZM83.2036 30.0305L85.1916 37.3105H86.8716L87.8376 33.9925L88.4116 31.9485H88.4396L89.9796 37.3105H91.7016L93.6616 30.0305H92.2476L91.4916 33.0825L90.8476 35.8405H90.8056L90.0356 33.0825L89.1396 30.0305H87.7676L86.8856 33.0825L86.1296 35.8405H86.0876L85.4296 33.0825L84.6876 30.0305H83.2036ZM97.3842 37.4785C99.1342 37.4785 100.268 36.5405 100.268 35.1405C100.268 33.9645 99.5542 33.2645 97.9582 33.0265L97.2862 32.9425C96.5162 32.8165 96.1662 32.5645 96.1662 32.0045C96.1662 31.4585 96.5582 31.0945 97.3982 31.0945C98.1822 31.0945 98.7982 31.4725 99.1762 31.9205L100.114 31.0245C99.4562 30.2965 98.7142 29.8625 97.3982 29.8625C95.8022 29.8625 94.6962 30.6885 94.6962 32.1025C94.6962 33.4465 95.6062 34.0905 97.0902 34.2725L97.7622 34.3565C98.5182 34.4545 98.7982 34.8045 98.7982 35.2665C98.7982 35.8825 98.3502 36.2465 97.4682 36.2465C96.6002 36.2465 95.9422 35.8545 95.4102 35.2105L94.4302 36.1065C95.1162 36.9605 96.0122 37.4785 97.3842 37.4785Z" fill="#EAECEF"/>
<g clip-path="url(#clip0_4474_65156)">
<g clip-path="url(#clip1_4474_65156)">
<path d="M11.9607 18.4707V25.9707H22.4607V17.1582L11.9607 18.4707Z" fill="#EAECEF"/>
<path d="M23.9607 16.9707V25.9707H35.9607V15.4707L23.9607 16.9707Z" fill="#EAECEF"/>
<path d="M23.9607 27.4707V36.4707L35.9607 37.9707V27.4707H23.9607Z" fill="#EAECEF"/>
<path d="M11.9607 27.4707V34.9707L22.4607 36.2832V27.4707H11.9607Z" fill="#EAECEF"/>
</g>
</g>
<defs>
<clipPath id="clip0_4474_65156">
<rect width="24" height="24" fill="white" transform="translate(11.9607 14.7207)"/>
</clipPath>
<clipPath id="clip1_4474_65156">
<rect width="24" height="24" fill="white" transform="translate(11.9607 14.7207)"/>
</clipPath>
</defs>
</svg>
