<?xml version="1.0" encoding="UTF-8"?>
<!DOCTYPE svg PUBLIC "-//W3C//DTD SVG 1.1//EN" "http://www.w3.org/Graphics/SVG/1.1/DTD/svg11.dtd">
<!-- Creator: CorelDRAW 2020 (64-Bit Evaluation Version) -->
<svg xmlns="http://www.w3.org/2000/svg" xml:space="preserve" width="40px" height="40px" version="1.1" style="shape-rendering:geometricPrecision; text-rendering:geometricPrecision; image-rendering:optimizeQuality; fill-rule:evenodd; clip-rule:evenodd"
viewBox="0 0 13.41 13.41"
 xmlns:xlink="http://www.w3.org/1999/xlink"
 xmlns:xodm="http://www.corel.com/coreldraw/odm/2003">
 <defs>
  <style type="text/css">
   <![CDATA[
    .fil1 {fill:#263674}
    .fil0 {fill:#EFB30C}
   ]]>
  </style>
 </defs>
 <g id="Layer_x0020_1">
  <metadata id="CorelCorpID_0Corel-Layer"/>
  <g id="_2403680194000">
   <g>
    <circle class="fil0" cx="1.74" cy="5.1" r="1.74"/>
    <path class="fil1" d="M2.65 7.4l0 5.11c0,0.5 -0.41,0.9 -0.91,0.9l0 0c-0.49,0 -0.9,-0.4 -0.9,-0.9l0 -5.11c0.28,0.11 0.58,0.17 0.9,0.17 0.32,0 0.63,-0.06 0.91,-0.17z"/>
    <path class="fil1" d="M1.74 0l0 0c0.5,0 0.91,0.41 0.91,0.9l0 1.91c-0.28,-0.11 -0.59,-0.17 -0.91,-0.17 -0.32,0 -0.62,0.06 -0.9,0.17l0 -1.91c0,-0.49 0.41,-0.9 0.9,-0.9z"/>
   </g>
   <circle class="fil1" cx="6.71" cy="8.31" r="1.74"/>
   <g>
    <circle class="fil0" cx="11.67" cy="5.1" r="1.74"/>
    <path class="fil1" d="M12.57 7.4l0 5.11c0,0.5 -0.4,0.9 -0.9,0.9l0 0c-0.5,0 -0.91,-0.4 -0.91,-0.9l0 -5.11c0.05,0.01 0.09,0.03 0.13,0.04l0.01 0c0.05,0.02 0.11,0.04 0.16,0.05l0.01 0 0.03 0.01 0.01 0 0.01 0 0.01 0.01c0.02,0 0.04,0 0.05,0.01l0.01 0c0.04,0.01 0.07,0.01 0.11,0.02l0.02 0 0.01 0 0.02 0.01 0.01 0c0.02,0 0.03,0 0.05,0l0.01 0 0.03 0.01 0 0 0.02 0 0.02 0 0.02 0 0 0 0.03 0 0 0c0.05,0.01 0.09,0.01 0.13,0.01 0.04,0 0.08,0 0.12,-0.01l0.01 0 0.02 0 0.01 0 0.02 0 0.02 0 0.02 0 0 0 0.02 -0.01 0.01 0c0.02,0 0.04,0 0.06,0l0.01 0c0.02,-0.01 0.03,-0.01 0.05,-0.01l0.01 0 0.01 -0.01 0.02 0 0.02 0 0.01 0 0.02 -0.01 0.01 0 0.02 0 0.01 0 0.02 -0.01 0.01 0 0.02 -0.01 0.01 0 0.02 0 0.01 -0.01 0.02 0 0.01 0 0.02 -0.01 0.01 0 0.02 -0.01 0.01 0 0.01 0 0.02 -0.01 0.02 0 0.01 -0.01 0.02 0 0.01 -0.01 0 0 0.03 -0.01 0.01 0 0.02 -0.01 0.01 0 0.02 -0.01 0 0 0.03 -0.01 0.01 0 0 0 0 0z"/>
    <path class="fil1" d="M11.67 0l0 0c0.5,0 0.9,0.41 0.9,0.9l0 1.91 0 0 0 0 -0.01 -0.01 -0.03 -0.01 0 0 -0.02 0 -0.01 -0.01 -0.02 0 -0.01 -0.01 -0.03 -0.01 0 0 -0.01 0 -0.02 -0.01 -0.01 0 -0.02 -0.01 -0.02 0 -0.01 0 -0.01 -0.01 -0.02 0 -0.01 -0.01 -0.02 0 -0.01 0 -0.02 -0.01 -0.01 0 -0.02 -0.01 -0.01 0 -0.02 0 -0.01 -0.01 -0.02 0 -0.01 0 -0.02 -0.01 -0.01 0 -0.02 0 -0.01 0 -0.02 -0.01 -0.02 0 -0.01 0 -0.01 0c-0.02,-0.01 -0.03,-0.01 -0.05,-0.01l-0.01 0c-0.02,0 -0.04,-0.01 -0.06,-0.01l-0.01 0 -0.02 0 0 0 -0.02 0 -0.02 0 -0.02 -0.01 -0.01 0 -0.02 0 -0.01 0c-0.04,0 -0.08,0 -0.12,0 -0.04,0 -0.08,0 -0.13,0l0 0 -0.03 0 0 0 -0.02 0.01 -0.02 0 -0.02 0 0 0 -0.03 0 -0.01 0c-0.02,0 -0.03,0.01 -0.05,0.01l-0.01 0 -0.02 0 -0.01 0 -0.02 0.01c-0.04,0 -0.07,0.01 -0.11,0.02l0 0c-0.02,0 -0.04,0 -0.06,0.01l-0.01 0 -0.01 0 -0.01 0 -0.03 0.01 -0.01 0c-0.1,0.03 -0.2,0.06 -0.3,0.1l0 -1.91c0,-0.49 0.41,-0.9 0.91,-0.9z"/>
   </g>
   <path class="fil0" d="M7.61 6.02l0 -5.12c0,-0.49 -0.41,-0.9 -0.9,-0.9l0 0c-0.5,0 -0.91,0.41 -0.91,0.9l0 5.12c0.28,-0.11 0.59,-0.17 0.91,-0.17 0.32,0 0.62,0.06 0.9,0.17z"/>
   <path class="fil0" d="M6.71 13.41l0 0c0.49,0 0.9,-0.4 0.9,-0.9l0 -1.91c-0.28,0.11 -0.58,0.17 -0.9,0.17 -0.32,0 -0.63,-0.06 -0.91,-0.17l0 1.91c0,0.5 0.41,0.9 0.91,0.9z"/>
  </g>
 </g>
</svg>
