<svg xmlns="http://www.w3.org/2000/svg" viewBox="0 0 124.9 100"><defs><style>.cls-1{fill:#efb30c;}.cls-2{fill:#132356;}</style></defs><g id="Layer_2" data-name="Layer 2"><g id="Layer_1-2" data-name="Layer 1"><circle class="cls-1" cx="89.82" cy="25.66" r="25.66" transform="translate(50.11 110.21) rotate(-80.78)"/><circle class="cls-1" cx="114.25" cy="50.09" r="10.65" transform="matrix(0.16, -0.99, 0.99, 0.16, 46.51, 154.84)"/><path class="cls-2" d="M18,90V58.81A11.8,11.8,0,0,1,29.77,47H54V25.39a11.79,11.79,0,0,0-11.79-11.8H11.79A11.79,11.79,0,0,0,0,25.39V87.33a11.79,11.79,0,0,0,11.79,11.8H22.44A11.73,11.73,0,0,1,18,90Z"/><circle class="cls-1" cx="55.25" cy="75.83" r="7.54"/><path class="cls-1" d="M71.67,51.66H38.82A14.73,14.73,0,0,0,24.09,66.4V85.26A14.73,14.73,0,0,0,38.82,100H71.67A14.74,14.74,0,0,0,86.41,85.26V66.4A14.74,14.74,0,0,0,71.67,51.66Zm-16.42,37A12.8,12.8,0,1,1,68,75.83,12.81,12.81,0,0,1,55.25,88.63Z"/></g></g></svg>