<svg width="1097" height="260" viewBox="0 0 1097 260" fill="none" xmlns="http://www.w3.org/2000/svg">
<path d="M0 255.6H47.52V159.84H113.04C159.48 159.84 187.56 128.88 187.56 82.08C187.56 35.64 159.48 4.32001 113.04 4.32001H0V255.6ZM47.52 118.8V45.72H108.72C127.08 45.72 138.24 55.44 138.24 73.8V90.36C138.24 108.72 127.08 118.8 108.72 118.8H47.52Z" fill="#16191D"/>
<path d="M367.785 216H274.545L347.985 126C366.345 103.32 372.105 90.36 372.105 71.28C372.105 28.08 342.945 0 298.665 0C255.825 0 227.025 27 224.865 67.32C224.865 70.2 226.665 71.64 229.185 71.64H263.025C265.545 71.64 267.345 70.2 267.705 67.32C269.145 49.68 281.385 38.16 298.665 38.16C317.745 38.16 329.625 50.4 329.625 70.56C329.625 81 326.385 89.28 318.465 99L226.305 213.48C224.865 214.92 224.505 216.72 224.505 218.88V251.28C224.505 253.8 226.305 255.6 228.825 255.6H367.785C370.305 255.6 372.105 253.8 372.105 251.28V220.32C372.105 217.8 370.305 216 367.785 216Z" fill="#16191D"/>
<path d="M422.578 255.6H470.098V159.84H535.618C582.058 159.84 610.138 128.88 610.138 82.08C610.138 35.64 582.058 4.32001 535.618 4.32001H422.578V255.6ZM470.098 118.8V45.72H531.298C549.658 45.72 560.818 55.44 560.818 73.8V90.36C560.818 108.72 549.658 118.8 531.298 118.8H470.098Z" fill="#16191D"/>
<path d="M700.723 255.6V158.76H745.723L792.523 255.6H845.443L793.963 153.36C824.923 142.92 840.763 116.64 840.763 82.08C840.763 34.56 812.323 4.32001 766.603 4.32001H653.203V255.6H700.723ZM761.923 118.8H700.723V45.72H761.923C780.283 45.72 791.443 55.44 791.443 73.8V90.36C791.443 108.72 780.283 118.8 761.923 118.8Z" fill="#16191D"/>
<path d="M987.39 259.92C1053.63 259.92 1096.83 214.92 1096.83 129.96C1096.83 45 1053.63 0 987.39 0C921.51 0 877.95 45 877.95 129.96C877.95 214.92 921.51 259.92 987.39 259.92ZM987.39 217.8C951.39 217.8 928.35 192.24 928.35 149.4V110.52C928.35 67.68 951.39 42.12 987.39 42.12C1023.39 42.12 1046.43 67.68 1046.43 110.52V149.4C1046.43 192.24 1023.39 217.8 987.39 217.8Z" fill="#16191D"/>
</svg>
