<?xml version="1.0" encoding="UTF-8"?>
<!DOCTYPE svg PUBLIC "-//W3C//DTD SVG 1.1//EN" "http://www.w3.org/Graphics/SVG/1.1/DTD/svg11.dtd">
<!-- Creator: CorelDRAW 2020 (64-Bit Evaluation Version) -->
<svg xmlns="http://www.w3.org/2000/svg" xml:space="preserve" width="29px" height="28px" version="1.1" style="shape-rendering:geometricPrecision; text-rendering:geometricPrecision; image-rendering:optimizeQuality; fill-rule:evenodd; clip-rule:evenodd"
viewBox="0 0 9.89 9.4"
 xmlns:xlink="http://www.w3.org/1999/xlink"
 xmlns:xodm="http://www.corel.com/coreldraw/odm/2003">
 <defs>
  <style type="text/css">
   <![CDATA[
    .fil4 {fill:none}
    .fil3 {fill:#263674}
    .fil0 {fill:#EFB30C}
    .fil1 {fill:white}
    .fil5 {fill:#263674;fill-rule:nonzero}
    .fil2 {fill:white;fill-rule:nonzero}
   ]]>
  </style>
    <clipPath id="id0">
     <path d="M7.76 3.45c-0.03,-0.08 -0.05,-0.15 -0.07,-0.23 -0.02,-0.07 -0.03,-0.15 -0.03,-0.22 0,-0.21 0.04,-0.4 0.11,-0.59 0.08,-0.18 0.18,-0.35 0.31,-0.5l-0.7 -0.72c-0.15,0.1 -0.31,0.18 -0.47,0.23 -0.17,0.05 -0.34,0.07 -0.52,0.07 -0.12,0 -0.24,-0.01 -0.37,-0.04 -0.14,-0.02 -0.27,-0.06 -0.4,-0.1 -0.13,-0.05 -0.25,-0.1 -0.37,-0.17 -0.12,-0.06 -0.22,-0.13 -0.3,-0.21 -0.09,0.08 -0.19,0.15 -0.31,0.21 -0.12,0.07 -0.24,0.12 -0.37,0.17 -0.13,0.04 -0.26,0.08 -0.4,0.1 -0.13,0.03 -0.25,0.04 -0.37,0.04 -0.17,0 -0.34,-0.02 -0.51,-0.07 -0.17,-0.05 -0.33,-0.13 -0.47,-0.23l-0.71 0.72c0.14,0.15 0.24,0.32 0.31,0.5 0.07,0.19 0.11,0.38 0.11,0.59 0,0.07 -0.01,0.15 -0.03,0.22 -0.02,0.08 -0.04,0.15 -0.07,0.23 -0.03,0.07 -0.06,0.14 -0.1,0.21 -0.04,0.07 -0.08,0.13 -0.11,0.19 -0.1,0.15 -0.2,0.29 -0.29,0.4 -0.09,0.12 -0.18,0.23 -0.25,0.35 -0.07,0.12 -0.13,0.25 -0.17,0.39 -0.04,0.14 -0.07,0.32 -0.07,0.52 0,0.17 0.03,0.33 0.09,0.49 0.05,0.15 0.13,0.29 0.23,0.43 0.09,0.13 0.21,0.25 0.34,0.36 0.13,0.12 0.26,0.21 0.41,0.31 0.14,0.08 0.29,0.16 0.45,0.23 0.15,0.06 0.3,0.12 0.45,0.16 0.07,0.02 0.13,0.03 0.2,0.05 0.07,0.01 0.14,0.03 0.21,0.05 0.24,0.06 0.48,0.14 0.72,0.23 0.24,0.08 0.48,0.18 0.71,0.3 0.23,-0.12 0.46,-0.22 0.7,-0.3 0.24,-0.09 0.48,-0.17 0.73,-0.23 0.07,-0.02 0.13,-0.04 0.2,-0.05 0.07,-0.02 0.14,-0.03 0.21,-0.05 0.14,-0.04 0.29,-0.1 0.45,-0.16 0.15,-0.07 0.3,-0.15 0.45,-0.23 0.14,-0.1 0.28,-0.19 0.41,-0.31 0.13,-0.11 0.24,-0.23 0.34,-0.36 0.09,-0.14 0.17,-0.28 0.23,-0.43 0.05,-0.16 0.08,-0.32 0.08,-0.49 0,-0.2 -0.02,-0.38 -0.06,-0.52 -0.05,-0.14 -0.11,-0.27 -0.18,-0.39 -0.07,-0.12 -0.15,-0.23 -0.25,-0.35 -0.09,-0.11 -0.19,-0.25 -0.28,-0.4 -0.04,-0.06 -0.08,-0.12 -0.12,-0.19 -0.03,-0.07 -0.07,-0.14 -0.1,-0.21z"/>
    </clipPath>
 </defs>
 <g id="Layer_x0020_1">
  <metadata id="CorelCorpID_0Corel-Layer"/>
  <g id="_2105147021680">
   <path class="fil0" d="M7.76 3.45c-0.03,-0.08 -0.05,-0.15 -0.07,-0.23 -0.02,-0.07 -0.03,-0.15 -0.03,-0.22 0,-0.21 0.04,-0.4 0.11,-0.59 0.08,-0.18 0.18,-0.35 0.31,-0.5l-0.7 -0.72c-0.15,0.1 -0.31,0.18 -0.47,0.23 -0.17,0.05 -0.34,0.07 -0.52,0.07 -0.12,0 -0.24,-0.01 -0.37,-0.04 -0.14,-0.02 -0.27,-0.06 -0.4,-0.1 -0.13,-0.05 -0.25,-0.1 -0.37,-0.17 -0.12,-0.06 -0.22,-0.13 -0.3,-0.21 -0.09,0.08 -0.19,0.15 -0.31,0.21 -0.12,0.07 -0.24,0.12 -0.37,0.17 -0.13,0.04 -0.26,0.08 -0.4,0.1 -0.13,0.03 -0.25,0.04 -0.37,0.04 -0.17,0 -0.34,-0.02 -0.51,-0.07 -0.17,-0.05 -0.33,-0.13 -0.47,-0.23l-0.71 0.72c0.14,0.15 0.24,0.32 0.31,0.5 0.07,0.19 0.11,0.38 0.11,0.59 0,0.07 -0.01,0.15 -0.03,0.22 -0.02,0.08 -0.04,0.15 -0.07,0.23 -0.03,0.07 -0.06,0.14 -0.1,0.21 -0.04,0.07 -0.08,0.13 -0.11,0.19 -0.1,0.15 -0.2,0.29 -0.29,0.4 -0.09,0.12 -0.18,0.23 -0.25,0.35 -0.07,0.12 -0.13,0.25 -0.17,0.39 -0.04,0.14 -0.07,0.32 -0.07,0.52 0,0.17 0.03,0.33 0.09,0.49 0.05,0.15 0.13,0.29 0.23,0.43 0.09,0.13 0.21,0.25 0.34,0.36 0.13,0.12 0.26,0.21 0.41,0.31 0.14,0.08 0.29,0.16 0.45,0.23 0.15,0.06 0.3,0.12 0.45,0.16 0.07,0.02 0.13,0.03 0.2,0.05 0.07,0.01 0.14,0.03 0.21,0.05 0.24,0.06 0.48,0.14 0.72,0.23 0.24,0.08 0.48,0.18 0.71,0.3 0.23,-0.12 0.46,-0.22 0.7,-0.3 0.24,-0.09 0.48,-0.17 0.73,-0.23 0.07,-0.02 0.13,-0.04 0.2,-0.05 0.07,-0.02 0.14,-0.03 0.21,-0.05 0.14,-0.04 0.29,-0.1 0.45,-0.16 0.15,-0.07 0.3,-0.15 0.45,-0.23 0.14,-0.1 0.28,-0.19 0.41,-0.31 0.13,-0.11 0.24,-0.23 0.34,-0.36 0.09,-0.14 0.17,-0.28 0.23,-0.43 0.05,-0.16 0.08,-0.32 0.08,-0.49 0,-0.2 -0.02,-0.38 -0.06,-0.52 -0.05,-0.14 -0.11,-0.27 -0.18,-0.39 -0.07,-0.12 -0.15,-0.23 -0.25,-0.35 -0.09,-0.11 -0.19,-0.25 -0.28,-0.4 -0.04,-0.06 -0.08,-0.12 -0.12,-0.19 -0.03,-0.07 -0.07,-0.14 -0.1,-0.21z"/>
   <g style="clip-path:url(#id0)">
    <g>
     <path id="1" class="fil1" d="M3.87 4.34l0.07 0.37 0.12 0.35 0.16 0.32 0.19 0.31 0.22 0.3c0.34,0.36 0.69,0.67 1.04,1.01 0.17,0.2 0.33,0.4 0.46,0.61 0.14,0.21 0.26,0.44 0.35,0.66 0.1,0.23 0.17,0.48 0.22,0.72 0.05,0.25 0.07,0.5 0.07,0.76l0 0.14 -0.71 0 -0.02 -0.54 -0.07 -0.38 -0.12 -0.36 -0.15 -0.34c-0.12,-0.22 -0.26,-0.43 -0.42,-0.63 -0.94,-1.03 -1.44,-1.16 -1.98,-2.61 -0.06,-0.25 -0.13,-0.49 -0.16,-0.75l-0.36 0.36 -0.49 -0.5 1.19 -1.2 1.19 1.2 -0.5 0.5 -0.3 -0.3zm0.55 2.66l0.43 0.38c-0.7,0.81 -1.02,1.42 -1.02,2.51l-0.71 0 0 -0.14c0,-0.26 0.03,-0.51 0.07,-0.76 0.05,-0.25 0.13,-0.49 0.22,-0.72 0.2,-0.46 0.47,-0.88 0.81,-1.26l0.1 -0.1 0.1 0.09zm0.91 -2.96l1.09 -1.1 1.19 1.2 -0.5 0.5 -0.36 -0.36 -0.06 0.41 -0.1 0.35c-0.28,0.75 -0.5,1.07 -1.01,1.67l-0.53 -0.47c0.34,-0.38 0.53,-0.66 0.76,-1.12 0.07,-0.18 0.14,-0.37 0.18,-0.56l0.04 -0.22 -0.31 0.3 -0.49 -0.5 0.1 -0.1z"/>
     <path class="fil2" d="M3.73 4.75l-0.08 -0.37 0.37 -0.2 0.15 0.15 0.19 -0.19 -0.88 -0.89 -0.89 0.89 0.19 0.19 0.53 -0.52c0.05,0.42 0.1,0.74 0.2,1.15 0.37,1.01 0.73,1.35 1.24,1.84l0.68 0.7 0.26 0.33 0.2 0.34c0.27,0.59 0.35,0.86 0.38,1.51l0.29 0 -0.07 -0.65 -0.21 -0.68c-0.23,-0.5 -0.41,-0.77 -0.77,-1.2 -0.77,-0.73 -1.51,-1.34 -1.78,-2.4zm0.5 0.13l0.18 0.41c0.18,0.28 0.31,0.48 0.54,0.72l0.34 -0.43c0.11,-0.16 0.21,-0.33 0.31,-0.54l0.06 -0.16 -0.71 -0.72 -0.72 0.72zm1.55 1.93c0.2,0.19 0.38,0.46 0.54,0.68l0.2 0.34 0.16 0.36 0.14 0.37 0.09 0.39 0.06 0.4 0.02 0.76 -1.13 0 -0.04 -0.74 -0.06 -0.35 -0.11 -0.33 -0.15 -0.33 -0.17 -0.29 -0.39 -0.47c-0.29,0.35 -0.52,0.67 -0.66,1.02 -0.16,0.36 -0.23,0.76 -0.23,1.27l0 0.22 -1.15 0 0.02 -0.76 0.06 -0.4 0.1 -0.38 0.13 -0.38c0.1,-0.24 0.23,-0.47 0.37,-0.69 0.14,-0.23 0.31,-0.44 0.48,-0.64l0.07 -0.06c-0.4,-0.4 -0.71,-0.82 -1.03,-1.69l-0.1 -0.38 -0.21 0.22 -0.81 -0.81 1.5 -1.5 1.47 1.47 1.47 -1.47 1.5 1.5 -0.81 0.8 -0.21 -0.21 -0.11 0.39c-0.14,0.38 -0.27,0.67 -0.43,0.93 -0.16,0.24 -0.34,0.48 -0.58,0.76zm-1.23 0.59l-0.21 -0.19 -0.4 0.52c-0.13,0.2 -0.24,0.41 -0.33,0.62l-0.2 0.68 -0.07 0.65 0.28 0c0.02,-0.48 0.1,-0.87 0.26,-1.24 0.15,-0.35 0.37,-0.68 0.67,-1.04zm1.87 -4.15l-0.88 0.89 0.19 0.19 0.15 -0.14 0.36 0.19c-0.05,0.25 -0.13,0.6 -0.24,0.83 -0.12,0.24 -0.23,0.44 -0.35,0.62l-0.3 0.39 0.21 0.18c0.17,-0.21 0.31,-0.39 0.43,-0.58 0.14,-0.23 0.26,-0.49 0.39,-0.84l0.09 -0.35 0.13 -0.8 0.51 0.5 0.2 -0.19 -0.89 -0.89z"/>
     <path class="fil3" d="M3.87 4.34l0.07 0.37 0.12 0.35 0.16 0.32 0.19 0.31 0.22 0.3c0.34,0.36 0.69,0.67 1.04,1.01 0.17,0.2 0.33,0.4 0.46,0.61 0.14,0.21 0.26,0.44 0.35,0.66 0.1,0.23 0.17,0.48 0.22,0.72 0.05,0.25 0.07,0.5 0.07,0.76l0 0.14 -0.71 0 -0.02 -0.54 -0.07 -0.38 -0.12 -0.36 -0.15 -0.34c-0.12,-0.22 -0.26,-0.43 -0.42,-0.63 -0.94,-1.03 -1.44,-1.16 -1.98,-2.61 -0.06,-0.25 -0.13,-0.49 -0.16,-0.75l-0.36 0.36 -0.49 -0.5 1.19 -1.2 1.19 1.2 -0.5 0.5 -0.3 -0.3zm0.55 2.66l0.43 0.38c-0.7,0.81 -1.02,1.42 -1.02,2.51l-0.71 0 0 -0.14c0,-0.26 0.03,-0.51 0.07,-0.76 0.05,-0.25 0.13,-0.49 0.22,-0.72 0.2,-0.46 0.47,-0.88 0.81,-1.26l0.1 -0.1 0.1 0.09zm0.91 -2.96l1.09 -1.1 1.19 1.2 -0.5 0.5 -0.36 -0.36 -0.06 0.41 -0.1 0.35c-0.28,0.75 -0.5,1.07 -1.01,1.67l-0.53 -0.47c0.34,-0.38 0.53,-0.66 0.76,-1.12 0.07,-0.18 0.14,-0.37 0.18,-0.56l0.04 -0.22 -0.31 0.3 -0.49 -0.5 0.1 -0.1z"/>
     <path class="fil3" d="M24.77 -6.75l1.72 0.22 2.23 2.79c0.06,0.07 0.31,0.37 0.34,0.44l-0.83 0.84c-0.08,-0.03 -0.38,-0.29 -0.45,-0.34l-2.79 -2.23 -0.22 -1.72z"/>
    </g>
   </g>
   <path class="fil4" d="M7.76 3.45c-0.03,-0.08 -0.05,-0.15 -0.07,-0.23 -0.02,-0.07 -0.03,-0.15 -0.03,-0.22 0,-0.21 0.04,-0.4 0.11,-0.59 0.08,-0.18 0.18,-0.35 0.31,-0.5l-0.7 -0.72c-0.15,0.1 -0.31,0.18 -0.47,0.23 -0.17,0.05 -0.34,0.07 -0.52,0.07 -0.12,0 -0.24,-0.01 -0.37,-0.04 -0.14,-0.02 -0.27,-0.06 -0.4,-0.1 -0.13,-0.05 -0.25,-0.1 -0.37,-0.17 -0.12,-0.06 -0.22,-0.13 -0.3,-0.21 -0.09,0.08 -0.19,0.15 -0.31,0.21 -0.12,0.07 -0.24,0.12 -0.37,0.17 -0.13,0.04 -0.26,0.08 -0.4,0.1 -0.13,0.03 -0.25,0.04 -0.37,0.04 -0.17,0 -0.34,-0.02 -0.51,-0.07 -0.17,-0.05 -0.33,-0.13 -0.47,-0.23l-0.71 0.72c0.14,0.15 0.24,0.32 0.31,0.5 0.07,0.19 0.11,0.38 0.11,0.59 0,0.07 -0.01,0.15 -0.03,0.22 -0.02,0.08 -0.04,0.15 -0.07,0.23 -0.03,0.07 -0.06,0.14 -0.1,0.21 -0.04,0.07 -0.08,0.13 -0.11,0.19 -0.1,0.15 -0.2,0.29 -0.29,0.4 -0.09,0.12 -0.18,0.23 -0.25,0.35 -0.07,0.12 -0.13,0.25 -0.17,0.39 -0.04,0.14 -0.07,0.32 -0.07,0.52 0,0.17 0.03,0.33 0.09,0.49 0.05,0.15 0.13,0.29 0.23,0.43 0.09,0.13 0.21,0.25 0.34,0.36 0.13,0.12 0.26,0.21 0.41,0.31 0.14,0.08 0.29,0.16 0.45,0.23 0.15,0.06 0.3,0.12 0.45,0.16 0.07,0.02 0.13,0.03 0.2,0.05 0.07,0.01 0.14,0.03 0.21,0.05 0.24,0.06 0.48,0.14 0.72,0.23 0.24,0.08 0.48,0.18 0.71,0.3 0.23,-0.12 0.46,-0.22 0.7,-0.3 0.24,-0.09 0.48,-0.17 0.73,-0.23 0.07,-0.02 0.13,-0.04 0.2,-0.05 0.07,-0.02 0.14,-0.03 0.21,-0.05 0.14,-0.04 0.29,-0.1 0.45,-0.16 0.15,-0.07 0.3,-0.15 0.45,-0.23 0.14,-0.1 0.28,-0.19 0.41,-0.31 0.13,-0.11 0.24,-0.23 0.34,-0.36 0.09,-0.14 0.17,-0.28 0.23,-0.43 0.05,-0.16 0.08,-0.32 0.08,-0.49 0,-0.2 -0.02,-0.38 -0.06,-0.52 -0.05,-0.14 -0.11,-0.27 -0.18,-0.39 -0.07,-0.12 -0.15,-0.23 -0.25,-0.35 -0.09,-0.11 -0.19,-0.25 -0.28,-0.4 -0.04,-0.06 -0.08,-0.12 -0.12,-0.19 -0.03,-0.07 -0.07,-0.14 -0.1,-0.21z"/>
   <path class="fil5" d="M8.31 3.41c-0.16,-0.44 -0.14,-0.51 -0.09,-1l0.1 -0.38 0.18 -0.36 0.15 -0.21 -0.7 -0.72 -0.2 0.11 -0.33 0.13 -0.33 0.07 -0.35 0.03c-0.64,-0.04 -1.29,-0.22 -1.79,-0.62 -0.5,0.4 -1.16,0.58 -1.79,0.62l-0.35 -0.03 -0.34 -0.07 -0.33 -0.13 -0.2 -0.11 -0.7 0.72 0.15 0.21 0.18 0.35 0.11 0.39 0.03 0.4c-0.07,1.05 -0.91,1.58 -1.27,2.51l-0.06 0.28 -0.02 0.33 0.03 0.28 0.07 0.27 0.11 0.26 0.15 0.24 0.19 0.23c1.17,1.12 2.62,1.14 4.04,1.81 1.41,-0.67 2.86,-0.69 4.04,-1.81l0.18 -0.23 0.15 -0.24 0.12 -0.26 0.07 -0.26 0.02 -0.29 -0.02 -0.33 -0.05 -0.27c-0.28,-0.73 -0.81,-1.18 -1.15,-1.92zm0.23 -0.24c0.28,0.8 0.87,1.25 1.19,2.06l0.07 0.33 0.02 0.37 -0.03 0.33 -0.08 0.32 -0.13 0.3 -0.18 0.27 -0.2 0.25c-1.19,1.14 -2.81,1.27 -4.26,1.94 -1.52,-0.74 -2.97,-0.72 -4.24,-1.94l-0.21 -0.25 -0.17 -0.27 -0.13 -0.3 -0.09 -0.32 -0.03 -0.33 0.02 -0.37 0.07 -0.32c0.44,-1.14 1.35,-1.49 1.23,-2.78l-0.09 -0.33 -0.16 -0.31 -0.29 -0.38 1.06 -1.07 0.36 0.22 0.28 0.11 0.3 0.07c0.85,0.06 1.43,-0.15 2.1,-0.68 0.63,0.53 1.27,0.74 2.1,0.68l0.29 -0.06 0.28 -0.12 0.37 -0.22 1.06 1.07 -0.3 0.38 -0.16 0.31 -0.09 0.33c-0.03,0.33 -0.05,0.41 0.04,0.71z"/>
   <path class="fil5" d="M8.24 3.44c-0.15,-0.43 -0.14,-0.53 -0.1,-0.95l0.11 -0.48 0.19 -0.38 0.12 -0.17 -0.62 -0.63 -0.49 0.22 -0.35 0.07 -0.36 0.03c-0.35,-0.02 -0.7,-0.08 -1.02,-0.19 -0.28,-0.1 -0.54,-0.23 -0.77,-0.41 -0.23,0.18 -0.5,0.31 -0.77,0.41 -0.33,0.11 -0.68,0.17 -1.02,0.19l-0.36 -0.03 -0.34 -0.07 -0.5 -0.22 -0.63 0.63 0.12 0.16 0.18 0.37 0.12 0.4 0.04 0.41c-0.05,0.66 -0.38,1.11 -0.71,1.57 -0.21,0.3 -0.43,0.61 -0.57,0.97l-0.06 0.27 -0.02 0.32 0.03 0.27 0.07 0.26 0.11 0.25 0.14 0.23 0.18 0.22c0.74,0.7 1.6,0.97 2.49,1.24 0.49,0.15 0.99,0.3 1.5,0.54 0.51,-0.24 1.01,-0.4 1.5,-0.54 0.89,-0.28 1.74,-0.54 2.48,-1.24l0.33 -0.45 0.11 -0.25 0.07 -0.26 0.02 -0.27 -0.02 -0.32 -0.05 -0.26c-0.15,-0.37 -0.36,-0.68 -0.58,-0.99 -0.2,-0.28 -0.41,-0.57 -0.57,-0.92zm0.04 -0.93c-0.03,0.39 -0.04,0.48 0.1,0.87 0.16,0.35 0.36,0.63 0.55,0.9 0.22,0.32 0.45,0.64 0.6,1.03l0.05 0.27 0.02 0.35 -0.02 0.29 -0.07 0.28 -0.12 0.27 -0.16 0.25 -0.19 0.23c-0.77,0.74 -1.65,1.01 -2.55,1.29 -0.5,0.15 -1.02,0.31 -1.51,0.54l-0.06 0c-0.5,-0.23 -1.01,-0.39 -1.51,-0.54 -0.91,-0.28 -1.79,-0.55 -2.55,-1.28l-0.19 -0.23 -0.16 -0.25 -0.12 -0.27 -0.07 -0.28 -0.03 -0.29 0.02 -0.35 0.05 -0.28c0.16,-0.4 0.38,-0.72 0.61,-1.02 0.31,-0.44 0.63,-0.88 0.67,-1.48l-0.03 -0.38 -0.11 -0.38 -0.17 -0.34 -0.19 -0.26 0.79 -0.8 0.24 0.14 0.32 0.12 0.33 0.07 0.34 0.02c0.32,-0.01 0.66,-0.07 0.97,-0.18 0.28,-0.1 0.54,-0.23 0.77,-0.42l0.05 -0.03 0.04 0.03c0.23,0.19 0.5,0.32 0.77,0.42 0.32,0.11 0.65,0.17 0.98,0.19l0.33 -0.03 0.34 -0.07 0.3 -0.12 0.25 -0.14 0.79 0.8 -0.18 0.25 -0.18 0.35 -0.11 0.46zm0.33 0.64c0.14,0.39 0.36,0.71 0.58,1.02 0.23,0.31 0.45,0.63 0.61,1.03l0.07 0.34 0.02 0.39 -0.03 0.34 -0.08 0.33 -0.14 0.31 -0.17 0.28 -0.22 0.26c-0.79,0.76 -1.78,1.08 -2.78,1.4 -0.49,0.16 -1,0.32 -1.5,0.55l-0.06 0c-0.54,-0.26 -1.09,-0.43 -1.62,-0.6 -0.93,-0.29 -1.82,-0.56 -2.64,-1.34l-0.22 -0.26 -0.17 -0.28 -0.14 -0.31 -0.09 -0.33 -0.03 -0.34 0.02 -0.38 0.07 -0.34c0.17,-0.44 0.41,-0.77 0.63,-1.07 0.35,-0.48 0.67,-0.91 0.6,-1.67l-0.09 -0.32 -0.15 -0.3 -0.33 -0.42 1.15 -1.16 0.4 0.25 0.27 0.1 0.29 0.06c0.41,0.03 0.76,0 1.09,-0.11 0.32,-0.11 0.63,-0.29 0.95,-0.54l0.05 -0.04 0.04 0.04c0.31,0.25 0.63,0.44 0.96,0.54 0.33,0.11 0.68,0.14 1.08,0.11l0.29 -0.06 0.27 -0.1 0.41 -0.25 1.14 1.16 -0.33 0.41 -0.15 0.31 -0.1 0.42c-0.02,0.23 -0.02,0.32 0.05,0.57zm0.47 1.11c-0.23,-0.32 -0.46,-0.64 -0.61,-1.06 -0.08,-0.29 -0.07,-0.38 -0.05,-0.64l0.1 -0.45 0.17 -0.33 0.26 -0.33 -0.98 -0.99 -0.31 0.19 -0.29 0.12 -0.31 0.07c-0.43,0.03 -0.81,-0.01 -1.16,-0.12 -0.33,-0.11 -0.65,-0.29 -0.95,-0.53 -0.32,0.24 -0.63,0.42 -0.96,0.53 -0.34,0.11 -0.71,0.15 -1.15,0.12l-0.3 -0.06 -0.3 -0.12 -0.32 -0.2 -0.98 0.99 0.26 0.33 0.16 0.32 0.1 0.34c0.08,0.84 -0.25,1.29 -0.62,1.79 -0.21,0.29 -0.45,0.61 -0.61,1.03l-0.07 0.31 -0.02 0.36 0.03 0.32 0.08 0.31 0.14 0.29 0.15 0.25 0.21 0.25c0.8,0.76 1.67,1.03 2.58,1.31 0.53,0.16 1.06,0.33 1.61,0.6 0.48,-0.22 0.99,-0.38 1.49,-0.54 0.97,-0.32 1.94,-0.63 2.71,-1.37l0.21 -0.25 0.16 -0.25 0.13 -0.29 0.08 -0.31 0.03 -0.32 -0.02 -0.36 -0.07 -0.32c-0.15,-0.38 -0.37,-0.69 -0.58,-0.99z"/>
  </g>
 </g>
</svg>
