<?xml version="1.0" encoding="UTF-8"?>
<!DOCTYPE svg PUBLIC "-//W3C//DTD SVG 1.1//EN" "http://www.w3.org/Graphics/SVG/1.1/DTD/svg11.dtd">
<!-- Creator: CorelDRAW 2020 (64-Bit Evaluation Version) -->
<svg xmlns="http://www.w3.org/2000/svg" xml:space="preserve" width="30px" height="31px" version="1.1" style="shape-rendering:geometricPrecision; text-rendering:geometricPrecision; image-rendering:optimizeQuality; fill-rule:evenodd; clip-rule:evenodd"
viewBox="0 0 1.48 1.5"
 xmlns:xlink="http://www.w3.org/1999/xlink"
 xmlns:xodm="http://www.corel.com/coreldraw/odm/2003">
 <defs>
  <style type="text/css">
   <![CDATA[
    .fil1 {fill:#263674}
    .fil0 {fill:#EFB30C}
   ]]>
  </style>
 </defs>
 <g id="Layer_x0020_1">
  <metadata id="CorelCorpID_0Corel-Layer"/>
  <g id="_2104812557888">
   <path class="fil0" d="M0.82 0.45l0.12 0.11 0.06 0.07 0.46 0c-0.01,-0.01 -0.02,-0.02 -0.02,-0.03 -0.01,-0.01 -0.02,-0.02 -0.03,-0.03l-0.49 -0.49c-0.1,-0.11 -0.26,-0.11 -0.37,0l-0.43 0.43 -0.06 0.06c-0.01,0.02 -0.03,0.04 -0.04,0.06l0.45 0 0.09 -0.09 0.1 -0.09c0.04,-0.05 0.12,-0.05 0.16,0z"/>
   <path class="fil1" d="M1 0.87l-0.18 0.19c-0.04,0.04 -0.12,0.04 -0.16,0l-0.19 -0.19 -0.45 0c0.01,0.03 0.03,0.05 0.04,0.06l0.49 0.5c0.11,0.1 0.27,0.1 0.37,0l0.49 -0.5c0.02,-0.01 0.04,-0.03 0.05,-0.06l-0.46 0z"/>
   <path class="fil1" d="M0.77 0.65l0.07 0.07 0.11 0 0 -0.05 0 0 -0.15 -0.15c-0.03,-0.03 -0.09,-0.03 -0.12,0l0 0 -0.15 0.15 0 0 0 0.05 0.11 0 0 0 0 -0.01 0.07 -0.06c0.02,-0.02 0.04,-0.02 0.06,0z"/>
   <polygon class="fil0" points="0.46,0.77 0,0.77 0,0.72 0.42,0.72 0.46,0.72 "/>
   <polygon class="fil0" points="1.48,0.77 1.02,0.77 1.02,0.72 1.44,0.72 1.48,0.72 "/>
   <path class="fil0" d="M0.77 0.85l0.07 -0.08 0.11 0 0 0.05 0 0 -0.15 0.15c-0.03,0.03 -0.09,0.03 -0.12,0l-0.07 -0.07 -0.08 -0.08 0 0 0 -0.05 0.1 0 0.01 0 0 0 0.07 0.08c0.02,0.01 0.04,0.01 0.06,0z"/>
  </g>
 </g>
</svg>
