<?xml version="1.0" encoding="UTF-8"?>
<!DOCTYPE svg PUBLIC "-//W3C//DTD SVG 1.1//EN" "http://www.w3.org/Graphics/SVG/1.1/DTD/svg11.dtd">
<!-- Creator: CorelDRAW 2020 (64-Bit Evaluation Version) -->
<svg xmlns="http://www.w3.org/2000/svg" xml:space="preserve" width="31px" height="19px" version="1.1" style="shape-rendering:geometricPrecision; text-rendering:geometricPrecision; image-rendering:optimizeQuality; fill-rule:evenodd; clip-rule:evenodd"
viewBox="0 0 1.53 0.95"
 xmlns:xlink="http://www.w3.org/1999/xlink"
 xmlns:xodm="http://www.corel.com/coreldraw/odm/2003">
 <defs>
  <style type="text/css">
   <![CDATA[
    .fil2 {fill:#263674}
    .fil1 {fill:#EFB30C}
    .fil0 {fill:#263674;fill-rule:nonzero}
    .fil3 {fill:#EFB30C;fill-rule:nonzero}
   ]]>
  </style>
 </defs>
 <g id="Layer_x0020_1">
  <metadata id="CorelCorpID_0Corel-Layer"/>
  <g id="_2104971458352">
   <path class="fil0" d="M0.51 0.48c0.02,0.03 0,0.06 -0.03,0.07 -0.03,0.02 -0.07,0 -0.08,-0.03 -0.01,-0.02 -0.01,-0.04 -0.02,-0.07 0,-0.02 0,-0.04 0,-0.06 0,-0.11 0.04,-0.21 0.11,-0.28 0.07,-0.07 0.17,-0.11 0.27,-0.11 0.11,0 0.21,0.04 0.28,0.11 0.07,0.07 0.11,0.17 0.11,0.28 0,0.02 0,0.04 -0.01,0.06 0,0.02 0,0.04 -0.01,0.07 -0.01,0.03 -0.05,0.04 -0.08,0.03 -0.03,-0.01 -0.05,-0.04 -0.04,-0.08 0.01,-0.01 0.01,-0.02 0.01,-0.04 0.01,-0.01 0.01,-0.03 0.01,-0.04 0,-0.08 -0.03,-0.14 -0.08,-0.19 -0.05,-0.05 -0.11,-0.08 -0.19,-0.08 -0.07,0 -0.14,0.03 -0.18,0.08 -0.05,0.05 -0.08,0.11 -0.08,0.19 0,0.01 0,0.03 0,0.04 0.01,0.02 0.01,0.03 0.01,0.05z"/>
   <circle class="fil1" cx="0.76" cy="0.38" r="0.15"/>
   <path class="fil2" d="M0.76 0.56c0.18,0 0.33,0.13 0.37,0.29 0.01,0.03 0.01,0.06 0.01,0.09l-0.76 0c0,-0.01 0,-0.02 0,-0.03 0.02,-0.19 0.18,-0.35 0.38,-0.35z"/>
   <g>
    <polygon class="fil3" points="0.3,0.59 0.13,0.77 0.31,0.95 0.18,0.95 0,0.77 0.17,0.59 "/>
    <polygon class="fil3" points="1.35,0.59 1.53,0.77 1.34,0.95 1.22,0.95 1.4,0.77 1.22,0.59 "/>
   </g>
  </g>
 </g>
</svg>
