<?xml version="1.0" encoding="UTF-8"?>
<!DOCTYPE svg PUBLIC "-//W3C//DTD SVG 1.1//EN" "http://www.w3.org/Graphics/SVG/1.1/DTD/svg11.dtd">
<!-- Creator: CorelDRAW 2020 (64-Bit Evaluation Version) -->
<svg xmlns="http://www.w3.org/2000/svg" xml:space="preserve" width="29px" height="21px" version="1.1" style="shape-rendering:geometricPrecision; text-rendering:geometricPrecision; image-rendering:optimizeQuality; fill-rule:evenodd; clip-rule:evenodd"
viewBox="0 0 2.72 1.95"
 xmlns:xlink="http://www.w3.org/1999/xlink"
 xmlns:xodm="http://www.corel.com/coreldraw/odm/2003">
 <defs>
  <style type="text/css">
   <![CDATA[
    .fil0 {fill:#263674}
    .fil1 {fill:#EFB30C}
   ]]>
  </style>
 </defs>
 <g id="Layer_x0020_1">
  <metadata id="CorelCorpID_0Corel-Layer"/>
  <g id="_2105099253344">
   <path class="fil0" d="M1.66 1.48l0.94 -0.94c0.04,-0.04 0.07,-0.08 0.09,-0.12 0.02,-0.05 0.03,-0.11 0.03,-0.17 -0.26,-0.12 -0.53,-0.2 -0.79,-0.25l0.09 0.08c0.08,0.09 0.08,0.23 0,0.32l-0.08 0.07 -0.42 0.42c-0.09,0.09 -0.23,0.09 -0.31,0l-0.34 -0.34 -0.16 -0.15c-0.09,-0.09 -0.09,-0.23 0,-0.32l0.08 -0.08c-0.26,0.05 -0.53,0.13 -0.79,0.25 0,0.1 0.04,0.21 0.12,0.29l0.07 0.06 0.88 0.88c0.16,0.16 0.43,0.16 0.59,0z"/>
   <path class="fil1" d="M1.66 1.83l0.94 -0.94c0.04,-0.04 0.07,-0.08 0.09,-0.12 0.02,-0.06 0.03,-0.11 0.03,-0.17l-0.03 -0.02 0 0.01c-0.02,0.04 -0.05,0.08 -0.09,0.12l-0.94 0.94c-0.16,0.16 -0.43,0.16 -0.59,0l-0.88 -0.88 -0.07 -0.06c-0.03,-0.04 -0.06,-0.08 -0.08,-0.13l-0.04 0.02c0,0.1 0.04,0.21 0.12,0.29l0.07 0.06 0.88 0.88c0.16,0.16 0.43,0.16 0.59,0z"/>
   <path class="fil1" d="M1.75 0.13l-0.78 0 -0.05 0.06c-0.06,0.05 -0.06,0.15 0,0.21l0.11 0.1 0.23 0.24c0.05,0.05 0.15,0.05 0.21,0l0.28 -0.29 0.06 -0.05c0.05,-0.06 0.05,-0.16 0,-0.21l-0.06 -0.06z"/>
  </g>
 </g>
</svg>
