<?xml version="1.0" encoding="UTF-8"?>
<!DOCTYPE svg PUBLIC "-//W3C//DTD SVG 1.1//EN" "http://www.w3.org/Graphics/SVG/1.1/DTD/svg11.dtd">
<!-- Creator: CorelDRAW 2020 (64-Bit Evaluation Version) -->
<svg xmlns="http://www.w3.org/2000/svg" xml:space="preserve" width="24px" height="22px" version="1.1" style="shape-rendering:geometricPrecision; text-rendering:geometricPrecision; image-rendering:optimizeQuality; fill-rule:evenodd; clip-rule:evenodd"
viewBox="0 0 2.69 2.52"
 xmlns:xlink="http://www.w3.org/1999/xlink"
 xmlns:xodm="http://www.corel.com/coreldraw/odm/2003">
 <defs>
  <style type="text/css">
   <![CDATA[
    .fil0 {fill:#0E3BA5}
    .fil1 {fill:#5493F6}
   ]]>
  </style>
 </defs>
 <g id="Layer_x0020_1">
  <metadata id="CorelCorpID_0Corel-Layer"/>
  <g id="_2517864903872">
   <path class="fil0" d="M1.43 0l0 0c-0.18,0 -0.36,0.04 -0.51,0.11 -0.03,0.01 -0.06,0.02 -0.08,0.04 -0.02,0.01 -0.04,0.02 -0.06,0.03l0.01 0c-0.05,0.04 -0.1,0.08 -0.14,0.13 -0.36,0.48 0.86,0.83 1.51,0.83 0.3,0.22 0.39,-0.61 0.09,-0.84 -0.22,-0.19 -0.52,-0.3 -0.82,-0.3l0 0z"/>
   <path class="fil0" d="M1.19 2.05l0 0c0.07,0.27 0.32,0.48 0.45,0.47 0.01,0 0.49,-0.09 0.76,-0.55 0.21,-0.36 0.14,-0.7 -0.15,-0.71 -0.1,0.01 -1.2,0.27 -1.06,0.79l0 0 0 0z"/>
   <path class="fil1" d="M0.97 0.28c-0.16,0.24 -0.71,0.42 -0.8,0.39l0 0 0.01 -0.02c0.09,-0.18 0.23,-0.33 0.39,-0.45 0.03,-0.03 0.07,-0.05 0.11,-0.07 0.07,-0.04 0.15,-0.05 0.18,-0.05 0.24,0.01 0.11,0.2 0.11,0.2l0 0 0 0z"/>
   <g>
    <path class="fil1" d="M0.83 2.1c0.02,0.08 0,0.39 -0.01,0.42 -0.02,0 -0.05,0 -0.13,-0.05 -0.17,-0.09 -0.31,-0.22 -0.43,-0.37 -0.08,-0.11 -0.15,-0.24 -0.19,-0.37 -0.05,-0.14 -0.07,-0.28 -0.07,-0.42 0,-0.16 0.03,-0.32 0.08,-0.47l0 0c0.1,0.13 0.22,0.25 0.31,0.38 0.09,0.12 0.22,0.32 0.25,0.37 0.16,0.26 0.18,0.43 0.19,0.51l0 0z"/>
   </g>
   <path class="fil1" d="M2.69 1.32c0,0.17 -0.04,0.34 -0.1,0.49 -0.15,0.16 -1.2,-0.25 -1.21,-0.25 -0.15,-0.07 -0.58,-0.26 -0.62,-0.56 -0.06,-0.44 0.82,-0.74 1.2,-0.75 0.05,0 0.19,0 0.27,0.07 0.29,0.25 0.46,0.62 0.46,1l0 0 0 0zm-0.92 1.07l0 0c0.06,-0.22 0.61,-0.45 0.73,-0.46 0.02,0 0.02,0.01 0.02,0.02 -0.13,0.23 -0.32,0.42 -0.54,0.55 -0.12,0.05 -0.24,0.01 -0.21,-0.11l0 0z"/>
  </g>
 </g>
</svg>
