<?xml version="1.0" encoding="UTF-8"?>
<!DOCTYPE svg PUBLIC "-//W3C//DTD SVG 1.1//EN" "http://www.w3.org/Graphics/SVG/1.1/DTD/svg11.dtd">
<!-- Creator: CorelDRAW 2020 (64-Bit Evaluation Version) -->
<svg xmlns="http://www.w3.org/2000/svg" xml:space="preserve" width="100px" height="100px" version="1.1" style="shape-rendering:geometricPrecision; text-rendering:geometricPrecision; image-rendering:optimizeQuality; fill-rule:evenodd; clip-rule:evenodd"
viewBox="0 0 127.92 127.92"
 xmlns:xlink="http://www.w3.org/1999/xlink"
 xmlns:xodm="http://www.corel.com/coreldraw/odm/2003">
 <defs>
  <style type="text/css">
   <![CDATA[
    .fil1 {fill:#EFB30C}
    .fil0 {fill:#263674;fill-rule:nonzero}
   ]]>
  </style>
 </defs>
 <g id="Layer_x0020_1">
  <metadata id="CorelCorpID_0Corel-Layer"/>
  <g id="_2571027374640">
   <path class="fil0" d="M44.26 45.54c0,-2.33 0.6,-4.28 1.8,-5.94 1.13,-1.57 2.86,-2.4 5.04,-2.4 2.03,0 3.75,0.75 5.11,2.18 1.27,1.43 1.95,3.61 1.95,6.39 0,2.77 -0.68,4.88 -2.03,6.31 -1.35,1.5 -3,2.25 -4.96,2.25 -1.95,0 -3.6,-0.75 -4.96,-2.18 -1.27,-1.5 -1.95,-3.68 -1.95,-6.61l0 0z"/>
   <path class="fil0" d="M69.77 81.93c0,-2.32 0.6,-4.28 1.8,-5.93 1.13,-1.58 2.85,-2.4 5.03,-2.4 2.03,0 3.76,0.75 5.11,2.17 1.28,1.43 1.95,3.61 1.95,6.39 0,2.78 -0.67,4.88 -2.02,6.31 -1.36,1.5 -3.01,2.25 -4.96,2.25 -1.96,0 -3.61,-0.75 -4.96,-2.17 -1.28,-1.51 -1.95,-3.69 -1.95,-6.62l0 0z"/>
   <path class="fil1" d="M36.29 44.06c0,-7.6 3.12,-14.51 8.14,-19.53 5.02,-5.02 11.93,-8.13 19.53,-8.13 7.6,0 14.52,3.11 19.54,8.13 0.02,0.03 0.05,0.05 0.07,0.08l11.59 -11.6c-0.02,-0.02 -0.05,-0.05 -0.07,-0.07 -7.98,-7.98 -19,-12.94 -31.13,-12.94 -12.12,0 -23.14,4.96 -31.12,12.94 -7.99,7.98 -12.94,19 -12.94,31.12l0 39.8c0,1.42 0.07,2.83 0.2,4.22l16.19 -16.2 0 -27.82z"/>
   <path class="fil1" d="M83.5 103.39c-5.02,5.02 -11.94,8.14 -19.54,8.14 -7.6,0 -14.51,-3.12 -19.53,-8.14 -0.03,-0.02 -0.05,-0.05 -0.08,-0.07l-11.59 11.59c0.03,0.03 0.05,0.05 0.08,0.08 7.98,7.98 19,12.93 31.12,12.93 12.13,0 23.15,-4.95 31.13,-12.93 7.98,-7.99 12.94,-19 12.94,-31.13l0 -39.8c0,-1.42 -0.07,-2.82 -0.21,-4.21l-16.19 16.19 0 27.82c0,7.6 -3.12,14.52 -8.13,19.53z"/>
   <polygon class="fil0" points="12.88,127.92 127.92,12.88 127.92,0 115.04,0 0,115.04 0,127.92 "/>
  </g>
 </g>
</svg>
