<?xml version="1.0" encoding="UTF-8"?>
<!DOCTYPE svg PUBLIC "-//W3C//DTD SVG 1.1//EN" "http://www.w3.org/Graphics/SVG/1.1/DTD/svg11.dtd">
<!-- Creator: CorelDRAW 2020 (64-Bit Evaluation Version) -->
<svg xmlns="http://www.w3.org/2000/svg" xml:space="preserve" width="100px" height="100px" version="1.1" style="shape-rendering:geometricPrecision; text-rendering:geometricPrecision; image-rendering:optimizeQuality; fill-rule:evenodd; clip-rule:evenodd"
viewBox="0 0 129.64 129.64"
 xmlns:xlink="http://www.w3.org/1999/xlink"
 xmlns:xodm="http://www.corel.com/coreldraw/odm/2003">
 <defs>
  <style type="text/css">
   <![CDATA[
    .fil3 {fill:#414776}
    .fil2 {fill:#263674}
    .fil5 {fill:#E6E6E6}
    .fil1 {fill:#F5BE27}
    .fil4 {fill:white}
    .fil0 {fill:#EFB30C;fill-rule:nonzero}
   ]]>
  </style>
 </defs>
 <g id="Layer_x0020_1">
  <metadata id="CorelCorpID_0Corel-Layer"/>
  <g id="_2571543530416">
   <path class="fil0" d="M127.04 15.69c-9.61,0 -18.21,-0.5 -25.81,-1.48 -6.54,-0.79 -12.34,-1.98 -17.41,-3.55 -4,-1.19 -7.4,-2.62 -10.2,-4.3 -2.13,-1.08 -3.8,-2.27 -5,-3.55 -0.93,-0.89 -1.47,-1.45 -1.6,-1.7 -0.13,-0.25 -0.4,-0.49 -0.8,-0.74 -0.4,-0.25 -0.87,-0.37 -1.4,-0.37l0 0c-0.53,0 -1,0.12 -1.4,0.37 -0.4,0.25 -0.67,0.49 -0.8,0.74 -0.14,0.25 -0.67,0.81 -1.6,1.7 -1.2,1.19 -2.87,2.37 -5,3.55 -2.8,1.58 -6.27,3.01 -10.41,4.3 -4.93,1.48 -10.67,2.66 -17.2,3.55 -7.74,0.98 -16.34,1.48 -25.81,1.48 -0.8,0 -1.43,0.19 -1.9,0.59 -0.47,0.39 -0.7,0.84 -0.7,1.33l0 64.38c0,7.69 5.13,15.53 15.4,23.53 7.47,5.72 17.34,11.29 29.61,16.72 6.27,2.76 12.47,5.18 18.61,7.25l0.2 0c0.13,0.1 0.47,0.15 1,0.15 0.53,0 0.87,-0.05 1,-0.15l0.2 0c6.13,-2.07 12.34,-4.49 18.6,-7.25 12.27,-5.43 22.14,-11 29.61,-16.72 10.27,-8 15.41,-15.84 15.41,-23.53l0 -64.38c0,-0.49 -0.24,-0.94 -0.7,-1.33 -0.47,-0.4 -1.1,-0.59 -1.9,-0.59z"/>
   <path class="fil1" d="M68.8 33.6l27.23 27.23c2.2,2.2 2.2,5.78 0,7.97l-27.23 27.23c-1.09,1.1 -2.54,1.65 -3.98,1.65l0 31.96 0.1 0c0.47,-0.01 0.77,-0.06 0.9,-0.15l0.2 0c6.13,-2.07 12.34,-4.49 18.61,-7.25 12.27,-5.43 22.13,-11 29.6,-16.72 10.21,-7.95 15.34,-15.74 15.41,-23.39l0 -0.14 0 -64.38 0 -0.04c-0.02,-0.48 -0.25,-0.91 -0.7,-1.29 -0.47,-0.4 -1.1,-0.59 -1.9,-0.59 -9.61,0 -18.21,-0.5 -25.81,-1.48 -6.54,-0.79 -12.34,-1.98 -17.41,-3.55 -4,-1.19 -7.4,-2.62 -10.2,-4.3 -2.13,-1.08 -3.8,-2.27 -5,-3.55 -0.93,-0.89 -1.47,-1.45 -1.6,-1.7 -0.13,-0.25 -0.4,-0.49 -0.8,-0.74 -0.4,-0.25 -0.87,-0.37 -1.4,-0.37l0 31.96c1.44,0 2.89,0.55 3.98,1.64z"/>
   <g>
    <rect class="fil2" transform="matrix(8.15448 8.82501 -8.15448 8.82501 64.8186 26.9215)" width="4.29" height="4.29" rx="0.49" ry="0.49"/>
    <path class="fil3" d="M64.82 29.44l0 70.75c1.44,0 2.87,-0.58 3.96,-1.77l27.09 -29.31c2.18,-2.36 2.18,-6.22 0,-8.58l-27.09 -29.32c-1.09,-1.18 -2.52,-1.77 -3.96,-1.77z"/>
    <rect class="fil4" transform="matrix(3.53009 3.82036 -3.53009 3.82036 64.8186 48.4128)" width="4.29" height="4.29" rx="0.49" ry="0.49"/>
    <path class="fil5" d="M64.82 49.5l0 30.63c0.62,0 1.24,-0.25 1.71,-0.76l11.73 -12.69c0.95,-1.03 0.95,-2.7 0,-3.72l-11.73 -12.69c-0.47,-0.51 -1.09,-0.77 -1.71,-0.77z"/>
   </g>
  </g>
 </g>
</svg>
