<?xml version="1.0" encoding="UTF-8"?>
<!DOCTYPE svg PUBLIC "-//W3C//DTD SVG 1.1//EN" "http://www.w3.org/Graphics/SVG/1.1/DTD/svg11.dtd">
<!-- Creator: CorelDRAW 2020 (64-Bit Evaluation Version) -->
<svg xmlns="http://www.w3.org/2000/svg" xml:space="preserve" width="100px" height="100px" version="1.1" style="shape-rendering:geometricPrecision; text-rendering:geometricPrecision; image-rendering:optimizeQuality; fill-rule:evenodd; clip-rule:evenodd"
viewBox="0 0 129.64 129.64"
 xmlns:xlink="http://www.w3.org/1999/xlink"
 xmlns:xodm="http://www.corel.com/coreldraw/odm/2003">
 <defs>
  <style type="text/css">
   <![CDATA[
    .str0 {stroke:#E6E6E6;stroke-width:0.13;stroke-miterlimit:2.61313}
    .fil1 {fill:none}
    .fil2 {fill:#263674}
    .fil4 {fill:#EFB30C}
    .fil3 {fill:#F8BD1D}
    .fil5 {fill:#263674;fill-rule:nonzero}
    .fil0 {fill:#E6E6E6;fill-rule:nonzero}
   ]]>
  </style>
 </defs>
 <g id="Layer_x0020_1">
  <metadata id="CorelCorpID_0Corel-Layer"/>
  <g id="_2571543530848">
   <polygon class="fil0" points="10.93,0 129.64,0 129.64,1.18 10.93,1.18 "/>
   <polygon class="fil0" points="10.93,15.04 129.64,15.04 129.64,16.22 10.93,16.22 "/>
   <polygon class="fil0" points="10.93,30.68 129.64,30.68 129.64,31.85 10.93,31.85 "/>
   <line class="fil1 str0" x1="10.93" y1="46.9" x2="129.64" y2= "46.9" />
   <polygon class="fil0" points="10.93,46.26 129.64,46.26 129.64,47.44 10.93,47.44 "/>
   <polygon class="fil0" points="10.93,61.94 129.64,61.94 129.64,63.12 10.93,63.12 "/>
   <line class="fil1 str0" x1="10.93" y1="78.16" x2="129.64" y2= "78.16" />
   <line class="fil1 str0" x1="10.93" y1="93.79" x2="129.64" y2= "93.79" />
   <line class="fil1 str0" x1="10.93" y1="109.43" x2="129.64" y2= "109.43" />
   <polygon class="fil0" points="33.1,0 33.1,118.7 31.92,118.7 31.92,0 "/>
   <polygon class="fil0" points="49.29,0 49.29,118.7 48.11,118.7 48.11,0 "/>
   <polygon class="fil0" points="65.48,0 65.48,118.7 64.3,118.7 64.3,0 "/>
   <polygon class="fil0" points="81.66,0 81.66,118.7 80.49,118.7 80.49,0 "/>
   <polygon class="fil0" points="97.85,0 97.85,118.7 96.67,118.7 96.67,0 "/>
   <polygon class="fil0" points="114.04,0 114.04,118.7 112.86,118.7 112.86,0 "/>
   <g>
    <polygon class="fil2" points="10.69,63.85 41.93,83.91 63.67,28.71 89.92,52.47 129.64,0 129.64,118.95 10.69,118.95 "/>
    <polygon class="fil3" points="10.69,77.64 46.52,97.7 65.96,42.5 89.92,66.25 129.64,13.79 129.64,118.95 10.69,118.95 "/>
   </g>
   <circle class="fil4" cx="33.44" cy="14.61" r="7.42"/>
   <circle class="fil5" cx="31.92" cy="46.26" r="4.65"/>
   <circle class="fil4" cx="97.85" cy="15.04" r="4.65"/>
   <path class="fil2" d="M0 0l12.71 0 0 104.39c0,6.89 5.65,12.53 12.54,12.53l104.39 0 0 12.72 -117.1 0c-6.9,0 -12.54,-5.64 -12.54,-12.54l0 -117.1z"/>
  </g>
 </g>
</svg>
