<?xml version="1.0" encoding="UTF-8"?>
<!DOCTYPE svg PUBLIC "-//W3C//DTD SVG 1.1//EN" "http://www.w3.org/Graphics/SVG/1.1/DTD/svg11.dtd">
<!-- Creator: CorelDRAW 2020 (64-Bit Evaluation Version) -->
<svg xmlns="http://www.w3.org/2000/svg" xml:space="preserve" width="50px" height="42px" version="1.1" style="shape-rendering:geometricPrecision; text-rendering:geometricPrecision; image-rendering:optimizeQuality; fill-rule:evenodd; clip-rule:evenodd"
viewBox="0 0 2.87 2.43"
 xmlns:xlink="http://www.w3.org/1999/xlink"
 xmlns:xodm="http://www.corel.com/coreldraw/odm/2003">
 <defs>
  <style type="text/css">
   <![CDATA[
    .fil0 {fill:#0CEF63}
   ]]>
  </style>
 </defs>
 <g id="Layer_x0020_1">
  <metadata id="CorelCorpID_0Corel-Layer"/>
  <path class="fil0" d="M1.22 0c0.34,0 0.65,0.14 0.87,0.38l0.24 -0.24c0.06,-0.06 0.14,-0.09 0.22,-0.09 0.08,0 0.16,0.03 0.23,0.09 0.06,0.06 0.09,0.14 0.09,0.22 0,0.08 -0.03,0.16 -0.09,0.23l-0.38 0.37c0.02,0.08 0.03,0.17 0.03,0.26 0,0.67 -0.54,1.21 -1.21,1.21 -0.68,0 -1.22,-0.54 -1.22,-1.21 0,-0.68 0.54,-1.22 1.22,-1.22zm1.2 0.23l-1.09 1.08 -0.5 -0.49c-0.07,-0.08 -0.2,-0.08 -0.27,0 -0.08,0.07 -0.08,0.19 0,0.27l0.63 0.63c0.04,0.04 0.09,0.06 0.14,0.06 0,0 0,0 0,0 0.05,0 0.1,-0.02 0.14,-0.06l1.22 -1.22c0.07,-0.08 0.07,-0.2 0,-0.27 -0.08,-0.08 -0.2,-0.08 -0.27,0z"/>
 </g>
</svg>
