<?xml version="1.0" encoding="UTF-8"?>
<!DOCTYPE svg PUBLIC "-//W3C//DTD SVG 1.1//EN" "http://www.w3.org/Graphics/SVG/1.1/DTD/svg11.dtd">
<!-- Creator: CorelDRAW 2020 (64-Bit Evaluation Version) -->
<svg xmlns="http://www.w3.org/2000/svg" xml:space="preserve" width="50px" height="32px" version="1.1" style="shape-rendering:geometricPrecision; text-rendering:geometricPrecision; image-rendering:optimizeQuality; fill-rule:evenodd; clip-rule:evenodd"
viewBox="0 0 4.31 2.74"
 xmlns:xlink="http://www.w3.org/1999/xlink"
 xmlns:xodm="http://www.corel.com/coreldraw/odm/2003">
 <defs>
  <style type="text/css">
   <![CDATA[
    .fil0 {fill:#EFB30C}
   ]]>
  </style>
 </defs>
 <g id="Layer_x0020_1">
  <metadata id="CorelCorpID_0Corel-Layer"/>
  <path class="fil0" d="M0.13 0l4.05 0c0.07,0 0.13,0.06 0.13,0.13l0 2.49c0,0.07 -0.06,0.12 -0.13,0.12l-4.05 0c-0.07,0 -0.13,-0.05 -0.13,-0.12l0 -2.49c0,-0.07 0.06,-0.13 0.13,-0.13zm1.16 0.62c0.18,0 0.32,0.14 0.32,0.32 0,0.18 -0.14,0.33 -0.32,0.33 -0.18,0 -0.33,-0.15 -0.33,-0.33 0,-0.18 0.15,-0.32 0.33,-0.32zm-0.29 0.79l0.57 0c0.2,0 0.36,0.16 0.36,0.36l0 0.36 -1.28 0 0 -0.36c0,-0.2 0.16,-0.36 0.35,-0.36zm1.84 -1l1.02 0c0.12,0 0.22,0.1 0.22,0.22l0 0c0,0.12 -0.1,0.22 -0.22,0.22l-1.02 0c-0.12,0 -0.22,-0.1 -0.22,-0.22l0 0c0,-0.12 0.1,-0.22 0.22,-0.22zm0 1.48l1.02 0c0.12,0 0.22,0.1 0.22,0.22l0 0c0,0.12 -0.1,0.22 -0.22,0.22l-1.02 0c-0.12,0 -0.22,-0.1 -0.22,-0.22l0 0c0,-0.12 0.1,-0.22 0.22,-0.22zm0.25 -0.7l0.52 0c0.12,0 0.22,0.1 0.22,0.22l0 0c0,0.12 -0.1,0.22 -0.22,0.22l-0.52 0c-0.12,0 -0.22,-0.1 -0.22,-0.22l0 0c0,-0.12 0.1,-0.22 0.22,-0.22zm-2.66 -0.89l1.72 0c0.11,0 0.21,0.1 0.21,0.21l0 1.72c0,0.12 -0.1,0.21 -0.21,0.21l-1.72 0c-0.12,0 -0.21,-0.09 -0.21,-0.21l0 -1.72c0,-0.11 0.09,-0.21 0.21,-0.21z"/>
 </g>
</svg>
