<?xml version="1.0" encoding="UTF-8"?>
<!DOCTYPE svg PUBLIC "-//W3C//DTD SVG 1.1//EN" "http://www.w3.org/Graphics/SVG/1.1/DTD/svg11.dtd">
<!-- Creator: CorelDRAW 2020 (64-Bit Evaluation Version) -->
<svg xmlns="http://www.w3.org/2000/svg" xml:space="preserve" width="50px" height="50px" version="1.1" style="shape-rendering:geometricPrecision; text-rendering:geometricPrecision; image-rendering:optimizeQuality; fill-rule:evenodd; clip-rule:evenodd"
viewBox="0 0 3.75 3.75"
 xmlns:xlink="http://www.w3.org/1999/xlink"
 xmlns:xodm="http://www.corel.com/coreldraw/odm/2003">
 <defs>
  <style type="text/css">
   <![CDATA[
    .fil0 {fill:#EFB30C;fill-rule:nonzero}
   ]]>
  </style>
 </defs>
 <g id="Layer_x0020_1">
  <metadata id="CorelCorpID_0Corel-Layer"/>
  <g id="_2804915403888">
   <path class="fil0" d="M0 3.18c0,0.32 0.24,0.57 0.56,0.57l2.62 0c0.32,0 0.57,-0.25 0.57,-0.57l0 -1.49 -3.75 0 0 1.49zm3.18 -2.81l-0.37 0 0 -0.18c0,-0.12 -0.07,-0.19 -0.19,-0.19 -0.11,0 -0.18,0.07 -0.18,0.19l0 0.18 -1.13 0 0 -0.18c0,-0.12 -0.07,-0.19 -0.19,-0.19 -0.11,0 -0.18,0.07 -0.18,0.19l0 0.18 -0.38 0c-0.32,0 -0.56,0.25 -0.56,0.57l0 0.37 3.75 0 0 -0.37c0,-0.32 -0.25,-0.57 -0.57,-0.57z"/>
  </g>
 </g>
</svg>
