<?xml version="1.0" encoding="UTF-8"?>
<!DOCTYPE svg PUBLIC "-//W3C//DTD SVG 1.1//EN" "http://www.w3.org/Graphics/SVG/1.1/DTD/svg11.dtd">
<!-- Creator: CorelDRAW 2020 (64-Bit Evaluation Version) -->
<svg xmlns="http://www.w3.org/2000/svg" xml:space="preserve" width="50px" height="32px" version="1.1" style="shape-rendering:geometricPrecision; text-rendering:geometricPrecision; image-rendering:optimizeQuality; fill-rule:evenodd; clip-rule:evenodd"
viewBox="0 0 4.31 2.75"
 xmlns:xlink="http://www.w3.org/1999/xlink"
 xmlns:xodm="http://www.corel.com/coreldraw/odm/2003">
 <defs>
  <style type="text/css">
   <![CDATA[
    .str0 {stroke:#EFB30C;stroke-miterlimit:2.61313}
    .fil0 {fill:none}
    .fil1 {fill:#EFB30C}
    .fil3 {fill:white}
    .fil2 {fill:white;fill-rule:nonzero}
   ]]>
  </style>
 </defs>
 <g id="Layer_x0020_1">
  <metadata id="CorelCorpID_0Corel-Layer"/>
  <g id="_2804946643216">
   <path class="fil0 str0" d="M0 1.03l4.31 0 0 1.59c0,0.07 -0.06,0.12 -0.13,0.12l-4.05 0c-0.07,0 -0.13,-0.05 -0.13,-0.12l0 -1.59z"/>
   <g>
    <path class="fil1" d="M1.72 1.37l2.21 0c0.04,0 0.06,0.03 0.06,0.06l0 0c0,0.03 -0.02,0.05 -0.06,0.05l-2.21 0c-0.03,0 -0.06,-0.02 -0.06,-0.05l0 0c0,-0.03 0.03,-0.06 0.06,-0.06z"/>
    <path class="fil1" d="M1.72 1.88l2.21 0c0.04,0 0.06,0.03 0.06,0.06l0 0c0,0.03 -0.02,0.06 -0.06,0.06l-2.21 0c-0.03,0 -0.06,-0.03 -0.06,-0.06l0 0c0,-0.03 0.03,-0.06 0.06,-0.06z"/>
    <path class="fil1" d="M1.72 2.39l2.21 0c0.04,0 0.06,0.03 0.06,0.06l0 0c0,0.03 -0.02,0.06 -0.06,0.06l-2.21 0c-0.03,0 -0.06,-0.03 -0.06,-0.06l0 0c0,-0.03 0.03,-0.06 0.06,-0.06z"/>
    <path class="fil1" d="M1.72 1.63l1.86 0c0.03,0 0.06,0.02 0.06,0.05l0 0c0,0.03 -0.03,0.06 -0.06,0.06l-1.86 0c-0.03,0 -0.06,-0.02 -0.06,-0.06l0 0c0,-0.03 0.03,-0.05 0.06,-0.05z"/>
    <path class="fil1" d="M1.72 2.14l1.86 0c0.03,0 0.06,0.02 0.06,0.05l0 0.01c0,0.03 -0.03,0.05 -0.06,0.05l-1.86 0c-0.03,0 -0.06,-0.02 -0.06,-0.05l0 -0.01c0,-0.03 0.03,-0.05 0.06,-0.05z"/>
   </g>
   <rect class="fil1" x="0.45" y="1.37" width="0.88" height="1.14"/>
   <path class="fil1 str0" d="M0 0.76l4.31 0 0 -0.63c0,-0.07 -0.06,-0.13 -0.13,-0.13l-4.05 0c-0.07,0 -0.13,0.06 -0.13,0.13l0 0.63z"/>
   <g>
    <g>
     <path class="fil2" d="M0.58 0.22c0.03,-0.03 0.08,-0.04 0.1,-0.01 0.02,0.02 0.02,0.06 -0.01,0.09l-0.24 0.24c-0.03,0.03 -0.08,0.04 -0.1,0.01 -0.02,-0.02 -0.02,-0.06 0.01,-0.09l0.24 -0.24z"/>
     <path class="fil2" d="M0.67 0.46c0.02,0.03 0.03,0.07 0.01,0.09 -0.02,0.03 -0.07,0.02 -0.1,-0.01l-0.24 -0.24c-0.03,-0.03 -0.03,-0.07 -0.01,-0.09 0.02,-0.03 0.07,-0.02 0.1,0.01l0.24 0.24z"/>
    </g>
    <g>
     <path class="fil2" d="M1.24 0.22c0.03,-0.03 0.08,-0.04 0.1,-0.01 0.02,0.02 0.01,0.06 -0.01,0.09l-0.24 0.24c-0.03,0.03 -0.08,0.04 -0.1,0.01 -0.02,-0.02 -0.02,-0.06 0.01,-0.09l0.24 -0.24z"/>
     <path class="fil2" d="M1.32 0.46c0.03,0.03 0.04,0.07 0.02,0.09 -0.02,0.03 -0.07,0.02 -0.1,-0.01l-0.24 -0.24c-0.03,-0.03 -0.03,-0.07 -0.01,-0.09 0.02,-0.03 0.07,-0.02 0.1,0.01l0.23 0.24z"/>
    </g>
    <g>
     <path class="fil2" d="M1.9 0.22c0.03,-0.03 0.08,-0.04 0.1,-0.01 0.02,0.02 0.01,0.06 -0.02,0.09l-0.23 0.24c-0.03,0.03 -0.08,0.04 -0.1,0.01 -0.02,-0.02 -0.02,-0.06 0.01,-0.09l0.24 -0.24z"/>
     <path class="fil2" d="M1.98 0.46c0.03,0.03 0.04,0.07 0.02,0.09 -0.03,0.03 -0.07,0.02 -0.1,-0.01l-0.24 -0.24c-0.03,-0.03 -0.03,-0.07 -0.01,-0.09 0.02,-0.03 0.07,-0.02 0.1,0.01l0.23 0.24z"/>
    </g>
    <g>
     <path class="fil2" d="M2.56 0.22c0.03,-0.03 0.08,-0.04 0.1,-0.01 0.02,0.02 0.01,0.06 -0.02,0.09l-0.24 0.24c-0.02,0.03 -0.07,0.04 -0.09,0.01 -0.02,-0.02 -0.02,-0.06 0.01,-0.09l0.24 -0.24z"/>
     <path class="fil2" d="M2.64 0.46c0.03,0.03 0.04,0.07 0.02,0.09 -0.03,0.03 -0.07,0.02 -0.1,-0.01l-0.24 -0.24c-0.03,-0.03 -0.03,-0.07 -0.01,-0.09 0.02,-0.03 0.07,-0.02 0.09,0.01l0.24 0.24z"/>
    </g>
    <g>
     <path class="fil2" d="M3.22 0.22c0.03,-0.03 0.07,-0.04 0.1,-0.01 0.02,0.02 0.01,0.06 -0.02,0.09l-0.24 0.24c-0.03,0.03 -0.07,0.04 -0.09,0.01 -0.02,-0.02 -0.02,-0.06 0.01,-0.09l0.24 -0.24z"/>
     <path class="fil2" d="M3.3 0.46c0.03,0.03 0.04,0.07 0.02,0.09 -0.03,0.03 -0.07,0.02 -0.1,-0.01l-0.24 -0.24c-0.03,-0.03 -0.03,-0.07 -0.01,-0.09 0.02,-0.03 0.06,-0.02 0.09,0.01l0.24 0.24z"/>
    </g>
    <g>
     <path class="fil2" d="M3.88 0.22c0.03,-0.03 0.07,-0.04 0.1,-0.01 0.02,0.02 0.01,0.06 -0.02,0.09l-0.24 0.24c-0.03,0.03 -0.07,0.04 -0.09,0.01 -0.02,-0.02 -0.02,-0.06 0.01,-0.09l0.24 -0.24z"/>
     <path class="fil2" d="M3.96 0.46c0.03,0.03 0.04,0.07 0.02,0.09 -0.03,0.03 -0.07,0.02 -0.1,-0.01l-0.24 -0.24c-0.03,-0.03 -0.03,-0.07 -0.01,-0.09 0.02,-0.03 0.06,-0.02 0.09,0.01l0.24 0.24z"/>
    </g>
   </g>
   <g>
    <path class="fil3" d="M0.72 2.09l0.34 0c0.12,0 0.21,0.09 0.21,0.21l0 0.21 -0.76 0 0 -0.21c0,-0.12 0.1,-0.21 0.21,-0.21z"/>
    <path class="fil3" d="M0.89 1.62c0.11,0 0.19,0.08 0.19,0.19 0,0.11 -0.08,0.19 -0.19,0.19 -0.11,0 -0.19,-0.08 -0.19,-0.19 0,-0.11 0.08,-0.19 0.19,-0.19z"/>
   </g>
  </g>
 </g>
</svg>
