<?xml version="1.0" encoding="UTF-8"?>
<!DOCTYPE svg PUBLIC "-//W3C//DTD SVG 1.1//EN" "http://www.w3.org/Graphics/SVG/1.1/DTD/svg11.dtd">
<!-- Creator: CorelDRAW 2020 (64-Bit Evaluation Version) -->
<svg xmlns="http://www.w3.org/2000/svg" xml:space="preserve" width="300px" height="300px" version="1.1" style="shape-rendering:geometricPrecision; text-rendering:geometricPrecision; image-rendering:optimizeQuality; fill-rule:evenodd; clip-rule:evenodd"
viewBox="0 0 53.84 53.84"
 xmlns:xlink="http://www.w3.org/1999/xlink"
 xmlns:xodm="http://www.corel.com/coreldraw/odm/2003">
 <defs>
  <style type="text/css">
   <![CDATA[
    .fil1 {fill:#EFB30C}
    .fil0 {fill:#EFB30C;fill-rule:nonzero}
   ]]>
  </style>
 </defs>
 <g id="Layer_x0020_1">
  <metadata id="CorelCorpID_0Corel-Layer"/>
  <g id="_2804964767472">
   <path class="fil0" d="M1.23 0l52.61 0 0 53.84 -53.84 0 0 -53.84 1.23 0zm50.15 2.46l-48.92 0 0 48.92 48.92 0 0 -48.92z"/>
   <path class="fil1" d="M35.26 52.61c0,-6.5 -3.92,-11.45 -8.91,-13.96 -3.13,-1.57 -4.68,-1.55 -8.14,-1.55 -1.98,0 -4.55,0.92 -5.95,1.61 -1.1,0.56 -3.65,2.37 -4.35,3.21 -2.44,2.93 -4.43,6.43 -4.43,10.69l31.78 0z"/>
   <path class="fil1" d="M20 34.91c7.48,0 10.77,-10.34 5.31,-15.01 -3.63,-3.11 -8.53,-3.12 -12.07,0.4 -1.49,1.49 -2.52,3.77 -2.52,5.94 0,2.08 1.02,4.6 2.41,6.04 1.99,2.06 3.98,2.63 6.87,2.63z"/>
   <g>
    <path class="fil1" d="M50.35 38.18c0,-3.82 -2.3,-6.73 -5.24,-8.2 -1.83,-0.93 -2.75,-0.91 -4.78,-0.91 -1.16,0 -2.68,0.53 -3.5,0.94 -0.65,0.33 -2.15,1.39 -2.56,1.88 -1.43,1.73 -2.6,3.78 -2.6,6.29l18.68 0z"/>
    <path class="fil1" d="M41.38 27.78c4.4,0 6.33,-6.08 3.12,-8.83 -2.13,-1.82 -5.01,-1.83 -7.09,0.24 -0.88,0.88 -1.48,2.22 -1.48,3.49 0,1.22 0.6,2.71 1.42,3.55 1.16,1.21 2.33,1.55 4.03,1.55z"/>
   </g>
  </g>
 </g>
</svg>
