<?xml version="1.0" encoding="UTF-8"?>
<!DOCTYPE svg PUBLIC "-//W3C//DTD SVG 1.1//EN" "http://www.w3.org/Graphics/SVG/1.1/DTD/svg11.dtd">
<!-- Creator: CorelDRAW 2020 (64-Bit Evaluation Version) -->
<svg xmlns="http://www.w3.org/2000/svg" xml:space="preserve" width="50px" height="78px" version="1.1" style="shape-rendering:geometricPrecision; text-rendering:geometricPrecision; image-rendering:optimizeQuality; fill-rule:evenodd; clip-rule:evenodd"
viewBox="0 0 6.59 10.32"
 xmlns:xlink="http://www.w3.org/1999/xlink"
 xmlns:xodm="http://www.corel.com/coreldraw/odm/2003">
 <defs>
  <style type="text/css">
   <![CDATA[
    .fil0 {fill:#EFB30C;fill-rule:nonzero}
   ]]>
  </style>
 </defs>
 <g id="Layer_x0020_1">
  <metadata id="CorelCorpID_0Corel-Layer"/>
  <path class="fil0" d="M5.8 10.32l-5.01 0 -0.01 0 -0.48 0c-0.17,0 -0.3,-0.13 -0.3,-0.3 0,-0.16 0.13,-0.29 0.3,-0.29l0.19 0 0 -2.07c0,-1.09 0.63,-2.04 1.54,-2.5 -0.91,-0.46 -1.54,-1.41 -1.54,-2.5l0 -2.07 -0.19 0c-0.17,0 -0.3,-0.13 -0.3,-0.29 0,-0.17 0.13,-0.3 0.3,-0.3l0.48 0 0.01 0 5.01 0 0.01 0 0.48 0c0.17,0 0.3,0.13 0.3,0.3 0,0.16 -0.13,0.29 -0.3,0.29l-0.19 0 0 2.07c0,1.44 -1.1,2.64 -2.51,2.79l0 1.55c0,0.16 -0.13,0.29 -0.3,0.29 -0.16,0 -0.29,-0.13 -0.29,-0.29l0 -1.53c-1.08,0.15 -1.91,1.07 -1.91,2.19l0 2.07 4.41 0 0 -0.61 -1.16 0c-0.16,0 -0.3,-0.14 -0.3,-0.3 0,-0.16 0.14,-0.3 0.3,-0.3l1.16 0 0 -0.86c0,-0.48 -0.15,-0.93 -0.43,-1.31 -0.1,-0.14 -0.07,-0.32 0.06,-0.42 0.13,-0.1 0.32,-0.07 0.42,0.06 0.36,0.49 0.55,1.06 0.55,1.67l0 1.09c0,0.03 0,0.05 0,0.07 0,0.02 0,0.05 0,0.07l0 0.84 0.19 0c0.17,0 0.3,0.13 0.3,0.29 0,0.17 -0.13,0.3 -0.3,0.3l-0.48 0 -0.01 0z"/>
 </g>
</svg>
