<?xml version="1.0" encoding="UTF-8"?>
<!DOCTYPE svg PUBLIC "-//W3C//DTD SVG 1.1//EN" "http://www.w3.org/Graphics/SVG/1.1/DTD/svg11.dtd">
<!-- Creator: CorelDRAW 2020 (64-Bit Evaluation Version) -->
<svg xmlns="http://www.w3.org/2000/svg" xml:space="preserve" width="60px" height="82px" version="1.1" style="shape-rendering:geometricPrecision; text-rendering:geometricPrecision; image-rendering:optimizeQuality; fill-rule:evenodd; clip-rule:evenodd"
viewBox="0 0 0.28 0.38"
 xmlns:xlink="http://www.w3.org/1999/xlink"
 xmlns:xodm="http://www.corel.com/coreldraw/odm/2003">
 <defs>
  <style type="text/css">
   <![CDATA[
    .fil1 {fill:#24407C;fill-rule:nonzero}
    .fil2 {fill:#263674;fill-rule:nonzero}
    .fil0 {fill:#FEC00F;fill-rule:nonzero}
   ]]>
  </style>
 </defs>
 <g id="Layer_x0020_1">
  <metadata id="CorelCorpID_0Corel-Layer"/>
  <path class="fil0" d="M0.21 0.08l-0.01 0.13c0,0.07 -0.07,0.1 -0.1,0.12 0.02,0.01 0.03,0.01 0.03,0.01 0,0 0.1,-0.04 0.11,-0.12l0 -0.17c-0.01,0.01 -0.02,0.02 -0.03,0.03z"/>
  <path class="fil1" d="M0.14 0.37l0 0c-0.01,0 -0.13,-0.07 -0.13,-0.16l0 -0.01c0,0 0,0 0,0 0.01,0 0.01,0 0.01,0l0 0.01c0,0.07 0.1,0.14 0.12,0.15 0.02,-0.01 0.12,-0.08 0.12,-0.15l0 -0.15c-0.03,0.02 -0.06,0.03 -0.09,0.03l-0.07 0c-0.03,0 -0.06,-0.01 -0.08,-0.03l0 0.04c0,0.01 0,0.01 -0.01,0.01 0,0 0,0 0,-0.01l0 -0.08 0.01 0.02c0.02,0.02 0.05,0.04 0.08,0.04l0.07 0c0.04,0 0.06,-0.02 0.09,-0.04l0.01 -0.02 0 0.19c0,0.09 -0.12,0.16 -0.13,0.16l0 0z"/>
  <path class="fil2" d="M0.13 0.38l0 0c0,-0.01 -0.06,-0.04 -0.1,-0.08 -0.02,-0.03 -0.03,-0.05 -0.03,-0.09l0 -0.01c0,0 0,-0.01 0,-0.01 0.01,0 0.01,0 0.01,0 0.01,0 0.01,0 0.01,0 0.01,0 0.01,0.01 0.01,0.01l0 0.01c0,0.03 0.01,0.05 0.03,0.07 0.02,0.03 0.06,0.06 0.08,0.07 0.01,-0.01 0.04,-0.02 0.06,-0.05 0.03,-0.02 0.05,-0.05 0.05,-0.09l0 -0.14c-0.01,0.01 -0.02,0.02 -0.03,0.02 -0.01,0.01 -0.03,0.01 -0.05,0.01l-0.07 0c-0.01,0 -0.03,0 -0.04,-0.01 -0.01,0 -0.02,-0.01 -0.03,-0.02l0 0.03c0,0.01 0,0.01 -0.01,0.01 0,0.01 0,0.01 -0.01,0.01 0,0 0,0 -0.01,-0.01 0,0 0,0 0,-0.01l0 -0.1 0.02 0.03c0.02,0.01 0.03,0.02 0.04,0.03 0.01,0.01 0.03,0.01 0.04,0.01l0.07 0c0.02,0 0.03,0 0.05,-0.01 0.01,-0.01 0.02,-0.02 0.03,-0.03l0.03 -0.03 0 0.21c0,0.04 -0.02,0.06 -0.04,0.09 -0.04,0.04 -0.09,0.07 -0.1,0.08l0 0 -0.01 0z"/>
  <path class="fil1" d="M0.01 0.18c0,0 0,-0.01 0,-0.01l0 -0.03c0,0 0,-0.01 0,-0.01 0.01,0 0.01,0.01 0.01,0.01l0 0.03c0,0 0,0.01 -0.01,0.01z"/>
  <path class="fil2" d="M0.01 0.18c0,0 0,0 -0.01,0 0,-0.01 0,-0.01 0,-0.01l0 -0.03c0,-0.01 0,-0.01 0,-0.01 0.01,0 0.01,0 0.01,0 0.01,0 0.01,0 0.01,0 0.01,0 0.01,0 0.01,0.01l0 0.03c0,0 0,0 -0.01,0.01 0,0 0,0 -0.01,0z"/>
  <path class="fil2" d="M0.11 0.25l-0.05 -0.06c0,0 0,-0.01 0,-0.01 0.01,0 0.01,0 0.01,0l0.04 0.05 0.07 -0.07c0,0 0,0 0,0 0,0 0.01,0 0,0.01l-0.07 0.08z"/>
  <path class="fil2" d="M0.11 0.26l-0.05 -0.07c-0.01,0 -0.01,0 -0.01,0 0,-0.01 0.01,-0.01 0.01,-0.01l0 0c0,0 0,-0.01 0.01,-0.01 0,0 0,0.01 0.01,0.01 0.01,0.01 0.02,0.03 0.03,0.04l0.06 -0.07c0,0 0.01,0 0.01,0 0,0 0,0 0.01,0l0 0c0,0 0,0.01 0,0.01 0,0 0,0.01 0,0.01 -0.03,0.03 -0.05,0.06 -0.08,0.09l0 0z"/>
 </g>
</svg>
