<?xml version="1.0" encoding="UTF-8"?>
<!DOCTYPE svg PUBLIC "-//W3C//DTD SVG 1.1//EN" "http://www.w3.org/Graphics/SVG/1.1/DTD/svg11.dtd">
<!-- Creator: CorelDRAW 2020 (64-Bit Evaluation Version) -->
<svg xmlns="http://www.w3.org/2000/svg" xml:space="preserve" width="50px" height="50px" version="1.1" style="shape-rendering:geometricPrecision; text-rendering:geometricPrecision; image-rendering:optimizeQuality; fill-rule:evenodd; clip-rule:evenodd"
viewBox="0 0 7.88 7.88"
 xmlns:xlink="http://www.w3.org/1999/xlink"
 xmlns:xodm="http://www.corel.com/coreldraw/odm/2003">
 <defs>
  <style type="text/css">
   <![CDATA[
    .fil0 {fill:#263674}
    .fil1 {fill:#FDCB08}
   ]]>
  </style>
 </defs>
 <g id="Layer_x0020_1">
  <metadata id="CorelCorpID_0Corel-Layer"/>
  <g id="_2508658776304">
   <path class="fil0" d="M0.87 6.39c-0.54,-0.67 -0.87,-1.53 -0.87,-2.47 0,-0.01 0,-0.04 0,-0.06l1.37 2.52c0.4,0.56 0.68,0.22 0.68,0.22 0.25,-0.15 0.72,-1.12 0.89,-1.41 0.06,-0.11 0.11,0 0.11,0l0.19 0.32c0.19,0.41 0.58,1.02 0.59,1.02 0.36,0.43 0.7,-0.07 0.7,-0.07 0.36,-0.5 0.89,-1.52 1.11,-1.96 0.25,-0.39 0.23,-0.58 0.23,-0.58 0.04,-0.26 -0.25,-0.65 -0.28,-0.7 -0.16,-0.24 -0.28,0.02 -0.28,0.02l-0.98 1.81c-0.16,0.38 -0.28,0.05 -0.28,0.05l-0.7 -1.33c-0.07,-0.2 -0.18,-0.04 -0.18,-0.04l-0.54 0.99c-0.21,0.34 -0.41,0.01 -0.41,0.01l-0.34 -0.64c-0.04,0.05 -0.07,0.13 -0.11,0.21 -0.01,-0.22 -0.02,-0.49 -0.03,-0.61 -0.01,-0.21 1.54,-2.53 1.54,-2.53 0,0 0.63,-0.41 0.81,-0.25 0.18,0.17 0.83,1.45 0.83,1.45 0,0 0.18,-0.34 0.16,-0.81 -0.01,-0.47 1.2,-0.79 1.2,-0.79l1.33 2.23 0.21 0.27c0.04,0.22 0.06,0.45 0.06,0.68 0,0.01 0,0.05 0,0.06l-1.37 -2.51c-0.4,-0.56 -0.68,-0.22 -0.68,-0.22 -0.24,0.15 -0.72,1.11 -0.88,1.4 -0.06,0.11 -0.11,0.01 -0.11,0.01l-0.19 -0.33c-0.19,-0.4 -0.59,-1.02 -0.6,-1.01 -0.35,-0.44 -0.7,0.07 -0.7,0.07 -0.35,0.5 -0.89,1.52 -1.1,1.95 -0.26,0.4 -0.23,0.59 -0.23,0.59 -0.04,0.25 0.24,0.64 0.27,0.69 0.16,0.25 0.29,-0.01 0.29,-0.01l0.97 -1.82c0.16,-0.38 0.28,-0.05 0.28,-0.05l0.71 1.33c0.06,0.2 0.18,0.05 0.18,0.05l0.51 -0.97c0.21,-0.34 0.42,-0.05 0.42,-0.05l0.36 0.66c0.12,-0.21 0.29,-0.69 0.45,-0.52l-1.9 3.56c0,0 -0.38,0.65 -0.85,0.08 -0.47,-0.57 -0.76,-1.33 -0.76,-1.33l-0.75 1.36c0,0 -0.22,0.3 -1.33,-0.54z"/>
   <path class="fil1" d="M1.34 4.49l-0.9 -1.72c0.36,-1.44 1.76,-2.71 3.48,-2.77 1.21,-0.05 2.26,0.51 2.88,1.15 0.8,0.78 1.15,2.02 1.07,2.87l-1.36 -2.52c-0.41,-0.56 -0.69,-0.22 -0.69,-0.22 -0.24,0.15 -0.71,1.11 -0.88,1.41 -0.06,0.1 -0.11,0 -0.11,0l-0.19 -0.32c-0.19,-0.41 -0.58,-1.03 -0.59,-1.02 -0.36,-0.44 -0.71,0.07 -0.71,0.07 -0.35,0.5 -0.89,1.52 -1.1,1.95 -0.1,0.17 -0.65,1.71 -0.9,1.12z"/>
   <path class="fil0" d="M6.55 3.39l0.89 1.73c-0.36,1.43 -1.76,2.7 -3.48,2.76 -1.21,0.05 -2.26,-0.51 -2.87,-1.14 -0.8,-0.79 -1.16,-2.03 -1.08,-2.87l1.37 2.51c0.4,0.56 0.68,0.22 0.68,0.22 0.24,-0.14 0.72,-1.11 0.88,-1.4 0.06,-0.11 0.11,-0.01 0.11,-0.01l0.19 0.33c0.19,0.4 0.59,1.02 0.6,1.01 0.35,0.44 0.7,-0.07 0.7,-0.07 0.35,-0.5 0.89,-1.52 1.1,-1.95 0.11,-0.17 0.65,-1.71 0.91,-1.12z"/>
  </g>
 </g>
</svg>
