<svg xmlns="http://www.w3.org/2000/svg" viewBox="0 0 166.18 166.18"><defs><style>.cls-1{fill:#25336b;}.cls-2{fill:#fff;}.cls-3{opacity:0.3;}</style></defs><g id="Layer_2" data-name="Layer 2"><g id="OBJECTS"><path class="cls-1" d="M141.86,24.32a83.11,83.11,0,1,0,24.32,58.77A83.16,83.16,0,0,0,141.86,24.32ZM116.34,108H83.09v24.92L58.17,108,41.51,91.42h74.83ZM49.84,74.76V58.17H83.09V33.25L124.6,74.76Z"/><polygon class="cls-2" points="116.34 91.42 116.34 108.01 83.09 108.01 83.09 132.93 58.17 108.01 41.51 91.42 116.34 91.42"/><polygon class="cls-2" points="124.6 74.76 49.84 74.76 49.84 58.17 83.09 58.17 83.09 33.25 124.6 74.76"/><path class="cls-3" d="M166.18,83.09A83.11,83.11,0,0,1,24.32,141.86L58.17,108l24.92,24.92V108h33.25V91.42H74.76L91.42,74.76H124.6L108,58.17l33.85-33.85A82.87,82.87,0,0,1,166.18,83.09Z"/></g></g></svg>