<svg xmlns="http://www.w3.org/2000/svg" viewBox="0 0 135.93 166.18"><defs><style>.cls-1{fill:#25336b;}.cls-1,.cls-2,.cls-3{fill-rule:evenodd;}.cls-2{fill:#fff;}.cls-3{opacity:0.3;}</style></defs><g id="Layer_2" data-name="Layer 2"><g id="OBJECTS"><path class="cls-1" d="M71.34.8a7.5,7.5,0,0,0-6.75,0L4.17,31A7.57,7.57,0,0,0,0,37.76V83.07c0,20.1,6.5,36.94,18.15,50.72,11.52,13.63,27.8,24,47,31.79a7.55,7.55,0,0,0,5.72,0c19.15-7.84,35.43-18.16,47-31.79s18.14-30.62,18.14-50.72V37.76A7.55,7.55,0,0,0,131.76,31Z"/><path class="cls-2" d="M103.89,65.35a7.55,7.55,0,1,0-11.43-9.87L58.62,94.7,43.05,79.42A7.55,7.55,0,0,0,32.47,90.2l21.32,20.92a7.56,7.56,0,0,0,11-.46Z"/><path class="cls-3" d="M135.93,37.79V83.12c0,20-6.52,36.91-18.15,50.71-11.55,13.59-27.79,23.92-47,31.8a8.16,8.16,0,0,1-2.85.55V107l35.88-41.6a7.54,7.54,0,1,0-11.42-9.85L68,83.87V0a7.58,7.58,0,0,1,3.39.81l60.36,30.25A7.44,7.44,0,0,1,135.93,37.79Z"/><path class="cls-3" d="M103.85,65.38,68,107V83.87L92.43,55.53a7.54,7.54,0,1,1,11.42,9.85Z"/></g></g></svg>