<svg xmlns="http://www.w3.org/2000/svg" xmlns:xlink="http://www.w3.org/1999/xlink" viewBox="0 0 2645.09 1624.22"><defs><style>.cls-1,.cls-27{fill:#f7ce00;}.cls-2{isolation:isolate;}.cls-3{opacity:0.1;}.cls-4{fill:#25336b;}.cls-5,.cls-7{fill:#b3becc;}.cls-6{fill:#d4d8df;}.cls-7{opacity:0.34;}.cls-8{clip-path:url(#clip-path);}.cls-9{fill:#f7bf00;}.cls-10{fill:#9f9f9f;}.cls-11{fill:#f7b500;}.cls-12{font-size:45.79px;font-family:Ancillary-Bold, Ancillary;font-weight:700;}.cls-12,.cls-18{fill:#fff;}.cls-13{letter-spacing:-0.1em;}.cls-14{letter-spacing:0.01em;}.cls-15{letter-spacing:0em;}.cls-16{opacity:0.2;}.cls-17{fill:#2b4faa;}.cls-19{fill:#071835;opacity:0.15;}.cls-20{fill:#35b568;}.cls-21,.cls-23{fill:#3ece78;}.cls-22{fill:#21b75d;}.cls-23,.cls-27{fill-rule:evenodd;}.cls-24{fill:#f8f8f8;mix-blend-mode:soft-light;}.cls-25{fill:#f7ae00;}.cls-26{fill:#f79c00;}.cls-28{fill:#ff5f25;}.cls-29{fill:#04bfad;}.cls-30{fill:#00a79d;}</style><clipPath id="clip-path"><rect class="cls-1" x="837.25" y="584.73" width="1128.57" height="708.05"/></clipPath></defs><g class="cls-2"><g id="Layer_2" data-name="Layer 2"><g id="OBJECTS"><g class="cls-3"><path class="cls-4" d="M2249.65,709.12c43.9.06,79.11-34.32,79.47-77.63.36-42.48-35.74-79-78.43-79.45-43.22-.4-78.41,34.73-78.54,78.43C2172,675.35,2205.22,709.05,2249.65,709.12Z"/><path class="cls-4" d="M1897.86,157.19c42.93-.19,78.46-35.66,78.7-78.57A78.21,78.21,0,0,0,1898.46,0c-44.43-.13-78.73,33.26-79.12,77C1818.93,121.71,1853.88,157.39,1897.86,157.19Z"/><path class="cls-4" d="M1733.33,157.17c18.65.35,33.75-14.89,34-34.29.22-19.92-13.42-34.49-32.93-35.17-20-.69-35.24,14.55-35.12,35.08C1699.36,142.05,1714,156.81,1733.33,157.17Z"/><circle class="cls-4" cx="235.08" cy="1184.07" r="235.08" transform="translate(-768.41 513.03) rotate(-45)"/><path class="cls-4" d="M526.45,982.36c50.58,69.12,66.4,147.06,54.39,230.69-12.51,87.11-47.24,165.93-96.69,238C458.82,1488,431.82,1523.75,405,1559.6a498.85,498.85,0,0,0-45.72,64.62H2644.35c4.94-77.14-14.66-157.3-64-229.11-54.26-79-65.39-158.88-32.12-249.56q4.83-13.18,8.3-26.21a218.76,218.76,0,0,0,27.25-106c0-121.4-98.41-219.8-219.8-219.8a221.74,221.74,0,0,0-34.5,2.71c-5.6-.36-11.22-.64-16.77-1.12-43.31-3.74-83.81-16-116.75-45.09-83.26-73.5-114.9-164-85-272.84,9.93-36.15,14.11-72.49,6.05-109.13-18.14-82.48-67.5-139.31-148.11-163.66-82-24.77-155.45-4.58-217.12,55.62-42.61,41.6-90.71,75.69-147.83,92.71-164.33,49-314.18,21.89-443.24-94.22C1000.81,114.61,787.49,86.57,607.6,189.21,411.54,301.08,293.9,557.32,408.53,795.8,440.69,862.72,482.9,922.83,526.45,982.36Z"/></g><path class="cls-5" d="M2055.59,1623.37H738a50.31,50.31,0,0,1-50.32-50.31v-19.37l1418.22-.36v19.73A50.31,50.31,0,0,1,2055.59,1623.37Z"/><path class="cls-6" d="M819.89,1331.34,692,1539a28.7,28.7,0,0,0,24.44,43.76H2077.16a28.71,28.71,0,0,0,24.58-43.53L1976.46,1331.6a34.55,34.55,0,0,0-29.58-16.69H849.3A34.54,34.54,0,0,0,819.89,1331.34Z"/><path class="cls-7" d="M1002.52,1356.17l-38.69,92.58a9.52,9.52,0,0,0,8.79,13.2h856.15a9.52,9.52,0,0,0,8.79-13.2l-38.69-92.58a9.53,9.53,0,0,0-8.79-5.86H1011.31A9.53,9.53,0,0,0,1002.52,1356.17Z"/><path class="cls-7" d="M1250.27,1498.51l-6.92,43.81a9.75,9.75,0,0,0,9.63,11.27h295.43a9.75,9.75,0,0,0,9.63-11.27l-6.92-43.81a9.75,9.75,0,0,0-9.63-8.23H1259.9A9.75,9.75,0,0,0,1250.27,1498.51Z"/><rect class="cls-1" x="837.25" y="584.73" width="1128.57" height="708.05"/><g class="cls-8"><polygon class="cls-9" points="1986.24 605.16 1986.24 1313.21 857.68 1313.21 1295.67 1043.15 1986.24 605.16"/></g><rect class="cls-10" x="837.25" y="584.73" width="18.46" height="708.05"/><rect class="cls-10" x="1947.35" y="584.73" width="18.46" height="708.05"/><rect class="cls-10" x="837.25" y="584.73" width="1128.57" height="18.46"/><polygon class="cls-1" points="2084.31 851.18 2101.82 843.78 2118.84 852.25 2111.44 834.74 2119.91 817.72 2102.4 825.12 2085.38 816.65 2092.78 834.16 2084.31 851.18"/><polygon class="cls-11" points="2111.44 834.74 2118.84 852.25 2101.82 843.78 2084.31 851.18 2119.91 817.72 2111.44 834.74"/><polygon class="cls-1" points="2028.34 841.26 2041.38 835.75 2054.05 842.06 2048.54 829.02 2054.85 816.35 2041.81 821.86 2029.14 815.55 2034.65 828.59 2028.34 841.26"/><polygon class="cls-11" points="2048.54 829.02 2054.05 842.06 2041.38 835.75 2028.34 841.26 2054.85 816.35 2048.54 829.02"/><polygon class="cls-1" points="2045.26 894.82 2055.73 890.39 2065.91 895.46 2061.48 884.99 2066.55 874.81 2056.08 879.24 2045.9 874.17 2050.33 884.64 2045.26 894.82"/><polygon class="cls-11" points="2061.48 884.99 2065.91 895.46 2055.73 890.39 2045.26 894.82 2066.55 874.81 2061.48 884.99"/><rect class="cls-4" x="1527.73" y="789.07" width="358.55" height="125.65" rx="2.22"/><text class="cls-12" transform="translate(1619.16 865.86)">CRE<tspan class="cls-13" x="84.21" y="0">A</tspan><tspan class="cls-14" x="115.12" y="0">T</tspan><tspan class="cls-15" x="147.17" y="0">E</tspan></text><path class="cls-16" d="M1886.28,819.72v64.35a30.64,30.64,0,0,1-30.64,30.65H1558.37a30.64,30.64,0,0,1-30.64-30.65"/><circle class="cls-17" cx="1198.23" cy="952.44" r="224.35"/><circle class="cls-18" cx="1198.23" cy="897.94" r="62.18"/><path class="cls-18" d="M1081.62,1071.71a116.61,116.61,0,1,1,233.21,0"/><path class="cls-19" d="M1197.55,1176.79c-123.91,0-224.35-100.44-224.35-224.35s100.44-224.35,224.35-224.35"/><rect class="cls-18" x="1323.89" y="848.01" width="27.19" height="101.78" rx="0.83"/><rect class="cls-18" x="1323.89" y="848.01" width="27.19" height="101.78" rx="0.83" transform="translate(2236.38 -438.58) rotate(90)"/><path class="cls-4" d="M1622.49,1006.69h457a0,0,0,0,1,0,0V1238a0,0,0,0,1,0,0H1613.8a0,0,0,0,1,0,0v-222.6A8.69,8.69,0,0,1,1622.49,1006.69Z"/><circle class="cls-20" cx="2169.43" cy="1009.33" r="111.65"/><circle class="cls-21" cx="2169.43" cy="1009.33" r="103.64" transform="translate(-78.3 1829.65) rotate(-45)"/><path class="cls-21" d="M2193.39,1110.17l-35.76-203.8a103.64,103.64,0,0,1,35.76,203.8Z"/><circle class="cls-22" cx="2169.43" cy="1009.33" r="78.77" transform="translate(-223.31 1009.01) rotate(-24.94)"/><g id="Layer_1-2" data-name="Layer_1"><g id="_2074208353808" data-name=" 2074208353808"><path class="cls-23" d="M2199.07,1033.22l4.12-6.11a50.43,50.43,0,0,1,4.16,7.49c.4,1.07-1.06,2.74-1.85,3.87-3.91,5.62-9.62,9.79-15.59,12.74a44.45,44.45,0,0,1-19.57,4.46c-11.7.7-23.49-5.06-31.66-13a43.93,43.93,0,0,1-12.89-31.53,42.1,42.1,0,0,1,3.57-17.18s1.59-4.5,2.8-4.71l14.33,27c1.76,4.16,3.55-1.34,4.89-3.57l3.14,5.86s1.87,3.08,3.76-.06l4.92-9.07s1-1.42,1.64.4l6.43,12.17s1.13,3,2.59-.47l8.92-16.6s1.17-2.4,2.61-.13c.28.42,2.89,4,2.51,6.33,0,0,.21,1.74-2.1,5.39-1.94,4-6.86,13.31-10.11,17.9,0,0-3.17,4.61-6.44.64a75.13,75.13,0,0,1-5.41-9.32l-1.74-3s-.47-1-1,0c-1.53,2.67-5.86,11.53-8.07,12.86,0,0-2.57,3.13-6.26-2l-12.51-23c0,.13,0,.42,0,.55a36.18,36.18,0,0,0,64.87,22.06Z"/><path class="cls-23" d="M2141.5,989.29l-4.1,6.12a47.11,47.11,0,0,1-4.16-7.5c-.42-1.06,1.06-2.74,1.83-3.89,3.91-5.62,9.62-9.76,15.58-12.71a44.45,44.45,0,0,1,19.58-4.46c11.72-.7,23.51,5,31.66,13a43.84,43.84,0,0,1,12.89,31.51,42.09,42.09,0,0,1-3.57,17.18s-1.59,4.52-2.8,4.72q-7.17-13.49-14.33-27c-1.77-4.16-3.55,1.34-4.89,3.57l-3.25-6s-1.91-2.65-3.82.47l-4.73,8.84s-1.06,1.42-1.66-.41l-6.43-12.17s-1.13-3-2.59.47l-8.92,16.61s-1.17,2.4-2.61.12c-.26-.44-2.89-4-2.51-6.32,0,0-.21-1.74,2.1-5.4,1.94-3.95,6.86-13.31,10.11-17.9,0,0,3.16-4.63,6.43-.63a71.85,71.85,0,0,1,5.42,9.32l1.74,3s.49,1,1,0c1.53-2.68,5.86-11.53,8.07-12.89,0,0,2.59-3.1,6.26,2l12.51,23c0-.12,0-.44,0-.57a36.17,36.17,0,0,0-36.18-36.16,36,36,0,0,0-28.69,14.12Z"/></g></g><path class="cls-24" d="M2209.64,1104.88a103.67,103.67,0,0,0-34.93-199.07Z"/><path class="cls-24" d="M2161.9,1112.73l-34.75-198.05a104.34,104.34,0,0,1,24.37-7.43q3.06-.54,6.11-.88l35.76,203.8q-3,.7-6,1.25A104.2,104.2,0,0,1,2161.9,1112.73Z"/><circle class="cls-20" cx="2021.61" cy="1138.33" r="111.65"/><circle class="cls-21" cx="2021.61" cy="1138.33" r="103.64" transform="translate(-212.81 1762.9) rotate(-45)"/><path class="cls-21" d="M2045.57,1239.17l-35.76-203.81a103.65,103.65,0,0,1,35.76,203.81Z"/><circle class="cls-22" cx="2021.61" cy="1138.33" r="78.77" transform="translate(-291.49 958.7) rotate(-24.94)"/><g id="Layer_1-3" data-name="Layer_1"><g id="_2074208353808-2" data-name=" 2074208353808"><path class="cls-23" d="M2051.24,1162.22l4.12-6.11a48.68,48.68,0,0,1,4.16,7.49c.41,1.06-1.06,2.74-1.84,3.87-3.91,5.62-9.62,9.78-15.59,12.74a44.49,44.49,0,0,1-19.58,4.46c-11.7.7-23.48-5.06-31.66-13a43.94,43.94,0,0,1-12.88-31.53,42.06,42.06,0,0,1,3.56-17.18s1.6-4.5,2.81-4.71q7.15,13.5,14.33,27c1.76,4.17,3.54-1.33,4.88-3.56l3.14,5.86s1.87,3.08,3.76-.07l4.93-9.06s1-1.43,1.63.4l6.44,12.17s1.12,3,2.59-.47l8.92-16.6s1.16-2.4,2.61-.13c.27.42,2.89,4,2.5,6.33,0,0,.22,1.74-2.1,5.39-1.93,4-6.86,13.31-10.11,17.9,0,0-3.16,4.61-6.43.64a74.74,74.74,0,0,1-5.41-9.33l-1.75-3s-.46-1-1,0c-1.53,2.68-5.86,11.53-8.07,12.87,0,0-2.57,3.12-6.27-2l-12.5-23c0,.12-.05.42-.05.55a36.18,36.18,0,0,0,64.87,22.06Z"/><path class="cls-23" d="M1993.68,1118.29l-4.1,6.11a45.52,45.52,0,0,1-4.16-7.49c-.43-1.06,1.06-2.74,1.82-3.89,3.91-5.62,9.62-9.76,15.59-12.72a44.56,44.56,0,0,1,19.58-4.46c11.72-.7,23.5,5,31.66,13a43.8,43.8,0,0,1,12.89,31.51,42.09,42.09,0,0,1-3.57,17.18s-1.59,4.52-2.8,4.71q-7.17-13.47-14.34-27c-1.76-4.17-3.54,1.33-4.88,3.56l-3.25-6s-1.91-2.65-3.82.47l-4.74,8.83s-1.06,1.43-1.65-.4l-6.44-12.17s-1.12-3-2.59.47l-8.92,16.6s-1.16,2.4-2.61.13c-.25-.44-2.89-4-2.5-6.33,0,0-.22-1.74,2.1-5.39,1.93-4,6.86-13.31,10.11-17.9,0,0,3.16-4.63,6.43-.64a73.43,73.43,0,0,1,5.41,9.33l1.75,3s.48,1,1,0c1.52-2.68,5.86-11.53,8.06-12.89,0,0,2.59-3.1,6.27,2l12.5,23c0-.12.05-.44.05-.57a36.17,36.17,0,0,0-64.87-22Z"/></g></g><path class="cls-24" d="M2061.81,1233.88a103.67,103.67,0,0,0-34.93-199.08Z"/><path class="cls-24" d="M2014.07,1241.72l-34.75-198a103.87,103.87,0,0,1,24.37-7.43c2-.36,4.09-.65,6.12-.89l35.76,203.81q-3,.7-6,1.24A103.82,103.82,0,0,1,2014.07,1241.72Z"/><circle class="cls-1" cx="1878" cy="1187.94" r="102.43"/><path class="cls-9" d="M1980.43,1187.94A102.43,102.43,0,0,0,1878,1085.51v204.86A102.43,102.43,0,0,0,1980.43,1187.94Z"/><circle class="cls-9" cx="1878" cy="1187.94" r="80.83"/><path class="cls-25" d="M1958.83,1187.94a80.83,80.83,0,0,0-80.83-80.83v161.65A80.82,80.82,0,0,0,1958.83,1187.94Z"/><path class="cls-25" d="M1878,1107.11a80.83,80.83,0,1,0,80.83,80.83A80.83,80.83,0,0,0,1878,1107.11Zm0,155.45a74.62,74.62,0,1,1,74.62-74.62A74.61,74.61,0,0,1,1878,1262.56Z"/><path class="cls-26" d="M1945,1142.75a81.4,81.4,0,0,0-21.83-21.83,80.45,80.45,0,0,0-45.2-13.81v6.21a74.62,74.62,0,0,1,0,149.24v6.2a80.84,80.84,0,0,0,67-126Z"/><g id="Layer_1-4" data-name="Layer_1"><g id="_2074208353808-3" data-name=" 2074208353808"><path class="cls-27" d="M1912.55,1216.45l5.14-7.62a61.07,61.07,0,0,1,5.18,9.34c.51,1.32-1.32,3.41-2.3,4.81-4.87,7-12,12.2-19.42,15.88a55.41,55.41,0,0,1-24.4,5.56c-14.58.87-29.27-6.3-39.45-16.22a54.73,54.73,0,0,1-16.07-39.3c.11-7.57,1.49-15.13,4.45-21.41,0,0,2-5.61,3.49-5.87q8.94,16.83,17.86,33.66c2.2,5.19,4.42-1.67,6.09-4.45l3.92,7.31s2.32,3.83,4.68-.08l6.14-11.3s1.3-1.77,2,.5l8,15.16s1.41,3.76,3.23-.58l11.12-20.69s1.45-3,3.25-.16c.35.53,3.6,5,3.12,7.89,0,0,.27,2.17-2.62,6.72-2.4,4.92-8.54,16.59-12.59,22.3,0,0-3.94,5.75-8,.8a92.06,92.06,0,0,1-6.75-11.62l-2.17-3.68s-.58-1.19-1.27,0c-1.9,3.33-7.3,14.37-10,16,0,0-3.2,3.88-7.81-2.52l-15.58-28.68c0,.16-.06.53-.06.68a45.1,45.1,0,0,0,80.84,27.5Z"/><path class="cls-27" d="M1840.82,1161.7l-5.11,7.62a57.58,57.58,0,0,1-5.19-9.34c-.53-1.32,1.32-3.41,2.28-4.84,4.87-7,12-12.18,19.42-15.85a55.47,55.47,0,0,1,24.4-5.56c14.6-.87,29.29,6.27,39.45,16.22a54.59,54.59,0,0,1,16.06,39.27c-.1,7.59-1.48,15.16-4.44,21.41,0,0-2,5.63-3.49,5.87q-8.94-16.79-17.87-33.63c-2.19-5.19-4.42,1.67-6.08,4.44l-4-7.51s-2.38-3.31-4.76.58l-5.9,11s-1.33,1.77-2.07-.5l-8-15.17s-1.4-3.75-3.22.59L1861.11,1197s-1.45,3-3.25.16c-.32-.56-3.6-5-3.13-7.89,0,0-.26-2.17,2.62-6.72,2.41-4.92,8.55-16.59,12.6-22.31,0,0,3.94-5.76,8-.79a92.48,92.48,0,0,1,6.74,11.62l2.17,3.68s.61,1.19,1.27,0c1.91-3.34,7.31-14.37,10.06-16.06,0,0,3.23-3.87,7.81,2.54l15.58,28.68c0-.16.06-.55.06-.71a45.1,45.1,0,0,0-45.1-45.07,44.86,44.86,0,0,0-35.74,17.6Z"/></g></g><circle class="cls-1" cx="2189.59" cy="1173.12" r="102.43"/><path class="cls-9" d="M2229.74,1078.89A102.42,102.42,0,0,0,2095.36,1133l188.46,80.31A102.43,102.43,0,0,0,2229.74,1078.89Z"/><circle class="cls-9" cx="2189.59" cy="1173.12" r="80.83"/><path class="cls-25" d="M2221.28,1098.76a80.83,80.83,0,0,0-106.05,42.67l148.71,63.37A80.83,80.83,0,0,0,2221.28,1098.76Z"/><path class="cls-25" d="M2115.23,1141.43a80.82,80.82,0,1,0,106.05-42.67A80.83,80.83,0,0,0,2115.23,1141.43Zm143,60.94a74.62,74.62,0,1,1-39.39-97.9A74.61,74.61,0,0,1,2258.23,1202.37Z"/><path class="cls-26" d="M2174.29,1093.74a81.41,81.41,0,0,0-28.64,11.53,80.46,80.46,0,0,0-30.42,36.16l5.71,2.43a74.62,74.62,0,1,1,137.29,58.51l5.71,2.43a80.83,80.83,0,0,0-89.65-111.06Z"/><g id="Layer_1-5" data-name="Layer_1"><g id="_2074208353808-4" data-name=" 2074208353808"><path class="cls-27" d="M2229.36,1152.51l-5-7.71a62.7,62.7,0,0,1,10.63-1.11c1.41.06,2.62,2.56,3.53,4,4.54,7.23,6.52,15.81,7,24.09a55.5,55.5,0,0,1-4.46,24.62c-4.91,13.76-17.26,24.46-30.39,29.94a54.74,54.74,0,0,1-42.44-.63c-6.92-3.06-13.35-7.3-17.95-12.48,0,0-4.39-4-4-5.52l38-3.23c5.63,0,.2-4.72-1.7-7.35l8.25-.73s4.44-.64,1.76-4.34l-8-10.08s-1.12-1.89,1.27-1.68l17.09-1.43s4,.18.73-3.2l-14.68-18.34s-2.18-2.51,1.13-3c.62-.11,6-1.35,8.48.22,0,0,2.1.6,5.15,5,3.59,4.15,11.92,14.37,15.59,20.33,0,0,3.73,5.88-2.42,7.69a91.42,91.42,0,0,1-13.33,1.66l-4.23.55s-1.33.07-.48,1.18c2.32,3.06,10.36,12.35,10.81,15.54,0,0,2.33,4.47-5.37,6.19l-32.5,3.09c.15.07.47.26.61.32a45.1,45.1,0,0,0,57-63.59Z"/><path class="cls-27" d="M2150.87,1197l5,7.69a57.28,57.28,0,0,1-10.63,1.11c-1.42,0-2.62-2.56-3.56-4-4.54-7.23-6.5-15.8-7-24.09a55.47,55.47,0,0,1,4.45-24.62c4.93-13.78,17.26-24.49,30.4-29.94a54.6,54.6,0,0,1,42.42.62c6.94,3.08,13.36,7.31,18,12.49,0,0,4.41,4,4,5.51l-37.94,3.25c-5.63,0-.2,4.72,1.7,7.34l-8.5.78s-4,.89-1.33,4.61l7.81,9.74s1.12,1.91-1.27,1.7l-17.09,1.44s-4-.19-.73,3.19l14.68,18.34s2.18,2.51-1.13,3.06c-.64.07-6,1.35-8.48-.22,0,0-2.1-.61-5.15-5-3.59-4.14-11.92-14.36-15.59-20.33,0,0-3.76-5.89,2.42-7.69a92,92,0,0,1,13.33-1.65l4.23-.55s1.34-.1.48-1.18c-2.32-3.06-10.36-12.36-10.84-15.55,0,0-2.29-4.49,5.4-6.19l32.5-3.09c-.15-.06-.49-.27-.64-.33a45.08,45.08,0,0,0-59.13,23.82,44.81,44.81,0,0,0,2.17,39.78Z"/></g></g><path class="cls-17" d="M2254.52,1623.7l-606.16-.4a34.58,34.58,0,0,1-34.56-34.59l.26-399.55a34.59,34.59,0,0,1,34.6-34.55l606.17.39a34.59,34.59,0,0,1,34.55,34.6l-.26,399.55A34.58,34.58,0,0,1,2254.52,1623.7Z"/><rect class="cls-4" x="2124.37" y="1322.55" width="165.01" height="133.2"/><path class="cls-28" d="M1347.33,628.15h60.15a8.21,8.21,0,0,1,8.2,8.48l-2.44,72.09A8.2,8.2,0,0,0,1427,715l90.61-84.63a8.2,8.2,0,0,1,5.6-2.21h127.11a18,18,0,0,0,18-17.95v-303a18,18,0,0,0-18-17.95h-303a18,18,0,0,0-17.95,17.95v303A18,18,0,0,0,1347.33,628.15Z"/><path class="cls-18" d="M1546.59,479.27a40,40,0,0,1-11.72,27.56,37.78,37.78,0,0,1-17.34,10.2l-.12,7.59a13.77,13.77,0,0,1-4,9.52A13,13,0,0,1,1504,538a13.74,13.74,0,0,1-13.62-13.77l.1-6.14-12.56-.2c-5.69-.09-10.35-2-13.55-5a16.31,16.31,0,0,1-4.69-12.28c.16-9.84,6.83-14.71,18.74-14.52l29.73.47a6.57,6.57,0,0,0,4-1.38,5.44,5.44,0,0,0,2.33-4.48c0-2.62-.92-4.35-2.89-5.37a9.62,9.62,0,0,0-2.07-.76,9.77,9.77,0,0,1-1-.2l-14.18-.22a38.11,38.11,0,0,1-25.39-11,34.6,34.6,0,0,1-10.08-25.19,38.87,38.87,0,0,1,12-27.1,39.4,39.4,0,0,1,21.48-10.68l.08-5.07a13,13,0,0,1,4.22-9.5,13.41,13.41,0,0,1,22.79,9.93l-.07,4.53,4.79.07c11.84.19,18.71,6,18.56,15.83-.18,10.85-7.23,16.52-19.07,16.33l-27.73-.44a4.87,4.87,0,0,0-5.32,4.89c0,3,1.54,5.44,4.16,5.49l13.64.21a40.69,40.69,0,0,1,27.31,10.64A34.4,34.4,0,0,1,1546.59,479.27Z"/><path class="cls-28" d="M1504.23,547h-.36a22.57,22.57,0,0,1-16-6.87,22.9,22.9,0,0,1-6.31-13.19l-3.75,0a28.93,28.93,0,0,1-19.6-7.47,25.4,25.4,0,0,1-7.5-18.95c.17-10.39,6.23-21.33,22.32-23.13a45.19,45.19,0,0,1-10.43-7.82,43.87,43.87,0,0,1-12.7-31.68,48,48,0,0,1,14.74-33.43A48.88,48.88,0,0,1,1483.56,393a22.16,22.16,0,0,1,6.84-13.91,21.59,21.59,0,0,1,16.14-6.34,22.17,22.17,0,0,1,15.65,6.86,22.63,22.63,0,0,1,5.94,11.73c6.28.67,11.63,2.79,15.65,6.2,5.32,4.53,8.07,10.94,7.94,18.54-.2,12.3-7.16,21.06-18.4,24a46.72,46.72,0,0,1,8.56,6.36,43.43,43.43,0,0,1,13.71,32.9h0a49.16,49.16,0,0,1-14.38,33.79,46.38,46.38,0,0,1-14.79,10.22v1.33a22.73,22.73,0,0,1-6.57,15.72A21.82,21.82,0,0,1,1504.23,547ZM1477.69,495c-8.91,0-9,3.27-9,5.68a7.33,7.33,0,0,0,2,5.67c1.59,1.51,4.25,2.41,7.41,2.46l21.56.34-.24,15.14a4.61,4.61,0,0,0,1.38,3.23,4.49,4.49,0,0,0,3.38,1.4,3.62,3.62,0,0,0,2.93-1.17,4.75,4.75,0,0,0,1.33-3.32l.24-14.35,6.53-1.77a28.91,28.91,0,0,0,13.26-7.82,31.1,31.1,0,0,0,9.15-21.39h0a25.26,25.26,0,0,0-8-19.48,31.61,31.61,0,0,0-21.32-8.23l-13.64-.22a12.8,12.8,0,0,1-10.23-5.36,15.5,15.5,0,0,1-2.79-9.28,13.83,13.83,0,0,1,4.35-10,14.33,14.33,0,0,1,9.86-3.76h.25l27.74.44c9.73.21,9.87-4.44,9.92-7.47s-1.16-4.15-1.61-4.54c-1.57-1.33-4.44-2.09-8.09-2.15l-13.79-.22.22-13.51a4.29,4.29,0,0,0-1.31-3.35,4.21,4.21,0,0,0-2.91-1.28,4.64,4.64,0,0,0-3.32,1.29,4.08,4.08,0,0,0-1.48,3.2l-.2,12.66-7.52,1.14a30.65,30.65,0,0,0-16.58,8.25,29.89,29.89,0,0,0-9.26,20.78,25.65,25.65,0,0,0,7.49,18.75,29,29,0,0,0,19.37,8.29l16.12.52a18.19,18.19,0,0,1,4.59,1.51,14.95,14.95,0,0,1,2.06,25.22,16.33,16.33,0,0,1-9.51,3.15l-29.71-.47Z"/><path class="cls-18" d="M1502.73,578.71a118.85,118.85,0,1,1,118.85-118.85A119,119,0,0,1,1502.73,578.71Zm0-223.9a105.06,105.06,0,1,0,105.06,105.05A105.17,105.17,0,0,0,1502.73,354.81Z"/><rect class="cls-20" x="1594.27" y="544.57" width="175.96" height="175.96" rx="31.52"/><path class="cls-18" d="M1682.24,673.85a41.3,41.3,0,1,1,41.31-41.3A41.35,41.35,0,0,1,1682.24,673.85Zm0-75.6a34.31,34.31,0,1,0,34.31,34.3A34.34,34.34,0,0,0,1682.24,598.25Z"/><path class="cls-18" d="M1681.32,643.26a4.12,4.12,0,0,1-3-1.24L1662,625.7a3.5,3.5,0,1,1,5-4.94l14.34,14.34,52.17-52.16a3.49,3.49,0,0,1,4.94,4.94l-55.18,55.18Zm-2-6.18,0,0Z"/><path class="cls-18" d="M1917.92,1322c-56.28,0-97.79,22.54-97.79,22.54,0,126.74,97.79,163.76,97.79,163.76s97.79-37,97.79-163.76C2015.71,1344.49,1974.2,1322,1917.92,1322Z"/><path class="cls-18" d="M2015.71,1344.49S1974.2,1322,1917.92,1322v186.3S2015.71,1471.23,2015.71,1344.49Z"/><path class="cls-18" d="M1917.92,1502c-50.07-19.07-96-93.42-92-154,37.17-27.45,157.77-21.73,184,0C2014,1408.46,1967.89,1483.06,1917.92,1502Z"/><path class="cls-29" d="M1917.92,1495.66c-47.81-20.45-88.08-86.82-86.18-144,37.44-24.23,142.49-20.47,172.35,0C2006.05,1408.75,1965.66,1475.31,1917.92,1495.66Z"/><path class="cls-30" d="M1917.92,1495.66c47.81-20.45,88.07-86.82,86.17-144a219.41,219.41,0,0,0-86.17-18.23Z"/><path class="cls-18" d="M1958.24,1384.84c2.36,1.77-36.32,37.48-36.93,39-3.13,2.48-8.68,11.66-13.37,6.71-4.45-4.37-19.82-19.83-24.52-24.46-4.84-5,5.72-13.56,10-14.77,3-.92,15.7,14.46,17.83,15.86C1922,1400.9,1948.13,1354.59,1958.24,1384.84Z"/><path class="cls-16" d="M2124.3,1322h96.79a0,0,0,0,1,0,0v91.34a5.44,5.44,0,0,1-5.44,5.44H2124.3a0,0,0,0,1,0,0V1322A0,0,0,0,1,2124.3,1322Z"/><circle class="cls-18" cx="2177.42" cy="1389.81" r="26.02"/></g></g></g></svg>