<svg width="28" height="28" viewBox="0 0 28 28" fill="none" xmlns="http://www.w3.org/2000/svg">
<path fill-rule="evenodd" clip-rule="evenodd" d="M8.24968 7.4005C10.0327 5.61748 11.5289 4.66683 14 4.66683C19.1546 4.66683 23.3333 8.84551 23.3333 14.0002H25.6666C25.6666 7.55684 20.4433 2.3335 14 2.3335C10.6721 2.3335 8.61699 3.73335 6.59976 5.75058L4.46655 7.88379L2.33334 5.75058V11.6668H8.24959L6.11647 9.53371L8.24968 7.4005Z" fill="#474D57"/>
<path fill-rule="evenodd" clip-rule="evenodd" d="M19.7503 20.5998C17.9673 22.3828 16.4711 23.3335 14 23.3335C8.84539 23.3335 4.66671 19.1548 4.66671 14.0002H2.33338C2.33338 20.4435 7.55672 25.6668 14 25.6668C17.328 25.6668 19.383 24.267 21.4003 22.2497L23.5749 20.0751L25.6667 22.1668V16.3335H19.8333L21.925 18.4252L19.7503 20.5998Z" fill="#474D57"/>
<path fill-rule="evenodd" clip-rule="evenodd" d="M14 18.6665C16.5773 18.6665 18.6667 16.5772 18.6667 13.9998C18.6667 11.4225 16.5773 9.33317 14 9.33317C11.4227 9.33317 9.33334 11.4225 9.33334 13.9998C9.33334 16.5772 11.4227 18.6665 14 18.6665ZM14 15.8665L12.1333 13.9998L14 12.1332L15.8667 13.9998L14 15.8665Z" fill="#474D57"/>
</svg>
