<svg width="28" height="28" viewBox="0 0 28 28" fill="none" xmlns="http://www.w3.org/2000/svg">
<path fill-rule="evenodd" clip-rule="evenodd" d="M16.9167 10.4998C18.5275 10.4998 19.8333 9.194 19.8333 7.58317C19.8333 5.97234 18.5275 4.6665 16.9167 4.6665C15.3058 4.6665 14 5.97234 14 7.58317C14 9.194 15.3058 10.4998 16.9167 10.4998ZM7.58332 23.3332C9.19415 23.3332 10.5 22.0273 10.5 20.4165C10.5 18.8057 9.19415 17.4998 7.58332 17.4998C5.97249 17.4998 4.66666 18.8057 4.66666 20.4165C4.66666 22.0273 5.97249 23.3332 7.58332 23.3332ZM11.0833 15.1665C11.0833 15.8108 10.561 16.3332 9.91666 16.3332C9.27232 16.3332 8.74999 15.8108 8.74999 15.1665C8.74999 14.5222 9.27232 13.9998 9.91666 13.9998C10.561 13.9998 11.0833 14.5222 11.0833 15.1665ZM22.1667 11.9946C22.811 11.9946 23.3333 11.4723 23.3333 10.828C23.3333 10.1836 22.811 9.6613 22.1667 9.6613C21.5223 9.6613 21 10.1836 21 10.828C21 11.4723 21.5223 11.9946 22.1667 11.9946ZM17.5 23.3332C20.7216 23.3332 23.3333 20.7215 23.3333 17.4998C23.3333 14.2782 20.7216 11.6665 17.5 11.6665C14.2783 11.6665 11.6667 14.2782 11.6667 17.4998C11.6667 20.7215 14.2783 23.3332 17.5 23.3332ZM17.5 15.025L15.0251 17.4998L17.5 19.9747L19.9748 17.4998L17.5 15.025ZM12.8333 8.74984C12.8333 11.005 11.0052 12.8332 8.74999 12.8332C6.49483 12.8332 4.66666 11.005 4.66666 8.74984C4.66666 6.49467 6.49483 4.6665 8.74999 4.6665C11.0052 4.6665 12.8333 6.49467 12.8333 8.74984ZM7.09997 8.74984L8.74988 7.09992L10.3998 8.74984L8.74988 10.3998L7.09997 8.74984Z" fill="#474D57"/>
</svg>
