<svg width="28" height="28" viewBox="0 0 28 28" fill="none" xmlns="http://www.w3.org/2000/svg">
<path fill-rule="evenodd" clip-rule="evenodd" d="M5.17719 9.54092C4.10312 10.615 3.49971 12.0717 3.49971 13.5907V15.9084L6.84127 19.2499L9.01544 15.9091L9.01486 9.01515L16.8635 9.01515V3.5H13.5904C12.0715 3.5 10.6147 4.10341 9.54063 5.17748L5.17719 9.54092Z" fill="#474D57"/>
<path fill-rule="evenodd" clip-rule="evenodd" d="M22.8222 18.4592C23.8963 17.3852 24.4997 15.9284 24.4997 14.4094V12.0909L21.1595 8.7492L18.9846 12.0908V18.9848H11.1359V24.5H14.409C15.928 24.5 17.3847 23.8966 18.4588 22.8225L22.8222 18.4592Z" fill="#474D57"/>
<path fill-rule="evenodd" clip-rule="evenodd" d="M16.8633 14C16.8633 15.5819 15.5816 16.8636 13.9997 16.8636C12.4178 16.8636 11.1361 15.5819 11.1361 14C11.1361 12.4181 12.4178 11.1364 13.9997 11.1364C15.5816 11.1364 16.8633 12.4181 16.8633 14Z" fill="#474D57"/>
</svg>
