<svg xmlns="http://www.w3.org/2000/svg" width="50" height="41" viewBox="0 0 1.07 0.87" shape-rendering="geometricPrecision" image-rendering="optimizeQuality" fill-rule="nonzero" xmlns:v="https://vecta.io/nano"><path d="M.2.51V.29C.2.27.19.25.17.23.16.22.14.21.12.21H.08C.06.21.04.22.02.23.01.25 0 .27 0 .29v.22c0 .02.01.04.02.06.02.01.04.02.06.02h.04C.14.59.16.58.17.57.19.55.2.53.2.51zM.41.06H.37C.35.06.33.07.31.09.3.1.29.12.29.15v.19C.29.36.3.38.31.4.33.41.35.42.37.42h.04C.43.42.45.41.46.4.48.38.49.36.49.34V.15C.49.12.48.1.46.09.45.07.43.06.41.06zM.7.05H.66C.64.05.62.06.6.07.59.09.58.11.58.13v.12c0 .02.01.04.02.06.02.01.04.02.06.02H.7C.72.33.74.32.76.31.77.29.78.27.78.25V.13C.78.11.77.09.76.07.74.06.72.05.7.05zM.99 0H.95C.93 0 .91.01.89.02.88.04.87.06.87.08v.04c0 .02.01.04.02.05C.91.19.93.2.95.2h.04c.02 0 .04-.01.05-.03.02-.01.03-.03.03-.05V.08c0-.02-.01-.04-.03-.06C1.03.01 1.01 0 .99 0z" fill="#263674"/><path d="M.87.36v.43c0 .02.01.04.02.05.02.02.04.03.06.03h.04c.02 0 .04-.01.05-.03.02-.01.03-.03.03-.05V.36c0-.02-.01-.04-.03-.06C1.03.28 1.01.28.99.28H.95C.93.28.91.28.89.3.88.32.87.34.87.36zM.66.87H.7C.72.87.74.86.75.84.77.83.78.81.78.79V.46C.78.44.77.42.75.41.74.39.72.38.7.38H.66C.64.38.62.39.6.41.59.42.58.44.58.46v.33c0 .02.01.04.02.05.02.02.04.03.06.03zm-.29 0h.04C.43.87.45.86.47.84.48.83.49.81.49.79V.55C.49.53.48.51.47.49.45.48.43.47.41.47H.37C.35.47.33.48.31.49.3.51.29.53.29.55v.24c0 .02.01.04.02.05.02.02.04.03.06.03zm-.29 0h.04C.14.87.16.86.17.84.19.83.2.81.2.79V.75C.2.73.19.71.17.69.16.68.14.67.12.67H.08C.06.67.04.68.02.69.01.71 0 .73 0 .75v.04c0 .02.01.04.02.05.02.02.04.03.06.03z" fill="#efb30c"/></svg>