<svg xmlns="http://www.w3.org/2000/svg" width="70" height="35" viewBox="0 0 60.07 30.22" shape-rendering="geometricPrecision" image-rendering="optimizeQuality" fill-rule="evenodd" xmlns:v="https://vecta.io/nano"><path d="M40.14 16.04l-.06-.49-.07-.48C37.99 2.87 26.09.52 22.6.09V.1a.5.5 0 0 0-.12-.02c-.13-.02-.25-.03-.35-.04-.18-.01-.34-.01-.51-.01V0h-1.93a4.68 4.68 0 0 0-1.83.47c-1.79.96-6.4 3.18-13.24 4.83v16.71h5.48 8.85 4.08l1.09.01h3.35.82l4.62.01h.14.35.49l4.11.01s.48-1.54.23-3.23c-.15-.96-.53-1.96-1.38-2.77a4.91 4.91 0 0 0-.6-.49c-.27-.18-.58-.34-.91-.48-.71-.3-1.56-.51-2.62-.59l-1.15-.08c-6.69-.41-9.95 0-9.95-4.33v-.93c.03-.01.05-.01.07-.02.14-.06.28-.09.42-.12a3.91 3.91 0 0 1 .49-.03c.03 0 .06-.01.1-.01.02 0 .04-.01.07-.01 4.2.31 6.71 2.32 8.18 4.44l1.84.12c1.87.14 3.35.66 4.43 1.55.19.16.36.32.52.49.14.15.27.32.4.49.03.05.07.09.11.15.54.8.82 1.68.94 2.51.27 1.87-.23 3.53-.27 3.63l-.21.68H38s-1.59 0-4.11-.01c2.74 10.52 22.3-.45 6.25-6.96h0zm-12.97 6.95h-3.34-1.09c-1.32 0-2.67-.01-4.01-.01.01.7.52 1.36 1.29 1.59l1.36.41c.3.09.6.1.88.05.08.64.58 1.23 1.31 1.45l1.38.41c.59.18 1.18.07 1.61-.22.24.42.67.78 1.23.95l1.46.44c1.01.3 2.04-.13 2.29-.97L32.76 23c-1.4 0-3.02 0-4.77-.01h-.82z" fill="#263674" fill-rule="nonzero"/><g fill="#f0b90b"><path d="M0 3.15v21.13h3.65V3.15h-.49H0z" fill-rule="nonzero"/><path d="M60.07 16.04H40.14h-2c.03.05.07.09.11.15.54.8.82 1.68.94 2.51.27 1.87-.23 3.53-.27 3.63l-.21.68H38s-1.59 0-4.11-.01v7.22h26.18V16.04z"/></g><path d="M46.09 23.55l-7.01 3.81-5.19 2.81v.05h26.18V16.04h-.11z" fill="#dcab0e"/><path d="M52.44 20.12h-6.61-6.56c-.04 1.22-.32 2.14-.35 2.21l-.21.68h-.6v.02h8.17.79l5.37-2.91z" fill="#ac8815"/><path d="M52.44 20.12l-5.37 2.91h13v-2.91z" fill="#9f7f17"/></svg>