<svg xmlns="http://www.w3.org/2000/svg" width="70" height="46" viewBox="0 0 51.38 33.53" shape-rendering="geometricPrecision" image-rendering="optimizeQuality" fill-rule="evenodd" xmlns:v="https://vecta.io/nano"><path d="M14 17.64l.78-.52c-.02-.02-.04-.03-.05-.03L7.65 13a.28.28 0 0 0-.28 0L2 16.1l-.89.53a4.87 4.87 0 0 0-.6.38c-.17.12-.24.19-.2.21.03.02.07.04.13.06l6.92 4.01c.06.03.12.04.16.05.05.01.11-.01.17-.05l5.47-3.17.84-.48zm-6.86 4.13L.73 18.06l-.36-.2-.24-.13c-.07-.03-.11-.04-.11-.01v.08L0 25.95c0 .1.06.19.18.26l6.98 4.02c.05.03.09.04.13.03.03-.01.05-.02.05-.05v-8.09c0-.09-.02-.16-.04-.22-.03-.05-.08-.1-.16-.13z" fill="#f0b90b" fill-rule="nonzero"/><path d="M15.03 17.84v-.08c-.02-.05-.04-.07-.08-.06l-2.78 1.61-4.32 2.49c-.11.06-.16.14-.16.24l.02 8.07v.12c0 .03.01.05.02.06s.03.01.04 0l.06-.02 7.06-4.08a.29.29 0 0 0 .14-.26v-8.09zM50.35 8.8l.79-.52c-.02-.02-.04-.03-.05-.03l-7.08-4.09a.28.28 0 0 0-.28 0l-5.37 3.1-.89.53c-.24.13-.44.26-.61.38-.16.12-.23.19-.2.21l.13.07 6.92 4c.07.03.12.04.17.05s.1-.01.17-.05l5.47-3.17.83-.48z" fill-rule="nonzero" fill="#263674"/><path d="M43.49 12.93l-6.4-3.71-.37-.2-.23-.13c-.08-.03-.11-.04-.11-.01v.08l-.02 8.15c0 .1.06.19.18.26l6.97 4.02c.06.03.1.04.13.03.04-.01.05-.02.05-.05v-8.09a.48.48 0 0 0-.04-.22c-.02-.05-.08-.09-.16-.13zM51.38 9v-.08c-.01-.05-.04-.07-.08-.06l-2.77 1.61-4.32 2.5c-.11.05-.16.13-.16.23l.02 8.07v.12c0 .03 0 .05.02.06.01.01.02.01.04 0l.06-.02 7.05-4.08a.27.27 0 0 0 .14-.26V9z" fill-rule="nonzero" fill="#f0b90b"/><g fill="#263674"><path d="M26.77 0v33.53h-2.15V0z"/><path d="M51.38 2.15H0V0h51.38zM31 33.53H20.38v-2.15H31z"/></g><g stroke-miterlimit="2.61313" fill="#fefefe"><path d="M46.36 8.34l-2.45-1.41c-.03-.02-.07-.02-.1 0L41.95 8l-.31.19c-.08.04-.15.09-.21.13s-.08.06-.07.07.03.01.05.02l2.4 1.39c.02.01.04.02.05.02.02 0 .04 0 .06-.02l1.9-1.1.29-.16c.19-.12.28-.18.27-.19-.01 0-.01-.01-.02-.01z" stroke="#f0b90b"/><path d="M10.01 16.74l-2.46-1.41c-.03-.02-.06-.02-.09 0L5.59 16.4l-.31.18-.21.14c-.05.04-.08.06-.07.07.02 0 .03.01.05.02l2.4 1.39c.02.01.04.02.06.02.01 0 .03-.01.06-.02l1.89-1.1.29-.16.28-.19c-.01 0-.02-.01-.02-.01z" stroke="#263674"/></g><path d="M6.44 16.76V1.83h2.15v14.93zM42.8 8.37V1.83h2.14v6.54z" fill="#263674"/></svg>