<svg xmlns="http://www.w3.org/2000/svg" width="50" height="50" viewBox="0 0 2.04 2.04" shape-rendering="geometricPrecision" image-rendering="optimizeQuality" fill-rule="evenodd" xmlns:v="https://vecta.io/nano"><circle cx="1.02" cy="1.02" r="1.02" fill="#efb30c"/><path d="M1.02.45c.07 0 .13.01.18.03l.35-.34c.14.09.27.21.35.36h0a1.04 1.04 0 0 1 .14.52c0 .36-.18.67-.45.85l-.35-.32h0a.54.54 0 0 1-.22.04.57.57 0 0 1-.57-.57c0-.31.26-.57.57-.57z" fill="#1f2f70"/><g fill="#ebecec"><circle cx="1.02" cy=".23" r=".08"/><circle cx="1.65" cy=".65" r=".08"/><circle transform="matrix(3.91013 -6.77254 6.77254 3.91013 .334674 .625162)" r=".01"/><circle transform="matrix(-3.91013 -6.77254 6.77254 -3.91013 .334675 1.41899)" r=".01"/><circle cx="1.02" cy="1.82" r=".08"/></g><path d="M1.01 1l.85.02v.01l-.85-.01z" stroke="#fefefe" stroke-width=".01" stroke-linejoin="round" stroke-miterlimit="2.61313" fill="#2b2a29" fill-rule="nonzero"/><circle transform="matrix(-3.91013 6.77254 -6.77254 -3.91013 1.70978 1.41922)" r=".01" fill="#ebecec"/><path d="M1.9.5C1.82.35 1.69.23 1.55.14l-.71.7h0a.26.26 0 0 0-.07.24c.04.13.17.22.31.18.13-.03.7-.63.82-.76z" fill="#2b2a29" fill-opacity=".502"/></svg>