<svg xmlns="http://www.w3.org/2000/svg" width="50" height="48" viewBox="0 0 3.92 3.79" shape-rendering="geometricPrecision" image-rendering="optimizeQuality" fill-rule="evenodd" xmlns:v="https://vecta.io/nano"><g fill="#263674" fill-rule="nonzero"><path d="M1.6.62h2.32v2.01H2.43v-.08h1.4V.7H1.6z"/><path d="M1.91 3.01h.4l-.19-.2.06-.06.21.22.41-.41.06.06-.39.39h.4v.08h-.96z"/></g><circle cx=".75" cy=".75" r=".75" fill="#efb30c"/><path d="M.64 1.66l1.61.06.27.65L.64 3.79zM.57.46C.7.43.64.79.83.81.77.52.79.44.96.36l.37-.09C1.19.1.98 0 .75 0a.75.75 0 0 0-.73.6C.01.63 0 .66 0 .7c0 .18.15.33.33.33.3 0 .07-.49.24-.57z" fill="#263674"/><path d="M2.33 1.74l.19.5.01-.01.37-.82.21-.19-.47.14z" fill="#efb30c"/></svg>