<svg xmlns="http://www.w3.org/2000/svg" width="50" height="41" viewBox="0 0 2.13 1.75" shape-rendering="geometricPrecision" image-rendering="optimizeQuality" fill-rule="evenodd" xmlns:v="https://vecta.io/nano"><g fill-rule="nonzero"><path d="M.8.64v.08h.67c.03 0 .05.01.06.03.02.01.03.03.03.06v.29c-.02.02-.03.04-.04.06h-.07l-.07.06-.05-.04c0-.01-.02-.01-.03 0l-.04.04-.04-.04c-.01-.01-.02-.01-.03 0l-.06.06-.06-.06c-.01-.01-.02-.01-.03 0l-.03.03-.02-.03c-.02-.01-.03-.02-.05-.02-.01 0-.03.01-.04.02l-.12.11c-.01.01-.01.03 0 .03l.13.13c.01.01.01.01.02.01l.59-.01a.3.3 0 0 0 .04.08v.13c0 .03-.01.05-.03.06-.01.02-.03.03-.06.03H.62c-.03 0-.05-.01-.06-.03-.02-.01-.03-.03-.03-.06V.81C.53.78.54.76.56.75.57.73.59.72.62.72h.04V.58h0V.4C.66.33.63.26.58.21.53.17.47.14.4.14S.26.17.21.21C.17.26.14.33.14.4v.18h0v.14H0V.4C0 .29.04.19.12.12.19.04.29 0 .4 0s.21.04.28.12A.4.4 0 0 1 .8.4v.24zm.76.53v.27c0-.01-.01-.01-.01-.02s-.01-.02-.02-.02l-.6.02-.11-.11h0l.11-.1c.02-.01.02-.01.03 0l.04.04c.01.01.02.01.03 0l.03-.03.06.06c0 .01.02.01.02 0l.06-.06.05.05h.02l.05-.05.04.05h.03l.07-.07h.07c.01 0 .02-.01.02-.01 0-.01.01-.01.01-.02z" fill="#263674"/><path d="M2.07 1.32c0-.03-.02-.06-.04-.08-.02-.03-.05-.04-.09-.04-.03 0-.06.01-.08.04-.03.02-.04.05-.04.08 0 .04.01.07.04.09.02.02.05.04.08.04.07 0 .13-.06.13-.13zm-.21 0c0-.04.04-.08.08-.08.03 0 .05.01.06.02.02.02.03.04.03.06s-.01.05-.03.06c-.01.02-.03.02-.06.02-.02 0-.04 0-.05-.02-.02-.02-.03-.04-.03-.06z" fill="#fff"/></g><g fill="#efb30c"><path d="M1.82 1.32c0-.03.01-.06.04-.08.02-.03.05-.04.08-.04.04 0 .07.01.09.04.02.02.04.05.04.08 0 .07-.06.13-.13.13-.03 0-.06-.02-.08-.04-.03-.02-.04-.05-.04-.09zm-.89.1l.6-.02c.01 0 .02.01.02.02.05.13.14.21.27.21.09 0 .17-.04.23-.1s.08-.15.08-.23c-.02-.16-.15-.29-.31-.29-.12 0-.22.07-.27.18 0 0-.01.01-.02.01h-.07l-.07.07h-.03l-.04-.05-.05.05h-.02l-.05-.05-.06.06c0 .01-.02.01-.02 0l-.06-.06-.03.03c-.01.01-.02.01-.03 0l-.04-.04C.95 1.2.95 1.2.94 1.2l-.12.11.11.11z" stroke="#fefefe" stroke-miterlimit="2.61313"/><circle cx="1.94" cy="1.32" r=".06"/></g></svg>