<svg xmlns="http://www.w3.org/2000/svg" width="70" height="80" viewBox="0 0 3.13 3.58" shape-rendering="geometricPrecision" image-rendering="optimizeQuality" fill-rule="evenodd" xmlns:v="https://vecta.io/nano"><path d="M2.42 2.03h-.74v.19h.75l-.01.01c0 .03-.01.05-.02.07-.01.03-.02.05-.03.07-.01.01-.03.03-.04.05-.02.01-.04.03-.05.04-.02.01-.04.03-.06.04s-.04.01-.07.02c-.02.01-.04.01-.07.02h-.07-.33v.2h.13.07c.03 0 .05.01.07.01.02.01.04.02.07.03.02 0 .04.02.05.03.02.01.04.03.06.04.02.02.04.03.05.05.02.02.04.04.05.07.02.02.04.04.05.07l.33.53h.27l-.35-.55c-.02-.02-.03-.05-.04-.06-.02-.02-.03-.04-.04-.06s-.03-.03-.04-.05c-.01-.01-.02-.03-.04-.04-.01-.01-.02-.03-.03-.04s-.03-.02-.04-.03-.03-.02-.04-.03c-.02-.01-.03-.01-.05-.02h0v-.03h0a.44.44 0 0 0 .16-.06.54.54 0 0 0 .12-.09.47.47 0 0 0 .09-.12c.02-.05.04-.1.05-.16v-.01h.43v-.19h-.42v-.01c0-.02-.01-.05-.01-.07-.01-.03-.02-.05-.03-.07s-.01-.04-.03-.06c-.01-.02-.02-.04-.03-.05l-.02-.02h.54v-.2H1.68v.2h.36.08c.03.01.05.01.08.02.02 0 .04.01.06.02s.04.02.05.03c.02.01.03.03.04.04.02.02.03.03.04.05s.01.03.02.05.01.04.02.06v.01h-.01z" fill="#263674"/><g fill-rule="nonzero"><path d="M1.85 0h0v.01 1.1c0 .06.02.12.06.16.05.04.1.06.16.06h1.04.02L1.85 0H.22a.18.18 0 0 0-.15.07.18.18 0 0 0-.07.15v3.14a.18.18 0 0 0 .07.15.18.18 0 0 0 .15.07h2.32l-.31-.51c-.02-.02-.03-.04-.05-.07-.02-.02-.03-.04-.05-.05-.01-.02-.03-.04-.04-.05-.02-.01-.04-.03-.05-.04-.02-.01-.03-.02-.05-.02-.02-.01-.04-.02-.06-.02-.01-.01-.03-.01-.06-.02h-.06-.19v-.32h.39c.02 0 .04-.01.07-.01.02 0 .04-.01.06-.01.01-.01.03-.01.05-.02s.03-.02.05-.03c.01-.01.03-.02.04-.04.01-.01.02-.02.03-.04.01-.01.01-.02.02-.03v-.01h-.71v-.32h.05.66v-.03h0c-.01-.01-.02-.02-.03-.04 0-.01-.02-.02-.03-.03s-.02-.01-.04-.02c-.01-.01-.03-.01-.05-.02h0c-.02-.01-.04-.01-.06-.01-.03 0-.05-.01-.08-.01h-.42v-.33h1.51v-.15L1.85 0z" fill="#fdcb08"/><path d="M2.07 1.33h1.04.02L1.85 0v.01 1.1c0 .06.02.12.06.16.05.04.1.06.16.06z" fill="#fefefe"/><path d="M2.17 1.21h.95.01L1.97 0v.01 1c0 .06.02.1.06.14s.08.06.14.06z" fill="#263674"/></g><path d="M.23 1.47h.97v.34H.23zm0 .5h.42v.34H.23zm0 .5h1.03v.34H.23z" fill="#fefefe"/></svg>