<?xml version="1.0" encoding="UTF-8"?>
<!DOCTYPE svg PUBLIC "-//W3C//DTD SVG 1.1//EN" "http://www.w3.org/Graphics/SVG/1.1/DTD/svg11.dtd">
<!-- Creator: CorelDRAW 2020 (64-Bit Evaluation Version) -->
<svg xmlns="http://www.w3.org/2000/svg" xml:space="preserve" width="24px" height="24px" version="1.1" style="shape-rendering:geometricPrecision; text-rendering:geometricPrecision; image-rendering:optimizeQuality; fill-rule:evenodd; clip-rule:evenodd"
viewBox="0 0 1.65 1.65"
 xmlns:xlink="http://www.w3.org/1999/xlink"
 xmlns:xodm="http://www.corel.com/coreldraw/odm/2003">
 <defs>
  <style type="text/css">
   <![CDATA[
    .fil0 {fill:#0033AD}
    .fil1 {fill:white;fill-rule:nonzero}
   ]]>
  </style>
 </defs>
 <g id="Layer_x0020_1">
  <metadata id="CorelCorpID_0Corel-Layer"/>
  <g id="_2517772103488">
   <circle class="fil0" cx="0.83" cy="0.83" r="0.83"/>
   <g>
    <g id="Layer_2_1_">
     <g id="Layer_1-2">
      <path class="fil1" d="M0.53 0.82c0,0.05 0.04,0.09 0.08,0.09 0.01,0 0.01,0 0.01,0 0.05,0 0.09,-0.04 0.09,-0.08 0,-0.05 -0.04,-0.09 -0.09,-0.09 -0.05,0 -0.09,0.04 -0.09,0.08z"/>
      <path class="fil1" d="M0.21 0.8c-0.02,0 -0.03,0.01 -0.03,0.03 0,0.01 0.01,0.02 0.02,0.03 0.02,0 0.03,-0.02 0.03,-0.03 0,-0.02 -0.01,-0.03 -0.02,-0.03 0,0 0,0 0,0z"/>
      <path class="fil1" d="M0.53 0.31c0.01,0 0.02,-0.02 0.01,-0.03 -0.01,-0.02 -0.03,-0.02 -0.04,-0.02 -0.01,0.01 -0.02,0.03 -0.01,0.04 0.01,0.01 0.02,0.02 0.04,0.01 0,0 0,0 0,0z"/>
      <path class="fil1" d="M0.62 0.47c0.02,-0.01 0.03,-0.04 0.01,-0.06 -0.01,-0.02 -0.03,-0.03 -0.05,-0.02 -0.03,0.01 -0.03,0.04 -0.02,0.06 0.01,0.02 0.03,0.03 0.06,0.02z"/>
      <path class="fil1" d="M0.32 0.57c0.01,0.02 0.04,0.01 0.05,-0.01 0.01,-0.01 0,-0.03 -0.01,-0.05 -0.02,-0.01 -0.04,0 -0.05,0.01 0,0 0,0 0,0 -0.01,0.02 -0.01,0.04 0.01,0.05z"/>
      <path class="fil1" d="M0.37 0.78c-0.02,0 -0.05,0.02 -0.05,0.04 0,0.03 0.02,0.05 0.04,0.05 0.03,0 0.05,-0.02 0.05,-0.04 0,0 0,0 0,0 0,-0.02 -0.02,-0.05 -0.04,-0.05z"/>
      <path class="fil1" d="M0.32 1.08c-0.02,0.01 -0.02,0.03 -0.01,0.05 0,0.01 0.03,0.02 0.04,0.01 0.02,-0.01 0.03,-0.03 0.02,-0.05 0,0 0,0 0,0 -0.01,-0.01 -0.03,-0.02 -0.05,-0.01 0,0 0,0 0,0z"/>
      <path class="fil1" d="M0.49 0.69c0.03,0.02 0.06,0.01 0.07,-0.01 0.02,-0.03 0.01,-0.06 -0.01,-0.07 -0.03,-0.02 -0.06,-0.01 -0.07,0.01 -0.02,0.03 -0.01,0.06 0.01,0.07 0,0 0,0 0,0z"/>
      <path class="fil1" d="M1.03 0.46c0.02,0.02 0.05,0.01 0.06,-0.01 0.01,-0.02 0.01,-0.05 -0.01,-0.06 -0.02,-0.01 -0.05,-0.01 -0.06,0.01 0,0 0,0 0,0 -0.02,0.02 -0.01,0.05 0.01,0.06 0,0 0,0 0,0z"/>
      <path class="fil1" d="M1.12 0.31c0.01,0.01 0.03,0.01 0.04,-0.01 0.01,-0.01 0,-0.03 -0.01,-0.04 -0.01,-0.01 -0.03,0 -0.04,0.01 -0.01,0.01 0,0.03 0.01,0.04 0,0 0,0 0,0z"/>
      <path class="fil1" d="M1.04 0.74c-0.05,0 -0.09,0.03 -0.1,0.08 0,0.05 0.04,0.09 0.09,0.09 0,0 0,0 0,0 0.05,0 0.09,-0.04 0.09,-0.09 0,-0.04 -0.04,-0.08 -0.08,-0.08l0 0z"/>
      <path class="fil1" d="M0.64 0.69c0.02,0.03 0.05,0.04 0.08,0.04 0.05,0 0.09,-0.03 0.09,-0.08 0,-0.02 0,-0.03 -0.01,-0.04 -0.02,-0.05 -0.07,-0.06 -0.12,-0.04 -0.04,0.02 -0.06,0.07 -0.04,0.12l0 0z"/>
      <path class="fil1" d="M1.33 0.57c0.02,0 0.02,-0.03 0.02,-0.04 -0.01,-0.02 -0.04,-0.03 -0.05,-0.02 -0.02,0.01 -0.03,0.03 -0.02,0.05 0.01,0.02 0.03,0.02 0.05,0.01 0,0 0,0 0,0z"/>
      <path class="fil1" d="M1.11 0.6c-0.03,0.02 -0.04,0.05 -0.02,0.07 0.01,0.03 0.04,0.04 0.06,0.02 0.03,-0.01 0.04,-0.04 0.03,-0.06 -0.02,-0.03 -0.05,-0.04 -0.07,-0.03z"/>
      <path class="fil1" d="M0.82 0.3c0.02,0 0.04,-0.02 0.04,-0.04 0,-0.02 -0.01,-0.03 -0.03,-0.03 -0.02,-0.01 -0.04,0.01 -0.04,0.03 0,0.02 0.01,0.04 0.03,0.04 0,0 0,0 0,0z"/>
      <path class="fil1" d="M0.82 0.52c0.03,0.01 0.05,-0.02 0.06,-0.04 0,-0.03 -0.02,-0.06 -0.05,-0.06 -0.03,0 -0.06,0.02 -0.06,0.05 0,0.03 0.02,0.05 0.05,0.05 0,0 0,0 0,0z"/>
      <path class="fil1" d="M0.54 1.05c0.03,-0.01 0.04,-0.04 0.03,-0.07 -0.02,-0.03 -0.05,-0.04 -0.07,-0.02 -0.03,0.01 -0.04,0.04 -0.03,0.07 0.02,0.02 0.05,0.03 0.07,0.02z"/>
      <path class="fil1" d="M0.86 0.6c-0.03,0.04 -0.02,0.09 0.02,0.12 0.04,0.03 0.1,0.02 0.12,-0.03 0.03,-0.04 0.02,-0.09 -0.02,-0.12 -0.02,-0.01 -0.03,-0.01 -0.05,-0.01 -0.03,0 -0.06,0.01 -0.07,0.04z"/>
      <path class="fil1" d="M1.01 0.96c-0.02,-0.04 -0.08,-0.06 -0.12,-0.03 -0.04,0.02 -0.06,0.07 -0.04,0.11 0.02,0.05 0.08,0.06 0.12,0.04 0,0 0,0 0,0 0.04,-0.02 0.06,-0.07 0.04,-0.11 0,0 0,0 0,-0.01z"/>
      <path class="fil1" d="M1.16 0.96c-0.02,-0.02 -0.06,-0.01 -0.07,0.01 -0.02,0.03 -0.01,0.06 0.01,0.07 0.03,0.02 0.06,0.01 0.08,-0.01 0.01,-0.02 0,-0.06 -0.02,-0.07 0,0 0,0 0,0z"/>
      <path class="fil1" d="M1.33 0.83c0,-0.03 -0.02,-0.05 -0.04,-0.05 -0.03,0 -0.05,0.02 -0.05,0.04 0,0.03 0.02,0.05 0.04,0.05 0,0 0,0 0,0 0.03,0 0.05,-0.02 0.05,-0.04z"/>
      <path class="fil1" d="M1.45 0.8c-0.02,0 -0.03,0.01 -0.03,0.02 0,0.02 0.01,0.03 0.03,0.03 0.01,0 0.02,-0.01 0.03,-0.02 0,-0.02 -0.02,-0.03 -0.03,-0.03z"/>
      <path class="fil1" d="M1.34 1.08c-0.02,-0.01 -0.04,-0.01 -0.05,0.01 -0.02,0.01 -0.01,0.04 0.01,0.05 0.01,0.01 0.03,0 0.05,-0.01 0.01,-0.02 0,-0.04 -0.01,-0.05 0,0 0,0 0,0z"/>
      <path class="fil1" d="M0.53 1.34c-0.01,-0.01 -0.03,0 -0.04,0.01 -0.01,0.01 0,0.03 0.01,0.04 0.01,0.01 0.03,0 0.04,-0.01 0,0 0,0 0,0 0.01,-0.01 0,-0.03 -0.01,-0.04z"/>
      <path class="fil1" d="M1.12 1.34c-0.01,0.01 -0.01,0.02 -0.01,0.04 0.01,0.01 0.03,0.02 0.04,0.01 0.01,-0.01 0.02,-0.03 0.01,-0.04 0,-0.01 -0.02,-0.02 -0.04,-0.01 0.01,0 0,0 0,0z"/>
      <path class="fil1" d="M0.8 1.05c0.02,-0.04 0.01,-0.09 -0.03,-0.12 -0.04,-0.02 -0.09,-0.01 -0.12,0.03 -0.03,0.04 -0.02,0.09 0.03,0.12 0.01,0.01 0.03,0.01 0.04,0.01 0.03,0 0.06,-0.01 0.08,-0.04z"/>
      <path class="fil1" d="M0.62 1.19c-0.02,-0.02 -0.05,-0.01 -0.06,0.01 -0.01,0.02 -0.01,0.05 0.01,0.06 0.02,0.01 0.05,0.01 0.06,-0.01 0,0 0,0 0,0 0.02,-0.02 0.01,-0.05 -0.01,-0.06z"/>
      <path class="fil1" d="M0.83 1.35c-0.02,0 -0.04,0.02 -0.04,0.04 0,0.02 0.01,0.03 0.03,0.04 0.02,0 0.04,-0.02 0.04,-0.04 0,-0.02 -0.01,-0.03 -0.03,-0.04 0,0 0,0 0,0z"/>
      <path class="fil1" d="M0.83 1.13c-0.03,0 -0.06,0.02 -0.06,0.05 0,0.02 0.02,0.05 0.05,0.05 0.03,0 0.05,-0.02 0.05,-0.05 0.01,-0.03 -0.02,-0.05 -0.04,-0.05 0,0 0,0 0,0z"/>
      <path class="fil1" d="M1.04 1.18c-0.03,0.01 -0.03,0.04 -0.02,0.06 0.01,0.02 0.03,0.03 0.06,0.02 0.02,-0.01 0.03,-0.04 0.02,-0.06 -0.02,-0.02 -0.04,-0.03 -0.06,-0.02 0,0 0,0 0,0z"/>
     </g>
    </g>
   </g>
  </g>
 </g>
</svg>
