<?xml version="1.0" encoding="UTF-8"?>
<!DOCTYPE svg PUBLIC "-//W3C//DTD SVG 1.1//EN" "http://www.w3.org/Graphics/SVG/1.1/DTD/svg11.dtd">
<!-- Creator: CorelDRAW 2020 (64-Bit Evaluation Version) -->
<svg xmlns="http://www.w3.org/2000/svg" xml:space="preserve" width="24px" height="24px" version="1.1" style="shape-rendering:geometricPrecision; text-rendering:geometricPrecision; image-rendering:optimizeQuality; fill-rule:evenodd; clip-rule:evenodd"
viewBox="0 0 5.77 5.77"
 xmlns:xlink="http://www.w3.org/1999/xlink"
 xmlns:xodm="http://www.corel.com/coreldraw/odm/2003">
 <defs>
  <style type="text/css">
   <![CDATA[
    .fil92 {fill:none}
    .fil65 {fill:#252211}
    .fil86 {fill:#292311}
    .fil88 {fill:#2D2815}
    .fil90 {fill:#2D2816}
    .fil85 {fill:#39331F}
    .fil87 {fill:#3F3824}
    .fil73 {fill:#453A25}
    .fil58 {fill:#543E26}
    .fil91 {fill:#574F35}
    .fil64 {fill:#585136}
    .fil61 {fill:#685026}
    .fil84 {fill:#6E6342}
    .fil68 {fill:#6F674D}
    .fil59 {fill:#806031}
    .fil89 {fill:#82764F}
    .fil74 {fill:#84754B}
    .fil52 {fill:#8C6228}
    .fil56 {fill:#92723A}
    .fil83 {fill:#927D49}
    .fil70 {fill:#9F8E57}
    .fil55 {fill:#A17C34}
    .fil51 {fill:#A67A2E}
    .fil31 {fill:#A88F33}
    .fil50 {fill:#AC8132}
    .fil69 {fill:#AC924C}
    .fil57 {fill:#B18E3E}
    .fil43 {fill:#B58634}
    .fil24 {fill:#B59544}
    .fil60 {fill:#B6903C}
    .fil39 {fill:#B6933F}
    .fil54 {fill:#BE9C44}
    .fil30 {fill:#C0993A}
    .fil49 {fill:#C29637}
    .fil22 {fill:#C2A44D}
    .fil28 {fill:#C39D3C}
    .fil66 {fill:#C3B378}
    .fil40 {fill:#C49937}
    .fil82 {fill:#C4A859}
    .fil25 {fill:#C89D3A}
    .fil42 {fill:#C99E3D}
    .fil23 {fill:#CAA13E}
    .fil53 {fill:#CBA94C}
    .fil79 {fill:#CBAC5A}
    .fil94 {fill:#CBAF59}
    .fil27 {fill:#CCA847}
    .fil63 {fill:#CCA849}
    .fil18 {fill:#CCB360}
    .fil47 {fill:#CDAE50}
    .fil26 {fill:#CEB052}
    .fil3 {fill:#CFB66C}
    .fil48 {fill:#D2A83E}
    .fil21 {fill:#D2B159}
    .fil20 {fill:#D2B257}
    .fil29 {fill:#D2BA6B}
    .fil16 {fill:#D2C281}
    .fil34 {fill:#D3AE4D}
    .fil62 {fill:#D4B968}
    .fil77 {fill:#D4C38B}
    .fil19 {fill:#D5B457}
    .fil80 {fill:#D6BC6F}
    .fil72 {fill:#D7BC6B}
    .fil33 {fill:#D8B65B}
    .fil12 {fill:#D8C173}
    .fil45 {fill:#DCBA5A}
    .fil93 {fill:#DEC270}
    .fil41 {fill:#DFC068}
    .fil14 {fill:#DFC57C}
    .fil81 {fill:#DFC677}
    .fil13 {fill:#E0CD81}
    .fil17 {fill:#E2C270}
    .fil4 {fill:#E2CC85}
    .fil78 {fill:#E2D59D}
    .fil32 {fill:#E3C571}
    .fil95 {fill:#E3C677}
    .fil37 {fill:#E5C66B}
    .fil11 {fill:#E5CB7A}
    .fil15 {fill:#E5CC7C}
    .fil38 {fill:#E6BD62}
    .fil44 {fill:#E6C367}
    .fil67 {fill:#E6D89C}
    .fil10 {fill:#E6DB9D}
    .fil46 {fill:#E9CE77}
    .fil71 {fill:#EAC970}
    .fil36 {fill:#EBCC73}
    .fil96 {fill:#ECD592}
    .fil5 {fill:#F1D789}
    .fil8 {fill:#F2E8B0}
    .fil7 {fill:#F3E19D}
    .fil6 {fill:#F4ECB4}
    .fil35 {fill:#F4EFC8}
    .fil9 {fill:#F5EEC0}
    .fil75 {fill:#F7F7E7}
    .fil76 {fill:#F8F6DE}
    .fil1 {fill:#7A6A2A;fill-rule:nonzero}
    .fil0 {fill:#988430;fill-rule:nonzero}
    .fil2 {fill:#BA9F33;fill-rule:nonzero}
    .fil97 {fill:white;fill-opacity:0.800000}
   ]]>
  </style>
 </defs>
 <g id="Layer_x0020_1">
  <metadata id="CorelCorpID_0Corel-Layer"/>
  <g id="_2479301344176">
   <g id="Layer_2" data-name="Layer 2">
    <g id="Layer_1-2" data-name="Layer 1">
     <g id="Layer_1-3" data-name="Layer_1">
      <circle class="fil0" cx="2.89" cy="2.89" r="2.89"/>
      <circle class="fil1" cx="2.89" cy="2.89" r="2.79"/>
      <circle class="fil2" cx="2.89" cy="2.89" r="2.73"/>
      <path class="fil3" d="M1.26 2.58c-0.01,-0.02 -0.03,-0.03 -0.05,-0.05 -0.01,-0.01 -0.03,-0.03 -0.05,-0.04l-0.04 -0.05c-0.01,-0.01 -0.02,-0.01 -0.03,-0.02 -0.01,-0.01 -0.02,-0.02 -0.02,-0.02 -0.07,-0.06 -0.13,-0.13 -0.2,-0.19 0.07,0.06 0.13,0.12 0.2,0.18l0.02 0.03c0.01,0.01 0.02,0.01 0.03,0.02l0.04 0.05c0.02,0.01 0.04,0.03 0.05,0.04 0.02,0.02 0.04,0.03 0.05,0.05l0 0zm-0.85 -0.01c0,0 0.23,0.02 0.35,0.04 0.1,0.01 0.43,0.07 0.43,0.07l-0.78 -0.11zm0 0c0.06,0 0.13,0.01 0.19,0.02 0.04,0 0.07,0.01 0.1,0.01l0.05 0c0.02,0.01 0.03,0.01 0.05,0.01l0.2 0.03 0.09 0.02c0.04,0 0.07,0.01 0.1,0.02 -0.03,-0.01 -0.06,-0.01 -0.1,-0.02l-0.09 -0.01 -0.2 -0.03c-0.02,0 -0.03,-0.01 -0.05,-0.01l-0.05 0c-0.03,-0.01 -0.06,-0.01 -0.1,-0.01 -0.06,-0.01 -0.13,-0.02 -0.19,-0.03l0 0zm0.76 0.17c0,0 -0.25,0.06 -0.34,0.08 -0.08,0.03 -0.33,0.1 -0.33,0.1l0.67 -0.18 0 0z"/>
      <path class="fil3" d="M1.17 2.74c-0.06,0.01 -0.11,0.03 -0.17,0.04l-0.17 0.05c-0.05,0.01 -0.11,0.03 -0.16,0.05l-0.08 0.02c-0.03,0.01 -0.06,0.01 -0.09,0.02 0.03,-0.01 0.06,-0.02 0.08,-0.02l0.09 -0.03c0.05,-0.02 0.11,-0.03 0.16,-0.05 0.06,-0.02 0.12,-0.03 0.17,-0.04 0.06,-0.02 0.11,-0.03 0.17,-0.04l0 0 0 0zm-0.64 0.34c0.03,-0.01 0.35,-0.16 0.42,-0.2 0.04,-0.01 0.15,-0.05 0.15,-0.05l-0.57 0.25z"/>
      <path class="fil3" d="M0.53 3.08c0.03,-0.01 0.05,-0.02 0.08,-0.03l0.06 -0.04 0.14 -0.06c0.05,-0.02 0.09,-0.05 0.14,-0.07 0.03,-0.01 0.05,-0.02 0.07,-0.03l0.04 -0.01c0.01,0 0.03,0 0.04,-0.01 -0.05,0.02 -0.1,0.04 -0.14,0.06 -0.05,0.03 -0.1,0.05 -0.14,0.07l-0.14 0.06c-0.05,0.02 -0.1,0.04 -0.15,0.06l0 0 0 0zm0.04 0.13c0,0 0.28,-0.17 0.38,-0.23 0.05,-0.02 0.22,-0.11 0.22,-0.11l-0.6 0.34z"/>
      <path class="fil3" d="M0.57 3.21c0.04,-0.03 0.09,-0.06 0.14,-0.09l0.08 -0.05c0.02,-0.01 0.05,-0.03 0.07,-0.04 0.03,-0.02 0.05,-0.03 0.08,-0.05 0.01,0 0.02,-0.01 0.04,-0.02l0.03 -0.02c0.06,-0.02 0.11,-0.05 0.16,-0.07 -0.05,0.03 -0.1,0.06 -0.15,0.09 -0.02,0.01 -0.05,0.02 -0.07,0.04 -0.03,0.01 -0.05,0.03 -0.08,0.04 -0.02,0.01 -0.05,0.03 -0.07,0.04l-0.08 0.04 -0.15 0.09 0 0 0 0zm0.97 -0.52c0,0 -0.18,0.13 -0.24,0.18 -0.05,0.04 -0.22,0.16 -0.22,0.16l0.09 -0.12 0.37 -0.22z"/>
      <polygon class="fil4" points="2.2,4.02 2.1,3.84 2.16,3.63 2.54,3.48 2.38,3.15 2.46,2.81 2.61,2.51 3.07,2.44 3.41,2.12 4.14,2.17 4.29,2.96 4.01,3.95 3.85,4.46 3.21,4.48 2.91,4.28 2.56,4.13 "/>
      <path class="fil5" d="M3.32 4.01c0,0 -0.09,0.04 -0.24,0.03 -0.04,-0.06 -0.35,-0.08 -0.35,-0.08 0,0 -0.04,-0.02 -0.11,0.01 -0.06,0.03 -0.13,0.03 -0.19,0.04 -0.06,0.02 -0.12,-0.06 -0.16,-0.08 -0.05,-0.02 -0.11,-0.06 -0.11,-0.06l-0.13 -0.01 -0.26 -0.11 -0.41 -0.41 -0.12 0.17 -0.03 0.22 0.12 0.26 0.34 0.3 0.66 0.17 0.38 -0.11 0.49 -0.21 0.12 -0.13 0 0z"/>
      <polygon class="fil6" points="1,2.56 1.08,2.31 1.18,2.14 1.5,2.12 1.4,2.4 1.13,2.87 1.24,3.29 1.05,3.39 0.99,3.3 0.94,3.09 0.94,2.85 "/>
      <path class="fil7" d="M1.35 3.99l-0.06 -0.08c0,0 -0.01,-0.04 -0.01,-0.08 0.01,-0.03 0.01,-0.04 0.01,-0.05 -0.01,-0.01 -0.05,-0.06 -0.04,-0.1 0,-0.04 -0.01,-0.05 0.02,-0.09 0.03,-0.03 0.03,-0.08 0.03,-0.08l0.04 0.02 0 -0.01c0,0 0.02,0.01 0.02,0.03 0,-0.03 -0.01,-0.14 0.02,-0.17 0.03,-0.03 0.09,0.12 0.09,0.12l-0.04 -0.21 -0.08 -0.23 -0.16 -0.21 -0.01 -0.22 0 -0.02c0,0 -0.07,0.11 -0.09,0.19 -0.01,0.06 0.02,0.13 0.02,0.22 -0.01,0.08 -0.02,0.07 0,0.11 0.02,0.03 0.07,0.1 0.05,0.15 -0.01,0.04 -0.07,0.01 -0.07,0.01 0,0 -0.01,0.04 -0.03,0.05 -0.01,-0.02 -0.01,-0.03 -0.02,-0.05 0,0.01 -0.01,0.02 -0.01,0.02 0,0 -0.01,-0.03 -0.02,-0.07 -0.01,-0.06 -0.03,-0.13 -0.04,-0.16 0,0.02 -0.02,0.08 -0.02,0.08l0.01 0.11 0.04 0.14 0.03 0.09 0.04 0.11 0.03 0.08 0.03 0.06 0.02 0.13 0.11 0.11 0.05 0.02 0.04 -0.02 0 0 0 0z"/>
      <path class="fil8" d="M1.05 2.35c0,0 -0.08,0.13 -0.1,0.26 -0.02,0.13 -0.04,0.27 -0.03,0.45 0.02,0.18 0.05,0.29 0.07,0.36 0.03,0.14 0.13,0.32 0.13,0.32l0 -0.01c-0.01,-0.03 -0.03,-0.06 -0.04,-0.1 -0.01,-0.05 -0.01,-0.1 -0.02,-0.13 -0.01,-0.03 -0.03,-0.05 -0.04,-0.08 -0.01,-0.03 -0.01,-0.08 -0.03,-0.12 -0.01,-0.02 -0.03,-0.06 -0.03,-0.09 -0.01,-0.06 0,-0.13 0,-0.18 -0.01,-0.09 -0.02,-0.15 -0.01,-0.2 0.01,-0.05 0.06,-0.18 0.09,-0.29 0.02,-0.07 0,-0.13 0.04,-0.18 0.04,-0.06 0.06,-0.12 0.07,-0.15 0.01,-0.03 -0.1,0.14 -0.1,0.14l0 0 0 0z"/>
      <path class="fil9" d="M1.41 2.3c0,0 -0.04,0.01 -0.06,0.03 -0.01,0.02 -0.02,0.04 -0.05,0.07 -0.02,0.04 -0.02,0.06 -0.05,0.1 -0.02,0.04 -0.06,0.11 -0.07,0.13 0,0.02 -0.01,0.12 -0.02,0.17 -0.01,0.05 0.01,0.11 0.01,0.11l0.03 -0.01c0,0 0,0.04 0.02,0.06 0.03,0.02 0.03,-0.08 0.03,-0.08l0.1 -0.33 0.15 -0.1 0.02 -0.09 -0.11 -0.06 0 0 0 0z"/>
      <path class="fil10" d="M1.48 2.45c0,0 -0.07,0.01 -0.1,0.03 -0.01,0.01 -0.02,0.02 -0.03,0.03 -0.03,0.03 -0.06,0.05 -0.07,0.08 -0.02,0.03 -0.04,0.07 -0.05,0.16 0,0.03 0,0.07 0,0.1 -0.01,0.04 -0.02,0.07 -0.01,0.09 0,0.04 0.05,0.07 0.05,0.12l0.1 -0.05 0.09 -0.36 0.19 -0.12 -0.11 -0.12 -0.06 0.04 0 0 0 0z"/>
      <path class="fil11" d="M0.98 4.85c0,-0.01 0,-0.01 0,-0.01 0.01,-0.12 0.02,-0.22 0.03,-0.27 0.01,-0.08 0.02,-0.11 0.02,-0.14 0,-0.05 -0.01,-0.09 0,-0.12 0,-0.05 0.05,-0.11 0.05,-0.15 0,-0.04 -0.02,-0.06 -0.03,-0.08 -0.01,-0.02 -0.02,-0.03 -0.02,-0.03 0,0 0.09,-0.07 0.09,-0.33 0,0 0,0 0.01,0l0.04 0.13 0.04 0.04 0.12 0.23 0.16 0.16 0.23 0.16 0.15 0.16 0.02 0.42 -0.2 0.25 -0.03 0.06c-0.25,-0.12 -0.48,-0.29 -0.68,-0.48l0 0z"/>
      <path class="fil12" d="M1.57 5.26c0,0 0,-0.06 0.05,-0.09 0,0.01 0.01,0.02 0.01,0.03 0,-0.01 0.06,-0.1 0.19,-0.13 0.12,-0.02 0.15,-0.11 0.15,-0.11l0.27 -0.24 0.3 -0.28 0.37 -0.14 0.18 -0.04c0,0 0,0.01 -0.01,0.04 0.04,0 0.11,-0.02 0.18,-0.04 0.03,-0.01 0.06,-0.02 0.07,0 0.03,0.02 0.03,0.07 0.03,0.1 0.04,-0.01 0.08,-0.05 0.11,-0.04 0.06,0 0.1,0.06 0.16,0.06 0.07,0 0.1,-0.04 0.15,-0.07 0.03,-0.02 0.07,-0.05 0.1,-0.07 0.06,-0.04 0.67,-0.23 0.67,-0.23l0.21 0.02 0.04 0.23 -0.02 0.6c0,0 -0.01,0 -0.01,0.01l-0.97 0.51 -1.36 0.2c-0.3,-0.04 -0.6,-0.15 -0.86,-0.29l-0.01 -0.03 0 0 0 0z"/>
      <path class="fil5" d="M1.06 4.92c0.02,-0.04 0.04,-0.07 0.04,-0.08 0,0.02 0.01,0.07 0.02,0.13 -0.02,-0.01 -0.04,-0.03 -0.06,-0.05l0 0z"/>
      <path class="fil13" d="M2.05 5.49l0.18 -0.05 0.01 0.01c0,0 0.01,0 0.01,0.02 0.02,-0.02 0.04,-0.01 0.05,-0.02 0.01,0.01 0.02,0.06 0.05,0.07 0.03,0.01 0.06,-0.01 0.1,-0.04 0.03,-0.03 0.07,-0.06 0.1,-0.08 0.01,0.02 0.02,0.04 0.03,0.06 0.04,-0.03 0.11,-0.15 0.21,-0.15 0.02,-0.07 0.07,-0.12 0.13,-0.16 0.09,-0.07 0.15,-0.07 0.22,-0.06 0.03,-0.04 0.06,-0.07 0.1,-0.1 0.01,0.01 0.04,0.03 0.08,0.01 0.05,-0.02 0.09,-0.09 0.15,-0.1 0.01,0 0.01,0 0.02,0 0.03,0 0.05,0.01 0.07,0.02 0.03,0.01 0.18,-0.18 0.3,-0.23 0,-0.02 -0.01,-0.07 0.13,-0.19 0.01,0.01 0,0.03 0.01,0.03 0,0 0.03,-0.01 0.08,-0.05 0.05,-0.04 0.12,-0.08 0.16,-0.09 0.07,-0.02 0.15,0.02 0.15,0.02 0,0 0.01,-0.01 0.02,-0.01 0.02,0 0.03,-0.01 0.04,-0.01 0,0.03 0.02,0.07 0,0.1 0.02,0.01 0.03,0.02 0.05,0.02 -0.01,0.02 -0.03,0.06 -0.06,0.08 0.03,0.02 0.03,0.03 0.07,0.04 -0.02,0.02 -0.04,0.05 -0.05,0.08 -0.01,0.02 -0.05,0.11 -0.06,0.14 -0.02,0.04 -0.04,0.1 -0.06,0.11 -0.01,0.02 -0.05,0.07 -0.08,0.1 0.03,-0.01 0.14,-0.05 0.19,-0.06 -0.01,0.02 -0.09,0.13 -0.16,0.23 -0.42,0.26 -0.91,0.39 -1.41,0.39 -0.28,0 -0.56,-0.04 -0.83,-0.13l0 0z"/>
      <path class="fil14" d="M1.5 2.44c0,0 -0.04,0 -0.05,0.01 -0.01,0 0.04,0.01 0.05,0.02 0.02,0 0.05,0.03 0.06,0.05 0.01,0.02 0.29,0.13 0.29,0.13l0.2 -0.01 0.07 -0.09 -0.13 -0.12 0.09 -0.27 -0.12 0.02 -0.3 0.18 -0.14 0.05 -0.02 0.03 0 0z"/>
      <path class="fil15" d="M1.94 2.53c0,0.01 0.01,0.02 0.02,0.02 0,0 0,0 0,0 0.05,0 0.08,0.01 0.1,0.03 0.03,0.03 0.1,0.14 0.1,0.14l0.18 0.06 0.01 -0.21 -0.19 -0.13 -0.22 0.08 0 0.01 0 0 0 0z"/>
      <path class="fil16" d="M1.9 2.61c0,0 0.03,0 0.08,-0.01 0.04,-0.02 0.1,-0.05 0.13,-0.04 0.04,0.02 0.03,0.07 0.08,0.12 0.02,0.03 0.07,0.03 0.1,0.06 0.03,0.03 0.12,0.02 0.12,0.02l0.04 0.19 -0.15 0.19 -0.04 0.23 -0.2 0 -0.18 -0.07 -0.08 -0.22 0.04 -0.21 0.06 -0.26 0 0z"/>
      <path class="fil17" d="M2.28 2.62c0,0 0.01,0 0.01,0 0,0 -0.01,0.01 -0.01,0.04 0.01,0.03 0.02,0.06 0.01,0.08 0.01,0.01 0.02,0.03 0.02,0.04 0.01,0.02 0.01,0.04 0.06,0.05 0,0 -0.01,0.01 -0.02,0.01 0,0.01 0.04,0.03 0.06,0.06 0.02,0 0.07,-0.01 0.07,-0.01l0.01 0 0.02 0c0,0 -0.02,-0.01 -0.01,-0.06 0.02,-0.05 0.03,-0.04 0.03,-0.05 0,0 0.01,-0.05 0.01,-0.07 0.01,-0.02 0.01,-0.09 0.01,-0.09l-0.01 -0.17 -0.09 -0.05 -0.07 -0.06 -0.06 0.12 -0.04 0.04 -0.01 0.11 0.01 0.01 0 0z"/>
      <path class="fil18" d="M2.48 2.48c0,0 0.02,0.04 0.02,0.08 0,-0.01 0.01,-0.02 0.01,-0.02 0,-0.01 0.01,0.06 0.01,0.09 0,0 0.01,0 0.01,0 0,0 0.01,0.06 0.01,0.09 0.02,-0.04 0.05,-0.06 0.08,-0.08 0.02,-0.01 0.04,-0.03 0.06,-0.03 0.04,0 0.06,0.02 0.11,0.02 0.1,0 0.19,-0.07 0.26,-0.1 0.05,-0.01 0.1,-0.02 0.13,-0.05 0.01,-0.02 0.04,-0.04 0.06,-0.09 0.04,-0.05 0.07,-0.1 0.1,-0.1 -0.01,0 -0.02,0 -0.03,0 -0.01,0 -0.01,0 -0.01,0 0,0 0.01,-0.01 0.03,-0.03 0.01,-0.01 0.03,-0.03 0.06,-0.03 0.06,0 0.08,0.01 0.11,0.01 0.03,0 0.05,-0.01 0.05,-0.01 0,0 0.03,0.02 0.1,0.02 0.07,0.01 0.12,0.01 0.16,0.02 0.03,0 0.16,-0.02 0.19,-0.01 0.03,0 0.05,0 0.07,0.01l-0.11 -0.33 -0.42 -0.36 -0.24 0.17 -0.38 0.38 -0.36 0.14 -0.08 0.08 0 0.13 0 0z"/>
      <path class="fil19" d="M3.3 2.29c0,0 0.01,-0.01 0.03,-0.02 0.01,-0.02 0.04,-0.04 0.07,-0.04 0.05,0 0.07,0.01 0.1,0.01 0.03,0 0.05,-0.01 0.05,-0.01 0,0 0.03,0.03 0.1,0.03 0.07,0 0.12,0 0.16,0.01 0.04,0 0.16,-0.01 0.19,-0.01 0.03,0 0.05,0 0.07,0.01l-0.05 -0.15 -0.06 -0.11 -0.17 -0.19c0,0 -0.21,-0.12 -0.21,-0.12 0,0 -0.07,-0.02 -0.07,-0.02l-0.19 0.11 -0.17 0.44 0 0.09 0.11 0.06c0.03,-0.05 0.06,-0.09 0.08,-0.09 -0.02,0 -0.04,0 -0.04,0l0 0 0 0z"/>
      <path class="fil20" d="M3.3 2.32c-0.02,0 -0.03,0 -0.04,-0.01 -0.01,-0.04 -0.02,-0.05 -0.03,-0.05 -0.02,0 -0.03,0.03 -0.04,0.03 -0.01,0 -0.02,-0.03 -0.02,-0.03l-0.01 0c0,0 -0.06,0.04 -0.1,0.08 -0.05,0.05 -0.12,0.13 -0.15,0.14 -0.03,0.01 -0.14,0.02 -0.17,0.03 -0.04,0.01 -0.08,0.03 -0.09,0.04 0,0 0.02,0.01 0.02,0.02 0.01,0 -0.03,0 -0.04,0.01 0,0 0.01,0.03 0.02,0.04 0.01,0 0.02,-0.01 0.03,-0.01 0.04,0 0.06,0.03 0.11,0.03 0.1,0 0.19,-0.08 0.26,-0.1 0.05,-0.02 0.1,-0.03 0.13,-0.06 0.01,-0.01 0.04,-0.04 0.06,-0.08 0.02,-0.03 0.04,-0.06 0.06,-0.08l0 0 0 0z"/>
      <path class="fil21" d="M1.81 4.63c0,0 -0.01,-0.03 -0.09,-0.12 -0.03,-0.03 -0.04,-0.05 -0.06,-0.06 -0.04,-0.04 -0.06,-0.05 -0.09,-0.07 -0.07,-0.05 -0.14,-0.05 -0.19,-0.11 -0.05,-0.06 -0.11,-0.17 -0.16,-0.28 -0.04,-0.11 -0.05,-0.15 -0.05,-0.15 0,0 0.01,-0.03 0.02,-0.02 0.02,0 0.02,0.03 0.02,0.04 0.01,0.01 0.02,0.02 0.03,0.03 0.02,0.02 0.05,0.05 0.07,0.1 -0.01,-0.04 -0.02,-0.08 -0.02,-0.08 0,0 0.08,0.05 0.15,0.1 0.07,0.06 0.1,0.08 0.12,0.11 0.02,0.04 0.07,0.13 0.1,0.15 0.02,0.03 0.34,0.13 0.34,0.13l0.15 0.11 0.07 0.17 -0.05 0.09 -0.12 0.02 -0.18 -0.08 -0.06 -0.08 0 0 0 0z"/>
      <path class="fil22" d="M1.4 4.06c0,0 0.04,0.07 0.13,0.12 0.09,0.05 0.22,0.1 0.34,0.13 0.07,0.01 0.14,0.03 0.2,0.03 0.16,0 0.28,-0.05 0.42,-0.06 0.07,-0.01 0.17,-0.02 0.26,-0.04 0.13,-0.03 0.2,-0.06 0.3,-0.11 0.07,-0.03 0.14,-0.06 0.2,-0.09 0.07,-0.05 0.13,-0.1 0.19,-0.11 -0.01,0.02 -0.01,0.06 -0.08,0.1 0.04,0 0.08,0 0.08,0 0,0 -0.04,0.02 -0.12,0.08 -0.05,0.04 -0.11,0.1 -0.18,0.15 -0.04,0.02 -0.09,0.04 -0.12,0.06 -0.07,0.04 -0.1,0.06 -0.15,0.11 0.02,0 0.02,0 0.02,0 0,0 -0.06,0.01 -0.11,0.03 -0.01,0 -0.02,0 -0.05,0 -0.02,0.01 -0.05,0.03 -0.08,0.04 -0.05,0.01 -0.06,0 -0.06,0l0.01 0.02c0,0 -0.06,0 -0.08,0 0.01,0 0.01,0 0.01,0 -0.01,0 -0.01,0 -0.01,0 -0.01,0.01 -0.02,0.01 -0.03,0.02 -0.01,0 -0.01,0 -0.02,0 0,0 0.02,0.04 0.03,0.05 -0.01,0.01 -0.11,0.09 -0.11,0.09 0,0 0,0.01 0.01,0.01 0,0.01 0,0.03 0,0.04 0.01,0.01 0.02,0.01 0.02,0.01 0,0 -0.02,0.01 -0.04,0.01 -0.02,0.01 -0.04,0.01 -0.07,0.02 -0.01,0 -0.02,0 -0.03,0 0,0.01 0.02,0.05 -0.01,0.1 -0.04,0.04 -0.05,0.05 -0.07,0.08 0,-0.01 -0.01,-0.01 -0.01,-0.02 -0.02,0 -0.03,-0.01 -0.04,-0.02 0,0.01 -0.01,0.03 -0.01,0.04 -0.02,0.03 -0.03,0.06 -0.04,0.09 -0.01,-0.02 -0.03,-0.04 -0.06,-0.04 -0.04,0.01 -0.06,0.05 -0.07,0.06 0,0 0,-0.01 -0.01,0 0,0.01 -0.01,0.12 -0.11,0.2 0,-0.02 0,-0.07 -0.01,-0.08 -0.01,0.01 -0.02,0.02 -0.08,0.05 -0.07,0.03 -0.06,0.06 -0.06,0.06 0,0 -0.01,-0.05 0.03,-0.1 0.04,-0.05 0.06,-0.07 0.06,-0.07 0,-0.01 0,-0.01 -0.01,-0.01 0,-0.01 -0.01,-0.01 -0.01,-0.02 0.01,0 0.06,-0.03 0.06,-0.08 -0.01,-0.05 -0.03,-0.08 -0.04,-0.09 0,-0.01 0.02,-0.02 0.02,-0.03 -0.01,0 -0.04,-0.02 -0.04,-0.04 0,0 0,-0.01 0.01,-0.02 0,-0.01 0,-0.01 0,-0.02 0,-0.01 -0.01,-0.04 -0.02,-0.05 0,0 0.03,0 0.03,0 0,0 -0.02,-0.03 -0.02,-0.04 -0.01,-0.02 -0.01,-0.05 -0.02,-0.06 0.01,0 0.03,0 0.03,0 0,-0.01 -0.02,-0.02 -0.01,-0.03 0.01,0 0.02,0.01 0.03,0.02 -0.01,-0.01 -0.02,-0.04 -0.04,-0.05 0.01,-0.01 0.04,-0.02 0.07,0 0.03,0.02 0.04,0.04 0.04,0.04 0,0 0.01,0.01 0.04,0.03 0.03,0.02 0.07,0.06 0.12,0.08 0.02,0.01 0.05,0.01 0.07,0 0.01,0 0.02,-0.01 0.03,-0.01 0,0 0.01,0 0.01,0 0,-0.02 -0.01,-0.02 -0.02,-0.03 0.01,0 0.02,0 0.02,0 0,0 0.01,-0.02 -0.02,-0.04 0.01,-0.01 0.01,-0.01 0.01,-0.02 0,0 -0.02,-0.01 -0.02,-0.02 0,0 0.01,-0.01 0.02,-0.01 -0.01,-0.01 -0.03,-0.03 -0.03,-0.03 0,-0.01 0.01,-0.01 0.02,-0.01 0.01,-0.01 -0.04,-0.02 -0.05,-0.02 -0.02,-0.01 -0.03,-0.03 -0.05,-0.03 -0.01,-0.01 -0.03,-0.01 -0.04,-0.02 0.01,0 0.02,0 0.03,0 0.01,0 0.01,0 0.02,0 0,0 0,-0.01 0.01,-0.01 0.01,0 0.02,-0.01 0.03,-0.01 0.01,0 -0.02,0 -0.04,-0.02 -0.02,-0.02 -0.03,-0.03 -0.05,-0.03 -0.01,-0.01 -0.03,0 -0.04,0 -0.02,0 -0.03,-0.01 -0.03,-0.01 0,0 -0.06,0.01 -0.2,-0.08 -0.12,-0.07 -0.17,-0.14 -0.17,-0.14 -0.01,0 -0.02,0 -0.03,-0.01 -0.05,-0.02 -0.11,-0.07 -0.11,-0.14l0 0 0 0z"/>
      <path class="fil23" d="M3.12 1.26c0.01,0.01 0.02,0.01 0.03,0.02 0.02,0.03 0.03,0.07 -0.02,0.12 0.02,0.01 0.03,0.01 0.05,0.01 -0.02,0.02 -0.06,0.07 -0.06,0.1 0,0.04 0.02,0.04 0.02,0.04 0,0 -0.03,0.04 -0.03,0.1 0.01,-0.02 0.03,-0.03 0.04,-0.05 0.04,-0.02 0.08,-0.06 0.12,-0.08 0,0.01 0,0.01 0,0.01 0,0.01 0,0.01 0,0.02 0,0.01 0.06,-0.05 0.11,-0.03 0.02,0.01 0.01,0.04 0.01,0.04 0,0 0.03,-0.01 0.06,0.01 0.02,0.03 0.05,0.08 0.07,0.1 0,0.02 0.02,0.03 0.04,0.06 0.02,0.05 0.05,0.09 0.06,0.14 0,-0.03 0.01,-0.06 0.08,-0.04 0.07,0.02 0.15,0.08 0.21,0.18 0.07,0.1 0.08,0.21 0.12,0.25 0.03,0.04 0.07,0.11 0.07,0.14 0,0.03 -0.01,0.12 0.06,0.38 0.02,-0.08 0.05,-0.26 0.05,-0.26l0.01 -0.15 0.02 -0.47 -0.49 -0.42 -0.39 -0.28 -0.26 0.03 0.02 0.03 0 0 0 0z"/>
      <path class="fil24" d="M4.04 1.97c0,0 0,-0.05 -0.12,-0.13 -0.12,-0.07 -0.21,-0.07 -0.29,-0.14 -0.07,-0.05 -0.13,-0.17 -0.18,-0.21 -0.04,-0.04 -0.05,-0.15 -0.05,-0.15l0.15 -0.12 0.21 -0.31 0.18 -0.2 0.09 0.12 0.12 0.14 0.06 0.29 0.03 0.41 -0.2 0.3 0 0z"/>
      <path class="fil25" d="M4.19 2.47c0,-0.01 0,-0.02 0,-0.03 0,-0.06 -0.01,-0.11 -0.03,-0.16 -0.03,-0.1 -0.09,-0.27 -0.13,-0.33 -0.01,-0.07 0,-0.08 0.02,-0.08 0.01,-0.01 0.06,-0.04 0.09,-0.14 0.03,-0.1 0.11,-0.11 0.11,-0.11l0.06 -0.04 0.08 0.21 0.07 0.18 0.02 0.14 0.01 0.12 -0.03 0.25 -0.19 0.17 -0.08 -0.18 0 0 0 0z"/>
      <path class="fil26" d="M1.55 5.27l0 0c0,-0.01 0.01,-0.01 0.01,-0.01 0,-0.01 0,-0.01 0.01,-0.01 0,-0.01 0.02,-0.01 0.03,-0.01 0.02,0 0.05,0.01 0.06,0.01 0.04,0 0.08,-0.02 0.14,-0.01 0.09,0.01 0.11,0.08 0.17,0.11 0.03,0.03 0.07,0.02 0.08,0.02l0.01 0c0,0 0.02,-0.02 0.03,-0.02 0.02,0 0.02,0.02 0.03,0.02 0.03,0 0.08,-0.02 0.11,-0.01 0.02,0 0.03,0.02 0.03,0.03 0.01,0.02 0,0.04 -0.01,0.06 -0.03,0.02 -0.06,0.05 -0.06,0.07 0.01,0 0.01,0.01 0.02,0.02 -0.23,-0.06 -0.45,-0.15 -0.66,-0.27l0 0z"/>
      <path class="fil27" d="M4.03 4.34c0,0 0.08,-0.1 0.1,-0.15 0.03,-0.05 -0.08,-0.67 -0.08,-0.67l0.21 -0.7 0 -0.22c0,0 0.01,-0.21 0.03,-0.3 0.03,0.05 0.12,0.12 0.14,0.15 0.01,-0.07 0.04,-0.2 0.04,-0.34 0.02,0.02 0.06,0.29 0.06,0.29l0.04 0.18 0.05 0.19 0.06 0.21 0.04 0.14 0.02 0.03 0.02 0.06 0.01 0.06 0.05 0.15 0.03 0.12 0.02 0.23c0,0.01 0.01,0.03 0.01,0.05 0,0.02 0,0.04 0,0.04 0,0 0,0.05 0,0.09 0,0.04 0,0.07 -0.03,0.09 -0.03,0.03 -0.05,0.19 -0.05,0.19l-0.05 -0.04c0,0 0.01,-0.04 -0.02,-0.09 -0.02,-0.04 -0.07,-0.05 -0.09,-0.04 -0.03,0 -0.08,0.01 -0.1,0.03 -0.02,0.01 -0.06,0.06 -0.09,0.08 -0.05,0.03 -0.13,0.03 -0.17,0.04 -0.04,0.01 -0.08,0.03 -0.13,0.07 -0.04,0.02 -0.07,0.04 -0.11,0.06l0 0 -0.01 0z"/>
      <path class="fil28" d="M4.03 5.36c0,0 0.01,0 0.01,0 0.34,-0.15 0.63,-0.37 0.88,-0.64 0,-0.1 -0.01,-0.2 -0.01,-0.23 -0.01,-0.08 0,-0.15 -0.01,-0.2 0,-0.04 -0.02,-0.23 -0.04,-0.27 -0.01,-0.05 -0.03,-0.07 -0.04,-0.07 0,0 -0.02,0.08 -0.02,0.11 0,0.02 0,0.07 0,0.08 -0.01,0 -0.01,0 -0.01,-0.01 0,0.01 -0.01,0.03 -0.01,0.04 0,0 0,-0.02 0,-0.03 0,0 -0.01,0 -0.01,-0.01 0,-0.01 0,-0.02 0,-0.02 0.01,-0.01 -0.01,0.02 -0.02,0.07 -0.01,0.05 -0.01,0.05 -0.01,0.06 -0.01,0 -0.03,0.02 -0.03,0.03 0,0.01 0.02,0.03 0.02,0.03 0,0.01 -0.01,0.07 -0.02,0.09 -0.01,0.03 0,0.08 -0.01,0.11 0,0.02 -0.01,0.04 -0.02,0.05 0.01,0 0.02,0 0.02,0 0,0 0.01,0.07 -0.03,0.13 -0.01,0.02 -0.02,0.03 -0.03,0.05 -0.03,0.03 -0.06,0.07 -0.06,0.1 0,-0.01 0,-0.02 0,-0.02 0,-0.01 -0.05,0.05 -0.07,0.09 -0.03,0.04 -0.07,0.03 -0.08,0.05 -0.01,0.01 -0.01,0.02 0,0.04 -0.01,0 -0.03,0 -0.04,0.04 -0.01,0.02 -0.02,0.04 -0.04,0.05 -0.03,0.01 -0.05,0.02 -0.07,0.02 0.01,0 0.02,0 0.02,0.01 0,0.01 -0.03,0.03 -0.07,0.05 -0.04,0.02 -0.05,0.05 -0.06,0.08 -0.01,0.01 -0.03,0.03 -0.05,0.03 0.01,0.01 0.03,0.02 0.03,0.02 -0.01,0 -0.02,0 -0.06,0.03 -0.03,0.03 -0.04,0.04 -0.05,0.04l0 0 -0.01 0z"/>
      <path class="fil29" d="M3.39 5.58c0.01,-0.02 0.03,-0.03 0.05,-0.04 0.08,-0.02 0.15,-0.03 0.18,-0.04 0.03,-0.01 0.05,-0.02 0.09,-0.03 0,0.01 0,0.02 0,0.03 -0.11,0.03 -0.22,0.06 -0.32,0.08l0 0z"/>
      <path class="fil30" d="M4.73 3.66c0,0 -0.02,0.08 -0.04,0.13 -0.03,0.05 -0.06,0.12 -0.06,0.12 0,-0.01 0,-0.03 0.01,-0.04 -0.04,0.01 -0.12,0.06 -0.14,0.08 -0.02,0.02 -0.06,0.06 -0.07,0.07 0.02,-0.06 0.05,-0.12 0.05,-0.15 -0.03,0.03 -0.19,0.16 -0.27,0.24l-0.26 0.21c-0.03,0.02 -0.06,0.03 -0.09,0.04 -0.04,0.02 -0.09,0.04 -0.13,0.05 0.01,-0.03 0.02,-0.05 0.05,-0.07 0.02,-0.03 0.09,-0.11 0.11,-0.14 0.01,-0.04 0.01,-0.06 -0.01,-0.1 -0.01,0.01 -0.04,0.01 -0.06,0.01 -0.02,0.01 -0.04,0.03 -0.04,0.03 0,0 0.02,-0.08 0.05,-0.16 -0.02,0 -0.07,0 -0.07,0 0,0 0.06,-0.09 0.16,-0.16 -0.03,0 -0.06,0.01 -0.09,0.03 -0.06,0.02 -0.12,0.06 -0.17,0.08 0.03,-0.04 0.22,-0.31 0.33,-0.56 0.11,-0.24 0.15,-0.31 0.17,-0.44 0.02,-0.07 0.01,-0.16 0.02,-0.25 0,-0.09 0.01,-0.17 0,-0.22 0.03,0.04 0.14,0.14 0.15,0.37 0,0.22 -0.11,0.53 -0.22,0.69 0.03,0.01 0.1,0.02 0.17,-0.11 0.08,-0.12 0.07,-0.16 0.1,-0.21 0,0.02 0,0.03 0,0.03 0,0 0.11,-0.13 0.16,-0.29 0.01,0.07 0.04,0.13 -0.01,0.26 -0.04,0.12 -0.09,0.15 -0.09,0.15 0,0 0.02,-0.01 0.06,-0.03 0.01,0.01 0.01,0.03 0.02,0.04 0.01,0.01 0.03,0.02 0.03,0.03 0.01,-0.02 0.03,-0.04 0.04,-0.06 0,0.04 -0.01,0.2 0.01,0.28 0.04,0 0.07,-0.01 0.1,-0.07 -0.02,0.06 -0.02,0.1 -0.01,0.16 0.02,-0.02 0.04,-0.04 0.04,-0.04l0 0 0 0z"/>
      <path class="fil31" d="M3.52 1.09c0,0 -0.04,0.01 -0.1,0.01 -0.06,0 -0.04,-0.02 -0.12,-0.02 -0.13,0 -0.58,0.07 -0.66,0.07 -0.05,0 0.18,0.02 0.18,0.02l0.56 0.01 0.12 -0.01 0.04 -0.08 -0.02 0z"/>
      <path class="fil32" d="M2.04 2.2c0,0 -0.07,0.05 -0.1,0.1 -0.04,0.04 -0.05,0.07 -0.09,0.1 0,0 0,0 0.01,0 0,0 0.01,0 0.02,0 0,0 0,0.01 -0.01,0.01 0,0 0,0 0.01,0 0,0 0.01,0 0.02,0.01 -0.01,0 -0.04,0.03 -0.02,0.07 0.02,0.02 0.05,0.02 0.05,0.02 0,0 0,0.03 0.03,0.02 0.07,0 0.15,-0.03 0.19,-0.02 0.03,0.01 0.05,0.01 0.08,0.06 0.03,0.04 0.05,0.05 0.05,0.05 0,0 0.02,-0.04 0.01,-0.11 0.02,-0.03 0.03,-0.07 0.03,-0.1l-0.03 -0.18 -0.1 -0.13 -0.14 0.07 -0.01 0.03 0 0z"/>
      <path class="fil33" d="M2.17 2.17c0,0 0.01,0.03 0.05,0.03 0,0.01 0,0.01 0,0.02 0,0.01 0,0.02 0,0.02 0.01,0 0.01,-0.01 0.01,-0.01 0.01,0.01 0,0.02 0,0.04 0.01,0 0.01,0.01 0.01,0.02 0,0 0,-0.01 0,-0.01 0,0 0.01,0.03 0.04,0.05 0,0 0,0 0,0 0,0 0,-0.01 0,-0.01 0,0.01 0,0.01 0,0.02 0,-0.01 0,-0.01 0,-0.01 0,0 0,0.08 0.01,0.11 0.01,0 0.01,0 0.01,0 0,-0.01 0,0.02 0,0.03 -0.01,0.02 0,0.04 0,0.04 0,0 0.01,-0.01 0.02,-0.01 0.02,-0.01 0.04,-0.03 0.05,-0.06 0.01,-0.03 0.02,-0.05 0.02,-0.07 0.01,0.01 0.01,0.02 0.01,0.03 0,0.01 0.02,0 0.02,0l0.01 -0.05 0.03 -0.11 0.02 -0.08 0.12 -0.19 0.22 -0.16 0.19 0.04 0.17 -0.22 -0.28 -0.17 -0.27 0.03 -0.23 0.33 -0.2 0.3 -0.03 0.05 0 0 0 0z"/>
      <path class="fil34" d="M3.55 1.69c0,0 -0.02,0.01 -0.06,0.03 -0.05,0.02 -0.08,0.03 -0.1,0.07 -0.02,0.03 -0.02,0.06 -0.02,0.06 0,0 0.03,-0.01 0.05,-0.02 0.02,0 0.04,0 0.04,0.01 0,0 -0.01,0.01 -0.01,0.01 -0.01,0.01 0.04,0 0.03,0.02 0,0.02 0,0.04 -0.01,0.05 -0.01,0.01 -0.04,0.02 -0.04,0.03 -0.01,0.02 0,0.02 0,0.04 0,0.02 -0.02,0.05 -0.07,0.11 -0.05,0.06 -0.07,0.1 -0.07,0.1 0,0 -0.03,-0.04 -0.04,-0.09 -0.01,0.01 -0.06,0.04 -0.06,0.04l-0.11 -0.4 0 -0.03c0,0 0.01,-0.01 0.01,-0.04 -0.02,0 -0.02,-0.01 -0.04,-0.03 -0.03,-0.02 -0.04,-0.05 -0.08,-0.06 -0.01,-0.02 -0.01,-0.03 -0.04,-0.03 -0.03,-0.01 -0.05,-0.01 -0.05,-0.01 0,0 0.02,-0.01 0.02,-0.02 -0.01,0 -0.03,0.01 -0.06,0 -0.04,0 -0.05,0 -0.07,0.01 -0.02,0 -0.04,0.01 -0.05,-0.02 -0.01,-0.01 -0.04,0 -0.05,0.02 -0.02,0.03 -0.03,0.05 -0.07,0.06 0,0.02 0,0.03 -0.01,0.05 -0.01,0.02 -0.03,0.03 -0.05,0.06 -0.04,0.04 -0.03,0.11 -0.08,0.16 -0.06,0.05 0,-0.14 0,-0.14l0.09 -0.22 0.26 -0.24 0.39 -0.03 0.04 0.2 0.19 0.07 0.12 0.18 0 0 0 0z"/>
      <path class="fil23" d="M3.61 1.74l-0.16 -0.24 -0.12 -0.09c0,0 -0.08,-0.15 -0.09,-0.16 0,0 -0.08,-0.01 -0.13,-0.01l0.01 0.02c0.01,0.01 0.02,0.01 0.03,0.02 0.02,0.03 0.03,0.07 -0.02,0.13 0.02,0 0.03,0 0.05,0 -0.02,0.02 -0.06,0.07 -0.06,0.1 0,0.04 0.02,0.05 0.02,0.05 0,0 -0.03,0.03 -0.03,0.09 0.01,-0.02 0.03,-0.03 0.04,-0.05 0.04,-0.02 0.08,-0.05 0.12,-0.07 0,0 0,0 0,0 0,0.01 0,0.01 0,0.02 0,0.01 0.06,-0.05 0.11,-0.03 0.02,0.01 0.01,0.04 0.01,0.04 0,0 0.03,-0.01 0.06,0.02 0.02,0.02 0.05,0.07 0.07,0.1 0,0.01 0.02,0.03 0.04,0.06 0.03,0.04 0.05,0.08 0.06,0.13 0,-0.02 0.01,-0.05 0.04,-0.05l-0.05 -0.08 0 0z"/>
      <path class="fil35" d="M1.14 2.41c0,0 -0.01,-0.03 0,-0.08 0.01,-0.06 0.03,-0.09 0.04,-0.17 0,-0.08 0.06,-0.19 0.06,-0.19l0.15 -0.06 0.1 0.02 0.03 0.15 -0.13 0.07c0,0 -0.01,0.03 -0.05,0.06 -0.03,0.02 -0.09,0.04 -0.1,0.07 -0.01,0.01 -0.01,0.03 -0.02,0.05 0,0.01 -0.03,-0.01 -0.06,0.01 -0.02,0.03 -0.02,0.05 -0.02,0.07l0 0z"/>
      <path class="fil36" d="M1.44 2.37c0,0 -0.01,0.01 -0.02,0.03 -0.01,-0.01 -0.03,-0.1 -0.03,-0.18 0,-0.08 -0.01,-0.1 0.01,-0.13 0.02,-0.03 0.09,-0.05 0.08,-0.1 -0.01,-0.05 -0.05,-0.07 -0.1,-0.06 -0.04,0.01 -0.07,0.09 -0.11,0.13 -0.03,0.03 -0.06,0.02 -0.07,0.04 -0.01,0.02 0,0.04 0,0.06 -0.01,0 -0.02,0.03 -0.04,0.06 -0.04,0.06 -0.11,0.15 -0.12,0.22 0,-0.04 0,-0.04 0.01,-0.09l-0.01 -0.01 0.05 -0.15 0.03 -0.13 0.07 -0.21 0.11 -0.21 0.12 -0.13 0.12 0.01 0.01 0.18 0.07 0.34 0.14 0.17 -0.23 0.16 -0.09 0 0 0 0 0z"/>
      <path class="fil37" d="M1.51 2.44c0,0 -0.02,0 -0.02,0 -0.01,0 -0.02,-0.01 -0.01,-0.01 0,-0.01 0.01,-0.02 0.01,-0.02 0,0 0,0 0,0 0,-0.01 0,-0.01 -0.01,-0.01 -0.01,-0.01 -0.02,0 -0.02,0 0,0 -0.01,-0.01 -0.01,-0.01 0,0 0.01,0 0.01,0 -0.01,0 -0.03,-0.01 -0.04,-0.01 0.01,-0.01 0.03,-0.03 0.05,-0.03 0.01,0 0.02,0 0.02,-0.01 0,-0.01 -0.01,-0.02 -0.02,-0.02 0,-0.01 0,-0.02 -0.01,-0.04 -0.01,-0.02 -0.01,-0.04 0,-0.04 0,-0.01 0.01,-0.02 0.02,-0.03 0,-0.01 0.01,-0.02 0.02,-0.02 0,-0.01 0.02,-0.01 0.03,-0.02 0.02,-0.01 0.03,-0.01 0.04,-0.01 0.01,0.01 0.01,0.02 0.01,0.02 0,0 0.03,-0.01 0.06,0 0.03,0.02 0.1,0.03 0.1,0.03l0.02 0.05 -0.16 0.14 -0.07 0.04 -0.02 0 0 0 0 0z"/>
      <path class="fil38" d="M1.75 2.2c0,0 -0.06,0.04 -0.07,0.05 0.01,0 0.02,0.01 0.02,0.01 -0.01,0.01 -0.04,0.03 -0.06,0.06 -0.02,0.02 -0.04,0.05 -0.05,0.06 0,0.02 -0.06,0.05 -0.08,0.06 0.04,0 0.12,-0.05 0.15,-0.05 0,0.01 0.01,0.03 0.02,0.03 0.02,0 0.07,0.01 0.13,-0.03 0.06,-0.04 0.04,-0.06 0.07,-0.08 0.05,-0.04 0.07,-0.07 0.1,-0.08 0.03,-0.02 0.04,-0.03 0.04,-0.03 0,0 0,-0.01 0.01,-0.01 0.01,0 0.01,0 0.01,0.01 0,0 0.05,-0.04 0.11,-0.05 0,0 0,0 0,0 0,0 0,0 0,0 0,0 0.01,-0.01 0.01,-0.01 0,0.01 0.01,0.02 0.01,0.03 0.01,0 0.03,-0.05 0.03,-0.05l0.05 -0.13 0 -0.13 -0.04 0.01 -0.28 0.12 -0.16 0.17 -0.02 0.04 0 0z"/>
      <path class="fil39" d="M2.54 1.6c0.02,0 0.03,-0.01 0.05,-0.02 -0.01,0.02 -0.01,0.03 -0.03,0.07 -0.03,0.03 -0.03,0.04 -0.05,0.08 -0.02,0.03 -0.02,0.09 -0.04,0.11 0.01,0 0.02,0 0.03,0 0.01,-0.01 -0.02,0.01 -0.03,0.03 -0.01,0.02 -0.02,0.05 -0.06,0.07 -0.03,0.03 -0.07,0.04 -0.12,0.09 -0.05,0.05 -0.1,0.12 -0.12,0.14 0.01,-0.02 0.03,-0.06 0.03,-0.09 0.01,-0.03 0,-0.07 0.01,-0.11 0.01,-0.03 0.01,-0.06 0.05,-0.13 0.03,-0.07 0.1,-0.3 0.1,-0.3l0.14 -0.04 0.04 0.1 0 0 0 0z"/>
      <path class="fil40" d="M2.44 1.51c0,0 -0.04,0.06 -0.05,0.12 -0.01,0.05 0,0.05 -0.01,0.08 0,0 0,0.01 0,0.02 0,0.01 0,0.02 0,0.02 0.01,-0.02 0.03,-0.04 0.06,-0.05 0.04,-0.03 0.07,-0.04 0.09,-0.07 0.02,-0.02 0.04,-0.05 0.08,-0.08 -0.02,0 -0.04,-0.01 -0.05,-0.01 0.02,-0.02 0.07,-0.05 0.12,-0.09 0.06,-0.03 0.05,-0.05 0.14,-0.08 -0.03,0 -0.04,-0.01 -0.07,0 0.01,-0.02 0.04,-0.03 0.08,-0.07 0.03,-0.03 -0.02,-0.08 -0.02,-0.08l-0.25 0.15 -0.12 0.14 0 0z"/>
      <polygon class="fil41" points="1.77,1.4 1.78,1.36 1.85,1.24 1.92,1.05 1.92,0.77 1.92,0.62 1.93,0.52 1.94,0.48 1.95,0.47 2.01,0.5 2.09,0.61 2.1,0.83 2.02,1.18 1.79,1.43 "/>
      <path class="fil31" d="M1.96 0.46c0,0 -0.04,0 -0.05,0.15 -0.01,0.16 -0.01,0.24 -0.02,0.31 0,0.08 -0.01,0.12 -0.02,0.17 -0.01,0.04 -0.01,0.11 -0.03,0.14 -0.01,0.02 -0.03,0.07 -0.08,0.12 -0.05,0.04 -0.13,0.07 -0.14,0.07 -0.02,0.01 -0.12,0.02 -0.17,0.04 -0.01,0.01 -0.04,0.02 -0.06,0.05 -0.06,0.05 -0.14,0.14 -0.19,0.25 -0.08,0.16 -0.17,0.62 -0.17,0.62l0.02 -0.03c0,0 0,-0.04 0.05,-0.11 0.04,-0.07 0.03,-0.16 0.08,-0.3 0.02,-0.05 0.05,-0.12 0.08,-0.18 0.06,-0.09 0.12,-0.17 0.19,-0.22 0.1,-0.07 0.22,-0.09 0.22,-0.09l0.13 -0.08c0,0 0.02,-0.04 0.05,-0.09 0.04,-0.07 0.09,-0.15 0.1,-0.26 0.02,-0.16 -0.02,-0.27 -0.02,-0.37 0,-0.09 0,-0.16 0.02,-0.18 0.02,-0.02 0.01,-0.01 0.01,-0.01l0 0 0 0z"/>
      <path class="fil42" d="M1.96 1.19c0,0 0.05,-0.14 0.08,-0.26 0,-0.02 0.01,-0.05 0.01,-0.07 0.02,-0.11 0.02,-0.16 0,-0.22 -0.01,-0.05 -0.05,-0.09 -0.08,-0.12 -0.02,-0.03 -0.03,-0.05 -0.02,-0.05 0,-0.01 0.02,-0.02 0.04,-0.02 0.03,0 0.07,0.02 0.1,0.05 0.03,0.04 0.06,0.18 0.06,0.18l0.03 0.19 0.08 0.23 -0.3 0.09 0 0 0 0z"/>
      <path class="fil43" d="M2.48 1.05c0,0 -0.01,0 -0.03,0 0,0 0,0 0,0 0,0.02 -0.01,0.03 -0.02,0.04 -0.02,-0.01 -0.2,0.01 -0.2,0.01 0,0 -0.09,-0.02 -0.12,-0.13 -0.01,-0.08 0.02,-0.18 0.01,-0.25 -0.02,-0.1 -0.04,-0.12 -0.04,-0.15 -0.01,-0.03 -0.01,-0.04 -0.01,-0.06 -0.01,0 -0.01,-0.01 -0.03,-0.01 0,0 0.01,-0.01 0,-0.03 0,0 0.04,0.01 0.09,0.05 0.03,0.04 0.03,0.05 0.04,0.05 0.01,0.01 0.06,0.06 0.09,0.11 0.02,0.05 0.07,0.2 0.08,0.23 0,0.01 0.01,0.02 0.03,0.04 0.02,0.03 0.06,0.09 0.11,0.1l0 0 0 0z"/>
      <path class="fil31" d="M2.17 0.58c0.03,0.04 0.06,0.09 0.08,0.14 0.03,0.06 0.04,0.11 0.08,0.15 -0.02,-0.05 -0.05,-0.16 -0.07,-0.19 -0.02,-0.04 -0.07,-0.09 -0.09,-0.1l0 0 0 0z"/>
      <path class="fil44" d="M1.86 1.35c0,0 -0.05,0.01 -0.14,0.05 -0.03,0.02 -0.05,0.03 -0.08,0.04 -0.07,0.03 -0.14,0.06 -0.2,0.08 0,0 0,0.01 0,0.01 0,0 0,0.02 0.02,0.03 -0.01,0.01 -0.1,0.07 -0.08,0.29 0.02,-0.01 0.04,-0.02 0.05,-0.02 0,0 0,0.02 0.01,0.02 0.01,0 0.03,-0.01 0.06,-0.05 -0.01,0.02 -0.02,0.14 0.06,0.23 0.01,-0.02 0.05,-0.07 0.05,-0.07l0 -0.02c0,0 0,-0.06 0.02,-0.11 0.02,-0.06 0.06,-0.1 0.06,-0.1l0.2 -0.28 -0.03 -0.11 0 0 0 0.01z"/>
      <path class="fil45" d="M1.67 1.76c-0.01,0.01 -0.02,0.02 -0.03,0.02 0,-0.01 -0.01,-0.05 0.02,-0.09 0.03,-0.05 0.1,-0.11 0.12,-0.16 0.02,-0.03 0.01,-0.11 0.12,-0.21 0.11,-0.1 0.16,-0.13 0.16,-0.13l0.18 -0.1 0.22 0.09 -0.11 0.44 -0.09 0.2 -0.34 -0.07 -0.25 0.01 0 0 0 0z"/>
      <path class="fil46" d="M1.8 1.65l0.04 -0.06 0 -0.03c0,0 0.05,-0.02 0.1,-0.07 0.05,-0.05 0.12,-0.15 0.19,-0.14 0.06,0 0.06,0.13 0.07,0.17 0,0.03 0.01,0.11 0.02,0.16 0.01,0.04 -0.15,0.21 -0.15,0.21l-0.12 0.08 -0.15 -0.32 0 0z"/>
      <path class="fil47" d="M1.93 2.09c0,0 0.04,-0.05 0.01,-0.07 0.02,-0.03 0.04,-0.07 0.04,-0.07 0,0 0.02,-0.04 0.09,-0.1 0.06,-0.06 0.1,-0.1 0.11,-0.14 0.01,-0.03 0.01,-0.06 0.01,-0.08 0.01,0 0.01,0.01 0.02,0.01 0.01,0.01 0.06,0.05 0.05,0.13 0,0.08 -0.03,0.11 -0.03,0.11 0,0 -0.03,0.03 -0.05,0.05 -0.02,0.01 -0.03,0.03 -0.07,0.03 0.01,0 0.01,-0.01 0.01,-0.01 0.01,0 -0.03,0 -0.06,0.02 -0.02,0.01 -0.06,0.07 -0.08,0.09 -0.02,0.01 -0.05,0.03 -0.05,0.03l0 0 0 0z"/>
      <path class="fil48" d="M3.49 1.18c-0.06,-0.02 -0.12,-0.03 -0.18,-0.03 -0.09,-0.01 -0.24,0 -0.38,0 -0.15,0 -0.29,-0.05 -0.48,-0.06 -0.03,-0.02 -0.11,-0.1 -0.36,0.07 0.02,0 0.18,-0.04 0.24,0.04 0.06,0.07 0.04,0.19 0.03,0.22 -0.01,0.06 -0.06,0.16 -0.08,0.22 -0.02,0.07 -0.01,0.1 -0.03,0.15 -0.01,0.04 -0.04,0.07 -0.02,0.12 0.02,-0.01 0.03,-0.01 0.07,-0.11 0.04,-0.09 0.04,-0.15 0.1,-0.23 0.07,-0.08 0.18,-0.18 0.22,-0.21 0.04,-0.02 0.37,-0.2 0.72,-0.03 0.08,-0.01 0.15,-0.15 0.15,-0.15l0 0 0 0z"/>
      <path class="fil49" d="M2.23 1.12c0,-0.01 0,-0.01 0,-0.01 0,-0.01 -0.01,-0.02 -0.01,-0.02 -0.01,-0.01 -0.08,-0.02 -0.13,-0.01 -0.07,0.01 -0.13,0.1 -0.17,0.14 -0.03,0.05 -0.06,0.12 -0.11,0.16 0,0 0,0 0,0 0,-0.01 0,-0.01 0,-0.01 0,-0.01 0,0 0,0 -0.01,0.01 -0.01,0.01 0,0.01l0 0.01c0.01,0 0.07,-0.03 0.16,-0.11 0.09,-0.09 0.16,-0.13 0.2,-0.14 0.02,-0.01 0.04,-0.02 0.06,-0.02l0 0 0 0z"/>
      <path class="fil50" d="M3.83 0.77c0,0 -0.02,0.02 -0.04,0.04 -0.04,0.04 -0.09,0.09 -0.14,0.14 -0.04,0.05 -0.09,0.09 -0.15,0.15 -0.05,0.06 -0.12,0.13 -0.13,0.15 -0.02,0.02 -0.03,0.06 -0.03,0.08 -0.01,-0.01 -0.02,-0.02 -0.02,-0.02 0.01,0.01 0.01,0.02 0.02,0.02 0.01,0.02 0.03,0.04 0.04,0.05 0.01,0.02 0.02,0.04 0.02,0.06 0.01,0 0.04,0.01 0.09,-0.07 0.04,-0.07 0.1,-0.15 0.1,-0.15l0.09 -0.14 0.06 -0.12 0.08 -0.13 0.01 -0.06 0 0 0 0z"/>
      <path class="fil31" d="M3.92 0.67c0,0 -0.05,0.05 -0.08,0.08 -0.02,0.02 -0.07,0.1 -0.07,0.1l0.02 -0.01 0.09 -0.08 0.04 -0.07 0 -0.02 0 0z"/>
      <path class="fil51" d="M3.91 4.38c0,0 -0.01,-0.04 0.02,-0.06 0.02,-0.02 0.07,-0.05 0.13,-0.18 0.05,-0.13 0.06,-0.16 0.06,-0.16 0,0 -0.1,0.09 -0.16,0.11 0.02,-0.03 0.02,-0.05 0.03,-0.07 -0.01,0 -0.04,-0.01 -0.04,-0.02 0.01,-0.01 0.02,-0.06 0.06,-0.09 0.05,-0.04 0.14,-0.1 0.21,-0.16 0.07,-0.05 0.2,-0.19 0.22,-0.22 0.01,0.01 0.01,0.02 0.01,0.02 0,0 -0.07,0.09 -0.1,0.15 -0.03,0.04 -0.03,0.07 -0.03,0.07l0.06 -0.03c0,0 0.02,0.07 -0.06,0.18 0.04,-0.02 0.05,-0.01 0.07,-0.02 -0.03,0.02 -0.08,0.05 -0.13,0.14 -0.04,0.08 -0.1,0.17 -0.2,0.23 -0.1,0.07 -0.15,0.11 -0.15,0.11l0 0 0 0z"/>
      <path class="fil52" d="M3.65 1.23c0,0 -0.04,0.08 -0.04,0.14 0,0.02 -0.01,0.03 -0.01,0.05 0,0.05 0.01,0.11 -0.01,0.14 0,-0.01 0,-0.02 -0.01,-0.02 0,0.02 -0.02,0.08 -0.03,0.1 0,-0.01 -0.01,-0.07 -0.01,-0.13 0,-0.06 0,-0.07 0,-0.08 0,0.02 -0.01,0.04 -0.02,0.06 -0.01,-0.02 -0.01,-0.03 -0.02,-0.05 -0.01,0.01 -0.02,0.03 -0.02,0.03 0,0 0,-0.02 -0.01,-0.04 0,-0.02 0,-0.05 0,-0.06 0.01,-0.01 0.03,-0.06 0.07,-0.11 0.05,-0.05 0.1,-0.16 0.11,-0.19 0.02,-0.03 0.08,-0.16 0.08,-0.16l0.05 0 -0.07 0.16c0,0 -0.04,0.08 -0.07,0.12 -0.02,0.03 -0.06,0.12 -0.08,0.16 0.01,-0.02 0.02,-0.03 0.04,-0.05 0.01,-0.01 0.05,-0.07 0.05,-0.07l0 0 0 0z"/>
      <path class="fil53" d="M3.92 0.67c0,0.02 -0.02,0.04 -0.03,0.06 -0.03,0.04 -0.09,0.08 -0.12,0.12 -0.03,0.04 -0.09,0.13 -0.06,0.25 0.01,-0.02 0.02,-0.07 0.07,-0.13 0.05,-0.06 0.1,-0.12 0.12,-0.17 0.02,-0.05 0.03,-0.09 0.03,-0.09l0.01 -0.02 -0.01 -0.02 -0.01 0 0 0z"/>
      <path class="fil31" d="M4.87 3.76c0,0 -0.02,-0.05 -0.02,-0.09 -0.01,-0.05 0,-0.06 -0.01,-0.11 -0.01,-0.03 -0.03,-0.03 -0.04,-0.03 0,-0.01 0,-0.06 0,-0.08 0,-0.03 0,-0.07 -0.01,-0.08 -0.01,-0.01 -0.01,-0.01 -0.02,-0.04 -0.01,-0.04 -0.02,-0.06 -0.02,-0.07 -0.01,-0.01 -0.03,-0.02 -0.03,-0.03 0,-0.02 0.02,-0.03 0.02,-0.03 0,-0.02 -0.01,-0.01 -0.02,-0.01 0,-0.01 0.02,-0.04 0.01,-0.04 0,-0.01 -0.02,0.01 -0.02,0.01 -0.01,-0.01 -0.01,-0.06 -0.02,-0.1 -0.01,-0.04 -0.02,-0.06 -0.02,-0.07 0,-0.01 -0.06,-0.19 -0.08,-0.24 -0.01,-0.03 -0.02,-0.07 -0.03,-0.11 0,-0.02 -0.01,-0.07 -0.01,-0.06 0,0 0,0.02 -0.01,0.02 0,0 -0.01,-0.08 -0.01,-0.09 -0.01,-0.01 -0.03,-0.06 -0.03,-0.09 -0.01,-0.03 -0.02,-0.11 -0.02,-0.16 -0.01,-0.06 -0.01,-0.08 -0.01,-0.1 0,0 0,-0.01 0,-0.02 0,-0.02 -0.01,-0.05 -0.01,-0.08 -0.01,-0.06 -0.03,-0.13 -0.04,-0.17 -0.03,-0.08 -0.12,-0.28 -0.13,-0.33 0,-0.01 0.01,-0.01 0.01,-0.01 0,0 0.04,0.11 0.07,0.18 0.03,0.08 0.06,0.15 0.07,0.16 0,0.01 0.05,0.08 0.07,0.21 0.02,0.13 0.02,0.24 0.04,0.32 0,0.04 0.01,0.08 0.02,0.11 0.01,0.05 0.03,0.09 0.06,0.16 0.02,0.05 0.03,0.1 0.04,0.14 0.01,0.05 0.01,0.09 0.02,0.12 0,0.02 0.01,0.07 0.03,0.13 0.02,0.06 0.05,0.14 0.07,0.19 0.04,0.11 0.06,0.19 0.06,0.24 0.01,0.04 0.02,0.21 0.02,0.25l0 0 0 0z"/>
      <path class="fil54" d="M3.93 0.66l-0.01 0.01c0,0 0.01,0 0.01,0.01 0,0 0,0 0,0 0,0.01 0,0.02 0,0.04 -0.01,0.01 -0.01,0.02 -0.01,0.04 0,0.02 0,0.04 -0.03,0.1 -0.01,0.02 -0.01,0.04 -0.02,0.05 -0.01,0.02 -0.01,0.03 -0.02,0.04 0.01,-0.01 0.07,-0.05 0.1,-0.04 -0.02,0.01 -0.05,0.03 -0.07,0.06 0.01,0 0.03,0.01 0.06,0 0.05,-0.01 0.11,-0.02 0.16,-0.02 0.05,0 0.03,-0.07 0.03,-0.07l-0.06 -0.14 -0.12 -0.08 -0.02 0 0 0z"/>
      <path class="fil55" d="M4.24 1.72c0,0 -0.05,-0.06 -0.07,-0.24 -0.03,-0.19 -0.02,-0.47 -0.02,-0.47l-0.04 -0.1c0,0 -0.01,-0.07 -0.04,-0.1 -0.02,-0.03 -0.06,-0.07 -0.09,-0.09 -0.02,-0.03 -0.04,-0.06 -0.05,-0.06 0,-0.01 0.03,-0.08 0.15,-0.08 0.12,0 0.16,0.07 0.17,0.09 0.02,0.03 0.07,0.13 0.09,0.33 0.02,0.2 0.03,0.22 0.02,0.28 0,0.04 -0.01,0.13 -0.04,0.23 -0.02,0.08 -0.04,0.17 -0.08,0.21l0 0z"/>
      <path class="fil52" d="M4.07 1.88c0.01,0 0.01,0 0.01,0 0.02,0 0.03,-0.01 0.04,-0.02 0.02,0 0.08,0.01 0.13,-0.05 0.01,0.01 0.01,0.05 -0.01,0.09 0.01,-0.02 0.03,-0.02 0.03,-0.02 0,0.01 0.02,0.07 -0.05,0.2 0.02,-0.02 0.04,-0.02 0.06,-0.03 0,0.03 0.02,0.11 -0.02,0.15 -0.02,0.03 -0.06,0.02 -0.06,0.02 0,0 0,0 0,-0.01 0,0 0,0 0,-0.01 0,-0.01 0,-0.02 0,-0.03 -0.02,-0.01 -0.04,-0.02 -0.05,-0.03 -0.04,-0.04 -0.09,-0.11 -0.1,-0.15 0,-0.06 0.05,-0.07 0.05,-0.07 -0.01,0 -0.01,-0.01 -0.01,-0.01 -0.01,-0.01 -0.01,-0.02 -0.02,-0.03l0 0z"/>
      <path class="fil56" d="M3.71 1.29c0,0 0,0 -0.01,0.01 0,-0.01 0,-0.03 0,-0.04 0.01,-0.01 0.02,-0.03 0.03,-0.04 -0.01,0.02 -0.02,0.03 -0.02,0.03 0,0 0.02,-0.03 0.05,-0.05 0.01,-0.02 0.04,-0.02 0.05,-0.04 0.01,-0.01 0,-0.01 0.01,-0.01 0,0 0.02,-0.02 0.05,-0.06 0.01,-0.01 0.02,-0.01 0.02,-0.02 0.01,0 0.03,-0.01 0.05,-0.02 0.02,-0.02 0.05,-0.03 0.06,-0.04 0.03,-0.01 0.07,-0.01 0.08,-0.04 0.01,0 0.03,-0.03 0.02,-0.06 0.02,0 0.11,0.06 0.14,0.18 0.02,0.08 -0.02,0.22 -0.03,0.28 -0.02,0.06 -0.02,0.11 -0.04,0.14 -0.03,0.04 -0.13,0.09 -0.15,0.12 -0.02,0.02 -0.08,0.08 -0.08,0.12 0.01,0.03 0.04,0.04 0.05,0.05 0.01,0 0.01,0.01 0.02,0.01 0.02,-0.01 0.03,-0.01 0.03,-0.01 0.01,0 0.01,0 0.01,0 0,0 0.01,0 0.01,0 0,0 0,0.04 -0.1,0.05 -0.01,0.01 -0.02,0.01 -0.03,0.01 0.02,-0.01 0.02,-0.01 0.04,-0.02 -0.02,-0.01 -0.06,-0.01 -0.07,-0.01 0,-0.01 0.01,-0.02 0.02,-0.03 0.01,-0.01 0,-0.01 0,-0.01 -0.02,0.01 -0.03,0.02 -0.04,0.03 -0.01,0.01 -0.02,0.03 -0.04,0.04 0,-0.02 0,-0.06 0.02,-0.08 -0.01,0 -0.02,0.02 -0.03,0.01 0,0 0,-0.01 0,-0.01 0,-0.02 0,-0.03 0,-0.04 0.01,-0.02 0.04,-0.06 0.04,-0.06l0.15 -0.26 0.03 -0.2 -0.34 0.07 0 0 0 0z"/>
      <path class="fil57" d="M3.7 1.3c0,0 0,0.01 0.01,0.02 0,0 -0.01,0.01 -0.01,0.02 -0.01,0.01 -0.02,0.01 -0.02,0.02 -0.01,0.02 -0.01,0.03 -0.01,0.04 0,0 -0.01,0.05 -0.03,0.08 0,0.01 -0.01,0.02 -0.02,0.04 -0.01,0.02 -0.02,0.03 -0.02,0.04 -0.01,0.02 -0.01,0.06 -0.01,0.06 0,0 0.01,-0.01 0.01,-0.01 0,0.01 -0.01,0.02 -0.02,0.03 0.01,0 0.03,-0.02 0.05,-0.04 0.04,-0.03 0.1,-0.09 0.17,-0.13 -0.02,0.01 -0.04,0.01 -0.05,0.01 0.01,-0.01 0.12,-0.13 0.17,-0.15 0,0 0.01,0 0.01,-0.01 0,0 0,0 0,0l-0.05 -0.01 -0.1 0.02 -0.01 -0.07 -0.07 0.04 0 0z"/>
      <path class="fil58" d="M3.86 1.72c0,0 -0.02,0.01 -0.03,0.04 -0.01,-0.01 -0.01,-0.02 -0.02,-0.03 -0.02,-0.03 -0.04,-0.06 -0.11,-0.04 0,-0.02 0,-0.03 0,-0.05 0.01,0 0.05,-0.02 0.08,-0.06 0.02,-0.03 0.04,-0.05 0.05,-0.09 0.01,-0.01 0.03,-0.02 0.05,-0.03 0.03,-0.02 0.07,-0.05 0.07,-0.08 -0.01,0 -0.04,0.02 -0.09,0.01 0.02,0 0.05,-0.01 0.04,-0.05 0.01,0 0.02,-0.01 0.02,-0.01 -0.01,0 -0.01,0 -0.02,0 0,0 0,0 0,0 0,0 0,-0.01 -0.01,0 -0.01,0 -0.01,0 -0.01,0 0,0 -0.02,0 -0.02,0.01 -0.01,0 -0.03,0.02 -0.04,0.03 0,-0.01 0.01,-0.02 0.01,-0.02 0,0 -0.03,0 -0.04,0.01 -0.03,0.01 -0.07,0.03 -0.1,0.05 0,-0.01 0,-0.01 0,-0.01 0.01,0 0.01,0 0.01,-0.01 0,0 0,0 0,-0.01 0.01,-0.02 0.02,-0.04 0.04,-0.06 0.01,-0.02 0.02,-0.05 0.02,-0.05l0.07 -0.04 0.2 -0.05 0.13 0.01 -0.02 0.09 -0.07 0.16 -0.07 0.14 -0.07 0.09 -0.07 0.05 0 0 0 0z"/>
      <path class="fil59" d="M4.18 1.33c0,0 -0.08,0.1 -0.1,0.11 0.02,-0.03 0.1,-0.21 0.13,-0.26 0,0 -0.01,0 0.01,-0.09 -0.02,0.05 -0.03,0.07 -0.04,0.08 -0.02,0.01 -0.02,0.01 -0.03,0.01 0,0 0,-0.01 0,-0.01 0,0 0,0 0,0 0,0 -0.06,-0.01 -0.11,-0.01 -0.04,0 -0.13,0.02 -0.18,0.04 -0.04,0.02 -0.06,0.02 -0.08,0.03 -0.01,0.01 -0.02,0.02 -0.03,0.03 0,0 -0.03,0.01 -0.03,0.02 -0.01,0.01 -0.02,0.02 -0.02,0.02 0,0 0,0.01 0.01,0 0,0 0.02,-0.01 0.04,-0.02 0.02,-0.01 0.05,-0.03 0.08,-0.04 0.06,-0.03 0.09,-0.02 0.12,-0.03 0.03,0 0.07,-0.02 0.1,-0.02 0.03,0 0.09,0 0.1,0 0,0.01 -0.01,0.01 -0.01,0.03 0,0.01 0,0.02 -0.01,0.03 -0.01,0.04 -0.04,0.1 -0.05,0.13 -0.02,0.05 -0.05,0.08 -0.06,0.11 -0.01,0.02 -0.03,0.08 -0.06,0.11 -0.02,0.03 -0.04,0.05 -0.05,0.06 0,0.01 -0.06,0.05 -0.06,0.07 0.01,-0.01 0.08,-0.03 0.13,-0.09 0.04,-0.05 0.05,-0.08 0.09,-0.11 0.04,-0.03 0.07,-0.08 0.08,-0.12 0.02,-0.04 0.01,-0.05 0.03,-0.08l0 0 0 0z"/>
      <path class="fil60" d="M2.49 2.05c0,0 -0.01,0.05 -0.03,0.07 -0.03,0.02 -0.07,0.04 -0.07,0.07 -0.01,0.04 0.04,0.05 0.04,0.05 0,0 -0.02,0.04 -0.02,0.08 0,0.03 -0.01,0.03 0,0.07 -0.01,0 -0.01,0 -0.01,0 0,0.01 0,0.03 0.02,0.05 0.03,0.02 0.05,0.03 0.06,0.03 0,0 0,0.01 0,0.01 0,0 0.02,-0.04 0.03,-0.08 0.01,-0.04 0.02,-0.04 0.03,-0.09 0,-0.05 0.05,-0.14 0.05,-0.14l0.04 -0.08 -0.06 -0.04 -0.08 0 0 0z"/>
      <path class="fil61" d="M2.6 2.13c-0.02,0.01 -0.03,0.03 -0.04,0.04 -0.01,0.02 -0.02,0.04 -0.04,0.05 -0.03,0 -0.04,0 -0.04,0.03 0,0.02 0.02,0.03 0.03,0.04 0.02,0.01 0.03,0.03 0.02,0.05 0.01,0 0.02,0 0.03,-0.03 0.02,-0.03 0.1,-0.18 0.1,-0.18l-0.06 0 0 0z"/>
      <path class="fil62" d="M2.92 1.78c0,0 0.01,-0.02 0,-0.04 -0.01,-0.01 -0.05,-0.01 -0.07,-0.03 -0.02,-0.02 -0.05,-0.03 -0.07,-0.02 0,-0.01 0.01,-0.03 0,-0.03 -0.01,0 -0.05,0.01 -0.06,0.02 -0.01,0.01 -0.03,0.02 -0.03,0.03 -0.01,0 -0.02,0.01 -0.02,0.01 -0.01,-0.01 -0.01,-0.01 -0.02,-0.01 0,0 -0.04,0.04 -0.05,0.05 -0.01,0.02 -0.02,0.06 -0.07,0.11 -0.05,0.05 -0.07,0.08 -0.05,0.09 0.01,0.02 0.02,0.01 0.02,0.02 0,0.01 0,0.01 0,0.02 0,0.01 0,0.02 0,0.03 -0.01,0.02 -0.02,0.04 -0.01,0.05 0.04,0.01 0.07,-0.01 0.07,-0.01 0.02,0.02 0,0.06 0.03,0.07 0.03,0.01 0.07,-0.01 0.07,-0.01l0.12 -0.06 0.12 -0.06 0.06 -0.12 -0.04 -0.1 0 -0.01 0 0z"/>
      <path class="fil63" d="M2.8 2.06c0,0 -0.02,-0.03 0.01,-0.06 0.02,-0.03 0.06,-0.04 0.07,-0.05 0,-0.01 0,-0.01 -0.01,-0.01 0.01,-0.02 0.03,-0.03 0.04,-0.04 0,-0.01 -0.01,-0.01 -0.02,-0.01 -0.03,0 -0.04,0.01 -0.06,0.01 -0.02,0 -0.02,-0.01 -0.02,-0.01 0,0 0.03,0 0.03,-0.02 -0.01,-0.01 -0.01,-0.01 -0.01,-0.01 0,0 0.06,-0.03 0.08,-0.05 0.01,-0.01 0.01,-0.03 0.01,-0.04 0.01,0 0.05,-0.02 0.07,-0.01 0.02,0.01 0.01,0.04 0.01,0.04 0,0 0.05,-0.04 0.08,-0.09 0.03,0.01 0.04,-0.01 0.06,-0.01 0.02,0 0.06,0.03 0.06,0.1 0.01,0.03 0.02,0.06 0.01,0.12 0,0.04 0,0.12 0.01,0.16 0.01,0.04 0.02,0.03 0.02,0.03 0,0.01 0,0.02 -0.01,0.03 -0.01,0.01 -0.02,0.04 -0.01,0.05 0,0.01 0,0.02 0,0.03 0.01,0.01 -0.01,0.01 -0.02,0.03 0,0.01 -0.01,0.02 -0.03,0.02 -0.01,0 0,0 -0.02,0 -0.01,0 -0.02,0 -0.03,0 0,-0.01 -0.01,-0.01 -0.01,-0.04 0.01,-0.03 -0.11,-0.1 -0.11,-0.1l-0.2 -0.07 0 0 0 0z"/>
      <path class="fil64" d="M2.58 2.36c0,0 0.04,0.05 0.22,0.05 0.08,0 0.11,-0.01 0.13,-0.01 0.02,0 0.09,-0.03 0.16,-0.12 0.06,-0.07 0.05,-0.1 0.05,-0.1l-0.04 -0.01 -0.12 0.02 -0.36 0.15 -0.04 0.02 0 0z"/>
      <path class="fil65" d="M2.71 2.37c0,0 -0.15,0.03 -0.15,-0.06 0,-0.1 0.09,-0.19 0.12,-0.21 0.02,-0.02 0.08,-0.04 0.08,-0.04l0.14 0 0.02 0.07 -0.01 0.16 -0.2 0.08 0 0z"/>
      <path class="fil66" d="M2.85 2.09c0,0 -0.03,-0.03 -0.09,0.01 -0.07,0.04 -0.12,0.11 -0.13,0.18 0,0.06 0.05,0.1 0.13,0.11 0.07,0 0.1,-0.01 0.12,-0.01 0,-0.01 -0.03,-0.04 -0.03,-0.04l0 -0.25 0 0 0 0z"/>
      <path class="fil67" d="M2.82 2.11c0,0 -0.01,-0.01 -0.03,0 -0.01,0.01 -0.04,0.03 -0.06,0.05 -0.01,0.01 -0.02,0.02 -0.03,0.03 -0.02,0.03 -0.05,0.09 -0.04,0.11 0.02,0.03 0.07,0.06 0.18,0.04l-0.02 -0.23 0 0 0 0z"/>
      <path class="fil65" d="M2.78 2.16c0,0 -0.02,0.03 -0.02,0.08 0,0.05 0.03,0.12 0.13,0.13 0.07,0 0.12,-0.11 0.18,-0.16 0.04,-0.03 0.07,-0.03 0.07,-0.03 0,0 -0.05,-0.05 -0.16,-0.11 -0.11,-0.06 -0.24,-0.06 -0.31,0.03 0.04,0 0.14,-0.03 0.14,-0.03l0.05 0.02 -0.08 0.07 0 0 0 0z"/>
      <path class="fil68" d="M2.93 2.22c0,0 -0.01,-0.01 0.01,-0.01 0.01,-0.01 0.02,0 0.02,0.01 0.01,0.01 0.01,0.01 0,0.02 0,0 -0.02,0 -0.03,-0.02l0 0zm-0.02 -0.06c0,0 -0.01,0 0,0 0,-0.01 0,-0.03 0.02,-0.02 0.01,0 0.01,0.02 0.01,0.02 -0.01,0.01 -0.02,0.01 -0.03,0.01 0,0 0,0 0,-0.01 0,0 0,0 0,0l0 0z"/>
      <path class="fil69" d="M1.64 2.19c0,0 0.04,0.03 0.08,0.03 0.05,-0.01 0.1,-0.05 0.13,-0.08 0.01,-0.01 0.02,-0.03 0.04,-0.04 0.01,-0.02 0.02,-0.02 0.02,-0.03 0.01,-0.01 0.02,-0.03 0.02,-0.03 -0.01,0.01 -0.02,0.02 -0.04,0.03 -0.01,0.01 -0.04,0.03 -0.06,0.03 -0.01,0.01 -0.14,0.07 -0.14,0.07l-0.05 0.02 0 0z"/>
      <path class="fil70" d="M1.7 1.84c0,0 0.02,-0.01 0.06,-0.02 0.04,-0.01 0.12,-0.02 0.12,-0.02l0.06 0.03 0.02 0.1 -0.04 0.1 -0.06 0.03 -0.07 -0.1 -0.09 -0.12 0 0 0 0z"/>
      <path class="fil71" d="M1.62 1.93l-0.02 0.02c0,0 0,-0.01 0.01,-0.05 0,-0.03 0.02,-0.1 0.06,-0.15 0.04,-0.04 0.03,-0.04 0.03,-0.04 0,0 0,0 0,0 0,0 -0.01,0 -0.01,0.01 0,-0.01 0.03,-0.05 0.06,-0.07 0.03,-0.02 0.04,-0.02 0.07,-0.01 0.03,0.02 0.04,0.02 0.07,0.02 0.02,0 0.04,-0.02 0.04,-0.02 0,0 0,0.01 -0.01,0.05 -0.02,0.03 -0.09,0.1 -0.09,0.1l-0.14 0.1 -0.07 0.04 0 0 0 0z"/>
      <path class="fil72" d="M1.72 1.83c0,0 0.11,0.02 0.14,-0.01 0,0 0,0 0,0 0,0 0,0.01 0,0.01 0,0 0.01,0 0.01,0 0,0 0.01,0 0.01,0 0,0 0.01,0 0.01,0 0,0 0,0.01 -0.01,0.01 0.01,0 0.01,0 0.01,0 0,0.01 0,0.02 0,0.02 0,0 0,0 -0.01,0 0,0 0,0 0,0 0,0.01 0,0.02 0,0.03 0.01,0.01 0.03,0.03 0.06,0.03 0,0 0.01,0.03 -0.05,0.11 0,0.01 -0.01,0.02 -0.02,0.03 -0.01,0.01 -0.01,0.02 -0.01,0.03 0,0.01 0.1,-0.04 0.13,-0.13 0.02,-0.08 0.03,-0.17 0.02,-0.25 0,-0.02 0,-0.04 -0.01,-0.05 -0.01,-0.03 -0.05,-0.03 -0.07,-0.01 -0.02,0.02 -0.06,0.08 -0.11,0.12 -0.05,0.04 -0.06,0.04 -0.1,0.06l0 0 0 0z"/>
      <path class="fil64" d="M1.6 1.96c0,0 -0.02,0.01 -0.03,0.05 -0.01,0.05 0.01,0.1 0.02,0.12 0.01,0.02 0.04,0.06 0.09,0.07 0.01,0 0.03,-0.01 0.04,-0.01 0.02,-0.01 0.03,-0.02 0.05,-0.03 0.02,-0.02 0.04,-0.04 0.04,-0.04 -0.01,0 -0.14,-0.11 -0.14,-0.11l-0.05 -0.06 -0.02 0.01 0 0z"/>
      <path class="fil73" d="M1.73 2.14c0,0 0.02,0 0.04,-0.01 0.02,-0.01 -0.09,-0.12 -0.09,-0.12l0 0.12 0.05 0.01z"/>
      <path class="fil74" d="M1.61 1.95c0,0 -0.02,0.03 -0.02,0.03 0,0.03 0.01,0.1 0.01,0.12 0.01,0.03 0.04,0.06 0.08,0.06 0.02,0 0.06,-0.01 0.06,-0.02 0,0 -0.04,-0.01 -0.05,-0.02 0,-0.01 0,-0.04 -0.01,-0.06 0,-0.01 0,-0.03 0.01,-0.04 0.01,-0.01 0.01,-0.05 0.01,-0.05l0.05 -0.08 -0.06 0 -0.07 0.04 -0.01 0.02z"/>
      <path class="fil65" d="M1.59 1.98c0,0 0.05,-0.07 0.09,-0.08 0.04,-0.01 0.06,-0.01 0.06,-0.01l-0.03 0.07 -0.03 0.04 0 0.01c0,0 0,0.06 0.03,0.09 0.04,0.04 0.06,0.04 0.08,0.04 0.01,0 0.05,-0.02 0.08,-0.07 0.02,-0.05 0.03,-0.11 -0.01,-0.17 -0.04,-0.06 -0.1,-0.07 -0.12,-0.07 -0.01,0 -0.11,0.01 -0.15,0.15l0 0 0 0z"/>
      <path class="fil75" d="M2.78 2.18c-0.02,0 0,-0.05 0.01,-0.07 0.02,-0.01 0.04,-0.03 0.08,-0.03 0.01,0 0.03,0.01 0.03,0.01 -0.01,0.02 -0.03,0.05 -0.05,0.06 -0.03,0.03 -0.05,0.04 -0.07,0.03l0 0z"/>
      <path class="fil76" d="M1.84 1.92c0.01,0 0.03,0.01 0.03,0.02 0.01,0.02 0,0.05 -0.03,0.05 -0.02,0 -0.03,-0.03 -0.03,-0.04 0,0 0,-0.01 0.01,-0.01 0,0 0,-0.02 0.02,-0.02l0 0z"/>
      <path class="fil77" d="M1.66 1.93c0,0 -0.03,0.01 -0.05,0.05 0,0.01 -0.01,0.03 -0.01,0.05 0,0 0,0.01 0,0.02 0.01,0.01 0.02,0.04 0.03,0.05 0,0.01 0.01,0.02 0.02,0.02 0.01,0 0.03,-0.03 0.03,-0.04 0,-0.01 0,-0.06 0.01,-0.09 0.02,-0.03 -0.03,-0.06 -0.03,-0.06l0 0 0 0z"/>
      <path class="fil78" d="M1.66 1.93c0,0 -0.01,0 -0.01,0.01 0,0.01 0.02,0.01 0.03,0.02 0.01,0.02 0.01,0.03 0.01,0.04 0,0 0.01,-0.01 0.01,-0.01 0.01,-0.01 0.03,-0.03 0.04,-0.03 0,0 0.01,0 0.02,0 0.01,0 0.02,0 0.02,-0.01 0,-0.01 -0.02,-0.03 -0.03,-0.02 0,-0.01 0,-0.03 -0.01,-0.04 -0.01,-0.01 -0.04,0.01 -0.05,0.01 0,0.01 -0.03,0.03 -0.03,0.03l0 0 0 0z"/>
      <path class="fil79" d="M2.41 2.91l0.07 -0.02 0.02 0.01c0,0 0.01,0.03 0.03,0.04 -0.01,0.01 -0.02,0.02 -0.02,0.03 0,0.01 0.01,0.02 0.01,0.02 0,0 -0.06,0.1 0.06,0.21 -0.03,0.01 -0.07,0.03 -0.09,0.04 0.02,0 0.05,0 0.06,0.02 0.01,0.01 0.01,0.01 0.02,0.02 0.01,0 0.02,0.01 0.02,0.02 -0.01,-0.01 -0.04,-0.02 -0.04,-0.01 0,0.02 -0.12,0.01 -0.12,0.01l-0.18 0.04c0,0 0.01,-0.02 -0.01,-0.04 -0.03,-0.02 -0.06,0 -0.09,-0.02 -0.03,-0.03 -0.04,-0.07 -0.05,-0.08 0.01,-0.01 0.04,-0.02 0.1,-0.03 0,0 -0.01,-0.02 0,-0.03 0,-0.01 0.02,-0.02 0.02,-0.04 0.01,-0.01 0.01,-0.01 0.04,-0.04 0.02,-0.03 0.04,-0.04 0.06,-0.04 0.01,0 0.03,0 0.06,-0.03 0.02,-0.03 0.02,-0.04 0.02,-0.04 0,0 0.01,-0.01 0.01,-0.04l0 0 0 0z"/>
      <path class="fil80" d="M2.2 2.92c0,-0.01 0.01,-0.01 0.03,-0.01 0.03,0.01 0.19,-0.01 0.23,-0.01 0.05,-0.01 0.2,0 0.27,0.01 0.08,0.02 0.16,0.04 0.19,0.05 0.04,0.01 0.05,0.01 0.05,0.01 0,0.01 -0.01,0.01 -0.01,0.01 -0.01,0 -0.13,-0.04 -0.17,-0.04 -0.04,-0.01 -0.17,-0.03 -0.24,-0.03 -0.07,0 -0.09,0 -0.15,0 -0.06,0.01 -0.15,0.02 -0.18,0.02 -0.02,-0.01 -0.02,-0.01 -0.02,-0.01l0 0 0 0z"/>
      <path class="fil81" d="M2.58 3.28c0,0 0.09,0.06 0.13,0.12 0.02,0.05 -0.02,0.07 -0.02,0.07 0,0 0.06,0 0.05,0.03 0,0.02 -0.09,0.07 -0.15,0.1 -0.06,0.02 -0.06,0.02 -0.09,0.03 -0.03,0 -0.11,-0.01 -0.13,0.01 -0.01,0.02 -0.01,0.05 0,0.05 0,0 0.04,0.01 0.04,0.01 0,0 -0.01,0.02 -0.08,0.02 -0.08,0.01 -0.1,0.01 -0.11,0.02 0,0.01 0.02,0 0.05,0.01 0.04,0 0.09,0.01 0.09,0.01 0,0 -0.02,0.01 -0.06,0.02 -0.05,0.02 -0.12,0.03 -0.15,0.04 0.02,0.01 0.03,0.02 0.04,0.02 -0.02,0.01 -0.05,0.02 -0.05,0.02 0.01,0.01 0.02,0.01 0.02,0.01 0,0 -0.04,0.05 -0.07,0.06 -0.02,0.01 -0.15,0.07 -0.2,0.06 -0.11,-0.03 -0.12,-0.15 -0.15,-0.16 -0.04,-0.02 -0.06,0.01 -0.1,-0.01 0.02,-0.01 0.03,-0.02 0.04,-0.02 -0.02,-0.01 -0.11,-0.07 -0.11,-0.07 -0.01,-0.03 -0.02,-0.05 -0.04,-0.07 -0.01,-0.03 -0.04,-0.07 -0.06,-0.11 -0.05,-0.09 -0.05,-0.12 -0.09,-0.17 0.01,-0.01 0.03,-0.01 0.03,-0.01l0.34 0.11 0.61 0.02 0.15 -0.22 0.07 0 0 0z"/>
      <path class="fil82" d="M1.68 3.63c0.01,0 0.01,0 0.02,0.01 0.01,0 0.03,0.01 0.04,0.03 0,-0.01 0.01,-0.02 0.03,0 0.03,0.02 0.05,0 0.07,0.01 0.01,0 0.01,0.01 0.01,0.01 0,0 0.01,-0.01 0.03,-0.02 0.02,0 0.03,-0.01 0.05,-0.01 0.01,-0.01 0.03,-0.01 0.04,-0.01 0.01,0.01 0.05,0.05 0.2,-0.01 0.14,-0.06 0.17,-0.06 0.19,-0.05 0,-0.01 0.01,-0.02 0.04,-0.02 0,-0.01 -0.03,-0.07 -0.03,-0.07l-0.16 -0.05 -0.09 0 -0.27 0.05 -0.15 0.08 -0.02 0.05 0 0z"/>
      <path class="fil83" d="M1.59 3.53c0,0 0.01,0.03 0.04,0.05 0.04,0.03 0.05,0.05 0.05,0.05 0,0 0.01,-0.01 0.02,-0.02 0,-0.01 0.01,-0.02 0.02,-0.03 0.01,-0.01 0.06,0.01 0.07,0.01 0,-0.01 0,-0.02 0.01,-0.02 0.02,0 0.03,0.01 0.04,0.01 0.01,0 0.02,0 0.03,0 0,-0.01 0,-0.05 0.03,-0.07 0.02,-0.02 0.06,-0.01 0.07,0 0,0 0,0.02 0.02,0.02 0.02,0 0.02,0 0.04,0.01 0.01,0 0.03,0 0.04,0.02 0.01,0 0.03,0 0.02,-0.03 0.01,-0.01 0.02,-0.01 0.04,-0.04 0,0 0.01,-0.01 0.02,-0.02 0.02,0 0.03,-0.01 0.06,0.02 -0.01,0 -0.01,0.01 -0.01,0.01 0,0.01 0.01,0.02 0.01,0.02 0.01,0.01 0.02,0.02 0.03,0.03 0.01,0 0.05,-0.01 0.08,0 0.04,0 0.07,0.01 0.08,0.02 0,0 0,0 0.02,0 0.01,0 0.02,0 0,-0.01 0.01,0 0.02,0.01 0.03,0 0,-0.01 0.01,-0.02 0.03,-0.02 0.02,0 0.02,0 0.03,-0.02 0.01,-0.02 -0.02,-0.02 -0.02,-0.02 0,0 0.01,-0.02 0.03,-0.04 0.02,-0.02 0.05,-0.05 0.05,-0.08 0.02,-0.06 -0.04,-0.07 -0.04,-0.07l-0.29 0.09 -0.35 -0.02 -0.3 0.15 0 0 0 0z"/>
      <path class="fil84" d="M1.34 2.71c0,0 -0.01,0.01 -0.02,0.04 0,0.02 0,0.02 0,0.04 -0.01,0.02 -0.07,0.22 -0.05,0.28 0.03,0.07 0.06,0.09 0.09,0.14 0,0.02 0.01,0.02 0.01,0.03 0.01,0.04 0,0.06 0.01,0.1 0,0.01 0.01,0.02 0.02,0.04 0.03,0.03 0.08,0.05 0.1,0.07 0.02,0.03 0.06,0.09 0.11,0.1 0.03,0 0.07,-0.01 0.1,-0.03 0.03,-0.02 0.04,-0.04 0.07,-0.05 0.02,-0.01 0.04,-0.02 0.06,-0.02 0.04,-0.01 0.08,-0.01 0.1,-0.01 0.04,0.01 0.12,0.03 0.16,0.03 0.03,0 0.07,0 0.1,-0.01 0.07,-0.02 0.15,-0.05 0.2,-0.07 0.03,-0.01 0.06,-0.01 0.09,-0.02 0.04,-0.01 0.08,-0.02 0.1,-0.05 -0.02,-0.01 -0.03,-0.04 -0.13,-0.04 -0.1,0.01 -0.23,0.06 -0.29,0.07 -0.06,0.01 -0.08,0.02 -0.15,0 -0.07,-0.03 -0.07,-0.04 -0.07,-0.04 0,0 -0.07,-0.05 -0.1,-0.18 -0.03,-0.12 0,-0.21 0.08,-0.3 0.02,-0.02 0.01,-0.04 0.01,-0.04 0,0 0.05,-0.06 0.04,-0.13 -0.02,-0.06 -0.11,-0.05 -0.11,-0.05l-0.53 0.1 0 0 0 0z"/>
      <path class="fil85" d="M1.42 2.92c-0.01,0 -0.01,0.01 -0.01,0.02 0,0 0,0 0,0 0,0.01 0.01,0.03 0.04,0.07 0.04,0.03 0.03,0.06 0.03,0.06 0,0 0.02,0.01 0.06,-0.01 0.03,-0.02 0.05,0.01 0.05,0.01 0.01,-0.01 0.02,-0.01 0.03,-0.01 0.01,0 0.02,0 0.03,-0.01 0.01,-0.01 0.04,0.04 0.07,0.06 0.04,0.02 0.05,0.03 0.07,0.02 0.02,-0.01 0.02,-0.03 0.01,-0.04 0,-0.01 0,-0.02 -0.01,-0.03 -0.01,-0.01 -0.03,-0.03 -0.03,-0.04 0,-0.03 0.03,-0.07 0.02,-0.08 0,-0.01 -0.03,-0.01 -0.08,0 -0.05,0.02 -0.28,-0.02 -0.28,-0.02l0 0 0 0z"/>
      <path class="fil86" d="M1.54 3.12c0,0 -0.03,-0.02 -0.02,-0.14 0,0 0,0 0.01,0 0.01,0 0.02,0 0.03,0 0.01,0 0.01,0.09 -0.02,0.14z"/>
      <path class="fil65" d="M1.35 2.61c0,0 0.01,0 0.01,-0.01 -0.01,0.02 -0.05,0.09 -0.02,0.2 0.04,0.11 0.12,0.19 0.23,0.19 0.11,0.01 0.17,-0.05 0.23,-0.12 0.02,-0.04 0.05,-0.07 0.08,-0.1 0.04,-0.04 0.07,-0.05 0.07,-0.09 0,-0.09 -0.09,-0.12 -0.21,-0.16 -0.12,-0.04 -0.24,-0.03 -0.29,-0.01 -0.06,0.03 -0.08,0.06 -0.1,0.1l0 0 0 0z"/>
      <path class="fil87" d="M1.75 3.16l0.01 0c0,0 0,-0.04 0.01,-0.04 0.02,0 0.03,0.02 0.03,0.03 -0.01,0.01 -0.01,0.02 -0.02,0.02 -0.02,0 -0.03,-0.01 -0.03,-0.01l0 0z"/>
      <path class="fil88" d="M1.71 3c0,0 0.01,0 0.02,0.01 0.01,0 0.05,0 0.06,0 0.01,0.01 0.02,0.02 0.02,0.02 0,0 -0.05,0.01 -0.08,0 -0.02,-0.01 -0.02,-0.03 -0.02,-0.03l0 0z"/>
      <path class="fil89" d="M1.91 3.01c0,0 -0.02,-0.02 -0.05,-0.02 0,-0.01 0,0 -0.01,0 0,0 0,-0.01 0,-0.01l-0.02 0.01c0,0 0,0 0.01,0.01 0.01,0 0.02,0.01 0.02,0.02 0.01,0.01 0.01,0.01 0.01,0.01 0,0 0.01,0 0.02,0 0.01,-0.01 0.03,-0.02 0.02,-0.02l0 0 0 0z"/>
      <path class="fil90" d="M1.68 3.11c0,0 0,-0.04 0.03,-0.04 0.04,0 0.04,0.03 0.04,0.03l-0.02 0.02c0,0 -0.01,-0.02 -0.05,-0.01l0 0z"/>
      <path class="fil91" d="M1.88 2.97c0,0 -0.02,0.02 -0.05,0.02 -0.01,0 -0.01,-0.01 0,-0.03 0.01,-0.01 0.02,-0.02 0.03,-0.01 0.01,0 0.02,0.01 0.02,0.02l0 0z"/>
      <path class="fil89" d="M1.95 2.99c0,0 0,-0.01 0,-0.01 0,0 0.02,-0.01 0.02,0 0,0 0,0 0,0.01 0,0 0,0.01 0,0.01 -0.01,0 -0.02,0.01 -0.02,0 0,0 -0.01,0 -0.01,0 0.01,-0.01 0.01,-0.01 0.01,-0.01l0 0zm0.08 -0.05c0,0 0.01,-0.01 0.01,-0.01 0.01,0 0.01,0.01 0.01,0.01 0,0 0,0 0.01,0 0,0.01 0,0.01 0,0.02 0,0 -0.01,0.01 -0.01,0.01 -0.01,-0.01 -0.02,-0.03 -0.02,-0.03l0 0z"/>
      <path class="fil84" d="M1.87 3c0,0 0.01,0 0.03,0.01 -0.01,0.01 -0.02,0.01 -0.02,0.01 0,0 0,-0.01 -0.01,-0.02l0 0z"/>
      <path class="fil64" d="M1.85 2.9c0,0 0.01,-0.01 0.01,-0.01 0.01,0 0.01,0.01 0.02,0.01 0,0 0,-0.01 0,-0.01 0.01,0 0.01,0 0.02,0 0,0 0,0 0,0 0,0 0,0 0,0 0.01,-0.01 0.01,-0.01 0.01,-0.01 0,0 0,0 0.01,0 0,0.01 0,0.02 0,0.02 0,0 -0.01,0.01 -0.02,0 0.01,0.01 0.02,0.02 0.02,0.02 0,0.01 -0.01,0.01 -0.02,0.01 0,0 -0.04,-0.02 -0.05,-0.03l0 0zm0.11 -0.09c0,0 0,-0.01 0,-0.01 0,0 -0.01,0 -0.01,0.01 0,0 0,0.04 0.02,0.05 0.01,0.02 0.01,0.03 0.02,0.04 0,0 0.01,0 0.01,0 0,0 0,-0.01 0.01,-0.01 0,0 0,-0.02 0,-0.06 0,-0.04 0,-0.08 -0.01,-0.08 0,0 -0.01,0 -0.01,0 0,0 -0.02,0.05 -0.03,0.06l0 0 0 0z"/>
      <path class="fil91" d="M1.87 3.06c0,0 -0.02,-0.01 -0.03,0 -0.02,0 -0.02,0.03 -0.02,0.03 0,0 0.01,0 0.01,0 0,0 0.01,0 0.01,0 0.01,-0.01 0.03,-0.02 0.03,-0.03l0 0z"/>
      <path class="fil89" d="M1.9 3.1c0,-0.01 -0.01,-0.01 -0.01,-0.02 0,0 0,-0.01 0.01,-0.01 0,0 0,0 0,0 0,0 0.01,0.01 0.01,0.01 0.01,0.01 0.02,0.01 0.02,0.02 0,0.01 -0.01,0.03 -0.02,0.03 -0.01,0 -0.01,-0.02 -0.01,-0.03l0 0zm0.08 -0.03c0,0 -0.02,0.01 -0.02,0 0,-0.01 0.01,-0.01 0.01,-0.01 0.01,0 0.01,0 0.02,0 0,0 0,0 0,0 0,0 0,0 0,0 0,0 0.02,-0.01 0.02,0 0,0 0,0 0,0 0.01,0.01 0.01,0.01 0.01,0.02 0,0 -0.02,0.01 -0.03,0.01 -0.01,0 -0.01,-0.02 -0.01,-0.02l0 0zm0.14 -0.03c0,0 0.01,0.01 0,0.01 0,0 -0.02,0.01 -0.03,0.01 -0.02,0 -0.03,0 -0.03,0 0,-0.01 0.01,-0.02 0.02,-0.02 0,0 0.01,0 0.01,0 0,0 0,0 0,0 0.01,0 0.03,-0.01 0.04,-0.01 0,0 0.01,0.01 0,0.01 0,0 -0.01,0 -0.01,0l0 0zm0.01 -0.12c0,0 -0.01,0.01 -0.01,0.01 -0.01,0 -0.01,0 -0.01,0 0,-0.01 0.01,-0.01 0,-0.02 0,0 0,0 0,0 0,-0.01 0.01,-0.01 0.01,-0.01 0.01,-0.01 0.01,-0.01 0.02,-0.01 0.01,0 0.02,0 0.02,0.01 0,0 -0.01,0.01 -0.02,0.02 0,0 -0.01,0 -0.01,0l0 0zm-0.11 0.25c0,0 -0.01,0.01 -0.01,0.01 0,0 0,0 0,0 0,0 0.01,0 0.01,0 0,0 0,0.01 0.01,0.01 0,0 0.01,-0.01 0.01,-0.01 0.01,0 0.01,0 0.01,-0.01 0,-0.01 0,-0.01 -0.01,-0.01 0,0 0,0 0,0 -0.01,0 -0.01,0 -0.01,0 0,0 0,0 -0.01,0 -0.01,0.01 -0.01,0.01 -0.01,0.01 0.01,0 0.01,0.01 0.01,0.01l0 -0.01zm-0.03 0.04c0,0 0.01,-0.01 0.01,-0.01 0,0 0.01,0.02 0.01,0.02 0,0.01 -0.01,0.01 -0.01,0.01 -0.01,0 -0.02,-0.01 -0.02,-0.01 0,0 0.01,0 0.01,0 0,0 0,-0.01 0,-0.01l0 0zm-0.04 -0.07c0,0 0,0 0,-0.01 0.01,0 0.01,0 0.01,0 0,0 0,0 0,0 0,0 0.01,0 0.01,0 0,0 0.01,0 0.01,0 0,0.01 0,0.01 0,0.02 0,0 0,0.01 -0.01,0.01 -0.01,0.01 -0.03,0.01 -0.03,0.01 0,0 -0.01,-0.01 0,-0.02 0,0 0,-0.01 0.01,-0.01l0 0 0 0z"/>
      <path class="fil84" d="M1.95 3.18c0,0 -0.01,0 -0.01,0 0,0.01 0,0.01 0,0.01 0,0 0,0 0,0 0,0 0.01,0 0.01,0 0,0 0,-0.01 0,-0.01l0 0z"/>
      <path class="fil64" d="M1.88 3.16c0,0 0.01,0 0.02,0 0,0 0.01,0.01 0,0.01 0,0.01 -0.01,0.01 -0.02,0.01 -0.01,0 -0.02,0 -0.02,-0.01 0,0 0,0 0,0 0,-0.01 0,-0.01 0,-0.01 0.01,-0.01 0.01,-0.01 0.02,0l0 0 0 0z"/>
      <path class="fil91" d="M1.87 3.16c0,0 -0.01,0.01 -0.02,0.02 0,0 -0.02,0.03 -0.03,0.04 0,-0.01 0.01,-0.01 0.01,-0.01 -0.01,0 -0.02,0.01 -0.02,0.02 -0.01,0.02 0.03,0.03 0.05,0.04 0.03,0 0.04,0.01 0.04,0.01 -0.01,-0.02 -0.02,-0.03 -0.02,-0.05 -0.01,-0.02 -0.02,-0.02 -0.01,-0.03 0,-0.01 0.01,-0.02 0.01,-0.03 0,0 -0.01,-0.01 -0.01,-0.01z"/>
      <path class="fil65" d="M1.34 3.2c0,0 0,0 0.01,0 0,0 0,0 0,0 0.01,0 0.08,-0.03 0.16,-0.03 0.05,0.01 0.11,0.02 0.17,0.03 0.09,0.03 0.21,0.08 0.29,0.11 0.02,0 0.04,0.02 0.05,0.02 0.06,0.03 0.06,0.03 0.1,0.03 0.04,0.01 0.08,-0.01 0.12,-0.01 0.06,-0.02 0.15,-0.02 0.23,-0.03 0.02,-0.01 0.05,-0.01 0.08,-0.02 0.02,-0.01 -0.07,0.06 -0.22,0.09 -0.03,0 -0.07,0 -0.1,0 -0.03,0 -0.06,0 -0.09,0 -0.05,-0.01 -0.08,-0.01 -0.1,-0.02 -0.03,-0.01 -0.09,-0.03 -0.16,-0.05 -0.04,-0.01 -0.1,-0.02 -0.16,-0.03 -0.15,-0.03 -0.32,-0.06 -0.38,-0.09l0 0z"/>
      <line class="fil92" x1="1.26" y1="2.61" x2="0.87" y2= "2.24" />
      <path class="fil3" d="M1.17 2.91c-0.04,0.03 -0.08,0.06 -0.12,0.09l-0.11 0.09c-0.04,0.03 -0.08,0.06 -0.12,0.09 -0.04,0.02 -0.08,0.05 -0.12,0.08 0.04,-0.03 0.08,-0.06 0.12,-0.09 0.04,-0.03 0.08,-0.06 0.12,-0.09l0.11 -0.08c0.04,-0.03 0.08,-0.06 0.12,-0.09l0 0zm-0.2 0.33c0,0 0.04,-0.04 0.09,-0.09 0.06,-0.06 0.14,-0.13 0.17,-0.15l-0.26 0.24 0 0z"/>
      <path class="fil3" d="M0.97 3.24c0.02,-0.02 0.04,-0.04 0.06,-0.06l0.03 -0.03c0.01,-0.01 0.03,-0.02 0.04,-0.03 0.02,-0.02 0.04,-0.05 0.06,-0.07 0.01,-0.01 0.02,-0.02 0.03,-0.03 0,0 0.01,-0.01 0.02,-0.01 0,0 0.01,-0.01 0.02,-0.01 -0.01,0.01 -0.01,0.01 -0.02,0.02 0,0 -0.01,0.01 -0.01,0.01 -0.01,0.01 -0.02,0.02 -0.03,0.03 -0.03,0.02 -0.05,0.04 -0.07,0.06 -0.02,0.02 -0.04,0.04 -0.07,0.06 -0.02,0.02 -0.04,0.04 -0.06,0.06l0 0zm0.5 -0.4c0,0 -0.15,0.15 -0.19,0.17l0.19 -0.17z"/>
      <path class="fil3" d="M1.24 3.05c-0.01,0.01 -0.02,0.03 -0.04,0.04l-0.05 0.05c-0.01,0.01 -0.02,0.03 -0.04,0.04 -0.02,0.02 -0.03,0.03 -0.05,0.04l0.05 -0.04c0.01,-0.02 0.03,-0.03 0.04,-0.04l0.05 -0.05c0.01,-0.01 0.03,-0.03 0.04,-0.04l0 0zm0.01 0.08c-0.01,0.04 -0.03,0.08 -0.05,0.11 -0.04,0.08 -0.1,0.18 -0.12,0.23l0.17 -0.34 0 0z"/>
      <path class="fil3" d="M1.25 3.13c0,0.02 0,0.03 -0.01,0.05 0,0.01 -0.01,0.03 -0.02,0.04 0,0.01 -0.01,0.03 -0.02,0.04 -0.01,0.02 -0.02,0.03 -0.02,0.05l-0.05 0.08c-0.02,0.03 -0.03,0.05 -0.05,0.08 0.01,-0.03 0.03,-0.06 0.04,-0.09 0.02,-0.02 0.03,-0.05 0.05,-0.08 0,-0.01 0.01,-0.03 0.02,-0.04 0,-0.02 0.01,-0.03 0.02,-0.05 0,-0.01 0.01,-0.02 0.02,-0.04 0,-0.01 0.01,-0.03 0.02,-0.04l0 0z"/>
      <path class="fil93" d="M1.42 3.51c0,0 -0.05,0.06 -0.04,0.14 0.01,-0.04 0.02,-0.1 0.04,-0.14zm0.04 0.06c0,0 -0.01,0.17 -0.03,0.25 0.02,-0.09 0.02,-0.08 0.03,-0.25zm0.31 0.26c0,0 -0.07,0.21 -0.07,0.26 0.01,-0.06 0.04,-0.18 0.07,-0.26l0 0z"/>
      <path class="fil94" d="M1.93 3.5c0,0 0.11,0.19 0.2,0.34 -0.03,-0.08 -0.08,-0.22 -0.2,-0.34z"/>
      <path class="fil95" d="M2.23 3.77c0.06,0.11 0.12,0.22 0.17,0.34 -0.01,-0.08 -0.04,-0.22 -0.17,-0.34z"/>
      <path class="fil96" d="M3.12 4.05c0.01,-0.02 0.05,-0.08 0.08,-0.1 0.04,-0.01 0.06,-0.02 0.09,-0.05 0.03,-0.03 0.04,-0.05 0.1,-0.08 0.09,-0.04 0.03,-0.09 0.03,-0.09 0.01,-0.01 0.02,-0.01 0.03,-0.02 0.02,-0.02 0.05,-0.04 0.05,-0.08 -0.01,-0.06 -0.02,-0.15 -0.07,-0.2 0.05,-0.01 0.14,-0.02 0.2,-0.03 0.07,-0.02 0.1,-0.05 0.1,-0.05 0,0 -0.04,-0.06 0.03,-0.13 0.06,-0.07 0.11,-0.11 0.15,-0.18 -0.04,-0.01 -0.11,-0.03 -0.28,0.03 0.01,0.01 0.02,0.01 0.03,0.02 0,0 -0.11,0.03 -0.15,0.06 -0.06,0.06 -0.07,0.1 -0.15,0.14 -0.07,0.03 -0.14,0.02 -0.2,0.05 -0.06,0.03 -0.07,0.05 -0.09,0.06 0,0.01 0,0.02 0.01,0.02 -0.01,0.01 -0.04,0.07 -0.08,0.07 0.01,0.01 0.04,0.02 0.04,0.02 0,0 -0.02,0.01 -0.08,0.02 0.03,0.02 0.05,0.05 0.12,0.1 0,0.01 -0.02,0.03 -0.02,0.05 0.01,0.02 0.04,0.05 0.15,0.08 -0.06,0 -0.12,0.01 -0.21,0 -0.08,-0.01 -0.09,-0.02 -0.15,0 0.01,0 0.02,0 0.04,0.02 -0.02,0 -0.11,-0.01 -0.14,0.02 -0.03,0.05 -0.04,0.11 -0.04,0.16 -0.01,0 -0.03,0.02 -0.02,0.05 0.01,0.03 0.05,0.04 0.07,0.05 0.03,0.02 0.03,0.03 0.06,0.03 0.02,-0.01 0.06,-0.04 0.09,-0.04 0.02,0 0.04,0.02 0.04,0.02 0,0 0.06,-0.03 0.06,-0.02 0.01,0 0.01,0.04 0.01,0.04 0.01,0.01 0.08,-0.03 0.1,-0.04l0 0z"/>
      <path class="fil97" d="M4.47 2.18c-0.29,-0.76 -1.01,-0.9 -1.01,-0.9l-2.06 0 0.01 0.77 0.41 0 0 1.71 -0.42 0 0 0.77 2 0c0.49,0 0.87,-0.48 0.87,-0.48 0.62,-0.88 0.2,-1.87 0.2,-1.87l0 0zm-1.06 1.35c0,0 -0.15,0.23 -0.32,0.23l-0.35 0 0 -1.71 0.43 0c0,0 0.21,0.04 0.35,0.45 0,0 0.19,0.57 -0.11,1.03z"/>
     </g>
    </g>
   </g>
  </g>
 </g>
</svg>
