<?xml version="1.0" encoding="UTF-8"?>
<!DOCTYPE svg PUBLIC "-//W3C//DTD SVG 1.1//EN" "http://www.w3.org/Graphics/SVG/1.1/DTD/svg11.dtd">
<!-- Creator: CorelDRAW 2020 (64-Bit Evaluation Version) -->
<svg xmlns="http://www.w3.org/2000/svg" xml:space="preserve" width="24px" height="24px" version="1.1" style="shape-rendering:geometricPrecision; text-rendering:geometricPrecision; image-rendering:optimizeQuality; fill-rule:evenodd; clip-rule:evenodd"
viewBox="0 0 13.09 13.09"
 xmlns:xlink="http://www.w3.org/1999/xlink"
 xmlns:xodm="http://www.corel.com/coreldraw/odm/2003">
 <defs>
  <style type="text/css">
   <![CDATA[
    .fil1 {fill:#345D9D;fill-rule:nonzero}
    .fil0 {fill:white;fill-rule:nonzero}
   ]]>
  </style>
 </defs>
 <g id="Layer_x0020_1">
  <metadata id="CorelCorpID_0Corel-Layer"/>
  <g id="_2478916033568">
   <circle class="fil0" cx="6.55" cy="6.55" r="5.84"/>
   <path class="fil1" d="M6.55 0c-3.62,0 -6.55,2.93 -6.55,6.55 0,3.61 2.93,6.54 6.55,6.54 3.61,0 6.54,-2.93 6.54,-6.54l0 0c0,-0.01 0,-0.02 0,-0.02 0,-3.6 -2.91,-6.52 -6.51,-6.53l-0.03 0zm0.11 6.77l-0.68 2.3 3.64 0c0,0 0.01,0 0.01,0 0.1,0 0.18,0.07 0.18,0.17l0 0.06 -0.32 1.1c-0.02,0.1 -0.12,0.17 -0.22,0.17 -0.01,0 -0.01,0 -0.01,0l-5.58 0 0.93 -3.18 -1.04 0.31 0.23 -0.73 1.05 -0.31 1.32 -4.47c0.02,-0.11 0.12,-0.18 0.23,-0.18 0,0 0,0 0,0l1.41 0c0.01,0 0.01,0 0.01,0 0.1,0 0.18,0.08 0.18,0.18l0 0.06 -1.11 3.77 1.05 -0.31 -0.22 0.76 -1.06 0.3z"/>
  </g>
 </g>
</svg>
