<?xml version="1.0" encoding="UTF-8"?>
<!DOCTYPE svg PUBLIC "-//W3C//DTD SVG 1.1//EN" "http://www.w3.org/Graphics/SVG/1.1/DTD/svg11.dtd">
<!-- Creator: CorelDRAW 2020 (64-Bit Evaluation Version) -->
<svg xmlns="http://www.w3.org/2000/svg" xml:space="preserve" width="24px" height="24px" version="1.1" style="shape-rendering:geometricPrecision; text-rendering:geometricPrecision; image-rendering:optimizeQuality; fill-rule:evenodd; clip-rule:evenodd"
viewBox="0 0 6.58 6.58"
 xmlns:xlink="http://www.w3.org/1999/xlink"
 xmlns:xodm="http://www.corel.com/coreldraw/odm/2003">
 <defs>
  <style type="text/css">
   <![CDATA[
    .fil0 {fill:#2775CA;fill-rule:nonzero}
    .fil1 {fill:white;fill-rule:nonzero}
   ]]>
  </style>
 </defs>
 <g id="Layer_x0020_1">
  <metadata id="CorelCorpID_0Corel-Layer"/>
  <g id="_2517775861376">
   <path class="fil0" d="M3.29 6.58c1.82,0 3.29,-1.47 3.29,-3.29 0,-1.82 -1.47,-3.29 -3.29,-3.29 -1.82,0 -3.29,1.47 -3.29,3.29 0,1.82 1.47,3.29 3.29,3.29z"/>
   <path class="fil1" d="M4.2 3.81c0,-0.48 -0.29,-0.64 -0.87,-0.71 -0.41,-0.06 -0.49,-0.17 -0.49,-0.36 0,-0.19 0.13,-0.31 0.41,-0.31 0.25,0 0.38,0.08 0.45,0.28 0.02,0.05 0.06,0.07 0.1,0.07l0.22 0c0.05,0 0.09,-0.04 0.09,-0.09l0 -0.02c-0.05,-0.3 -0.3,-0.53 -0.61,-0.56l0 -0.33c0,-0.05 -0.05,-0.09 -0.11,-0.11l-0.21 0c-0.05,0 -0.1,0.04 -0.11,0.11l0 0.32c-0.41,0.05 -0.67,0.33 -0.67,0.67 0,0.45 0.27,0.63 0.85,0.7 0.38,0.07 0.51,0.15 0.51,0.37 0,0.22 -0.2,0.37 -0.46,0.37 -0.35,0 -0.48,-0.15 -0.52,-0.36 -0.01,-0.05 -0.05,-0.08 -0.09,-0.08l-0.24 0c-0.05,0 -0.09,0.04 -0.09,0.1l0 0.01c0.05,0.34 0.27,0.59 0.72,0.66l0 0.33c0,0.05 0.05,0.09 0.11,0.11l0.21 0c0.05,0 0.1,-0.04 0.11,-0.11l0 -0.33c0.41,-0.07 0.69,-0.36 0.69,-0.73l0 0z"/>
   <path class="fil1" d="M2.59 5.25c-1.07,-0.38 -1.62,-1.58 -1.22,-2.63 0.21,-0.58 0.66,-1.02 1.22,-1.22 0.06,-0.03 0.08,-0.07 0.08,-0.14l0 -0.19c0,-0.06 -0.02,-0.1 -0.08,-0.11 -0.01,0 -0.04,0 -0.05,0.01 -1.31,0.41 -2.02,1.8 -1.61,3.1 0.25,0.77 0.84,1.36 1.61,1.61 0.05,0.02 0.11,0 0.12,-0.06 0.01,-0.01 0.01,-0.03 0.01,-0.05l0 -0.2c0,-0.04 -0.04,-0.09 -0.08,-0.12l0 0zm1.45 -4.28c-0.05,-0.02 -0.11,0 -0.12,0.06 -0.01,0.01 -0.01,0.03 -0.01,0.05l0 0.19c0,0.06 0.04,0.11 0.08,0.14 1.07,0.39 1.62,1.58 1.22,2.63 -0.21,0.58 -0.66,1.02 -1.22,1.22 -0.06,0.03 -0.08,0.07 -0.08,0.14l0 0.19c0,0.06 0.02,0.1 0.08,0.11 0.01,0 0.04,0 0.05,-0.01 1.31,-0.41 2.02,-1.8 1.61,-3.1 -0.25,-0.78 -0.85,-1.37 -1.61,-1.62l0 0z"/>
  </g>
 </g>
</svg>
