<svg xmlns="http://www.w3.org/2000/svg" xmlns:xlink="http://www.w3.org/1999/xlink" viewBox="0 0 2877.5 1949.75"><defs><style>.cls-1{fill:none;}.cls-2{isolation:isolate;}.cls-3{fill:url(#linear-gradient);}.cls-4{clip-path:url(#clip-path);}.cls-19,.cls-20,.cls-21,.cls-22,.cls-5{opacity:0.6;}.cls-19,.cls-20,.cls-21,.cls-22,.cls-5,.cls-6{mix-blend-mode:overlay;}.cls-5{fill:url(#Degradado_sin_nombre_2996);}.cls-7{fill:url(#Degradado_sin_nombre_3012);}.cls-8{fill:url(#Degradado_sin_nombre_3012-2);}.cls-9{fill:url(#Degradado_sin_nombre_3012-3);}.cls-10{fill:url(#Degradado_sin_nombre_3012-4);}.cls-11{fill:url(#Degradado_sin_nombre_3012-5);}.cls-12{fill:url(#Degradado_sin_nombre_3012-6);}.cls-13{fill:url(#Degradado_sin_nombre_3012-7);}.cls-14{fill:url(#Degradado_sin_nombre_3012-8);}.cls-15{fill:url(#Degradado_sin_nombre_3012-9);}.cls-16{fill:url(#Degradado_sin_nombre_3012-10);}.cls-17{fill:url(#Degradado_sin_nombre_3012-11);}.cls-18{fill:url(#Degradado_sin_nombre_3012-12);}.cls-19{fill:url(#Degradado_sin_nombre_2996-2);}.cls-20{fill:url(#Degradado_sin_nombre_2996-3);}.cls-21{fill:url(#Degradado_sin_nombre_2996-4);}.cls-22{fill:url(#Degradado_sin_nombre_2996-5);}</style><linearGradient id="linear-gradient" x1="1309.63" y1="946.48" x2="1311.71" y2="596.82" gradientUnits="userSpaceOnUse"><stop offset="0" stop-color="#dadada"/><stop offset="1" stop-color="#f6f6f6"/></linearGradient><clipPath id="clip-path" transform="translate(350.63 412.72)"><rect class="cls-1" width="1920" height="730.54"/></clipPath><linearGradient id="Degradado_sin_nombre_2996" x1="3830.45" y1="1725.73" x2="3291.11" y2="1725.73" gradientTransform="matrix(-0.9, 0.43, -0.43, -0.9, 4086.31, 163.4)" gradientUnits="userSpaceOnUse"><stop offset="0" stop-color="#fff" stop-opacity="0.4"/><stop offset="0.26" stop-color="#fff" stop-opacity="0.19"/><stop offset="0.45" stop-color="#fff" stop-opacity="0.05"/><stop offset="0.56" stop-color="#fff" stop-opacity="0"/></linearGradient><linearGradient id="Degradado_sin_nombre_3012" x1="1661.34" y1="256.95" x2="1661.34" y2="-567.07" gradientTransform="matrix(1.46, 0, 0, 1.52, -471.72, 595.01)" gradientUnits="userSpaceOnUse"><stop offset="0.45" stop-color="#fff" stop-opacity="0"/><stop offset="0.55" stop-color="#fff" stop-opacity="0.05"/><stop offset="0.74" stop-color="#fff" stop-opacity="0.19"/><stop offset="1" stop-color="#fff" stop-opacity="0.4"/></linearGradient><linearGradient id="Degradado_sin_nombre_3012-2" x1="1719.67" y1="256.95" x2="1719.67" y2="-567.07" gradientTransform="matrix(1.46, 0, 0, 1.52, -485.51, 548.52)" xlink:href="#Degradado_sin_nombre_3012"/><linearGradient id="Degradado_sin_nombre_3012-3" x1="1443.6" y1="184.36" x2="1443.6" y2="-639.65" gradientTransform="matrix(1.46, 0, 0, 1.52, -480.32, 786.34)" xlink:href="#Degradado_sin_nombre_3012"/><linearGradient id="Degradado_sin_nombre_3012-4" x1="1501.93" y1="184.36" x2="1501.93" y2="-639.65" gradientTransform="matrix(1.46, 0, 0, 1.52, -494.11, 739.86)" xlink:href="#Degradado_sin_nombre_3012"/><linearGradient id="Degradado_sin_nombre_3012-5" x1="1237.74" y1="114.31" x2="1237.74" y2="-709.71" gradientTransform="matrix(1.46, 0, 0, 1.52, -489.63, 967.58)" xlink:href="#Degradado_sin_nombre_3012"/><linearGradient id="Degradado_sin_nombre_3012-6" x1="1296.07" y1="114.31" x2="1296.07" y2="-709.7" gradientTransform="matrix(1.46, 0, 0, 1.52, -503.42, 921.1)" xlink:href="#Degradado_sin_nombre_3012"/><linearGradient id="Degradado_sin_nombre_3012-7" x1="970.2" y1="-108.9" x2="970.2" y2="-932.91" gradientTransform="matrix(1.46, 0, 0, 1.52, -611.13, 1235.58)" xlink:href="#Degradado_sin_nombre_3012"/><linearGradient id="Degradado_sin_nombre_3012-8" x1="1028.54" y1="-108.9" x2="1028.54" y2="-932.91" gradientTransform="matrix(1.46, 0, 0, 1.52, -624.92, 1189.1)" xlink:href="#Degradado_sin_nombre_3012"/><linearGradient id="Degradado_sin_nombre_3012-9" x1="684.14" y1="-281.54" x2="684.14" y2="-1105.56" gradientTransform="matrix(1.46, 0, 0, 1.52, -686.39, 1505.93)" xlink:href="#Degradado_sin_nombre_3012"/><linearGradient id="Degradado_sin_nombre_3012-10" x1="742.47" y1="-281.54" x2="742.47" y2="-1105.56" gradientTransform="matrix(1.46, 0, 0, 1.52, -700.18, 1459.45)" xlink:href="#Degradado_sin_nombre_3012"/><linearGradient id="Degradado_sin_nombre_3012-11" x1="447.91" y1="-130.57" x2="447.91" y2="-954.59" gradientTransform="matrix(1.46, 0, 0, 1.52, -505.58, 1657.11)" xlink:href="#Degradado_sin_nombre_3012"/><linearGradient id="Degradado_sin_nombre_3012-12" x1="506.24" y1="-130.57" x2="506.24" y2="-954.59" gradientTransform="matrix(1.46, 0, 0, 1.52, -519.37, 1610.63)" xlink:href="#Degradado_sin_nombre_3012"/><linearGradient id="Degradado_sin_nombre_2996-2" x1="3719.71" y1="1193.21" x2="3093.17" y2="1193.21" gradientTransform="translate(-1839.09 2534) rotate(-51.14)" xlink:href="#Degradado_sin_nombre_2996"/><linearGradient id="Degradado_sin_nombre_2996-3" x1="3752.76" y1="367.74" x2="3091.88" y2="367.74" gradientTransform="translate(-2028.45 3136.84) rotate(-51.14)" xlink:href="#Degradado_sin_nombre_2996"/><linearGradient id="Degradado_sin_nombre_2996-4" x1="4194.25" y1="1089.31" x2="3502.31" y2="1089.31" gradientTransform="matrix(-0.01, 1, -1, -0.01, 2266.82, -3463.69)" xlink:href="#Degradado_sin_nombre_2996"/><linearGradient id="Degradado_sin_nombre_2996-5" x1="4567.21" y1="796.85" x2="3875.28" y2="796.85" gradientTransform="matrix(-0.01, 1, -1, -0.01, 2448.57, -3777.61)" xlink:href="#Degradado_sin_nombre_2996"/></defs><g class="cls-2"><g id="Layer_2" data-name="Layer 2"><g id="OBJECTS"><rect class="cls-3" x="350.63" y="412.72" width="1920" height="730.54"/><g class="cls-4"><circle class="cls-5" cx="133.89" cy="138.76" r="347.59" transform="translate(291.74 548.04) rotate(-45)"/><g class="cls-6"><rect class="cls-7" x="1884.3" y="-457.61" width="143.14" height="1612.04" transform="matrix(0.84, -0.55, 0.55, 0.84, 477.07, 1535.72)"/><rect class="cls-8" x="1955.75" y="-504.09" width="143.14" height="1612.03" transform="matrix(0.84, -0.55, 0.55, 0.84, 513.98, 1567.16)"/></g><g class="cls-6"><rect class="cls-9" x="1557.54" y="-376.44" width="143.14" height="1612.04" transform="translate(379.94 1370.65) rotate(-33.05)"/><rect class="cls-10" x="1628.98" y="-422.92" width="143.14" height="1612.03" transform="translate(416.85 1402.09) rotate(-33.05)"/></g><g class="cls-6"><rect class="cls-11" x="1247.43" y="-301.51" width="143.14" height="1612.04" transform="translate(288.91 1213.65) rotate(-33.05)"/><rect class="cls-12" x="1318.87" y="-348" width="143.14" height="1612.03" transform="translate(325.81 1245.1) rotate(-33.05)"/></g><g class="cls-6"><rect class="cls-13" x="735" y="-372.28" width="143.14" height="1612.04" transform="translate(244.59 922.75) rotate(-33.05)"/><rect class="cls-14" x="806.44" y="-418.76" width="143.14" height="1612.03" transform="translate(281.5 954.19) rotate(-33.05)"/></g><g class="cls-6"><rect class="cls-15" x="241.73" y="-363.95" width="143.14" height="1612.04" transform="translate(160.24 655.1) rotate(-33.05)"/><rect class="cls-16" x="313.17" y="-410.44" width="143.14" height="1612.03" transform="translate(197.15 686.54) rotate(-33.05)"/></g><g class="cls-6"><rect class="cls-17" x="77.34" y="16.37" width="143.14" height="1612.04" transform="translate(-73.76 626.98) rotate(-33.05)"/><rect class="cls-18" x="148.79" y="-30.11" width="143.14" height="1612.03" transform="translate(-36.85 658.43) rotate(-33.05)"/></g><circle class="cls-19" cx="1223.64" cy="634.39" r="403.79" transform="translate(260.45 1463.77) rotate(-45)"/><circle class="cls-20" cx="401.26" cy="707.23" r="425.91" transform="translate(-31.93 903.6) rotate(-45)"/><circle class="cls-21" cx="1132.53" cy="365.27" r="445.93" transform="translate(424.06 1320.52) rotate(-45)"/><circle class="cls-22" cx="1602.34" cy="427.71" r="445.93" transform="translate(517.52 1671.02) rotate(-45)"/></g></g></g></g></svg>