<?xml version="1.0" encoding="UTF-8"?>
<!DOCTYPE svg PUBLIC "-//W3C//DTD SVG 1.1//EN" "http://www.w3.org/Graphics/SVG/1.1/DTD/svg11.dtd">
<!-- Creator: CorelDRAW 2020 (64-Bit Evaluation Version) -->
<svg xmlns="http://www.w3.org/2000/svg" xml:space="preserve" width="70px" height="70px" version="1.1" style="shape-rendering:geometricPrecision; text-rendering:geometricPrecision; image-rendering:optimizeQuality; fill-rule:evenodd; clip-rule:evenodd"
viewBox="0 0 32.05 32.04"
 xmlns:xlink="http://www.w3.org/1999/xlink"
 xmlns:xodm="http://www.corel.com/coreldraw/odm/2003">
 <defs>
  <style type="text/css">
   <![CDATA[
    .fil3 {fill:#3C4A82}
    .fil1 {fill:#F2C23A}
    .fil2 {fill:#263674;fill-rule:nonzero}
    .fil0 {fill:#EFB30C;fill-rule:nonzero}
   ]]>
  </style>
 </defs>
 <g id="Layer_x0020_1">
  <metadata id="CorelCorpID_0Corel-Layer"/>
  <g id="_2064486686720">
   <path class="fil0" d="M4.05 7.99c0.02,-0.02 0.04,-0.05 0.08,-0.09l0.05 -0.05c0.04,-0.04 0.03,-0.09 -0.04,-0.15 -0.06,-0.07 -0.16,-0.12 -0.28,-0.15l-0.61 -0.22c-0.65,-0.24 -1.14,-0.63 -1.46,-1.18 -0.32,-0.54 -0.44,-1.18 -0.37,-1.91 0.06,-0.58 0.32,-1.12 0.78,-1.6 0.47,-0.48 0.99,-0.76 1.57,-0.83 0.7,-0.1 1.32,0.01 1.88,0.31 0.55,0.3 0.97,0.76 1.24,1.38l0.3 0.68c0.04,0.11 0.08,0.21 0.14,0.29 0.05,0.08 0.09,0.12 0.12,0.1 0.03,-0.02 0.06,-0.05 0.1,-0.08l4.26 -4.24c0.04,-0.04 0.06,-0.08 0.06,-0.11 0.05,-0.09 0.11,-0.14 0.16,-0.14 0.06,0 0.14,0.07 0.25,0.22l0.16 0.19 4.24 4.21 0.11 0.14c0.11,0.13 0.19,0.23 0.25,0.3 0.2,0.24 0.28,0.46 0.23,0.68 -0.05,0.22 -0.21,0.4 -0.48,0.55 -0.11,0.05 -0.28,0.13 -0.52,0.22 -0.31,0.13 -0.54,0.23 -0.68,0.3 -0.39,0.2 -0.63,0.5 -0.74,0.9 -0.11,0.4 -0.06,0.79 0.14,1.15 0.2,0.37 0.51,0.61 0.94,0.73 0.43,0.11 0.82,0.05 1.16,-0.18 0.18,-0.13 0.38,-0.39 0.6,-0.8l0.09 -0.13c0.05,-0.11 0.12,-0.28 0.21,-0.49 0.06,-0.2 0.1,-0.34 0.14,-0.41 0.27,-0.53 0.67,-0.62 1.18,-0.28 0.11,0.09 0.26,0.24 0.46,0.44l3.94 3.94c0.07,0.07 0.11,0.18 0.11,0.31 0,0.14 -0.04,0.25 -0.11,0.34l-11.4 11.38c-0.08,0.09 -0.16,0.16 -0.26,0.2 -0.1,0.05 -0.17,0.06 -0.19,0.03 -0.03,-0.03 -0.06,-0.06 -0.1,-0.09l-3.8 -3.8 -0.25 -0.28c-0.29,-0.33 -0.4,-0.62 -0.34,-0.89 0.06,-0.26 0.3,-0.48 0.7,-0.67l1.06 -0.41c0.42,-0.18 0.75,-0.46 0.97,-0.84 0.23,-0.39 0.31,-0.79 0.24,-1.22 -0.08,-0.43 -0.26,-0.79 -0.56,-1.1 -0.3,-0.3 -0.66,-0.47 -1.08,-0.53 -0.5,-0.04 -0.92,0.05 -1.28,0.26 -0.35,0.21 -0.61,0.54 -0.77,1l-0.36 0.98c-0.18,0.46 -0.41,0.72 -0.7,0.78 -0.28,0.07 -0.6,-0.08 -0.97,-0.43 -0.36,-0.36 -0.9,-0.89 -1.61,-1.6l-1.18 -1.18c-0.49,-0.49 -0.99,-0.97 -1.5,-1.42 -0.22,-0.26 -0.33,-0.41 -0.33,-0.45 0,-0.05 0.05,-0.1 0.14,-0.15 0.05,-0.02 0.09,-0.06 0.11,-0.11 0.56,-0.57 1.41,-1.42 2.54,-2.55l1.26 -1.25z"/>
   <path class="fil1" d="M0.11 12.33l11.4 11.38c0.08,0.09 0.16,0.16 0.26,0.21 0.06,0.02 0.11,0.04 0.14,0.04l0 -23.88c-0.04,-0.05 -0.08,-0.08 -0.12,-0.08 -0.06,0 -0.14,0.07 -0.25,0.22l-0.16 0.19 -4.24 4.21 -0.11 0.14c-0.11,0.13 -0.19,0.23 -0.25,0.3 -0.2,0.24 -0.28,0.46 -0.23,0.68 0.05,0.22 0.2,0.4 0.48,0.55 0.11,0.05 0.28,0.13 0.52,0.22 0.31,0.13 0.54,0.23 0.68,0.3 0.38,0.2 0.63,0.5 0.74,0.9 0.11,0.4 0.06,0.79 -0.14,1.15 -0.2,0.37 -0.51,0.61 -0.94,0.73 -0.43,0.11 -0.82,0.05 -1.16,-0.18 -0.18,-0.13 -0.39,-0.39 -0.6,-0.8l-0.09 -0.13c-0.05,-0.11 -0.12,-0.28 -0.22,-0.49 -0.05,-0.21 -0.1,-0.34 -0.13,-0.41 -0.28,-0.53 -0.67,-0.62 -1.18,-0.28 -0.11,0.09 -0.26,0.24 -0.46,0.44l-3.94 3.94c-0.07,0.07 -0.11,0.17 -0.11,0.31 0,0.14 0.04,0.25 0.11,0.34z"/>
   <path class="fil2" d="M28 16.07c-0.01,-0.02 -0.04,-0.05 -0.08,-0.08l-0.05 -0.06c-0.04,-0.04 -0.03,-0.09 0.04,-0.15 0.06,-0.06 0.16,-0.11 0.29,-0.15l0.6 -0.22c0.65,-0.24 1.14,-0.63 1.46,-1.17 0.32,-0.55 0.44,-1.19 0.37,-1.92 -0.05,-0.58 -0.31,-1.12 -0.78,-1.6 -0.46,-0.48 -0.99,-0.76 -1.57,-0.83 -0.7,-0.09 -1.32,0.01 -1.88,0.31 -0.55,0.3 -0.97,0.76 -1.24,1.38l-0.3 0.69c-0.04,0.11 -0.08,0.2 -0.14,0.28 -0.05,0.09 -0.09,0.12 -0.12,0.1 -0.03,-0.02 -0.06,-0.05 -0.1,-0.08l-4.26 -4.24c-0.04,-0.04 -0.06,-0.07 -0.06,-0.11 -0.05,-0.09 -0.11,-0.14 -0.16,-0.14 -0.06,0 -0.14,0.08 -0.25,0.22l-0.16 0.19 -4.24 4.21 -0.11 0.14c-0.11,0.13 -0.19,0.23 -0.25,0.3 -0.2,0.24 -0.27,0.47 -0.23,0.69 0.05,0.21 0.21,0.4 0.48,0.54 0.11,0.06 0.28,0.13 0.52,0.22 0.31,0.13 0.54,0.23 0.68,0.3 0.39,0.2 0.63,0.5 0.74,0.9 0.11,0.41 0.07,0.79 -0.13,1.15 -0.2,0.37 -0.52,0.61 -0.95,0.73 -0.43,0.12 -0.81,0.06 -1.16,-0.18 -0.18,-0.13 -0.38,-0.39 -0.6,-0.79l-0.08 -0.14c-0.06,-0.11 -0.13,-0.27 -0.22,-0.49 -0.06,-0.2 -0.1,-0.34 -0.14,-0.41 -0.27,-0.53 -0.66,-0.62 -1.18,-0.28 -0.1,0.1 -0.26,0.24 -0.46,0.44l-3.94 3.94c-0.07,0.07 -0.11,0.18 -0.11,0.31 0,0.14 0.04,0.25 0.11,0.35l11.41 11.37c0.07,0.09 0.16,0.16 0.26,0.21 0.1,0.04 0.16,0.05 0.19,0.02 0.02,-0.02 0.06,-0.05 0.09,-0.09l3.8 -3.8 0.25 -0.28c0.29,-0.32 0.41,-0.62 0.34,-0.88 -0.06,-0.27 -0.29,-0.49 -0.7,-0.67l-1.06 -0.41c-0.42,-0.19 -0.75,-0.47 -0.97,-0.85 -0.23,-0.39 -0.31,-0.79 -0.24,-1.22 0.08,-0.43 0.26,-0.79 0.57,-1.09 0.3,-0.3 0.66,-0.48 1.08,-0.54 0.49,-0.03 0.91,0.05 1.27,0.26 0.35,0.21 0.61,0.55 0.78,1l0.35 0.99c0.18,0.45 0.42,0.71 0.7,0.78 0.28,0.06 0.61,-0.09 0.97,-0.44 0.36,-0.36 0.9,-0.89 1.61,-1.6l1.18 -1.18c0.49,-0.49 0.99,-0.96 1.5,-1.42 0.22,-0.26 0.33,-0.41 0.33,-0.45 0,-0.05 -0.04,-0.1 -0.14,-0.15 -0.05,-0.02 -0.09,-0.06 -0.1,-0.11 -0.57,-0.57 -1.42,-1.41 -2.55,-2.54l-1.26 -1.26z"/>
   <path class="fil3" d="M8.34 20.42l11.41 11.37c0.07,0.09 0.16,0.16 0.26,0.21 0.05,0.02 0.1,0.04 0.13,0.04l0 -23.88c-0.04,-0.05 -0.08,-0.08 -0.12,-0.08 -0.06,0 -0.14,0.08 -0.25,0.22l-0.16 0.19 -4.24 4.21 -0.11 0.14c-0.11,0.13 -0.19,0.23 -0.25,0.3 -0.2,0.24 -0.27,0.47 -0.23,0.69 0.05,0.21 0.21,0.4 0.48,0.54 0.11,0.06 0.28,0.13 0.52,0.22 0.31,0.13 0.54,0.23 0.68,0.3 0.39,0.2 0.63,0.5 0.74,0.9 0.11,0.41 0.07,0.79 -0.13,1.15 -0.2,0.37 -0.52,0.61 -0.95,0.73 -0.43,0.12 -0.81,0.06 -1.16,-0.18 -0.18,-0.13 -0.38,-0.39 -0.6,-0.79l-0.08 -0.14c-0.06,-0.11 -0.13,-0.27 -0.22,-0.49 -0.06,-0.2 -0.1,-0.34 -0.14,-0.41 -0.27,-0.53 -0.66,-0.62 -1.17,-0.28 -0.11,0.1 -0.27,0.24 -0.47,0.44l-3.94 3.94c-0.07,0.07 -0.11,0.18 -0.11,0.31 0,0.14 0.04,0.25 0.11,0.35z"/>
  </g>
 </g>
</svg>
