<?xml version="1.0" encoding="UTF-8"?>
<!DOCTYPE svg PUBLIC "-//W3C//DTD SVG 1.1//EN" "http://www.w3.org/Graphics/SVG/1.1/DTD/svg11.dtd">
<!-- Creator: CorelDRAW 2020 (64-Bit) -->
<svg xmlns="http://www.w3.org/2000/svg" xml:space="preserve" width="200px" height="200px" version="1.1" style="shape-rendering:geometricPrecision; text-rendering:geometricPrecision; image-rendering:optimizeQuality; fill-rule:evenodd; clip-rule:evenodd"
viewBox="0 0 3.02 3.02"
 xmlns:xlink="http://www.w3.org/1999/xlink"
 xmlns:xodm="http://www.corel.com/coreldraw/odm/2003">
 <defs>
  <style type="text/css">
   <![CDATA[
    .fil2 {fill:white}
    .fil1 {fill:#999999;fill-rule:nonzero}
    .fil0 {fill:#FEC00F;fill-rule:nonzero}
   ]]>
  </style>
 </defs>
 <g id="Layer_x0020_1">
  <metadata id="CorelCorpID_0Corel-Layer"/>
  <path class="fil0" d="M2.92 2.51l-2.83 0c-0.05,0 -0.09,0.04 -0.09,0.09l0 0.19c0,0.05 0.04,0.1 0.09,0.1l2.83 0c0.05,0 0.1,-0.05 0.1,-0.1l0 -0.19c0,-0.05 -0.05,-0.09 -0.1,-0.09l0 0z"/>
  <path class="fil1" d="M0 2.86l0 0.06c0,0.05 0.04,0.1 0.09,0.1l2.83 0c0.05,0 0.1,-0.05 0.1,-0.1l0 -0.06c0,0.06 -0.05,0.1 -0.1,0.1l-2.83 0c-0.05,0 -0.09,-0.04 -0.09,-0.1z"/>
  <path class="fil1" d="M0.38 1.18l0 0.81 -0.1 0c-0.05,0 -0.09,0.04 -0.09,0.1l0 0.28 2.64 0 0 -0.28c0,-0.06 -0.04,-0.1 -0.1,-0.1l-0.09 0 0 -0.81 -0.38 0 0 0.81 -0.56 0 0 -0.81 -0.38 0 0 0.81 -0.57 0 0 -0.81 -0.37 0z"/>
  <g id="_1875593854704">
   <path class="fil0" d="M2.95 0.78l-1.38 -0.53c-0.02,-0.01 -0.04,-0.01 -0.06,-0.01 -0.02,0 -0.05,0 -0.07,0.01l-1.38 0.53c-0.04,0.01 -0.06,0.05 -0.06,0.09l0 0.21c0,0.06 0.04,0.1 0.09,0.1l2.83 0c0.05,0 0.1,-0.04 0.1,-0.1l0 -0.21c0,-0.04 -0.03,-0.08 -0.07,-0.09z"/>
   <path class="fil1" d="M2.95 0.54l-1.38 -0.53c-0.02,-0.01 -0.04,-0.01 -0.06,-0.01 -0.02,0 -0.05,0 -0.07,0.01l-1.38 0.53c-0.04,0.02 -0.06,0.05 -0.06,0.09l0 0.12c0,-0.04 0.02,-0.07 0.06,-0.09l1.38 -0.53c0.02,-0.01 0.05,-0.01 0.07,-0.01 0.02,0 0.04,0 0.06,0.01l1.38 0.53c0.04,0.02 0.07,0.05 0.07,0.09l0 -0.12c0,-0.04 -0.03,-0.07 -0.07,-0.09z"/>
   <circle class="fil2" cx="1.51" cy="0.71" r="0.18"/>
  </g>
 </g>
</svg>
