<?xml version="1.0" encoding="UTF-8"?>
<!DOCTYPE svg PUBLIC "-//W3C//DTD SVG 1.1//EN" "http://www.w3.org/Graphics/SVG/1.1/DTD/svg11.dtd">
<!-- Creator: CorelDRAW 2020 (64-Bit Evaluation Version) -->
<svg xmlns="http://www.w3.org/2000/svg" xml:space="preserve" width="30px" height="34px" version="1.1" style="shape-rendering:geometricPrecision; text-rendering:geometricPrecision; image-rendering:optimizeQuality; fill-rule:evenodd; clip-rule:evenodd"
viewBox="0 0 1.09 1.22"
 xmlns:xlink="http://www.w3.org/1999/xlink"
 xmlns:xodm="http://www.corel.com/coreldraw/odm/2003">
 <defs>
  <style type="text/css">
   <![CDATA[
    .fil2 {fill:white}
    .fil0 {fill:#263674;fill-rule:nonzero}
    .fil1 {fill:#EFB30C;fill-rule:nonzero}
   ]]>
  </style>
 </defs>
 <g id="Layer_x0020_1">
  <metadata id="CorelCorpID_0Corel-Layer"/>
  <g id="_2104962994768">
   <path class="fil0" d="M1.05 1.04l-1.02 0c-0.01,0 -0.03,0.01 -0.03,0.03l0 0.12c0,0.02 0.02,0.03 0.03,0.03l1.02 0c0.02,0 0.04,-0.01 0.04,-0.03l0 -0.12c0,-0.02 -0.02,-0.03 -0.04,-0.03l0 0z"/>
   <path class="fil1" d="M0.14 0.49l0 0.34 -0.04 0c-0.02,0 -0.03,0.02 -0.03,0.04l0 0.1 0.95 0 0 -0.1c0,-0.02 -0.01,-0.04 -0.03,-0.04l-0.04 0 0 -0.34 -0.13 0 0 0.34 -0.21 0 0 -0.34 -0.13 0 0 0.34 -0.21 0 0 -0.34 -0.13 0z"/>
   <path class="fil0" d="M0 0.31l0 0.01 0 0.07c0,0.02 0.02,0.04 0.03,0.04l1.02 0c0.02,0 0.04,-0.02 0.04,-0.04l0 -0.07 0 -0.01 0 -0.08c0,-0.02 -0.01,-0.03 -0.02,-0.03l-0.5 -0.2c-0.01,0 -0.02,0 -0.03,0 0,0 -0.01,0 -0.02,0l-0.5 0.2c-0.01,0 -0.02,0.01 -0.02,0.03l0 0.08z"/>
   <circle class="fil2" cx="0.54" cy="0.26" r="0.06"/>
  </g>
 </g>
</svg>
