<?xml version="1.0" encoding="UTF-8"?>
<!DOCTYPE svg PUBLIC "-//W3C//DTD SVG 1.1//EN" "http://www.w3.org/Graphics/SVG/1.1/DTD/svg11.dtd">
<!-- Creator: CorelDRAW 2020 (64-Bit) -->
<svg xmlns="http://www.w3.org/2000/svg" xml:space="preserve" width="200px" height="200px" version="1.1" style="shape-rendering:geometricPrecision; text-rendering:geometricPrecision; image-rendering:optimizeQuality; fill-rule:evenodd; clip-rule:evenodd"
viewBox="0 0 3.04 3.04"
 xmlns:xlink="http://www.w3.org/1999/xlink"
 xmlns:xodm="http://www.corel.com/coreldraw/odm/2003">
 <defs>
  <style type="text/css">
   <![CDATA[
    .fil2 {fill:#666666}
    .fil0 {fill:#999999}
    .fil3 {fill:#EDEFF7}
    .fil1 {fill:#FFCD3F}
    .fil4 {fill:#FFCD3F;fill-rule:nonzero}
    .fil5 {fill:white;fill-rule:nonzero}
   ]]>
  </style>
 </defs>
 <g id="Layer_x0020_1">
  <metadata id="CorelCorpID_0Corel-Layer"/>
  <g id="_1874761426560">
   <path class="fil0" d="M1.73 0.03l1.31 0.42c-0.14,0.5 -0.14,1.38 -0.49,1.69l-0.05 0.04 -0.14 -0.13 0.04 -0.04c0.3,-0.27 0.3,-1.02 0.42,-1.44l-1.12 -0.36c-0.38,-0.13 -1.04,0.25 -1.48,0.36l0.24 1.13c0.02,0.12 0.11,0.24 0.22,0.36l-0.14 0.14c-0.13,-0.14 -0.23,-0.28 -0.26,-0.42l-0.28 -1.33c0.51,-0.13 1.28,-0.57 1.73,-0.42zm0.51 2.38l-0.72 0.63c-0.19,-0.19 -0.48,-0.39 -0.73,-0.61l0.14 -0.14c0.21,0.17 0.44,0.34 0.59,0.49l0.58 -0.51c0.05,0.05 0.09,0.09 0.14,0.14z"/>
   <path class="fil1" d="M1.7 0.21l1.12 0.36c-0.12,0.42 -0.12,1.17 -0.42,1.44l-0.86 0.75 -0.02 0.02 0 0 0 -2.6c0.03,0 0.06,0 0.09,0.01 0.03,0 0.06,0.01 0.09,0.02z"/>
   <path class="fil0" d="M0.64 0.6l0.6 0.07 0.78 0.96c0.02,0.02 0.11,0.13 0.12,0.15l-0.29 0.29c-0.03,-0.01 -0.13,-0.1 -0.16,-0.12l-0.97 -0.76 -0.08 -0.59zm1.27 1.24c-0.07,0.07 -0.18,0.07 -0.26,0l-0.84 -0.67 -0.06 -0.46 1.16 1.13z"/>
   <line class="fil2" x1="1.91" y1="1.84" x2="1.91" y2= "1.84" />
   <path class="fil0" d="M0.75 0.71l0.11 0.01 0.37 0.05 0.68 0.82c0.06,0.07 0.07,0.17 0.01,0.24l-0.01 0.01 -1.16 -1.13z"/>
   <path class="fil3" d="M1.91 1.84c-0.07,0.07 -0.18,0.07 -0.26,0l-0.84 -0.67 -0.06 -0.46 1.16 1.13z"/>
   <path class="fil0" d="M2.23 1.99l0.36 0.36 0 0 0.09 0.09 -0.08 0.08c-0.05,0.05 -0.12,0.05 -0.17,0l0 0 0.01 0.01 -0.38 -0.37 0.01 0c-0.04,0 -0.08,-0.01 -0.11,-0.03 0,-0.01 -0.01,-0.01 -0.01,-0.02l-0.07 0.06c-0.01,0.01 -0.03,0.01 -0.04,0l0 0c-0.01,-0.01 -0.01,-0.02 0,-0.04l0.37 -0.35c0.01,-0.01 0.03,-0.01 0.04,0l0 0c0.01,0.01 0.01,0.03 0,0.04l-0.07 0.06 0.01 0c0.03,0.03 0.04,0.07 0.04,0.12l0 -0.01zm-0.07 0.1c0.05,-0.04 0.05,-0.12 0.01,-0.17l-0.01 0 -0.17 0.17c0,0.01 0.01,0.01 0.01,0.01 0.05,0.04 0.12,0.04 0.16,-0.01zm0.07 0.18c-0.01,0 -0.02,0 -0.03,-0.01 0,-0.01 0,-0.02 0.01,-0.03l0.14 -0.07c0.01,0 0.02,0 0.03,0.01 0,0.01 0,0.03 -0.01,0.03l-0.14 0.07zm0.09 0.08c-0.01,0.01 -0.03,0 -0.03,-0.01 -0.01,-0.01 0,-0.02 0.01,-0.02l0.14 -0.07c0.01,-0.01 0.02,0 0.02,0.01 0.01,0.01 0,0.02 -0.01,0.02l-0.13 0.07zm0.08 0.09c-0.01,0 -0.02,0 -0.03,-0.01 0,-0.01 0,-0.02 0.01,-0.03l0.14 -0.07c0.01,0 0.02,0 0.03,0.01 0,0.01 0,0.02 -0.01,0.03l-0.14 0.07zm0.09 0.08c-0.01,0.01 -0.03,0 -0.03,-0.01 -0.01,-0.01 0,-0.02 0.01,-0.03l0.14 -0.06c0.01,-0.01 0.02,0 0.02,0.01 0.01,0.01 0,0.02 -0.01,0.02l-0.13 0.07z"/>
   <path class="fil0" d="M0.82 1.98l-0.36 0.36 0 0 -0.09 0.09 0.08 0.08c0.05,0.04 0.12,0.04 0.17,0l0.01 -0.01 -0.02 0.02 0.38 -0.37 0 0c0.03,0 0.07,-0.01 0.1,-0.04 0.01,0 0.01,0 0.02,-0.01l0.06 0.06c0.01,0.01 0.03,0.01 0.04,0l0 0c0.01,-0.01 0.01,-0.03 0,-0.04l-0.36 -0.35c-0.02,-0.02 -0.03,-0.02 -0.04,0l0 0c-0.02,0.01 -0.02,0.02 0,0.04l0.06 0.06 -0.01 0c-0.03,0.03 -0.04,0.07 -0.04,0.11l0 0zm0.07 0.1c-0.05,-0.05 -0.05,-0.12 -0.01,-0.17l0.01 0 0.17 0.17c0,0 -0.01,0.01 -0.01,0.01 -0.05,0.04 -0.12,0.03 -0.16,-0.01zm-0.07 0.18c0.01,0 0.02,0 0.03,-0.01 0,-0.01 0,-0.02 -0.01,-0.03l-0.14 -0.07c-0.01,0 -0.02,0 -0.03,0.01 0,0.01 0,0.02 0.01,0.03l0.14 0.07zm-0.08 0.08c0.01,0.01 0.02,0 0.02,-0.01 0.01,-0.01 0,-0.02 -0.01,-0.03l-0.13 -0.06c-0.01,-0.01 -0.03,0 -0.03,0.01 -0.01,0.01 0,0.02 0.01,0.02l0.14 0.07zm-0.09 0.09c0.01,0 0.02,0 0.03,-0.01 0,-0.01 0,-0.03 -0.01,-0.03l-0.14 -0.07c-0.01,0 -0.02,0 -0.03,0.01 0,0.01 0,0.02 0.01,0.03l0.14 0.07zm-0.09 0.08c0.01,0 0.03,0 0.03,-0.01 0.01,-0.01 0,-0.02 -0.01,-0.03l-0.13 -0.07c-0.01,0 -0.03,0 -0.03,0.01 -0.01,0.01 0,0.03 0.01,0.03l0.13 0.07z"/>
   <path class="fil0" d="M2.41 0.6l-0.6 0.07 -0.78 0.96c-0.02,0.02 -0.11,0.13 -0.12,0.15l0.29 0.29c0.03,-0.01 0.14,-0.1 0.16,-0.12l0.97 -0.76 0.08 -0.59zm-1.27 1.24c0.07,0.07 0.18,0.07 0.26,0l0.84 -0.67 0.06 -0.46 -1.16 1.13z"/>
   <line class="fil2" x1="1.14" y1="1.84" x2="1.14" y2= "1.84" />
   <path class="fil1" d="M2.3 0.71l-0.11 0.01 -0.37 0.05 -0.68 0.82c-0.06,0.07 -0.07,0.17 -0.01,0.24l0.01 0.01 1.16 -1.13z"/>
   <path class="fil3" d="M1.14 1.84c0.07,0.07 0.18,0.07 0.26,0l0.84 -0.67 0.06 -0.46 -1.16 1.13z"/>
   <path class="fil4" d="M0.59 1.59c-0.03,0 -0.05,-0.02 -0.05,-0.04 0,-0.02 0.02,-0.04 0.05,-0.05l0.26 -0.02c0.03,0 0.05,0.02 0.05,0.05 0,0.02 -0.02,0.04 -0.04,0.04l-0.27 0.02z"/>
   <path class="fil5" d="M2.48 1.54c0.03,0 0.05,0.02 0.04,0.05 0,0.02 -0.02,0.04 -0.05,0.03l-0.39 -0.04c-0.03,0 -0.04,-0.03 -0.04,-0.05 0,-0.03 0.02,-0.04 0.05,-0.04l0.39 0.05z"/>
   <circle class="fil0" cx="0.97" cy="1.55" r="0.04"/>
   <circle class="fil0" cx="2.2" cy="1.43" r="0.04"/>
   <circle class="fil1" cx="0.61" cy="1.69" r="0.04"/>
  </g>
 </g>
</svg>
