<?xml version="1.0" encoding="UTF-8"?>
<!DOCTYPE svg PUBLIC "-//W3C//DTD SVG 1.1//EN" "http://www.w3.org/Graphics/SVG/1.1/DTD/svg11.dtd">
<!-- Creator: CorelDRAW 2020 (64-Bit Evaluation Version) -->
<svg xmlns="http://www.w3.org/2000/svg" xml:space="preserve" width="29px" height="23px" version="1.1" style="shape-rendering:geometricPrecision; text-rendering:geometricPrecision; image-rendering:optimizeQuality; fill-rule:evenodd; clip-rule:evenodd"
viewBox="0 0 1.66 1.29"
 xmlns:xlink="http://www.w3.org/1999/xlink"
 xmlns:xodm="http://www.corel.com/coreldraw/odm/2003">
 <defs>
  <style type="text/css">
   <![CDATA[
    .fil0 {fill:#263674}
    .fil1 {fill:#EFB30C;fill-rule:nonzero}
   ]]>
  </style>
 </defs>
 <g id="Layer_x0020_1">
  <metadata id="CorelCorpID_0Corel-Layer"/>
  <g id="_2106505086592">
   <rect class="fil0" y="0.28" width="1.66" height="0.37"/>
   <rect class="fil0" x="0.14" y="0.92" width="1.05" height="0.18"/>
   <path class="fil1" d="M0 1.16c0,0.07 0.06,0.13 0.14,0.13l1.38 0c0.08,0 0.14,-0.06 0.14,-0.13l0 -0.51 -1.66 0 0 0.51zm0.55 -0.2c0,-0.02 0.02,-0.04 0.04,-0.04l0.49 0c0.02,0 0.03,0.02 0.03,0.04l0 0.11c0,0.02 -0.01,0.04 -0.03,0.04l-0.49 0c-0.02,0 -0.04,-0.02 -0.04,-0.04l0 -0.11 0 0zm-0.36 0c0,-0.02 0.01,-0.04 0.03,-0.04l0.21 0c0.02,0 0.03,0.02 0.03,0.04l0 0.11c0,0.02 -0.01,0.04 -0.03,0.04l-0.21 0c-0.02,0 -0.03,-0.02 -0.03,-0.04l0 -0.11 0 0zm1.47 -0.82l0 0.14 -1.66 0 0 -0.14c0,-0.08 0.06,-0.14 0.14,-0.14l1.38 0c0.08,0 0.14,0.06 0.14,0.14l0 0z"/>
  </g>
 </g>
</svg>
