<?xml version="1.0" encoding="UTF-8"?>
<!DOCTYPE svg PUBLIC "-//W3C//DTD SVG 1.1//EN" "http://www.w3.org/Graphics/SVG/1.1/DTD/svg11.dtd">
<!-- Creator: CorelDRAW 2020 (64-Bit Evaluation Version) -->
<svg xmlns="http://www.w3.org/2000/svg" xml:space="preserve" width="30px" height="30px" version="1.1" style="shape-rendering:geometricPrecision; text-rendering:geometricPrecision; image-rendering:optimizeQuality; fill-rule:evenodd; clip-rule:evenodd"
viewBox="0 0 1.17 1.17"
 xmlns:xlink="http://www.w3.org/1999/xlink"
 xmlns:xodm="http://www.corel.com/coreldraw/odm/2003">
 <defs>
  <style type="text/css">
   <![CDATA[
    .fil1 {fill:#263674}
    .fil0 {fill:#EFB30C}
    .fil2 {fill:white}
   ]]>
  </style>
 </defs>
 <g id="Layer_x0020_1">
  <metadata id="CorelCorpID_0Corel-Layer"/>
  <g id="_2104781991648">
   <g>
    <rect class="fil0" x="0.15" y="0.43" width="0.82" height="0.6" rx="0.08" ry="0.08"/>
    <path class="fil0" d="M0.37 0.23l0.01 0.01 0.07 0.07 -0.19 0 0.07 -0.08 0 0c0.01,-0.01 0.03,-0.01 0.04,0z"/>
    <path class="fil0" d="M0.75 0.17l0.02 0.03 0.14 0.13 -0.4 0 0.16 -0.16 0 0c0.02,-0.02 0.06,-0.02 0.08,0z"/>
    <path class="fil1" d="M0.78 0.74c0,-0.03 0,-0.06 0.04,-0.08 0.02,-0.02 0.03,-0.03 0.07,-0.03l0.2 0c0.02,0 0.03,0.01 0.03,0.03l0 0.15c0,0.01 -0.01,0.02 -0.02,0.02l-0.22 0c-0.06,0 -0.1,-0.05 -0.1,-0.09zm-0.05 -0.01c0,0.09 0.07,0.15 0.16,0.15l0.18 0 0 0.18c0,0.03 -0.03,0.06 -0.06,0.06l-0.9 0c-0.03,0 -0.06,-0.03 -0.06,-0.06l0 -0.65c0,-0.04 0.04,-0.07 0.07,-0.07l0.88 0c0.04,0 0.07,0.03 0.07,0.07l0 0.18 -0.2 0c-0.07,0 -0.14,0.06 -0.14,0.14zm-0.03 -0.67l0.24 0.23 -0.46 0 0.17 -0.17c0.01,-0.02 0.04,-0.04 0.05,-0.06zm-0.47 0.23l0.23 -0.23 0.09 0.09c-0.01,0.01 -0.04,0.04 -0.06,0.05 -0.02,0.02 -0.04,0.04 -0.06,0.06 -0.04,0.04 -0.02,0.03 -0.08,0.03 -0.04,0 -0.08,0 -0.12,0zm-0.23 0.12l0 0.64c0,0.06 0.06,0.12 0.12,0.12l0.88 0c0.06,0 0.1,-0.04 0.12,-0.09 0.01,-0.04 0,-0.16 0,-0.21 0.03,0 0.05,-0.03 0.05,-0.06l0 -0.16c0,-0.03 -0.02,-0.05 -0.05,-0.06 0,-0.04 0,-0.08 0,-0.12 0,-0.05 0,-0.08 -0.01,-0.11 -0.02,-0.03 -0.04,-0.05 -0.07,-0.06 -0.04,-0.02 -0.01,0.01 -0.08,-0.05l-0.22 -0.22c-0.04,-0.04 -0.03,-0.04 -0.1,0.02 -0.01,0.02 -0.04,0.05 -0.06,0.06 -0.03,-0.02 -0.09,-0.11 -0.12,-0.11 -0.01,0 -0.04,0.03 -0.06,0.05l-0.21 0.22c-0.05,0.04 -0.03,0.01 -0.08,0.02 -0.07,0.01 -0.11,0.06 -0.11,0.12z"/>
    <path class="fil0" d="M0.89 0.65l0.21 0 0 0.17 -0.21 0c-0.04,0 -0.08,-0.04 -0.08,-0.09l0 0c0,-0.04 0.04,-0.08 0.08,-0.08z"/>
    <path class="fil2" d="M0.83 0.73c0,0.03 0.02,0.05 0.05,0.05 0.06,0 0.07,-0.1 0,-0.1 -0.03,0 -0.05,0.02 -0.05,0.05z"/>
   </g>
   <g>
    <rect class="fil0" x="0.15" y="0.43" width="0.82" height="0.6" rx="0.08" ry="0.08"/>
    <path class="fil0" d="M0.37 0.23l0.01 0.01 0.07 0.07 -0.19 0 0.07 -0.08 0 0c0.01,-0.01 0.03,-0.01 0.04,0z"/>
    <path class="fil0" d="M0.75 0.17l0.02 0.03 0.14 0.13 -0.4 0 0.16 -0.16 0 0c0.02,-0.02 0.06,-0.02 0.08,0z"/>
    <path class="fil1" d="M0.78 0.74c0,-0.03 0,-0.06 0.04,-0.08 0.02,-0.02 0.03,-0.03 0.07,-0.03l0.2 0c0.02,0 0.03,0.01 0.03,0.03l0 0.15c0,0.01 -0.01,0.02 -0.02,0.02l-0.22 0c-0.06,0 -0.1,-0.05 -0.1,-0.09zm-0.05 -0.01c0,0.09 0.07,0.15 0.16,0.15l0.18 0 0 0.18c0,0.03 -0.03,0.06 -0.06,0.06l-0.9 0c-0.03,0 -0.06,-0.03 -0.06,-0.06l0 -0.65c0,-0.04 0.04,-0.07 0.07,-0.07l0.88 0c0.04,0 0.07,0.03 0.07,0.07l0 0.18 -0.2 0c-0.07,0 -0.14,0.06 -0.14,0.14zm-0.03 -0.67l0.24 0.23 -0.46 0 0.17 -0.17c0.01,-0.02 0.04,-0.04 0.05,-0.06zm-0.47 0.23l0.23 -0.23 0.09 0.09c-0.01,0.01 -0.04,0.04 -0.06,0.05 -0.02,0.02 -0.04,0.04 -0.06,0.06 -0.04,0.04 -0.02,0.03 -0.08,0.03 -0.04,0 -0.08,0 -0.12,0zm-0.23 0.12l0 0.64c0,0.06 0.06,0.12 0.12,0.12l0.88 0c0.06,0 0.1,-0.04 0.12,-0.09 0.01,-0.04 0,-0.16 0,-0.21 0.03,0 0.05,-0.03 0.05,-0.06l0 -0.16c0,-0.03 -0.02,-0.05 -0.05,-0.06 0,-0.04 0,-0.08 0,-0.12 0,-0.05 0,-0.08 -0.01,-0.11 -0.02,-0.03 -0.04,-0.05 -0.07,-0.06 -0.04,-0.02 -0.01,0.01 -0.08,-0.05l-0.22 -0.22c-0.04,-0.04 -0.03,-0.04 -0.1,0.02 -0.01,0.02 -0.04,0.05 -0.06,0.06 -0.03,-0.02 -0.09,-0.11 -0.12,-0.11 -0.01,0 -0.04,0.03 -0.06,0.05l-0.21 0.22c-0.05,0.04 -0.03,0.01 -0.08,0.02 -0.07,0.01 -0.11,0.06 -0.11,0.12z"/>
    <path class="fil0" d="M0.89 0.65l0.21 0 0 0.17 -0.21 0c-0.04,0 -0.08,-0.04 -0.08,-0.09l0 0c0,-0.04 0.04,-0.08 0.08,-0.08z"/>
    <path class="fil2" d="M0.83 0.73c0,0.03 0.02,0.05 0.05,0.05 0.06,0 0.07,-0.1 0,-0.1 -0.03,0 -0.05,0.02 -0.05,0.05z"/>
   </g>
  </g>
 </g>
</svg>
