<?xml version="1.0" encoding="UTF-8"?>
<!DOCTYPE svg PUBLIC "-//W3C//DTD SVG 1.1//EN" "http://www.w3.org/Graphics/SVG/1.1/DTD/svg11.dtd">
<!-- Creator: CorelDRAW 2020 (64-Bit Evaluation Version) -->
<svg xmlns="http://www.w3.org/2000/svg" xml:space="preserve" width="60px" height="60px" version="1.1" style="shape-rendering:geometricPrecision; text-rendering:geometricPrecision; image-rendering:optimizeQuality; fill-rule:evenodd; clip-rule:evenodd"
viewBox="0 0 7.32 7.32"
 xmlns:xlink="http://www.w3.org/1999/xlink"
 xmlns:xodm="http://www.corel.com/coreldraw/odm/2003">
 <defs>
  <style type="text/css">
   <![CDATA[
    .fil2 {fill:#263674}
    .fil0 {fill:#FEC00F}
    .fil1 {fill:#263674;fill-rule:nonzero}
   ]]>
  </style>
 </defs>
 <g id="Layer_x0020_1">
  <metadata id="CorelCorpID_0Corel-Layer"/>
  <g id="_2465791292352">
   <path class="fil0" d="M6.69 6.64l-5.01 -4.92 -1.41 0 0 3.2 0 0.91 0 1.08 5.93 0c0.16,0 0.31,-0.06 0.41,-0.17 0.03,-0.03 0.06,-0.06 0.08,-0.1z"/>
   <polygon class="fil0" points="0.27,1.46 1.41,1.46 0.34,0.4 0.27,0.4 "/>
   <path class="fil1" d="M0 1.58l0 -1.58 3.95 0c0.25,0 0.48,0.1 0.65,0.27l0 0c0.17,0.17 0.27,0.4 0.27,0.66 0,0.25 -0.1,0.48 -0.27,0.65l0 0c-0.17,0.17 -0.4,0.27 -0.65,0.27l0 -0.54c0.1,0 0.2,-0.04 0.27,-0.11 0.07,-0.07 0.11,-0.17 0.11,-0.27 0,-0.11 -0.04,-0.21 -0.11,-0.28 -0.07,-0.06 -0.17,-0.11 -0.27,-0.11l-3.41 0 0 1.04 -0.54 0z"/>
   <path class="fil1" d="M0.27 1.32l6.06 0c0.27,0 0.52,0.11 0.7,0.29l0 0c0.18,0.18 0.29,0.42 0.29,0.69l0 1.63 -1.18 0c-0.16,0 -0.31,0.07 -0.41,0.17 -0.11,0.11 -0.17,0.25 -0.17,0.41 0,0.16 0.06,0.31 0.17,0.41 0.1,0.11 0.25,0.17 0.41,0.17l1.18 0 0 1.24c0,0.27 -0.11,0.52 -0.29,0.7l0 0c-0.18,0.18 -0.43,0.29 -0.7,0.29l-6.33 0 0 -6 0.27 0zm6.06 0.54l-5.79 0 0 4.92 5.79 0c0.12,0 0.23,-0.06 0.31,-0.14l0 0c0.08,-0.08 0.13,-0.19 0.13,-0.31l0 -0.69 -0.63 0c-0.31,0 -0.59,-0.13 -0.8,-0.33 -0.2,-0.21 -0.33,-0.49 -0.33,-0.8 0,-0.31 0.13,-0.59 0.33,-0.79 0.21,-0.2 0.49,-0.33 0.8,-0.33l0.63 0 0 -1.09c0,-0.12 -0.04,-0.23 -0.13,-0.31l0 0c-0.08,-0.08 -0.19,-0.13 -0.31,-0.13z"/>
   <circle class="fil2" cx="6.24" cy="4.49" r="0.31"/>
   <path class="fil1" d="M3.99 5.56c0.15,0 0.27,0.12 0.27,0.27 0,0.15 -0.12,0.27 -0.27,0.27l-3.6 0c-0.15,0 -0.27,-0.12 -0.27,-0.27 0,-0.15 0.12,-0.27 0.27,-0.27l3.6 0z"/>
   <path class="fil1" d="M1.57 4.65c0.15,0 0.28,0.12 0.28,0.27 0,0.15 -0.13,0.27 -0.28,0.27l-1.18 0c-0.15,0 -0.27,-0.12 -0.27,-0.27 0,-0.15 0.12,-0.27 0.27,-0.27l1.18 0z"/>
  </g>
 </g>
</svg>
