<?xml version="1.0" encoding="UTF-8"?>
<!DOCTYPE svg PUBLIC "-//W3C//DTD SVG 1.1//EN" "http://www.w3.org/Graphics/SVG/1.1/DTD/svg11.dtd">
<!-- Creator: CorelDRAW 2020 (64-Bit Evaluation Version) -->
<svg xmlns="http://www.w3.org/2000/svg" xml:space="preserve" width="60px" height="60px" version="1.1" style="shape-rendering:geometricPrecision; text-rendering:geometricPrecision; image-rendering:optimizeQuality; fill-rule:evenodd; clip-rule:evenodd"
viewBox="0 0 13.67 13.67"
 xmlns:xlink="http://www.w3.org/1999/xlink"
 xmlns:xodm="http://www.corel.com/coreldraw/odm/2003">
 <defs>
  <style type="text/css">
   <![CDATA[
    .fil0 {fill:#FEC00F}
    .fil1 {fill:#263674;fill-rule:nonzero}
   ]]>
  </style>
 </defs>
 <g id="Layer_x0020_1">
  <metadata id="CorelCorpID_0Corel-Layer"/>
  <g id="_2465389410208">
   <path class="fil0" d="M6.83 8.34c-1.95,0 -3.71,1.18 -4.45,2.98 1.14,1.14 2.71,1.84 4.45,1.84 1.08,0 2.09,-0.27 2.98,-0.74l-2.14 -4.01c-0.27,-0.05 -0.55,-0.07 -0.84,-0.07z"/>
   <path class="fil0" d="M4.42 5.65c0,1.33 1.08,2.41 2.41,2.41 0.21,0 0.42,-0.02 0.62,-0.08l-2.21 -4.14c-0.5,0.45 -0.82,1.09 -0.82,1.81z"/>
   <path class="fil1" d="M6.83 0c1.89,0 3.6,0.76 4.83,2 1.24,1.24 2.01,2.95 2.01,4.83 0,1.89 -0.77,3.6 -2.01,4.83 -1.23,1.24 -2.94,2.01 -4.83,2.01 -1.88,0 -3.59,-0.77 -4.83,-2.01 -1.24,-1.23 -2,-2.94 -2,-4.83 0,-1.88 0.76,-3.59 2,-4.83 1.24,-1.24 2.95,-2 4.83,-2zm4.12 2.72c-1.05,-1.06 -2.51,-1.71 -4.12,-1.71 -1.6,0 -3.06,0.65 -4.11,1.71 -1.06,1.05 -1.71,2.51 -1.71,4.11 0,1.61 0.65,3.07 1.71,4.12 1.05,1.05 2.51,1.7 4.11,1.7 1.61,0 3.07,-0.65 4.12,-1.7 1.05,-1.05 1.7,-2.51 1.7,-4.12 0,-1.6 -0.65,-3.06 -1.7,-4.11z"/>
   <path class="fil1" d="M6.83 2.74c0.81,0 1.54,0.32 2.06,0.85 0.53,0.53 0.86,1.26 0.86,2.06 0,0.81 -0.33,1.54 -0.86,2.07 -0.52,0.52 -1.25,0.85 -2.06,0.85 -0.8,0 -1.53,-0.33 -2.06,-0.85 -0.53,-0.53 -0.85,-1.26 -0.85,-2.07 0,-0.8 0.32,-1.53 0.85,-2.06 0.53,-0.53 1.26,-0.85 2.06,-0.85zm1.35 1.57c-0.35,-0.35 -0.82,-0.56 -1.35,-0.56 -0.52,0 -1,0.21 -1.34,0.56 -0.35,0.34 -0.56,0.82 -0.56,1.34 0,0.53 0.21,1.01 0.56,1.35 0.34,0.34 0.82,0.56 1.34,0.56 0.53,0 1,-0.22 1.35,-0.56 0.34,-0.34 0.56,-0.82 0.56,-1.35 0,-0.52 -0.22,-1 -0.56,-1.34z"/>
   <path class="fil1" d="M2.84 11.52c-0.1,0.25 -0.4,0.38 -0.66,0.27 -0.25,-0.11 -0.38,-0.4 -0.27,-0.66 0.41,-1 1.1,-1.82 1.96,-2.39 0.86,-0.58 1.89,-0.91 2.96,-0.91 0.6,0 1.18,0.1 1.75,0.3 0.56,0.19 1.08,0.48 1.55,0.85 0.22,0.17 0.26,0.49 0.08,0.71 -0.17,0.22 -0.49,0.25 -0.71,0.08 -0.38,-0.3 -0.8,-0.53 -1.25,-0.69 -0.45,-0.15 -0.93,-0.23 -1.42,-0.23 -0.87,0 -1.7,0.26 -2.4,0.72 -0.69,0.47 -1.25,1.14 -1.59,1.95z"/>
  </g>
 </g>
</svg>
