<?xml version="1.0" encoding="UTF-8"?>
<!DOCTYPE svg PUBLIC "-//W3C//DTD SVG 1.1//EN" "http://www.w3.org/Graphics/SVG/1.1/DTD/svg11.dtd">
<!-- Creator: CorelDRAW 2020 (64-Bit Evaluation Version) -->
<svg xmlns="http://www.w3.org/2000/svg" xml:space="preserve" width="50px" height="48px" version="1.1" style="shape-rendering:geometricPrecision; text-rendering:geometricPrecision; image-rendering:optimizeQuality; fill-rule:evenodd; clip-rule:evenodd"
viewBox="0 0 6.21 6.02"
 xmlns:xlink="http://www.w3.org/1999/xlink"
 xmlns:xodm="http://www.corel.com/coreldraw/odm/2003">
 <defs>
  <style type="text/css">
   <![CDATA[
    .fil0 {fill:#33CE86;fill-rule:nonzero}
   ]]>
  </style>
 </defs>
 <g id="Layer_x0020_1">
  <metadata id="CorelCorpID_0Corel-Layer"/>
  <g id="_2127128243888">
   <path class="fil0" d="M0.51 0.51l4.17 0 -0.59 0.6 -3.49 0 0 4.3 4.3 0 0 -3.06 0.61 -0.63 0 3.78c0,0.14 -0.06,0.27 -0.15,0.36l0 0.01c-0.1,0.09 -0.22,0.15 -0.37,0.15l-4.48 0c-0.14,0 -0.26,-0.06 -0.36,-0.15l0 -0.01c-0.09,-0.09 -0.15,-0.22 -0.15,-0.36l0 -4.48c0,-0.14 0.06,-0.27 0.15,-0.36l0 0c0.1,-0.09 0.22,-0.15 0.36,-0.15z"/>
   <path class="fil0" d="M2.91 3.91c-0.13,0 -0.23,-0.03 -0.3,-0.1l-1.19 -1.29c-0.06,-0.07 -0.1,-0.16 -0.1,-0.26 0,-0.14 0.05,-0.26 0.14,-0.35 0.04,-0.04 0.08,-0.07 0.14,-0.09 0.06,-0.02 0.11,-0.03 0.17,-0.03 0.13,0 0.23,0.04 0.32,0.12l0.82 0.9 2.53 -2.68c0.08,-0.09 0.19,-0.13 0.32,-0.13 0.13,0 0.24,0.04 0.32,0.11 0.04,0.04 0.07,0.09 0.09,0.15 0.03,0.06 0.04,0.12 0.04,0.18 0,0.11 -0.03,0.2 -0.1,0.29l-2.84 3.02 -0.03 0.03 -0.02 0.02c-0.08,0.08 -0.18,0.11 -0.31,0.11z"/>
  </g>
 </g>
</svg>
