<?xml version="1.0" encoding="UTF-8"?>
<!DOCTYPE svg PUBLIC "-//W3C//DTD SVG 1.1//EN" "http://www.w3.org/Graphics/SVG/1.1/DTD/svg11.dtd">
<!-- Creator: CorelDRAW 2020 (64-Bit Evaluation Version) -->
<svg xmlns="http://www.w3.org/2000/svg" xml:space="preserve" width="60px" height="60px" version="1.1" style="shape-rendering:geometricPrecision; text-rendering:geometricPrecision; image-rendering:optimizeQuality; fill-rule:evenodd; clip-rule:evenodd"
viewBox="0 0 5.89 5.89"
 xmlns:xlink="http://www.w3.org/1999/xlink"
 xmlns:xodm="http://www.corel.com/coreldraw/odm/2003">
 <defs>
  <style type="text/css">
   <![CDATA[
    .fil0 {fill:#263674;fill-rule:nonzero}
   ]]>
  </style>
 </defs>
 <g id="Layer_x0020_1">
  <metadata id="CorelCorpID_0Corel-Layer"/>
  <path class="fil0" d="M3.09 0l2.8 0 0 2.39 -3.02 0 0 -2.39 0.22 0zm2.34 0.45l-2.11 0 0 1.48 2.11 0 0 -1.48z"/>
  <path class="fil0" d="M3.53 2.67l2.36 0 0 3.22 -2.58 0 0 -3.22 0.22 0zm1.9 0.45l-1.67 0 0 2.31 1.67 0 0 -2.31z"/>
  <path class="fil0" d="M0.23 0l2.35 0 0 3.21 -2.58 0 0 -3.21 0.23 0zm1.9 0.45l-1.68 0 0 2.31 1.68 0 0 -2.31z"/>
  <path class="fil0" d="M0.23 3.5l2.79 0 0 2.39 -3.02 0 0 -2.39 0.23 0zm2.34 0.45l-2.12 0 0 1.48 2.12 0 0 -1.48z"/>
 </g>
</svg>
