<?xml version="1.0" encoding="UTF-8"?>
<!DOCTYPE svg PUBLIC "-//W3C//DTD SVG 1.1//EN" "http://www.w3.org/Graphics/SVG/1.1/DTD/svg11.dtd">
<!-- Creator: CorelDRAW 2020 (64-Bit Evaluation Version) -->
<svg xmlns="http://www.w3.org/2000/svg" xml:space="preserve" width="60px" height="60px" version="1.1" style="shape-rendering:geometricPrecision; text-rendering:geometricPrecision; image-rendering:optimizeQuality; fill-rule:evenodd; clip-rule:evenodd"
viewBox="0 0 5.89 5.89"
 xmlns:xlink="http://www.w3.org/1999/xlink"
 xmlns:xodm="http://www.corel.com/coreldraw/odm/2003">
 <defs>
  <style type="text/css">
   <![CDATA[
    .fil0 {fill:#263674;fill-rule:nonzero}
   ]]>
  </style>
 </defs>
 <g id="Layer_x0020_1">
  <metadata id="CorelCorpID_0Corel-Layer"/>
  <path class="fil0" d="M0.68 2.94l0.4 -0.04c0.03,0.15 0.08,0.27 0.15,0.34 0.08,0.07 0.18,0.11 0.31,0.11 0.13,0 0.23,-0.03 0.3,-0.1 0.07,-0.06 0.1,-0.14 0.1,-0.23 0,-0.05 -0.01,-0.1 -0.04,-0.14 -0.03,-0.04 -0.08,-0.07 -0.15,-0.1 -0.05,-0.02 -0.16,-0.06 -0.33,-0.11 -0.23,-0.06 -0.38,-0.14 -0.47,-0.23 -0.13,-0.13 -0.19,-0.3 -0.19,-0.48 0,-0.13 0.03,-0.24 0.08,-0.34 0.06,-0.11 0.15,-0.19 0.26,-0.25 0.11,-0.05 0.25,-0.08 0.41,-0.08 0.26,0 0.45,0.07 0.58,0.2 0.13,0.13 0.2,0.31 0.21,0.53l-0.42 0.01c-0.02,-0.12 -0.06,-0.21 -0.11,-0.26 -0.06,-0.05 -0.15,-0.08 -0.27,-0.08 -0.12,0 -0.21,0.03 -0.28,0.09 -0.04,0.03 -0.07,0.08 -0.07,0.14 0,0.06 0.03,0.11 0.07,0.15 0.05,0.05 0.18,0.1 0.38,0.16 0.2,0.05 0.35,0.11 0.45,0.17 0.1,0.06 0.17,0.14 0.23,0.24 0.05,0.1 0.08,0.23 0.08,0.38 0,0.14 -0.03,0.26 -0.1,0.38 -0.06,0.12 -0.16,0.21 -0.28,0.27 -0.12,0.06 -0.27,0.09 -0.45,0.09 -0.26,0 -0.46,-0.07 -0.6,-0.21 -0.14,-0.14 -0.23,-0.34 -0.25,-0.61z"/>
  <polygon class="fil0" points="1.7,0.61 1.7,1.53 1.34,1.53 1.34,0.61 "/>
  <polygon class="fil0" points="1.7,3.56 1.7,4.44 1.34,4.44 1.34,3.56 "/>
  <polygon class="fil0" points="3.55,2.02 3.55,4.67 1.77,4.67 1.77,4.21 3.09,4.21 3.09,2.02 "/>
  <polygon class="fil0" points="2.12,4.67 0,4.67 0,0 0.83,0 0.83,0.45 0.45,0.45 0.45,4.21 2.12,4.21 "/>
  <path class="fil0" d="M5.89 2.52l0 3.37 -2.34 0c-0.35,0 -0.66,-0.15 -0.89,-0.37 -0.23,-0.23 -0.37,-0.54 -0.37,-0.89l0.46 0c0,0.22 0.09,0.42 0.23,0.57 0.15,0.14 0.35,0.23 0.57,0.23l1.88 0 0 -2.91 0.46 0z"/>
  <path class="fil0" d="M4.14 2.93l-1.6 -1.31c-0.03,-0.02 -0.05,-0.04 -0.07,-0.06 -0.13,-0.13 -0.23,-0.31 -0.25,-0.5 -0.03,-0.2 0.01,-0.4 0.14,-0.56 0.02,-0.02 0.03,-0.04 0.05,-0.05 0.15,-0.16 0.35,-0.27 0.56,-0.29 0.2,-0.03 0.41,0.01 0.58,0.16l2.01 1.61c0.34,0.27 0.33,0.45 0.32,0.91l0 0.04 -0.45 -0.01 0 -0.04c0.01,-0.3 0.01,-0.42 -0.15,-0.55l-2.01 -1.61c-0.07,-0.06 -0.16,-0.08 -0.24,-0.07 -0.11,0.02 -0.21,0.08 -0.3,0.17l-0.02 0.01c-0.04,0.06 -0.06,0.14 -0.05,0.21 0.02,0.09 0.06,0.18 0.13,0.25l0.03 0.03 1.61 1.31 -0.29 0.35z"/>
 </g>
</svg>
