<svg xmlns="http://www.w3.org/2000/svg" xmlns:xlink="http://www.w3.org/1999/xlink" viewBox="0 0 2645.09 1627.58"><defs><style>.cls-1{fill:#f7ce00;}.cls-2{isolation:isolate;}.cls-3{opacity:0.1;}.cls-4{fill:#25336b;}.cls-5,.cls-7{fill:#b3becc;}.cls-6{fill:#d4d8df;}.cls-7{opacity:0.34;}.cls-8{clip-path:url(#clip-path);}.cls-9{fill:#f7bf00;}.cls-10{fill:#9f9f9f;}.cls-11{fill:#35b568;}.cls-12{font-size:45.79px;fill:#fff;font-family:Ancillary-Bold, Ancillary;font-weight:700;}.cls-13{letter-spacing:0.02em;}.cls-14{opacity:0.2;}.cls-15{fill:#2b4faa;}.cls-16,.cls-18{fill:#3ece78;}.cls-17{fill:#21b75d;}.cls-18{fill-rule:evenodd;}.cls-19{fill:#f8f8f8;mix-blend-mode:soft-light;}.cls-20{fill:#f7b500;}</style><clipPath id="clip-path"><rect class="cls-1" x="726.92" y="584.73" width="1128.57" height="708.05"/></clipPath></defs><g class="cls-2"><g id="Layer_2" data-name="Layer 2"><g id="OBJECTS"><g class="cls-3"><path class="cls-4" d="M2249.65,709.12c43.9.06,79.11-34.32,79.47-77.63.36-42.48-35.74-79-78.43-79.45-43.22-.4-78.41,34.73-78.54,78.43C2172,675.35,2205.22,709.05,2249.65,709.12Z"/><path class="cls-4" d="M1897.86,157.19c42.93-.19,78.46-35.66,78.7-78.57A78.21,78.21,0,0,0,1898.46,0c-44.43-.13-78.73,33.26-79.12,77C1818.93,121.71,1853.88,157.39,1897.86,157.19Z"/><path class="cls-4" d="M1733.33,157.17c18.65.35,33.75-14.89,34-34.29.22-19.92-13.42-34.49-32.93-35.17-20-.69-35.24,14.55-35.12,35.08C1699.36,142.05,1714,156.81,1733.33,157.17Z"/><circle class="cls-4" cx="235.08" cy="1184.07" r="235.08" transform="translate(-768.41 513.03) rotate(-45)"/><path class="cls-4" d="M526.45,982.36c50.58,69.12,66.4,147.06,54.39,230.69-12.51,87.11-47.24,165.93-96.69,238C458.82,1488,431.82,1523.75,405,1559.6a498.85,498.85,0,0,0-45.72,64.62H2644.35c4.94-77.14-14.66-157.3-64-229.11-54.26-79-65.39-158.88-32.12-249.56q4.83-13.18,8.3-26.21a218.76,218.76,0,0,0,27.25-106c0-121.4-98.41-219.8-219.8-219.8a221.74,221.74,0,0,0-34.5,2.71c-5.6-.36-11.22-.64-16.77-1.12-43.31-3.74-83.81-16-116.75-45.09-83.26-73.5-114.9-164-85-272.84,9.93-36.15,14.11-72.49,6.05-109.13-18.14-82.48-67.5-139.31-148.11-163.66-82-24.77-155.45-4.58-217.12,55.62-42.61,41.6-90.71,75.69-147.83,92.71-164.33,49-314.18,21.89-443.24-94.22C1000.81,114.61,787.49,86.57,607.6,189.21,411.54,301.08,293.9,557.32,408.53,795.8,440.69,862.72,482.9,922.83,526.45,982.36Z"/></g><path class="cls-5" d="M1945.27,1623.37H627.69a50.31,50.31,0,0,1-50.32-50.31v-19.37l1418.21-.36v19.73A50.3,50.3,0,0,1,1945.27,1623.37Z"/><path class="cls-6" d="M709.57,1331.34,581.68,1539a28.7,28.7,0,0,0,24.44,43.76H1966.83a28.7,28.7,0,0,0,24.58-43.53L1866.13,1331.6a34.53,34.53,0,0,0-29.57-16.69H739A34.53,34.53,0,0,0,709.57,1331.34Z"/><path class="cls-7" d="M892.19,1356.17l-38.69,92.58a9.53,9.53,0,0,0,8.79,13.2h856.16a9.53,9.53,0,0,0,8.79-13.2l-38.69-92.58a9.53,9.53,0,0,0-8.79-5.86H901A9.54,9.54,0,0,0,892.19,1356.17Z"/><path class="cls-7" d="M1139.94,1498.51l-6.91,43.81a9.74,9.74,0,0,0,9.63,11.27h295.43a9.75,9.75,0,0,0,9.63-11.27l-6.92-43.81a9.75,9.75,0,0,0-9.63-8.23h-281.6A9.76,9.76,0,0,0,1139.94,1498.51Z"/><rect class="cls-1" x="726.92" y="584.73" width="1128.57" height="708.05"/><g class="cls-8"><polygon class="cls-9" points="1875.92 605.16 1875.92 1313.21 747.35 1313.21 1185.34 1043.15 1875.92 605.16"/></g><rect class="cls-10" x="726.92" y="584.73" width="18.46" height="708.05"/><rect class="cls-10" x="1837.03" y="584.73" width="18.46" height="708.05"/><rect class="cls-10" x="726.92" y="584.73" width="1128.57" height="18.46"/><rect class="cls-11" x="1125.76" y="1091.5" width="358.55" height="125.65" rx="2.22"/><text class="cls-12" transform="translate(1217.19 1168.29)">C<tspan class="cls-13" x="27.25" y="0">OLL</tspan><tspan x="118.28" y="0">ECT</tspan></text><path class="cls-14" d="M1484.31,1122.14v64.36a30.64,30.64,0,0,1-30.64,30.64H1156.4a30.64,30.64,0,0,1-30.64-30.64"/><rect class="cls-15" x="1648" y="1223.9" width="611.12" height="398.56"/><path class="cls-15" d="M2086.4,1039.11V958.19h-73.07a49.36,49.36,0,0,0-46.5,51.27V1091h73.07A49.43,49.43,0,0,0,2086.4,1039.11Z"/><path class="cls-15" d="M1867.19,1091h73.07v-80.92a49.43,49.43,0,0,0-46.5-51.93h-73.07v80.92A49.44,49.44,0,0,0,1867.19,1091Z"/><rect class="cls-4" x="1887.12" y="1223.9" width="132.85" height="395.8"/><rect class="cls-4" x="2046.55" y="1117.61" width="212.57" height="79.71"/><rect class="cls-4" x="1647.98" y="1117.61" width="212.57" height="79.71"/><rect class="cls-4" x="1887.12" y="1117.61" width="132.85" height="79.71"/><circle class="cls-11" cx="1674.08" cy="1472.67" r="154.91"/><circle class="cls-16" cx="1674.07" cy="1472.67" r="143.8" transform="translate(-551.01 1615.08) rotate(-45)"/><path class="cls-16" d="M1707.33,1612.57l-49.62-282.77a143.8,143.8,0,0,1,49.62,282.77Z"/><circle class="cls-17" cx="1674.07" cy="1472.67" r="109.29" transform="translate(-551.01 1615.08) rotate(-45)"/><g id="Layer_1-2" data-name="Layer_1"><g id="_2074208353808" data-name=" 2074208353808"><path class="cls-18" d="M1715.2,1505.81l5.71-8.48a68.39,68.39,0,0,1,5.78,10.4c.56,1.47-1.48,3.8-2.57,5.36-5.42,7.81-13.34,13.58-21.62,17.68a61.79,61.79,0,0,1-27.17,6.19c-16.23,1-32.58-7-43.92-18.06a61,61,0,0,1-17.88-43.75c.11-8.43,1.65-16.86,4.94-23.84,0,0,2.21-6.24,3.89-6.54l19.89,37.48c2.45,5.77,4.92-1.86,6.78-5l4.36,8.13s2.59,4.27,5.21-.09l6.84-12.58s1.44-2,2.26.56l8.93,16.88s1.56,4.18,3.6-.65l12.37-23s1.62-3.33,3.62-.17c.39.59,4,5.56,3.48,8.78,0,0,.29,2.41-2.92,7.48-2.68,5.48-9.51,18.47-14,24.83,0,0-4.39,6.4-8.93.89a102.56,102.56,0,0,1-7.51-12.93l-2.42-4.1s-.64-1.33-1.41,0c-2.12,3.71-8.13,16-11.2,17.85,0,0-3.56,4.33-8.69-2.8l-17.35-31.93c0,.18-.06.59-.06.76a50.21,50.21,0,0,0,90,30.61Z"/><path class="cls-18" d="M1635.33,1444.86l-5.69,8.48a62.72,62.72,0,0,1-5.77-10.4c-.59-1.47,1.47-3.8,2.53-5.39,5.42-7.8,13.35-13.55,21.62-17.64a61.75,61.75,0,0,1,27.17-6.19c16.26-1,32.61,7,43.92,18.06A60.76,60.76,0,0,1,1737,1475.5c-.12,8.45-1.65,16.88-5,23.83,0,0-2.21,6.28-3.89,6.54q-9.95-18.69-19.89-37.44c-2.44-5.78-4.92,1.85-6.77,5L1697,1465s-2.65-3.68-5.3.65l-6.57,12.25s-1.48,2-2.3-.55l-8.93-16.89s-1.56-4.18-3.59.65l-12.38,23s-1.62,3.33-3.62.18c-.35-.62-4-5.57-3.48-8.78,0,0-.29-2.42,2.92-7.49,2.68-5.47,9.52-18.47,14-24.83,0,0,4.39-6.42,8.93-.88a100.5,100.5,0,0,1,7.51,12.93l2.42,4.09s.68,1.33,1.41,0c2.12-3.71,8.13-16,11.2-17.88,0,0,3.59-4.3,8.69,2.83l17.35,31.94c0-.18.06-.62.06-.8a50.19,50.19,0,0,0-50.2-50.17,49.85,49.85,0,0,0-39.8,19.59Z"/></g></g><path class="cls-19" d="M1729.86,1605.24A143.84,143.84,0,0,0,1681.4,1329Z"/><path class="cls-19" d="M1663.62,1616.12l-48.21-274.78a144.62,144.62,0,0,1,33.81-10.31q4.26-.73,8.49-1.23l49.62,282.77q-4.15,1-8.4,1.73A143.38,143.38,0,0,1,1663.62,1616.12Z"/><polygon class="cls-1" points="1556.37 1404.79 1576.98 1423.71 1576.04 1451.68 1594.96 1431.06 1622.93 1432 1602.31 1413.08 1603.26 1385.11 1584.33 1405.73 1556.37 1404.79"/><polygon class="cls-20" points="1594.96 1431.06 1576.04 1451.68 1576.98 1423.71 1556.37 1404.79 1622.93 1432 1594.96 1431.06"/><polygon class="cls-1" points="1535.44 1323.79 1550.79 1337.88 1550.09 1358.7 1564.17 1343.35 1584.99 1344.05 1569.64 1329.97 1570.35 1309.14 1556.26 1324.49 1535.44 1323.79"/><polygon class="cls-20" points="1564.17 1343.35 1550.09 1358.7 1550.79 1337.88 1535.44 1323.79 1584.99 1344.05 1564.17 1343.35"/><polygon class="cls-1" points="1474.08 1379.18 1486.41 1390.5 1485.84 1407.22 1497.15 1394.89 1513.88 1395.45 1501.55 1384.14 1502.11 1367.42 1490.8 1379.75 1474.08 1379.18"/><polygon class="cls-20" points="1497.15 1394.89 1485.84 1407.22 1486.41 1390.5 1474.08 1379.18 1513.88 1395.45 1497.15 1394.89"/><path class="cls-11" d="M1355.67,790.56l84.21,13-61.57,58.92,13.63,84.12-75-40.35-75.79,39,15.18-83.85-60.47-60,84.43-11.48,38.42-76.06Z"/><path class="cls-14" d="M1316.89,906.21l-75.79,39,15.18-83.85-60.47-60,84.43-11.48,38.42-76.06"/><path class="cls-11" d="M1147,891.62l51.79,8-37.86,36.23,8.38,51.73-46.15-24.81-46.61,24,9.34-51.56-37.19-36.92,51.92-7.06,23.63-46.77Z"/><path class="cls-14" d="M1123.17,962.74l-46.61,24,9.34-51.57-37.19-36.92,51.92-7.05,23.63-46.78"/><path class="cls-11" d="M1551.54,891.62l51.78,8-37.86,36.23,8.38,51.73-46.15-24.81-46.61,24,9.34-51.56-37.19-36.92,51.93-7.06,23.62-46.77Z"/><path class="cls-14" d="M1527.69,962.74l-46.61,24,9.34-51.57-37.19-36.92,51.93-7.05,23.62-46.78"/></g></g></g></svg>