<svg xmlns="http://www.w3.org/2000/svg" xmlns:xlink="http://www.w3.org/1999/xlink" viewBox="0 0 2645.09 1624.22"><defs><style>.cls-1,.cls-27{fill:#f7ce00;}.cls-2{isolation:isolate;}.cls-3{opacity:0.1;}.cls-4{fill:#25336b;}.cls-5,.cls-7{fill:#b3becc;}.cls-6{fill:#d4d8df;}.cls-7{opacity:0.34;}.cls-8{clip-path:url(#clip-path);}.cls-9{fill:#f7bf00;}.cls-10{fill:#9f9f9f;}.cls-11{fill:#f7b500;}.cls-12{fill:#2b4faa;}.cls-13,.cls-15{fill:#fff;}.cls-14{fill:#071835;opacity:0.15;}.cls-15{font-size:45.79px;font-family:Ancillary-Bold, Ancillary;font-weight:700;}.cls-16{letter-spacing:-0.03em;}.cls-17{letter-spacing:0.02em;}.cls-18{letter-spacing:0em;}.cls-19{opacity:0.2;}.cls-20{fill:#35b568;}.cls-21,.cls-23{fill:#3ece78;}.cls-22{fill:#21b75d;}.cls-23,.cls-27{fill-rule:evenodd;}.cls-24{fill:#f8f8f8;mix-blend-mode:soft-light;}.cls-25{fill:#f7ae00;}.cls-26{fill:#f79c00;}.cls-28{fill:#04bfad;}.cls-29{fill:#00a79d;}</style><clipPath id="clip-path"><rect class="cls-1" x="751.96" y="584.73" width="1128.57" height="708.05"/></clipPath></defs><g class="cls-2"><g id="Layer_2" data-name="Layer 2"><g id="OBJECTS"><g class="cls-3"><path class="cls-4" d="M2249.65,709.12c43.9.06,79.11-34.32,79.47-77.63.36-42.48-35.74-79-78.43-79.45-43.22-.4-78.41,34.73-78.54,78.43C2172,675.35,2205.22,709.05,2249.65,709.12Z"/><path class="cls-4" d="M1897.86,157.19c42.93-.19,78.46-35.66,78.7-78.57A78.21,78.21,0,0,0,1898.46,0c-44.43-.13-78.73,33.26-79.12,77C1818.93,121.71,1853.88,157.39,1897.86,157.19Z"/><path class="cls-4" d="M1733.33,157.17c18.65.35,33.75-14.89,34-34.29.22-19.92-13.42-34.49-32.93-35.17-20-.69-35.24,14.55-35.12,35.08C1699.36,142.05,1714,156.81,1733.33,157.17Z"/><circle class="cls-4" cx="235.08" cy="1184.07" r="235.08" transform="translate(-768.41 513.03) rotate(-45)"/><path class="cls-4" d="M526.45,982.36c50.58,69.12,66.4,147.06,54.39,230.69-12.51,87.11-47.24,165.93-96.69,238C458.82,1488,431.82,1523.75,405,1559.6a498.85,498.85,0,0,0-45.72,64.62H2644.35c4.94-77.14-14.66-157.3-64-229.11-54.26-79-65.39-158.88-32.12-249.56q4.83-13.18,8.3-26.21a218.76,218.76,0,0,0,27.25-106c0-121.4-98.41-219.8-219.8-219.8a221.74,221.74,0,0,0-34.5,2.71c-5.6-.36-11.22-.64-16.77-1.12-43.31-3.74-83.81-16-116.75-45.09-83.26-73.5-114.9-164-85-272.84,9.93-36.15,14.11-72.49,6.05-109.13-18.14-82.48-67.5-139.31-148.11-163.66-82-24.77-155.45-4.58-217.12,55.62-42.61,41.6-90.71,75.69-147.83,92.71-164.33,49-314.18,21.89-443.24-94.22C1000.81,114.61,787.49,86.57,607.6,189.21,411.54,301.08,293.9,557.32,408.53,795.8,440.69,862.72,482.9,922.83,526.45,982.36Z"/></g><path class="cls-5" d="M1970.3,1623.37H652.72a50.31,50.31,0,0,1-50.32-50.31v-19.37l1418.22-.36v19.73A50.31,50.31,0,0,1,1970.3,1623.37Z"/><path class="cls-6" d="M734.6,1331.34,606.71,1539a28.71,28.71,0,0,0,24.45,43.76H1991.87a28.71,28.71,0,0,0,24.58-43.53L1891.17,1331.6a34.54,34.54,0,0,0-29.58-16.69H764A34.55,34.55,0,0,0,734.6,1331.34Z"/><path class="cls-7" d="M917.23,1356.17l-38.69,92.58a9.52,9.52,0,0,0,8.79,13.2h856.16a9.53,9.53,0,0,0,8.79-13.2l-38.7-92.58a9.52,9.52,0,0,0-8.79-5.86H926A9.53,9.53,0,0,0,917.23,1356.17Z"/><path class="cls-7" d="M1165,1498.51l-6.92,43.81a9.75,9.75,0,0,0,9.63,11.27h295.43a9.75,9.75,0,0,0,9.63-11.27l-6.92-43.81a9.74,9.74,0,0,0-9.63-8.23H1174.61A9.75,9.75,0,0,0,1165,1498.51Z"/><rect class="cls-1" x="751.96" y="584.73" width="1128.57" height="708.05"/><g class="cls-8"><polygon class="cls-9" points="1900.95 605.16 1900.95 1313.21 772.39 1313.21 1210.38 1043.15 1900.95 605.16"/></g><rect class="cls-10" x="751.96" y="584.73" width="18.46" height="708.05"/><rect class="cls-10" x="1862.06" y="584.73" width="18.46" height="708.05"/><rect class="cls-10" x="751.96" y="584.73" width="1128.57" height="18.46"/><polygon class="cls-1" points="1999.02 851.18 2016.53 843.78 2033.56 852.25 2026.15 834.74 2034.63 817.72 2017.11 825.12 2000.09 816.65 2007.49 834.16 1999.02 851.18"/><polygon class="cls-11" points="2026.15 834.74 2033.56 852.25 2016.53 843.78 1999.02 851.18 2034.63 817.72 2026.15 834.74"/><polygon class="cls-1" points="1943.05 841.26 1956.09 835.75 1968.76 842.06 1963.25 829.02 1969.56 816.35 1956.52 821.86 1943.85 815.55 1949.36 828.59 1943.05 841.26"/><polygon class="cls-11" points="1963.25 829.02 1968.76 842.06 1956.09 835.75 1943.05 841.26 1969.56 816.35 1963.25 829.02"/><polygon class="cls-1" points="1959.97 894.82 1970.44 890.39 1980.62 895.46 1976.19 884.99 1981.26 874.81 1970.79 879.24 1960.61 874.17 1965.04 884.64 1959.97 894.82"/><polygon class="cls-11" points="1976.19 884.99 1980.62 895.46 1970.44 890.39 1959.97 894.82 1981.26 874.81 1976.19 884.99"/><path class="cls-12" d="M1351.8,947.85s11.59-156.38-131.66-174.21C1097.33,761.1,1060,875.22,1060,875.22s-37-35.56-87.16-6.51c-44.89,27.72-37,78.48-37,78.48s-99.73,19.37-99.73,121c2.23,101.54,108.3,102.56,108.3,102.56h390.24s98.73.11,112.59-96.49C1453.84,968.67,1351.8,947.85,1351.8,947.85Z"/><polygon class="cls-13" points="1198.63 1006.81 1198.63 889.99 1157.38 889.99 1157.38 889.56 1115.75 889.56 1115.75 1006.38 1053.21 1006.38 1115.75 1068.93 1157 1110.36 1157 1111.17 1198.63 1069.36 1261.17 1006.81 1198.63 1006.81"/><path class="cls-14" d="M1060,876s-37-35.55-87.16-6.51c-44.89,27.73-37,78.49-37,78.49s-99.73,19.37-99.73,121c2.23,101.54,108.3,102.56,108.3,102.56H1303"/><rect class="cls-4" x="1435.8" y="789.07" width="358.55" height="125.65" rx="2.22"/><text class="cls-15" transform="translate(1488.92 865.86)">D<tspan class="cls-16" x="31.82" y="0">O</tspan><tspan x="65.62" y="0">W</tspan><tspan class="cls-17" x="108.57" y="0">N</tspan><tspan class="cls-18" x="142.73" y="0">L</tspan><tspan class="cls-16" x="169.29" y="0">O</tspan><tspan x="203.08" y="0">AD</tspan></text><path class="cls-19" d="M1794.35,819.72v64.35a30.64,30.64,0,0,1-30.64,30.65H1466.44a30.64,30.64,0,0,1-30.64-30.65"/><path class="cls-4" d="M1543.37,1006.69h457a0,0,0,0,1,0,0V1238a0,0,0,0,1,0,0H1534.69a0,0,0,0,1,0,0v-222.6A8.69,8.69,0,0,1,1543.37,1006.69Z"/><circle class="cls-20" cx="2090.31" cy="1009.33" r="111.65"/><circle class="cls-21" cx="2090.31" cy="1009.33" r="103.64" transform="translate(-101.47 1773.7) rotate(-45)"/><path class="cls-21" d="M2114.28,1110.17l-35.76-203.8a103.64,103.64,0,0,1,35.76,203.8Z"/><circle class="cls-22" cx="2090.31" cy="1009.33" r="78.77" transform="translate(-230.68 975.64) rotate(-24.94)"/><g id="Layer_1-2" data-name="Layer_1"><g id="_2074208353808" data-name=" 2074208353808"><path class="cls-23" d="M2120,1033.22l4.12-6.11a48.68,48.68,0,0,1,4.16,7.49c.4,1.07-1.06,2.74-1.85,3.87-3.9,5.62-9.62,9.79-15.58,12.74a44.49,44.49,0,0,1-19.58,4.46c-11.7.7-23.48-5.06-31.66-13a43.93,43.93,0,0,1-12.89-31.53,42.26,42.26,0,0,1,3.57-17.18s1.59-4.5,2.8-4.71q7.17,13.5,14.33,27c1.77,4.16,3.55-1.34,4.89-3.57l3.14,5.86s1.87,3.08,3.76-.06l4.93-9.07s1-1.42,1.63.4l6.43,12.17s1.13,3,2.59-.47l8.92-16.6s1.17-2.4,2.61-.13c.28.42,2.89,4,2.51,6.33,0,0,.21,1.74-2.1,5.39-1.93,4-6.86,13.31-10.11,17.9,0,0-3.16,4.61-6.43.64a73.39,73.39,0,0,1-5.42-9.32l-1.74-3s-.47-1-1,0c-1.53,2.67-5.86,11.53-8.07,12.86,0,0-2.57,3.13-6.26-2l-12.51-23c0,.13,0,.42,0,.55a36.18,36.18,0,0,0,64.87,22.06Z"/><path class="cls-23" d="M2062.38,989.29l-4.09,6.12a45.58,45.58,0,0,1-4.16-7.5c-.43-1.06,1.06-2.74,1.82-3.89,3.91-5.62,9.62-9.76,15.59-12.71a44.41,44.41,0,0,1,19.57-4.46c11.73-.7,23.51,5,31.66,13a43.8,43.8,0,0,1,12.89,31.51,41.93,41.93,0,0,1-3.57,17.18s-1.59,4.52-2.8,4.72q-7.17-13.49-14.33-27c-1.76-4.16-3.55,1.34-4.88,3.57l-3.25-6s-1.91-2.65-3.83.47l-4.73,8.84s-1.06,1.42-1.66-.41l-6.43-12.17s-1.13-3-2.59.47l-8.92,16.61s-1.17,2.4-2.61.12c-.26-.44-2.89-4-2.51-6.32,0,0-.21-1.74,2.11-5.4,1.93-3.95,6.85-13.31,10.1-17.9,0,0,3.17-4.63,6.44-.63a73.52,73.52,0,0,1,5.41,9.32l1.74,3s.49,1,1,0c1.53-2.68,5.86-11.53,8.07-12.89,0,0,2.59-3.1,6.26,2l12.51,23c0-.12,0-.44,0-.57a36.17,36.17,0,0,0-36.18-36.16,36,36,0,0,0-28.69,14.12Z"/></g></g><path class="cls-24" d="M2130.52,1104.88a103.67,103.67,0,0,0-34.93-199.07Z"/><path class="cls-24" d="M2082.78,1112.73,2048,914.68a104.34,104.34,0,0,1,24.37-7.43c2-.36,4.08-.65,6.12-.88l35.76,203.8c-2,.47-4,.89-6.06,1.25A104.2,104.2,0,0,1,2082.78,1112.73Z"/><circle class="cls-20" cx="1942.49" cy="1138.33" r="111.65"/><circle class="cls-21" cx="1942.49" cy="1138.33" r="103.64" transform="translate(-235.98 1706.96) rotate(-45)"/><path class="cls-21" d="M1966.45,1239.17l-35.76-203.81a103.65,103.65,0,0,1,35.76,203.81Z"/><circle class="cls-22" cx="1942.49" cy="1138.33" r="78.77" transform="translate(-298.87 925.34) rotate(-24.94)"/><g id="Layer_1-3" data-name="Layer_1"><g id="_2074208353808-2" data-name=" 2074208353808"><path class="cls-23" d="M1972.13,1162.22l4.11-6.11a49.66,49.66,0,0,1,4.17,7.49c.4,1.06-1.07,2.74-1.85,3.87-3.91,5.62-9.62,9.78-15.59,12.74a44.48,44.48,0,0,1-19.57,4.46c-11.7.7-23.49-5.06-31.66-13a43.91,43.91,0,0,1-12.89-31.53,42.07,42.07,0,0,1,3.57-17.18s1.59-4.5,2.8-4.71l14.33,27c1.76,4.17,3.55-1.33,4.88-3.56l3.15,5.86s1.87,3.08,3.76-.07l4.92-9.06s1-1.43,1.64.4l6.43,12.17s1.13,3,2.59-.47l8.92-16.6s1.17-2.4,2.61-.13c.28.42,2.89,4,2.51,6.33,0,0,.21,1.74-2.11,5.39-1.93,4-6.85,13.31-10.1,17.9,0,0-3.17,4.61-6.44.64a74.74,74.74,0,0,1-5.41-9.33l-1.74-3s-.47-1-1,0c-1.53,2.68-5.86,11.53-8.07,12.87,0,0-2.57,3.12-6.26-2l-12.51-23c0,.12,0,.42,0,.55a36.18,36.18,0,0,0,64.87,22.06Z"/><path class="cls-23" d="M1914.56,1118.29l-4.1,6.11a46.27,46.27,0,0,1-4.16-7.49c-.42-1.06,1.06-2.74,1.83-3.89,3.9-5.62,9.62-9.76,15.58-12.72a44.56,44.56,0,0,1,19.58-4.46c11.72-.7,23.51,5,31.66,13a43.8,43.8,0,0,1,12.89,31.51,42.09,42.09,0,0,1-3.57,17.18s-1.59,4.52-2.8,4.71q-7.17-13.47-14.33-27c-1.77-4.17-3.55,1.33-4.89,3.56l-3.25-6s-1.91-2.65-3.82.47l-4.73,8.83s-1.07,1.43-1.66-.4l-6.43-12.17s-1.13-3-2.59.47l-8.92,16.6s-1.17,2.4-2.61.13c-.26-.44-2.89-4-2.51-6.33,0,0-.21-1.74,2.1-5.39,1.93-4,6.86-13.31,10.11-17.9,0,0,3.16-4.63,6.43-.64a73,73,0,0,1,5.42,9.33l1.74,3s.49,1,1,0c1.53-2.68,5.86-11.53,8.07-12.89,0,0,2.59-3.1,6.26,2l12.51,23c0-.12,0-.44,0-.57a36.17,36.17,0,0,0-36.18-36.16,36,36,0,0,0-28.69,14.12Z"/></g></g><path class="cls-24" d="M1982.7,1233.88a103.67,103.67,0,0,0-34.93-199.08Z"/><path class="cls-24" d="M1935,1241.72l-34.75-198a103.72,103.72,0,0,1,24.37-7.43c2-.36,4.08-.65,6.11-.89l35.76,203.81q-3,.7-6,1.24A103.71,103.71,0,0,1,1935,1241.72Z"/><circle class="cls-1" cx="1798.89" cy="1187.94" r="102.43"/><path class="cls-9" d="M1901.32,1187.94a102.43,102.43,0,0,0-102.43-102.43v204.86A102.43,102.43,0,0,0,1901.32,1187.94Z"/><circle class="cls-9" cx="1798.89" cy="1187.94" r="80.83"/><path class="cls-25" d="M1879.71,1187.94a80.82,80.82,0,0,0-80.82-80.83v161.65A80.81,80.81,0,0,0,1879.71,1187.94Z"/><path class="cls-25" d="M1798.89,1107.11a80.83,80.83,0,1,0,80.82,80.83A80.83,80.83,0,0,0,1798.89,1107.11Zm0,155.45a74.62,74.62,0,1,1,74.62-74.62A74.62,74.62,0,0,1,1798.89,1262.56Z"/><path class="cls-26" d="M1865.91,1142.75a81.26,81.26,0,0,0-21.83-21.83,80.41,80.41,0,0,0-45.19-13.81v6.21a74.62,74.62,0,0,1,0,149.24v6.2a80.84,80.84,0,0,0,67-126Z"/><g id="Layer_1-4" data-name="Layer_1"><g id="_2074208353808-3" data-name=" 2074208353808"><path class="cls-27" d="M1833.44,1216.45l5.13-7.62a62.05,62.05,0,0,1,5.19,9.34c.5,1.32-1.33,3.41-2.31,4.81-4.87,7-12,12.2-19.42,15.88a55.41,55.41,0,0,1-24.4,5.56c-14.58.87-29.26-6.3-39.45-16.22a54.76,54.76,0,0,1-16.06-39.3c.1-7.57,1.48-15.13,4.44-21.41,0,0,2-5.61,3.5-5.87q8.93,16.83,17.86,33.66c2.19,5.19,4.42-1.67,6.08-4.45l3.92,7.31s2.33,3.83,4.68-.08l6.14-11.3s1.3-1.77,2,.5l8,15.16s1.4,3.76,3.23-.58l11.11-20.69s1.45-3,3.25-.16c.35.53,3.6,5,3.13,7.89,0,0,.26,2.17-2.62,6.72-2.41,4.92-8.55,16.59-12.6,22.3,0,0-3.94,5.75-8,.8a92.48,92.48,0,0,1-6.74-11.62l-2.17-3.68s-.59-1.19-1.27,0c-1.91,3.33-7.31,14.37-10.06,16,0,0-3.2,3.88-7.81-2.52l-15.58-28.68c0,.16-.05.53-.05.68a45.1,45.1,0,0,0,80.84,27.5Z"/><path class="cls-27" d="M1761.7,1161.7l-5.11,7.62a57.58,57.58,0,0,1-5.19-9.34c-.52-1.32,1.33-3.41,2.28-4.84,4.87-7,12-12.18,19.42-15.85a55.5,55.5,0,0,1,24.4-5.56c14.61-.87,29.29,6.27,39.45,16.22a54.6,54.6,0,0,1,16.07,39.27c-.11,7.59-1.49,15.16-4.45,21.41,0,0-2,5.63-3.49,5.87q-8.94-16.79-17.86-33.63c-2.2-5.19-4.42,1.67-6.09,4.44l-4.05-7.51s-2.38-3.31-4.76.58l-5.9,11s-1.32,1.77-2.07-.5l-8-15.17s-1.41-3.75-3.23.59L1782,1197s-1.45,3-3.25.16c-.32-.56-3.6-5-3.12-7.89,0,0-.27-2.17,2.62-6.72,2.4-4.92,8.54-16.59,12.59-22.31,0,0,4-5.76,8-.79a92.06,92.06,0,0,1,6.75,11.62l2.17,3.68s.61,1.19,1.27,0c1.9-3.34,7.3-14.37,10-16.06,0,0,3.23-3.87,7.81,2.54l15.59,28.68c0-.16,0-.55,0-.71a45.1,45.1,0,0,0-45.09-45.07,44.86,44.86,0,0,0-35.75,17.6Z"/></g></g><circle class="cls-1" cx="2110.47" cy="1173.12" r="102.43"/><path class="cls-9" d="M2150.63,1078.89A102.43,102.43,0,0,0,2016.24,1133l188.46,80.31A102.42,102.42,0,0,0,2150.63,1078.89Z"/><circle class="cls-9" cx="2110.47" cy="1173.12" r="80.83"/><path class="cls-25" d="M2142.16,1098.76a80.82,80.82,0,0,0-106,42.67l148.71,63.37A80.83,80.83,0,0,0,2142.16,1098.76Z"/><path class="cls-25" d="M2036.12,1141.43a80.82,80.82,0,1,0,106-42.67A80.82,80.82,0,0,0,2036.12,1141.43Zm143,60.94a74.62,74.62,0,1,1-39.4-97.9A74.62,74.62,0,0,1,2179.12,1202.37Z"/><path class="cls-26" d="M2095.17,1093.74a81.48,81.48,0,0,0-28.64,11.53,80.44,80.44,0,0,0-30.41,36.16l5.71,2.43a74.62,74.62,0,0,1,137.29,58.51l5.71,2.43a80.84,80.84,0,0,0-89.66-111.06Z"/><g id="Layer_1-5" data-name="Layer_1"><g id="_2074208353808-4" data-name=" 2074208353808"><path class="cls-27" d="M2150.24,1152.51l-5-7.71a62.7,62.7,0,0,1,10.63-1.11c1.42.06,2.62,2.56,3.53,4,4.54,7.23,6.52,15.81,7,24.09a55.36,55.36,0,0,1-4.45,24.62c-4.92,13.76-17.27,24.46-30.39,29.94a54.77,54.77,0,0,1-42.45-.63c-6.92-3.06-13.34-7.3-17.95-12.48,0,0-4.38-4-4-5.52l38-3.23c5.63,0,.2-4.72-1.7-7.35l8.25-.73s4.45-.64,1.77-4.34l-8-10.08s-1.12-1.89,1.26-1.68l17.09-1.43s4,.18.73-3.2l-14.68-18.34s-2.18-2.51,1.13-3c.62-.11,6-1.35,8.48.22,0,0,2.1.6,5.16,5,3.58,4.15,11.91,14.37,15.58,20.33,0,0,3.74,5.88-2.41,7.69a91.85,91.85,0,0,1-13.34,1.66l-4.23.55s-1.32.07-.47,1.18c2.32,3.06,10.35,12.35,10.81,15.54,0,0,2.32,4.47-5.38,6.19l-32.49,3.09c.14.07.46.26.61.32a45.09,45.09,0,0,0,57-63.59Z"/><path class="cls-27" d="M2071.75,1197l5,7.69a57.28,57.28,0,0,1-10.63,1.11c-1.42,0-2.62-2.56-3.56-4-4.54-7.23-6.5-15.8-7-24.09a55.47,55.47,0,0,1,4.45-24.62c4.92-13.78,17.25-24.49,30.39-29.94a54.6,54.6,0,0,1,42.42.62c7,3.08,13.37,7.31,18,12.49,0,0,4.41,4,4,5.51l-38,3.25c-5.63,0-.2,4.72,1.71,7.34l-8.5.78s-4,.89-1.34,4.61l7.82,9.74s1.11,1.91-1.27,1.7l-17.1,1.44s-4-.19-.73,3.19l14.68,18.34s2.18,2.51-1.13,3.06c-.63.07-6,1.35-8.48-.22,0,0-2.09-.61-5.15-5-3.59-4.14-11.91-14.36-15.58-20.33,0,0-3.77-5.89,2.41-7.69a92.19,92.19,0,0,1,13.33-1.65l4.23-.55s1.34-.1.48-1.18c-2.32-3.06-10.36-12.36-10.84-15.55,0,0-2.28-4.49,5.4-6.19l32.5-3.09c-.15-.06-.49-.27-.64-.33a45.08,45.08,0,0,0-59.13,23.82,44.81,44.81,0,0,0,2.17,39.78Z"/></g></g><path class="cls-12" d="M2175.41,1623.7l-606.17-.4a34.56,34.56,0,0,1-34.55-34.59l.26-399.55a34.58,34.58,0,0,1,34.6-34.55l606.16.39a34.58,34.58,0,0,1,34.55,34.6l-.26,399.55A34.57,34.57,0,0,1,2175.41,1623.7Z"/><rect class="cls-4" x="2045.25" y="1322.55" width="165.01" height="133.2"/><path class="cls-13" d="M1868.73,1310.68c-56.28,0-97.79,22.54-97.79,22.54,0,126.74,97.79,163.76,97.79,163.76s97.79-37,97.79-163.76C1966.52,1333.22,1925,1310.68,1868.73,1310.68Z"/><path class="cls-13" d="M1966.52,1333.22s-41.51-22.54-97.79-22.54V1497S1966.52,1460,1966.52,1333.22Z"/><path class="cls-13" d="M1868.73,1490.73c-50.06-19.07-96-93.43-92-154,37.17-27.45,157.76-21.73,184,0C1964.84,1397.19,1918.7,1471.78,1868.73,1490.73Z"/><path class="cls-28" d="M1868.73,1484.39c-47.81-20.45-88.07-86.82-86.17-144,37.43-24.23,142.48-20.47,172.35,0C1956.86,1397.48,1916.47,1464,1868.73,1484.39Z"/><path class="cls-29" d="M1868.73,1484.39c47.81-20.45,88.08-86.82,86.18-144a219.7,219.7,0,0,0-86.18-18.22Z"/><path class="cls-13" d="M1909.05,1373.56c2.36,1.78-36.32,37.49-36.92,39-3.14,2.47-8.69,11.66-13.37,6.71-4.45-4.37-19.82-19.83-24.52-24.46-4.85-5,5.71-13.56,10-14.77,3-.92,15.69,14.46,17.82,15.86C1872.76,1389.63,1899,1343.32,1909.05,1373.56Z"/><path class="cls-19" d="M2045.43,1322h96.79a0,0,0,0,1,0,0v91.34a5.44,5.44,0,0,1-5.44,5.44h-91.34a0,0,0,0,1,0,0V1322A0,0,0,0,1,2045.43,1322Z"/><circle class="cls-13" cx="2107.01" cy="1389.81" r="26.02"/></g></g></g></svg>