<svg xmlns="http://www.w3.org/2000/svg" width="50" height="50" viewBox="0 0 181.2 181.2" shape-rendering="geometricPrecision" image-rendering="optimizeQuality" fill-rule="evenodd" xmlns:v="https://vecta.io/nano"><path d="M143.64.16c22.62 1.96 39.37 21.89 37.4 44.51-1.96 22.62-21.89 39.37-44.51 37.4-22.62-1.96-39.37-21.89-37.4-44.51 1.96-22.62 21.89-39.37 44.51-37.4zm-13.48 46.85c-1.66 2.31-2.87-.21-2.87-.21l-2-4.75c-1.14 1.65-2.9 5.8-3.96 2.45l-6.65-15.91a16.78 16.78 0 0 0-2.28 10.72l.01.02 7.96 18.65c2.46 4.25 4.62 2 4.62 2 1.78-.89 5.67-7.47 7.02-9.46.48-.71.78.07.78.07l1.13 2.41c.97 2.61 2.15 5.15 3.5 7.59 2.22 3.31 4.94-.07 4.94-.07 2.78-3.33 7.16-10.28 8.9-13.23 2.01-2.66 1.96-4.04 1.96-4.04.45-1.77-1.3-4.73-1.48-5.09-.91-1.86-1.99-.07-1.99-.07l-7.93 12.3c-1.35 2.61-2.01.2-2.01.2l-4.08-9.88c-.32-1.46-1.22-.42-1.22-.42l-4.35 6.72zm-2.11-2.98c.91 1.87 1.98.07 1.98.07l7.93-12.29c1.35-2.61 2.01-.2 2.01-.2l4.06 9.87c.32 1.46 1.22.43 1.22.43l4.23-6.54c1.66-2.31 2.95-.12 2.95-.12l2.06 4.91c1.15-1.65 2.91-5.8 3.96-2.45l7.1 17.04a16.54 16.54 0 0 0 2.16-6.89c.54-6.12-5.73-17.67-8.29-23.64-2.45-4.24-4.62-1.99-4.62-1.99-1.78.88-5.67 7.47-7.02 9.45-.47.7-.77-.06-.77-.06l-1.13-2.42a58.04 58.04 0 0 0-3.51-7.6c-2.22-3.31-4.95.07-4.95.07-2.77 3.34-7.16 10.29-8.9 13.23-2 2.67-1.96 4.05-1.96 4.05-.45 1.77 1.31 4.73 1.49 5.08z" fill="#2a3874"/><path d="M64.07 113.54c16.23 0 29.43-13.57 29.43-30.24S80.3 53.06 64.07 53.06 34.64 66.63 34.64 83.3s13.2 30.24 29.43 30.24zM0 158.6h.09c.75-8.66 5.33-34.71 33.19-44.05l25.65 19.75 5.14 3.94 5.13-3.94 25.66-19.75c27.92 9.36 32.46 35.51 33.19 44.05h.09v22.6H0v-22.6z" fill="#fdcb08"/></svg>