<?xml version="1.0" encoding="UTF-8"?>
<!DOCTYPE svg PUBLIC "-//W3C//DTD SVG 1.1//EN" "http://www.w3.org/Graphics/SVG/1.1/DTD/svg11.dtd">
<!-- Creator: CorelDRAW 2020 (64-Bit Evaluation Version) -->
<svg xmlns="http://www.w3.org/2000/svg" xml:space="preserve" width="100px" height="100px" version="1.1" style="shape-rendering:geometricPrecision; text-rendering:geometricPrecision; image-rendering:optimizeQuality; fill-rule:evenodd; clip-rule:evenodd"
viewBox="0 0 19.73 19.73"
 xmlns:xlink="http://www.w3.org/1999/xlink"
 xmlns:xodm="http://www.corel.com/coreldraw/odm/2003">
 <defs>
  <style type="text/css">
   <![CDATA[
    .fil0 {fill:#233862}
    .fil2 {fill:#EFB30C}
    .fil1 {fill:white;fill-rule:nonzero}
   ]]>
  </style>
 </defs>
 <g id="Layer_x0020_1">
  <metadata id="CorelCorpID_0Corel-Layer"/>
  <g id="_2295460528432">
   <path class="fil0" d="M14.59 2.67c-0.7,0 -1.38,0.15 -2,0.41 -0.45,-1.77 -2.05,-3.08 -3.96,-3.08 -2.06,0 -3.76,1.52 -4.06,3.49 -1.26,0.1 -2.26,1.16 -2.26,2.46 0,0.24 0.04,0.47 0.1,0.68 -1.24,0.3 -2.2,1.32 -2.41,2.59l19.54 0c0.12,-0.45 0.19,-0.92 0.19,-1.41 0,-2.84 -2.3,-5.14 -5.14,-5.14z"/>
   <path class="fil1" d="M6.02 8.52l1.67 -3.64 0.1 0 1.66 3.64 -0.63 0 -0.23 -0.5 -1.7 0 -0.23 0.5 -0.64 0zm2.3 -1.08l-0.58 -1.27 -0.59 1.27 1.17 0z"/>
   <path id="1" class="fil1" d="M10.03 8.52l0 -3.59 1.18 0c0.2,0 0.38,0.04 0.53,0.1 0.15,0.07 0.28,0.16 0.38,0.27 0.1,0.11 0.18,0.23 0.23,0.37 0.05,0.14 0.07,0.28 0.07,0.43 0,0.14 -0.02,0.28 -0.07,0.42 -0.05,0.14 -0.13,0.26 -0.23,0.37 -0.1,0.11 -0.23,0.2 -0.38,0.26 -0.15,0.07 -0.33,0.1 -0.53,0.1l-0.57 0 0 1.27 -0.61 0zm0.61 -3.01l0 1.16 0.57 0c0.13,0 0.24,-0.02 0.33,-0.08 0.08,-0.06 0.15,-0.13 0.19,-0.22 0.04,-0.08 0.06,-0.18 0.06,-0.28 0,-0.1 -0.02,-0.19 -0.06,-0.28 -0.05,-0.08 -0.11,-0.15 -0.2,-0.21 -0.08,-0.06 -0.19,-0.09 -0.32,-0.09l-0.57 0z"/>
   <polygon id="2" class="fil1" points="13.1,4.93 13.72,4.93 13.72,8.52 13.1,8.52 "/>
   <path class="fil2" d="M3.37 9.22l1.1 0 0 3.8 0 0.01 -1.46 1.56 0 1.61c0.73,0.23 1.26,0.92 1.26,1.72 0,1 -0.81,1.81 -1.8,1.81 -1,0 -1.81,-0.81 -1.81,-1.81 0,-0.8 0.53,-1.49 1.26,-1.72l0 -2.02 0.02 0 -0.02 -0.02 1.45 -1.56 0 -3.38z"/>
   <path class="fil2" d="M17.02 9.22l-1.1 0 0 3.8 0 0.01 1.46 1.56 0 1.61c-0.73,0.23 -1.26,0.92 -1.26,1.72 0,1 0.81,1.81 1.8,1.81 1,0 1.81,-0.81 1.81,-1.81 0,-0.8 -0.53,-1.49 -1.26,-1.72l0 -2.02 -0.02 0 0.02 -0.02 -1.45 -1.56 0 -3.38z"/>
   <path class="fil2" d="M10.41 9.22l-1.09 0 0 6.28c-0.73,0.23 -1.26,0.91 -1.26,1.72 0,1 0.81,1.81 1.81,1.81 0.99,0 1.8,-0.81 1.8,-1.81 0,-0.81 -0.53,-1.49 -1.26,-1.72l0 -6.28z"/>
  </g>
 </g>
</svg>
