<svg width="111" height="55" viewBox="0 0 111 55" fill="none" xmlns="http://www.w3.org/2000/svg">
<rect x="0.960693" y="0.720703" width="110" height="54" rx="5" fill="#2B3139"/>
<path d="M40.0081 11.4387V17.7207H42.2311C43.8331 17.7207 44.8861 16.6767 44.8861 14.5797C44.8861 12.4827 43.8331 11.4387 42.2311 11.4387H40.0081ZM42.2311 16.8207H41.0251V12.3387H42.2311C43.1671 12.3387 43.7971 12.9417 43.7971 14.0757V15.0837C43.7971 16.2177 43.1671 16.8207 42.2311 16.8207ZM47.9157 17.8287C49.2207 17.8287 50.0667 16.8747 50.0667 15.3807C50.0667 13.8867 49.2207 12.9327 47.9157 12.9327C46.6107 12.9327 45.7647 13.8867 45.7647 15.3807C45.7647 16.8747 46.6107 17.8287 47.9157 17.8287ZM47.9157 17.0187C47.2497 17.0187 46.7997 16.6047 46.7997 15.7767V14.9847C46.7997 14.1567 47.2497 13.7427 47.9157 13.7427C48.5817 13.7427 49.0317 14.1567 49.0317 14.9847V15.7767C49.0317 16.6047 48.5817 17.0187 47.9157 17.0187ZM50.6302 13.0407L51.9082 17.7207H52.9882L53.6092 15.5877L53.9782 14.2737H53.9962L54.9862 17.7207H56.0932L57.3532 13.0407H56.4442L55.9582 15.0027L55.5442 16.7757H55.5172L55.0222 15.0027L54.4462 13.0407H53.5642L52.9972 15.0027L52.5112 16.7757H52.4842L52.0612 15.0027L51.5842 13.0407H50.6302ZM58.2877 17.7207H59.2687V14.5887C59.2687 14.0397 59.7727 13.7787 60.2857 13.7787C60.8887 13.7787 61.1677 14.1477 61.1677 14.8767V17.7207H62.1487V14.7507C62.1487 13.5987 61.5817 12.9327 60.6277 12.9327C59.9077 12.9327 59.5117 13.3107 59.3137 13.8147H59.2687V13.0407H58.2877V17.7207ZM64.5074 17.7207H65.1374V16.9197H64.4894V11.0607H63.5084V16.7487C63.5084 17.3517 63.8414 17.7207 64.5074 17.7207ZM67.9108 17.8287C69.2158 17.8287 70.0618 16.8747 70.0618 15.3807C70.0618 13.8867 69.2158 12.9327 67.9108 12.9327C66.6058 12.9327 65.7598 13.8867 65.7598 15.3807C65.7598 16.8747 66.6058 17.8287 67.9108 17.8287ZM67.9108 17.0187C67.2448 17.0187 66.7948 16.6047 66.7948 15.7767V14.9847C66.7948 14.1567 67.2448 13.7427 67.9108 13.7427C68.5768 13.7427 69.0268 14.1567 69.0268 14.9847V15.7767C69.0268 16.6047 68.5768 17.0187 67.9108 17.0187ZM74.5839 17.7207H75.1329V16.9197H74.6379V14.5707C74.6379 13.5267 73.9629 12.9327 72.7569 12.9327C71.8479 12.9327 71.2989 13.3197 70.9929 13.8417L71.5779 14.3727C71.8119 14.0037 72.1449 13.7337 72.6939 13.7337C73.3509 13.7337 73.6569 14.0667 73.6569 14.6337V15.0297H72.8109C71.5059 15.0297 70.8129 15.5067 70.8129 16.4337C70.8129 17.2797 71.3619 17.8287 72.3249 17.8287C73.0089 17.8287 73.5129 17.5227 73.6929 16.9377H73.7379C73.8009 17.3967 74.0709 17.7207 74.5839 17.7207ZM72.6039 17.0817C72.1179 17.0817 71.8119 16.8657 71.8119 16.4517V16.2897C71.8119 15.8847 72.1449 15.6597 72.8289 15.6597H73.6569V16.3347C73.6569 16.7937 73.2069 17.0817 72.6039 17.0817ZM79.0373 16.9467V17.7207H80.0183V11.0607H79.0373V13.8147H78.9923C78.7943 13.2567 78.2993 12.9327 77.6783 12.9327C76.4993 12.9327 75.8153 13.8417 75.8153 15.3807C75.8153 16.9197 76.4993 17.8287 77.6783 17.8287C78.2993 17.8287 78.7943 17.4957 78.9923 16.9467H79.0373ZM77.9753 16.9827C77.3003 16.9827 76.8503 16.5057 76.8503 15.7857V14.9757C76.8503 14.2557 77.3003 13.7787 77.9753 13.7787C78.5693 13.7787 79.0373 14.1027 79.0373 14.5797V16.1817C79.0373 16.6587 78.5693 16.9827 77.9753 16.9827ZM83.7905 13.8417V17.7207H84.7715V13.8417H85.7525V13.0407H84.7715V11.8617H85.7525V11.0607H84.9785C84.1955 11.0607 83.7905 11.5107 83.7905 12.2667V13.0407H83.0795V13.8417H83.7905ZM88.4069 17.8287C89.7119 17.8287 90.5579 16.8747 90.5579 15.3807C90.5579 13.8867 89.7119 12.9327 88.4069 12.9327C87.1019 12.9327 86.2559 13.8867 86.2559 15.3807C86.2559 16.8747 87.1019 17.8287 88.4069 17.8287ZM88.4069 17.0187C87.7409 17.0187 87.2909 16.6047 87.2909 15.7767V14.9847C87.2909 14.1567 87.7409 13.7427 88.4069 13.7427C89.0729 13.7427 89.5229 14.1567 89.5229 14.9847V15.7767C89.5229 16.6047 89.0729 17.0187 88.4069 17.0187ZM91.651 17.7207H92.632V14.7327C92.632 14.2467 93.064 13.9857 93.838 13.9857H94.225V13.0407H93.964C93.217 13.0407 92.812 13.4637 92.677 13.9407H92.632V13.0407H91.651V17.7207Z" fill="#EAECEF"/>
<path d="M40.1647 31.3105H45.7227V29.9105H41.7467V21.5385H40.1647V31.3105ZM48.0004 22.7285C48.6304 22.7285 48.8964 22.3925 48.8964 21.9305V21.6925C48.8964 21.2305 48.6304 20.8945 48.0004 20.8945C47.3704 20.8945 47.0904 21.2305 47.0904 21.6925V21.9305C47.0904 22.3925 47.3704 22.7285 48.0004 22.7285ZM47.2304 24.0305V31.3105H48.7564V24.0305H47.2304ZM50.9355 31.3105H52.4615V26.4385C52.4615 25.5845 53.2455 25.1785 54.0435 25.1785C54.9815 25.1785 55.4155 25.7525 55.4155 26.8865V31.3105H56.9415V26.6905C56.9415 24.8985 56.0595 23.8625 54.5755 23.8625C53.4555 23.8625 52.8395 24.4505 52.5315 25.2345H52.4615V24.0305H50.9355V31.3105ZM63.4666 30.1065V31.3105H64.9926V24.0305H63.4666V28.9025C63.4666 29.7565 62.6966 30.1625 61.9126 30.1625C60.9746 30.1625 60.5126 29.5745 60.5126 28.4685V24.0305H58.9866V28.6645C58.9866 30.4565 59.8686 31.4785 61.3666 31.4785C62.5706 31.4785 63.1446 30.8205 63.4106 30.1065H63.4666ZM68.9277 27.6285L66.3657 31.3105H67.9897L69.7397 28.6645H69.7817L71.4617 31.3105H73.2257L70.6917 27.6145L73.1837 24.0305H71.5597L69.8797 26.5645H69.8377L68.1997 24.0305H66.4357L68.9277 27.6285ZM82.4881 30.1065V31.3105H84.0141V20.9505H82.4881V25.2345H82.4181C82.1101 24.3665 81.3401 23.8625 80.3741 23.8625C78.5401 23.8625 77.4761 25.2765 77.4761 27.6705C77.4761 30.0645 78.5401 31.4785 80.3741 31.4785C81.3401 31.4785 82.1101 30.9605 82.4181 30.1065H82.4881ZM80.8361 30.1625C79.7861 30.1625 79.0861 29.4205 79.0861 28.3005V27.0405C79.0861 25.9205 79.7861 25.1785 80.8361 25.1785C81.7601 25.1785 82.4881 25.6825 82.4881 26.4245V28.9165C82.4881 29.6585 81.7601 30.1625 80.8361 30.1625ZM89.0513 31.4785C90.4093 31.4785 91.4733 30.8905 92.0193 30.0085L91.1233 29.1265C90.7033 29.7985 90.1013 30.2185 89.2053 30.2185C87.9733 30.2185 87.2873 29.4205 87.2873 28.3005V28.0625H92.2853V27.4885C92.2853 25.4725 91.1933 23.8625 89.0513 23.8625C86.9793 23.8625 85.7053 25.3465 85.7053 27.6705C85.7053 29.9945 86.9793 31.4785 89.0513 31.4785ZM89.0513 25.0525C90.0593 25.0525 90.6753 25.7945 90.6753 26.9145V27.0545H87.2873V26.9565C87.2873 25.8365 88.0013 25.0525 89.0513 25.0525ZM93.9746 20.9505V31.3105H95.5006V30.1065H95.5706C95.8786 30.9605 96.6486 31.4785 97.6146 31.4785C99.4486 31.4785 100.513 30.0645 100.513 27.6705C100.513 25.2765 99.4486 23.8625 97.6146 23.8625C96.6486 23.8625 95.8786 24.3665 95.5706 25.2345H95.5006V20.9505H93.9746ZM97.1526 30.1625C96.2286 30.1625 95.5006 29.6585 95.5006 28.9165V26.4245C95.5006 25.6825 96.2286 25.1785 97.1526 25.1785C98.2026 25.1785 98.9026 25.9205 98.9026 27.0405V28.3005C98.9026 29.4205 98.2026 30.1625 97.1526 30.1625Z" fill="#EAECEF"/>
<path d="M41.3941 43.8287C42.4561 43.8287 43.1131 43.2797 43.1131 42.3797C43.1131 41.6777 42.7171 41.2277 41.6911 41.0747L41.3311 41.0207C40.7551 40.9307 40.4401 40.7507 40.4401 40.3007C40.4401 39.8597 40.7551 39.5807 41.3491 39.5807C41.9431 39.5807 42.3391 39.8597 42.5461 40.1477L43.0231 39.7157C42.6451 39.2477 42.1501 38.9687 41.4031 38.9687C40.4581 38.9687 39.7471 39.4187 39.7471 40.3367C39.7471 41.2007 40.3861 41.5517 41.2411 41.6777L41.6101 41.7317C42.2221 41.8217 42.4201 42.1007 42.4201 42.4607C42.4201 42.9377 42.0601 43.2167 41.4481 43.2167C40.8631 43.2167 40.4311 42.9557 40.0711 42.5057L39.5581 42.9197C39.9721 43.4687 40.5391 43.8287 41.3941 43.8287ZM44.3849 37.0607V43.7207H45.1049V40.4987C45.1049 39.9047 45.6629 39.6167 46.2389 39.6167C46.9319 39.6167 47.2919 40.0397 47.2919 40.8677V43.7207H48.0119V40.7417C48.0119 39.6167 47.4089 38.9687 46.4549 38.9687C45.7619 38.9687 45.3659 39.3107 45.1409 39.8327H45.1049V37.0607H44.3849ZM52.8751 43.7207H53.2801V43.0907H52.7491V40.5347C52.7491 39.5537 52.0831 38.9687 50.9671 38.9687C50.1301 38.9687 49.5721 39.3827 49.3201 39.8777L49.7521 40.2827C50.0041 39.8597 50.3731 39.5897 50.9311 39.5897C51.6691 39.5897 52.0291 39.9497 52.0291 40.6067V41.0657H51.1111C49.7611 41.0657 49.1311 41.5517 49.1311 42.4247C49.1311 43.2887 49.7071 43.8287 50.6881 43.8287C51.3361 43.8287 51.8311 43.5317 52.0291 42.9647H52.0741C52.1281 43.3967 52.3441 43.7207 52.8751 43.7207ZM50.8051 43.2167C50.2471 43.2167 49.8871 42.9557 49.8871 42.4967V42.3077C49.8871 41.8577 50.2561 41.6057 51.0751 41.6057H52.0291V42.3707C52.0291 42.8477 51.5161 43.2167 50.8051 43.2167ZM54.2897 43.7207H57.6647C57.7277 43.7207 57.7547 43.6937 57.7547 43.6307V43.0907C57.7547 43.0277 57.7277 43.0007 57.6647 43.0007H55.1987V42.9827L57.1427 40.5437C57.5477 40.0307 57.7547 39.5267 57.7547 39.0317C57.7547 38.0327 57.0617 37.3217 55.9817 37.3217C54.9377 37.3217 54.3347 38.0057 54.1997 38.8067C54.1907 38.8607 54.2177 38.9057 54.2717 38.9237L54.8387 39.0407C54.8927 39.0497 54.9287 39.0317 54.9377 38.9687C55.0277 38.3477 55.3877 38.0417 55.9637 38.0417C56.5667 38.0417 56.9627 38.4467 56.9627 39.0317C56.9627 39.3827 56.8097 39.7427 56.5127 40.1297L54.2447 43.0187C54.2177 43.0547 54.1997 43.0997 54.1997 43.1447V43.6307C54.1997 43.6937 54.2267 43.7207 54.2897 43.7207ZM60.9137 43.8287C61.7147 43.8287 62.3717 43.4237 62.5877 42.7217C62.6687 42.4607 62.7137 42.1187 62.7137 41.7047C62.7137 41.2637 62.6687 40.9037 62.5787 40.6067C62.3807 39.9407 61.8047 39.5717 61.0217 39.5717C60.5447 39.5717 60.2027 39.7157 59.9867 39.9857H59.9597V38.2127C59.9597 38.1767 59.9777 38.1587 60.0137 38.1587H62.4977C62.5607 38.1587 62.5877 38.1317 62.5877 38.0687V37.5287C62.5877 37.4657 62.5607 37.4387 62.4977 37.4387H59.3297C59.2667 37.4387 59.2397 37.4657 59.2397 37.5287V40.8767C59.2397 40.9397 59.2667 40.9757 59.3297 40.9757H59.8787C59.9237 40.9757 59.9597 40.9397 59.9867 40.8767C60.1217 40.5617 60.4457 40.2917 60.9137 40.2917C61.3817 40.2917 61.7057 40.4987 61.8317 40.9037C61.8857 41.0747 61.9217 41.3447 61.9217 41.7047C61.9217 42.0827 61.8947 42.3437 61.8407 42.4877C61.6877 42.8927 61.3817 43.1087 60.9137 43.1087C60.3467 43.1087 59.9597 42.8207 59.8877 42.3437C59.8787 42.2807 59.8337 42.2447 59.7707 42.2627L59.2217 42.4067C59.1587 42.4247 59.1407 42.4517 59.1497 42.5147C59.2577 43.2887 59.9507 43.8287 60.9137 43.8287ZM65.7376 43.8287C66.8536 43.8287 67.6726 43.0727 67.6726 41.8757C67.6726 40.7597 66.8986 40.0127 65.8816 40.0127C65.6026 40.0127 65.3866 40.0577 65.2516 40.1567L65.2246 40.1387L66.6376 37.5287C66.6646 37.4657 66.6466 37.4387 66.5746 37.4387H65.9536C65.8906 37.4387 65.8546 37.4567 65.8276 37.5017L64.2346 40.4717C63.9556 40.9847 63.8116 41.4617 63.8116 41.9027C63.8116 43.0907 64.6126 43.8287 65.7376 43.8287ZM65.7376 43.1087C64.9816 43.1087 64.6036 42.5147 64.6036 41.9207C64.6036 41.3267 64.9816 40.7327 65.7376 40.7327C66.4936 40.7327 66.8716 41.3267 66.8716 41.9207C66.8716 42.5147 66.4936 43.1087 65.7376 43.1087Z" fill="#EAECEF"/>
<g clip-path="url(#clip0_4474_65145)">
<g clip-path="url(#clip1_4474_65145)">
<path d="M29.5417 27.7697C28.9917 27.3237 29.2057 26.3387 28.6347 25.8527C29.1877 22.4877 27.6377 19.5217 25.7897 17.6207C24.2387 16.0257 24.7387 14.4737 24.7387 13.1307C24.7387 10.9847 23.8577 8.7207 21.1887 8.7207C18.3357 8.7207 17.5537 11.1007 17.5257 12.4587C17.4577 15.7207 18.1847 16.5687 16.2757 18.9427C14.0297 21.7357 13.6987 24.5217 14.2057 25.9997C13.9687 26.2757 13.6487 26.5817 13.0507 26.8347C11.3987 27.5547 12.6097 28.7597 12.1527 29.6147C12.0227 29.8577 11.9607 30.1117 11.9607 30.3547C11.9607 31.1047 12.5567 31.7537 13.6397 31.6567C15.1007 31.5267 16.4487 32.5617 17.3207 32.5617C18.0907 32.5617 18.7227 32.1237 19.0167 31.5207C20.3937 31.1817 22.0937 31.2247 23.4697 31.5797C23.7167 32.2707 24.3867 32.7207 25.1317 32.7207C26.7627 32.7207 27.0767 30.8717 28.9477 30.2457C29.6217 30.0207 29.9607 29.3667 29.9607 28.7577C29.9607 28.3677 29.8217 27.9967 29.5417 27.7697ZM20.3947 17.3047C20.0757 17.3047 19.8117 17.0467 19.3947 16.7367C18.8667 16.3447 18.3297 16.1187 18.3357 15.7067C18.3357 15.4237 18.7147 15.3367 19.2047 15.0257C19.7307 14.6927 19.9357 14.3547 20.4537 14.3547C20.9837 14.3547 21.1437 14.6227 21.8637 14.9337C22.5717 15.2407 23.0647 15.3607 23.0647 15.7067C23.0647 16.0617 22.3237 16.3157 21.9067 16.5747C21.2937 16.9527 20.9787 17.3047 20.3947 17.3047ZM22.0597 12.0897C22.9417 12.2307 23.0407 13.7807 22.6187 14.5437L22.2637 14.3987C22.4477 13.8557 22.4447 12.9617 21.8287 12.9047C21.4377 12.8687 21.1857 13.3847 21.1317 13.8267C20.9787 13.7627 20.8117 13.7167 20.6087 13.6997C20.6707 12.7767 21.2667 11.9627 22.0597 12.0897ZM18.6567 12.4207C19.3327 12.2527 19.7317 13.0387 19.7347 13.8557L19.4247 14.0457C19.3827 13.7027 19.2297 13.1487 18.8457 13.2667C18.4347 13.3947 18.5017 14.3497 18.7307 14.5457L18.4247 14.7157C18.0047 14.0087 18.0057 12.5827 18.6567 12.4207ZM16.5417 31.6637C14.5787 30.7707 13.9117 30.9737 13.5367 30.9737C12.7597 30.9737 12.5057 30.3947 12.7977 29.8467C13.0457 29.3817 12.9687 28.8947 12.9077 28.5037C12.8137 27.9047 12.7967 27.7097 13.3857 27.4517C14.2007 27.1057 14.5627 26.6607 14.8327 26.3277C15.5907 25.3907 16.3557 26.8647 16.9827 28.1777C17.3897 29.0287 18.1907 29.4597 18.4377 30.4027C18.6647 31.2737 17.7277 32.2037 16.5417 31.6637ZM23.5287 29.7897C22.1447 30.4627 20.3817 30.7717 19.0627 30.0887C18.8677 29.5257 18.5557 29.1617 18.2197 28.7957C18.7587 28.6537 19.1587 27.9817 18.6797 27.3067C18.1687 26.5857 17.1247 26.0827 16.0697 25.2667C15.0827 24.5037 14.7707 22.6227 16.1147 20.5207C15.4597 22.3827 15.8427 24.0987 16.1717 24.5897C16.2397 23.6017 16.3177 21.9517 17.6677 19.9747C18.3487 18.9767 18.3587 17.6587 18.3737 16.8347L18.9937 17.2587C19.4497 17.5957 19.8317 17.9667 20.3797 17.9667C21.1897 17.9667 21.6377 17.5007 22.2617 17.1137C22.5057 16.9637 22.8747 16.8117 23.1847 16.6007C23.7047 19.0767 25.8587 22.0547 25.9797 23.7507C26.4807 22.7187 25.8377 20.2367 25.8377 20.2367C26.6797 21.5217 26.7467 22.5927 26.7837 23.9067C27.3727 24.1477 28.0047 24.7757 28.0627 25.6027L27.8177 25.5747C27.6917 24.6557 25.2107 23.3057 24.9877 25.0357C23.7977 25.2167 24.2307 27.1017 23.9907 28.3237C23.8807 28.8827 23.6767 29.3247 23.5287 29.7897ZM28.3747 29.7487C27.3897 30.1287 26.7247 30.9357 26.2677 31.4367C25.3877 32.4027 24.2237 31.9397 24.0997 31.0357C23.9687 30.0697 24.4597 29.5427 24.6717 28.4617C24.8647 27.4747 24.6487 25.9557 25.1027 25.7937C25.3977 27.5467 27.1687 26.8097 27.5727 26.3317C28.2297 26.3317 28.2847 26.5537 28.4317 27.1687C28.5237 27.5537 28.6507 27.8777 29.0097 28.2587C29.4277 28.7057 29.2997 29.3917 28.3747 29.7487ZM20.3747 16.7427C19.7237 16.7427 19.2367 16.3097 18.8407 15.9737C18.6377 15.8027 18.8907 15.4867 19.0937 15.6587C19.4807 15.9867 19.8707 16.3337 20.3747 16.3337C20.9817 16.3337 21.5167 15.8147 22.2417 15.5287C22.4887 15.4317 22.6297 15.8137 22.3847 15.9107C21.6807 16.1877 21.1157 16.7427 20.3747 16.7427Z" fill="#EAECEF"/>
</g>
</g>
<defs>
<clipPath id="clip0_4474_65145">
<rect width="24" height="24" fill="white" transform="translate(8.96069 8.7207)"/>
</clipPath>
<clipPath id="clip1_4474_65145">
<rect width="24" height="24" fill="white" transform="translate(8.96069 8.7207)"/>
</clipPath>
</defs>
</svg>
