<svg width="436" height="300" viewBox="0 0 436 300" fill="none" xmlns="http://www.w3.org/2000/svg">
<g clip-path="url(#clip0_4761_162727)">
<path opacity="0.25" d="M191.651 238.861L130.405 300.107H319.875L381.122 238.861H191.651Z" fill="#76808F"/>
<path opacity="0.5" fill-rule="evenodd" clip-rule="evenodd" d="M321.436 279.896H283.981L306.626 257.234H344.082L321.436 279.896ZM320.42 277.446L338.17 259.684H307.642L289.892 277.446H320.42Z" fill="#76808F"/>
<path opacity="0.2" d="M381.428 169.652V238.86H191.651V169.652H381.428Z" fill="#76808F"/>
<path opacity="0.25" d="M246.773 114.531L191.652 169.652H381.122L436.244 114.531H246.773Z" fill="#76808F"/>
<path opacity="0.5" fill-rule="evenodd" clip-rule="evenodd" d="M378.72 153.116H341.265L363.911 130.455H401.366L378.72 153.116ZM377.705 150.666L395.454 132.904H364.926L347.176 150.666H377.705Z" fill="#76808F"/>
<path opacity="0.5" fill-rule="evenodd" clip-rule="evenodd" d="M330.645 189.863H359.431V218.649H330.645V189.863ZM361.881 187.414V221.099H328.195V187.414H361.881Z" fill="#76808F"/>
<g opacity="0.5">
<path d="M256.63 137.192L259.079 134.742H332.874V137.192H256.63Z" fill="#76808F"/>
<path d="M244.385 149.441L246.834 146.991H321.85V149.441H244.385Z" fill="#76808F"/>
<path d="M200.309 262.746L202.758 260.297H276.819V262.746H200.309Z" fill="#76808F"/>
<path d="M188.068 274.996L190.516 272.546H265.794V274.996H188.068Z" fill="#76808F"/>
<path d="M307.372 197.213H224.025V194.763H307.372V197.213Z" fill="#76808F"/>
<path d="M224.025 213.75H307.372V211.3H224.025V213.75Z" fill="#76808F"/>
</g>
<path d="M291.302 263.196L103.677 75.5715L130.013 49.2353L317.638 236.86L291.302 263.196Z" fill="#F8D33A"/>
<g style="mix-blend-mode:soft-light" opacity="0.6">
<path d="M291.302 263.196L103.677 75.5715L116.845 62.4035L304.47 250.028L291.302 263.196Z" fill="black"/>
</g>
<path d="M118.988 38.2114L130.012 49.2355L103.676 75.5713L92.6524 64.5473L118.988 38.2114Z" fill="#76808F"/>
<path d="M118.988 38.2114L98.777 18.0002L72.4411 44.3361L92.6524 64.5473L118.988 38.2114Z" fill="#FC6E75"/>
<path fill-rule="evenodd" clip-rule="evenodd" d="M312.126 231.348L317.637 236.86L291.301 263.196L285.79 257.685L285.79 257.684V249.11H294.364V239.923H303.551V231.348H312.126ZM317.638 236.861L291.302 263.196H317.638V236.861Z" fill="#FCEA9C"/>
<path d="M317.638 250.335L304.776 263.196H317.638V250.335Z" fill="#76808F"/>
<path d="M145.787 287.535L157.914 275.407L182.413 275.407L158.036 299.784L145.787 287.535Z" fill="#5E6673"/>
<path d="M149.789 291.534L137.663 279.408L149.789 267.282L161.915 279.408L149.789 291.534Z" fill="#5E6673"/>
<path fill-rule="evenodd" clip-rule="evenodd" d="M134.463 286.596L70.1167 222.249L87.4398 204.926L151.786 269.273L134.463 286.596Z" fill="#F8D33A"/>
<g style="mix-blend-mode:soft-light" opacity="0.6">
<path fill-rule="evenodd" clip-rule="evenodd" d="M87.4381 204.924L143.785 261.271L126.462 278.594L70.115 222.248L87.4381 204.924Z" fill="url(#paint0_linear_4761_162727)"/>
</g>
<path fill-rule="evenodd" clip-rule="evenodd" d="M76.229 187.301L63.6272 199.903C59.0329 204.497 56.4518 210.729 56.4518 217.226L56.4518 257.069L33.1888 257.069L33.1888 281.568L56.4518 281.568C69.9819 281.568 80.9503 270.599 80.9503 257.069L80.9503 217.226L93.5521 204.624L76.229 187.301Z" fill="#F8D33A"/>
<g style="mix-blend-mode:soft-light" opacity="0.6">
<path fill-rule="evenodd" clip-rule="evenodd" d="M76.2314 187.304L63.6297 199.905C59.0353 204.5 56.4542 210.731 56.4542 217.229L56.4542 257.072L33.1912 257.072L33.1912 281.57L56.4542 281.57C69.9844 281.57 80.9527 270.602 80.9527 257.072L80.9527 217.229L93.5545 204.627L76.2314 187.304Z" fill="url(#paint1_linear_4761_162727)"/>
</g>
<path d="M23.0399 257.076L23.0399 274.4L5.7168 291.723L5.71694 257.076L23.0399 257.076Z" fill="#5E6673"/>
<path d="M16.04 257.076L33.189 257.076L33.189 274.225L16.04 274.225L16.04 257.076Z" fill="#5E6673"/>
<path fill-rule="evenodd" clip-rule="evenodd" d="M114.107 110.071L85.6959 138.483C78.0424 146.137 78.0425 158.546 85.6962 166.199L94.14 174.643L107.998 160.784L99.5547 152.341L127.965 123.929L114.107 110.071Z" fill="#5E6673"/>
<path fill-rule="evenodd" clip-rule="evenodd" d="M117.975 190.313L147.295 190.313L171.679 165.929L185.538 179.787L161.153 204.172C157.478 207.847 152.493 209.912 147.295 209.912L117.975 209.912L117.975 190.313Z" fill="#5E6673"/>
<path d="M146.242 145.839C152.461 152.058 152.461 162.141 146.242 168.359C140.023 174.578 129.941 174.578 123.722 168.359L146.242 145.839Z" fill="#CB8C54"/>
<path d="M146.242 145.839C140.024 139.621 129.941 139.621 123.722 145.839C117.504 152.058 117.504 162.141 123.722 168.359L146.242 145.839Z" fill="#474D57"/>
<path fill-rule="evenodd" clip-rule="evenodd" d="M127.881 180.515L114.914 180.515L114.914 167.548L99.7071 152.341L61.5964 190.452L99.7071 228.563L137.818 190.452L127.881 180.515Z" fill="#5E6673"/>
<path d="M190.245 148.79L178.119 160.917L190.245 173.043L202.371 160.917L190.245 148.79Z" fill="#CB8C54"/>
<path d="M133.774 92.3193L121.648 104.445L133.774 116.572L145.901 104.445L133.774 92.3193Z" fill="#CB8C54"/>
<rect opacity="0.25" x="5.7168" y="298" width="75" height="2" fill="#76808F"/>
<path opacity="0.2" d="M33.2168 127L25.7168 134.5L33.2168 142L40.7168 134.5L33.2168 127Z" fill="#76808F"/>
<path opacity="0.2" d="M336.717 68L330.717 74L336.717 80L342.717 74L336.717 68Z" fill="#76808F"/>
<path opacity="0.2" d="M278.717 36L274.717 40L278.717 44L282.717 40L278.717 36Z" fill="#76808F"/>
</g>
<defs>
<linearGradient id="paint0_linear_4761_162727" x1="101.717" y1="239.352" x2="133.052" y2="270.687" gradientUnits="userSpaceOnUse">
<stop/>
<stop offset="1" stop-opacity="0"/>
</linearGradient>
<linearGradient id="paint1_linear_4761_162727" x1="82.2117" y1="281.56" x2="82.2117" y2="243" gradientUnits="userSpaceOnUse">
<stop/>
<stop offset="1" stop-opacity="0"/>
</linearGradient>
<clipPath id="clip0_4761_162727">
<rect width="435" height="300" fill="white" transform="translate(0.716797)"/>
</clipPath>
</defs>
</svg>
