<svg xmlns="http://www.w3.org/2000/svg" xmlns:xlink="http://www.w3.org/1999/xlink" width="228" height="184" fill="none" xmlns:v="https://vecta.io/nano"><style><![CDATA[.B{opacity:.6}.C{fill-rule:evenodd}.D{fill:#f8d33a}.E{fill:#cb8c54}.F{fill:#2b2f36}]]></style><g clip-path="url(#O)"><path d="M35.483 153.572v-42.599h14.337v42.599H35.483z" fill="#328dfd" class="C"/><g style="mix-blend-mode:soft-light" class="B C"><path d="M35.482 153.572v-42.599h14.337v42.599H35.482z" fill="url(#A)"/></g><g class="C"><path d="M19.354 109.541H49.82v14.319H33.69v29.712H19.354v-44.031z" fill="#328dfd"/><path d="M57.249 80.545h3.719V65.397h10.036v15.148c0 5.536-4.493 10.023-10.036 10.023h-3.719V80.545z" class="E"/></g><g style="mix-blend-mode:soft-light" class="B C"><path d="M57.248 80.545h3.719V65.397h10.036v15.148c0 5.536-4.493 10.023-10.036 10.023h-3.719V80.545z" fill="url(#B)"/></g><path d="M42.552 60.561a9.3 9.3 0 0 1 0 13.163 9.33 9.33 0 0 1-13.179 0l13.179-13.163z" class="E"/><g style="mix-blend-mode:soft-light" class="B"><path d="M42.552 60.56a9.3 9.3 0 0 1 0 13.163 9.33 9.33 0 0 1-13.179 0L42.552 60.56z" fill="url(#C)"/></g><path d="M58.852 55.128l7.096 7.088 7.096-7.088-7.096-7.088-7.096 7.088z" class="E"/><path d="M50.797 80.545h6.586V92h-6.586V80.545z" class="C F"/><g style="mix-blend-mode:soft-light" class="B C"><path d="M50.797 80.545h6.586V92h-6.586V80.545z" fill="url(#D)"/></g><path d="M31.976 80.545l5.21 5.203 5.21-5.203h8.499v31.502H19.353V80.545h12.623z" class="C F"/><g style="mix-blend-mode:soft-light" class="B"><path d="M19.354 93.26l.001 18.786h31.539v-5.552H38.395c-3.707 0-7.262-1.47-9.884-4.088l-9.158-9.146z" fill="url(#E)"/></g><use xlink:href="#P" class="C E"/><g style="mix-blend-mode:soft-light" class="B C"><use xlink:href="#P" fill="url(#F)"/></g><g class="F"><path d="M24.372 92h-5.312l-5.487 5.48-8.11-8.1 5.487-5.48c2.151-2.148 5.068-3.355 8.11-3.355h5.313V92z" class="C"/><path d="M47.669 153.572H37.633v16.109h20.251l-10.215-10.023v-6.086z"/></g><g style="mix-blend-mode:soft-light"><path d="M47.669 153.572H37.633v16.109h20.251l-10.215-10.023v-6.086z" fill="url(#G)"/></g><g class="D"><use xlink:href="#Q"/><path d="M.455 136.514l47.457-47.398 4.077 4.072-47.457 47.398-4.077-4.072z"/></g><g style="mix-blend-mode:soft-light" class="B"><use xlink:href="#Q" fill="url(#H)"/><path d="M.455 136.514l47.457-47.398 4.077 4.072-47.457 47.398-4.077-4.072z" fill="url(#H)"/></g><path d="M32.076 109.242H22.04v10.023h10.036v-10.023z" class="E"/><path d="M107.525 123.86h15.054v21.479h-15.054V123.86z" class="D"/><g style="mix-blend-mode:soft-light" class="B"><path d="M122.579 123.86h-15.054v21.479h15.054V123.86z" fill="url(#I)"/></g><path d="M227.956 149.634h-15.054v21.479h15.054v-21.479z" class="D"/><g style="mix-blend-mode:soft-light" class="B"><path d="M227.956 149.634h-15.054v21.479h15.054v-21.479z" fill="url(#J)"/></g><g fill="#5e6673"><path d="M146.235 5.728h9.319v37.23h-9.319V5.728z"/><g class="C"><path d="M150.871 53.358l15.202 15.183-1.014 1.013-14.188-14.171-14.189 14.171-1.014-1.013 15.203-15.183z"/><path d="M150.178 54.413V39.377h1.433v15.035h-1.433z"/></g></g><path d="M126.88 68.016h48.387v21.479H126.88V68.016z" class="D"/><g style="mix-blend-mode:soft-light" class="B"><path d="M175.268 68.016H126.88v21.479h48.388V68.016z" fill="url(#K)"/></g><path d="M179.568 123.86h48.387v21.479h-48.387V123.86z" class="D"/><g style="mix-blend-mode:soft-light" class="B"><path d="M227.956 123.86h-48.388v21.479h48.388V123.86z" fill="url(#L)"/></g><path d="M155.913 149.634h-48.388v21.479h48.388v-21.479z" class="D"/><g style="mix-blend-mode:soft-light" class="B"><path d="M155.913 149.634h-48.388v21.479h48.388v-21.479z" fill="url(#M)"/></g><path d="M208.601 149.634h-48.387v21.479h48.387v-21.479z" class="D"/><g style="mix-blend-mode:soft-light" class="B"><path d="M208.601 149.634h-48.387v21.479h48.387v-21.479z" fill="url(#N)"/></g><g fill="#5e6673" class="C"><path d="M237.634 9.307h-30.107v30.07h30.107V9.307zm-1.433 1.432v27.206H208.96V10.739h27.241z"/><path d="M209.153 38.764l27.866-27.831-1.014-1.013-27.866 27.831 1.014 1.013z"/><path d="M236.003 38.764l-27.866-27.831 1.014-1.013 27.866 27.831-1.014 1.013z"/><path d="M208.959 9.307h-30.107v30.07h30.107V9.307zm-1.434 1.432v27.206h-27.24V10.739h27.24z"/><path d="M180.478 38.764l27.866-27.831-1.014-1.013-27.866 27.831 1.014 1.013z"/><path d="M207.331 38.764l-27.866-27.831 1.014-1.013 27.866 27.831-1.014 1.013z"/><path d="M180.285 9.307h-30.107v30.07h30.107V9.307zm-1.434 1.432v27.206h-27.24V10.739h27.24z"/><path d="M151.804 38.764l27.866-27.831-1.013-1.013-27.867 27.831 1.014 1.013z"/><path d="M178.658 38.764l-27.866-27.831 1.013-1.013 27.866 27.831-1.013 1.013z"/><path d="M151.611 9.307h-1.372l-28.735 28.7v1.37h30.107V9.307zm-1.433 2.086v26.552h-26.585l26.585-26.552z"/><path d="M150.029 38.809L135.692 24.49l1.014-1.012 14.337 14.319-1.014 1.012z"/></g><path d="M.357 169.681h72.76v1.432H.357v-1.432z" fill="#e6e8ea"/><path d="M33.69 153.572H23.654v16.109h20.251L33.69 159.658v-6.086z" class="F"/></g><defs><linearGradient id="A" x1="31.898" y1="123.86" x2="43.368" y2="123.86" xlink:href="#R"><stop/><stop offset="1" stop-opacity="0"/></linearGradient><linearGradient id="B" x1="57.469" y1="89.136" x2="73.276" y2="73.309" xlink:href="#R"><stop/><stop offset="1" stop-opacity="0"/></linearGradient><linearGradient id="C" x1="29.57" y1="73.922" x2="39.414" y2="64.066" xlink:href="#R"><stop/><stop offset="1" stop-opacity="0"/></linearGradient><linearGradient id="D" x1="57.818" y1="91.299" x2="58.189" y2="80.574" xlink:href="#R"><stop/><stop offset="1" stop-opacity="0"/></linearGradient><linearGradient id="E" x1="19.712" y1="102.953" x2="51.253" y2="102.953" xlink:href="#R"><stop/><stop offset="1" stop-opacity="0"/></linearGradient><linearGradient id="F" x1="8.199" y1="94.327" x2="11.477" y2="108.838" xlink:href="#R"><stop/><stop offset="1" stop-opacity="0"/></linearGradient><linearGradient id="G" x1="37.633" y1="169.681" x2="51.791" y2="169.681" xlink:href="#R"><stop/><stop offset="1" stop-opacity="0"/></linearGradient><linearGradient id="H" x1="1.041" y1="98.283" x2="52.577" y2="98.283" xlink:href="#R"><stop/><stop offset="1" stop-opacity="0"/></linearGradient><linearGradient id="I" x1="122.408" y1="134.942" x2="107.354" y2="134.942" xlink:href="#R"><stop/><stop offset="1" stop-opacity="0"/></linearGradient><linearGradient id="J" x1="227.784" y1="160.717" x2="212.73" y2="160.717" xlink:href="#R"><stop/><stop offset="1" stop-opacity="0"/></linearGradient><linearGradient id="K" x1="174.718" y1="79.098" x2="126.328" y2="79.098" xlink:href="#R"><stop/><stop offset="1" stop-opacity="0"/></linearGradient><linearGradient id="L" x1="227.406" y1="134.942" x2="179.016" y2="134.942" xlink:href="#R"><stop/><stop offset="1" stop-opacity="0"/></linearGradient><linearGradient id="M" x1="155.363" y1="160.717" x2="106.973" y2="160.717" xlink:href="#R"><stop/><stop offset="1" stop-opacity="0"/></linearGradient><linearGradient id="N" x1="208.051" y1="160.717" x2="159.661" y2="160.717" xlink:href="#R"><stop/><stop offset="1" stop-opacity="0"/></linearGradient><clipPath id="O"><path fill="#fff" d="M0 0h227.956v184H0z"/></clipPath><path id="P" d="M16.177 94.88l-2.63 2.626 7.857 7.847-7.096 7.088-7.857-7.847c-3.919-3.915-3.919-10.261 0-14.176l2.63-2.626 7.096 7.088z"/><path id="Q" d="M28.528 59.853c-4.121 4.116-4.121 10.789 0 14.905l17.211-17.19h-5.705a10.58 10.58 0 0 0-4.045-.802c-2.701 0-5.401 1.029-7.462 3.087z"/><linearGradient id="R" gradientUnits="userSpaceOnUse"/></defs></svg>