<svg xmlns="http://www.w3.org/2000/svg" xmlns:xlink="http://www.w3.org/1999/xlink" width="235" height="184" fill="none" xmlns:v="https://vecta.io/nano"><style><![CDATA[.B{fill-rule:evenodd}.C{fill:#f8d33a}.D{fill:#2b2f36}.E{fill:#28d294}]]></style><path d="M164.078 93.812c-16.509-7.983-27.896-24.891-27.896-44.458C136.182 22.097 158.279 0 185.536 0s49.355 22.097 49.355 49.354c0 19.567-11.387 36.475-27.896 44.458L234.891 184h-98.709l27.896-90.188z" fill="#e6e8ea"/><path d="M.338 184h37.854v-1.917H.338V184z" fill="#caced3"/><path d="M155.109 0v48.875h61.334V0h-61.334z" fill="url(#A)" style="mix-blend-mode:soft-light"/><path d="M182.183 184h43.125v-8.625h-43.125V184zm-4.792-17.25h43.125v-8.625h-43.125v8.625zm-25.874 16.947l30.494-30.494-6.099-6.098-30.494 30.494 6.099 6.098z" fill="#f0b90b"/><path d="M172.599 175.375h43.125v-8.625h-43.125v8.625z" class="C"/><path d="M172.599 175.375h43.125v-8.625h-43.125v8.625z" fill="url(#B)" style="mix-blend-mode:soft-light"/><g fill="#0b0e11"><path d="M108.021 57.684a12.46 12.46 0 0 1 17.619-17.619l-17.619 17.619z"/><path d="M98.62 42.646h10.546L99.055 32.481a9.39 9.39 0 0 0-6.657-2.772H81.853l10.111 10.165a9.39 9.39 0 0 0 6.657 2.772z"/></g><path d="M77.724 170.435l13.566-.001L104.855 184H77.724v-13.565zM9.592 135.986l9.592 9.593v19.184L0 145.579l9.592-9.593z" class="D"/><path d="M77.724 170.434v-13.566H91.29v13.566H77.724zM9.591 135.987l9.592-9.592 9.592 9.592-9.592 9.592-9.592-9.592z" fill="#76808f"/><path d="M61.984 76.242l-1.834 1.834c-7.179 7.179-7.179 18.819 0 25.999l14.833-14.833-12.999-12.999z" fill="#484e58"/><use xlink:href="#J" class="B D"/><g style="mix-blend-mode:soft-light" opacity=".6" class="B"><use xlink:href="#J" fill="url(#C)"/></g><g class="B"><path d="M61.478 76.18l13.553 13.553-46.522 46.522-13.553-13.552L61.478 76.18z" class="D"/><use xlink:href="#K" class="E"/></g><g style="mix-blend-mode:soft-light" opacity=".6" class="B"><use xlink:href="#K" fill="url(#D)"/></g><path d="M125.403 39.976c4.869 4.87 4.869 12.765 0 17.635s-12.766 4.87-17.635 0l17.635-17.635zm30.425 33.855h-13.429V87.26h13.429V73.831z" fill="#935a30"/><use xlink:href="#L" class="B E"/><g style="mix-blend-mode:soft-light" opacity=".6" class="B"><use xlink:href="#L" fill="url(#E)"/></g><path d="M51.146 68.903l8.887 8.887 8.887-8.887-8.887-8.887-8.887 8.887z" fill="#935a30"/><path d="M226.026 77.583V21.125C217.922 9.523 204.959 1.567 190.088.207v115.119l29.577 19.449-12.671-40.963c7.653-3.7 14.204-9.318 19.032-16.229z" fill="url(#F)" style="mix-blend-mode:soft-light" class="B"/><g class="E"><use xlink:href="#M"/><use xlink:href="#M"/></g><g style="mix-blend-mode:soft-light" opacity=".6"><use xlink:href="#M" fill="url(#G)"/></g><use xlink:href="#N" class="C"/><use xlink:href="#N" fill="url(#H)" style="mix-blend-mode:soft-light"/><g class="C"><path d="M155.11 48.875c0-16.937 13.73-30.667 30.667-30.667s30.666 13.73 30.666 30.667-13.73 30.667-30.666 30.667-30.667-13.73-30.667-30.667z"/><use xlink:href="#O"/></g><use xlink:href="#O" fill="url(#I)" style="mix-blend-mode:soft-light"/><path d="M198.293 48.877l-12.518 12.518-12.517-12.518 12.517-12.518 12.518 12.518z" fill="#f0b90b"/><defs><linearGradient id="A" x1="170.269" y1="0" x2="170.269" y2="20.473" xlink:href="#P"><stop stop-opacity="0"/><stop offset="1"/></linearGradient><linearGradient id="B" x1="215.724" y1="171.063" x2="172.599" y2="171.062" xlink:href="#P"><stop/><stop offset="1" stop-opacity="0"/></linearGradient><linearGradient id="C" x1="72.068" y1="156.869" x2="72.068" y2="102.719" xlink:href="#P"><stop/><stop offset="1" stop-opacity="0"/></linearGradient><linearGradient id="D" x1="104.596" y1="95.696" x2="118.651" y2="109.75" xlink:href="#P"><stop/><stop offset="1" stop-opacity="0"/></linearGradient><linearGradient id="E" x1="71.625" y1="53.65" x2="50.452" y2="32.477" xlink:href="#P"><stop/><stop offset="1" stop-opacity="0"/></linearGradient><linearGradient id="F" x1="226.026" y1="33.468" x2="226.026" y2="103.683" xlink:href="#P"><stop stop-opacity="0"/><stop offset="1"/></linearGradient><linearGradient id="G" x1="76.748" y1="61.783" x2="106.427" y2="91.461" xlink:href="#P"><stop/><stop offset="1" stop-opacity="0"/></linearGradient><linearGradient id="H" x1="205.978" y1="108.771" x2="205.978" y2="145.364" xlink:href="#P"><stop/><stop offset="1" stop-opacity="0"/></linearGradient><linearGradient id="I" x1="185.775" y1="72.034" x2="185.775" y2="25.719" xlink:href="#P"><stop/><stop offset="1" stop-opacity="0"/></linearGradient><path id="J" d="M76.976 81.216l9.265 9.265a17.25 17.25 0 0 1 5.052 12.198v54.19H72.127v-53.396l-8.704-8.704 13.553-13.553z"/><path id="K" d="M121.255 91.242l9.985-9.985 10.843 10.842-14.075 14.075c-8.151 8.15-22.086 2.378-22.086-9.149V76.312h15.333v14.929z"/><path id="L" d="M91.716 46.953l-14.689-14.76c-9.649-9.695-26.202-2.862-26.202 10.816v13.587h15.333V43.01l14.689 14.76 10.868-10.816z"/><path id="M" d="M113.421 68.568h-10.154V58.415L91.359 46.506 61.515 76.35l29.844 29.844 29.844-29.844-7.782-7.782z"/><path id="N" d="M222.284 143.245l-3.565-11.526-22.948-22.948-6.099 6.099 30.494 30.494 2.118-2.119z"/><path id="O" d="M162.618 48.877c0-12.79 10.368-23.158 23.157-23.158s23.158 10.368 23.158 23.158-10.368 23.158-23.158 23.158-23.157-10.368-23.157-23.158z"/><linearGradient id="P" gradientUnits="userSpaceOnUse"/></defs></svg>