<svg xmlns="http://www.w3.org/2000/svg" width="1000" height="1011" viewBox="0 0 1000 1010.95" shape-rendering="geometricPrecision" image-rendering="optimizeQuality" fill-rule="evenodd" xmlns:v="https://vecta.io/nano"><style><![CDATA[.a{fill-rule:nonzero}.b{fill:#e6e6e6}.c{fill:#263674}.d{fill:#ccc}.e{stroke-miterlimit:2.61313}.f{fill:#fdcb08}.g{fill:#e6c6a6}.h{fill:#ffe063}.i{stroke:#263674}.j{fill:#505c8f}.k{stroke-linecap:round}.l{stroke-width:4}]]></style><g class="a"><path d="M203.45 943.93c3.35 1.85 7 3.12 10.78 3.76a33.89 33.89 0 0 0 22.48-4c12.92-7.58 19.11-22.62 24.44-36.62l15.78-41.41-19.95 9.29c-14.35 6.68-29.04 13.59-40.1 24.91-11.06 11.31-17.9 28.16-13.1 43.23l-.33.84zm0 0h0 0z" class="b"/><path d="M196.94 999.25c.52-16.77 1.01-33.76 5.39-50.06 3.89-14.47 10.81-28.08 21.93-38.32 5.9-5.42 12.73-9.78 20.12-12.86 1.93-.8 3.07 2.23 1.14 3.03-12.8 5.36-23.59 14.65-30.77 26.53-7.96 13.21-11.46 28.49-13.04 43.69-.96 9.19-1.25 18.43-1.54 27.66.01.13 0 .26-.02.39-.12.73-.7 1.29-1.43 1.39-.14.01-.28 0-.42-.02-.72-.12-1.28-.71-1.35-1.43h-.01z" class="d"/><path d="M217.58 975.69c3.38 7.69 10.41 13.17 18.7 14.57l.88.13c10.96 1.32 21.29-4.73 30.65-10.55l27.71-17.21-15.83-3.46c-11.38-2.49-23.06-5-34.59-3.3s-23.04 8.51-26.95 19.48l-.57.34zm0 0h0 0z" class="b"/><path d="M188.99 1007.6c14.07-17.34 30.23-36.51 53.83-39.53 5.03-.64 10.15-.53 15.16.32 1.5.25 2.99.57 4.45.95 2.02.52.98 3.59-1.04 3.07-1.29-.33-2.59-.61-3.9-.83-9.58-1.61-19.44-.3-28.24 3.77-9.68 4.44-17.82 11.51-25 19.25-4.41 4.74-8.48 9.77-12.56 14.79-1.3 1.61-4.01-.17-2.7-1.79z" class="d"/><path d="M186.38 879.97c-7.01 2.45-14.4 3.72-21.83 3.72a65.86 65.86 0 0 1-41.73-14.92c-22.26-18.69-29.24-49.46-34.92-77.96L71.11 706.5l35.16 24.21c25.3 17.42 51.15 35.39 68.66 60.61s25.15 59.66 11.09 86.95l.36 1.7zm0 0h0 0z" class="b"/><path d="M180.95 987.91c4.43-32.25 8.98-64.92 5.87-97.51-2.76-28.94-11.59-57.21-29.57-80.4a134.02 134.02 0 0 0-34.32-31.09c-3.43-2.17-6.59 3.27-3.18 5.42 22.77 14.38 40.41 35.65 50.31 60.69 10.95 27.85 12.71 58.21 10.82 87.79-1.14 17.9-3.56 35.67-6 53.42-.06.25-.09.5-.09.76 0 1.42.93 2.68 2.29 3.11a3.24 3.24 0 0 0 .82.11 3.18 3.18 0 0 0 3.05-2.31v.01z" class="d"/><path d="M149.09 936.16c-8.96 13.62-24.18 21.83-40.48 21.83-.57 0-1.17-.01-1.74-.03-21.38-1.01-39.19-15.93-55.22-30.09L4.21 885.99l31.39-1.51c22.58-1.08 45.74-2.09 67.24 4.88 21.51 6.97 41.34 23.72 45.27 45.97l.98.83zm0 0h0 0z" class="b"/><path d="M193.46 1006.44c-21.31-37.7-46.02-79.6-90.19-93-9.42-2.85-19.26-4.3-29.12-4.3a104.06 104.06 0 0 0-8.82.38c-4.03.35-3.02 6.55 1 6.21 2.57-.2 5.16-.32 7.74-.32 18.84 0 37.27 5.71 52.81 16.34 17.07 11.62 30.36 27.77 41.6 44.9 6.89 10.49 13.07 21.43 19.24 32.35 1.97 3.5 7.74.98 5.74-2.56zm425.14 2.51l-2.76-.05c1.02-30.59 4.38-61.4 9.77-91.51 11.95-64.73 31.8-107.25 59.03-126.36l1.58 2.26c-63.56 44.62-67.59 213.96-67.62 215.66zm34.52-.66l-2.76-.05c.06-3.06 1.78-75.14 30.16-95.06l1.58 2.26c-27.23 19.12-28.97 92.12-28.98 92.85z" class="d"/><circle cx="701.96" cy="779.71" r="13.81" class="b"/><g class="d"><circle cx="695.12" cy="898.46" r="13.81"/><path d="M646.68 801.79c2.6 16.58-4.17 31.4-4.17 31.4s-10.97-12.05-13.56-28.62c-2.6-16.58 4.17-31.4 4.17-31.4s10.97 12.05 13.56 28.62z"/></g><path d="M691.82 842.05c-15.87 5.44-31.65 1.37-31.65 1.37s9.95-12.91 25.83-18.35c15.86-5.44 31.64-1.37 31.64-1.37s-9.95 12.9-25.82 18.35zm.51 105.17c-4.16 1.3-8.52 1.97-12.88 1.97a43.3 43.3 0 0 1-9.3-1.02c7.42-9.45 18.79-14.98 30.81-14.98 3.19 0 6.37.4 9.47 1.17a43.09 43.09 0 0 1-18.1 12.86h0z" class="b"/><path d="M617.03 1008.95l2-.04c-.74-22.1-3.17-44.36-7.07-66.11-8.63-46.77-22.97-77.49-42.64-91.3l-1.15 1.63c45.93 32.25 48.84 154.59 48.86 155.82zm-24.94-.47l1.99-.04c-.04-2.21-1.29-54.29-21.79-68.68l-1.14 1.63c19.67 13.81 20.93 66.56 20.94 67.09z" class="d"/><circle cx="556.8" cy="843.32" r="9.98" class="b"/><g class="d"><circle cx="561.74" cy="929.12" r="9.98"/><path d="M596.74 859.28c-1.87 11.98 3.01 22.69 3.01 22.69s7.93-8.71 9.8-20.68c1.88-11.98-3.01-22.69-3.01-22.69s-7.92 8.7-9.8 20.68z"/></g><path d="M564.13 888.36c11.47 3.94 22.86.99 22.86.99s-7.19-9.32-18.65-13.25c-11.47-3.94-22.87-.99-22.87-.99s7.19 9.32 18.66 13.25zm-.37 75.99c3.01.94 6.15 1.43 9.31 1.43a31.66 31.66 0 0 0 6.72-.74c-5.36-6.83-13.58-10.82-22.26-10.82-2.31 0-4.61.28-6.85.84a31.2 31.2 0 0 0 13.08 9.29h0z" class="b"/><path d="M200.98 678.21h-11.97c-1.46 0-2.64-.91-2.64-2.04v-51.54c0-1.13 1.18-2.04 2.64-2.04h11.97c1.46 0 2.65.91 2.65 2.04v51.54c0 1.13-1.19 2.04-2.65 2.04h0zm-39.58-30.37c-1.17 0-2.13.74-2.13 1.65v26.62c0 .91.96 1.65 2.13 1.65h11.98c1.17 0 2.13-.74 2.13-1.65v-26.62c0-.91-.96-1.65-2.13-1.65H161.4zm67.19 30.37h-11.97c-1.46 0-2.64-.91-2.64-2.04V591.7c0-1.12 1.18-2.04 2.64-2.04h11.97c1.46 0 2.65.92 2.65 2.04v84.47c0 1.13-1.19 2.04-2.65 2.04h0z" class="c"/><path d="M95 667.38H70.63c-1.63 0-2.95-1.33-2.95-2.95a2.95 2.95 0 0 1 2.95-2.95H95c1.62 0 2.94 1.32 2.94 2.95 0 1.62-1.32 2.95-2.94 2.95h0zm0-41.81H70.63a2.95 2.95 0 0 1-2.95-2.95c0-1.62 1.32-2.95 2.95-2.95H95c1.62 0 2.94 1.33 2.94 2.95 0 1.63-1.32 2.95-2.94 2.95h0zm0-30.15H70.63a2.95 2.95 0 0 1-2.95-2.95c0-1.62 1.32-2.94 2.95-2.94H95c1.62 0 2.94 1.32 2.94 2.94 0 1.63-1.32 2.95-2.94 2.95h0z" fill="#333"/><path d="M66.7 678.36c0 .53.43.95.96.95h163.99c.53 0 .95-.42.95-.95s-.42-.96-.95-.96H67.66a.96.96 0 0 0-.96.96z" class="c"/><path d="M503.51 853.93H322.47a11.13 11.13 0 0 1-11.12-11.12V655.66c0-6.13 4.99-11.12 11.12-11.12h181.04c6.13 0 11.12 4.99 11.12 11.12v187.15a11.13 11.13 0 0 1-11.12 11.12z" fill="#fff"/><path d="M503.51 855.08H322.47a12.28 12.28 0 0 1-12.26-12.27V655.66c0-6.76 5.5-12.26 12.26-12.26h181.04c6.76 0 12.26 5.5 12.26 12.26v187.15a12.28 12.28 0 0 1-12.26 12.27h0zM322.47 645.69a9.99 9.99 0 0 0-9.98 9.97v187.15a9.99 9.99 0 0 0 9.98 9.98h181.04c5.5 0 9.97-4.47 9.97-9.98V655.66a9.98 9.98 0 0 0-9.97-9.97H322.47zm97.66 159.08h-14.92c-1.81 0-3.29-1.14-3.29-2.55v-64.24c0-1.4 1.48-2.54 3.29-2.54h14.92c1.82 0 3.3 1.14 3.3 2.54v64.24c0 1.41-1.48 2.55-3.3 2.55h0z" class="c"/><path d="M370.8 766.91c-1.47 0-2.66.92-2.66 2.05v33.19c0 1.13 1.19 2.06 2.66 2.06h14.92c1.47 0 2.67-.93 2.67-2.06v-33.19c0-1.13-1.2-2.05-2.67-2.05H370.8z" fill="#fdbe11"/><path d="M454.54 804.77h-14.92c-1.82 0-3.29-1.14-3.29-2.55V696.94c0-1.4 1.47-2.54 3.29-2.54h14.92c1.82 0 3.3 1.14 3.3 2.54v105.28c0 1.41-1.48 2.55-3.3 2.55h0z" fill="#f9a92d"/><g class="c"><path d="M392.55 695.49c0 .76.61 1.36 1.36 1.36h233.48c.75 0 1.36-.6 1.36-1.36a1.36 1.36 0 0 0-1.36-1.36H393.91a1.36 1.36 0 0 0-1.36 1.36h0z"/><path d="M323.98 806.35a1.36 1.36 0 0 0 1.36 1.36h233.48a1.36 1.36 0 0 0 1.36-1.36c0-.76-.61-1.36-1.36-1.36H325.34c-.75 0-1.36.6-1.36 1.36h0z" stroke-width=".9" class="e i"/></g><g class="f"><path d="M297.71 282.79l127.65 106.17V453L212.61 282.79z"/><path d="M425.36 388.96l127.66-106.17h85.1L425.36 453z"/></g><g class="h"><path d="M212.61 282.79l212.75-170.2v64.03L297.71 282.79z"/><path d="M425.36 176.62l127.66 106.17h85.1l-212.76-170.2z"/></g><circle cx="425.36" cy="282.79" r="42.55" class="c"/></g><path d="M425.36 240.24v85.1c23.5 0 42.55-19.05 42.55-42.55s-19.05-42.55-42.55-42.55z" class="j"/><path d="M109.04 379.81h65.03V394h-50.84v50.84h-14.19z" fill="#fff"/><g class="f"><circle cx="115.47" cy="388.09" r="20.51"/><circle cx="115.47" cy="388.09" r="16.26"/></g><circle cx="115.47" cy="388.09" r="18.22" class="h"/><circle cx="115.47" cy="388.09" r="15.17" class="f"/><g stroke="#ffe063" stroke-width=".5" fill="none" class="e k"><path d="M115.47 374.24v3.79m-2.88-3.49l.79 3.71m-3.54-2.82l1.54 3.47m-4.05-2.02l2.23 3.07m-4.38-1.13l2.82 2.54m-4.52-.2l3.28 1.9m-4.47.75l3.61 1.17m-4.21 1.66l3.78.4m-3.78 2.5l3.78-.4m-3.18 3.23l3.61-1.17m-2.43 3.82l3.29-1.9m-1.59 4.24l2.82-2.54m-.66 4.48l2.23-3.07m.27 4.52l1.55-3.47m1.21 4.36l.79-3.71m2.09 4.01v-3.79m2.88 3.49l-.79-3.71m3.54 2.82l-1.54-3.47m4.05 2.02l-2.23-3.07m4.39 1.13l-2.83-2.54m4.53.2l-3.29-1.9m4.47-.75l-3.61-1.17m4.21-1.66l-3.78-.4m3.78-2.5l-3.78.4m3.18-3.23l-3.61 1.17m2.43-3.82l-3.29 1.9m1.59-4.24l-2.83 2.54"/><path d="M123.61 376.88l-2.23 3.07m-.27-4.52l-1.55 3.47m-1.21-4.36l-.79 3.71"/></g><path d="M742.87 0H42.32C18.96.03.02 18.96 0 42.32v420.79c.02 23.36 18.96 42.29 42.32 42.32h700.55c23.36-.03 42.29-18.96 42.31-42.32V42.32C785.16 18.96 766.23.03 742.87 0h0zm80.9 505.43c0 21.31-17.27 38.58-38.58 38.58l-700.56.01c-21.31-.01-38.58-17.28-38.58-38.59V336.4c0-9.85.47-19.58 1.43-29.19C62.4 158.96 187.21 46.05 336.22 46.05h.18 406.47c21.31 0 38.58 17.27 38.58 38.59l42.32 420.79zM660.88 69.72H296.5c-6.21 0-11.25 5.04-11.25 11.25a11.26 11.26 0 0 0 11.25 11.26h364.38c6.21 0 11.26-5.04 11.26-11.26 0-6.21-5.05-11.25-11.26-11.25h0zm-362.07 46.91H185.85c-6.23 0-11.27 5.04-11.27 11.26a11.27 11.27 0 0 0 11.27 11.27h112.96a11.28 11.28 0 0 0 11.27-11.27 11.27 11.27 0 0 0-11.27-11.26z" class="a b"/><path d="M296.5 69.72h55.86c-7.03 8.08-14.74 15.63-22.91 22.52l-32.95-.01a11.26 11.26 0 0 1-11.25-11.26c0-6.21 5.04-11.25 11.25-11.25h0zm-110.65 46.91h94.27c-2.99 7.68-6.48 15.24-10.37 22.53h-83.9a11.27 11.27 0 0 1-11.27-11.27c0-6.22 5.04-11.26 11.27-11.26zM283.11 0C52.66 28.81 6.17 265.23.01 263.75V42.32C.02 18.96 18.96.03 42.32 0h214.27 26.52z" class="c a"/><g class="b a"><path d="M380.14 632.95a90.55 90.55 0 0 0-44.71-33.91l-.24-.09a89.2 89.2 0 0 0-82.47 13.86c-1.97 1.53.02 4.9 2.01 3.36 14.1-10.86 31.25-17.12 49.04-17.87 10.46-.35 20.92 1.22 30.82 4.65a85.28 85.28 0 0 1 42.19 32.01c1.42 2.07 4.79.07 3.36-2.01h0z"/><path d="M267.01 586.82l-18.88 27.82-.14.31c-.35 1.03.19 2.15 1.22 2.5a.88.88 0 0 0 .15.05l36.46 6.43c2.47.44 3.44-3.36.95-3.8l-36.46-6.43 1.23 2.87 18.88-27.82c1.42-2.09-2.01-4-3.41-1.92v-.01zm15.08-203.09a90.55 90.55 0 0 0 53.35 17.42h.25c29.59-.35 57.11-15.38 73.4-40.09 1.36-2.08-1.62-4.62-3-2.51-9.78 14.87-23.93 26.4-40.49 32.93-9.77 3.76-20.17 5.69-30.65 5.69-18.09 0-35.74-5.76-50.34-16.44-2.02-1.49-4.55 1.5-2.51 3h-.01zm136.59-6.12l1.95-33.56-.04-.34c-.22-1.06-1.27-1.75-2.33-1.52l-.15.03-34.61 13.18c-2.34.89-1.23 4.65 1.13 3.75l34.6-13.18-2.52-1.82-1.94 33.55c-.15 2.52 3.77 2.41 3.91-.09h0zM720 168.26H580.3c-9.35 0-16.93-7.58-16.93-16.93s7.58-16.93 16.93-16.93H720a16.94 16.94 0 0 1 16.93 16.93c0 9.35-7.59 16.93-16.94 16.93h.01z"/></g><path d="M716.78 151.33l6.67-6.67c.38-.38.6-.9.6-1.44a2.02 2.02 0 0 0-2.02-2.02c-.54 0-1.06.21-1.44.6l-6.67 6.66-6.67-6.66a1.98 1.98 0 0 0-1.43-.6c-1.12 0-2.03.9-2.03 2.02 0 .54.22 1.06.6 1.44l6.67 6.67-6.62 6.62a2.02 2.02 0 0 0-.6 1.43 2.03 2.03 0 0 0 2.02 2.03c.54 0 1.06-.22 1.44-.6l6.62-6.62 6.62 6.62a2.01 2.01 0 0 0 1.43.59 2.03 2.03 0 0 0 2.02-2.03c0-.53-.21-1.04-.59-1.42l-6.62-6.62z" fill="#fff" class="a"/><path d="M600.94 275.78a19.92 19.92 0 0 1 18.7-13.09 19.9 19.9 0 0 1 9.99 2.69l175.93-46.1 2.89 36.24-172.15 38.4c-3.72 5.52-9.94 8.84-16.6 8.84-11.05 0-20.01-8.96-20.01-20.01 0-2.38.42-4.74 1.25-6.97z" class="a g"/><path d="M866.19 211.96h0c-7.07-10.18-18.69-16.26-31.09-16.26a37.88 37.88 0 0 0-7.21.69l-64.69 12.55s22.27 74.56 50.47 72.91c11.89-.7 26.93-7.68 40.36-15.53 11.69-6.77 18.89-19.28 18.89-32.79 0-7.71-2.35-15.23-6.73-21.57h0z" fill="#3f3d56" class="a"/><path d="M801.39 973.49l-17.14-.14-7.59-67.67 25.3.22z" class="a g"/><path d="M809.13 1008.17l-3.19-42.58-4.47-.3-18.26-1.25-5.88-.39-.11 12.26-27.38 18.57a7.67 7.67 0 0 0-3.36 6.34c0 3.39 2.24 6.38 5.49 7.35.68.21 1.4.32 2.12.32l34.08.28.3-.6 5.66-11.49 2.08 11.49.11.67 12.87.11-.06-.78z" class="a"/><path d="M981.87 960.97L965.49 966l-27.66-62.21 24.18-7.44z" class="a g"/><path d="M983.83 952.07l-4.36 1.06-17.78 4.31h-.02l-5.7 1.4 3.6 11.73-20.5 25.96c-1.05 1.35-1.62 3.02-1.62 4.73 0 4.23 3.41 7.67 7.64 7.69a7.69 7.69 0 0 0 2.24-.33l1.46-.45 31.12-9.57 2.04-13.33 5.76 10.93 12.29-3.79-16.17-40.34z" class="a"/><path d="M766.91 404.55l-32.71 95.07-1.08 7.61c-8.25 7.82 2.11 10.4-1.77 12.47-3.89 2.06-6.5 7.85-1.27 8.88s22.1 371.84 44.36 386.24c22.25 14.4 35.79 24.81 31.7 3.73-4.73-24.41 14.26-245.16 16.32-270.38 3.88 13.34 105.72 263.1 110.5 262.92 6.81-.26 25.94.47 37.31-1.87.11-.02-71.8-296.16-73.21-323.88 0 0-4.7-87.56-37.61-135.93l-2.8-28.75-89.74-16.11z" class="a c"/><path d="M768.4 406.59c-28.35 4.11-74.71 29.25-42.48-26.11l33.9-84.54c-24.84-19.29-3.97-54.92 16.84-90.53l48.33-48.33h41.98l11.1 42.23h0a126.31 126.31 0 0 1 11.73 53.11 126.36 126.36 0 0 1-6.85 40.98c-20.46 59.45 25.34 76.79-6.38 124.38l-17.12 31.63-91.05-42.82z" fill="#fff" class="a e i l"/><circle transform="matrix(.556235 -.216313 .216313 .556235 838.702 102.573)" r="80.17" class="a g"/><path d="M903.08 164.74c6.49 9.3 10.86 19.96 12.74 31.16-5.18 3.3-11.2 5.07-17.35 5.07h-.22a68.11 68.11 0 0 0-.67-2.45 69.94 69.94 0 0 0-7.96-17.91 46.88 46.88 0 0 1 .13 3.35c0 4.89-.86 9.75-2.52 14.35-3.29-1.5-6.82-2.41-10.42-2.69-2.93 0-5.83.69-8.45 1.99l-7.85-26.08c-.06 16.72-24.58 31.3-51.32 29.19-.97-.6 8.72-28.11 7.79-28.74-2.15-1.42-4.23-2.96-6.31-4.47 8.75-13.52 18.26-28.01 16.63-30.19.12 2.69-9.48 15.61-19.92 27.81-5.8-4.26 27.14-73.51 10.86-79.13-.27 2.45-3.86 2.45-8.24 1.93-1.15-4.03-2.88-7.89-5.1-11.44.05.72.09 1.45.09 2.17 0 2.86-.46 5.71-1.36 8.43a61.8 61.8 0 0 0-12.86 1.36 43.33 43.33 0 0 0-3.23-4.41c.04.59.06 1.19.06 1.78a26.31 26.31 0 0 1-.21 3.32c-4.32.94-7.88 2.02-8.39 2.9-3.38-1.24 2.38-6.82.27-9.72-5.37-7.25 2.6-17.81 7.64-25.3 10.35-15.34 33.09-20.65 49.18-11.44.72-2.51 4.43-4.17 9.2-5.28a24.98 24.98 0 0 1 5.38-.59l.78.01c20.53.36 49.03 17.3 50.15 37.8l.39 6.67c1.45 22.95-.33 44.11 15.34 60.89 5.67 6.07 5.73 34.81 3.56 49.61-5.65-5.95-9.66-29.08-17.81-29.95z" class="a"/><circle cx="284.11" cy="493.99" r="83.27" class="c"/><circle cx="284.11" cy="493.99" r="75.14" class="j"/><circle cx="284.11" cy="493.99" r="66" class="c"/><g fill="none" stroke="#505c8f" stroke-width="2" class="e k"><path d="M284.11 434.42v16.32m-12.37-15.01l3.39 15.96m-15.23-12.12l6.63 14.91m-17.41-8.68l9.59 13.2m-18.85-4.88l12.13 10.92m-19.44-.85l14.13 8.16m-19.21 3.23l15.52 5.04m-18.11 7.14l16.23 1.7m-16.23 10.75l16.23-1.7m-13.65 13.88l15.53-5.04m-10.46 16.42l14.13-8.16m-6.81 18.23l12.13-10.92m-2.88 19.25l9.59-13.2m1.19 19.43l6.64-14.91m5.21 18.76l3.39-15.97m8.99 17.27v-16.32m12.38 15.02l-3.39-15.97m15.24 12.12l-6.64-14.91m17.42 8.69l-9.59-13.21m18.85 4.87l-12.13-10.92m19.44.85l-14.13-8.16m19.2-3.22l-15.52-5.04m18.11-7.14l-16.23-1.7m16.23-10.75l-16.23 1.71m13.64-13.89l-15.52 5.04m10.46-16.41l-14.14 8.16m6.82-18.24l-12.13 10.92"/><path d="M319.12 445.8l-9.59 13.21m-1.18-19.43l-6.64 14.91m-5.21-18.76l-3.39 15.96"/></g><circle cx="284.11" cy="493.99" r="29.78" class="j"/><circle cx="696.72" cy="472.03" r="113.46" class="f"/><circle cx="696.72" cy="472.03" r="102.38" class="h"/><circle cx="696.72" cy="472.03" r="89.93" class="f"/><g stroke="#ffe063" fill="none" stroke-width="2" class="e k"><path d="M696.72 390.87v22.24m-16.87-20.47l4.62 21.75m-20.75-16.51l9.04 20.32m-23.73-11.84l13.07 17.99m-25.68-6.64l16.53 14.88m-26.5-1.16l19.26 11.12m-26.18 4.39l21.15 6.88M616 463.54l22.12 2.32M616 480.51l22.12-2.32m-18.59 18.91l21.15-6.87m-14.25 22.37l19.26-11.12m-9.29 24.85l16.53-14.88m-3.92 26.23l13.07-17.99m1.62 26.48l9.05-20.32m7.09 25.56l4.62-21.75m12.25 23.53v-22.24m16.88 20.46l-4.63-21.75m20.76 16.51l-9.04-20.32m23.74 11.84l-13.07-17.99m25.68 6.64l-16.53-14.89m26.5 1.16l-19.26-11.12m26.17-4.38l-21.16-6.88m24.68-9.72l-22.11-2.32m22.11-14.65l-22.11 2.33m18.59-18.92l-21.16 6.87M767 431.45l-19.25 11.12m9.28-24.85l-16.52 14.88"/><path d="M744.42 406.37l-13.07 17.99m-1.61-26.47l-9.05 20.31m-7.09-25.56l-4.63 21.75"/></g><circle cx="696.72" cy="472.03" r="42.21" class="h"/><g class="a"><path d="M705.99 464.16c-1.7-2.99-2.59-6.37-2.59-9.81 0-8.44 5.33-15.96 13.29-18.77l79.09-163.78 29.45 21.33-82.5 155.89a20.08 20.08 0 0 1 .74 5.39c0 11.05-8.96 20.01-20.01 20.01-7.25 0-13.94-3.93-17.47-10.26h0z" class="g"/><path d="M829.55 220.93h0l-3.75-.19c-13.64 0-26.24 7.35-32.95 19.22l-32.43 57.37s71.18 31.43 88.23 8.91c7.18-9.5 11.63-25.47 14.37-40.78a38 38 0 0 0 .62-6.81c0-19.46-14.74-35.76-34.09-37.72h0z" fill="#fff" class="e i l"/></g><path d="M44.48 1008.95H1000" stroke="#e6e6e6" fill="none" class="e l"/></svg>