<svg xmlns="http://www.w3.org/2000/svg" xmlns:xlink="http://www.w3.org/1999/xlink" width="1000" height="1000" viewBox="0 0 254.8 254.8" shape-rendering="geometricPrecision" image-rendering="optimizeQuality" fill-rule="evenodd" xmlns:v="https://vecta.io/nano"><style><![CDATA[.d{fill:#ffd03d}.e{fill:#f9a631}.f{fill:#f7d27f}.g{fill:#efc273}.h{fill-rule:nonzero}.i{fill:#f89c32}.j{clip-rule:nonzero}.k{fill:#e6c6a6}.l{stroke-miterlimit:2.61313}.m{fill:#263674}.n{stroke:#263674}.o{stroke-width:.39}]]></style><defs><clipPath id="A"><path d="M100.83 51.93c-.27-5.02 2.13-10.26 5.66-13.4 1.35-1.21 2.5-2.06 4.24-2.9 4.48-2.17 9.82-2.29 14.4-.35 2.21.94 3.91 2.2 5.3 3.48.4.37.66.71 1.05 1.11.93.95 2.01 2.81 2.61 3.96 1 1.92 1.63 4.58 1.71 7.05.44 12.89-12.82 21.52-24.29 16.63-6.05-2.58-10.28-8.18-10.68-15.58zm13.81-4.36c2.24-1.7 5.05-1.63 7.07.38.17.17.54.65.72.73.32-.41 1.24-.94 1.89-1.2 2.49-.98 5.29.15 6.53 2.15 1.03 1.66.82 3.19.61 5.29-.23 2.17-.8 3.08-2.95 3.37.1-1.76.32-3.59.48-5.36.1-1.17.02-1.45-.6-2.2-.31-.37-1.15-.98-1.89-1.04-1.02-.09-2.25.64-2.78 1.55-.25.42-.25.61-.3 1.16l-.48 5.38c-1.26-.16-2.01-.84-2.37-1.86-.46-1.33.76-4.08-.18-5.54-.63-.99-1.59-1.5-2.82-1.3-.69.12-1.04.35-1.58.59-.1-.38-.33-.88-.54-1.19-.38-.57-.72-.76-.81-.91zm-6.1 2.01l.23-2.79c.04-.22.13-.2.36-.26 4.93-1.35 8.59 3.7 6.14 7.82-2.13 3.57-7.44 3.29-9.29-.38-.74-1.45-.52-2.61-.37-4.25l.4-4.46c.06-.67.05-1.57.48-1.95.52-.47 1.46-.25 1.75.19.38.58.13 1.42.07 2.12l-.16 2.28-.2 2.29c-.07.79-.25 1.42-.04 2.21.75 2.78 4.82 2.87 5.64.02.44-1.54-.39-2.87-1.34-3.38-1.05-.56-2.46-.49-3.32.24-.18.15-.16.2-.35.3zm8.92-14.71c-4.47.3-7.74 1.89-10.77 4.76l-.99 1.05a18.29 18.29 0 0 0-1.31 1.79 16.46 16.46 0 0 0-2.6 9.77c.46 8.85 7.97 16.17 17.36 15.68 4.33-.22 7.85-1.92 10.78-4.74l2.32-2.84c1.81-2.87 2.79-6.2 2.6-9.81-.22-3.91-1.54-6.82-3.76-9.65-.39-.5-.6-.68-.99-1.11-.17-.19-.35-.32-.54-.5-2.52-2.45-7.06-4.73-12.1-4.4zM99.71 51.35c0 4.06 1.37 8.08 3.61 11.05l1.08 1.34c.28.3 1.01 1.16 1.25 1.22l-1.21 3.37c-.04.16-.03.14.05.26l2.11 2.88c.14.18 1.23 1.83 1.47 1.9.02-.25.81-2.36.91-2.66l.93-2.7c.3.07 1.57.8 2.05.84-.01.45-.74 1.96-.74 2.26l3.63 4.94c.02-.27.16-.51.24-.76l1.34-3.81c.16-.48.4-1.03.52-1.53l1.42.05c5.61 0 10.2-2.55 13.01-5.37l2.11-2.47c.39-.58.98-1.48 1.32-2.14 1.27-2.43 2.1-5.5 2.1-8.25v-.73c0-4-1.79-8.67-4.24-11.47-.13-.15-.2-.26-.34-.4-.15-.15-.2-.24-.34-.39-.24-.25-.46-.46-.71-.71-.13-.13-.23-.24-.37-.37-.15-.14-.24-.19-.39-.34-.38-.37-1.46-1.1-1.59-1.3.15-.66.94-2.6 1.05-3.05-.18-.12-.3-.27-.46-.43l-1.34-1.45c-.16-.15-.3-.28-.45-.44-.29-.32-1.14-1.3-1.38-1.46l-.42 1.15-.42 1.15c-.18.5-.74 1.97-.84 2.38-.4-.1-.77-.27-1.2-.38-.27-.08-.96-.3-1.27-.31.11-.47.33-.95.48-1.41.55-1.65.66-1.26.03-1.89l-2.23-2.39c-.16-.15-.32-.3-.46-.48s-.27-.39-.5-.45l-2.21 6.15c-.11.14-.67.11-1.19.17-3.5.44-6.47 1.74-8.96 3.6-.87.65-1.45 1.19-2.21 1.94l-1.9 2.31c-2.13 3.07-3.34 6.76-3.34 10.58z"/></clipPath><clipPath id="B" class="j"/><clipPath  class="j"><path d="M100.83 51.93c-.27-5.02 2.13-10.26 5.66-13.4 1.35-1.21 2.5-2.06 4.24-2.9 4.48-2.17 9.82-2.29 14.4-.35 2.21.94 3.91 2.2 5.3 3.48.4.37.66.71 1.05 1.11.93.95 2.01 2.81 2.61 3.96 1 1.92 1.63 4.58 1.71 7.05.44 12.89-12.82 21.52-24.29 16.63-6.05-2.58-10.28-8.18-10.68-15.58zm13.81-4.36c2.24-1.7 5.05-1.63 7.07.38.17.17.54.65.72.73.32-.41 1.24-.94 1.89-1.2 2.49-.98 5.29.15 6.53 2.15 1.03 1.66.82 3.19.61 5.29-.23 2.17-.8 3.08-2.95 3.37.1-1.76.32-3.59.48-5.36.1-1.17.02-1.45-.6-2.2-.31-.37-1.15-.98-1.89-1.04-1.02-.09-2.25.64-2.78 1.55-.25.42-.25.61-.3 1.16l-.48 5.38c-1.26-.16-2.01-.84-2.37-1.86-.46-1.33.76-4.08-.18-5.54-.63-.99-1.59-1.5-2.82-1.3-.69.12-1.04.35-1.58.59-.1-.38-.33-.88-.54-1.19-.38-.57-.72-.76-.81-.91zm-6.1 2.01l.23-2.79c.04-.22.13-.2.36-.26 4.93-1.35 8.59 3.7 6.14 7.82-2.13 3.57-7.44 3.29-9.29-.38-.74-1.45-.52-2.61-.37-4.25l.4-4.46c.06-.67.05-1.57.48-1.95.52-.47 1.46-.25 1.75.19.38.58.13 1.42.07 2.12l-.16 2.28-.2 2.29c-.07.79-.25 1.42-.04 2.21.75 2.78 4.82 2.87 5.64.02.44-1.54-.39-2.87-1.34-3.38-1.05-.56-2.46-.49-3.32.24-.18.15-.16.2-.35.3zm8.92-14.71c-4.47.3-7.74 1.89-10.77 4.76l-.99 1.05a18.29 18.29 0 0 0-1.31 1.79 16.46 16.46 0 0 0-2.6 9.77c.46 8.85 7.97 16.17 17.36 15.68 4.33-.22 7.85-1.92 10.78-4.74l2.32-2.84c1.81-2.87 2.79-6.2 2.6-9.81-.22-3.91-1.54-6.82-3.76-9.65-.39-.5-.6-.68-.99-1.11-.17-.19-.35-.32-.54-.5-2.52-2.45-7.06-4.73-12.1-4.4zM99.71 51.35c0 4.06 1.37 8.08 3.61 11.05l1.08 1.34c.28.3 1.01 1.16 1.25 1.22l-1.21 3.37c-.04.16-.03.14.05.26l2.11 2.88c.14.18 1.23 1.83 1.47 1.9.02-.25.81-2.36.91-2.66l.93-2.7c.3.07 1.57.8 2.05.84-.01.45-.74 1.96-.74 2.26l3.63 4.94c.02-.27.16-.51.24-.76l1.34-3.81c.16-.48.4-1.03.52-1.53l1.42.05c5.61 0 10.2-2.55 13.01-5.37l2.11-2.47c.39-.58.98-1.48 1.32-2.14 1.27-2.43 2.1-5.5 2.1-8.25v-.73c0-4-1.79-8.67-4.24-11.47-.13-.15-.2-.26-.34-.4-.15-.15-.2-.24-.34-.39-.24-.25-.46-.46-.71-.71-.13-.13-.23-.24-.37-.37-.15-.14-.24-.19-.39-.34-.38-.37-1.46-1.1-1.59-1.3.15-.66.94-2.6 1.05-3.05-.18-.12-.3-.27-.46-.43l-1.34-1.45c-.16-.15-.3-.28-.45-.44-.29-.32-1.14-1.3-1.38-1.46l-.42 1.15-.42 1.15c-.18.5-.74 1.97-.84 2.38-.4-.1-.77-.27-1.2-.38-.27-.08-.96-.3-1.27-.31.11-.47.33-.95.48-1.41.55-1.65.66-1.26.03-1.89l-2.23-2.39c-.16-.15-.32-.3-.46-.48s-.27-.39-.5-.45l-2.21 6.15c-.11.14-.67.11-1.19.17-3.5.44-6.47 1.74-8.96 3.6-.87.65-1.45 1.19-2.21 1.94l-1.9 2.31c-2.13 3.07-3.34 6.76-3.34 10.58z"/></clipPath><clipPath id="D" class="j"/><clipPath  class="j"><path d="M100.83 51.93c-.27-5.02 2.13-10.26 5.66-13.4 1.35-1.21 2.5-2.06 4.24-2.9 4.48-2.17 9.82-2.29 14.4-.35 2.21.94 3.91 2.2 5.3 3.48.4.37.66.71 1.05 1.11.93.95 2.01 2.81 2.61 3.96 1 1.92 1.63 4.58 1.71 7.05.44 12.89-12.82 21.52-24.29 16.63-6.05-2.58-10.28-8.18-10.68-15.58zm13.81-4.36c2.24-1.7 5.05-1.63 7.07.38.17.17.54.65.72.73.32-.41 1.24-.94 1.89-1.2 2.49-.98 5.29.15 6.53 2.15 1.03 1.66.82 3.19.61 5.29-.23 2.17-.8 3.08-2.95 3.37.1-1.76.32-3.59.48-5.36.1-1.17.02-1.45-.6-2.2-.31-.37-1.15-.98-1.89-1.04-1.02-.09-2.25.64-2.78 1.55-.25.42-.25.61-.3 1.16l-.48 5.38c-1.26-.16-2.01-.84-2.37-1.86-.46-1.33.76-4.08-.18-5.54-.63-.99-1.59-1.5-2.82-1.3-.69.12-1.04.35-1.58.59-.1-.38-.33-.88-.54-1.19-.38-.57-.72-.76-.81-.91zm-6.1 2.01l.23-2.79c.04-.22.13-.2.36-.26 4.93-1.35 8.59 3.7 6.14 7.82-2.13 3.57-7.44 3.29-9.29-.38-.74-1.45-.52-2.61-.37-4.25l.4-4.46c.06-.67.05-1.57.48-1.95.52-.47 1.46-.25 1.75.19.38.58.13 1.42.07 2.12l-.16 2.28-.2 2.29c-.07.79-.25 1.42-.04 2.21.75 2.78 4.82 2.87 5.64.02.44-1.54-.39-2.87-1.34-3.38-1.05-.56-2.46-.49-3.32.24-.18.15-.16.2-.35.3zm8.92-14.71c-4.47.3-7.74 1.89-10.77 4.76l-.99 1.05a18.29 18.29 0 0 0-1.31 1.79 16.46 16.46 0 0 0-2.6 9.77c.46 8.85 7.97 16.17 17.36 15.68 4.33-.22 7.85-1.92 10.78-4.74l2.32-2.84c1.81-2.87 2.79-6.2 2.6-9.81-.22-3.91-1.54-6.82-3.76-9.65-.39-.5-.6-.68-.99-1.11-.17-.19-.35-.32-.54-.5-2.52-2.45-7.06-4.73-12.1-4.4zM99.71 51.35c0 4.06 1.37 8.08 3.61 11.05l1.08 1.34c.28.3 1.01 1.16 1.25 1.22l-1.21 3.37c-.04.16-.03.14.05.26l2.11 2.88c.14.18 1.23 1.83 1.47 1.9.02-.25.81-2.36.91-2.66l.93-2.7c.3.07 1.57.8 2.05.84-.01.45-.74 1.96-.74 2.26l3.63 4.94c.02-.27.16-.51.24-.76l1.34-3.81c.16-.48.4-1.03.52-1.53l1.42.05c5.61 0 10.2-2.55 13.01-5.37l2.11-2.47c.39-.58.98-1.48 1.32-2.14 1.27-2.43 2.1-5.5 2.1-8.25v-.73c0-4-1.79-8.67-4.24-11.47-.13-.15-.2-.26-.34-.4-.15-.15-.2-.24-.34-.39-.24-.25-.46-.46-.71-.71-.13-.13-.23-.24-.37-.37-.15-.14-.24-.19-.39-.34-.38-.37-1.46-1.1-1.59-1.3.15-.66.94-2.6 1.05-3.05-.18-.12-.3-.27-.46-.43l-1.34-1.45c-.16-.15-.3-.28-.45-.44-.29-.32-1.14-1.3-1.38-1.46l-.42 1.15-.42 1.15c-.18.5-.74 1.97-.84 2.38-.4-.1-.77-.27-1.2-.38-.27-.08-.96-.3-1.27-.31.11-.47.33-.95.48-1.41.55-1.65.66-1.26.03-1.89l-2.23-2.39c-.16-.15-.32-.3-.46-.48s-.27-.39-.5-.45l-2.21 6.15c-.11.14-.67.11-1.19.17-3.5.44-6.47 1.74-8.96 3.6-.87.65-1.45 1.19-2.21 1.94l-1.9 2.31c-2.13 3.07-3.34 6.76-3.34 10.58z"/></clipPath><path id="F" d="M53.7 99.18c-.84.83-2.19.83-3.02 0-.84-.84-.84-2.19 0-3.02.83-.84 2.18-.84 3.02 0 .83.83.83 2.18 0 3.02z"/><path id="G" d="M201.55 94.95a2.14 2.14 0 0 1-2.14-2.13c0-1.18.96-2.14 2.14-2.14s2.13.96 2.13 2.14c0 1.17-.95 2.13-2.13 2.13z"/><path id="H" d="M220.59 155.62c.84-.83 2.19-.83 3.02 0 .84.83.84 2.19 0 3.02-.83.83-2.18.83-3.02 0-.83-.83-.83-2.19 0-3.02z"/><path id="I" d="M85.62 175.2c0 1.89-12.88 3.43-28.78 3.43-15.89 0-28.77-1.54-28.77-3.43s12.88-3.42 28.77-3.42c15.9 0 28.78 1.53 28.78 3.42z"/><path id="J" d="M90.06 175.12H87.4c-.39 0-.7.04-.7.08 0 .05.31.09.7.09h2.66c.39 0 .7-.04.7-.09 0-.04-.31-.08-.7-.08z"/><path id="K" d="M26.99 175.2c0-.04-.31-.08-.7-.08h-2.66c-.39 0-.7.04-.7.08 0 .05.31.09.7.09h2.66c.39 0 .7-.04.7-.09z"/><path id="L" d="M95.48 167.1c0 2.32-15.79 4.2-35.26 4.2s-35.26-1.88-35.26-4.2 15.79-4.2 35.26-4.2 35.26 1.88 35.26 4.2z"/><path id="M" d="M88.99 167.1c0 1.89-12.88 3.43-28.77 3.43s-28.77-1.54-28.77-3.43 12.88-3.42 28.77-3.42 28.77 1.53 28.77 3.42z"/><path id="N" d="M60.22 163.06c-.39 0-.71.04-.71.09v.31c0 .05.32.09.71.09s.71-.04.71-.09v-.31c0-.05-.32-.09-.71-.09z"/><path id="O" d="M92.11 159c0 2.32-15.79 4.2-35.27 4.2-19.47 0-35.26-1.88-35.26-4.2s15.79-4.2 35.26-4.2c19.48 0 35.27 1.88 35.27 4.2z"/><path id="P" d="M85.62 159c0 1.89-12.88 3.43-28.78 3.43-15.89 0-28.77-1.54-28.77-3.43s12.88-3.43 28.77-3.43c15.9 0 28.78 1.54 28.78 3.43z"/><path id="Q" d="M56.84 162.56c-.39 0-.7.03-.7.08v.32c0 .04.31.08.7.08s.71-.04.71-.08v-.32c0-.05-.32-.08-.71-.08z"/><path id="R" d="M88.99 150.9c0 1.89-12.88 3.42-28.77 3.42s-28.77-1.53-28.77-3.42 12.88-3.43 28.77-3.43 28.77 1.54 28.77 3.43z"/><path id="S" d="M60.22 146.86c-.39 0-.71.04-.71.08v.32c0 .05.32.08.71.08s.71-.03.71-.08v-.32c0-.04-.32-.08-.71-.08z"/><path id="T" d="M56.84 138.76c-.39 0-.7.04-.7.08v.32c0 .05.31.08.7.08s.71-.03.71-.08v-.32c0-.04-.32-.08-.71-.08z"/><path id="U" d="M88.99 134.69c0 1.9-12.88 3.43-28.77 3.43s-28.77-1.53-28.77-3.43c0-1.89 12.88-3.42 28.77-3.42s28.77 1.53 28.77 3.42z"/><path id="V" d="M133.91 239.66h-2.65c-.39 0-.71.04-.71.09 0 .04.32.08.71.08h2.65c.4 0 .71-.04.71-.08 0-.05-.31-.09-.71-.09z"/><path id="W" d="M114.3 236.05c-.36-.02-.77 0-.93.04l-1.06.29c-.16.04.01.09.36.11.36.02.78 0 .93-.04l1.06-.29c.16-.04 0-.09-.36-.11z"/><path id="X" d="M137.29 231.56h-2.66c-.39 0-.7.04-.7.09 0 .04.31.08.7.08h2.66c.39 0 .71-.04.71-.08 0-.05-.32-.09-.71-.09z"/><path id="Y" d="M139.34 215.44c0 2.32-15.79 4.2-35.26 4.2-19.48 0-35.27-1.88-35.27-4.2s15.79-4.2 35.27-4.2c19.47 0 35.26 1.88 35.26 4.2z"/><path id="Z" d="M104.08 211.4c-.39 0-.71.04-.71.09v.31c0 .05.32.09.71.09s.7-.04.7-.09v-.31c0-.05-.31-.09-.7-.09z"/><path id="a" d="M45.9 176.45c0 .13 0 .4-.26.4h0c-.14 0-.4 0-.4-.27l-.66-2.51c0-.14 0-.4.26-.4h0c.13 0 .4 0 .4.26l.66 2.52z"/></defs><path d="M0 0h254.8v254.8H0z" fill="#fff"/><g fill="#e6e6e6" class="h"><path d="M254.8 40.61h-52.74v1.42h52.74z"/><path d="M202.16 43.46c-1.18 0-2.13-.96-2.13-2.14s.95-2.13 2.13-2.13 2.14.95 2.14 2.13-.96 2.14-2.14 2.14zm52.64-13.51h-60.81l-17.85 17.84H94.56v1.42h82.17l17.85-17.84h60.22z"/><path d="M94.66 50.64c-1.18 0-2.13-.96-2.13-2.14s.95-2.13 2.13-2.13 2.14.95 2.14 2.13-.96 2.14-2.14 2.14zM254.8 63.18h-55.89l-21.33 21.34H64.33L51.61 97.24l1 1 12.31-12.3h113.25L199.5 64.6h55.3z"/><use xlink:href="#F"/><path d="M254.8 50.87h-66.56l-20.1 20.1H65.74L49.13 54.36l-1.01 1 17.03 17.03h103.58l20.1-20.1h65.97z"/><path d="M47.19 56.44c-.83-.83-.83-2.18 0-3.02.83-.83 2.19-.83 3.02 0 .83.84.83 2.19 0 3.02-.83.84-2.19.84-3.02 0zM254.8 77.65h-56.3l-18.61 18.61H79.72l-11.16 11.16 1 1 10.75-10.74h100.16l18.62-18.61h55.71z"/><use xlink:href="#F" x="16.95" y="10.18"/><path d="M254.8 18.25h-67.37l-14.47 14.47 1 1 14.05-14.05h66.79z"/><path d="M175.04 34.66c-.83.83-2.18.83-3.02 0-.83-.84-.83-2.19 0-3.02.84-.84 2.19-.84 3.02 0 .84.83.84 2.18 0 3.02zM64.1 45.13H21.52v1.42h41.99L79.1 62.14h90.57v-1.42H79.69z"/><path d="M21.63 47.97a2.14 2.14 0 0 1-2.14-2.13c0-1.18.96-2.14 2.14-2.14s2.14.96 2.14 2.14a2.14 2.14 0 0 1-2.14 2.13zM68.1 17.12l-1 1.01 21.24 21.23h62.13l17.44-17.43-1-1.01-17.03 17.02H88.92z"/><path d="M66.17 19.21c-.84-.83-.84-2.19 0-3.02.83-.83 2.18-.83 3.02 0 .83.83.83 2.19 0 3.02-.84.83-2.19.83-3.02 0zm188.63 72.9h-53.36v1.42h53.36z"/><use xlink:href="#G"/><path d="M83.18 1.43h-35.4v1.42h34.81l22.77 22.77h41.21l19.29-19.28h88.94V4.92h-89.53L145.99 24.2h-40.04z"/><use xlink:href="#G" x="-153.66" y="-90.68"/><path d="M254.8 109.14h-73.94l-17.64 17.64H66.66v1.42h97.14l17.65-17.64h73.35z"/><path d="M66.76 129.62c-1.18 0-2.13-.95-2.13-2.13s.95-2.14 2.13-2.14 2.14.96 2.14 2.14-.96 2.13-2.14 2.13zm88.95-16.38h-53.77v1.42h53.77z"/><path d="M102.05 116.08c-1.18 0-2.14-.95-2.14-2.13s.96-2.14 2.14-2.14 2.13.96 2.13 2.14-.95 2.13-2.13 2.13zm152.75 7.83h-73.26v1.42h73.26z"/><path d="M181.65 126.75c-1.18 0-2.14-.95-2.14-2.13s.96-2.14 2.14-2.14 2.14.96 2.14 2.14-.96 2.13-2.14 2.13zM19.49 214.18h52.74v-1.42H19.49z"/><path d="M72.13 211.34c1.18 0 2.13.95 2.13 2.13s-.95 2.14-2.13 2.14-2.14-.96-2.14-2.14.96-2.13 2.14-2.13zm-52.64 13.51H80.3L98.15 207h81.58v-1.42H97.56l-17.85 17.85H19.49z"/><path d="M179.63 204.16c1.18 0 2.13.95 2.13 2.13s-.95 2.14-2.13 2.14-2.14-.96-2.14-2.14.96-2.13 2.14-2.13zM19.49 191.61h55.89l21.33-21.33h113.25l12.72-12.72-1-1.01-12.31 12.31H96.12l-21.33 21.33h-55.3z"/><use xlink:href="#H"/><path d="M19.49 203.93h66.56l20.1-20.11h102.4l16.61 16.62 1.01-1-17.03-17.04H105.56l-20.1 20.11H19.49z"/><path d="M227.1 198.35c.83.84.83 2.19 0 3.02-.83.84-2.19.84-3.02 0-.83-.83-.83-2.18 0-3.02.84-.83 2.19-.83 3.02 0zm-207.61-21.2h56.3l18.62-18.61h100.16l11.16-11.16-1-1.01-10.75 10.75H93.82L75.2 175.73H19.49z"/><use xlink:href="#H" x="-16.95" y="-10.18"/><path d="M19.49 236.55h67.38l14.46-14.47-1-1.01-14.05 14.06H19.49z"/><path d="M99.25 220.14c.83-.83 2.18-.83 3.02 0 .83.83.83 2.19 0 3.02-.84.83-2.19.83-3.02 0-.84-.83-.84-2.19 0-3.02zm110.94-10.47h42.58v-1.42h-41.99l-15.59-15.59h-90.56v1.42h89.97z"/><path d="M252.66 206.83c1.18 0 2.14.95 2.14 2.13s-.96 2.14-2.14 2.14-2.13-.96-2.13-2.14.95-2.13 2.13-2.13zm-46.47 30.84l1-1-21.23-21.24h-62.14l-17.44 17.44 1 1 17.03-17.02h60.96z"/><path d="M208.12 235.59c.84.83.84 2.18 0 3.02-.83.83-2.18.83-3.02 0-.83-.84-.83-2.19 0-3.02.84-.84 2.19-.84 3.02 0zm-188.63-72.9h53.36v-1.42H19.49z"/><path d="M72.74 159.85c1.18 0 2.14.95 2.14 2.13s-.96 2.14-2.14 2.14-2.13-.96-2.13-2.14.95-2.13 2.13-2.13zm118.37 93.52h35.4v-1.42H191.7l-22.77-22.77h-41.21l-19.29 19.28H19.49v1.42h89.53l19.29-19.28h40.03z"/><path d="M226.4 250.53c1.18 0 2.14.95 2.14 2.13s-.96 2.14-2.14 2.14a2.14 2.14 0 0 1-2.13-2.14c0-1.18.96-2.13 2.13-2.13zM19.49 145.66h73.94l17.65-17.64h96.55v-1.42h-97.14l-17.65 17.64H19.49z"/><path d="M207.53 125.17c1.18 0 2.13.96 2.13 2.14s-.95 2.13-2.13 2.13-2.14-.95-2.14-2.13.96-2.14 2.14-2.14zm-88.95 16.39h53.77v-1.42h-53.77z"/><path d="M172.24 138.71c1.18 0 2.14.96 2.14 2.14s-.96 2.13-2.14 2.13-2.13-.95-2.13-2.13.95-2.14 2.13-2.14zm-152.75-7.82h73.26v-1.42H19.49z"/><path d="M92.64 128.04c1.18 0 2.14.96 2.14 2.14s-.96 2.13-2.14 2.13-2.13-.95-2.13-2.13.95-2.14 2.13-2.14z"/></g><path d="M197.05 182.87h-29.98-.07a3 3 0 0 1-3-2.93V83.65a3 3 0 0 1 3-2.93h.07 29.98.07a3 3 0 0 1 2.99 2.93v96.29a3 3 0 0 1-2.99 2.93c-.03 0-.05 0-.07-.01v.01z" fill="#fdbe11" class="h"/><path d="M141.87 185.96h-29.98-.07a3 3 0 0 1-3-2.92v-45.03a3 3 0 0 1 3-2.92h.07 29.98.07a3 3 0 0 1 2.99 2.92v45.03a3 3 0 0 1-2.99 2.92h-.07 0zm109.86-3.09h-29.98c-1.69-.01-3.06-1.38-3.06-3.07V55.93a3.06 3.06 0 0 1 3.06-3.06h29.98c1.69 0 3.06 1.37 3.07 3.06V179.8c-.01 1.69-1.38 3.06-3.07 3.06v.01z" fill="#f9a92d" class="h"/><g class="m h"><circle cx="182.06" cy="56.99" r="6.19"/><circle cx="236.74" cy="34.29" r="6.19"/><path d="M127.51 118.22L72.69 77.16l-54.06 40.5-1.24-1.65 55.3-41.42 54.56 40.86 54.2-59.33.22-.08L236.35 34l.78 1.92-54.47 21.94z"/></g><path d="M124.32 48.78c16.77-1.71 90-15.79 97.56-8.71 2.56 2.42 4.18 5.67 4.08 9.24-.11 3.89-2.08 7.53-4.53 10.45-5.28 6.29-13.01 10.22-20.43 13.39-7.88 3.37-16.1 6-23.67 10.06-6.65 3.57-12.85 8.39-16.87 14.88a27.01 27.01 0 0 0-3.85 10.33c-.19 1.35-.29 2.72-.29 4.09a28.97 28.97 0 0 0 .84 6.94c1.77 7.4 6.12 13.95 11.93 18.8 5.87 4.92 12.99 8.2 20.36 10.15 8.75 2.33 17.87 2.85 26.89 2.91 9.32.05 18.64-.41 27.94.12 2.27.12 4.53.31 6.78.57.83.1.83-1.21 0-1.3-9.3-1.08-18.67-.83-28.01-.73-9.16.11-18.39.07-27.43-1.54-7.8-1.4-15.44-4.01-22.06-8.44-6.33-4.24-11.49-10.2-14.1-17.42-2.56-7.05-2.53-14.86.89-21.62 3.42-6.77 9.39-11.89 15.87-15.63 7.48-4.31 15.72-7.01 23.67-10.3 7.51-3.11 15.19-6.81 20.96-12.68 2.67-2.72 4.96-6.03 5.94-9.76a13.23 13.23 0 0 0 .47-3.49c0-2.44-.68-4.83-1.95-6.9a17.61 17.61 0 0 0-7.77-6.54c-4.2-1.9-90.04 11.67-93.22 11.83-.83.04-.84 1.35 0 1.3h0z" fill="#69f" class="h"/><path d="M158.76 246.63l-5.23 1.05-6.51-19.68 7.72-1.54z" class="h k"/><path d="M161.1 251.44l-16.86 3.36-.05-.22c-.08-.43-.13-.87-.13-1.3 0-3.2 2.26-5.94 5.39-6.57h0l10.3-2.05 1.35 6.78z" class="h"/><path d="M208.72 249.63h-5.34l-6.01-20.57h7.87z" class="h k"/><path d="M210.08 254.8h-17.2v-.22a6.69 6.69 0 0 1 6.69-6.69h.01 10.5v6.91z" class="h"/><path d="M195.99 190.88c.66-.83 1.02-1.85 1.02-2.91a4.67 4.67 0 0 0-2.45-4.11l-10.65-41.2-9.27 4.17 13.38 39.19c-.28.61-.42 1.28-.42 1.96a4.69 4.69 0 0 0 4.69 4.69 4.7 4.7 0 0 0 3.7-1.79h0z" fill="#b38b56" class="h"/><path d="M186.4 149.56l-10.3 2.43c-.16.04-.32.06-.48.06a2.1 2.1 0 0 1-2.09-1.92l-.89-10.51c-.1-.43-.15-.87-.15-1.31a5.81 5.81 0 0 1 5.82-5.81 5.82 5.82 0 0 1 5.66 4.48l3.89 9.77a2.03 2.03 0 0 1 .15.77c0 .97-.67 1.82-1.61 2.04h0z" fill="#fff" class="h l n o"/><path d="M151.27 242.9a1.96 1.96 0 0 1-1.92-1.55l-5.18-24.91c-.17-.8-.25-1.63-.25-2.45 0-2.39.7-4.72 2.02-6.71l16.35-24.52v-18.38l18.97-4.27.09.06c9.84 8.04 9.27 17.95 9.21 18.72l18.65 60.56c.06.18.09.38.09.57 0 1.08-.88 1.96-1.96 1.96h-5.6a1.97 1.97 0 0 1-1.82-1.23l-20.1-48.01-23.65 19.47c-.35.29-.56.72-.56 1.18 0 .04 0 .08.01.12l2.18 26.77c0 .05.01.11.01.17a1.95 1.95 0 0 1-1.75 1.93l-4.57.51c-.08.01-.15.01-.22.01h0z" class="h m"/><circle cx="175.52" cy="115.12" r="10.68" class="h k"/><path d="M163.3 166.42c-.8 0-1.52-.48-1.82-1.21-3.58-8.79-3.52-19.89-1.95-26.48a12.26 12.26 0 0 1 11.92-9.4c.22 0 .45 0 .68.02h0c6.51.34 11.62 5.73 11.62 12.26 0 .59-.05 1.19-.13 1.78-.84 5.67-1.18 13.66-1.29 16.83a1.94 1.94 0 0 1-1.47 1.82l-17.09 4.32c-.15.04-.31.06-.47.06h0z" fill="#fff" class="h l n o"/><path d="M163.49 102.65a5.39 5.39 0 0 1-.68.22l-7.53 20.21 3.34 4.05-5.45 5.82-6.59-6.58a3.46 3.46 0 0 1-.6-4.13l11.79-21.53c-.4-.69-.61-1.48-.61-2.27a4.57 4.57 0 0 1 4.57-4.57 4.56 4.56 0 0 1 4.56 4.57c0 1.83-1.1 3.49-2.8 4.21h0z" class="h k"/><path d="M151.25 132.38l6-8.72c.39-.57 1.04-.91 1.72-.91a2.09 2.09 0 0 1 1.43.56l7.72 7.2c1.56 1.08 2.49 2.87 2.49 4.77a5.82 5.82 0 0 1-5.81 5.82 5.86 5.86 0 0 1-3.31-1.03l-9.44-4.62a2.11 2.11 0 0 1-1.17-1.89c0-.42.13-.84.37-1.18h0z" fill="#fff" class="h l n o"/><path d="M174.91 127.37c-.77-.86-.32-2.32.39-3.23s1.68-1.69 1.96-2.84c.47-1.97-1.31-3.76-3.09-4.4s-3.77-.68-5.34-1.8c-2.38-1.69-2.92-5.54-1.55-8.24 1.36-2.71 4.22-4.26 7.05-4.49s5.64.69 8.24 1.95c2.5 1.22 4.92 2.8 6.68 5.09 1.77 2.29 2.8 5.37 2.29 8.3-.62 3.58-3.42 6.34-6.54 7.69s-6.54 1.53-9.89 1.69l-.2.28z" class="h"/><path d="M186.8 106.97a18.21 18.21 0 0 1 12.82-5.27c4.42 0 8.69 1.61 12.01 4.53 5.78 5.07 7.99 13.43 14.06 18.15 5.46 4.26 13.67 4.58 19.44.76-2.63 3.08-5.32 6.2-8.69 8.45-3.38 2.24-7.6 3.54-11.54 2.58-4.63-1.13-7.99-5.07-10.6-9.05-2.62-3.98-4.92-8.34-8.71-11.22-2.83-2.14-6.28-3.3-9.83-3.3h-.15c-2.21.02-4.46.5-6.59-.07s-4.08-2.74-3.37-4.83l1.15-.73z" class="h"/><path d="M100.83 51.93c-.27-5.02 2.13-10.26 5.66-13.4 1.35-1.21 2.5-2.06 4.24-2.9 4.48-2.17 9.82-2.29 14.4-.35 2.21.94 3.91 2.2 5.3 3.48.4.37.66.71 1.05 1.11.93.95 2.01 2.81 2.61 3.96 1 1.92 1.63 4.58 1.71 7.05.44 12.89-12.82 21.52-24.29 16.63-6.05-2.58-10.28-8.18-10.68-15.58zm13.81-4.36c2.24-1.7 5.05-1.63 7.07.38.17.17.54.65.72.73.32-.41 1.24-.94 1.89-1.2 2.49-.98 5.29.15 6.53 2.15 1.03 1.66.82 3.19.61 5.29-.23 2.17-.8 3.08-2.95 3.37.1-1.76.32-3.59.48-5.36.1-1.17.02-1.45-.6-2.2-.31-.37-1.15-.98-1.89-1.04-1.02-.09-2.25.64-2.78 1.55-.25.42-.25.61-.3 1.16l-.48 5.38c-1.26-.16-2.01-.84-2.37-1.86-.46-1.33.76-4.08-.18-5.54-.63-.99-1.59-1.5-2.82-1.3-.69.12-1.04.35-1.58.59-.1-.38-.33-.88-.54-1.19-.38-.57-.72-.76-.81-.91zm-6.1 2.01l.23-2.79c.04-.22.13-.2.36-.26 4.93-1.35 8.59 3.7 6.14 7.82-2.13 3.57-7.44 3.29-9.29-.38-.74-1.45-.52-2.61-.37-4.25l.4-4.46c.06-.67.05-1.57.48-1.95.52-.47 1.46-.25 1.75.19.38.58.13 1.42.07 2.12l-.16 2.28-.2 2.29c-.07.79-.25 1.42-.04 2.21.75 2.78 4.82 2.87 5.64.02.44-1.54-.39-2.87-1.34-3.38-1.05-.56-2.46-.49-3.32.24-.18.15-.16.2-.35.3zm8.92-14.71c-4.47.3-7.74 1.89-10.77 4.76l-.99 1.05a18.29 18.29 0 0 0-1.31 1.79 16.46 16.46 0 0 0-2.6 9.77c.46 8.85 7.97 16.17 17.36 15.68 4.33-.22 7.85-1.92 10.78-4.74l2.32-2.84c1.81-2.87 2.79-6.2 2.6-9.81-.22-3.91-1.54-6.82-3.76-9.65-.39-.5-.6-.68-.99-1.11-.17-.19-.35-.32-.54-.5-2.52-2.45-7.06-4.73-12.1-4.4zM99.71 51.35c0 4.06 1.37 8.08 3.61 11.05l1.08 1.34c.28.3 1.01 1.16 1.25 1.22l-1.21 3.37c-.04.16-.03.14.05.26l2.11 2.88c.14.18 1.23 1.83 1.47 1.9.02-.25.81-2.36.91-2.66l.93-2.7c.3.07 1.57.8 2.05.84-.01.45-.74 1.96-.74 2.26l3.63 4.94c.02-.27.16-.51.24-.76l1.34-3.81c.16-.48.4-1.03.52-1.53l1.42.05c5.61 0 10.2-2.55 13.01-5.37l2.11-2.47c.39-.58.98-1.48 1.32-2.14 1.27-2.43 2.1-5.5 2.1-8.25v-.73c0-4-1.79-8.67-4.24-11.47-.13-.15-.2-.26-.34-.4-.15-.15-.2-.24-.34-.39-.24-.25-.46-.46-.71-.71-.13-.13-.23-.24-.37-.37-.15-.14-.24-.19-.39-.34-.38-.37-1.46-1.1-1.59-1.3.15-.66.94-2.6 1.05-3.05-.18-.12-.3-.27-.46-.43l-1.34-1.45c-.16-.15-.3-.28-.45-.44-.29-.32-1.14-1.3-1.38-1.46l-.42 1.15-.42 1.15c-.18.5-.74 1.97-.84 2.38-.4-.1-.77-.27-1.2-.38-.27-.08-.96-.3-1.27-.31.11-.47.33-.95.48-1.41.55-1.65.66-1.26.03-1.89l-2.23-2.39c-.16-.15-.32-.3-.46-.48s-.27-.39-.5-.45l-2.21 6.15c-.11.14-.67.11-1.19.17-3.5.44-6.47 1.74-8.96 3.6-.87.65-1.45 1.19-2.21 1.94l-1.9 2.31c-2.13 3.07-3.34 6.76-3.34 10.58z" fill="#db1524"/><g clip-path="url(#A)"><g clip-path="url(#B)" class="h"><path d="M108.26 102.62h42.44v24.5h-42.44z" fill-opacity=".502"/></g><g clip-path="url(#D)" class="l"><path d="M261.4 99.43h8.2v2.12h-8.2z" stroke="#000" stroke-width=".2" fill="none"/></g></g><path d="M114.3 47.49c.1.15.45.35.84.94.21.32.45.83.56 1.22.55-.25.9-.48 1.61-.6 1.27-.21 2.24.31 2.9 1.32.96 1.5-.29 4.33.18 5.69.37 1.04 1.13 1.74 2.43 1.91l.49-5.52c.05-.57.05-.76.31-1.2.54-.93 1.81-1.67 2.86-1.58.75.06 1.62.69 1.93 1.07.63.76.72 1.05.61 2.25l-.49 5.5c2.21-.3 2.8-1.23 3.03-3.45.22-2.16.43-3.73-.62-5.43-1.27-2.06-4.15-3.21-6.7-2.21-.67.26-1.61.81-1.94 1.24-.19-.09-.57-.58-.74-.75-2.08-2.07-4.96-2.14-7.26-.4zm-6.25 2.07c.19-.11.18-.16.35-.31.89-.75 2.34-.83 3.42-.25.96.53 1.81 1.89 1.36 3.47-.83 2.93-5.01 2.83-5.78-.02-.21-.81-.03-1.46.04-2.27l.2-2.35.17-2.33c.06-.73.32-1.59-.07-2.18-.3-.46-1.26-.68-1.8-.2-.44.39-.43 1.32-.49 2l-.41 4.58c-.15 1.68-.37 2.87.38 4.36 1.9 3.77 7.35 4.05 9.53.38 2.51-4.21-1.24-9.4-6.3-8.02-.24.07-.32.05-.37.27l-.23 2.87z" fill="#fff"/><g class="h"><path d="M21.58 175.2v6.69c0 2.32 15.79 4.2 35.26 4.2 19.48 0 35.27-1.88 35.27-4.2v-6.69H21.58z" class="i"/><path d="M92.11 175.2c0 2.32-15.79 4.2-35.27 4.2-19.47 0-35.26-1.88-35.26-4.2 0-2.31 15.79-4.2 35.26-4.2 19.48 0 35.27 1.89 35.27 4.2z" class="d"/><use xlink:href="#I" class="e"/><path d="M69.52 175.68c-.48-.14-1.18-.25-2.11-.34-1.21-.12-3.69-.24-7.41-.35l-.49-.01-1.95-.06c-5.7-.15-8.54-.39-8.54-.71 0-.2.69-.36 2.06-.48 1.38-.12 3.22-.18 5.52-.18l5.8.22c1.4.15 2.18.36 2.35.63h0c0 .15 1.01.27 2.26.27s2.26-.12 2.26-.27l-.05-.05c-.12-.38-1.21-.69-3.31-.91-1.85-.2-4.28-.31-7.28-.34v-.47c0-.12-.8-.21-1.79-.21-.98 0-1.78.09-1.78.21v.47l-7.14.33c-2.26.22-3.38.51-3.38.88 0 .3.75.53 2.26.69 1.51.17 4.61.31 9.3.45l.8.02c5.79.16 8.68.4 8.68.72 0 .23-.77.41-2.31.54-1.54.14-3.64.21-6.32.21-2.71 0-4.87-.09-6.49-.27s-2.46-.41-2.5-.71c-.02-.15-1.02-.27-2.26-.27-1.23 0-2.23.12-2.25.27h-.02c.18.47 1.43.83 3.77 1.08 1.96.21 4.59.34 7.86.37v.37c0 .11.8.21 1.78.21.99 0 1.79-.1 1.79-.21v-.37l8.05-.34c2.38-.24 3.58-.55 3.58-.95 0-.16-.25-.31-.74-.44z" class="d"/><g class="e"><path d="M56.84 171.16c-.39 0-.7.04-.7.09v.32c0 .04.31.08.7.08s.71-.04.71-.08v-.32c0-.05-.32-.09-.71-.09z"/><use xlink:href="#J"/><use xlink:href="#K"/><path d="M79.83 172.35l-1.88.22c-.27.03-.27.09 0 .12.28.03.72.03 1 0l1.88-.22c.28-.04.28-.09 0-.12-.28-.04-.72-.04-1 0zm-45.97 0c-.28-.04-.73-.04-1 0-.28.03-.28.08 0 .12l1.88.22c.27.03.72.03 1 0 .27-.03.27-.09 0-.12l-1.88-.22zm36.59-.85c-.36-.02-.77 0-.93.05l-1.07.29c-.15.04.01.09.36.11.36.02.78 0 .93-.05l1.07-.28c.16-.05 0-.1-.36-.12zm-41.31 2.17l-2.44-.13c-.36-.02-.77 0-.93.04-.15.05.01.1.36.12l2.44.12c.36.02.77 0 .93-.04.15-.05-.01-.09-.36-.11zm56.42.28l2.48-.11c.36-.02.53-.06.4-.11-.14-.04-.56-.06-.92-.05l-2.48.12c-.36.02-.54.07-.39.11.14.04.55.06.91.04zm-40.16-2.46c-.14-.04-.55-.06-.91-.05-.36.02-.54.07-.4.11l.97.3c.14.04.55.06.91.04.37-.01.55-.06.4-.11l-.97-.29z"/></g><path d="M24.96 167.1v6.69c0 2.32 15.79 4.2 35.26 4.2s35.26-1.88 35.26-4.2v-6.69H24.96z" class="i"/><use xlink:href="#L" class="d"/><use xlink:href="#M" class="e"/><path d="M72.9 167.58c-.48-.14-1.18-.25-2.11-.34-1.22-.13-3.69-.24-7.41-.35l-.5-.01-1.95-.06c-5.69-.16-8.53-.39-8.53-.71 0-.2.68-.36 2.06-.48 1.37-.12 3.21-.18 5.51-.18l5.81.22c1.4.15 2.18.35 2.35.62l-.01.01c0 .15 1.02.27 2.27.27 1.24 0 2.26-.12 2.26-.27l-.05-.05c-.12-.38-1.22-.69-3.31-.91-1.85-.2-4.29-.31-7.29-.34v-.47c0-.12-.8-.21-1.78-.21s-1.78.09-1.78.21v.47l-7.15.32c-2.25.23-3.38.52-3.38.89 0 .3.76.53 2.27.69 1.5.17 4.61.31 9.3.44l.8.03c5.79.16 8.68.4 8.68.72 0 .23-.77.41-2.31.54-1.54.14-3.65.2-6.33.2-2.7 0-4.86-.09-6.48-.26-1.62-.18-2.45-.42-2.5-.71-.02-.15-1.03-.27-2.26-.27-1.24 0-2.24.12-2.26.27h-.01c.17.47 1.42.83 3.76 1.08 1.97.21 4.59.34 7.87.37v.36c0 .12.8.22 1.78.22s1.78-.1 1.78-.22v-.36l8.05-.34c2.39-.24 3.58-.55 3.58-.95 0-.16-.24-.31-.73-.44z" class="d"/><g class="e"><use xlink:href="#N"/><path d="M60.22 170.65c-.39 0-.71.04-.71.09v.32c0 .04.32.08.71.08s.71-.04.71-.08v-.32c0-.05-.32-.09-.71-.09zm33.21-3.63h-2.66c-.38 0-.7.03-.7.08s.32.09.7.09h2.66c.4 0 .71-.04.71-.09s-.31-.08-.71-.08zm-63.06.08c0-.05-.32-.08-.71-.08H27c-.38 0-.7.03-.7.08s.32.09.7.09h2.66c.39 0 .71-.04.71-.09zm52.84-2.85l-1.88.22c-.28.03-.28.08 0 .12.27.03.72.03.99 0l1.88-.23c.28-.03.28-.08 0-.11a4.1 4.1 0 0 0-.99 0zm-45.09 5.36l-1.89.23c-.27.03-.27.09 0 .12.28.03.72.03 1 0l1.88-.23c.28-.03.28-.08 0-.12-.27-.03-.72-.03-.99 0zm44.2 0c-.27-.03-.72-.03-.99 0-.28.04-.28.09 0 .12l1.88.23c.27.03.72.03.99 0 .28-.03.28-.09 0-.12l-1.88-.23zm-45.09-5.36c-.28-.04-.72-.04-1 0-.27.03-.27.08 0 .11l1.89.23c.27.03.72.03.99 0 .28-.04.28-.09 0-.12l-1.88-.22zm36.59-.85c-.35-.02-.77 0-.93.05l-1.06.29c-.16.04 0 .09.36.11.36.01.77 0 .93-.05l1.07-.29c.15-.04-.01-.09-.37-.11zm-25.57 6.96c-.36-.02-.77 0-.93.04l-1.07.29c-.15.04.01.09.37.11s.77 0 .93-.04l1.06-.29c.16-.04 0-.09-.36-.11zm42.68-1.75l-2.44-.13c-.35-.01-.77 0-.93.05-.15.04.01.09.37.11l2.44.13c.35.01.77 0 .92-.05.16-.04-.01-.09-.36-.11zm-58.42-3.04l-2.44-.13c-.35-.02-.77 0-.92.04-.16.04 0 .09.36.11l2.43.13c.36.02.78 0 .93-.04.16-.04 0-.09-.36-.11zm56.42.28l2.48-.11c.36-.02.54-.06.4-.11-.14-.04-.55-.06-.91-.04l-2.48.11c-.36.02-.54.06-.4.11.14.04.55.06.91.04zm-57.43 2.5l-2.47.12c-.37.01-.54.06-.4.1.14.05.55.07.91.05l2.48-.11c.36-.02.54-.07.4-.11-.14-.05-.55-.07-.92-.05zm40.5 2.11c-.14-.05-.55-.06-.91-.05-.36.02-.54.07-.4.11l.97.3c.14.04.55.06.91.04.36-.01.54-.06.4-.11l-.97-.29zm-23.22-7.07c-.14-.04-.55-.07-.91-.05-.37.02-.54.07-.4.11l.97.29c.13.05.54.07.91.05.36-.01.54-.06.4-.11l-.97-.29z"/></g><path d="M21.58 159v6.69c0 2.32 15.79 4.2 35.26 4.2 19.48 0 35.27-1.88 35.27-4.2V159H21.58z" class="i"/><use xlink:href="#O" class="d"/><use xlink:href="#P" class="e"/><path d="M69.52 159.47c-.48-.13-1.18-.24-2.11-.34-1.21-.12-3.69-.23-7.41-.34l-.49-.01-1.95-.06c-5.7-.16-8.54-.39-8.54-.71 0-.2.69-.36 2.06-.48 1.38-.12 3.22-.18 5.52-.18l5.8.22c1.4.14 2.18.35 2.35.62v.01c0 .15 1.01.27 2.26.27s2.26-.12 2.26-.27l-.05-.05c-.12-.38-1.21-.69-3.31-.91-1.85-.2-4.28-.31-7.28-.34v-.47c0-.12-.8-.21-1.79-.21-.98 0-1.78.09-1.78.21v.47l-7.14.32c-2.26.22-3.38.52-3.38.89 0 .3.75.53 2.26.69s4.61.31 9.3.44l.8.02c5.79.17 8.68.41 8.68.72 0 .23-.77.42-2.31.55-1.54.14-3.64.2-6.32.2-2.71 0-4.87-.09-6.49-.26-1.62-.18-2.46-.42-2.5-.72-.02-.14-1.02-.26-2.26-.26-1.23 0-2.23.12-2.25.26h-.02c.18.48 1.43.84 3.77 1.09 1.96.21 4.59.33 7.86.37v.36c0 .12.8.21 1.78.21.99 0 1.79-.09 1.79-.21v-.36l8.05-.34c2.38-.24 3.58-.55 3.58-.95 0-.17-.25-.31-.74-.45z" class="d"/><g class="e"><path d="M56.84 154.96c-.39 0-.7.04-.7.09v.31c0 .05.31.09.7.09s.71-.04.71-.09v-.31c0-.05-.32-.09-.71-.09z"/><use xlink:href="#Q"/><path d="M90.06 158.92H87.4c-.39 0-.7.03-.7.08s.31.08.7.08h2.66c.39 0 .7-.03.7-.08s-.31-.08-.7-.08zm-63.07.08c0-.05-.31-.08-.7-.08h-2.66c-.39 0-.7.03-.7.08s.31.08.7.08h2.66c.39 0 .7-.03.7-.08zm52.84-2.85l-1.88.22c-.27.03-.27.08 0 .12.28.03.72.03 1 0l1.88-.23c.28-.03.28-.08 0-.11-.28-.04-.72-.04-1 0zm-45.09 5.36l-1.88.23c-.28.03-.28.08 0 .12.27.03.72.03 1 0l1.88-.23c.27-.03.27-.08 0-.12-.28-.03-.73-.03-1 0zm44.21 0c-.28-.03-.72-.03-1 0-.27.04-.27.09 0 .12l1.88.23c.28.03.72.03 1 0 .28-.04.28-.09 0-.12l-1.88-.23zm-45.09-5.36c-.28-.04-.73-.04-1 0-.28.03-.28.08 0 .11l1.88.23c.27.03.72.03 1 0 .27-.04.27-.09 0-.12l-1.88-.22zm36.59-.85c-.36-.02-.77 0-.93.04l-1.07.29c-.15.05.01.1.36.11.36.02.78 0 .93-.04l1.07-.29c.16-.04 0-.09-.36-.11zm-25.58 6.96c-.35-.02-.77 0-.93.04l-1.06.29c-.16.04.01.09.36.11.36.02.77 0 .93-.04l1.07-.29c.15-.05-.01-.1-.37-.11zm42.68-1.75l-2.43-.13c-.36-.02-.78 0-.93.05-.16.04.01.09.36.11l2.44.12c.35.02.77 0 .92-.04.16-.04 0-.09-.36-.11zm-58.41-3.04l-2.44-.13c-.36-.02-.77 0-.93.04-.15.04.01.09.36.11l2.44.13c.36.02.77 0 .93-.05.15-.04-.01-.09-.36-.1zm56.42.28l2.48-.11c.36-.02.53-.07.4-.11-.14-.04-.56-.06-.92-.05l-2.48.12c-.36.02-.54.06-.39.11.14.04.55.06.91.04zm-57.43 2.5l-2.48.11c-.36.02-.54.07-.39.11.13.04.54.07.9.05l2.48-.12c.37-.01.54-.06.4-.1-.14-.05-.55-.07-.91-.05zm40.5 2.11c-.15-.05-.55-.07-.92-.05-.36.02-.53.07-.39.11l.96.29c.15.05.55.07.92.05.36-.02.54-.06.39-.11l-.96-.29zm-23.23-7.07c-.14-.05-.55-.07-.91-.05s-.54.06-.4.11l.97.29c.14.04.55.07.91.05.37-.02.55-.07.4-.11l-.97-.29z"/></g><path d="M24.96 150.9v6.69c0 2.32 15.79 4.19 35.26 4.19s35.26-1.87 35.26-4.19v-6.69H24.96z" class="i"/><use xlink:href="#L" y="-16.2" class="d"/><use xlink:href="#R" class="e"/><path d="M72.9 151.37c-.48-.13-1.18-.25-2.11-.34-1.22-.12-3.69-.24-7.41-.34l-.5-.01-1.95-.06c-5.69-.16-8.53-.39-8.53-.71 0-.2.68-.36 2.06-.48 1.37-.12 3.21-.18 5.51-.18l5.81.22c1.4.14 2.18.35 2.35.62l-.01.01c0 .15 1.02.26 2.27.26 1.24 0 2.26-.11 2.26-.26l-.05-.05c-.12-.39-1.22-.69-3.31-.91-1.85-.2-4.29-.31-7.29-.35v-.46c0-.12-.8-.22-1.78-.22s-1.78.1-1.78.22v.47l-7.15.32c-2.25.22-3.38.52-3.38.88 0 .3.76.53 2.27.7 1.5.16 4.61.31 9.3.44l.8.02c5.79.17 8.68.41 8.68.72 0 .23-.77.42-2.31.55s-3.65.2-6.33.2c-2.7 0-4.86-.09-6.48-.27-1.62-.17-2.45-.41-2.5-.71-.02-.14-1.03-.26-2.26-.26-1.24 0-2.24.12-2.26.26h-.01c.17.47 1.42.84 3.76 1.09 1.97.21 4.59.33 7.87.36v.37c0 .12.8.21 1.78.21s1.78-.09 1.78-.21v-.36l8.05-.34c2.39-.24 3.58-.56 3.58-.95 0-.17-.24-.31-.73-.45z" class="d"/><g class="e"><use xlink:href="#S"/><use xlink:href="#N" y="-8.61"/><path d="M93.43 150.81h-2.66c-.38 0-.7.04-.7.09s.32.08.7.08h2.66c.4 0 .71-.03.71-.08s-.31-.09-.71-.09zm-63.06.09c0-.05-.32-.09-.71-.09H27c-.38 0-.7.04-.7.09s.32.08.7.08h2.66c.39 0 .71-.03.71-.08zm52.84-2.86l-1.88.23c-.28.03-.28.08 0 .12.27.03.72.03.99 0l1.88-.23c.28-.03.28-.08 0-.12-.27-.03-.72-.03-.99 0zm-45.09 5.37l-1.89.23c-.27.03-.27.08 0 .11.28.04.72.04 1 0l1.88-.22c.28-.03.28-.08 0-.12-.27-.03-.72-.03-.99 0zm44.2 0c-.27-.03-.72-.03-.99 0-.28.04-.28.09 0 .12l1.88.22a4.1 4.1 0 0 0 .99 0c.28-.03.28-.08 0-.11l-1.88-.23zm-45.09-5.37c-.28-.03-.72-.03-1 0-.27.04-.27.09 0 .12l1.89.23c.27.03.72.03.99 0 .28-.04.28-.09 0-.12l-1.88-.23zm36.59-.84c-.35-.02-.77 0-.93.04l-1.06.29c-.16.04 0 .1.36.11.36.02.77 0 .93-.04l1.07-.29c.15-.04-.01-.09-.37-.11zm-25.57 6.95c-.36-.02-.77.01-.93.05l-1.07.29c-.15.04.01.09.37.11s.77 0 .93-.04l1.06-.29c.16-.05 0-.1-.36-.12zm42.68-1.74l-2.44-.13c-.35-.02-.77 0-.93.05-.15.04.01.09.37.1l2.44.13c.35.02.77 0 .92-.04.16-.04-.01-.09-.36-.11zm-58.42-3.05l-2.44-.13c-.35-.01-.77.01-.92.05-.16.04 0 .09.36.11l2.43.13c.36.01.78 0 .93-.05.16-.04 0-.09-.36-.11zm56.42.29l2.48-.11c.36-.02.54-.07.4-.11-.14-.05-.55-.07-.91-.05l-2.48.12c-.36.01-.54.06-.4.1.14.05.55.07.91.05zm-57.43 2.5l-2.47.11c-.37.02-.54.07-.4.11s.55.06.91.05l2.48-.12c.36-.02.54-.07.4-.11s-.55-.06-.92-.04zm40.5 2.11c-.14-.05-.55-.07-.91-.05s-.54.06-.4.11l.97.29c.14.04.55.07.91.05s.54-.07.4-.11l-.97-.29zm-23.22-7.07c-.14-.05-.55-.07-.91-.05-.37.01-.54.06-.4.11l.97.29c.13.05.54.06.91.05.36-.02.54-.07.4-.11l-.97-.29z"/></g><path d="M21.58 142.8v6.68c0 2.32 15.79 4.2 35.26 4.2 19.48 0 35.27-1.88 35.27-4.2v-6.68H21.58z" class="i"/><use xlink:href="#O" y="-16.2" class="d"/><use xlink:href="#P" y="-16.2" class="e"/><path d="M69.52 143.27c-.48-.13-1.18-.25-2.11-.34-1.21-.12-3.69-.24-7.41-.34l-.49-.02-1.95-.05c-5.7-.16-8.54-.4-8.54-.71 0-.2.69-.36 2.06-.48 1.38-.12 3.22-.19 5.52-.19l5.8.23c1.4.14 2.18.35 2.35.62v.01c0 .14 1.01.26 2.26.26s2.26-.12 2.26-.26l-.05-.06c-.12-.38-1.21-.68-3.31-.9-1.85-.2-4.28-.31-7.28-.35v-.46c0-.12-.8-.21-1.79-.21-.98 0-1.78.09-1.78.21v.47l-7.14.32c-2.26.22-3.38.52-3.38.88 0 .3.75.53 2.26.7 1.51.16 4.61.31 9.3.44l.8.02c5.79.17 8.68.41 8.68.72 0 .23-.77.41-2.31.55-1.54.13-3.64.2-6.32.2-2.71 0-4.87-.09-6.49-.27-1.62-.17-2.46-.41-2.5-.71-.02-.15-1.02-.26-2.26-.26-1.23 0-2.23.11-2.25.26h-.02c.18.47 1.43.84 3.77 1.09 1.96.21 4.59.33 7.86.36v.37c0 .12.8.21 1.78.21.99 0 1.79-.09 1.79-.21v-.36l8.05-.35c2.38-.23 3.58-.55 3.58-.94 0-.17-.25-.32-.74-.45z" class="d"/><g class="e"><use xlink:href="#T"/><path d="M56.84 146.35c-.39 0-.7.04-.7.08v.32c0 .05.31.09.7.09s.71-.04.71-.09v-.32c0-.04-.32-.08-.71-.08zm33.22-3.64H87.4c-.39 0-.7.04-.7.09 0 .04.31.08.7.08h2.66c.39 0 .7-.04.7-.08 0-.05-.31-.09-.7-.09zm-63.07.09c0-.05-.31-.09-.7-.09h-2.66c-.39 0-.7.04-.7.09 0 .04.31.08.7.08h2.66c.39 0 .7-.04.7-.08zm52.84-2.86l-1.88.23c-.27.03-.27.08 0 .11.28.04.72.04 1 0l1.88-.22c.28-.03.28-.08 0-.12-.28-.03-.72-.03-1 0zm-45.09 5.37l-1.88.22c-.28.04-.28.09 0 .12.27.04.72.04 1 0l1.88-.22c.27-.03.27-.09 0-.12-.28-.03-.73-.03-1 0zm44.21 0c-.28-.03-.72-.03-1 0-.27.03-.27.09 0 .12l1.88.22c.28.04.72.04 1 0 .28-.03.28-.08 0-.12l-1.88-.22zm-45.09-5.37c-.28-.03-.73-.03-1 0-.28.04-.28.09 0 .12l1.88.22c.27.04.72.04 1 0 .27-.03.27-.08 0-.11l-1.88-.23zm36.59-.84c-.36-.02-.77 0-.93.04l-1.07.29c-.15.04.01.09.36.11.36.02.78 0 .93-.04l1.07-.29c.16-.04 0-.09-.36-.11zm-25.58 6.95c-.35-.02-.77 0-.93.05l-1.06.29c-.16.04.01.09.36.11.36.02.77 0 .93-.05l1.07-.29c.15-.04-.01-.09-.37-.11zm42.68-1.74l-2.43-.13c-.36-.02-.78 0-.93.04-.16.04.01.09.36.11l2.44.13c.35.02.77 0 .92-.04.16-.05 0-.09-.36-.11zm-58.41-3.05l-2.44-.13c-.36-.02-.77.01-.93.05-.15.04.01.09.36.11l2.44.12c.36.02.77 0 .93-.04.15-.04-.01-.09-.36-.11zm56.42.29l2.48-.11c.36-.02.53-.07.4-.11-.14-.05-.56-.07-.92-.05l-2.48.11c-.36.02-.54.07-.39.11.14.05.55.07.91.05zm-57.43 2.49l-2.48.12c-.36.02-.54.06-.39.11.13.04.54.06.9.04l2.48-.11c.37-.02.54-.06.4-.11-.14-.04-.55-.06-.91-.05zm40.5 2.11c-.15-.04-.55-.06-.92-.04-.36.01-.53.06-.39.11l.96.29c.15.04.55.06.92.05.36-.02.54-.07.39-.11l-.96-.3zm-23.23-7.07c-.14-.04-.55-.06-.91-.04-.36.01-.54.06-.4.11l.97.29c.14.04.55.06.91.05.37-.02.55-.07.4-.11l-.97-.3z"/></g><path d="M24.96 134.69v6.69c0 2.32 15.79 4.2 35.26 4.2s35.26-1.88 35.26-4.2v-6.69H24.96z" class="i"/><path d="M95.48 134.69c0 2.33-15.79 4.2-35.26 4.2s-35.26-1.87-35.26-4.2c0-2.31 15.79-4.19 35.26-4.19s35.26 1.88 35.26 4.19z" class="d"/><use xlink:href="#U" class="e"/><path d="M72.9 135.17c-.48-.14-1.18-.25-2.11-.34l-7.41-.35-.5-.01-1.95-.05c-5.69-.16-8.53-.4-8.53-.72 0-.2.68-.36 2.06-.48 1.37-.12 3.21-.18 5.51-.18l5.81.22c1.4.15 2.18.36 2.35.63h-.01c0 .15 1.02.27 2.27.27 1.24 0 2.26-.12 2.26-.27l-.05-.05c-.12-.38-1.22-.68-3.31-.91-1.85-.19-4.29-.31-7.29-.34v-.46c0-.12-.8-.22-1.78-.22s-1.78.1-1.78.22v.46l-7.15.33c-2.25.22-3.38.52-3.38.88 0 .3.76.53 2.27.69 1.5.17 4.61.32 9.3.45l.8.02c5.79.17 8.68.4 8.68.72 0 .23-.77.41-2.31.55-1.54.13-3.65.2-6.33.2-2.7 0-4.86-.09-6.48-.27s-2.45-.41-2.5-.71c-.02-.15-1.03-.27-2.26-.27-1.24 0-2.24.12-2.26.27h-.01c.17.47 1.42.83 3.76 1.08 1.97.22 4.59.34 7.87.37v.37c0 .12.8.21 1.78.21s1.78-.09 1.78-.21v-.36l8.05-.35c2.39-.23 3.58-.55 3.58-.95 0-.16-.24-.31-.73-.44z" class="d"/><g class="e"><use xlink:href="#S" y="-16.2"/><use xlink:href="#S" y="-8.61"/><path d="M93.43 134.61h-2.66c-.38 0-.7.04-.7.08 0 .05.32.09.7.09h2.66c.4 0 .71-.04.71-.09 0-.04-.31-.08-.71-.08zm-63.06.08c0-.04-.32-.08-.71-.08H27c-.38 0-.7.04-.7.08 0 .05.32.09.7.09h2.66c.39 0 .71-.04.71-.09zm52.84-2.85l-1.88.23c-.28.03-.28.08 0 .11a4.1 4.1 0 0 0 .99 0l1.88-.22c.28-.03.28-.09 0-.12-.27-.03-.72-.03-.99 0zm-45.09 5.37l-1.89.22c-.27.03-.27.09 0 .12.28.04.72.04 1 0l1.88-.22c.28-.04.28-.09 0-.12-.27-.03-.72-.03-.99 0zm44.2 0c-.27-.03-.72-.03-.99 0-.28.03-.28.08 0 .12l1.88.22a4.1 4.1 0 0 0 .99 0c.28-.03.28-.09 0-.12l-1.88-.22zm-45.09-5.37c-.28-.03-.72-.03-1 0-.27.03-.27.09 0 .12l1.89.22a4.1 4.1 0 0 0 .99 0c.28-.03.28-.08 0-.11l-1.88-.23zm36.59-.84c-.35-.02-.77 0-.93.04l-1.06.29c-.16.04 0 .09.36.11s.77 0 .93-.04l1.07-.29c.15-.05-.01-.09-.37-.11zm-25.57 6.95c-.36-.02-.77 0-.93.04l-1.07.3c-.15.04.01.09.37.11.36.01.77 0 .93-.05l1.06-.29c.16-.04 0-.09-.36-.11zm42.68-1.74l-2.44-.13c-.35-.02-.77 0-.93.04-.15.04.01.09.37.11l2.44.13c.35.02.77 0 .92-.04.16-.05-.01-.1-.36-.11zm-58.42-3.05l-2.44-.13c-.35-.02-.77 0-.92.05-.16.04 0 .09.36.11l2.43.13c.36.01.78-.01.93-.05.16-.04 0-.09-.36-.11zm56.42.29l2.48-.12c.36-.01.54-.06.4-.11-.14-.04-.55-.06-.91-.04l-2.48.11c-.36.02-.54.07-.4.11s.55.07.91.05zm-57.43 2.49l-2.47.12c-.37.01-.54.06-.4.11.14.04.55.06.91.05l2.48-.12c.36-.02.54-.07.4-.11s-.55-.06-.92-.05zm40.5 2.11c-.14-.04-.55-.06-.91-.04-.36.01-.54.06-.4.1l.97.3c.14.04.55.06.91.05.36-.02.54-.07.4-.11l-.97-.3zm-23.22-7.07c-.14-.04-.55-.06-.91-.05-.37.02-.54.07-.4.11l.97.3c.13.04.54.06.91.05.36-.02.54-.07.4-.11l-.97-.3z"/></g><path d="M21.58 126.59v6.69c0 2.32 15.79 4.2 35.26 4.2 19.48 0 35.27-1.88 35.27-4.2v-6.69H21.58z" class="i"/><path d="M92.11 126.59c0 2.32-15.79 4.2-35.27 4.2-19.47 0-35.26-1.88-35.26-4.2s15.79-4.19 35.26-4.19c19.48 0 35.27 1.87 35.27 4.19z" class="d"/><use xlink:href="#I" y="-48.61" class="e"/><path d="M69.52 127.07c-.48-.14-1.18-.25-2.11-.34-1.21-.13-3.69-.24-7.41-.35l-.49-.01-1.95-.06c-5.7-.15-8.54-.39-8.54-.71 0-.2.69-.36 2.06-.48 1.38-.12 3.22-.18 5.52-.18l5.8.22c1.4.15 2.18.36 2.35.62v.01c0 .15 1.01.27 2.26.27s2.26-.12 2.26-.27l-.05-.05c-.12-.38-1.21-.69-3.31-.91-1.85-.2-4.28-.31-7.28-.34v-.47c0-.11-.8-.21-1.79-.21-.98 0-1.78.1-1.78.21v.47l-7.14.33c-2.26.22-3.38.51-3.38.88 0 .3.75.53 2.26.69 1.51.17 4.61.32 9.3.45l.8.02c5.79.16 8.68.4 8.68.72 0 .23-.77.41-2.31.55-1.54.13-3.64.2-6.32.2-2.71 0-4.87-.09-6.49-.27-1.62-.17-2.46-.41-2.5-.71-.02-.15-1.02-.27-2.26-.27-1.23 0-2.23.12-2.25.27h-.02c.18.47 1.43.83 3.77 1.08 1.96.22 4.59.34 7.86.37v.37c0 .11.8.21 1.78.21.99 0 1.79-.1 1.79-.21v-.37l8.05-.34c2.38-.23 3.58-.55 3.58-.95 0-.16-.25-.31-.74-.44z" class="d"/><g class="e"><use xlink:href="#Q" y="-40"/><use xlink:href="#T" y="-8.61"/><use xlink:href="#J" y="-48.61"/><use xlink:href="#K" y="-48.61"/><path d="M79.83 123.74l-1.88.22c-.27.04-.27.09 0 .12.28.04.72.04 1 0l1.88-.22c.28-.04.28-.09 0-.12s-.72-.03-1 0zm-45.09 5.37l-1.88.22c-.28.03-.28.09 0 .12.27.03.72.03 1 0l1.88-.22c.27-.04.27-.09 0-.12-.28-.04-.73-.04-1 0zm44.21 0c-.28-.04-.72-.04-1 0-.27.03-.27.08 0 .12l1.88.22c.28.03.72.03 1 0s.28-.09 0-.12l-1.88-.22zm-45.09-5.37c-.28-.03-.73-.03-1 0-.28.03-.28.08 0 .12l1.88.22c.27.04.72.04 1 0 .27-.03.27-.08 0-.12l-1.88-.22zm36.59-.84c-.36-.02-.77 0-.93.04l-1.07.29c-.15.04.01.09.36.11.36.02.78 0 .93-.04l1.07-.29c.16-.05 0-.1-.36-.11zm-25.58 6.95c-.35-.02-.77 0-.93.04l-1.06.29c-.16.05.01.09.36.11.36.02.77 0 .93-.04l1.07-.29c.15-.04-.01-.09-.37-.11zm42.68-1.75l-2.43-.12c-.36-.02-.78 0-.93.04-.16.04.01.09.36.11l2.44.13c.35.02.77 0 .92-.05.16-.04 0-.09-.36-.11zm-58.41-3.04l-2.44-.13c-.36-.02-.77 0-.93.05-.15.04.01.09.36.11l2.44.12c.36.02.77 0 .93-.04.15-.04-.01-.09-.36-.11zm56.42.29l2.48-.12c.36-.01.53-.06.4-.11-.14-.04-.56-.06-.92-.04l-2.48.11c-.36.02-.54.07-.39.11.14.04.55.07.91.05zm-57.43 2.49l-2.48.12c-.36.01-.54.06-.39.1.13.05.54.07.9.05l2.48-.11c.37-.02.54-.07.4-.11s-.55-.07-.91-.05zm40.5 2.11c-.15-.04-.55-.06-.92-.05-.36.02-.53.07-.39.11l.96.3c.15.04.55.06.92.05.36-.02.54-.07.39-.11l-.96-.3zm-23.23-7.07c-.14-.04-.55-.06-.91-.05-.36.02-.54.07-.4.11l.97.3c.14.04.55.06.91.04.37-.01.55-.06.4-.1l-.97-.3z"/></g><path d="M65.44 239.75v6.68c0 2.32 15.79 4.2 35.26 4.2s35.26-1.88 35.26-4.2v-6.68H65.44z" class="i"/><path d="M135.96 239.75c0 2.32-15.79 4.19-35.26 4.19s-35.26-1.87-35.26-4.19 15.79-4.2 35.26-4.2 35.26 1.88 35.26 4.2z" class="d"/><path d="M129.47 239.75c0 1.89-12.88 3.42-28.77 3.42s-28.77-1.53-28.77-3.42c0-1.9 12.88-3.43 28.77-3.43s28.77 1.53 28.77 3.43z" class="e"/><path d="M113.38 240.22c-.48-.13-1.18-.25-2.11-.34-1.21-.12-3.69-.24-7.42-.34l-.49-.02-1.94-.05c-5.7-.16-8.55-.4-8.55-.72 0-.19.69-.35 2.07-.47 1.37-.12 3.21-.18 5.51-.18l5.81.22c1.39.14 2.18.35 2.35.62h0c0 .15 1.01.27 2.26.27 1.24 0 2.26-.12 2.26-.27l-.05-.05c-.12-.38-1.22-.68-3.31-.91-1.85-.19-4.28-.3-7.29-.34v-.46c0-.12-.8-.22-1.78-.22s-1.78.1-1.78.22v.47l-7.15.32c-2.25.22-3.38.52-3.38.88 0 .3.76.53 2.27.7 1.5.16 4.61.31 9.3.44l.79.02c5.8.17 8.69.4 8.69.72 0 .23-.77.41-2.31.55-1.54.13-3.65.2-6.32.2-2.71 0-4.87-.09-6.49-.27-1.62-.17-2.45-.41-2.5-.71h0c-.02-.15-1.02-.27-2.26-.27s-2.24.12-2.26.27h-.01c.17.47 1.43.83 3.77 1.08 1.96.22 4.59.34 7.86.37v.37c0 .12.8.21 1.78.21s1.78-.09 1.78-.21v-.36l8.05-.35c2.39-.23 3.58-.55 3.58-.94 0-.17-.24-.32-.73-.45z" class="d"/><g class="e"><use xlink:href="#S" x="40.48" y="88.85"/><path d="M100.7 243.3c-.39 0-.71.04-.71.09v.31c0 .05.32.08.71.08s.71-.03.71-.08v-.31c0-.05-.32-.09-.71-.09z"/><use xlink:href="#V"/><path d="M123.69 236.89l-1.88.22c-.28.04-.28.09 0 .12.27.04.72.04 1 0l1.87-.22c.28-.03.28-.08 0-.12-.27-.03-.72-.03-.99 0zm-.88 5.37c-.28-.03-.73-.03-1 0-.28.03-.28.08 0 .12l1.88.22a4.1 4.1 0 0 0 .99 0c.28-.03.28-.08 0-.11l-1.87-.23z"/><use xlink:href="#W"/><path d="M131.41 241.25l-2.44-.12c-.35-.02-.77 0-.93.04-.15.05.02.1.37.11l2.43.13c.36.02.78 0 .93-.04.16-.05 0-.09-.36-.12zm-2-2.75l2.48-.11c.36-.02.54-.07.4-.11-.14-.05-.55-.07-.91-.05l-2.48.11c-.36.02-.54.07-.4.11s.55.07.91.05zm-16.92 4.61c-.15-.05-.55-.07-.92-.05-.36.01-.54.06-.4.11l.97.29c.14.04.55.07.92.05.35-.02.54-.07.39-.11l-.96-.29z"/></g><path d="M68.81 231.65v6.68c0 2.32 15.79 4.2 35.27 4.2 19.47 0 35.26-1.88 35.26-4.2v-6.68H68.81z" class="i"/><path d="M139.34 231.65c0 2.31-15.79 4.19-35.26 4.19-19.48 0-35.27-1.88-35.27-4.19 0-2.32 15.79-4.2 35.27-4.2 19.47 0 35.26 1.88 35.26 4.2z" class="d"/><path d="M132.85 231.65c0 1.89-12.88 3.42-28.77 3.42s-28.78-1.53-28.78-3.42c0-1.9 12.89-3.43 28.78-3.43s28.77 1.53 28.77 3.43z" class="e"/><path d="M116.76 232.12c-.49-.13-1.19-.25-2.11-.34-1.22-.12-3.69-.24-7.42-.34l-.49-.02-1.95-.05c-5.69-.16-8.54-.4-8.54-.72 0-.2.69-.36 2.07-.48 1.37-.12 3.21-.18 5.51-.18l5.81.22c1.39.15 2.17.36 2.35.63h-.01c0 .15 1.01.27 2.26.27s2.26-.12 2.26-.27l-.04-.05c-.13-.38-1.22-.68-3.31-.91-1.85-.2-4.29-.31-7.29-.34v-.47c0-.11-.8-.21-1.78-.21-.99 0-1.79.1-1.79.21v.47l-7.14.32c-2.25.23-3.38.52-3.38.89 0 .3.75.53 2.26.69 1.51.17 4.61.31 9.31.45l.79.02c5.79.16 8.69.4 8.69.72 0 .23-.77.41-2.31.55-1.54.13-3.65.2-6.33.2-2.7 0-4.87-.09-6.49-.27s-2.45-.41-2.49-.71h-.01c-.01-.15-1.02-.27-2.26-.27-1.23 0-2.23.12-2.25.27h-.02c.18.47 1.43.83 3.77 1.08 1.97.22 4.59.34 7.86.37v.37c0 .11.8.21 1.79.21.98 0 1.78-.1 1.78-.21v-.36l8.05-.35c2.38-.23 3.58-.55 3.58-.94 0-.17-.25-.32-.73-.45z" class="d"/><g class="e"><path d="M104.08 227.61c-.39 0-.71.04-.71.08v.32c0 .04.32.08.71.08s.7-.04.7-.08v-.32c0-.04-.31-.08-.7-.08zm0 7.59c-.39 0-.71.04-.71.08v.32c0 .05.32.09.71.09s.7-.04.7-.09v-.32c0-.04-.31-.08-.7-.08z"/><use xlink:href="#X"/><path d="M127.06 228.79l-1.88.22c-.27.04-.27.09 0 .12.28.03.73.03 1 0l1.88-.22c.28-.03.28-.09 0-.12-.27-.03-.72-.03-1 0zm-.88 5.37c-.27-.03-.72-.03-1 0-.27.03-.27.09 0 .12l1.88.22c.28.03.73.03 1 0 .28-.03.28-.09 0-.12l-1.88-.22zm-8.5-6.21c-.36-.02-.77 0-.93.04l-1.07.29c-.15.04.01.09.37.11.35.02.77 0 .93-.05l1.06-.28c.16-.05 0-.09-.36-.11zm-25.57 6.95c-.36-.02-.78 0-.94.04l-1.06.29c-.16.05 0 .1.37.11.35.02.77 0 .92-.04l1.07-.29c.16-.04-.01-.09-.36-.11zm42.68-1.75l-2.44-.12c-.36-.02-.77 0-.93.04-.15.04.01.09.37.11l2.43.13c.36.02.78 0 .93-.05.16-.04-.01-.09-.36-.11zm-2-2.75l2.48-.12c.36-.01.54-.06.4-.11-.15-.04-.55-.06-.92-.04l-2.47.11c-.37.02-.54.07-.4.11s.55.07.91.05zm-16.93 4.6c-.14-.04-.55-.06-.91-.04-.36.01-.54.06-.4.11l.96.29c.15.04.56.06.92.05.36-.02.54-.07.4-.11l-.97-.3zm-23.22-7.07c-.15-.04-.56-.06-.92-.05-.36.02-.54.07-.4.11l.97.3c.14.04.55.06.91.05.37-.02.55-.07.41-.11l-.97-.3z"/></g><path d="M65.44 223.54v6.69c0 2.32 15.79 4.2 35.26 4.2s35.26-1.88 35.26-4.2v-6.69H65.44z" class="i"/><path d="M135.96 223.54c0 2.32-15.79 4.2-35.26 4.2s-35.26-1.88-35.26-4.2c0-2.31 15.79-4.19 35.26-4.19s35.26 1.88 35.26 4.19z" class="d"/><use xlink:href="#U" x="40.48" y="88.85" class="e"/><path d="M113.38 224.02c-.48-.14-1.18-.25-2.11-.34-1.21-.13-3.69-.24-7.42-.35l-.49-.01-1.94-.06c-5.7-.15-8.55-.39-8.55-.71 0-.2.69-.36 2.07-.48 1.37-.12 3.21-.18 5.51-.18l5.81.22c1.39.15 2.18.35 2.35.62v.01c0 .15 1.01.27 2.26.27 1.24 0 2.26-.12 2.26-.27l-.05-.05c-.12-.38-1.22-.68-3.31-.91-1.85-.19-4.28-.31-7.29-.34v-.47c0-.11-.8-.21-1.78-.21s-1.78.1-1.78.21v.47l-7.15.32c-2.25.23-3.38.52-3.38.89 0 .3.76.53 2.27.69 1.5.17 4.61.31 9.3.45l.79.02c5.8.16 8.69.4 8.69.72 0 .23-.77.41-2.31.54-1.54.14-3.65.21-6.32.21-2.71 0-4.87-.09-6.49-.27s-2.45-.42-2.5-.71h0c-.02-.15-1.02-.27-2.26-.27s-2.24.12-2.26.27h-.01c.17.47 1.43.83 3.77 1.08 1.96.21 4.59.34 7.86.37v.37c0 .11.8.21 1.78.21s1.78-.1 1.78-.21v-.36l8.05-.35c2.39-.24 3.58-.55 3.58-.95 0-.16-.24-.31-.73-.44z" class="d"/><path d="M100.7 219.51c-.39 0-.71.03-.71.08v.32c0 .04.32.08.71.08s.71-.04.71-.08v-.32c0-.05-.32-.08-.71-.08zm0 7.59c-.39 0-.71.04-.71.08v.32c0 .04.32.08.71.08s.71-.04.71-.08v-.32c0-.04-.32-.08-.71-.08zm33.21-3.64h-2.65c-.39 0-.71.04-.71.08 0 .05.32.09.71.09h2.65c.4 0 .71-.04.71-.09 0-.04-.31-.08-.71-.08zm-10.22-2.77l-1.88.22c-.28.03-.28.09 0 .12.27.03.72.03 1 0l1.87-.22c.28-.04.28-.09 0-.12-.27-.03-.72-.03-.99 0zm-.88 5.37c-.28-.04-.73-.04-1 0-.28.03-.28.08 0 .12l1.88.22c.27.03.72.03.99 0 .28-.03.28-.09 0-.12l-1.87-.22zm-8.51-6.21c-.36-.02-.77 0-.93.04l-1.06.29c-.16.04.01.09.36.11.36.02.78 0 .93-.04l1.06-.3c.16-.04 0-.09-.36-.1zm17.11 5.2l-2.44-.12c-.35-.02-.77 0-.93.04-.15.04.02.09.37.11l2.43.13c.36.02.78 0 .93-.05.16-.04 0-.09-.36-.11zm-2-2.75l2.48-.12c.36-.02.54-.06.4-.11-.14-.04-.55-.06-.91-.04l-2.48.11c-.36.02-.54.07-.4.11s.55.06.91.05zm-16.92 4.6c-.15-.04-.55-.06-.92-.05-.36.02-.54.07-.4.11l.97.3c.14.04.55.06.92.04.35-.01.54-.06.39-.1l-.96-.3z" class="e"/><path d="M68.81 215.44v6.69c0 2.32 15.79 4.2 35.27 4.2 19.47 0 35.26-1.88 35.26-4.2v-6.69H68.81z" class="i"/><use xlink:href="#Y" class="d"/><path d="M132.85 215.44c0 1.9-12.88 3.43-28.77 3.43s-28.78-1.53-28.78-3.43c0-1.89 12.89-3.42 28.78-3.42s28.77 1.53 28.77 3.42z" class="e"/><path d="M116.76 215.91c-.49-.13-1.19-.24-2.11-.34-1.22-.12-3.69-.23-7.42-.34l-.49-.01-1.95-.06c-5.69-.15-8.54-.39-8.54-.71 0-.2.69-.36 2.07-.48 1.37-.12 3.21-.18 5.51-.18l5.81.22c1.39.15 2.17.35 2.35.62l-.01.01c0 .15 1.01.27 2.26.27s2.26-.12 2.26-.27l-.04-.05c-.13-.38-1.22-.69-3.31-.91-1.85-.2-4.29-.31-7.29-.34v-.47c0-.12-.8-.21-1.78-.21-.99 0-1.79.09-1.79.21v.47l-7.14.32c-2.25.23-3.38.52-3.38.89 0 .3.75.53 2.26.69s4.61.31 9.31.44l.79.03c5.79.16 8.69.4 8.69.71 0 .24-.77.42-2.31.55-1.54.14-3.65.2-6.33.2-2.7 0-4.87-.08-6.49-.26s-2.45-.42-2.49-.71h-.01c-.01-.15-1.02-.27-2.26-.27-1.23 0-2.23.12-2.25.27h-.02c.18.47 1.43.83 3.77 1.08 1.97.21 4.59.34 7.86.37v.36c0 .12.8.22 1.79.22.98 0 1.78-.1 1.78-.22v-.36l8.05-.34c2.38-.24 3.58-.55 3.58-.95 0-.16-.25-.31-.73-.45z" class="d"/><g class="e"><use xlink:href="#Z"/><path d="M104.08 219c-.39 0-.71.03-.71.08v.32c0 .04.32.08.71.08s.7-.04.7-.08v-.32c0-.05-.31-.08-.7-.08zm33.21-3.64h-2.66c-.39 0-.7.04-.7.08 0 .05.31.09.7.09h2.66c.39 0 .71-.04.71-.09 0-.04-.32-.08-.71-.08zm-10.23-2.77l-1.88.22c-.27.04-.27.09 0 .12.28.03.73.03 1 0l1.88-.23c.28-.03.28-.08 0-.11-.27-.04-.72-.04-1 0zm-.88 5.37c-.27-.04-.72-.04-1 0-.27.03-.27.08 0 .12l1.88.22c.28.03.73.03 1 0 .28-.03.28-.09 0-.12l-1.88-.22zm-8.5-6.22c-.36-.02-.77 0-.93.05l-1.07.29c-.15.04.01.09.37.11.35.02.77 0 .93-.05l1.06-.29c.16-.04 0-.09-.36-.11zm-25.57 6.96c-.36-.02-.78 0-.94.04l-1.06.29c-.16.04 0 .09.37.11.35.02.77 0 .92-.04l1.07-.29c.16-.04-.01-.09-.36-.11zm42.68-1.75l-2.44-.13c-.36-.01-.77 0-.93.05-.15.04.01.09.37.11l2.43.12c.36.02.78 0 .93-.04.16-.04-.01-.09-.36-.11zm-2-2.75l2.48-.12c.36-.02.54-.06.4-.11-.15-.04-.55-.06-.92-.05l-2.47.12c-.37.02-.54.07-.4.11s.55.06.91.05zm-16.93 4.6c-.14-.04-.55-.06-.91-.05-.36.02-.54.07-.4.11l.96.3c.15.04.56.06.92.04.36-.01.54-.06.4-.11l-.97-.29zm-23.22-7.07c-.15-.04-.56-.07-.92-.05s-.54.07-.4.11l.97.29c.14.05.55.07.91.05.37-.01.55-.06.41-.11l-.97-.29z"/></g><path d="M65.44 207.34v6.69c0 2.32 15.79 4.2 35.26 4.2s35.26-1.88 35.26-4.2v-6.69H65.44z" class="i"/><use xlink:href="#L" x="40.48" y="40.24" class="d"/><use xlink:href="#M" x="40.48" y="40.24" class="e"/><path d="M113.38 207.81c-.48-.13-1.18-.24-2.11-.34-1.21-.12-3.69-.23-7.42-.34l-.49-.01-1.94-.06c-5.7-.16-8.55-.39-8.55-.71 0-.2.69-.36 2.07-.48 1.37-.12 3.21-.18 5.51-.18l5.81.22c1.39.14 2.18.35 2.35.62v.01c0 .15 1.01.27 2.26.27 1.24 0 2.26-.12 2.26-.27l-.05-.05c-.12-.39-1.22-.69-3.31-.91-1.85-.2-4.28-.31-7.29-.34v-.47c0-.12-.8-.21-1.78-.21s-1.78.09-1.78.21v.47l-7.15.32c-2.25.22-3.38.52-3.38.89 0 .3.76.53 2.27.69 1.5.16 4.61.31 9.3.44l.79.03c5.8.16 8.69.4 8.69.71 0 .24-.77.42-2.31.55-1.54.14-3.65.2-6.32.2-2.71 0-4.87-.09-6.49-.26-1.62-.18-2.45-.42-2.5-.71h0c-.02-.15-1.02-.27-2.26-.27s-2.24.12-2.26.27h-.01c.17.46 1.43.83 3.77 1.08 1.96.21 4.59.33 7.86.37v.36c0 .12.8.21 1.78.21s1.78-.09 1.78-.21v-.36l8.05-.34c2.39-.24 3.58-.55 3.58-.95 0-.16-.24-.31-.73-.45z" class="d"/><g class="e"><use xlink:href="#N" x="40.48" y="40.24"/><path d="M100.7 210.89c-.39 0-.71.04-.71.09v.32c0 .04.32.08.71.08s.71-.04.71-.08v-.32c0-.05-.32-.09-.71-.09zm33.21-3.63h-2.65c-.39 0-.71.03-.71.08s.32.09.71.09h2.65c.4 0 .71-.04.71-.09s-.31-.08-.71-.08zm-10.22-2.77l-1.88.22c-.28.03-.28.08 0 .12.27.03.72.03 1 0l1.87-.23c.28-.03.28-.08 0-.11a4.1 4.1 0 0 0-.99 0zm-.88 5.36c-.28-.03-.73-.03-1 0-.28.04-.28.09 0 .12l1.88.23c.27.03.72.03.99 0 .28-.04.28-.09 0-.12l-1.87-.23zm-8.51-6.21c-.36-.02-.77 0-.93.05l-1.06.28c-.16.05.01.1.36.12.36.01.78 0 .93-.05l1.06-.29c.16-.04 0-.09-.36-.11zm17.11 5.21l-2.44-.13c-.35-.01-.77 0-.93.05-.15.04.02.09.37.11l2.43.12c.36.02.78 0 .93-.04.16-.04 0-.09-.36-.11zm-2-2.76l2.48-.11c.36-.02.54-.07.4-.11s-.55-.06-.91-.05l-2.48.12c-.36.01-.54.06-.4.11.14.04.55.06.91.04zm-16.92 4.61c-.15-.04-.55-.07-.92-.05-.36.02-.54.06-.4.11l.97.3c.14.04.55.06.92.04.35-.01.54-.06.39-.11l-.96-.29z"/></g><path d="M68.81 199.24v6.69c0 2.31 15.79 4.19 35.27 4.19 19.47 0 35.26-1.88 35.26-4.19v-6.69H68.81z" class="i"/><use xlink:href="#Y" y="-16.2" class="d"/><path d="M132.85 199.24c0 1.89-12.88 3.43-28.77 3.43s-28.78-1.54-28.78-3.43 12.89-3.43 28.78-3.43 28.77 1.54 28.77 3.43z" class="e"/><path d="M116.76 199.71c-.49-.13-1.19-.24-2.11-.34-1.22-.12-3.69-.24-7.42-.34l-.49-.01-1.95-.06c-5.69-.16-8.54-.39-8.54-.71 0-.2.69-.36 2.07-.48 1.37-.12 3.21-.18 5.51-.18l5.81.22c1.39.14 2.17.35 2.35.62l-.01.01c0 .14 1.01.26 2.26.26s2.26-.12 2.26-.26l-.04-.05c-.13-.39-1.22-.69-3.31-.91-1.85-.2-4.29-.31-7.29-.34v-.47c0-.12-.8-.22-1.78-.22-.99 0-1.79.1-1.79.22v.47l-7.14.32c-2.25.22-3.38.52-3.38.89 0 .29.75.53 2.26.69s4.61.31 9.31.44l.79.02c5.79.17 8.69.41 8.69.72 0 .23-.77.42-2.31.55s-3.65.2-6.33.2c-2.7 0-4.87-.09-6.49-.26-1.62-.18-2.45-.42-2.49-.72h-.01c-.01-.14-1.02-.26-2.26-.26-1.23 0-2.23.12-2.25.26h-.02c.18.47 1.43.84 3.77 1.09 1.97.21 4.59.33 7.86.37v.36c0 .12.8.21 1.79.21.98 0 1.78-.09 1.78-.21v-.36l8.05-.34c2.38-.24 3.58-.55 3.58-.95 0-.17-.25-.31-.73-.45z" class="d"/><g class="e"><path d="M104.08 195.2c-.39 0-.71.04-.71.08v.32c0 .05.32.08.71.08s.7-.03.7-.08v-.32c0-.04-.31-.08-.7-.08z"/><use xlink:href="#Z" y="-8.61"/><path d="M137.29 199.16h-2.66c-.39 0-.7.03-.7.08s.31.08.7.08h2.66c.39 0 .71-.03.71-.08s-.32-.08-.71-.08zm-10.23-2.78l-1.88.23c-.27.03-.27.08 0 .12.28.03.73.03 1 0l1.88-.23c.28-.03.28-.08 0-.12-.27-.03-.72-.03-1 0zm-.88 5.37c-.27-.03-.72-.03-1 0-.27.03-.27.09 0 .12l1.88.23c.28.03.73.03 1 0 .28-.04.28-.09 0-.12l-1.88-.23zm-8.5-6.21c-.36-.02-.77 0-.93.04l-1.07.29c-.15.05.01.09.37.11.35.02.77 0 .93-.04l1.06-.29c.16-.04 0-.09-.36-.11zm-25.57 6.95c-.36-.01-.78.01-.94.05l-1.06.29c-.16.04 0 .09.37.11.35.02.77 0 .92-.04l1.07-.29c.16-.05-.01-.1-.36-.12zm42.68-1.74l-2.44-.13c-.36-.02-.77 0-.93.05-.15.04.01.09.37.11l2.43.12c.36.02.78 0 .93-.04.16-.04-.01-.09-.36-.11zm-2-2.76l2.48-.11c.36-.02.54-.07.4-.11-.15-.04-.55-.07-.92-.05l-2.47.12c-.37.01-.54.06-.4.1.14.05.55.07.91.05zm-16.93 4.61c-.14-.05-.55-.07-.91-.05s-.54.07-.4.11l.96.29c.15.05.56.07.92.05s.54-.06.4-.11l-.97-.29zm-23.22-7.07c-.15-.05-.56-.07-.92-.05s-.54.07-.4.11l.97.29c.14.04.55.07.91.05.37-.02.55-.07.41-.11l-.97-.29z"/></g><path d="M65.44 191.14v6.69c0 2.31 15.79 4.19 35.26 4.19s35.26-1.88 35.26-4.19v-6.69H65.44z" class="i"/><use xlink:href="#L" x="40.48" y="24.04" class="d"/><use xlink:href="#R" x="40.48" y="40.24" class="e"/><path d="M113.38 191.61c-.48-.13-1.18-.25-2.11-.34-1.21-.12-3.69-.24-7.42-.34l-.49-.02-1.94-.05c-5.7-.16-8.55-.4-8.55-.71 0-.21.69-.36 2.07-.48 1.37-.12 3.21-.18 5.51-.18l5.81.22c1.39.14 2.18.35 2.35.62v.01c0 .14 1.01.26 2.26.26 1.24 0 2.26-.12 2.26-.26l-.05-.05c-.12-.39-1.22-.69-3.31-.92-1.85-.19-4.28-.3-7.29-.33v-.47c0-.12-.8-.22-1.78-.22s-1.78.1-1.78.22v.47l-7.15.32c-2.25.22-3.38.52-3.38.88 0 .3.76.54 2.27.7 1.5.16 4.61.31 9.3.44l.79.02c5.8.17 8.69.4 8.69.72 0 .23-.77.41-2.31.55-1.54.13-3.65.2-6.32.2-2.71 0-4.87-.09-6.49-.27-1.62-.17-2.45-.41-2.5-.71h0c-.02-.15-1.02-.26-2.26-.26s-2.24.11-2.26.26h-.01c.17.47 1.43.83 3.77 1.09 1.96.21 4.59.33 7.86.36v.37c0 .12.8.21 1.78.21s1.78-.09 1.78-.21v-.36l8.05-.35c2.39-.23 3.58-.55 3.58-.94 0-.17-.24-.32-.73-.45z" class="d"/><g class="e"><use xlink:href="#S" x="40.48" y="40.24"/><use xlink:href="#N" x="40.48" y="31.63"/><use xlink:href="#V" y="-48.61"/><path d="M123.69 188.28l-1.88.23c-.28.03-.28.08 0 .12.27.03.72.03 1 0l1.87-.23c.28-.03.28-.09 0-.12-.27-.03-.72-.03-.99 0zm-.88 5.37c-.28-.03-.73-.03-1 0-.28.04-.28.09 0 .12l1.88.22a4.1 4.1 0 0 0 .99 0c.28-.03.28-.08 0-.12l-1.87-.22z"/><use xlink:href="#W" y="-48.61"/><path d="M131.41 192.65l-2.44-.13c-.35-.02-.77 0-.93.04-.15.05.02.1.37.11l2.43.13c.36.02.78 0 .93-.04.16-.04 0-.09-.36-.11zm-2-2.76l2.48-.11c.36-.02.54-.07.4-.11-.14-.05-.55-.07-.91-.05l-2.48.11c-.36.02-.54.07-.4.11.14.05.55.07.91.05zm-16.92 4.6c-.15-.04-.55-.06-.92-.04-.36.01-.54.06-.4.11l.97.29c.14.04.55.07.92.05.35-.02.54-.07.39-.11l-.96-.3z"/></g><path d="M80.36 183.04v6.68c0 2.32 15.79 4.2 35.27 4.2 19.47 0 35.26-1.88 35.26-4.2v-6.68H80.36z" class="i"/><path d="M150.89 183.04c0 2.32-15.79 4.19-35.26 4.19-19.48 0-35.27-1.87-35.27-4.19s15.79-4.2 35.27-4.2c19.47 0 35.26 1.88 35.26 4.2z" class="d"/><path d="M144.4 183.04c0 1.89-12.88 3.42-28.77 3.42s-28.78-1.53-28.78-3.42 12.89-3.43 28.78-3.43 28.77 1.54 28.77 3.43z" class="e"/><path d="M128.31 183.51c-.49-.13-1.19-.25-2.11-.34-1.22-.12-3.69-.24-7.42-.34l-.49-.02-1.95-.05c-5.69-.16-8.54-.4-8.54-.72 0-.19.69-.36 2.06-.48 1.38-.12 3.22-.18 5.52-.18l5.81.23c1.39.14 2.17.35 2.35.62h-.01c0 .15 1.01.27 2.26.27s2.26-.12 2.26-.27l-.04-.05c-.13-.38-1.22-.68-3.31-.91-1.85-.19-4.29-.31-7.29-.34v-.47c0-.11-.8-.21-1.78-.21-.99 0-1.79.1-1.79.21v.47l-7.14.33c-2.25.22-3.38.51-3.38.88 0 .3.75.53 2.26.7 1.51.16 4.61.31 9.31.44l.79.02c5.79.16 8.69.4 8.69.72 0 .23-.77.41-2.32.55-1.53.13-3.64.2-6.32.2-2.7 0-4.87-.09-6.49-.27-1.61-.18-2.45-.41-2.5-.71-.01-.15-1.02-.26-2.25-.26-1.24 0-2.24.11-2.26.26h-.01c.17.47 1.42.83 3.76 1.09 1.97.21 4.59.33 7.86.36v.37c0 .12.8.21 1.79.21.98 0 1.78-.09 1.78-.21v-.36l8.05-.35c2.38-.23 3.58-.55 3.58-.94 0-.17-.24-.32-.73-.45z" class="d"/><g class="e"><path d="M115.63 179c-.39 0-.71.04-.71.08v.32c0 .04.32.08.71.08s.7-.04.7-.08v-.32c0-.04-.31-.08-.7-.08zm0 7.59c-.39 0-.71.04-.71.08v.32c0 .05.32.09.71.09s.7-.04.7-.09v-.32c0-.04-.31-.08-.7-.08z"/><use xlink:href="#X" x="11.55" y="-48.61"/><path d="M138.61 180.18l-1.88.23c-.27.03-.27.08 0 .11.28.04.72.04 1 0l1.88-.22c.28-.03.28-.09 0-.12-.27-.03-.72-.03-1 0zm-45.09 5.37l-1.88.22c-.28.04-.28.09 0 .12s.72.03 1 0l1.88-.22c.27-.03.27-.09 0-.12-.28-.03-.72-.03-1 0zm44.21 0c-.28-.03-.72-.03-1 0-.27.03-.27.09 0 .12l1.88.22c.28.03.73.03 1 0 .28-.03.28-.08 0-.12l-1.88-.22zm-45.09-5.37c-.28-.03-.72-.03-1 0s-.28.09 0 .12l1.88.22c.28.04.72.04 1 0 .27-.03.27-.08 0-.11l-1.88-.23zm36.59-.84c-.36-.02-.77 0-.93.04l-1.07.29c-.15.04.01.09.37.11.35.02.77 0 .93-.04l1.06-.29c.16-.04-.01-.1-.36-.11zm-25.58 6.95c-.35-.02-.77 0-.93.04l-1.06.3c-.16.04.01.09.36.11.36.02.77 0 .93-.05l1.07-.29c.15-.04-.01-.09-.37-.11zm42.69-1.75l-2.44-.12c-.36-.02-.77 0-.93.04-.15.04.01.09.36.11l2.44.13c.36.02.77 0 .93-.04.15-.05-.01-.1-.36-.12zm-2-2.75l2.48-.12c.36-.01.54-.06.4-.1-.15-.05-.56-.07-.91-.05l-2.48.11c-.37.02-.54.07-.4.11.14.05.55.07.91.05zm-16.93 4.61c-.14-.05-.55-.07-.91-.05-.37.01-.54.06-.4.11l.96.29c.15.04.56.07.92.05s.54-.07.4-.11l-.97-.29zm-23.22-7.08c-.15-.04-.55-.06-.92-.04-.36.01-.54.06-.4.1l.97.3c.14.04.55.06.91.05.37-.02.55-.07.41-.11l-.97-.3z"/></g><path d="M55.05 254.8c-22.27 0-40.43-18.16-40.43-40.44 0-22.27 18.16-40.43 40.43-40.43s40.43 18.16 40.43 40.43c0 22.28-18.16 40.44-40.43 40.44z" fill="#dbab56"/><circle cx="55.05" cy="211.98" r="37.91" fill="#efb30c"/><g fill="#e5a300"><path d="M21.64 216.49c0-20.95 16.97-37.92 37.92-37.92 9.27 0 17.89 3.32 24.39 8.88-6.9-8.08-17.24-13.38-28.9-13.38-20.95 0-37.92 16.96-37.92 37.91 0 11.66 5.17 22 13.39 28.9-5.43-6.5-8.88-15.12-8.88-24.39z"/><path d="M81.83 185.2c14.84 14.85 14.84 38.84 0 53.56-14.85 14.84-38.71 14.84-53.56 0l53.56-53.56zm0 0h0 0z"/></g><path d="M55.05 252.41c-22.27 0-40.43-18.16-40.43-40.43s18.16-40.43 40.43-40.43 40.43 18.16 40.43 40.43-18.16 40.43-40.43 40.43zm0-75.69c-19.49 0-35.4 15.9-35.4 35.39s15.91 35.4 35.4 35.4c19.48 0 35.39-15.91 35.39-35.4 0-19.62-15.91-35.39-35.39-35.39z" class="f"/><path d="M95.48 211.98c0-10.21-3.84-19.49-10.07-26.65-7.16-6.23-16.44-10.07-26.65-10.07-6.76 0-13.26 1.72-18.82 4.64 4.64-2.12 9.67-3.45 15.11-3.45 10.74 0 20.28 4.77 26.78 12.33 7.55 6.5 12.32 16.04 12.32 26.78 0 5.43-1.19 10.47-3.44 15.11 3.05-5.44 4.77-11.8 4.77-18.69z" class="g"/><path d="M18.46 215.82c0 10.21 3.84 19.49 10.08 26.65 7.15 6.23 16.43 10.07 26.64 10.07 6.76 0 13.26-1.72 18.82-4.64-4.63 2.12-9.67 3.45-15.11 3.45-10.74 0-20.28-4.77-26.78-12.33-7.55-6.76-12.46-16.3-12.46-27.04 0-5.44 1.2-10.47 3.45-15.11-3.05 5.7-4.64 12.06-4.64 18.95z" fill="#eac06c"/><path d="M57.3 186.53c0 1.19-1.06 3.31-2.25 3.31-1.2 0-2.26-1.99-2.26-3.31 0-1.33 1.06-2.26 2.26-2.26 1.19 0 2.25 1.06 2.25 2.26z" fill="#e5a300"/><circle cx="55.05" cy="186.53" r="2.25" class="f"/><path d="M56.64 184.94c.93.92.93 2.38 0 3.18-.93.92-2.39.92-3.18 0l3.18-3.18zm0 0h0 0z" class="g"/><g fill="#ffe0a1"><path d="M55.31 175.39c0 .13-.13.27-.26.27h0a.3.3 0 0 1-.27-.27v-2.65a.3.3 0 0 1 .27-.27h0c.13 0 .26.14.26.27v2.65zm0 75.96a.28.28 0 0 1-.26.26h0c-.13 0-.27-.13-.27-.26v-2.65a.3.3 0 0 1 .27-.27h0c.13 0 .26.14.26.27v2.65zm25.85-65.09c-.13.13-.39.13-.39 0h0c-.14-.13-.14-.26 0-.4l1.85-1.85c.13-.14.4-.14.4 0h0c.13.13.13.4 0 .4l-1.86 1.85zm-53.69 53.69c-.13.13-.39.13-.39 0h0c-.14-.13-.14-.4 0-.4l1.85-1.85c.14-.14.4-.14.4 0h0c.13.13.13.39 0 .39l-1.86 1.86zm64.3-27.57a.3.3 0 0 1-.27-.27h0c0-.13.14-.26.27-.26h2.65a.28.28 0 0 1 .26.26h0c0 .13-.13.27-.26.27h-2.65zm-75.96 0a.3.3 0 0 1-.27-.27h0c0-.13.14-.26.27-.26h2.65c.13 0 .27.13.27.26h0a.3.3 0 0 1-.27.27h-2.65zm64.96 25.85c-.14-.14-.14-.27 0-.4h0a.24.24 0 0 1 .39 0l1.86 1.85c.13.14.13.4 0 .4h0c-.13.13-.4.13-.4 0l-1.85-1.85zm-53.69-53.82c-.14-.14-.14-.27 0-.4h0c.13-.14.39-.14.39 0l1.86 1.85c.13.14.13.4 0 .4h0c-.13.13-.4.13-.4 0l-1.85-1.85zm9.94-4.38c.13.13 0 .4-.13.4h0c-.14.13-.4 0-.4-.13l-1.33-2.26c-.13-.13 0-.4.14-.4h0c.13-.13.39 0 .39.14l1.33 2.25zm37.91 65.88c.14.14 0 .4-.13.4h0c-.13.13-.4 0-.4-.13l-1.32-2.25c-.14-.14 0-.4.13-.4h0c.13-.13.4 0 .4.13l1.32 2.25zm-10.07-69.19c0 .13-.27.26-.4.26h0c-.13 0-.26-.26-.26-.4l.66-2.51c0-.14.26-.27.4-.27h0c.13 0 .26.27.26.4l-.66 2.52zm-19.62 73.3c0 .14-.27.27-.4.27h0c-.13 0-.26-.27-.26-.4l.66-2.52c0-.13.26-.26.4-.26h0c.13 0 .26.26.26.4l-.66 2.51zM87 193.95c-.14.13-.4 0-.4-.13h0c-.13-.14 0-.4.13-.4l2.25-1.33c.14-.13.4 0 .4.14h0c.13.13 0 .39-.13.39L87 193.95zM21.24 232c-.13.13-.39 0-.39-.14h0c-.14-.13 0-.39.13-.39l2.25-1.33c.14-.13.4 0 .4.13h0c.13.13 0 .4-.13.4L21.24 232zm69.2-10.21c-.13 0-.26-.27-.26-.4h0c0-.13.26-.26.4-.26l2.51.66c.14 0 .27.26.27.4h0c0 .13-.27.26-.4.26l-2.52-.66zM17 202.17c-.13 0-.26-.27-.26-.4h0c0-.13.26-.26.39-.26l2.52.66c.14 0 .27.26.27.4h0c0 .13-.27.26-.4.26l-2.52-.66z"/><path d="M23.5 193.42c.13.13.26.26.13.4h0c-.13.13-.26.26-.4.13l-2.25-1.33c-.13-.13-.27-.26-.13-.39h0c.13-.14.26-.27.39-.14l2.26 1.33zm65.75 37.91c.13.14.26.27.13.4h0c-.13.13-.26.27-.4.13l-2.25-1.32c-.13-.14-.26-.27-.13-.4h0c.13-.13.26-.27.4-.13l2.25 1.32z"/><use xlink:href="#a"/><use xlink:href="#a" x="19.62" y="73.44"/><path d="M73.61 180.43c-.14.13-.27.26-.4.13h0c-.13-.13-.27-.26-.13-.4l1.32-2.25c.13-.13.27-.27.4-.13h0c.13.13.27.26.13.39l-1.32 2.26zm-37.92 65.75c-.13.13-.26.26-.39.13h0c-.14-.13-.27-.26-.14-.4l1.33-2.25c.13-.13.26-.26.4-.13h0c.13.13.26.26.13.4l-1.33 2.25zm54.89-43.35c-.14 0-.4 0-.4-.26h0c0-.14 0-.4.26-.4l2.52-.66c.13 0 .4 0 .4.26h0c0 .13 0 .4-.27.4l-2.51.66zm-73.45 19.62c-.13 0-.39 0-.39-.26h0c0-.14 0-.4.26-.4l2.52-.66c.13 0 .4 0 .4.26h0c0 .13 0 .4-.27.4l-2.52.66z"/></g><path d="M35.3 226.43c-.14 0-.27 0-.4-.13-5.97-2.52-8.75-9.42-6.23-15.51.26-.54.79-.8 1.32-.54.53.27.8.8.53 1.33-1.06 2.39-1.06 5.04 0 7.42.93 2.39 2.79 4.38 5.31 5.31.53.26.79.79.53 1.32-.4.67-.67.8-1.06.8z" class="f"/><path d="M30.39 219.27c-.79-1.99-.93-4.24-.4-6.36 0-.67.14-1.33.4-1.99a.98.98 0 0 0-.53-.53c-.53-.27-1.06 0-1.32.53-.27.53-.4 1.06-.53 1.59-.54 5.04 2.25 10.07 7.15 12.06.14 0 .27.13.4.13h.27l-.14-.13c-2.38-1.06-4.24-2.91-5.3-5.3z" class="g"/><path d="M33.84 202.83c-1.46 0-3.05 1.19-4.11 3.18s-.27 2.52.53 3.71l3.58-6.89z" class="f"/><path d="M33.84 202.83c.79 1.19.79 3.18-.13 5.17-1.07 1.99-1.86 1.72-3.32 1.72l3.45-6.89z" class="g"/><path d="M25.09 205.75c.93-.13 1.99.66 2.78 1.85.8 1.2.27 1.59-.13 2.39l-2.65-4.24z" class="f"/><path d="M25.09 205.75c-.53.79-.4 1.99.4 3.18.79 1.19 1.32.93 2.25.93l-2.65-4.11z" class="g"/><path d="M37.02 210.65c-.8-.79-2.25-.93-3.71-.53-1.59.53-1.46 1.2-1.59 2.26l5.3-1.73z" class="f"/><path d="M37.02 210.65c-.13 1.06-1.19 2.12-2.78 2.65-1.6.53-1.86-.13-2.66-.79l5.44-1.86z" class="g"/><path d="M35.83 215.29c-.67-.66-1.86-.79-3.05-.4-1.2.4-1.2.93-1.33 1.86l4.38-1.46z" class="f"/><path d="M35.83 215.29c-.14.8-1.06 1.73-2.26 2.12-1.19.4-1.46-.13-2.12-.66l4.38-1.46z" class="g"/><path d="M22.97 211.32c.79-.4 1.99-.27 3.05.39 1.06.67.92 1.2.79 2.12l-3.84-2.51z" class="f"/><path d="M22.97 211.32c-.13.79.53 1.85 1.59 2.65 1.06.66 1.46.26 2.25-.14l-3.84-2.51z" class="g"/><path d="M23.1 216.09c.53-.53 1.46-.8 2.65-.53 1.06.26 1.06.79 1.19 1.46l-3.84-.93z" class="f"/><path d="M23.1 216.09c.13.66.93 1.46 2.12 1.72 1.06.27 1.33-.13 1.72-.66l-3.84-1.06z" class="g"/><path d="M23.9 220.33c.39-.66 1.45-.93 2.51-.8 1.06.14 1.2.67 1.46 1.33l-3.97-.53z" class="f"/><path d="M23.9 220.33c.26.66 1.19 1.33 2.25 1.46s1.32-.27 1.72-.93l-3.97-.53z" class="g"/><path d="M26.68 224.31c.26-.53.93-1.06 1.99-1.06.93-.14 1.06.26 1.32.79l-3.31.27z" class="f"/><path d="M26.68 224.31c.26.53 1.19.79 2.12.79.93-.13.93-.53 1.19-1.06l-3.31.27z" class="g"/><path d="M30.52 227.22c0-.53.4-1.06 1.2-1.46.66-.39.92-.13 1.32.14l-2.52 1.32z" class="f"/><path d="M30.52 227.22c.4.27 1.2.27 1.86-.13s.66-.66.66-1.19l-2.52 1.32z" class="g"/><path d="M36.22 218.47c-.66-.39-1.72-.26-2.65.27s-.79 1.06-.79 1.72l3.44-1.99z" class="f"/><path d="M36.22 218.47c0 .8-.53 1.59-1.45 2.26-.93.53-1.33.26-1.99-.14l3.44-2.12z" class="g"/><path d="M37.15 221.13c-.53-.27-1.32 0-1.99.66-.66.66-.53.93-.26 1.46l2.25-2.12z" class="f"/><path d="M37.15 221.13c.13.53-.13 1.32-.79 1.98-.67.67-.93.4-1.46.14l2.25-2.12z" class="g"/><path d="M74.8 226.43c.13 0 .27 0 .4-.13 5.96-2.52 8.75-9.42 6.23-15.51-.27-.54-.8-.8-1.33-.54-.53.27-.79.8-.53 1.33 1.06 2.39 1.06 5.04 0 7.42-.93 2.39-2.78 4.38-5.3 5.31-.53.26-.8.79-.53 1.32.4.67.66.8 1.06.8z" class="f"/><path d="M79.7 219.27c.8-1.99.93-4.24.4-6.36a5.2 5.2 0 0 0-.4-1.99c.14-.27.27-.4.54-.53.53-.27 1.06 0 1.32.53.27.53.4 1.06.53 1.59.53 5.04-2.25 10.07-7.16 12.06-.13 0-.26.13-.4.13h-.26l.13-.13c2.39-1.06 4.24-2.91 5.3-5.3z" class="g"/><path d="M76.26 202.83c1.46 0 3.05 1.19 4.11 3.18s.26 2.52-.53 3.71l-3.58-6.89z" class="f"/><path d="M76.26 202.83c-.8 1.19-.8 3.18.13 5.17 1.06 1.99 1.86 1.72 3.31 1.72l-3.44-6.89z" class="g"/><path d="M85.01 205.75c-.93-.13-1.99.66-2.79 1.85-.79 1.2-.26 1.59.14 2.39l2.65-4.24z" class="f"/><path d="M85.01 205.75c.53.79.4 2.12-.4 3.31s-1.33.93-2.25.93l2.65-4.24z" class="g"/><path d="M73.08 210.65c.79-.79 2.25-.93 3.71-.53 1.59.53 1.46 1.2 1.59 2.26l-5.3-1.73z" class="f"/><path d="M73.08 210.65c.13 1.06 1.19 2.12 2.78 2.65s1.86-.13 2.65-.79l-5.43-1.86z" class="g"/><path d="M74.27 215.29c.66-.66 1.86-.79 3.05-.4 1.19.4 1.19.93 1.32 1.86l-4.37-1.46z" class="f"/><path d="M74.27 215.29c.13.8 1.06 1.73 2.25 2.12 1.2.4 1.46-.13 2.12-.66l-4.37-1.46z" class="g"/><path d="M87.13 211.32c-.8-.4-1.99-.27-3.05.39-1.06.67-.93 1.2-.8 2.12l3.85-2.51z" class="f"/><path d="M87.13 211.32c.13.79-.53 1.85-1.59 2.65-1.06.66-1.46.26-2.26-.14l3.85-2.51z" class="g"/><path d="M87 216.09c-.53-.53-1.46-.8-2.66-.53-1.06.26-1.06.79-1.19 1.46l3.85-.93z" class="f"/><path d="M87 216.09c-.14.66-.93 1.46-2.13 1.72-1.06.27-1.32-.13-1.72-.66l3.85-1.06z" class="g"/><path d="M86.2 220.33c-.4-.66-1.46-.93-2.52-.8-1.06.14-1.19.67-1.46 1.33l3.98-.53z" class="f"/><path d="M86.2 220.33c-.26.66-1.19 1.33-2.25 1.46s-1.33-.27-1.73-.93l3.98-.53z" class="g"/><path d="M83.42 224.31c-.27-.53-.93-1.06-1.99-1.06-.93-.14-1.06.26-1.33.79l3.32.27z" class="f"/><path d="M83.42 224.31c-.27.53-1.2.79-2.12.79-.93-.13-.93-.53-1.2-1.06l3.32.27z" class="g"/><path d="M79.57 227.22c0-.53-.4-1.06-1.19-1.46-.66-.39-.93-.13-1.33.14l2.52 1.32z" class="f"/><path d="M79.57 227.22c-.4.27-1.19.27-1.85-.13-.67-.4-.67-.66-.67-1.19l2.52 1.32z" class="g"/><path d="M73.87 218.47c.66-.39 1.73-.26 2.65.27.93.53.8 1.06.8 1.72l-3.45-1.99z" class="f"/><path d="M73.87 218.47c0 .8.53 1.59 1.46 2.26.93.53 1.33.26 1.86-.14l-3.32-2.12z" class="g"/><path d="M72.94 221.13c.53-.27 1.33 0 1.99.66.67.66.53.93.27 1.46l-2.26-2.12z" class="f"/><path d="M72.94 221.13c-.13.53.14 1.32.8 1.98.66.67.93.4 1.46.14l-2.26-2.12z" class="g"/><path d="M64.59 215.42c1.99-1.59 3.32-4.1 3.32-6.89v-.26c0-4.78-3.72-8.62-8.35-8.75v-3.85c0-1.06-.93-1.99-1.99-1.99s-1.99.93-1.99 1.99v3.85h-1.72v-3.85c0-1.06-.93-1.99-1.99-1.99s-1.99.93-1.99 1.99v3.85h-4.77c-1.06 0-1.99.93-1.99 1.99s.93 1.98 1.99 1.98h4.9v.14c-.13.26-.13.39-.13.66v23.33h-4.77c-1.06 0-1.99.93-1.99 1.99s.93 1.99 1.99 1.99h4.77v4.37c0 1.06.93 1.99 1.99 1.99s1.99-.93 1.99-1.99v-4.37h1.72v4.37c0 1.06.93 1.99 1.99 1.99s1.99-.93 1.99-1.99v-4.5c4.64-.14 8.35-3.98 8.35-8.75v-.27c0-2.92-1.33-5.3-3.32-7.03zm-.53 7.16c0 2.65-2.12 4.91-4.9 4.91h-5.3v-23.33c0-.27 0-.4-.14-.67v-.13h5.44a4.89 4.89 0 0 1 4.9 4.91v.26c0 2.65-2.12 4.91-4.9 4.91-1.06 0-1.99.92-1.99 1.98v.14h0c0 1.06.93 1.99 1.99 1.99 2.65 0 4.9 2.12 4.9 4.9v.13z" fill="#f9e310"/><path d="M64.06 208.27v.26c0 2.65-2.12 4.91-4.9 4.91-1.06 0-1.99.92-1.99 1.98v.14h0c0 1.06.93 1.99 1.99 1.99 2.65 0 4.9 2.12 4.9 4.9v.27c0 2.65-2.12 4.9-4.9 4.9h-5.3v-14.45l-3.98 3.98v10.34h-4.77c-1.06 0-1.99.93-1.99 1.99s.93 1.99 1.99 1.99h4.77v4.37c0 1.06.93 1.99 1.99 1.99s1.99-.93 1.99-1.99v-4.37h1.72v4.37c0 1.06.93 1.99 1.99 1.99s1.99-.93 1.99-1.99v-4.51c4.64-.13 8.35-3.97 8.35-8.75v-.26c0-2.79-1.33-5.3-3.32-6.9 1.99-1.59 3.32-4.1 3.32-6.89v-.26a8.6 8.6 0 0 0-2.79-6.37l-2.78 2.79c1.06.93 1.72 2.25 1.72 3.58z" fill="#f7c011"/><g class="m"><circle cx="18.01" cy="116.83" r="6.19"/><circle cx="72.69" cy="76.6" r="6.19"/><circle cx="127.38" cy="116.83" r="6.19"/></g></g></svg>