<svg xmlns="http://www.w3.org/2000/svg" width="200" height="200" viewBox="0 0 4.28 4.28" shape-rendering="geometricPrecision" image-rendering="optimizeQuality" fill-rule="evenodd" xmlns:v="https://vecta.io/nano"><path d="M2.25 0c.29 0 .52.23.52.52 0 .04 0 .07-.01.11v1.15H1.73V.61h.01C1.73.58 1.73.55 1.73.52c0-.29.23-.52.52-.52z" fill="#263674"/><g fill-rule="nonzero"><path d="M4.13 2.26l-1.37-.48V.61L4.13.13c.01-.01.02-.01.03-.01.07 0 .12.05.12.11v1.93c0 .06-.05.11-.12.11-.01 0-.02 0-.03-.01h0z" fill="#e0b404"/><path d="M1.85 1.78h.7V3.1h-.7z" fill="#263674"/><path d="M3.97 2.05l-1.21-.42V.61L3.97.16c.08-.02.15-.06.15.02v1.77c0 .06-.05.11-.11.11-.01 0-.03 0-.04-.01h0z" fill="#fdcb08"/><path d="M1.65.61h.08v1.17h-.08c-.32 0-.58-.26-.58-.59h0a.58.58 0 0 1 .58-.58h0z" fill="#e0b404"/><path d="M1.58.61h.15v1.02h-.15c-.29 0-.52-.23-.52-.51h0c.01-.29.23-.51.52-.51h0z" stroke="#e0b404" stroke-miterlimit="2.61313" fill="#fdcb08"/><path d="M.759 2.95v1.221H.007V2.95z" fill="#263674"/><path d="M1.17 3.026v1.065H.758V3.026z" fill="#e0b404"/><path d="M1.079 3.026v.937H.851v-.937z" fill="#fff"/><path d="M2.67 3.22v.83c0 .13-.1.23-.23.23h-.28c-.14 0-.28-.05-.4-.12l-.03-.02c-.11-.08-.25-.13-.4-.13h-.16V3.1h.23c.03 0 .05-.01.07-.03l.38-.35v.38h.71c.06 0 .11.05.11.12h0z" fill="#fdcb08"/><circle cx=".38" cy="3.9" r=".11" fill="#fff"/></g></svg>