<?xml version="1.0" encoding="UTF-8"?>
<!DOCTYPE svg PUBLIC "-//W3C//DTD SVG 1.1//EN" "http://www.w3.org/Graphics/SVG/1.1/DTD/svg11.dtd">
<!-- Creator: CorelDRAW 2020 (64-Bit) -->
<svg xmlns="http://www.w3.org/2000/svg" xml:space="preserve" width="300px" height="300px" version="1.1" style="shape-rendering:geometricPrecision; text-rendering:geometricPrecision; image-rendering:optimizeQuality; fill-rule:evenodd; clip-rule:evenodd"
viewBox="0 0 81.73 81.73"
 xmlns:xlink="http://www.w3.org/1999/xlink"
 xmlns:xodm="http://www.corel.com/coreldraw/odm/2003">
 <defs>
  <style type="text/css">
   <![CDATA[
    .fil3 {fill:none;fill-rule:nonzero}
    .fil0 {fill:#24407C;fill-rule:nonzero}
    .fil5 {fill:#FEC00F;fill-rule:nonzero}
    .fil4 {fill:#FFCD3F;fill-rule:nonzero}
    .fil7 {fill:#FFD559;fill-rule:nonzero}
    .fil6 {fill:#FFDB75;fill-rule:nonzero}
    .fil1 {fill:white;fill-opacity:0.101961}
    .fil2 {fill:white;fill-rule:nonzero;fill-opacity:0.101961}
   ]]>
  </style>
    <clipPath id="id0" style="clip-rule:nonzero">
     <path d="M80.9 0.82c-0.54,-0.54 -1.29,-0.82 -2.05,-0.82l-24.1 0c-1.03,0 -1.98,0.56 -2.47,1.46l-10.59 26.97c-0.36,0.65 -1.29,0.65 -1.65,0l-10.59 -26.97c-0.5,-0.9 -1.44,-1.46 -2.47,-1.46l-24.1 0c-0.76,0 -1.51,0.28 -2.05,0.82 -0.91,0.92 -1.07,2.29 -0.48,3.37l21.64 47.04c1.17,2.13 4.29,1.89 5.12,-0.38 1.96,-5.32 6.87,-9.07 12.52,-9.54 0.79,-0.07 1.67,-0.07 2.48,0 5.62,0.47 10.51,4.18 12.48,9.47 0.89,2.38 3.99,2.56 5.15,0.45l21.64 -47.04c0.59,-1.08 0.43,-2.45 -0.48,-3.37z"/>
    </clipPath>
 </defs>
 <g id="Layer_x0020_1">
  <metadata id="CorelCorpID_0Corel-Layer"/>
  <g id="_2921052301168">
   <path class="fil0" d="M80.9 0.82c-0.54,-0.54 -1.29,-0.82 -2.05,-0.82l-24.1 0c-1.03,0 -1.98,0.56 -2.47,1.46l-10.59 26.97c-0.36,0.65 -1.29,0.65 -1.65,0l-10.59 -26.97c-0.5,-0.9 -1.44,-1.46 -2.47,-1.46l-24.1 0c-0.76,0 -1.51,0.28 -2.05,0.82 -0.91,0.92 -1.07,2.29 -0.48,3.37l21.64 47.04c1.17,2.13 4.29,1.89 5.12,-0.38 1.96,-5.32 6.87,-9.07 12.52,-9.54 0.79,-0.07 1.67,-0.07 2.48,0 5.62,0.47 10.51,4.18 12.48,9.47 0.89,2.38 3.99,2.56 5.15,0.45l21.64 -47.04c0.59,-1.08 0.43,-2.45 -0.48,-3.37z"/>
   <g style="clip-path:url(#id0)">
    <g>
     <polygon id="1" class="fil1" points="96.06,-7.14 71.85,-4.98 41.66,53.65 63.8,64.41 "/>
     <polygon class="fil1" points="-12.52,-4.68 11.69,-2.52 41.88,56.12 19.74,66.87 "/>
     <g>
      <path class="fil2" d="M25.62 18.32l-9.42 -18.44 -6.45 -0.19 10.84 21.2c0.71,1.39 2.41,1.94 3.8,1.23 1.39,-0.71 1.94,-2.41 1.23,-3.8z"/>
      <path class="fil2" d="M13.09 11.85l-6.27 -12.25 -4.28 -0.13 7.2 14.09c0.47,0.92 1.61,1.29 2.53,0.82 0.92,-0.47 1.29,-1.61 0.82,-2.53z"/>
      <path class="fil2" d="M30.47 12.38l-6.27 -12.25 -4.28 -0.13 7.2 14.09c0.47,0.92 1.61,1.29 2.53,0.82 0.92,-0.47 1.29,-1.61 0.82,-2.53z"/>
     </g>
     <g>
      <path class="fil2" d="M56.92 18.32l9.42 -18.44 6.45 -0.19 -10.84 21.2c-0.71,1.39 -2.41,1.94 -3.8,1.23 -1.39,-0.71 -1.94,-2.41 -1.23,-3.8z"/>
      <path class="fil2" d="M69.45 11.85l6.27 -12.25 4.28 -0.13 -7.2 14.09c-0.47,0.92 -1.61,1.29 -2.53,0.82 -0.92,-0.47 -1.29,-1.61 -0.82,-2.53z"/>
      <path class="fil2" d="M52.07 12.38l6.27 -12.25 4.28 -0.13 -7.2 14.09c-0.47,0.92 -1.6,1.29 -2.53,0.82 -0.92,-0.47 -1.29,-1.61 -0.82,-2.53z"/>
     </g>
    </g>
   </g>
   <path class="fil3" d="M80.9 0.82c-0.54,-0.54 -1.29,-0.82 -2.05,-0.82l-24.1 0c-1.03,0 -1.98,0.56 -2.47,1.46l-10.59 26.97c-0.36,0.65 -1.29,0.65 -1.65,0l-10.59 -26.97c-0.5,-0.9 -1.44,-1.46 -2.47,-1.46l-24.1 0c-0.76,0 -1.51,0.28 -2.05,0.82 -0.91,0.92 -1.07,2.29 -0.48,3.37l21.64 47.04c1.17,2.13 4.29,1.89 5.12,-0.38 1.96,-5.32 6.87,-9.07 12.52,-9.54 0.79,-0.07 1.67,-0.07 2.48,0 5.62,0.47 10.51,4.18 12.48,9.47 0.89,2.38 3.99,2.56 5.15,0.45l21.64 -47.04c0.59,-1.08 0.43,-2.45 -0.48,-3.37z"/>
   <g>
    <g>
     <path class="fil4" d="M52.8 80.8l-11.94 -6.28 -11.93 6.27c-5.85,3.08 -12.72,-1.9 -11.6,-8.42l2.28 -13.29 -9.66 -9.42c-4.73,-4.61 -2.11,-12.68 4.43,-13.63l13.35 -1.94 5.97 -12.09c2.92,-5.93 11.4,-5.94 14.33,0l5.96 12.09 13.35 1.94c6.54,0.95 9.16,9.01 4.43,13.63l-9.66 9.42 2.28 13.29c1.13,6.57 -5.79,11.48 -11.59,8.43z"/>
     <path class="fil5" d="M67.34 36.03l-13.34 -1.94 -5.97 -12.09c-1.47,-2.97 -4.32,-4.45 -7.17,-4.45l0 56.97 11.94 6.28c5.8,3.05 12.72,-1.86 11.59,-8.43l-2.28 -13.29 9.66 -9.42c4.74,-4.61 2.11,-12.68 -4.43,-13.63z"/>
    </g>
    <g>
     <path class="fil6" d="M47.68 67.44l-6.82 -3.59 -6.82 3.59c-3.34,1.76 -7.26,-1.09 -6.62,-4.82l1.3 -7.59 -5.51 -5.38c-2.71,-2.63 -1.21,-7.24 2.52,-7.79l7.63 -1.1 3.41 -6.91c1.67,-3.39 6.51,-3.39 8.19,0l3.41 6.91 7.62 1.1c3.74,0.55 5.23,5.15 2.53,7.79l-5.52 5.38 1.31 7.59c0.64,3.76 -3.31,6.56 -6.63,4.82z"/>
     <path class="fil7" d="M55.99 41.86l-7.62 -1.1 -3.41 -6.91c-0.84,-1.7 -2.47,-2.54 -4.1,-2.54l0 32.54 6.82 3.59c3.32,1.74 7.27,-1.06 6.63,-4.81l-1.31 -7.6 5.52 -5.38c2.71,-2.64 1.21,-7.24 -2.53,-7.79z"/>
    </g>
   </g>
  </g>
 </g>
</svg>
