<svg width="102" height="102" viewBox="0 0 102 102" fill="none" xmlns="http://www.w3.org/2000/svg">
<path fill-rule="evenodd" clip-rule="evenodd" d="M50.625 16.875C50.625 7.55519 58.1802 0 67.5 0C76.8198 0 84.375 7.55519 84.375 16.875C84.375 26.1948 76.8198 33.75 67.5 33.75C58.1802 33.75 50.625 26.1948 50.625 16.875ZM67.5 11.25C64.3934 11.25 61.875 13.7684 61.875 16.875C61.875 19.9816 64.3934 22.5 67.5 22.5C70.6066 22.5 73.125 19.9816 73.125 16.875C73.125 13.7684 70.6066 11.25 67.5 11.25Z" fill="#FAE3DB"/>
<path d="M70.3125 61.875L61.875 70.3125L70.3125 78.75L78.75 70.3125L70.3125 61.875Z" fill="#FAE3DB"/>
<path fill-rule="evenodd" clip-rule="evenodd" d="M39.375 70.3125C39.375 53.2262 53.2262 39.375 70.3125 39.375C87.3988 39.375 101.25 53.2262 101.25 70.3125C101.25 87.3988 87.3988 101.25 70.3125 101.25C53.2262 101.25 39.375 87.3988 39.375 70.3125ZM70.3125 50.625C59.4394 50.625 50.625 59.4394 50.625 70.3125C50.625 81.1856 59.4394 90 70.3125 90C81.1856 90 90 81.1856 90 70.3125C90 59.4394 81.1856 50.625 70.3125 50.625Z" fill="#FAE3DB"/>
<path fill-rule="evenodd" clip-rule="evenodd" d="M16.875 67.5C7.55519 67.5 0 75.0552 0 84.375C0 93.6948 7.55519 101.25 16.875 101.25C26.1948 101.25 33.75 93.6948 33.75 84.375C33.75 75.0552 26.1948 67.5 16.875 67.5ZM11.25 84.375C11.25 81.2684 13.7684 78.75 16.875 78.75C19.9816 78.75 22.5 81.2684 22.5 84.375C22.5 87.4816 19.9816 90 16.875 90C13.7684 90 11.25 87.4816 11.25 84.375Z" fill="#FAE3DB"/>
<path fill-rule="evenodd" clip-rule="evenodd" d="M0 22.5C0 10.0736 10.0736 0 22.5 0C34.9264 0 45 10.0736 45 22.5C45 34.9264 34.9264 45 22.5 45C10.0736 45 0 34.9264 0 22.5ZM22.5 11.25C16.2868 11.25 11.25 16.2868 11.25 22.5C11.25 28.7132 16.2868 33.75 22.5 33.75C28.7132 33.75 33.75 28.7132 33.75 22.5C33.75 16.2868 28.7132 11.25 22.5 11.25Z" fill="#FAE3DB"/>
<path d="M28.125 61.875C31.2316 61.875 33.75 59.3566 33.75 56.25C33.75 53.1434 31.2316 50.625 28.125 50.625C25.0184 50.625 22.5 53.1434 22.5 56.25C22.5 59.3566 25.0184 61.875 28.125 61.875Z" fill="#FAE3DB"/>
<path d="M101.25 33.75C101.25 36.8566 98.7316 39.375 95.625 39.375C92.5184 39.375 90 36.8566 90 33.75C90 30.6434 92.5184 28.125 95.625 28.125C98.7316 28.125 101.25 30.6434 101.25 33.75Z" fill="#FAE3DB"/>
</svg>
