<svg width="20" height="20" viewBox="0 0 20 20" fill="none" xmlns="http://www.w3.org/2000/svg">
<circle cx="10" cy="10" r="10" fill="#F0B90B"/>
<path d="M6.43767 5.39703L9.96018 3.34662L13.4827 5.39703L12.1876 6.15451L9.96018 4.86157L7.73271 6.15451L6.43767 5.39703ZM13.4827 7.9829L12.1876 7.22542L9.96018 8.51836L7.73271 7.22542L6.43767 7.9829V9.49786L8.66514 10.7908V13.3767L9.96018 14.1341L11.2552 13.3767V10.7908L13.4827 9.49786V7.9829ZM13.4827 12.0837V10.5688L12.1876 11.3263V12.8412L13.4827 12.0837ZM14.4022 12.6192L12.1747 13.9121V15.4271L15.6972 13.3767V9.27584L14.4022 10.0333V12.6192ZM13.1071 6.68997L14.4022 7.44744V8.9624L15.6972 8.20492V6.68997L14.4022 5.93249L13.1071 6.68997ZM8.66514 14.4606V15.9756L9.96018 16.7331L11.2552 15.9756V14.4606L9.96018 15.2181L8.66514 14.4606ZM6.43767 12.0837L7.73271 12.8412V11.3263L6.43767 10.5688V12.0837ZM8.66514 6.68997L9.96018 7.44744L11.2552 6.68997L9.96018 5.93249L8.66514 6.68997ZM5.51817 7.44744L6.81322 6.68997L5.51817 5.93249L4.22313 6.68997V8.20492L5.51817 8.9624V7.44744ZM5.51817 10.0333L4.22313 9.27584V13.3767L7.74564 15.4271V13.9121L5.51817 12.6192V10.0333Z" fill="black"/>
</svg>
