<svg width="261" height="211" fill="none" xmlns="http://www.w3.org/2000/svg"><g opacity=".08" clip-path="url(#clip0_15028_356086)"><path d="M317.124 303.415a43.15 43.15 0 009.754-2.081 32.635 32.635 0 0017.799-13.667 42.61 42.61 0 005.034-22 96.826 96.826 0 00-9.982-39.324l.175-.085a4.254 4.254 0 003.279-.94 4.268 4.268 0 001.539-3.046 4.262 4.262 0 00-4.345-4.497l-120.87-6.54 44.915-112.414a4.296 4.296 0 00-2.405-5.542 4.224 4.224 0 00-4.619.992 4.24 4.24 0 00-.894 1.398l-.145.07a96.842 96.842 0 00-31.478-25.584 42.506 42.506 0 00-22.09-4.703 32.57 32.57 0 00-20.029 10.48 45.185 45.185 0 00-6.055 8c-20.555-3.906-39.382-28.637-39.495-28.869l-.854-1.15c-.596-.802-1.872-.33-1.8.668l.103 1.434c1.511 19.073-21.379 68.367-21.629 68.812l-.204.099.113.232a26.567 26.567 0 004.244 13.764c3.796 6.265 11.711 14.658 28.274 20.466 1.323.434 2.689.883 4.2 1.261a29.775 29.775 0 0010.834 1.916 16.66 16.66 0 0010.802-6.501 61.35 61.35 0 006.228-14.22 129.581 129.581 0 0123.077 19.222 219.56 219.56 0 0120.276 24.243l-10.081 25.276-79.636-4.388c-.8-.05-1.597.128-2.299.514a4.222 4.222 0 00-1.668 1.663 4.14 4.14 0 00-.512 1.828 4.193 4.193 0 002.391 4.078c.506.24 1.055.376 1.614.4l76.752 4.138-28.573 71.286a4.292 4.292 0 002.405 5.543 3.94 3.94 0 001.859.281 4.231 4.231 0 003.668-2.642l29.558-74.061 27.166 1.484a220.65 220.65 0 0113.455 28.595 128.173 128.173 0 017.748 29.034 61.094 61.094 0 00-15.515-.324 16.947 16.947 0 00-10.462 7.053 29.86 29.86 0 00-2.836 10.564c-.205 1.499-.409 2.925-.527 4.31-1.718 17.448 2.561 28.18 6.648 34.233a26.278 26.278 0 0010.716 9.652l.273.119.203-.099c.563-.022 54.844-.115 71.583 9.232l4.274 2.373-2.332-4.285c-.133.244-14.743-27.109-9.624-47.751zM130.103 213.85l.232-.112.44-.645a4.514 4.514 0 00.788-1.925l.021-.548-.212-.436-.62-1.278-.141-.29-.141-.29.273.118.301.177.386.279.414.409.268.552.155.319.155.319c.054.242.066.491.035.737a3.236 3.236 0 01-.506 1.322 3.62 3.62 0 01-.804.857 2.728 2.728 0 01-.726.353l-.318.082zm51.558 76.619a3.216 3.216 0 011.413.103c.234.078.456.188.661.325l.141.29.141.291.282.581.254.522.183.378.155.319.113.232-.282-.58-.184-.378-.098-.203-.099-.203-.371-.394-.4-.308a2.045 2.045 0 00-.489-.194 4.724 4.724 0 00-2.092-.096 6.028 6.028 0 00-.767.121 5.06 5.06 0 01.726-.352c.204-.163.423-.306.655-.426l.058-.028zm133.005 35.669a97.82 97.82 0 002.517 9.542l1.284 3.826c-2.495-.26-7.224-.762-12.834-1.231a51.665 51.665 0 01-4.229-11.295c5.617-.108 10.399-.457 13.204-.814l.058-.028zm-22.288 11.146c-4.92-.302-9.753-.503-13.912-.421a50.806 50.806 0 01-4.415-10.2c2.382.028 4.662.069 6.811.281 3.029.18 6.074.316 9.076.365l.51 3.341.197.406a23.727 23.727 0 001.587 6.298l.146-.07zm8.683-10.568c-3.51.162-7.119.12-10.973.09a62.105 62.105 0 01-.613-11.831c3.657-.448 7.49-1.053 10.962-1.735a69.375 69.375 0 00-.295 4.27c-.12 3.102.169 6.208.861 9.234l.058-.028zm12.255-16.142c-2.286.465-7.018 1.435-12.501 2.483.746-5.853 1.651-7.979 2.511-8.647l1.043-.291 1.231-.347a39.357 39.357 0 019.026-1.584 41.223 41.223 0 00-1.311 8.531l.001-.145zM298.739 274.2a16.831 16.831 0 012.07-.467 64.78 64.78 0 01-1.648 16.337 63.172 63.172 0 00-13.524 4.737c.102-2.525.094-5.571.065-9.325l-.008-5.558-.113-2.672c5.238-1.037 10.144-2.091 13.1-3.024l.058-.028zm-.287-20.099c3.327-.539 6.176-1.025 8.26-1.463a54.476 54.476 0 017.055-.842 89.109 89.109 0 011.756 20.317c-4.802.17-9.591.591-14.349 1.263l-.09-2.181a103.92 103.92 0 00-2.632-17.094zm-15.504 42.335l2.497-1.213c-.297 8.182-1.654 10.707-7.21 14.266a54.97 54.97 0 01-3.411.365l-.477.052a57.161 57.161 0 01-12.889-.236 14.494 14.494 0 003.988-6.565l.493-1.424a37.641 37.641 0 0017.154-5.316l-.145.071zm16.543-6.131l1.042-.219a154.98 154.98 0 0110.846-1.679c-5.323 13.349-8.527 15.766-8.745 15.908a232.155 232.155 0 01-10.077 2.525 47.622 47.622 0 006.992-16.564l-.058.029zm-8.398 17.067a15.783 15.783 0 00-1.969 6.733l-.023.693a102.85 102.85 0 01-10.851.856 72.58 72.58 0 00-5.634.295 9.853 9.853 0 011.83-5.912 129.026 129.026 0 0016.705-2.693l-.058.028zm51.884-22.468c-.28.531-.502.962-.708 1.277-5.858 9.734-16.593 12.973-22.408 14.003a60.17 60.17 0 008.91-13.943c6.461-.734 11.678-1.149 14.264-1.365l-.058.028zm-11.949-4.065a135.183 135.183 0 01-2.427 5.126c-5.261.545-11.174 1.227-16.929 2.084.729-1.897 1.635-4.023 2.325-6.296a34.454 34.454 0 001.682-9.32c1.878-.123 3.799-.231 5.734-.309 3.958-.2 8.001-.297 11.629-.659a28.11 28.11 0 01-1.956 9.346l-.058.028zm14.368-29.009a72.861 72.861 0 011.703 13.778c-.03 1.27-.044 2.497-.129 3.65a71.06 71.06 0 01-13.462 1.837 85.55 85.55 0 00-1.476-19.593c6.149.028 11.416.233 13.422.3l-.058.028zm-31.38-.335c-.655-3.27-1.285-6.265-1.974-9.088-.428-1.694-.771-3.214-1.299-4.967 6.24-.303 12.351-.723 17.408-1.098 1.218 4.504 2.43 9.585 3.393 14.895-5.803-.053-12.169-.084-17.47.23l-.058.028zm21.48-28.623c1.819 3.746 3.832 9.442 4.827 12.009-2.153.221-6.474.632-11.907 1.046a214.302 214.302 0 00-4.244-13.764l11.324.709zm-95.992-75.387a132.188 132.188 0 00-12.563-14.639c2.219-4.666 4.719-9.863 7.318-14.857 5.547 4.699 10.016 8.951 12.428 11.332l-7.183 18.164zm18.293-46.272l-4.15 10.519a232.719 232.719 0 00-10.715-9.652c2.626-4.863 4.848-8.49 5.952-10.354 2.041 2.06 6.133 6.423 8.999 9.517l-.086-.03zm-15.256.949a635.089 635.089 0 00-8.363 15.364c-1.273-1.068-2.659-2.297-3.976-3.236a126.755 126.755 0 00-7.427-5.615c2.481-4.793 5.305-10.578 7.661-15.849 4.44 3.083 8.617 6.365 12.191 9.366l-.086-.03zm-87.359 31.657l.303.032c1.624.115 3.238.351 4.828.705a29.783 29.783 0 01-1.362 2.886 14.808 14.808 0 01-3.64-3.506l-.129-.117zm-5.651 10.53a45.163 45.163 0 01-4.624-2.132 23.04 23.04 0 011.747-2.463 30.673 30.673 0 003.064 4.684l-.187-.089zm5.929-39.515a16.151 16.151 0 006.932 1.048 125.296 125.296 0 00-9.416 14.009 9.903 9.903 0 01-6.111-.836c1.002-1.778 1.902-3.472 2.655-4.878a104.952 104.952 0 015.335-9.48l.605.137zm14.703-8.073c.261-.126 3.734-2.064 18.118-1.262-2.016 3.24-4.101 6.333-6.14 9.081l-.63.845a47.798 47.798 0 00-17.866-.583c2.475-3.032 4.759-5.791 6.518-8.08zm-14.928 20.023c5.412-3.632 8.36-3.844 15.944-.565-.714.598-1.428 1.196-2.128 1.751a37.567 37.567 0 00-11.732 13.304c-.49-.049-1.023-.113-1.5-.133a14.234 14.234 0 00-7.705.907 56.599 56.599 0 015.059-11.751l.236-.401c.733-1.002 1.279-2.021 1.882-2.995l-.056-.117zm24.895 3.09c-3.388-1.584-6.13-2.872-8.472-3.852a62.3 62.3 0 009.965-10.293 64.89 64.89 0 0115.542 5.406c-.542.73-1.026 1.36-1.465 1.86a122.681 122.681 0 00-8.119 10.473l-2.396-1.24-5.055-2.354zm19.407-7.845l-1.966-1.019a130.859 130.859 0 007.189-12.462 90.046 90.046 0 0117.683 10.108 50.44 50.44 0 01-3.723 6.078c-1.261 1.689-2.934 4.081-4.814 6.859a103.088 103.088 0 00-14.313-9.448l-.056-.116zm24.26-39.23a69.707 69.707 0 0111.913 7.168 458.924 458.924 0 01-5.325 12.31 85.25 85.25 0 00-17.183-9.597 70.773 70.773 0 017.319-11.233c1.035.358 2.169.92 3.332 1.468l-.056-.117zm-20.448 7.99a28.14 28.14 0 019.461 2.045c-1.799 3.242-3.644 6.757-5.489 10.273l-2.771 4.934a33.77 33.77 0 00-9.139-2.416c-2.467-.202-4.673-.386-6.637-.366 3.088-4.8 6.207-9.903 8.901-14.405 1.761.03 3.671.047 5.731.052l-.057-.116zm-.059-12.314c.319-.155.853-.09 1.445-.127-1.297 2.28-3.847 6.856-7.173 12.346a61.687 61.687 0 00-16.411 2.192c3.405-4.811 10.821-13.185 22.139-14.41zm-26.185 18.493a38.734 38.734 0 01-5.241 7.532l-.82.972c-.29.141-.454.544-.702.844-.988.48-3.355.48-8.891-1.388a424.883 424.883 0 017.424-10.351 41.766 41.766 0 008.23 2.39zm-20.099 6.566c1.48.609 2.802 1.115 4.023 1.635-2.142 2.977-4.2 6.13-6.243 9.311a61.633 61.633 0 01-10.531-5.651c1.542-3.476 3.169-6.85 4.691-9.921a33.641 33.641 0 008.06 4.626zm-9.29-23.047a97.752 97.752 0 007.622 6.31c-1.529 2.394-3.96 6.624-6.372 11.634a50.636 50.636 0 01-8.461-8.557 669.262 669.262 0 004.27-12.193l2.941 2.806zM131.63 85.834c1.493-4.314 2.86-8.888 3.76-13.021a64.812 64.812 0 004.782 7.115 508.662 508.662 0 01-4.425 11.873 42.848 42.848 0 01-4.117-5.967zm9.269 11.108l.402.236 2.708 1.734c-1.187 2.729-2.389 5.574-3.475 8.362-.788 1.997-1.621 4.052-2.685 6.22a47.335 47.335 0 01-7.382-8.257c1.733-3.82 3.59-8.346 5.361-12.901a24.726 24.726 0 005.071 4.606zm-19.577 16.36a377.596 377.596 0 005.381-13.378 61.221 61.221 0 003.487 5.483c-.858 1.853-1.672 3.575-2.469 5.039-1.623 3.012-3.1 5.883-4.458 8.48a31.163 31.163 0 01-1.941-5.624zm-1.586 24.667a30.385 30.385 0 01-2.819-5.807c1.123-2.268 3.312-6.775 6.266-12.515a53.874 53.874 0 006.509 10.079c-3.126 5.681-5.778 10.27-7.101 12.348a35.085 35.085 0 01-2.925-4.25l.07.145zm10.318-8.311c2.597-4.849 5.504-10.315 7.932-15.513 1.049.9 2.158 1.728 3.32 2.478a32.122 32.122 0 005.294 2.848c-3.022 5.378-6.977 11.569-10.388 16.885a71.516 71.516 0 01-6.171-6.871l.013.173zm-.822 18.556c1.212-2.383 3.96-6.624 6.974-11.353a38.75 38.75 0 008.436 5.843c-2.382 3.741-5.144 9.137-6.208 11.232a55.567 55.567 0 01-9.214-5.896l.012.174zm24.519-3.008a22.3 22.3 0 005.425-7.227 55.103 55.103 0 004.871 3.233c1.334.8 2.556 1.776 3.633 2.9a23.665 23.665 0 01-8.007 8.266l-3.145-3.891-2.777-3.281zm6.875 14.603l-.261.127a2.99 2.99 0 00-.378.183 27.07 27.07 0 01-9.665-1.801 80.82 80.82 0 004.217-7.646c1.793 2.216 3.487 4.3 4.665 6.06 1.563 2.184 1.496 2.933 1.48 3.049l-.058.028zm10.459-9.349a11.881 11.881 0 00-3.087-6.359 45.778 45.778 0 003.038-5.566c1.282.621 2.545 1.3 3.787 2.036a80.798 80.798 0 01-3.68 9.861l-.058.028zm9.627-9.734l-3.211-2.029c1.734-2.564 5.993-8.867 10.249-14.808a94.309 94.309 0 0116.568 12.838 169.478 169.478 0 00-8.872 15.647 123.856 123.856 0 00-14.792-11.62l.058-.028zm23.982-4.038a317.635 317.635 0 019.408-14.616c4.564 3.561 8.88 7.35 12.665 10.858a94.92 94.92 0 00-4.805 12.273c-.751 2.518-1.5 4.819-2.247 6.976-4.533-4.976-9.753-10.479-15.079-15.463l.058-.028zm7.582 33.349a107.867 107.867 0 007.549-17.337 355.696 355.696 0 0112.119 14.316l-7.555 19.098c-2.416-3.276-7.571-10.64-12.171-16.049l.058-.028zm-4.354 46.823a435.603 435.603 0 01-7.979-.395c-2.77-.162-5.656-.268-8.57-.432l-8.815-.492a543.621 543.621 0 01-8.814-.492c-2.886-.177-5.8-.341-8.57-.503l-15.161-.999c-2.221-.141-4.24-.309-6.058-.431l-4.644-.328-4.068-.322s1.472.075 4.055.149c1.313.044 2.886.105 4.69.198 1.803.093 3.693.216 6.045.258 4.444.21 9.639.415 15.165.71l8.57.431 8.814.492 8.858.507 8.541.518 8.006.526.519.035-.252.589a1.342 1.342 0 01-.39.009l.058-.028zm-.597 10.373l-3.124 7.976-3.185 8.22a293.349 293.349 0 00-3.212 8.163l-3.298 7.988c-2.052 5.159-4.056 9.972-5.721 14.081l-2.302 5.604-1.755 4.44-1.734 3.82s.55-1.38 1.445-3.823l1.493-4.314 2.16-5.677 5.462-14.171a260.615 260.615 0 003.269-8.046l3.199-8.192 3.213-8.162 3.283-8.017 3.031-7.429 2.704-6.624 2.464-5.789 1.726-4.426 1.501-3.707-1.416 3.809c-.49 1.207-1.027 2.688-1.668 4.398-.64 1.711-1.341 3.594-2.159 5.677l-2.648 6.812-2.728 7.389zm18.518-9.602l-4.676-.17-3.881-.16.149-.432 3.721.275 4.659.357c2.597.174 4.067.321 4.067.321l-4.039-.191zm28.133 17.664c-3.088-6.359-7.402-14.06-9.51-17.737l20.486 1.176c1.41 2.904 4.526 9.32 7.901 17.011a110.158 110.158 0 00-18.865-.277l-.012-.173zm32.01-15.364l19.473 1.308c1.062 3.073 3.1 9.044 5.026 16.039-5.605.282-11.309.432-16.563.4a128.046 128.046 0 00-8.023-17.705l.087-.042zm-12.66 16.122c2.264.229 4.671.531 7.265.922 4.366.529 8.759.792 13.157.788 1.589 4.897 3.214 10.388 4.52 16.033a478.465 478.465 0 01-17.236 2.413c-2.359-6.928-5.151-13.933-7.793-20.113l.087-.043zm-6.024 40.207a120.87 120.87 0 00-4.378-18.327 162.338 162.338 0 0017.889-1.51 93.578 93.578 0 014.672 20.409c-7.191 1.375-14.712 2.587-17.749 3.057-.306-1-.334-2.314-.521-3.586l.087-.043zm-2.256 5.33a72.35 72.35 0 01.253 4.291 54.662 54.662 0 00-6.328.417 12.295 12.295 0 00-4.426-5.494c3.486.051 6.964.328 10.414.828l.087-.042zm-26.302 14.853a26.322 26.322 0 012.536-9.556c.073-.131.157-.255.25-.373a.649.649 0 01.232-.112s.82.283 2.223 2.508c1.105 1.832 2.275 4.242 3.53 6.826a71.59 71.59 0 00-8.858.749l.087-.042zm13.369 2.407l-4.117-8.478a23.546 23.546 0 0110.857-3.801 17.21 17.21 0 011.117 4.517c.247 2.356.557 4.251.871 5.784a23.444 23.444 0 00-8.815 2.02l.087-.042zm12.204-1.692a31.962 31.962 0 01-1.325 4.662l-.089.259a14.538 14.538 0 01-1.719-4.943c1.126.028 2.238.026 3.046.064l.087-.042zm-10.396 10.144c-.985.251-1.986.437-2.995.557-.064-1.979.042-3.609.03-5.11a29.268 29.268 0 002.864 4.566l.101-.013zm-1.615 11.01c-5.595.744-10.527 1.524-13.241 1.55a54.512 54.512 0 01-1.175-10.768c2.325-.089 8.321-.452 12.772-.892a39.538 39.538 0 001.745 10.097l-.101.013zm20.164-2.148a31.63 31.63 0 00.334 6.009c.207 1.372.495 2.73.862 4.067-5.731.02-11.942.309-17.389.693a66.967 66.967 0 01-3.482-8.427c6.144-.795 13.432-1.822 19.601-2.271l.074-.071zm-23.984 21.622a29.062 29.062 0 01-4.214-5.131 29.628 29.628 0 01-2.432-4.344c2.326-.233 7.732-.777 14.19-1.222a53.852 53.852 0 006.393 10.136c-6.487.459-11.468.546-14.024.603l.087-.042zm18.894 3.958a26.643 26.643 0 01-4.297-4.121c2.946-.139 6.138-.29 9.562-.481 1.676-.096 3.538-.104 5.617-.108a60.877 60.877 0 003.488 5.483 592.13 592.13 0 00-14.457-.731l.087-.042zm29.151 2.099a41.528 41.528 0 01-3.681-6.25c4.357.252 8.698.62 12.663 1.027a66.821 66.821 0 004.42 7.327c-4.322-.844-8.89-1.532-13.432-1.946l.03-.158z" fill="#fff"/><path d="M47.836 207l65.188-81.602c-.641 14.951 15.642 27.321 29.976 33.102 17.14 6.912 28 6.5 34.274-16.688 7.504 1.407 32.359 25.794 43.615 43.615-5.628 13.131-6.097 15.007-8.911 21.573H47.836z" fill="url(#paint0_linear_15028_356086)"/></g><path opacity=".3" d="M227.924 58.868l-2.814-2.879-2.814 2.88 2.814 2.879 2.814-2.88zm19.84 107.052l-1.888-1.909-1.864 1.931 1.887 1.908 1.865-1.93z" fill="#fff"/><path opacity=".2" d="M147.037 92.362l-1.876-1.92-1.876 1.92 1.876 1.92 1.876-1.92z" fill="#fff"/><path opacity=".2" d="M173.18 68.199l15.943-15.797-.445 4.132-15.943 15.797.445-4.132z" fill="#848E9C"/><path opacity=".3" d="M193.755 197.633l11.963-13.763.749 4.133-11.963 13.762-.749-4.132z" fill="#848E9C"/><defs><linearGradient id="paint0_linear_15028_356086" x1="174.5" y1="141" x2="126" y2="210.5" gradientUnits="userSpaceOnUse"><stop stop-color="#A3A3A3"/><stop offset="1" stop-color="#626262" stop-opacity="0"/><stop offset="1" stop-color="#F0B90B"/></linearGradient><clipPath id="clip0_15028_356086"><path fill="#fff" transform="rotate(64.099 118.044 190.285)" d="M0 0h359.287v191.99H0z"/></clipPath></defs></svg>