<?xml version="1.0" encoding="UTF-8"?>
<!DOCTYPE svg PUBLIC "-//W3C//DTD SVG 1.1//EN" "http://www.w3.org/Graphics/SVG/1.1/DTD/svg11.dtd">
<!-- Creator: CorelDRAW 2020 (64-Bit Evaluation Version) -->
<svg xmlns="http://www.w3.org/2000/svg" xml:space="preserve" width="70px" height="70px" version="1.1" style="shape-rendering:geometricPrecision; text-rendering:geometricPrecision; image-rendering:optimizeQuality; fill-rule:evenodd; clip-rule:evenodd"
viewBox="0 0 27.45 27.45"
 xmlns:xlink="http://www.w3.org/1999/xlink"
 xmlns:xodm="http://www.corel.com/coreldraw/odm/2003">
 <defs>
  <style type="text/css">
   <![CDATA[
    .fil2 {fill:#3382CC}
    .fil0 {fill:#3382CC;fill-rule:nonzero}
    .fil1 {fill:#9966CC;fill-rule:nonzero}
   ]]>
  </style>
 </defs>
 <g id="Layer_x0020_1">
  <metadata id="CorelCorpID_0Corel-Layer"/>
  <g id="_2064289968208">
   <path class="fil0" d="M14.72 6.17l6.55 6.56c0.28,0.28 0.41,0.64 0.41,0.99 0,0.36 -0.13,0.72 -0.41,1l-6.56 6.55c-0.27,0.28 -0.63,0.41 -0.99,0.41 -0.35,0 -0.71,-0.13 -0.99,-0.41l-6.56 -6.55c-0.27,-0.28 -0.41,-0.64 -0.41,-1 0,-0.35 0.14,-0.71 0.41,-0.99l6.56 -6.56c0.27,-0.27 0.63,-0.41 0.99,-0.41 0.36,0 0.72,0.14 1,0.41zm5.6 7.51l-6.55 -6.56c-0.01,-0.01 -0.03,-0.01 -0.05,-0.01 -0.01,0 -0.03,0 -0.04,0.01l-6.55 6.56c-0.02,0.01 -0.02,0.03 -0.02,0.04 0,0.02 0,0.04 0.01,0.05l6.56 6.55c0.01,0.01 0.03,0.02 0.04,0.02 0.02,0 0.04,-0.01 0.05,-0.02l6.55 -6.55c0.01,-0.01 0.02,-0.03 0.02,-0.05 0,-0.01 -0.01,-0.03 -0.02,-0.04z"/>
   <path class="fil1" d="M22.13 8.68c0.22,0 0.42,0.09 0.59,0.25l4.2 4.2c0.16,0.17 0.25,0.36 0.25,0.59 0,0.23 -0.09,0.43 -0.25,0.59l-4.2 4.2c-0.17,0.17 -0.37,0.25 -0.59,0.25 -0.23,0 -0.43,-0.08 -0.6,-0.25 -0.16,-0.16 -0.24,-0.36 -0.24,-0.59 0,-0.22 0.08,-0.42 0.24,-0.58l3.62 -3.62 -3.62 -3.61c-0.16,-0.16 -0.24,-0.36 -0.24,-0.59 0,-0.22 0.08,-0.42 0.24,-0.59 0.17,-0.16 0.37,-0.25 0.6,-0.25z"/>
   <path class="fil1" d="M22.13 8.4c0.15,0 0.29,0.03 0.42,0.09 0.13,0.05 0.26,0.14 0.36,0.25l4.2 4.19c0.11,0.11 0.19,0.23 0.25,0.37 0.06,0.13 0.09,0.27 0.09,0.42 0,0.15 -0.03,0.3 -0.09,0.43 -0.06,0.13 -0.14,0.26 -0.25,0.36l-4.19 4.2c-0.11,0.11 -0.24,0.19 -0.37,0.25 -0.13,0.06 -0.27,0.08 -0.42,0.08 -0.16,0 -0.3,-0.02 -0.43,-0.08 -0.14,-0.06 -0.26,-0.14 -0.36,-0.25 -0.11,-0.11 -0.19,-0.23 -0.25,-0.36 -0.06,-0.14 -0.08,-0.28 -0.08,-0.43 0,-0.15 0.03,-0.29 0.08,-0.42 0.06,-0.13 0.14,-0.26 0.25,-0.36l3.41 -3.42 -3.41 -3.41c-0.11,-0.11 -0.19,-0.23 -0.25,-0.36 -0.05,-0.14 -0.08,-0.28 -0.08,-0.43 0,-0.15 0.02,-0.29 0.08,-0.43 0.06,-0.13 0.14,-0.25 0.25,-0.35 0.1,-0.11 0.22,-0.2 0.36,-0.25 0.13,-0.06 0.27,-0.09 0.43,-0.09zm0.21 0.6c-0.07,-0.02 -0.14,-0.04 -0.21,-0.04 -0.08,0 -0.15,0.02 -0.21,0.04 -0.07,0.03 -0.13,0.07 -0.19,0.13 -0.06,0.06 -0.1,0.12 -0.12,0.18 -0.03,0.06 -0.04,0.13 -0.04,0.21 0,0.08 0.01,0.15 0.04,0.21 0.02,0.07 0.06,0.13 0.12,0.18l3.81 3.81 -3.81 3.81c-0.06,0.06 -0.1,0.12 -0.12,0.18 -0.03,0.07 -0.04,0.14 -0.04,0.21 0,0.08 0.01,0.15 0.04,0.21 0.02,0.07 0.06,0.13 0.12,0.19 0.06,0.05 0.12,0.1 0.19,0.12 0.06,0.03 0.13,0.04 0.21,0.04 0.07,0 0.14,-0.01 0.21,-0.04 0.06,-0.02 0.12,-0.07 0.18,-0.12l4.2 -4.2c0.06,-0.06 0.1,-0.12 0.13,-0.19 0.02,-0.06 0.04,-0.13 0.04,-0.21 0,-0.07 -0.02,-0.14 -0.04,-0.21 -0.03,-0.06 -0.07,-0.12 -0.13,-0.18l-4.2 -4.2c-0.06,-0.06 -0.12,-0.1 -0.18,-0.13z"/>
   <path class="fil1" d="M5.32 8.68c0.23,0 0.43,0.09 0.59,0.25 0.17,0.17 0.25,0.37 0.25,0.59 0,0.23 -0.08,0.43 -0.25,0.59l-3.61 3.61 3.61 3.62c0.17,0.16 0.25,0.36 0.25,0.58 0,0.23 -0.08,0.43 -0.25,0.59 -0.16,0.17 -0.36,0.25 -0.59,0.25 -0.23,0 -0.42,-0.08 -0.59,-0.25l-4.2 -4.2c-0.16,-0.16 -0.25,-0.36 -0.25,-0.59 0,-0.23 0.09,-0.42 0.25,-0.59l4.2 -4.2c0.17,-0.16 0.36,-0.25 0.59,-0.25z"/>
   <path class="fil1" d="M5.32 8.4c0.15,0 0.3,0.03 0.43,0.09 0.13,0.05 0.25,0.14 0.36,0.25 0.11,0.1 0.19,0.22 0.25,0.35 0.05,0.14 0.08,0.28 0.08,0.43 0,0.15 -0.03,0.29 -0.08,0.43 -0.06,0.13 -0.14,0.25 -0.25,0.36l-3.41 3.41 3.41 3.42c0.22,0.22 0.33,0.48 0.33,0.78 0,0.15 -0.03,0.3 -0.08,0.43 -0.06,0.13 -0.14,0.25 -0.25,0.36 -0.11,0.11 -0.23,0.19 -0.36,0.25 -0.13,0.06 -0.28,0.08 -0.43,0.08 -0.15,0 -0.29,-0.02 -0.42,-0.08 -0.14,-0.06 -0.26,-0.14 -0.37,-0.25l-4.2 -4.2c-0.1,-0.1 -0.19,-0.23 -0.24,-0.36 -0.06,-0.13 -0.09,-0.28 -0.09,-0.43 0,-0.15 0.03,-0.29 0.09,-0.42 0.05,-0.14 0.14,-0.26 0.24,-0.37l4.2 -4.19c0.11,-0.11 0.23,-0.2 0.37,-0.25 0.13,-0.06 0.27,-0.09 0.42,-0.09zm0.21 0.6c-0.06,-0.02 -0.13,-0.04 -0.21,-0.04 -0.08,0 -0.15,0.02 -0.21,0.04 -0.06,0.03 -0.12,0.07 -0.18,0.13l-4.2 4.2c-0.06,0.06 -0.1,0.12 -0.13,0.18 -0.03,0.07 -0.04,0.14 -0.04,0.21 0,0.08 0.01,0.15 0.04,0.21 0.03,0.07 0.07,0.13 0.13,0.19l4.2 4.2c0.06,0.05 0.12,0.1 0.18,0.12 0.06,0.03 0.13,0.04 0.21,0.04 0.08,0 0.15,-0.01 0.21,-0.04 0.07,-0.02 0.13,-0.07 0.18,-0.12 0.06,-0.06 0.11,-0.13 0.13,-0.19 0.03,-0.06 0.04,-0.13 0.04,-0.21 0,-0.14 -0.05,-0.28 -0.17,-0.39l-3.81 -3.81 3.81 -3.81c0.06,-0.05 0.11,-0.12 0.13,-0.18 0.03,-0.06 0.04,-0.13 0.04,-0.21 0,-0.07 -0.01,-0.14 -0.04,-0.2 -0.02,-0.07 -0.07,-0.13 -0.13,-0.19 -0.05,-0.06 -0.11,-0.1 -0.18,-0.13z"/>
   <path class="fil1" d="M17.34 21.53c0.16,-0.16 0.36,-0.25 0.59,-0.25 0.22,0 0.42,0.09 0.58,0.25 0.17,0.17 0.25,0.37 0.25,0.6 0,0.22 -0.08,0.42 -0.25,0.59l-4.2 4.2c-0.16,0.16 -0.36,0.25 -0.59,0.25 -0.23,0 -0.42,-0.09 -0.59,-0.25l-4.2 -4.2c-0.16,-0.17 -0.25,-0.37 -0.25,-0.59 0,-0.23 0.09,-0.43 0.25,-0.6 0.17,-0.16 0.37,-0.25 0.59,-0.25 0.23,0 0.43,0.09 0.59,0.25l3.61 3.62 3.62 -3.62z"/>
   <path class="fil1" d="M17.14 21.34c0.1,-0.11 0.22,-0.19 0.36,-0.25 0.13,-0.06 0.28,-0.09 0.43,-0.09 0.15,0 0.29,0.03 0.42,0.09 0.13,0.05 0.25,0.14 0.36,0.25 0.11,0.1 0.19,0.22 0.25,0.36 0.06,0.13 0.08,0.27 0.08,0.43 0,0.15 -0.02,0.29 -0.08,0.42 -0.06,0.13 -0.14,0.26 -0.25,0.36l-4.2 4.2c-0.1,0.11 -0.23,0.19 -0.36,0.25 -0.13,0.06 -0.28,0.09 -0.43,0.09 -0.15,0 -0.29,-0.03 -0.43,-0.09 -0.13,-0.06 -0.25,-0.14 -0.36,-0.25l-4.19 -4.19c-0.11,-0.11 -0.2,-0.24 -0.25,-0.37 -0.06,-0.13 -0.09,-0.27 -0.09,-0.42 0,-0.16 0.03,-0.3 0.09,-0.43 0.05,-0.14 0.14,-0.26 0.25,-0.36 0.1,-0.11 0.22,-0.19 0.36,-0.25 0.13,-0.06 0.27,-0.09 0.42,-0.09 0.15,0 0.3,0.03 0.43,0.09 0.13,0.06 0.25,0.14 0.36,0.25l3.41 3.41 3.42 -3.41zm0.58 0.26c-0.07,0.03 -0.13,0.07 -0.19,0.13l-3.81 3.81 -3.81 -3.81c-0.05,-0.06 -0.12,-0.1 -0.18,-0.13 -0.06,-0.02 -0.13,-0.04 -0.21,-0.04 -0.07,0 -0.14,0.02 -0.21,0.04 -0.06,0.03 -0.12,0.07 -0.18,0.13 -0.06,0.06 -0.1,0.12 -0.13,0.19 -0.02,0.06 -0.04,0.13 -0.04,0.21 0,0.07 0.02,0.14 0.04,0.21 0.03,0.06 0.07,0.12 0.13,0.18l4.2 4.2c0.06,0.06 0.12,0.1 0.18,0.13 0.07,0.02 0.14,0.04 0.21,0.04 0.08,0 0.15,-0.02 0.21,-0.04 0.07,-0.03 0.13,-0.07 0.19,-0.13l4.2 -4.2c0.05,-0.06 0.1,-0.12 0.12,-0.18 0.03,-0.07 0.04,-0.14 0.04,-0.21 0,-0.08 -0.01,-0.15 -0.04,-0.21 -0.02,-0.07 -0.07,-0.13 -0.12,-0.19 -0.06,-0.06 -0.12,-0.1 -0.19,-0.13 -0.06,-0.02 -0.13,-0.04 -0.2,-0.04 -0.08,0 -0.15,0.02 -0.21,0.04z"/>
   <path class="fil1" d="M13.72 0.28c0.23,0 0.43,0.09 0.59,0.25l4.2 4.2c0.17,0.17 0.25,0.36 0.25,0.59 0,0.23 -0.08,0.43 -0.25,0.59 -0.16,0.17 -0.36,0.25 -0.58,0.25 -0.23,0 -0.43,-0.08 -0.59,-0.25l-3.62 -3.61 -3.61 3.61c-0.16,0.17 -0.36,0.25 -0.59,0.25 -0.22,0 -0.42,-0.08 -0.59,-0.25 -0.16,-0.16 -0.25,-0.36 -0.25,-0.59 0,-0.23 0.09,-0.42 0.25,-0.59l4.2 -4.2c0.17,-0.16 0.36,-0.25 0.59,-0.25z"/>
   <path class="fil1" d="M13.72 0c0.15,0 0.3,0.03 0.43,0.09 0.13,0.05 0.26,0.14 0.36,0.24l4.2 4.2c0.11,0.11 0.19,0.23 0.25,0.37 0.06,0.13 0.08,0.27 0.08,0.42 0,0.15 -0.02,0.3 -0.08,0.43 -0.06,0.13 -0.14,0.25 -0.25,0.36 -0.11,0.11 -0.23,0.19 -0.36,0.24 -0.13,0.06 -0.27,0.09 -0.42,0.09 -0.15,0 -0.3,-0.03 -0.43,-0.08 -0.13,-0.06 -0.26,-0.14 -0.36,-0.25l-3.42 -3.41 -3.41 3.41c-0.11,0.11 -0.23,0.19 -0.36,0.25 -0.14,0.05 -0.28,0.08 -0.43,0.08 -0.15,0 -0.29,-0.03 -0.42,-0.08 -0.14,-0.06 -0.26,-0.14 -0.36,-0.25 -0.11,-0.11 -0.2,-0.23 -0.25,-0.36 -0.06,-0.13 -0.09,-0.28 -0.09,-0.43 0,-0.15 0.03,-0.29 0.09,-0.42 0.05,-0.14 0.14,-0.26 0.25,-0.37l4.19 -4.2c0.11,-0.1 0.23,-0.19 0.36,-0.24 0.14,-0.06 0.28,-0.09 0.43,-0.09zm0.21 0.6c-0.06,-0.03 -0.13,-0.04 -0.21,-0.04 -0.07,0 -0.14,0.01 -0.21,0.04 -0.06,0.03 -0.12,0.07 -0.18,0.13l-4.2 4.2c-0.06,0.06 -0.1,0.12 -0.13,0.18 -0.02,0.06 -0.04,0.13 -0.04,0.21 0,0.08 0.02,0.15 0.04,0.21 0.03,0.07 0.07,0.13 0.13,0.18 0.06,0.06 0.12,0.1 0.18,0.13 0.07,0.03 0.14,0.04 0.21,0.04 0.08,0 0.15,-0.01 0.21,-0.04 0.07,-0.03 0.13,-0.07 0.18,-0.13l3.81 -3.81 3.81 3.81c0.06,0.06 0.12,0.1 0.18,0.13 0.07,0.03 0.14,0.04 0.22,0.04 0.07,0 0.14,-0.01 0.21,-0.04 0.06,-0.03 0.12,-0.07 0.18,-0.13 0.05,-0.05 0.1,-0.11 0.12,-0.18 0.03,-0.06 0.04,-0.13 0.04,-0.21 0,-0.08 -0.01,-0.15 -0.04,-0.21 -0.02,-0.06 -0.07,-0.12 -0.12,-0.18l-4.2 -4.2c-0.06,-0.06 -0.12,-0.1 -0.19,-0.13z"/>
   <path class="fil1" d="M14.42 10.28l2.75 2.75c0.19,0.19 0.29,0.44 0.29,0.69 0,0.25 -0.1,0.51 -0.29,0.7l-2.75 2.75c-0.19,0.19 -0.45,0.29 -0.7,0.29 -0.25,0 -0.5,-0.1 -0.69,-0.29l-2.75 -2.75c-0.19,-0.2 -0.29,-0.45 -0.29,-0.7 0,-0.25 0.1,-0.5 0.29,-0.69l2.75 -2.75c0.19,-0.19 0.44,-0.29 0.69,-0.29 0.25,0 0.5,0.1 0.7,0.29zm1.54 3.44l-2.24 -2.24 -2.24 2.24 2.24 2.24 2.24 -2.24z"/>
   <path class="fil2" d="M6.39 5.06l2.67 2.67c0.05,0.05 0.05,0.14 0,0.19l-1.2 1.2c-0.05,0.05 -0.14,0.05 -0.19,0l-2.67 -2.67c-0.05,-0.05 -0.05,-0.14 0,-0.19l1.2 -1.2c0.05,-0.05 0.13,-0.05 0.19,0z"/>
   <path class="fil0" d="M6.58 4.87l2.67 2.67c0.07,0.08 0.11,0.18 0.11,0.28 0,0.11 -0.04,0.21 -0.11,0.29l-1.2 1.2c-0.08,0.08 -0.18,0.12 -0.29,0.12 -0.1,-0.01 -0.2,-0.04 -0.28,-0.12l-2.67 -2.67c-0.08,-0.08 -0.12,-0.18 -0.12,-0.29 0,-0.1 0.04,-0.2 0.12,-0.28l1.2 -1.2c0.08,-0.08 0.18,-0.12 0.28,-0.12 0.1,0 0.21,0.04 0.29,0.12zm2.19 2.95l-2.48 -2.47 -1 1 2.47 2.48 1.01 -1.01z"/>
   <path class="fil2" d="M21.06 5.06l-2.67 2.67c-0.05,0.05 -0.05,0.14 0,0.19l1.2 1.2c0.05,0.05 0.14,0.05 0.19,0l2.67 -2.67c0.05,-0.05 0.05,-0.14 0,-0.19l-1.2 -1.2c-0.05,-0.05 -0.14,-0.05 -0.19,0z"/>
   <path class="fil0" d="M21.15 5.35l-2.47 2.47 1 1.01 2.48 -2.48 -1.01 -1zm-2.95 2.19l2.67 -2.67c0.08,-0.08 0.18,-0.12 0.28,-0.12 0.11,0 0.21,0.04 0.29,0.12l1.2 1.2c0.08,0.08 0.11,0.18 0.11,0.28 0,0.11 -0.03,0.21 -0.11,0.29l-2.67 2.67c-0.08,0.08 -0.18,0.11 -0.29,0.11 -0.1,0.01 -0.2,-0.03 -0.28,-0.11l-1.2 -1.2c-0.08,-0.08 -0.12,-0.18 -0.12,-0.28 0,-0.11 0.04,-0.21 0.12,-0.29z"/>
   <path class="fil2" d="M6.39 22.47l2.67 -2.67c0.05,-0.05 0.05,-0.14 0,-0.19l-1.2 -1.2c-0.05,-0.05 -0.14,-0.05 -0.19,0l-2.67 2.67c-0.05,0.05 -0.05,0.14 0,0.19l1.2 1.2c0.05,0.05 0.13,0.05 0.19,0z"/>
   <path class="fil0" d="M6.29 22.18l2.48 -2.47 -1.01 -1.01 -2.47 2.48 1 1zm2.96 -2.19l-2.67 2.67c-0.08,0.08 -0.19,0.12 -0.29,0.12 -0.1,0 -0.2,-0.04 -0.28,-0.12l-1.2 -1.2c-0.08,-0.08 -0.12,-0.18 -0.12,-0.28 0,-0.11 0.04,-0.21 0.12,-0.29l2.67 -2.67c0.08,-0.08 0.18,-0.12 0.28,-0.11 0.11,-0.01 0.21,0.03 0.29,0.11l1.2 1.2c0.07,0.08 0.11,0.18 0.11,0.28 0,0.11 -0.04,0.21 -0.11,0.29z"/>
   <path class="fil2" d="M21.06 22.47l-2.67 -2.67c-0.05,-0.05 -0.05,-0.14 0,-0.19l1.2 -1.2c0.05,-0.05 0.14,-0.05 0.19,0l2.67 2.67c0.05,0.05 0.05,0.14 0,0.19l-1.2 1.2c-0.05,0.05 -0.14,0.05 -0.19,0z"/>
   <path class="fil0" d="M20.87 22.66l-2.67 -2.67c-0.08,-0.08 -0.12,-0.18 -0.12,-0.28 0,-0.11 0.04,-0.21 0.12,-0.29l1.2 -1.2c0.08,-0.08 0.18,-0.12 0.28,-0.12 0.11,0 0.21,0.04 0.29,0.12l2.67 2.67c0.08,0.08 0.11,0.18 0.11,0.29 0,0.1 -0.03,0.2 -0.11,0.28l-1.2 1.2c-0.08,0.08 -0.18,0.12 -0.29,0.12 -0.1,0 -0.2,-0.04 -0.28,-0.12zm-2.19 -2.95l2.47 2.47 1.01 -1 -2.48 -2.48 -1 1.01z"/>
  </g>
 </g>
</svg>
