<?xml version="1.0" encoding="UTF-8"?>
<!DOCTYPE svg PUBLIC "-//W3C//DTD SVG 1.1//EN" "http://www.w3.org/Graphics/SVG/1.1/DTD/svg11.dtd">
<!-- Creator: CorelDRAW 2020 (64-Bit Evaluation Version) -->
<svg xmlns="http://www.w3.org/2000/svg" xml:space="preserve" width="70px" height="71px" version="1.1" style="shape-rendering:geometricPrecision; text-rendering:geometricPrecision; image-rendering:optimizeQuality; fill-rule:evenodd; clip-rule:evenodd"
viewBox="0 0 24.96 25.19"
 xmlns:xlink="http://www.w3.org/1999/xlink"
 xmlns:xodm="http://www.corel.com/coreldraw/odm/2003">
 <defs>
  <style type="text/css">
   <![CDATA[
    .fil0 {fill:#96AC69;fill-rule:nonzero}
    .fil1 {fill:#CCC433;fill-rule:nonzero}
   ]]>
  </style>
 </defs>
 <g id="Layer_x0020_1">
  <metadata id="CorelCorpID_0Corel-Layer"/>
  <g id="_2064429657856">
   <path class="fil0" d="M2.55 15.07c0.14,0.61 -0.24,1.22 -0.85,1.37 -0.61,0.14 -1.22,-0.24 -1.36,-0.85 -0.11,-0.46 -0.2,-0.94 -0.25,-1.43 -0.06,-0.49 -0.09,-0.98 -0.09,-1.45 0,-2.55 0.77,-4.97 2.14,-6.99 1.36,-2.02 3.32,-3.64 5.68,-4.59 0.58,-0.23 1.24,0.05 1.48,0.63 0.23,0.58 -0.05,1.24 -0.63,1.47 -1.93,0.78 -3.53,2.11 -4.65,3.76 -1.12,1.65 -1.75,3.63 -1.75,5.72 0,0.41 0.02,0.8 0.07,1.19 0.04,0.38 0.11,0.78 0.21,1.17z"/>
   <path class="fil0" d="M19.15 20.45c0.47,-0.41 1.18,-0.36 1.59,0.12 0.41,0.47 0.36,1.18 -0.11,1.59 -1.14,0.98 -2.42,1.73 -3.8,2.24 -1.39,0.52 -2.86,0.79 -4.35,0.79 -1.51,0 -3.01,-0.28 -4.41,-0.81 -1.4,-0.53 -2.7,-1.31 -3.84,-2.31 -0.47,-0.41 -0.52,-1.13 -0.1,-1.6 0.41,-0.47 1.13,-0.52 1.6,-0.1 0.93,0.82 2,1.46 3.14,1.89 1.14,0.43 2.36,0.66 3.61,0.66 1.23,0 2.44,-0.22 3.56,-0.63 1.12,-0.42 2.18,-1.04 3.11,-1.84z"/>
   <path class="fil0" d="M16.66 3.39c-0.57,-0.26 -0.83,-0.93 -0.57,-1.5 0.25,-0.57 0.92,-0.82 1.49,-0.57 2.25,1.01 4.09,2.62 5.37,4.6 1.29,1.99 2.01,4.33 2.01,6.79 0,0.24 -0.01,0.5 -0.02,0.78 -0.02,0.28 -0.05,0.54 -0.08,0.78 -0.07,0.62 -0.64,1.06 -1.26,0.99 -0.62,-0.08 -1.06,-0.64 -0.99,-1.27 0.03,-0.23 0.05,-0.44 0.07,-0.64 0.01,-0.19 0.01,-0.4 0.01,-0.64 0,-2.02 -0.59,-3.94 -1.63,-5.56 -1.06,-1.62 -2.57,-2.94 -4.4,-3.76z"/>
   <path class="fil1" d="M11.12 1.36c0,-0.75 0.61,-1.36 1.36,-1.36 0.75,0 1.36,0.61 1.36,1.36l0 8.42c0,0.75 -0.61,1.36 -1.36,1.36 -0.75,0 -1.36,-0.61 -1.36,-1.36l0 -8.42z"/>
   <path class="fil1" d="M3.34 19.56c-0.65,0.37 -1.48,0.15 -1.86,-0.5 -0.38,-0.65 -0.15,-1.48 0.49,-1.85l7.3 -4.21c0.65,-0.38 1.48,-0.16 1.85,0.49 0.38,0.65 0.16,1.48 -0.49,1.86l-7.29 4.21z"/>
   <path class="fil1" d="M22.99 17.21c0.65,0.37 0.87,1.2 0.49,1.85 -0.37,0.65 -1.2,0.87 -1.85,0.5l-7.3 -4.21c-0.64,-0.38 -0.87,-1.21 -0.49,-1.86 0.38,-0.65 1.21,-0.87 1.86,-0.49l7.29 4.21z"/>
   <path class="fil0" d="M12.48 9.02c1.02,0 1.94,0.41 2.61,1.08l0 0c0.67,0.67 1.08,1.59 1.08,2.61 0,1.02 -0.41,1.94 -1.08,2.61 -0.67,0.67 -1.59,1.08 -2.61,1.08 -1.01,0 -1.94,-0.41 -2.61,-1.08l0 0c-0.67,-0.67 -1.08,-1.59 -1.08,-2.61 0,-1.02 0.41,-1.94 1.08,-2.61l0 0c0.67,-0.67 1.6,-1.08 2.61,-1.08zm1.01 2.68l0 0c-0.26,-0.26 -0.61,-0.41 -1.01,-0.41 -0.39,0 -0.75,0.15 -1.01,0.41 -0.25,0.26 -0.41,0.61 -0.41,1.01 0,0.39 0.16,0.75 0.41,1.01l0 0c0.26,0.25 0.62,0.41 1.01,0.41 0.4,0 0.75,-0.16 1.01,-0.41 0.26,-0.26 0.41,-0.62 0.41,-1.01 0,-0.4 -0.15,-0.75 -0.41,-1.01z"/>
   <path class="fil1" d="M5.55 12.71c0,0.31 -0.25,0.57 -0.57,0.57 -0.31,0 -0.56,-0.26 -0.56,-0.57 0,-1.42 0.37,-2.79 1.05,-3.99 0.68,-1.2 1.67,-2.22 2.89,-2.95 0.27,-0.15 0.62,-0.07 0.78,0.2 0.16,0.27 0.07,0.62 -0.2,0.78 -1.05,0.62 -1.9,1.5 -2.48,2.53 -0.59,1.03 -0.91,2.2 -0.91,3.43z"/>
   <path class="fil1" d="M15.72 18.84c0.27,-0.15 0.62,-0.04 0.76,0.24 0.15,0.27 0.04,0.61 -0.24,0.76 -0.57,0.31 -1.19,0.54 -1.82,0.7 -0.64,0.15 -1.29,0.23 -1.94,0.23 -0.71,0 -1.42,-0.09 -2.1,-0.28 -0.69,-0.18 -1.35,-0.46 -1.96,-0.82 -0.27,-0.15 -0.37,-0.5 -0.21,-0.77 0.16,-0.27 0.51,-0.36 0.78,-0.21 0.53,0.31 1.1,0.55 1.68,0.71 0.59,0.16 1.2,0.24 1.81,0.24 0.57,0 1.13,-0.07 1.67,-0.2 0.54,-0.14 1.07,-0.34 1.57,-0.6z"/>
   <path class="fil1" d="M16.19 6.85c-0.26,-0.16 -0.34,-0.51 -0.17,-0.78 0.16,-0.26 0.51,-0.34 0.78,-0.17 1.07,0.68 1.95,1.59 2.59,2.65 0.64,1.06 1.03,2.26 1.13,3.53 0.02,0.31 -0.21,0.59 -0.52,0.61 -0.31,0.02 -0.59,-0.21 -0.61,-0.52 -0.08,-1.09 -0.42,-2.13 -0.97,-3.04 -0.55,-0.91 -1.31,-1.69 -2.23,-2.28z"/>
  </g>
 </g>
</svg>
