<svg xmlns="http://www.w3.org/2000/svg" xmlns:xlink="http://www.w3.org/1999/xlink" viewBox="0 0 886.01 881.98"><defs><style>.cls-1{fill:none;}.cls-2{isolation:isolate;}.cls-3,.cls-7{fill:#fdcb08;}.cls-3{fill-rule:evenodd;}.cls-4{fill:#edb70a;}.cls-5,.cls-8{opacity:0.2;}.cls-5{mix-blend-mode:soft-light;}.cls-6,.cls-8,.cls-9{fill:#fff;}.cls-6{opacity:0.1;}.cls-10{fill:#4b609b;}.cls-11{fill:#182759;}.cls-12{clip-path:url(#clip-path);}.cls-13{fill:#b75742;}.cls-14{fill:#f47458;}.cls-15{fill:#f7a491;}.cls-16{fill:#0e2e35;}.cls-17{fill:#f8a492;}.cls-18{clip-path:url(#clip-path-2);}.cls-19{fill:#13375b;}.cls-20{fill:#96d9c9;}.cls-21{fill:#50bfa5;}.cls-22{clip-path:url(#clip-path-3);}.cls-23{clip-path:url(#clip-path-4);}.cls-24{fill:#f29383;}.cls-25{fill:#c24c32;}.cls-26{clip-path:url(#clip-path-5);}.cls-27{fill:#8ca5d2;}.cls-28{fill:#466eb6;}.cls-29{clip-path:url(#clip-path-6);}.cls-30{clip-path:url(#clip-path-7);}.cls-31{fill:#f7cc7f;}.cls-32{clip-path:url(#clip-path-8);}.cls-33{fill:#fadfae;}.cls-34{fill:#bf7154;}.cls-35{fill:#96482a;}.cls-36{clip-path:url(#clip-path-9);}.cls-37{clip-path:url(#clip-path-10);}.cls-38{fill:#f48c7f;}</style><clipPath id="clip-path" transform="translate(-788.05 -678.18)"><circle id="SVGID" class="cls-1" cx="1344.5" cy="1204.72" r="43.41" transform="translate(-198.14 2142.42) rotate(-73.15)"/></clipPath><clipPath id="clip-path-2" transform="translate(-788.05 -678.18)"><circle id="SVGID-2" data-name="SVGID" class="cls-1" cx="1084.82" cy="1147.44" r="33.12" transform="translate(-90.75 2201.72) rotate(-88.49)"/></clipPath><clipPath id="clip-path-3" transform="translate(-788.05 -678.18)"><circle id="SVGID-3" data-name="SVGID" class="cls-1" cx="1457.01" cy="969.76" r="29.93" transform="translate(449.28 2400.77) rotate(-88.49)"/></clipPath><clipPath id="clip-path-4" transform="translate(-788.05 -678.18)"><circle id="SVGID-4" data-name="SVGID" class="cls-1" cx="1248.48" cy="866.75" r="22.81" transform="translate(192.93 1960.27) rotate(-80.78)"/></clipPath><clipPath id="clip-path-5" transform="translate(-788.05 -678.18)"><circle id="SVGID-5" data-name="SVGID" class="cls-1" cx="1045.37" cy="957.7" r="20.8" transform="translate(-65.26 76.51) rotate(-4.07)"/></clipPath><clipPath id="clip-path-6" transform="translate(-788.05 -678.18)"><circle id="SVGID-6" data-name="SVGID" class="cls-1" cx="1310.64" cy="1347.29" r="23.72" transform="translate(-92.21 96.3) rotate(-4.07)"/></clipPath><clipPath id="clip-path-7" transform="translate(-788.05 -678.18)"><path id="SVGID-7" data-name="SVGID" class="cls-1" d="M1358.93,972.62a32.34,32.34,0,1,1-32.34-32.34A32.34,32.34,0,0,1,1358.93,972.62Z"/></clipPath><clipPath id="clip-path-8" transform="translate(-788.05 -678.18)"><circle id="SVGID-8" data-name="SVGID" class="cls-1" cx="1240.35" cy="1419.03" r="37.57" transform="translate(-640.12 1292.69) rotate(-45)"/></clipPath><clipPath id="clip-path-9" transform="translate(-788.05 -678.18)"><circle id="SVGID-9" data-name="SVGID" class="cls-1" cx="941.3" cy="1138.85" r="30.8" transform="translate(-529.59 999.16) rotate(-45)"/></clipPath><clipPath id="clip-path-10" transform="translate(-788.05 -678.18)"><circle id="SVGID-10" data-name="SVGID" class="cls-1" cx="1545.43" cy="1146.63" r="24.81" transform="translate(-321.16 678.69) rotate(-22.5)"/></clipPath></defs><g class="cls-2"><g id="OBJECTS"><path class="cls-3" d="M1457.4,1142.23c0,1.36,0,2.74-.06,4.1,0,3.17-.18,6.34-.37,9.47-7,112-100.1,200.77-213.91,200.77a214.42,214.42,0,0,1-207.4-160.06,211.45,211.45,0,0,1-6.2-36.54c-.24-2.68-.41-5.34-.51-8.06v0c-.15-3.19-.23-6.42-.23-9.66,0-1.17,0-2.33.06-3.5,0-.41,0-.8,0-1.2v0c0-.65,0-1.29.06-1.93,0-1.57.09-3.15.17-4.72a211.7,211.7,0,0,1,4.49-33.74,214,214,0,0,1,70.51-118s0,0,0,0a214.31,214.31,0,0,1,353.29,158.08C1457.38,1138.87,1457.4,1140.54,1457.4,1142.23Z" transform="translate(-788.05 -678.18)"/><path class="cls-4" d="M1204.67,954.75c-4.59.47-10.71.1-15,1.79,0-.21,0-.43,0-.66a13.35,13.35,0,0,1-4.47-4c-.43-.66-3.17-.72-3.13-1.34,0-1.24-2.94-.83-3.76-.89a7.27,7.27,0,0,0,0,1.61c-.24-2.37-3.07-1.47-4.43-1.9.09.48-.2.6-.28.95-1.3-.82-1.44,1.48-1.51,2.49-.51-.64-.78-1.85-1.44-2.2-1.09-.56-1.38.74-2.29,1,0,.43-.1.88-.06,1.29s.25.35.21.68c-.08-.24-.14-.45-.21-.68-1-.3-1.75-1.29-2.59-.16-3.69-3.3-3.63,7.29-3.44,8.86a5,5,0,0,1-1.67-.44c.25-1.58,1.4-4.67.29-6.15-.43-.54-1.84-1.41-2.25-.46-.6,1.46.6,1.16,1,2-2.16-.66-2.24.64-3.4,2-.92,1.15-2,.23-1,2.86-1.38-.9-1.6,2.06-1.56,3.13,2.12-.26,4.28-1.07,6.2-1.23-1.16,1.19-4,2-5.54,2.57a46.84,46.84,0,0,0-6.27,3.32c-1.93,1.15-2.12,2.2-4.16,3.13a27.16,27.16,0,0,0-5.21,3.25,27.89,27.89,0,0,0-6.59,8c-.53.86-2.53,4.08-2.57,5,0,0,.24,2.6,0,2.6.54.31,2.7-.64,3.3-.78-1.46,3.62,4.28,3,5.29.68.6-1.39,3.34-3.53,4.56-4.58,3.4-2.92,7.12-5.06,10.5-7.76a14.9,14.9,0,0,1,7.64-3.48c2-.25,7.54-1.8,8.82-3.4,1.48-1.81,6.14-2.78,8.3-3.18a113.47,113.47,0,0,0,11.45-2.49c3.61-1.07,7.69-1.67,10.26-4.71,2.29-2.7,7.46-1.84,10-4.35,1.77,1.46,3.5-1.69,5.27-1.61,1,0,5.44-.82,5.52-1.6A94.38,94.38,0,0,0,1204.67,954.75Z" transform="translate(-788.05 -678.18)"/><path class="cls-4" d="M1051,1172.19c-.31-2.16-1.66-2.68-1.19-.08,0,1-1.09,4.5.56,3.6C1050.61,1174.24,1051.2,1173.83,1051,1172.19Z" transform="translate(-788.05 -678.18)"/><path class="cls-4" d="M1053.4,1194.06a34.79,34.79,0,0,0-.16-10.86c-.31-1.57-1-2.72-.89-4.45,0-1.09-.27-5.72-2-3-.5,3,1.49,6.67,2,9.53C1052.65,1187,1051.28,1194.28,1053.4,1194.06Z" transform="translate(-788.05 -678.18)"/><path class="cls-4" d="M1055.28,1188.67c0,.48.64,4,1.56,2.37C1057.43,1190,1056.25,1188.09,1055.28,1188.67Z" transform="translate(-788.05 -678.18)"/><path class="cls-4" d="M1104,979.12a10.76,10.76,0,0,0-1.57,2.76,26,26,0,0,1-2.18,4.43c-.6,1.23-.93,3-1.67,4.09-1.24,1.76-2.43,1.55-1.92,4.06.31,1.61,2.89,2.93,1.61,4.72-1,1.42.54,2.86,0,4.57-.48,1.4-1.55,2.82-1.81,3.9-.17.76-.15,3.5-1.73,2.07.55,1.53-1.14,4.1-2.08,5.36-.21.25-2.33.16-1.59,1.53.51,1,.76,1.79-.66,2.69,1.53-.78,3.5-2.94,3.52.27,0,1.44-.49,4.53-1.83,5.36a2.93,2.93,0,0,0-.45.3c.2-.06.33,0,.45-.3,1.81.86-1,5.17-1.67,6.48-1.5,2.79-4.34,2.83-3.52-.61-.62.86-2.47,3.52-3.44,3.4-1.92-.25-.8-4.56,1.34-3.94-1.46-2.29-6.35,2.39-5.27-2,.53-2.1,2.51-4,3.74-5.6,2.23-3,4.93-6.3,7.09-9.56-1.71.06-3.81,2.52-4.74,3.87-1.73,2.44-5.31,2.37-8,2.52,0,.12,0,.25,0,.37,1.5.16,2.57,3.38,1.27,4.49-2.24,1.93-4.34-2.51-2.92-4.24-2.24-.79-4,2.94-5.13,4.38,2.82-2.06,4.18.09,2.74,2.76a57.06,57.06,0,0,0-3.29,6c1.52-1.92.18,1.5,1.25,1.58,2,.13,1.67,1.4.5,2.58a15.16,15.16,0,0,0,2.59-3.28c.93-1.31,2-3.46,2.29-.76.06.6-.95,1.52-.68,2a3.19,3.19,0,0,1-.33,2.9c-.89,1.28-2.47,2-3.44,3.42-1.57,2.29-5.36,3.3-7.15,5.52-.47.56-2,3.34-2.51,3.5-2.87.81-1.07-3.74-.54-4.82a15.82,15.82,0,0,0-5.58,4.35c-1.79,2.08-2.31,4.45-3.79,6.69,2.91,1.06-2.26,5.26-3,5.85-.94.64-1.52,2.17-2.47,2.93-1.52,1.23-2.08,1.28-2.59,3.29-.7,2.68-3,5-3.4,7.52s-2.33,4.82-3.16,7.21c-1,2.86-.3,6.26-2.08,8.84-.65.91-.57,2-1.17,3a11.64,11.64,0,0,1-1.4,1.58A214,214,0,0,1,1104,979.12Z" transform="translate(-788.05 -678.18)"/><path class="cls-4" d="M1048.42,1170.73l-.27.63C1047.2,1175.29,1051.58,1171.64,1048.42,1170.73Z" transform="translate(-788.05 -678.18)"/><path class="cls-4" d="M1041.24,1166.38c0,.81-.14,4.85,2,3.54,1.26-.78,2.49,1.9,3.06.36C1046.78,1169,1042.43,1164.1,1041.24,1166.38Z" transform="translate(-788.05 -678.18)"/><path class="cls-4" d="M1047.69,1167.93c-.87,1,.12,2.57.73,2.8C1048.71,1170.14,1048.71,1166.7,1047.69,1167.93Z" transform="translate(-788.05 -678.18)"/><path class="cls-4" d="M1033.58,1151.29s-1-1-1.15-1-.52.29-.85.27c-.84-.06,0-.84-.3-1.32-1.26-2-.81-3.44-1.43-5.62.35-1.87-.9-3.19-1-4.92,0,0,0,0-.07.06,0-.41,0-.8,0-1.2v0c.15-.14.15-.41.15-.78,1.44.23,2,4.39,1.91,5.91a5,5,0,0,0,.17,1.24v.12h0c.45,1.82,1.71,3.26,1.67,5C1033.83,1148.51,1033.81,1150.22,1033.58,1151.29Z" transform="translate(-788.05 -678.18)"/><path class="cls-4" d="M1028.84,1135.58c0-1.57.09-3.15.17-4.72A5.61,5.61,0,0,1,1028.84,1135.58Z" transform="translate(-788.05 -678.18)"/><path class="cls-4" d="M1034.35,1167.36c.28.27.2,1.06.41,1.2.69.45.13.9,1.16,1-.6-2.5,1.32-1.12,1.88-2.48.44-1.06,1.76,1.37,2.41,1.45a11.18,11.18,0,0,0-2.27-7.93c-.88-1.13-1.72-1.24-2.78-1.79,0,0-.35.42-.38.45-.51.63-.33-.46-.57-.51-.65-.15-.62-2.34-1.65-.11-.81,1.39.63,2.21.34,3.58-.21,1-2.92,1.31-1.66,3a5.54,5.54,0,0,0,2.17,1.93C1033.72,1167.4,1034,1167,1034.35,1167.36Z" transform="translate(-788.05 -678.18)"/><path class="cls-4" d="M1126.31,1322a214.6,214.6,0,0,1-90.65-125.48c.87-.68.39-3,1.69-2.89,2.78.19-.25,5.71,1.94,5.65a24.88,24.88,0,0,1-.31-5c.06-1.23,1.42.25,1.15,1.36a3.57,3.57,0,0,0,.46,0c0-.24,0-.49,0-.74,1.07,1.2,2.67,1,2.28,3.46-.57-.24-1.34-.22-1.91-.51.16,1.46,1.32,1,1.73,1.79s.57,2.76.94,3.19c.68.74,2.33.6,3.26,1.34.58.45.86,1.48,1.38,1.92.35-1-.5-3.22.82-3.61,1-.29,1,.89,1.07,1.53,0,.41,2.31,1,2.87,1,1.3,0,3.27-1.38,2.18,1.61a38.28,38.28,0,0,0-.25,3.83c1.07.91.42,3.09,1.65,3.79a6.55,6.55,0,0,1,2.39,2.56c.54.92,1.09,2.06,1.55,3,.18.41.47.76.67,1.15a2.06,2.06,0,0,1,.27.78c.17,1.42.5.6,1.07,1.52,1.45,2.39,2.17,3.94,5.05,4.6,2.53.58,4.2,3.17,6.22,4.86,1.59,1.32,2.91,4.47,3.79,6.34s1.26,5.26,2.86,6.6c3.38,2.86,2.06,7.43,1,10.91a3.57,3.57,0,0,1,.46,0c0-2.32,1.77-1.07,2.88-.55a4.56,4.56,0,0,1,2.84,2.61c.06.08,3.36,1.88,3.84,2.1,1.42.66,2,2.39,3.56,2.91.84.27,1.4,1.48,1.83,2.26a7.35,7.35,0,0,1,.64,1.69c.25.89,1.26-.16,2,.15,1.34.55,2.22,1.46,3.66,2a27.71,27.71,0,0,1,4,1.87c4.06,2.47,5.77,7.23,9.6,9.85,1.13.8,3.75,1,4,2.69a16,16,0,0,0,1.66,3.59c.79,1.65,2.23,3.71,2.15,5.52a13.33,13.33,0,0,1-1.65,6.63c-.84,1.77-.29,4-1.5,5.58-.91,1.22.72,4,1.6,5.42.54.91.5,2.2,1.07,3,.68,1,1.42,1,1.71,1.77a5.67,5.67,0,0,0-1-.41c.81,1.4.46,2.67,1.38,4.1C1126.66,1320,1126.36,1321.29,1126.31,1322Z" transform="translate(-788.05 -678.18)"/><path class="cls-4" d="M1032.89,1156.43c1-.44,1.27-4.37-.08-3.89C1032.68,1152.77,1030.94,1157.3,1032.89,1156.43Z" transform="translate(-788.05 -678.18)"/><path class="cls-4" d="M1029.46,1160c-.24-2.68-.41-5.34-.51-8.06a17.15,17.15,0,0,1,2.84,5.11C1032.53,1159.22,1031,1160.11,1029.46,1160Z" transform="translate(-788.05 -678.18)"/><path class="cls-4" d="M1455.92,1143.55c-1.52-1.32-3.83-.08-5.33-1.63s-1.45-4.2-1.75-6.22c-.15-1.09.14-4.74-.89-5.07-1.34-.45-2.55,3.38-3.13,4a21.78,21.78,0,0,0-2.21,3.73c-.39.66-.47,1.85-1,2-1,.37-1.45.84-1.4,1.87-1.63-.62-3.94-1.27-5.17.13s-1-1.12-2.25-1.14c.43-2,.76-6-.27-7.76-1.46-2.49-2.74-.72-3.54,1.3-1.81-1.71-1.22-5.48-3.11-7.62a24.77,24.77,0,0,1-4.29-6,9.61,9.61,0,0,1-1.19-3.56c-.1-1.71.23-2.29,1.77-2.58a9.25,9.25,0,0,1,2.68,0c.86.52.82,1.47,1.61,2.43,1.36,1.59,2,4.43,3.11,6.29s2.24.82,3.4,2.1c.57.62,1.48.16,1.71,1.15a2.66,2.66,0,0,0,.82,1.59,21.05,21.05,0,0,0,3,2.28c.75.35,2.21-.18,2.79.48.14.14.59.78.76.82,2.49.31,3.52-3,6.22-3.25l1.61,5.66c.72,2.45,4,.5,5.33,1.94a6.07,6.07,0,0,0,2.14.59,214.21,214.21,0,0,0-108.84-181.59,20.31,20.31,0,0,0-3.25,1.08l.6.34-.29.31a8.4,8.4,0,0,1-3.55-1V956h1.16a13.8,13.8,0,0,0-10.05-2.91v.64a35.52,35.52,0,0,1,7.1,4.2c-5-.94-7.87-.22-5,3.88-3.44-1.94-7.09-2.5-8.88-.64a1.81,1.81,0,0,1,.9.64l-2.38-.64a.64.64,0,0,1,.88-.33,1.59,1.59,0,0,0-.27-1.28h-3a6.64,6.64,0,0,0-.91-1.94l-.88-.33h.3l.58.33c26.3-4.4-5-7.06-17.14-8.73a.56.56,0,0,0,.29-.66c-10.61-2.74-22.37-2.41-32,1a6,6,0,0,0-4.73.66v.64c-2-.17-3.44.57-3.86,2.26a8.19,8.19,0,0,1,5.32-.31,30.45,30.45,0,0,0-5.91,4.19v1l.88.31a3.48,3.48,0,0,0-3,1.28l.59.35a39.29,39.29,0,0,1-7.68,2.9c-1.07-.31-1.59,0-1.48,1l.59.33a38.93,38.93,0,0,0-8.6,2.91v3.23c-.54,1.9.1,4.68,1.48,6.78-.6,2.37.64,3.64,3.27,3.89l.31.64a21.55,21.55,0,0,0,13-3.87,14,14,0,0,1,2.64,5.48,22.2,22.2,0,0,0,4.45,3.56v.66c-2.15.06-3.79.72-4.43,2.22a8.41,8.41,0,0,1-.31,2,3.91,3.91,0,0,1,.31-2,3.68,3.68,0,0,0-2.66-3.85c-1.94-6.61-5-2.57-7.7,3.56l-.6.33c-.25,1.42.39,2.19,1.87,2.25a3.4,3.4,0,0,0-.1,1.95l.6.33c-2.51,2.17-9.42,5.9-14.79,7.75l-.31,2.27a128.11,128.11,0,0,0-13.62,12.33c-1.46.17-2.69-.18-3-1.34a6.25,6.25,0,0,0-4.14,0,13.39,13.39,0,0,0,.92,4.19c-5.74-1.61-10.54-.91-11,4.53a1.17,1.17,0,0,1,.92,1.3,7.25,7.25,0,0,1,6.51,2.26l.91,0c-.48,2.6.86,3.91,3.58,3.87a6.35,6.35,0,0,0-.37,4.52h-.56a40.85,40.85,0,0,1-1.21,8.09,15.56,15.56,0,0,0-5.33.31,18.56,18.56,0,0,0-9.19,0,10.1,10.1,0,0,0-11.52,1,4.14,4.14,0,0,0-3.54,1.29,40.7,40.7,0,0,1,.7,14,12.43,12.43,0,0,0-2.8,11.17l1-.13a18.22,18.22,0,0,1-.41,7.25,17.3,17.3,0,0,0,8.88-.33,15.09,15.09,0,0,0,3.25,6.14,51.11,51.11,0,0,1-14.79,18.11l.64,0a36.45,36.45,0,0,1-8,18.1c-15.45,7.32-26.47,23.88-24.56,40.71l.72-.09c1,9.85,1.84,23.28,2,31.79,7.74,16.72,29.41,21,50.2,15.59,12.09-3.15,22.59-2.06,23.69,4.55,8.6,0,3.76,11.58,12.52,14.79,4.88,4.3,13.18,6.75,17.79,6.4-1,4.83.89,6.18,5,7.17a23.12,23.12,0,0,0-2.95,8.41l.62-1.63c4.6,1.79,7.5,9,9,11.37,3,4.53,1,6.74,10.36,10.48,4.77,5.19-8.2,6.92-6.12,11.46,1,1.54,2.53,3.7.6,5.17-12.63,13.8,2,22.76-.31,25.23a23.84,23.84,0,0,0,6.51,7.1c-.42,3.88,4.81,3.32,9.49,1.94,8.88-1.61,6.65-4.67,14.21-6.75,3.44-.93,16.32-.29,20.11-1.65a32,32,0,0,1,6.51-4.53c11.9-15.12,8.94-22.93,15.47-22.31,9.94-3.61,18.59-12.69,26.83-23.46,4.74-6.22-4-15.72,3.36-21.2,3.67-2.7,7.19-8.15,12.73-11.22,3.77-2.1,9.29-1.34,13.33-4.64,4.74-3.87,11.92-3.23,14.42-8.67,5.23-5.71,8.15-13.37,7.39-19.73h-1.77a196.76,196.76,0,0,1-20.43,7.76h-1.18l-.59-.31c-1.88-1.73-2.62-3.44-1.76-5.17-.9-2.36,3.65-3.15,5.32-2.92,8.3-4.43,17-9,26.34-13.9.56-1.22.33-2.93,1.53-3.8.86-.63,2.28-.7,3.21-1,2.1-.8,5.91-1.46,5.91-4.38,0-1.36.08-1.4,1.49-1.59,2.3-.31,1.4-1.67,2.51-2.92s3.66-1.3,4.3-2.74a23.48,23.48,0,0,1,3.4-10.06c.19-3.13.33-6.3.37-9.47A7.67,7.67,0,0,0,1455.92,1143.55ZM1358.55,1031a34.67,34.67,0,0,0,7.69-2.1,1.05,1.05,0,0,1-1.48.79,6.3,6.3,0,0,1,.28,5.93,7.52,7.52,0,0,0-6.49-.43C1356.85,1033.93,1356.87,1032.53,1358.55,1031Zm-23.39,15.18c2.43-1,2.67-3.76,1.77-6.46,2.57-.6,3.33-2.31,2.37-4.86A5.44,5.44,0,0,0,1342,1031l.58-.33a17.23,17.23,0,0,0,7.4,2.91c11.53,4.34,48.42,13.72,17.15,21.34-.59-1.92-1.85-2.45-3.54-1.32a1.89,1.89,0,0,1-1.17-1.57c-5.46-1.33-11-.12-14.2,3.84l-.92.33a10,10,0,0,0-7.38-.33v-.64a3.2,3.2,0,0,0-2.49-1.14A9.94,9.94,0,0,1,1335.16,1046.22Zm-66-52-.12-.78a2.09,2.09,0,0,0,1.6-2.49c6.78.62,11.79-1.65,13.6-7.42h-1.46a21.85,21.85,0,0,0,.59-4.51c5.79-3.35,4.68-6.22-1.48-8.42a15.69,15.69,0,0,0-.29-4.18,92.74,92.74,0,0,0,8.86-5.52,1.83,1.83,0,0,0-.89-1.63c1.65-2.14,4.33-2.33,6.84-1l-.31.33a11.67,11.67,0,0,1-4.14,4.53c-1.46-.76-2.66-.76-2.66,1l.6.33a4,4,0,0,0,2.41,3.89,4.6,4.6,0,0,0,.54,4.2,3.58,3.58,0,0,0,2.47.19,102,102,0,0,0,19.71,2.08l-1.19.33v1.32c-4.49-2.21-9.38-1.94-12.71,1-2-.66-3.61-.37-3.85,1.25a3.69,3.69,0,0,0,.9,3.55,1.61,1.61,0,0,0-1.07,2.08c-.31,2.47-.55,4.9-.7,7.29l-2.08.33a2.26,2.26,0,0,1-1.19,1.62,17,17,0,0,0-16.69,3.36,3.56,3.56,0,0,0-1.65-1.75c.46-1.91-.63-2.66-3-2.26a15,15,0,0,1-4.74,2.26l-.87-.64ZM1323,1101.53c-11.39-5.23-16.23.29-16.89,11.62a17.93,17.93,0,0,0-13-5.83c-3.88-7.27-11.06-10.51-19.94-9.87a11.52,11.52,0,0,1-1.38-3.36,2.12,2.12,0,0,0-3,.33c-.57-1.87.72-3.7,3-5.19a11.51,11.51,0,0,0-2.37-6.79l.6-.33a8.19,8.19,0,0,0,.9-4.51,1.55,1.55,0,0,1-.9-.66,1.93,1.93,0,0,0-1.78,1.29c-4-2.55-9.74-2.32-14.79,0-2-1.46-4.38-1-6.81.66a7.52,7.52,0,0,0-7.69,0,17.38,17.38,0,0,0-13.63,4.84,36.39,36.39,0,0,1-18.64,3.24c-.43-1.14-1-2.39-1.47-3.55,4.76-1.66,10.92-4.07,14.81-5.82,3.51-1,5.3-3.11,5.9-6.8a233.33,233.33,0,0,1,15.11-25.87c7.19,2.67,13.31,1.25,18.63-4.21V1040a7.28,7.28,0,0,1,6.22,5.86c-2.79,3.06.78,2.71,3.25,2.59v.66c-1.15-.14-1.44.31-.89,1.28H1271a27.83,27.83,0,0,0,6.2,6.15c8.82,2.6,13.56,9,13.43,17.78H1292c3.26-3.87,4-7.8,1.48-11.64.23-1.81,1.16-2.45,3-1.62l.27,1.62c6.92-1.5-.89-6-6.51-9.08a2.15,2.15,0,0,0-.27-2.57,51.21,51.21,0,0,1-15.75-11c-.54-2.83.26-4.95,2.71-5.83l.58.33a4.45,4.45,0,0,0,1.2,4.2c1,.45,1.64.35,2.06-.31A215.89,215.89,0,0,0,1302,1054a28.42,28.42,0,0,0,.29,7.76,4.57,4.57,0,0,0,1.77.66v.31c-.57,2.33,1.2,4.19,4.14,5.48-.22,5.73,2.68,9.7,7.71,12.3a7.55,7.55,0,0,1,.86,1.61c4.12,2.94,5.09.86,3.86-4.51,1.81.3,1.4-1.34.7-2.21a1.72,1.72,0,0,0,2.57-.72c.08.51.35,4,1.11,4.2.5.11.64-3.21.64-3.21,1,1.52,1.79.49,1.79,2.59-.43,1.14,0,1.67,1.16,1.57,1.79.25,2.45-.89,2.1-2.55a18.64,18.64,0,0,0-4.58-4.37c-1.89-1.26-2.61-3-3.64-5-1.32-2.61-4.47-3.41-5.71-6.48,2.37,3.06,8.67.94,5.93-2,1.8,1.13,2.15.08,3.26-1l1.19.35c-1.36,1,.07,1.44-1.48,2.74-.56.49-1.19,1.28-.41,1.92,1.79,1.48,2.2-.29,3.17-.07,3.21.71-2.14,4.87,2.86,5.75-1.07-.18-2.18.08-2.24,1.36-.1,2.49,1.52,2.58,3.44,3.5a2.57,2.57,0,0,0-1.79,3.22c1.67.51,1.77-.89,3.19-.68,2.51.35,1.3,5.43,3.42,4.44,2.41,8.55,3.15-1,5.54.42,1.5,2.76,4.24,3.27,7.39,2a2.28,2.28,0,0,0,.29-2.59c5.4,3.54,10.78,4.08,15.68,0a3.83,3.83,0,0,0,3,1,1.92,1.92,0,0,0,.56,1.93C1367.17,1111.15,1348.94,1113.85,1323,1101.53Zm76.94,90.82a29.35,29.35,0,0,0-2.15-2.87,26.84,26.84,0,0,0-3-3.09c-1.4-1.52-4.66-2.94-4.91-5a32.37,32.37,0,0,0-2.78-9.42,8.81,8.81,0,0,0-3.42-3.06c-1.4-.75-1.17-4.35-1.17-5.61,0-2.86-.16-7.08-1.5-9.74a13.07,13.07,0,0,0-2.21-2.45c-1.29-1.44-3.11-1-3.11-3.38,0-1.23,1.36-1.73.91-3.23-.15-.5-.95-.85-1.2-1.3-.59-1-1.21-1.9-1.79-2.92a74.8,74.8,0,0,1-6.2-14.2c1.24,1.59,3.2.58,3-1.36,2.63,0,3.44,4.14,4.88,5.71a7.1,7.1,0,0,1,1.83,3.69c.27,1.17,1.63,1.87,2.15,2.94.88,1.79.76,3.83,1.77,5.5s1.56,1,3,1.94c5.69,4,1.1,13,5.92,17.46,1.07,1,2.43,1.34,3.41,2.43,1.32,1.45,1.22,3.26,1.9,5,1.07,2.72,2.7,4.84,4,7.75.57,1.25,2.88,4.13,1.48,5.66s-.29,2,.16,3.71c.7,2.8.25,6,1.18,8.73C1400.43,1195.21,1400.6,1193.52,1400,1192.35Zm14.81-119.29-.29-1.62a11.91,11.91,0,0,0,.29-7.11,214.32,214.32,0,0,0-11.54-19.71l-1.5-.33a3.93,3.93,0,0,0-2.66-2.58,18.51,18.51,0,0,1,.29-4.53,8.63,8.63,0,0,0,5-3.56,6.89,6.89,0,0,1,3.87-2.25,3.5,3.5,0,0,0,3,1.28,4.94,4.94,0,0,1,.56-.64,5.89,5.89,0,0,1,2.66,5.87c-3.73-1-4.88.31-3.56,3.83h-2.06a29.28,29.28,0,0,0,10.68,11,33.81,33.81,0,0,0,6.8,14.56,85.36,85.36,0,0,1,5.61,13.25h-3.84v.68a7.32,7.32,0,0,0-3.68-.23,7.19,7.19,0,0,0-3.13-1.75A58.93,58.93,0,0,1,1414.79,1073.06Z" transform="translate(-788.05 -678.18)"/><path class="cls-5" d="M1457.4,1142.23c0,1.36,0,2.74-.06,4.1,0,3.17-.18,6.34-.37,9.47-7,112-100.1,200.77-213.91,200.77a214.54,214.54,0,0,1-36.81-3.15c8.47-7.5,17.41-14.52,26.1-21.73,45.32-37.65,85.22-82.7,112-135.18,20.35-39.92,33-85.75,24.18-129.69-11.26-56.37-54.54-99.24-98.58-137.26a214.33,214.33,0,0,1,187.38,207.62C1457.38,1138.87,1457.4,1140.54,1457.4,1142.23Z" transform="translate(-788.05 -678.18)"/><path class="cls-6" d="M1107.54,990.77c-12,11.5-21.85,25.21-27.06,40-1.24,3.55-2.23,7.48-.94,11,2,5.42,8.66,7.74,14.4,7.15,8.32-.86,15.56-6.15,21.22-12.3s10.2-13.27,15.88-19.4c12.68-13.68,30.24-21.55,47.09-29.55,3.6-1.71,7.26-3.49,10.12-6.26s4.86-6.75,4.26-10.69c-3.2-21.26-32.27-12.09-44.93-6.65A138.28,138.28,0,0,0,1107.54,990.77Z" transform="translate(-788.05 -678.18)"/><path class="cls-7" d="M1345.9,1065.37A553.58,553.58,0,0,0,1333,987.7a385.35,385.35,0,0,0-11.16-37.82A255.25,255.25,0,0,0,1306,913.7c-6.33-11.56-13.78-22.7-23.41-32a67.42,67.42,0,0,0-16.29-11.76,45.69,45.69,0,0,0-19.62-5h0a45.53,45.53,0,0,0-19.78,4.46,67.21,67.21,0,0,0-16.59,11.32c-9.88,9-17.63,20-24.25,31.38a239.37,239.37,0,0,0-13.55,27.68c1.16-.41,2.33-.8,3.51-1.19a234.64,234.64,0,0,1,12.62-25c6.61-11.17,14.3-21.82,23.88-30.44a63.74,63.74,0,0,1,15.83-10.64,41.36,41.36,0,0,1,36.46.47,64.14,64.14,0,0,1,15.56,11.05c9.34,8.87,16.76,19.71,23.08,31a250.92,250.92,0,0,1,16,35.65,380.91,380.91,0,0,1,11.4,37.48,552.19,552.19,0,0,1,13.22,77.3,688.63,688.63,0,0,1-2,156.75,554.19,554.19,0,0,1-15.17,77,384,384,0,0,1-12.31,37.21,252,252,0,0,1-16.84,35.29c-6.61,11.2-14.3,21.88-23.9,30.56a64,64,0,0,1-15.91,10.73,41.46,41.46,0,0,1-36.81-.48,64.34,64.34,0,0,1-15.63-11.15c-9.36-8.93-16.76-19.81-23.07-31.18a237.93,237.93,0,0,1-12.36-26.43l-2.88-1.08a240.72,240.72,0,0,0,13.14,28.67c6.34,11.54,13.8,22.63,23.41,31.87a67,67,0,0,0,16.22,11.66,43.43,43.43,0,0,0,39.08.51,67,67,0,0,0,16.52-11.23c9.84-9,17.59-19.89,24.23-31.26a254.13,254.13,0,0,0,16.84-35.68,383.6,383.6,0,0,0,12.21-37.47,555,555,0,0,0,15-77.28,744.11,744.11,0,0,0,2.12-157.14Z" transform="translate(-788.05 -678.18)"/><path class="cls-7" d="M1543.29,1136.43a35.14,35.14,0,0,0-6.87-7.74,83.56,83.56,0,0,0-17.07-10.92c-12.06-6-24.77-10.35-37.58-14.13-9.71-2.82-19.5-5.28-29.35-7.46.17.8.36,1.61.52,2.42,9.46,2.16,18.86,4.57,28.16,7.31,12.71,3.81,25.3,8.2,37.11,14.13a81.32,81.32,0,0,1,16.48,10.63,32.8,32.8,0,0,1,6.33,7.17,15,15,0,0,1-.22,17.34,33,33,0,0,1-6.52,7,81.49,81.49,0,0,1-16.76,10.2c-12,5.61-24.66,9.66-37.47,13.13-25.68,6.85-52,11.23-78.4,14.59s-53,5.43-79.57,6.73-53.25,1.73-79.89,1.43-53.25-1.58-79.81-3.59-53.05-4.87-79.36-8.88-52.47-9.22-77.92-16.78c-12.7-3.83-25.27-8.24-37-14.17a81,81,0,0,1-16.39-10.6,32.36,32.36,0,0,1-6.23-7.09,14.65,14.65,0,0,1,.21-16.88,32.28,32.28,0,0,1,6.42-6.92,80.76,80.76,0,0,1,16.66-10.18c11.92-5.63,24.59-9.71,37.38-13.21,9.32-2.5,18.73-4.67,28.19-6.6.23-1,.47-1.93.71-2.89-9.94,1.91-19.84,4.1-29.65,6.65-12.93,3.43-25.77,7.43-38,13.09a84.07,84.07,0,0,0-17.45,10.49,35.69,35.69,0,0,0-7.17,7.63,21.86,21.86,0,0,0-2.45,4.85,17.11,17.11,0,0,0-1,5.4v.05a19.18,19.18,0,0,0,3.17,10.39,35.79,35.79,0,0,0,7,7.82,83.58,83.58,0,0,0,17.16,11c12.11,6,24.84,10.32,37.67,14.09,25.72,7.42,52,12.35,78.42,16.26s53,6.63,79.57,8.52,53.26,2.92,79.93,3.21,53.34,0,80-1.18,53.26-3.28,79.75-6.5,52.89-7.56,78.76-14.35c12.91-3.45,25.73-7.48,37.94-13.15a84.78,84.78,0,0,0,17.35-10.47,35.61,35.61,0,0,0,7.06-7.57,17.46,17.46,0,0,0,.27-20.22Z" transform="translate(-788.05 -678.18)"/><path class="cls-7" d="M1470.23,989.65a45.72,45.72,0,0,0-8.4-18.42l0,0A45.36,45.36,0,0,0,1446,958.58a67.18,67.18,0,0,0-19.22-5.85c-13.23-2-26.61-1.23-39.65.74a254.17,254.17,0,0,0-38.39,9.29,385.49,385.49,0,0,0-36.87,14,554.39,554.39,0,0,0-69.6,36.79,743,743,0,0,0-123.79,96.85,554.2,554.2,0,0,0-52.43,58.71,384.34,384.34,0,0,0-22.42,32.42,253.19,253.19,0,0,0-18.19,35c-5,12.16-9,24.94-10.19,38.21a66.58,66.58,0,0,0,1.07,20,43.42,43.42,0,0,0,24.07,30.79,66.53,66.53,0,0,0,19.1,5.84c13.17,2.05,26.52,1.27,39.54-.67a240.91,240.91,0,0,0,30.31-6.79l-2.51-1.61a234.34,234.34,0,0,1-28.15,6c-12.87,1.87-26,2.56-38.79.51a64.05,64.05,0,0,1-18.33-5.69,41.43,41.43,0,0,1-22.67-29,63.74,63.74,0,0,1-1.09-19.16c1.09-12.89,4.94-25.48,9.86-37.51a253.11,253.11,0,0,1,17.89-34.77,383.94,383.94,0,0,1,22.17-32.31,552.92,552.92,0,0,1,52.06-58.66,689.66,689.66,0,0,1,123.53-96.49,552.89,552.89,0,0,1,69.51-36.3,386.2,386.2,0,0,1,36.72-13.63,250.71,250.71,0,0,1,38-8.89c12.85-1.84,26-2.51,38.68-.44a63.6,63.6,0,0,1,18.21,5.68,41.38,41.38,0,0,1,22.47,28.72,63.94,63.94,0,0,1,1.12,19.05c-1.06,12.84-4.87,25.41-9.75,37.44a235,235,0,0,1-12.49,25.63c.4,1.13.79,2.26,1.16,3.4a242,242,0,0,0,14-27.91c5-12.17,9.07-25,10.29-38.29A66.7,66.7,0,0,0,1470.23,989.65Z" transform="translate(-788.05 -678.18)"/><path class="cls-7" d="M1437,1281.25a239.44,239.44,0,0,0-9.92-29.12c-.65,1.08-1.2,1.95-1.85,3a238,238,0,0,1,8.87,26.83c3.23,12.57,5.32,25.54,4.64,38.4a63.68,63.68,0,0,1-3.67,18.72,41.35,41.35,0,0,1-26.11,25.45,63.49,63.49,0,0,1-18.82,3.18c-12.87.34-25.79-2.08-38.27-5.63a250.62,250.62,0,0,1-36.5-13.92,382.79,382.79,0,0,1-34.56-18.44,551.52,551.52,0,0,1-64-45.32,687.28,687.28,0,0,1-109.42-112.24,551.25,551.25,0,0,1-43.69-65.14,382,382,0,0,1-17.61-35,250.63,250.63,0,0,1-13-36.86c-3.25-12.58-5.37-25.58-4.72-38.5a64.58,64.58,0,0,1,3.66-18.84,41.48,41.48,0,0,1,26.38-25.69,64,64,0,0,1,18.93-3.16c12.93-.31,25.86,2.15,38.36,5.73,5,1.47,10,3.15,15,5l2.54-1.54c-5.55-2.12-11.16-4.07-16.86-5.75-12.64-3.68-25.77-6.24-39.09-6a67,67,0,0,0-19.72,3.23,43.41,43.41,0,0,0-28,27.27,66.7,66.7,0,0,0-3.74,19.62c-.61,13.32,1.62,26.5,5,39.23a253.6,253.6,0,0,0,13.32,37.15,387.39,387.39,0,0,0,17.86,35.13,553.38,553.38,0,0,0,44.07,65.21,744.59,744.59,0,0,0,109.62,112.62,554.5,554.5,0,0,0,64,45.83,388.59,388.59,0,0,0,34.63,18.85,254.35,254.35,0,0,0,36.79,14.38c12.65,3.7,25.79,6.31,39.18,6.07a67.2,67.2,0,0,0,19.83-3.2,45.6,45.6,0,0,0,17.4-10.35l0,0a45.57,45.57,0,0,0,10.83-17.14,67.33,67.33,0,0,0,3.73-19.74C1442.65,1307.2,1440.39,1294,1437,1281.25Z" transform="translate(-788.05 -678.18)"/><path class="cls-8" d="M1045.26,986.32a28.91,28.91,0,1,1,28.91-28.91A28.94,28.94,0,0,1,1045.26,986.32Z" transform="translate(-788.05 -678.18)"/><path class="cls-9" d="M1066.24,957.41a21,21,0,1,1-21-21A21,21,0,0,1,1066.24,957.41Z" transform="translate(-788.05 -678.18)"/><path class="cls-8" d="M941.5,1180.81a41.94,41.94,0,1,1,41.94-41.93A42,42,0,0,1,941.5,1180.81Z" transform="translate(-788.05 -678.18)"/><circle class="cls-9" cx="153.45" cy="460.7" r="30.43"/><path class="cls-8" d="M1545.43,1180.32a34,34,0,1,1,34-34A34.05,34.05,0,0,1,1545.43,1180.32Z" transform="translate(-788.05 -678.18)"/><circle class="cls-9" cx="757.38" cy="468.13" r="24.68"/><path class="cls-8" d="M1457.4,1010.34a41,41,0,1,1,41-41A41,41,0,0,1,1457.4,1010.34Z" transform="translate(-788.05 -678.18)"/><path class="cls-9" d="M1487.12,969.37a29.73,29.73,0,1,1-29.72-29.73A29.72,29.72,0,0,1,1487.12,969.37Z" transform="translate(-788.05 -678.18)"/><path class="cls-8" d="M1310.7,1379.42a31.89,31.89,0,1,1,31.88-31.89A31.92,31.92,0,0,1,1310.7,1379.42Z" transform="translate(-788.05 -678.18)"/><path class="cls-9" d="M1333.83,1347.53a23.14,23.14,0,1,1-23.14-23.14A23.14,23.14,0,0,1,1333.83,1347.53Z" transform="translate(-788.05 -678.18)"/><circle class="cls-8" cx="1428.74" cy="1352.33" r="42.4" transform="translate(-1203.61 -10.44) rotate(-23.06)"/><circle class="cls-9" cx="640.69" cy="674.15" r="30.76"/><circle class="cls-8" cx="1240.66" cy="1418.41" r="52.25" transform="translate(-1143.65 1741.78) rotate(-80.93)"/><path class="cls-9" d="M1278.57,1418.41a37.91,37.91,0,1,1-37.91-37.9A37.91,37.91,0,0,1,1278.57,1418.41Z" transform="translate(-788.05 -678.18)"/><path class="cls-8" d="M1344.57,1264.11a59.33,59.33,0,1,1,59.32-59.33A59.4,59.4,0,0,1,1344.57,1264.11Z" transform="translate(-788.05 -678.18)"/><path class="cls-9" d="M1387.61,1204.78a43,43,0,1,1-43-43A43,43,0,0,1,1387.61,1204.78Z" transform="translate(-788.05 -678.18)"/><path class="cls-8" d="M1327.11,1016.83a44.22,44.22,0,1,1,44.21-44.22A44.27,44.27,0,0,1,1327.11,1016.83Z" transform="translate(-788.05 -678.18)"/><path class="cls-9" d="M1359.19,972.61a32.09,32.09,0,1,1-32.09-32.08A32.09,32.09,0,0,1,1359.19,972.61Z" transform="translate(-788.05 -678.18)"/><path class="cls-8" d="M1248.5,897.91a31.34,31.34,0,1,1,31.34-31.34A31.37,31.37,0,0,1,1248.5,897.91Z" transform="translate(-788.05 -678.18)"/><path class="cls-9" d="M1271.24,866.57a22.74,22.74,0,1,1-22.74-22.73A22.74,22.74,0,0,1,1271.24,866.57Z" transform="translate(-788.05 -678.18)"/><path class="cls-8" d="M1087.21,1187.83a41.78,41.78,0,1,1,41.78-41.78A41.82,41.82,0,0,1,1087.21,1187.83Z" transform="translate(-788.05 -678.18)"/><path class="cls-9" d="M1117.52,1146.06a30.31,30.31,0,1,1-30.31-30.32A30.31,30.31,0,0,1,1117.52,1146.06Z" transform="translate(-788.05 -678.18)"/><path class="cls-10" d="M1036.23,890.84a17.47,17.47,0,1,1,17.47-17.47A17.49,17.49,0,0,1,1036.23,890.84Zm0-32.88a15.41,15.41,0,1,0,15.41,15.41A15.42,15.42,0,0,0,1036.23,858Z" transform="translate(-788.05 -678.18)"/><path class="cls-10" d="M888.22,1290.1a8.74,8.74,0,1,1,8.74-8.73A8.74,8.74,0,0,1,888.22,1290.1Zm0-16.44a7.71,7.71,0,1,0,7.71,7.71A7.72,7.72,0,0,0,888.22,1273.66Z" transform="translate(-788.05 -678.18)"/><path class="cls-10" d="M1665.32,1444.07a8.74,8.74,0,1,1,8.74-8.74A8.75,8.75,0,0,1,1665.32,1444.07Zm0-16.44a7.71,7.71,0,1,0,7.71,7.7A7.72,7.72,0,0,0,1665.32,1427.63Z" transform="translate(-788.05 -678.18)"/><path class="cls-10" d="M817.54,977.23a25.12,25.12,0,1,1,25.11-25.12A25.15,25.15,0,0,1,817.54,977.23Zm0-47.26a22.15,22.15,0,1,0,22.14,22.14A22.16,22.16,0,0,0,817.54,930Z" transform="translate(-788.05 -678.18)"/><path class="cls-10" d="M1255.22,697.41a9.62,9.62,0,1,1,9.62-9.62A9.63,9.63,0,0,1,1255.22,697.41Zm0-18.1a8.49,8.49,0,1,0,8.48,8.48A8.5,8.5,0,0,0,1255.22,679.31Z" transform="translate(-788.05 -678.18)"/><path class="cls-10" d="M1562.88,931.24a12,12,0,1,1,12-12A12.05,12.05,0,0,1,1562.88,931.24Zm0-22.65a10.61,10.61,0,1,0,10.61,10.61A10.62,10.62,0,0,0,1562.88,908.59Z" transform="translate(-788.05 -678.18)"/><path class="cls-10" d="M831.49,1546.74a8.74,8.74,0,1,1,8.73-8.73A8.74,8.74,0,0,1,831.49,1546.74Zm0-16.43a7.7,7.7,0,1,0,7.7,7.7A7.7,7.7,0,0,0,831.49,1530.31Z" transform="translate(-788.05 -678.18)"/><path class="cls-10" d="M1599.7,1207.53A10.34,10.34,0,1,1,1610,1197.2,10.35,10.35,0,0,1,1599.7,1207.53Zm0-19.45a9.12,9.12,0,1,0,9.11,9.12A9.13,9.13,0,0,0,1599.7,1188.08Z" transform="translate(-788.05 -678.18)"/><path class="cls-10" d="M1013.83,1434.18A7.16,7.16,0,1,1,1021,1427,7.17,7.17,0,0,1,1013.83,1434.18Zm0-13.48a6.32,6.32,0,1,0,6.31,6.32A6.33,6.33,0,0,0,1013.83,1420.7Z" transform="translate(-788.05 -678.18)"/><path class="cls-10" d="M1410,810.23a5.69,5.69,0,1,1,5.69-5.69A5.69,5.69,0,0,1,1410,810.23Zm0-10.71a5,5,0,1,0,5,5A5,5,0,0,0,1410,799.52Z" transform="translate(-788.05 -678.18)"/><polygon class="cls-10" points="11.82 587.97 19.44 591.11 12.35 593.66 9.86 600.69 7.24 593.48 0 590.83 7.56 588.05 9.58 581.25 11.82 587.97"/><polygon class="cls-11" points="855.38 384.6 863 387.74 855.9 390.3 853.42 397.32 850.79 390.11 843.55 387.46 851.11 384.69 853.13 377.88 855.38 384.6"/><polygon class="cls-10" points="146.4 68.77 159.57 74.2 147.31 78.62 143.02 90.76 138.49 78.29 125.97 73.71 139.03 68.92 142.53 57.16 146.4 68.77"/><polygon class="cls-10" points="692.36 861.69 704.51 866.7 693.2 870.78 689.23 881.98 685.05 870.47 673.5 866.25 685.56 861.83 688.78 850.97 692.36 861.69"/><polygon class="cls-10" points="549.37 207.59 555.77 210.23 549.81 212.38 547.72 218.28 545.52 212.22 539.43 209.99 545.78 207.66 547.48 201.94 549.37 207.59"/><polygon class="cls-10" points="730.12 31.12 738.94 34.76 730.73 37.71 727.85 45.85 724.81 37.49 716.43 34.43 725.18 31.22 727.52 23.34 730.12 31.12"/><polygon class="cls-10" points="134.21 347.95 140.62 350.59 134.65 352.74 132.56 358.64 130.36 352.58 124.28 350.35 130.63 348.02 132.32 342.3 134.21 347.95"/><polygon class="cls-10" points="308.76 702.02 317.64 705.68 309.38 708.65 306.48 716.84 303.43 708.43 295 705.35 303.8 702.12 306.15 694.2 308.76 702.02"/><g class="cls-12"><path class="cls-13" d="M1309.45,1267.45l20.23,2.06s.93-16.58.93-24.5c0-9.6-.82-22-2-21.69-3.25.74-7.63,2.54-10.24,6.12C1309.36,1241.85,1309.45,1267.45,1309.45,1267.45Z" transform="translate(-788.05 -678.18)"/><path class="cls-14" d="M1319.39,1243.32c-.43,2.93-8.21,82.5-8.21,82.5,36.85,17.79,57.17,3.17,57.17,3.17s-1.2-55.88.24-63.48c1-5,2.15-38.47-1.11-39.41a82.35,82.35,0,0,0-14.21-3c-4.46-.46-21.8-.73-24.91.31A39.51,39.51,0,0,0,1319.39,1243.32Z" transform="translate(-788.05 -678.18)"/><path class="cls-15" d="M1348.34,1207.7l2.38,15.65s-8.67,18.64-13.85,17c-4.34-1.35-1.67-17.84-1.67-17.84s2.37-8.86,1.66-13.29S1348.34,1207.7,1348.34,1207.7Z" transform="translate(-788.05 -678.18)"/><path class="cls-14" d="M1336.86,1209.24c-.71-4.43,11.48-1.54,11.48-1.54l.2,1.3a7.24,7.24,0,0,1-1.32,2.18,16.09,16.09,0,0,1-10.67,4.83A24.19,24.19,0,0,0,1336.86,1209.24Z" transform="translate(-788.05 -678.18)"/><path class="cls-15" d="M1350.35,1185.56c.34-.13,2.76,17.83-1.83,22.76s-13.53,6.56-16.74,2.67c-3.55-4.3-3.37-23.6,3.76-28.68S1350.35,1185.56,1350.35,1185.56Z" transform="translate(-788.05 -678.18)"/><path class="cls-16" d="M1338.26,1172.71a19.8,19.8,0,0,1,10.4,5.93c2.51.3,5.91,1.68,9.43,7.5,4.32,7.16,1.13,15.09-3.9,19s-5,8.38-5,8.38l-.79-2.32a12.91,12.91,0,0,1-.63-5.48,10.8,10.8,0,0,1,.81-3.29c1.21-2.6-2.6-4.32-3.67-6.48-.82-1.67-.86-5.48-2.15-8.23l-1.55-2.1s-3.57-2.77-7.07-2S1331.18,1171.27,1338.26,1172.71Z" transform="translate(-788.05 -678.18)"/><path class="cls-15" d="M1345.18,1199.12c0,2.19,1,4,2.22,4s2.32-1.74,2.36-3.93-1-4-2.23-4S1345.22,1196.93,1345.18,1199.12Z" transform="translate(-788.05 -678.18)"/><path class="cls-9" d="M1337.73,1204.18l-6.92-.36a3,3,0,0,0,3.06,2.89C1337.57,1207,1337.73,1204.18,1337.73,1204.18Z" transform="translate(-788.05 -678.18)"/><path class="cls-17" d="M1404.84,1326.66a2.18,2.18,0,0,0,0-.51c-.54-5.51-5.12-51.78-5.89-53.75-.69-1.78-21.21-31.12-21.21-31.12L1367.66,1255l19.73,26.32c.45,1.67,7.57,32.91,7.57,32.91s1.46,5.69,2.11,9.1c-.3.82-.59,1.6-.85,2.23a19.8,19.8,0,0,1-2.13,3.42,23.51,23.51,0,0,0-2.52,4.46c-.21.8-.58,2.47-.8,3.48s-.5,2.18-.55,2.73a5.15,5.15,0,0,1-.64,1.46.88.88,0,0,0,1,1.27c.72-.23,1.28-1.16,1.62-1.74,1-1.63,1.49-4.61,1.73-4.46s1.09,5.22,1.23,5.79,1.15,6.44,1.73,7.52,1.34.89,1.54.22-.64-8.8-.64-8.8-.1-1,.36-.72,1.21,7.79,1.53,8.88,1,1.67,1.66.79c.76-1.06-.54-9-.54-9s-.14-1,.29-.91.95,6.45,1.28,7a.84.84,0,0,0,1.57-.17c.46-1.08-.75-8.13-.75-8.13s.06-.56.32-.37,1.11,5.57,1.66,6.07a.57.57,0,0,0,.84,0c1-.69-.53-5.81-.52-8.36s-1.16-5.41-.81-8.44C1404.74,1327.42,1404.8,1327,1404.84,1326.66Z" transform="translate(-788.05 -678.18)"/><path class="cls-14" d="M1393.78,1259.86l-17.53,11.77s-9.88-14.7-15.18-19.93c-6.65-6.56,2.42-26.64,6.7-25.51C1377.34,1228.73,1393.78,1259.86,1393.78,1259.86Z" transform="translate(-788.05 -678.18)"/></g><g class="cls-18"><path class="cls-19" d="M1100.66,1142.73a28,28,0,0,0-2.56-13.49c-1.78-3.7-6.18-5.8-10.19-5.81-12.75,0-14.37,16.83-22.48,23.32-2.48,2-5.26,3.6-7.6,5.74-8.66,7.91-4.76,22.54,3.19,29.47,5.52,4.81,14.2,7.54,21,3.78a21.39,21.39,0,0,0,8.17-8.79c2.72-5.08,4.48-10.93,6.42-16.34C1098.67,1154.86,1100.4,1148.87,1100.66,1142.73Z" transform="translate(-788.05 -678.18)"/><path class="cls-20" d="M1095.89,1185.26s-9.52-9.76-12-14,1.67-1.48,5.88-2.59c1.59-.43,1.19-9.76,4.2-6.73a138.43,138.43,0,0,1,11.15,13.69Z" transform="translate(-788.05 -678.18)"/><path class="cls-21" d="M1082.36,1157.66s-8.55-1.68-12.45,1.57.84,32.22.84,37-2.68,17.34-2.68,17.34,25.89,5.56,30-1.65c0,0,1.17-27.46,1-30.91s-4-17.57-5.07-19.09S1082.36,1157.66,1082.36,1157.66Z" transform="translate(-788.05 -678.18)"/><path class="cls-15" d="M1082.3,1144.45s0,.25-.12.69c-.39,2.08-1.88,9-2.89,10.9-1.22,2.3,4.17,9.63,9.36,8.73,1.54-.26-1.31-6.73-1.17-7.42.26-1.31.62-3.1,1-4.93.2-1,.41-2.09.61-3.07l1-5.1Z" transform="translate(-788.05 -678.18)"/><path class="cls-14" d="M1082.18,1145.14c.08-.44.12-.69.12-.69l7.77-.2-1,5.1c-.2,1-.4,2-.61,3.05a7.29,7.29,0,0,1-3.71-1.85,9.78,9.78,0,0,1-2.81-4.18C1082,1145.88,1082.12,1145.46,1082.18,1145.14Z" transform="translate(-788.05 -678.18)"/><path class="cls-15" d="M1087.53,1126.82a7,7,0,0,0-6,2.54c-2.29,3-4.77,12.13.94,17.11s11.34-.66,12.17-6.64S1095.84,1126.6,1087.53,1126.82Z" transform="translate(-788.05 -678.18)"/><path class="cls-19" d="M1093.24,1125.31s-7.14,10.23-13.94,8.86l-.18-4.36.62-1.66,3.45-2.21,5.6-1.27Z" transform="translate(-788.05 -678.18)"/><path class="cls-15" d="M1096.37,1139.74c-.68,1.33-1.82,2.06-2.55,1.64s-.77-1.83-.09-3.15,1.82-2,2.55-1.64S1097.05,1138.42,1096.37,1139.74Z" transform="translate(-788.05 -678.18)"/><path class="cls-15" d="M1080.47,1137.15c.28,1.54-.29,3-1.28,3.17s-2-.89-2.31-2.44.29-3,1.28-3.17S1080.18,1135.6,1080.47,1137.15Z" transform="translate(-788.05 -678.18)"/><path class="cls-9" d="M1089.74,1143.18l-5.38-.28a2.36,2.36,0,0,0,2.38,2.24C1089.62,1145.37,1089.74,1143.18,1089.74,1143.18Z" transform="translate(-788.05 -678.18)"/><path class="cls-9" d="M1089.74,1143.18l-5.38-.28a2.36,2.36,0,0,0,2.38,2.24C1089.62,1145.37,1089.74,1143.18,1089.74,1143.18Z" transform="translate(-788.05 -678.18)"/><path class="cls-20" d="M1073.13,1184.92s-5.6-12.43-6.45-17.25,3.28-10.88,7.62-10.49,10.83,21.85,10.83,21.85Z" transform="translate(-788.05 -678.18)"/></g><g class="cls-22"><path class="cls-19" d="M1471.32,965.5a25.22,25.22,0,0,0-2.31-12.19c-1.61-3.34-5.58-5.24-9.21-5.24-11.52,0-13,15.2-20.31,21.07-2.25,1.79-4.75,3.25-6.87,5.19-7.83,7.14-4.3,20.36,2.89,26.63,5,4.34,12.82,6.81,19,3.41a19.26,19.26,0,0,0,7.38-8c2.47-4.58,4.05-9.87,5.8-14.75A55,55,0,0,0,1471.32,965.5Z" transform="translate(-788.05 -678.18)"/><path class="cls-20" d="M1467,1003.94s-8.6-8.82-10.81-12.65,1.51-1.34,5.31-2.35c1.44-.38,1.07-8.81,3.79-6.07a123.61,123.61,0,0,1,10.08,12.36Z" transform="translate(-788.05 -678.18)"/><path class="cls-21" d="M1454.78,979s-7.72-1.53-11.24,1.42.76,29.11.75,33.45-2.42,15.66-2.42,15.66,23.4,5,27.12-1.49c0,0,1.06-24.81.9-27.93s-3.63-15.88-4.59-17.24S1454.78,979,1454.78,979Z" transform="translate(-788.05 -678.18)"/><path class="cls-15" d="M1454.74,967.06s0,.23-.12.62c-.35,1.88-1.7,8.13-2.61,9.85-1.1,2.08,3.77,8.7,8.46,7.89,1.39-.24-1.18-6.08-1.06-6.7.24-1.19.56-2.8.89-4.46.18-.94.37-1.88.55-2.77l.91-4.61Z" transform="translate(-788.05 -678.18)"/><path class="cls-14" d="M1454.62,967.68c.08-.39.12-.62.12-.62l7-.18-.91,4.61c-.18.88-.36,1.82-.55,2.75a6.5,6.5,0,0,1-3.35-1.67,8.81,8.81,0,0,1-2.54-3.77C1454.5,968.35,1454.57,968,1454.62,967.68Z" transform="translate(-788.05 -678.18)"/><path class="cls-15" d="M1459.46,951.13a6.3,6.3,0,0,0-5.38,2.29c-2.08,2.68-4.31,11,.84,15.47s10.25-.6,11-6S1467,950.93,1459.46,951.13Z" transform="translate(-788.05 -678.18)"/><path class="cls-19" d="M1464.62,949.77s-6.45,9.24-12.59,8l-.17-3.94.56-1.5,3.12-2,5-1.15Z" transform="translate(-788.05 -678.18)"/><path class="cls-15" d="M1467.45,962.81c-.62,1.19-1.65,1.85-2.31,1.47s-.69-1.65-.08-2.84,1.65-1.86,2.31-1.48S1468.06,961.61,1467.45,962.81Z" transform="translate(-788.05 -678.18)"/><path class="cls-15" d="M1453.08,960.46c.25,1.4-.26,2.68-1.16,2.86s-1.83-.8-2.09-2.2.26-2.68,1.16-2.86S1452.82,959.06,1453.08,960.46Z" transform="translate(-788.05 -678.18)"/><path class="cls-9" d="M1461.45,965.91l-4.85-.25a2.13,2.13,0,0,0,2.15,2C1461.35,967.89,1461.45,965.91,1461.45,965.91Z" transform="translate(-788.05 -678.18)"/><path class="cls-9" d="M1461.45,965.91l-4.85-.25a2.13,2.13,0,0,0,2.15,2C1461.35,967.89,1461.45,965.91,1461.45,965.91Z" transform="translate(-788.05 -678.18)"/><path class="cls-20" d="M1446.45,1003.63s-5.06-11.23-5.83-15.59,3-9.83,6.88-9.47,9.79,19.74,9.79,19.74Z" transform="translate(-788.05 -678.18)"/></g><g class="cls-23"><path class="cls-19" d="M1240.58,852.65c6.25-3.31,13.53-.34,14.07,8.38s-5.6,11.79-11.51,11.21S1231.42,856.31,1240.58,852.65Z" transform="translate(-788.05 -678.18)"/><path class="cls-19" d="M1244.35,875.82a6.22,6.22,0,1,0,6.21-6.22A6.21,6.21,0,0,0,1244.35,875.82Z" transform="translate(-788.05 -678.18)"/><path class="cls-24" d="M1237.22,879.39l-21.22-.73-17.06-5.32c-.51-.14-3-6.76-3.72-6.2s1.47,3.32.61,3.81-8.94-2.15-8.93-1.49c0,1.22,4.88,1.81,4.79,2.39s-5-1.1-5.49-.2,4.8,1.14,4.94,1.6-5,.47-4.62,1.44c.2.53,4.58-.12,4.46.53s-3.4,1.69-3.1,2.27,2.63-1.24,4.41-1,3.18-.52,5.88.72,11.72,6.77,17.79,7.4l19.48,2Z" transform="translate(-788.05 -678.18)"/><path class="cls-25" d="M1241.26,878.42c11.63.54,1.41,10.27,1.41,10.27l-17.18-2.44c-.51-3.42.37-7.51.41-8.42C1229.47,877.61,1238.4,878.28,1241.26,878.42Z" transform="translate(-788.05 -678.18)"/><path class="cls-14" d="M1250.25,876.56s5-.09,7.65,2.81-4.17,25.51-4.66,29.2,2.47,13.51,2.47,13.51-15.77,3.18-20.28.19c0,0-.48-26.55,0-29.19s4.51-13.36,5.47-14.42S1250.25,876.56,1250.25,876.56Z" transform="translate(-788.05 -678.18)"/><path class="cls-15" d="M1248,867.57s0,.19.09.53c.3,1.62,1.45,7,2.23,8.46.94,1.78-3.22,7.47-7.22,6.77-1.2-.2,1-5.22.9-5.75-.2-1-.48-2.41-.76-3.83-.16-.8-.32-1.62-.47-2.38l-.78-4Z" transform="translate(-788.05 -678.18)"/><path class="cls-14" d="M1248.11,868.1c-.06-.34-.09-.53-.09-.53l-6-.15.78,4,.47,2.37a5.66,5.66,0,0,0,2.86-1.44,7.53,7.53,0,0,0,2.17-3.24C1248.22,868.68,1248.16,868.35,1248.11,868.1Z" transform="translate(-788.05 -678.18)"/><path class="cls-15" d="M1244,853.89a5.4,5.4,0,0,1,4.6,2c1.77,2.3,3.68,9.41-.72,13.28s-8.76-.51-9.41-5.15S1237.56,853.72,1244,853.89Z" transform="translate(-788.05 -678.18)"/><path class="cls-15" d="M1237.15,863.92c.53,1,1.41,1.59,2,1.27s.6-1.42.07-2.45-1.41-1.59-2-1.26S1236.62,862.89,1237.15,863.92Z" transform="translate(-788.05 -678.18)"/><path class="cls-19" d="M1243.66,853.13s3.78,6.76,6.48,7.07,3.06,3.91,3.06,3.91-1-8.28-3.64-9.87A9.92,9.92,0,0,0,1243.66,853.13Z" transform="translate(-788.05 -678.18)"/><path class="cls-15" d="M1249.43,861.9c-.22,1.2.23,2.3,1,2.46s1.57-.69,1.79-1.89-.23-2.3-1-2.46S1249.65,860.7,1249.43,861.9Z" transform="translate(-788.05 -678.18)"/><path class="cls-25" d="M1243.55,899.47s12.2-6.25,14.89-9.58,2.1-9.72-1.36-11.25-17.57,12.59-17.57,12.59Z" transform="translate(-788.05 -678.18)"/></g><g class="cls-26"><path class="cls-27" d="M1057.78,966.14c.38,0,1.42.37,3,3.25,1.94,3.67,4.79,14.79,4.79,14.79l-8.49,3.16-1.09-2.32-1.8-17.86S1057.68,966.14,1057.78,966.14Z" transform="translate(-788.05 -678.18)"/><path class="cls-28" d="M1046.56,964.54a51.67,51.67,0,0,1,11.22,1.6s2,17.61-1.84,31c-.87,3,.72,12.41.72,12.41l-25.16-.33s3-22.77,1.85-26.45-1.14-16.5-1.14-16.5l5.65-1A56.24,56.24,0,0,1,1046.56,964.54Z" transform="translate(-788.05 -678.18)"/><path class="cls-15" d="M1031.93,968.22c2.35-.89,3.5,20.31,3.82,29a101.72,101.72,0,0,0,13.24-.14c.85-.06,2.81-.78,3.65-.89a8.92,8.92,0,0,1,2.08-.1,40.73,40.73,0,0,1,4.87,2.19c.46.49,1.71,1.71,1.5,2.23s-2.4-1.47-2.4-1.47l-1.06-.59c1.32,1.29,3.86,3,3.5,3.63s-2.65-1.13-4.28-2.31c1.4,1.26,3.14,3.52,2.74,3.87s-2.34-2.3-4.45-3c-.78-.28-1.56.49-2.18.59a4.5,4.5,0,0,1-1.59.08l-2.29-.64c-.78.07-.8.53-1.58.69s-2.42.4-3.58.69c-6.69,1.63-8.93,2.39-11,2.39C1026.73,1004.43,1026.37,970.3,1031.93,968.22Z" transform="translate(-788.05 -678.18)"/><path class="cls-27" d="M1027.47,988.12c-.44-8.94-.38-20,4.63-21.83,2-.74,5.46,3.71,4.83,22A37.62,37.62,0,0,1,1027.47,988.12Z" transform="translate(-788.05 -678.18)"/><path class="cls-16" d="M1052.2,943a20,20,0,0,1-2.1-.85,10.75,10.75,0,0,0-2.4-.9c-1.32-.2-3.6-.07-4.86,1.3-1.56,1.7-4.35.3-3.79,9.21.64,10.07,6.24,9,6.38,8.8l5-6.45s1.7,3.72,1.7,3.58S1060.8,945.93,1052.2,943Z" transform="translate(-788.05 -678.18)"/><path class="cls-15" d="M1048,961.34l.48,3.6s1.09,5.19-.31,6.19-5.93-6.34-5.93-6.34l.48-9.12Z" transform="translate(-788.05 -678.18)"/><path class="cls-14" d="M1042.52,958.63a10.3,10.3,0,0,0,5.84,5.76l-.41-3-5.28-5.67Z" transform="translate(-788.05 -678.18)"/><path class="cls-15" d="M1047.66,945.74a4.8,4.8,0,0,1,5.53,4.86,37.48,37.48,0,0,1-.4,4.62c-.64,4.15-3.48,7.81-5.36,7.49s-6.59-3.92-5.76-9.83C1042.18,949.23,1044.56,946.24,1047.66,945.74Z" transform="translate(-788.05 -678.18)"/><path class="cls-15" d="M1043,953.58a1.39,1.39,0,1,1-1.06-1.89A1.54,1.54,0,0,1,1043,953.58Z" transform="translate(-788.05 -678.18)"/><path class="cls-16" d="M1041.91,951.69s2.27.57,3.11-.89,3.85-4.61,7.67-3.3-3.36-3.17-3.67-3.17l-4,0s-2.83,2.33-2.93,2.59-.92,3-.92,3Z" transform="translate(-788.05 -678.18)"/><path class="cls-9" d="M1046.06,957.78l4.12.79a1.83,1.83,0,0,1-2.21,1.26C1045.74,959.47,1046.06,957.78,1046.06,957.78Z" transform="translate(-788.05 -678.18)"/></g><g class="cls-29"><path class="cls-27" d="M1324.79,1356.91c.43,0,1.62.42,3.36,3.7,2.22,4.2,5.47,16.87,5.47,16.87l-9.69,3.61-1.24-2.65-2-20.36S1324.67,1356.91,1324.79,1356.91Z" transform="translate(-788.05 -678.18)"/><path class="cls-28" d="M1312,1355.09a58.68,58.68,0,0,1,12.8,1.83s2.34,20.07-2.1,35.33c-1,3.42.82,14.16.82,14.16l-28.69-.38s3.4-26,2.12-30.17-1.32-18.81-1.32-18.81l6.45-1.11A64.69,64.69,0,0,1,1312,1355.09Z" transform="translate(-788.05 -678.18)"/><path class="cls-15" d="M1295.31,1359.28c2.68-1,4,23.17,4.36,33.12a119.09,119.09,0,0,0,15.09-.15c1-.08,3.21-.9,4.17-1a9.35,9.35,0,0,1,2.37-.11,44.1,44.1,0,0,1,5.56,2.5c.52.55,1.94,1.94,1.7,2.54s-2.73-1.68-2.73-1.68l-1.22-.68c1.52,1.48,4.41,3.43,4,4.14s-3-1.29-4.87-2.63c1.59,1.44,3.58,4,3.12,4.41s-2.66-2.62-5.07-3.48c-.89-.32-1.78.57-2.49.67a4.82,4.82,0,0,1-1.81.1l-2.61-.74c-.89.09-.91.61-1.81.8s-2.75.46-4.08.78c-7.63,1.87-10.18,2.73-12.52,2.73C1289.38,1400.58,1289,1361.66,1295.31,1359.28Z" transform="translate(-788.05 -678.18)"/><path class="cls-27" d="M1290.22,1382c-.5-10.2-.43-22.76,5.28-24.9,2.26-.85,6.23,4.24,5.52,25.1A43.1,43.1,0,0,1,1290.22,1382Z" transform="translate(-788.05 -678.18)"/><path class="cls-16" d="M1318.43,1330.56a20.64,20.64,0,0,1-2.4-1,11.68,11.68,0,0,0-2.73-1c-1.51-.24-4.11-.08-5.54,1.47-1.79,1.94-5,.35-4.33,10.51.73,11.49,7.12,10.23,7.27,10s5.7-7.35,5.7-7.35,1.94,4.24,1.94,4.08S1328.24,1333.87,1318.43,1330.56Z" transform="translate(-788.05 -678.18)"/><path class="cls-15" d="M1313.58,1351.44l.55,4.11s1.24,5.91-.35,7-6.76-7.22-6.76-7.22l.54-10.41Z" transform="translate(-788.05 -678.18)"/><path class="cls-14" d="M1307.39,1348.35a11.77,11.77,0,0,0,6.66,6.57l-.47-3.48-6-6.47Z" transform="translate(-788.05 -678.18)"/><path class="cls-15" d="M1313.25,1333.65a5.48,5.48,0,0,1,6.31,5.54,43.41,43.41,0,0,1-.46,5.27c-.74,4.74-4,8.91-6.11,8.54s-7.52-4.47-6.57-11.21C1307,1337.62,1309.72,1334.22,1313.25,1333.65Z" transform="translate(-788.05 -678.18)"/><path class="cls-15" d="M1307.9,1342.59a1.59,1.59,0,1,1-1.21-2.15A1.75,1.75,0,0,1,1307.9,1342.59Z" transform="translate(-788.05 -678.18)"/><path class="cls-16" d="M1306.69,1340.44s2.59.64,3.55-1,4.39-5.25,8.75-3.76-3.84-3.62-4.19-3.62l-4.53,0s-3.23,2.65-3.35,3-1,3.47-1,3.47Z" transform="translate(-788.05 -678.18)"/><path class="cls-9" d="M1311.42,1347.38l4.71.9a2.09,2.09,0,0,1-2.53,1.43C1311.06,1349.3,1311.42,1347.38,1311.42,1347.38Z" transform="translate(-788.05 -678.18)"/></g><g class="cls-30"><path class="cls-31" d="M1342.06,968a27.29,27.29,0,0,0-2.5-13.17c-1.73-3.61-6-5.66-10-5.67-12.44,0-14,16.43-21.95,22.77-2.42,1.94-5.13,3.52-7.42,5.61-8.45,7.72-4.64,22,3.12,28.77,5.39,4.69,13.86,7.36,20.5,3.69a20.87,20.87,0,0,0,8-8.59c2.66-4.95,4.38-10.67,6.27-15.94C1340.12,979.86,1341.81,974,1342.06,968Z" transform="translate(-788.05 -678.18)"/><path class="cls-14" d="M1337.41,1009.54s-9.3-9.53-11.69-13.67,1.63-1.44,5.74-2.53c1.55-.41,1.16-9.53,4.1-6.57a135.16,135.16,0,0,1,10.88,13.36Z" transform="translate(-788.05 -678.18)"/><path class="cls-13" d="M1324.19,982.59s-8.34-1.64-12.15,1.54.82,31.45.82,36.14-2.62,16.93-2.62,16.93,25.28,5.42,29.3-1.61c0,0,1.14-26.81,1-30.18s-3.92-17.16-5-18.64S1324.19,982.59,1324.19,982.59Z" transform="translate(-788.05 -678.18)"/><path class="cls-15" d="M1324.14,969.69s0,.25-.12.67c-.38,2-1.84,8.79-2.82,10.65-1.19,2.24,4.07,9.4,9.13,8.53,1.51-.26-1.27-6.58-1.14-7.25.26-1.28.61-3,1-4.82l.59-3c.55-2.74,1-5,1-5Z" transform="translate(-788.05 -678.18)"/><path class="cls-14" d="M1324,970.36c.08-.42.12-.67.12-.67l7.59-.19s-.44,2.24-1,5l-.59,3a7.11,7.11,0,0,1-3.62-1.81,9.56,9.56,0,0,1-2.74-4.08Z" transform="translate(-788.05 -678.18)"/><path class="cls-15" d="M1329.25,952.48a6.82,6.82,0,0,0-5.82,2.48c-2.24,2.89-4.66,11.84.91,16.71s11.07-.65,11.89-6.48S1337.36,952.27,1329.25,952.48Z" transform="translate(-788.05 -678.18)"/><path class="cls-31" d="M1334.82,951s-7,10-13.61,8.65l-.18-4.26.61-1.62,3.36-2.16,5.47-1.24Z" transform="translate(-788.05 -678.18)"/><path class="cls-15" d="M1337.87,965.1c-.66,1.29-1.78,2-2.49,1.59s-.75-1.78-.08-3.07,1.78-2,2.49-1.6S1338.54,963.81,1337.87,965.1Z" transform="translate(-788.05 -678.18)"/><path class="cls-15" d="M1322.35,962.56c.27,1.51-.28,2.9-1.25,3.1s-2-.87-2.26-2.38.28-2.9,1.25-3.09S1322.07,961.05,1322.35,962.56Z" transform="translate(-788.05 -678.18)"/><path class="cls-9" d="M1331.4,968.45l-5.25-.27a2.3,2.3,0,0,0,2.32,2.19C1331.28,970.59,1331.4,968.45,1331.4,968.45Z" transform="translate(-788.05 -678.18)"/><path class="cls-9" d="M1331.4,968.45l-5.25-.27a2.3,2.3,0,0,0,2.32,2.19C1331.28,970.59,1331.4,968.45,1331.4,968.45Z" transform="translate(-788.05 -678.18)"/><path class="cls-14" d="M1315.19,1009.21s-5.48-12.14-6.31-16.84,3.21-10.62,7.44-10.24,10.58,21.33,10.58,21.33Z" transform="translate(-788.05 -678.18)"/></g><g class="cls-32"><path class="cls-33" d="M1262.77,1434.27c.68,0,2.56.66,5.32,5.87,3.51,6.64,8.65,26.71,8.65,26.71l-15.34,5.71-2-4.19-3.24-32.25S1262.57,1434.27,1262.77,1434.27Z" transform="translate(-788.05 -678.18)"/><path class="cls-31" d="M1242.49,1431.38c4.39,0,15.24,1.29,20.28,2.9,0,0,3.7,31.8-3.34,56-1.57,5.4,1.31,22.42,1.31,22.42l-45.45-.6s5.38-41.13,3.35-47.78-2.07-29.8-2.07-29.8l10.21-1.76A103.46,103.46,0,0,1,1242.49,1431.38Z" transform="translate(-788.05 -678.18)"/><path class="cls-15" d="M1216.07,1438c4.25-1.6,6.33,36.69,6.9,52.45,7.53.72,20.64,0,23.91-.24,1.54-.12,5.08-1.41,6.61-1.61a14.74,14.74,0,0,1,3.75-.18c.28,0,8.13,3.25,8.8,4,.83.87,3.08,3.07,2.7,4s-4.33-2.65-4.33-2.65l-1.93-1.08c2.4,2.34,7,5.43,6.32,6.56s-4.77-2-7.72-4.18c2.53,2.29,5.67,6.37,5,7s-4.22-4.15-8-5.51c-1.41-.51-2.82.89-3.93,1.06a8,8,0,0,1-2.88.16l-4.13-1.17c-1.41.13-1.44,1-2.87,1.26-1.64.35-4.35.72-6.45,1.23-12.1,3-16.13,4.33-19.83,4.33C1206.68,1503.43,1206,1441.79,1216.07,1438Z" transform="translate(-788.05 -678.18)"/><path class="cls-33" d="M1208,1474c-.8-16.14-.68-36,8.37-39.43,3.57-1.34,9.86,6.71,8.73,39.76C1220.28,1474.7,1213.19,1475,1208,1474Z" transform="translate(-788.05 -678.18)"/><path class="cls-16" d="M1252.69,1392.54a33.82,33.82,0,0,1-3.8-1.52,18.77,18.77,0,0,0-4.33-1.63c-2.39-.37-6.51-.13-8.78,2.34-2.83,3.07-7.86.55-6.84,16.63,1.14,18.21,11.26,16.21,11.51,15.9l9-11.64s3.07,6.71,3.07,6.47S1268.22,1397.77,1252.69,1392.54Z" transform="translate(-788.05 -678.18)"/><path class="cls-34" d="M1245,1425.6l.88,6.51s2,9.37-.56,11.18-10.71-11.45-10.71-11.45l.86-16.48Z" transform="translate(-788.05 -678.18)"/><path class="cls-35" d="M1235.2,1420.7a18.63,18.63,0,0,0,10.55,10.42l-.75-5.52-9.53-10.24Z" transform="translate(-788.05 -678.18)"/><path class="cls-34" d="M1244.49,1397.43a8.67,8.67,0,0,1,10,8.77,63.1,63.1,0,0,1-.73,8.34c-1.16,7.51-6.28,14.12-9.67,13.53s-11.9-7.07-10.4-17.75C1234.59,1403.72,1238.89,1398.33,1244.49,1397.43Z" transform="translate(-788.05 -678.18)"/><path class="cls-34" d="M1236,1411.59a2.53,2.53,0,1,1-1.92-3.41A2.81,2.81,0,0,1,1236,1411.59Z" transform="translate(-788.05 -678.18)"/><path class="cls-16" d="M1234.1,1408.18s4.09,1,5.61-1.62,7-8.32,13.86-6-6.07-5.73-6.63-5.73l-7.18,0s-5.11,4.2-5.3,4.66-1.66,5.5-1.66,5.5Z" transform="translate(-788.05 -678.18)"/><path class="cls-9" d="M1241.59,1419.17l7.45,1.42a3.31,3.31,0,0,1-4,2.28C1241,1422.22,1241.59,1419.17,1241.59,1419.17Z" transform="translate(-788.05 -678.18)"/></g><g class="cls-36"><path class="cls-33" d="M959.67,1151.34c.57,0,2.11.54,4.37,4.8,2.88,5.45,7.09,21.9,7.09,21.9l-12.57,4.68-1.62-3.43-2.66-26.44S959.52,1151.33,959.67,1151.34Z" transform="translate(-788.05 -678.18)"/><path class="cls-31" d="M943.05,1149c3.6,0,12.49,1,16.62,2.37,0,0,3,26.07-2.73,45.88-1.29,4.43,1.07,18.38,1.07,18.38l-37.25-.49s4.41-33.72,2.75-39.17-1.71-24.42-1.71-24.42l8.37-1.45A84.39,84.39,0,0,1,943.05,1149Z" transform="translate(-788.05 -678.18)"/><path class="cls-15" d="M921.4,1154.41c3.48-1.3,5.19,30.08,5.65,43,6.17.59,16.92,0,19.6-.2,1.26-.09,4.16-1.16,5.42-1.32a12.42,12.42,0,0,1,3.07-.15c.23,0,6.66,2.67,7.21,3.25s2.53,2.52,2.22,3.3-3.55-2.17-3.55-2.17l-1.58-.89c2,1.92,5.72,4.45,5.18,5.38s-3.91-1.67-6.32-3.43c2.07,1.87,4.64,5.22,4.05,5.74s-3.46-3.4-6.59-4.52c-1.16-.41-2.31.73-3.22.87a6.55,6.55,0,0,1-2.37.13l-3.38-1c-1.15.11-1.18.79-2.35,1-1.35.28-3.57.59-5.29,1-9.91,2.42-13.22,3.55-16.26,3.54C913.7,1208,913.17,1157.5,921.4,1154.41Z" transform="translate(-788.05 -678.18)"/><path class="cls-33" d="M914.79,1183.88c-.65-13.23-.56-29.54,6.86-32.33,2.93-1.09,8.08,5.51,7.16,32.6C924.85,1184.47,919,1184.74,914.79,1183.88Z" transform="translate(-788.05 -678.18)"/><path class="cls-16" d="M951.41,1117.13a26.92,26.92,0,0,1-3.11-1.25,15.26,15.26,0,0,0-3.55-1.33c-2-.31-5.33-.11-7.19,1.91-2.32,2.52-6.45.46-5.62,13.64.94,14.92,9.24,13.28,9.44,13l7.4-9.55s2.52,5.51,2.52,5.31S964.15,1121.42,951.41,1117.13Z" transform="translate(-788.05 -678.18)"/><path class="cls-34" d="M945.11,1144.23l.72,5.33s1.6,7.68-.46,9.16-8.78-9.38-8.78-9.38l.71-13.5Z" transform="translate(-788.05 -678.18)"/><path class="cls-35" d="M937.07,1140.21a15.32,15.32,0,0,0,8.65,8.54l-.61-4.52-7.81-8.39Z" transform="translate(-788.05 -678.18)"/><path class="cls-34" d="M944.69,1121.13a7.12,7.12,0,0,1,8.19,7.19,55.5,55.5,0,0,1-.6,6.84c-.95,6.16-5.15,11.58-7.93,11.09s-9.76-5.79-8.53-14.55C936.58,1126.29,940.1,1121.88,944.69,1121.13Z" transform="translate(-788.05 -678.18)"/><path class="cls-34" d="M937.75,1132.75a2.07,2.07,0,1,1-1.58-2.8A2.3,2.3,0,0,1,937.75,1132.75Z" transform="translate(-788.05 -678.18)"/><path class="cls-16" d="M936.17,1130s3.36.83,4.61-1.33,5.7-6.81,11.36-4.88-5-4.7-5.44-4.7l-5.89,0s-4.19,3.45-4.34,3.83-1.36,4.51-1.36,4.51Z" transform="translate(-788.05 -678.18)"/><path class="cls-9" d="M942.32,1139l6.1,1.16a2.72,2.72,0,0,1-3.28,1.87C941.85,1141.46,942.32,1139,942.32,1139Z" transform="translate(-788.05 -678.18)"/></g><g class="cls-37"><path class="cls-31" d="M1501.88,1162.74s8.76-2.34,8.87-1.63c2.25,15.45,3.23,21,3.55,21.19,1.08.52,14.9-12.8,17.41-13.74a10.4,10.4,0,0,1,3.77-.41h3.71l.06,2.82c-3.31,3.14-6.55,63.64-7.21,63.63s-14.46-.09-13.81-1.23c0,0,3.32-18.64,5.94-30.92.87-4.13,3.32-12.75,3.32-12.75-3.36,1.8-16.47,8.69-18.6,7.88C1502.27,1195.07,1501.88,1162.74,1501.88,1162.74Z" transform="translate(-788.05 -678.18)"/><path class="cls-28" d="M1527.83,1199.54a187,187,0,0,1,6.49-22.34c2.59-6.33,4.77-9,4.77-9l10.25.3.31.08c.84.13.87,30,.41,41.16a244.29,244.29,0,0,1-2.93,25.7l-2.92-.28c0,1.51-.08,2.5-.08,2.5-14.84,2.62-23.13-4.7-23.13-4.7S1525.88,1209.15,1527.83,1199.54Z" transform="translate(-788.05 -678.18)"/><path class="cls-31" d="M1549.34,1168.49s10.15-.74,12.73-2c1.57-.76,14.34-11.62,14.34-11.62l-.88-28.14,9.16-.94s5.57,31,4,34.43-20.33,18.55-24,24.93c-2.11,3.68-.11,53.6-.79,54.06-4.87,2.7-25.36,5.09-25,3.52C1547.69,1199.37,1549.34,1168.49,1549.34,1168.49Z" transform="translate(-788.05 -678.18)"/><path class="cls-15" d="M1548.82,1159.45l.52,9s-6.33,11.6-9.77,10.09c-2.89-1.26-.59-10-.59-10s.45-2,1.07-4.32a16.55,16.55,0,0,0,.73-4.62C1540.63,1156.54,1548.82,1159.45,1548.82,1159.45Z" transform="translate(-788.05 -678.18)"/><path class="cls-14" d="M1540.78,1159.63c-.15-3.09,8-.18,8-.18l0,.89a4.89,4.89,0,0,1-.88,1.05,11.12,11.12,0,0,1-7.84,2.48A15.45,15.45,0,0,0,1540.78,1159.63Z" transform="translate(-788.05 -678.18)"/><path class="cls-19" d="M1540.35,1139s-3.24,5.18-3.38,9.47a22.4,22.4,0,0,0,.84,7.2l10.51-13.25Z" transform="translate(-788.05 -678.18)"/><path class="cls-38" d="M1535.82,1147.66c-.11,1.51.51,2.78,1.38,2.85s1.68-1.1,1.79-2.61-.5-2.77-1.38-2.84S1535.94,1146.16,1535.82,1147.66Z" transform="translate(-788.05 -678.18)"/><path class="cls-15" d="M1551.88,1144.45c.24-.06.55,12.41-3,15.44s-9.83,3.46-11.74.55c-2.12-3.22-.53-16.42,4.77-19.35S1551.88,1144.45,1551.88,1144.45Z" transform="translate(-788.05 -678.18)"/><path class="cls-19" d="M1552.59,1136.69c2.83,2.34,4.21,4.08,6.19,8.33,2.43,5.23-2,10.83-5.74,13.11s-4,4.92-4,4.92l-.2-1.62a3.88,3.88,0,0,1,0-1.49,6.55,6.55,0,0,1,.5-1.33c.31-.71,1.29-3.12,1.68-3.76,1-1.68,1.24-2,.67-3.61-.44-1.2,0-3.89-.72-5.87l-5.18-1s-3.24-.69-4.91-2.53C1536.07,1136.61,1545.14,1130.37,1552.59,1136.69Z" transform="translate(-788.05 -678.18)"/><path class="cls-15" d="M1550.5,1152.64c-.6,1.38-.43,2.79.38,3.14s1.94-.5,2.54-1.88.43-2.79-.38-3.14S1551.1,1151.25,1550.5,1152.64Z" transform="translate(-788.05 -678.18)"/></g></g></g></svg>