<svg width="21" height="20" viewBox="0 0 21 20" fill="none" xmlns="http://www.w3.org/2000/svg">
<path d="M10.2 20C15.7228 20 20.2 15.5228 20.2 10C20.2 4.47715 15.7228 0 10.2 0C4.6771 0 0.199951 4.47715 0.199951 10C0.199951 15.5228 4.6771 20 10.2 20Z" fill="#26A17B"/>
<path d="M11.283 10.9968C11.2186 10.9968 10.8489 11.0289 10.0611 11.0289C9.418 11.0289 8.98392 11.0129 8.82315 10.9968C6.3955 10.9003 4.5627 10.4662 4.5627 9.96785C4.5627 9.45338 6.37942 9.03537 8.82315 8.92283V10.5788C8.98392 10.5949 9.43408 10.6109 10.0772 10.6109C10.8328 10.6109 11.2186 10.5788 11.283 10.5788V8.92283C13.7267 9.03537 15.5434 9.45338 15.5434 9.96785C15.5434 10.4662 13.7267 10.9003 11.283 10.9968ZM11.283 8.74598V7.26688H14.6913V5H5.43087V7.26688H8.83923V8.74598C6.07395 8.8746 4 9.42122 4 10.0804C4 10.7396 6.07395 11.2862 8.83923 11.4148V16.1736H11.299V11.4148C14.0643 11.2862 16.1383 10.7396 16.1383 10.0804C16.1222 9.42122 14.0482 8.8746 11.283 8.74598Z" fill="white"/>
</svg>
