<?xml version="1.0" encoding="UTF-8"?>
<!DOCTYPE svg PUBLIC "-//W3C//DTD SVG 1.1//EN" "http://www.w3.org/Graphics/SVG/1.1/DTD/svg11.dtd">
<!-- Creator: CorelDRAW 2020 (64-Bit Evaluation Version) -->
<svg xmlns="http://www.w3.org/2000/svg" xml:space="preserve" width="500px" height="148px" version="1.1" style="shape-rendering:geometricPrecision; text-rendering:geometricPrecision; image-rendering:optimizeQuality; fill-rule:evenodd; clip-rule:evenodd"
viewBox="0 0 167.98 49.85"
 xmlns:xlink="http://www.w3.org/1999/xlink"
 xmlns:xodm="http://www.corel.com/coreldraw/odm/2003">
 <defs>
  <style type="text/css">
   <![CDATA[
    .fil0 {fill:black;fill-rule:nonzero}
    .fil1 {fill:white;fill-rule:nonzero}
   ]]>
  </style>
 </defs>
 <g id="Layer_x0020_1">
  <metadata id="CorelCorpID_0Corel-Layer"/>
  <g id="_2644505897536">
   <g>
    <path class="fil0" d="M161.76 49.85l-155.54 0c-3.42,0 -6.22,-2.8 -6.22,-6.23l0 -37.39c0,-3.43 2.8,-6.23 6.22,-6.23l155.54 0c3.42,0 6.22,2.8 6.22,6.23l0 37.39c0,3.43 -2.8,6.23 -6.22,6.23l0 0zm0 0l0 0 0 0z"/>
   </g>
   <g id="_2644505896192">
    <path class="fil1" d="M52.38 15.74l0 -7.65 2.64 0c0.59,0 1.04,0.04 1.36,0.11 0.43,0.1 0.81,0.29 1.12,0.55 0.4,0.34 0.7,0.78 0.9,1.31 0.2,0.53 0.3,1.13 0.3,1.81 0,0.58 -0.07,1.1 -0.2,1.55 -0.14,0.44 -0.31,0.82 -0.52,1.11 -0.22,0.29 -0.45,0.53 -0.7,0.69 -0.25,0.17 -0.55,0.3 -0.91,0.39 -0.36,0.08 -0.77,0.13 -1.23,0.13l-2.76 0zm1.02 -0.9l1.63 0c0.5,0 0.89,-0.05 1.18,-0.14 0.29,-0.1 0.52,-0.23 0.69,-0.4 0.23,-0.24 0.42,-0.56 0.55,-0.97 0.14,-0.4 0.21,-0.89 0.21,-1.47 0,-0.8 -0.14,-1.42 -0.4,-1.85 -0.26,-0.43 -0.58,-0.72 -0.95,-0.86 -0.27,-0.11 -0.71,-0.16 -1.31,-0.16l-1.6 0 0 5.85z"/>
    <path id="1" class="fil1" d="M59.62 12.97c0,-1.03 0.29,-1.78 0.86,-2.28 0.47,-0.41 1.05,-0.61 1.74,-0.61 0.76,0 1.38,0.25 1.87,0.75 0.48,0.49 0.72,1.18 0.72,2.06 0,0.71 -0.11,1.27 -0.32,1.68 -0.21,0.4 -0.52,0.72 -0.93,0.95 -0.41,0.22 -0.86,0.33 -1.34,0.33 -0.78,0 -1.4,-0.24 -1.88,-0.74 -0.48,-0.5 -0.72,-1.21 -0.72,-2.14zm0.96 0c0,0.71 0.16,1.24 0.47,1.59 0.31,0.35 0.7,0.53 1.17,0.53 0.47,0 0.85,-0.18 1.17,-0.53 0.3,-0.36 0.46,-0.9 0.46,-1.62 0,-0.69 -0.16,-1.2 -0.47,-1.55 -0.31,-0.36 -0.7,-0.53 -1.16,-0.53 -0.47,0 -0.86,0.17 -1.17,0.52 -0.31,0.35 -0.47,0.88 -0.47,1.59z"/>
    <path id="2" class="fil1" d="M66.91 15.74l-1.68 -5.54 0.99 0 0.88 3.19 0.31 1.19c0.02,-0.06 0.11,-0.44 0.29,-1.14l0.88 -3.24 0.96 0 0.83 3.21 0.28 1.06 0.32 -1.07 0.95 -3.2 0.92 0 -1.74 5.54 -0.97 0 -0.88 -3.32 -0.23 -0.95 -1.12 4.27 -0.99 0z"/>
    <path id="3" class="fil1" d="M73.62 15.74l0 -5.54 0.85 0 0 0.78c0.4,-0.6 0.99,-0.9 1.75,-0.9 0.34,0 0.65,0.06 0.92,0.18 0.28,0.12 0.49,0.28 0.63,0.47 0.14,0.19 0.24,0.42 0.29,0.69 0.04,0.18 0.06,0.48 0.06,0.91l0 3.41 -0.94 0 0 -3.37c0,-0.38 -0.04,-0.67 -0.11,-0.86 -0.07,-0.19 -0.2,-0.34 -0.39,-0.45 -0.18,-0.11 -0.4,-0.17 -0.65,-0.17 -0.4,0 -0.74,0.13 -1.03,0.38 -0.29,0.25 -0.44,0.74 -0.44,1.44l0 3.03 -0.94 0z"/>
    <polygon id="4" class="fil1" points="79.54,15.74 79.54,8.09 80.48,8.09 80.48,15.74 "/>
    <path id="5" class="fil1" d="M81.58 12.97c0,-1.03 0.28,-1.78 0.85,-2.28 0.48,-0.41 1.06,-0.61 1.75,-0.61 0.76,0 1.38,0.25 1.86,0.75 0.49,0.49 0.73,1.18 0.73,2.06 0,0.71 -0.11,1.27 -0.32,1.68 -0.22,0.4 -0.53,0.72 -0.94,0.95 -0.4,0.22 -0.85,0.33 -1.33,0.33 -0.78,0 -1.41,-0.24 -1.88,-0.74 -0.48,-0.5 -0.72,-1.21 -0.72,-2.14zm0.96 0c0,0.71 0.15,1.24 0.46,1.59 0.32,0.35 0.7,0.53 1.18,0.53 0.46,0 0.85,-0.18 1.16,-0.53 0.31,-0.36 0.47,-0.9 0.47,-1.62 0,-0.69 -0.16,-1.2 -0.47,-1.55 -0.31,-0.36 -0.7,-0.53 -1.16,-0.53 -0.48,0 -0.86,0.17 -1.18,0.52 -0.31,0.35 -0.46,0.88 -0.46,1.59z"/>
    <path id="6" class="fil1" d="M91.49 15.04c-0.35,0.3 -0.69,0.51 -1.01,0.63 -0.32,0.12 -0.67,0.18 -1.04,0.18 -0.61,0 -1.07,-0.14 -1.4,-0.44 -0.33,-0.3 -0.49,-0.68 -0.49,-1.14 0,-0.27 0.06,-0.51 0.18,-0.74 0.13,-0.22 0.29,-0.4 0.49,-0.54 0.2,-0.13 0.42,-0.23 0.68,-0.3 0.18,-0.05 0.46,-0.1 0.83,-0.14 0.76,-0.09 1.32,-0.2 1.68,-0.33 0,-0.12 0,-0.21 0,-0.24 0,-0.38 -0.09,-0.65 -0.26,-0.81 -0.24,-0.21 -0.6,-0.31 -1.08,-0.31 -0.44,0 -0.77,0.08 -0.98,0.23 -0.21,0.16 -0.36,0.43 -0.46,0.82l-0.92 -0.12c0.08,-0.4 0.22,-0.72 0.41,-0.96 0.19,-0.24 0.47,-0.42 0.83,-0.56 0.37,-0.13 0.79,-0.19 1.26,-0.19 0.48,0 0.86,0.05 1.16,0.17 0.3,0.11 0.51,0.25 0.65,0.42 0.14,0.16 0.24,0.38 0.3,0.64 0.03,0.16 0.04,0.44 0.04,0.86l0 1.24c0,0.87 0.02,1.42 0.06,1.66 0.04,0.23 0.12,0.45 0.23,0.67l-0.98 0c-0.1,-0.2 -0.16,-0.43 -0.18,-0.7zm-0.08 -2.08c-0.34,0.14 -0.85,0.26 -1.53,0.35 -0.39,0.06 -0.67,0.12 -0.83,0.19 -0.16,0.07 -0.28,0.17 -0.37,0.3 -0.08,0.14 -0.13,0.28 -0.13,0.45 0,0.24 0.1,0.45 0.29,0.62 0.19,0.16 0.46,0.25 0.83,0.25 0.36,0 0.68,-0.08 0.97,-0.24 0.28,-0.16 0.48,-0.37 0.62,-0.64 0.1,-0.22 0.15,-0.53 0.15,-0.94l0 -0.34z"/>
    <path id="7" class="fil1" d="M97.38 15.74l0 -0.71c-0.35,0.55 -0.86,0.82 -1.55,0.82 -0.44,0 -0.84,-0.12 -1.21,-0.36 -0.37,-0.24 -0.66,-0.58 -0.86,-1.02 -0.2,-0.43 -0.31,-0.93 -0.31,-1.5 0,-0.55 0.1,-1.05 0.28,-1.5 0.18,-0.45 0.46,-0.79 0.83,-1.03 0.37,-0.24 0.78,-0.36 1.23,-0.36 0.34,0 0.63,0.07 0.89,0.21 0.26,0.14 0.47,0.33 0.64,0.55l0 -2.75 0.94 0 0 7.65 -0.88 0zm-2.97 -2.77c0,0.71 0.15,1.24 0.45,1.59 0.3,0.35 0.66,0.53 1.07,0.53 0.41,0 0.75,-0.17 1.04,-0.51 0.29,-0.33 0.43,-0.84 0.43,-1.53 0,-0.75 -0.14,-1.31 -0.44,-1.66 -0.29,-0.36 -0.65,-0.53 -1.08,-0.53 -0.42,0 -0.76,0.17 -1.05,0.51 -0.27,0.34 -0.42,0.87 -0.42,1.6z"/>
    <path id="8" class="fil1" d="M102.83 15.74l0 -7.65 2.88 0c0.51,0 0.9,0.03 1.17,0.08 0.37,0.06 0.69,0.18 0.94,0.35 0.26,0.18 0.46,0.42 0.62,0.74 0.15,0.31 0.23,0.66 0.23,1.04 0,0.65 -0.21,1.2 -0.62,1.64 -0.42,0.45 -1.17,0.68 -2.25,0.68l-1.96 0 0 3.12 -1.01 0zm1.01 -4.02l1.98 0c0.65,0 1.11,-0.12 1.39,-0.36 0.27,-0.25 0.41,-0.59 0.41,-1.03 0,-0.32 -0.08,-0.59 -0.24,-0.82 -0.16,-0.23 -0.38,-0.38 -0.64,-0.45 -0.17,-0.05 -0.49,-0.07 -0.94,-0.07l-1.96 0 0 2.73z"/>
    <path id="9" class="fil1" d="M115.39 13.06l1.02 0.25c-0.21,0.83 -0.6,1.46 -1.15,1.9 -0.55,0.44 -1.22,0.65 -2.01,0.65 -0.83,0 -1.49,-0.16 -2.01,-0.5 -0.52,-0.33 -0.91,-0.82 -1.18,-1.45 -0.27,-0.64 -0.4,-1.32 -0.4,-2.05 0,-0.8 0.15,-1.49 0.46,-2.08 0.3,-0.6 0.73,-1.05 1.29,-1.35 0.56,-0.31 1.18,-0.47 1.85,-0.47 0.77,0 1.41,0.2 1.93,0.59 0.52,0.39 0.88,0.93 1.09,1.64l-0.99 0.23c-0.18,-0.55 -0.44,-0.96 -0.77,-1.21 -0.34,-0.25 -0.76,-0.38 -1.28,-0.38 -0.58,0 -1.07,0.14 -1.46,0.42 -0.4,0.28 -0.68,0.66 -0.83,1.13 -0.16,0.48 -0.24,0.97 -0.24,1.47 0,0.65 0.09,1.22 0.28,1.7 0.19,0.49 0.48,0.85 0.88,1.09 0.4,0.24 0.83,0.36 1.29,0.36 0.57,0 1.05,-0.16 1.44,-0.49 0.39,-0.33 0.65,-0.81 0.79,-1.45z"/>
    <polygon id="10" class="fil1" points="117.17,13.44 117.17,12.5 120.07,12.5 120.07,13.44 "/>
    <path id="11" class="fil1" d="M126.66 13.06l1.01 0.25c-0.21,0.83 -0.59,1.46 -1.14,1.9 -0.55,0.44 -1.22,0.65 -2.02,0.65 -0.82,0 -1.49,-0.16 -2.01,-0.5 -0.51,-0.33 -0.9,-0.82 -1.17,-1.45 -0.27,-0.64 -0.41,-1.32 -0.41,-2.05 0,-0.8 0.16,-1.49 0.46,-2.08 0.3,-0.6 0.74,-1.05 1.3,-1.35 0.56,-0.31 1.17,-0.47 1.85,-0.47 0.76,0 1.4,0.2 1.92,0.59 0.53,0.39 0.89,0.93 1.09,1.64l-0.99 0.23c-0.18,-0.55 -0.43,-0.96 -0.77,-1.21 -0.34,-0.25 -0.76,-0.38 -1.27,-0.38 -0.59,0 -1.08,0.14 -1.47,0.42 -0.39,0.28 -0.67,0.66 -0.83,1.13 -0.16,0.48 -0.24,0.97 -0.24,1.47 0,0.65 0.09,1.22 0.28,1.7 0.19,0.49 0.49,0.85 0.88,1.09 0.4,0.24 0.83,0.36 1.3,0.36 0.56,0 1.04,-0.16 1.43,-0.49 0.39,-0.33 0.66,-0.81 0.8,-1.45z"/>
    <polygon id="12" class="fil1" points="128.78,15.74 128.78,8.09 129.72,8.09 129.72,15.74 "/>
    <path id="13" class="fil1" d="M131.18 9.16l0 -1.07 0.94 0 0 1.07 -0.94 0zm0 6.58l0 -5.54 0.94 0 0 5.54 -0.94 0z"/>
    <path id="14" class="fil1" d="M137.33 13.94l0.97 0.13c-0.15,0.57 -0.43,1 -0.85,1.32 -0.41,0.31 -0.94,0.46 -1.58,0.46 -0.81,0 -1.45,-0.25 -1.92,-0.74 -0.47,-0.5 -0.71,-1.2 -0.71,-2.1 0,-0.93 0.24,-1.65 0.72,-2.16 0.47,-0.52 1.1,-0.77 1.86,-0.77 0.74,0 1.34,0.25 1.81,0.75 0.47,0.51 0.7,1.21 0.7,2.13 0,0.05 0,0.14 0,0.25l-4.13 0c0.04,0.6 0.21,1.07 0.52,1.39 0.3,0.32 0.69,0.49 1.15,0.49 0.34,0 0.64,-0.1 0.88,-0.28 0.24,-0.18 0.44,-0.47 0.58,-0.87zm-3.08 -1.5l3.09 0c-0.04,-0.47 -0.16,-0.82 -0.36,-1.05 -0.29,-0.36 -0.68,-0.54 -1.16,-0.54 -0.43,0 -0.79,0.14 -1.08,0.43 -0.29,0.29 -0.45,0.67 -0.49,1.16z"/>
    <path id="15" class="fil1" d="M139.49 15.74l0 -5.54 0.84 0 0 0.78c0.41,-0.6 0.99,-0.9 1.76,-0.9 0.33,0 0.64,0.06 0.92,0.18 0.28,0.12 0.49,0.28 0.63,0.47 0.14,0.19 0.23,0.42 0.29,0.69 0.03,0.18 0.05,0.48 0.05,0.91l0 3.41 -0.94 0 0 -3.37c0,-0.38 -0.03,-0.67 -0.11,-0.86 -0.07,-0.19 -0.2,-0.34 -0.39,-0.45 -0.18,-0.11 -0.4,-0.17 -0.65,-0.17 -0.4,0 -0.74,0.13 -1.03,0.38 -0.29,0.25 -0.43,0.74 -0.43,1.44l0 3.03 -0.94 0z"/>
    <path id="16" class="fil1" d="M147.46 14.9l0.13 0.83c-0.26,0.05 -0.5,0.08 -0.71,0.08 -0.34,0 -0.6,-0.05 -0.79,-0.16 -0.18,-0.11 -0.32,-0.25 -0.39,-0.43 -0.08,-0.17 -0.12,-0.54 -0.12,-1.11l0 -3.19 -0.69 0 0 -0.72 0.69 0 0 -1.37 0.94 -0.57 0 1.94 0.94 0 0 0.72 -0.94 0 0 3.25c0,0.27 0.02,0.44 0.05,0.51 0.04,0.08 0.09,0.14 0.16,0.19 0.08,0.04 0.18,0.07 0.32,0.07 0.11,0 0.24,-0.02 0.41,-0.04z"/>
    <g>
     <path class="fil1" d="M20.39 21.79l9.55 -1.31 0 9.23 -9.55 0 0 -7.92zm10.7 -1.49l12.66 -1.85 0 11.18 -12.66 0 0 -9.33zm-10.7 10.39l9.55 0 0 9.26 -9.55 -1.34 0 -7.92zm10.7 0.12l12.66 0 0 11.08 -12.66 -1.79 0 -9.29zm19.79 -7.82c0.61,0.01 1.21,0.01 1.81,0.01 0.94,3.4 1.87,6.8 2.81,10.19 0.2,0.71 0.35,1.44 0.44,2.18 0.98,-4.17 2.32,-8.25 3.44,-12.38 0.52,0.01 1.04,0.01 1.56,0.01 0.83,2.94 1.61,5.89 2.42,8.84 0.31,1.17 0.7,2.33 0.82,3.54 0.89,-4.16 2.15,-8.24 3.15,-12.38 0.6,0 1.19,0 1.78,0 -1.29,4.73 -2.64,9.45 -3.95,14.18l-1.93 0c-0.95,-3.4 -1.89,-6.8 -2.85,-10.19 -0.16,-0.54 -0.23,-1.11 -0.28,-1.68 -0.08,0.49 -0.15,0.99 -0.27,1.46 -0.97,3.46 -1.96,6.91 -2.9,10.38 -0.64,0.03 -1.29,0.03 -1.93,0.03 -1.38,-4.73 -2.74,-9.46 -4.12,-14.19l0 0zm19.58 3.75l1.6 0 0 10.17 -1.6 0 0 -10.17zm5.87 1.64c0.92,-1.64 3.06,-2.39 4.79,-1.63 1.37,0.54 1.88,2.12 1.93,3.48 0.07,2.23 0.01,4.45 0.03,6.68 -0.54,0 -1.07,0 -1.61,0 -0.02,-2.14 0.06,-4.28 -0.04,-6.42 -0.04,-1.06 -0.49,-2.34 -1.64,-2.61 -1.68,-0.5 -3.36,1.01 -3.42,2.68 -0.05,2.11 0,4.23 -0.02,6.35l-1.6 0c0,-3.39 0,-6.78 0,-10.17l1.61 0c-0.01,0.55 -0.01,1.09 -0.03,1.64l0 0zm16.35 -6.45c0.53,0 1.07,0 1.6,0l0 14.98 -1.6 0c0,-0.54 -0.01,-1.09 -0.04,-1.63 -1.16,2.08 -4.26,2.54 -6.03,1 -1.27,-1.09 -1.65,-2.86 -1.59,-4.46 0.02,-1.63 0.55,-3.36 1.85,-4.42 1.68,-1.39 4.66,-1.31 5.82,0.73 -0.02,-2.07 -0.01,-4.14 -0.01,-6.2l0 0zm-3.46 5.92c-1.29,0.21 -2.15,1.38 -2.4,2.59 -0.31,1.46 -0.26,3.15 0.67,4.39 0.99,1.33 3.19,1.36 4.25,0.11 0.73,-0.76 0.93,-1.84 0.94,-2.85 0.01,-1.07 0.1,-2.27 -0.61,-3.16 -0.63,-0.9 -1.8,-1.3 -2.85,-1.08l0 0zm11.31 -1.36c1.43,-0.13 3.02,0.1 4.09,1.14 1.22,1.12 1.58,2.86 1.51,4.45 -0.02,1.43 -0.55,2.89 -1.6,3.88 -2.18,1.99 -6.25,1.56 -7.64,-1.18 -1.09,-2.29 -0.87,-5.47 1.12,-7.21 0.72,-0.6 1.62,-0.88 2.52,-1.08l0 0zm-0.29 1.46c-2.36,0.72 -2.76,3.8 -2.02,5.83 0.58,1.8 2.87,2.59 4.51,1.75 1.11,-0.51 1.62,-1.76 1.72,-2.91 0.12,-1.34 0.02,-2.86 -0.93,-3.91 -0.8,-0.9 -2.16,-1.1 -3.28,-0.76l0 0zm6.56 -1.21l1.68 0c0.66,2.42 1.3,4.85 1.98,7.27 0.14,0.45 0.19,0.93 0.23,1.4 0.76,-2.92 1.72,-5.78 2.58,-8.67l1.46 0.01c0.74,2.89 1.65,5.73 2.26,8.65 0.63,-2.9 1.53,-5.74 2.22,-8.63 0.54,-0.02 1.08,-0.03 1.62,-0.04 -1.02,3.39 -2,6.8 -3.02,10.18l-1.66 0c-0.73,-2.76 -1.66,-5.46 -2.25,-8.24 -0.7,2.78 -1.67,5.49 -2.46,8.24l-1.61 0c-1.01,-3.39 -2.04,-6.77 -3.03,-10.17l0 0zm18.08 -0.25c1,-0.07 2.02,0.02 2.97,0.39 0.26,0.5 0.06,1.15 0.12,1.71 -1.13,-0.7 -2.68,-1.15 -3.9,-0.44 -0.84,0.46 -0.88,1.81 -0.07,2.31 1.17,0.75 2.66,0.95 3.7,1.93 1.14,1.1 0.86,3.22 -0.48,4.04 -1.63,1.04 -3.77,0.94 -5.48,0.15 0,-0.6 0,-1.2 -0.01,-1.8 1.21,0.93 2.92,1.44 4.37,0.78 0.85,-0.42 0.89,-1.73 0.15,-2.28 -1.17,-0.86 -2.78,-0.99 -3.81,-2.07 -1.03,-1.03 -0.84,-2.93 0.3,-3.81 0.59,-0.54 1.39,-0.7 2.14,-0.91l0 0zm11.19 -3.99c0.14,-0.02 0.42,-0.06 0.56,-0.08 0.01,4.83 0,9.66 0,14.49l-1.58 0c0.01,-4.02 -0.03,-8.04 0.02,-12.06 -1.01,0.7 -2.1,1.3 -3.29,1.63 0.01,-0.54 0.02,-1.07 0.02,-1.61 1.55,-0.53 2.97,-1.38 4.27,-2.37l0 0zm6.41 0c1.4,-0.24 2.94,0.27 3.77,1.45 1.17,1.66 1.28,3.79 1.34,5.75 -0.04,2.07 -0.27,4.32 -1.59,6.01 -1.22,1.59 -3.71,1.97 -5.34,0.79 -1.33,-0.95 -1.85,-2.62 -2.08,-4.16 -0.27,-2.3 -0.25,-4.7 0.55,-6.89 0.5,-1.49 1.75,-2.76 3.35,-2.95l0 0zm-0.24 1.43c-1.43,0.58 -1.84,2.27 -2.04,3.64 -0.2,1.91 -0.25,3.88 0.2,5.76 0.23,0.92 0.71,1.91 1.63,2.31 1.04,0.53 2.43,0.07 2.98,-0.95 0.87,-1.51 0.89,-3.33 0.91,-5.03 -0.04,-1.65 -0.11,-3.44 -1.02,-4.88 -0.54,-0.87 -1.71,-1.23 -2.66,-0.85l0 0zm0 0l0 0 0 0z"/>
    </g>
   </g>
  </g>
 </g>
</svg>
