<svg width="30" height="16" fill="none" xmlns="http://www.w3.org/2000/svg"><path d="M30 0l-4.647 8L30 16H2a2 2 0 01-2-2V2a2 2 0 012-2h28z" fill="url(#paint0_linear)"/><path d="M8.752 8.264V11H9.77V4.718H8.752v2.646H5.908V4.718H4.891V11h1.017V8.264h2.844zm4.328 2.844c1.305 0 2.151-.954 2.151-2.448s-.846-2.448-2.151-2.448c-1.305 0-2.151.954-2.151 2.448s.846 2.448 2.151 2.448zm0-.81c-.666 0-1.116-.414-1.116-1.242v-.792c0-.828.45-1.242 1.116-1.242.666 0 1.116.414 1.116 1.242v.792c0 .828-.45 1.242-1.116 1.242zm4.514.702h.855v-.801h-.91V7.121h.982V6.32h-.981V5.042h-.882v.819c0 .324-.108.459-.432.459h-.396v.801h.729v2.862c0 .639.36 1.017 1.035 1.017z" fill="#fff"/><defs><linearGradient id="paint0_linear" x1="30" y1="8" x2="0" y2="8" gradientUnits="userSpaceOnUse"><stop stop-color="#CD3952"/><stop offset="1" stop-color="#F6465D"/></linearGradient></defs></svg>