<svg xmlns="http://www.w3.org/2000/svg" viewBox="0 0 1428.08 805"><defs><style>.cls-1,.cls-4{fill:#263674;}.cls-2,.cls-3{fill:#fff;}.cls-3,.cls-4{fill-rule:evenodd;}.cls-5{fill:#6cdd6c;}.cls-6{fill:#50aa50;}.cls-7{fill:#fdbe11;}</style></defs><g id="OBJECTS"><path class="cls-1" d="M474.34,879.08H390.23a3.32,3.32,0,0,1,0-6.63h84.11a3.32,3.32,0,0,1,0,6.63Z" transform="translate(-270.32 -150)"/><path class="cls-2" d="M1214.91,587.39h-2.4a3.6,3.6,0,1,0-7.2,0h-2.41a6,6,0,0,1,12,0Z" transform="translate(-270.32 -150)"/><path class="cls-2" d="M1223.5,447.53h-2.4a3.6,3.6,0,1,0-7.2,0h-2.41a6,6,0,1,1,12,0Z" transform="translate(-270.32 -150)"/><path class="cls-1" d="M1000.85,880.29H844.23l2.65-6.3c10.27-24.36,11.34-45.22,9.77-69l-.31-4.82,132-.41,0,4.52c.11,15.4,4.28,50.38,10.55,70.15Zm-143.11-9.08H988.61c-5-19.05-8.47-46.58-9.15-62.39L866,809.17C867.07,830.3,865.78,849.52,857.74,871.21Z" transform="translate(-270.32 -150)"/><path class="cls-1" d="M799.2,808.73c-118.91,0-215.23-.65-219.46-2.16-10.18-3.63-23.48-17.73-23.66-27.74-.39-21.66-1.32-51.17-2.4-85.34-3.26-103-7.71-244.1-1.93-322.18A27.09,27.09,0,0,1,578.6,346.1h.45l685.54,1a27,27,0,0,1,26.46,26.64c.52,22.8,1.27,46.11,2,69.73,3.14,98.91,6.39,201.18-4.57,297.9-.43,3.81-.62,8-.81,12.39-.93,20.29-2.08,45.54-28.23,50.7C1246.66,807,993,808.73,799.2,808.73ZM578.66,353.4A19.8,19.8,0,0,0,559,371.86c-5.76,77.68-1.31,218.55,1.94,321.4,1.08,34.2,2,63.73,2.4,85.45.12,6.31,10.67,18.08,18.82,21,14.59,3,659.09.78,675.85-2.37,20.53-4.06,21.45-24.3,22.35-43.89.2-4.53.41-8.91.85-12.88,10.9-96.18,7.66-198.19,4.53-296.84-.75-23.64-1.49-47-2-69.79a19.74,19.74,0,0,0-19.26-19.51L579,353.4Z" transform="translate(-270.32 -150)"/><path class="cls-3" d="M1245.41,370.72l-645.9-.85c-11.62-.18-21.37,7.79-22.24,18.2-7.24,86.45,2.63,266.82,4.09,339.42.14,7.07,11.68,17.68,20,20.31,9.8,3.09,623.61.75,638.61-1.87,26.94-4.7,22.35-32.29,24.61-49.95,12.78-99.84,4.93-208.37,2.39-306C1266.69,379.38,1257.18,370.89,1245.41,370.72Z" transform="translate(-270.32 -150)"/><path class="cls-1" d="M1056.88,905.14H788.13c-10.66,0-16.24-8.39-16.24-16.67s5.58-16.7,16.24-16.7h268.75c10.67,0,16.25,8.39,16.25,16.67S1067.55,905.14,1056.88,905.14ZM788.13,879.07c-7.06,0-9,5.9-9,9.4s1.89,9.37,9,9.37h268.75c7.06,0,8.95-5.9,8.95-9.4s-1.89-9.37-8.95-9.37Z" transform="translate(-270.32 -150)"/><path class="cls-4" d="M757.79,773.51h0" transform="translate(-270.32 -150)"/><path class="cls-1" d="M757.79,780.36c8.81,0,8.82-13.69,0-13.69s-8.83,13.69,0,13.69Z" transform="translate(-270.32 -150)"/><path class="cls-4" d="M785.39,773.51h0" transform="translate(-270.32 -150)"/><path class="cls-1" d="M785.39,780.36c8.8,0,8.82-13.69,0-13.69s-8.83,13.69,0,13.69Z" transform="translate(-270.32 -150)"/><path class="cls-4" d="M813,773.51h0" transform="translate(-270.32 -150)"/><path class="cls-1" d="M813,780.36c8.81,0,8.83-13.69,0-13.69s-8.82,13.69,0,13.69Z" transform="translate(-270.32 -150)"/><polygon class="cls-2" points="1116.13 784.98 980.61 784.98 1032.74 613.78 1064.01 613.78 1116.13 784.98"/><rect class="cls-2" x="969.41" y="784.98" width="157.92" height="19.56"/><polygon class="cls-1" points="993.64 742.18 980.61 784.98 1116.13 784.98 1103.1 742.18 993.64 742.18"/><polygon class="cls-1" points="1006.67 699.38 1090.07 699.38 1077.04 656.58 1019.71 656.58 1006.67 699.38"/><polygon class="cls-2" points="1168.67 791.91 1081.18 791.91 1114.83 681.39 1135.02 681.39 1168.67 791.91"/><rect class="cls-2" x="1073.95" y="791.91" width="101.95" height="12.63"/><polygon class="cls-1" points="1089.59 764.28 1081.18 791.91 1168.67 791.91 1160.26 764.28 1089.59 764.28"/><polygon class="cls-1" points="1098 736.65 1151.84 736.65 1143.43 709.02 1106.42 709.02 1098 736.65"/><path class="cls-2" d="M673.1,262l4.49-4.49a2.34,2.34,0,0,0,0-3.3l-3.92-3.91a3.3,3.3,0,0,1-.52-3.69l3.19-7.74a3.31,3.31,0,0,1,3-2.25h5.54a2.33,2.33,0,0,0,2.33-2.32v-6.37a2.32,2.32,0,0,0-2.33-2.32h-5.54a3.31,3.31,0,0,1-3-2.25l-3.19-7.73a3.34,3.34,0,0,1,.52-3.71l3.92-3.9a2.32,2.32,0,0,0,0-3.29l-4.49-4.51a2.34,2.34,0,0,0-3.3,0l-3.92,3.91a3.29,3.29,0,0,1-3.68.54l-7.76-3.2a3.3,3.3,0,0,1-2.23-3v-5.54a2.35,2.35,0,0,0-2.33-2.34h-6.36a2.34,2.34,0,0,0-2.33,2.34v5.54a3.31,3.31,0,0,1-2.24,3l-7.75,3.2a3.31,3.31,0,0,1-3.69-.54l-3.92-3.91a2.31,2.31,0,0,0-3.28,0l-4.51,4.51a2.32,2.32,0,0,0,0,3.29l3.91,3.9a3.32,3.32,0,0,1,.53,3.71l-3.19,7.73a3.31,3.31,0,0,1-3,2.25h-5.54a2.32,2.32,0,0,0-2.33,2.32v6.37a2.34,2.34,0,0,0,2.33,2.32h5.54a3.31,3.31,0,0,1,3,2.25l3.19,7.74a3.29,3.29,0,0,1-.53,3.69l-3.91,3.91a2.34,2.34,0,0,0,0,3.3l4.51,4.49a2.29,2.29,0,0,0,3.28,0l3.92-3.9a3.3,3.3,0,0,1,3.7-.53l7.74,3.19a3.3,3.3,0,0,1,2.24,3v5.55a2.33,2.33,0,0,0,2.33,2.32h6.36a2.34,2.34,0,0,0,2.33-2.32V263.7a3.29,3.29,0,0,1,2.23-3l7.76-3.19a3.27,3.27,0,0,1,3.68.53l3.92,3.9A2.32,2.32,0,0,0,673.1,262Zm-26.4-12.3a18.59,18.59,0,1,1,18.59-18.59A18.59,18.59,0,0,1,646.7,249.65Z" transform="translate(-270.32 -150)"/><path class="cls-2" d="M716.08,279.52l-1.14-3.77a1.44,1.44,0,0,0-1.8-1l-3.28,1a2,2,0,0,1-2.18-.8l-3.3-4a2.09,2.09,0,0,1-.34-2.29l1.62-3a1.45,1.45,0,0,0-.58-2l-3.47-1.86a1.44,1.44,0,0,0-2,.59l-1.62,3a2.07,2.07,0,0,1-2.1,1l-5.17-.52a2,2,0,0,1-1.85-1.37l-1-3.28a1.44,1.44,0,0,0-1.8-1l-3.77,1.13a1.44,1.44,0,0,0-1,1.81l1,3.27a2,2,0,0,1-.81,2.18l-4,3.3a2,2,0,0,1-2.28.34l-3-1.62a1.43,1.43,0,0,0-2,.59l-1.86,3.47a1.46,1.46,0,0,0,.58,2l3,1.63a2,2,0,0,1,1,2.08l-.51,5.17a2,2,0,0,1-1.38,1.86l-3.28,1a1.44,1.44,0,0,0-1,1.8L668,294a1.44,1.44,0,0,0,1.81,1l3.28-1a2.06,2.06,0,0,1,2.17.8l3.3,4a2.07,2.07,0,0,1,.34,2.29l-1.62,3a1.46,1.46,0,0,0,.59,2l3.47,1.86a1.46,1.46,0,0,0,2-.59l1.63-3a2,2,0,0,1,2.09-1l5.16.52a2.06,2.06,0,0,1,1.87,1.38l1,3.28a1.45,1.45,0,0,0,1.81,1l3.77-1.14a1.47,1.47,0,0,0,1-1.79l-1-3.28a2,2,0,0,1,.78-2.18l4-3.3a2.08,2.08,0,0,1,2.29-.35l3,1.62a1.43,1.43,0,0,0,2-.58l1.86-3.48a1.44,1.44,0,0,0-.59-1.95l-3-1.63a2,2,0,0,1-1-2.08l.53-5.18a2,2,0,0,1,1.37-1.86l3.28-1A1.45,1.45,0,0,0,716.08,279.52Zm-14.44,10.81a11.52,11.52,0,1,1-4.71-15.59A11.52,11.52,0,0,1,701.64,290.33Z" transform="translate(-270.32 -150)"/><path class="cls-1" d="M596.81,517.86H428.6a3.31,3.31,0,1,1,0-6.62H596.81a3.31,3.31,0,1,1,0,6.62Z" transform="translate(-270.32 -150)"/><path class="cls-1" d="M1536.06,607.43h-168.2a3.32,3.32,0,0,1,0-6.63h168.2a3.32,3.32,0,1,1,0,6.63Z" transform="translate(-270.32 -150)"/><path class="cls-2" d="M1135.38,429a26.72,26.72,0,0,0-23.05,40.24l.44.74-27,27.05a4.79,4.79,0,0,0-1.33,3.08,5.85,5.85,0,0,0,2,4.1,6.49,6.49,0,0,0,4.52,2.19,5.55,5.55,0,0,0,3.19-1.08l27-27,.75.45A26.72,26.72,0,1,0,1135.38,429Zm0,45.5a18.79,18.79,0,0,1,0-37.57h0a18.79,18.79,0,1,1,0,37.57Z" transform="translate(-270.32 -150)"/><path class="cls-2" d="M1125.48,459.57h19.35v-4.95h-19.35Z" transform="translate(-270.32 -150)"/><path class="cls-1" d="M619.71,948.86a4.36,4.36,0,0,1-4.36-4.36V608.37a4.37,4.37,0,1,1,8.73,0V944.5A4.37,4.37,0,0,1,619.71,948.86Z" transform="translate(-270.32 -150)"/><path class="cls-1" d="M697.82,948.86a4.36,4.36,0,0,1-4.36-4.36V608.37a4.37,4.37,0,1,1,8.73,0V944.5A4.37,4.37,0,0,1,697.82,948.86Z" transform="translate(-270.32 -150)"/><path class="cls-1" d="M697.82,635.7H619.71a4.37,4.37,0,0,1,0-8.73h78.11a4.37,4.37,0,1,1,0,8.73Z" transform="translate(-270.32 -150)"/><path class="cls-1" d="M697.82,674.11H619.71a4.37,4.37,0,0,1,0-8.73h78.11a4.37,4.37,0,1,1,0,8.73Z" transform="translate(-270.32 -150)"/><path class="cls-1" d="M697.82,712.51H619.71a4.37,4.37,0,0,1,0-8.73h78.11a4.37,4.37,0,1,1,0,8.73Z" transform="translate(-270.32 -150)"/><path class="cls-1" d="M697.82,750.91H619.71a4.37,4.37,0,0,1,0-8.73h78.11a4.37,4.37,0,1,1,0,8.73Z" transform="translate(-270.32 -150)"/><path class="cls-1" d="M697.82,789.31H619.71a4.37,4.37,0,0,1,0-8.73h78.11a4.37,4.37,0,1,1,0,8.73Z" transform="translate(-270.32 -150)"/><path class="cls-1" d="M697.82,827.71H619.71a4.37,4.37,0,0,1,0-8.73h78.11a4.37,4.37,0,1,1,0,8.73Z" transform="translate(-270.32 -150)"/><path class="cls-1" d="M697.82,866.11H619.71a4.37,4.37,0,0,1,0-8.73h78.11a4.37,4.37,0,1,1,0,8.73Z" transform="translate(-270.32 -150)"/><path class="cls-1" d="M697.82,904.51H619.71a4.37,4.37,0,0,1,0-8.73h78.11a4.37,4.37,0,1,1,0,8.73Z" transform="translate(-270.32 -150)"/><path class="cls-1" d="M558.51,702.79a3.32,3.32,0,0,1-3.31-3.32V686.58a3.31,3.31,0,1,1,6.62,0v12.89A3.32,3.32,0,0,1,558.51,702.79Z" transform="translate(-270.32 -150)"/><path class="cls-1" d="M565,696.34h-12.9a3.32,3.32,0,0,1,0-6.63H565a3.32,3.32,0,0,1,0,6.63Z" transform="translate(-270.32 -150)"/><path class="cls-1" d="M361.46,629.5a4.69,4.69,0,0,1-4.69-4.69V606.57a4.69,4.69,0,1,1,9.38,0v18.24A4.69,4.69,0,0,1,361.46,629.5Z" transform="translate(-270.32 -150)"/><path class="cls-1" d="M370.58,620.38H352.34a4.69,4.69,0,0,1,0-9.38h18.24a4.69,4.69,0,0,1,0,9.38Z" transform="translate(-270.32 -150)"/><path class="cls-1" d="M960.87,909.23a3.56,3.56,0,0,1-.91-.12l-12.4-3.54a3.32,3.32,0,0,1,1.81-6.38l12.41,3.54a3.31,3.31,0,0,1-.91,6.5Z" transform="translate(-270.32 -150)"/><path class="cls-1" d="M952.9,913.66a3.5,3.5,0,0,1-.91-.12,3.32,3.32,0,0,1-2.28-4.1l3.54-12.4a3.31,3.31,0,1,1,6.37,1.82l-3.54,12.4A3.31,3.31,0,0,1,952.9,913.66Z" transform="translate(-270.32 -150)"/><path class="cls-4" d="M1204.64,299.41h0" transform="translate(-270.32 -150)"/><path class="cls-1" d="M1204.64,304.13c6.08,0,6.09-9.45,0-9.45s-6.09,9.45,0,9.45Z" transform="translate(-270.32 -150)"/><path class="cls-1" d="M1313.9,176.1H1160.67a4.88,4.88,0,0,1,0-9.75H1313.9a4.88,4.88,0,0,1,0,9.75Z" transform="translate(-270.32 -150)"/><path class="cls-1" d="M1246.41,248.31a4.82,4.82,0,0,1-1.34-.19l-18.25-5.21a4.88,4.88,0,0,1,2.68-9.38l18.25,5.22a4.87,4.87,0,0,1-1.34,9.56Z" transform="translate(-270.32 -150)"/><path class="cls-1" d="M1234.68,254.83a5.22,5.22,0,0,1-1.34-.19,4.88,4.88,0,0,1-3.35-6l5.21-18.25a4.88,4.88,0,1,1,9.38,2.68l-5.21,18.25A4.89,4.89,0,0,1,1234.68,254.83Z" transform="translate(-270.32 -150)"/><circle class="cls-2" cx="355.55" cy="240.73" r="63.93" transform="translate(-336.4 171.92) rotate(-45)"/><circle class="cls-2" cx="85.23" cy="90.73" r="47.89"/><path class="cls-1" d="M355.55,290.47a49.75,49.75,0,1,1,49.75-49.74A49.8,49.8,0,0,1,355.55,290.47Zm0-95.79a46,46,0,1,0,46,46A46.1,46.1,0,0,0,355.55,194.68Z" transform="translate(-270.32 -150)"/><path class="cls-1" d="M355.55,242.58a1.85,1.85,0,0,1-1.86-1.85V216.34a1.86,1.86,0,0,1,3.71,0v24.39A1.85,1.85,0,0,1,355.55,242.58Z" transform="translate(-270.32 -150)"/><path class="cls-1" d="M384.12,242.58H355.55a1.86,1.86,0,1,1,0-3.71h28.57a1.86,1.86,0,0,1,0,3.71Z" transform="translate(-270.32 -150)"/><path class="cls-1" d="M357.44,198.24a1.89,1.89,0,1,1-1.89-1.89A1.89,1.89,0,0,1,357.44,198.24Z" transform="translate(-270.32 -150)"/><circle class="cls-1" cx="115.27" cy="60.68" r="1.89"/><path class="cls-1" d="M398,242.62a1.9,1.9,0,1,1,1.9-1.89A1.89,1.89,0,0,1,398,242.62Z" transform="translate(-270.32 -150)"/><circle class="cls-1" cx="115.27" cy="120.77" r="1.89"/><path class="cls-1" d="M353.66,283.21a1.89,1.89,0,1,1,1.89,1.89A1.89,1.89,0,0,1,353.66,283.21Z" transform="translate(-270.32 -150)"/><path class="cls-1" d="M324.17,269.43a1.89,1.89,0,1,1,0,2.68A1.88,1.88,0,0,1,324.17,269.43Z" transform="translate(-270.32 -150)"/><circle class="cls-1" cx="42.75" cy="90.73" r="1.89"/><path class="cls-1" d="M326.84,209.35a1.89,1.89,0,1,1-2.67,0A1.88,1.88,0,0,1,326.84,209.35Z" transform="translate(-270.32 -150)"/><path class="cls-1" d="M449.07,216.31H422.23a1.86,1.86,0,0,1,0-3.71h26.84a1.86,1.86,0,1,1,0,3.71Z" transform="translate(-270.32 -150)"/><path class="cls-1" d="M449.07,268.85H422.23a1.86,1.86,0,0,1,0-3.71h26.84a1.86,1.86,0,1,1,0,3.71Z" transform="translate(-270.32 -150)"/><path class="cls-1" d="M482.44,242.59H432.3a1.86,1.86,0,0,1,0-3.71h50.14a1.86,1.86,0,1,1,0,3.71Z" transform="translate(-270.32 -150)"/><rect class="cls-2" x="31.02" y="240.98" width="52.39" height="52.39"/><path class="cls-1" d="M357.79,447.44H297.27V386.92h60.52ZM305.4,439.3h44.26V395.05H305.4Z" transform="translate(-270.32 -150)"/><path class="cls-1" d="M420,402.5H372.6a3.28,3.28,0,0,1,0-6.55H420a3.28,3.28,0,0,1,0,6.55Z" transform="translate(-270.32 -150)"/><path class="cls-1" d="M437.84,438.4H373.75c-2.44,0-4.42-1.47-4.42-3.27s2-3.28,4.42-3.28h64.09c2.45,0,4.43,1.47,4.43,3.28S440.29,438.4,437.84,438.4Z" transform="translate(-270.32 -150)"/><path class="cls-1" d="M461.19,419.44H372.6a3.28,3.28,0,0,1,0-6.55h88.59a3.28,3.28,0,0,1,0,6.55Z" transform="translate(-270.32 -150)"/><rect class="cls-2" x="551.31" y="582.77" width="21.34" height="21.34" transform="translate(853.65 1036.88) rotate(180)"/><path class="cls-1" d="M574.31,605.77H549.65V581.11h24.66ZM553,602.46h18v-18H553Z" transform="translate(-270.32 -150)"/><path class="cls-1" d="M524.3,587.46h19.32a1.34,1.34,0,0,0,0-2.67H524.3a1.34,1.34,0,1,0,0,2.67Z" transform="translate(-270.32 -150)"/><path class="cls-1" d="M517,602.09h26.11c1,0,1.8-.6,1.8-1.33s-.8-1.34-1.8-1.34H517c-1,0-1.81.6-1.81,1.34S516,602.09,517,602.09Z" transform="translate(-270.32 -150)"/><path class="cls-1" d="M507.53,594.36h36.09a1.33,1.33,0,1,0,0-2.66H507.53a1.33,1.33,0,1,0,0,2.66Z" transform="translate(-270.32 -150)"/><rect class="cls-1" x="931.97" y="512.97" width="6.63" height="284.91"/><rect class="cls-2" x="914.9" y="481.81" width="40.77" height="65.63" rx="6.15"/><path class="cls-1" d="M1232.28,678.38l7,1.13c1.56.25,2.24-2.15.66-2.4l-7-1.12c-1.57-.25-2.24,2.14-.66,2.39Z" transform="translate(-270.32 -150)"/><path class="cls-1" d="M1232,663.2a20.59,20.59,0,0,1,5.49-.19c1.59.15,1.58-2.33,0-2.48a22.63,22.63,0,0,0-6.15.27c-1.58.28-.91,2.68.66,2.4Z" transform="translate(-270.32 -150)"/><path class="cls-1" d="M1231.28,649.37l5.36-2.13c1.47-.58.83-3-.66-2.39l-5.36,2.12c-1.47.59-.83,3,.66,2.4Z" transform="translate(-270.32 -150)"/><path class="cls-1" d="M1170.36,680.7a29,29,0,0,0,5.36-1.28c1.5-.52.86-2.92-.66-2.4a28.26,28.26,0,0,1-5.36,1.28c-1.58.22-.91,2.61.66,2.4Z" transform="translate(-270.32 -150)"/><path class="cls-1" d="M1167.13,663a27.37,27.37,0,0,1,6.74,1,1.25,1.25,0,0,0,.67-2.4,30.48,30.48,0,0,0-7.41-1.12,1.24,1.24,0,0,0,0,2.48Z" transform="translate(-270.32 -150)"/><path class="cls-1" d="M1169.3,642.6l5.37,1.71c1.53.48,2.18-1.91.66-2.4L1170,640.2c-1.52-.49-2.18,1.91-.66,2.4Z" transform="translate(-270.32 -150)"/><polygon class="cls-1" points="919.82 801.75 924.24 763.66 945.77 763.66 950.74 801.19 919.82 801.75"/><path class="cls-5" d="M361.63,769.43c-1-6.06-5.27-21.68-14.7-16.73-15.27,8,3.14,38.39-15.25,43.75-1-12.11-3.59-20.46-9.06-20-11.28,1-8.28,27.26-8.47,33.17s-.47,11.91-.74,18c-13.27,2.39-10.65-32.23-18.72-37-12.55-7.44-15.22,9.14-14.87,16.81.58,13,4.09,28.64,16.34,35.57,4,2.28,11.16,4.86,16.7,4.39A175.29,175.29,0,0,0,315,878.09a.11.11,0,0,0,.22,0v0l7.44.4a.57.57,0,0,0,0,.13c-.07,3.27,5,3.28,5.08,0,.09-6.29,4-37.19,4.42-63.37,5.94.89,13.41-1.88,17.68-5C362.47,800.92,364,783.82,361.63,769.43Z" transform="translate(-270.32 -150)"/><path class="cls-6" d="M325.12,882.47a4.12,4.12,0,0,1-2.14-.58,3.55,3.55,0,0,1-1.61-2.08l-5.48-.3-2,.07-.3-1.25a169.09,169.09,0,0,1-2.14-29.46c-6.1,0-12.79-2.83-16-4.63-13.07-7.39-16.49-24.06-17.06-36.74-.23-5.1.84-15.65,6.55-19.07,2.9-1.74,6.42-1.41,10.45,1s5.39,9.42,7.11,17.65c2.33,11.14,4.43,19.16,9.54,19.29l.12-2.74c.21-4.73.42-9.41.56-14,0-.9,0-2.28-.08-4-.35-10.33-1-29.56,9.83-30.55a5.93,5.93,0,0,1,4.53,1.46c3,2.54,5,8.43,5.9,18,6.85-3.06,6.5-11,6.09-20.1s-.83-18.71,7.26-22.95a7.8,7.8,0,0,1,7.45-.32c6.75,3.37,9.06,16.58,9.3,18.07h0c1.79,11,2.55,31.2-12.38,42.16-4.17,3-11.18,5.73-17.14,5.42-.38,17.1-2.13,35.93-3.31,48.51-.58,6.31-1.05,11.29-1.08,13.33a3.76,3.76,0,0,1-1.93,3.33A4.29,4.29,0,0,1,325.12,882.47Zm-8.95-5.76,7.91.42,0,1.38c0,.65.21.86.39,1a1.47,1.47,0,0,0,1.38,0,.94.94,0,0,0,.48-.9c0-2.15.48-6.93,1.1-13.55,1.2-12.92,3-32.44,3.32-49.82l0-1.61,1.59.24c5.48.81,12.66-1.85,16.64-4.76,13.72-10.07,12.95-29,11.27-39.42h0c-.74-4.56-3.31-13.78-7.78-16a5,5,0,0,0-4.88.3c-6.5,3.41-6.14,11.63-5.75,20.33.43,9.57.91,20.42-9.76,23.53l-1.66.48-.14-1.73c-1-12.07-3.29-16.38-5.07-17.87a3.15,3.15,0,0,0-2.45-.8c-8.19.74-7.57,18.91-7.27,27.64.07,1.78.11,3.23.08,4.17-.14,4.61-.35,9.31-.56,14l-.23,5.1-1.11.19c-9.08,1.63-11.64-10.6-13.9-21.39-1.45-6.95-2.95-14.13-5.79-15.81-3.07-1.82-5.62-2.16-7.56-1-4.2,2.52-5.41,11.48-5.18,16.53.53,12,3.68,27.65,15.62,34.4,4.13,2.33,10.86,4.63,15.9,4.22l1.53-.13v1.54A175.14,175.14,0,0,0,316.17,876.71Z" transform="translate(-270.32 -150)"/><path class="cls-1" d="M347,948.49H293.09a5.69,5.69,0,0,1-5.72-4.68L275.13,881l5.08-1,12.25,62.86a.57.57,0,0,0,.63.49H347a.58.58,0,0,0,.64-.49L359.8,880l5.09,1-12.15,62.86A5.67,5.67,0,0,1,347,948.49Z" transform="translate(-270.32 -150)"/><path class="cls-2" d="M275.68,860.73h89.51c1.53,0,2.78,1.69,2.78,3.75v13.61c0,2.07-1.25,3.75-2.78,3.75H275.68c-1.53,0-2.78-1.68-2.78-3.75V864.48C272.9,862.42,274.15,860.73,275.68,860.73Z" transform="translate(-270.32 -150)"/><path class="cls-1" d="M365.19,883.25H275.68c-2.31,0-4.19-2.31-4.19-5.16V864.48c0-2.84,1.88-5.16,4.19-5.16h89.51c2.31,0,4.19,2.32,4.19,5.16v13.61C369.38,880.94,367.5,883.25,365.19,883.25Zm-89.51-21.11c-.65,0-1.37,1-1.37,2.34v13.61c0,1.34.72,2.34,1.37,2.34h89.51c.65,0,1.37-1,1.37-2.34V864.48c0-1.34-.72-2.34-1.37-2.34Z" transform="translate(-270.32 -150)"/><path class="cls-2" d="M365.19,883H275.68c-2.18,0-3.95-2.21-3.95-4.93V864.48c0-2.72,1.77-4.93,3.95-4.93h89.51c2.18,0,4,2.21,4,4.93v13.61C369.15,880.81,367.37,883,365.19,883Zm-89.51-21.11c-.76,0-1.6,1.06-1.6,2.57v13.61c0,1.52.84,2.57,1.6,2.57h89.51c.76,0,1.6-1,1.6-2.57V864.48c0-1.51-.84-2.57-1.6-2.57Z" transform="translate(-270.32 -150)"/><path class="cls-1" d="M365.19,884.43H275.68c-3,0-5.36-2.84-5.36-6.34V864.48c0-3.49,2.4-6.34,5.36-6.34h89.51c3,0,5.37,2.85,5.37,6.34v13.61C370.56,881.59,368.15,884.43,365.19,884.43Zm-89.35-21.11a1.79,1.79,0,0,0-.35,1.16v13.61a1.62,1.62,0,0,0,.4,1.21l89.3,0c-.1,0,.19-.44.19-1.16V864.48a1.62,1.62,0,0,0-.4-1.21Z" transform="translate(-270.32 -150)"/><path class="cls-6" d="M285.44,807.29l4.41.57c1.59.2,1.57-2.29,0-2.49l-4.41-.56c-1.58-.2-1.57,2.28,0,2.48Z" transform="translate(-270.32 -150)"/><path class="cls-6" d="M291.94,787.75V790a1.24,1.24,0,0,0,2.48,0v-2.21a1.24,1.24,0,0,0-2.48,0Z" transform="translate(-270.32 -150)"/><path class="cls-6" d="M300.53,810.54l3.23-1.8a1.24,1.24,0,0,0-1.25-2.15l-3.23,1.8a1.24,1.24,0,0,0,1.25,2.15Z" transform="translate(-270.32 -150)"/><path class="cls-6" d="M287.77,839.12l3.89-2.72c1.3-.91.06-3.06-1.25-2.14l-3.9,2.72c-1.3.91-.06,3.06,1.26,2.14Z" transform="translate(-270.32 -150)"/><path class="cls-6" d="M278.45,817.76l2.77,1.08c1.49.59,2.14-1.81.66-2.39l-2.76-1.09c-1.49-.58-2.14,1.82-.67,2.4Z" transform="translate(-270.32 -150)"/><path class="cls-6" d="M296.49,829.29a1.8,1.8,0,0,1,1.31.77c1,1.23,2.77-.54,1.75-1.76a4.11,4.11,0,0,0-3.06-1.49c-1.59-.11-1.59,2.37,0,2.48Z" transform="translate(-270.32 -150)"/><path class="cls-6" d="M301.94,841a8.37,8.37,0,0,0,.61,4.84c.62,1.47,2.76.21,2.14-1.25a5.25,5.25,0,0,1-.35-2.93c.24-1.56-2.15-2.23-2.4-.66Z" transform="translate(-270.32 -150)"/><path class="cls-6" d="M314.92,841.44l2.2.59a1.25,1.25,0,0,0,.66-2.4l-2.2-.58a1.24,1.24,0,0,0-.66,2.39Z" transform="translate(-270.32 -150)"/><path class="cls-6" d="M322.85,817a4.15,4.15,0,0,0,1.49,3.61c1.22,1,3-.72,1.76-1.76a1.89,1.89,0,0,1-.76-1.85c.14-1.6-2.34-1.59-2.49,0Z" transform="translate(-270.32 -150)"/><path class="cls-6" d="M319.7,799.26a3.85,3.85,0,0,0-.64,3.17c.28,1.57,2.67.91,2.4-.66a1.35,1.35,0,0,1,.39-1.25c.94-1.29-1.21-2.53-2.15-1.26Z" transform="translate(-270.32 -150)"/><path class="cls-6" d="M333.35,806.53v2.2a1.24,1.24,0,0,0,2.48,0v-2.2a1.24,1.24,0,0,0-2.48,0Z" transform="translate(-270.32 -150)"/><path class="cls-6" d="M310.22,802.63c.55.37,1.1.74,1.66,1.1,1.33.89,2.57-1.26,1.25-2.14l-1.66-1.11c-1.33-.89-2.58,1.27-1.25,2.15Z" transform="translate(-270.32 -150)"/><path class="cls-6" d="M314.38,782a3.07,3.07,0,0,1,.77,1.87c.12,1.58,2.61,1.6,2.49,0a6,6,0,0,0-1.51-3.63c-1-1.22-2.79.55-1.75,1.76Z" transform="translate(-270.32 -150)"/><path class="cls-6" d="M320.65,774.5v3.32a1.24,1.24,0,0,0,2.48,0V774.5a1.24,1.24,0,0,0-2.48,0Z" transform="translate(-270.32 -150)"/><path class="cls-6" d="M336,789.1c.36.38.72.75,1.07,1.13,1.11,1.16,2.86-.6,1.76-1.76l-1.08-1.13c-1.1-1.16-2.86.6-1.75,1.76Z" transform="translate(-270.32 -150)"/><path class="cls-6" d="M338.47,774.29l3.3.19c1.6.09,1.6-2.39,0-2.48l-3.3-.19c-1.6-.09-1.59,2.39,0,2.48Z" transform="translate(-270.32 -150)"/><path class="cls-6" d="M342,754.4l2.21,2.21a1.25,1.25,0,0,0,1.76-1.76l-2.21-2.21A1.25,1.25,0,0,0,342,754.4Z" transform="translate(-270.32 -150)"/><path class="cls-6" d="M351.57,748v3.87a1.24,1.24,0,0,0,2.48,0V748a1.24,1.24,0,0,0-2.48,0Z" transform="translate(-270.32 -150)"/><path class="cls-6" d="M356.07,771.25l1.09-1.66c.89-1.34-1.26-2.59-2.14-1.25l-1.1,1.66c-.88,1.34,1.27,2.58,2.15,1.25Z" transform="translate(-270.32 -150)"/><path class="cls-6" d="M347.65,795.65l2.77-1.08c1.47-.57.83-3-.66-2.39L347,793.26c-1.47.57-.83,3,.67,2.39Z" transform="translate(-270.32 -150)"/><path class="cls-6" d="M358.64,792.18l2.76-.57c1.56-.32.9-2.72-.66-2.39l-2.76.57c-1.56.32-.9,2.72.66,2.39Z" transform="translate(-270.32 -150)"/><path class="cls-6" d="M351.57,803.77v.55a1.24,1.24,0,0,0,2.48,0v-.55a1.24,1.24,0,0,0-2.48,0Z" transform="translate(-270.32 -150)"/><path class="cls-6" d="M330.23,841.81l1.66-1.11c1.32-.88.08-3-1.26-2.14l-1.65,1.1c-1.33.88-.09,3,1.25,2.15Z" transform="translate(-270.32 -150)"/><path class="cls-6" d="M328.78,851a7.06,7.06,0,0,1,3.38-1.81c1.56-.36.9-2.76-.66-2.39a9.38,9.38,0,0,0-4.48,2.45c-1.15,1.11.61,2.86,1.76,1.75Z" transform="translate(-270.32 -150)"/><path class="cls-6" d="M318.55,852.46l.56,1.1c.72,1.42,2.87.17,2.14-1.26l-.56-1.1c-.72-1.42-2.87-.16-2.14,1.26Z" transform="translate(-270.32 -150)"/><path class="cls-6" d="M309.09,855.13a6.15,6.15,0,0,0,4.29.59c1.56-.31.9-2.71-.66-2.39a3.34,3.34,0,0,1-2.38-.35c-1.42-.73-2.68,1.41-1.25,2.15Z" transform="translate(-270.32 -150)"/><path class="cls-6" d="M329.63,831.57l5-.63c1.56-.19,1.58-2.68,0-2.48l-5,.62c-1.57.2-1.59,2.68,0,2.49Z" transform="translate(-270.32 -150)"/><rect class="cls-1" x="1016.83" y="127.25" width="3.6" height="231.39"/><path class="cls-1" d="M1303.64,508.64A14.69,14.69,0,1,1,1289,494,14.69,14.69,0,0,1,1303.64,508.64Z" transform="translate(-270.32 -150)"/><path class="cls-1" d="M1289.16,557.91a13,13,0,0,1-8.54-3.54c-2.34-2.33-3.52-5.57-3.52-9.62a1.95,1.95,0,0,1,3.89,0c0,3,.8,5.3,2.37,6.87a9.21,9.21,0,0,0,5.8,2.41,9.94,9.94,0,0,0,0-19.88,1.94,1.94,0,0,1-1.94-1.94v-10.8a1.94,1.94,0,1,1,3.88,0v9a13.82,13.82,0,0,1-1.94,27.51Z" transform="translate(-270.32 -150)"/><path class="cls-1" d="M1212,567a1.8,1.8,0,0,1,0-3.56l79.5-11.71a1.8,1.8,0,1,1,.53,3.56L1212.59,567A1.82,1.82,0,0,1,1212,567Z" transform="translate(-270.32 -150)"/><path class="cls-1" d="M1364.63,593.42a2.14,2.14,0,0,1-.52-.18L1291,555.07a1.8,1.8,0,0,1,1.67-3.2L1365.78,590a1.81,1.81,0,0,1-1.15,3.38Z" transform="translate(-270.32 -150)"/><rect class="cls-2" x="1156.7" y="578.95" width="235.13" height="151.29" rx="5.87" transform="translate(-139.44 -358.49) rotate(9.86)"/><path class="cls-1" d="M1361.33,748.69a21.89,21.89,0,0,1-3.77-.32l-193.34-33.6a21.92,21.92,0,0,1-17.85-25.36l19.24-110.74A22,22,0,0,1,1191,560.82l193.34,33.6a21.92,21.92,0,0,1,17.85,25.35l-19.24,110.75A22,22,0,0,1,1361.33,748.69ZM1187.21,565.46a17,17,0,0,0-16.7,14.06l-19.25,110.74a17,17,0,0,0,13.81,19.62l193.34,33.59a17,17,0,0,0,19.61-13.8l19.24-110.75a17,17,0,0,0-13.8-19.61l-193.34-33.6A17,17,0,0,0,1187.21,565.46Z" transform="translate(-270.32 -150)"/><rect class="cls-2" x="1166.99" y="590.66" width="214.55" height="127.87" rx="3.75" transform="matrix(0.99, 0.17, -0.17, 0.99, -139.44, -358.49)"/><path class="cls-1" d="M1358.93,736.49a15,15,0,0,1-2.58-.22l-186.91-32.48a14.89,14.89,0,0,1-12.13-17.24l17.63-101.5a14.91,14.91,0,0,1,17.24-12.13l186.91,32.47a14.92,14.92,0,0,1,12.13,17.24l-17.63,101.5a14.92,14.92,0,0,1-14.66,12.36Zm-1.74-5.12a9.93,9.93,0,0,0,11.5-8.08l17.64-101.51a10,10,0,0,0-8.09-11.49l-186.91-32.48a10,10,0,0,0-11.49,8.09L1162.2,687.4a9.95,9.95,0,0,0,8.09,11.5Z" transform="translate(-270.32 -150)"/><polygon class="cls-2" points="997.81 568.42 1046.4 523.89 1073.29 581.53 997.81 568.42"/><path class="cls-1" d="M1346.45,733.71l-81.93-14.24,52.74-48.33Zm-74.72-16.34,69,12-24.59-52.72Z" transform="translate(-270.32 -150)"/><polygon class="cls-2" points="901.74 551.73 987.88 472.77 1035.55 574.98 901.74 551.73"/><path class="cls-1" d="M1308.71,727.15l-140.26-24.37L1258.74,620Zm-133.06-26.48L1303,722.8l-45.38-97.28Z" transform="translate(-270.32 -150)"/><path class="cls-2" d="M1360.62,637.74a12,12,0,1,1-9.8-13.93A12,12,0,0,1,1360.62,637.74Z" transform="translate(-270.32 -150)"/><path class="cls-1" d="M1348.78,649.39a13.7,13.7,0,1,1,7.86-2.5A13.64,13.64,0,0,1,1348.78,649.39Zm0-24.1A10.4,10.4,0,1,0,1359,637.46h0a10.4,10.4,0,0,0-8.46-12A10.93,10.93,0,0,0,1348.73,625.29Z" transform="translate(-270.32 -150)"/><rect class="cls-2" x="987.02" y="119.46" width="180.56" height="19.87"/><path class="cls-1" d="M1594.82,680.26h-59.94v-530h59.94Zm-54-5.92h48.09V156.19H1540.8Z" transform="translate(-270.32 -150)"/><path class="cls-1" d="M1594.07,208.44h-58.44V150h58.44Zm-52.44-6h46.43V156h-46.43Z" transform="translate(-270.32 -150)"/><rect class="cls-1" x="1561.84" y="142.14" width="6.01" height="74.15" transform="translate(61.29 1009) rotate(-45)"/><rect class="cls-1" x="1527.77" y="176.22" width="74.15" height="6.01" transform="translate(61.29 1009.01) rotate(-45)"/><path class="cls-1" d="M1594.07,260.87h-58.44V202.43h58.44Zm-52.44-6h46.43V208.44h-46.43Z" transform="translate(-270.32 -150)"/><rect class="cls-1" x="1561.84" y="194.58" width="6.01" height="74.15" transform="translate(24.21 1024.36) rotate(-45)"/><rect class="cls-1" x="1527.77" y="228.65" width="74.15" height="6.01" transform="translate(24.21 1024.36) rotate(-45)"/><path class="cls-1" d="M1594.07,313.3h-58.44V254.86h58.44Zm-52.44-6h46.43V260.87h-46.43Z" transform="translate(-270.32 -150)"/><rect class="cls-1" x="1561.84" y="247.01" width="6.01" height="74.15" transform="translate(-12.87 1039.71) rotate(-45)"/><rect class="cls-1" x="1527.77" y="281.08" width="74.15" height="6.01" transform="translate(-12.83 1039.77) rotate(-45)"/><path class="cls-1" d="M1594.07,365.74h-58.44V307.3h58.44Zm-52.44-6h46.43V313.3h-46.43Z" transform="translate(-270.32 -150)"/><rect class="cls-1" x="1561.84" y="299.44" width="6.01" height="74.15" transform="translate(-49.94 1055.07) rotate(-45)"/><rect class="cls-1" x="1527.77" y="333.51" width="74.15" height="6.01" transform="translate(-49.94 1055.08) rotate(-45)"/><path class="cls-1" d="M1594.07,418.17h-58.44V359.73h58.44Zm-52.44-6h46.43V365.74h-46.43Z" transform="translate(-270.32 -150)"/><rect class="cls-1" x="1561.84" y="351.87" width="6.01" height="74.15" transform="translate(-87.01 1070.43) rotate(-45)"/><rect class="cls-1" x="1527.77" y="385.94" width="74.15" height="6.01" transform="translate(-86.98 1070.49) rotate(-45)"/><path class="cls-1" d="M1594.07,470.6h-58.44V412.16h58.44Zm-52.44-6h46.43V418.17h-46.43Z" transform="translate(-270.32 -150)"/><rect class="cls-1" x="1561.84" y="404.31" width="6.01" height="74.15" transform="translate(-124.09 1085.78) rotate(-45)"/><rect class="cls-1" x="1527.77" y="438.38" width="74.15" height="6.01" transform="translate(-124.06 1085.84) rotate(-45)"/><path class="cls-1" d="M1594.07,523h-58.44V464.59h58.44Zm-52.44-6h46.43V470.6h-46.43Z" transform="translate(-270.32 -150)"/><rect class="cls-1" x="1561.84" y="456.74" width="6.01" height="74.15" transform="translate(-161.16 1101.15) rotate(-45)"/><rect class="cls-1" x="1527.77" y="490.81" width="74.15" height="6.01" transform="translate(-161.13 1101.2) rotate(-45)"/><path class="cls-1" d="M1594.07,575.47h-58.44V517h58.44Zm-52.44-6h46.43V523h-46.43Z" transform="translate(-270.32 -150)"/><rect class="cls-1" x="1561.84" y="509.17" width="6.01" height="74.15" transform="translate(-198.24 1116.5) rotate(-45)"/><rect class="cls-1" x="1527.77" y="543.24" width="74.15" height="6.01" transform="translate(-198.21 1116.56) rotate(-45)"/><path class="cls-1" d="M1594.07,627.9h-58.44V569.46h58.44Zm-52.44-6h46.43V575.47h-46.43Z" transform="translate(-270.32 -150)"/><rect class="cls-1" x="1561.84" y="561.6" width="6.01" height="74.15" transform="translate(-235.31 1131.86) rotate(-45)"/><rect class="cls-1" x="1527.77" y="595.67" width="74.15" height="6.01" transform="translate(-235.29 1131.92) rotate(-45)"/><path class="cls-1" d="M1594.07,680.33h-58.44V621.89h58.44Zm-52.44-6h46.43V627.9h-46.43Z" transform="translate(-270.32 -150)"/><rect class="cls-1" x="1561.84" y="614.03" width="6.01" height="74.15" transform="translate(-272.39 1147.21) rotate(-45)"/><rect class="cls-1" x="1527.77" y="648.11" width="74.15" height="6.01" transform="translate(-272.51 1146.92) rotate(-44.99)"/><path class="cls-1" d="M1698.4,260.08H1640V201.64h58.44Zm-52.44-6h46.43V207.65H1646Z" transform="translate(-270.32 -150)"/><rect class="cls-1" x="1632.1" y="227.86" width="74.15" height="6.01" transform="translate(55.52 1098.16) rotate(-45.01)"/><rect class="cls-1" x="1666.17" y="193.79" width="6.01" height="74.15" transform="translate(55.33 1097.9) rotate(-45)"/><path class="cls-1" d="M1646,260.08h-58.43V201.64H1646Zm-52.43-6H1640V207.65h-46.43Z" transform="translate(-270.32 -150)"/><rect class="cls-1" x="1579.67" y="227.86" width="74.15" height="6.01" transform="translate(40.16 1061.07) rotate(-45.01)"/><rect class="cls-1" x="1613.74" y="193.79" width="6.01" height="74.15" transform="translate(39.97 1060.82) rotate(-45)"/><path class="cls-1" d="M1593.53,260.08h-58.44V201.64h58.44Zm-52.43-6h46.43V207.65H1541.1Z" transform="translate(-270.32 -150)"/><path class="cls-1" d="M1541.1,260.08h-58.44V201.64h58.44Zm-52.43-6h46.42V207.65h-46.42Z" transform="translate(-270.32 -150)"/><rect class="cls-1" x="1474.8" y="227.86" width="74.15" height="6.01" transform="translate(9.26 986.68) rotate(-45)"/><rect class="cls-1" x="1508.88" y="193.79" width="6.01" height="74.15" transform="translate(9.25 986.67) rotate(-45)"/><path class="cls-1" d="M1488.67,260.08h-58.44V201.64h58.44Zm-52.44-6h46.43V207.65h-46.43Z" transform="translate(-270.32 -150)"/><rect class="cls-1" x="1422.37" y="227.86" width="74.15" height="6.01" transform="translate(-6.1 949.6) rotate(-45)"/><rect class="cls-1" x="1456.44" y="193.79" width="6.01" height="74.15" transform="translate(-6.09 949.61) rotate(-45)"/><path class="cls-1" d="M1436.23,260.08H1377.8V201.64h58.43Zm-52.43-6h46.43V207.65H1383.8Z" transform="translate(-270.32 -150)"/><path class="cls-1" d="M1380.8,260.08h-52.43a3,3,0,0,1-2.13-5.13l52.44-52.43,4.24,4.25-47.3,47.3h43.93l51.56-51.55,4.24,4.25-52.43,52.43A3,3,0,0,1,1380.8,260.08Z" transform="translate(-270.32 -150)"/><rect class="cls-1" x="1404.01" y="193.79" width="6.01" height="74.15" transform="translate(-21.46 912.52) rotate(-45)"/><path class="cls-1" d="M1595,738.7h-60.07V680.26H1595Zm-53.9-6h47.72V686.27h-47.72Z" transform="translate(-270.32 -150)"/><polygon class="cls-1" points="1319.36 587.83 1265.46 535.39 1269.83 531.14 1323.73 583.58 1319.36 587.83"/><polygon class="cls-1" points="1269.83 587.83 1265.46 583.58 1319.36 531.14 1323.73 535.39 1269.83 587.83"/><path class="cls-1" d="M1595,948.43h-60.07V890H1595Zm-53.9-6h47.72V896h-47.72Z" transform="translate(-270.32 -150)"/><polygon class="cls-1" points="1319.36 797.55 1265.46 745.12 1269.83 740.87 1323.73 793.3 1319.36 797.55"/><polygon class="cls-1" points="1269.83 797.55 1265.46 793.3 1319.36 740.87 1323.73 745.12 1269.83 797.55"/><path class="cls-1" d="M1595,786.17h-60.07V727.73H1595Zm-53.9-6h47.72V733.73h-47.72Z" transform="translate(-270.32 -150)"/><polygon class="cls-1" points="1319.36 635.29 1265.46 582.86 1269.83 578.61 1323.73 631.04 1319.36 635.29"/><polygon class="cls-1" points="1269.83 635.29 1265.46 631.04 1319.36 578.61 1323.73 582.86 1269.83 635.29"/><path class="cls-1" d="M1595,838.6h-60.07V780.16H1595Zm-53.9-6h47.72V786.17h-47.72Z" transform="translate(-270.32 -150)"/><polygon class="cls-1" points="1319.36 687.72 1265.46 635.29 1269.83 631.04 1323.73 683.47 1319.36 687.72"/><polygon class="cls-1" points="1269.83 687.72 1265.46 683.47 1319.36 631.04 1323.73 635.29 1269.83 687.72"/><path class="cls-1" d="M1595,891h-60.07V832.59H1595Zm-53.9-6h47.72V838.6h-47.72Z" transform="translate(-270.32 -150)"/><polygon class="cls-1" points="1319.36 740.15 1265.46 687.72 1269.83 683.47 1323.73 735.9 1319.36 740.15"/><polygon class="cls-1" points="1269.83 740.15 1265.46 735.9 1319.36 683.47 1323.73 687.72 1269.83 740.15"/><path class="cls-1" d="M655.59,463" transform="translate(-270.32 -150)"/><path class="cls-1" d="M655.59,468c6.4,0,6.41-9.94,0-9.94s-6.4,9.94,0,9.94Z" transform="translate(-270.32 -150)"/><path class="cls-1" d="M1194.46,359.24" transform="translate(-270.32 -150)"/><path class="cls-1" d="M1194.46,364.21c6.4,0,6.41-9.94,0-9.94s-6.4,9.94,0,9.94Z" transform="translate(-270.32 -150)"/><path class="cls-1" d="M1417.52,714.81h2.21" transform="translate(-270.32 -150)"/><path class="cls-1" d="M1417.52,719.78h2.21a5,5,0,1,0,0-9.94h-2.21a5,5,0,0,0,0,9.94Z" transform="translate(-270.32 -150)"/><path class="cls-1" d="M459,787.69" transform="translate(-270.32 -150)"/><path class="cls-1" d="M459,792.66c6.4,0,6.41-9.94,0-9.94s-6.4,9.94,0,9.94Z" transform="translate(-270.32 -150)"/><path class="cls-1" d="M471,727.45" transform="translate(-270.32 -150)"/><path class="cls-1" d="M471,734.48c9,0,9.06-14.06,0-14.06s-9.07,14.06,0,14.06Z" transform="translate(-270.32 -150)"/><path class="cls-7" d="M684,553.06l-7.36-29h4L684,538.72c.87,3.62,1.64,7.23,2.16,10h.08c.48-2.88,1.38-6.32,2.37-10.07l3.87-14.63h3.92L700,538.77c.81,3.44,1.59,6.88,2,9.94h.09c.6-3.18,1.42-6.41,2.32-10l3.83-14.63H712l-8.22,29H699.9L696.25,538a86.46,86.46,0,0,1-1.9-9.47h-.08A89.94,89.94,0,0,1,692,538l-4.13,15.11Z" transform="translate(-270.32 -150)"/><path class="cls-7" d="M716.22,543.33c.09,5.12,3.36,7.23,7.14,7.23a13.59,13.59,0,0,0,5.77-1.08l.65,2.72a17,17,0,0,1-6.93,1.29c-6.41,0-10.25-4.22-10.25-10.5s3.71-11.24,9.77-11.24c6.8,0,8.61,6,8.61,9.82a13,13,0,0,1-.13,1.76Zm11.1-2.71c0-2.41-1-6.16-5.25-6.16-3.83,0-5.51,3.53-5.81,6.16Z" transform="translate(-270.32 -150)"/><path class="cls-7" d="M756.33,553.06l-.3-2.63h-.13a7.74,7.74,0,0,1-6.37,3.1c-4.22,0-6.37-3-6.37-6,0-5,4.48-7.79,12.53-7.75v-.43c0-1.72-.48-4.82-4.74-4.82a10.35,10.35,0,0,0-5.42,1.55l-.86-2.5a12.92,12.92,0,0,1,6.84-1.85c6.37,0,7.92,4.35,7.92,8.52v7.79a29.18,29.18,0,0,0,.35,5Zm-.56-10.63c-4.13-.09-8.82.64-8.82,4.69a3.35,3.35,0,0,0,3.57,3.61,5.19,5.19,0,0,0,5-3.48,4,4,0,0,0,.21-1.21Z" transform="translate(-270.32 -150)"/><path class="cls-7" d="M765.55,538.72c0-2.45,0-4.56-.18-6.49h3.32l.13,4.09H769a6.25,6.25,0,0,1,5.76-4.57,4.38,4.38,0,0,1,1.08.13v3.58a5.42,5.42,0,0,0-1.29-.14c-2.67,0-4.56,2-5.08,4.87a10.2,10.2,0,0,0-.17,1.76v11.11h-3.74Z" transform="translate(-270.32 -150)"/><path class="cls-7" d="M781.3,543.33c.08,5.12,3.35,7.23,7.14,7.23a13.59,13.59,0,0,0,5.77-1.08l.64,2.72a16.88,16.88,0,0,1-6.93,1.29c-6.41,0-10.24-4.22-10.24-10.5s3.7-11.24,9.77-11.24c6.8,0,8.61,6,8.61,9.82a14.92,14.92,0,0,1-.13,1.76Zm11.1-2.71c0-2.41-1-6.16-5.25-6.16-3.83,0-5.51,3.53-5.81,6.16Z" transform="translate(-270.32 -150)"/><path class="cls-7" d="M813.75,524.05v17.17c0,6.5,2.88,9.25,6.76,9.25,4.3,0,7-2.84,7-9.25V524.05h3.79V541c0,8.91-4.69,12.57-11,12.57-5.94,0-10.42-3.4-10.42-12.4V524.05Z" transform="translate(-270.32 -150)"/><path class="cls-7" d="M837.72,537.86c0-2.15,0-3.91-.17-5.63h3.36l.21,3.44h.09a7.65,7.65,0,0,1,6.88-3.92c2.89,0,7.36,1.73,7.36,8.87v12.44h-3.78v-12c0-3.36-1.25-6.15-4.82-6.15a5.37,5.37,0,0,0-5.08,3.87,5.48,5.48,0,0,0-.26,1.76v12.53h-3.79Z" transform="translate(-270.32 -150)"/><path class="cls-7" d="M879.6,522.5v25.18c0,1.85,0,4,.17,5.38h-3.4l-.17-3.62h-.09a7.71,7.71,0,0,1-7.1,4.09c-5,0-8.91-4.26-8.91-10.59,0-6.93,4.27-11.19,9.34-11.19a7,7,0,0,1,6.29,3.19h.08V522.5Zm-3.79,18.2a6.67,6.67,0,0,0-.17-1.59,5.57,5.57,0,0,0-5.47-4.39c-3.91,0-6.24,3.45-6.24,8,0,4.22,2.07,7.7,6.16,7.7a5.68,5.68,0,0,0,5.55-4.52,6.48,6.48,0,0,0,.17-1.63Z" transform="translate(-270.32 -150)"/><path class="cls-7" d="M888,543.33c.09,5.12,3.36,7.23,7.15,7.23a13.54,13.54,0,0,0,5.76-1.08l.65,2.72a16.88,16.88,0,0,1-6.93,1.29c-6.41,0-10.24-4.22-10.24-10.5s3.7-11.24,9.77-11.24c6.8,0,8.6,6,8.6,9.82a15.38,15.38,0,0,1-.12,1.76Zm11.11-2.71c0-2.41-1-6.16-5.25-6.16-3.83,0-5.51,3.53-5.81,6.16Z" transform="translate(-270.32 -150)"/><path class="cls-7" d="M907.45,538.72c0-2.45-.05-4.56-.17-6.49h3.31l.13,4.09h.17a6.26,6.26,0,0,1,5.77-4.57,4.29,4.29,0,0,1,1.07.13v3.58a5.36,5.36,0,0,0-1.29-.14c-2.67,0-4.56,2-5.08,4.87a11.3,11.3,0,0,0-.17,1.76v11.11h-3.74Z" transform="translate(-270.32 -150)"/><path class="cls-7" d="M955.22,540.32c-.21-4.05-.47-8.91-.43-12.53h-.13c-1,3.4-2.19,7-3.66,11l-5.12,14.07H943l-4.69-13.81c-1.37-4.09-2.54-7.83-3.35-11.28h-.09c-.09,3.62-.3,8.48-.56,12.83l-.78,12.44H930l2-29h4.77l5,14c1.21,3.57,2.2,6.76,2.93,9.77h.13c.73-2.93,1.76-6.11,3.05-9.77l5.17-14h4.77l1.81,29H956Z" transform="translate(-270.32 -150)"/><path class="cls-7" d="M977.05,553.06l-.31-2.63h-.13a7.74,7.74,0,0,1-6.37,3.1c-4.21,0-6.36-3-6.36-6,0-5,4.47-7.79,12.52-7.75v-.43c0-1.72-.47-4.82-4.74-4.82a10.38,10.38,0,0,0-5.42,1.55l-.86-2.5a12.92,12.92,0,0,1,6.84-1.85c6.37,0,7.92,4.35,7.92,8.52v7.79a29.18,29.18,0,0,0,.35,5Zm-.56-10.63c-4.14-.09-8.83.64-8.83,4.69a3.35,3.35,0,0,0,3.57,3.61,5.18,5.18,0,0,0,5-3.48,4,4,0,0,0,.22-1.21Z" transform="translate(-270.32 -150)"/><path class="cls-7" d="M990.47,526.37a2.23,2.23,0,0,1-2.41,2.33,2.25,2.25,0,0,1-2.28-2.33,2.31,2.31,0,0,1,2.37-2.36A2.24,2.24,0,0,1,990.47,526.37Zm-4.22,26.69V532.23H990v20.83Z" transform="translate(-270.32 -150)"/><path class="cls-7" d="M996.33,537.86c0-2.15-.05-3.91-.18-5.63h3.36l.22,3.44h.08a7.68,7.68,0,0,1,6.89-3.92c2.88,0,7.36,1.73,7.36,8.87v12.44h-3.79v-12c0-3.36-1.25-6.15-4.82-6.15a5.38,5.38,0,0,0-5.08,3.87,5.48,5.48,0,0,0-.26,1.76v12.53h-3.78Z" transform="translate(-270.32 -150)"/><path class="cls-7" d="M1024.6,526.25v6H1030v2.88h-5.43v11.23c0,2.59.74,4,2.84,4a8.39,8.39,0,0,0,2.2-.26l.17,2.84a9.25,9.25,0,0,1-3.35.52,5.22,5.22,0,0,1-4.09-1.6c-1.08-1.12-1.47-3-1.47-5.42V535.11h-3.23v-2.88h3.23v-5Z" transform="translate(-270.32 -150)"/><path class="cls-7" d="M1036.14,543.33c.08,5.12,3.36,7.23,7.14,7.23a13.59,13.59,0,0,0,5.77-1.08l.64,2.72a16.87,16.87,0,0,1-6.92,1.29c-6.42,0-10.25-4.22-10.25-10.5s3.7-11.24,9.77-11.24c6.8,0,8.61,6,8.61,9.82a14.92,14.92,0,0,1-.13,1.76Zm11.1-2.71c0-2.41-1-6.16-5.25-6.16-3.83,0-5.51,3.53-5.81,6.16Z" transform="translate(-270.32 -150)"/><path class="cls-7" d="M1055.59,537.86c0-2.15,0-3.91-.17-5.63h3.36l.21,3.44h.09a7.66,7.66,0,0,1,6.89-3.92c2.88,0,7.36,1.73,7.36,8.87v12.44h-3.79v-12c0-3.36-1.25-6.15-4.82-6.15a5.37,5.37,0,0,0-5.08,3.87,5.48,5.48,0,0,0-.26,1.76v12.53h-3.79Z" transform="translate(-270.32 -150)"/><path class="cls-7" d="M1091,553.06l-.31-2.63h-.12a7.76,7.76,0,0,1-6.37,3.1c-4.22,0-6.37-3-6.37-6,0-5,4.47-7.79,12.52-7.75v-.43c0-1.72-.47-4.82-4.73-4.82a10.38,10.38,0,0,0-5.43,1.55l-.86-2.5a12.93,12.93,0,0,1,6.85-1.85c6.37,0,7.91,4.35,7.91,8.52v7.79a29.18,29.18,0,0,0,.35,5Zm-.56-10.63c-4.14-.09-8.83.64-8.83,4.69a3.35,3.35,0,0,0,3.58,3.61,5.18,5.18,0,0,0,5-3.48,4,4,0,0,0,.22-1.21Z" transform="translate(-270.32 -150)"/><path class="cls-7" d="M1100.23,537.86c0-2.15,0-3.91-.18-5.63h3.36l.22,3.44h.08a7.67,7.67,0,0,1,6.89-3.92c2.88,0,7.36,1.73,7.36,8.87v12.44h-3.79v-12c0-3.36-1.25-6.15-4.82-6.15a5.38,5.38,0,0,0-5.08,3.87,5.48,5.48,0,0,0-.26,1.76v12.53h-3.78Z" transform="translate(-270.32 -150)"/><path class="cls-7" d="M1139,552.28a13.86,13.86,0,0,1-6,1.21c-6.28,0-10.37-4.26-10.37-10.63s4.39-11.06,11.19-11.06a12.79,12.79,0,0,1,5.25,1.07l-.86,2.93a8.78,8.78,0,0,0-4.39-1c-4.78,0-7.36,3.53-7.36,7.87,0,4.83,3.1,7.79,7.23,7.79a10.85,10.85,0,0,0,4.65-1Z" transform="translate(-270.32 -150)"/><path class="cls-7" d="M1145.25,543.33c.08,5.12,3.36,7.23,7.14,7.23a13.59,13.59,0,0,0,5.77-1.08l.64,2.72a16.88,16.88,0,0,1-6.93,1.29c-6.41,0-10.24-4.22-10.24-10.5s3.7-11.24,9.77-11.24c6.8,0,8.61,6,8.61,9.82a14.92,14.92,0,0,1-.13,1.76Zm11.1-2.71c0-2.41-1-6.16-5.25-6.16-3.83,0-5.51,3.53-5.81,6.16Z" transform="translate(-270.32 -150)"/><path class="cls-7" d="M1163.28,550.82a2.55,2.55,0,0,1,2.58-2.71,2.71,2.71,0,1,1-2.58,2.71Z" transform="translate(-270.32 -150)"/><path class="cls-1" d="M817.05,600.63l-5-19.85h2.71l2.35,10c.59,2.48,1.12,4.95,1.47,6.87h.06c.33-2,.94-4.33,1.62-6.9l2.65-10h2.68L828,590.85c.56,2.36,1.09,4.71,1.38,6.8h.06c.41-2.17,1-4.38,1.59-6.86l2.62-10h2.62l-5.62,19.85H828l-2.5-10.34a60.23,60.23,0,0,1-1.3-6.48h-.06a59.72,59.72,0,0,1-1.53,6.48l-2.83,10.34Z" transform="translate(-270.32 -150)"/><path class="cls-1" d="M841.05,582.37a1.6,1.6,0,0,1-3.2,0,1.57,1.57,0,0,1,1.61-1.62A1.54,1.54,0,0,1,841.05,582.37Zm-2.88,18.26V586.38h2.59v14.25Z" transform="translate(-270.32 -150)"/><path class="cls-1" d="M845.06,579.72h2.59v20.91h-2.59Z" transform="translate(-270.32 -150)"/><path class="cls-1" d="M852,579.72h2.59v20.91H852Z" transform="translate(-270.32 -150)"/><path class="cls-1" d="M865.08,600.63c.06-1,.12-2.42.12-3.68V579.72h2.56v8.95h.06a5.31,5.31,0,0,1,4.86-2.62c3.53,0,6,3,6,7.27,0,5.1-3.21,7.63-6.39,7.63a5.07,5.07,0,0,1-4.77-2.68h-.09l-.12,2.36Zm2.68-5.71a4.84,4.84,0,0,0,.12.94,4,4,0,0,0,3.89,3c2.71,0,4.33-2.21,4.33-5.48,0-2.85-1.47-5.3-4.24-5.3a4.14,4.14,0,0,0-4,3.18,5.09,5.09,0,0,0-.15,1.06Z" transform="translate(-270.32 -150)"/><path class="cls-1" d="M883.4,594c.06,3.51,2.3,4.95,4.89,4.95a9.49,9.49,0,0,0,4-.73l.44,1.85a11.62,11.62,0,0,1-4.75.88c-4.38,0-7-2.88-7-7.18s2.53-7.69,6.68-7.69c4.66,0,5.89,4.1,5.89,6.72a9.38,9.38,0,0,1-.09,1.2Zm7.6-1.85c0-1.65-.68-4.21-3.59-4.21-2.63,0-3.77,2.41-4,4.21Z" transform="translate(-270.32 -150)"/><path class="cls-1" d="M903,581a25.4,25.4,0,0,1,4.69-.41c2.56,0,4.21.44,5.44,1.45a4.15,4.15,0,0,1,1.65,3.5,4.7,4.7,0,0,1-3.36,4.36V590a5.11,5.11,0,0,1,4.1,5,5.35,5.35,0,0,1-1.68,4c-1.39,1.27-3.62,1.86-6.86,1.86a29.52,29.52,0,0,1-4-.24Zm2.57,8.13h2.32c2.71,0,4.3-1.41,4.3-3.32,0-2.33-1.77-3.24-4.36-3.24a11.69,11.69,0,0,0-2.26.17Zm0,9.52a14.94,14.94,0,0,0,2.15.11c2.65,0,5.09-1,5.09-3.85,0-2.71-2.33-3.83-5.12-3.83h-2.12Z" transform="translate(-270.32 -150)"/><path class="cls-1" d="M926.81,600.63l-.21-1.8h-.09a5.29,5.29,0,0,1-4.36,2.12,4.06,4.06,0,0,1-4.35-4.09c0-3.45,3.06-5.33,8.57-5.3v-.29c0-1.18-.33-3.3-3.24-3.3a7.13,7.13,0,0,0-3.72,1.06l-.58-1.71a8.79,8.79,0,0,1,4.68-1.27c4.36,0,5.42,3,5.42,5.83v5.33a19.72,19.72,0,0,0,.24,3.42Zm-.39-7.27c-2.82-.06-6,.44-6,3.21a2.29,2.29,0,0,0,2.44,2.47,3.55,3.55,0,0,0,3.45-2.39,2.62,2.62,0,0,0,.14-.82Z" transform="translate(-270.32 -150)"/><path class="cls-1" d="M943.27,600.1a9.64,9.64,0,0,1-4.1.82c-4.29,0-7.09-2.91-7.09-7.27a7.24,7.24,0,0,1,7.66-7.57,8.55,8.55,0,0,1,3.59.74l-.59,2a6,6,0,0,0-3-.68c-3.27,0-5,2.42-5,5.39,0,3.3,2.12,5.33,4.95,5.33a7.45,7.45,0,0,0,3.18-.7Z" transform="translate(-270.32 -150)"/><path class="cls-1" d="M948.86,592.91h.07c.34-.5.85-1.12,1.26-1.62l4.18-4.91h3.13L952,592.24l6.27,8.39h-3.15l-4.92-6.83-1.33,1.47v5.36H946.3V579.72h2.56Z" transform="translate(-270.32 -150)"/><path class="cls-1" d="M966.09,597.51a9.16,9.16,0,0,0,4.59,1.29c2.63,0,4.16-1.38,4.16-3.38s-1.06-2.92-3.74-3.95c-3.24-1.15-5.25-2.83-5.25-5.62,0-3.1,2.57-5.39,6.43-5.39a9,9,0,0,1,4.38,1l-.7,2.09a8,8,0,0,0-3.77-.94c-2.71,0-3.74,1.62-3.74,3,0,1.86,1.2,2.77,3.94,3.83,3.36,1.29,5.07,2.92,5.07,5.83s-2.27,5.71-7,5.71a10.36,10.36,0,0,1-5.07-1.26Z" transform="translate(-270.32 -150)"/><path class="cls-1" d="M994,593.38c0,5.28-3.65,7.57-7.1,7.57-3.86,0-6.83-2.82-6.83-7.33,0-4.77,3.12-7.57,7.07-7.57S994,589,994,593.38Zm-11.31.15c0,3.12,1.8,5.48,4.33,5.48s4.33-2.33,4.33-5.54c0-2.41-1.21-5.47-4.27-5.47S982.64,590.82,982.64,593.53Z" transform="translate(-270.32 -150)"/><path class="cls-1" d="M1010.12,593.38c0,5.28-3.65,7.57-7.1,7.57-3.86,0-6.83-2.82-6.83-7.33,0-4.77,3.12-7.57,7.07-7.57S1010.12,589,1010.12,593.38Zm-11.31.15c0,3.12,1.8,5.48,4.33,5.48s4.33-2.33,4.33-5.54c0-2.41-1.21-5.47-4.27-5.47S998.81,590.82,998.81,593.53Z" transform="translate(-270.32 -150)"/><path class="cls-1" d="M1013.39,590.23c0-1.47,0-2.68-.12-3.85h2.3l.14,2.35h.06a5.26,5.26,0,0,1,4.71-2.68c2,0,5,1.18,5,6.07v8.51h-2.59v-8.22c0-2.3-.86-4.21-3.3-4.21a3.7,3.7,0,0,0-3.48,2.65,4,4,0,0,0-.17,1.21v8.57h-2.59Z" transform="translate(-270.32 -150)"/><path class="cls-1" d="M1029.23,599.13a1.73,1.73,0,0,1,1.74-1.83,1.83,1.83,0,0,1,0,3.65A1.72,1.72,0,0,1,1029.23,599.13Zm.73-4.21-.41-14.14h2.83l-.41,14.14Z" transform="translate(-270.32 -150)"/><path class="cls-1" d="M952.87,732.4q31.38-28.35,62.74-56.72c3.1-2.8-1.49-7.37-4.58-4.58q-31.37,28.36-62.74,56.72c-3.09,2.8,1.5,7.37,4.58,4.58Z" transform="translate(-270.32 -150)"/><path class="cls-1" d="M1023.78,761.33l62.74-56.72c3.1-2.8-1.49-7.37-4.58-4.58l-62.74,56.72c-3.1,2.8,1.49,7.37,4.58,4.58Z" transform="translate(-270.32 -150)"/><path class="cls-1" d="M946.73,782.76l131.5-128.22c3-2.92-1.59-7.5-4.58-4.58L942.15,778.18c-3,2.92,1.6,7.5,4.58,4.58Z" transform="translate(-270.32 -150)"/><path class="cls-2" d="M1675.22,763.94V756.1h-40v7.84H1510.47V756.1h-40v7.84h-25.44v84.82h28.58V955h27.43V848.76H1641.9V955h27.44V848.76h29.06V763.94Zm-188,76h-30.17l17-67.1h30.18Zm61.8,0h-30.18l17-67.1H1566Zm61.8,0h-30.18l17-67.1h30.18Zm78.71-66.75-16.91,66.75h-30.19l17-67.1h30.1Z" transform="translate(-270.32 -150)"/><polygon class="cls-1" points="1419.22 622.79 1419.22 623.15 1402.31 689.9 1372.13 689.9 1389.13 622.79 1419.22 622.79"/><polygon class="cls-1" points="1357.52 622.79 1340.52 689.9 1310.33 689.9 1327.33 622.79 1357.52 622.79"/><polygon class="cls-1" points="1295.72 622.79 1278.72 689.9 1248.53 689.9 1265.53 622.79 1295.72 622.79"/><polygon class="cls-1" points="1233.92 622.79 1216.92 689.9 1186.74 689.9 1203.74 622.79 1233.92 622.79"/></g></svg>