<?xml version="1.0" encoding="UTF-8"?>
<!DOCTYPE svg PUBLIC "-//W3C//DTD SVG 1.1//EN" "http://www.w3.org/Graphics/SVG/1.1/DTD/svg11.dtd">
<!-- Creator: CorelDRAW 2020 (64-Bit Evaluation Version) -->
<svg xmlns="http://www.w3.org/2000/svg" xml:space="preserve" width="100px" height="100px" version="1.1" style="shape-rendering:geometricPrecision; text-rendering:geometricPrecision; image-rendering:optimizeQuality; fill-rule:evenodd; clip-rule:evenodd"
viewBox="0 0 16.058 16.081"
 xmlns:xlink="http://www.w3.org/1999/xlink"
 xmlns:xodm="http://www.corel.com/coreldraw/odm/2003">
 <defs>
  <style type="text/css">
   <![CDATA[
    .str1 {stroke:#263674;stroke-width:0.017;stroke-miterlimit:2.61313}
    .str0 {stroke:#EFB30C;stroke-width:0.017;stroke-miterlimit:2.61313}
    .fil3 {fill:#263674;fill-rule:nonzero}
    .fil2 {fill:#424242;fill-rule:nonzero}
    .fil0 {fill:#8E8E8E;fill-rule:nonzero}
    .fil1 {fill:#EFB30C;fill-rule:nonzero}
   ]]>
  </style>
 </defs>
 <g id="Layer_x0020_1">
  <metadata id="CorelCorpID_0Corel-Layer"/>
  <g id="_2618365983312">
   <g>
    <path class="fil0" d="M4.914 1.675c-0.002,0 -0.005,0 -0.009,0.002 -0.015,0.005 -0.039,0.016 -0.043,0.02 -0.004,0.002 -0.045,0.038 -0.045,0.038 -0.002,0.001 -0.005,0.003 -0.004,0.005 0,0 0.021,0.009 0.079,-0.032 0.032,-0.024 0.028,-0.031 0.022,-0.033z"/>
    <path class="fil1" d="M4.819 1.637c-0.002,-0.001 -0.004,0 -0.004,0 -0.009,0.004 -0.031,0.015 -0.035,0.017 -0.004,0.002 -0.01,0.008 -0.008,0.01 0.002,0.001 0.012,-0.002 0.021,-0.008 0.002,-0.002 0.024,-0.015 0.026,-0.019z"/>
    <path class="fil0" d="M4.991 1.561c0.017,-0.004 0.017,-0.004 0.033,-0.011 0.002,0 0.017,-0.008 0.041,-0.021 0,0 0.028,-0.015 0.034,-0.018 -0.002,0 -0.002,0 -0.006,0 -0.001,0 -0.104,0.037 -0.199,0.087l0.052 -0.02c0.015,-0.004 0.028,-0.013 0.045,-0.017z"/>
    <path class="fil1" d="M4.881 1.624c-0.002,0 -0.002,0 0,0 0,-0.001 0.001,-0.003 0.041,-0.02 0.013,-0.006 0.031,-0.013 0.041,-0.019 0.002,-0.002 0.003,-0.002 0.005,-0.004 -0.002,0 -0.005,0 -0.007,0.002 -0.114,0.038 -0.204,0.096 -0.219,0.109 0.01,0.001 0.131,-0.058 0.139,-0.064 -0.002,0 -0.002,-0.002 0,-0.004z"/>
    <path class="fil0" d="M4.996 1.613c0.002,-0.002 0.006,-0.004 0.008,-0.005 0.004,-0.004 0.007,-0.008 0.011,-0.012 0.007,-0.005 0.015,-0.011 0.021,-0.018 0.003,-0.004 0.003,-0.004 0.003,-0.006 0,0 0,0 -0.003,0 -0.023,0.008 -0.064,0.037 -0.066,0.041 0,0 0,0 0,0 0.004,0.002 0.004,0.002 -0.005,0.017 0.001,0.002 0.031,-0.017 0.031,-0.017z"/>
    <path class="fil0" d="M4.711 1.822c-0.002,0 -0.006,0 -0.008,0.002 -0.011,0.004 -0.018,0.008 -0.018,0.008 -0.028,0.013 -0.058,0.037 -0.062,0.039 0,0 0,0 0,0 0.006,0 0.056,-0.021 0.077,-0.036 0.009,-0.003 0.016,-0.011 0.011,-0.013z"/>
    <path class="fil1" d="M4.761 1.94c-0.002,-0.002 -0.005,-0.004 -0.02,-0.002 -0.002,0 -0.006,0.002 -0.01,0.002 -0.024,0.005 -0.05,0.009 -0.074,0.015 -0.03,0.007 -0.129,0.054 -0.142,0.073 0,0 0,0.001 0,0.001 0.007,0.002 0.017,-0.001 0.024,0.004 0.011,0.008 0.009,0.013 0.006,0.017 -0.004,0.007 -0.069,0.056 -0.088,0.065 -0.008,0.004 -0.008,0.004 -0.013,0.004 -0.006,-0.019 0.018,-0.026 0.018,-0.041 -0.013,0.002 -0.072,0.034 -0.08,0.05 0,0.002 -0.002,0.004 -0.002,0.006 0.004,0.015 0.012,0.026 0.015,0.041 0.002,0.006 0.006,0.011 0.004,0.017 0,0.011 -0.007,0.02 -0.006,0.032 0,0.001 0.002,0.003 0.002,0.005 0.019,0.019 0.185,-0.078 0.23,-0.123 0.009,-0.009 0.039,-0.067 0.02,-0.067 -0.02,0 -0.039,0.011 -0.057,0.015 0.039,-0.026 0.082,-0.045 0.121,-0.071 0.004,0.002 0.052,-0.039 0.052,-0.043z"/>
    <path class="fil1" d="M4.287 1.934c0.073,-0.031 0.133,-0.084 0.203,-0.117 -0.07,0.044 -0.07,0.044 -0.074,0.048l0.241 -0.138c0.005,-0.002 0.011,-0.007 0.018,-0.017 -0.002,0 -0.007,0 -0.009,0.002 -0.052,0.023 -0.394,0.207 -0.467,0.267 0.036,-0.004 0.06,-0.034 0.09,-0.048 0,0 -0.002,0.001 -0.002,0.003z"/>
    <path class="fil1" d="M4.287 2.442c-0.002,0 -0.002,0 -0.004,0 -0.003,0.002 -0.007,0.004 -0.017,0.009 -0.031,0.025 -0.054,0.058 -0.089,0.079 -0.056,0.035 -0.075,0.044 -0.077,0.054 0,0 0.002,0.002 0.002,0.002 0.004,0 0.01,0 0.023,-0.004 0.022,-0.004 0.024,-0.004 0.028,-0.002 0.007,0.006 0.005,0.017 0.015,0.021 0.003,0.001 0.018,0 0.033,-0.004 0.099,-0.019 0.138,-0.058 0.138,-0.06 0.012,-0.013 -0.017,-0.063 -0.017,-0.063 -0.007,-0.019 -0.031,-0.032 -0.035,-0.032z"/>
    <path class="fil0" d="M4.425 2.029c-0.002,0 -0.007,0 -0.017,0.002 -0.052,0.015 -0.089,0.047 -0.091,0.053 0,0 0,0 0,0 0.005,0 0.011,-0.002 0.015,0 0.002,0.003 0.002,0.003 -0.004,0.015 -0.004,0.005 -0.011,0.024 0,0.02 0.017,-0.006 0.069,-0.05 0.077,-0.056 0.024,-0.022 0.029,-0.034 0.02,-0.034z"/>
    <path class="fil1" d="M6.76 1.079c-0.035,0.043 -0.127,0.068 -0.175,0.081 -0.002,0 -0.252,0.072 -0.262,0.087 -0.069,0.094 0.105,0.122 0.107,0.122 0.429,-0.032 0.435,-0.026 0.465,0 0.001,0.002 0.201,0.224 0.136,0.343 -0.026,0.049 -0.026,0.051 -0.024,0.058 0.005,0.026 0.035,0.028 0.044,0.05 0.013,0.034 0,0.071 0.019,0.105 0.056,-0.013 0.103,-0.073 0.17,-0.043 0.116,0.05 0.062,0.144 0.062,0.144 -0.047,0.056 -0.133,0.054 -0.176,0.115 -0.024,0.036 -0.047,0.129 -0.028,0.185 0.007,0.026 0.343,0.594 0.504,0.648 -0.08,-1.18 -0.14,-1.715 -0.22,-1.971 0.073,0.224 0.132,0.664 0.22,1.971 0.401,0.076 0.411,0.067 0.435,0.039 0.043,-0.047 0.116,-0.414 0.116,-0.418 0.011,-0.054 -0.019,-0.112 0.013,-0.164 0.016,-0.028 0.018,-0.028 0.119,-0.058 0.316,-0.095 0.316,-0.095 0.325,-0.155 0.009,-0.062 0.013,-0.095 0.071,-0.125 0.138,-0.069 0.297,-0.08 0.435,-0.151 0.056,-0.03 0.117,-0.049 0.17,-0.084 0.001,0 0.026,-0.021 -0.006,-0.062 -0.047,-0.06 -0.118,-0.095 -0.164,-0.159 -0.028,-0.039 -0.028,-0.089 -0.049,-0.132 -0.022,-0.05 -0.013,-0.064 0.015,-0.092 0.039,-0.039 0.011,-0.056 -0.069,-0.102 -0.263,-0.155 -0.265,-0.159 -0.287,-0.194 0.002,-0.004 0.003,-0.008 0.003,-0.012 0.004,-0.001 0.01,-0.003 0.013,-0.005 -0.076,-0.075 -0.231,-0.015 -0.268,-0.159 -0.008,-0.004 -0.019,-0.009 -0.026,-0.013 0.001,-0.007 0.003,-0.015 0.005,-0.022 0.004,0 0.008,-0.002 0.011,-0.002 -0.033,-0.006 -0.134,-0.011 -0.134,-0.011 -0.067,-0.004 -0.151,0.011 -0.166,0.013 -0.058,0.011 -0.107,-0.028 -0.163,-0.03 -0.078,-0.002 -0.248,-0.004 -0.317,0 -0.125,0.007 -0.125,0.007 -0.14,0.017 0,0 0,0 0,0 -0.136,0.007 -0.136,0.007 -0.201,0.02l0 0c-0.002,0 -0.004,0 -0.004,0 0,0 0,0 0.002,0 0.002,0 0.003,0 0.003,0 0.081,0.006 0.081,0.006 0.103,0.011 -0.007,0 -0.007,0 -0.095,0 -0.037,0 -0.05,0 -0.093,0.004 -0.32,0.036 -0.549,0.138 -0.553,0.14 0.009,0.011 0.009,0.011 0.054,0.011z"/>
    <path class="fil1" d="M5.551 2.433c0.016,-0.043 0.009,-0.064 -0.021,-0.058 0,0 -0.091,0.024 -0.108,0.065 -0.009,0.024 0.028,0.084 0.043,0.093 0.035,0.023 0.084,-0.1 0.086,-0.1z"/>
    <path class="fil1" d="M6.2 1.139c-0.02,0.008 -0.041,0.015 -0.061,0.023 0.065,-0.015 0.278,-0.073 0.311,-0.084 -0.142,0.046 -0.253,0.084 -0.373,0.11 -0.028,0.005 -0.035,0.013 -0.047,0.02 0,0.008 -0.011,0.049 -0.031,0.067 -0.064,-0.018 -0.228,0.077 -0.234,0.082 0.015,0.006 0.032,0.004 0.045,0.014 0,0.001 -0.002,0.005 -0.002,0.007 0.021,-0.002 0.03,-0.004 0.099,-0.03 -0.121,0.065 -0.134,0.051 -0.144,0.039 -0.091,0.002 -0.097,0.038 -0.098,0.054 -0.053,0.034 -0.12,0.038 -0.167,0.084 0.002,0.002 0.004,0.004 0.004,0.008 0.015,0 0.024,0.002 0.121,-0.017 0.071,-0.013 0.133,-0.063 0.211,-0.047 -0.005,0.014 -0.005,0.014 -0.022,0.027 0.052,0.011 0.217,-0.069 0.202,-0.111 -0.006,-0.001 -0.013,-0.003 -0.019,-0.003 0.013,-0.017 0.121,-0.086 0.146,-0.092 0.147,-0.035 0.199,-0.091 0.199,-0.102 -0.002,0 -0.005,-0.002 -0.007,-0.002 0.136,-0.036 0.198,-0.053 0.241,-0.08 -0.012,0 -0.012,0 -0.036,0.003 0.002,0 0.31,-0.097 0.325,-0.101 -0.08,0.012 -0.084,0.012 -0.114,0.015 0.077,-0.02 0.155,-0.031 0.231,-0.052 -0.074,0 -0.197,0.015 -0.197,0.015 -0.004,0 -0.299,0.05 -0.364,0.077 0.002,0.003 0.007,0.007 0.011,0.009 -0.013,0.004 -0.023,0.007 -0.054,0.004 -0.023,-0.002 -0.277,0.059 -0.303,0.091 0.013,0 0.017,0.002 0.127,-0.028z"/>
    <path class="fil1" d="M5.008 1.652c-0.006,0.008 -0.01,0.019 -0.017,0.027 -0.01,0.011 -0.012,0.011 -0.043,0.035 0.004,-0.007 0.007,-0.019 0.011,-0.026 0.002,-0.004 0.004,-0.008 0.004,-0.013 -0.002,-0.002 -0.028,0.002 -0.056,0.03 0.003,0 0.005,0 0.009,0 0,0 0,0.002 0,0.003 -0.03,0.027 -0.071,0.03 -0.106,0.049 0.005,0.002 0.011,-0.004 0.016,0 -0.003,0.009 -0.003,0.009 -0.003,0.011 0.005,0.002 0.005,0.002 0.104,-0.03 -0.031,0.017 -0.114,0.064 -0.119,0.084 0,0 0,0.002 0,0.002 0,0 0.112,-0.041 0.125,-0.048 0.009,-0.006 0.009,-0.006 0.073,-0.06 0,0 0.002,0.004 0,0.009 0,0 0,0.002 0,0.002 0.028,-0.028 0.028,-0.028 0.104,-0.09 0.017,-0.013 0.017,-0.014 0.021,-0.018 -0.006,-0.002 -0.006,-0.002 -0.012,0 0,0 -0.098,0.03 -0.108,0.035 -0.002,-0.003 -0.003,-0.002 -0.003,-0.002z"/>
    <path class="fil1" d="M6.083 2.44c0.046,-0.004 0.147,0.123 0.147,0.125 0.024,0.032 0.049,0.064 0.071,0.06 0.063,-0.011 0.157,-0.254 0.159,-0.256 0.002,-0.007 0.003,-0.017 0.003,-0.026l-0.461 -0.104c0.013,-0.01 0.027,-0.019 0.137,-0.07 0.048,-0.022 0.072,-0.031 0.071,-0.044 -0.004,-0.034 -0.167,-0.187 -0.245,-0.2 -0.035,-0.006 -0.073,0.006 -0.106,-0.011 -0.036,-0.017 -0.032,-0.077 -0.081,-0.081 -0.044,-0.003 -0.141,0.034 -0.212,0.06 -0.073,0.028 -0.073,0.026 -0.084,0.026 -0.006,-0.011 -0.01,-0.024 -0.015,-0.128 -0.03,-0.012 -0.122,0.003 -0.148,0.009 -0.138,0.033 -0.552,0.381 -0.476,0.433 0.077,0.052 0.344,-0.002 0.379,-0.019 -0.005,-0.022 -0.009,-0.037 0.107,-0.05 0.098,-0.011 0.112,-0.036 0.123,-0.051 0.024,0.014 0.087,0.068 0.087,0.068 0.034,0.035 0.049,0.085 0.081,0.123 0.039,0.048 0.13,0.043 0.132,0.13 0,0.002 -0.02,0.198 -0.293,0.28 -0.082,0.025 -0.17,0.021 -0.248,0.062 -0.034,0.019 -0.035,0.077 -0.026,0.084 0.015,0.013 0.063,0.019 0.207,-0.03 0.11,-0.037 0.11,-0.037 0.304,0.049 -0.015,0.017 -0.015,0.017 -0.095,0.046 0.043,0.038 0.377,0.109 0.444,0.069 -0.002,-0.011 -0.002,-0.011 -0.02,-0.018 -0.01,-0.004 -0.01,-0.004 -0.157,-0.142 0.116,0.013 0.153,0.028 0.218,0.073 0.013,0.009 0.023,0.015 0.028,0.013 0.038,-0.011 0.099,-0.151 0.069,-0.183 -0.065,-0.067 -0.184,-0.058 -0.222,-0.164 -0.028,-0.086 0.12,-0.133 0.122,-0.133z"/>
    <path class="fil1" d="M4.574 1.781c0.004,0.004 0.03,-0.009 0.051,-0.022 0.004,-0.002 0.011,-0.008 0.013,-0.01 0,0 0,0 0,0 -0.002,0 -0.002,0 -0.004,0 -0.009,0.004 -0.06,0.028 -0.06,0.032z"/>
    <path class="fil0" d="M7.128 2.041l0.071 -0.015c0,0 0.019,-0.008 0.022,-0.021 0.004,-0.009 0,-0.013 -0.003,-0.018 -0.006,-0.012 -0.019,-0.014 -0.027,-0.023 -0.005,-0.005 -0.005,-0.011 -0.005,-0.015 0,-0.002 0,-0.002 -0.002,-0.004 0,0 -0.009,-0.005 -0.034,-0.003 -0.031,0.007 -0.121,0.059 -0.072,0.089 0.013,0.008 0.031,0.013 0.05,0.01z"/>
    <path class="fil1" d="M5.747 1.798c0,0 0,0 0,0 -0.006,-0.013 -0.105,-0.041 -0.178,-0.03 -0.063,0.011 -0.043,0.054 -0.028,0.065 0.047,0.04 0.204,-0.035 0.206,-0.035z"/>
    <path class="fil1 str0" d="M5.25 1.468c-0.02,0.007 -0.054,0.02 -0.06,0.026 0.004,0 0.006,-0.002 0.01,-0.002 0.031,-0.009 0.061,-0.008 0.061,-0.008 -0.003,0.012 -0.018,0.012 -0.02,0.023 0.004,0.005 0.058,-0.017 0.061,-0.019 0.019,-0.009 0.081,-0.063 0.081,-0.075 -0.008,-0.001 -0.015,0.004 -0.023,0.004 0.008,-0.013 0.025,-0.013 0.034,-0.024 -0.002,0 -0.002,0 -0.006,0 -0.056,0.019 -0.129,0.052 -0.138,0.058 0.013,0.004 0.024,-0.006 0.036,-0.004 0,0.006 -0.006,0.009 -0.036,0.021z"/>
    <path class="fil1" d="M4.983 1.763c-0.013,0.009 -0.018,0.013 0.002,0.026 0.017,0.011 0.062,0.002 0.101,-0.032 0.022,-0.019 0.067,-0.065 0.047,-0.067 -0.002,0 -0.006,0 -0.01,0.002 -0.035,0.009 -0.134,0.065 -0.14,0.071z"/>
    <path class="fil1" d="M5.588 1.43c0,0 0,-0.002 0,0 -0.002,-0.002 -0.004,0 -0.006,0 -0.001,0 -0.003,0 -0.003,0.002 -0.028,0.009 -0.056,0.021 -0.084,0.028 -0.034,0.009 -0.068,0.017 -0.099,0.026 -0.025,0.008 -0.038,0.013 -0.043,0.015 0.009,0.002 0.104,-0.013 0.157,-0.028 0.026,-0.007 0.037,-0.011 0.072,-0.035 0,-0.002 0.004,-0.006 0.006,-0.008z"/>
    <path class="fil1" d="M5.351 1.481c0,0 0,0 0,0 0.011,0 0.11,-0.041 0.138,-0.054 0.013,-0.006 0.015,-0.008 0.015,-0.014 0,-0.005 -0.009,-0.003 -0.009,-0.009 0,-0.002 0.002,-0.005 0,-0.009 0,0 0,0 0,-0.002 0,0 -0.002,-0.002 -0.004,-0.002 -0.006,-0.002 -0.008,0 -0.013,0.002 -0.004,0.002 -0.009,0.004 -0.015,0.009 -0.022,0.015 -0.036,0.039 -0.062,0.049 -0.033,0.009 -0.044,0.015 -0.05,0.03z"/>
    <path class="fil0 str0" d="M5.579 1.333c0.069,-0.035 0.069,-0.035 0.071,-0.037 -0.002,0 -0.006,0 -0.008,0.002 0,0 -0.071,0.022 -0.089,0.031 -0.023,0.012 -0.015,0.019 -0.015,0.019 0.003,0.002 0.02,-0.005 0.041,-0.015z"/>
    <path class="fil1" d="M5.73 1.3c0.03,-0.01 0.039,-0.012 0.048,-0.008 0,0.002 0,0.002 0,0.004 -0.009,0.005 -0.018,0.009 -0.048,0.019 -0.08,0.026 -0.101,0.035 -0.107,0.037 -0.018,0.011 -0.02,0.032 -0.011,0.035 0.002,0 0.002,0 0.054,-0.013 0.021,-0.005 0.043,-0.002 0.064,-0.009 0.05,-0.019 0.091,-0.05 0.14,-0.071 0.03,-0.013 0.063,-0.017 0.091,-0.032 0.002,-0.002 0.006,-0.003 0.006,-0.003 -0.002,-0.002 -0.002,-0.002 -0.022,-0.006 0,0 0,-0.002 0,-0.002 0.005,-0.004 0.009,-0.005 0.014,-0.007 0.042,-0.019 0.042,-0.021 0.043,-0.025 -0.003,-0.001 -0.009,0 -0.013,-0.003 0.006,-0.01 0.023,-0.012 0.019,-0.026 0.009,-0.012 0.022,-0.014 0.032,-0.025 -0.002,0 -0.006,0 -0.01,0 -0.05,0.013 -0.229,0.08 -0.248,0.092 0.009,0.002 0.019,-0.002 0.028,-0.004 -0.013,0.011 -0.05,0.021 -0.067,0.022 -0.054,0.013 -0.082,0.043 -0.082,0.045 0.002,0 0.061,-0.017 0.069,-0.02z"/>
    <path class="fil1" d="M5.157 1.764c0.004,0 0.508,-0.052 0.64,-0.183 0.036,-0.035 -0.052,-0.041 -0.054,-0.041 -0.047,-0.001 -0.273,0.077 -0.319,0.096 -0.041,0.016 -0.075,-0.023 -0.066,-0.032 0.004,-0.004 0.012,-0.008 0.027,-0.011 0.082,-0.023 0.041,-0.049 0.031,-0.049 -0.02,-0.002 -0.039,0.011 -0.059,0.013 -0.025,0.004 -0.047,-0.005 -0.071,-0.004 -0.008,0 -0.032,0.004 -0.047,0.008 -0.013,0.006 -0.052,0.047 -0.052,0.056 0.009,0 0.011,0 0.031,-0.008 0.023,-0.007 0.055,-0.018 0.06,-0.014 0.013,0.007 -0.028,0.059 -0.03,0.061 -0.024,0.023 -0.059,0.032 -0.082,0.058 -0.041,0.05 -0.024,0.05 -0.009,0.05z"/>
    <path class="fil1" d="M15.219 7.974c-0.011,-0.199 -0.02,-0.466 -0.041,-0.666 -0.009,-0.06 -0.016,-0.116 -0.024,-0.166 -0.048,-0.159 -0.052,-0.183 -0.146,-0.745 0.002,0.002 0.002,0.006 0.004,0.008 -0.229,-0.764 -0.229,-0.764 -0.233,-0.799 0.002,0.002 0.002,0.002 0.004,0.003 -0.081,-0.238 -0.118,-0.319 -0.228,-0.558l-0.248 -0.481c-0.068,-0.09 -0.146,-0.168 -0.262,-0.243 0.109,0.069 0.194,0.148 0.262,0.243 -0.096,-0.155 -0.217,-0.364 -0.318,-0.515 -0.431,-0.59 -0.44,-0.601 -0.707,-0.889l-0.286 -0.289 0 0c-0.011,-0.009 -0.02,-0.021 -0.031,-0.03 0.013,0.017 0.016,0.022 0.136,0.146 -0.023,-0.013 -0.039,-0.03 -0.06,-0.043 0.034,0.061 0.093,0.095 0.14,0.142 -0.004,0.001 -0.007,0.005 -0.011,0.007 -0.2,-0.162 -0.37,-0.358 -0.571,-0.519 0.101,0.064 0.179,0.155 0.289,0.205 -0.026,-0.046 -0.332,-0.311 -0.534,-0.433 -0.145,-0.087 -0.16,-0.102 -0.175,-0.115 0.007,0.002 0.018,0.007 0.026,0.011 -0.015,-0.013 -0.024,-0.021 -0.065,-0.045 -0.004,0.002 -0.008,0.006 -0.012,0.008 -0.013,-0.006 -0.037,-0.015 -0.134,-0.081 0.009,0.004 0.021,0.008 0.028,0.01 -0.017,-0.04 -0.192,-0.12 -0.207,-0.124 0.007,0.021 0.007,0.021 0.037,0.055 -0.061,-0.021 -0.093,-0.086 -0.153,-0.109 0.011,0.028 0.041,0.041 0.054,0.069 -0.022,0.049 -0.022,0.049 -0.018,0.079 0.005,0.045 0.147,0.295 0.149,0.297 0.106,0.162 0.103,0.22 0.101,0.225 -0.021,0.152 -0.021,0.152 -0.105,0.211 -0.03,0.023 -0.03,0.032 -0.013,0.073 0.002,0.006 0.224,0.526 0.431,0.431 0.066,-0.03 0.034,-0.14 0.017,-0.192 0.017,0.013 0.385,0.379 0.454,0.493 0.031,0.054 0.063,0.106 0.119,0.106 0.011,-0.02 0.017,-0.164 -0.019,-0.231 -0.082,-0.152 -0.063,-0.17 -0.022,-0.207 0.002,-0.038 -0.004,-0.051 -0.11,-0.122 -0.075,-0.048 -0.075,-0.048 -0.174,-0.211 -0.037,-0.061 0.025,-0.14 -0.031,-0.198 -0.148,-0.153 -0.148,-0.153 -0.152,-0.162 -0.002,-0.006 -0.005,-0.013 -0.007,-0.019 0.002,-0.003 0.005,-0.007 0.007,-0.011 0.054,0.019 0.239,0.14 0.252,0.177 -0.003,0 -0.011,0.002 -0.015,0.002 0.142,0.318 0.142,0.318 0.277,0.443 0.117,0.11 0.296,0.093 0.414,0.201 -0.021,-0.003 -0.037,-0.015 -0.056,-0.02 -0.004,0.002 -0.007,0.005 -0.011,0.007 0.007,0.015 0.017,0.026 0.026,0.039 -0.069,-0.02 -0.134,-0.05 -0.205,-0.059 0.078,0.106 0.188,0.186 0.25,0.308 -0.077,-0.004 -0.082,-0.114 -0.164,-0.109 -0.002,0.004 -0.006,0.01 -0.008,0.013 0,0.002 0.093,0.172 0.103,0.183 0.013,0.015 0.074,0.097 0.071,0.133 -0.047,-0.004 -0.047,-0.004 -0.056,-0.002 -0.008,0.015 -0.01,0.03 -0.015,0.045 0.002,0.004 0.005,0.007 0.007,0.011l-0.002 0c-0.216,-0.015 -0.216,-0.015 -0.218,0.006 -0.009,0.005 -0.021,0.013 -0.03,0.018 -0.045,-0.026 -0.103,-0.043 -0.162,-0.054l0.104 0.019c-0.017,-0.013 -0.065,-0.049 -0.149,-0.045 -0.028,0.002 -0.036,0.002 -0.116,-0.091 -0.06,-0.068 -0.129,-0.167 -0.125,-0.252 0.002,-0.036 -0.052,-0.183 -0.091,-0.187 -0.006,0 -0.118,0 -0.097,0.054 0.007,0.024 0.153,0.276 0.255,0.394 0.041,0.048 0.043,0.054 0.045,0.058 -0.006,0.005 -0.006,0.007 -0.037,0.013 -0.023,0.004 -0.051,0.009 -0.073,0.011 -0.006,0.009 -0.015,0.021 -0.021,0.03 -0.115,-0.004 -0.115,-0.004 -0.145,0.028 0.005,0.032 0.017,0.09 0.056,0.196 -0.006,0.009 -0.013,0.022 -0.019,0.032 -0.095,-0.002 -0.095,-0.002 -0.149,0.018 0,0.006 0,0.006 0.041,0.107 -0.022,0.015 -0.054,0.031 -0.08,0.039 0,0.024 -0.008,0.056 -0.017,0.076 -0.11,-0.005 -0.129,-0.018 -0.177,-0.054 0.011,0.021 0.029,0.049 0.044,0.067 -0.003,0.012 -0.007,0.027 -0.011,0.036 -0.022,0.009 -0.052,0.02 -0.076,0.026 -0.055,-0.034 -0.055,-0.034 -0.14,-0.037 -0.004,0.009 -0.012,0.024 -0.015,0.033 0.022,0.019 0.05,0.045 0.072,0.064 -0.009,0.005 -0.02,0.015 -0.029,0.02 0.517,0.144 0.436,0.665 0.433,0.669 -0.241,-0.017 -0.474,-0.09 -0.713,-0.114 0.011,0.02 0.029,0.046 0.046,0.063 0,0.006 0.026,0.65 0.109,0.674 -0.023,0.198 -0.023,0.198 -0.027,0.217 0.168,-0.014 0.204,-0.015 0.275,0 0.028,0.113 0.028,0.113 0.03,0.115l0.392 -0.13c0.108,-0.013 0.136,-0.152 0.076,-0.243 0.062,-0.258 0.065,-0.26 0.228,-0.323 0.002,-0.209 0.002,-0.209 0.02,-0.222 0.075,-0.062 0.133,0.037 0.204,0.037 0.063,-0.114 0.117,-0.186 0.216,-0.101 0.006,0.004 0.553,0.635 0.607,0.811 0.041,0.132 0.022,0.136 -0.209,0.168 0.045,0.076 0.185,0.197 0.187,0.199 0.02,-0.063 -0.019,-0.123 -0.008,-0.185 0.011,0.002 0.024,0.004 0.034,0.004 0.03,-0.043 0.041,-0.095 0.067,-0.138 -0.034,-0.119 -0.034,-0.119 -0.034,-0.164 0.012,-0.002 0.025,-0.006 0.036,-0.01 0.013,0.019 0.033,0.045 0.046,0.064 -0.011,-0.056 -0.011,-0.056 -0.197,-0.28 0.001,-0.011 0.005,-0.024 0.009,-0.036 -0.088,-0.039 -0.157,-0.069 -0.388,-0.545 0.011,-0.016 0.033,-0.037 0.054,-0.044l0.526 0.619c0.002,0.004 0.002,0.004 0.159,0.454l0.166 0.383c0.004,-0.023 0.006,-0.053 0.006,-0.075 0,-0.092 -0.036,-0.176 -0.053,-0.263 -0.058,-0.284 -0.058,-0.284 -0.03,-0.305 0.051,0.012 0.157,0.075 0.18,0.157 0.011,-0.018 0.022,-0.046 0.03,-0.067 0.011,0 0.026,-0.002 0.037,-0.002 0.035,-0.259 -0.149,-0.481 -0.118,-0.741 0.019,-0.007 0.049,-0.005 0.067,0.004 -0.003,0.009 -0.011,0.022 -0.014,0.032 0.033,0.037 0.046,0.048 0.084,0.071 0.011,0.044 0.011,0.044 -0.002,0.115 0.033,0.038 0.05,0.088 0.078,0.129 0.125,-0.073 -0.062,-0.2 -0.024,-0.304 0.056,-0.011 0.065,0.005 0.08,0.048 -0.006,0.01 -0.013,0.025 -0.019,0.034 0.019,0.032 0.019,0.032 0.049,0.142 -0.006,0.009 -0.015,0.02 -0.021,0.03 0.09,0.222 0.293,0.394 0.286,0.659 -0.009,0.005 -0.022,0.013 -0.032,0.016 -0.108,-0.072 -0.102,-0.309 -0.276,-0.265 -0.002,0.021 -0.013,0.049 -0.026,0.064 -0.021,-0.008 -0.049,-0.015 -0.069,-0.021 0.004,0.021 0.018,0.045 0.033,0.058 -0.039,0.034 -0.093,0.013 -0.138,0.036 -0.003,0.024 -0.005,0.056 -0.003,0.08 0.009,0.004 0.022,0.007 0.033,0.009 0.017,0.133 0.051,0.379 0.213,0.515 0.007,-0.007 0.017,-0.018 0.026,-0.026 0,-0.011 0,-0.024 -0.002,-0.035 0.052,0.045 0.071,0.119 0.133,0.157 0.007,-0.021 0.015,-0.051 0.016,-0.071 0.015,0.015 0.04,0.031 0.06,0.039 0.026,0.5 0.032,0.578 -0.024,0.713 -0.073,-0.006 -0.084,-0.023 -0.106,-0.092 -0.021,0 -0.047,0.012 -0.062,0.027 -0.239,-0.017 -0.218,-0.366 -0.469,-0.37 -0.046,0.084 -0.009,0.179 -0.041,0.265 -0.011,0.004 -0.024,0.009 -0.033,0.013 -0.052,-0.037 -0.601,-0.538 -0.64,-0.603 -0.012,-0.02 0.003,-0.058 0.016,-0.076 0.03,-0.049 0.03,-0.049 0.008,-0.344 -0.06,-0.039 -0.071,-0.046 -0.108,-0.065 -0.049,0.037 -0.049,0.037 -0.251,-0.009 -0.016,0.016 -0.037,0.039 -0.048,0.059 -0.261,-0.101 -0.472,0.185 -0.732,0.095 -0.028,-0.001 -0.033,-0.001 -0.039,-0.001 -0.073,0.015 -0.099,0.02 -0.177,-0.075 -0.015,-0.009 -0.015,-0.009 -0.015,-0.009 -0.01,0.009 -0.025,0.018 -0.032,0.029 -0.048,0.06 -0.011,0.144 -0.06,0.204 -0.059,0.075 -0.171,0.073 -0.226,0.155 -0.016,0.024 -0.009,0.067 -0.009,0.095 -0.017,0.315 -0.017,0.315 -0.101,0.357 -0.076,0.037 -0.207,0.138 -0.224,0.164 -0.046,0.076 -0.395,0.679 -0.395,0.679 -0.015,0.161 0.093,0.297 0.095,0.456 0.002,0.132 -0.187,0.196 -0.127,0.349 0.09,0.229 0.213,0.442 0.319,0.664 0.045,0.094 0.379,0.413 0.442,0.407 0.316,-0.03 0.618,-0.147 0.941,-0.114 0.011,0.002 0.023,0.01 0.03,0.017 0.058,0.049 0.017,0.136 0.073,0.185 0.056,0.048 0.129,0.024 0.19,0.045 0.041,0.125 0.041,0.125 -0.009,0.246 0.541,0.101 0.883,0.19 1.131,0.312 -0.243,-0.118 -0.594,-0.213 -1.131,-0.312 -0.144,0.336 -0.144,0.336 -0.121,0.431 0.033,0.151 0.082,0.359 -0.112,0.814 -0.09,0.209 -0.26,0.364 -0.377,0.553 -0.111,0.177 -0.122,0.39 -0.223,0.571 -0.393,0.7 -0.405,0.711 -0.468,0.776 -0.043,0.045 -0.067,0.069 -0.11,0.17 0.201,0.062 0.438,-0.099 0.517,-0.151l0.312 -0.22 0.395 -0.316c0.09,-0.093 0.142,-0.215 0.237,-0.302 0.109,-0.101 0.254,-0.15 0.362,-0.252 0.258,-0.247 0.497,-0.736 0.521,-0.795 0.099,-0.243 0.441,-0.616 0.542,-0.723 0.158,-0.175 0.371,-0.638 0.425,-0.819 -0.041,-0.013 -0.041,-0.013 -0.112,0.002 -0.017,-0.023 -0.017,-0.023 0.017,-0.312 0.013,-0.106 -0.011,-0.213 -0.013,-0.319 -0.006,-0.276 0.048,-0.553 0.024,-0.829l-0.073 -0.874c0.017,0.029 0.017,0.029 0.036,0.154 0.018,-0.015 0.033,-0.047 0.039,-0.071 0.179,0.659 -0.011,1.319 0.011,1.98 0.073,-0.034 0.073,-0.034 0.105,-0.026 0.19,-0.413 0.19,-0.413 0.199,-0.465 -0.001,0.011 -0.003,0.028 -0.005,0.039 0.004,-0.022 0.009,-0.05 0.013,-0.072l0.004 -0.025 0.02 -0.153 0 0c0.009,-0.069 0.019,-0.157 0.036,-0.394 0,0.013 0,0.025 -0.002,0.036 0.005,-0.198 0.018,-0.454 0.018,-0.652zm-0.044 0.766c-0.013,-0.03 -0.013,-0.03 -0.004,-0.278 -0.008,0.078 -0.008,0.078 -0.011,0.113 -0.019,-0.537 -0.012,-0.586 0,-0.655 0.031,0.047 0.044,0.444 0.039,0.674 -0.011,0.093 -0.015,0.108 -0.024,0.146z"/>
    <path class="fil0" d="M15.018 6.392c0.002,0.009 0.005,0.02 0.007,0.029l0.036 0.161c0,-0.002 -0.002,-0.006 -0.002,-0.008 0.013,0.096 0.032,0.189 0.05,0.284 -0.054,-0.351 -0.074,-0.423 -0.157,-0.717 -0.014,-0.044 -0.028,-0.087 -0.041,-0.128 0.084,0.287 0.088,0.298 0.124,0.45 -0.006,-0.025 -0.012,-0.047 -0.017,-0.071z"/>
    <path class="fil0" d="M14.891 5.938c0.004,0.009 0.007,0.019 0.011,0.028 -0.011,-0.034 -0.024,-0.067 -0.032,-0.103 0.004,0.012 0.008,0.023 0.012,0.034l-0.086 -0.252 0.002 0.004c-0.012,-0.028 -0.014,-0.034 -0.017,-0.038 0.033,0.099 0.074,0.226 0.132,0.404 -0.007,-0.027 -0.015,-0.051 -0.022,-0.077z"/>
    <path class="fil0" d="M15.16 7.164c-0.012,-0.102 -0.03,-0.205 -0.051,-0.308 0.011,0.079 0.026,0.172 0.043,0.286 0.004,0.007 0.006,0.015 0.008,0.022z"/>
    <path class="fil1" d="M11.07 3.795c0,0.002 -0.002,0.004 -0.002,0.006 -0.026,0.052 -0.046,0.153 -0.046,0.153 -0.008,0.041 -0.004,0.06 0.009,0.076 0.022,0.028 0.13,0.017 0.207,-0.033 0.021,-0.013 0.037,-0.028 0.058,-0.038 0.024,-0.013 0.058,-0.003 0.076,-0.029 0.012,-0.015 0.006,-0.051 -0.013,-0.103 -0.009,-0.028 -0.02,-0.043 -0.033,-0.062 -0.021,-0.03 -0.023,-0.041 -0.008,-0.072 0.006,-0.014 0.015,-0.036 0.008,-0.064 -0.008,-0.028 -0.028,-0.047 -0.045,-0.058 -0.007,-0.005 -0.021,-0.011 -0.03,-0.017 -0.024,-0.011 -0.052,-0.016 -0.076,-0.028 -0.019,-0.007 -0.025,-0.015 -0.028,-0.018 -0.002,-0.002 -0.002,-0.002 -0.006,-0.002 -0.007,0.002 -0.168,0.041 -0.067,0.099 0.005,0.004 0.009,0.005 0.024,0.007 -0.004,0.004 -0.011,0.008 -0.015,0.01 -0.067,0.033 -0.082,0.048 -0.099,0.065 -0.011,0.011 -0.022,0.03 -0.018,0.06 0.003,0.011 0.009,0.026 0.035,0.037 0.026,0.009 0.049,0.006 0.069,0.011z"/>
    <path class="fil0" d="M4.364 1.899c0,-0.002 0,-0.002 0,0 0,-0.002 0,-0.002 0,0 -0.015,0.007 -0.144,0.082 -0.152,0.091 0.008,-0.002 0.013,-0.002 0.152,-0.091z"/>
    <path class="fil0" d="M14.476 6.836c0.002,0 0.002,-0.002 0.004,-0.002 0,0 0,-0.002 0,-0.002 0,0 -0.061,-0.08 -0.061,-0.08 -0.012,-0.011 -0.023,-0.015 -0.027,-0.017 -0.02,-0.006 -0.041,-0.004 -0.059,-0.011 -0.036,-0.013 -0.036,-0.013 -0.038,-0.013 -0.014,0 -0.02,0.015 -0.011,0.03 0.019,0.035 0.155,0.106 0.192,0.095z"/>
    <path class="fil0" d="M13.176 5.873c0.013,0.013 0.039,0.007 0.044,0.031 0.006,0.023 -0.003,0.045 0.002,0.068 0.006,0.018 0.019,0.02 0.023,0.022 0.015,0.004 0.089,-0.021 0.091,-0.08 0,-0.008 0,-0.015 -0.002,-0.023 -0.004,-0.024 -0.013,-0.048 -0.017,-0.074 -0.003,-0.026 -0.001,-0.054 -0.005,-0.081 -0.006,-0.043 -0.021,-0.046 -0.036,-0.048 -0.024,0 -0.082,0.022 -0.102,0.061 -0.013,0.021 -0.017,0.103 0.002,0.124z"/>
    <path class="fil0" d="M12.804 5.86c0,0 0.03,-0.034 0.03,-0.036 0.002,-0.011 -0.019,-0.022 -0.056,-0.026 -0.041,-0.004 -0.105,0.006 -0.08,0.034 0.013,0.016 0.067,0.039 0.087,0.037 0.01,0 0.013,-0.004 0.019,-0.009z"/>
    <path class="fil0" d="M13.176 5.522c-0.006,0.005 -0.014,0.011 -0.01,0.024 0,0.006 0.006,0.015 0.011,0.021 0,0 0.058,0.069 0.062,0.07 0.013,-0.005 0.002,-0.11 -0.011,-0.162 0,0 -0.019,-0.082 -0.03,-0.09 0,0 -0.002,0 -0.002,0 0,0 -0.002,0.004 -0.004,0.008 0,0.002 -0.002,0.004 -0.002,0.006 -0.003,0.026 0.004,0.05 0.004,0.076 0.002,0.028 -0.009,0.039 -0.018,0.047z"/>
    <path class="fil0" d="M14.717 7.019c0,0 0.034,0.005 0.038,0.003 0.005,-0.005 0.013,-0.082 0.013,-0.084 0,-0.001 0,-0.003 0,-0.005 0,-0.008 -0.002,-0.009 -0.004,-0.009 -0.009,0 -0.019,0.007 -0.028,0.007 -0.006,0 -0.015,-0.002 -0.021,-0.007 -0.009,-0.006 -0.015,-0.015 -0.024,-0.019 -0.007,-0.004 -0.011,0.002 -0.013,0.004 -0.009,0.011 0,0.071 0.024,0.099 0.004,0.007 0.012,0.011 0.015,0.011z"/>
    <path class="fil1" d="M3.639 2.438c0,0 0.002,0.002 0.002,0.002 0.002,0 0.006,-0.002 0.01,-0.004 0.041,-0.028 0.076,-0.063 0.117,-0.091 0.075,-0.052 0.153,-0.095 0.226,-0.148 0.017,-0.013 0.017,-0.013 0.039,-0.052 0,-0.002 -0.002,-0.004 -0.002,-0.004 -0.026,0.006 -0.044,0.025 -0.067,0.036 0.019,-0.017 0.019,-0.017 0.023,-0.03 -0.002,0 -0.002,-0.002 -0.004,-0.002 -0.002,0 -0.006,0.002 -0.01,0.002 -0.091,0.037 -0.091,0.037 -0.492,0.368 -0.036,0.028 -0.064,0.052 -0.092,0.112 0.002,0 0.002,0.002 0.004,0.002 0.097,-0.045 0.164,-0.127 0.246,-0.191z"/>
    <path class="fil1" d="M4.201 2.057c0.009,0.002 0.041,-0.016 0.073,-0.033 0.123,-0.069 0.187,-0.097 0.188,-0.097 0.04,-0.015 0.083,-0.026 0.12,-0.047 0.03,-0.015 0.146,-0.095 0.146,-0.097 0.022,-0.015 0.024,-0.019 0.026,-0.022 -0.017,-0.002 -0.036,0.009 -0.036,0.009 -0.035,0.021 -0.065,0.047 -0.101,0.067 0.043,-0.043 0.094,-0.078 0.137,-0.121 -0.002,0 -0.004,0 -0.006,0 -0.002,0 -0.146,0.075 -0.149,0.095 -0.004,0.015 -0.023,0.052 -0.133,0.077 0,0 -0.002,-0.002 -0.002,-0.002 0.002,-0.004 0.006,-0.006 0.01,-0.01 0.002,0 0.002,-0.001 0.002,-0.003 0.014,-0.017 0.065,-0.026 0.044,-0.049 -0.003,0 -0.296,0.142 -0.298,0.183 0.002,0 0.002,0 0.142,-0.076 -0.015,0.024 -0.042,0.031 -0.06,0.046 0.004,0 0.004,0 0.039,-0.018 0.009,-0.006 0.026,-0.015 0.062,-0.027 -0.032,0.023 -0.137,0.077 -0.196,0.103 -0.019,0.009 -0.019,0.021 -0.008,0.022z"/>
    <path class="fil1" d="M3.385 2.785c0.021,0.006 0.038,-0.013 0.058,-0.013 0.002,0.002 0.002,0.002 0.004,0.004 -0.009,0.026 -0.034,0.039 -0.047,0.064 0.025,0 0.223,-0.088 0.335,-0.178 0.035,-0.028 0.05,-0.041 0.07,-0.048 0.002,0 0.004,0.002 0.004,0.002 -0.009,0.016 -0.009,0.016 -0.011,0.02 0.009,0.009 0.084,0.026 0.084,0.026 0.071,-0.024 0.071,-0.024 0.138,-0.101 0.002,-0.001 0.004,-0.003 0.004,-0.003 -0.008,-0.002 -0.008,-0.002 -0.073,0.033 0.008,-0.022 0.077,-0.074 0.123,-0.073 0.017,0 0.021,0 0.026,-0.005 0,0 0.036,-0.034 0.03,-0.062 -0.037,-0.02 -0.052,-0.061 -0.031,-0.086 0.016,-0.02 0.169,-0.207 0.166,-0.222 -0.008,-0.003 -0.015,-0.005 -0.023,-0.007 0,-0.002 -0.002,-0.006 -0.004,-0.008 0,0 -0.001,0.002 -0.001,0.002 -0.071,0.06 -0.118,0.142 -0.2,0.189 -0.008,-0.034 0.026,-0.045 0.037,-0.069 -0.002,-0.002 -0.003,-0.004 -0.005,-0.004 -0.032,0.011 -0.06,0.037 -0.094,0.045 0.01,-0.015 0.026,-0.025 0.034,-0.041 -0.002,-0.002 -0.002,-0.002 -0.004,-0.004 -0.046,0.013 -0.08,0.05 -0.123,0.067 0.028,-0.037 0.073,-0.054 0.103,-0.088 -0.028,0.004 -0.389,0.236 -0.379,0.28 0.003,0.002 0.009,0.006 0.013,0.008 -0.008,0.011 -0.008,0.013 -0.051,0.037 -0.071,0.043 -0.074,0.052 -0.074,0.062 0.003,0.002 0.009,0.002 0.013,0.002 0.039,-0.008 0.073,-0.036 0.112,-0.043 0.028,-0.006 0.056,0.005 0.084,0 -0.051,0.039 -0.118,0.059 -0.146,0.067 -0.188,0.056 -0.207,0.138 -0.172,0.147z"/>
    <path class="fil1" d="M5.034 3.127c0.005,-0.017 -0.01,-0.015 -0.023,-0.013 0,0 -0.054,0.011 -0.069,0.028 -0.018,0.024 -0.015,0.058 -0.005,0.065 0.02,0.015 0.089,-0.058 0.097,-0.08z"/>
    <path class="fil1 str0" d="M4.942 2.994c0.002,0 0.01,-0.005 0.013,-0.011 0.006,-0.013 -0.003,-0.033 -0.011,-0.039 -0.011,-0.011 -0.028,-0.017 -0.039,-0.03 -0.019,-0.02 -0.03,-0.048 -0.052,-0.067 -0.004,-0.002 -0.008,-0.006 -0.013,-0.007 -0.023,-0.015 -0.051,-0.012 -0.073,-0.027 -0.015,-0.009 -0.015,-0.029 -0.03,-0.037 -0.002,-0.002 -0.004,0 -0.008,0 -0.02,0.009 -0.091,0.108 -0.093,0.112 -0.009,0.013 -0.02,0.03 -0.028,0.043l-0.076 0.125c0.044,0.004 0.044,0.004 0.048,0.026 0.004,0.03 0.004,0.03 0.009,0.028 0.006,-0.002 0.019,-0.011 0.043,-0.032 0.036,-0.029 0.096,-0.08 0.166,-0.089 0.049,-0.004 0.096,0.022 0.144,0.005z"/>
    <path class="fil1" d="M4.817 3.08c-0.002,0 -0.103,0.023 -0.134,0.049 -0.019,0.015 -0.023,0.058 -0.011,0.065 0.02,0.015 0.147,-0.06 0.171,-0.095 0.006,-0.013 0.008,-0.024 -0.026,-0.019z"/>
    <path class="fil1" d="M4.556 8.764c-0.039,0.015 -0.017,0.076 0.007,0.084 0.017,0.006 0.116,0.024 0.114,-0.017 -0.002,-0.024 -0.071,-0.078 -0.121,-0.067z"/>
    <path class="fil0" d="M11.535 3.767c-0.008,0 -0.006,0.006 -0.004,0.011l0.049 0.004c-0.027,-0.011 -0.038,-0.015 -0.045,-0.015z"/>
    <path class="fil1" d="M6.848 4.281c0.047,-0.06 0.067,-0.101 0.06,-0.12 -0.002,0 -0.006,-0.002 -0.01,-0.002 -0.024,0.01 -0.091,0.066 -0.143,0.129 -0.064,0.076 -0.107,0.168 -0.168,0.246 -0.034,0.041 -0.079,0.071 -0.111,0.114 -0.011,0.017 -0.001,0.023 0.002,0.024 0.008,0.004 0.008,0.004 0.194,0.019 0.107,0.009 0.185,0.019 0.269,0.041 0.01,0.002 0.023,0.008 0.032,0.008 0.03,0.002 0.062,-0.028 0.091,0.002 0.015,0.014 0.017,0.042 0.017,0.061 0.002,0.021 0.011,0.023 0.017,0.021 0.03,-0.004 0.067,-0.062 0.071,-0.11 0.006,-0.079 -0.054,-0.2 -0.114,-0.266 -0.032,-0.033 -0.032,-0.033 -0.14,-0.009 -0.033,0.008 -0.041,0 -0.048,-0.028 -0.015,-0.052 -0.028,-0.061 -0.049,-0.073 -0.011,-0.005 -0.011,-0.009 -0.006,-0.02 0.01,-0.009 0.025,-0.024 0.036,-0.037z"/>
    <path class="fil1" d="M11.206 3.308c0.006,0.037 -0.022,0.073 -0.007,0.112 0.011,0.004 0.035,0.002 0.088,-0.037 0.018,-0.015 0.035,-0.026 0.048,-0.021 0.054,0.03 -0.009,0.086 0.009,0.129 0.038,0.084 0.081,0.095 0.137,0.11 0.086,0.022 0.097,0.026 0.114,0.037 0.001,0.013 -0.006,0.028 0.001,0.041 0.023,0.042 0.064,0.07 0.084,0.112 0.012,0.045 -0.043,0.019 -0.084,0 -0.016,-0.007 -0.016,-0.007 -0.065,-0.011 0.019,0.056 0.082,0.084 0.095,0.144 0.008,0.034 -0.024,0.05 -0.067,0.071 -0.011,0.005 -0.03,0.015 -0.022,0.028 0.003,0.007 0.022,0.03 0.127,0.026 0.044,-0.002 0.136,-0.004 0.14,0.026 0.001,0.028 -0.019,0.028 -0.051,0.026 -0.032,0 -0.041,0.008 -0.052,0.019 -0.022,0.02 -0.026,0.052 -0.045,0.075 -0.024,0.028 -0.058,0.044 -0.082,0.071 0,0.001 0,0.005 0.002,0.009 0.013,0.004 0.013,0.004 0.213,-0.023 0.1,-0.013 0.203,-0.005 0.304,-0.018 0,0 0.002,0 0.004,0l0.173 -0.058c0.002,-0.002 0.002,-0.004 0.002,-0.006 -0.035,-0.035 -0.082,-0.003 -0.121,-0.018 -0.019,-0.053 0.03,-0.101 0.009,-0.153 -0.035,-0.094 -0.073,-0.092 -0.103,-0.09 -0.067,0.004 -0.113,-0.091 -0.113,-0.091 0,-0.002 0.001,-0.004 0.001,-0.004 0.004,-0.002 0.004,-0.002 0.056,0.011 0.025,0.008 0.056,0.021 0.055,0.008 0,0 0,-0.002 0,-0.002 -0.004,-0.006 -0.01,-0.013 -0.028,-0.028 -0.083,-0.064 -0.185,-0.096 -0.26,-0.168 -0.035,-0.036 -0.062,-0.081 -0.104,-0.109 -0.075,-0.048 -0.144,-0.057 -0.18,-0.059 0,0 0,0 0,0 0.045,-0.039 0.103,-0.234 -0.016,-0.239 -0.023,0 -0.047,0.002 -0.062,0.004 -0.075,0.009 -0.088,0.011 -0.09,-0.008 -0.001,-0.039 0.066,-0.112 0.012,-0.116 -0.002,0 -0.148,0.002 -0.17,0.054 -0.002,0.006 0,0.014 0.002,0.017 0.007,0.045 0.039,0.082 0.046,0.129z"/>
    <path class="fil0" d="M1.528 5.221c0.019,-0.045 0.03,-0.091 0.047,-0.136 0.011,-0.026 0.022,-0.052 0.032,-0.078 0.002,-0.004 0.002,-0.008 0.003,-0.01 0,-0.002 0.008,-0.024 -0.003,-0.022 -0.002,0 -0.004,0.002 -0.006,0.004 -0.039,0.031 -0.084,0.237 -0.076,0.25 0.001,-0.004 0.003,-0.006 0.003,-0.008z"/>
    <path class="fil1" d="M10.249 2.332c0,-0.002 0,-0.006 0,-0.008 -0.008,-0.015 -0.032,-0.043 -0.06,-0.054 -0.006,-0.002 -0.011,-0.004 -0.017,-0.005 -0.043,-0.012 -0.087,-0.002 -0.129,-0.019 -0.029,-0.011 -0.052,-0.041 -0.087,-0.039 -0.041,0.009 -0.079,0.026 -0.12,0.035 -0.039,0.01 -0.08,0.008 -0.119,0.021 -0.024,0.007 -0.008,0.039 -0.026,0.05 -0.021,0.013 -0.043,-0.011 -0.064,0.002 -0.004,0.002 -0.007,0.004 -0.011,0.008 -0.007,0.035 0.024,0.074 -0.015,0.106 -0.011,-0.006 -0.101,-0.078 -0.116,-0.106 -0.033,-0.064 -0.175,-0.103 -0.214,-0.071 0.011,0.031 0.05,0.026 0.067,0.048 -0.011,0.047 -0.067,0.039 -0.088,0.073 0.013,0.009 0.058,0.004 0.082,-0.002 0.045,-0.007 0.183,0.039 0.105,0.105 0.033,0.041 0.076,0.005 0.114,0.016 0.039,0.012 0.039,0.026 0.039,0.06 0.009,0.008 0.017,0.011 0.095,0.004 0.05,-0.006 0.069,-0.008 0.084,-0.006 0.037,0.002 0.073,0.019 0.108,0.021 0.004,0 0.012,0 0.015,0 0.013,0 0.032,0 0.135,-0.026 0.093,-0.023 0.235,-0.127 0.229,-0.157 -0.004,-0.021 -0.02,-0.034 -0.028,-0.052 0.01,-0.004 0.01,-0.004 0.021,-0.004z"/>
    <path class="fil1" d="M4.683 8.596c0.041,0.054 0.296,0.073 0.3,0.043 0.002,-0.017 -0.325,-0.394 -0.328,-0.396 -0.034,-0.022 -0.137,-0.093 -0.325,-0.056 -0.106,0.036 -0.179,0.107 -0.179,0.108 0.013,0.014 0.095,0.002 0.16,-0.037 0.095,-0.054 0.159,-0.024 0.165,-0.007 -0.006,0.009 -0.019,0.022 -0.049,0.005 -0.002,0 -0.002,0.002 -0.004,0.002 0.004,0.045 0.081,0.065 0.131,0.078 0.093,0.025 0.099,0.043 0.118,0.101 0.009,0.03 0.014,0.047 0.035,0.071 0.013,0.017 0.024,0.03 0.024,0.039 0.002,0.034 -0.033,0.032 -0.048,0.049z"/>
    <path class="fil1" d="M5.09 8.91c0.026,0.014 0.005,0.063 0.043,0.067 0.065,0.007 0.057,-0.082 0.113,-0.088 0.006,0 0.012,0 0.032,0.004 0.101,0.017 0.273,0.022 0.275,0.022 0.007,-0.002 0.013,-0.004 0.014,-0.011 0.002,-0.03 -0.022,-0.054 -0.014,-0.084 0.024,-0.093 -0.454,-0.134 -0.484,-0.129 -0.007,0.002 -0.009,0.004 -0.011,0.006 0,0.007 0,0.007 0.007,0.013 0.071,0.065 0.047,0.14 0.045,0.144 -0.009,0.007 -0.046,0.001 -0.099,-0.008 -0.097,-0.015 -0.106,-0.013 -0.112,-0.011 0.002,0.002 0.002,0.004 0.004,0.005 0.056,0.038 0.129,0.036 0.187,0.07z"/>
    <path class="fil1" d="M6.051 4.484c-0.041,0.015 0.052,0.062 0.071,0.069 0.123,0.058 0.166,-0.006 0.166,-0.006 0.015,-0.033 -0.192,-0.071 -0.237,-0.063z"/>
    <path class="fil1" d="M13.749 12.148c-0.135,0.174 -0.139,0.175 -0.226,0.207 -0.073,0.026 -0.095,0.058 -0.204,0.217 -0.054,0.078 -0.074,0.095 -0.129,0.136 -0.164,0.129 -0.384,0.411 -0.39,0.433 0.06,0 0.06,0 0.284,-0.215 0.183,-0.175 0.345,-0.371 0.521,-0.556 0,0.006 0,0.006 -0.017,0.03 0.007,-0.006 0.007,-0.006 0.024,-0.026 0.041,-0.052 0.168,-0.224 0.189,-0.284 -0.002,0 -0.004,-0.002 -0.004,-0.002 -0.015,0.017 -0.015,0.017 -0.048,0.06z"/>
    <path class="fil1" d="M9.187 10.871c-0.01,-0.05 0.058,-0.119 -0.006,-0.151 -0.045,-0.022 -0.089,0.011 -0.134,0.002 -0.146,-0.032 -0.241,-0.159 -0.381,-0.202 -0.207,-0.063 -0.422,-0.1 -0.633,-0.153 -0.121,-0.044 -0.132,-0.186 -0.209,-0.267 -0.129,-0.084 -0.224,-0.22 -0.358,-0.296 -0.176,-0.101 -0.392,-0.066 -0.566,-0.172 -0.138,-0.084 -0.229,-0.226 -0.377,-0.297 -0.02,-0.011 -0.052,-0.02 -0.076,-0.024 -0.713,-0.108 -1.277,-0.192 -1.341,0.373 -0.21,-0.151 -0.755,0.088 -0.705,-0.263 0.03,-0.213 -0.06,-0.37 -0.062,-0.37 -0.166,-0.084 -0.334,0.004 -0.5,-0.007 0.054,-0.183 0.054,-0.183 0.015,-0.267 0.073,-0.168 0.073,-0.168 0.099,-0.321 -0.032,-0.028 -0.31,-0.252 -0.37,0.375 -0.095,-0.005 -0.156,0.129 -0.267,0.065 -0.257,-0.147 -0.345,-0.334 -0.373,-0.433 -0.035,-0.121 0.065,-0.216 0.064,-0.332 -0.002,-0.073 -0.101,-0.11 -0.075,-0.194 0.034,-0.108 0.235,-0.314 0.282,-0.349 0.084,-0.065 0.41,0.009 0.412,0.009 0.01,-0.007 0.021,-0.016 0.03,-0.024 -0.024,-0.028 -0.061,-0.037 -0.089,-0.06 0.001,-0.011 0.005,-0.024 0.007,-0.035 0.065,-0.037 0.584,-0.082 0.586,-0.082 0.222,0.117 0.086,0.431 0.301,0.554 0.252,-0.265 -0.153,-0.5 -0.109,-0.767 0.047,-0.276 0.323,-0.34 0.476,-0.517 -0.003,0 -0.003,0 -0.003,0 -0.008,-0.008 -0.015,-0.019 -0.023,-0.026 0.002,-0.01 0.004,-0.024 0.004,-0.034 0.009,-0.004 0.022,-0.007 0.032,-0.009 0.002,-0.011 0.003,-0.028 0.003,-0.039 -0.009,-0.004 -0.022,-0.01 -0.031,-0.012l0.05 -0.505c0.004,0.074 0.004,0.302 0.004,0.304 0.024,-0.015 0.024,-0.015 0.045,-0.349 0.018,0.035 0.05,0.063 0.059,0.104 0.045,-0.078 0.03,-0.181 0.101,-0.248 0.002,-0.002 0.301,-0.164 0.323,-0.162 0.028,-0.262 0.028,-0.262 0.174,-0.4 0.024,0.002 0.024,0.002 0.449,-0.244 -0.003,0.009 -0.009,0.02 -0.014,0.03 0.022,0.007 0.052,0.016 0.076,0.015 0,0.011 0,0.026 0,0.037 -0.246,0.175 -0.246,0.175 -0.25,0.226 0.166,0.003 0.681,-0.295 0.588,-0.527 -0.071,0.047 -0.073,0.135 -0.116,0.198 -0.054,-0.015 -0.099,-0.028 -0.136,-0.039 0.037,-0.007 0.065,-0.047 0.065,-0.048 0,0 0,-0.002 0,-0.002 0,0 0,0 0,-0.002 -0.004,0 -0.004,0 -0.015,0 -0.065,0.011 -0.104,-0.004 -0.117,-0.011 -0.034,-0.017 -0.038,-0.036 -0.036,-0.064 0,-0.011 0,-0.011 -0.002,-0.013 0,0 -0.001,0 -0.001,0.002 -0.004,0.006 -0.025,0.058 -0.006,0.095 -0.064,-0.03 -0.075,-0.063 -0.101,-0.14 -0.06,-0.022 -0.063,-0.026 -0.089,-0.058 0.089,-0.024 0.154,-0.043 0.173,-0.132 -0.047,-0.045 -0.047,-0.045 -0.689,0.356 0.443,-0.459 0.443,-0.459 0.896,-0.597 0.103,0.071 0.568,-0.159 0.639,-0.287 -0.023,-0.056 -0.023,-0.056 0.011,-0.139 -0.006,-0.009 -0.015,-0.022 -0.021,-0.031 -0.037,-0.008 -0.074,-0.017 -0.112,-0.025 -0.031,0 -0.031,0 -0.031,0 -0.023,0.002 -0.092,0.01 -0.213,0.088 -0.004,-0.009 -0.009,-0.02 -0.013,-0.03 0.037,-0.052 0.054,-0.059 0.192,-0.112 -0.267,0.023 -0.526,0.045 -0.812,0.075 0.263,-0.028 0.491,-0.049 0.814,-0.075 0.007,-0.003 0.017,-0.007 0.022,-0.015 0.006,-0.016 -0.101,-0.108 -0.235,-0.072 -0.03,0.007 -0.03,0.007 -0.047,0.001 -0.009,-0.026 0.012,-0.054 -0.007,-0.08 -0.026,-0.033 -0.077,-0.026 -0.101,-0.06 -0.011,-0.015 -0.004,-0.028 0.017,-0.056 0.03,-0.041 0.03,-0.041 -0.035,-0.156 -0.165,-0.292 -0.165,-0.292 -0.243,-0.14 -0.013,0.024 0.019,0.048 -0.002,0.072 -0.024,0.028 -0.065,0.002 -0.088,0.032 -0.05,0.069 -0.05,0.069 -0.065,0.075 -0.09,0.028 -0.151,-0.045 -0.228,-0.062 -0.013,-0.024 0.017,-0.183 0.064,-0.22 -0.045,-0.015 -0.094,0.007 -0.138,-0.009 -0.012,-0.004 -0.017,-0.012 -0.032,-0.036 -0.006,-0.007 -0.017,-0.028 -0.127,-0.063 -0.024,-0.008 -0.03,-0.008 -0.049,-0.006 -0.102,0.028 -0.211,0.006 -0.311,0.047 0.018,0.095 -0.099,0.179 -0.021,0.28 -0.015,0.046 -0.075,0.061 -0.078,0.115 -0.004,0.064 0.059,0.101 0.061,0.161 0,0.002 0.006,0.246 -0.136,0.28 -0.032,0.007 -0.101,0.03 -0.086,0.08 -0.007,0.01 -0.011,0.011 -0.039,0.034 -0.037,0.142 0.056,0.319 -0.106,0.431 -0.051,-0.077 -0.14,-0.099 -0.211,-0.149 0.037,-0.112 0.022,-0.152 0,-0.204 0.011,-0.009 0.03,-0.024 0.039,-0.032 -0.002,-0.005 0,-0.018 -0.002,-0.024 -0.011,-0.002 -0.028,-0.004 -0.041,-0.002 -0.067,-0.063 -0.148,-0.005 -0.218,-0.026 -0.073,-0.02 -0.111,-0.093 -0.18,-0.117 -0.011,-0.004 -0.028,-0.01 -0.041,-0.012 -0.063,-0.011 -0.108,0.036 -0.164,0.053 -0.019,-0.015 -0.019,-0.015 -0.043,-0.161 -0.009,-0.05 -0.009,-0.05 -0.129,-0.06 -0.026,-0.154 0.351,-0.434 0.512,-0.554 -0.019,-0.048 -0.073,-0.028 -0.103,-0.052 0.314,-0.056 0.314,-0.056 0.491,-0.247 -0.121,0.021 -0.146,0.027 -0.245,-0.029 0.116,-0.043 0.267,0.031 0.355,-0.105 -0.009,-0.006 -0.024,-0.011 -0.033,-0.011 0,0 0.057,-0.071 0.119,-0.032 0.203,-0.073 0.203,-0.073 0.256,-0.119 0.011,-0.01 0.026,-0.026 0.033,-0.04 0.023,-0.037 -0.015,-0.076 0.006,-0.113 0.019,-0.034 0.061,-0.032 0.084,-0.056 0.013,-0.017 0.015,-0.04 0.024,-0.058 -0.002,-0.002 -0.173,-0.176 -0.229,0.071 -0.105,0.059 -0.181,0.308 -0.31,0.192 0.011,-0.077 0.164,-0.125 0.093,-0.2 -0.082,0.03 -0.114,0.112 -0.175,0.166 -0.015,-0.041 0.069,-0.149 0.069,-0.151 -0.004,-0.002 -0.004,-0.002 -0.077,-0.004 0.127,-0.203 0.127,-0.203 0.127,-0.227 -0.006,-0.004 -0.013,-0.01 -0.019,-0.013 0.073,-0.112 0.073,-0.112 0.409,-0.31 -0.024,-0.002 -0.024,-0.002 -0.061,0.004 -0.269,0.063 -0.633,0.567 -0.637,0.573 0.002,0.005 0.006,0.013 0.009,0.018 0.028,0 0.056,-0.005 0.086,-0.007 0.002,0.005 0.004,0.013 0.004,0.017 -0.06,0.029 -0.069,0.035 -0.097,0.061 0,0.015 0,0.015 0,0.015 0,0 0,0 0,0 0.006,0.002 0.011,0.002 0.017,0.004 -0.058,0.099 -0.183,0.132 -0.23,0.241 -0.045,-0.045 -0.045,-0.045 0.037,-0.133 -0.046,-0.011 -0.046,-0.011 -0.199,0.108 -0.01,0.008 -0.06,0.04 -0.248,0.03 -0.014,-0.018 -0.01,-0.041 -0.023,-0.06 -0.153,0.04 -0.198,0.129 -0.289,0.307 -0.017,-0.045 0.022,-0.083 0.017,-0.126 -0.083,0.014 -0.15,0.081 -0.241,0.068 0.037,-0.038 0.099,-0.051 0.112,-0.112 -0.006,-0.002 -0.011,-0.006 -0.015,-0.01 -0.021,0.012 -0.024,0.013 -0.082,0.006 -0.008,-0.009 -0.017,-0.021 -0.026,-0.028 -0.041,0.009 -0.066,0.045 -0.099,0.067 0.005,-0.011 0.015,-0.026 0.022,-0.035 -0.022,0.016 -0.022,0.016 -0.06,0.052 0.019,-0.039 0.019,-0.039 0.077,-0.112 -0.099,0.091 -0.099,0.091 -0.282,0.246 0,0 0,0 0,0 0.058,-0.054 0.119,-0.104 0.179,-0.158 0,0 -0.13,0.099 -0.293,0.261 0.006,-0.009 0.015,-0.022 0.021,-0.032 -0.101,0.114 -0.235,0.263 -0.336,0.377 -0.435,0.568 -0.445,0.577 -0.637,0.898l0.002 -0.002c0.004,-0.003 0.008,-0.011 0.009,-0.015 -0.128,0.325 -0.128,0.325 -0.143,0.413 -0.008,0.026 -0.019,0.06 -0.028,0.086 0.005,0.009 0.013,0.022 0.02,0.031 -0.041,0.129 -0.041,0.129 -0.086,0.351 -0.011,0.053 0.002,0.101 0.019,0.15 -0.006,-0.002 -0.017,-0.006 -0.032,-0.006 -0.007,0 -0.011,-0.002 -0.013,-0.004 -0.002,-0.002 -0.003,-0.003 -0.007,-0.018 -0.002,-0.008 -0.01,-0.036 -0.017,-0.036 0,0 0,0 0,0 0,0 -0.017,0.077 0.002,0.138 0.015,0.053 0.052,0.045 0.052,0.045 0.009,-0.004 0.019,-0.013 0.024,-0.026 0.006,-0.013 0.006,-0.026 0.006,-0.032 0,-0.009 -0.002,-0.017 -0.002,-0.026 0,0 0,-0.002 0,-0.002 0.019,0.051 0.036,0.101 0.034,0.153 -0.017,-0.009 -0.041,-0.022 -0.06,-0.031 -0.217,0.27 -0.293,1.625 -0.147,1.879 0.018,0.004 0.018,0.004 0.332,0.648 -0.023,0 -0.053,0.002 -0.075,0.002 0.037,0.08 0.316,0.438 0.317,0.44 0.027,-0.037 0.053,-0.074 -0.076,-0.255 -0.058,-0.083 -0.123,-0.176 -0.235,-0.626 0.14,0.101 0.153,0.168 0.171,0.252 0.013,0.06 0.028,0.127 0.055,0.17 0.056,0.092 0.126,0.172 0.186,0.26 0.079,0.113 0.211,0.177 0.278,0.304 0.053,0.101 0.028,0.237 0.137,0.313 0.015,0.012 0.037,0.019 0.054,0.026 0.031,0.012 0.069,0.034 0.102,0.043 0.112,0.028 0.226,0.047 0.34,0.075 0.116,0.028 0.237,-0.039 0.351,0.026 0.259,0.148 0.259,0.148 0.349,0.157 0.013,0.002 0.032,0.004 0.045,0.006 0.407,0.056 0.575,0.56 1.019,0.543 0.198,-0.331 0.319,0.065 0.364,0.252 0.013,0.058 0.013,0.058 -0.097,0.302 -0.002,0.004 -0.108,0.444 -0.064,0.526 0.008,0.014 0.017,0.032 0.027,0.045 0.145,0.217 0.744,0.809 0.75,0.814 0.146,0.127 0.345,0.155 0.498,0.265 0.118,0.084 0.206,0.25 0.249,0.467 0.001,0.009 0.231,1.039 0.63,1.601 0.506,0.713 0.997,0.635 1.001,0.633 -0.472,-0.243 -0.472,-0.243 -0.428,-0.442 -0.065,-0.069 -0.065,-0.069 -0.188,-0.411 0.019,-0.006 0.019,-0.006 0.108,-0.004 0,-0.009 0,-0.009 -0.108,-0.158 0.082,-0.073 0.082,-0.073 0.076,-0.133 0.006,-0.004 0.015,-0.009 0.021,-0.013 0.146,0.045 0.196,-0.076 0.157,-0.132l-0.043 -0.06c0.332,-0.01 0.474,-0.816 0.476,-0.823 0.048,-0.103 0.173,-0.165 0.226,-0.185 0.117,-0.049 0.119,-0.189 0.203,-0.263 0.037,-0.034 0.071,-0.036 0.099,-0.032 0.049,0.006 0.052,0.007 0.06,-0.039 0.013,-0.101 0.004,-0.204 0.009,-0.304 0.002,-0.056 -0.03,-0.116 0.008,-0.17 0.043,-0.064 0.059,-0.088 0.029,-0.131 -0.005,-0.007 -0.011,-0.019 -0.013,-0.028 0.278,-0.101 0.377,-0.403 0.379,-0.407 0,-0.004 0,-0.007 0,-0.011 0,-0.045 -0.028,-0.069 -0.033,-0.103zm-6.994 -6.301c0.099,-0.032 0.203,-0.064 0.31,-0.094 -0.107,0.03 -0.211,0.06 -0.31,0.094zm3.164 5.751c0.125,-0.015 0.253,-0.032 0.388,-0.047 -0.125,0.015 -0.252,0.03 -0.388,0.047zm2.826 1.765c-0.006,-0.048 -0.023,-0.209 -0.047,-0.492 0.015,0.166 0.032,0.33 0.048,0.504 -0.001,-0.004 -0.001,-0.008 -0.001,-0.012zm-0.135 -1.541c0,0.009 0.002,0.018 0.002,0.028 -0.002,-0.012 -0.002,-0.021 -0.002,-0.028z"/>
    <path class="fil1" d="M5.721 8.947c-0.038,0.026 0.011,0.075 0.057,0.084 0.034,0.005 0.14,-0.009 0.144,-0.021 0.002,-0.005 -0.005,-0.018 -0.084,-0.043 -0.088,-0.028 -0.101,-0.024 -0.117,-0.02z"/>
   </g>
   <g>
    <g>
     <g>
      <path class="fil2" d="M14.506 7.411l-0.011 -0.004c-2.566,-0.743 -7.559,-1.064 -11.128,-0.717l-0.011 0.002 0 -0.011c0.048,-1.361 0.308,-2.641 0.748,-3.703 0.428,-1.031 1.019,-1.839 1.71,-2.339 0.761,-0.553 1.624,-0.711 2.49,-0.461 0.767,-0.075 1.512,0.015 2.215,0.263 0.68,0.241 1.303,0.625 1.852,1.142 1.441,1.355 2.219,3.476 2.135,5.816l0 0.012zm-7.35 -0.874c2.759,0.041 5.596,0.349 7.334,0.849 0.08,-2.331 -0.697,-4.44 -2.13,-5.79 -1.115,-1.049 -2.555,-1.545 -4.054,-1.399l-0.002 0 -0.002 0c-0.861,-0.249 -1.717,-0.09 -2.475,0.459 -1.435,1.039 -2.35,3.287 -2.451,6.016 1.154,-0.112 2.458,-0.155 3.78,-0.135z"/>
      <path class="fil2" d="M14.54 7.457l-0.054 -0.015c-2.563,-0.741 -7.55,-1.062 -11.115,-0.714l-0.051 0.005 0.002 -0.05c0.049,-1.365 0.308,-2.649 0.752,-3.715 0.431,-1.036 1.027,-1.849 1.721,-2.353 0.769,-0.558 1.639,-0.719 2.514,-0.469 0.769,-0.075 1.518,0.015 2.225,0.265 0.685,0.243 1.313,0.629 1.865,1.15 1.448,1.363 2.231,3.492 2.147,5.842l-0.006 0.054zm-11.128 -0.825c1.106,-0.104 2.4,-0.151 3.744,-0.13 2.828,0.041 5.618,0.362 7.3,0.838 0.069,-2.304 -0.704,-4.385 -2.12,-5.719 -1.107,-1.042 -2.537,-1.535 -4.028,-1.391l-0.015 -0.002c-0.853,-0.246 -1.697,-0.089 -2.447,0.454 -1.419,1.03 -2.328,3.251 -2.434,5.95z"/>
     </g>
    </g>
    <g>
     <g>
      <path class="fil2" d="M11.527 0.951c-1.293,-0.374 -3.811,-0.536 -5.61,-0.363l-0.002 -0.018c1.801,-0.176 4.321,-0.013 5.618,0.362l-0.006 0.019z"/>
      <path class="fil3" d="M11.552 0.995l-0.034 -0.009c-1.29,-0.373 -3.802,-0.534 -5.598,-0.36l-0.035 0.004 -0.01 -0.088 0.036 -0.004c1.805,-0.175 4.33,-0.013 5.631,0.364l0.034 0.009 -0.024 0.084z"/>
     </g>
    </g>
    <g>
     <g>
      <path class="fil2" d="M13.75 3.539c-2.215,-0.64 -6.525,-0.918 -9.607,-0.617l-0.002 -0.019c3.084,-0.301 7.396,-0.022 9.615,0.62l-0.006 0.016z"/>
      <path class="fil3" d="M13.775 3.582l-0.034 -0.009c-2.212,-0.64 -6.516,-0.916 -9.594,-0.618l-0.035 0.004 -0.01 -0.088 0.036 -0.003c3.087,-0.301 7.404,-0.023 9.627,0.619l0.034 0.01 -0.024 0.085z"/>
     </g>
    </g>
    <g>
     <g>
      <path class="fil2" d="M11.274 6.806l-0.019 0c0.11,-3.1 -0.547,-5.628 -1.676,-6.438 -0.394,-0.282 -0.822,-0.339 -1.271,-0.17l-0.008 -0.018c0.457,-0.172 0.89,-0.114 1.29,0.171 1.133,0.814 1.794,3.347 1.684,6.455z"/>
      <path class="fil3" d="M11.305 6.841l-0.089 -0.003 0.002 -0.036c0.11,-3.089 -0.542,-5.605 -1.662,-6.408 -0.382,-0.276 -0.8,-0.33 -1.239,-0.166l-0.032 0.013 -0.032 -0.084 0.032 -0.013c0.469,-0.177 0.913,-0.117 1.322,0.178 1.142,0.821 1.808,3.365 1.698,6.484l0 0.035z"/>
     </g>
    </g>
    <g>
     <g>
      <path class="fil2" d="M7.279 6.548l-0.019 0c0.135,-3.746 0.495,-6.422 0.88,-6.506 0.059,-0.013 0.117,0.035 0.173,0.141l-0.017 0.01c-0.05,-0.099 -0.102,-0.144 -0.151,-0.133 -0.371,0.081 -0.735,2.809 -0.866,6.488z"/>
      <path class="fil3" d="M7.313 6.584l-0.09 -0.004 0.002 -0.035c0.114,-3.181 0.439,-6.434 0.907,-6.541 0.078,-0.017 0.149,0.038 0.211,0.161l0.015 0.032 -0.078 0.041 -0.015 -0.032c-0.041,-0.08 -0.082,-0.121 -0.114,-0.114 -0.297,0.065 -0.691,2.35 -0.836,6.456l-0.002 0.036z"/>
     </g>
    </g>
   </g>
   <g>
    <g>
     <g>
      <path class="fil2" d="M1.558 8.671l-0.011 -0.004c-1.015,-0.293 -1.538,-0.618 -1.508,-0.939 0.03,-0.33 0.642,-0.62 1.724,-0.832 0.454,-2.063 1.546,-3.894 2.985,-5.126 0.315,-0.467 0.676,-0.847 1.066,-1.131 0.763,-0.553 1.624,-0.711 2.492,-0.461l0.048 0.015 -0.05 0.005c-1.292,0.125 -2.514,0.704 -3.554,1.596 -0.81,1.197 -1.305,2.918 -1.376,4.889l0 0.009 -0.009 0c-0.603,0.058 -1.135,0.134 -1.588,0.222 -0.124,0.566 -0.2,1.15 -0.221,1.744l0.002 0.013zm0.2 -1.753c-1.058,0.211 -1.671,0.495 -1.701,0.812 -0.028,0.308 0.484,0.625 1.482,0.914 0.021,-0.587 0.096,-1.164 0.219,-1.726zm2.949 -5.086c-1.407,1.226 -2.477,3.029 -2.925,5.06 0.448,-0.086 0.974,-0.161 1.574,-0.219 0.048,-1.357 0.308,-2.633 0.748,-3.693 0.176,-0.422 0.379,-0.807 0.603,-1.148zm2.843 -1.749c-0.603,-0.01 -1.187,0.184 -1.725,0.573 -0.383,0.278 -0.73,0.642 -1.034,1.077 1.017,-0.857 2.204,-1.417 3.459,-1.55 -0.234,-0.063 -0.469,-0.097 -0.7,-0.1z"/>
      <path class="fil3" d="M1.59 8.715l-0.054 -0.016c-1.049,-0.303 -1.564,-0.631 -1.533,-0.975 0.041,-0.433 0.958,-0.705 1.731,-0.858 0.453,-2.039 1.513,-3.855 2.988,-5.118 0.319,-0.471 0.679,-0.853 1.071,-1.137 0.773,-0.56 1.645,-0.721 2.522,-0.467l0.224 0.066 -0.231 0.022c-1.242,0.121 -2.462,0.668 -3.53,1.585 -0.812,1.204 -1.299,2.932 -1.368,4.866l-0.002 0.039 -0.039 0.004c-0.585,0.056 -1.111,0.13 -1.563,0.218 -0.121,0.566 -0.194,1.142 -0.214,1.715l-0.002 0.056zm-1.139 -1.358c-0.224,0.119 -0.347,0.246 -0.36,0.377 -0.026,0.281 0.476,0.588 1.415,0.866 0.022,-0.547 0.091,-1.098 0.207,-1.635 -0.56,0.112 -0.987,0.246 -1.262,0.392zm1.378 -0.51c0.433,-0.082 0.935,-0.151 1.493,-0.207 0.052,-1.35 0.312,-2.621 0.75,-3.675 0.14,-0.336 0.299,-0.654 0.473,-0.941 -1.329,1.23 -2.289,2.932 -2.716,4.823zm4.222 -6.01c0.646,-0.342 1.321,-0.568 2.005,-0.665 -0.17,-0.033 -0.338,-0.052 -0.506,-0.054l0 0c-0.599,-0.009 -1.172,0.181 -1.704,0.566 -0.312,0.226 -0.601,0.511 -0.865,0.851 0.344,-0.269 0.702,-0.504 1.07,-0.698z"/>
     </g>
    </g>
    <g>
     <g>
      <path class="fil2" d="M4.996 1.587c-0.515,-0.149 -0.778,-0.313 -0.763,-0.478 0.022,-0.239 0.635,-0.435 1.682,-0.537l0.002 0.018c-1.021,0.099 -1.645,0.293 -1.665,0.519 -0.015,0.151 0.252,0.314 0.75,0.458l-0.006 0.02z"/>
      <path class="fil3" d="M5.021 1.63l-0.034 -0.009c-0.541,-0.157 -0.806,-0.331 -0.79,-0.515 0.032,-0.353 1.089,-0.508 1.714,-0.57l0.035 -0.004 0.01 0.088 -0.036 0.004c-1.183,0.116 -1.618,0.334 -1.633,0.489 -0.011,0.129 0.259,0.287 0.724,0.422l0.034 0.009 -0.024 0.086z"/>
     </g>
    </g>
    <g>
     <g>
      <path class="fil2" d="M2.572 4.626c-0.878,-0.254 -1.329,-0.534 -1.303,-0.812 0.037,-0.407 1.084,-0.739 2.872,-0.913l0.002 0.019c-1.752,0.17 -2.818,0.506 -2.856,0.896 -0.024,0.263 0.433,0.543 1.288,0.791l-0.003 0.019z"/>
      <path class="fil2" d="M2.596 4.669l-0.034 -0.01c-0.909,-0.263 -1.355,-0.548 -1.327,-0.847 0.054,-0.582 1.843,-0.842 2.905,-0.944l0.035 -0.004 0.009 0.088 -0.035 0.003c-1.708,0.166 -2.791,0.497 -2.824,0.864 -0.023,0.241 0.438,0.516 1.263,0.755l0.034 0.009 -0.026 0.086z"/>
     </g>
    </g>
    <g>
     <g>
      <path class="fil2" d="M0.742 7.183l-0.018 0c0.039,-1.105 0.287,-2.148 0.737,-3.104 0.435,-0.922 1.034,-1.717 1.785,-2.361 1.407,-1.21 3.202,-1.757 5.058,-1.542l-0.002 0.019c-1.85,-0.215 -3.642,0.33 -5.043,1.536 -1.522,1.31 -2.438,3.296 -2.517,5.452z"/>
      <path class="fil3" d="M0.776 7.22l-0.09 -0.003 0.002 -0.036c0.04,-1.109 0.29,-2.158 0.741,-3.117 0.437,-0.928 1.04,-1.725 1.794,-2.372 1.415,-1.216 3.22,-1.766 5.085,-1.55l0.035 0.004 -0.011 0.088 -0.034 -0.004c-1.84,-0.213 -3.621,0.329 -5.017,1.529 -1.514,1.301 -2.427,3.277 -2.503,5.424l-0.002 0.037z"/>
     </g>
    </g>
    <g>
     <g>
      <path class="fil2" d="M0.091 7.892l-0.019 0c0.155,-4.321 3.838,-7.778 8.213,-7.714 0.008,0 0.013,0 0.019,0l0 0.018c-0.006,0 -0.013,0 -0.019,0 -4.368,-0.063 -8.039,3.385 -8.194,7.696z"/>
      <path class="fil3" d="M0.125 7.928l-0.09 -0.004 0.002 -0.035c0.155,-4.338 3.854,-7.814 8.248,-7.748l0.054 0 -0.002 0.089 -0.054 0c-4.345,-0.063 -8.003,3.373 -8.157,7.662l-0.001 0.036z"/>
     </g>
    </g>
   </g>
   <g>
    <g>
     <g>
      <path class="fil2" d="M8.892 9.52c-2.765,-0.041 -5.609,-0.351 -7.345,-0.853l-0.008 -0.002 0 -0.007c0.155,-4.329 3.189,-8.133 6.765,-8.48l0.002 0 0.002 0c2.572,0.743 4.539,4.87 4.384,9.196l0 0.01 -0.009 0c-1.159,0.114 -2.466,0.155 -3.791,0.136zm-7.334 -0.87c2.567,0.741 7.548,1.06 11.114,0.715 0.151,-4.315 -1.807,-8.426 -4.37,-9.168 -3.563,0.349 -6.585,4.14 -6.744,8.453z"/>
      <path class="fil3" d="M12.724 9.415l-0.039 0.004c-1.118,0.108 -2.431,0.155 -3.795,0.136 -2.861,-0.043 -5.678,-0.369 -7.354,-0.853l-0.034 -0.009 0.002 -0.035c0.155,-4.346 3.203,-8.165 6.794,-8.514l0.015 0.002c2.589,0.749 4.566,4.89 4.411,9.232l0 0.037zm-11.13 -0.791c2.562,0.732 7.499,1.049 11.044,0.709 0.14,-4.283 -1.801,-8.36 -4.338,-9.101 -3.535,0.349 -6.537,4.11 -6.706,8.392z"/>
     </g>
    </g>
    <g>
     <g>
      <path class="fil2" d="M8.703 2.016c-1.394,-0.02 -2.829,-0.177 -3.705,-0.429l0.006 -0.019c1.293,0.374 3.811,0.536 5.611,0.363l0.001 0.018c-0.586,0.056 -1.245,0.077 -1.913,0.067z"/>
      <path class="fil3" d="M10.652 1.979l-0.036 0.004c-0.565,0.054 -1.228,0.078 -1.915,0.069 -1.444,-0.021 -2.868,-0.187 -3.714,-0.431l-0.034 -0.01 0.025 -0.086 0.033 0.01c1.29,0.373 3.802,0.534 5.598,0.36l0.035 -0.004 0.008 0.088z"/>
     </g>
    </g>
    <g>
     <g>
      <path class="fil2" d="M8.914 5.363c-2.387,-0.035 -4.842,-0.302 -6.34,-0.735l0.005 -0.019c2.216,0.64 6.526,0.918 9.607,0.618l0.002 0.019c-1,0.097 -2.13,0.134 -3.274,0.117z"/>
      <path class="fil3" d="M12.224 5.277l-0.036 0.004c-0.965,0.093 -2.098,0.134 -3.276,0.118 -2.469,-0.038 -4.903,-0.32 -6.35,-0.738l-0.033 -0.009 0.024 -0.086 0.034 0.009c2.211,0.641 6.516,0.917 9.594,0.618l0.035 -0.003 0.008 0.087z"/>
     </g>
    </g>
    <g>
     <g>
      <path class="fil2" d="M4.793 9.251l-0.019 0c0.155,-4.327 1.736,-8.397 3.526,-9.073l0.008 0.018c-1.785,0.674 -3.36,4.736 -3.515,9.055z"/>
      <path class="fil3" d="M4.826 9.288l-0.089 -0.003 0.002 -0.036c0.155,-4.339 1.745,-8.423 3.548,-9.103l0.032 -0.013 0.031 0.084 -0.031 0.013c-1.772,0.668 -3.338,4.717 -3.491,9.023l-0.002 0.035z"/>
     </g>
    </g>
    <g>
     <g>
      <path class="fil2" d="M8.787 9.509l-0.018 0c0.155,-4.321 -0.058,-8.501 -0.473,-9.316l0.017 -0.01c0.415,0.818 0.627,5.001 0.474,9.326z"/>
      <path class="fil3" d="M8.821 9.544l-0.09 -0.004 0.002 -0.035c0.155,-4.317 -0.056,-8.489 -0.468,-9.299l-0.015 -0.032 0.078 -0.041 0.015 0.032c0.418,0.821 0.633,5.013 0.478,9.342l0 0.037z"/>
     </g>
    </g>
   </g>
   <g>
    <g>
     <g>
      <path class="fil2" d="M12.67 9.386l0 -0.012c0.155,-4.319 -1.807,-8.436 -4.372,-9.178l-0.048 -0.014 0.05 -0.006c0.767,-0.075 1.514,0.013 2.218,0.263 0.679,0.241 1.302,0.625 1.851,1.142 1.439,1.354 2.218,3.47 2.135,5.809 1.012,0.293 1.531,0.616 1.501,0.937 -0.043,0.471 -1.256,0.855 -3.326,1.057l-0.009 0.002zm-4.316 -9.193c2.546,0.78 4.487,4.875 4.336,9.17 2.024,-0.198 3.255,-0.586 3.298,-1.038 0.028,-0.31 -0.487,-0.627 -1.493,-0.918l-0.007 -0.002 0 -0.007c0.084,-2.335 -0.693,-4.45 -2.13,-5.802 -1.101,-1.036 -2.522,-1.534 -4.004,-1.403z"/>
      <path class="fil3 str1" d="M15.626 8.786c-0.522,0.278 -1.525,0.497 -2.941,0.633l-0.051 0.006 0.002 -0.051c0.153,-4.304 -1.796,-8.405 -4.345,-9.142l-0.224 -0.065 0.231 -0.023c0.773,-0.074 1.523,0.013 2.233,0.265 0.685,0.243 1.312,0.629 1.864,1.15 1.441,1.355 2.223,3.472 2.149,5.809 1.026,0.3 1.53,0.625 1.499,0.965 -0.015,0.162 -0.157,0.315 -0.417,0.453zm-2.898 0.54c1.952,-0.194 3.188,-0.577 3.227,-1.003 0.026,-0.287 -0.495,-0.599 -1.469,-0.881l-0.034 -0.009 0.002 -0.035c0.084,-2.326 -0.689,-4.432 -2.118,-5.775 -1.051,-0.988 -2.397,-1.484 -3.806,-1.408 2.465,0.904 4.33,4.924 4.198,9.111z"/>
     </g>
    </g>
    <g>
     <g>
      <path class="fil2" d="M10.615 1.949l-0.002 -0.018c1.021,-0.099 1.644,-0.294 1.665,-0.519 0.015,-0.152 -0.252,-0.314 -0.751,-0.458l0.006 -0.018c0.515,0.149 0.778,0.313 0.763,0.477 -0.022,0.238 -0.634,0.434 -1.681,0.536z"/>
      <path class="fil3" d="M12.11 1.658c-0.349,0.185 -1.036,0.28 -1.494,0.325l-0.035 0.004 -0.009 -0.088 0.035 -0.004c1.184,-0.116 1.618,-0.334 1.633,-0.489 0.012,-0.129 -0.259,-0.287 -0.724,-0.422l-0.033 -0.009 0.024 -0.086 0.033 0.009c0.542,0.157 0.807,0.331 0.79,0.515 -0.007,0.096 -0.091,0.178 -0.22,0.245z"/>
     </g>
    </g>
    <g>
     <g>
      <path class="fil2" d="M12.186 5.246l-0.002 -0.019c1.753,-0.17 2.819,-0.506 2.856,-0.896 0.024,-0.263 -0.433,-0.543 -1.288,-0.792l0.006 -0.018c0.877,0.254 1.329,0.534 1.303,0.812 -0.039,0.407 -1.087,0.739 -2.875,0.913z"/>
      <path class="fil3" d="M14.734 4.732c-0.588,0.312 -1.764,0.472 -2.544,0.549l-0.035 0.004 -0.01 -0.088 0.036 -0.004c1.708,-0.166 2.79,-0.496 2.824,-0.864 0.022,-0.241 -0.439,-0.515 -1.264,-0.754l-0.034 -0.009 0.025 -0.086 0.033 0.009c0.909,0.263 1.355,0.549 1.327,0.848 -0.013,0.153 -0.147,0.283 -0.358,0.395z"/>
     </g>
    </g>
    <g>
     <g>
      <path class="fil2" d="M15.322 8.874l-0.019 0c0.155,-4.319 -2.986,-8.211 -7.001,-8.676l0.002 -0.018c4.024,0.464 7.173,4.366 7.018,8.694z"/>
      <path class="fil3" d="M15.356 8.91l-0.09 -0.004 0.002 -0.036c0.153,-4.3 -2.973,-8.177 -6.97,-8.64l-0.035 -0.004 0.011 -0.087 0.034 0.003c4.041,0.469 7.204,4.385 7.048,8.732l0 0.036z"/>
     </g>
    </g>
    <g>
     <g>
      <path class="fil2" d="M15.973 8.165l-0.018 0c0.074,-2.07 -0.67,-4.038 -2.094,-5.54 -1.451,-1.529 -3.424,-2.391 -5.557,-2.427l0 -0.018c1.081,0.018 2.12,0.248 3.093,0.681 0.939,0.418 1.773,1.008 2.478,1.753 1.428,1.502 2.173,3.475 2.098,5.551z"/>
      <path class="fil3" d="M16.007 8.2l-0.09 -0.003 0.002 -0.036c0.073,-2.061 -0.666,-4.019 -2.085,-5.514 -1.442,-1.521 -3.408,-2.38 -5.532,-2.417l-0.036 0 0.002 -0.089 0.036 0c1.084,0.018 2.13,0.248 3.106,0.683 0.942,0.42 1.78,1.013 2.49,1.76 1.435,1.512 2.184,3.494 2.109,5.579l-0.002 0.037z"/>
     </g>
    </g>
   </g>
   <g>
    <g>
     <g>
      <path class="fil2" d="M7.74 15.917l-0.002 0c-1.245,-0.379 -2.387,-1.548 -3.214,-3.289 -0.829,-1.744 -1.243,-3.855 -1.168,-5.947l0 -0.009 0.009 0c3.571,-0.348 8.567,-0.027 11.136,0.716l0.007 0.002 0 0.008c-0.074,2.09 -0.819,4.128 -2.098,5.737 -1.276,1.607 -2.934,2.595 -4.666,2.782l-0.004 0zm-4.366 -9.227c-0.073,2.085 0.342,4.191 1.167,5.928 0.825,1.736 1.962,2.901 3.201,3.278 3.563,-0.384 6.589,-4.194 6.746,-8.491 -2.567,-0.739 -7.549,-1.06 -11.114,-0.715z"/>
      <path class="fil3" d="M9.965 15.258c-0.707,0.375 -1.456,0.612 -2.217,0.694l-0.017 -0.002c-1.255,-0.381 -2.404,-1.557 -3.237,-3.307 -0.83,-1.749 -1.247,-3.866 -1.172,-5.962l0.002 -0.039 0.039 -0.004c3.575,-0.347 8.577,-0.026 11.149,0.719l0.034 0.009 -0.002 0.035c-0.075,2.098 -0.823,4.144 -2.106,5.759 -0.724,0.905 -1.566,1.616 -2.473,2.098zm-2.219 0.604c3.535,-0.386 6.538,-4.164 6.706,-8.429 -2.563,-0.732 -7.5,-1.049 -11.044,-0.709 -0.067,2.07 0.345,4.157 1.165,5.881 0.819,1.723 1.946,2.88 3.173,3.257z"/>
     </g>
    </g>
    <g>
     <g>
      <path class="fil2" d="M13.469 11.45c-2.216,-0.64 -6.526,-0.918 -9.608,-0.618l-0.001 -0.019c3.083,-0.3 7.395,-0.022 9.614,0.62l-0.005 0.017z"/>
      <path class="fil3" d="M13.493 11.493l-0.034 -0.009c-2.212,-0.641 -6.516,-0.917 -9.594,-0.618l-0.033 0.003 -0.01 -0.087 0.036 -0.004c3.087,-0.301 7.404,-0.022 9.627,0.62l0.034 0.009 -0.026 0.086z"/>
     </g>
    </g>
    <g>
     <g>
      <path class="fil2" d="M11.044 14.5c-1.294,-0.373 -3.812,-0.536 -5.611,-0.362l-0.002 -0.019c1.801,-0.175 4.321,-0.013 5.619,0.362l-0.006 0.019z"/>
      <path class="fil3" d="M11.066 14.543l-0.033 -0.01c-1.292,-0.373 -3.802,-0.533 -5.598,-0.36l-0.036 0.004 -0.009 -0.088 0.036 -0.004c1.805,-0.175 4.33,-0.013 5.631,0.364l0.034 0.01 -0.025 0.084z"/>
     </g>
    </g>
    <g>
     <g>
      <path class="fil2" d="M7.746 15.917l-0.008 -0.019c1.785,-0.711 3.362,-4.79 3.515,-9.094l0.019 0c-0.075,2.091 -0.484,4.189 -1.148,5.908 -0.667,1.721 -1.51,2.859 -2.378,3.205z"/>
      <path class="fil3" d="M7.947 15.861c-0.063,0.033 -0.127,0.063 -0.188,0.087l-0.032 0.013 -0.034 -0.082 0.032 -0.013c1.773,-0.707 3.339,-4.771 3.494,-9.062l0.002 -0.035 0.09 0.003 -0.002 0.036c-0.075,2.094 -0.483,4.196 -1.152,5.92 -0.621,1.602 -1.4,2.703 -2.21,3.133z"/>
     </g>
    </g>
    <g>
     <g>
      <path class="fil2" d="M7.733 15.911c-0.415,-0.855 -0.627,-5.057 -0.474,-9.365l0.018 0c-0.153,4.307 0.058,8.503 0.472,9.356l-0.016 0.009z"/>
      <path class="fil3" d="M7.796 15.918l-0.08 0.04 -0.015 -0.032c-0.416,-0.861 -0.631,-5.068 -0.476,-9.381l0.002 -0.036 0.089 0.004 -0.001 0.035c-0.154,4.301 0.056,8.489 0.468,9.339l0.013 0.031z"/>
     </g>
    </g>
   </g>
   <g>
    <g>
     <g>
      <path class="fil2" d="M7.191 15.937c-0.576,-0.009 -1.136,-0.11 -1.672,-0.306 -0.681,-0.248 -1.307,-0.638 -1.855,-1.161 -1.432,-1.361 -2.207,-3.477 -2.125,-5.805 -1.011,-0.293 -1.53,-0.618 -1.5,-0.937 0.043,-0.47 1.256,-0.855 3.326,-1.056l0.011 -0.002 0 0.011c-0.075,2.087 0.34,4.196 1.167,5.937 0.825,1.738 1.963,2.903 3.203,3.28l0.048 0.015 -0.05 0.004c-0.187,0.016 -0.37,0.022 -0.553,0.02zm-3.835 -9.245c-2.024,0.198 -3.256,0.586 -3.299,1.038 -0.028,0.31 0.488,0.627 1.494,0.918l0.007 0.002 0 0.008c-0.084,2.325 0.689,4.44 2.119,5.799 1.103,1.047 2.527,1.56 4.015,1.445 -1.227,-0.394 -2.35,-1.555 -3.168,-3.274 -0.827,-1.742 -1.241,-3.849 -1.168,-5.936z"/>
      <path class="fil3" d="M7.975 15.931l-0.229 0.021c-0.185,0.017 -0.372,0.022 -0.555,0.021 -0.58,-0.01 -1.146,-0.112 -1.685,-0.308 -0.687,-0.251 -1.314,-0.643 -1.869,-1.169 -1.433,-1.362 -2.211,-3.477 -2.137,-5.805 -1.026,-0.3 -1.53,-0.625 -1.499,-0.965 0.047,-0.494 1.238,-0.881 3.358,-1.088l0.051 -0.006 -0.002 0.051c-0.075,2.081 0.34,4.185 1.163,5.92 0.821,1.729 1.95,2.886 3.18,3.261l0.224 0.067zm-7.524 -8.573c-0.222,0.118 -0.347,0.245 -0.358,0.376 -0.026,0.287 0.495,0.599 1.469,0.881l0.033 0.009 -0.001 0.035c-0.083,2.317 0.685,4.42 2.107,5.772 1.051,0.998 2.4,1.51 3.815,1.446 -1.172,-0.444 -2.24,-1.584 -3.024,-3.234 -0.823,-1.734 -1.239,-3.832 -1.174,-5.912 -1.353,0.135 -2.363,0.361 -2.867,0.627z"/>
     </g>
    </g>
    <g>
     <g>
      <path class="fil2" d="M2.29 12.536c-0.877,-0.254 -1.329,-0.534 -1.303,-0.812 0.037,-0.407 1.084,-0.739 2.873,-0.912l0.001 0.018c-1.752,0.17 -2.818,0.506 -2.855,0.896 -0.025,0.263 0.433,0.543 1.288,0.792l-0.004 0.018z"/>
      <path class="fil3" d="M2.314 12.579l-0.034 -0.009c-0.909,-0.263 -1.355,-0.549 -1.327,-0.848 0.054,-0.582 1.843,-0.841 2.905,-0.944l0.033 -0.004 0.01 0.088 -0.036 0.004c-1.708,0.166 -2.79,0.496 -2.824,0.864 -0.022,0.241 0.439,0.515 1.264,0.754l0.033 0.009 -0.024 0.086z"/>
     </g>
    </g>
    <g>
     <g>
      <path class="fil2" d="M4.513 15.134c-0.515,-0.149 -0.778,-0.313 -0.764,-0.477 0.023,-0.239 0.635,-0.435 1.682,-0.538l0.002 0.019c-1.021,0.099 -1.644,0.293 -1.665,0.519 -0.015,0.151 0.252,0.313 0.75,0.457l-0.005 0.02z"/>
      <path class="fil3" d="M4.537 15.177l-0.033 -0.009c-0.542,-0.157 -0.807,-0.33 -0.79,-0.515 0.034,-0.353 1.088,-0.508 1.713,-0.569l0.036 -0.004 0.009 0.088 -0.035 0.003c-1.184,0.116 -1.618,0.334 -1.633,0.489 -0.012,0.129 0.259,0.288 0.724,0.422l0.033 0.01 -0.024 0.085z"/>
     </g>
    </g>
    <g>
     <g>
      <path class="fil2" d="M7.74 15.917c-1.947,-0.245 -3.75,-1.287 -5.075,-2.933 -1.327,-1.65 -2.016,-3.709 -1.941,-5.801l0.018 0c-0.153,4.302 2.987,8.211 7,8.715l-0.002 0.019z"/>
      <path class="fil3" d="M7.77 15.956l-0.034 -0.004c-1.956,-0.244 -3.766,-1.292 -5.097,-2.945 -1.333,-1.656 -2.025,-3.724 -1.949,-5.824l0.002 -0.035 0.09 0.003 -0.002 0.036c-0.153,4.283 2.973,8.177 6.969,8.677l0.036 0.004 -0.015 0.088z"/>
     </g>
    </g>
    <g>
     <g>
      <path class="fil2" d="M7.742 15.917c-1.084,-0.028 -2.128,-0.266 -3.102,-0.708 -0.941,-0.427 -1.777,-1.023 -2.483,-1.775 -1.418,-1.508 -2.159,-3.477 -2.085,-5.544l0.019 0c-0.073,2.061 0.665,4.025 2.081,5.529 1.449,1.542 3.427,2.421 5.57,2.475l0 0.023z"/>
      <path class="fil3" d="M7.776 15.952l-0.036 0c-1.088,-0.028 -2.137,-0.267 -3.115,-0.711 -0.946,-0.429 -1.785,-1.029 -2.494,-1.783 -1.426,-1.515 -2.169,-3.492 -2.094,-5.568l0.002 -0.035 0.089 0.004 -0.002 0.035c-0.072,2.051 0.663,4.006 2.072,5.505 1.443,1.534 3.412,2.409 5.546,2.463l0.035 0 -0.003 0.09z"/>
     </g>
    </g>
   </g>
   <g>
    <g>
     <g>
      <path class="fil2" d="M8.461 16.021c-0.239,-0.004 -0.48,-0.037 -0.721,-0.104 -0.769,0.067 -1.517,-0.03 -2.221,-0.286 -0.681,-0.248 -1.307,-0.638 -1.855,-1.161 -1.434,-1.363 -2.209,-3.481 -2.125,-5.814l0 -0.013 0.012 0.003c2.566,0.743 7.559,1.064 11.128,0.717l0.011 -0.002 0 0.011c-0.048,1.359 -0.306,2.638 -0.746,3.7 -0.428,1.03 -1.018,1.842 -1.706,2.348 -0.553,0.409 -1.156,0.61 -1.777,0.601zm-0.719 -0.123l0 0c0.866,0.237 1.725,0.067 2.483,-0.489 1.431,-1.053 2.346,-3.304 2.445,-6.022 -3.565,0.346 -8.544,0.025 -11.114,-0.715 -0.08,2.322 0.693,4.43 2.119,5.787 1.116,1.058 2.561,1.57 4.067,1.439l0 0z"/>
      <path class="fil3" d="M9.836 15.717c-0.437,0.231 -0.898,0.345 -1.375,0.338l0 0c-0.239,-0.004 -0.484,-0.04 -0.723,-0.105 -0.772,0.065 -1.523,-0.032 -2.23,-0.287 -0.687,-0.25 -1.314,-0.642 -1.869,-1.169 -1.441,-1.37 -2.219,-3.498 -2.135,-5.84l0.002 -0.056 0.054 0.015c2.563,0.741 7.55,1.062 11.115,0.715l0.051 -0.006 -0.002 0.05c-0.049,1.363 -0.308,2.647 -0.751,3.713 -0.429,1.036 -1.022,1.854 -1.717,2.363 -0.136,0.105 -0.278,0.194 -0.42,0.269zm-8.244 -7.002c-0.069,2.294 0.7,4.376 2.109,5.716 1.107,1.053 2.542,1.56 4.037,1.431l0.015 0.002c0.855,0.235 1.702,0.067 2.453,-0.483 1.417,-1.042 2.322,-3.265 2.428,-5.956 -3.541,0.336 -8.47,0.02 -11.042,-0.71z"/>
     </g>
    </g>
    <g>
     <g>
      <path class="fil2" d="M8.63 13.274c-2.387,-0.036 -4.841,-0.303 -6.34,-0.736l0.005 -0.019c2.216,0.641 6.526,0.919 9.608,0.618l0.001 0.019c-1,0.097 -2.129,0.134 -3.274,0.118z"/>
      <path class="fil3" d="M11.942 13.188l-0.036 0.003c-0.965,0.094 -2.098,0.135 -3.276,0.118 -2.469,-0.037 -4.903,-0.319 -6.35,-0.737l-0.033 -0.01 0.024 -0.085 0.034 0.009c2.212,0.64 6.516,0.916 9.594,0.618l0.035 -0.004 0.008 0.088z"/>
     </g>
    </g>
    <g>
     <g>
      <path class="fil2" d="M8.218 15.566c-1.394,-0.021 -2.83,-0.178 -3.705,-0.43l0.005 -0.018c1.294,0.373 3.812,0.535 5.611,0.362l0.002 0.018c-0.584,0.056 -1.243,0.077 -1.913,0.068z"/>
      <path class="fil3" d="M10.169 15.528l-0.036 0.004c-0.564,0.054 -1.226,0.078 -1.915,0.069l0 0c-1.445,-0.02 -2.869,-0.187 -3.714,-0.431l-0.034 -0.009 0.024 -0.086 0.034 0.009c1.291,0.373 3.802,0.534 5.598,0.36l0.033 -0.003 0.01 0.087z"/>
     </g>
    </g>
    <g>
     <g>
      <path class="fil2" d="M7.247 16.002c-0.274,-0.003 -0.539,-0.099 -0.789,-0.281 -1.133,-0.831 -1.794,-3.37 -1.684,-6.472l0.019 0c-0.11,3.095 0.547,5.628 1.676,6.455 0.394,0.287 0.819,0.353 1.269,0.192l0.008 0.019c-0.17,0.061 -0.336,0.091 -0.499,0.087z"/>
      <path class="fil3" d="M7.789 15.937l-0.034 0.011c-0.172,0.062 -0.343,0.092 -0.51,0.09 -0.281,-0.004 -0.554,-0.101 -0.81,-0.288 -1.142,-0.836 -1.808,-3.387 -1.696,-6.499l0.002 -0.035 0.089 0.003 -0.002 0.036c-0.11,3.083 0.542,5.605 1.662,6.425 0.382,0.279 0.798,0.343 1.237,0.186l0.034 -0.011 0.028 0.082z"/>
     </g>
    </g>
    <g>
     <g>
      <path class="fil2" d="M7.88 16.045c-0.05,0 -0.101,-0.044 -0.147,-0.132l0.016 -0.01c0.049,0.092 0.099,0.133 0.148,0.122 0.371,-0.086 0.737,-2.826 0.87,-6.516l0.018 0c-0.134,3.757 -0.498,6.443 -0.884,6.533 -0.006,0.001 -0.013,0.003 -0.021,0.003z"/>
      <path class="fil3" d="M7.942 16.064c-0.01,0.006 -0.021,0.009 -0.032,0.011 -0.011,0.002 -0.021,0.004 -0.03,0.004l0 0 0 0c0,0 0,0 0,0 -0.063,-0.002 -0.123,-0.052 -0.177,-0.151l-0.017 -0.03 0.078 -0.043 0.017 0.03c0.023,0.043 0.067,0.114 0.108,0.103 0.299,-0.07 0.697,-2.365 0.842,-6.483l0.002 -0.035 0.09 0.003 -0.002 0.036c-0.11,3.121 -0.426,6.314 -0.879,6.555z"/>
     </g>
    </g>
   </g>
   <g>
    <g>
     <g>
      <path class="fil2" d="M8.461 16.021c-0.239,-0.004 -0.48,-0.037 -0.723,-0.104l-0.048 -0.014 0.05 -0.005c1.292,-0.14 2.511,-0.728 3.55,-1.626 0.812,-1.202 1.311,-2.928 1.382,-4.898l0 -0.009 0.009 0c0.603,-0.058 1.135,-0.134 1.586,-0.222 0.125,-0.568 0.2,-1.15 0.223,-1.743l0 -0.014 0.011 0.004c1.015,0.293 1.538,0.618 1.508,0.939 -0.03,0.33 -0.642,0.62 -1.723,0.833 -0.319,1.454 -0.961,2.824 -1.876,3.975 -0.349,0.439 -0.726,0.831 -1.123,1.172 -0.312,0.456 -0.665,0.833 -1.048,1.115 -0.554,0.405 -1.157,0.606 -1.778,0.597zm-0.667 -0.11c0.848,0.216 1.688,0.043 2.432,-0.504 0.376,-0.274 0.713,-0.633 1.012,-1.058 -1.038,0.877 -2.221,1.418 -3.444,1.562zm4.896 -6.527c-0.048,1.355 -0.308,2.631 -0.746,3.692 -0.176,0.425 -0.381,0.813 -0.609,1.159 1.409,-1.236 2.477,-3.043 2.927,-5.07 -0.448,0.086 -0.975,0.161 -1.572,0.219zm1.816 -1.973c-0.022,0.582 -0.095,1.161 -0.218,1.726 1.058,-0.211 1.671,-0.494 1.699,-0.812 0.029,-0.308 -0.482,-0.623 -1.481,-0.914z"/>
      <path class="fil3" d="M9.836 15.717c-0.437,0.231 -0.898,0.345 -1.375,0.338l0 0c-0.243,-0.004 -0.488,-0.04 -0.73,-0.107l-0.226 -0.061 0.233 -0.025c1.24,-0.134 2.459,-0.69 3.528,-1.612 0.816,-1.21 1.303,-2.942 1.372,-4.876l0.002 -0.039 0.039 -0.004c0.584,-0.056 1.109,-0.13 1.56,-0.218 0.124,-0.566 0.196,-1.142 0.217,-1.715l0.002 -0.056 0.054 0.015c1.049,0.302 1.564,0.63 1.532,0.974 -0.039,0.433 -0.957,0.705 -1.728,0.859 -0.323,1.455 -0.973,2.827 -1.878,3.968 -0.345,0.435 -0.724,0.83 -1.125,1.174 -0.314,0.459 -0.669,0.836 -1.053,1.118 -0.14,0.103 -0.282,0.192 -0.424,0.267zm-1.844 0.203c0.773,0.144 1.533,-0.041 2.212,-0.539 0.302,-0.222 0.584,-0.5 0.84,-0.829 -0.935,0.736 -1.982,1.204 -3.052,1.368zm4.732 -6.505c-0.052,1.348 -0.31,2.617 -0.749,3.674 -0.14,0.339 -0.3,0.659 -0.476,0.95 1.329,-1.24 2.289,-2.942 2.718,-4.829 -0.433,0.08 -0.935,0.149 -1.493,0.205zm1.611 -0.323c1.019,-0.207 1.592,-0.479 1.62,-0.77 0.026,-0.282 -0.476,-0.588 -1.415,-0.866 -0.022,0.548 -0.091,1.099 -0.205,1.636z"/>
     </g>
    </g>
    <g>
     <g>
      <path class="fil2" d="M11.903 13.156l-0.002 -0.019c1.752,-0.17 2.818,-0.506 2.855,-0.896 0.025,-0.263 -0.433,-0.543 -1.287,-0.791l0.005 -0.019c0.877,0.254 1.329,0.534 1.303,0.812 -0.039,0.407 -1.086,0.739 -2.874,0.913z"/>
      <path class="fil2" d="M14.45 12.643c-0.588,0.311 -1.764,0.472 -2.544,0.548l-0.035 0.004 -0.01 -0.088 0.036 -0.003c1.708,-0.166 2.79,-0.497 2.824,-0.865 0.022,-0.24 -0.439,-0.515 -1.264,-0.754l-0.033 -0.009 0.024 -0.086 0.034 0.01c0.909,0.263 1.355,0.548 1.327,0.847 -0.011,0.153 -0.148,0.284 -0.359,0.396z"/>
     </g>
    </g>
    <g>
     <g>
      <path class="fil2" d="M10.131 15.497l-0.002 -0.019c1.021,-0.099 1.645,-0.293 1.665,-0.519 0.015,-0.151 -0.252,-0.314 -0.75,-0.457l0.006 -0.019c0.515,0.149 0.778,0.314 0.763,0.478 -0.022,0.239 -0.637,0.435 -1.682,0.536z"/>
      <path class="fil3" d="M11.626 15.207c-0.349,0.185 -1.036,0.28 -1.493,0.325l-0.034 0.004 -0.009 -0.088 0.036 -0.004c1.183,-0.115 1.618,-0.334 1.633,-0.489 0.011,-0.129 -0.26,-0.287 -0.724,-0.422l-0.034 -0.009 0.024 -0.086 0.034 0.01c0.541,0.156 0.806,0.33 0.789,0.515 -0.009,0.095 -0.093,0.175 -0.222,0.244z"/>
     </g>
    </g>
    <g>
     <g>
      <path class="fil2" d="M8.371 15.956c-0.209,-0.004 -0.42,-0.015 -0.631,-0.039l0.002 -0.019c1.859,0.198 3.655,-0.364 5.058,-1.581 1.537,-1.333 2.425,-3.265 2.502,-5.445l0.018 0c-0.039,1.101 -0.285,2.143 -0.733,3.097 -0.432,0.92 -1.029,1.715 -1.775,2.363 -1.245,1.082 -2.804,1.648 -4.441,1.624z"/>
      <path class="fil3" d="M11.57 15.23c-0.974,0.517 -2.059,0.776 -3.199,0.759l0 0c-0.211,-0.003 -0.424,-0.016 -0.635,-0.039l-0.033 -0.004 0.009 -0.087 0.036 0.003c1.849,0.198 3.636,-0.362 5.032,-1.571 1.528,-1.325 2.413,-3.25 2.49,-5.419l0.002 -0.035 0.089 0.003 -0.002 0.036c-0.039,1.105 -0.287,2.152 -0.737,3.11 -0.435,0.925 -1.034,1.722 -1.784,2.374 -0.398,0.341 -0.822,0.633 -1.268,0.87z"/>
     </g>
    </g>
    <g>
     <g>
      <path class="fil2" d="M7.742 15.917l0 -0.019c4.375,0.037 8.06,-3.433 8.213,-7.733l0.018 0c-0.074,2.092 -0.972,4.05 -2.529,5.514 -1.555,1.461 -3.58,2.256 -5.702,2.238z"/>
      <path class="fil3" d="M11.665 14.994c-1.198,0.637 -2.54,0.969 -3.925,0.956l-0.035 0 0 -0.089 0.035 0c4.357,0.037 8.024,-3.418 8.177,-7.7l0.002 -0.035 0.09 0.003 -0.002 0.036c-0.075,2.102 -0.978,4.067 -2.54,5.538 -0.547,0.515 -1.154,0.948 -1.802,1.291z"/>
     </g>
    </g>
   </g>
   <g>
    <path class="fil2" d="M7.882 16.045c-0.11,-0.002 -0.237,-0.005 -0.366,-0.015 -0.22,-0.015 -0.356,-0.028 -0.627,-0.065 -0.256,-0.035 -0.528,-0.095 -0.53,-0.097 -0.086,-0.019 -0.349,-0.078 -0.517,-0.131 -0.247,-0.076 -0.556,-0.186 -0.747,-0.257 -0.31,-0.116 -0.756,-0.349 -0.759,-0.351 -0.04,-0.023 -0.084,-0.047 -0.129,-0.071 -0.114,-0.062 -0.241,-0.133 -0.34,-0.196l-0.017 -0.009c-0.188,-0.12 -0.448,-0.286 -0.623,-0.428 -0.041,-0.033 -0.086,-0.069 -0.133,-0.106 -0.106,-0.086 -0.229,-0.181 -0.321,-0.263 -0.17,-0.152 -0.367,-0.34 -0.502,-0.48 -0.433,-0.45 -0.711,-0.848 -0.802,-0.978 -0.238,-0.338 -0.452,-0.706 -0.639,-1.09 -0.17,-0.349 -0.345,-0.825 -0.453,-1.154 -0.002,-0.005 -0.183,-0.56 -0.275,-1.263 -0.065,-0.499 -0.065,-0.672 -0.065,-1.32 0,-0.019 0.033,-0.61 0.069,-0.823 0.069,-0.415 0.175,-0.904 0.272,-1.245 0.18,-0.633 0.573,-1.437 0.775,-1.753 0.03,-0.047 0.064,-0.097 0.097,-0.151 0.08,-0.127 0.163,-0.258 0.237,-0.362 0.114,-0.161 0.271,-0.366 0.392,-0.512 0.446,-0.535 0.868,-0.892 0.872,-0.896 0.043,-0.035 0.089,-0.072 0.136,-0.113 0.11,-0.092 0.222,-0.187 0.321,-0.26 0.161,-0.119 0.375,-0.269 0.534,-0.371 0.34,-0.217 0.719,-0.42 1.068,-0.571 0.188,-0.083 0.332,-0.14 0.436,-0.178 0.29,-0.102 0.508,-0.173 0.665,-0.214 0.168,-0.043 0.381,-0.098 0.543,-0.129 0.159,-0.03 0.368,-0.066 0.519,-0.088 0.104,-0.015 0.239,-0.028 0.276,-0.032l0 0c0.331,-0.031 0.848,-0.065 1.525,-0.002 0.485,0.045 0.978,0.139 1.465,0.279l0 0c0.122,0.035 0.241,0.074 0.359,0.117 0.13,0.045 0.263,0.092 0.373,0.133 0.118,0.043 0.269,0.11 0.368,0.156 0.474,0.223 0.58,0.28 1.159,0.652 0.218,0.142 0.487,0.345 0.67,0.508l0.019 0.016c0.156,0.14 0.352,0.316 0.496,0.458 0.15,0.149 0.334,0.356 0.407,0.44 0.148,0.17 0.442,0.53 0.75,1.031 0.099,0.162 0.228,0.392 0.32,0.571 0.058,0.114 0.121,0.255 0.181,0.392 0.026,0.059 0.052,0.117 0.076,0.17 0.08,0.177 0.163,0.42 0.224,0.614 0.039,0.123 0.079,0.272 0.116,0.416 0.017,0.065 0.034,0.129 0.05,0.187 0.051,0.184 0.101,0.446 0.124,0.649 0.044,0.4 0.078,0.917 0.084,1.288 0.003,0.246 -0.019,0.573 -0.055,0.814 -0.005,0.039 -0.011,0.078 -0.018,0.121 -0.025,0.17 -0.053,0.362 -0.082,0.513 -0.04,0.193 -0.101,0.45 -0.157,0.643 -0.191,0.662 -0.441,1.174 -0.452,1.194 -0.078,0.157 -0.192,0.386 -0.285,0.549 -0.098,0.17 -0.236,0.388 -0.342,0.547 -0.347,0.507 -0.678,0.86 -0.786,0.976 -0.564,0.603 -1.221,1.114 -1.952,1.523 -0.157,0.088 -0.346,0.185 -0.478,0.246 -0.166,0.077 -0.403,0.178 -0.605,0.258 -0.323,0.127 -0.782,0.254 -0.944,0.291 -0.137,0.032 -0.334,0.075 -0.482,0.101 -0.248,0.041 -0.454,0.069 -0.61,0.084 -0.159,0.013 -0.355,0.032 -0.579,0.035 -0.06,0.002 -0.17,0.004 -0.306,0.002zm-0.631 -15.951c-0.039,0.004 -0.172,0.017 -0.276,0.032 -0.151,0.022 -0.36,0.057 -0.519,0.087 -0.162,0.03 -0.375,0.084 -0.541,0.129 -0.159,0.041 -0.376,0.112 -0.665,0.215 -0.104,0.037 -0.246,0.095 -0.435,0.177 -0.349,0.151 -0.728,0.355 -1.066,0.571 -0.158,0.103 -0.373,0.25 -0.533,0.372 -0.097,0.072 -0.211,0.168 -0.32,0.259 -0.048,0.041 -0.095,0.079 -0.138,0.114 -0.003,0.004 -0.422,0.356 -0.868,0.892 -0.121,0.146 -0.278,0.351 -0.39,0.51 -0.074,0.104 -0.157,0.235 -0.237,0.362 -0.033,0.054 -0.067,0.104 -0.097,0.151 -0.201,0.314 -0.593,1.116 -0.773,1.747 -0.097,0.34 -0.203,0.829 -0.27,1.243 -0.036,0.211 -0.069,0.801 -0.069,0.82 0,0.645 0,0.819 0.065,1.317 0.093,0.702 0.273,1.255 0.274,1.26 0.107,0.329 0.282,0.803 0.452,1.152 0.187,0.385 0.401,0.749 0.638,1.086 0.092,0.131 0.37,0.527 0.801,0.977 0.135,0.14 0.332,0.328 0.502,0.479 0.092,0.082 0.213,0.178 0.319,0.263 0.047,0.038 0.092,0.073 0.133,0.107 0.175,0.142 0.433,0.306 0.622,0.425l0.016 0.01c0.097,0.061 0.226,0.132 0.338,0.194 0.045,0.024 0.09,0.048 0.129,0.073 0.004,0.002 0.448,0.233 0.758,0.349 0.19,0.071 0.5,0.181 0.745,0.255 0.168,0.053 0.429,0.111 0.515,0.131 0.002,0 0.272,0.06 0.528,0.097 0.271,0.037 0.407,0.051 0.625,0.065 0.29,0.021 0.564,0.015 0.669,0.015 0.223,-0.003 0.419,-0.02 0.578,-0.035 0.155,-0.013 0.36,-0.041 0.609,-0.084 0.147,-0.024 0.345,-0.069 0.481,-0.101 0.163,-0.037 0.622,-0.164 0.943,-0.291 0.201,-0.078 0.438,-0.179 0.605,-0.256 0.132,-0.061 0.319,-0.158 0.476,-0.244 0.729,-0.407 1.385,-0.919 1.948,-1.52 0.108,-0.115 0.439,-0.468 0.784,-0.974 0.107,-0.157 0.245,-0.377 0.342,-0.545 0.093,-0.162 0.207,-0.39 0.285,-0.547 0.012,-0.02 0.262,-0.53 0.45,-1.191 0.054,-0.19 0.118,-0.448 0.157,-0.64 0.03,-0.151 0.058,-0.343 0.082,-0.513 0.006,-0.043 0.011,-0.084 0.019,-0.122 0.035,-0.24 0.058,-0.565 0.054,-0.812 -0.006,-0.369 -0.039,-0.886 -0.084,-1.286 -0.023,-0.201 -0.073,-0.461 -0.123,-0.645 -0.015,-0.058 -0.032,-0.122 -0.051,-0.187 -0.037,-0.144 -0.076,-0.295 -0.115,-0.416 -0.062,-0.193 -0.142,-0.437 -0.223,-0.613 -0.024,-0.052 -0.048,-0.11 -0.076,-0.169 -0.06,-0.137 -0.123,-0.277 -0.181,-0.391 -0.092,-0.179 -0.218,-0.408 -0.317,-0.569 -0.307,-0.5 -0.601,-0.858 -0.749,-1.026 -0.073,-0.083 -0.256,-0.292 -0.405,-0.439 -0.144,-0.142 -0.34,-0.317 -0.496,-0.457l-0.019 -0.017c-0.181,-0.163 -0.45,-0.364 -0.666,-0.506 -0.579,-0.373 -0.684,-0.429 -1.158,-0.651 -0.101,-0.047 -0.25,-0.114 -0.367,-0.157 -0.01,-0.004 -0.017,-0.006 -0.027,-0.01 0.346,0.159 0.678,0.357 0.988,0.594 0.032,0.024 0.061,0.047 0.091,0.071 0.532,0.422 0.995,0.95 1.376,1.566 0.76,1.23 1.144,2.733 1.12,4.355 -0.002,0.067 -0.002,0.136 -0.006,0.203 -0.074,2.091 -0.819,4.129 -2.098,5.738 -1.276,1.607 -2.934,2.594 -4.666,2.781l-0.002 -0.019c3.567,-0.384 6.595,-4.198 6.748,-8.498 0.001,-0.067 0.003,-0.136 0.005,-0.204 0.047,-3.18 -1.486,-5.804 -3.888,-6.702 -0.129,-0.045 -0.259,-0.088 -0.371,-0.123 -0.486,-0.14 -0.976,-0.234 -1.462,-0.279 -0.677,-0.069 -1.193,-0.035 -1.523,-0.005l0 0z"/>
    <path class="fil3" d="M11.748 15.146c-0.116,0.061 -0.234,0.121 -0.325,0.162 -0.166,0.077 -0.405,0.179 -0.607,0.258 -0.323,0.127 -0.786,0.255 -0.95,0.293 -0.136,0.031 -0.336,0.074 -0.483,0.1 -0.249,0.042 -0.456,0.071 -0.613,0.084 -0.16,0.014 -0.356,0.032 -0.58,0.036 -0.054,0 -0.166,0.004 -0.304,0l0 0c-0.131,-0.002 -0.256,-0.008 -0.368,-0.015 -0.22,-0.015 -0.358,-0.028 -0.629,-0.067 -0.254,-0.036 -0.523,-0.095 -0.534,-0.097 -0.088,-0.021 -0.351,-0.081 -0.519,-0.131 -0.248,-0.076 -0.558,-0.187 -0.748,-0.257 -0.318,-0.12 -0.762,-0.351 -0.766,-0.353 -0.039,-0.023 -0.084,-0.047 -0.128,-0.071 -0.114,-0.064 -0.243,-0.135 -0.342,-0.196l-0.015 -0.01c-0.19,-0.121 -0.45,-0.285 -0.627,-0.429 -0.041,-0.033 -0.086,-0.069 -0.133,-0.106 -0.108,-0.086 -0.229,-0.181 -0.322,-0.265 -0.17,-0.151 -0.37,-0.342 -0.504,-0.482 -0.435,-0.452 -0.715,-0.851 -0.807,-0.982 -0.237,-0.339 -0.453,-0.707 -0.642,-1.093 -0.17,-0.351 -0.347,-0.829 -0.453,-1.16 -0.002,-0.005 -0.183,-0.558 -0.277,-1.271 -0.065,-0.502 -0.065,-0.675 -0.065,-1.323 0,-0.019 0.034,-0.616 0.069,-0.829 0.069,-0.416 0.176,-0.907 0.273,-1.249 0.181,-0.636 0.575,-1.444 0.78,-1.762 0.03,-0.044 0.061,-0.095 0.093,-0.147 0.082,-0.131 0.166,-0.261 0.241,-0.368 0.114,-0.16 0.271,-0.366 0.394,-0.513 0.45,-0.541 0.871,-0.898 0.875,-0.9 0.043,-0.035 0.09,-0.072 0.136,-0.114 0.111,-0.091 0.223,-0.186 0.321,-0.261 0.161,-0.121 0.376,-0.271 0.536,-0.373 0.34,-0.219 0.721,-0.422 1.073,-0.575 0.191,-0.082 0.335,-0.14 0.439,-0.179 0.291,-0.103 0.51,-0.174 0.668,-0.215 0.168,-0.045 0.381,-0.099 0.547,-0.129 0.159,-0.03 0.368,-0.063 0.521,-0.087 0.101,-0.015 0.228,-0.028 0.278,-0.032 0.332,-0.032 0.851,-0.066 1.531,-0.002 0.489,0.045 0.983,0.138 1.47,0.28 0.122,0.035 0.243,0.075 0.361,0.119 0.136,0.047 0.265,0.092 0.373,0.133 0.12,0.045 0.271,0.11 0.371,0.159 0.476,0.224 0.583,0.28 1.165,0.655 0.22,0.142 0.491,0.347 0.674,0.509l0.019 0.017c0.158,0.142 0.354,0.316 0.498,0.459 0.151,0.15 0.336,0.359 0.409,0.443 0.149,0.169 0.446,0.532 0.754,1.034 0.101,0.162 0.228,0.394 0.321,0.573 0.058,0.115 0.121,0.255 0.181,0.394 0.026,0.059 0.052,0.117 0.077,0.168 0.082,0.179 0.162,0.423 0.225,0.617 0.04,0.125 0.079,0.275 0.118,0.418 0.017,0.066 0.034,0.129 0.05,0.187 0.053,0.187 0.101,0.45 0.125,0.655 0.045,0.4 0.079,0.921 0.084,1.292 0.004,0.248 -0.018,0.577 -0.054,0.819l-0.016 0.122c-0.025,0.17 -0.053,0.364 -0.084,0.515 -0.04,0.194 -0.103,0.452 -0.157,0.644 -0.193,0.672 -0.443,1.179 -0.454,1.2 -0.078,0.159 -0.194,0.386 -0.287,0.551 -0.097,0.17 -0.235,0.39 -0.344,0.548 -0.349,0.512 -0.679,0.865 -0.789,0.982 -0.566,0.605 -1.227,1.12 -1.962,1.531 -0.058,0.03 -0.11,0.058 -0.162,0.086zm-8.842 -13.201l0.013 0.015c-0.047,0.04 -0.093,0.079 -0.135,0.112 -0.003,0.004 -0.421,0.357 -0.864,0.889 -0.121,0.145 -0.276,0.349 -0.388,0.508 -0.073,0.104 -0.155,0.233 -0.235,0.36 -0.034,0.054 -0.067,0.104 -0.097,0.151 -0.202,0.312 -0.59,1.109 -0.769,1.738 -0.097,0.339 -0.202,0.825 -0.271,1.239 -0.033,0.209 -0.067,0.795 -0.067,0.814 0,0.644 0,0.817 0.065,1.312 0.092,0.7 0.271,1.249 0.273,1.254 0.106,0.327 0.282,0.801 0.45,1.148 0.186,0.383 0.399,0.747 0.634,1.083 0.092,0.129 0.368,0.524 0.797,0.971 0.135,0.14 0.331,0.326 0.5,0.477 0.092,0.081 0.211,0.178 0.318,0.262l0.009 0.007c0.043,0.036 0.086,0.067 0.123,0.099 0.174,0.14 0.431,0.304 0.62,0.424l0.017 0.009c0.097,0.062 0.224,0.133 0.336,0.194l0.011 0.008c0.041,0.022 0.082,0.045 0.118,0.065 0.003,0.002 0.442,0.232 0.752,0.347 0.19,0.071 0.498,0.181 0.743,0.256 0.166,0.05 0.427,0.11 0.513,0.131 0.011,0.002 0.276,0.059 0.526,0.095 0.269,0.037 0.405,0.05 0.624,0.065 0.285,0.021 0.56,0.015 0.662,0.015 0.226,-0.004 0.42,-0.02 0.577,-0.035 0.155,-0.013 0.359,-0.041 0.605,-0.082 0.147,-0.025 0.343,-0.07 0.48,-0.099 0.162,-0.038 0.617,-0.165 0.937,-0.29 0.201,-0.078 0.436,-0.179 0.603,-0.255 0.13,-0.062 0.317,-0.157 0.474,-0.245 0.726,-0.405 1.379,-0.915 1.939,-1.514 0.108,-0.115 0.437,-0.466 0.78,-0.97 0.107,-0.157 0.243,-0.376 0.34,-0.544 0.093,-0.162 0.207,-0.388 0.284,-0.545 0.011,-0.02 0.259,-0.526 0.448,-1.185 0.054,-0.19 0.117,-0.446 0.154,-0.636 0.03,-0.15 0.058,-0.342 0.083,-0.512l0.018 -0.121c0.036,-0.239 0.056,-0.562 0.054,-0.806 -0.005,-0.37 -0.039,-0.885 -0.084,-1.283 -0.022,-0.199 -0.071,-0.457 -0.121,-0.642 -0.015,-0.056 -0.032,-0.119 -0.048,-0.183 -0.04,-0.149 -0.079,-0.298 -0.118,-0.418 -0.062,-0.192 -0.142,-0.433 -0.222,-0.608 -0.024,-0.053 -0.051,-0.11 -0.077,-0.17 -0.058,-0.129 -0.121,-0.275 -0.179,-0.388 -0.091,-0.178 -0.218,-0.407 -0.317,-0.568 -0.304,-0.498 -0.597,-0.855 -0.745,-1.023 -0.073,-0.082 -0.256,-0.289 -0.403,-0.436 -0.142,-0.14 -0.338,-0.316 -0.493,-0.456l-0.02 -0.019c-0.18,-0.16 -0.447,-0.362 -0.663,-0.502 -0.403,-0.259 -0.577,-0.366 -0.806,-0.481 0.095,0.063 0.19,0.13 0.281,0.201 0.032,0.025 0.062,0.049 0.094,0.073 0.536,0.426 1,0.956 1.383,1.575 0.761,1.234 1.15,2.746 1.125,4.374 -0.001,0.067 -0.001,0.136 -0.005,0.203 -0.075,2.098 -0.823,4.144 -2.106,5.759 -1.284,1.614 -2.949,2.605 -4.688,2.794l-0.036 0.004 -0.009 -0.088 0.035 -0.004c0.758,-0.082 1.49,-0.319 2.177,-0.683 2.529,-1.342 4.42,-4.413 4.541,-7.784 0.002,-0.067 0.004,-0.134 0.006,-0.201 0.046,-3.157 -1.471,-5.775 -3.866,-6.669 -0.131,-0.045 -0.259,-0.088 -0.37,-0.124 -0.481,-0.138 -0.97,-0.231 -1.454,-0.276 -0.672,-0.061 -1.187,-0.028 -1.513,0.002l0 0c-0.027,0.002 -0.167,0.015 -0.275,0.032 -0.151,0.022 -0.358,0.058 -0.517,0.088 -0.162,0.029 -0.373,0.084 -0.539,0.126 -0.157,0.041 -0.374,0.111 -0.661,0.213 -0.103,0.038 -0.245,0.095 -0.433,0.176 -0.347,0.151 -0.724,0.352 -1.06,0.567 -0.159,0.101 -0.372,0.25 -0.53,0.37 -0.096,0.072 -0.208,0.164 -0.316,0.255l-0.015 -0.013c-0.007,-0.002 -0.007,-0.002 -0.007,-0.002z"/>
   </g>
  </g>
 </g>
</svg>
