<?xml version="1.0" encoding="UTF-8"?>
<!DOCTYPE svg PUBLIC "-//W3C//DTD SVG 1.1//EN" "http://www.w3.org/Graphics/SVG/1.1/DTD/svg11.dtd">
<!-- Creator: CorelDRAW 2020 (64-Bit Evaluation Version) -->
<svg xmlns="http://www.w3.org/2000/svg" xml:space="preserve" width="70px" height="88px" version="1.1" style="shape-rendering:geometricPrecision; text-rendering:geometricPrecision; image-rendering:optimizeQuality; fill-rule:evenodd; clip-rule:evenodd"
viewBox="0 0 13.717 17.202"
 xmlns:xlink="http://www.w3.org/1999/xlink"
 xmlns:xodm="http://www.corel.com/coreldraw/odm/2003">
 <defs>
  <style type="text/css">
   <![CDATA[
    .str0 {stroke:#EFB30C;stroke-width:0.018;stroke-miterlimit:2.61313}
    .fil0 {fill:#003399;fill-rule:nonzero}
    .fil1 {fill:#EFB30C;fill-rule:nonzero}
   ]]>
  </style>
 </defs>
 <g id="Layer_x0020_1">
  <metadata id="CorelCorpID_0Corel-Layer"/>
  <g id="_2619414723056">
   <polygon class="fil0" points="11.15,0.018 4.713,0.018 2.139,9.285 4.719,9.285 2.526,17.182 3.298,17.182 10.763,7.915 6.982,7.915 "/>
   <polygon class="fil1" points="3.791,0 2.919,0 0,10.556 2.579,10.556 0.757,17.171 1.529,17.171 3.653,9.828 1.074,9.828 "/>
   <g>
    <path class="fil1" d="M10.506 16.035c0.161,0 0.292,-0.131 0.292,-0.292l0 -0.933c0,-0.277 0.15,-0.553 0.374,-0.842 0.367,-0.475 0.553,-1.095 0.46,-1.745l-0.005 -0.041c-0.163,-1.138 -1.138,-1.984 -2.288,-1.984 -1.15,0 -2.125,0.846 -2.287,1.984l-0.006 0.041c-0.093,0.65 0.093,1.27 0.46,1.745 0.224,0.289 0.374,0.565 0.374,0.842l0 0.933c0,0.161 0.131,0.292 0.292,0.292l2.334 0zm-2.883 -3.729l0.006 -0.042c0.122,-0.85 0.851,-1.482 1.71,-1.482 0.86,0 1.588,0.632 1.71,1.482l0.006 0.042c0.069,0.487 -0.069,0.949 -0.345,1.305 -0.24,0.31 -0.495,0.718 -0.495,1.199l0 0.641 -1.751 0 0 -0.641c0,-0.481 -0.256,-0.889 -0.496,-1.199 -0.275,-0.356 -0.414,-0.818 -0.345,-1.305z"/>
    <polygon class="fil1" points="6.919,10.575 6.043,9.7 5.631,10.113 6.506,10.988 "/>
    <polygon class="fil1" points="12.549,13.116 13.717,13.116 13.717,12.533 12.549,12.533 "/>
    <polygon class="fil1" points="4.962,13.116 6.129,13.116 6.129,12.533 4.962,12.533 "/>
    <polygon class="fil1" points="9.047,8.447 9.047,9.614 9.631,9.614 9.631,8.447 "/>
    <polygon class="fil1 str0" points="12.172,10.988 13.047,10.113 12.635,9.7 11.759,10.575 "/>
    <polygon class="fil1" points="8.464,17.202 10.215,17.202 10.215,16.618 8.464,16.618 "/>
   </g>
  </g>
 </g>
</svg>
