<svg width="96" height="96" viewBox="0 0 96 96" fill="none" xmlns="http://www.w3.org/2000/svg">
<g clip-path="url(#clip0)">
<path d="M74.35 42.65V26.21H64.28V21.82H57.71V24.32H61.78V45.96C61.78 53.56 55.6 59.75 47.99 59.75C40.39 59.75 34.2 53.56 34.2 45.96V21.83H31.7V26.21H21.64V42.65L36.47 57.48C39.14 60.15 42.74 61.9 46.74 62.2V71.81H34.2V74.31H61.78V71.81H49.24V62.2C53.25 61.9 56.85 60.15 59.52 57.47V57.48L74.35 42.65ZM64.28 45.96V28.71H71.85V41.62L63.87 49.59C64.14 48.43 64.28 47.21 64.28 45.96ZM24.14 41.62V28.71H31.7V45.96C31.7 47.21 31.84 48.42 32.11 49.58L24.14 41.62Z" fill="#2B2F36"/>
<path d="M39.65 21.83H37.15V24.33H39.65V21.83Z" fill="#2B2F36"/>
<path d="M45.07 21.83H42.57V24.33H45.07V21.83Z" fill="#2B2F36"/>
<path d="M57.71 21.83V45.96L52.85 41.1L47.99 45.96V21.83H57.71Z" fill="#D0980B"/>
<path d="M48.1079 -0.405285L46.3401 1.36246L49.5787 4.60098L51.3464 2.83323L48.1079 -0.405285Z" fill="#474D57"/>
<path d="M33.3239 7.39892L30.0849 10.637L31.8524 12.405L35.0914 9.16692L33.3239 7.39892Z" fill="#474D57"/>
<path d="M14.0822 5.54578L12.5317 7.50703L14.493 9.05753L16.0435 7.09628L14.0822 5.54578Z" fill="#474D57"/>
<path d="M67.3828 4.58264L65.8323 6.54389L67.7935 8.09439L69.344 6.13314L67.3828 4.58264Z" fill="#474D57"/>
<path d="M85.5349 29.9236L83.9844 31.8849L85.9457 33.4354L87.4962 31.4741L85.5349 29.9236Z" fill="#474D57"/>
<path d="M93.4273 54.9981L91.8768 56.9594L93.838 58.5099L95.3885 56.5486L93.4273 54.9981Z" fill="#474D57"/>
<path d="M72.6579 75.4224L71.1074 77.3836L73.0687 78.9341L74.6192 76.9729L72.6579 75.4224Z" fill="#474D57"/>
<path d="M8.56857 55.7734L7.01807 57.7346L8.97932 59.2851L10.5298 57.3239L8.56857 55.7734Z" fill="#474D57"/>
<path d="M85.537 87.8348L83.9865 89.7961L85.9478 91.3466L87.4983 89.3853L85.537 87.8348Z" fill="#474D57"/>
<path d="M3.34169 38.5299L1.57394 40.2977L4.81246 43.5362L6.58021 41.7684L3.34169 38.5299Z" fill="#474D57"/>
<path d="M18.6195 83.9888L16.8518 85.7565L20.0903 88.9951L21.8581 87.2273L18.6195 83.9888Z" fill="#474D57"/>
<path d="M74.527 56.8489L72.7592 58.6167L75.9977 61.8552L77.7655 60.0874L74.527 56.8489Z" fill="#474D57"/>
<path d="M23.94 65.55H19.36V68.05H23.94V65.55Z" fill="#474D57"/>
<path d="M84.32 10.18H81.82V14.76H84.32V10.18Z" fill="#474D57"/>
</g>
<defs>
<clipPath id="clip0">
<rect width="96" height="96" fill="white"/>
</clipPath>
</defs>
</svg>
