<svg width="96" height="96" viewBox="0 0 96 96" fill="none" xmlns="http://www.w3.org/2000/svg">
<g clip-path="url(#clip0)">
<path d="M83.12 77L81.19 75.4C81.71 74.78 82.19 74.14 82.69 73.49L84.69 74.97C84.2 75.61 83.67 76.29 83.12 77ZM12.81 76.92C12.27 76.26 11.74 75.58 11.23 74.92L13.23 73.44C13.71 74.09 14.23 74.73 14.72 75.35L12.81 76.92ZM86.44 72.43L84.33 71C84.76 70.32 85.18 69.62 85.57 68.92L87.75 70.14C87.34 70.92 86.9 71.66 86.44 72.38V72.43ZM9.5 72.3C9.04 71.59 8.6 70.84 8.19 70.1L10.38 68.89C10.77 69.59 11.18 70.29 11.61 70.97L9.5 72.3ZM89.16 67.44L86.9 66.37C87.24 65.64 87.57 64.9 87.9 64.15L90.22 65.08C89.87 65.88 89.52 66.67 89.16 67.44ZM6.79 67.36C6.43 66.59 6.08 65.8 5.79 65.01L8.11 64.08C8.41 64.83 8.74 65.57 9.11 66.3L6.79 67.36ZM91.24 62.19L88.87 61.42C89.11 60.65 89.35 59.87 89.55 59.09L91.97 59.73C91.75 60.56 91.5 61.39 91.24 62.19ZM4.71 62.12C4.45 61.31 4.2 60.49 3.99 59.66L6.4 59C6.61 59.78 6.84 60.56 7.09 61.32L4.71 62.12ZM92.66 56.73L90.21 56.26C90.36 55.46 90.49 54.66 90.6 53.86L93.08 54.2C93 55.05 92.82 55.9 92.66 56.73ZM3.3 56.66C3.14 55.82 3 54.97 2.89 54.13L5.36 53.79C5.47 54.59 5.6 55.4 5.76 56.19L3.3 56.66ZM93.4 51.15L90.91 51C90.91 50.2 91 49.38 91.01 48.58H93.51C93.5 49.44 93.46 50.3 93.4 51.15ZM2.58 51.07C2.52 50.22 2.48 49.36 2.47 48.51H4.97C4.97 49.31 4.97 50.13 5.07 50.93L2.58 51.07ZM91 45.64C91 44.83 90.9 44.02 90.81 43.22L93.25 43C93.35 43.85 93.42 44.71 93.46 45.56L91 45.64ZM5 45.57L2.5 45.43C2.5 44.58 2.62 43.72 2.72 42.87L5.2 43.15C5.15 44 5.08 44.76 5 45.57ZM90.32 40.34C90.17 39.55 90.01 38.75 89.82 37.97L92.25 37.39C92.45 38.22 92.63 39.06 92.78 39.9L90.32 40.34ZM5.62 40.27L3.2 39.83C3.35 38.99 3.53 38.15 3.73 37.32L6.16 37.9C6 38.69 5.81 39.48 5.66 40.27H5.62V40.27ZM89.05 35.17C88.81 34.4 88.55 33.63 88.27 32.88L90.65 32C90.95 32.79 91.23 33.61 91.48 34.42L89.05 35.17ZM6.94 35.1L4.55 34.35C4.8 33.54 5.09 32.72 5.38 31.92L7.72 32.8C7.44 33.56 7.18 34.33 6.94 35.1ZM87.19 30.19C86.86 29.46 86.5 28.73 86.13 28.01L88.34 26.85C88.74 27.61 89.12 28.38 89.47 29.16L87.19 30.19ZM8.84 30.12L6.57 29.12C6.92 28.35 7.3 27.57 7.7 26.82L9.91 27.98C9.53 28.66 9.17 29.39 8.84 30.12ZM84.69 25.49C84.27 24.81 83.82 24.12 83.36 23.49L85.36 22.06C85.85 22.76 86.36 23.49 86.77 24.21L84.69 25.49ZM11.35 25.42L9.22 24.1C9.67 23.38 10.15 22.66 10.63 21.96L12.63 23.39C12.22 24.05 11.77 24.73 11.35 25.42ZM81.62 21.14C81.12 20.51 80.62 19.89 80.05 19.29L81.91 17.62C82.49 18.26 83.04 18.91 83.57 19.57L81.62 21.14ZM14.43 21.06L12.48 19.49C13.02 18.83 13.58 18.17 14.15 17.54L16 19.22C15.47 19.81 14.94 20.43 14.43 21.06ZM78 17.19C77.42 16.62 76.82 16.07 76.21 15.54L77.86 13.66C78.5 14.21 79.13 14.8 79.74 15.4L78 17.19ZM18 17.12L16.26 15.33C16.87 14.73 17.5 14.15 18.15 13.59L19.79 15.48C19.2 16 18.6 16.56 18 17.12ZM74 13.7C73.36 13.22 72.7 12.7 72 12.29L73.4 10.22C74.11 10.69 74.81 11.22 75.48 11.71L74 13.7ZM22.06 13.64L20.56 11.64C21.24 11.13 21.94 10.64 22.64 10.15L24 12.24C23.37 12.68 22.71 13.16 22.06 13.64ZM69.56 10.74C68.87 10.34 68.15 9.95 67.43 9.59L68.56 7.36C69.32 7.74 70.08 8.16 70.82 8.58L69.56 10.74ZM26.5 10.74L25.25 8.57C25.99 8.15 26.75 7.74 27.51 7.36L28.63 9.59C27.92 9.91 27.2 10.3 26.5 10.7V10.74ZM64.79 8.4C64.05 8.09 63.29 7.79 62.54 7.52L63.38 5.17C64.18 5.45 64.98 5.77 65.77 6.1L64.79 8.4ZM31.27 8.4L30.3 6C31.09 5.68 31.89 5.36 32.69 5.08L33.53 7.43C32.77 7.72 32 8 31.27 8.33V8.4ZM59.77 6.66C58.99 6.44 58.2 6.24 57.42 6.07L58 3.56C58.83 3.74 59.67 3.96 60.49 4.19L59.77 6.66ZM36.3 6.66L35.63 4.25C36.45 4.02 37.28 3.81 38.11 3.63L38.65 6C37.87 6.15 37.08 6.35 36.3 6.57V6.66ZM54.56 5.46C53.76 5.34 52.95 5.24 52.15 5.16L52.39 2.67C53.23 2.75 54.09 2.86 54.93 2.99L54.56 5.46ZM41.51 5.46L41.14 3C41.98 2.87 42.83 2.76 43.68 2.68L43.92 5.17C43.12 5.23 42.31 5.33 41.51 5.45V5.46ZM49.25 5C48.44 5 47.63 5 46.82 5L46.75 2.5C47.61 2.5 48.46 2.5 49.32 2.5L49.25 5Z" fill="#929AA5"/>
<path d="M58.9 45.59C58.9 51.03 54.89 55.64 49.5 56.38V51.13H46.5V56.38C40.54 55.55 36.38 50.05 37.2 44.08C38.02 38.11 43.53 33.96 49.5 34.78C54.89 35.54 58.9 40.15 58.9 45.59Z" fill="url(#paint0_linear)"/>
<path d="M64.68 28.91C55.5 19.7 40.58 19.68 31.38 28.86C31.36 28.88 31.35 28.89 31.33 28.91C22.12 38.11 22.11 53.03 31.3 62.24C31.31 62.25 31.32 62.26 31.33 62.27L36.21 67.16V75.52L42.11 81.42H53.9L59.79 75.57V67.22L64.68 62.29C73.89 53.07 73.89 38.13 64.68 28.91ZM57.29 74.55L52.87 78.94H43.13L38.7 74.51V72H57.29V74.55V74.55ZM62.91 60.55L62.18 61.29L58 65.46L57.27 66.19V69.5H49.27V58.89H46.77V69.5H38.77V66.14L38 65.41L33.11 60.53C24.87 52.29 24.86 38.93 33.1 30.69C41.34 22.45 54.7 22.44 62.94 30.68C71.18 38.92 71.19 52.28 62.95 60.52L62.94 60.53L62.91 60.55Z" fill="#929AA5"/>
<path d="M53.9 84.45H42.1V86.95H53.9V84.45Z" fill="#929AA5"/>
</g>
<defs>
<linearGradient id="paint0_linear" x1="40.2931" y1="53.293" x2="55.7085" y2="37.877" gradientUnits="userSpaceOnUse">
<stop stop-color="#F0B90B"/>
<stop offset="0.99" stop-color="#FBDA3C"/>
</linearGradient>
<clipPath id="clip0">
<rect width="96" height="96" fill="white"/>
</clipPath>
</defs>
</svg>
