<?xml version="1.0" encoding="UTF-8"?>
<!DOCTYPE svg PUBLIC "-//W3C//DTD SVG 1.1//EN" "http://www.w3.org/Graphics/SVG/1.1/DTD/svg11.dtd">
<!-- Creator: CorelDRAW 2020 (64-Bit Evaluation Version) -->
<svg xmlns="http://www.w3.org/2000/svg" xml:space="preserve" width="500px" height="148px" version="1.1" style="shape-rendering:geometricPrecision; text-rendering:geometricPrecision; image-rendering:optimizeQuality; fill-rule:evenodd; clip-rule:evenodd"
viewBox="0 0 167.98 49.85"
 xmlns:xlink="http://www.w3.org/1999/xlink"
 xmlns:xodm="http://www.corel.com/coreldraw/odm/2003">
 <defs>
  <style type="text/css">
   <![CDATA[
    .fil0 {fill:black;fill-rule:nonzero}
    .fil1 {fill:#00C1FF;fill-rule:nonzero}
    .fil12 {fill:white;fill-rule:nonzero}
    .fil13 {fill:white;fill-rule:nonzero}
    .fil3 {fill:url(#id0);fill-rule:nonzero}
    .fil8 {fill:url(#id1);fill-rule:nonzero}
    .fil9 {fill:url(#id2);fill-rule:nonzero}
    .fil4 {fill:url(#id3);fill-rule:nonzero}
    .fil5 {fill:url(#id4);fill-rule:nonzero}
    .fil2 {fill:url(#id5);fill-rule:nonzero}
    .fil10 {fill:url(#id6);fill-rule:nonzero}
    .fil6 {fill:url(#id7);fill-rule:nonzero}
    .fil7 {fill:url(#id8);fill-rule:nonzero}
    .fil11 {fill:url(#id9);fill-rule:nonzero}
   ]]>
  </style>
  <linearGradient id="id0" gradientUnits="userSpaceOnUse" x1="45.26" y1="24.18" x2="20.8" y2="24.18">
   <stop offset="0" style="stop-opacity:1; stop-color:#FFE000"/>
   <stop offset="0.411765" style="stop-opacity:1; stop-color:#FFBD00"/>
   <stop offset="0.780392" style="stop-opacity:1; stop-color:orange"/>
   <stop offset="1" style="stop-opacity:1; stop-color:#FF9C00"/>
  </linearGradient>
  <linearGradient id="id1" gradientUnits="userSpaceOnUse" x1="48.07" y1="23.69" x2="27.01" y2="23.69">
   <stop offset="0" style="stop-opacity:1; stop-color:#E0C500"/>
   <stop offset="0.411765" style="stop-opacity:1; stop-color:#E0A600"/>
   <stop offset="0.780392" style="stop-opacity:1; stop-color:#E09100"/>
   <stop offset="1" style="stop-opacity:1; stop-color:#E08900"/>
  </linearGradient>
  <linearGradient id="id2" gradientUnits="userSpaceOnUse" x1="48.07" y1="24.93" x2="27.01" y2="24.93">
   <stop offset="0" style="stop-opacity:1; stop-color:#FFE840"/>
   <stop offset="0.411765" style="stop-opacity:1; stop-color:#FFCE40"/>
   <stop offset="0.780392" style="stop-opacity:1; stop-color:#FFBC40"/>
   <stop offset="1" style="stop-opacity:1; stop-color:#FFB540"/>
  </linearGradient>
  <linearGradient id="id3" gradientUnits="userSpaceOnUse" x1="35.74" y1="28.78" x2="14.05" y2="50.34">
   <stop offset="0" style="stop-opacity:1; stop-color:#FF3A44"/>
   <stop offset="1" style="stop-opacity:1; stop-color:#C31162"/>
  </linearGradient>
  <linearGradient id="id4" gradientUnits="userSpaceOnUse" x1="18.98" y1="1.9" x2="28.62" y2="11.53">
   <stop offset="0" style="stop-opacity:1; stop-color:#32A071"/>
   <stop offset="0.0705882" style="stop-opacity:1; stop-color:#2DA771"/>
   <stop offset="0.470588" style="stop-opacity:1; stop-color:#15CF74"/>
   <stop offset="0.8" style="stop-opacity:1; stop-color:#06E775"/>
   <stop offset="1" style="stop-opacity:1; stop-color:#00F076"/>
  </linearGradient>
  <linearGradient id="id5" gradientUnits="userSpaceOnUse" x1="3.97" y1="20.67" x2="-6.9" y2="31.59">
   <stop offset="0" style="stop-opacity:1; stop-color:#00A0FF"/>
   <stop offset="0.0117647" style="stop-opacity:1; stop-color:#00A1FF"/>
   <stop offset="0.258824" style="stop-opacity:1; stop-color:#00BEFF"/>
   <stop offset="0.509804" style="stop-opacity:1; stop-color:#00D2FF"/>
   <stop offset="0.760784" style="stop-opacity:1; stop-color:#00DFFF"/>
   <stop offset="1" style="stop-opacity:1; stop-color:#00E3FF"/>
  </linearGradient>
  <linearGradient id="id6" gradientUnits="userSpaceOnUse" x1="-31.69" y1="16.77" x2="-38.85" y2="23.61">
   <stop offset="0" style="stop-opacity:1; stop-color:#40B8FF"/>
   <stop offset="0.0117647" style="stop-opacity:1; stop-color:#40B9FF"/>
   <stop offset="0.258824" style="stop-opacity:1; stop-color:#40CEFF"/>
   <stop offset="0.509804" style="stop-opacity:1; stop-color:#40DDFF"/>
   <stop offset="0.760784" style="stop-opacity:1; stop-color:#40E7FF"/>
   <stop offset="1" style="stop-opacity:1; stop-color:#40EAFF"/>
  </linearGradient>
  <linearGradient id="id7" gradientUnits="userSpaceOnUse" x1="42.24" y1="32.62" x2="27.48" y2="47.4">
   <stop offset="0" style="stop-opacity:1; stop-color:#CC2E36"/>
   <stop offset="1" style="stop-opacity:1; stop-color:#9C0E4E"/>
  </linearGradient>
  <linearGradient id="id8" gradientUnits="userSpaceOnUse" x1="-31.53" y1="23.8" x2="-38.68" y2="31.05">
   <stop offset="0" style="stop-opacity:1; stop-color:#008DE0"/>
   <stop offset="0.0117647" style="stop-opacity:1; stop-color:#008DE0"/>
   <stop offset="0.258824" style="stop-opacity:1; stop-color:#00A7E0"/>
   <stop offset="0.509804" style="stop-opacity:1; stop-color:#00B8E0"/>
   <stop offset="0.760784" style="stop-opacity:1; stop-color:#00C4E0"/>
   <stop offset="1" style="stop-opacity:1; stop-color:#00C7E0"/>
  </linearGradient>
  <linearGradient id="id9" gradientUnits="userSpaceOnUse" x1="30.88" y1="0.03" x2="37.45" y2="6.68">
   <stop offset="0" style="stop-opacity:1; stop-color:#65B895"/>
   <stop offset="0.0705882" style="stop-opacity:1; stop-color:#62BD95"/>
   <stop offset="0.470588" style="stop-opacity:1; stop-color:#50DB97"/>
   <stop offset="0.8" style="stop-opacity:1; stop-color:#44ED98"/>
   <stop offset="1" style="stop-opacity:1; stop-color:#40F498"/>
  </linearGradient>
 </defs>
 <g id="Layer_x0020_1">
  <metadata id="CorelCorpID_0Corel-Layer"/>
  <g id="_2645376103952">
   <g>
    <path class="fil0" d="M161.76 49.85l-155.54 0c-3.42,0 -6.22,-2.8 -6.22,-6.23l0 -37.39c0,-3.43 2.8,-6.23 6.22,-6.23l155.54 0c3.42,0 6.22,2.8 6.22,6.23l0 37.39c0,3.43 -2.8,6.23 -6.22,6.23l0 0zm0 0l0 0 0 0z"/>
   </g>
   <g id="_2645376104960">
    <path class="fil1" d="M13.39 9.44c-0.42,0.38 -0.67,1.01 -0.67,1.84l0 -0.19 0 27.57 0 -0.18c0,0.77 0.22,1.37 0.58,1.75l0.09 0.09 0 0c0.29,0.27 0.67,0.41 1.1,0.41 0.42,0 0.89,-0.14 1.39,-0.42l18.06 -10.28 6.21 -3.53c0.79,-0.45 1.23,-1.03 1.3,-1.62l0 0c-0.07,-0.59 -0.51,-1.17 -1.3,-1.61l-6.21 -3.54 -18.06 -10.27c-0.5,-0.29 -0.97,-0.42 -1.39,-0.42 -0.43,0 -0.81,0.14 -1.1,0.4l0 0z"/>
    <path class="fil2" d="M13.39 40.32l-0.09 -0.09c-0.36,-0.38 -0.58,-0.98 -0.58,-1.75l0 0.18 0 -27.56 0 0.18c0,-0.83 0.25,-1.46 0.67,-1.84l15.41 15.44 -15.41 15.44z"/>
    <path class="fil3" d="M33.94 30.03l-5.14 -5.15 5.14 -5.15 6.21 3.54c0.79,0.44 1.23,1.02 1.3,1.61l0 0c-0.07,0.59 -0.51,1.17 -1.3,1.62l-6.21 3.53m0 0l0 0 0 0z"/>
    <path class="fil4" d="M14.49 40.73c-0.43,0 -0.81,-0.14 -1.1,-0.41l0 0 15.42 -15.44 5.13 5.15 -18.06 10.28c-0.5,0.28 -0.97,0.42 -1.39,0.42z"/>
    <path class="fil5" d="M28.8 24.88l-15.41 -15.44c0.29,-0.26 0.67,-0.4 1.1,-0.4 0.42,0 0.89,0.13 1.39,0.42l18.06 10.27 -5.14 5.15m0 0l0 0 0 0z"/>
    <path class="fil6" d="M14.49 40.91c-0.43,0 -0.81,-0.14 -1.1,-0.4l0 0c-0.02,-0.01 -0.03,-0.02 -0.03,-0.04 0,-0.02 0.01,-0.04 0.03,-0.04 0.02,0 0.04,0.02 0.04,0.04 0,0.02 -0.02,0.03 -0.04,0.04l-0.08 -0.09c-0.01,0 -0.01,0 -0.01,0l0.09 -0.1c0.29,0.27 0.67,0.41 1.1,0.41 0.42,0 0.89,-0.14 1.39,-0.42l18.06 -10.28 0.12 0.12 -0.12 0.06 -18.06 10.28c-0.45,0.26 -0.89,0.4 -1.28,0.42 0,0 0,0 0,0 0,0 0,0 0,0m-0.11 0l0 0 0 0z"/>
    <path class="fil7" d="M13.3 40.42c-0.36,-0.39 -0.58,-0.98 -0.58,-1.76l0 -0.18c0,0.77 0.22,1.37 0.58,1.75l0.09 0.09 -0.09 0.1m0 0l0 0 0 0z"/>
    <path class="fil8" d="M34.06 30.15l-0.12 -0.12 6.21 -3.53c0.79,-0.45 1.23,-1.03 1.3,-1.62 0,0.22 -0.05,0.44 -0.14,0.65 -0.19,0.42 -0.58,0.82 -1.16,1.15l-6.09 3.47z"/>
    <path class="fil9" d="M41.45 24.88c-0.07,-0.59 -0.51,-1.17 -1.3,-1.61l-6.21 -3.54 0.12 -0.11 0 0 6.09 3.46c0.87,0.5 1.3,1.15 1.3,1.8z"/>
    <path class="fil10" d="M12.72 11.28l0 -0.19c0,-0.07 0,-0.13 0.01,-0.2l0 0c0,0 0,0 0,0l0 -0.01c0.03,-0.67 0.24,-1.18 0.57,-1.53l0.09 0.09c-0.42,0.38 -0.67,1.01 -0.67,1.84z"/>
    <path class="fil11" d="M33.94 19.73l-18.06 -10.27c-0.5,-0.29 -0.97,-0.42 -1.39,-0.42 -0.43,0 -0.81,0.14 -1.1,0.4l-0.09 -0.09c0,0 0,0 0,0 0.29,-0.27 0.66,-0.41 1.09,-0.41l0.01 0c0.42,0 0.89,0.14 1.39,0.42l18.27 10.26 0 0 -0.12 0.11m0 0l0 0 0 0z"/>
   </g>
   <g id="_2645376104240">
    <path class="fil12" d="M134.35 35.91l2.32 0 0 -15.58 -2.32 0 0 15.58zm20.92 -9.96l-2.67 6.75 -0.08 0 -2.76 -6.75 -2.5 0 4.14 9.44 -2.36 5.25 2.42 0 6.39 -14.69 -2.58 0zm-13.17 8.19c-0.76,0 -1.82,-0.38 -1.82,-1.32 0,-1.2 1.32,-1.66 2.46,-1.66 1.02,0 1.5,0.22 2.12,0.52 -0.18,1.44 -1.42,2.46 -2.76,2.46zm0.28 -8.54c-1.68,0 -3.42,0.75 -4.14,2.39l2.06 0.86c0.44,-0.86 1.26,-1.14 2.12,-1.14 1.2,0 2.42,0.72 2.44,2l0 0.16c-0.42,-0.24 -1.32,-0.6 -2.42,-0.6 -2.22,0 -4.49,1.23 -4.49,3.51 0,2.09 1.83,3.43 3.87,3.43 1.56,0 2.42,-0.7 2.96,-1.53l0.08 0 0 1.21 2.24 0 0 -5.98c0,-2.76 -2.06,-4.31 -4.72,-4.31zm-14.35 2.24l-3.3 0 0 -5.34 3.3 0c1.73,0 2.72,1.44 2.72,2.67 0,1.21 -0.99,2.67 -2.72,2.67zm-0.06 -7.51l-5.56 0 0 15.58 2.32 0 0 -5.9 3.24 0c2.57,0 5.1,-1.87 5.1,-4.84 0,-2.97 -2.53,-4.84 -5.1,-4.84l0 0zm-30.34 13.82c-1.6,0 -2.95,-1.35 -2.95,-3.2 0,-1.86 1.35,-3.23 2.95,-3.23 1.59,0 2.83,1.37 2.83,3.23 0,1.85 -1.24,3.2 -2.83,3.2l0 0zm2.67 -7.33l-0.08 0c-0.52,-0.62 -1.53,-1.19 -2.79,-1.19 -2.65,0 -5.07,2.33 -5.07,5.32 0,2.98 2.42,5.28 5.07,5.28 1.26,0 2.27,-0.56 2.79,-1.2l0.08 0 0 0.76c0,2.03 -1.08,3.12 -2.83,3.12 -1.42,0 -2.3,-1.03 -2.67,-1.89l-2.02 0.84c0.58,1.41 2.13,3.13 4.69,3.13 2.73,0 5.03,-1.6 5.03,-5.52l0 -9.52 -2.2 0 0 0.87zm3.81 9.09l2.32 0 0 -15.58 -2.32 0 0 15.58zm5.75 -5.14c-0.06,-2.05 1.58,-3.09 2.77,-3.09 0.92,0 1.7,0.46 1.96,1.13l-4.73 1.96zm7.22 -1.76c-0.44,-1.19 -1.79,-3.38 -4.53,-3.38 -2.73,0 -5,2.15 -5,5.3 0,2.98 2.25,5.3 5.26,5.3 2.42,0 3.83,-1.48 4.41,-2.34l-1.81 -1.21c-0.6,0.88 -1.42,1.47 -2.6,1.47 -1.19,0 -2.03,-0.55 -2.57,-1.61l7.08 -2.93 -0.24 -0.6zm-56.38 -1.75l0 2.25 5.37 0c-0.16,1.26 -0.58,2.19 -1.22,2.83 -0.78,0.78 -2.01,1.65 -4.15,1.65 -3.31,0 -5.89,-2.67 -5.89,-5.99 0,-3.31 2.58,-5.98 5.89,-5.98 1.78,0 3.09,0.7 4.05,1.61l1.58 -1.59c-1.34,-1.29 -3.13,-2.27 -5.63,-2.27 -4.53,0 -8.34,3.69 -8.34,8.23 0,4.54 3.81,8.23 8.34,8.23 2.44,0 4.29,-0.8 5.73,-2.3 1.49,-1.49 1.95,-3.58 1.95,-5.26 0,-0.53 -0.04,-1.01 -0.12,-1.41l-7.56 0zm13.78 6.89c-1.6,0 -2.98,-1.33 -2.98,-3.22 0,-1.9 1.38,-3.21 2.98,-3.21 1.61,0 2.99,1.31 2.99,3.21 0,1.89 -1.38,3.22 -2.99,3.22zm0 -8.52c-2.92,0 -5.31,2.23 -5.31,5.3 0,3.06 2.39,5.3 5.31,5.3 2.93,0 5.32,-2.24 5.32,-5.3 0,-3.07 -2.39,-5.3 -5.32,-5.3zm11.59 8.52c-1.6,0 -2.98,-1.33 -2.98,-3.22 0,-1.9 1.38,-3.21 2.98,-3.21 1.61,0 2.99,1.31 2.99,3.21 0,1.89 -1.38,3.22 -2.99,3.22l0 0zm0 -8.52c-2.92,0 -5.31,2.23 -5.31,5.3 0,3.06 2.39,5.3 5.31,5.3 2.93,0 5.32,-2.24 5.32,-5.3 0,-3.07 -2.39,-5.3 -5.32,-5.3l0 0z"/>
    <path class="fil13" d="M56.04 13.44l0 -0.86 3.11 0 0 2.72c-0.48,0.38 -0.97,0.67 -1.48,0.86 -0.51,0.19 -1.03,0.29 -1.56,0.29 -0.72,0 -1.38,-0.16 -1.97,-0.47 -0.58,-0.3 -1.03,-0.75 -1.33,-1.33 -0.3,-0.59 -0.45,-1.24 -0.45,-1.96 0,-0.72 0.15,-1.38 0.45,-2 0.3,-0.62 0.73,-1.08 1.29,-1.38 0.56,-0.3 1.2,-0.45 1.93,-0.45 0.53,0 1.01,0.08 1.44,0.26 0.43,0.17 0.77,0.41 1.01,0.72 0.25,0.3 0.43,0.7 0.56,1.2l-0.88 0.24c-0.11,-0.37 -0.25,-0.67 -0.41,-0.88 -0.16,-0.22 -0.4,-0.39 -0.7,-0.52 -0.3,-0.13 -0.64,-0.19 -1.01,-0.19 -0.44,0 -0.83,0.07 -1.15,0.2 -0.32,0.14 -0.58,0.32 -0.78,0.54 -0.2,0.22 -0.36,0.46 -0.46,0.72 -0.19,0.46 -0.29,0.95 -0.29,1.48 0,0.66 0.12,1.21 0.34,1.65 0.23,0.44 0.56,0.77 0.98,0.98 0.43,0.22 0.89,0.33 1.37,0.33 0.43,0 0.84,-0.09 1.24,-0.25 0.39,-0.16 0.7,-0.34 0.9,-0.52l0 -1.38 -2.15 0z"/>
    <path id="1" class="fil13" d="M64.1 14.6l0.93 0.12c-0.14,0.55 -0.42,0.97 -0.81,1.27 -0.4,0.3 -0.9,0.45 -1.52,0.45 -0.78,0 -1.39,-0.24 -1.85,-0.72 -0.45,-0.48 -0.68,-1.15 -0.68,-2.01 0,-0.89 0.23,-1.59 0.69,-2.08 0.46,-0.49 1.06,-0.74 1.79,-0.74 0.71,0 1.29,0.24 1.74,0.72 0.45,0.49 0.67,1.17 0.67,2.04 0,0.06 0,0.14 0,0.24l-3.97 0c0.04,0.59 0.2,1.03 0.5,1.34 0.3,0.31 0.67,0.47 1.11,0.47 0.33,0 0.61,-0.09 0.84,-0.26 0.24,-0.18 0.42,-0.46 0.56,-0.84zm-2.95 -1.44l2.96 0c-0.04,-0.45 -0.15,-0.79 -0.34,-1.01 -0.29,-0.35 -0.66,-0.52 -1.12,-0.52 -0.41,0 -0.76,0.14 -1.04,0.41 -0.28,0.28 -0.43,0.65 -0.46,1.12z"/>
    <path id="2" class="fil13" d="M68.13 15.52l0.12 0.8c-0.25,0.05 -0.48,0.08 -0.68,0.08 -0.32,0 -0.57,-0.06 -0.76,-0.16 -0.18,-0.1 -0.3,-0.24 -0.38,-0.41 -0.07,-0.17 -0.1,-0.52 -0.1,-1.06l0 -3.07 -0.67 0 0 -0.7 0.67 0 0 -1.31 0.9 -0.55 0 1.86 0.9 0 0 0.7 -0.9 0 0 3.12c0,0.25 0.01,0.42 0.05,0.49 0.03,0.08 0.08,0.14 0.15,0.18 0.07,0.04 0.17,0.07 0.31,0.07 0.1,0 0.23,-0.02 0.39,-0.04z"/>
    <path id="3" class="fil13" d="M71.87 10.01l0 -1.03 0.9 0 0 1.03 -0.9 0zm0 6.31l0 -5.32 0.9 0 0 5.32 -0.9 0z"/>
    <path id="4" class="fil13" d="M76.11 15.52l0.12 0.8c-0.25,0.05 -0.48,0.08 -0.68,0.08 -0.33,0 -0.58,-0.06 -0.76,-0.16 -0.18,-0.1 -0.31,-0.24 -0.38,-0.41 -0.07,-0.17 -0.11,-0.52 -0.11,-1.06l0 -3.07 -0.67 0 0 -0.7 0.67 0 0 -1.31 0.9 -0.55 0 1.86 0.91 0 0 0.7 -0.91 0 0 3.12c0,0.25 0.02,0.42 0.05,0.49 0.03,0.08 0.08,0.14 0.16,0.18 0.07,0.04 0.17,0.07 0.3,0.07 0.1,0 0.23,-0.02 0.4,-0.04z"/>
    <path id="5" class="fil13" d="M79.51 13.66c0,-0.98 0.27,-1.71 0.82,-2.18 0.46,-0.39 1.01,-0.59 1.67,-0.59 0.73,0 1.33,0.24 1.79,0.72 0.47,0.47 0.7,1.14 0.7,1.98 0,0.68 -0.1,1.22 -0.31,1.61 -0.2,0.39 -0.5,0.7 -0.89,0.91 -0.4,0.22 -0.83,0.33 -1.29,0.33 -0.74,0 -1.34,-0.24 -1.8,-0.72 -0.46,-0.47 -0.69,-1.16 -0.69,-2.06zm0.92 0c0,0.69 0.15,1.19 0.45,1.53 0.29,0.34 0.67,0.51 1.12,0.51 0.45,0 0.82,-0.17 1.12,-0.51 0.3,-0.34 0.45,-0.86 0.45,-1.55 0,-0.66 -0.15,-1.16 -0.45,-1.49 -0.3,-0.34 -0.67,-0.51 -1.12,-0.51 -0.45,0 -0.83,0.17 -1.12,0.5 -0.3,0.34 -0.45,0.85 -0.45,1.52z"/>
    <path id="6" class="fil13" d="M85.55 16.32l0 -5.32 0.81 0 0 0.76c0.39,-0.58 0.95,-0.87 1.69,-0.87 0.32,0 0.61,0.06 0.88,0.17 0.27,0.12 0.47,0.27 0.6,0.46 0.14,0.18 0.23,0.4 0.29,0.66 0.03,0.17 0.04,0.46 0.04,0.88l0 3.26 -0.9 0 0 -3.23c0,-0.37 -0.03,-0.64 -0.1,-0.82 -0.07,-0.18 -0.2,-0.33 -0.37,-0.44 -0.18,-0.11 -0.39,-0.16 -0.63,-0.16 -0.38,0 -0.71,0.12 -0.99,0.36 -0.28,0.25 -0.42,0.71 -0.42,1.39l0 2.9 -0.9 0z"/>
   </g>
  </g>
 </g>
</svg>
