<?xml version="1.0" encoding="UTF-8"?>
<!DOCTYPE svg PUBLIC "-//W3C//DTD SVG 1.1//EN" "http://www.w3.org/Graphics/SVG/1.1/DTD/svg11.dtd">
<!-- Creator: CorelDRAW 2020 (64-Bit Evaluation Version) -->
<svg xmlns="http://www.w3.org/2000/svg" xml:space="preserve" width="60px" height="61px" version="1.1" style="shape-rendering:geometricPrecision; text-rendering:geometricPrecision; image-rendering:optimizeQuality; fill-rule:evenodd; clip-rule:evenodd"
viewBox="0 0 0.4 0.4"
 xmlns:xlink="http://www.w3.org/1999/xlink"
 xmlns:xodm="http://www.corel.com/coreldraw/odm/2003">
 <defs>
  <style type="text/css">
   <![CDATA[
    .fil1 {fill:#263674}
    .fil2 {fill:#B3B3B3}
    .fil0 {fill:#EFB30C}
   ]]>
  </style>
 </defs>
 <g id="Layer_x0020_1">
  <metadata id="CorelCorpID_0Corel-Layer"/>
  <g id="_2237368971488">
   <path class="fil0" d="M0.32 0c0.01,0 0.01,0.01 0.01,0.01 0,0 0,0 0,0l-0.01 0.01 0 0.01c0.01,0 0.02,0.01 0.02,0.01 0.02,0.02 0.04,0.03 0.05,0.05 0,0.01 0,0.01 0,0.02 -0.01,0 -0.01,0 -0.02,-0.01 -0.01,-0.02 -0.02,-0.03 -0.04,-0.04 0,-0.01 -0.01,-0.01 -0.02,-0.02l0 0.02 -0.01 0.01c0,0 0,0 -0.01,0 0,0 0,0 0,0l-0.04 -0.06c-0.01,0 -0.01,0 0,-0.01 0,0 0,0 0,0l0.07 0z"/>
   <path class="fil1" d="M0.07 0.4c0,0 -0.01,0 -0.01,0 0,0 0,-0.01 0,-0.01l0.01 -0.01 0 -0.01c-0.01,0 -0.01,0 -0.02,-0.01 -0.02,-0.01 -0.04,-0.03 -0.05,-0.05 0,0 0,-0.01 0,-0.01 0.01,-0.01 0.01,0 0.02,0 0.01,0.02 0.02,0.03 0.04,0.04 0.01,0.01 0.01,0.01 0.02,0.02l0.01 -0.01 0 -0.02c0.01,0 0.01,0 0.01,0 0,0 0,0 0,0l0.05 0.06c0,0 0,0.01 0,0.01 0,0 0,0 0,0l-0.08 0z"/>
   <polygon class="fil2" points="0.26,0.25 0.26,0.25 "/>
   <path class="fil0" d="M0.2 0.01l0.08 0.27c0.01,0 0,0.01 0,0.01 -0.01,0 -0.01,0.01 -0.01,0 -0.24,-0.03 0.01,0.01 -0.26,-0.04 0,0 -0.01,0 -0.01,-0.01 0,-0.01 0,-0.01 0.01,-0.01l0.16 -0.22c0.02,-0.02 0.03,0 0.03,0z"/>
   <path class="fil1" d="M0.39 0.28c-0.01,0.08 -0.08,0.13 -0.16,0.11 -0.06,-0.01 -0.1,-0.05 -0.11,-0.1l0.14 0.02c0.01,0 0.01,0 0.01,0 0,0 0.01,0 0.01,0 0.01,0 0.01,-0.01 0.02,-0.02 0,0 0,-0.01 0,-0.02l-0.05 -0.14c0.09,0 0.16,0.07 0.14,0.15z"/>
  </g>
 </g>
</svg>
