<svg width="186" height="181" viewBox="0 0 186 181" fill="none" xmlns="http://www.w3.org/2000/svg">
<g opacity="0.3">
<circle opacity="0.15" r="164.456" transform="matrix(1 0 0 -1 179.931 179.098)" fill="url(#paint0_linear_7235_65474)"/>
<path d="M90.3333 89.5C40.9038 138.93 40.9038 219.071 90.3333 268.5C139.763 317.929 219.904 317.929 269.333 268.5C318.763 219.071 318.763 138.929 269.333 89.5C219.904 40.0705 139.763 40.0705 90.3333 89.5Z" fill="url(#paint1_linear_7235_65474)"/>
<path d="M269.333 268.5C219.904 317.929 139.67 317.837 90.1256 268.292L269.126 89.2924C318.67 138.837 318.763 219.071 269.333 268.5Z" fill="url(#paint2_linear_7235_65474)"/>
<path d="M176.015 153.255L190.699 138.572L205.382 153.255L190.699 167.939L176.015 153.255Z" fill="#F8D33A"/>
<path d="M176.015 123.888L190.699 109.204L205.382 123.888L190.699 138.571L176.015 123.888Z" fill="#F8D33A"/>
<path d="M146.844 153.255L161.527 138.572L176.211 153.255L161.527 167.939L146.844 153.255Z" fill="#F8D33A"/>
<path d="M182.476 94.5205L190.699 86.2977L198.922 94.5205L190.699 102.743L182.476 94.5205Z" fill="#F8D33A"/>
<path d="M153.109 123.888L161.332 115.666L169.555 123.888L161.332 132.111L153.109 123.888Z" fill="#F8D33A"/>
<path d="M94.3749 182.622L102.598 174.399L110.82 182.622L102.598 190.845L94.3749 182.622Z" fill="url(#paint3_linear_7235_65474)"/>
<path d="M117.281 123.888L131.965 109.204L146.648 123.888L131.965 138.571L117.281 123.888Z" fill="#F8D33A"/>
<path d="M135.489 153.255L132.356 156.388L129.224 153.255L132.356 150.123L135.489 153.255Z" fill="#F8D33A"/>
<path d="M164.464 182.622L161.332 185.754L158.199 182.622L161.332 179.49L164.464 182.622Z" fill="#FFFDE6"/>
<path d="M84.5857 182.622L81.4532 185.754L78.3207 182.622L81.4532 179.49L84.5857 182.622Z" fill="url(#paint4_linear_7235_65474)"/>
<path d="M105.534 123.888L102.402 127.02L99.2694 123.888L102.402 120.755L105.534 123.888Z" fill="#FFFDE6"/>
<path d="M152.13 167.939L146.648 173.421L141.166 167.939L146.648 162.457L152.13 167.939Z" fill="#F8D33A"/>
<path d="M137.447 94.5208L131.965 100.003L126.483 94.5208L131.965 89.0389L137.447 94.5208Z" fill="#F8D33A"/>
<path d="M166.814 94.5208L161.332 100.003L155.85 94.5208L161.332 89.0389L166.814 94.5208Z" fill="#F8D33A"/>
<path d="M166.814 94.5208L161.332 100.003L155.85 94.5208L161.332 89.0389L166.814 94.5208Z" fill="#F8D33A"/>
<path d="M166.814 65.1537L161.332 70.6356L155.85 65.1537L161.332 59.6719L166.814 65.1537Z" fill="#F8D33A"/>
</g>
<defs>
<linearGradient id="paint0_linear_7235_65474" x1="164.456" y1="0" x2="164.456" y2="328.911" gradientUnits="userSpaceOnUse">
<stop stop-color="#F0B90B"/>
<stop offset="1" stop-color="#F8D33A"/>
</linearGradient>
<linearGradient id="paint1_linear_7235_65474" x1="90.4025" y1="268.569" x2="269.402" y2="89.5692" gradientUnits="userSpaceOnUse">
<stop stop-color="#F8D12F"/>
<stop offset="1" stop-color="#FEF6D8"/>
</linearGradient>
<linearGradient id="paint2_linear_7235_65474" x1="54.7295" y1="170.581" x2="309.732" y2="171.172" gradientUnits="userSpaceOnUse">
<stop stop-color="#FEF6D8"/>
<stop offset="1" stop-color="#FEF6D8" stop-opacity="0"/>
</linearGradient>
<linearGradient id="paint3_linear_7235_65474" x1="102.598" y1="174.399" x2="102.598" y2="190.845" gradientUnits="userSpaceOnUse">
<stop stop-color="#F0B90B"/>
<stop offset="1" stop-color="#F8D33A"/>
</linearGradient>
<linearGradient id="paint4_linear_7235_65474" x1="81.4532" y1="179.49" x2="81.4532" y2="185.754" gradientUnits="userSpaceOnUse">
<stop stop-color="#F0B90B"/>
<stop offset="1" stop-color="#F8D33A"/>
</linearGradient>
</defs>
</svg>
