<svg xmlns="http://www.w3.org/2000/svg" width="200" height="200" viewBox="0 0 3.99 3.99" shape-rendering="geometricPrecision" image-rendering="optimizeQuality" fill-rule="evenodd" xmlns:v="https://vecta.io/nano"><path d="M.45 0h2.93v1.94H.45V.91L0 .56.45.22z" fill="#e0b404"/><path d="M.6.1h2.78v1.84H.6V.88L.18.55.6.23z" fill="#fdcb08"/><path d="M3.99 2.27a.19.19 0 0 0-.19-.19h-.88c-.03 0-.05-.01-.06-.03s-.01-.05 0-.07c.18-.27.25-.6.25-.92 0-.1-.09-.19-.19-.19a.19.19 0 0 0-.19.19c0 .55-.43.98-.96 1.02v1.91h0 0 1.72c.1 0 .19-.09.19-.19a.19.19 0 0 0-.19-.19c-.04 0-.07-.03-.07-.07 0-.03.03-.06.07-.06h.1c.11 0 .19-.08.19-.19s-.08-.19-.19-.19h-.1c-.04 0-.07-.03-.07-.07 0-.03.03-.06.07-.06h.2c.11 0 .2-.08.2-.19s-.09-.19-.2-.19h-.2c-.04 0-.07-.03-.07-.07 0-.03.03-.06.07-.06h.31a.19.19 0 0 0 .19-.19z" fill="#263674"/><path d="M1.65 3.99V2.08H.64v1.91z" fill="#fdcb08"/><path d="M1.81 3.99V2.08h-.25v1.91z" fill="#e0b404"/><g fill="#fff"><circle cx="1.28" cy="3.71" r=".14"/><path d="M1.76 1.65c-.01 0-.02 0-.04-.01l-.23-.14h-.01l-.23.14c-.01.01-.03.01-.05.01s-.04-.01-.05-.03-.02-.04-.01-.07l.06-.26-.2-.18C.98 1.1.97 1.09.97 1.07c-.01-.01-.01-.03 0-.04 0-.02.01-.03.02-.04.02-.01.03-.01.05-.01L1.3.95 1.42.7c0-.01.01-.03.03-.03.01-.01.02-.02.04-.02.01 0 .03.01.04.02.01 0 .02.02.03.03l.1.25.27.03c.02 0 .04 0 .05.01s.02.02.02.04c.01.01.01.03 0 .04 0 .02-.01.03-.02.04l-.2.18h0l.05.26c.01.03 0 .05-.01.07s-.03.03-.06.03zm-.61-.56l.12.11c.02.01.03.03.04.05.01.03.01.05 0 .07l-.03.17.14-.09c.02-.01.04-.02.07-.02.02 0 .04.01.06.02l.15.09-.04-.17v-.07c.01-.02.02-.04.04-.05l.13-.11-.17-.02c-.02 0-.04-.01-.06-.02-.02-.02-.04-.04-.05-.06L1.49.84l-.07.15c-.01.02-.02.04-.04.06-.02.01-.04.02-.07.02l-.16.02z" fill-rule="nonzero"/></g></svg>