<svg width="64" height="64" viewBox="0 0 64 64" fill="none" xmlns="http://www.w3.org/2000/svg">
<path d="M51.3334 30.6673L54 33.334L56.6667 30.6673L54 28.0007L51.3334 30.6673Z" fill="#474D57"/>
<path d="M13.3334 5.33398L15.3334 7.33398L17.3334 5.33398L15.3334 3.33398L13.3334 5.33398Z" fill="#474D57"/>
<path d="M5.33337 24.6667L6.66671 26L8.00004 24.6667L6.66671 23.3333L5.33337 24.6667Z" fill="#474D57"/>
<path d="M24 55.334H40V35.334L32 43.334L24 35.334V55.334Z" fill="url(#paint0_linear_4474_65281)"/>
<path d="M31.9986 30.002C25.3713 30.0018 19.9989 24.6288 19.9989 18.0015C19.9989 11.3741 25.3713 6.0013 31.9987 6.0013C38.626 6.00145 43.9986 11.3746 43.9986 18.002C43.9986 24.6294 38.6261 30.002 31.9986 30.002Z" fill="url(#paint1_linear_4474_65281)"/>
<path d="M24 35.334H18.6667C12.7756 35.334 8 40.1096 8 46.0007V55.334H24V35.334Z" fill="url(#paint2_linear_4474_65281)"/>
<path d="M40 55.334H56V46.0007C56 40.1096 51.2244 35.334 45.3333 35.334H40V55.334Z" fill="url(#paint3_linear_4474_65281)"/>
<defs>
<linearGradient id="paint0_linear_4474_65281" x1="32" y1="55.334" x2="32" y2="35.334" gradientUnits="userSpaceOnUse">
<stop stop-color="#F0B90B"/>
<stop offset="1" stop-color="#F8D33A"/>
</linearGradient>
<linearGradient id="paint1_linear_4474_65281" x1="31.9988" y1="30.002" x2="31.9988" y2="6.0013" gradientUnits="userSpaceOnUse">
<stop stop-color="#F0B90B"/>
<stop offset="1" stop-color="#F8D33A"/>
</linearGradient>
<linearGradient id="paint2_linear_4474_65281" x1="32" y1="35.334" x2="32" y2="55.334" gradientUnits="userSpaceOnUse">
<stop stop-color="#929AA5"/>
<stop offset="1" stop-color="#76808F"/>
</linearGradient>
<linearGradient id="paint3_linear_4474_65281" x1="32" y1="35.334" x2="32" y2="55.334" gradientUnits="userSpaceOnUse">
<stop stop-color="#929AA5"/>
<stop offset="1" stop-color="#76808F"/>
</linearGradient>
</defs>
</svg>
