<svg width="64" height="65" viewBox="0 0 64 65" fill="none" xmlns="http://www.w3.org/2000/svg">
<path d="M48.6666 53.7773L15.3333 53.7773L15.3333 11.1107L48.6666 11.1107L48.6666 53.7773Z" fill="url(#paint0_linear_4627_62333)"/>
<path d="M15.3334 61.7773L48.6667 61.7773L48.6667 53.7773L15.3334 53.7773L15.3334 61.7773Z" fill="url(#paint1_linear_4627_62333)"/>
<path d="M15.3334 11.1107L48.6668 11.1107L48.6668 3.11068L15.3334 3.11067L15.3334 11.1107Z" fill="url(#paint2_linear_4627_62333)"/>
<path fill-rule="evenodd" clip-rule="evenodd" d="M36.6666 8.44401H27.3333V5.77734H36.6666V8.44401Z" fill="#474D57"/>
<path d="M4 35.11L7.33333 38.4434L10.6667 35.11L7.33333 31.7767L4 35.11Z" fill="#474D57"/>
<path d="M52 16.11L54.3333 18.4434L56.6667 16.11L54.3333 13.7767L52 16.11Z" fill="#474D57"/>
<path d="M56.6667 41.7773H58.6667V39.7773H56.6667V41.7773Z" fill="#474D57"/>
<path d="M34.6665 22.4427H35.9998V25.1094H37.9998V39.776H35.9998V43.1094H34.6665V39.776H32.6665V25.1094H34.6665V22.4427Z" fill="#848E9C"/>
<path d="M27.3333 27.776H28.6666V30.4427H30.6666V39.776H28.6666V43.1094H27.3333V39.776H25.3333V30.4427H27.3333V27.776Z" fill="#848E9C"/>
<defs>
<linearGradient id="paint0_linear_4627_62333" x1="15.3333" y1="32.444" x2="48.6666" y2="32.444" gradientUnits="userSpaceOnUse">
<stop stop-color="#F0B90B"/>
<stop offset="1" stop-color="#F8D33A"/>
</linearGradient>
<linearGradient id="paint1_linear_4627_62333" x1="48.6667" y1="32.444" x2="15.3334" y2="32.444" gradientUnits="userSpaceOnUse">
<stop stop-color="#929AA5"/>
<stop offset="1" stop-color="#76808F"/>
</linearGradient>
<linearGradient id="paint2_linear_4627_62333" x1="48.6667" y1="32.444" x2="15.3334" y2="32.444" gradientUnits="userSpaceOnUse">
<stop stop-color="#929AA5"/>
<stop offset="1" stop-color="#76808F"/>
</linearGradient>
</defs>
</svg>
