<?xml version="1.0" encoding="UTF-8"?>
<!DOCTYPE svg PUBLIC "-//W3C//DTD SVG 1.1//EN" "http://www.w3.org/Graphics/SVG/1.1/DTD/svg11.dtd">
<!-- Creator: CorelDRAW 2020 (64-Bit Evaluation Version) -->
<svg xmlns="http://www.w3.org/2000/svg" xml:space="preserve" width="100px" height="100px" version="1.1" style="shape-rendering:geometricPrecision; text-rendering:geometricPrecision; image-rendering:optimizeQuality; fill-rule:evenodd; clip-rule:evenodd"
viewBox="0 0 13.32 13.32"
 xmlns:xlink="http://www.w3.org/1999/xlink"
 xmlns:xodm="http://www.corel.com/coreldraw/odm/2003">
 <defs>
  <style type="text/css">
   <![CDATA[
    .fil1 {fill:#263674}
    .fil3 {fill:#EFB30C}
    .fil2 {fill:white}
    .fil4 {fill:#EFB30C;fill-rule:nonzero}
    .fil0 {fill:url(#id0)}
   ]]>
  </style>
  <linearGradient id="id0" gradientUnits="userSpaceOnUse" x1="6.86" y1="-7.64" x2="6.86" y2="12.35">
   <stop offset="0" style="stop-opacity:1; stop-color:#EFB30C"/>
   <stop offset="1" style="stop-opacity:1; stop-color:white"/>
  </linearGradient>
 </defs>
 <g id="Layer_x0020_1">
  <metadata id="CorelCorpID_0Corel-Layer"/>
  <circle class="fil0" cx="6.66" cy="6.66" r="6.66"/>
  <rect class="fil1" x="0.43" y="6.46" width="12.46" height="6.85" rx="0.86" ry="1.04"/>
  <rect class="fil2" x="0.8" y="6.91" width="11.72" height="5.95" rx="0.81" ry="0.9"/>
  <path class="fil2" d="M2.62 6.35l0.05 0.04 -0.05 0.05 0.1 -0.01 0.44 0.38 1.5 1.21c1.09,0.87 2.9,0.85 4.01,-0.04l1.45 -1.17 0 0 0.57 -0.41 -0.35 0c0.12,-0.01 0.24,-0.01 0.35,-0.01l-0.57 -0.41 0 -0.01 -1.45 -1.16c-1.11,-0.89 -2.92,-0.91 -4.01,-0.04l-1.5 1.2 -0.44 0.38 -0.1 0zm4.68 0.06l0 0c-0.55,0 -1.11,0 -1.66,0l0 0c0.55,0 1.11,0 1.66,0z"/>
  <path class="fil1" d="M10.11 6.85l-1.5 1.5c-1.07,1.08 -2.83,1.08 -3.91,0l-1.5 -1.5 1.49 1.2c1.08,0.86 2.87,0.84 3.98,-0.04l1.44 -1.16z"/>
  <path class="fil1" d="M8.61 4.44l1.5 1.49 -1.49 -1.19c-1.08,-0.86 -2.87,-0.85 -3.98,0.04l-1.44 1.15 1.5 -1.49c1.08,-1.08 2.84,-1.08 3.91,0z"/>
  <g id="_2126591183008">
   <circle class="fil3" cx="6.66" cy="6.39" r="1.46"/>
   <circle class="fil1" cx="6.66" cy="6.39" r="0.56"/>
   <circle class="fil2" cx="6.25" cy="6.06" r="0.27"/>
  </g>
  <path class="fil4" d="M1.73 10.26c-0.13,-0.13 -0.13,-0.35 0,-0.48 0.13,-0.12 0.34,-0.12 0.47,0l1.78 1.78c0.13,0.13 0.13,0.34 0,0.47 -0.13,0.13 -0.34,0.13 -0.47,0l-1.78 -1.77z"/>
  <path class="fil4" d="M3.51 9.78c0.13,-0.12 0.34,-0.12 0.47,0 0.13,0.13 0.13,0.35 0,0.48l-1.78 1.77c-0.13,0.13 -0.34,0.13 -0.47,0 -0.13,-0.13 -0.13,-0.34 0,-0.47l1.78 -1.78z"/>
  <path class="fil4" d="M5.53 10.26c-0.13,-0.13 -0.13,-0.35 0,-0.48 0.13,-0.12 0.34,-0.12 0.47,0l1.78 1.78c0.13,0.13 0.13,0.34 0,0.47 -0.13,0.13 -0.34,0.13 -0.47,0l-1.78 -1.77z"/>
  <path class="fil4" d="M7.31 9.78c0.13,-0.12 0.34,-0.12 0.47,0 0.13,0.13 0.13,0.35 0,0.48l-1.78 1.77c-0.13,0.13 -0.34,0.13 -0.47,0 -0.13,-0.13 -0.13,-0.34 0,-0.47l1.78 -1.78z"/>
  <path class="fil4" d="M9.33 10.26c-0.13,-0.13 -0.13,-0.35 0,-0.48 0.13,-0.12 0.34,-0.12 0.47,0l1.78 1.78c0.13,0.13 0.13,0.34 0,0.47 -0.13,0.13 -0.34,0.13 -0.47,0l-1.78 -1.77z"/>
  <path class="fil4" d="M11.11 9.78c0.13,-0.12 0.34,-0.12 0.47,0 0.13,0.13 0.13,0.35 0,0.48l-1.78 1.77c-0.13,0.13 -0.34,0.13 -0.47,0 -0.13,-0.13 -0.13,-0.34 0,-0.47l1.78 -1.78z"/>
 </g>
</svg>
