<svg width="96" height="96" viewBox="0 0 96 96" fill="none" xmlns="http://www.w3.org/2000/svg">
<g clip-path="url(#clip0)">
<path d="M65.45 95.5C74.3142 95.5 81.5 88.3142 81.5 79.45C81.5 70.5858 74.3142 63.4 65.45 63.4C56.5858 63.4 49.4 70.5858 49.4 79.45C49.4 88.3142 56.5858 95.5 65.45 95.5Z" fill="url(#paint0_linear)"/>
<path d="M75.2 78.2V80.7H66.7V89.2H64.2V80.7H55.7V78.2H64.2V69.7H66.7V78.2H75.2Z" fill="#14151A"/>
<path d="M38.23 29.01L31.05 36.18L26.86 31.99L28.27 30.57L30.88 33.18L31.05 33.36L31.23 33.18L36.82 27.59L38.23 29.01Z" fill="#929AA5"/>
<path d="M38.23 46.42L31.05 53.6L26.86 49.4L28.27 47.99L30.88 50.59L31.05 50.77L31.23 50.59L36.82 45.01L38.23 46.42Z" fill="#929AA5"/>
<path d="M38.23 63.84L31.05 71.01L26.86 66.82L28.27 65.4L31.05 68.18L31.23 68.01L36.82 62.42L38.23 63.84Z" fill="#929AA5"/>
<path d="M46.2 48.3V50.3H48.2V48.3H46.2ZM50.7 48.3V50.3H52.7V48.3H50.7ZM55.2 48.3V50.3H57.2V48.3H55.2ZM59.7 48.3V50.3H61.7V48.3H59.7ZM64.2 48.3V50.3H66.2V48.3H64.2Z" fill="#929AA5"/>
<path d="M46.2 30.89V32.89H48.2V30.89H46.2ZM50.7 30.89V32.89H52.7V30.89H50.7ZM55.2 30.89V32.89H57.2V30.89H55.2ZM59.7 30.89V32.89H61.7V30.89H59.7ZM64.2 30.89V32.89H66.2V30.89H64.2Z" fill="#929AA5"/>
<path d="M49.21 91.25V93.25H51.21V91.25H49.21ZM44.71 91.25V93.25H46.71V91.25H44.71ZM40.21 91.25V93.25H42.21V91.25H40.21ZM35.71 91.25V93.25H37.71V91.25H35.71Z" fill="#929AA5"/>
<path d="M66.11 2.75H64.7V18.54H78.5V64.54H80.5V17.13L66.11 2.75ZM66.7 16.54V6.16L77.08 16.54H66.7ZM15.5 93.25H33.21V91.25H17.5V4.75H62.2V2.75H15.5V93.25Z" fill="#929AA5"/>
<path d="M33.48 91.25H33.21V93.25H33.48V91.25Z" fill="#808080"/>
</g>
<defs>
<linearGradient id="paint0_linear" x1="54.101" y1="90.7988" x2="76.7988" y2="68.1008" gradientUnits="userSpaceOnUse">
<stop stop-color="#F0B90B"/>
<stop offset="0.2795" stop-color="#F1BC0F"/>
<stop offset="0.5691" stop-color="#F4C41C"/>
<stop offset="0.8624" stop-color="#F8D230"/>
<stop offset="0.9934" stop-color="#FBDA3C"/>
</linearGradient>
<clipPath id="clip0">
<rect width="96" height="96" fill="white"/>
</clipPath>
</defs>
</svg>
