<?xml version="1.0" encoding="UTF-8"?>
<!DOCTYPE svg PUBLIC "-//W3C//DTD SVG 1.1//EN" "http://www.w3.org/Graphics/SVG/1.1/DTD/svg11.dtd">
<!-- Creator: CorelDRAW 2020 (64-Bit Evaluation Version) -->
<svg xmlns="http://www.w3.org/2000/svg" xml:space="preserve" width="100px" height="100px" version="1.1" style="shape-rendering:geometricPrecision; text-rendering:geometricPrecision; image-rendering:optimizeQuality; fill-rule:evenodd; clip-rule:evenodd"
viewBox="0 0 13.17 13.2"
 xmlns:xlink="http://www.w3.org/1999/xlink"
 xmlns:xodm="http://www.corel.com/coreldraw/odm/2003">
 <defs>
  <style type="text/css">
   <![CDATA[
    .str0 {stroke:#263674;stroke-width:0.06;stroke-linecap:round;stroke-miterlimit:2.61313}
    .fil5 {fill:none}
    .fil3 {fill:#263674}
    .fil4 {fill:white}
    .fil1 {fill:#EFB30C;fill-rule:nonzero}
    .fil2 {fill:#F3C84E;fill-rule:nonzero}
    .fil0 {fill:url(#id0)}
   ]]>
  </style>
  <linearGradient id="id0" gradientUnits="userSpaceOnUse" x1="6.78" y1="-7.56" x2="6.78" y2="12.21">
   <stop offset="0" style="stop-opacity:1; stop-color:#EFB30C"/>
   <stop offset="1" style="stop-opacity:1; stop-color:white"/>
  </linearGradient>
 </defs>
 <g id="Layer_x0020_1">
  <metadata id="CorelCorpID_0Corel-Layer"/>
  <circle class="fil0" cx="6.58" cy="6.58" r="6.58"/>
  <path class="fil1" d="M10.8 6.72l1.54 0c0.12,0 0.21,0.09 0.21,0.2l0 6.22 0 0.03 -1.96 0 0 -0.02 0 -6.23c0,-0.11 0.09,-0.2 0.21,-0.2z"/>
  <path class="fil1" d="M0.83 6.42l1.54 0c0.11,0 0.21,0.09 0.21,0.2l0 6.54 0 0.01 -1.96 0 0 -0.01 0 -6.54c0,-0.11 0.09,-0.2 0.21,-0.2z"/>
  <path class="fil2" d="M1.38 7.13l1.05 0c0.08,0 0.15,0.06 0.15,0.14l0 5.89 0 0.01 -1.34 0 0 -0.01 0 -5.89c0,-0.08 0.06,-0.14 0.14,-0.14z"/>
  <path class="fil2" d="M1.38 7.13l1.05 0c0.08,0 0.15,0.06 0.15,0.14l0 5.89 0 0.01 -1.34 0 0 -0.01 0 -5.89c0,-0.08 0.06,-0.14 0.14,-0.14z"/>
  <path class="fil2" d="M11.35 7.34l1.06 0c0.07,0 0.14,0.07 0.14,0.14l0 5.68 0 0.01 -1.34 0 0 -0.01 0 -5.68c0,-0.07 0.06,-0.14 0.14,-0.14z"/>
  <path class="fil1" d="M4.15 9.49l1.54 0c0.12,0 0.21,0.09 0.21,0.2l0 3.46 0 0.02 -1.96 0 0 -0.01 0 -3.47c0,-0.11 0.1,-0.2 0.21,-0.2z"/>
  <circle class="fil3" cx="1.6" cy="5.21" r="0.94"/>
  <circle class="fil4" cx="1.6" cy="5.21" r="0.19"/>
  <circle class="fil3" cx="4.92" cy="8.39" r="0.94"/>
  <circle class="fil4" cx="4.92" cy="8.39" r="0.19"/>
  <circle class="fil3" cx="8.25" cy="10.18" r="0.94"/>
  <circle class="fil4" cx="8.25" cy="10.18" r="0.19"/>
  <circle class="fil3" cx="11.6" cy="5.59" r="0.94"/>
  <circle class="fil4" cx="11.6" cy="5.59" r="0.19"/>
  <path class="fil1" d="M1.57 5.31c-0.02,-0.03 -0.02,-0.07 0,-0.09 0.02,-0.03 0.06,-0.03 0.09,0l3.3 3.12 3.27 1.79 3.29 -4.52c0.02,-0.03 0.06,-0.03 0.09,-0.01 0.02,0.02 0.03,0.06 0.01,0.08 -1.12,1.54 -2.24,3.07 -3.36,4.61l-3.37 -1.85 -0.01 -0.01 -3.31 -3.12z"/>
  <path class="fil2" d="M4.7 10.1l1.06 0c0.08,0 0.14,0.06 0.14,0.14l0 2.92 0 0.01 -1.34 0 0 -0.01 0 -2.92c0,-0.08 0.06,-0.14 0.14,-0.14z"/>
  <path class="fil1" d="M7.47 11.22l1.55 0c0.11,0 0.2,0.09 0.2,0.2l0 1.73 0 0.02 -1.95 0 0 -0.02 0 -1.73c0,-0.11 0.09,-0.2 0.2,-0.2z"/>
  <line class="fil5 str0" x1="0.51" y1="13.17" x2="2.69" y2= "13.17" />
  <line class="fil5 str0" x1="3.83" y1="13.17" x2="6.01" y2= "13.17" />
  <line class="fil5 str0" x1="10.48" y1="13.17" x2="12.66" y2= "13.17" />
  <path class="fil2" d="M8.03 11.56l1.05 0c0.08,0 0.14,0.06 0.14,0.14l0 1.46 0 0.01 -1.34 0 0 -0.01 0 -1.46c0,-0.08 0.07,-0.14 0.15,-0.14z"/>
  <line class="fil5 str0" x1="7.16" y1="13.17" x2="9.33" y2= "13.17" />
 </g>
</svg>
