<?xml version="1.0" encoding="UTF-8"?>
<!DOCTYPE svg PUBLIC "-//W3C//DTD SVG 1.1//EN" "http://www.w3.org/Graphics/SVG/1.1/DTD/svg11.dtd">
<!-- Creator: CorelDRAW 2020 (64-Bit Evaluation Version) -->
<svg xmlns="http://www.w3.org/2000/svg" xml:space="preserve" width="100px" height="101px" version="1.1" style="shape-rendering:geometricPrecision; text-rendering:geometricPrecision; image-rendering:optimizeQuality; fill-rule:evenodd; clip-rule:evenodd"
viewBox="0 0 5.98 6.01"
 xmlns:xlink="http://www.w3.org/1999/xlink"
 xmlns:xodm="http://www.corel.com/coreldraw/odm/2003">
 <defs>
  <style type="text/css">
   <![CDATA[
    .fil4 {fill:#263674}
    .fil3 {fill:#263674;fill-rule:nonzero}
    .fil1 {fill:#EFB30C;fill-rule:nonzero}
    .fil2 {fill:white;fill-rule:nonzero}
    .fil0 {fill:url(#id0)}
   ]]>
  </style>
  <linearGradient id="id0" gradientUnits="userSpaceOnUse" x1="3.08" y1="-3.3" x2="3.08" y2="5.33">
   <stop offset="0" style="stop-opacity:1; stop-color:#EFB30C"/>
   <stop offset="1" style="stop-opacity:1; stop-color:white"/>
  </linearGradient>
 </defs>
 <g id="Layer_x0020_1">
  <metadata id="CorelCorpID_0Corel-Layer"/>
  <g id="_2126584199600">
   <circle class="fil0" cx="2.99" cy="2.87" r="2.87"/>
   <polygon class="fil1" points="1.3,3.47 1.3,5.46 1.13,5.46 1.13,3.47 "/>
   <polygon class="fil2" points="1.48,3.98 1.48,4.94 0.95,4.94 0.95,3.98 "/>
   <path class="fil1" d="M1.57 3.98l0 1.05 -0.71 0 0 -1.14 0.71 0 0 0.09zm-0.17 0.88l0 -0.8 -0.37 0 0 0.8 0.37 0z"/>
   <polygon class="fil1" points="3.34,4.02 3.34,6.01 3.17,6.01 3.17,4.02 "/>
   <polygon class="fil2" points="3.52,4.54 3.52,5.5 2.99,5.5 2.99,4.54 "/>
   <path class="fil1" d="M3.61 4.54l0 1.05 -0.71 0 0 -1.14 0.71 0 0 0.09zm-0.17 0.88l0 -0.8 -0.37 0 0 0.8 0.37 0z"/>
   <polygon class="fil3" points="2.32,3.16 2.32,5.15 2.15,5.15 2.15,3.16 "/>
   <polygon class="fil2" points="2.5,3.67 2.5,4.64 1.97,4.64 1.97,3.67 "/>
   <path class="fil3" d="M2.59 3.67l0 1.05 -0.71 0 0 -1.13 0.71 0 0 0.08zm-0.17 0.89l0 -0.8 -0.37 0 0 0.8 0.37 0z"/>
   <polygon class="fil1" points="5.38,2.65 5.38,4.64 5.21,4.64 5.21,2.65 "/>
   <polygon class="fil2" points="5.57,3.16 5.57,4.13 5.03,4.13 5.03,3.16 "/>
   <path class="fil1" d="M5.65 3.16l0 1.05 -0.71 0 0 -1.13 0.71 0 0 0.08zm-0.17 0.88l0 -0.8 -0.37 0 0 0.8 0.37 0z"/>
   <polygon class="fil3" points="4.36,3.52 4.36,5.51 4.19,5.51 4.19,3.52 "/>
   <polygon class="fil2" points="4.55,4.04 4.55,5 4.01,5 4.01,4.04 "/>
   <path class="fil3" d="M4.63 4.04l0 1.05 -0.71 0 0 -1.14 0.71 0 0 0.09zm-0.17 0.88l0 -0.8 -0.37 0 0 0.8 0.37 0z"/>
   <path class="fil4" d="M0.83 2.8c0,0.11 0,0.15 -0.08,0.24 -0.15,0.16 -0.43,0.1 -0.5,-0.1 -0.1,-0.26 0.14,-0.48 0.39,-0.39 0.09,0.03 0.19,0.14 0.19,0.25zm2.68 -0.32c0,-0.29 0.34,-0.41 0.52,-0.22 0.17,0.18 0.05,0.51 -0.21,0.51 -0.17,0 -0.31,-0.13 -0.31,-0.29zm-1.31 -1.11c-0.47,0 -0.4,-0.6 -0.03,-0.6 0.4,0 0.39,0.6 0.03,0.6zm3.27 -0.51c-0.42,0 -0.42,-0.61 0,-0.61 0.24,0 0.39,0.32 0.21,0.51 -0.05,0.05 -0.12,0.1 -0.21,0.1zm-0.53 -0.37l0 0.13c0,0.12 0.06,0.18 0.08,0.25l-0.23 0.29c-0.03,0.03 -0.03,0.03 -0.06,0.07 -0.02,0.03 -0.04,0.04 -0.06,0.07l-0.24 0.28c-0.03,0.03 -0.03,0.04 -0.06,0.07l-0.3 0.36c-0.3,-0.16 -0.56,0.03 -0.58,0.03 -0.04,0 -0.37,-0.31 -0.43,-0.36 -0.04,-0.03 -0.06,-0.05 -0.1,-0.08 -0.1,-0.08 -0.22,-0.2 -0.32,-0.27 0.02,-0.1 0.06,-0.11 0.06,-0.25 0,-0.48 -0.57,-0.69 -0.88,-0.4 -0.2,0.19 -0.22,0.48 -0.08,0.69 -0.06,0.04 -0.07,0.08 -0.12,0.12l-0.82 0.89c-0.44,-0.23 -0.8,0.12 -0.8,0.44 0,0.35 0.33,0.62 0.69,0.51 0.31,-0.1 0.48,-0.49 0.27,-0.81 0.04,-0.03 0.08,-0.07 0.12,-0.12l0.46 -0.49c0.03,-0.05 0.08,-0.09 0.12,-0.13 0.08,-0.08 0.15,-0.19 0.24,-0.24 0.15,0.03 0.04,0.05 0.31,0.05 0.12,0 0.21,-0.05 0.28,-0.1l0.74 0.63c0.03,0.03 0.09,0.07 0.11,0.09 -0.02,0.12 -0.05,0.09 -0.05,0.28 0,0.26 0.22,0.5 0.54,0.5 0.26,0 0.5,-0.23 0.5,-0.48 0,-0.22 0,-0.18 -0.1,-0.37 0.05,-0.03 0.37,-0.41 0.43,-0.48 0.03,-0.04 0.03,-0.04 0.06,-0.08l0.48 -0.56c0.34,0.18 0.78,-0.05 0.78,-0.47 0,-0.44 -0.55,-0.69 -0.88,-0.38 -0.07,0.06 -0.16,0.2 -0.16,0.32z"/>
  </g>
 </g>
</svg>
