<svg width="76" height="77" viewBox="0 0 76 77" fill="none" xmlns="http://www.w3.org/2000/svg">
<path d="M76 38.78C76 59.7668 58.9868 76.78 38 76.78C17.0132 76.78 0 59.7668 0 38.78C0 17.7932 17.0132 0.779999 38 0.779999C58.9868 0.779999 76 17.7932 76 38.78Z" fill="#F1F5FE"/>
<path d="M27.5074 19.1375H17.6232V43.6383C17.6232 55.8292 23.0215 61.3597 37.9239 61.3597C52.8264 61.3597 58.3768 55.8292 58.3768 43.6383V19.1375H48.4925V44.6492C48.4925 51.1312 45.6033 54.402 38 54.402C30.3967 54.402 27.5074 51.1312 27.5074 44.6492V19.1375Z" fill="#1652F0"/>
</svg>
