<svg width="78" height="78" viewBox="0 0 78 78" fill="none" xmlns="http://www.w3.org/2000/svg">
<path d="M42.3781 67.7093C41.9278 67.9015 41.5158 68.0717 41.1369 68.22L41.6367 69.4943C42.0266 69.3405 42.455 69.1702 42.9164 68.9725L42.3781 67.7093ZM45.0639 66.468C44.6465 66.6767 44.2401 66.8689 43.8501 67.0502L44.4323 68.2969C44.8277 68.1102 45.2452 67.9125 45.6736 67.6983L45.0639 66.468ZM47.6673 65.0839C47.2718 65.3091 46.8764 65.5233 46.4974 65.732L47.1455 66.9403C47.5355 66.7316 47.9419 66.5064 48.3483 66.2757L47.6673 65.0839ZM50.1883 63.5461C49.8093 63.7932 49.4303 64.0349 49.0568 64.2601L49.7709 65.4299C50.1608 65.1938 50.5453 64.9521 50.9407 64.694L50.1883 63.5461ZM52.5994 61.8544C52.2369 62.129 51.8799 62.3872 51.5174 62.6453L52.3083 63.7657C52.6818 63.5021 53.0553 63.233 53.4233 62.9529L52.5994 61.8544ZM54.8897 60.009C54.5492 60.3056 54.2087 60.5912 53.8681 60.8658L54.7304 61.9368C55.0874 61.6457 55.439 61.3491 55.7905 61.047L54.8897 60.009ZM57.0317 57.9988C56.7187 58.3228 56.4001 58.6304 56.0761 58.9325L57.0208 59.9321C57.3558 59.619 57.6853 59.295 58.0094 58.9654L57.0317 57.9988ZM58.998 55.8293C58.7124 56.1753 58.4213 56.5104 58.1247 56.8344L59.1463 57.7571C59.4539 57.4166 59.7559 57.0651 60.0525 56.7081L58.998 55.8293ZM60.7556 53.4951C60.5029 53.863 60.2448 54.2255 59.9811 54.577L61.0851 55.4009C61.3597 55.0329 61.6288 54.6539 61.8925 54.2695L60.7556 53.4951ZM62.2769 51.007C62.0682 51.397 61.843 51.7814 61.6179 52.1604L62.7932 52.8689C63.0294 52.4735 63.2601 52.0725 63.4853 51.6661L62.2769 51.007ZM63.5347 48.3817C63.3644 48.7936 63.1832 49.1945 62.9964 49.59L64.2377 50.1777C64.4354 49.7657 64.6222 49.3373 64.8034 48.9089L63.5347 48.3817ZM64.5068 45.641C64.3805 46.0639 64.2432 46.4868 64.1004 46.8987L65.3966 47.3491C65.5504 46.9152 65.6877 46.4758 65.8195 46.0255L64.5068 45.641ZM65.1714 42.8069C65.0945 43.2463 65.0066 43.6802 64.9078 44.1031L66.2424 44.4107C66.3468 43.9658 66.4401 43.51 66.5225 43.0541L65.1714 42.8069ZM65.5394 39.918C65.5064 40.3628 65.4625 40.8022 65.4131 41.2361L66.7752 41.4064C66.8301 40.9505 66.874 40.4892 66.9125 40.0223L65.5394 39.918Z" fill="#1e2329"/>
<path d="M67 13V37.6552C67 37.8913 66.9945 38.1275 66.989 38.3582L65.6159 38.3307C65.6214 38.1055 65.6269 37.8804 65.6269 37.6552V14.3731H12.3731V37.6552C12.3731 59.3719 35.7156 67.8961 38.8517 68.9396C38.8682 68.9451 38.8847 68.9506 38.8956 68.9561C38.9341 68.9671 38.967 68.9781 39 68.989H39.0055C39.1483 68.9451 39.357 68.8737 39.6316 68.7803L40.082 70.0765C39.9337 70.126 39.8019 70.1699 39.6865 70.2083L39.0275 70.4335L38.8078 70.3676C38.8078 70.3676 38.7968 70.3621 38.7748 70.3566C38.7144 70.3402 38.5661 70.2962 38.3409 70.2193V70.2138C37.9949 70.0985 37.4731 69.9172 36.8031 69.6591C36.5998 69.5767 36.3856 69.4943 36.155 69.401C29.2016 66.5834 11 57.3343 11 37.6552V13H67Z" fill="#1e2329"/>
<path d="M36.8033 69.6595V69.665C36.6 69.5881 36.3803 69.5057 36.1497 69.4123L36.1551 69.4014C36.3858 69.4947 36.6 69.5771 36.8033 69.6595Z" fill="#1e2329"/>
<path d="M50.6715 34.0088H27.329V52.6828H50.6715V34.0088Z" fill="url(#paint0_linear)"/>
<path d="M39.686 38.6934H38.3129V48.5411H39.686V38.6934Z" fill="#1e2329"/>
<path d="M46.2775 34.0084H44.9044V27.9668C44.9044 24.7099 42.2571 22.0625 39.0001 22.0625C35.7432 22.0625 33.0959 24.7099 33.0959 27.9668V34.0084H31.7228V27.9668C31.7228 23.9519 34.9852 20.6895 39.0001 20.6895C43.015 20.6895 46.2775 23.9574 46.2775 27.9668V34.0084Z" fill="#1e2329"/>
<defs>
<linearGradient id="paint0_linear" x1="28.4961" y1="53.8499" x2="49.5044" y2="32.8417" gradientUnits="userSpaceOnUse">
<stop stop-color="#F0B90B"/>
<stop offset="0.2795" stop-color="#F1BC0F"/>
<stop offset="0.5691" stop-color="#F4C41C"/>
<stop offset="0.8624" stop-color="#F8D230"/>
<stop offset="0.9934" stop-color="#FBDA3C"/>
</linearGradient>
</defs>
</svg>
