<svg width="78" height="78" viewBox="0 0 78 78" fill="none" xmlns="http://www.w3.org/2000/svg">
<path d="M62.2929 30.1492C62.1203 29.6955 61.9286 29.229 61.7241 28.7817L63.1428 28.1426C63.3601 28.6219 63.5646 29.114 63.7435 29.5996L62.2929 30.1492ZM60.9381 27.1841C60.7017 26.7495 60.4524 26.315 60.1968 25.8996L61.5196 25.0816C61.7944 25.5226 62.0564 25.9827 62.3057 26.4428L60.9381 27.1841ZM59.2063 24.4298C58.9187 24.0336 58.612 23.6374 58.3053 23.254L59.5067 22.2699C59.839 22.6724 60.1585 23.0942 60.4652 23.516L59.2063 24.4298ZM57.1358 21.9184C56.7971 21.5605 56.4457 21.209 56.0878 20.8704L57.155 19.7393C57.532 20.0971 57.9091 20.4742 58.2669 20.8512L57.1358 21.9184ZM54.7522 19.7009C54.3688 19.3878 53.9726 19.0874 53.5764 18.7999L54.4838 17.541C54.9056 17.8477 55.321 18.1672 55.7299 18.4995L54.7522 19.7009ZM52.1066 17.8094C51.6912 17.5537 51.2567 17.2981 50.8285 17.0681L51.5698 15.7005C52.0299 15.9498 52.4836 16.2118 52.9309 16.4865L52.1066 17.8094ZM49.2309 16.2821C48.7836 16.0776 48.3235 15.8922 47.8698 15.7133L48.4193 14.2627C48.905 14.448 49.3971 14.6525 49.8699 14.8634L49.2309 16.2821Z" fill="#1e2329"/>
<path d="M39.0001 46.3166C43.0412 46.3166 46.3171 43.0407 46.3171 38.9996C46.3171 34.9585 43.0412 31.6826 39.0001 31.6826C34.959 31.6826 31.6831 34.9585 31.6831 38.9996C31.6831 43.0407 34.959 46.3166 39.0001 46.3166Z" fill="url(#paint0_linear)"/>
<path d="M39 35.9385C39.7541 35.9321 40.3675 36.5392 40.3739 37.2933C40.3803 38.0474 39.7732 38.6608 39.0192 38.6672C38.2651 38.6736 37.6516 38.0665 37.6452 37.3125V37.3061C37.6452 36.552 38.2523 35.9449 39 35.9385ZM41.2941 41.2809H36.6995V39.7025H41.3005L41.2941 41.2809Z" fill="#1e2329"/>
<path d="M39.0001 20.634C43.0412 20.634 46.3171 17.3581 46.3171 13.317C46.3171 9.27593 43.0412 6 39.0001 6C34.959 6 31.6831 9.27593 31.6831 13.317C31.6831 17.3581 34.959 20.634 39.0001 20.634Z" fill="url(#paint1_linear)"/>
<path d="M39 10.2559C39.7541 10.2495 40.3675 10.8566 40.3739 11.6107C40.3803 12.3647 39.7732 12.9782 39.0192 12.9846C38.2651 12.991 37.6516 12.3839 37.6452 11.6298V11.6235C37.6452 10.8694 38.2523 10.2623 39 10.2559ZM41.2941 15.5983H36.6995V14.0198H41.3005L41.2941 15.5983Z" fill="#1e2329"/>
<path d="M39.0001 72.0129C43.0412 72.0129 46.3171 68.737 46.3171 64.6959C46.3171 60.6548 43.0412 57.3789 39.0001 57.3789C34.959 57.3789 31.6831 60.6548 31.6831 64.6959C31.6831 68.737 34.959 72.0129 39.0001 72.0129Z" fill="url(#paint2_linear)"/>
<path d="M39 61.6348C39.7541 61.6284 40.3675 62.2355 40.3739 62.9896C40.3803 63.7436 39.7732 64.3571 39.0192 64.3635C38.2651 64.3699 37.6516 63.7628 37.6452 63.0087V63.0024C37.6452 62.2483 38.2523 61.6412 39 61.6348ZM41.2941 66.9772H36.6995V65.3988H41.3005L41.2941 66.9772Z" fill="#1e2329"/>
<path d="M64.6828 46.3166C68.7239 46.3166 71.9998 43.0407 71.9998 38.9996C71.9998 34.9585 68.7239 31.6826 64.6828 31.6826C60.6418 31.6826 57.3658 34.9585 57.3658 38.9996C57.3658 43.0407 60.6418 46.3166 64.6828 46.3166Z" fill="url(#paint3_linear)"/>
<path d="M64.6831 35.9395C65.4372 35.9331 66.0507 36.5402 66.0571 37.2943C66.0635 38.0483 65.4564 38.6618 64.7023 38.6682C63.9482 38.6746 63.3347 38.0675 63.3284 37.3134V37.307C63.3284 36.553 63.9291 35.9459 64.6831 35.9395ZM66.9773 41.2819H62.3826V39.7034H66.9837L66.9773 41.2819Z" fill="#1e2329"/>
<path d="M14.2502 29.5932C14.4356 29.1076 14.6401 28.6219 14.8509 28.1362L16.2696 28.7753C16.0651 29.229 15.8734 29.6891 15.7009 30.1428L14.2502 29.5932ZM15.6945 26.4492C15.9437 25.9891 16.2057 25.529 16.4805 25.088L17.8033 25.906C17.5477 26.3214 17.2985 26.7559 17.062 27.1905L15.6945 26.4492ZM17.5285 23.516C17.8353 23.0942 18.1548 22.6724 18.4871 22.2699L19.6885 23.254C19.3753 23.631 19.075 24.0272 18.7874 24.4298L17.5285 23.516ZM19.7332 20.8512C20.0911 20.4742 20.4617 20.0971 20.8451 19.7393L21.9123 20.8704C21.5545 21.209 21.203 21.5605 20.8643 21.9184L19.7332 20.8512ZM22.2638 18.4931C22.6728 18.1608 23.0882 17.8349 23.5099 17.5346L24.4174 18.7935C24.0212 19.081 23.6249 19.3814 23.2415 19.6945L22.2638 18.4931ZM25.0756 16.4865C25.5165 16.2118 25.9766 15.9498 26.4367 15.7005L27.178 17.0681C26.7498 17.2981 26.3153 17.5474 25.8999 17.8094L25.0756 16.4865ZM28.1302 14.8634C28.6095 14.6461 29.0951 14.448 29.5808 14.2627L30.1304 15.7133C29.6703 15.8859 29.2165 16.0776 28.7692 16.2821L28.1302 14.8634Z" fill="#1e2329"/>
<path d="M15.7071 47.8506C15.8796 48.3043 16.0713 48.7708 16.2758 49.2181L14.8572 49.8572C14.6399 49.3779 14.4354 48.8858 14.2565 48.4002L15.7071 47.8506ZM17.0618 50.8093C17.2983 51.2439 17.5475 51.6784 17.8031 52.0938L16.4803 52.9118C16.2055 52.4708 15.9435 52.0107 15.6943 51.5506L17.0618 50.8093ZM18.7936 53.57C19.0812 53.9662 19.388 54.3624 19.6947 54.7458L18.4933 55.7299C18.161 55.3273 17.8415 54.9056 17.5347 54.4838L18.7936 53.57ZM20.8641 56.0814C21.2028 56.4393 21.5543 56.7907 21.9122 57.1294L20.845 58.2605C20.4679 57.9027 20.0909 57.5256 19.733 57.1486L20.8641 56.0814ZM23.2477 58.2989C23.6312 58.612 24.0274 58.9123 24.4236 59.1999L23.5161 60.4588C23.0944 60.1521 22.679 59.8326 22.27 59.5003L23.2477 58.2989ZM25.8934 60.1904C26.3087 60.446 26.7433 60.7017 27.1714 60.9317L26.4302 62.2992C25.9701 62.05 25.5163 61.788 25.069 61.5132L25.8934 60.1904ZM28.769 61.7177C29.2164 61.9222 29.6765 62.1075 30.1302 62.2865L29.5806 63.7371C29.0949 63.5518 28.6029 63.3473 28.13 63.1364L28.769 61.7177Z" fill="#1e2329"/>
<path d="M63.7499 48.4002C63.5646 48.8858 63.3601 49.3715 63.1492 49.8572L61.7305 49.2181C61.935 48.7644 62.1267 48.3043 62.2993 47.8506L63.7499 48.4002ZM62.3057 51.5506C62.0564 52.0107 61.788 52.4708 61.5196 52.9118L60.1968 52.0938C60.4524 51.6784 60.7017 51.2439 60.9381 50.8093L62.3057 51.5506ZM60.4716 54.4838C60.1649 54.9056 59.8454 55.3273 59.513 55.7299L58.3117 54.7458C58.6248 54.3688 58.9251 53.9726 59.2127 53.57L60.4716 54.4838ZM58.2669 57.1486C57.9091 57.5256 57.5384 57.9027 57.155 58.2605L56.0878 57.1294C56.4457 56.7907 56.7971 56.4393 57.1358 56.0814L58.2669 57.1486ZM55.7363 59.5067C55.3273 59.839 54.912 60.1649 54.4902 60.4652L53.5828 59.2063C53.979 58.9187 54.3752 58.6184 54.7586 58.3053L55.7363 59.5067ZM52.9246 61.5132C52.4836 61.788 52.0235 62.05 51.5634 62.2992L50.8221 60.9317C51.2503 60.7017 51.6848 60.4524 52.1002 60.1904L52.9246 61.5132ZM49.8699 63.1364C49.3907 63.3537 48.905 63.5518 48.4193 63.7371L47.8698 62.2865C48.3299 62.1139 48.7836 61.9222 49.2309 61.7177L49.8699 63.1364Z" fill="#1e2329"/>
<path d="M13.317 46.3166C17.3581 46.3166 20.634 43.0407 20.634 38.9996C20.634 34.9585 17.3581 31.6826 13.317 31.6826C9.27593 31.6826 6 34.9585 6 38.9996C6 43.0407 9.27593 46.3166 13.317 46.3166Z" fill="url(#paint4_linear)"/>
<path d="M13.317 35.9385C14.0711 35.9321 14.6846 36.5392 14.691 37.2933C14.6973 38.0474 14.0903 38.6608 13.3362 38.6672C12.5821 38.6736 11.9686 38.0665 11.9623 37.3125V37.3061C11.9623 36.552 12.5693 35.9449 13.317 35.9385ZM15.6112 41.2809H11.0165V39.7025H15.6176L15.6112 41.2809Z" fill="#1e2329"/>
<path d="M39.7793 30.2703H38.2264V28.7494H39.7793V30.2703ZM39.7793 26.9218H38.2264V25.3945H39.7793V26.9218ZM39.7793 23.5668H38.2264V22.0459H39.7793V23.5668Z" fill="#1e2329"/>
<path d="M38.2201 47.7295H39.773V49.2504H38.2201V47.7295ZM38.2201 51.0781H39.773V52.599H38.2201V51.0781ZM38.2201 54.4266H39.773V55.9475H38.2201V54.4266Z" fill="#1e2329"/>
<path d="M47.7291 39.7794V38.2266H49.25V39.7794H47.7291ZM51.0777 39.7794V38.2266H52.5986V39.7794H51.0777ZM54.4263 39.7794V38.2266H55.9472V39.7794H54.4263Z" fill="#1e2329"/>
<path d="M22.046 39.7794V38.2266H23.5669V39.7794H22.046ZM25.3946 39.7794V38.2266H26.9155V39.7794H25.3946ZM28.7495 39.7794V38.2266H30.2705V39.7794H28.7495Z" fill="#1e2329"/>
<defs>
<linearGradient id="paint0_linear" x1="33.8244" y1="44.1751" x2="44.1758" y2="33.8237" gradientUnits="userSpaceOnUse">
<stop stop-color="#F0B90B"/>
<stop offset="0.2795" stop-color="#F1BC0F"/>
<stop offset="0.5691" stop-color="#F4C41C"/>
<stop offset="0.8624" stop-color="#F8D230"/>
<stop offset="0.9934" stop-color="#FBDA3C"/>
</linearGradient>
<linearGradient id="paint1_linear" x1="33.8244" y1="18.4939" x2="44.1758" y2="8.14251" gradientUnits="userSpaceOnUse">
<stop stop-color="#F0B90B"/>
<stop offset="0.2795" stop-color="#F1BC0F"/>
<stop offset="0.5691" stop-color="#F4C41C"/>
<stop offset="0.8624" stop-color="#F8D230"/>
<stop offset="0.9934" stop-color="#FBDA3C"/>
</linearGradient>
<linearGradient id="paint2_linear" x1="33.8244" y1="69.8704" x2="44.1758" y2="59.519" gradientUnits="userSpaceOnUse">
<stop stop-color="#F0B90B"/>
<stop offset="0.2795" stop-color="#F1BC0F"/>
<stop offset="0.5691" stop-color="#F4C41C"/>
<stop offset="0.8624" stop-color="#F8D230"/>
<stop offset="0.9934" stop-color="#FBDA3C"/>
</linearGradient>
<linearGradient id="paint3_linear" x1="59.5057" y1="44.1751" x2="69.8571" y2="33.8236" gradientUnits="userSpaceOnUse">
<stop stop-color="#F0B90B"/>
<stop offset="0.2795" stop-color="#F1BC0F"/>
<stop offset="0.5691" stop-color="#F4C41C"/>
<stop offset="0.8624" stop-color="#F8D230"/>
<stop offset="0.9934" stop-color="#FBDA3C"/>
</linearGradient>
<linearGradient id="paint4_linear" x1="8.14276" y1="44.1751" x2="18.4942" y2="33.8237" gradientUnits="userSpaceOnUse">
<stop stop-color="#F0B90B"/>
<stop offset="0.2795" stop-color="#F1BC0F"/>
<stop offset="0.5691" stop-color="#F4C41C"/>
<stop offset="0.8624" stop-color="#F8D230"/>
<stop offset="0.9934" stop-color="#FBDA3C"/>
</linearGradient>
</defs>
</svg>
