<svg width="78" height="78" viewBox="0 0 78 78" fill="none" xmlns="http://www.w3.org/2000/svg">
<path d="M40.0695 60.5642C39.7274 60.5642 39.3774 60.5642 39.0273 60.5642C38.6773 60.5642 38.3272 60.5642 37.9851 60.5642L38.0806 58.5752C38.3909 58.5752 38.7091 58.5752 39.0273 58.5752C39.3456 58.5752 39.6638 58.5752 39.9741 58.5752L40.0695 60.5642Z" fill="#1e2329"/>
<path d="M35.5276 60.3094C34.8434 60.198 34.1672 60.0468 33.5068 59.8797L34.016 57.9544C34.6127 58.1135 35.2333 58.2408 35.8459 58.3443L35.5276 60.3094ZM31.1519 59.108C30.5154 58.8534 29.8869 58.575 29.2743 58.2647L30.1733 56.5303C30.7302 56.8088 31.3031 57.0713 31.8838 57.3259L31.1519 59.108ZM27.1342 57.0156C26.5614 56.6337 26.0045 56.22 25.4714 55.7984L26.7205 54.2072C27.2058 54.605 27.715 55.0028 28.2321 55.321L27.1342 57.0156ZM23.6416 54.1436C23.1642 53.6503 22.7028 53.1332 22.2732 52.6081L23.8166 51.3511C24.2064 51.8364 24.6122 52.3058 25.0657 52.7513L23.6416 54.1436ZM20.8252 50.5953C20.4592 50.0224 20.1171 49.4178 19.7989 48.8052L21.5731 47.9062C21.8595 48.4551 22.1697 49.0041 22.5039 49.4973L20.8252 50.5953ZM18.8124 46.5457C18.5737 45.9013 18.3589 45.241 18.1839 44.5806L20.1092 44.0714C20.2683 44.6681 20.4592 45.2648 20.674 45.8536L18.8124 46.5457ZM17.6906 42.1541C17.5951 41.4778 17.5235 40.7857 17.4917 40.1015L19.4807 40.006C19.4807 40.6266 19.5682 41.2551 19.6557 41.8677L17.6906 42.1541ZM58.5917 38.3432C58.5917 37.7227 58.5121 37.0942 58.4326 36.4736L60.4056 36.219C60.4931 36.8873 60.5488 37.5556 60.5727 38.2318L58.5917 38.3432ZM19.4966 37.7545L17.5474 37.6272C17.5951 36.943 17.6747 36.2508 17.7781 35.5746L19.7432 35.8928C19.608 36.5054 19.5364 37.1339 19.4966 37.7545ZM58.0188 34.2539C57.8677 33.6493 57.6847 33.0526 57.4778 32.4639L59.3475 31.8035C59.5782 32.4479 59.7771 33.1083 59.9442 33.7766L58.0188 34.2539ZM20.1887 33.697L18.2714 33.156C18.4623 32.5036 18.6771 31.8433 18.9317 31.2068L20.7854 31.9229C20.5547 32.5036 20.3558 33.0924 20.1887 33.697ZM56.6027 30.4033C56.3322 29.8464 56.0219 29.2974 55.7037 28.7644L57.3903 27.7222C57.7483 28.3029 58.0904 28.9155 58.3928 29.5281L56.6027 30.4033ZM21.7163 29.8862L19.9341 28.9553C20.2524 28.3507 20.6104 27.754 20.9843 27.1812L22.6471 28.2711C22.3209 28.7962 22.0106 29.3372 21.7163 29.8862ZM54.4148 26.9266C54.025 26.4413 53.6193 25.9639 53.1896 25.5104L54.6217 24.142C55.099 24.6353 55.5525 25.1604 55.9742 25.7332L54.4148 26.9266ZM24.0155 26.4731L22.488 25.1922C22.9255 24.6671 23.3949 24.1579 23.8803 23.6806L25.2805 25.0967C24.835 25.5025 24.4133 25.9957 24.0155 26.4731ZM51.5428 23.9829C51.0654 23.5851 50.5642 23.1873 50.055 22.8532L51.1768 21.2063C51.7417 21.5961 52.2906 22.0019 52.8157 22.4554L51.5428 23.9829ZM26.9671 23.609L25.7419 22.0178C26.2829 21.5882 26.8398 21.1904 27.4206 20.8244L28.4947 22.4952C27.9696 22.8611 27.4524 23.2271 26.9671 23.609ZM48.1297 21.6916C47.5728 21.4052 47.0079 21.1347 46.4351 20.896L47.183 19.0503C47.8194 19.3128 48.4479 19.6072 49.0526 19.9254L48.1297 21.6916ZM30.4518 21.4291L29.5766 19.639C30.1892 19.3446 30.8257 19.0662 31.4701 18.8434L32.1703 20.729C31.5815 20.9279 31.0087 21.1586 30.4518 21.4291ZM44.3109 20.172C43.7063 20.005 43.0937 19.8697 42.4811 19.7583L42.8311 17.8012C43.5074 17.9205 44.1836 18.0717 44.8439 18.2626L44.3109 20.172ZM34.3104 20.0288L33.833 18.0956C34.4934 17.9285 35.1776 17.8012 35.8538 17.6978L36.1482 19.6629C35.5276 19.7583 34.915 19.8777 34.3104 20.0288ZM40.2534 19.4958C39.6329 19.456 39.0043 19.4481 38.3838 19.4958L38.3201 17.5068C39.0043 17.5068 39.6965 17.5068 40.3807 17.5068L40.2534 19.4958Z" fill="#1e2329"/>
<path d="M44.7404 41.9633C44.7404 44.35 43.0379 45.9412 40.5318 46.2913V48.4473H38.5348V46.339C36.8562 46.2913 35.257 45.5912 34.0875 44.3819L35.5753 42.8941C36.5857 43.8966 37.9779 44.4296 39.402 44.3421C41.383 44.3421 42.4889 43.5465 42.4889 42.0428C42.5526 41.4541 42.3377 40.8654 41.9081 40.4517C41.4467 40.1016 40.8977 39.8868 40.317 39.8391L38.5587 39.5845C37.5165 39.489 36.53 39.0673 35.7423 38.3831C34.9706 37.6353 34.5649 36.5931 34.6365 35.519C34.6365 33.2278 36.1083 31.5809 38.6144 31.2308V29.043H40.6113V31.2229C41.9956 31.3263 43.3004 31.9071 44.2949 32.8697L42.8628 34.3097C41.9718 33.4903 40.7864 33.0686 39.5771 33.1482C37.8188 33.1482 36.8721 34.1108 36.8721 35.4713C36.8402 35.9964 37.0312 36.5056 37.4131 36.8636C37.8825 37.2455 38.4473 37.4841 39.052 37.5398L40.8261 37.8103C41.8445 37.8819 42.8151 38.2638 43.6027 38.9162C44.4063 39.7197 44.82 40.8336 44.7404 41.9633Z" fill="#1e2329"/>
<path d="M67.764 57.207C67.756 64.2638 62.0358 69.9761 54.9789 69.9761C52.8388 69.9761 50.7305 69.4351 48.845 68.4009C48.0971 67.9951 47.397 67.5098 46.7446 66.9529C41.3585 62.3942 40.6902 54.3429 45.2489 48.9568C49.8076 43.5707 57.859 42.9024 63.2451 47.4611C66.1092 49.8876 67.764 53.4518 67.764 57.207Z" fill="url(#paint0_linear)"/>
<path d="M53.2693 63.3732L47.4058 57.5098L48.814 56.1095L53.2693 60.5569L61.79 52.0361L63.1982 53.4443L53.2693 63.3732Z" fill="#1e2329"/>
<path d="M58.5362 40.6357L58.3373 42.5372L60.2865 42.8395L60.5172 40.8028L58.5362 40.6357Z" fill="#1e2329"/>
<path d="M39.0278 70.0557H38.3357L38.3834 68.0667C39.0199 68.0667 39.6564 68.0667 40.2928 68.0667L40.3803 70.0557C39.9109 70.008 39.4654 70.0557 39.0278 70.0557ZM35.8455 69.8648C35.1693 69.7932 34.4851 69.7056 33.8168 69.5943L34.1827 67.6689C34.8033 67.7803 35.4398 67.8599 36.0762 67.9235L35.8455 69.8648ZM31.422 69.0692C30.7617 68.9021 30.1014 68.7191 29.4569 68.5043L30.0695 66.6188C30.6742 66.8097 31.2868 66.9847 31.9074 67.1438L31.422 69.0692ZM27.1895 67.6689C26.561 67.4143 25.9325 67.1279 25.3279 66.8256L26.203 65.0435C26.7758 65.322 27.3566 65.5925 27.9453 65.8391L27.1895 67.6689ZM23.2116 65.6561C22.6308 65.314 22.05 64.9401 21.4931 64.5582L22.6149 62.9193C23.148 63.2773 23.689 63.6274 24.2061 63.9536L23.2116 65.6561ZM19.528 63.0864C19.003 62.6567 18.4858 62.2112 17.9846 61.7498L19.3371 60.2939C19.8065 60.7235 20.2918 61.1451 20.7851 61.5429L19.528 63.0864ZM16.2184 60.0313C15.757 59.5301 15.3035 59.013 14.8818 58.4879L16.473 57.2388C16.8628 57.7241 17.2686 58.2174 17.7221 58.6788L16.2184 60.0313ZM13.4179 56.5307C13.0361 55.9738 12.6701 55.393 12.32 54.8123L14.0305 53.7939C14.3567 54.3429 14.7068 54.8839 15.0648 55.3851L13.4179 56.5307ZM11.1823 52.6483C10.888 52.0357 10.6016 51.4072 10.3868 50.7866L12.2246 49.991C12.4632 50.5798 12.7337 51.1605 13.0201 51.7334L11.1823 52.6483ZM9.50366 48.4874C9.29681 47.835 9.11382 47.1746 8.94675 46.5223L10.88 46.037C11.0312 46.6496 11.2062 47.2701 11.4051 47.8748L9.50366 48.4874ZM69.1726 46.3075L67.2393 45.846C67.3825 45.2334 67.5178 44.5969 67.6212 43.9764L69.5863 44.3105C69.4431 44.9788 69.3078 45.6551 69.1487 46.3075H69.1726ZM8.42962 44.1196C8.31823 43.4513 8.23072 42.7751 8.16707 42.0988L10.1401 41.8999C10.2038 42.5364 10.2913 43.1729 10.3947 43.7934L8.42962 44.1196ZM69.8807 41.884L67.8997 41.701C67.9553 41.0645 67.9951 40.4201 68.011 39.7916L70 39.8393C69.9761 40.5156 69.9363 41.2078 69.8807 41.884ZM8 39.6484V39.0278C8 38.5505 8 38.0811 8 37.6117L9.98101 37.6992C9.98101 38.1368 9.98101 38.5823 9.98101 39.0278V39.6086L8 39.6484ZM67.9633 37.4924C67.9633 36.8639 67.8758 36.2274 67.8042 35.5909L69.7772 35.3602C69.8568 36.0364 69.9125 36.7206 69.9523 37.3969L67.9633 37.4924ZM10.2276 35.4159L8.24663 35.1693C8.33415 34.501 8.43757 33.8247 8.56487 33.1564L10.522 33.5303C10.3868 34.1509 10.2992 34.7874 10.2276 35.4159ZM67.4621 33.3235C67.3348 32.7109 67.1916 32.0824 67.0245 31.4698L68.9419 30.9527C69.1249 31.605 69.276 32.2733 69.4113 32.9416L67.4621 33.3235ZM11.0391 31.2948L9.12178 30.7697C9.30476 30.1093 9.51161 29.4569 9.73438 28.8205L11.612 29.4729C11.4051 30.0696 11.1823 30.6821 11.0391 31.2948ZM66.3403 29.2819C66.1255 28.6852 65.8948 28.0885 65.6402 27.5078L67.47 26.7122C67.7326 27.3407 67.9872 27.9772 68.2179 28.6136L66.3403 29.2819ZM12.4553 27.3407L10.6334 26.5451C10.9039 25.9245 11.2062 25.304 11.5165 24.6993L13.2827 25.6222C12.9883 26.1791 12.7099 26.752 12.4553 27.3407ZM64.6457 25.4392C64.3513 24.8823 64.0331 24.3254 63.699 23.7844L65.3936 22.7422C65.7436 23.315 66.0857 23.9117 66.404 24.5084L64.6457 25.4392ZM14.4204 23.6253L12.7735 22.5672C13.1236 21.9944 13.5134 21.4295 13.9112 20.8726L15.5024 22.0421C15.1603 22.5592 14.7545 23.1161 14.4204 23.6253ZM62.4181 21.883C62.0441 21.3738 61.6225 20.8726 61.2406 20.3793L62.7602 19.1382C63.1977 19.6553 63.6194 20.1963 64.0172 20.7294L62.4181 21.883ZM16.9106 20.2361L15.391 18.9473C15.8286 18.4301 16.29 17.921 16.7674 17.4356L18.1915 18.82C17.7539 19.2814 17.3163 19.7508 16.9106 20.2361ZM59.7131 18.6847C59.2675 18.2312 58.7982 17.7937 58.3288 17.364L59.6494 15.8843C60.1825 16.3377 60.6757 16.8071 61.1292 17.2924L59.7131 18.6847ZM19.8542 17.2368L18.5415 15.749C19.0507 15.3035 19.5758 14.8659 20.1327 14.4522L21.342 16.0434C20.8248 16.4093 20.3316 16.823 19.8542 17.2368ZM56.5307 15.9081C56.0295 15.5262 55.5044 15.1125 54.9396 14.8023L56.0375 13.1474C56.6023 13.5214 57.1592 13.943 57.7002 14.3249L56.5307 15.9081ZM23.1957 14.6988L22.1137 13.0361C22.6786 12.6621 23.2673 12.3041 23.856 11.9779L24.8346 13.7123C24.2777 14.0226 23.7287 14.3647 23.1957 14.6988ZM53.0142 13.6168C52.4653 13.3066 51.8845 13.0201 51.3117 12.7496L52.155 10.9437C52.7756 11.238 53.3882 11.5483 53.9769 11.8745L53.0142 13.6168ZM26.8713 12.6701L26.0757 10.8641C26.6883 10.5777 27.3168 10.3152 27.9533 10.0685L28.6614 11.9302C28.0408 12.153 27.4521 12.4075 26.8713 12.6701ZM49.2034 11.8745C48.6067 11.6517 47.9941 11.4449 47.3895 11.2619L47.9623 9.3525C48.6147 9.55139 49.267 9.77416 49.8955 10.0128L49.2034 11.8745ZM30.8015 11.1823L30.2764 9.28885C30.9208 9.09791 31.5891 8.92288 32.2495 8.77172L32.6632 10.7129C32.0346 10.8562 31.4061 11.0153 30.8015 11.1823ZM45.1698 10.6652C44.5492 10.53 43.9127 10.4106 43.2842 10.3231L43.5786 8.35006C44.2469 8.45348 44.9231 8.57282 45.5914 8.71603L45.1698 10.6652ZM34.9067 10.2992L34.6283 8.32619C35.2965 8.23072 35.9808 8.15912 36.657 8.10343L36.8082 10.0924C36.1717 10.1481 35.5352 10.2117 34.9067 10.2992ZM41.0089 10.0765C40.3724 10.0287 39.728 10.0128 39.0994 10.0049V8C39.7677 8 40.4599 8 41.1361 8.0716L41.0089 10.0765Z" fill="#1e2329"/>
<path d="M42.5599 67.82L44.3818 67.5654L44.9307 69.4828L42.8065 69.7931" fill="#1e2329"/>
<defs>
<linearGradient id="paint0_linear" x1="45.9633" y1="66.2347" x2="64.0221" y2="48.1755" gradientUnits="userSpaceOnUse">
<stop stop-color="#F0B90B"/>
<stop offset="0.2795" stop-color="#F1BC0F"/>
<stop offset="0.5691" stop-color="#F4C41C"/>
<stop offset="0.8624" stop-color="#F8D230"/>
<stop offset="0.9934" stop-color="#FBDA3C"/>
</linearGradient>
</defs>
</svg>
