<?xml version="1.0" encoding="UTF-8"?>
<!DOCTYPE svg PUBLIC "-//W3C//DTD SVG 1.1//EN" "http://www.w3.org/Graphics/SVG/1.1/DTD/svg11.dtd">
<!-- Creator: CorelDRAW 2020 (64-Bit Evaluation Version) -->
<svg xmlns="http://www.w3.org/2000/svg" xml:space="preserve" width="93px" height="88px" version="1.1" style="shape-rendering:geometricPrecision; text-rendering:geometricPrecision; image-rendering:optimizeQuality; fill-rule:evenodd; clip-rule:evenodd"
viewBox="0 0 0.93 0.88"
 xmlns:xlink="http://www.w3.org/1999/xlink"
 xmlns:xodm="http://www.corel.com/coreldraw/odm/2003">
 <defs>
  <style type="text/css">
   <![CDATA[
    .str0 {stroke:#263674;stroke-width:0.03;stroke-linecap:round;stroke-linejoin:round;stroke-miterlimit:10}
    .fil2 {fill:none;fill-rule:nonzero}
    .fil0 {fill:#EFB30C;fill-rule:nonzero}
    .fil1 {fill:white;fill-rule:nonzero}
   ]]>
  </style>
 </defs>
 <g id="Layer_x0020_1">
  <metadata id="CorelCorpID_0Corel-Layer"/>
  <g id="_2237370370672">
   <path class="fil0" d="M0.81 0.01l0 0c-0.07,0 -0.16,0.04 -0.21,0.08l-0.31 0.31c-0.01,0.01 -0.01,0.02 -0.01,0.04 0,0.01 0,0.02 0.01,0.03l0.18 0.18c0.01,0.01 0.02,0.01 0.03,0.01 0.02,0 0.03,0 0.04,-0.01l0.31 -0.31c0.06,-0.06 0.1,-0.19 0.07,-0.28 -0.01,-0.01 -0.01,-0.01 -0.01,-0.02 -0.01,-0.01 -0.02,-0.01 -0.03,-0.02 -0.02,0 -0.04,-0.01 -0.07,-0.01l0 0z"/>
   <path class="fil0" d="M0.54 0.65c-0.01,0.01 -0.02,0.01 -0.04,0.01 0,0 -0.01,0 -0.02,0l0 0.13c0,0.01 0.01,0.03 0.02,0.04 0.01,0 0.02,0.01 0.03,0.01 0.01,0 0.01,-0.01 0.02,-0.01l0.17 -0.1c0.01,-0.01 0.02,-0.03 0.02,-0.04l0.02 -0.26c0,0 0,0 0,-0.01l-0.22 0.23z"/>
   <path class="fil0" d="M0.28 0.44c0,-0.02 0,-0.03 0.01,-0.04l0.23 -0.22c-0.01,0 -0.01,0 -0.01,0 0,0 0,0 0,0l-0.26 0.02c-0.01,0 -0.03,0.01 -0.03,0.02l-0.11 0.17c-0.01,0.01 -0.01,0.03 0,0.05 0.01,0.01 0.03,0.02 0.04,0.02 0,0 0,0 0.01,0l0.13 0c-0.01,-0.01 -0.01,-0.02 -0.01,-0.02z"/>
   <path class="fil1" d="M0.7 0.18c-0.01,0.02 -0.01,0.04 0,0.06 0.02,0.01 0.04,0.01 0.06,0 0.01,-0.02 0.01,-0.04 0,-0.06 -0.02,-0.01 -0.04,-0.01 -0.06,0z"/>
   <path class="fil2 str0" d="M0.48 0.65c-0.01,0.01 -0.02,0.01 -0.04,0.01 0,0 -0.01,0 -0.02,0l0 0.13c0,0.02 0.01,0.03 0.02,0.04 0.01,0.01 0.02,0.01 0.03,0.01 0,0 0.01,0 0.02,-0.01l0.17 -0.1c0.01,-0.01 0.02,-0.03 0.02,-0.04l0.02 -0.25c0,-0.01 0,-0.01 0,-0.01l-0.22 0.22z"/>
   <path class="fil0 str0" d="M0.22 0.44c0,-0.01 0,-0.03 0.01,-0.04l0.23 -0.22c-0.01,0 -0.01,0 -0.01,0 0,0 0,0 0,0l-0.26 0.02c-0.01,0 -0.03,0.01 -0.03,0.02l-0.11 0.17c-0.01,0.02 -0.01,0.04 0,0.05 0.01,0.02 0.03,0.03 0.04,0.03 0,0 0,0 0,0l0.13 -0.01c0,-0.01 0,-0.01 0,-0.02z"/>
   <path class="fil2 str0" d="M0.64 0.19c-0.01,0.01 -0.01,0.04 0,0.05 0.02,0.02 0.04,0.02 0.06,0 0.01,-0.01 0.01,-0.04 0,-0.05 -0.02,-0.02 -0.04,-0.02 -0.06,0z"/>
   <line class="fil2 str0" x1="0.26" y1="0.62" x2="0.06" y2= "0.83" />
   <line class="fil2 str0" x1="0.17" y1="0.52" x2="0.01" y2= "0.68" />
   <line class="fil2 str0" x1="0.36" y1="0.71" x2="0.2" y2= "0.87" />
   <path class="fil2 str0" d="M0.56 0.08c0,0 -0.01,0.01 -0.02,0.01l-0.31 0.31c-0.01,0.01 -0.01,0.03 -0.01,0.04 0,0.01 0,0.02 0.01,0.03l0.18 0.18c0.01,0.01 0.02,0.01 0.03,0.01 0.02,0 0.03,0 0.04,-0.01l0.31 -0.31c0.06,-0.06 0.1,-0.19 0.06,-0.28 0,-0.01 0,-0.01 0,-0.02 -0.01,0 -0.02,-0.01 -0.03,-0.01 -0.02,-0.01 -0.04,-0.02 -0.07,-0.02l0 0c-0.02,0 -0.03,0.01 -0.05,0.01m-0.05 0.01c-0.01,0.01 -0.02,0.01 -0.03,0.01"/>
  </g>
 </g>
</svg>
