<?xml version="1.0" encoding="UTF-8"?>
<!DOCTYPE svg PUBLIC "-//W3C//DTD SVG 1.1//EN" "http://www.w3.org/Graphics/SVG/1.1/DTD/svg11.dtd">
<!-- Creator: CorelDRAW 2020 (64-Bit) -->
<svg xmlns="http://www.w3.org/2000/svg" xml:space="preserve" width="300px" height="171px" version="1.1" style="shape-rendering:geometricPrecision; text-rendering:geometricPrecision; image-rendering:optimizeQuality; fill-rule:evenodd; clip-rule:evenodd"
viewBox="0 0 99.09 56.57"
 xmlns:xlink="http://www.w3.org/1999/xlink"
 xmlns:xodm="http://www.corel.com/coreldraw/odm/2003">
 <defs>
  <style type="text/css">
   <![CDATA[
    .fil0 {fill:#287AFF}
    .fil1 {fill:#FFCC00}
   ]]>
  </style>
 </defs>
 <g id="Layer_x0020_1">
  <metadata id="CorelCorpID_0Corel-Layer"/>
  <g id="_1175058785712">
   <path class="fil0" d="M22.98 8.35c-2.93,-4.99 -8.34,-8.34 -14.54,-8.34 -0.6,0 -1.2,0.03 -1.79,0.1l15.4 26.66 17.2 29.8 8.28 -14.35 -5.87 -9.99 -2.49 4.15 -16.19 -28.04 0 0.01z"/>
   <path class="fil1" d="M16.32 37.26c-2.92,4.98 -8.34,8.33 -14.53,8.33 -0.61,0 -1.2,-0.03 -1.79,-0.09l14.4 -24.94 5.79 10.03 -3.86 6.68 -0.01 -0.01z"/>
   <path class="fil1" d="M82.77 37.26c2.92,4.98 8.33,8.33 14.53,8.33 0.61,0 1.2,-0.03 1.79,-0.09l-14.4 -24.94 -5.79 10.03 3.86 6.68 0.01 -0.01z"/>
   <path class="fil0" d="M27.39 1.1c1.61,1.22 29.1,50.02 32.1,55.14 10.85,-18.49 22.47,-37.25 32.59,-56.15 -4.78,-0.57 -9.83,2.02 -12.57,4.27 -3.28,2.69 -4.74,5.49 -7.25,9.9 -1.55,2.72 -11.77,20.84 -12.66,21.68 -2.12,-2.1 -13.91,-23.53 -14.89,-25.77l9.3 0.05c-2.3,4.96 -3.26,3.09 -0.83,7.2 1.01,1.71 3.07,5.85 4.24,7.14l14.13 -24.56 -44.35 0c0.26,0.98 0.13,0.37 0.19,1.1z"/>
  </g>
 </g>
</svg>
