<svg width="777" height="780" viewBox="0 0 777 780" fill="none" xmlns="http://www.w3.org/2000/svg">
  <path d="M149.5 390L209 450L149.5 510L90 450L149.5 390Z" fill="url(#paint0_linear)"/>
  <path d="M299 240L359 300L299 360L239 300L299 240Z" fill="url(#paint1_linear)"/>
  <path d="M0 540L60 600L0 660L-60 600L0 540Z" fill="url(#paint2_linear)"/>
  <path d="M448 90L508 150L448 210L388 150L448 90Z" fill="url(#paint3_linear)"/>
  <path d="M597 -61L657 -1L597 59L537 -1L597 -61Z" fill="url(#paint4_linear)"/>
  <path d="M149.5 59L240 149.5L149.5 240L59 149.5L149.5 59Z" fill="url(#paint5_linear)"/>
  <path d="M-0.5 210L90 300L-0.5 390L-91 300L-0.5 210Z" fill="url(#paint6_linear)"/>
  <path d="M302 -91L392 -0.500008L302 90L212 -0.500008L302 -91Z" fill="url(#paint7_linear)"/>
  <path d="M-90 -1.99998L0.499977 -92L91 -1.99999L0.499985 88L-90 -1.99998Z" fill="url(#paint8_linear)"/>
  <path d="M150 270L180 300.5L150 331L120 300.5L150 270Z" fill="url(#paint9_linear)"/>
  <path d="M150 569L180 599.5L150 630L120 599.5L150 569Z" fill="url(#paint10_linear)"/>
  <path d="M299 120L329 150L299 180L269 150L299 120Z" fill="url(#paint11_linear)"/>
  <path d="M299 419L329 449.5L299 480L269 449.5L299 419Z" fill="url(#paint12_linear)"/>
  <path d="M597.5 120L628 150L597.5 180L567 150L597.5 120Z" fill="url(#paint13_linear)"/>
  <path d="M1 420L31 450.5L1 481L-29 450.5L1 420Z" fill="url(#paint14_linear)"/>
  <path d="M1 121L31 151.5L1 182L-29 151.5L1 121Z" fill="url(#paint15_linear)"/>
  <path d="M1 720L31 750L1 780L-29 750L1 720Z" fill="url(#paint16_linear)"/>
  <path d="M448.5 -30L479 7.62939e-06L448.5 30L418 7.62939e-06L448.5 -30Z" fill="url(#paint17_linear)"/>
  <path d="M148.5 -30L179 7.62939e-06L148.5 30L118 7.62939e-06L148.5 -30Z" fill="url(#paint18_linear)"/>
  <path d="M747 -30L777 7.62939e-06L747 30L717 7.62939e-06L747 -30Z" fill="url(#paint19_linear)"/>
  <path d="M448.5 270L479 300.5L448.5 331L418 300.5L448.5 270Z" fill="url(#paint20_linear)"/>
  <defs>
    <linearGradient id="paint0_linear" x1="-31.5" y1="691.5" x2="661" y2="-0.999978" gradientUnits="userSpaceOnUse">
      <stop offset="0.972328" stop-color="white"/>
      <stop offset="1" stop-color="white"/>
    </linearGradient>
    <linearGradient id="paint1_linear" x1="-31.5" y1="691.5" x2="661" y2="-0.999978" gradientUnits="userSpaceOnUse">
      <stop offset="0.972328" stop-color="white"/>
      <stop offset="1" stop-color="white"/>
    </linearGradient>
    <linearGradient id="paint2_linear" x1="-31.5" y1="691.5" x2="661" y2="-0.999978" gradientUnits="userSpaceOnUse">
      <stop offset="0.972328" stop-color="white"/>
      <stop offset="1" stop-color="white"/>
    </linearGradient>
    <linearGradient id="paint3_linear" x1="-31.5" y1="691.5" x2="661" y2="-0.999978" gradientUnits="userSpaceOnUse">
      <stop offset="0.972328" stop-color="white"/>
      <stop offset="1" stop-color="white"/>
    </linearGradient>
    <linearGradient id="paint4_linear" x1="-31.5" y1="691.5" x2="661" y2="-0.999978" gradientUnits="userSpaceOnUse">
      <stop offset="0.972328" stop-color="white"/>
      <stop offset="1" stop-color="white"/>
    </linearGradient>
    <linearGradient id="paint5_linear" x1="-31.5" y1="691.5" x2="661" y2="-0.999978" gradientUnits="userSpaceOnUse">
      <stop offset="0.972328" stop-color="white"/>
      <stop offset="1" stop-color="white"/>
    </linearGradient>
    <linearGradient id="paint6_linear" x1="-31.5" y1="691.5" x2="661" y2="-0.999978" gradientUnits="userSpaceOnUse">
      <stop offset="0.972328" stop-color="white"/>
      <stop offset="1" stop-color="white"/>
    </linearGradient>
    <linearGradient id="paint7_linear" x1="-31.5" y1="691.5" x2="661" y2="-0.999978" gradientUnits="userSpaceOnUse">
      <stop offset="0.972328" stop-color="white"/>
      <stop offset="1" stop-color="white"/>
    </linearGradient>
    <linearGradient id="paint8_linear" x1="-31.5" y1="691.5" x2="661" y2="-0.999978" gradientUnits="userSpaceOnUse">
      <stop offset="0.972328" stop-color="white"/>
      <stop offset="1" stop-color="white"/>
    </linearGradient>
    <linearGradient id="paint9_linear" x1="-31.5" y1="691.5" x2="661" y2="-0.999978" gradientUnits="userSpaceOnUse">
      <stop offset="0.972328" stop-color="white"/>
      <stop offset="1" stop-color="white"/>
    </linearGradient>
    <linearGradient id="paint10_linear" x1="-31.5" y1="691.5" x2="661" y2="-0.999978" gradientUnits="userSpaceOnUse">
      <stop offset="0.972328" stop-color="white"/>
      <stop offset="1" stop-color="white"/>
    </linearGradient>
    <linearGradient id="paint11_linear" x1="-31.5" y1="691.5" x2="661" y2="-0.999978" gradientUnits="userSpaceOnUse">
      <stop offset="0.972328" stop-color="white"/>
      <stop offset="1" stop-color="white"/>
    </linearGradient>
    <linearGradient id="paint12_linear" x1="-31.5" y1="691.5" x2="661" y2="-0.999978" gradientUnits="userSpaceOnUse">
      <stop offset="0.972328" stop-color="white"/>
      <stop offset="1" stop-color="white"/>
    </linearGradient>
    <linearGradient id="paint13_linear" x1="-31.5" y1="691.5" x2="661" y2="-0.999978" gradientUnits="userSpaceOnUse">
      <stop offset="0.972328" stop-color="white"/>
      <stop offset="1" stop-color="white"/>
    </linearGradient>
    <linearGradient id="paint14_linear" x1="-31.5" y1="691.5" x2="661" y2="-0.999978" gradientUnits="userSpaceOnUse">
      <stop offset="0.972328" stop-color="white"/>
      <stop offset="1" stop-color="white"/>
    </linearGradient>
    <linearGradient id="paint15_linear" x1="-31.5" y1="691.5" x2="661" y2="-0.999978" gradientUnits="userSpaceOnUse">
      <stop offset="0.972328" stop-color="white"/>
      <stop offset="1" stop-color="white"/>
    </linearGradient>
    <linearGradient id="paint16_linear" x1="-31.5" y1="691.5" x2="661" y2="-0.999978" gradientUnits="userSpaceOnUse">
      <stop offset="0.972328" stop-color="white"/>
      <stop offset="1" stop-color="white"/>
    </linearGradient>
    <linearGradient id="paint17_linear" x1="-31.5" y1="691.5" x2="661" y2="-0.999978" gradientUnits="userSpaceOnUse">
      <stop offset="0.972328" stop-color="white"/>
      <stop offset="1" stop-color="white"/>
    </linearGradient>
    <linearGradient id="paint18_linear" x1="-31.5" y1="691.5" x2="661" y2="-0.999978" gradientUnits="userSpaceOnUse">
      <stop offset="0.972328" stop-color="white"/>
      <stop offset="1" stop-color="white"/>
    </linearGradient>
    <linearGradient id="paint19_linear" x1="-31.5" y1="691.5" x2="661" y2="-0.999978" gradientUnits="userSpaceOnUse">
      <stop offset="0.972328" stop-color="white"/>
      <stop offset="1" stop-color="white"/>
    </linearGradient>
    <linearGradient id="paint20_linear" x1="-31.5" y1="691.5" x2="661" y2="-0.999978" gradientUnits="userSpaceOnUse">
      <stop offset="0.972328" stop-color="white"/>
      <stop offset="1" stop-color="white"/>
    </linearGradient>
  </defs>
</svg>
