<svg viewBox="0 0 881 295.3" xmlns="http://www.w3.org/2000/svg"><g fill-rule="evenodd"><path d="m348.85 168.19-52.64-68.08h-16.01v98.46h17.16v-70.05l54.18 70.05h14.47v-98.46h-17.16z" fill="#328ccb"/><g transform="translate(-79 -30.99)"><path d="m481.3 198.48h54.58q.14-1.27.21-2.39t.07-2.25a51.85 51.85 0 0 0 -2.25-15.33 37.83 37.83 0 0 0 -6.68-12.8 32 32 0 0 0 -11.11-8.71 35.27 35.27 0 0 0 -15.54-3.23 34.07 34.07 0 0 0 -14.63 3.09 36.35 36.35 0 0 0 -11.47 8.37 37.82 37.82 0 0 0 -7.48 12.29 42 42 0 0 0 -2.67 15.05 40.85 40.85 0 0 0 3 15.83 35.94 35.94 0 0 0 20.19 20 39.61 39.61 0 0 0 15 2.81q10.27 0 17.65-3.8a41.1 41.1 0 0 0 12.73-10.13l-10-8.86a35.66 35.66 0 0 1 -9.14 6.61 24.9 24.9 0 0 1 -11 2.25 21.11 21.11 0 0 1 -14.07-4.85q-5.77-4.85-7.31-14zm-.14-11.25q1.13-8.72 6.26-14.14a17.16 17.16 0 0 1 13-5.42 17.55 17.55 0 0 1 7.53 1.55 18 18 0 0 1 5.7 4.15 19.62 19.62 0 0 1 3.8 6.19 29.1 29.1 0 0 1 1.83 7.67z" fill="#328ccb"/><path d="m574 169.78h20v-14.49h-20v-20.4h-17.16v20.4h-9.42v14.49h9.42v39.22a29.39 29.39 0 0 0 1.57 10.36 16.29 16.29 0 0 0 4.45 6.7 17.75 17.75 0 0 0 6.89 3.66 31.32 31.32 0 0 0 8.6 1.12 32.62 32.62 0 0 0 8.44-1 29.55 29.55 0 0 0 6.91-2.84v-13.89a23.31 23.31 0 0 1 -10.55 2.53 9.66 9.66 0 0 1 -6.75-2.18c-1.59-1.45-2.39-3.84-2.39-7.13z" fill="#328ccb"/><path d="m673.74 217.33-10.27-10.13a40.79 40.79 0 0 1 -8.65 6.68 22.66 22.66 0 0 1 -19.62.7 22 22 0 0 1 -7-5.14 23 23 0 0 1 -4.57-7.59 26.89 26.89 0 0 1 -1.62-9.42 25.91 25.91 0 0 1 1.62-9.21 24.57 24.57 0 0 1 4.43-7.53 20.83 20.83 0 0 1 6.75-5.13 19.51 19.51 0 0 1 8.58-1.9 21.22 21.22 0 0 1 10.9 2.6 39.49 39.49 0 0 1 8.37 6.68l10.55-11.39a41.36 41.36 0 0 0 -12.21-9.29q-7-3.52-17.51-3.52a38.18 38.18 0 0 0 -27.69 11.53 39.28 39.28 0 0 0 -8.09 12.38 38.87 38.87 0 0 0 -2.91 15.05 38.39 38.39 0 0 0 11 27.22 37.85 37.85 0 0 0 12.22 8.3 38.42 38.42 0 0 0 15.33 3q10.83 0 17.86-3.87a46.77 46.77 0 0 0 12.53-10.02z" fill="#143a64"/><path d="m762.22 192.43a38.47 38.47 0 0 0 -3-15.05 37.9 37.9 0 0 0 -20.75-20.61 40.67 40.67 0 0 0 -15.83-3 39.85 39.85 0 0 0 -15.82 3.09 39.35 39.35 0 0 0 -12.52 8.37 38.83 38.83 0 0 0 -8.3 12.38 38.31 38.31 0 0 0 20.68 50.64 42.28 42.28 0 0 0 31.58-.07 38.58 38.58 0 0 0 20.89-20.68 37.7 37.7 0 0 0 3-15.05zm-17.16.28a27 27 0 0 1 -1.55 9.21 22.1 22.1 0 0 1 -4.45 7.53 21.81 21.81 0 0 1 -7.06 5.14 22.09 22.09 0 0 1 -9.31 1.9 21.4 21.4 0 0 1 -9-1.9 22.61 22.61 0 0 1 -7.13-5.14 23 23 0 0 1 -4.67-7.67 26 26 0 0 1 -1.69-9.35 27 27 0 0 1 1.55-9.21 22.11 22.11 0 0 1 4.45-7.53 22.5 22.5 0 0 1 25.39-5.13 22.12 22.12 0 0 1 7.13 5.21 24 24 0 0 1 4.67 7.67 25.49 25.49 0 0 1 1.67 9.27z" fill="#143a64"/><path d="m798.23 143.9v-16.18h-18.43v16.18zm-.56 85.67v-74.28h-17.16v74.27z" fill="#143a64"/><path d="m836.91 187.74c0-5.79 1.52-10.32 4.6-13.53a15.81 15.81 0 0 1 12-4.85q7.53 0 11.65 4.71c2.74 3.12 4.1 7.6 4.1 13.39v42.11h17.16v-47.27q0-13.08-6.87-20.82t-19.51-7.74a26.61 26.61 0 0 0 -7.78 1.05 25.88 25.88 0 0 0 -6.31 2.93 25.31 25.31 0 0 0 -5 4.17 42 42 0 0 0 -4 5v-11.6h-17.2v74.27h17.16z" fill="#143a64"/><path d="m960 207.62v-.28a16.4 16.4 0 0 0 -2.11-8.58 20.6 20.6 0 0 0 -5.42-6 34.17 34.17 0 0 0 -7.39-4.15q-4.08-1.69-8.16-3-3.23-1-6.26-2a41.69 41.69 0 0 1 -5.35-2.25 13.84 13.84 0 0 1 -3.73-2.67 4.84 4.84 0 0 1 -1.41-3.45v-.24a6.47 6.47 0 0 1 2.74-5.35q2.74-2.11 7.67-2.11a31.15 31.15 0 0 1 10.13 1.9 56.83 56.83 0 0 1 10.83 5.13l6.75-12.1a50.93 50.93 0 0 0 -13.08-6.19 47.27 47.27 0 0 0 -14.21-2.28 33.83 33.83 0 0 0 -10.34 1.55 25.12 25.12 0 0 0 -8.44 4.5 21 21 0 0 0 -5.63 7.17 21.36 21.36 0 0 0 -2 9.43v.35a17.36 17.36 0 0 0 2.11 8.93 20.27 20.27 0 0 0 5.42 6 29.86 29.86 0 0 0 7.45 4q4.15 1.55 8.23 2.81l6.26 1.9a31.75 31.75 0 0 1 5.35 2.11 12 12 0 0 1 3.66 2.74 5.41 5.41 0 0 1 1.34 3.66v.28a6.84 6.84 0 0 1 -3 5.84q-3 2.18-8.51 2.18a34.54 34.54 0 0 1 -12-2.32 49.45 49.45 0 0 1 -12.31-6.82l-7.6 11.53a52 52 0 0 0 15.26 8.3 50 50 0 0 0 16.18 2.86 38.51 38.51 0 0 0 10.83-1.48 26.19 26.19 0 0 0 8.79-4.36 20.07 20.07 0 0 0 5.84-7.24 23.35 23.35 0 0 0 2.11-10.3z" fill="#143a64"/><path d="m224.15 80.42a100 100 0 0 0 -73 182v-21.32a82.87 82.87 0 0 1 81.85-140.68v98.16l-55.94-72.36h-17.06v141.37a99.25 99.25 0 0 0 18.24 7.19q4.34 1.23 8.84 2.08a100 100 0 0 0 73-182v21.37a82.87 82.87 0 0 1 -81.79 140.68v-100.49l57.58 74.45h15.37v-141.18a99.25 99.25 0 0 0 -18.24-7.19q-4.35-1.23-8.85-2.08z" fill="#328ccb"/><path d="m97.32 178.64a108.43 108.43 0 0 1 200.76-56.82h21a126.79 126.79 0 0 0 -101.8-69.39q3.07.28 6.11.7v-22.13h-14.47v21h1.44q-2.3-.08-4.62-.08a127.67 127.67 0 0 0 -19.28 1.46l2.67-.38v-22h-14.43v24.74q2.72-.68 5.48-1.25a126.76 126.76 0 0 0 0 248.31q-2.76-.56-5.48-1.25v24.75h14.42v-22l-2.67-.38a127.78 127.78 0 0 0 19.28 1.46c.77 0 6.7-.13 3.19 0v21h14.42v-22.22c-6.75.94 64.74-7.08 95.7-68.69h-21a108.43 108.43 0 0 1 -200.72-56.83zm82.89 124.16q1.53.31 3.07.59-1.54-.28-3.07-.59zm3.12.6q1.54.27 3.09.51-1.55-.24-3.09-.51zm3.09-250q-1.55.24-3.09.51 1.54-.27 3.09-.51zm-3.14.52q-1.54.28-3.07.59 1.53-.31 3.07-.59zm33.93-1.47-2.21-.21 2.23.18zm-2.28-.18-2.24-.14zm-2.29-.14-2.27-.1z" fill="#143a64"/></g></g></svg>