<svg enable-background="new 0 0 750.02 226.02" viewBox="0 0 750.02 226.02" xmlns="http://www.w3.org/2000/svg" xmlns:xlink="http://www.w3.org/1999/xlink"><mask id="a" height="164.88" maskUnits="userSpaceOnUse" width="122.77" x="31.23" y="11.62"><path d="m31.23 11.62h122.77v164.88h-122.77z" fill="#fff"/></mask><mask id="b" height="165.88" maskUnits="userSpaceOnUse" width="125.78" x="121.47" y="38.94"><path d="m121.47 38.94h125.78v165.88h-125.78z" fill="#fff"/></mask><mask id="c" height="165.88" maskUnits="userSpaceOnUse" width="125.77" x="379.99" y="10.85"><path d="m379.99 10.85h125.78v165.88h-125.78z" fill="#fff"/></mask><g fill="#277ee6"><path d="m714.96 150.03-6.86 18.82-6.81-18.82h-4.99v23.38h3.76v-16.89l6.17 16.89h3.75l6.22-16.89v16.89h3.7v-23.38zm-38.07 0v3.49h6.7v19.89h3.7v-19.89h6.6v-3.48z"/><path d="m97.24 78.08c-31.14-5.7-33.47-11.71-33.47-20.23 0-16.78 18.14-19.29 28.96-19.29 18.68 0 29.39 8.83 29.39 24.23v4.77h28.02v-4.76c0-31.57-22.08-51.18-57.62-51.18-34.48 0-56.77 18.41-56.77 46.88 0 13.93 5.09 24.43 15.54 32.1 8.8 6.45 21.64 10.99 40.43 14.28 34.48 5.86 34.48 14.77 34.48 21.94 0 18.79-18.08 22.73-33.25 22.73-20.2 0-33.25-10.86-33.25-27.67v-4.77h-28.47v4.77c0 32.67 24.8 54.61 61.71 54.61 37.66 0 61.06-19.03 61.06-49.67 0-34.98-29.28-43.49-56.76-48.74" mask="url(#a)" transform="translate(0 -.399)"/><path d="m184.36 138.41c-20.18 0-36.59-16.41-36.59-36.58s16.41-36.59 36.59-36.59c20.17 0 36.59 16.41 36.59 36.59s-16.42 36.58-36.59 36.58m0-99.47c-13.32 0-25.99 4.11-36.59 11.73v-8.93h-26.3v163.08h26.3v-51.83c10.6 7.62 23.27 11.72 36.59 11.72 34.68 0 62.89-28.21 62.89-62.89 0-34.67-28.22-62.88-62.89-62.88" mask="url(#b)" transform="translate(40 11.601)"/><path d="m479.47 113.84c0 20.17-16.41 36.58-36.59 36.58-20.17 0-36.58-16.41-36.58-36.58 0-20.18 16.41-36.59 36.59-36.59 20.17.01 36.57 16.42 36.58 36.59zm0-102.99v51.83c-10.6-7.62-23.26-11.72-36.59-11.72-34.68 0-62.89 28.22-62.89 62.89s28.21 62.89 62.89 62.89c13.32 0 25.99-4.11 36.59-11.73v8.93h26.3v-163.09z" mask="url(#c)" transform="translate(159 -.399)"/><path d="m477.38 50.54c-9.86 0-19.46 2.71-27.83 7.75v-4.94h-26.3v120.18h26.3v-68.85c0-15.35 12.49-27.83 27.83-27.83 15.35 0 27.83 12.49 27.83 27.83v68.85h26.3v-68.85c.01-29.86-24.28-54.14-54.13-54.14m-122.24 26.09c12.47 0 23.73 8.19 29.04 20.53h-58.49c5.87-13.51 18.6-20.53 29.45-20.53zm29.05 56.84c-5.5 10.82-15.14 16.54-27.98 16.54-17.64 0-29.11-12.85-32.58-26.98h92.11l.03-4.75c.11-19.88-6.7-37.73-19.16-50.26-11.21-11.27-25.94-17.48-41.47-17.48-33.32 0-60.42 28.26-60.42 63 0 35.08 27 62.56 61.49 62.56 27.69 0 48.38-14.67 56.74-40.24l.78-2.38z"/></g></svg>