<?xml version="1.0" encoding="UTF-8"?>
<!DOCTYPE svg PUBLIC "-//W3C//DTD SVG 1.1//EN" "http://www.w3.org/Graphics/SVG/1.1/DTD/svg11.dtd">
<!-- Creator: CorelDRAW 2020 (64-Bit Evaluation Version) -->
<svg xmlns="http://www.w3.org/2000/svg" xml:space="preserve" width="200px" height="200px" version="1.1" style="shape-rendering:geometricPrecision; text-rendering:geometricPrecision; image-rendering:optimizeQuality; fill-rule:evenodd; clip-rule:evenodd"
viewBox="0 0 41.91 41.89"
 xmlns:xlink="http://www.w3.org/1999/xlink"
 xmlns:xodm="http://www.corel.com/coreldraw/odm/2003">
 <defs>
  <style type="text/css">
   <![CDATA[
    .fil0 {fill:#263674}
    .fil1 {fill:#FDCB08}
   ]]>
  </style>
 </defs>
 <g id="Layer_x0020_1">
  <metadata id="CorelCorpID_0Corel-Layer"/>
  <g id="_2074208353808">
   <path class="fil0" d="M34.51 31.29l1.94 -2.88c0.62,0.91 1.68,2.75 1.96,3.53 0.19,0.5 -0.5,1.29 -0.87,1.82 -1.84,2.65 -4.53,4.61 -7.34,6 -2.83,1.39 -6,2.1 -9.22,2.1 -5.51,0.33 -11.06,-2.38 -14.91,-6.13 -3.75,-3.76 -6.07,-8.87 -6.07,-14.85 0.04,-2.86 0.56,-5.72 1.68,-8.09 0,0 0.75,-2.12 1.32,-2.22 2.25,4.24 4.5,8.48 6.75,12.72 0.83,1.96 1.67,-0.63 2.3,-1.68l1.48 2.76c0,0 0.88,1.45 1.77,-0.03l2.32 -4.27c0,0 0.49,-0.67 0.77,0.19l3.03 5.73c0,0 0.53,1.42 1.22,-0.22l4.2 -7.82c0,0 0.55,-1.13 1.23,-0.06 0.13,0.2 1.36,1.89 1.18,2.98 0,0 0.1,0.82 -0.99,2.54 -0.91,1.86 -3.23,6.27 -4.76,8.43 0,0 -1.49,2.17 -3.03,0.3 -0.04,0.02 -1.74,-2.63 -2.55,-4.39l-0.82 -1.39c0,0 -0.22,-0.45 -0.48,0.01 -0.72,1.26 -2.76,5.43 -3.8,6.06 0,0 -1.21,1.47 -2.95,-0.95l-5.89 -10.84c0,0.06 -0.02,0.2 -0.02,0.26 0,4.71 1.91,8.97 4.99,12.05 3.08,3.09 7.34,4.99 12.05,4.99 2.65,0 5.22,-0.61 7.53,-1.75 2.31,-1.14 4.37,-2.8 5.98,-4.9z"/>
   <path class="fil1" d="M7.4 10.6l-1.93 2.88c-0.63,-0.91 -1.69,-2.75 -1.96,-3.53 -0.2,-0.5 0.5,-1.29 0.86,-1.83 1.84,-2.65 4.53,-4.6 7.34,-5.99 2.83,-1.39 6.01,-2.1 9.22,-2.1 5.52,-0.33 11.07,2.37 14.91,6.13 3.76,3.76 6.07,8.86 6.07,14.84 -0.04,2.87 -0.56,5.73 -1.68,8.09 0,0 -0.75,2.13 -1.32,2.22 -2.25,-4.23 -4.5,-8.47 -6.75,-12.71 -0.83,-1.96 -1.67,0.63 -2.3,1.68l-1.53 -2.84c0,0 -0.9,-1.25 -1.8,0.22l-2.23 4.16c0,0 -0.5,0.67 -0.78,-0.19l-3.03 -5.73c0,0 -0.53,-1.42 -1.22,0.22l-4.2 7.82c0,0 -0.55,1.13 -1.23,0.06 -0.12,-0.21 -1.36,-1.89 -1.18,-2.98 0,0 -0.1,-0.82 0.99,-2.54 0.91,-1.86 3.23,-6.27 4.76,-8.43 0,0 1.49,-2.18 3.03,-0.3 0.04,-0.02 1.74,2.63 2.55,4.39l0.82 1.39c0,0 0.23,0.45 0.48,-0.01 0.72,-1.26 2.76,-5.43 3.8,-6.07 0,0 1.22,-1.46 2.95,0.96l5.89 10.84c0,-0.06 0.02,-0.21 0.02,-0.27 0,-4.7 -1.9,-8.96 -4.99,-12.04 -3.08,-3.09 -7.34,-4.99 -12.05,-4.99 -2.65,0 -5.22,0.61 -7.53,1.74 -2.31,1.14 -4.37,2.81 -5.98,4.91z"/>
  </g>
 </g>
</svg>
