<?xml version="1.0" encoding="UTF-8"?>
<!DOCTYPE svg PUBLIC "-//W3C//DTD SVG 1.1//EN" "http://www.w3.org/Graphics/SVG/1.1/DTD/svg11.dtd">
<!-- Creator: CorelDRAW 2020 (64-Bit Evaluation Version) -->
<svg xmlns="http://www.w3.org/2000/svg" xml:space="preserve" width="200px" height="200px" version="1.1" style="shape-rendering:geometricPrecision; text-rendering:geometricPrecision; image-rendering:optimizeQuality; fill-rule:evenodd; clip-rule:evenodd"
viewBox="0 0 86.81 86.81"
 xmlns:xlink="http://www.w3.org/1999/xlink"
 xmlns:xodm="http://www.corel.com/coreldraw/odm/2003">
 <defs>
  <style type="text/css">
   <![CDATA[
    .fil0 {fill:#263674}
    .fil1 {fill:#E5AD11}
    .fil2 {fill:#263674;fill-rule:nonzero}
   ]]>
  </style>
 </defs>
 <g id="Layer_x0020_1">
  <metadata id="CorelCorpID_0Corel-Layer"/>
  <g id="_2389941867632">
   <polygon class="fil0" points="8.68,78.13 8.68,0 0,0 0,86.81 86.81,86.81 86.81,78.13 "/>
   <rect class="fil1" x="76.06" width="10.75" height="70.12"/>
   <rect class="fil1" x="56.92" y="30.58" width="10.75" height="39.54"/>
   <rect class="fil1" x="37.78" y="13.61" width="10.75" height="56.5"/>
   <rect class="fil1" x="18.64" y="41.63" width="10.75" height="28.49"/>
   <path class="fil2" d="M23.92 66.52c-0.36,0.52 -1.07,0.65 -1.58,0.29 -0.51,-0.35 -0.64,-1.06 -0.29,-1.57l21.29 -30.7 19.18 18.79 17.9 -35.62c0.28,-0.56 0.96,-0.79 1.52,-0.51 0.56,0.28 0.78,0.96 0.5,1.52l-19.29 38.4 -19.48 -19.08 -19.75 28.48z"/>
   <circle class="fil0" cx="24.27" cy="64.29" r="3.97"/>
   <circle class="fil0" cx="43.4" cy="37.06" r="3.97"/>
   <circle class="fil0" cx="61.95" cy="56.1" r="3.97"/>
   <circle class="fil0" cx="81.73" cy="17.95" r="3.97"/>
  </g>
 </g>
</svg>
