<?xml version="1.0" encoding="UTF-8"?>
<!DOCTYPE svg PUBLIC "-//W3C//DTD SVG 1.1//EN" "http://www.w3.org/Graphics/SVG/1.1/DTD/svg11.dtd">
<!-- Creator: CorelDRAW 2020 (64-Bit Evaluation Version) -->
<svg xmlns="http://www.w3.org/2000/svg" xml:space="preserve" width="40px" height="40px" version="1.1" style="shape-rendering:geometricPrecision; text-rendering:geometricPrecision; image-rendering:optimizeQuality; fill-rule:evenodd; clip-rule:evenodd"
viewBox="0 0 15.57 15.57"
 xmlns:xlink="http://www.w3.org/1999/xlink"
 xmlns:xodm="http://www.corel.com/coreldraw/odm/2003">
 <defs>
  <style type="text/css">
   <![CDATA[
    .str0 {stroke:white;stroke-width:0.05;stroke-linecap:round;stroke-linejoin:round;stroke-miterlimit:2.61313}
    .fil5 {fill:none}
    .fil3 {fill:#263674}
    .fil0 {fill:#EFB30C}
    .fil4 {fill:white}
    .fil2 {fill:#263674;fill-rule:nonzero}
    .fil1 {fill:#EFB30C;fill-rule:nonzero}
   ]]>
  </style>
 </defs>
 <g id="Layer_x0020_1">
  <metadata id="CorelCorpID_0Corel-Layer"/>
  <g id="_2403672269088">
   <rect class="fil0" x="4.36" y="6.46" width="10.81" height="6.66"/>
   <polygon class="fil1" points="5.02,12.41 14.52,12.41 14.52,7.13 5.02,7.13 "/>
   <polygon class="fil1" points="10.3,13.46 10.3,14.52 13.46,14.52 13.46,15.57 6.08,15.57 6.08,14.52 9.27,14.52 9.27,13.46 3.97,13.46 3.97,6.08 15.57,6.08 15.57,13.46 "/>
   <g>
    <path class="fil2" d="M5.5 12.28c-0.17,0.14 -0.41,0.12 -0.55,-0.05 -0.14,-0.16 -0.12,-0.4 0.05,-0.54l3.19 -2.7 1.49 2.4 3.45 -3.63c0.14,-0.16 0.39,-0.16 0.54,-0.01 0.16,0.14 0.17,0.39 0.02,0.55l-4.14 4.35 -1.55 -2.48 -2.5 2.11z"/>
    <polygon class="fil3" points="14.88,6.78 14.34,8.58 13.79,10.38 12.5,9.01 11.22,7.64 13.05,7.21 "/>
   </g>
   <rect class="fil4" width="7.79" height="15.57"/>
   <path class="fil3" d="M1.34 0l3.57 0c0.85,0 1.54,0.69 1.54,1.54l0 14.03 -6.45 0 0 -14.23c0,-0.74 0.6,-1.34 1.34,-1.34z"/>
   <line class="fil5 str0" x1="2.43" y1="9.18" x2="4.98" y2= "9.18" />
   <line class="fil5 str0" x1="1.45" y1="11.24" x2="4" y2= "11.24" />
   <circle class="fil4" cx="3.26" cy="5.02" r="1.06"/>
  </g>
 </g>
</svg>
