<svg width="111" height="55" viewBox="0 0 111 55" fill="none" xmlns="http://www.w3.org/2000/svg">
<rect x="0.960693" y="0.720703" width="110" height="54" rx="5" fill="#2B3139"/>
<path d="M40.7347 16.4387V22.7207H42.9577C44.5597 22.7207 45.6127 21.6767 45.6127 19.5797C45.6127 17.4827 44.5597 16.4387 42.9577 16.4387H40.7347ZM42.9577 21.8207H41.7517V17.3387H42.9577C43.8937 17.3387 44.5237 17.9417 44.5237 19.0757V20.0837C44.5237 21.2177 43.8937 21.8207 42.9577 21.8207ZM48.6422 22.8287C49.9472 22.8287 50.7932 21.8747 50.7932 20.3807C50.7932 18.8867 49.9472 17.9327 48.6422 17.9327C47.3372 17.9327 46.4912 18.8867 46.4912 20.3807C46.4912 21.8747 47.3372 22.8287 48.6422 22.8287ZM48.6422 22.0187C47.9762 22.0187 47.5262 21.6047 47.5262 20.7767V19.9847C47.5262 19.1567 47.9762 18.7427 48.6422 18.7427C49.3082 18.7427 49.7582 19.1567 49.7582 19.9847V20.7767C49.7582 21.6047 49.3082 22.0187 48.6422 22.0187ZM51.3568 18.0407L52.6348 22.7207H53.7148L54.3358 20.5877L54.7048 19.2737H54.7228L55.7128 22.7207H56.8198L58.0798 18.0407H57.1708L56.6848 20.0027L56.2708 21.7757H56.2438L55.7488 20.0027L55.1728 18.0407H54.2908L53.7238 20.0027L53.2378 21.7757H53.2108L52.7878 20.0027L52.3108 18.0407H51.3568ZM59.0143 22.7207H59.9953V19.5887C59.9953 19.0397 60.4993 18.7787 61.0123 18.7787C61.6153 18.7787 61.8943 19.1477 61.8943 19.8767V22.7207H62.8753V19.7507C62.8753 18.5987 62.3083 17.9327 61.3543 17.9327C60.6343 17.9327 60.2383 18.3107 60.0403 18.8147H59.9953V18.0407H59.0143V22.7207ZM65.234 22.7207H65.864V21.9197H65.216V16.0607H64.235V21.7487C64.235 22.3517 64.568 22.7207 65.234 22.7207ZM68.6374 22.8287C69.9424 22.8287 70.7884 21.8747 70.7884 20.3807C70.7884 18.8867 69.9424 17.9327 68.6374 17.9327C67.3324 17.9327 66.4864 18.8867 66.4864 20.3807C66.4864 21.8747 67.3324 22.8287 68.6374 22.8287ZM68.6374 22.0187C67.9714 22.0187 67.5214 21.6047 67.5214 20.7767V19.9847C67.5214 19.1567 67.9714 18.7427 68.6374 18.7427C69.3034 18.7427 69.7534 19.1567 69.7534 19.9847V20.7767C69.7534 21.6047 69.3034 22.0187 68.6374 22.0187ZM75.3104 22.7207H75.8594V21.9197H75.3644V19.5707C75.3644 18.5267 74.6894 17.9327 73.4834 17.9327C72.5744 17.9327 72.0254 18.3197 71.7194 18.8417L72.3044 19.3727C72.5384 19.0037 72.8714 18.7337 73.4204 18.7337C74.0774 18.7337 74.3834 19.0667 74.3834 19.6337V20.0297H73.5374C72.2324 20.0297 71.5394 20.5067 71.5394 21.4337C71.5394 22.2797 72.0884 22.8287 73.0514 22.8287C73.7354 22.8287 74.2394 22.5227 74.4194 21.9377H74.4644C74.5274 22.3967 74.7974 22.7207 75.3104 22.7207ZM73.3304 22.0817C72.8444 22.0817 72.5384 21.8657 72.5384 21.4517V21.2897C72.5384 20.8847 72.8714 20.6597 73.5554 20.6597H74.3834V21.3347C74.3834 21.7937 73.9334 22.0817 73.3304 22.0817ZM79.7639 21.9467V22.7207H80.7449V16.0607H79.7639V18.8147H79.7189C79.5209 18.2567 79.0259 17.9327 78.4049 17.9327C77.2259 17.9327 76.5419 18.8417 76.5419 20.3807C76.5419 21.9197 77.2259 22.8287 78.4049 22.8287C79.0259 22.8287 79.5209 22.4957 79.7189 21.9467H79.7639ZM78.7019 21.9827C78.0269 21.9827 77.5769 21.5057 77.5769 20.7857V19.9757C77.5769 19.2557 78.0269 18.7787 78.7019 18.7787C79.2959 18.7787 79.7639 19.1027 79.7639 19.5797V21.1817C79.7639 21.6587 79.2959 21.9827 78.7019 21.9827ZM84.517 18.8417V22.7207H85.498V18.8417H86.479V18.0407H85.498V16.8617H86.479V16.0607H85.705C84.922 16.0607 84.517 16.5107 84.517 17.2667V18.0407H83.806V18.8417H84.517ZM89.1335 22.8287C90.4385 22.8287 91.2845 21.8747 91.2845 20.3807C91.2845 18.8867 90.4385 17.9327 89.1335 17.9327C87.8285 17.9327 86.9825 18.8867 86.9825 20.3807C86.9825 21.8747 87.8285 22.8287 89.1335 22.8287ZM89.1335 22.0187C88.4675 22.0187 88.0175 21.6047 88.0175 20.7767V19.9847C88.0175 19.1567 88.4675 18.7427 89.1335 18.7427C89.7995 18.7427 90.2495 19.1567 90.2495 19.9847V20.7767C90.2495 21.6047 89.7995 22.0187 89.1335 22.0187ZM92.3775 22.7207H93.3585V19.7327C93.3585 19.2467 93.7905 18.9857 94.5645 18.9857H94.9515V18.0407H94.6905C93.9435 18.0407 93.5385 18.4637 93.4035 18.9407H93.3585V18.0407H92.3775V22.7207Z" fill="#EAECEF"/>
<path d="M41.0527 36.7207H42.5787V31.8347C42.5787 30.9947 43.3207 30.5887 44.0767 30.5887C44.9727 30.5887 45.4067 31.1487 45.4067 32.2827V36.7207H46.9327V31.8347C46.9327 30.9947 47.6467 30.5887 48.4167 30.5887C49.3407 30.5887 49.7607 31.1627 49.7607 32.2827V36.7207H51.2867V32.1007C51.2867 30.3087 50.4327 29.2727 48.9907 29.2727C47.8147 29.2727 47.0587 29.9447 46.7927 30.7567H46.7507C46.4007 29.7487 45.5747 29.2727 44.5947 29.2727C43.4887 29.2727 42.9427 29.8887 42.6487 30.6447H42.5787V29.4407H41.0527V36.7207ZM58.7324 36.7207H59.5864V35.4747H58.8164V31.8207C58.8164 30.1967 57.7664 29.2727 55.8904 29.2727C54.4764 29.2727 53.6224 29.8747 53.1464 30.6867L54.0564 31.5127C54.4204 30.9387 54.9384 30.5187 55.7924 30.5187C56.8144 30.5187 57.2904 31.0367 57.2904 31.9187V32.5347H55.9744C53.9444 32.5347 52.8664 33.2767 52.8664 34.7187C52.8664 36.0347 53.7204 36.8887 55.2184 36.8887C56.2824 36.8887 57.0664 36.4127 57.3464 35.5027H57.4164C57.5144 36.2167 57.9344 36.7207 58.7324 36.7207ZM55.6524 35.7267C54.8964 35.7267 54.4204 35.3907 54.4204 34.7467V34.4947C54.4204 33.8647 54.9384 33.5147 56.0024 33.5147H57.2904V34.5647C57.2904 35.2787 56.5904 35.7267 55.6524 35.7267ZM63.896 36.8887C65.296 36.8887 66.29 36.2307 66.766 35.0407L65.604 34.4247C65.296 35.1527 64.778 35.6287 63.896 35.6287C62.776 35.6287 62.202 34.8587 62.202 33.7387V32.4367C62.202 31.3167 62.776 30.5467 63.896 30.5467C64.722 30.5467 65.24 30.9807 65.45 31.6527L66.71 31.0647C66.276 29.9867 65.352 29.2727 63.896 29.2727C61.796 29.2727 60.592 30.7567 60.592 33.0807C60.592 35.4047 61.796 36.8887 63.896 36.8887ZM72.1107 36.8887C74.6587 36.8887 76.3247 35.1247 76.3247 31.8347C76.3247 28.5447 74.6587 26.7807 72.1107 26.7807C69.5627 26.7807 67.8967 28.5447 67.8967 31.8347C67.8967 35.1247 69.5627 36.8887 72.1107 36.8887ZM72.1107 35.4747C70.5987 35.4747 69.5907 34.3827 69.5907 32.6047V31.0647C69.5907 29.2867 70.5987 28.1947 72.1107 28.1947C73.6227 28.1947 74.6307 29.2867 74.6307 31.0647V32.6047C74.6307 34.3827 73.6227 35.4747 72.1107 35.4747ZM81.1962 36.8887C83.4362 36.8887 84.7382 35.6707 84.7382 33.8507C84.7382 32.2967 83.8562 31.4287 81.9102 31.0507L81.0422 30.8687C79.9922 30.6587 79.4882 30.3087 79.4882 29.4967C79.4882 28.6427 80.1322 28.1807 81.2522 28.1807C82.3302 28.1807 83.0302 28.6007 83.5342 29.2587L84.6402 28.2787C83.8842 27.3127 82.8062 26.7807 81.3362 26.7807C79.2642 26.7807 77.9202 27.8447 77.9202 29.5807C77.9202 31.1347 78.8862 32.0167 80.7762 32.3667L81.6442 32.5207C82.7782 32.7447 83.1702 33.1787 83.1702 33.9347C83.1702 34.8727 82.5262 35.4887 81.2802 35.4887C80.2162 35.4887 79.4042 35.0547 78.7182 34.2147L77.6262 35.2367C78.4382 36.2447 79.5582 36.8887 81.1962 36.8887Z" fill="#EAECEF"/>
<path fill-rule="evenodd" clip-rule="evenodd" d="M28.8543 17.7207C28.9943 18.9326 28.4897 20.1255 27.7509 21.0037C26.9808 21.8675 25.7469 22.5277 24.5464 22.4427C24.3894 21.2778 24.9977 20.0378 25.6784 19.2817C26.4486 18.4225 27.7852 17.765 28.8543 17.7207ZM32.6932 24.2295C32.5514 24.3102 30.3397 25.5697 30.3642 28.1318C30.3918 31.234 33.2203 32.2587 33.2536 32.2695C33.2374 32.3419 32.8109 33.7492 31.7513 35.1781C30.8659 36.4362 29.9368 37.6662 28.464 37.6879C27.7631 37.7034 27.2899 37.5119 26.7967 37.3124C26.2824 37.1043 25.7465 36.8875 24.9082 36.8875C24.0194 36.8875 23.4596 37.1114 22.9199 37.3274C22.4532 37.5141 22.0014 37.6948 21.3648 37.7196C19.9615 37.7693 18.8886 36.3765 17.9709 35.1302C16.1373 32.5852 14.7092 27.9564 16.6238 24.8072C17.552 23.2625 19.2437 22.2685 21.0516 22.2414C21.8478 22.226 22.6116 22.5176 23.2812 22.7732C23.7933 22.9686 24.2503 23.1431 24.6245 23.1431C24.9536 23.1431 25.398 22.9756 25.9158 22.7803C26.7314 22.4729 27.7291 22.0967 28.7458 22.198C29.4408 22.217 31.4209 22.4584 32.6967 24.2275L32.6932 24.2295Z" fill="#EAECEF"/>
</svg>
