<?xml version="1.0" encoding="UTF-8"?>
<!DOCTYPE svg PUBLIC "-//W3C//DTD SVG 1.1//EN" "http://www.w3.org/Graphics/SVG/1.1/DTD/svg11.dtd">
<!-- Creator: CorelDRAW 2020 (64-Bit Evaluation Version) -->
<svg xmlns="http://www.w3.org/2000/svg" xml:space="preserve" width="500px" height="148px" version="1.1" style="shape-rendering:geometricPrecision; text-rendering:geometricPrecision; image-rendering:optimizeQuality; fill-rule:evenodd; clip-rule:evenodd"
viewBox="0 0 167.98 49.85"
 xmlns:xlink="http://www.w3.org/1999/xlink"
 xmlns:xodm="http://www.corel.com/coreldraw/odm/2003">
 <defs>
  <style type="text/css">
   <![CDATA[
    .fil0 {fill:black;fill-rule:nonzero}
    .fil1 {fill:white;fill-rule:nonzero}
   ]]>
  </style>
 </defs>
 <g id="Layer_x0020_1">
  <metadata id="CorelCorpID_0Corel-Layer"/>
  <g id="_2646144081360">
   <g>
    <path class="fil0" d="M161.76 49.85l-155.54 0c-3.42,0 -6.22,-2.8 -6.22,-6.23l0 -37.39c0,-3.43 2.8,-6.23 6.22,-6.23l155.54 0c3.42,0 6.22,2.8 6.22,6.23l0 37.39c0,3.43 -2.8,6.23 -6.22,6.23l0 0zm0 0l0 0 0 0z"/>
   </g>
   <g id="_2646144082416">
    <path class="fil1" d="M70.54 17.93l0 -7.64 2.64 0c0.59,0 1.04,0.04 1.36,0.11 0.44,0.1 0.81,0.29 1.12,0.55 0.4,0.34 0.7,0.77 0.9,1.3 0.2,0.53 0.3,1.14 0.3,1.82 0,0.58 -0.07,1.1 -0.2,1.54 -0.14,0.45 -0.31,0.82 -0.52,1.12 -0.22,0.29 -0.45,0.52 -0.7,0.69 -0.25,0.17 -0.55,0.3 -0.91,0.38 -0.36,0.09 -0.77,0.13 -1.23,0.13l-2.76 0zm1.02 -0.89l1.63 0c0.5,0 0.9,-0.05 1.18,-0.14 0.29,-0.1 0.52,-0.23 0.69,-0.4 0.24,-0.24 0.42,-0.56 0.56,-0.97 0.13,-0.41 0.2,-0.9 0.2,-1.47 0,-0.8 -0.14,-1.42 -0.4,-1.85 -0.26,-0.43 -0.58,-0.72 -0.95,-0.86 -0.27,-0.11 -0.71,-0.16 -1.31,-0.16l-1.6 0 0 5.85z"/>
    <path id="1" class="fil1" d="M77.78 15.16c0,-1.02 0.29,-1.78 0.86,-2.27 0.47,-0.41 1.05,-0.61 1.74,-0.61 0.76,0 1.38,0.25 1.86,0.74 0.49,0.5 0.73,1.19 0.73,2.07 0,0.71 -0.11,1.27 -0.32,1.67 -0.22,0.41 -0.53,0.73 -0.94,0.95 -0.4,0.23 -0.85,0.34 -1.33,0.34 -0.78,0 -1.4,-0.25 -1.88,-0.74 -0.48,-0.5 -0.72,-1.21 -0.72,-2.15zm0.96 0.01c0,0.7 0.16,1.23 0.47,1.58 0.31,0.36 0.7,0.53 1.17,0.53 0.46,0 0.85,-0.17 1.16,-0.53 0.31,-0.35 0.47,-0.89 0.47,-1.61 0,-0.69 -0.16,-1.21 -0.47,-1.56 -0.31,-0.35 -0.7,-0.52 -1.16,-0.52 -0.47,0 -0.86,0.17 -1.17,0.52 -0.31,0.35 -0.47,0.88 -0.47,1.59z"/>
    <path id="2" class="fil1" d="M85.06 17.93l-1.67 -5.54 0.98 0 0.89 3.2 0.31 1.19c0.01,-0.06 0.11,-0.44 0.29,-1.14l0.87 -3.25 0.96 0 0.84 3.22 0.27 1.05 0.32 -1.06 0.96 -3.21 0.91 0 -1.74 5.54 -0.97 0 -0.88 -3.31 -0.22 -0.95 -1.12 4.26 -1 0z"/>
    <path id="3" class="fil1" d="M91.77 17.93l0 -5.54 0.85 0 0 0.79c0.4,-0.6 0.99,-0.9 1.76,-0.9 0.33,0 0.64,0.06 0.92,0.18 0.28,0.12 0.49,0.27 0.62,0.47 0.14,0.19 0.24,0.42 0.3,0.69 0.03,0.17 0.05,0.48 0.05,0.91l0 3.4 -0.94 0 0 -3.36c0,-0.38 -0.04,-0.67 -0.11,-0.86 -0.07,-0.19 -0.2,-0.34 -0.39,-0.45 -0.18,-0.12 -0.4,-0.17 -0.65,-0.17 -0.4,0 -0.74,0.12 -1.03,0.38 -0.29,0.25 -0.44,0.73 -0.44,1.44l0 3.02 -0.94 0z"/>
    <polygon id="4" class="fil1" points="97.69,17.93 97.69,10.29 98.63,10.29 98.63,17.93 "/>
    <path id="5" class="fil1" d="M99.73 15.16c0,-1.02 0.28,-1.78 0.85,-2.27 0.48,-0.41 1.06,-0.61 1.75,-0.61 0.75,0 1.38,0.25 1.86,0.74 0.48,0.5 0.72,1.19 0.72,2.07 0,0.71 -0.1,1.27 -0.32,1.67 -0.21,0.41 -0.52,0.73 -0.93,0.95 -0.41,0.23 -0.85,0.34 -1.33,0.34 -0.78,0 -1.41,-0.25 -1.88,-0.74 -0.48,-0.5 -0.72,-1.21 -0.72,-2.15zm0.96 0.01c0,0.7 0.15,1.23 0.46,1.58 0.31,0.36 0.7,0.53 1.18,0.53 0.46,0 0.85,-0.17 1.16,-0.53 0.31,-0.35 0.46,-0.89 0.46,-1.61 0,-0.69 -0.15,-1.21 -0.46,-1.56 -0.31,-0.35 -0.7,-0.52 -1.16,-0.52 -0.48,0 -0.87,0.17 -1.18,0.52 -0.31,0.35 -0.46,0.88 -0.46,1.59z"/>
    <path id="6" class="fil1" d="M109.63 17.24c-0.35,0.3 -0.68,0.5 -1,0.63 -0.33,0.12 -0.67,0.18 -1.04,0.18 -0.61,0 -1.08,-0.15 -1.4,-0.44 -0.33,-0.3 -0.49,-0.68 -0.49,-1.14 0,-0.27 0.06,-0.52 0.18,-0.74 0.12,-0.22 0.29,-0.4 0.49,-0.54 0.2,-0.13 0.42,-0.24 0.67,-0.31 0.19,-0.04 0.47,-0.09 0.84,-0.14 0.76,-0.09 1.32,-0.19 1.67,-0.32 0.01,-0.13 0.01,-0.21 0.01,-0.24 0,-0.38 -0.09,-0.65 -0.27,-0.81 -0.24,-0.21 -0.6,-0.31 -1.07,-0.31 -0.44,0 -0.77,0.07 -0.98,0.23 -0.21,0.15 -0.37,0.43 -0.47,0.82l-0.91 -0.13c0.08,-0.39 0.22,-0.71 0.41,-0.95 0.19,-0.24 0.47,-0.43 0.83,-0.56 0.36,-0.13 0.78,-0.19 1.26,-0.19 0.47,0 0.86,0.05 1.16,0.16 0.29,0.12 0.51,0.26 0.65,0.42 0.14,0.17 0.23,0.39 0.29,0.64 0.03,0.16 0.05,0.45 0.05,0.87l0 1.24c0,0.87 0.02,1.42 0.06,1.65 0.03,0.24 0.11,0.46 0.23,0.67l-0.99 0c-0.09,-0.19 -0.15,-0.43 -0.18,-0.69zm-0.07 -2.08c-0.34,0.14 -0.86,0.25 -1.54,0.35 -0.39,0.06 -0.66,0.12 -0.82,0.19 -0.16,0.07 -0.28,0.17 -0.37,0.3 -0.09,0.13 -0.13,0.28 -0.13,0.44 0,0.25 0.09,0.46 0.28,0.62 0.19,0.17 0.47,0.25 0.84,0.25 0.36,0 0.68,-0.07 0.96,-0.23 0.28,-0.16 0.49,-0.37 0.62,-0.65 0.1,-0.21 0.15,-0.52 0.15,-0.93l0.01 -0.34z"/>
    <path id="7" class="fil1" d="M115.53 17.93l0 -0.7c-0.36,0.55 -0.87,0.82 -1.55,0.82 -0.44,0 -0.85,-0.12 -1.22,-0.36 -0.37,-0.25 -0.65,-0.59 -0.86,-1.02 -0.2,-0.44 -0.3,-0.94 -0.3,-1.5 0,-0.55 0.09,-1.05 0.27,-1.5 0.19,-0.45 0.46,-0.8 0.83,-1.03 0.37,-0.24 0.78,-0.36 1.24,-0.36 0.33,0 0.63,0.07 0.89,0.21 0.26,0.14 0.47,0.32 0.63,0.55l0 -2.75 0.94 0 0 7.64 -0.87 0zm-2.97 -2.76c0,0.71 0.15,1.24 0.45,1.59 0.3,0.35 0.65,0.52 1.06,0.52 0.41,0 0.76,-0.17 1.05,-0.5 0.28,-0.33 0.43,-0.84 0.43,-1.53 0,-0.76 -0.15,-1.31 -0.44,-1.66 -0.29,-0.36 -0.66,-0.53 -1.08,-0.53 -0.42,0 -0.77,0.17 -1.05,0.5 -0.28,0.34 -0.42,0.88 -0.42,1.61z"/>
    <path id="8" class="fil1" d="M121.07 17.93l0 -4.81 -0.83 0 0 -0.73 0.83 0 0 -0.58c0,-0.37 0.04,-0.65 0.1,-0.83 0.09,-0.24 0.25,-0.44 0.48,-0.59 0.22,-0.15 0.54,-0.23 0.95,-0.23 0.27,0 0.56,0.04 0.88,0.1l-0.14 0.82c-0.2,-0.03 -0.38,-0.05 -0.56,-0.05 -0.28,0 -0.48,0.06 -0.6,0.18 -0.12,0.12 -0.18,0.35 -0.18,0.68l0 0.5 1.08 0 0 0.73 -1.07 0 0 4.81 -0.94 0z"/>
    <path id="9" class="fil1" d="M123.46 15.16c0,-1.02 0.29,-1.78 0.86,-2.27 0.47,-0.41 1.05,-0.61 1.74,-0.61 0.76,0 1.38,0.25 1.87,0.74 0.48,0.5 0.72,1.19 0.72,2.07 0,0.71 -0.11,1.27 -0.32,1.67 -0.21,0.41 -0.53,0.73 -0.93,0.95 -0.41,0.23 -0.86,0.34 -1.34,0.34 -0.78,0 -1.4,-0.25 -1.88,-0.74 -0.48,-0.5 -0.72,-1.21 -0.72,-2.15zm0.96 0.01c0,0.7 0.16,1.23 0.47,1.58 0.31,0.36 0.7,0.53 1.17,0.53 0.47,0 0.85,-0.17 1.16,-0.53 0.31,-0.35 0.47,-0.89 0.47,-1.61 0,-0.69 -0.16,-1.21 -0.47,-1.56 -0.31,-0.35 -0.7,-0.52 -1.16,-0.52 -0.47,0 -0.86,0.17 -1.17,0.52 -0.31,0.35 -0.47,0.88 -0.47,1.59z"/>
    <path id="10" class="fil1" d="M129.74 17.93l0 -5.54 0.84 0 0 0.85c0.22,-0.39 0.42,-0.65 0.6,-0.77 0.18,-0.13 0.38,-0.19 0.6,-0.19 0.32,0 0.64,0.1 0.97,0.29l-0.34 0.87c-0.22,-0.13 -0.45,-0.19 -0.68,-0.19 -0.2,0 -0.39,0.06 -0.55,0.18 -0.16,0.13 -0.28,0.3 -0.35,0.52 -0.1,0.33 -0.15,0.69 -0.15,1.09l0 2.89 -0.94 0z"/>
    <polygon class="fil1" points="72.06,40.18 72.06,24.87 76.71,24.87 79.45,35.31 82.16,24.87 86.82,24.87 86.82,40.18 83.95,40.18 83.94,28.13 80.92,40.18 77.94,40.18 74.94,28.13 74.93,40.18 "/>
    <path id="1" class="fil1" d="M92.07 32.5l-2.65 -0.47c0.3,-1.08 0.82,-1.88 1.55,-2.4 0.73,-0.52 1.82,-0.78 3.26,-0.78 1.3,0 2.28,0.15 2.92,0.46 0.64,0.31 1.09,0.7 1.35,1.18 0.26,0.48 0.4,1.35 0.4,2.62l-0.05 3.43c0,0.97 0.05,1.69 0.14,2.15 0.09,0.46 0.27,0.96 0.53,1.49l-2.91 0c-0.08,-0.2 -0.17,-0.48 -0.28,-0.86 -0.05,-0.17 -0.09,-0.29 -0.11,-0.34 -0.5,0.49 -1.03,0.86 -1.6,1.1 -0.57,0.25 -1.18,0.37 -1.82,0.37 -1.14,0 -2.04,-0.31 -2.69,-0.93 -0.66,-0.61 -0.99,-1.4 -0.99,-2.34 0,-0.63 0.15,-1.19 0.45,-1.68 0.3,-0.49 0.72,-0.86 1.26,-1.12 0.54,-0.26 1.32,-0.49 2.33,-0.69 1.37,-0.25 2.32,-0.5 2.85,-0.72l0 -0.29c0,-0.57 -0.14,-0.98 -0.42,-1.23 -0.28,-0.24 -0.81,-0.36 -1.58,-0.36 -0.52,0 -0.93,0.1 -1.22,0.31 -0.3,0.21 -0.53,0.58 -0.72,1.1zm3.94 2.37c-0.38,0.13 -0.97,0.28 -1.79,0.45 -0.81,0.18 -1.34,0.35 -1.59,0.51 -0.38,0.28 -0.58,0.62 -0.58,1.04 0,0.41 0.16,0.76 0.46,1.06 0.31,0.3 0.7,0.45 1.17,0.45 0.53,0 1.04,-0.17 1.52,-0.52 0.35,-0.27 0.58,-0.59 0.69,-0.97 0.08,-0.25 0.12,-0.73 0.12,-1.43l0 -0.59z"/>
    <path id="2" class="fil1" d="M111.45 32.37l-2.89 0.52c-0.09,-0.58 -0.31,-1.01 -0.66,-1.3 -0.35,-0.29 -0.79,-0.44 -1.34,-0.44 -0.73,0 -1.31,0.26 -1.75,0.76 -0.43,0.51 -0.65,1.35 -0.65,2.54 0,1.32 0.22,2.25 0.66,2.79 0.44,0.55 1.03,0.82 1.78,0.82 0.55,0 1.01,-0.16 1.36,-0.48 0.36,-0.31 0.61,-0.86 0.75,-1.64l2.89 0.5c-0.3,1.32 -0.87,2.32 -1.72,3 -0.85,0.68 -1.99,1.01 -3.42,1.01 -1.61,0 -2.91,-0.51 -3.87,-1.53 -0.97,-1.03 -1.45,-2.45 -1.45,-4.26 0,-1.83 0.49,-3.26 1.45,-4.28 0.97,-1.02 2.28,-1.53 3.93,-1.53 1.34,0 2.42,0.29 3.21,0.87 0.8,0.58 1.37,1.46 1.72,2.65z"/>
    <path id="3" class="fil1" d="M113.06 32.62c0,-1.57 0.23,-2.88 0.7,-3.94 0.34,-0.78 0.82,-1.48 1.42,-2.1 0.61,-0.62 1.26,-1.08 1.98,-1.38 0.96,-0.41 2.06,-0.61 3.3,-0.61 2.26,0 4.07,0.7 5.42,2.1 1.36,1.41 2.04,3.36 2.04,5.85 0,2.48 -0.68,4.42 -2.02,5.82 -1.34,1.4 -3.14,2.09 -5.39,2.09 -2.28,0 -4.09,-0.69 -5.44,-2.08 -1.34,-1.39 -2.01,-3.31 -2.01,-5.75zm3.18 -0.11c0,1.74 0.4,3.05 1.21,3.95 0.8,0.89 1.82,1.34 3.05,1.34 1.24,0 2.25,-0.44 3.04,-1.33 0.79,-0.89 1.19,-2.22 1.19,-4 0,-1.76 -0.39,-3.07 -1.16,-3.93 -0.77,-0.87 -1.79,-1.3 -3.07,-1.3 -1.28,0 -2.31,0.44 -3.09,1.31 -0.78,0.88 -1.17,2.2 -1.17,3.96z"/>
    <path id="4" class="fil1" d="M129.52 35.22l3.01 -0.3c0.18,1.01 0.55,1.74 1.1,2.22 0.55,0.47 1.29,0.71 2.23,0.71 0.99,0 1.74,-0.21 2.24,-0.63 0.51,-0.42 0.76,-0.92 0.76,-1.48 0,-0.36 -0.11,-0.67 -0.32,-0.93 -0.21,-0.25 -0.58,-0.47 -1.11,-0.66 -0.36,-0.12 -1.18,-0.34 -2.46,-0.67 -1.65,-0.41 -2.81,-0.91 -3.47,-1.52 -0.94,-0.84 -1.41,-1.87 -1.41,-3.09 0,-0.78 0.22,-1.51 0.66,-2.19 0.44,-0.68 1.08,-1.2 1.91,-1.55 0.83,-0.36 1.83,-0.54 3,-0.54 1.92,0 3.36,0.42 4.32,1.28 0.97,0.85 1.48,1.98 1.53,3.4l-3.1 0.11c-0.13,-0.79 -0.41,-1.36 -0.85,-1.7 -0.43,-0.35 -1.07,-0.52 -1.94,-0.52 -0.89,0 -1.59,0.18 -2.09,0.55 -0.32,0.24 -0.49,0.56 -0.49,0.96 0,0.36 0.16,0.67 0.46,0.93 0.39,0.33 1.34,0.67 2.84,1.03 1.5,0.35 2.6,0.72 3.32,1.1 0.72,0.38 1.28,0.9 1.69,1.56 0.41,0.65 0.61,1.47 0.61,2.43 0,0.88 -0.24,1.7 -0.73,2.47 -0.49,0.76 -1.18,1.33 -2.07,1.71 -0.89,0.37 -2,0.55 -3.33,0.55 -1.94,0 -3.42,-0.44 -4.46,-1.33 -1.04,-0.9 -1.65,-2.2 -1.85,-3.9z"/>
    <g>
     <path class="fil1" d="M45.39 13.03c-1.24,1.47 -3.23,2.63 -5.22,2.47 -0.25,-1.99 0.73,-4.1 1.86,-5.41 1.25,-1.51 3.42,-2.59 5.18,-2.67 0.21,2.07 -0.6,4.1 -1.82,5.61l0 0zm1.8 2.86c-2.88,-0.17 -5.34,1.63 -6.71,1.63 -1.39,0 -3.48,-1.55 -5.75,-1.51 -2.96,0.04 -5.72,1.72 -7.23,4.39 -3.1,5.34 -0.81,13.25 2.2,17.6 1.47,2.15 3.22,4.51 5.54,4.43 2.2,-0.08 3.07,-1.43 5.72,-1.43 2.67,0 3.43,1.43 5.75,1.39 2.4,-0.04 3.92,-2.15 5.39,-4.31 1.67,-2.44 2.36,-4.82 2.4,-4.95 -0.04,-0.04 -4.64,-1.8 -4.68,-7.1 -0.04,-4.43 3.62,-6.54 3.79,-6.66 -2.07,-3.07 -5.3,-3.4 -6.42,-3.48l0 0zm0.54 6.26l0 0z"/>
    </g>
   </g>
  </g>
 </g>
</svg>
