<svg width="48" height="48" viewBox="0 0 48 48" fill="none" xmlns="http://www.w3.org/2000/svg">
<circle cx="24" cy="24" r="24" fill="#F5F5F5"/>
<path fill-rule="evenodd" clip-rule="evenodd" d="M17.428 16.4579C19.4658 14.4201 21.1757 13.3337 23.9998 13.3337C29.8908 13.3337 34.6665 18.1093 34.6665 24.0003H37.3331C37.3331 16.6365 31.3636 10.667 23.9998 10.667C20.1965 10.667 17.8478 12.2668 15.5424 14.5722L13.1045 17.0102L10.6665 14.5722V21.3337H17.4279L14.9901 18.8958L17.428 16.4579Z" fill="#76808F"/>
<path fill-rule="evenodd" clip-rule="evenodd" d="M30.5716 31.5428C28.5339 33.5805 26.824 34.667 23.9999 34.667C18.1088 34.667 13.3332 29.8914 13.3332 24.0003H10.6665C10.6665 31.3641 16.6361 37.3337 23.9999 37.3337C27.8032 37.3337 30.1519 35.7338 32.4573 33.4284L34.9426 30.9431L37.3332 33.3337V26.667H30.6665L33.057 29.0575L30.5716 31.5428Z" fill="#76808F"/>
<path fill-rule="evenodd" clip-rule="evenodd" d="M23.9998 29.333C26.9454 29.333 29.3332 26.9452 29.3332 23.9997C29.3332 21.0542 26.9454 18.6663 23.9998 18.6663C21.0543 18.6663 18.6665 21.0542 18.6665 23.9997C18.6665 26.9452 21.0543 29.333 23.9998 29.333ZM23.9998 26.133L21.8665 23.9997L23.9998 21.8663L26.1332 23.9997L23.9998 26.133Z" fill="url(#paint0_linear_1312_56748)"/>
<defs>
<linearGradient id="paint0_linear_1312_56748" x1="23.9998" y1="29.333" x2="23.9998" y2="18.6663" gradientUnits="userSpaceOnUse">
<stop stop-color="#F0B90B"/>
<stop offset="1" stop-color="#F8D33A"/>
</linearGradient>
</defs>
</svg>
