<svg width="48" height="48" viewBox="0 0 48 48" fill="none" xmlns="http://www.w3.org/2000/svg">
<circle cx="24" cy="24" r="24" fill="#F5F5F5"/>
<circle cx="23.9998" cy="24.0003" r="13.3333" fill="url(#paint0_linear_1312_56753)"/>
<path d="M24 28.7157V33.3597L29.7156 25.334L24 28.7157Z" fill="#76808F"/>
<g style="mix-blend-mode:soft-light" opacity="0.6">
<path d="M24 28.7157V33.3597L29.7156 25.334L24 28.7157Z" fill="url(#paint1_linear_1312_56753)"/>
</g>
<path d="M24 21.5488V27.5264L29.7156 24.1447L24 21.5488Z" fill="#76808F"/>
<g style="mix-blend-mode:soft-light" opacity="0.6">
<path d="M24 21.5488V27.5264L29.7156 24.1447L24 21.5488Z" fill="url(#paint2_linear_1312_56753)"/>
</g>
<path d="M24 14.667V21.5495L29.7156 24.1454L24 14.667Z" fill="#76808F"/>
<path d="M23.9993 28.7157V33.3597L18.2837 25.334L23.9993 28.7157Z" fill="#76808F"/>
<path d="M23.9993 21.5488V27.5264L18.2837 24.1447L23.9993 21.5488Z" fill="#76808F"/>
<g style="mix-blend-mode:soft-light" opacity="0.2">
<path d="M23.9993 21.5488V27.5264L18.2837 24.1447L23.9993 21.5488Z" fill="url(#paint3_linear_1312_56753)"/>
</g>
<path d="M23.9993 14.667V21.5495L18.2837 24.1454L23.9993 14.667Z" fill="#76808F"/>
<g style="mix-blend-mode:soft-light" opacity="0.5">
<path d="M24.0002 14.667V21.5495L29.7158 24.1454L24.0002 14.667Z" fill="url(#paint4_linear_1312_56753)"/>
</g>
<defs>
<linearGradient id="paint0_linear_1312_56753" x1="23.9998" y1="10.667" x2="23.9998" y2="37.3337" gradientUnits="userSpaceOnUse">
<stop stop-color="#F8D33A"/>
<stop offset="1" stop-color="#F0B90B"/>
</linearGradient>
<linearGradient id="paint1_linear_1312_56753" x1="26.8578" y1="25.334" x2="26.8578" y2="33.3597" gradientUnits="userSpaceOnUse">
<stop/>
<stop offset="1" stop-opacity="0"/>
</linearGradient>
<linearGradient id="paint2_linear_1312_56753" x1="26.8578" y1="21.5488" x2="26.8578" y2="27.5264" gradientUnits="userSpaceOnUse">
<stop/>
<stop offset="1" stop-opacity="0"/>
</linearGradient>
<linearGradient id="paint3_linear_1312_56753" x1="21.1415" y1="21.5488" x2="21.1415" y2="27.5264" gradientUnits="userSpaceOnUse">
<stop/>
<stop offset="1" stop-opacity="0"/>
</linearGradient>
<linearGradient id="paint4_linear_1312_56753" x1="26.858" y1="14.667" x2="26.858" y2="24.1454" gradientUnits="userSpaceOnUse">
<stop/>
<stop offset="1" stop-opacity="0"/>
</linearGradient>
</defs>
</svg>
