<svg width="69" height="67" viewBox="0 0 69 67" fill="none" xmlns="http://www.w3.org/2000/svg">
<path fill-rule="evenodd" clip-rule="evenodd" d="M11.3345 61.1094L11.3334 47.1098L15.9999 42.4433L16.0009 15.4438C16.001 12.6825 18.2395 10.444 21.0009 10.444L53.3333 10.444L53.3333 56.4429C53.3333 59.0201 51.244 61.1094 48.6667 61.1094L11.3345 61.1094Z" fill="url(#paint0_linear_4474_65309)"/>
<path d="M6.6666 38.4434L6.6666 56.1087C6.6666 58.87 8.75587 61.1085 11.3331 61.1085C13.9104 61.1085 15.9996 58.87 15.9996 56.1087L15.9996 38.4434L6.6666 38.4434Z" fill="#76808F"/>
<g filter="url(#filter0_d_4474_65309)">
<path d="M25.3333 15.4431L25.3336 17.11L58.6666 17.11L58.6666 15.4432C58.6666 12.6819 56.5774 10.4434 54.0001 10.4434L20.667 10.4434C23.2441 10.4435 25.3333 12.6819 25.3333 15.4431Z" fill="#474D57"/>
</g>
<g filter="url(#filter1_d_4474_65309)">
<path d="M46 23.1094H36.6666L40.3906 26.8333L22.7821 44.4427L24.6678 46.3283L42.2762 28.7189L46 32.4427V23.1094Z" fill="#474D57"/>
<path d="M22.6666 51.1094V53.776H46.6666V51.1094H22.6666Z" fill="#474D57"/>
</g>
<g filter="url(#filter2_d_4474_65309)">
<path d="M25.3334 25.7773L22.6667 25.7773L22.6667 23.1107L25.3334 23.1107L25.3334 25.7773Z" fill="#474D57"/>
</g>
<g filter="url(#filter3_d_4474_65309)">
<path d="M25.3334 31.1094L22.6667 31.1094L22.6667 28.4427L25.3334 28.4427L25.3334 31.1094Z" fill="#474D57"/>
</g>
<g filter="url(#filter4_d_4474_65309)">
<path d="M25.3334 36.4434L22.6667 36.4434L22.6667 33.7767L25.3334 33.7767L25.3334 36.4434Z" fill="#474D57"/>
</g>
<defs>
<filter id="filter0_d_4474_65309" x="10.667" y="0.443359" width="57.9996" height="26.666" filterUnits="userSpaceOnUse" color-interpolation-filters="sRGB">
<feFlood flood-opacity="0" result="BackgroundImageFix"/>
<feColorMatrix in="SourceAlpha" type="matrix" values="0 0 0 0 0 0 0 0 0 0 0 0 0 0 0 0 0 0 127 0" result="hardAlpha"/>
<feOffset/>
<feGaussianBlur stdDeviation="5"/>
<feColorMatrix type="matrix" values="0 0 0 0 0 0 0 0 0 0 0 0 0 0 0 0 0 0 0.05 0"/>
<feBlend mode="normal" in2="BackgroundImageFix" result="effect1_dropShadow_4474_65309"/>
<feBlend mode="normal" in="SourceGraphic" in2="effect1_dropShadow_4474_65309" result="shape"/>
</filter>
<filter id="filter1_d_4474_65309" x="12.6666" y="13.1094" width="44" height="50.666" filterUnits="userSpaceOnUse" color-interpolation-filters="sRGB">
<feFlood flood-opacity="0" result="BackgroundImageFix"/>
<feColorMatrix in="SourceAlpha" type="matrix" values="0 0 0 0 0 0 0 0 0 0 0 0 0 0 0 0 0 0 127 0" result="hardAlpha"/>
<feOffset/>
<feGaussianBlur stdDeviation="5"/>
<feColorMatrix type="matrix" values="0 0 0 0 0 0 0 0 0 0 0 0 0 0 0 0 0 0 0.05 0"/>
<feBlend mode="normal" in2="BackgroundImageFix" result="effect1_dropShadow_4474_65309"/>
<feBlend mode="normal" in="SourceGraphic" in2="effect1_dropShadow_4474_65309" result="shape"/>
</filter>
<filter id="filter2_d_4474_65309" x="12.6667" y="13.1113" width="22.6666" height="22.666" filterUnits="userSpaceOnUse" color-interpolation-filters="sRGB">
<feFlood flood-opacity="0" result="BackgroundImageFix"/>
<feColorMatrix in="SourceAlpha" type="matrix" values="0 0 0 0 0 0 0 0 0 0 0 0 0 0 0 0 0 0 127 0" result="hardAlpha"/>
<feOffset/>
<feGaussianBlur stdDeviation="5"/>
<feColorMatrix type="matrix" values="0 0 0 0 0 0 0 0 0 0 0 0 0 0 0 0 0 0 0.05 0"/>
<feBlend mode="normal" in2="BackgroundImageFix" result="effect1_dropShadow_4474_65309"/>
<feBlend mode="normal" in="SourceGraphic" in2="effect1_dropShadow_4474_65309" result="shape"/>
</filter>
<filter id="filter3_d_4474_65309" x="12.6667" y="18.4434" width="22.6666" height="22.666" filterUnits="userSpaceOnUse" color-interpolation-filters="sRGB">
<feFlood flood-opacity="0" result="BackgroundImageFix"/>
<feColorMatrix in="SourceAlpha" type="matrix" values="0 0 0 0 0 0 0 0 0 0 0 0 0 0 0 0 0 0 127 0" result="hardAlpha"/>
<feOffset/>
<feGaussianBlur stdDeviation="5"/>
<feColorMatrix type="matrix" values="0 0 0 0 0 0 0 0 0 0 0 0 0 0 0 0 0 0 0.05 0"/>
<feBlend mode="normal" in2="BackgroundImageFix" result="effect1_dropShadow_4474_65309"/>
<feBlend mode="normal" in="SourceGraphic" in2="effect1_dropShadow_4474_65309" result="shape"/>
</filter>
<filter id="filter4_d_4474_65309" x="12.6667" y="23.7773" width="22.6666" height="22.666" filterUnits="userSpaceOnUse" color-interpolation-filters="sRGB">
<feFlood flood-opacity="0" result="BackgroundImageFix"/>
<feColorMatrix in="SourceAlpha" type="matrix" values="0 0 0 0 0 0 0 0 0 0 0 0 0 0 0 0 0 0 127 0" result="hardAlpha"/>
<feOffset/>
<feGaussianBlur stdDeviation="5"/>
<feColorMatrix type="matrix" values="0 0 0 0 0 0 0 0 0 0 0 0 0 0 0 0 0 0 0.05 0"/>
<feBlend mode="normal" in2="BackgroundImageFix" result="effect1_dropShadow_4474_65309"/>
<feBlend mode="normal" in="SourceGraphic" in2="effect1_dropShadow_4474_65309" result="shape"/>
</filter>
<linearGradient id="paint0_linear_4474_65309" x1="11.3334" y1="35.7767" x2="53.3333" y2="35.7767" gradientUnits="userSpaceOnUse">
<stop stop-color="#929AA5"/>
<stop offset="1" stop-color="#76808F"/>
</linearGradient>
</defs>
</svg>
