<?xml version="1.0" encoding="UTF-8"?>
<!DOCTYPE svg PUBLIC "-//W3C//DTD SVG 1.1//EN" "http://www.w3.org/Graphics/SVG/1.1/DTD/svg11.dtd">
<!-- Creator: CorelDRAW 2020 (64-Bit Evaluation Version) -->
<svg xmlns="http://www.w3.org/2000/svg" xml:space="preserve" width="100px" height="100px" version="1.1" style="shape-rendering:geometricPrecision; text-rendering:geometricPrecision; image-rendering:optimizeQuality; fill-rule:evenodd; clip-rule:evenodd"
viewBox="0 0 10.65 10.65"
 xmlns:xlink="http://www.w3.org/1999/xlink"
 xmlns:xodm="http://www.corel.com/coreldraw/odm/2003">
 <defs>
  <style type="text/css">
   <![CDATA[
    .fil0 {fill:#EFB30C}
    .fil1 {fill:#263674;fill-rule:nonzero}
   ]]>
  </style>
 </defs>
 <g id="Layer_x0020_1">
  <metadata id="CorelCorpID_0Corel-Layer"/>
  <g id="_2645068431008">
   <path class="fil0" d="M5.33 0c2.94,0 5.32,2.38 5.32,5.33 0,2.94 -2.38,5.32 -5.32,5.32 -2.95,0 -5.33,-2.38 -5.33,-5.32 0,-2.95 2.38,-5.33 5.33,-5.33zm0 0.74c2.53,0 4.58,2.05 4.58,4.59 0,2.53 -2.05,4.58 -4.58,4.58 -2.54,0 -4.59,-2.05 -4.59,-4.58 0,-2.54 2.05,-4.59 4.59,-4.59z"/>
   <path class="fil1" d="M5.31 7.09c-0.12,0 -0.23,-0.05 -0.31,-0.13 -0.08,-0.09 -0.12,-0.2 -0.12,-0.32l0 -4.13c0,-0.12 0.04,-0.23 0.12,-0.32 0.09,-0.08 0.19,-0.13 0.31,-0.13 0.13,0 0.23,0.05 0.32,0.13 0.08,0.09 0.12,0.2 0.12,0.32l0 4.13c0,0.12 -0.04,0.23 -0.13,0.32 -0.08,0.08 -0.19,0.13 -0.31,0.13zm0.02 1.5c-0.14,0 -0.26,-0.05 -0.35,-0.14 -0.09,-0.09 -0.14,-0.21 -0.14,-0.35 0,-0.06 0.01,-0.12 0.04,-0.18 0.02,-0.06 0.06,-0.11 0.11,-0.16 0.09,-0.09 0.2,-0.14 0.34,-0.14 0.06,0 0.12,0.02 0.18,0.04 0.06,0.03 0.11,0.06 0.16,0.1 0.04,0.05 0.08,0.1 0.1,0.16 0.03,0.06 0.04,0.12 0.04,0.18 0,0.13 -0.05,0.25 -0.14,0.35 -0.05,0.04 -0.1,0.08 -0.16,0.1 -0.06,0.03 -0.12,0.04 -0.18,0.04z"/>
  </g>
 </g>
</svg>
