<?xml version="1.0" encoding="UTF-8"?>
<!DOCTYPE svg PUBLIC "-//W3C//DTD SVG 1.1//EN" "http://www.w3.org/Graphics/SVG/1.1/DTD/svg11.dtd">
<!-- Creator: CorelDRAW 2020 (64-Bit Evaluation Version) -->
<svg xmlns="http://www.w3.org/2000/svg" xml:space="preserve" width="150px" height="150px" version="1.1" style="shape-rendering:geometricPrecision; text-rendering:geometricPrecision; image-rendering:optimizeQuality; fill-rule:evenodd; clip-rule:evenodd"
viewBox="0 0 55.6 55.6"
 xmlns:xlink="http://www.w3.org/1999/xlink"
 xmlns:xodm="http://www.corel.com/coreldraw/odm/2003">
 <defs>
  <style type="text/css">
   <![CDATA[
    .str0 {stroke:black;stroke-width:0.93;stroke-miterlimit:2.61313}
    .fil4 {fill:none;fill-rule:nonzero}
    .fil5 {fill:#333333}
    .fil6 {fill:#EBAB7F}
    .fil3 {fill:#EBAE07}
    .fil0 {fill:black;fill-rule:nonzero}
    .fil7 {fill:#263674;fill-rule:nonzero}
    .fil8 {fill:#B3B3B3;fill-rule:nonzero}
    .fil9 {fill:#CCCCCC;fill-rule:nonzero}
    .fil10 {fill:#E6E8EA;fill-rule:nonzero}
    .fil2 {fill:#EBAB7F;fill-rule:nonzero}
    .fil1 {fill:#FEC00F;fill-rule:nonzero}
   ]]>
  </style>
 </defs>
 <g id="Layer_x0020_1">
  <metadata id="CorelCorpID_0Corel-Layer"/>
  <polygon class="fil0" points="5.34,13.11 10.93,13.11 10.93,31.99 5.34,31.99 "/>
  <path class="fil1" d="M13.79 13.11l-5.09 -0.01 0 16.03 14.66 0 0 -11.55c0,-2.35 -1.81,-4.28 -4.11,-4.46l-2.72 2.72 -2.74 -2.73 0 0z"/>
  <path class="fil2" d="M21.81 36.65l3.48 -3.48 9.38 9.38 -3.48 3.48 -9.38 -9.38 0 0zm9.38 9.38l0 0 0 0 0 0z"/>
  <polygon class="fil0" points="37.65,52.5 44.67,45.47 37.59,45.47 35.78,43.67 32.3,47.15 37.65,52.49 "/>
  <path class="fil2" d="M9.69 27.02l-4.34 0c-1.1,0 -2.03,-0.44 -2.7,-1.11 -0.36,-0.37 -0.65,-0.8 -0.84,-1.27 -0.2,-0.47 -0.3,-0.97 -0.3,-1.48 0,-0.95 0.34,-1.91 1.12,-2.69l3.58 -3.57 2.62 2.6 -3.57 3.58c-0.03,0.03 -0.05,0.06 -0.05,0.08 0,0.04 0.01,0.06 0.01,0.08 0.01,0.02 0.02,0.03 0.04,0.05 0.01,0.01 0.04,0.02 0.09,0.02l4.34 0 0 3.71z"/>
  <polygon class="fil3" points="8.7,13.11 3.35,18.45 7.09,22 8.95,20.12 "/>
  <circle class="fil2" transform="matrix(-4.54979 -4.55233 4.54979 -4.55233 16.3601 6.3622)" r="0.72"/>
  <path class="fil0" d="M19.62 3.1c-1.82,-1.82 -4.75,-1.83 -6.55,-0.03 -1.8,1.8 -1.78,4.73 0.04,6.55l6.51 -6.52 0 0z"/>
  <line class="fil4 str0" x1="13.07" y1="9.58" x2="21.45" y2= "1.19" />
  <path class="fil5" d="M10.42 17.03l0 -3.92 2.38 0 0 4.06c0,1.29 -0.58,2.48 -1.49,3.39l-2.61 2.23 0 -2.43 0.25 -0.79 1.47 -2.54z"/>
  <polygon class="fil6" points="15.49,36.84 15.49,41.65 9.76,48.71 6.57,45.52 5.56,46.53 8.86,49.83 7.02,52.1 3.51,48.58 10.52,41.56 10.52,36.84 15.49,36.84 "/>
  <polygon class="fil7" points="15.47,33.64 16.49,33.64 20.89,38.05 25.6,33.36 22.86,30.63 22.86,29.13 8.7,29.13 8.7,38.32 15.47,38.32 "/>
  <polygon class="fil8" points="34.29,30.77 29.45,33.48 29.45,19.55 34.29,16.83 34.29,30.77 "/>
  <polygon class="fil9" points="24.6,30.77 29.45,33.48 29.45,19.55 24.6,16.83 24.6,30.77 "/>
  <polygon class="fil8" points="24.6,30.76 19.76,33.48 19.76,19.55 24.6,16.83 "/>
  <polygon class="fil9" points="14.91,30.76 19.76,33.48 19.76,19.55 14.91,16.83 "/>
  <polygon class="fil0" points="0,52.08 5.55,46.53 9.07,50.05 7.02,52.1 10.48,55.56 3.48,55.56 0,52.08 "/>
  <polygon class="fil10" points="30.81,55.1 44.73,55.1 44.73,55.6 30.81,55.6 "/>
  <circle class="fil6" cx="13.74" cy="25.22" r="2.27"/>
  <circle class="fil6" cx="34.88" cy="25.22" r="2.27"/>
  <path class="fil7" d="M24.55 5.22c0,-1.44 0.58,-2.75 1.53,-3.69 0.94,-0.95 2.25,-1.53 3.69,-1.53 1.44,0 2.74,0.58 3.68,1.53 0.95,0.94 1.53,2.25 1.53,3.69 0,1.27 -0.81,2.32 -1.62,3.37 -0.55,0.71 -1.1,1.42 -1.1,1.86l-0.01 2.58 -2.37 0 0.01 -2.58c0,-1.25 0.8,-2.28 1.59,-3.31 0.56,-0.73 1.12,-1.45 1.12,-1.92 0,-0.79 -0.32,-1.49 -0.83,-2.01 -0.51,-0.51 -1.22,-0.83 -2,-0.83 -0.79,0 -1.49,0.32 -2.01,0.83 -0.51,0.52 -0.83,1.22 -0.83,2.01l-2.38 0z"/>
  <polygon class="fil7" points="32.31,14.13 32.31,15.76 29.93,15.76 29.93,14.13 "/>
  <path class="fil7" d="M41.93 3.29c1.16,-1.71 2.9,-2.79 4.78,-3.15 1.87,-0.37 3.89,-0.01 5.6,1.14 1.7,1.15 2.79,2.89 3.15,4.77 0.36,1.88 0.01,3.89 -1.14,5.6 -0.98,1.46 -2.84,2.08 -4.69,2.69 -1.45,0.48 -2.88,0.96 -3.4,1.71l-2.25 3.33 -1.97 -1.34 2.26 -3.32c0.97,-1.42 2.78,-2.03 4.61,-2.63 1.46,-0.49 2.93,-0.98 3.46,-1.77 0.79,-1.17 1.03,-2.54 0.78,-3.82 -0.25,-1.28 -0.98,-2.46 -2.15,-3.25 -1.16,-0.78 -2.54,-1.02 -3.82,-0.77 -1.27,0.24 -2.45,0.98 -3.24,2.15l-1.98 -1.34z"/>
  <polygon class="fil7" points="43.09,20.85 41.66,22.96 39.69,21.63 41.11,19.51 "/>
 </g>
</svg>
