<?xml version="1.0" encoding="utf-8"?>
<!-- Generator: Adobe Illustrator 24.2.1, SVG Export Plug-In . SVG Version: 6.00 Build 0)  -->
<svg version="1.1" id="Layer_1" xmlns:xodm="http://www.corel.com/coreldraw/odm/2003"
	 xmlns="http://www.w3.org/2000/svg" xmlns:xlink="http://www.w3.org/1999/xlink" x="0px" y="0px" viewBox="0 0 50 41"
	 style="enable-background:new 0 0 50 41;" xml:space="preserve">
<style type="text/css">
	.st0{fill:#263674;}
	.st1{fill-rule:evenodd;clip-rule:evenodd;fill:#EFB30C;}
	.st2{fill:#FEFEFE;}
	.st3{fill:#FFFFFF;}
</style>
<path class="st0" d="M35.2,41H13.7c-0.9,0-1.6-0.7-1.6-1.6V18c0-0.9,0.7-1.6,1.6-1.6h21.5c0.9,0,1.6,0.7,1.6,1.6v21.5
	C36.7,40.3,36,41,35.2,41z"/>
<path class="st0" d="M15.4,9.3v4.3v3.1h3.3c0,0,0-7.4,0.1-7.4c0-2.6-1.2-5-2.8-6.6c-1.7-1.9-4-2.8-6.6-2.8c-2.6,0-5,0.9-6.6,2.8
	C0.9,4.4,0,6.7,0,9.3v7.5h3.3v-3.3V9.3c0-1.7,0.6-3.3,1.5-4.5C6,3.9,7.7,3.2,9.3,3.2c1.6,0,3,0.7,4.2,1.6C14.7,6,15.4,7.7,15.4,9.3z
	"/>
<g>
	<path class="st1" d="M21.7,33.3l14.1-0.5c0.2,0,0.5,0.2,0.5,0.5c1.2,3,3.3,4.9,6.3,4.9c2.1,0,4-0.9,5.4-2.3s1.9-3.5,1.9-5.4
		c-0.5-3.7-3.5-6.8-7.3-6.8c-2.8,0-5.2,1.6-6.3,4.2c0,0-0.2,0.2-0.5,0.2h-1.6l-1.6,1.6c-0.2,0-0.5,0-0.7,0L31,28.5l-1.2,1.2h-0.5
		l-1.2-1.2l-1.4,1.4c-0.1,0.1-0.4,0.1-0.5,0l-1.4-1.4l-0.7,0.7c-0.2,0.2-0.5,0.2-0.7,0l-0.9-0.9c-0.2-0.2-0.2-0.2-0.5-0.2l-2.8,2.6
		C19.1,30.8,21.7,33.3,21.7,33.3z"/>
	<path class="st2" d="M42.6,38.7c-3.1,0-5.5-1.8-6.8-5.2v-0.2l-14.3,0.4l-3.1-3.1l3.3-3.1h0.2c0.4,0,0.5,0.1,0.8,0.4l0.9,0.9
		l1.1-1.1l1.6,1.6l1.6-1.6l1.4,1.4l1.4-1.4l1.1,1.4h0.3l1.6-1.6h1.8c0,0,0,0,0.1,0c1.3-2.8,3.8-4.4,6.7-4.4c3.9,0,7.2,3.1,7.8,7.2
		c0,1.5-0.3,4-2,5.8C46.7,37.8,44.7,38.7,42.6,38.7z M36.7,33.1c0.8,2.1,2.5,4.5,5.8,4.5c1.8,0,3.6-0.8,5-2.2c1.5-1.5,1.7-3.8,1.7-5
		c-0.4-3.6-3.4-6.3-6.8-6.3c-2.6,0-4.8,1.5-5.9,3.9l-0.1,0.1c-0.1,0.1-0.4,0.4-0.8,0.4h-1.4l-1.6,1.6h-1.1l-0.7-0.9l-0.9,0.9H29
		l-1-1l-1.1,1.1c-0.1,0.2-0.4,0.3-0.6,0.3c-0.3,0-0.5-0.1-0.6-0.3l-1-1l-0.4,0.4c-0.4,0.4-1,0.4-1.4,0L22,28.7l0,0l-2.2,2l2.1,2.1
		l13.8-0.5l0,0C36.2,32.3,36.7,32.8,36.7,33.1z M26.3,29.6C26.3,29.6,26.2,29.6,26.3,29.6L26.3,29.6z M26.5,29.6L26.5,29.6
		L26.5,29.6z"/>
</g>
<circle class="st3" cx="45.7" cy="30.9" r="1.3"/>
</svg>
