<?xml version="1.0" encoding="UTF-8"?>
<!DOCTYPE svg PUBLIC "-//W3C//DTD SVG 1.1//EN" "http://www.w3.org/Graphics/SVG/1.1/DTD/svg11.dtd">
<!-- Creator: CorelDRAW 2020 (64-Bit) -->
<svg xmlns="http://www.w3.org/2000/svg" xml:space="preserve" width="1000px" height="121px" version="1.1" style="shape-rendering:geometricPrecision; text-rendering:geometricPrecision; image-rendering:optimizeQuality; fill-rule:evenodd; clip-rule:evenodd"
viewBox="0 0 532.4 64.52"
 xmlns:xlink="http://www.w3.org/1999/xlink"
 xmlns:xodm="http://www.corel.com/coreldraw/odm/2003">
 <defs>
  <style type="text/css">
   <![CDATA[
    .fil0 {fill:#287AFF}
    .fil1 {fill:#F0B90B}
   ]]>
  </style>
 </defs>
 <g id="Layer_x0020_1">
  <metadata id="CorelCorpID_0Corel-Layer"/>
  <path class="fil0" d="M122.5 0.28l29.16 0 0 9.05 -20.75 0 0 12.12 20.05 0 0 9.08 -20.05 0 0 12.4 21.42 0 0 9.05 -31.24 0 0 -51.7 1.41 0zm195.9 0l8.42 0 0 51.77 -9.83 0 0 -21.31 -24.7 0 0 21.31 -9.82 0 0 -51.77 9.82 0 0 21.17 24.7 0 0 -21.17 1.41 0zm-83.61 -0.07l42.3 0 0 9.05 -17.07 0 0 42.79 -9.85 0 0 -42.79 -16.79 0 0 -9.05 1.41 0zm-25.39 0.07l8.41 0 0 42.58 22.05 0 0 9.19 -31.87 0 0 -51.77 1.41 0zm-33.82 -0.28l5.85 0c7.71,17.35 15.44,34.7 23.16,52.05l-10.25 0 -6.52 -14.51 -18.99 0 -6.16 14.51 -10.24 0c7.41,-17.35 14.81,-34.7 22.23,-52.05l0.92 0zm8.11 28.49l-5.68 -12.77 -5.27 12.77 10.95 0z"/>
  <path class="fil1" d="M376.75 0.28l7.92 0 0 51.77 -9.86 0 0 -35.48 -12.99 16.31 -2.64 0 -13.13 -16.34 0 35.51 -9.82 0 0 -51.77 8.66 0 15.63 19.29 15.56 -19.29 0.67 0zm140.69 0l11.95 0 -22.47 24.55 25.48 24.81 -0.98 2.41 -9.6 0 -0.98 -0.4 -22.6 -21.87 0 22.27 -9.82 0 0 -51.77 9.82 0 0 20.2 18.59 -20.2 0.61 0zm-73.8 50.37l0 -50.37 13.67 0c2.61,0 4.97,0.33 7.08,0.99 2.14,0.67 4.02,1.68 5.62,3.02 1.62,1.37 2.83,2.98 3.65,4.84 0.81,1.85 1.21,3.91 1.21,6.19 0,1.55 -0.2,3 -0.59,4.38 -0.4,1.38 -1,2.65 -1.79,3.81 -1.17,1.7 -2.71,3.08 -4.6,4.15l0.57 0.51c0.81,0.74 1.61,1.58 2.4,2.51 0.78,0.93 1.71,2.19 2.78,3.77 1.09,1.59 2.3,3.49 3.65,5.69 0.86,1.4 1.62,2.6 2.28,3.61 0.68,1.04 1.27,1.9 1.76,2.56l4.24 5.74 -11.87 0c-1.46,-2.19 -2.81,-4.21 -4.32,-6.34l-2.22 -3.65 -0.01 0 -2.35 -3.82c-0.66,-0.92 -1.32,-1.77 -1.96,-2.55 -0.65,-0.77 -1.25,-1.44 -1.81,-1.99 -0.57,-0.57 -1.1,-1.05 -1.59,-1.44 -0.47,-0.36 -0.91,-0.66 -1.35,-0.9 -0.35,-0.19 -0.85,-0.34 -1.5,-0.44 -0.72,-0.12 -1.63,-0.18 -2.72,-0.18l-0.41 0 0 21.31 -9.82 0 0 -1.4zm10.51 -41.6l-0.69 0 0 12.64 1.25 0c1.73,0 3.17,-0.07 4.32,-0.21 1.08,-0.14 1.88,-0.32 2.4,-0.57 0.53,-0.24 1,-0.54 1.42,-0.91 0.41,-0.37 0.76,-0.8 1.05,-1.28 0.3,-0.5 0.53,-1.03 0.68,-1.61 0.15,-0.57 0.22,-1.19 0.22,-1.86 0,-0.65 -0.08,-1.25 -0.24,-1.81 -0.16,-0.56 -0.42,-1.1 -0.75,-1.61 -0.32,-0.49 -0.71,-0.91 -1.15,-1.25 -0.46,-0.36 -0.99,-0.64 -1.58,-0.84 -0.64,-0.22 -1.52,-0.39 -2.65,-0.51 -1.16,-0.12 -2.58,-0.18 -4.28,-0.18zm-43.13 -9.05l5.85 0c7.71,17.35 15.44,34.7 23.15,52.05l-10.24 0 -6.52 -14.51 -18.99 0 -6.17 14.51 -10.24 0c7.41,-17.35 14.82,-34.7 22.23,-52.05l0.93 0zm8.11 28.49l-5.68 -12.77 -5.28 12.77 10.96 0z"/>
  <path class="fil0" d="M26.14 9.65c-3.32,-5.68 -9.49,-9.49 -16.54,-9.49 -0.68,0 -1.36,0.04 -2.03,0.11l17.52 30.34 19.57 33.91 9.43 -16.33 -6.69 -11.37 -2.83 4.72 -18.42 -31.9 -0.01 0.01zm5.02 -8.25c1.84,1.38 33.12,56.91 36.53,62.75 12.35,-21.05 25.57,-42.4 37.09,-63.9 -5.44,-0.65 -11.19,2.3 -14.31,4.86 -3.73,3.06 -5.39,6.25 -8.25,11.26 -1.77,3.1 -13.4,23.72 -14.4,24.68 -2.41,-2.39 -15.83,-26.78 -16.95,-29.33l10.59 0.06c-2.62,5.64 -3.71,3.51 -0.95,8.19 1.15,1.95 3.5,6.66 4.83,8.12l16.07 -27.94 -50.46 0c0.3,1.11 0.14,0.42 0.21,1.25z"/>
  <path class="fil1" d="M18.57 42.54c-3.32,5.68 -9.48,9.49 -16.54,9.49 -0.68,0 -1.36,-0.04 -2.03,-0.11l16.38 -28.37 6.59 11.4 -4.39 7.6 -0.01 -0.01z"/>
  <path class="fil1" d="M94.18 42.54c3.32,5.68 9.48,9.49 16.54,9.49 0.68,0 1.36,-0.04 2.03,-0.11l-16.38 -28.37 -6.59 11.4 4.39 7.6 0.01 -0.01z"/>
 </g>
</svg>
