<svg width="32" height="32" viewBox="0 0 32 32" fill="none" xmlns="http://www.w3.org/2000/svg">
<path d="M24.7495 2.40332V12.788H21.3088L18.2803 15.8209V12.788H8.66177V2.40332H24.7495Z" fill="#F0B90B"/>
<path d="M13.4688 15.5921C14.3917 15.5921 15.1443 16.3447 15.1443 17.2676C15.1443 18.1905 14.3917 18.9431 13.4688 18.9431C12.5459 18.9431 11.7933 18.1905 11.7933 17.2676C11.7933 16.3447 12.5459 15.5921 13.4688 15.5921ZM13.4688 14.1943C11.7709 14.1943 10.3955 15.5697 10.3955 17.2676C10.3955 18.9655 11.7709 20.3409 13.4688 20.3409C15.1667 20.3409 16.5421 18.9655 16.5421 17.2676C16.5466 15.5697 15.1667 14.1943 13.4688 14.1943Z" fill="#F0B90B"/>
<path d="M16.215 22.9804C17.3574 22.9804 18.2892 23.9122 18.2892 25.0546V26.4434H8.64827V25.0546C8.64827 23.9122 9.58011 22.9804 10.7225 22.9804H16.215ZM16.215 21.5781H10.7225C8.80507 21.5781 7.24603 23.1372 7.24603 25.0501V27.8412H19.6825V25.0501C19.687 23.1372 18.128 21.5781 16.215 21.5781Z" fill="#F0B90B"/>
</svg>
