<svg xmlns="http://www.w3.org/2000/svg" xmlns:xlink="http://www.w3.org/1999/xlink" width="1002" height="1011" viewBox="0 0 1004 1012.61" shape-rendering="geometricPrecision" image-rendering="optimizeQuality" fill-rule="evenodd" xmlns:v="https://vecta.io/nano"><style><![CDATA[.W{fill-rule:nonzero}.X{stroke-miterlimit:2.61313}.Y{fill:#fdcb08}.Z{fill:#e6c6a6}.a{fill:#263674}.b{fill:#fff}.c{stroke:#263674}.d{stroke-width:4.01}.e{fill:#ffe063}.f{fill:#e6e6e6}.g{stroke-linecap:round}.h{fill:#f9a92d}.i{stroke:#ffe063}.j{stroke-width:2}.k{stroke-width:10.02}]]></style><rect x="111.15" y="5.01" width="806.23" height="494.52" rx="11.72" stroke="#e6e6e6" fill="none" class="X k"/><path d="M263.77 247.23h29.51v-29.51c0-3.36 1.37-6.41 3.58-8.62s5.26-3.58 8.62-3.58h50.65c3.36 0 6.41 1.37 8.62 3.58s3.58 5.26 3.58 8.62v50.65c0 3.36-1.37 6.41-3.58 8.62s-5.26 3.58-8.62 3.58h-29.51v29.51c0 3.36-1.37 6.41-3.58 8.62a12.18 12.18 0 0 1-8.62 3.58h-50.65c-3.36 0-6.41-1.37-8.62-3.58s-3.59-5.26-3.59-8.62v-50.65c0-3.35 1.38-6.41 3.59-8.62s5.26-3.58 8.62-3.58zm31.65 4.29h-31.65c-2.18 0-4.15.89-5.59 2.33-1.43 1.43-2.32 3.41-2.32 5.58v50.65c0 2.18.89 4.15 2.32 5.59 1.44 1.43 3.41 2.32 5.59 2.32h50.65c2.17 0 4.15-.89 5.58-2.32 1.44-1.44 2.33-3.41 2.33-5.59v-33.8h33.8c2.17 0 4.15-.89 5.58-2.32 1.44-1.44 2.33-3.42 2.33-5.59v-50.65c0-2.17-.89-4.15-2.33-5.58-1.43-1.44-3.41-2.33-5.58-2.33h-50.65c-2.17 0-4.15.89-5.59 2.33-1.43 1.43-2.32 3.41-2.32 5.58v33.8h-2.15z" class="a"/><path d="M299.89 212.14c1.44-1.44 3.42-2.33 5.59-2.33h50.65c2.17 0 4.15.89 5.58 2.33 1.44 1.43 2.33 3.41 2.33 5.58v50.65c0 2.17-.89 4.15-2.33 5.59-1.43 1.43-3.41 2.32-5.58 2.32h-33.8v1.66l4.29 4.56v-1.93h29.51c3.36 0 6.41-1.37 8.62-3.58s3.58-5.26 3.58-8.62v-50.65c0-3.36-1.37-6.41-3.58-8.62s-5.26-3.58-8.62-3.58h-50.65c-3.36 0-6.41 1.37-8.62 3.58s-3.58 5.26-3.58 8.62v29.33l4.21 4.47h.08v-33.8c0-2.17.89-4.15 2.32-5.58zm49.5 36.12c.21-5.34-2.41-12.47-6.26-15.77-.75-.65-.61-.77-2.04-1.85-2.03-1.52-4.67-2.98-7.23-3.65-6.85-1.79-13.84-.31-18.43 3.42l-4.89 4.34c-2.23 2.06-4.05 2.91-4.17 5.9-.09 2.38 2.49 4.3 4.96 3.63 4.03-1.11 7.62-10.54 17.88-10.14 6.72.26 12.52 6.53 12.26 13.25-.19 4.77-1.72 7.38-4.99 10.4l-3.75 3.46c-1.53 1.42-3 2.13-3.09 4.56-.08 2.05 1.62 3.95 3.91 4.04 2.31.09 5.78-3.83 7.96-5.84l1.15-1.07c.54-.49.69-.74 1.17-1.25 3.19-3.38 5.37-8.45 5.56-13.43z" class="Y"/><path d="M312.42 289.38c.1-2.36-1.58-4.13-4.09-4.23-2.02-.08-4.19 2.54-6.14 4.34-1.79 1.65-3.68 3.66-5.94 4.75-5.79 2.81-12.06 1.12-15.7-2.82-3.65-3.95-4.8-10.21-1.65-15.76 1.39-2.44 5.56-5.93 7.96-8.15 1.29-1.19 2.05-1.57 2.13-3.66s-1.64-3.96-3.91-4.05c-2.31-.09-5.78 3.83-7.96 5.85-4.52 4.18-7.62 9.11-7.88 15.75-.18 4.54 1.63 10.38 4.41 13.73 2.44 2.93 3.65 3.99 7.34 6.04 7.3 4.06 17.61 2.46 23.65-3.07l1.24-1.15c2.19-2.03 6.45-5.25 6.54-7.57z" class="a"/><path d="M292.58 276.2c-.07 1.8.96 3.33 2.14 3.9 3.04 1.48 4.6-.6 6.35-2.22l19.79-18.29 3.94-3.64c3.4-3.35-1.15-8.88-5.12-6.11l-23.73 21.91c-1.1 1.02-3.3 2.57-3.37 4.45z" class="Y"/><path d="M516.88 446.15h-74.24a3.41 3.41 0 0 1-3.4-3.4c0-1.87 1.52-3.39 3.4-3.39h74.24c1.87 0 3.4 1.52 3.4 3.39a3.41 3.41 0 0 1-3.4 3.4h0zm-132.6 18.17c0 .61.49 1.1 1.1 1.1h188.75c.61 0 1.1-.49 1.1-1.1s-.49-1.1-1.1-1.1H385.38c-.61 0-1.1.49-1.1 1.1h0zm75.18-69.73h-74.24c-1.88 0-3.4-1.53-3.4-3.4s1.52-3.39 3.4-3.39h74.24c1.87 0 3.39 1.52 3.39 3.39s-1.52 3.4-3.39 3.4h0zm-132.6 18.17c0 .61.49 1.1 1.1 1.1h188.75c.61 0 1.1-.49 1.1-1.1s-.49-1.1-1.1-1.1H327.96c-.61 0-1.1.49-1.1 1.1h0zm72.12-256.58H146.49a.79.79 0 0 1-.79-.79V34.37c0-.44.35-.79.79-.79a.79.79 0 0 1 .79.79V154.6h251.7a.79.79 0 0 1 .79.79.8.8 0 0 1-.79.79h0z" class="W a"/><use xlink:href="#B" class="W h"/><path d="M242.31 147.49h-22.96a2.36 2.36 0 0 1-2.35-2.35V83.46a2.35 2.35 0 0 1 2.35-2.35h22.96a2.35 2.35 0 0 1 2.35 2.35v61.68c0 1.29-1.05 2.34-2.35 2.34v.01z" fill="#fdbe11" class="W"/><use xlink:href="#B" x="83.76" class="W h"/><path d="M326.07 147.49h-22.96c-.02-.01-.04 0-.05 0a2.3 2.3 0 0 1-2.3-2.24V71.5c.03-1.25 1.05-2.24 2.3-2.24h.05 22.96.05c1.25 0 2.27.99 2.3 2.24v73.75a2.3 2.3 0 0 1-2.3 2.24c-.01 0-.03-.01-.05-.01v.01z" fill="#fdbe11" class="W"/><path d="M367.95 147.49h-22.96a2.36 2.36 0 0 1-2.35-2.35V50.27a2.35 2.35 0 0 1 2.35-2.35h22.96c1.3 0 2.34 1.05 2.35 2.35v94.87c-.01 1.29-1.05 2.34-2.35 2.34v.01z" class="W h"/><g class="a W"><circle cx="188.95" cy="96.91" r="4.74"/><circle cx="230.83" cy="66.1" r="4.74"/><circle cx="272.71" cy="96.91" r="4.74"/><circle cx="314.59" cy="51.08" r="4.74"/><circle cx="356.47" cy="33.7" r="4.74"/><path d="M272.81 97.98l-41.98-31.45-41.41 31.02-.94-1.27 42.35-31.72 41.78 31.29 41.52-45.43.16-.07 41.88-16.87.59 1.46-41.71 16.81z"/></g><path d="M755.56 117.6a57.41 57.41 0 0 1-4.61-22.65c0-7.89 1.54-15.4 4.61-22.59 3.07-7.2 7.21-13.39 12.42-18.57 5.2-5.21 11.41-9.34 18.59-12.44 7.21-3.07 14.75-4.61 22.65-4.61v58.27h58.32c0 7.91-1.55 15.49-4.64 22.7-3.07 7.2-7.23 13.41-12.43 18.64-5.21 5.2-11.41 9.36-18.6 12.43a56.64 56.64 0 0 1-22.6 4.64 56.82 56.82 0 0 1-22.63-4.64c-7.21-3.09-13.42-7.25-18.64-12.5-5.21-5.23-9.35-11.45-12.44-18.68zM758 95.01c0 6.97 1.35 13.64 4.05 19.97 2.7 6.34 6.34 11.78 10.91 16.36 4.6 4.57 10.04 8.23 16.36 10.95 6.29 2.72 12.93 4.07 19.9 4.07 8.47 0 16.38-1.96 23.76-5.85 7.38-3.9 13.46-9.24 18.18-15.97 4.75-6.75 7.67-14.24 8.78-22.47h-50.72-7.05v-7.19-50.61c-8.21 1.11-15.68 4.03-22.41 8.78-6.71 4.75-12.02 10.8-15.92 18.18S758 86.54 758 95.01zm59.17-7.47V29.29a57.53 57.53 0 0 1 22.71 4.62c7.23 3.09 13.46 7.23 18.67 12.41 5.2 5.2 9.36 11.39 12.43 18.58 3.09 7.18 4.64 14.74 4.64 22.64h-58.45zM660.09 303.59v-28.57-1.54c.37-7.61 3.29-14.11 8.79-19.48 5.49-5.37 12.04-8.19 19.67-8.42h7.18 7.26c4.95.21 9.56 1.56 13.8 4.09 4.24 2.52 7.64 5.88 10.17 10.07 2.54 4.2 3.91 8.79 4.12 13.74v1.54c0 2.3.02 3.46.06 3.48s.06-1.15.06-3.48v28.57c0 2.1-.73 3.86-2.18 5.26a7.28 7.28 0 0 1-5.26 2.12h-28.03-28.22c-2.07 0-3.84-.71-5.26-2.12-1.45-1.4-2.16-3.16-2.16-5.26zm6.79-11.01v10.99c0 .4.21.61.61.61h28.24 28.07c.4 0 .61-.21.61-.61l-.13-28.57v-.13-1.15c-.29-5.69-2.43-10.58-6.42-14.63-4.01-4.04-8.83-6.29-14.5-6.75l-4.99 6.57 5.41 32.53-8.16 9.21-8.12-9.21 5.42-32.53-5-6.57c-5.85.46-10.84 2.85-14.91 7.19-4.09 4.35-6.13 9.44-6.13 15.34v.13 17.58zm7.18-72.46c0-5.94 2.12-11.04 6.33-15.23 4.22-4.22 9.3-6.32 15.23-6.32 5.96 0 11.06 2.1 15.28 6.32 4.21 4.19 6.33 9.29 6.33 15.23 0 5.98-2.12 11.07-6.33 15.29-4.22 4.22-9.32 6.33-15.28 6.33-5.93 0-11.01-2.11-15.23-6.33-4.21-4.22-6.33-9.31-6.33-15.29zm6.79 0c0 4.11 1.45 7.61 4.37 10.49 2.91 2.89 6.38 4.34 10.4 4.34 4.09 0 7.6-1.45 10.47-4.34 2.9-2.88 4.34-6.38 4.34-10.49 0-4.01-1.44-7.47-4.34-10.39-2.87-2.91-6.38-4.36-10.47-4.36-4.02 0-7.49 1.45-10.4 4.36-2.92 2.92-4.37 6.38-4.37 10.39zm6.34 32.22h.06.07.06.54-.12-.61z" class="Y W"/><path d="M529.38 944.69c3.16 1.74 6.59 2.95 10.15 3.55 7.29 1.23 14.79-.11 21.2-3.77 12.17-7.15 18.01-21.33 23.03-34.52l14.87-39.02-18.8 8.75c-13.53 6.29-27.37 12.81-37.8 23.47-10.42 10.67-16.87 26.54-12.34 40.75l-.31.79zm0 0h0 0z" class="W f"/><path d="M523.25 996.83c.49-15.81.95-31.82 5.08-47.18 3.66-13.64 10.18-26.47 20.66-36.12 5.56-5.1 11.99-9.21 18.96-12.12 1.82-.75 2.89 2.11 1.08 2.86-12.07 5.05-22.24 13.81-29.01 25-7.49 12.45-10.79 26.85-12.28 41.18-.9 8.66-1.18 17.37-1.45 26.07a1.56 1.56 0 0 1-.02.37 1.58 1.58 0 0 1-1.35 1.3c-.13.01-.27.01-.4-.01-.68-.12-1.2-.67-1.27-1.35h0z" fill="#ccc" class="W"/><path d="M542.69 974.62a23.55 23.55 0 0 0 17.63 13.73l.83.13c10.32 1.24 20.06-4.46 28.89-9.95l26.11-16.22-14.92-3.26c-10.72-2.34-21.73-4.7-32.6-3.11-10.86 1.6-21.72 8.02-25.4 18.36l-.54.32zm0 0h0 0z" class="W f"/><path d="M515.75 1004.69c13.26-16.33 28.49-34.4 50.73-37.24 4.74-.61 9.57-.51 14.29.29a49.77 49.77 0 0 1 4.2.9c1.9.49.92 3.38-.98 2.89-1.22-.3-2.45-.57-3.68-.78-9.03-1.52-18.32-.28-26.62 3.55-9.12 4.19-16.79 10.85-23.56 18.14-4.15 4.47-7.99 9.21-11.83 13.94-1.23 1.52-3.79-.16-2.55-1.69z" fill="#ccc" class="W"/><path d="M513.29 884.41c-6.61 2.31-13.57 3.51-20.57 3.51a62.04 62.04 0 0 1-39.33-14.07c-20.98-17.61-27.56-46.61-32.91-73.47l-15.83-79.46 33.14 22.82c23.84 16.41 48.21 33.35 64.71 57.12 16.51 23.77 23.7 56.22 10.45 81.95l.34 1.6zm0 0h0 0z" class="W f"/><path d="M508.17 986.14c4.17-30.39 8.46-61.18 5.53-91.9-2.6-27.28-10.92-53.92-27.87-75.77a126.03 126.03 0 0 0-32.34-29.31c-3.24-2.04-6.21 3.08-3 5.12 21.46 13.55 38.08 33.59 47.42 57.19 10.32 26.25 11.97 54.86 10.2 82.74-1.08 16.87-3.36 33.62-5.65 50.35a2.82 2.82 0 0 0-.09.71 3.07 3.07 0 0 0 2.15 2.93 2.98 2.98 0 0 0 .78.1c1.33 0 2.51-.88 2.87-2.17v.01z" fill="#ccc" class="W"/><path d="M478.15 937.37c-8.45 12.83-22.79 20.57-38.16 20.57-.54 0-1.1-.01-1.64-.03-20.14-.95-36.93-15.01-52.04-28.36l-44.71-39.47 29.59-1.42c21.28-1.02 43.1-1.97 63.37 4.6s38.96 22.35 42.66 43.33l.93.78zm0 0h0 0z" class="W f"/><path d="M519.96 1003.61c-20.08-35.54-43.37-75.03-85-87.66-8.88-2.69-18.15-4.05-27.44-4.05a100.03 100.03 0 0 0-8.31.36c-3.8.33-2.85 6.18.94 5.85 2.42-.19 4.86-.3 7.29-.3 17.75 0 35.13 5.38 49.77 15.4 16.09 10.95 28.61 26.17 39.21 42.32 6.5 9.89 12.32 20.2 18.13 30.49 1.86 3.29 7.29.92 5.41-2.41z" fill="#ccc" class="W"/><path d="M650.58 157.67H539.14a6.85 6.85 0 0 1-6.84-6.84V35.62a6.85 6.85 0 0 1 6.84-6.84h111.44a6.85 6.85 0 0 1 6.84 6.84v115.21a6.85 6.85 0 0 1-6.84 6.84z" class="W b"/><path d="M650.58 158.37H539.14c-4.16 0-7.55-3.38-7.55-7.54V35.62c0-4.16 3.39-7.54 7.55-7.54h111.44c4.16 0 7.55 3.38 7.55 7.54v115.21c0 4.16-3.39 7.54-7.55 7.54h0zM539.14 29.48a6.15 6.15 0 0 0-6.14 6.14v115.21a6.15 6.15 0 0 0 6.14 6.14h111.44a6.15 6.15 0 0 0 6.14-6.14V35.62a6.15 6.15 0 0 0-6.14-6.14H539.14zm60.12 97.93h-9.19c-1.11 0-2.02-.71-2.02-1.57V86.3c0-.87.91-1.57 2.02-1.57h9.19c1.12 0 2.03.7 2.03 1.57v39.54c0 .86-.91 1.57-2.03 1.57h0z" class="a W"/><path d="M568.89 104.1c-.9 0-1.64.57-1.64 1.27v20.43c0 .69.74 1.26 1.64 1.26h9.19c.9 0 1.64-.57 1.64-1.26v-20.43c0-.7-.74-1.27-1.64-1.27h-9.19zm51.55 23.31h-9.19c-1.11 0-2.02-.71-2.02-1.57v-64.8c0-.87.91-1.57 2.02-1.57h9.19c1.12 0 2.03.7 2.03 1.56v64.81c0 .86-.91 1.57-2.03 1.57h0z" class="Y W"/><g class="a W"><path d="M582.28 60.14a.84.84 0 0 0 .84.84h143.71a.83.83 0 0 0 .84-.84.84.84 0 0 0-.84-.84H583.12c-.46 0-.84.38-.84.84h0z"/><path d="M540.07 128.38c0 .46.38.84.84.84h143.72c.46 0 .83-.38.83-.84a.83.83 0 0 0-.83-.84H540.91a.84.84 0 0 0-.84.84h0z" stroke-width=".9" class="X c"/></g><circle cx="514.26" cy="263.9" r="67.85" class="W Y"/><path d="M549.09 235.63c-1.02-.98-2.38-1.52-3.79-1.52s-2.76.54-3.78 1.52c-14.37 11.46-27.35 24.71-38.52 39.33l-8.21-15.93c-3.17-6.13-12.42-.72-9.25 5.4l12.03 23.3a5.43 5.43 0 0 0 4.63 2.59c1.89 0 3.64-.98 4.62-2.59 11.89-16.74 26.16-31.78 42.27-44.52 1-1.02 1.56-2.38 1.56-3.8s-.56-2.78-1.56-3.78h0z" class="W b"/><path d="M437.84 1005.51c0 1.15-.75 2.09-1.68 2.09H39.38c-.93 0-1.69-.94-1.69-2.09 0-1.16.76-2.1 1.69-2.1l396.78.01c.93-.01 1.68.93 1.68 2.08v.01zm479.53 0c0 1.15-.6 2.09-1.35 2.09H596.23c-.75 0-1.36-.94-1.36-2.09 0-1.16.61-2.1 1.36-2.1l319.79.01c.75-.01 1.35.93 1.35 2.08v.01z" fill="#ccc" class="W"/><g stroke="#e6e6e6" fill="none" class="X g k"><path d="M515.54 499.53L362.92 763.88"/><path d="M512.98 499.53l152.63 264.35"/><path d="M514.26 499.53v180.93m50.26 327.14h-54.14m175.85-242.95H632.1"/><path d="M541.33 680.46h-54.14"/></g><g class="W"><path d="M285.36 518.05c-.7.09-1.42.14-2.14.14-8.88 0-16.09-7.21-16.09-16.1l.01-.7-102.91-104.41 28.73-20 92.12 108.93a16.18 16.18 0 0 1 14.42 16.08c0 8.15-6.06 15.03-14.14 16.06h0z" class="Z"/><path d="M132.57 351.81s-7.29 4.37 4.85 17.69c9.72 10.65 52.13 61.89 69.05 72.59-.46 1.33-.69 2.73-.69 4.14a12.67 12.67 0 0 0 5.66 10.55l26.03-32.48c-1.49-9.31-7.77-8.84-11.29-7.71l-16.33-20.3-37-62.05-35.06 14.32-5.22 3.25z" class="X b c d"/><path d="M51.3 973.98h19.4l9.23-74.83H51.3z" class="Z"/><path d="M44.97 960.69l30.99-1.85v13.28l29.47 20.36c2.24 1.54 3.58 4.1 3.58 6.82a8.3 8.3 0 0 1-8.29 8.3H63.81l-6.36-13.14-2.48 13.14H41.06l3.91-46.91z"/><path d="M160.28 973.98h19.4l9.23-74.83h-28.63z" class="Z"/><path d="M153.95 960.69l30.99-1.85v13.28l29.47 20.36c2.24 1.54 3.58 4.1 3.58 6.82a8.3 8.3 0 0 1-8.29 8.3h-36.9l-6.37-13.14-2.48 13.14h-13.91l3.91-46.91z"/><path d="M42.93 909.45h.21l3.73-121.68a31.88 31.88 0 0 1-3.57-14.64c0-5.4 1.37-10.71 3.99-15.43l.53-.96-1.38-6.42a41.01 41.01 0 0 1-.92-8.63c0-5.49 1.1-10.93 3.25-15.99l3.48-113.5c-12.43-80.59 46.83-133.15 46.83-133.15l-10.83-45.56 107.23-10.55-7.62 56.11 19.06 65.48c12.6 122.76 10.32 242.39-9.68 358.29l.55.28c1.96.68 2.8 3.4 1.88 6.07-.92 2.68-3.26 4.3-5.23 3.62l-46.88-1.63c-1.97-.68-2.81-3.4-1.88-6.07.92-2.68 3.26-4.3 5.22-3.62l3.19 1.61-6.8-117.42.76-21.44-1.56-24.33-7.19-109.44-27.2 134.58L84.31 910.8a5.12 5.12 0 0 1 1.68 3.79c0 2.82-2.28 5.11-5.11 5.11H42.93a5.12 5.12 0 1 1 0-10.25h0z" class="a"/><path d="M172.04 215.27c-9.97-15.28-26.26-27.29-44.39-28.3-18.13-1.02-39.93 14.43-48.87 30.32-16.38 29.06-16.59 62.39 5.96 82.61 66.91-22.7 47.49 58.08 109.1 41.57-2.6-18.07-11.83-110.91-21.8-126.2z"/><circle cx="133.76" cy="250.4" r="36.85" class="Z"/><path d="M174.59 318.87l-21.08-12.65-42.18-4.22-37.27 18.98.37 57.99 23.65 60.14 92.12 18.98 10.75-52.85s27.41-36.82-2.11-57.9l-24.25-28.47z" class="X b c d"/><path d="M147.54 194.44c-4.06-1.13-8.27-1.72-12.49-1.72-25.56 0-46.29 20.73-46.29 46.29 0 4.52.67 9.04 1.97 13.37 22.45 1.79 44.63-.31 62.12-16.19l1.55-13.62 6.38 11.4 19.34-5.46a47.3 47.3 0 0 0-32.58-34.07h0z"/><path d="M84.33 569.23c-4.75-2.93-7.65-8.12-7.65-13.71 0-3.95 1.45-7.77 4.08-10.72l-13.6-145.97 34.9 2.69 2.4 142.64a16.24 16.24 0 0 1 4.63 11.34c0 8.94-7.25 16.18-16.18 16.18a16.23 16.23 0 0 1-8.58-2.45h0z" class="Z"/><path d="M75.35 321.56s-8.41-1.23-7.44 16.76c.78 14.4-2.93 103.18 3.41 122.17a12.66 12.66 0 0 0-6.01 10.77c0 1.27.19 2.53.56 3.75l40.71-8.68c4.74-8.15 3.76-16.52.31-17.87l.21-26.06 8.99-85.86-34.64-14.19-6.1-.79z" class="X b c d"/><circle cx="88.25" cy="201.46" r="22.85" stroke="#000" stroke-width=".9"/><path d="M81.37 178.54c-3.95-1.1-8.07.74-11.76 2.54l-13.13 6.39 27.27 2.39 1.01-1.89c3.14-2.63.57-8.33-3.39-9.43z"/></g><circle cx="292.83" cy="513.66" r="60.96" class="Y"/><circle cx="292.83" cy="513.66" r="55.01" class="e"/><circle cx="292.83" cy="513.66" r="48.32" class="Y"/><g fill="none" class="X g i j"><path d="M292.83 470.05V482m-9.06-10.99l2.48 11.68m-11.15-8.87l4.86 10.92m-12.75-6.36l7.02 9.67m-13.8-3.57l8.88 7.99m-14.24-.62l10.35 5.97m-14.07 2.36l11.37 3.7m-13.26 5.22l11.88 1.25m-11.88 7.87l11.88-1.25m-9.99 10.17l11.37-3.7m-7.66 12.02l10.35-5.97m-4.99 13.35l8.88-8m-2.11 14.1l7.03-9.67m.87 14.23l4.86-10.92m3.81 13.74l2.48-11.69m6.59 12.64v-11.95m9.06 11l-2.48-11.69m11.15 8.87l-4.86-10.92m12.76 6.36l-7.03-9.66m13.8 3.56l-8.88-7.99m14.24.62l-10.35-5.98m14.06-2.35l-11.36-3.7m13.26-5.22l-11.88-1.25m11.88-7.87l-11.88 1.25m9.98-10.16l-11.36 3.69m7.66-12.02l-10.35 5.97m4.99-13.35l-8.88 8"/><path d="M318.46 478.38l-7.02 9.67m-.87-14.22l-4.86 10.91m-3.81-13.73l-2.49 11.68"/></g><circle cx="292.83" cy="513.66" r="22.68" class="e"/><circle cx="60.96" cy="577.48" r="60.96" class="Y"/><circle cx="60.96" cy="577.48" r="55.01" class="e"/><circle cx="60.96" cy="577.48" r="48.32" class="Y"/><g fill="none" class="X g i j"><path d="M60.96 533.88v11.95m-9.06-11l2.48 11.69m-11.15-8.88l4.86 10.92m-12.75-6.36l7.02 9.67m-13.79-3.57l8.88 8m-14.24-.63l10.35 5.98m-14.07 2.36l11.36 3.69m-13.26 5.23l11.89 1.24m-11.89 7.87l11.89-1.25m-9.99 10.17l11.36-3.69m-7.66 12.02l10.35-5.98m-4.99 13.35l8.88-7.99m-2.1 14.09l7.02-9.66m.87 14.22l4.86-10.91m3.81 13.73l2.49-11.69m6.58 12.64v-11.95m9.07 11l-2.49-11.69m11.16 8.87l-4.86-10.91m12.75 6.36l-7.02-9.67m13.8 3.57l-8.88-8m14.24.62l-10.35-5.97m14.06-2.36l-11.37-3.69m13.26-5.23l-11.88-1.25m11.88-7.86l-11.88 1.25m9.99-10.17l-11.37 3.69m7.66-12.02l-10.35 5.97m4.99-13.34l-8.88 7.99m2.11-14.09l-7.03 9.66m-.86-14.22l-4.86 10.91"/><path d="M70.03 534.83l-2.48 11.69"/></g><circle cx="60.96" cy="577.48" r="22.68" class="e"/><g class="W"><path d="M896.69 986.64h-21.62l-10.28-83.39h31.9z" class="Z"/><path d="M902.2 1007.6h-69.71v-.89c0-14.98 12.16-27.13 27.14-27.13h0l12.73-9.66 23.76 9.66h6.09l-.01 28.02z"/><path d="M796.25 986.64h-21.62l-10.28-83.39h31.9z" class="Z"/><path d="M801.76 1007.6h-69.7v-.89c0-14.98 12.15-27.13 27.13-27.13h0l12.73-9.66 23.76 9.66h6.09l-.01 28.02z"/><path d="M913.9 452.76l-28.58 87.88-90.1-2.95 27.68-84.93z" fill="#2f2e41"/><path d="M778.97 530.3l169.86 4.43-2.95 82.72s2.95 22.15-2.96 28.06-8.86 5.91-5.91 16.25c2.96 10.34-12.65 27.22-10.75 29.12 1.89 1.9 6.32 12.23 6.32 12.23l-14.77 84.2s-10.34 146.22-13.29 149.18c-2.96 2.95-5.91 0-2.96 7.38 2.96 7.39 5.91 4.43 2.96 7.39-2.61 2.8-5.11 5.79-7.39 8.85l-35.71.01s-2.69-14.77-2.69-16.25-2.95-10.34-2.95-11.82c0-1.47 2.61-4.08 2.61-4.08.89-3 1.51-6.09 1.82-9.21 0-2.95 8.86-116.68 8.86-116.68l-17.73-147.71-42.83 144.75s0 127.03-2.95 129.98c-2.96 2.96-2.96 1.48-1.48 7.39 1.48 5.9 7.38 4.43 2.95 8.86s-5.9-2.96-4.43 4.43l1.48 7.39-44.31.63s-5.91-12.45-2.96-16.88c2.96-4.43 2.78-3.22-.82-10.47-3.61-7.26-5.08-8.73-3.61-10.21 1.48-1.48 1.48-9.33 1.48-9.33l7.38-141.33 1.48-153.61.02-.72c0-2.04-.42-4.06-1.24-5.93v-6.01l5.65-21.31 11.82-51.7z" class="a"/><g class="X b c d"><path d="M794.48 315.39l51.7-19.2 85.66 5.91 19.84 9.25a34.34 34.34 0 0 1 19.81 31.11 34.37 34.37 0 0 1-.68 6.79l-25.67 127.14 6.63 61.17s-107.81 81.36-192 56.25c0 0 1.48-23.63 2.95-32.49 1.48-8.87 4.43-8.87 5.91-13.3s4.43 0 1.48-8.86c-2.96-8.86 23.63-70.9 23.63-70.9l.74-152.87z"/><path d="M876.19 326.63l42.14-25.46-13.81-24.92h-44.77l-17.74 21.49z"/></g><path d="M890.69 535.99l.95.02c9.11 0 16.5-7.38 16.5-16.49a18.41 18.41 0 0 0-.12-1.96l52.7-25.65-26.2-15.52-46.03 26.74c-7.85 1.46-13.53 8.31-13.53 16.3a16.59 16.59 0 0 0 15.73 16.56h0z" class="Z"/><path d="M911.4 525.34l-9.19-33.67 50.04-66.29c-16.19-19.53-21.88-48.36-17.88-90.64a18.7 18.7 0 0 1-.34-3.5 18.36 18.36 0 0 1 18.35-18.35 18.35 18.35 0 0 1 17.35 12.39c11.32 33.03 31.02 104.1 28.46 107.95-2.96 4.43-3.97 6.4.67 10.63 5.52 5.02 2.59 26.41.08 29.48-2.29 2.8-87.54 52-87.54 52z" class="X b c d"/><path d="M646.48 483.69a16.42 16.42 0 0 0 5.96 1.12c7.89 0 14.68-5.6 16.19-13.34l58.03-8.24-20.18-22.82-52.01 11.33c-.7-.09-1.4-.13-2.1-.13a16.58 16.58 0 0 0-5.89 32.08h0z" class="Z"/><path d="M671.38 478.84l8.82-33.77 72.95-41.1c5.27-33.4 8.58-44.29 33.1-78.96a18.36 18.36 0 0 1 17.36-12.4c10.13 0 18.35 8.21 18.35 18.34a18.4 18.4 0 0 1-.33 3.48c-6.64 34.28-36.65 126.14-40.36 127.55-3.38 1.28-109.89 16.86-109.89 16.86z" class="X b c d"/><circle cx="881.62" cy="238.97" r="45.79" class="Z"/><path d="M833.14 205.76c1.21-10.95 17.03-21.9 45.02-29.2 27.98-7.3 42.58 24.33 42.58 24.33 19.47 9.74 7.91 61.45 1.83 56.58-.06-.05-.12-.1-.18-.14-8.02-5.91-13.26-14.86-14.48-24.73l-1.4-12.6c-6.41 4.91-13.64 9.06-21.39 7.83l9.49-9.34-26.98 11.73 8.93-12.29-.42-.41a44.15 44.15 0 0 1-14.16 8.01c-5.9 1.69-12.97.78-17.01-3.84-1.09-1.27-1.92-2.76-2.42-4.35-7.35 5.03-8.81 15.8-8.81 15.8s-1.82-16.43-.6-27.38z"/></g><circle cx="647.61" cy="488.08" r="60.96" class="Y"/><circle cx="647.61" cy="488.08" r="55.01" class="e"/><circle cx="647.61" cy="488.08" r="48.32" class="Y"/><g fill="none" class="X g i j"><path d="M647.61 444.47v11.95m-9.07-11l2.49 11.69m-11.15-8.87l4.86 10.92m-12.76-6.36l7.03 9.67m-13.8-3.58l8.88 8m-14.24-.62l10.35 5.97m-14.07 2.36l11.37 3.7m-13.26 5.22l11.88 1.25m-11.88 7.87l11.88-1.25m-9.99 10.17l11.37-3.7m-7.66 12.02l10.35-5.97m-4.99 13.35l8.88-8m-2.11 14.1l7.03-9.67m.87 14.23l4.86-10.92m3.81 13.74l2.48-11.69m6.58 12.64v-11.95m9.07 11l-2.48-11.69m11.15 8.87L660.48 517m12.76 6.36l-7.03-9.66m13.8 3.56l-8.88-7.99m14.24.62l-10.35-5.98m14.06-2.35l-11.36-3.7m13.26-5.22l-11.89-1.25m11.89-7.87l-11.89 1.25m9.99-10.16l-11.36 3.69m7.65-12.02l-10.34 5.97m4.99-13.35l-8.88 8"/><path d="M673.24 452.8l-7.02 9.67m-.87-14.23l-4.86 10.92m-3.81-13.73l-2.49 11.68"/></g><circle cx="647.61" cy="488.08" r="22.68" class="e"/><defs ><path id="B" d="M200.43 147.49h-22.96a2.36 2.36 0 0 1-2.35-2.35v-31.66c0-1.29 1.05-2.34 2.35-2.34h22.96c1.3 0 2.35 1.05 2.35 2.34v31.66c0 1.29-1.05 2.34-2.35 2.34v.01z"/></defs></svg>