<svg xmlns="http://www.w3.org/2000/svg" xmlns:xlink="http://www.w3.org/1999/xlink" viewBox="0 0 1280 800" xmlns:v="https://vecta.io/nano"><style><![CDATA[.B{fill:#344291}.C{fill:#3f3d56}.D{fill:#e6e6e6}.E{fill:#fff}.F{fill-rule:evenodd}.G{fill:#da9a09}.H{fill:#ffb7b7}.I{fill:#3a459c}.J{fill:#f6e289}.K{stroke-width:1.869}.L{stroke-miterlimit:10}]]></style><path d="M569.877 288.164h0v-45.035a26.07 26.07 0 0 0-26.065-26.065h-95.415c-14.395 0-26.065 11.669-26.066 26.065v247.067a26.07 26.07 0 0 0 26.065 26.065h95.415a26.07 26.07 0 0 0 26.065-26.065V320.221h0a1.64 1.64 0 0 0 1.642-1.642l.001-28.773a1.64 1.64 0 0 0-1.642-1.642h0z" class="C"/><path d="M564.982 240.961v250.558c-15.233-.936-7.485 19.135-19.762 19.766h-97.373c-10.919.002-19.772-8.847-19.775-19.766V240.961c.003-10.918 8.856-19.767 19.774-19.766h7.181c-1.956 4.809 13.827 6.374 15.037 6.375h49.869c5.192-.007 17.716-5.255 17.261-6.375h8.022c10.914.002 19.762 8.848 19.766 19.762v.004h0z" class="E"/><g class="C"><path d="M421.563 293.68a1.26 1.26 0 0 0-1.259 1.259v10.073a1.26 1.26 0 0 0 1.259 1.259 1.26 1.26 0 0 0 1.259-1.259v-10.073a1.26 1.26 0 0 0-1.259-1.259z"/><use xlink:href="#B"/><use xlink:href="#B" y="27.7"/></g><path d="M531.947 318.913h-72.07a8.96 8.96 0 0 1-8.949-8.949v-30.979a8.96 8.96 0 0 1 8.949-8.949c22.997-6.371 47.116-5.774 72.07 0a8.96 8.96 0 0 1 8.948 8.949v30.979a8.96 8.96 0 0 1-8.948 8.949h0z" fill="#f2f2f2"/><g class="D"><path d="M539.289 351.38h-86.754a1.61 1.61 0 0 1-1.607-1.607v-21.52a1.61 1.61 0 0 1 1.607-1.606h86.754a1.61 1.61 0 0 1 1.607 1.606v21.52a1.61 1.61 0 0 1-1.607 1.607h0zm-86.754-24.09c-.532.001-.963.432-.964.964v21.52c.001.532.432.963.964.964h86.754c.532-.001.963-.432.964-.964v-21.52c-.001-.532-.432-.963-.964-.964h-86.754z"/><use xlink:href="#C"/><use xlink:href="#C" y="6.749"/><circle cx="464.472" cy="339.014" r="4.499"/><use xlink:href="#D"/><use xlink:href="#E"/><circle cx="464.472" cy="444.642" r="4.499"/><use xlink:href="#D" y="-44.526"/><use xlink:href="#E" y="-44.527"/><circle cx="464.472" cy="400.115" r="4.499"/></g><path d="M462.007 298.707c2.632.874 5.392 1.759 8.201 1.609 1.279-.068 2.509-.373 3.668-.915l3.481-1.839c4.425-1.937 8.814 1.372 12.94 2.614 2.059.62 4.224.768 6.238-.095 2.225-.953 3.904-2.773 5.736-4.292 4.108-3.406 9.467-5.242 14.799-5.103 5.849.152 11.51 2.736 15.537 6.961.338.354.874-.183.537-.537-3.52-3.693-8.263-6.182-13.313-6.937-5.061-.756-10.316.254-14.766 2.775-2.252 1.275-4.058 3.021-6.042 4.651-1.932 1.587-4.08 2.609-6.627 2.272-4.388-.581-8.162-3.962-12.713-3.656-2.907.196-4.982 2.383-7.717 3.08-3.263.832-6.673-.296-9.757-1.32-.465-.154-.665.579-.202.732h0 0z" class="C"/><g fill="#b0ffff"><circle cx="470.245" cy="299.94" r="2.811"/><circle cx="494.514" cy="300.064" r="2.811"/><circle cx="519.16" cy="290.528" r="2.811"/><path d="M543.908 495.247h-11.151c-1.948 0-3.532-1.585-3.532-3.532-2.114-5.744-2.381-10.895 0-15.199 0-1.947 1.584-3.532 3.532-3.532 3.297-2.392 7.142-1.665 11.151 0 1.948 0 3.532 1.585 3.532 3.532-1.353 4.87-1.255 9.95 0 15.199 0 1.947-1.584 3.532-3.532 3.532z"/></g><g class="E"><use xlink:href="#F"/><use xlink:href="#F" y="4.502"/><use xlink:href="#F" y="9.005"/></g><g fill="#f1f1f1"><ellipse cx="992.3" cy="502.751" rx="15.43" ry="7.184"/><ellipse cx="979.956" cy="550.084" rx="15.43" ry="7.184"/><ellipse cx="1008.171" cy="557.691" rx="15.43" ry="7.184"/></g><path d="M1007.595 659.405H255.921c-1.281 0-2.32-.71-2.32-1.587s1.039-1.587 2.32-1.587h751.674c1.281 0 2.32.71 2.32 1.587s-1.039 1.587-2.32 1.587z" fill="#cbcbcb"/><g fill="#f1f1f1"><path d="M983.236 659.603l.839-1.487c-11.245-5.83-25.24-13.085-32.55-24.991-7.206-11.737-7.367-27.675-.422-41.594 5.911-11.846 16.769-22.46 31.399-30.693 2.886-1.624 5.915-3.163 8.845-4.652 7.082-3.598 14.404-7.318 20.442-12.596 8.316-7.27 14.608-19.469 9.919-30.336-3.147-7.076-10.219-11.819-18.232-12.228l-.099 1.688c7.341.373 13.821 4.717 16.707 11.198 4.358 10.098-1.621 21.557-9.482 28.43-5.873 5.134-13.095 8.803-20.08 12.352l-8.912 4.688c-14.935 8.404-26.034 19.269-32.097 31.421-7.195 14.42-7.007 30.966.493 43.182 7.558 12.309 21.793 19.689 33.23 25.618z"/><ellipse cx="958.114" cy="597.417" rx="14.791" ry="7.184"/><ellipse cx="928.531" cy="597.417" rx="14.791" ry="7.184"/></g><path d="M833.784 501.134c2.739-2.609 2.753-6.853.031-9.479-.29-.28-.606-.535-.943-.762l3.467-14.952-8.965-4.236-4.586 21.181c-2.015 3.181-.959 7.326 2.36 9.258 2.776 1.617 6.346 1.199 8.636-1.01h0zm98.034.328c2.52-2.805 2.191-7.037-.735-9.453a6.97 6.97 0 0 0-1.001-.689l2.25-15.164-9.28-3.558-2.863 21.457c-1.753 3.321-.365 7.375 3.1 9.055 2.899 1.406 6.425.724 8.529-1.648h0zm-71.624 148.826h-8.764l-4.168-33.801 12.933.001z" class="H"/><use xlink:href="#G" fill="#2f2e41"/><path d="M889.5 650.288h-8.763l-4.169-33.801 12.934.001z" class="H"/><use xlink:href="#G" x="29.306" fill="#2f2e41"/><path d="M910.913 365.914l9.857-3.41s4.184.852 4.184 11.728 11.112 112.315 11.112 112.315l-19.446 4.908-10.991-96.24 5.284-29.301zm-65.871 0l-9.857-3.41s-4.184.852-4.184 11.728-11.112 112.315-11.112 112.315l19.446 4.908 10.991-96.24-5.284-29.301z" class="B"/><path d="M845.168 481.606l-2.694 76.198 5.965 84.289 15.371.34 2.237-78.627 12.676-39.313-1.279 115.874 17.405-.199 10.78-79.72s14.235-65.975 6.341-78.842l-36.356-11.589-30.446 11.589z" fill="#111"/><path d="M845.465 472.424l-.877 18.33s12.266 5.851 33.827 2.287 35.892-1.215 35.892-1.215l-1.655-23.367-67.187 3.965z" fill="#e5e5e5"/><path d="M834.793 362.775l28.351-11.909 1.691-6.237 27.58.766 1.192 6.372 27.164 10.738-11.968 39.892 1.227 28.063 14.925 51.147s-12.589 10.248-42.832 5.839l-5.219-10.08-3.192 10.66s-26.52 9.352-33.87-2.822l5.326-87.942-10.375-34.487z" class="I"/><circle cx="875.952" cy="321.213" r="17.556" class="H"/><path d="M896.812 314.41c-.314-1.429-.918-2.778-1.774-3.964-.341-3.28-1.436-6.437-3.197-9.224-.69-1.306-1.67-2.437-2.864-3.306a8.46 8.46 0 0 0-4.507-1.124c-.286-.005-.801.082-1.264.103l-.896-.251c-.175-.389-.522-1.524-.619-1.448l-1.308 1.039-1.667-.23-.609-1.738c-.329.518-.618 1.061-.864 1.624l-1.667-.029-1.111-1.068a1.57 1.57 0 0 1-1.226 1.201l-1.529.203c-.041 0-.083 0-.124-.001-2.737-.068-5.683-.191-7.972 1.312-1.071.735-1.943 1.725-2.537 2.88l-.834.581a9.1 9.1 0 0 0-2.348 2.328c-.461.787-.811 1.634-1.039 2.517-.874 2.658-1.278 5.447-1.196 8.244.094 2.816 1.156 5.513 3.008 7.636 1.174 1.261 2.666 2.193 3.842 3.453 2.42 2.594 2.874 6.212 4.945 8.957 2.19 2.903 6.186 4.814 9.696 5.361a16.2 16.2 0 0 0 12.066-3.009c.822-.573 1.521-1.305 2.054-2.154 1.218-2.107.702-4.756 1.154-7.147.849-4.482 5.128-8.244 4.387-12.746z" fill="#111"/><g class="C"><use xlink:href="#H"/><path d="M366.862 218.91h1.325v70.888h-1.325zm0 91.989h1.325v62.374h-1.325zm-1.988 72.312h102.688v1.325H364.874zm-43.725 17.888h1.325v56.313h-1.325zm11.925 66.25h155.688v1.325H333.074zM617.288 173.86h1.325v66.913h-1.325zM509.94 251.373h97.411v1.325H509.94zm-11.24 10.6h1.325v89.438H498.7z"/><path d="M367.524 311.66c-6.22 0-11.263-5.042-11.263-11.263s5.042-11.263 11.263-11.263 11.263 5.042 11.263 11.263a11.28 11.28 0 0 1-11.263 11.263zm0-21.2a9.94 9.94 0 0 0-9.938 9.938 9.94 9.94 0 0 0 9.938 9.938 9.94 9.94 0 0 0 9.938-9.938 9.95 9.95 0 0 0-9.938-9.938z"/><use xlink:href="#I"/></g><circle cx="368.186" cy="383.874" r="10.6" class="B"/><path d="M641.801 299.735h109.976v1.325H641.801zm-11.263 11.164h1.325v62.374h-1.325zm-98.713 72.312h88.113v1.325h-88.113zm155.026 5.962h91.426v1.325h-91.426zm-10.6 11.926h1.325v56.313h-1.325zm-166.289 66.25H665.65v1.325H509.962zM498.7 416.336h1.325v41.075H498.7z" class="C"/><circle cx="631.2" cy="300.398" r="10.6" class="B"/><g class="C"><path d="M617.951 262.635c-6.22 0-11.263-5.042-11.263-11.263s5.042-11.263 11.263-11.263 11.263 5.042 11.263 11.263a11.28 11.28 0 0 1-11.263 11.263zm0-21.2a9.94 9.94 0 0 0-9.938 9.938 9.94 9.94 0 0 0 9.938 9.938 9.94 9.94 0 0 0 9.938-9.938c-.007-5.486-4.453-9.932-9.938-9.938h0zm-118.589 21.2c-6.22 0-11.263-5.042-11.263-11.263s5.042-11.263 11.263-11.263 11.263 5.042 11.263 11.263a11.28 11.28 0 0 1-11.263 11.263zm0-21.2a9.94 9.94 0 0 0-9.938 9.938 9.94 9.94 0 0 0 9.938 9.938 9.94 9.94 0 0 0 9.938-9.938 9.95 9.95 0 0 0-9.938-9.938h0z"/><use xlink:href="#I" x="353.777" y="-77.513"/></g><circle cx="676.251" cy="468.012" r="10.6" class="B"/><g class="C"><use xlink:href="#I" x="176.888"/><path d="M630.538 395.136c-6.22 0-11.263-5.042-11.263-11.263s5.042-11.263 11.263-11.263 11.263 5.042 11.263 11.263h0a11.28 11.28 0 0 1-11.263 11.263zm0-21.2a9.94 9.94 0 0 0-9.938 9.938 9.94 9.94 0 0 0 9.938 9.938 9.94 9.94 0 0 0 9.938-9.938 9.95 9.95 0 0 0-9.938-9.938zm-308.064-5.963c-7.318 0-13.25 5.932-13.25 13.25s5.932 13.25 13.25 13.25 13.25-5.932 13.25-13.25c-.022-7.308-5.941-13.228-13.25-13.25zm0 3.975c2.195 0 3.975 1.78 3.975 3.975s-1.78 3.975-3.975 3.975-3.975-1.78-3.975-3.975a3.99 3.99 0 0 1 3.975-3.975zm0 19.137c-3.188-.015-6.163-1.602-7.95-4.243.064-2.65 5.3-4.109 7.95-4.109s7.886 1.459 7.95 4.109a9.67 9.67 0 0 1-7.95 4.243z"/><use xlink:href="#H" x="-249.764" y="45.713"/><use xlink:href="#J"/><use xlink:href="#J" x="25.175" y="89.438"/></g><path d="M500.209 375.703l-1.357 5.442c1.539.384 6.283 1.948 7.051-1.132.8-3.211-4.155-3.927-5.694-4.31zm-2.042 8.189l-1.497 6.001c1.848.459 7.547 2.289 8.39-1.096.88-3.531-5.045-4.444-6.893-4.905zm8.178-24.391c-13.311-3.319-26.792 4.781-30.111 18.092s4.781 26.792 18.092 30.111 26.791-4.781 30.11-18.091a24.84 24.84 0 0 0-18.083-30.109zm4.944 20.562c-.358 2.42-1.699 3.592-3.481 4.002 2.445 1.273 3.69 3.226 2.504 6.611-1.471 4.204-4.967 4.559-9.614 3.679l-1.128 4.521-2.726-.679 1.113-4.461-2.172-.563-1.117 4.481-2.723-.68 1.128-4.529-1.943-.501-3.547-.885 1.353-3.12s2.009.535 1.982.495c.521.167 1.079-.12 1.247-.641l1.785-7.153.288.072a2.33 2.33 0 0 0-.283-.091l1.271-5.102a1.45 1.45 0 0 0-1.27-1.585c.043-.029-1.98-.492-1.98-.492l.725-2.912 3.76.939-.003.014 1.741.409 1.117-4.477 2.724.679-1.094 4.389 2.184.513 1.087-4.36 2.726.679-1.116 4.479c3.439 1.186 5.956 2.963 5.462 6.269h0z" class="B"/><use xlink:href="#K" class="D"/><path d="M667.927 192.714h110.609v-30.361H667.927v30.361z" class="E"/><path d="M764.574 186.415c-.893 0-1.617.724-1.617 1.617s.724 1.617 1.617 1.617h0 6.469c.893 0 1.617-.724 1.617-1.617s-.724-1.617-1.617-1.617h-6.469z" class="B"/><g class="D"><path d="M697.981 183.278h74.68v.426h-74.68z"/><circle cx="682.371" cy="177.534" r="9.42"/></g><path d="M698.1 180.902l-.236-.354 7.76-5.173 5.321 2.555 7.654-4.89.103.044 15.123 6.451 12.125-5.956 11.774 4.774 14.795 3.007.282.319-14.992-2.832-11.842-4.801-12.13 5.958-15.199-6.483-7.665 4.897-5.317-2.552-7.556 5.036z" class="C"/><path d="M699.364 186.638c-.764.012-1.373.641-1.361 1.405.012.746.614 1.349 1.361 1.361h14.468c.764.012 1.393-.597 1.405-1.361s-.597-1.392-1.36-1.405h-.044-14.469z" class="D"/><path d="M686.16 177.417c-.221-.221-.578-.221-.799 0h0l-2.425 2.425v-5.98c-.003-.312-.258-.563-.57-.56s-.557.252-.56.56v5.98l-2.425-2.425c-.221-.221-.578-.221-.799 0s-.221.576-.002.797l.002.002 3.39 3.39c.221.221.578.221.799 0l3.39-3.39c.22-.221.22-.579-.001-.799z" class="E"/><use xlink:href="#K" x="145.912" y="61.978" class="D"/><path d="M813.839 254.692h110.609v-30.361H813.839v30.361z" class="E"/><use xlink:href="#L" class="B"/><path d="M843.894 245.257h74.68v.426h-74.68z" class="D"/><circle cx="828.283" cy="239.512" r="9.42" class="B"/><path d="M844.012 242.88l-.236-.354 7.76-5.173 5.322 2.555 7.654-4.89.103.044 15.123 6.451 12.126-5.956 11.774 4.773 14.795-13.104.282.319-14.992 13.278-11.842-4.801-12.13 5.958-15.199-6.483-7.665 4.897-5.315-2.551-7.56 5.037z" class="C"/><path d="M845.277 248.616c-.764-.012-1.393.597-1.405 1.36s.597 1.393 1.36 1.405h0 0 .045 14.468c.764-.012 1.373-.641 1.361-1.405-.012-.746-.614-1.349-1.361-1.361h-14.468z" class="D"/><path d="M824.494 239.629c.221.221.578.221.799 0h0l2.425-2.425v5.98c0 .312.253.565.565.565s.565-.253.565-.565v-5.98l2.425 2.425c.221.221.578.221.799 0s.221-.578 0-.799h0l-3.39-3.39c-.221-.221-.578-.221-.799 0l-3.39 3.39c-.22.221-.22.578.001.799h0z" class="E"/><use xlink:href="#K" x="139.045" y="1.012" class="D"/><path d="M806.972 193.726h110.609v-30.361H806.972v30.361z" class="E"/><use xlink:href="#L" x="-6.868" y="-60.966" class="B"/><path d="M837.026 184.291h74.68v.426h-74.68z" class="D"/><circle cx="821.416" cy="178.546" r="9.42" class="B"/><path d="M837.144 181.915l-.236-.354 7.76-5.174 5.321 2.555 7.655-4.892 15.226 6.495 12.125-5.956 11.773 4.775 14.795-5.943.282.319-14.991 6.118-11.842-4.801-12.13 5.958-15.199-6.483-7.664 4.897-5.317-2.552-7.558 5.038z" class="C"/><path d="M838.409 187.65c-.764.012-1.373.641-1.361 1.405.012.746.614 1.349 1.361 1.361h14.468c.764.012 1.393-.597 1.405-1.36s-.597-1.393-1.36-1.405h-.045-14.468z" class="D"/><path d="M817.627 178.663c.221.221.578.221.799 0h0 0l2.425-2.425v5.98c.001.312.256.564.568.562s.559-.25.562-.559v-5.984l2.425 2.425c.22.221.578.222.799.002s.222-.578.002-.799h0l-.002-.002-3.39-3.39c-.221-.221-.578-.221-.799 0l-3.39 3.39c-.22.222-.22.579.001.8z" class="E"/><path d="M826.328 569.146a4.47 4.47 0 0 1 4.468 4.468v11.617a4.47 4.47 0 0 1-4.468 4.468 4.47 4.47 0 0 1 4.468 4.468v11.617a4.47 4.47 0 0 1-4.468 4.468 4.47 4.47 0 0 1 4.468 4.468v11.617a4.47 4.47 0 0 1-4.468 4.468 4.47 4.47 0 0 1 4.468 4.468v11.617a4.47 4.47 0 0 1-4.468 4.468h-46.914a4.47 4.47 0 0 1-4.468-4.468v-11.617a4.47 4.47 0 0 1 4.468-4.468 4.47 4.47 0 0 1-4.468-4.468V614.72a4.47 4.47 0 0 1 4.468-4.468 4.47 4.47 0 0 1-4.468-4.468v-11.617a4.47 4.47 0 0 1 4.468-4.468 4.47 4.47 0 0 1-4.468-4.468v-11.617a4.47 4.47 0 0 1 4.468-4.468 4.47 4.47 0 0 1-4.468-4.468v-11.617a4.47 4.47 0 0 1 4.468-4.468h46.914a4.47 4.47 0 0 1 4.468 4.468v11.617a4.47 4.47 0 0 1-4.468 4.468z" fill="#d69741"/><path d="M830.796 594.17v11.617a4.47 4.47 0 0 1-4.468 4.468h-46.914a4.47 4.47 0 0 1-4.468-4.468v-4.468h8.936 18.989 18.989c4.577 0 8.348-3.441 8.872-7.878.038.238.064.48.064.729zm-.065-41.838c-.524 4.436-4.295 7.878-8.871 7.878h-37.978c-4.577 0-8.348-3.441-8.871-7.878a4.49 4.49 0 0 0-.065.729v11.617a4.47 4.47 0 0 0 4.468 4.468h46.914a4.47 4.47 0 0 0 4.468-4.468v-11.617a4.5 4.5 0 0 0-.065-.729zm-8.871 28.713h-37.978c-4.577 0-8.348-3.441-8.871-7.878a4.49 4.49 0 0 0-.065.729v11.617a4.47 4.47 0 0 0 4.468 4.468h46.914a4.47 4.47 0 0 0 4.468-4.468v-11.617a4.49 4.49 0 0 0-.065-.729c-.524 4.436-4.294 7.878-8.871 7.878zm0 40.882h-37.978c-4.577 0-8.348-3.441-8.871-7.878a4.49 4.49 0 0 0-.065.729v11.617a4.47 4.47 0 0 0 4.468 4.468h46.914a4.47 4.47 0 0 0 4.468-4.468v-11.617a4.49 4.49 0 0 0-.065-.729c-.524 4.437-4.294 7.878-8.871 7.878zm0 20.495h-37.978c-4.577 0-8.348-3.441-8.871-7.878a4.49 4.49 0 0 0-.065.729v11.617a4.47 4.47 0 0 0 4.468 4.468h46.914a4.47 4.47 0 0 0 4.468-4.468v-11.617a4.49 4.49 0 0 0-.065-.729c-.524 4.436-4.294 7.878-8.871 7.878z" fill="#b25d26"/><path d="M803.988 624.55c0 14.806-12.002 26.808-26.808 26.808s-26.808-12.002-26.808-26.808 12.003-26.808 26.808-26.808 26.808 12.002 26.808 26.808z" fill="#e8ba52"/><path d="M799.52 624.55c0 12.338-10.002 22.34-22.34 22.34s-22.34-10.002-22.34-22.34 10.002-22.34 22.34-22.34 22.34 10.002 22.34 22.34z" fill="#fed766"/><path d="M789.945,624.55c0,7.05-5.715,12.766-12.766,12.766s-12.766-5.716-12.766-12.766     s5.716-12.766,12.766-12.766S789.945,617.499,789.945,624.55z" fill="#ffed80"/><path d="M791.621 624.55c0-6.256-3.999-11.593-9.574-13.595v-4.277c0-.925-.75-1.676-1.676-1.676s-1.676.75-1.676 1.676v3.511c-.498-.052-1.004-.08-1.516-.08s-1.018.028-1.516.08v-3.511c0-.925-.75-1.676-1.676-1.676s-1.676.75-1.676 1.676v4.277c-5.575 2.002-9.574 7.34-9.574 13.595s3.999 11.593 9.574 13.595v4.277c0 .925.75 1.676 1.676 1.676s1.676-.75 1.676-1.676v-3.511c.498.052 1.004.08 1.516.08s1.018-.028 1.516-.08v3.511c0 .925.75 1.676 1.676 1.676s1.676-.75 1.676-1.676v-4.277c5.575-2.002 9.574-7.34 9.574-13.595zm-25.532 0c0-4.37 2.541-8.157 6.223-9.963v19.925c-3.681-1.806-6.223-5.592-6.223-9.962zm11.09 11.09c-.514 0-1.02-.038-1.516-.106v-21.968c.496-.068 1.002-.106 1.516-.106s1.02.038 1.516.106v21.968c-.496.068-1.001.106-1.516.106zm4.867-1.128v-19.925c3.682 1.806 6.223 5.593 6.223 9.963s-2.541 8.156-6.223 9.962z" fill="#ad8653"/><path d="M631.316 525.678c-15.19-25.771-55.789-14.241-55.938-14.198-11.685 14.782-26.974 37.68-34.062 63.479-12.293 44.747 2.81 67.294 2.81 67.294s8.43 17.344 57.603 12.487c16.772-1.656 32.026-1.069 44.906-1.342h0c21.801-43.843-.1-101.901-15.319-127.72z" class="I"/><path d="M688.484 619.36c1.054-39.197-35.519-107.984-61.466-125.221H590.6s-6.64 6.486-15.222 17.342c.15-.043 40.748-11.573 55.938 14.198 15.219 25.819 37.119 83.877 15.318 127.72h0c25.002-.53 41.051-4.304 41.85-34.039z" class="B"/><path d="M590.6 494.138s-30.499-44.146-9.04-43.416 17.486 8.404 30.942 6.942 16.046-10.962 31.585-5.115-20.349 45.673-20.349 45.673l-33.138-4.084z" class="I"/><path d="M622.572 553.844c2.863 0 5.206-2.314 5.206-5.141s-2.343-5.141-5.206-5.141h-29.414-11.818c-2.863 0-5.206 2.314-5.206 5.141s2.343 5.141 5.206 5.141h11.818c5.05 0 9.371 2.931 11.349 7.198h-23.115c-2.863 0-5.206 2.314-5.206 5.141s2.343 5.141 5.206 5.141h23.115c-1.978 4.216-6.299 7.198-11.349 7.198H581.34c-2.134 0-4.061 1.285-4.842 3.239s-.312 4.216 1.25 5.656l29.466 27.507c.989.925 2.291 1.388 3.592 1.388 1.406 0 2.759-.566 3.8-1.594 1.978-2.057 1.874-5.296-.208-7.249l-19.991-18.663c10.256-.565 18.742-7.815 21.032-17.429h7.132c2.863 0 5.206-2.314 5.206-5.141s-2.343-5.141-5.206-5.141h-7.132c-.625-2.571-1.666-5.039-3.124-7.198h10.256v-.053z" fill="#e4f3f8"/><path d="M609.055 654.154s-31.214 0-39.323-16.844c0 0-1.52 13.254 10.832 18.197 0 0 21.938.633 28.491-1.353zm11.309-170.092s10.225-15.199 12.977-33.395c0 0 21.089-1.934 13.293 14.083 0 0-3.367 10.54-16.35 25.697l-9.92-6.385z" class="B"/><path d="M590.9 495.798c-1.142.02-2.267-.52-2.938-1.53a3.36 3.36 0 0 1 .973-4.687c.714-.467 17.787-11.341 41.529-2.975 1.787.63 2.719 2.57 2.081 4.335s-2.598 2.685-4.39 2.055c-20.388-7.181-34.838 1.864-35.443 2.252a3.46 3.46 0 0 1-1.812.55z" fill="#11116d"/><g fill="#171282"><path d="M635.089 501.298a3.46 3.46 0 0 1-1.134-.191c-29.93-10.335-49.104-.326-49.292-.223a3.46 3.46 0 0 1-4.66-1.357c-.908-1.646-.292-3.706 1.374-4.602.887-.477 22.073-11.536 54.845-.223 1.791.618 2.736 2.553 2.109 4.322-.494 1.399-1.822 2.274-3.242 2.274z"/><path d="M614.536 525.964a3.45 3.45 0 0 1-1.337-.269c-1.747-.731-2.564-2.721-1.824-4.447 8.778-20.482 1.251-24.537 1.173-24.575.072.035-.36-.218-.36-.218l3.087-6.009c.386.157 3.833 1.672 5.822 6.449 2.673 6.42 1.531 15.504-3.395 26.997-.556 1.294-1.828 2.072-3.166 2.072z"/><path d="M643.658 535.628c-1.879.25-3.607-1.05-3.863-2.904h0c-.008-.062-.9-6.271-4.118-13.376-4.173-9.219-10.105-15.559-17.631-18.843-1.735-.758-2.52-2.76-1.754-4.475s2.794-2.488 4.531-1.732c21.713 9.476 25.623 36.374 25.779 37.514.255 1.858-1.063 3.566-2.944 3.816z"/></g><g class="F"><path d="M420.408 634.653s53.664-3.018 107.328 0H420.408z" class="J"/><path d="M420.408 648.785v-14.133h107.328v14.133z" class="G"/></g><defs><path id="A" transform="matrix(0 -1 1 0 -167.6477 1115.7915)" d="M467.006 588.056h14.133v107.328h-14.133z"/><path id="B" d="M421.563 323.899a1.26 1.26 0 0 0-1.259 1.259v19.516a1.26 1.26 0 0 0 1.259 1.259 1.26 1.26 0 0 0 1.259-1.259v-19.516a1.26 1.26 0 0 0-1.259-1.259z"/><path id="C" d="M479.364 334.514c-.621.013-1.114.527-1.101 1.148.013.603.498 1.088 1.101 1.101h53.016c.621.024 1.143-.46 1.167-1.081s-.46-1.143-1.081-1.167h-53.102v-.001z"/><path id="D" d="M539.289 457.007h-86.754a1.61 1.61 0 0 1-1.607-1.607v-21.519a1.61 1.61 0 0 1 1.607-1.607h86.754a1.61 1.61 0 0 1 1.607 1.607v21.52a1.61 1.61 0 0 1-1.607 1.606h0zm-86.754-24.09c-.532.001-.963.432-.964.964v21.52c.001.532.432.963.964.964l76.899-.758c.532-.001 8.601-3.01 8.602-3.542l2.217-18.184c-.001-.532-.432-.963-.964-.964h-86.754z"/><path id="E" d="M479.364 443.349c-.621-.013-1.135.48-1.148 1.101s.48 1.135 1.101 1.148h.048 53.016c.621.024 1.143-.46 1.167-1.081s-.46-1.143-1.081-1.167h-53.102v-.001z"/><path id="F" d="M542.83 479.748h-9.007c-.311 0-.563-.252-.563-.563s.252-.563.563-.563h9.007c.311 0 .563.252.563.563s-.252.563-.563.563h0z"/><path id="G" d="M862.429 658.783l-28.256-.001v-.357a11 11 0 0 1 10.998-10.998h.001l17.258.001-.001 11.355z"/><path id="H" d="M617.95 141.397c-7.318 0-13.25 5.932-13.25 13.25s5.932 13.25 13.25 13.25 13.25-5.932 13.25-13.25a13.29 13.29 0 0 0-13.25-13.25zm0 3.975c2.195 0 3.975 1.78 3.975 3.975s-1.78 3.975-3.975 3.975-3.975-1.78-3.975-3.975a3.99 3.99 0 0 1 3.975-3.975zm0 19.136c-3.188-.015-6.163-1.602-7.95-4.243.064-2.65 5.3-4.109 7.95-4.109s7.886 1.459 7.95 4.109c-1.788 2.639-4.762 4.226-7.95 4.243z"/><path id="I" d="M322.474 479.274c-6.22 0-11.263-5.042-11.263-11.263s5.042-11.263 11.263-11.263 11.263 5.042 11.263 11.263h0a11.28 11.28 0 0 1-11.263 11.263zm0-21.2a9.94 9.94 0 0 0-9.938 9.938 9.94 9.94 0 0 0 9.938 9.938 9.94 9.94 0 0 0 9.938-9.938h0a9.95 9.95 0 0 0-9.938-9.938z"/><path id="J" d="M770.326 286.485c-7.318 0-13.25 5.932-13.25 13.25s5.932 13.25 13.25 13.25 13.25-5.932 13.25-13.25c-.021-7.308-5.941-13.228-13.25-13.25zm0 3.975c2.195 0 3.975 1.78 3.975 3.975s-1.78 3.975-3.975 3.975-3.975-1.78-3.975-3.975a3.99 3.99 0 0 1 3.975-3.975zm0 19.137c-3.188-.015-6.163-1.602-7.95-4.243.064-2.65 5.3-4.109 7.95-4.109s7.886 1.459 7.95 4.109a9.67 9.67 0 0 1-7.95 4.243z"/><path id="K" d="M666.457 159.907c-.539.001-.976.437-.976.976v33.301c.001.539.437.976.976.976h113.55c.539-.001.976-.437.976-.976v-33.301c-.001-.539-.437-.976-.976-.976h-113.55z"/><path id="L" d="M910.487 248.394c-.893 0-1.617.724-1.617 1.617s.724 1.617 1.617 1.617h6.469c.893 0 1.617-.724 1.617-1.617s-.724-1.617-1.617-1.617h-6.469z"/></defs><clipPath id="M"><use xlink:href="#A"/></clipPath><g clip-path="url(#M)" fill="none" stroke="#f3d74a" class="K L"><path d="M425.238 653.229v-20.791m8.203 20.386v-20.79m8.204 20.385v-20.79m8.203 19.91v-20.79m8.204 21.464v-20.791m8.203 20.791v-20.791m8.204 21.843v-20.79m8.203 19.738v-20.791m24.611 21.727v-20.79m-16.407 19.854v-20.791m24.61 20.768V631.4m-16.407 21.208v-20.79m24.611 20.106v-20.79"/></g><g class="F"><path d="M415.798 618.269s53.664-3.018 107.328 0H415.798z" class="J"/><path d="M415.798 632.402v-14.133h107.328v14.133z" class="G"/></g><defs><path id="N" transform="matrix(0 -1 1 0 -155.8733 1094.7966)" d="M462.395 571.671h14.133v107.328h-14.133z"/></defs><clipPath id="O"><use xlink:href="#N"/></clipPath><g clip-path="url(#O)" fill="none" stroke="#f3d74a" class="K L"><path d="M420.628 636.844v-20.79m8.203 20.385v-20.79m8.203 20.385v-20.79m8.204 19.911v-20.79m8.203 21.463v-20.79m8.204 20.79v-20.79m8.203 21.843V616.09m8.204 19.738v-20.79m24.61 21.726v-20.79m-16.407 19.854v-20.79m24.611 20.767v-20.79m-16.407 21.208v-20.79m24.61 20.107v-20.791"/></g><g class="F"><ellipse cx="509.867" cy="605.975" rx="48.981" ry="48.373" class="G"/><g fill="#f3d74a"><ellipse cx="507.746" cy="605.975" rx="48.981" ry="48.373"/><ellipse cx="507.746" cy="605.975" rx="48.981" ry="48.373"/></g><ellipse cx="507.746" cy="605.975" rx="39.495" ry="39.004" class="G"/></g><path d="M507.746 566.971l-.866.011c21.412.455 38.629 17.738 38.629 38.993s-17.217 38.538-38.629 38.993l.866.011c21.812 0 39.495-17.463 39.495-39.004s-17.683-39.004-39.495-39.004z" class="J"/><g fill="#c48d08"><path d="M470.902 605.975c0-21.103 16.971-38.289 38.169-38.98l-1.326-.024c-21.812 0-39.495 17.463-39.495 39.004s17.682 39.004 39.495 39.004c.444 0 .885-.01 1.326-.024-21.198-.691-38.169-17.877-38.169-38.98z"/><path d="M513.885 590.043a19.56 19.56 0 0 1 3.082 6.434h7.215l-2.802 8.302h-3.993c-1.191 8.579-7.215 15.289-15.762 16.465l12.991 18.103H504.39l-12.921-17.895v-8.302h7.005c5.114 0 9.457-3.528 10.508-8.302h-19.404l2.802-8.302h15.972c-1.611-3.805-5.464-6.434-9.877-6.434h-8.897l2.802-8.302h31.803l-2.802 8.302h-7.495v-.069z" class="F"/></g><path d="M515.751 588.323a19.56 19.56 0 0 1 3.082 6.434h7.215l-2.802 8.302h-3.993c-1.191 8.579-7.215 15.289-15.762 16.465l12.991 18.103h-10.227l-12.921-17.895v-8.302h7.005c5.114 0 9.457-3.528 10.508-8.302h-19.404l2.802-8.302h15.972c-1.611-3.805-5.464-6.434-9.877-6.434h-8.897l2.802-8.302h31.804l-2.802 8.302h-7.495v-.069z" fill="#f3d74a" class="F"/></svg>