<?xml version="1.0" encoding="UTF-8"?>
<!DOCTYPE svg PUBLIC "-//W3C//DTD SVG 1.1//EN" "http://www.w3.org/Graphics/SVG/1.1/DTD/svg11.dtd">
<!-- Creator: CorelDRAW 2020 (64-Bit Evaluation Version) -->
<svg xmlns="http://www.w3.org/2000/svg" xml:space="preserve" width="99px" height="61px" version="1.1" style="shape-rendering:geometricPrecision; text-rendering:geometricPrecision; image-rendering:optimizeQuality; fill-rule:evenodd; clip-rule:evenodd"
viewBox="0 0 24.14 14.82"
 xmlns:xlink="http://www.w3.org/1999/xlink"
 xmlns:xodm="http://www.corel.com/coreldraw/odm/2003">
 <defs>
  <style type="text/css">
   <![CDATA[
    .str0 {stroke:#3C5BA3;stroke-width:0.02;stroke-miterlimit:2.61313;stroke-opacity:0.200000}
    .str1 {stroke:#C79610;stroke-width:0.01;stroke-miterlimit:2.61313}
    .fil1 {fill:none}
    .fil2 {fill:#5378DE}
    .fil0 {fill:#5C85F7}
    .fil13 {fill:black;fill-rule:nonzero}
    .fil10 {fill:#0B0C0D;fill-rule:nonzero}
    .fil11 {fill:#1B1823;fill-rule:nonzero}
    .fil12 {fill:#21212B;fill-rule:nonzero}
    .fil5 {fill:#263138;fill-rule:nonzero}
    .fil14 {fill:#393244;fill-rule:nonzero}
    .fil15 {fill:#5F1D0F;fill-rule:nonzero}
    .fil6 {fill:#C79610;fill-rule:nonzero}
    .fil8 {fill:#D4B19D;fill-rule:nonzero}
    .fil4 {fill:#EFB30C;fill-rule:nonzero}
    .fil9 {fill:#F8F9FC;fill-rule:nonzero}
    .fil3 {fill:white;fill-rule:nonzero}
    .fil7 {fill:black;fill-rule:nonzero;fill-opacity:0.301961}
   ]]>
  </style>
 </defs>
 <g id="Layer_x0020_1">
  <metadata id="CorelCorpID_0Corel-Layer"/>
  <g id="_2403645465552">
   <rect class="fil0" x="0.01" y="0.01" width="24.12" height="14.79"/>
   <g>
    <g>
     <line class="fil1 str0" x1="0.01" y1="0.01" x2="0.01" y2= "14.8" />
     <line class="fil1 str0" x1="1.22" y1="0.01" x2="1.22" y2= "14.8" />
     <line class="fil1 str0" x1="2.42" y1="0.01" x2="2.42" y2= "14.8" />
     <line class="fil1 str0" x1="3.63" y1="0.01" x2="3.63" y2= "14.8" />
     <line class="fil1 str0" x1="4.84" y1="0.01" x2="4.84" y2= "14.8" />
     <line class="fil1 str0" x1="6.04" y1="0.01" x2="6.04" y2= "14.8" />
     <line class="fil1 str0" x1="7.25" y1="0.01" x2="7.25" y2= "14.8" />
     <line class="fil1 str0" x1="8.45" y1="0.01" x2="8.45" y2= "14.8" />
     <line class="fil1 str0" x1="9.66" y1="0.01" x2="9.66" y2= "14.8" />
     <line class="fil1 str0" x1="10.87" y1="0.01" x2="10.87" y2= "14.8" />
     <line class="fil1 str0" x1="12.07" y1="0.01" x2="12.07" y2= "14.8" />
     <line class="fil1 str0" x1="13.28" y1="0.01" x2="13.28" y2= "14.8" />
     <line class="fil1 str0" x1="14.48" y1="0.01" x2="14.48" y2= "14.8" />
     <line class="fil1 str0" x1="15.69" y1="0.01" x2="15.69" y2= "14.8" />
     <line class="fil1 str0" x1="16.89" y1="0.01" x2="16.89" y2= "14.8" />
     <line class="fil1 str0" x1="18.1" y1="0.01" x2="18.1" y2= "14.8" />
     <line class="fil1 str0" x1="19.31" y1="0.01" x2="19.31" y2= "14.8" />
     <line class="fil1 str0" x1="20.51" y1="0.01" x2="20.51" y2= "14.8" />
     <line class="fil1 str0" x1="21.72" y1="0.01" x2="21.72" y2= "14.8" />
     <line class="fil1 str0" x1="22.92" y1="0.01" x2="22.92" y2= "14.8" />
     <line class="fil1 str0" x1="24.13" y1="0.01" x2="24.13" y2= "14.8" />
    </g>
    <g>
     <line class="fil1 str0" x1="0.01" y1="0.01" x2="24.13" y2= "0.01" />
     <line class="fil1 str0" x1="0.01" y1="1.36" x2="24.13" y2= "1.36" />
     <line class="fil1 str0" x1="0.01" y1="2.7" x2="24.13" y2= "2.7" />
     <line class="fil1 str0" x1="0.01" y1="4.05" x2="24.13" y2= "4.05" />
     <line class="fil1 str0" x1="0.01" y1="5.39" x2="24.13" y2= "5.39" />
     <line class="fil1 str0" x1="0.01" y1="6.74" x2="24.13" y2= "6.74" />
     <line class="fil1 str0" x1="0.01" y1="8.08" x2="24.13" y2= "8.08" />
     <line class="fil1 str0" x1="0.01" y1="9.42" x2="24.13" y2= "9.42" />
     <line class="fil1 str0" x1="0.01" y1="10.77" x2="24.13" y2= "10.77" />
     <line class="fil1 str0" x1="0.01" y1="12.11" x2="24.13" y2= "12.11" />
     <line class="fil1 str0" x1="0.01" y1="13.46" x2="24.13" y2= "13.46" />
     <line class="fil1 str0" x1="0.01" y1="14.8" x2="24.13" y2= "14.8" />
    </g>
   </g>
   <polygon class="fil2" points="11.02,14.8 0.01,14.8 19.31,5.39 21.22,9.8 "/>
   <g>
    <g>
     <g>
      <g>
       <path class="fil3" d="M18.76 5.86l3.01 0c0.12,0 0.18,-0.15 0.1,-0.24l-1.5 -1.53c-0.06,-0.06 -0.15,-0.06 -0.2,0l-1.51 1.53c-0.08,0.09 -0.02,0.24 0.1,0.24z"/>
      </g>
     </g>
    </g>
    <g>
     <g>
      <g>
       <polygon class="fil3" points="21.27,13.43 19.34,13.43 19.34,5.57 21.27,5.57 "/>
      </g>
     </g>
    </g>
   </g>
   <g>
    <g>
     <g>
      <g>
       <g>
        <g>
         <g>
          <g>
           <polygon class="fil4" points="18.4,10.65 22.67,10.65 22.67,9.79 18.4,9.79 "/>
          </g>
         </g>
        </g>
       </g>
      </g>
     </g>
     <g>
      <g>
       <g>
        <g>
         <g>
          <g>
           <g>
            <path class="fil5 str1" d="M22.4 9.8c-0.01,0 -0.02,0.19 -0.02,0.42 0,0.23 0.01,0.42 0.02,0.42 0.01,0 0.02,-0.19 0.02,-0.42 0,-0.23 -0.01,-0.42 -0.02,-0.42z"/>
           </g>
          </g>
         </g>
        </g>
       </g>
      </g>
     </g>
     <g>
      <g>
       <g>
        <g>
         <g>
          <g>
           <g>
            <path class="fil6" d="M22 9.8c-0.01,0 -0.02,0.19 -0.02,0.42 0,0.23 0.01,0.42 0.02,0.42 0.01,0 0.02,-0.19 0.02,-0.42 0,-0.23 -0.01,-0.42 -0.02,-0.42z"/>
           </g>
          </g>
         </g>
        </g>
       </g>
      </g>
     </g>
     <g>
      <g>
       <g>
        <g>
         <g>
          <g>
           <g>
            <path class="fil6" d="M21.61 9.8c-0.01,0 -0.02,0.19 -0.02,0.42 0,0.23 0.01,0.42 0.02,0.42 0.01,0 0.02,-0.19 0.02,-0.42 0,-0.23 -0.01,-0.42 -0.02,-0.42z"/>
           </g>
          </g>
         </g>
        </g>
       </g>
      </g>
     </g>
     <g>
      <g>
       <g>
        <g>
         <g>
          <g>
           <g>
            <path class="fil6" d="M21.22 9.8c-0.01,0 -0.02,0.19 -0.02,0.42 0,0.23 0.01,0.42 0.02,0.42 0.01,0 0.02,-0.19 0.02,-0.42 0,-0.23 -0.01,-0.42 -0.02,-0.42z"/>
           </g>
          </g>
         </g>
        </g>
       </g>
      </g>
     </g>
     <g>
      <g>
       <g>
        <g>
         <g>
          <g>
           <g>
            <path class="fil6" d="M20.83 9.8c-0.01,0 -0.01,0.19 -0.01,0.42 0,0.23 0,0.42 0.01,0.42 0.01,0 0.02,-0.19 0.02,-0.42 0,-0.23 -0.01,-0.42 -0.02,-0.42z"/>
           </g>
          </g>
         </g>
        </g>
       </g>
      </g>
     </g>
     <g>
      <g>
       <g>
        <g>
         <g>
          <g>
           <g>
            <path class="fil6" d="M20.44 9.8c-0.01,0 -0.01,0.19 -0.01,0.42 0,0.23 0,0.42 0.01,0.42 0.01,0 0.02,-0.19 0.02,-0.42 0,-0.23 -0.01,-0.42 -0.02,-0.42z"/>
           </g>
          </g>
         </g>
        </g>
       </g>
      </g>
     </g>
     <g>
      <g>
       <g>
        <g>
         <g>
          <g>
           <g>
            <path class="fil6" d="M20.06 9.8c-0.02,0 -0.02,0.19 -0.02,0.42 0,0.23 0,0.42 0.02,0.42 0.01,0 0.01,-0.19 0.01,-0.42 0,-0.23 0,-0.42 -0.01,-0.42z"/>
           </g>
          </g>
         </g>
        </g>
       </g>
      </g>
     </g>
     <g>
      <g>
       <g>
        <g>
         <g>
          <g>
           <g>
            <path class="fil6" d="M19.67 9.8c-0.01,0 -0.02,0.19 -0.02,0.42 0,0.23 0.01,0.42 0.02,0.42 0.01,0 0.01,-0.19 0.01,-0.42 0,-0.23 0,-0.42 -0.01,-0.42z"/>
           </g>
          </g>
         </g>
        </g>
       </g>
      </g>
     </g>
     <g>
      <g>
       <g>
        <g>
         <g>
          <g>
           <g>
            <path class="fil6" d="M19.28 9.8c-0.01,0 -0.02,0.19 -0.02,0.42 0,0.23 0.01,0.42 0.02,0.42 0.01,0 0.02,-0.19 0.02,-0.42 0,-0.23 -0.01,-0.42 -0.02,-0.42z"/>
           </g>
          </g>
         </g>
        </g>
       </g>
      </g>
     </g>
     <g>
      <g>
       <g>
        <g>
         <g>
          <g>
           <g>
            <path class="fil6" d="M18.89 9.8c-0.01,0 -0.02,0.19 -0.02,0.42 0,0.23 0.01,0.42 0.02,0.42 0.01,0 0.02,-0.19 0.02,-0.42 0,-0.23 -0.01,-0.42 -0.02,-0.42z"/>
           </g>
          </g>
         </g>
        </g>
       </g>
      </g>
     </g>
     <g>
      <g>
       <g>
        <g>
         <g>
          <g>
           <g>
            <path class="fil6" d="M18.5 9.8c-0.01,0 -0.02,0.19 -0.02,0.42 0,0.23 0.01,0.42 0.02,0.42 0.01,0 0.02,-0.19 0.02,-0.42 0,-0.23 -0.01,-0.42 -0.02,-0.42z"/>
           </g>
          </g>
         </g>
        </g>
       </g>
      </g>
     </g>
    </g>
    <g>
     <g>
      <g>
       <g>
        <g>
         <g>
          <g>
           <polygon class="fil4" points="18.31,11.49 22.58,11.49 22.58,10.63 18.31,10.63 "/>
          </g>
         </g>
        </g>
       </g>
      </g>
     </g>
     <g>
      <g>
       <g>
        <g>
         <g>
          <g>
           <g>
            <path class="fil6" d="M22.3 10.65c-0.01,0 -0.01,0.18 -0.01,0.42 0,0.23 0,0.41 0.01,0.41 0.01,0 0.02,-0.18 0.02,-0.41 0,-0.24 -0.01,-0.42 -0.02,-0.42z"/>
           </g>
          </g>
         </g>
        </g>
       </g>
      </g>
     </g>
     <g>
      <g>
       <g>
        <g>
         <g>
          <g>
           <g>
            <path class="fil6" d="M21.91 10.65c-0.01,0 -0.02,0.18 -0.02,0.42 0,0.23 0.01,0.41 0.02,0.41 0.01,0 0.02,-0.18 0.02,-0.41 0,-0.24 -0.01,-0.42 -0.02,-0.42z"/>
           </g>
          </g>
         </g>
        </g>
       </g>
      </g>
     </g>
     <g>
      <g>
       <g>
        <g>
         <g>
          <g>
           <g>
            <path class="fil6" d="M21.52 10.65c-0.01,0 -0.02,0.18 -0.02,0.42 0,0.23 0.01,0.41 0.02,0.41 0.01,0 0.01,-0.18 0.01,-0.41 0,-0.24 0,-0.42 -0.01,-0.42z"/>
           </g>
          </g>
         </g>
        </g>
       </g>
      </g>
     </g>
     <g>
      <g>
       <g>
        <g>
         <g>
          <g>
           <g>
            <path class="fil6" d="M21.13 10.65c-0.01,0 -0.02,0.18 -0.02,0.42 0,0.23 0.01,0.41 0.02,0.41 0.01,0 0.02,-0.18 0.02,-0.41 0,-0.24 -0.01,-0.42 -0.02,-0.42z"/>
           </g>
          </g>
         </g>
        </g>
       </g>
      </g>
     </g>
     <g>
      <g>
       <g>
        <g>
         <g>
          <g>
           <g>
            <path class="fil6" d="M20.74 10.65c-0.01,0 -0.02,0.18 -0.02,0.42 0,0.23 0.01,0.41 0.02,0.41 0.01,0 0.02,-0.18 0.02,-0.41 0,-0.24 -0.01,-0.42 -0.02,-0.42z"/>
           </g>
          </g>
         </g>
        </g>
       </g>
      </g>
     </g>
     <g>
      <g>
       <g>
        <g>
         <g>
          <g>
           <g>
            <path class="fil6" d="M20.35 10.65c-0.01,0 -0.02,0.18 -0.02,0.42 0,0.23 0.01,0.41 0.02,0.41 0.01,0 0.02,-0.18 0.02,-0.41 0,-0.24 -0.01,-0.42 -0.02,-0.42z"/>
           </g>
          </g>
         </g>
        </g>
       </g>
      </g>
     </g>
     <g>
      <g>
       <g>
        <g>
         <g>
          <g>
           <g>
            <path class="fil6" d="M19.96 10.65c-0.01,0 -0.02,0.18 -0.02,0.42 0,0.23 0.01,0.41 0.02,0.41 0.01,0 0.02,-0.18 0.02,-0.41 0,-0.24 -0.01,-0.42 -0.02,-0.42z"/>
           </g>
          </g>
         </g>
        </g>
       </g>
      </g>
     </g>
     <g>
      <g>
       <g>
        <g>
         <g>
          <g>
           <g>
            <path class="fil6" d="M19.57 10.65c-0.01,0 -0.02,0.18 -0.02,0.42 0,0.23 0.01,0.41 0.02,0.41 0.01,0 0.02,-0.18 0.02,-0.41 0,-0.24 -0.01,-0.42 -0.02,-0.42z"/>
           </g>
          </g>
         </g>
        </g>
       </g>
      </g>
     </g>
     <g>
      <g>
       <g>
        <g>
         <g>
          <g>
           <g>
            <path class="fil6" d="M19.18 10.65c-0.01,0 -0.02,0.18 -0.02,0.42 0,0.23 0.01,0.41 0.02,0.41 0.01,0 0.02,-0.18 0.02,-0.41 0,-0.24 -0.01,-0.42 -0.02,-0.42z"/>
           </g>
          </g>
         </g>
        </g>
       </g>
      </g>
     </g>
     <g>
      <g>
       <g>
        <g>
         <g>
          <g>
           <g>
            <path class="fil6" d="M18.79 10.65c-0.01,0 -0.02,0.18 -0.02,0.42 0,0.23 0.01,0.41 0.02,0.41 0.01,0 0.02,-0.18 0.02,-0.41 0,-0.24 -0.01,-0.42 -0.02,-0.42z"/>
           </g>
          </g>
         </g>
        </g>
       </g>
      </g>
     </g>
     <g>
      <g>
       <g>
        <g>
         <g>
          <g>
           <g>
            <path class="fil6" d="M18.4 10.65c-0.01,0 -0.02,0.18 -0.02,0.42 0,0.23 0.01,0.41 0.02,0.41 0.01,0 0.02,-0.18 0.02,-0.41 0,-0.24 -0.01,-0.42 -0.02,-0.42z"/>
           </g>
          </g>
         </g>
        </g>
       </g>
      </g>
     </g>
     <g>
      <g>
       <g>
        <g>
         <g>
          <g>
           <g>
            <path class="fil7" d="M22.51 10.63c-1.33,0.19 -2.8,0.19 -4.13,0l4.13 0z"/>
           </g>
          </g>
         </g>
        </g>
       </g>
      </g>
     </g>
     <g>
      <g>
       <g>
        <g>
         <g>
          <g>
           <g>
            <path class="fil6" d="M18.31 10.64c0,0.01 0.95,0.01 2.13,0.01 1.18,0 2.13,0 2.13,-0.01 0,-0.01 -0.95,-0.02 -2.13,-0.02 -1.18,0 -2.13,0.01 -2.13,0.02z"/>
           </g>
          </g>
         </g>
        </g>
       </g>
      </g>
     </g>
    </g>
    <g>
     <g>
      <g>
       <g>
        <g>
         <g>
          <g>
           <polygon class="fil4" points="18.71,12.33 22.98,12.33 22.98,11.47 18.71,11.47 "/>
          </g>
         </g>
        </g>
       </g>
      </g>
     </g>
     <g>
      <g>
       <g>
        <g>
         <g>
          <g>
           <g>
            <path class="fil6" d="M22.71 11.48c-0.01,0 -0.02,0.19 -0.02,0.42 0,0.23 0.01,0.42 0.02,0.42 0.01,0 0.02,-0.19 0.02,-0.42 0,-0.23 -0.01,-0.42 -0.02,-0.42z"/>
           </g>
          </g>
         </g>
        </g>
       </g>
      </g>
     </g>
     <g>
      <g>
       <g>
        <g>
         <g>
          <g>
           <g>
            <path class="fil6" d="M22.31 11.48c-0.01,0 -0.02,0.19 -0.02,0.42 0,0.23 0.01,0.42 0.02,0.42 0.01,0 0.02,-0.19 0.02,-0.42 0,-0.23 -0.01,-0.42 -0.02,-0.42z"/>
           </g>
          </g>
         </g>
        </g>
       </g>
      </g>
     </g>
     <g>
      <g>
       <g>
        <g>
         <g>
          <g>
           <g>
            <path class="fil6" d="M21.92 11.48c-0.01,0 -0.02,0.19 -0.02,0.42 0,0.23 0.01,0.42 0.02,0.42 0.01,0 0.02,-0.19 0.02,-0.42 0,-0.23 -0.01,-0.42 -0.02,-0.42z"/>
           </g>
          </g>
         </g>
        </g>
       </g>
      </g>
     </g>
     <g>
      <g>
       <g>
        <g>
         <g>
          <g>
           <g>
            <path class="fil6" d="M21.53 11.48c-0.01,0 -0.02,0.19 -0.02,0.42 0,0.23 0.01,0.42 0.02,0.42 0.01,0 0.02,-0.19 0.02,-0.42 0,-0.23 -0.01,-0.42 -0.02,-0.42z"/>
           </g>
          </g>
         </g>
        </g>
       </g>
      </g>
     </g>
     <g>
      <g>
       <g>
        <g>
         <g>
          <g>
           <g>
            <path class="fil6" d="M21.14 11.48c-0.01,0 -0.02,0.19 -0.02,0.42 0,0.23 0.01,0.42 0.02,0.42 0.01,0 0.02,-0.19 0.02,-0.42 0,-0.23 -0.01,-0.42 -0.02,-0.42z"/>
           </g>
          </g>
         </g>
        </g>
       </g>
      </g>
     </g>
     <g>
      <g>
       <g>
        <g>
         <g>
          <g>
           <g>
            <path class="fil6" d="M20.75 11.48c-0.01,0 -0.01,0.19 -0.01,0.42 0,0.23 0,0.42 0.01,0.42 0.01,0 0.02,-0.19 0.02,-0.42 0,-0.23 -0.01,-0.42 -0.02,-0.42z"/>
           </g>
          </g>
         </g>
        </g>
       </g>
      </g>
     </g>
     <g>
      <g>
       <g>
        <g>
         <g>
          <g>
           <g>
            <path class="fil6" d="M20.36 11.48c-0.01,0 -0.01,0.19 -0.01,0.42 0,0.23 0,0.42 0.01,0.42 0.01,0 0.02,-0.19 0.02,-0.42 0,-0.23 -0.01,-0.42 -0.02,-0.42z"/>
           </g>
          </g>
         </g>
        </g>
       </g>
      </g>
     </g>
     <g>
      <g>
       <g>
        <g>
         <g>
          <g>
           <g>
            <path class="fil6" d="M19.98 11.48c-0.01,0 -0.02,0.19 -0.02,0.42 0,0.23 0.01,0.42 0.02,0.42 0.01,0 0.01,-0.19 0.01,-0.42 0,-0.23 0,-0.42 -0.01,-0.42z"/>
           </g>
          </g>
         </g>
        </g>
       </g>
      </g>
     </g>
     <g>
      <g>
       <g>
        <g>
         <g>
          <g>
           <g>
            <path class="fil6" d="M19.59 11.48c-0.01,0 -0.02,0.19 -0.02,0.42 0,0.23 0.01,0.42 0.02,0.42 0.01,0 0.01,-0.19 0.01,-0.42 0,-0.23 0,-0.42 -0.01,-0.42z"/>
           </g>
          </g>
         </g>
        </g>
       </g>
      </g>
     </g>
     <g>
      <g>
       <g>
        <g>
         <g>
          <g>
           <g>
            <path class="fil6" d="M19.2 11.48c-0.01,0 -0.02,0.19 -0.02,0.42 0,0.23 0.01,0.42 0.02,0.42 0.01,0 0.02,-0.19 0.02,-0.42 0,-0.23 -0.01,-0.42 -0.02,-0.42z"/>
           </g>
          </g>
         </g>
        </g>
       </g>
      </g>
     </g>
     <g>
      <g>
       <g>
        <g>
         <g>
          <g>
           <g>
            <path class="fil6" d="M18.81 11.48c-0.01,0 -0.02,0.19 -0.02,0.42 0,0.23 0.01,0.42 0.02,0.42 0.01,0 0.02,-0.19 0.02,-0.42 0,-0.23 -0.01,-0.42 -0.02,-0.42z"/>
           </g>
          </g>
         </g>
        </g>
       </g>
      </g>
     </g>
     <g>
      <g>
       <g>
        <g>
         <g>
          <g>
           <g>
            <path class="fil7" d="M22.91 11.47c-1.33,0.18 -2.8,0.18 -4.13,0l4.13 0z"/>
           </g>
          </g>
         </g>
        </g>
       </g>
      </g>
     </g>
     <g>
      <g>
       <g>
        <g>
         <g>
          <g>
           <g>
            <path class="fil6" d="M18.71 11.47c0,0.01 0.96,0.02 2.13,0.02 1.18,0 2.13,-0.01 2.13,-0.02 0,-0.01 -0.95,-0.02 -2.13,-0.02 -1.17,0 -2.13,0.01 -2.13,0.02z"/>
           </g>
          </g>
         </g>
        </g>
       </g>
      </g>
     </g>
    </g>
    <g>
     <g>
      <g>
       <g>
        <g>
         <g>
          <g>
           <polygon class="fil4" points="18.21,13.15 22.48,13.15 22.48,12.32 18.21,12.32 "/>
          </g>
         </g>
        </g>
       </g>
      </g>
     </g>
     <g>
      <g>
       <g>
        <g>
         <g>
          <g>
           <g>
            <path class="fil6" d="M22.21 12.34c-0.01,0 -0.02,0.17 -0.02,0.4 0,0.22 0.01,0.4 0.02,0.4 0.01,0 0.02,-0.18 0.02,-0.4 0,-0.23 -0.01,-0.4 -0.02,-0.4z"/>
           </g>
          </g>
         </g>
        </g>
       </g>
      </g>
     </g>
     <g>
      <g>
       <g>
        <g>
         <g>
          <g>
           <g>
            <path class="fil6" d="M21.81 12.34c-0.01,0 -0.02,0.17 -0.02,0.4 0,0.22 0.01,0.4 0.02,0.4 0.01,0 0.02,-0.18 0.02,-0.4 0,-0.23 -0.01,-0.4 -0.02,-0.4z"/>
           </g>
          </g>
         </g>
        </g>
       </g>
      </g>
     </g>
     <g>
      <g>
       <g>
        <g>
         <g>
          <g>
           <g>
            <path class="fil6" d="M21.42 12.34c-0.01,0 -0.02,0.17 -0.02,0.4 0,0.22 0.01,0.4 0.02,0.4 0.01,0 0.02,-0.18 0.02,-0.4 0,-0.23 -0.01,-0.4 -0.02,-0.4z"/>
           </g>
          </g>
         </g>
        </g>
       </g>
      </g>
     </g>
     <g>
      <g>
       <g>
        <g>
         <g>
          <g>
           <g>
            <path class="fil6" d="M21.03 12.34c-0.01,0 -0.02,0.17 -0.02,0.4 0,0.22 0.01,0.4 0.02,0.4 0.01,0 0.02,-0.18 0.02,-0.4 0,-0.23 -0.01,-0.4 -0.02,-0.4z"/>
           </g>
          </g>
         </g>
        </g>
       </g>
      </g>
     </g>
     <g>
      <g>
       <g>
        <g>
         <g>
          <g>
           <g>
            <path class="fil6" d="M20.64 12.34c-0.01,0 -0.02,0.17 -0.02,0.4 0,0.22 0.01,0.4 0.02,0.4 0.01,0 0.02,-0.18 0.02,-0.4 0,-0.23 -0.01,-0.4 -0.02,-0.4z"/>
           </g>
          </g>
         </g>
        </g>
       </g>
      </g>
     </g>
     <g>
      <g>
       <g>
        <g>
         <g>
          <g>
           <g>
            <path class="fil6" d="M20.25 12.34c-0.01,0 -0.01,0.17 -0.01,0.4 0,0.22 0,0.4 0.01,0.4 0.01,0 0.02,-0.18 0.02,-0.4 0,-0.23 -0.01,-0.4 -0.02,-0.4z"/>
           </g>
          </g>
         </g>
        </g>
       </g>
      </g>
     </g>
     <g>
      <g>
       <g>
        <g>
         <g>
          <g>
           <g>
            <path class="fil6" d="M19.86 12.34c-0.01,0 -0.01,0.17 -0.01,0.4 0,0.22 0,0.4 0.01,0.4 0.01,0 0.02,-0.18 0.02,-0.4 0,-0.23 -0.01,-0.4 -0.02,-0.4z"/>
           </g>
          </g>
         </g>
        </g>
       </g>
      </g>
     </g>
     <g>
      <g>
       <g>
        <g>
         <g>
          <g>
           <g>
            <path class="fil6" d="M19.48 12.34c-0.02,0 -0.02,0.17 -0.02,0.4 0,0.22 0,0.4 0.02,0.4 0.01,0 0.01,-0.18 0.01,-0.4 0,-0.23 0,-0.4 -0.01,-0.4z"/>
           </g>
          </g>
         </g>
        </g>
       </g>
      </g>
     </g>
     <g>
      <g>
       <g>
        <g>
         <g>
          <g>
           <g>
            <path class="fil6" d="M19.09 12.34c-0.01,0 -0.02,0.17 -0.02,0.4 0,0.22 0.01,0.4 0.02,0.4 0.01,0 0.01,-0.18 0.01,-0.4 0,-0.23 0,-0.4 -0.01,-0.4z"/>
           </g>
          </g>
         </g>
        </g>
       </g>
      </g>
     </g>
     <g>
      <g>
       <g>
        <g>
         <g>
          <g>
           <g>
            <path class="fil6" d="M18.7 12.34c-0.01,0 -0.02,0.17 -0.02,0.4 0,0.22 0.01,0.4 0.02,0.4 0.01,0 0.02,-0.18 0.02,-0.4 0,-0.23 -0.01,-0.4 -0.02,-0.4z"/>
           </g>
          </g>
         </g>
        </g>
       </g>
      </g>
     </g>
     <g>
      <g>
       <g>
        <g>
         <g>
          <g>
           <g>
            <path class="fil6" d="M18.31 12.34c-0.01,0 -0.02,0.17 -0.02,0.4 0,0.22 0.01,0.4 0.02,0.4 0.01,0 0.02,-0.18 0.02,-0.4 0,-0.23 -0.01,-0.4 -0.02,-0.4z"/>
           </g>
          </g>
         </g>
        </g>
       </g>
      </g>
     </g>
     <g>
      <g>
       <g>
        <g>
         <g>
          <g>
           <g>
            <path class="fil7" d="M22.41 12.32c-1.33,0.23 -2.8,0.24 -4.13,0l4.13 0z"/>
           </g>
          </g>
         </g>
        </g>
       </g>
      </g>
     </g>
     <g>
      <g>
       <g>
        <g>
         <g>
          <g>
           <g>
            <path class="fil6" d="M18.21 12.32c0,0.01 0.96,0.02 2.13,0.02 1.18,0 2.13,-0.01 2.13,-0.02 0,-0.01 -0.95,-0.01 -2.13,-0.01 -1.17,0 -2.13,0 -2.13,0.01z"/>
           </g>
          </g>
         </g>
        </g>
       </g>
      </g>
     </g>
    </g>
    <g>
     <g>
      <g>
       <g>
        <g>
         <g>
          <g>
           <polygon class="fil4" points="18.49,13.98 22.76,13.98 22.76,13.15 18.49,13.15 "/>
          </g>
         </g>
        </g>
       </g>
      </g>
     </g>
     <g>
      <g>
       <g>
        <g>
         <g>
          <g>
           <g>
            <path class="fil6" d="M22.48 13.16c-0.01,0 -0.02,0.18 -0.02,0.41 0,0.22 0.01,0.4 0.02,0.4 0.01,0 0.02,-0.18 0.02,-0.4 0,-0.23 -0.01,-0.41 -0.02,-0.41z"/>
           </g>
          </g>
         </g>
        </g>
       </g>
      </g>
     </g>
     <g>
      <g>
       <g>
        <g>
         <g>
          <g>
           <g>
            <path class="fil6" d="M22.09 13.16c-0.01,0 -0.02,0.18 -0.02,0.41 0,0.22 0.01,0.4 0.02,0.4 0.01,0 0.02,-0.18 0.02,-0.4 0,-0.23 -0.01,-0.41 -0.02,-0.41z"/>
           </g>
          </g>
         </g>
        </g>
       </g>
      </g>
     </g>
     <g>
      <g>
       <g>
        <g>
         <g>
          <g>
           <g>
            <path class="fil6" d="M21.7 13.16c-0.01,0 -0.02,0.18 -0.02,0.41 0,0.22 0.01,0.4 0.02,0.4 0.01,0 0.01,-0.18 0.01,-0.4 0,-0.23 0,-0.41 -0.01,-0.41z"/>
           </g>
          </g>
         </g>
        </g>
       </g>
      </g>
     </g>
     <g>
      <g>
       <g>
        <g>
         <g>
          <g>
           <g>
            <path class="fil6" d="M21.31 13.16c-0.01,0 -0.02,0.18 -0.02,0.41 0,0.22 0.01,0.4 0.02,0.4 0.01,0 0.02,-0.18 0.02,-0.4 0,-0.23 -0.01,-0.41 -0.02,-0.41z"/>
           </g>
          </g>
         </g>
        </g>
       </g>
      </g>
     </g>
     <g>
      <g>
       <g>
        <g>
         <g>
          <g>
           <g>
            <path class="fil6" d="M20.92 13.16c-0.01,0 -0.02,0.18 -0.02,0.41 0,0.22 0.01,0.4 0.02,0.4 0.01,0 0.02,-0.18 0.02,-0.4 0,-0.23 -0.01,-0.41 -0.02,-0.41z"/>
           </g>
          </g>
         </g>
        </g>
       </g>
      </g>
     </g>
     <g>
      <g>
       <g>
        <g>
         <g>
          <g>
           <g>
            <path class="fil6" d="M20.53 13.16c-0.01,0 -0.02,0.18 -0.02,0.41 0,0.22 0.01,0.4 0.02,0.4 0.01,0 0.02,-0.18 0.02,-0.4 0,-0.23 -0.01,-0.41 -0.02,-0.41z"/>
           </g>
          </g>
         </g>
        </g>
       </g>
      </g>
     </g>
     <g>
      <g>
       <g>
        <g>
         <g>
          <g>
           <g>
            <path class="fil6" d="M20.14 13.16c-0.01,0 -0.02,0.18 -0.02,0.41 0,0.22 0.01,0.4 0.02,0.4 0.01,0 0.02,-0.18 0.02,-0.4 0,-0.23 -0.01,-0.41 -0.02,-0.41z"/>
           </g>
          </g>
         </g>
        </g>
       </g>
      </g>
     </g>
     <g>
      <g>
       <g>
        <g>
         <g>
          <g>
           <g>
            <path class="fil6" d="M19.75 13.16c-0.01,0 -0.02,0.18 -0.02,0.41 0,0.22 0.01,0.4 0.02,0.4 0.01,0 0.02,-0.18 0.02,-0.4 0,-0.23 -0.01,-0.41 -0.02,-0.41z"/>
           </g>
          </g>
         </g>
        </g>
       </g>
      </g>
     </g>
     <g>
      <g>
       <g>
        <g>
         <g>
          <g>
           <g>
            <path class="fil6" d="M19.36 13.16c-0.01,0 -0.02,0.18 -0.02,0.41 0,0.22 0.01,0.4 0.02,0.4 0.01,0 0.02,-0.18 0.02,-0.4 0,-0.23 -0.01,-0.41 -0.02,-0.41z"/>
           </g>
          </g>
         </g>
        </g>
       </g>
      </g>
     </g>
     <g>
      <g>
       <g>
        <g>
         <g>
          <g>
           <g>
            <path class="fil6" d="M18.97 13.16c-0.01,0 -0.02,0.18 -0.02,0.41 0,0.22 0.01,0.4 0.02,0.4 0.01,0 0.02,-0.18 0.02,-0.4 0,-0.23 -0.01,-0.41 -0.02,-0.41z"/>
           </g>
          </g>
         </g>
        </g>
       </g>
      </g>
     </g>
     <g>
      <g>
       <g>
        <g>
         <g>
          <g>
           <g>
            <path class="fil6" d="M18.58 13.16c-0.01,0 -0.02,0.18 -0.02,0.41 0,0.22 0.01,0.4 0.02,0.4 0.01,0 0.02,-0.18 0.02,-0.4 0,-0.23 -0.01,-0.41 -0.02,-0.41z"/>
           </g>
          </g>
         </g>
        </g>
       </g>
      </g>
     </g>
     <g>
      <g>
       <g>
        <g>
         <g>
          <g>
           <g>
            <path class="fil7" d="M22.69 13.15c-1.33,0.26 -2.8,0.27 -4.13,0l4.13 0z"/>
           </g>
          </g>
         </g>
        </g>
       </g>
      </g>
     </g>
     <g>
      <g>
       <g>
        <g>
         <g>
          <g>
           <g>
            <path class="fil6" d="M18.49 13.15c0,0.01 0.95,0.02 2.13,0.02 1.18,0 2.13,-0.01 2.13,-0.02 0,-0.01 -0.95,-0.02 -2.13,-0.02 -1.18,0 -2.13,0.01 -2.13,0.02z"/>
           </g>
          </g>
         </g>
        </g>
       </g>
      </g>
     </g>
    </g>
    <g>
     <g>
      <g>
       <g>
        <g>
         <g>
          <g>
           <polygon class="fil4" points="18.24,14.8 22.51,14.8 22.51,13.97 18.24,13.97 "/>
          </g>
         </g>
        </g>
       </g>
      </g>
     </g>
     <g>
      <g>
       <g>
        <g>
         <g>
          <g>
           <g>
            <path class="fil6" d="M22.24 13.98c-0.01,0 -0.02,0.18 -0.02,0.4 0,0.22 0.01,0.4 0.02,0.4 0.01,0 0.02,-0.18 0.02,-0.4 0,-0.22 -0.01,-0.4 -0.02,-0.4z"/>
           </g>
          </g>
         </g>
        </g>
       </g>
      </g>
     </g>
     <g>
      <g>
       <g>
        <g>
         <g>
          <g>
           <g>
            <path class="fil6" d="M21.84 13.98c-0.01,0 -0.02,0.18 -0.02,0.4 0,0.22 0.01,0.4 0.02,0.4 0.01,0 0.02,-0.18 0.02,-0.4 0,-0.22 -0.01,-0.4 -0.02,-0.4z"/>
           </g>
          </g>
         </g>
        </g>
       </g>
      </g>
     </g>
     <g>
      <g>
       <g>
        <g>
         <g>
          <g>
           <g>
            <path class="fil6" d="M21.45 13.98c-0.01,0 -0.02,0.18 -0.02,0.4 0,0.22 0.01,0.4 0.02,0.4 0.01,0 0.02,-0.18 0.02,-0.4 0,-0.22 -0.01,-0.4 -0.02,-0.4z"/>
           </g>
          </g>
         </g>
        </g>
       </g>
      </g>
     </g>
     <g>
      <g>
       <g>
        <g>
         <g>
          <g>
           <g>
            <path class="fil6" d="M21.06 13.98c-0.01,0 -0.02,0.18 -0.02,0.4 0,0.22 0.01,0.4 0.02,0.4 0.01,0 0.02,-0.18 0.02,-0.4 0,-0.22 -0.01,-0.4 -0.02,-0.4z"/>
           </g>
          </g>
         </g>
        </g>
       </g>
      </g>
     </g>
     <g>
      <g>
       <g>
        <g>
         <g>
          <g>
           <g>
            <path class="fil6" d="M20.67 13.98c-0.01,0 -0.02,0.18 -0.02,0.4 0,0.22 0.01,0.4 0.02,0.4 0.01,0 0.02,-0.18 0.02,-0.4 0,-0.22 -0.01,-0.4 -0.02,-0.4z"/>
           </g>
          </g>
         </g>
        </g>
       </g>
      </g>
     </g>
     <g>
      <g>
       <g>
        <g>
         <g>
          <g>
           <g>
            <path class="fil6" d="M20.28 13.98c-0.01,0 -0.01,0.18 -0.01,0.4 0,0.22 0,0.4 0.01,0.4 0.01,0 0.02,-0.18 0.02,-0.4 0,-0.22 -0.01,-0.4 -0.02,-0.4z"/>
           </g>
          </g>
         </g>
        </g>
       </g>
      </g>
     </g>
     <g>
      <g>
       <g>
        <g>
         <g>
          <g>
           <g>
            <path class="fil6" d="M19.89 13.98c-0.01,0 -0.01,0.18 -0.01,0.4 0,0.22 0,0.4 0.01,0.4 0.02,0 0.02,-0.18 0.02,-0.4 0,-0.22 0,-0.4 -0.02,-0.4z"/>
           </g>
          </g>
         </g>
        </g>
       </g>
      </g>
     </g>
     <g>
      <g>
       <g>
        <g>
         <g>
          <g>
           <g>
            <path class="fil6" d="M19.51 13.98c-0.01,0 -0.02,0.18 -0.02,0.4 0,0.22 0.01,0.4 0.02,0.4 0.01,0 0.01,-0.18 0.01,-0.4 0,-0.22 0,-0.4 -0.01,-0.4z"/>
           </g>
          </g>
         </g>
        </g>
       </g>
      </g>
     </g>
     <g>
      <g>
       <g>
        <g>
         <g>
          <g>
           <g>
            <path class="fil6" d="M19.12 13.98c-0.01,0 -0.02,0.18 -0.02,0.4 0,0.22 0.01,0.4 0.02,0.4 0.01,0 0.02,-0.18 0.02,-0.4 0,-0.22 -0.01,-0.4 -0.02,-0.4z"/>
           </g>
          </g>
         </g>
        </g>
       </g>
      </g>
     </g>
     <g>
      <g>
       <g>
        <g>
         <g>
          <g>
           <g>
            <path class="fil6" d="M18.73 13.98c-0.01,0 -0.02,0.18 -0.02,0.4 0,0.22 0.01,0.4 0.02,0.4 0.01,0 0.02,-0.18 0.02,-0.4 0,-0.22 -0.01,-0.4 -0.02,-0.4z"/>
           </g>
          </g>
         </g>
        </g>
       </g>
      </g>
     </g>
     <g>
      <g>
       <g>
        <g>
         <g>
          <g>
           <g>
            <path class="fil6" d="M18.34 13.98c-0.01,0 -0.02,0.18 -0.02,0.4 0,0.22 0.01,0.4 0.02,0.4 0.01,0 0.02,-0.18 0.02,-0.4 0,-0.22 -0.01,-0.4 -0.02,-0.4z"/>
           </g>
          </g>
         </g>
        </g>
       </g>
      </g>
     </g>
     <g>
      <g>
       <g>
        <g>
         <g>
          <g>
           <g>
            <path class="fil7" d="M22.45 13.97c-1.34,0.23 -2.81,0.24 -4.14,0l4.14 0z"/>
           </g>
          </g>
         </g>
        </g>
       </g>
      </g>
     </g>
     <g>
      <g>
       <g>
        <g>
         <g>
          <g>
           <g>
            <path class="fil5 str1" d="M18.24 13.97c0,0.01 0.96,0.02 2.13,0.02 1.18,0 2.14,-0.01 2.14,-0.02 0,-0.01 -0.96,-0.02 -2.14,-0.02 -1.17,0 -2.13,0.01 -2.13,0.02z"/>
           </g>
          </g>
         </g>
        </g>
       </g>
      </g>
     </g>
    </g>
    <g>
     <g>
      <g>
       <g>
        <g>
         <g>
          <path class="fil6" d="M22.51 14.8c0,0 0,-0.01 0,-0.02 0,-0.01 0,-0.02 0,-0.04 0,-0.04 0,-0.09 0,-0.16 0,-0.14 0,-0.35 -0.01,-0.6l0 -0.01 0.01 0c0.08,0 0.16,0 0.24,0l-0.01 0.01c0,-0.24 0,-0.52 0,-0.83l0.01 0.01c-0.09,0 -0.18,0 -0.28,0l-0.01 0 0 -0.01c0,-0.26 0,-0.53 0,-0.82l0 -0.02 0.01 0c0.1,0 0.19,0 0.29,0 0.07,0 0.14,0 0.21,0l-0.01 0.02c0,-0.31 0,-0.6 0,-0.88l0.01 0.01c-0.14,0 -0.27,0 -0.4,0l-0.01 0 0 -0.01c0,-0.3 0,-0.57 0,-0.8l0 -0.01 0.01 0c0.04,0 0.07,0 0.1,0l-0.01 0.01c0,-0.27 0,-0.48 0,-0.63 0,-0.08 0,-0.13 0,-0.17 0,-0.02 0,-0.03 0,-0.05 0,-0.01 0,-0.01 0.01,-0.01 0,0 0,0 0,0.01 0,0.02 0,0.03 0,0.05 0,0.04 0,0.09 0,0.17 0.01,0.15 0.01,0.36 0.01,0.63l0 0.01 -0.01 0c-0.03,0 -0.06,0 -0.1,0l0.01 -0.01c0,0.23 0,0.5 0,0.8l-0.01 -0.01c0.13,0 0.26,0 0.4,0l0.02 0 0 0.01c0,0.28 0,0.57 0,0.88l0 0.01 -0.02 0c-0.07,0 -0.14,0 -0.21,0 -0.1,0 -0.19,0 -0.29,0l0.02 -0.01c0,0.29 0,0.56 0,0.82l-0.02 -0.01c0.1,0 0.19,0 0.28,0l0.01 0 0 0.01c0,0.31 0,0.59 0,0.83l0 0.01 -0.01 0c-0.08,0 -0.16,0 -0.24,0l0.01 -0.01c0,0.25 0,0.46 0,0.6 0,0.07 0,0.12 0,0.16 0,0.02 0,0.03 0,0.04 -0.01,0.01 -0.01,0.02 -0.01,0.02z"/>
         </g>
        </g>
       </g>
      </g>
     </g>
    </g>
   </g>
   <g>
    <g>
     <g>
      <g>
       <path class="fil3" d="M12.93 7.04l3 0c0.12,0 0.19,-0.15 0.1,-0.24l-1.5 -1.53c-0.06,-0.06 -0.15,-0.06 -0.2,0l-1.5 1.53c-0.09,0.09 -0.03,0.24 0.1,0.24z"/>
      </g>
     </g>
    </g>
    <g>
     <g>
      <g>
       <polygon class="fil3" points="15.43,14.61 13.51,14.61 13.51,6.75 15.43,6.75 "/>
      </g>
     </g>
    </g>
   </g>
   <g>
    <g>
     <g>
      <g>
       <g>
        <g>
         <g>
          <g>
           <polygon class="fil4" points="12.27,13.15 16.54,13.15 16.54,12.32 12.27,12.32 "/>
          </g>
         </g>
        </g>
       </g>
      </g>
     </g>
     <g>
      <g>
       <g>
        <g>
         <g>
          <g>
           <g>
            <path class="fil6" d="M16.26 12.34c-0.01,0 -0.02,0.17 -0.02,0.4 0,0.22 0.01,0.4 0.02,0.4 0.01,0 0.02,-0.18 0.02,-0.4 0,-0.23 -0.01,-0.4 -0.02,-0.4z"/>
           </g>
          </g>
         </g>
        </g>
       </g>
      </g>
     </g>
     <g>
      <g>
       <g>
        <g>
         <g>
          <g>
           <g>
            <path class="fil6" d="M15.87 12.34c-0.01,0 -0.02,0.17 -0.02,0.4 0,0.22 0.01,0.4 0.02,0.4 0.01,0 0.02,-0.18 0.02,-0.4 0,-0.23 -0.01,-0.4 -0.02,-0.4z"/>
           </g>
          </g>
         </g>
        </g>
       </g>
      </g>
     </g>
     <g>
      <g>
       <g>
        <g>
         <g>
          <g>
           <g>
            <path class="fil6" d="M15.48 12.34c-0.01,0 -0.02,0.17 -0.02,0.4 0,0.22 0.01,0.4 0.02,0.4 0.01,0 0.01,-0.18 0.01,-0.4 0,-0.23 0,-0.4 -0.01,-0.4z"/>
           </g>
          </g>
         </g>
        </g>
       </g>
      </g>
     </g>
     <g>
      <g>
       <g>
        <g>
         <g>
          <g>
           <g>
            <path class="fil6" d="M15.09 12.34c-0.01,0 -0.02,0.17 -0.02,0.4 0,0.22 0.01,0.4 0.02,0.4 0.01,0 0.02,-0.18 0.02,-0.4 0,-0.23 -0.01,-0.4 -0.02,-0.4z"/>
           </g>
          </g>
         </g>
        </g>
       </g>
      </g>
     </g>
     <g>
      <g>
       <g>
        <g>
         <g>
          <g>
           <g>
            <path class="fil6" d="M14.7 12.34c-0.01,0 -0.02,0.17 -0.02,0.4 0,0.22 0.01,0.4 0.02,0.4 0.01,0 0.02,-0.18 0.02,-0.4 0,-0.23 -0.01,-0.4 -0.02,-0.4z"/>
           </g>
          </g>
         </g>
        </g>
       </g>
      </g>
     </g>
     <g>
      <g>
       <g>
        <g>
         <g>
          <g>
           <g>
            <path class="fil6" d="M14.31 12.34c-0.01,0 -0.02,0.17 -0.02,0.4 0,0.22 0.01,0.4 0.02,0.4 0.01,0 0.02,-0.18 0.02,-0.4 0,-0.23 -0.01,-0.4 -0.02,-0.4z"/>
           </g>
          </g>
         </g>
        </g>
       </g>
      </g>
     </g>
     <g>
      <g>
       <g>
        <g>
         <g>
          <g>
           <g>
            <path class="fil6" d="M13.92 12.34c-0.01,0 -0.02,0.17 -0.02,0.4 0,0.22 0.01,0.4 0.02,0.4 0.01,0 0.02,-0.18 0.02,-0.4 0,-0.23 -0.01,-0.4 -0.02,-0.4z"/>
           </g>
          </g>
         </g>
        </g>
       </g>
      </g>
     </g>
     <g>
      <g>
       <g>
        <g>
         <g>
          <g>
           <g>
            <path class="fil6" d="M13.53 12.34c-0.01,0 -0.02,0.17 -0.02,0.4 0,0.22 0.01,0.4 0.02,0.4 0.01,0 0.02,-0.18 0.02,-0.4 0,-0.23 -0.01,-0.4 -0.02,-0.4z"/>
           </g>
          </g>
         </g>
        </g>
       </g>
      </g>
     </g>
     <g>
      <g>
       <g>
        <g>
         <g>
          <g>
           <g>
            <path class="fil6" d="M13.14 12.34c-0.01,0 -0.02,0.17 -0.02,0.4 0,0.22 0.01,0.4 0.02,0.4 0.01,0 0.02,-0.18 0.02,-0.4 0,-0.23 -0.01,-0.4 -0.02,-0.4z"/>
           </g>
          </g>
         </g>
        </g>
       </g>
      </g>
     </g>
     <g>
      <g>
       <g>
        <g>
         <g>
          <g>
           <g>
            <path class="fil6" d="M12.75 12.34c-0.01,0 -0.02,0.17 -0.02,0.4 0,0.22 0.01,0.4 0.02,0.4 0.01,0 0.02,-0.18 0.02,-0.4 0,-0.23 -0.01,-0.4 -0.02,-0.4z"/>
           </g>
          </g>
         </g>
        </g>
       </g>
      </g>
     </g>
     <g>
      <g>
       <g>
        <g>
         <g>
          <g>
           <g>
            <path class="fil6" d="M12.36 12.34c-0.01,0 -0.02,0.17 -0.02,0.4 0,0.22 0.01,0.4 0.02,0.4 0.01,0 0.02,-0.18 0.02,-0.4 0,-0.23 -0.01,-0.4 -0.02,-0.4z"/>
           </g>
          </g>
         </g>
        </g>
       </g>
      </g>
     </g>
     <g>
      <g>
       <g>
        <g>
         <g>
          <g>
           <g>
            <path class="fil6" d="M12.27 12.32c0,0.01 0.95,0.02 2.13,0.02 1.18,0 2.13,-0.01 2.13,-0.02 0,-0.01 -0.95,-0.01 -2.13,-0.01 -1.18,0 -2.13,0 -2.13,0.01z"/>
           </g>
          </g>
         </g>
        </g>
       </g>
      </g>
     </g>
    </g>
    <g>
     <g>
      <g>
       <g>
        <g>
         <g>
          <g>
           <polygon class="fil4" points="12.54,13.98 16.81,13.98 16.81,13.15 12.54,13.15 "/>
          </g>
         </g>
        </g>
       </g>
      </g>
     </g>
     <g>
      <g>
       <g>
        <g>
         <g>
          <g>
           <g>
            <path class="fil6" d="M16.54 13.16c-0.01,0 -0.02,0.18 -0.02,0.41 0,0.22 0.01,0.4 0.02,0.4 0.01,0 0.02,-0.18 0.02,-0.4 0,-0.23 -0.01,-0.41 -0.02,-0.41z"/>
           </g>
          </g>
         </g>
        </g>
       </g>
      </g>
     </g>
     <g>
      <g>
       <g>
        <g>
         <g>
          <g>
           <g>
            <path class="fil6" d="M16.14 13.16c-0.01,0 -0.02,0.18 -0.02,0.41 0,0.22 0.01,0.4 0.02,0.4 0.01,0 0.02,-0.18 0.02,-0.4 0,-0.23 -0.01,-0.41 -0.02,-0.41z"/>
           </g>
          </g>
         </g>
        </g>
       </g>
      </g>
     </g>
     <g>
      <g>
       <g>
        <g>
         <g>
          <g>
           <g>
            <path class="fil6" d="M15.75 13.16c-0.01,0 -0.02,0.18 -0.02,0.41 0,0.22 0.01,0.4 0.02,0.4 0.01,0 0.02,-0.18 0.02,-0.4 0,-0.23 -0.01,-0.41 -0.02,-0.41z"/>
           </g>
          </g>
         </g>
        </g>
       </g>
      </g>
     </g>
     <g>
      <g>
       <g>
        <g>
         <g>
          <g>
           <g>
            <path class="fil6" d="M15.36 13.16c-0.01,0 -0.02,0.18 -0.02,0.41 0,0.22 0.01,0.4 0.02,0.4 0.01,0 0.02,-0.18 0.02,-0.4 0,-0.23 -0.01,-0.41 -0.02,-0.41z"/>
           </g>
          </g>
         </g>
        </g>
       </g>
      </g>
     </g>
     <g>
      <g>
       <g>
        <g>
         <g>
          <g>
           <g>
            <path class="fil6" d="M14.97 13.16c-0.01,0 -0.02,0.18 -0.02,0.41 0,0.22 0.01,0.4 0.02,0.4 0.01,0 0.02,-0.18 0.02,-0.4 0,-0.23 -0.01,-0.41 -0.02,-0.41z"/>
           </g>
          </g>
         </g>
        </g>
       </g>
      </g>
     </g>
     <g>
      <g>
       <g>
        <g>
         <g>
          <g>
           <g>
            <path class="fil6" d="M14.58 13.16c-0.01,0 -0.02,0.18 -0.02,0.41 0,0.22 0.01,0.4 0.02,0.4 0.01,0 0.02,-0.18 0.02,-0.4 0,-0.23 -0.01,-0.41 -0.02,-0.41z"/>
           </g>
          </g>
         </g>
        </g>
       </g>
      </g>
     </g>
     <g>
      <g>
       <g>
        <g>
         <g>
          <g>
           <g>
            <path class="fil6" d="M14.19 13.16c-0.01,0 -0.01,0.18 -0.01,0.41 0,0.22 0,0.4 0.01,0.4 0.01,0 0.02,-0.18 0.02,-0.4 0,-0.23 -0.01,-0.41 -0.02,-0.41z"/>
           </g>
          </g>
         </g>
        </g>
       </g>
      </g>
     </g>
     <g>
      <g>
       <g>
        <g>
         <g>
          <g>
           <g>
            <path class="fil6" d="M13.8 13.16c-0.01,0 -0.01,0.18 -0.01,0.41 0,0.22 0,0.4 0.01,0.4 0.01,0 0.02,-0.18 0.02,-0.4 0,-0.23 -0.01,-0.41 -0.02,-0.41z"/>
           </g>
          </g>
         </g>
        </g>
       </g>
      </g>
     </g>
     <g>
      <g>
       <g>
        <g>
         <g>
          <g>
           <g>
            <path class="fil6" d="M13.42 13.16c-0.02,0 -0.02,0.18 -0.02,0.41 0,0.22 0,0.4 0.02,0.4 0.01,0 0.01,-0.18 0.01,-0.4 0,-0.23 0,-0.41 -0.01,-0.41z"/>
           </g>
          </g>
         </g>
        </g>
       </g>
      </g>
     </g>
     <g>
      <g>
       <g>
        <g>
         <g>
          <g>
           <g>
            <path class="fil6" d="M13.03 13.16c-0.01,0 -0.02,0.18 -0.02,0.41 0,0.22 0.01,0.4 0.02,0.4 0.01,0 0.01,-0.18 0.01,-0.4 0,-0.23 0,-0.41 -0.01,-0.41z"/>
           </g>
          </g>
         </g>
        </g>
       </g>
      </g>
     </g>
     <g>
      <g>
       <g>
        <g>
         <g>
          <g>
           <g>
            <path class="fil6" d="M12.64 13.16c-0.01,0 -0.02,0.18 -0.02,0.41 0,0.22 0.01,0.4 0.02,0.4 0.01,0 0.02,-0.18 0.02,-0.4 0,-0.23 -0.01,-0.41 -0.02,-0.41z"/>
           </g>
          </g>
         </g>
        </g>
       </g>
      </g>
     </g>
     <g>
      <g>
       <g>
        <g>
         <g>
          <g>
           <g>
            <path class="fil7" d="M16.74 13.15c-1.33,0.26 -2.8,0.27 -4.13,0l4.13 0z"/>
           </g>
          </g>
         </g>
        </g>
       </g>
      </g>
     </g>
     <g>
      <g>
       <g>
        <g>
         <g>
          <g>
           <g>
            <path class="fil6" d="M12.54 13.15c0,0.01 0.96,0.02 2.13,0.02 1.18,0 2.13,-0.01 2.13,-0.02 0,-0.01 -0.95,-0.02 -2.13,-0.02 -1.17,0 -2.13,0.01 -2.13,0.02z"/>
           </g>
          </g>
         </g>
        </g>
       </g>
      </g>
     </g>
    </g>
    <g>
     <g>
      <g>
       <g>
        <g>
         <g>
          <g>
           <polygon class="fil4" points="12.3,14.8 16.57,14.8 16.57,13.97 12.3,13.97 "/>
          </g>
         </g>
        </g>
       </g>
      </g>
     </g>
     <g>
      <g>
       <g>
        <g>
         <g>
          <g>
           <g>
            <path class="fil6" d="M16.29 13.98c-0.01,0 -0.01,0.18 -0.01,0.4 0,0.22 0,0.4 0.01,0.4 0.01,0 0.02,-0.18 0.02,-0.4 0,-0.22 -0.01,-0.4 -0.02,-0.4z"/>
           </g>
          </g>
         </g>
        </g>
       </g>
      </g>
     </g>
     <g>
      <g>
       <g>
        <g>
         <g>
          <g>
           <g>
            <path class="fil6" d="M15.9 13.98c-0.01,0 -0.02,0.18 -0.02,0.4 0,0.22 0.01,0.4 0.02,0.4 0.01,0 0.02,-0.18 0.02,-0.4 0,-0.22 -0.01,-0.4 -0.02,-0.4z"/>
           </g>
          </g>
         </g>
        </g>
       </g>
      </g>
     </g>
     <g>
      <g>
       <g>
        <g>
         <g>
          <g>
           <g>
            <path class="fil6" d="M15.51 13.98c-0.01,0 -0.02,0.18 -0.02,0.4 0,0.22 0.01,0.4 0.02,0.4 0.01,0 0.02,-0.18 0.02,-0.4 0,-0.22 -0.01,-0.4 -0.02,-0.4z"/>
           </g>
          </g>
         </g>
        </g>
       </g>
      </g>
     </g>
     <g>
      <g>
       <g>
        <g>
         <g>
          <g>
           <g>
            <path class="fil6" d="M15.12 13.98c-0.01,0 -0.02,0.18 -0.02,0.4 0,0.22 0.01,0.4 0.02,0.4 0.01,0 0.02,-0.18 0.02,-0.4 0,-0.22 -0.01,-0.4 -0.02,-0.4z"/>
           </g>
          </g>
         </g>
        </g>
       </g>
      </g>
     </g>
     <g>
      <g>
       <g>
        <g>
         <g>
          <g>
           <g>
            <path class="fil6" d="M14.73 13.98c-0.01,0 -0.02,0.18 -0.02,0.4 0,0.22 0.01,0.4 0.02,0.4 0.01,0 0.02,-0.18 0.02,-0.4 0,-0.22 -0.01,-0.4 -0.02,-0.4z"/>
           </g>
          </g>
         </g>
        </g>
       </g>
      </g>
     </g>
     <g>
      <g>
       <g>
        <g>
         <g>
          <g>
           <g>
            <path class="fil6" d="M14.34 13.98c-0.01,0 -0.02,0.18 -0.02,0.4 0,0.22 0.01,0.4 0.02,0.4 0.01,0 0.02,-0.18 0.02,-0.4 0,-0.22 -0.01,-0.4 -0.02,-0.4z"/>
           </g>
          </g>
         </g>
        </g>
       </g>
      </g>
     </g>
     <g>
      <g>
       <g>
        <g>
         <g>
          <g>
           <g>
            <path class="fil6" d="M13.95 13.98c-0.01,0 -0.02,0.18 -0.02,0.4 0,0.22 0.01,0.4 0.02,0.4 0.01,0 0.02,-0.18 0.02,-0.4 0,-0.22 -0.01,-0.4 -0.02,-0.4z"/>
           </g>
          </g>
         </g>
        </g>
       </g>
      </g>
     </g>
     <g>
      <g>
       <g>
        <g>
         <g>
          <g>
           <g>
            <path class="fil6" d="M13.56 13.98c-0.01,0 -0.02,0.18 -0.02,0.4 0,0.22 0.01,0.4 0.02,0.4 0.01,0 0.02,-0.18 0.02,-0.4 0,-0.22 -0.01,-0.4 -0.02,-0.4z"/>
           </g>
          </g>
         </g>
        </g>
       </g>
      </g>
     </g>
     <g>
      <g>
       <g>
        <g>
         <g>
          <g>
           <g>
            <path class="fil6" d="M13.17 13.98c-0.01,0 -0.02,0.18 -0.02,0.4 0,0.22 0.01,0.4 0.02,0.4 0.01,0 0.02,-0.18 0.02,-0.4 0,-0.22 -0.01,-0.4 -0.02,-0.4z"/>
           </g>
          </g>
         </g>
        </g>
       </g>
      </g>
     </g>
     <g>
      <g>
       <g>
        <g>
         <g>
          <g>
           <g>
            <path class="fil6" d="M12.78 13.98c-0.01,0 -0.02,0.18 -0.02,0.4 0,0.22 0.01,0.4 0.02,0.4 0.01,0 0.02,-0.18 0.02,-0.4 0,-0.22 -0.01,-0.4 -0.02,-0.4z"/>
           </g>
          </g>
         </g>
        </g>
       </g>
      </g>
     </g>
     <g>
      <g>
       <g>
        <g>
         <g>
          <g>
           <g>
            <path class="fil6" d="M12.39 13.98c-0.01,0 -0.02,0.18 -0.02,0.4 0,0.22 0.01,0.4 0.02,0.4 0.01,0 0.02,-0.18 0.02,-0.4 0,-0.22 -0.01,-0.4 -0.02,-0.4z"/>
           </g>
          </g>
         </g>
        </g>
       </g>
      </g>
     </g>
     <g>
      <g>
       <g>
        <g>
         <g>
          <g>
           <g>
            <path class="fil7" d="M16.5 13.97c-1.33,0.23 -2.8,0.24 -4.13,0l4.13 0z"/>
           </g>
          </g>
         </g>
        </g>
       </g>
      </g>
     </g>
     <g>
      <g>
       <g>
        <g>
         <g>
          <g>
           <g>
            <path class="fil6" d="M12.3 13.97c0,0.01 0.95,0.02 2.13,0.02 1.18,0 2.13,-0.01 2.13,-0.02 0,-0.01 -0.95,-0.02 -2.13,-0.02 -1.18,0 -2.13,0.01 -2.13,0.02z"/>
           </g>
          </g>
         </g>
        </g>
       </g>
      </g>
     </g>
    </g>
   </g>
   <g>
    <g>
     <g>
      <g>
       <path class="fil3" d="M7.46 8.77l3.01 0c0.12,0 0.18,-0.15 0.09,-0.24l-1.5 -1.53c-0.05,-0.06 -0.14,-0.06 -0.2,0l-1.5 1.53c-0.08,0.09 -0.02,0.24 0.1,0.24z"/>
      </g>
     </g>
    </g>
    <g>
     <g>
      <g>
       <polygon class="fil3" points="9.97,14.59 8.04,14.59 8.04,8.48 9.97,8.48 "/>
      </g>
     </g>
    </g>
   </g>
   <g>
    <g>
     <g>
      <g>
       <g>
        <g>
         <g>
          <polygon class="fil4" points="6.75,14.8 11.02,14.8 11.02,13.98 6.75,13.98 "/>
         </g>
        </g>
       </g>
      </g>
     </g>
    </g>
    <g>
     <g>
      <g>
       <g>
        <g>
         <g>
          <g>
           <path class="fil6" d="M10.75 13.99c-0.01,0 -0.02,0.18 -0.02,0.4 0,0.22 0.01,0.4 0.02,0.4 0.01,0 0.02,-0.18 0.02,-0.4 0,-0.22 -0.01,-0.4 -0.02,-0.4z"/>
          </g>
         </g>
        </g>
       </g>
      </g>
     </g>
    </g>
    <g>
     <g>
      <g>
       <g>
        <g>
         <g>
          <g>
           <path class="fil6" d="M10.35 13.99c-0.01,0 -0.01,0.18 -0.01,0.4 0,0.22 0,0.4 0.01,0.4 0.01,0 0.02,-0.18 0.02,-0.4 0,-0.22 -0.01,-0.4 -0.02,-0.4z"/>
          </g>
         </g>
        </g>
       </g>
      </g>
     </g>
    </g>
    <g>
     <g>
      <g>
       <g>
        <g>
         <g>
          <g>
           <path class="fil6" d="M9.96 13.99c-0.01,0 -0.02,0.18 -0.02,0.4 0,0.22 0.01,0.4 0.02,0.4 0.01,0 0.02,-0.18 0.02,-0.4 0,-0.22 -0.01,-0.4 -0.02,-0.4z"/>
          </g>
         </g>
        </g>
       </g>
      </g>
     </g>
    </g>
    <g>
     <g>
      <g>
       <g>
        <g>
         <g>
          <g>
           <path class="fil6" d="M9.57 13.99c-0.01,0 -0.02,0.18 -0.02,0.4 0,0.22 0.01,0.4 0.02,0.4 0.01,0 0.02,-0.18 0.02,-0.4 0,-0.22 -0.01,-0.4 -0.02,-0.4z"/>
          </g>
         </g>
        </g>
       </g>
      </g>
     </g>
    </g>
    <g>
     <g>
      <g>
       <g>
        <g>
         <g>
          <g>
           <path class="fil6" d="M9.18 13.99c-0.01,0 -0.01,0.18 -0.01,0.4 0,0.22 0,0.4 0.01,0.4 0.01,0 0.02,-0.18 0.02,-0.4 0,-0.22 -0.01,-0.4 -0.02,-0.4z"/>
          </g>
         </g>
        </g>
       </g>
      </g>
     </g>
    </g>
    <g>
     <g>
      <g>
       <g>
        <g>
         <g>
          <g>
           <path class="fil6" d="M8.79 13.99c-0.01,0 -0.01,0.18 -0.01,0.4 0,0.22 0,0.4 0.01,0.4 0.02,0 0.02,-0.18 0.02,-0.4 0,-0.22 0,-0.4 -0.02,-0.4z"/>
          </g>
         </g>
        </g>
       </g>
      </g>
     </g>
    </g>
    <g>
     <g>
      <g>
       <g>
        <g>
         <g>
          <g>
           <path class="fil6" d="M8.41 13.99c-0.01,0 -0.02,0.18 -0.02,0.4 0,0.22 0.01,0.4 0.02,0.4 0.01,0 0.01,-0.18 0.01,-0.4 0,-0.22 0,-0.4 -0.01,-0.4z"/>
          </g>
         </g>
        </g>
       </g>
      </g>
     </g>
    </g>
    <g>
     <g>
      <g>
       <g>
        <g>
         <g>
          <g>
           <path class="fil6" d="M8.02 13.99c-0.01,0 -0.02,0.18 -0.02,0.4 0,0.22 0.01,0.4 0.02,0.4 0.01,0 0.01,-0.18 0.01,-0.4 0,-0.22 0,-0.4 -0.01,-0.4z"/>
          </g>
         </g>
        </g>
       </g>
      </g>
     </g>
    </g>
    <g>
     <g>
      <g>
       <g>
        <g>
         <g>
          <g>
           <path class="fil6" d="M7.63 13.99c-0.01,0 -0.02,0.18 -0.02,0.4 0,0.22 0.01,0.4 0.02,0.4 0.01,0 0.02,-0.18 0.02,-0.4 0,-0.22 -0.01,-0.4 -0.02,-0.4z"/>
          </g>
         </g>
        </g>
       </g>
      </g>
     </g>
    </g>
    <g>
     <g>
      <g>
       <g>
        <g>
         <g>
          <g>
           <path class="fil6" d="M7.24 13.99c-0.01,0 -0.02,0.18 -0.02,0.4 0,0.22 0.01,0.4 0.02,0.4 0.01,0 0.02,-0.18 0.02,-0.4 0,-0.22 -0.01,-0.4 -0.02,-0.4z"/>
          </g>
         </g>
        </g>
       </g>
      </g>
     </g>
    </g>
    <g>
     <g>
      <g>
       <g>
        <g>
         <g>
          <g>
           <path class="fil6" d="M6.85 13.99c-0.01,0 -0.02,0.18 -0.02,0.4 0,0.22 0.01,0.4 0.02,0.4 0.01,0 0.02,-0.18 0.02,-0.4 0,-0.22 -0.01,-0.4 -0.02,-0.4z"/>
          </g>
         </g>
        </g>
       </g>
      </g>
     </g>
    </g>
    <g>
     <g>
      <g>
       <g>
        <g>
         <g>
          <g>
           <path class="fil6" d="M6.75 13.98c0,0.01 0.96,0.02 2.13,0.02 1.18,0 2.14,-0.01 2.14,-0.02 0,-0.01 -0.96,-0.02 -2.14,-0.02 -1.17,0 -2.13,0.01 -2.13,0.02z"/>
          </g>
         </g>
        </g>
       </g>
      </g>
     </g>
    </g>
   </g>
   <g>
    <path class="fil8" d="M4.76 5.26l0 0.04 -0.01 0.34c0,0 -0.03,0.05 -0.09,0.1 0,0 0,0 0,0 -0.01,0 -0.02,0 -0.03,0 -0.27,-0.03 -0.6,-0.09 -0.6,-0.27 0,0 0,-0.01 -0.01,-0.01l0.02 -0.26 0.03 0 0.48 0.04 0.21 0.02z"/>
    <path class="fil9" d="M3.94 5.42c-0.04,0.04 -0.02,0.39 -0.01,0.44 0.01,0.15 0.03,-0.06 0.17,0 0.15,0.05 0.31,0.05 0.46,0.02 0.08,-0.02 0.12,-0.02 0.18,-0.08 0.06,-0.06 0.06,-0.3 0,-0.3 -0.05,-0.01 -0.17,0 -0.22,0 -0.13,0.01 -0.26,-0.01 -0.37,-0.05 -0.09,-0.04 -0.12,-0.11 -0.21,-0.03z"/>
    <path class="fil10" d="M3.31 13.66c0,0 -0.19,0.34 -0.11,0.5 0.03,0.04 0.17,0.08 0.34,0.08 0.11,0.01 0.24,-0.03 0.35,-0.02 0.32,0.02 0.43,-0.09 0.6,-0.24 0.36,-0.3 -0.16,-0.31 -0.52,-0.27 -0.37,0.05 -0.66,-0.05 -0.66,-0.05z"/>
    <path class="fil11" d="M4.36 10.98c-0.03,0.21 -0.07,0.42 -0.11,0.63 -0.1,0.58 -0.41,1.69 -0.41,2.13 0,0.08 -0.53,0.09 -0.55,-0.03 -0.25,-0.42 0.08,-3.34 0.01,-4.02 -0.03,-0.26 -0.01,-0.7 0.23,-0.84 0.35,-0.2 0.8,0.26 0.89,0.46 0.14,0.28 0.05,0.7 -0.06,1.67z"/>
    <path class="fil10" d="M4.4 14.23c0,0 -0.15,0.37 -0.04,0.52 0.03,0.04 0.17,0.07 0.35,0.05 0.11,-0.01 0.24,-0.07 0.35,-0.07 0.33,-0.01 0.43,-0.15 0.58,-0.31 0.33,-0.35 -0.2,-0.29 -0.55,-0.21 -0.37,0.09 -0.69,0.02 -0.69,0.02z"/>
    <path class="fil12" d="M5.43 10.98l0 0c-0.28,2.13 -0.36,1.84 -0.37,3.35 -0.38,0.14 -0.65,0.36 -0.66,-0.1 0,-0.22 -0.22,-2.83 0.38,-2.83 0.1,0 0.58,-0.36 0.65,-0.42z"/>
    <path class="fil12" d="M5.49 9.55c-0.02,0.54 -0.02,1.06 -0.06,1.43l0 0c-0.04,0.47 -0.1,0.49 -0.23,0.77 -0.09,0.19 -0.08,0.34 -0.2,0.43 -0.09,0.08 -0.23,0.08 -0.33,0.02 -0.1,-0.06 -0.24,0.4 -0.27,0.29 -0.03,-0.09 -0.05,-0.5 -0.06,-0.59 -0.04,-0.93 -0.47,-1.55 -0.37,-2.31 0,-0.04 1.52,-0.04 1.52,-0.04z"/>
    <path class="fil12" d="M5.74 6.26c0,0 -0.03,0.15 -0.06,0.35 0,0.02 -0.01,0.03 -0.01,0.04 -0.04,0.31 -0.11,0.74 -0.14,1.05 -0.01,0.1 -0.01,0.19 -0.01,0.26 -0.01,0.34 0.05,1.27 0.06,1.56 0.01,0.06 -0.02,0.11 -0.07,0.14 -0.06,0.03 -0.11,0.06 -0.16,0.08 -0.09,0.04 -0.18,0.06 -0.28,0.08 -0.07,0.01 -0.14,0.02 -0.22,0.02 -0.31,0.03 -0.65,0.02 -0.95,-0.03 -0.23,-0.04 -0.44,-0.12 -0.61,-0.25 -0.04,-0.03 -0.07,-0.08 -0.07,-0.12l0 0c-0.01,-0.32 0.17,-1.2 0.17,-1.54 0,-0.59 -0.22,-1.57 -0.21,-1.9 0.02,-0.27 0.12,-0.6 0.75,-0.53l0.84 0.18c0.17,0.09 0.9,0.21 0.97,0.61z"/>
    <path class="fil8" d="M5.05 5.12c-0.05,0.11 -0.18,0.12 -0.29,0.18 -0.04,0.02 -0.09,0.03 -0.14,0.04 0,0 -0.01,0 -0.02,0 -0.04,0 -0.09,0 -0.13,-0.02 -0.08,-0.04 -0.36,0.01 -0.39,-0.07 0,-0.01 -0.01,-0.03 -0.01,-0.05 -0.03,-0.2 0.12,-0.5 0.15,-0.69 0.03,-0.18 0.15,-0.33 0.29,-0.45 0.12,-0.1 0.36,-0.18 0.51,-0.23l0.08 0.09 0.06 0.07c-0.03,0.18 -0.1,0.35 -0.09,0.52 0.01,0.18 0.05,0.45 -0.02,0.61z"/>
    <path class="fil8" d="M5.07 4.51c-0.01,-0.17 -0.03,-0.34 0,-0.52l-0.07 -0.07 -0.02 0.11c0.07,0.28 0.07,0.56 0,0.83 -0.02,0.11 -0.06,0.21 -0.14,0.29 -0.07,0.08 -0.2,0.12 -0.3,0.08 0,0 0.01,0.01 0.01,0.01 0.04,0.02 0.06,0.06 0.07,0.1 0.02,0.03 0.02,0.06 0.02,0.1 0.01,0.02 0,0.04 0,0.06 0.03,-0.01 0.07,-0.01 0.1,0 0,0 0.01,0 0.01,0l0.01 -0.2c0.11,-0.06 0.2,-0.16 0.24,-0.27 0.07,-0.16 0.08,-0.34 0.07,-0.52z"/>
    <path class="fil13" d="M5.17 3.95c-0.01,0.11 -0.11,0.1 -0.17,0.19 -0.07,0.11 -0.07,0.2 -0.14,0.3 -0.02,0.04 -0.12,0.4 -0.23,0.33 -0.17,-0.09 0.02,0.34 -0.29,0.49 -0.05,0.03 -0.2,0 -0.25,-0.01 -0.04,0 -0.07,-0.03 -0.09,-0.05 0,0 0,-0.01 0,-0.01 -0.09,-0.09 -0.41,-0.37 -0.48,-0.51 -0.06,-0.13 -0.07,-0.29 -0.07,-0.43 0,-0.13 0.09,-0.25 0.16,-0.35 0.08,-0.11 0.18,-0.2 0.3,-0.26 0.2,-0.1 0.48,-0.12 0.72,-0.09 0.03,0 0.06,0.01 0.09,0.01 0.05,0.01 0.11,0.03 0.16,0.04 0.02,0.01 0.04,0.02 0.07,0.03 0.22,0.12 0.22,0.24 0.22,0.25 0,0 0,0.05 0,0.07z"/>
    <path class="fil8" d="M4.61 4.75c0.07,0.09 0.07,0.19 0.01,0.24 -0.07,0.04 -0.17,0.02 -0.24,-0.07 -0.07,-0.08 -0.07,-0.18 -0.01,-0.23 0.07,-0.05 0.17,-0.02 0.24,0.06z"/>
    <path class="fil12" d="M4.69 5.57c0.05,0.01 0.1,0.02 0.15,0.04 0.03,0.01 0.07,0.06 0.07,0.09 -0.2,0.04 -0.56,-0.03 -0.75,-0.06 -0.17,-0.03 -0.34,-0.13 -0.36,-0.17 -0.07,-0.1 0.34,0.01 0.38,0.02 0.17,0.04 0.35,0.05 0.51,0.08z"/>
    <path class="fil8" d="M6.11 9.59c0.07,-0.01 0.15,-0.02 0.22,-0.03 0.02,0.13 0.03,0.21 0.03,0.21 0.02,0.01 0.07,0.08 0.08,0.09 0.06,0.09 0.08,0.18 0.13,0.27 0.02,0.02 0.08,0.09 0.07,0.12 0,0.01 -0.01,0.02 -0.02,0.02 -0.1,0.03 -0.14,-0.06 -0.18,-0.14 0.01,0.04 0.02,0.08 0.03,0.12 0.01,0.04 0.07,0.27 0.01,0.28 -0.03,0 -0.04,-0.04 -0.05,-0.06 -0.03,-0.08 -0.06,-0.17 -0.08,-0.26 0.01,0.08 0.03,0.15 0.04,0.23 0.01,0.03 0.03,0.17 -0.03,0.18 -0.01,0 -0.03,-0.01 -0.03,-0.02 -0.03,-0.07 -0.05,-0.14 -0.06,-0.22 0.01,0.05 0.01,0.09 0.02,0.14 0,0.02 0,0.07 -0.03,0.08 -0.03,0.01 -0.05,-0.03 -0.06,-0.05 -0.03,-0.1 -0.04,-0.18 -0.05,-0.28 -0.01,0.06 0,0.2 -0.01,0.25 0,0 0,0 0,0 -0.01,0.02 -0.02,0.02 -0.03,0.01 -0.02,-0.01 -0.02,-0.03 -0.03,-0.05 -0.03,-0.11 -0.05,-0.17 -0.09,-0.28 -0.01,-0.04 -0.03,-0.12 -0.03,-0.16 0,-0.06 -0.01,-0.11 -0.02,-0.16 0,-0.04 -0.01,-0.08 -0.01,-0.12 0,0 -0.02,-0.05 -0.05,-0.13 0.08,-0.01 0.15,-0.03 0.23,-0.04z"/>
    <path class="fil14" d="M5.2 6.14c0.09,-0.13 0.25,-0.2 0.37,-0.13 0.07,0.04 0.15,0.15 0.17,0.23l0.39 1.68c0.04,0.21 0.25,1.24 0.35,1.79 -0.17,0.18 -0.35,0.26 -0.62,0.25 -0.19,-0.47 -0.43,-1.03 -0.51,-1.22 -0.1,-0.21 -0.15,-0.44 -0.19,-0.68 0,0 0,-0.01 0,-0.01l-0.11 -0.47c-0.06,-0.5 -0.14,-1.02 0.15,-1.44z"/>
    <path class="fil15" d="M6.27 8.05c0.01,0 0.03,0 0.04,0 -0.01,-0.01 -0.03,0 -0.04,0z"/>
   </g>
  </g>
 </g>
</svg>
