<svg width="140" height="140" viewBox="0 0 140 140" fill="none" xmlns="http://www.w3.org/2000/svg">
<rect x="67.0835" y="83.125" width="5.83334" height="45.2083" fill="#76808F"/>
<path d="M61.2502 70C61.2502 44.2267 82.1435 23.3333 107.917 23.3333H110.833V53.9583C110.833 79.7316 89.9401 100.625 64.1668 100.625H61.2502V70Z" fill="url(#paint0_linear)"/>
<path d="M78.7501 70C78.7501 44.2267 57.8567 23.3333 32.0834 23.3333H29.1667V53.9583C29.1667 79.7316 50.0601 100.625 75.8334 100.625H78.7501V70Z" fill="url(#paint1_linear)"/>
<path fill-rule="evenodd" clip-rule="evenodd" d="M70 11.6667L82.6675 24.3342C96.9668 38.6334 105 58.0274 105 78.2496L72.9167 105H67.0833L35 78.2496C35 58.0274 43.0332 38.6334 57.3325 24.3342L70 11.6667Z" fill="#E6E8EA"/>
<path d="M72.9165 83.125C72.9165 57.3517 93.8099 36.4583 119.583 36.4583H122.5V58.3333C122.5 84.1066 101.606 105 75.8332 105H72.9165V83.125Z" fill="url(#paint2_linear)"/>
<path d="M67.0833 83.125C67.0833 57.3517 46.1899 36.4583 20.4167 36.4583H17.5V58.3333C17.5 84.1066 38.3934 105 64.1667 105H67.0833V83.125Z" fill="url(#paint3_linear)"/>
<path d="M11.6667 83.125C11.6667 98.4279 24.0722 110.833 39.3751 110.833H67.0834V105C67.0834 92.9188 57.2896 83.125 45.2084 83.125H11.6667Z" fill="#76808F"/>
<path d="M128.333 83.125C128.333 98.4279 115.928 110.833 100.625 110.833H72.9165V105C72.9165 92.9188 82.7103 83.125 94.7915 83.125H128.333Z" fill="#76808F"/>
<path d="M106.458 134.167C94.3773 134.167 84.5835 124.373 84.5835 112.292C84.5835 100.21 94.3773 90.4167 106.458 90.4167C118.54 90.4167 128.334 100.21 128.334 112.292C128.334 124.373 118.54 134.167 106.458 134.167Z" fill="url(#paint4_linear)"/>
<path d="M108.648 125.417H104.273V121.042H108.648V125.417Z" fill="#14151A"/>
<path d="M104.273 116.667V99.1667H108.648V116.667L104.273 116.667Z" fill="#14151A"/>
<defs>
<linearGradient id="paint0_linear" x1="80.2085" y1="53.9583" x2="110.833" y2="23.3333" gradientUnits="userSpaceOnUse">
<stop stop-color="#FAFAFA"/>
<stop offset="1" stop-color="#E6E8EA"/>
</linearGradient>
<linearGradient id="paint1_linear" x1="59.7917" y1="53.9583" x2="29.1667" y2="23.3333" gradientUnits="userSpaceOnUse">
<stop stop-color="#FAFAFA"/>
<stop offset="1" stop-color="#E6E8EA"/>
</linearGradient>
<linearGradient id="paint2_linear" x1="97.7082" y1="36.4583" x2="97.7082" y2="93.3333" gradientUnits="userSpaceOnUse">
<stop stop-color="#76808F"/>
<stop offset="1" stop-color="#929AA5"/>
</linearGradient>
<linearGradient id="paint3_linear" x1="42.2917" y1="36.4583" x2="42.2917" y2="93.3333" gradientUnits="userSpaceOnUse">
<stop stop-color="#76808F"/>
<stop offset="1" stop-color="#929AA5"/>
</linearGradient>
<linearGradient id="paint4_linear" x1="84.5835" y1="112.292" x2="128.334" y2="112.292" gradientUnits="userSpaceOnUse">
<stop stop-color="#F0B90B"/>
<stop offset="1" stop-color="#F8D33A"/>
</linearGradient>
</defs>
</svg>
