<svg xmlns="http://www.w3.org/2000/svg" width="60" height="73" viewBox="0 0 5.48 6.74" shape-rendering="geometricPrecision" image-rendering="optimizeQuality" fill-rule="evenodd" xmlns:v="https://vecta.io/nano"><defs><clipPath id="A"><path d="M.8 4h.88c.66.84 1.37.76 2.12 0h.88c.44 0 .8.36.8.8v1.93.01H0V6.7 4.8c0-.44.36-.8.8-.8z"/></clipPath></defs><path d="M.8 4h.88c.66.84 1.37.76 2.12 0h.88c.44 0 .8.36.8.8v1.93.01H0V6.7 4.8c0-.44.36-.8.8-.8z" fill="#263674"/><g clip-path="url(#A)"><path d="M1.69 4h2.1v2.8h-2.1z" fill="#fdcb08"/></g><g fill-rule="nonzero"><path d="M2.74 0a1.65 1.65 0 0 0-1.65 1.65v.42c0 .38.3.68.69.68a.12.12 0 0 0 .13-.13v-1.1c0-.09-.05-.14-.13-.14a.61.61 0 0 0-.4.14C1.44.83 2.04.28 2.74.28S4.03.81 4.1 1.52a.61.61 0 0 0-.4-.14c-.08 0-.13.05-.13.14v1.1a.12.12 0 0 0 .13.13.51.51 0 0 0 .25-.05c-.15.28-.38.5-.67.62-.03-.17-.17-.3-.35-.3s-.33.15-.33.33a.33.33 0 0 0 .13.26.33.33 0 0 0 .22.08H3c.79-.11 1.39-.81 1.39-1.62v-.42A1.65 1.65 0 0 0 2.74 0z" fill="#263674"/><path d="M4.06 1.29c.02.07.04.15.05.23a.63.63 0 0 0-.4-.14c-.09 0-.14.05-.14.14v1.1a.13.13 0 0 0 .14.14c.08 0 .17-.02.24-.06.33-.21.44-1.05.11-1.41zM1.77 2.76a.13.13 0 0 0 .14-.14v-1.1c0-.09-.05-.14-.14-.14a.63.63 0 0 0-.4.14c.01-.08.03-.16.05-.23-.34.13-.27 1.37.35 1.47z" stroke="#fdcb08" stroke-miterlimit="2.61313" fill="#fdcb08"/></g></svg>