<svg width="360" height="226" viewBox="0 0 360 226" fill="none" xmlns="http://www.w3.org/2000/svg">
<circle cx="155" cy="66.937" r="37" fill="white"/>
<path d="M180.368 181.672V107.937L126 90.5113H98.25V181.672H180.368Z" fill="#929AA5"/>
<path d="M268 44.9309H225.169V136.092H268V44.9309Z" fill="url(#paint0_linear_773_5632)"/>
<path d="M226 135.937L180 182.937V92.937L226 43.937V135.937Z" fill="#CACED3"/>
<path fill-rule="evenodd" clip-rule="evenodd" d="M115.541 36.6088L108.939 48.0039L98.0294 51.268L98 82.5126L108.91 85.8062L115.482 97.2307L112.85 108.317L139.905 123.976L148.197 116.169H161.371L169.649 124.005L196.733 108.42L194.13 97.3336L200.732 85.9385L211.642 82.6744L211.671 51.4298L200.762 48.1362L194.189 36.7117L196.821 25.6254L169.767 9.96636L161.474 17.7738H148.3L140.022 9.93695L112.939 25.5225L115.541 36.6088ZM151.623 72.4997C148.565 70.7353 147.521 66.8242 149.3 63.7659C151.064 60.7076 154.975 59.6637 158.034 61.4428C161.092 63.2219 162.136 67.1182 160.357 70.1765C158.592 73.2348 154.681 74.2788 151.623 72.4997ZM136.39 56.2966L135.685 57.5317C129.789 67.7064 133.273 80.7482 143.448 86.6443C146.051 88.144 148.256 88.8498 150.417 89.0556C152.593 89.2615 154.887 88.9674 157.696 88.2175L162.268 86.9971L159.901 78.1016L174.649 86.6443L166.106 101.392L163.739 92.4962L159.166 93.7166C155.99 94.5694 152.976 95.0105 149.888 94.7164C146.786 94.4223 143.786 93.4078 140.61 91.5699C127.715 84.1006 123.304 67.5887 130.774 54.6939L131.48 53.4588L136.39 56.3113V56.2966Z" fill="url(#paint1_linear_773_5632)"/>
<path fill-rule="evenodd" clip-rule="evenodd" d="M134.906 101.377C115.894 90.3642 109.395 66.0449 120.408 47.0335C131.421 28.0221 155.755 21.5379 174.766 32.5507C193.778 43.5635 200.277 67.8828 189.264 86.8942C178.251 105.906 153.917 112.39 134.906 101.377ZM151.638 72.4996C148.58 70.7352 147.536 66.8241 149.315 63.7659C151.079 60.7076 154.99 59.6636 158.049 61.4427C161.107 63.2219 162.151 67.1182 160.372 70.1765C158.607 73.2348 154.696 74.2787 151.638 72.4996ZM136.405 56.2966L135.7 57.5317C129.804 67.7064 133.288 80.7482 143.463 86.6443C146.065 88.144 148.271 88.8498 150.432 89.0556C152.608 89.2615 154.902 88.9674 157.71 88.2175L162.283 86.9971L159.916 78.1016L174.663 86.6443L166.121 101.392L163.754 92.4962L159.181 93.7166C156.005 94.5694 152.991 95.0105 149.903 94.7164C146.801 94.4223 143.801 93.4078 140.625 91.5699C127.73 84.1006 123.319 67.5887 130.789 54.6939L131.494 53.4588L136.405 56.3113V56.2966Z" fill="#929AA5"/>
<path d="M173.267 77.6311L172.561 78.8662L177.472 81.7187L178.177 80.4836C185.647 67.5888 181.236 51.0769 168.341 43.6076C165.165 41.7697 162.166 40.7552 159.063 40.4611C155.975 40.167 152.961 40.6228 149.785 41.4609L145.213 42.6813L142.845 33.7858L134.303 48.5332L149.05 57.0759L146.683 48.1803L151.256 46.96C154.049 46.2101 156.358 45.916 158.534 46.1219C160.695 46.3277 162.901 47.0335 165.503 48.5332C175.693 54.4293 179.163 67.4564 173.267 77.6458V77.6311Z" fill="url(#paint2_linear_773_5632)"/>
<path d="M234.168 216.048L234.138 148.854L267.721 182.451L234.153 216.048H234.168Z" fill="#76808F"/>
<path d="M200.526 182.466L234.109 148.869L234.079 216.063L200.512 182.466H200.526Z" fill="url(#paint3_linear_773_5632)"/>
<rect width="19.799" height="19.799" transform="matrix(-0.707107 -0.707107 -0.707107 0.707107 63 123.937)" fill="#CACED3"/>
<rect width="11.3137" height="11.3137" transform="matrix(-0.707107 -0.707107 -0.707107 0.707107 188 205.937)" fill="#CACED3"/>
<rect width="15.5563" height="15.5563" transform="matrix(-0.707107 -0.707107 -0.707107 0.707107 237 26.937)" fill="#CACED3"/>
<defs>
<linearGradient id="paint0_linear_773_5632" x1="246.585" y1="44.9309" x2="246.585" y2="136.092" gradientUnits="userSpaceOnUse">
<stop stop-color="#F0B90B"/>
<stop offset="1" stop-color="#F8D33A"/>
</linearGradient>
<linearGradient id="paint1_linear_773_5632" x1="154.836" y1="9.93695" x2="154.836" y2="124.005" gradientUnits="userSpaceOnUse">
<stop stop-color="#F0B90B"/>
<stop offset="1" stop-color="#F8D33A"/>
</linearGradient>
<linearGradient id="paint2_linear_773_5632" x1="158.058" y1="33.7858" x2="158.058" y2="81.7187" gradientUnits="userSpaceOnUse">
<stop stop-color="#F0B90B"/>
<stop offset="1" stop-color="#F8D33A"/>
</linearGradient>
<linearGradient id="paint3_linear_773_5632" x1="217.31" y1="148.869" x2="217.31" y2="216.063" gradientUnits="userSpaceOnUse">
<stop stop-color="#F0B90B"/>
<stop offset="1" stop-color="#F8D33A"/>
</linearGradient>
</defs>
</svg>
