<?xml version="1.0" encoding="UTF-8"?>
<!DOCTYPE svg PUBLIC "-//W3C//DTD SVG 1.1//EN" "http://www.w3.org/Graphics/SVG/1.1/DTD/svg11.dtd">
<!-- Creator: CorelDRAW 2020 (64-Bit Evaluation Version) -->
<svg xmlns="http://www.w3.org/2000/svg" xml:space="preserve" width="40px" height="40px" version="1.1" style="shape-rendering:geometricPrecision; text-rendering:geometricPrecision; image-rendering:optimizeQuality; fill-rule:evenodd; clip-rule:evenodd"
viewBox="0 0 60.98 60.98"
 xmlns:xlink="http://www.w3.org/1999/xlink"
 xmlns:xodm="http://www.corel.com/coreldraw/odm/2003">
 <defs>
  <style type="text/css">
   <![CDATA[
    .fil0 {fill:#263674}
    .fil1 {fill:#F5BE27}
   ]]>
  </style>
 </defs>
 <g id="Layer_x0020_1">
  <metadata id="CorelCorpID_0Corel-Layer"/>
  <g id="_2403180748560">
   <path class="fil0" d="M0 60.98l60.98 0c-1.4,-15.61 -14.51,-27.84 -30.49,-27.84 -15.97,0 -29.09,12.23 -30.49,27.84z"/>
   <path class="fil0" d="M30.49 30.47c8.41,0 15.24,-6.82 15.24,-15.24 0,-8.41 -6.83,-15.23 -15.24,-15.23 -8.41,0 -15.23,6.82 -15.23,15.23 0,8.42 6.82,15.24 15.23,15.24z"/>
   <path class="fil1" d="M4.36 55.88c-1.12,0.95 -2.79,0.81 -3.73,-0.31 -0.95,-1.12 -0.81,-2.79 0.31,-3.73l21.78 -18.38 12.61 18.62 21.08 -27.04c1.01,-1.06 2.69,-1.1 3.75,-0.09 1.06,1 1.1,2.68 0.09,3.74l-25.61 32.29 -13.18 -19.52 -17.1 14.42z"/>
  </g>
 </g>
</svg>
