<?xml version="1.0" encoding="UTF-8"?>
<!DOCTYPE svg PUBLIC "-//W3C//DTD SVG 1.1//EN" "http://www.w3.org/Graphics/SVG/1.1/DTD/svg11.dtd">
<!-- Creator: CorelDRAW 2020 (64-Bit Evaluation Version) -->
<svg xmlns="http://www.w3.org/2000/svg" xml:space="preserve" width="1003px" height="1015px" version="1.1" style="shape-rendering:geometricPrecision; text-rendering:geometricPrecision; image-rendering:optimizeQuality; fill-rule:evenodd; clip-rule:evenodd"
viewBox="0 0 1003.54 1015.95"
 xmlns:xlink="http://www.w3.org/1999/xlink"
 xmlns:xodm="http://www.corel.com/coreldraw/odm/2003">
 <defs>
  <style type="text/css">
   <![CDATA[
    .str1 {stroke:#263674;stroke-width:4;stroke-miterlimit:2.61313}
    .str0 {stroke:#E6E6E6;stroke-width:2.09;stroke-miterlimit:2.61313}
    .fil9 {fill:black}
    .fil3 {fill:#263674}
    .fil12 {fill:#505C8F}
    .fil8 {fill:#E6C6A6}
    .fil1 {fill:#E6E6E6}
    .fil2 {fill:#FDCB08}
    .fil13 {fill:#FDDD5D}
    .fil0 {fill:white}
    .fil4 {fill:#263674;fill-rule:nonzero}
    .fil10 {fill:#666694;fill-rule:nonzero}
    .fil6 {fill:#CCCCCC;fill-rule:nonzero}
    .fil5 {fill:#E6E6E6;fill-rule:nonzero}
    .fil11 {fill:#FDCB08;fill-rule:nonzero}
    .fil7 {fill:white;fill-rule:nonzero}
   ]]>
  </style>
 </defs>
 <g id="Layer_x0020_1">
  <metadata id="CorelCorpID_0Corel-Layer"/>
  <rect class="fil0 str0" x="1.04" y="1.04" width="1000.91" height="1000.91"/>
  <path class="fil1 str0" d="M292.07 126.98l698.63 0c6.19,0 11.26,5.07 11.26,11.26l0 0.01c0,6.19 -5.07,11.26 -11.26,11.26l-698.63 0c-6.19,0 -11.26,-5.07 -11.26,-11.26l0 -0.01c0,-6.19 5.07,-11.26 11.26,-11.26z"/>
  <path class="fil1 str0" d="M168.21 257.73l698.62 0c6.2,0 11.26,5.07 11.26,11.26l0 0.01c0,6.19 -5.07,11.26 -11.26,11.26l-698.62 0c-6.2,0 -11.26,-5.07 -11.26,-11.26l0 -0.01c0,-6.19 5.06,-11.26 11.26,-11.26z"/>
  <path class="fil1 str0" d="M44.34 388.48l698.63 0c6.19,0 11.26,5.07 11.26,11.26l0 0c0,6.2 -5.07,11.27 -11.26,11.27l-698.63 0c-6.19,0 -11.26,-5.07 -11.26,-11.27l0 0c0,-6.19 5.07,-11.26 11.26,-11.26z"/>
  <path class="fil1 str0" d="M230.14 519.23l698.63 0c6.19,0 11.26,5.07 11.26,11.26l0 0.01c0,6.19 -5.07,11.26 -11.26,11.26l-698.63 0c-6.19,0 -11.26,-5.07 -11.26,-11.26l0 -0.01c0,-6.19 5.07,-11.26 11.26,-11.26z"/>
  <path class="fil1 str0" d="M106.27 649.98l698.63 0c6.19,0 11.26,5.07 11.26,11.26l0 0c0,6.2 -5.07,11.27 -11.26,11.27l-698.63 0c-6.19,0 -11.26,-5.07 -11.26,-11.27l0 0c0,-6.19 5.07,-11.26 11.26,-11.26z"/>
  <circle class="fil2" cx="390.33" cy="399.74" r="43.79"/>
  <circle class="fil3" cx="250.34" cy="269" r="43.79"/>
  <circle class="fil3" cx="939.72" cy="138.25" r="43.79"/>
  <circle class="fil3" cx="455.59" cy="661.24" r="43.79"/>
  <polygon class="fil4" points="450.55,690.53 246.56,279.12 16.47,698.57 11.48,691.92 246.56,268.73 449.5,679.36 667.62,403.06 668.5,402.7 998.85,340.23 1001.96,347.94 672.48,410.06 "/>
  <g id="_2969353843584">
   <g>
    <path id="bb7b29b1-743f-4814-99e1-7130c517fe83-33" class="fil5" d="M773.3 893.83c-5.8,2.03 -11.9,3.08 -18.05,3.08 -12.59,0 -24.8,-4.36 -34.52,-12.34 -18.41,-15.46 -24.19,-40.91 -28.89,-64.49l-13.89 -69.74 29.09 20.03c20.92,14.4 42.31,29.27 56.8,50.13 14.48,20.87 20.8,49.35 9.17,71.93l0.29 1.4zm0 0l0 0 0 0z" data-name="Path 438"/>
   </g>
   <path id="fed11345-5ecc-4699-9d2a-1ad58856fa3e-34" class="fil6" d="M768.81 983.12c3.66,-26.67 7.43,-53.69 4.86,-80.66 -2.29,-23.94 -9.59,-47.32 -24.46,-66.5 -7.89,-10.15 -17.52,-18.88 -28.4,-25.73 -2.83,-1.79 -5.45,2.71 -2.62,4.49 18.83,11.9 33.42,29.49 41.61,50.2 9.06,23.04 10.52,48.15 8.96,72.63 -0.95,14.8 -2.95,29.5 -4.96,44.19 -0.06,0.2 -0.08,0.41 -0.08,0.62 0,1.18 0.77,2.22 1.89,2.57 0.22,0.06 0.45,0.09 0.68,0.09 1.17,0 2.2,-0.78 2.52,-1.9l0 0z" data-name="Path 439"/>
   <g>
    <path id="a3dbae8e-6ba7-4728-9f88-d2b4a8de2cb7-35" class="fil5" d="M742.46 940.32c-7.41,11.26 -20,18.05 -33.49,18.05 -0.47,0 -0.97,-0.01 -1.44,-0.02 -17.68,-0.84 -32.42,-13.18 -45.68,-24.89l-39.24 -34.65 25.97 -1.24c18.68,-0.9 37.83,-1.74 55.62,4.03 17.79,5.77 34.2,19.62 37.45,38.03l0.81 0.69zm0 0l0 0 0 0z" data-name="Path 442"/>
   </g>
   <path id="b12c7aab-829f-433e-99e1-9b0624b941d5-36" class="fil6" d="M779.16 998.46c-17.63,-31.19 -38.07,-65.86 -74.6,-76.94 -7.8,-2.36 -15.94,-3.56 -24.09,-3.56 -2.43,0 -4.88,0.11 -7.3,0.32 -3.33,0.28 -2.5,5.42 0.83,5.13 2.12,-0.16 4.27,-0.26 6.4,-0.26 15.58,0 30.83,4.72 43.68,13.52 14.12,9.61 25.12,22.97 34.42,37.14 5.7,8.68 10.81,17.73 15.91,26.76 1.63,2.89 6.4,0.81 4.75,-2.11z" data-name="Path 443"/>
  </g>
  <g>
   <path class="fil5" d="M414.01 845.17l-124.03 0c-3.72,0 -6.74,-3.02 -6.74,-6.74 0,-3.72 3.02,-6.74 6.74,-6.74l124.03 0c3.73,0 6.74,3.02 6.74,6.74 0,3.72 -3.01,6.74 -6.74,6.74l0 0z"/>
   <path class="fil4" d="M252.9 851.91c-7.82,0 -14.16,-6.34 -14.16,-14.16 0,-7.81 6.34,-14.15 14.16,-14.15 7.82,0 14.16,6.34 14.16,14.15 -0.01,7.82 -6.35,14.15 -14.16,14.16l0 0z"/>
   <path class="fil5" d="M414.01 885.62l-124.03 0c-3.72,0 -6.74,-3.02 -6.74,-6.75 0,-3.72 3.02,-6.74 6.74,-6.74l124.03 0c3.73,0 6.74,3.02 6.74,6.74 0,3.73 -3.01,6.75 -6.74,6.75l0 0z"/>
   <path class="fil4" d="M252.9 892.36c0,0 0,0 0,0 -7.82,0 -14.16,-6.34 -14.16,-14.16 0,-7.82 6.34,-14.16 14.16,-14.16 7.82,0 14.16,6.34 14.16,14.16 0,0 0,0 0,0 -0.01,7.81 -6.35,14.15 -14.16,14.16l0 0z"/>
   <path class="fil5" d="M414.01 926.06l-124.03 0c-3.72,0 -6.74,-3.02 -6.74,-6.74 0,-3.72 3.02,-6.74 6.74,-6.74l124.03 0c3.73,0 6.74,3.02 6.74,6.74 0,3.72 -3.01,6.74 -6.74,6.74l0 0z"/>
   <path class="fil4" d="M252.9 932.8c-7.82,0 -14.16,-6.34 -14.16,-14.15 0,-7.82 6.34,-14.16 14.16,-14.16 7.82,0 14.16,6.34 14.16,14.16 -0.01,7.81 -6.35,14.15 -14.16,14.15l0 0z"/>
  </g>
  <path class="fil5 str0" d="M502.87 785.39c176.89,49.44 333.28,146.18 499.09,222.08 -1.71,2.39 -3.41,4.79 -5.14,7.18 -4.21,-1.93 -8.39,-3.87 -12.57,-5.83 -85.73,-40.01 -168.83,-85.38 -254.19,-126.14 -87.08,-41.59 -176.62,-76.93 -270.57,-99.63 -92.7,-22.25 -187.76,-33.62 -283.11,-33.62 -37.93,0 -76.31,1.77 -113.95,5.32 -0.31,-2.89 -0.6,-5.8 -0.86,-8.69 37.95,-3.54 76.32,-5.33 114.53,-5.33 110.35,0 220.54,15.02 326.72,44.62l0.05 0.04z"/>
  <path class="fil5 str0" d="M999.56 1001.96l-912.79 0c-1.32,0 -2.39,-1.08 -2.39,-2.4 0,-1.32 1.07,-2.4 2.39,-2.4l912.79 0c1.33,0 2.4,1.08 2.4,2.4 0,1.32 -1.07,2.4 -2.4,2.4l0 0z"/>
  <g>
   <path class="fil7 str1" d="M227.84 458.81c-29.36,-19.89 -76.78,-20.97 -103.79,-19.68 -11.83,0.57 -21.56,9.48 -23.08,21.23 -4.41,34.06 -17.25,122.97 -20.16,138.42 -1.55,8.25 -11.41,27.66 -6.1,34.98 1.91,2.64 5.01,4.13 8,5.45 8.65,3.84 17.52,7.16 26.38,10.49 6.62,2.48 13.25,4.97 19.88,7.45 8.82,3.31 23.9,9.58 31.89,2.12 7.98,-7.45 8.05,-20.35 11.01,-30.12 2.66,-8.82 5.68,-17.55 8.52,-26.32 7.26,-22.45 14.53,-44.89 21.8,-67.34 0.3,-0.96 5.38,-14.36 4.78,-14.78 47.19,32.94 80.96,29.14 104.11,14.18 -7.29,-12.14 -13.11,-24.65 -17.49,-37.52 -38.8,2.24 -65.75,-38.56 -65.75,-38.56z"/>
   <path class="fil4" d="M229.78 450.98c-67.86,-11.11 -86.84,1.6 -86.84,1.6l28.7 54.44c0,0 67.23,4.02 118.28,-29.22 -8.23,-10.41 -13.63,-21.62 -16.98,-30.28 -12.81,4.16 -27.33,6.05 -43.16,3.46z"/>
   <path class="fil8" d="M344.74 359.23c0.08,-2.2 -2.84,-3.03 -3.93,-1.12l-10.19 17.91c-1.97,3.46 -2.84,7.44 -2.47,11.4l2.2 11.07c0.49,5.35 -1.32,10.65 -5,14.57 -8.81,9.37 -27.32,26.3 -52.41,34.46 3.35,8.66 8.75,19.87 16.98,30.28 18.72,-12.2 35.28,-29.4 45.53,-53.67 4.06,-0.9 7,-4.42 7.18,-8.57l2.11 -56.33z"/>
   <path class="fil9" d="M66.47 968.46c0,0 -4.97,7.82 -6.22,29.72 -0.11,2.04 1.51,3.78 3.55,3.78l38.81 0c1.56,0 2.67,-1.54 2.17,-3.01 -2.27,-6.73 -9.15,-23.14 -24.49,-32.52l-13.82 2.03z"/>
   <path class="fil8" d="M64.78 953.62l2.19 18.4c0.19,1.59 1.44,2.86 3.03,3.04 2.12,0.25 5.2,0.42 8.2,-0.07 2.73,-0.45 4.69,-2.88 4.69,-5.64l0 -17.77 -18.11 2.04z"/>
   <path class="fil10" d="M104.43 727.53c-0.79,0 -1.5,-0.53 -1.71,-1.32l-6.74 -25.86 -14.36 -9.2c-0.82,-0.53 -1.06,-1.63 -0.53,-2.45 0.53,-0.82 1.62,-1.06 2.44,-0.53l14.94 9.58c0.37,0.24 0.64,0.61 0.76,1.04l6.91 26.53c0.25,0.94 -0.32,1.91 -1.26,2.15 -0.16,0.04 -0.3,0.06 -0.45,0.06z"/>
   <path class="fil9" d="M162.48 966.43c0,0 -7.43,11.55 -7.27,27.39 0.04,3.73 3.17,6.71 6.9,6.71l60.27 0c2.82,0 3.97,-3.63 1.66,-5.25 -11.41,-8.01 -33.82,-22.97 -50.04,-28.85l-11.52 0z"/>
   <path class="fil8" d="M156.28 946.55l4.68 22.73c0.52,2.54 3.01,4.26 5.54,3.69 1.54,-0.34 3.36,-1 5.3,-2.22 1.84,-1.15 2.78,-3.35 2.4,-5.49l-4.84 -27.54 -13.08 8.83z"/>
   <path class="fil3" d="M78.27 623.34c0,0 -21.17,21.53 -24.23,38.8 -3.07,17.27 8.68,297.91 8.68,297.91 0,0 16.27,2.71 24.66,-2.38 0,0 9.96,-182.13 17.52,-224.22 0,0 39.68,188.67 50.67,222.76 0,0 15.68,1.91 20.74,-1.08 0,0 -9.45,-249.11 -22.5,-292.59l-75.54 -39.2z"/>
   <path class="fil8" d="M353.66 476.1l-8.81 -7.42c-18.35,20.02 -35.75,27.79 -51.26,28.69 4.38,12.87 10.2,25.38 17.49,37.52 30.5,-19.71 42.58,-58.79 42.58,-58.79z"/>
   <path class="fil8" d="M348.95 477.36l38.28 -7.29 30.43 -27.6c-5.75,-1.98 -32.62,11 -32.62,11 0,0 -30.69,2.38 -38.71,4.23 -6.66,1.53 -3.5,10.89 -2.23,14.02 0.26,0.64 0.44,1.02 0.44,1.02l4.41 4.62z"/>
   <path class="fil8" d="M148.94 384.38l-8.71 53.48c0,0 26.68,10.6 44.84,4.8l-0.17 -46.24 -35.96 -12.04z"/>
   <path class="fil8" d="M175.05 343.24c0.61,0.54 26.36,47.97 26.36,47.97l-27.39 14.13 -31.08 -41.33c0,0 21.92,-29.87 32.11,-20.77z"/>
   <path class="fil9" d="M155.52 368.47l14.66 23.04c0.18,0.3 0.41,0.55 0.67,0.79 1.59,1.43 7.45,5.94 11.7,-0.33 3.86,-5.69 7.47,-10.83 11.5,-12.54 1.81,-0.77 3.91,-0.04 4.84,1.69 2.34,4.31 7.43,14.12 10.55,23.31 0.64,1.87 -0.28,3.9 -2.09,4.69 -5.43,2.4 -17.03,7.13 -27.25,8.75 -1.39,0.22 -2.78,-0.32 -3.64,-1.43 -4.17,-5.42 -16.92,-21.84 -21.18,-25.86 -4,-3.78 -11.24,-1.97 -14.23,-1 -0.97,0.32 -2.03,0.23 -2.94,-0.26 -3.21,-1.72 -9.66,-6.51 -4.18,-15.31 1.15,-1.84 0.55,-4.25 -1.32,-5.34 -3.74,-2.17 -8.2,-6.53 -4.56,-14.05 3.7,-7.65 10.8,-8.21 15.35,-7.65 1.84,0.23 3.53,-0.92 4.09,-2.68 0.32,-1.01 1.08,-1.89 2.71,-2.12 2.18,-0.32 3.57,-2.52 3.03,-4.66 -1.03,-4.12 -0.76,-9.68 5.89,-13.56 11.8,-6.9 22.57,3.55 25.47,12.53 2.91,8.98 -10.31,15.73 -18.7,17.03 -6.38,0.98 -9.6,8.27 -10.77,11.71 -0.37,1.09 -0.22,2.28 0.4,3.25z"/>
   <path class="fil8" d="M160.7 398.91c0,0 -5.73,-15.43 -12.53,-14.68 -6.8,0.75 -11.98,7.68 -3.34,15.09 10.76,9.21 15.87,-0.41 15.87,-0.41z"/>
  </g>
  <g>
   <path class="fil8" d="M842.97 574.74c-0.14,0.17 -44.63,57.33 6.3,115.46l19.18 -1.78c0,0 -36.92,-59.28 -20.47,-106.54 0.14,-0.42 10.06,0.74 10.81,0.79 4.55,0.33 10.29,0.61 13.88,-2.81 2,-1.91 2.83,-4.74 3.56,-7.42 1.37,-5.12 2.71,-10.47 1.66,-15.67 -2.63,2.58 -4.99,5.47 -7,8.56 -1.69,2.58 -2.46,5.59 -5.08,7.36 -4.36,2.95 -10.51,1.87 -15.32,1.94 -0.89,0.01 -6.95,-0.62 -7.52,0.11z"/>
   <path class="fil8" d="M867.46 855.01c0,0 36.22,78.95 55.23,111.66 0,0 3.78,20.57 0,27.04l-3.21 1.43 15.01 -0.44c0,0 1.33,-27.68 0.29,-29.23 -1.04,-1.54 -3.12,-1.44 -3.12,-1.44 0,0 -6.44,-51.01 -25.08,-61.89l-18.08 -62.24 -21.04 15.11z"/>
   <path class="fil9" d="M913.07 999.02c-0.03,0.36 11.72,0.2 18.1,0.08 2.36,-0.04 4.36,-1.7 4.86,-4l4.82 -25.32c0.46,-2.4 -1.06,-4.74 -3.45,-5.29l-2.7 -0.61c0,0 -3.83,5.26 -2.62,10.22 1.2,4.95 2.28,17.79 -0.78,19.29 -3.04,1.49 -11.82,1.75 -11.82,1.75 0,0 -6.22,0.62 -6.41,3.88z"/>
   <path class="fil9" d="M833.13 999.48c-1.19,0.67 -0.7,2.49 0.66,2.48 10.68,-0.11 34.61,-0.45 36.73,-1.33 2.75,-1.15 -0.99,-11.01 -4.93,-14.35l-21.77 7.11 -10.69 6.09z"/>
   <path class="fil8" d="M826.37 849.97c0,0 23.41,113.25 30.03,135.34l-15.66 9.83c0,0 7.85,-1.33 13.67,-1.75 5.81,-0.43 11.18,-7.11 11.18,-7.11l-1.89 -2.99c0,0 -5.87,-112.63 -4.44,-125.42l-32.89 -7.9z"/>
   <path class="fil8" d="M783.46 599.92c0,0 -6.37,53.35 47.27,83.46l-9.78 35c0,0 -48.56,-29.37 -46.76,-109.48 0.05,-2.3 -0.78,-4.53 -2.28,-6.27l-10.32 -11.97c-3.93,-4.57 -5.4,-10.75 -3.94,-16.6l1.36 -5.42c0.46,-1.82 2.52,-2.7 4.15,-1.76l1.07 0.63c3.44,2 6.16,5.02 7.78,8.65l5.07 11.33c1.9,4.23 6.26,6.79 10.88,6.4l3.13 -0.27 -7.63 6.3z"/>
   <path class="fil7 str1" d="M816.79 670.42c8.98,2.49 39.38,10.48 58.35,10.15l-11.65 65.76 0.93 10.72 -37.99 -0.17c0,0 -10.7,-24.83 -19.13,-37.22 -2.44,-3.57 -0.63,-7.84 0.75,-11.94l-1.89 -1.26c-1.93,-1.29 -2.77,-3.7 -2.05,-5.91l9.25 -28.3c0.48,-1.43 1.98,-2.24 3.43,-1.83z"/>
   <path class="fil3" d="M823.38 751.27l0.75 6.5c0,0 -10.74,32.15 5.37,107.25 0,0 34.88,9.88 63.54,-13.77 0,0 -8.08,-70.88 -10.29,-74.17 -11,-16.45 -18.33,-20.03 -18.33,-20.03l-0.33 -7.09c0,0 -30.66,5.54 -40.71,1.31z"/>
   <path class="fil3" d="M838.26 675.72c-0.14,-0.18 7.93,-24.35 7.93,-24.35l11.55 1.05 4.51 27.42c0,0 -18.1,3.65 -23.99,-4.12z"/>
   <path class="fil9" d="M852.86 613.8c-0.77,0.48 -24.69,10.36 -19.55,35.19 0.31,1.47 1.28,2.71 2.65,3.32 3.51,1.56 11.07,4.24 20.1,3.33 12.53,-1.28 20.74,-23.14 20.39,-29.5 -0.35,-6.36 -15.96,-17.09 -23.59,-12.34z"/>
   <path class="fil8" d="M854.98 613.25c-0.78,0.48 -24.69,10.36 -19.55,35.19 0.3,1.46 1.28,2.71 2.65,3.32 3.51,1.56 11.06,4.24 20.1,3.33 12.52,-1.28 20.74,-23.14 20.38,-29.5 -0.34,-6.36 -15.95,-17.09 -23.58,-12.34z"/>
   <path class="fil9" d="M862.25 603.59c-0.63,0.09 -13.81,4.68 -7.27,14.24 6.54,9.56 8.99,15.19 5.9,19.39 -2.82,3.82 -9.06,1.64 -8.52,9.59 0.1,1.6 -0.58,3.14 -1.9,4.04 -5.88,3.98 -20.24,16.24 -6.02,33.73 1.15,1.42 1.39,3.38 0.5,4.98 -4.16,7.47 -12.92,29.36 18.76,41.5 31.31,12 42.62,-8.46 45.77,-16.64 0.69,-1.77 2.43,-2.85 4.32,-2.77 3.44,0.17 8.31,-0.4 8.1,-5 -0.14,-2.79 -1.89,-5.3 -3.95,-7.3 -2.03,-1.99 -1.63,-5.46 0.84,-6.87 1.87,-1.06 3.52,-2.72 4.22,-5.31 1.9,-7.02 -1.89,-28.05 -22.03,-31.61 -1.68,-0.3 -3.44,-1.87 -3.69,-3.56l-0.01 -0.08c-0.27,-1.63 0.28,-3.3 1.61,-4.28 3.22,-2.36 7.35,-7.11 4,-14.73 -2.97,-6.76 -8.68,-9.04 -12.91,-9.76 -2.48,-0.43 -4.12,-2.78 -3.6,-5.25 1.43,-6.72 0.19,-17.49 -24.12,-14.31z"/>
  </g>
  <path class="fil5" d="M816.82 537.68l-37.29 -37.29c-2.61,-2.64 -4.08,-6.2 -4.08,-9.91 0,-0.03 0,-0.06 0,-0.08l0 -69.51 28.14 0 0 63.75 33.21 33.07 -19.98 19.97z"/>
  <path class="fil5" d="M538.77 537.68l-19.98 -19.98 33.21 -33.07 0 -63.74 28.14 0 0 69.51c0.01,0.02 0.01,0.05 0.01,0.08 0,3.71 -1.47,7.27 -4.09,9.9l-37.29 37.3z"/>
  <rect class="fil5" x="663.72" y="470.9" width="28.14" height="70.35"/>
  <path class="fil11" d="M860.72 329.43l-36.3 0c-2.23,-6.67 -4.94,-13.25 -8.03,-19.55l25.75 -25.76c5.29,-5.28 8.26,-12.45 8.26,-19.91 0,-7.47 -2.97,-14.64 -8.25,-19.91l-29.97 -29.83c-5.28,-5.33 -12.48,-8.33 -19.98,-8.33 -7.51,0 -14.71,3 -19.99,8.33l-25.61 25.61c-6.31,-3.09 -12.89,-5.8 -19.56,-8.02l0 -36.31c0.01,-15.54 -12.6,-28.14 -28.14,-28.14l-42.21 0c-15.54,0 -28.14,12.6 -28.14,28.14l0 36.3c-6.66,2.23 -13.24,4.94 -19.55,8.03l-25.76 -25.75c-5.27,-5.29 -12.44,-8.26 -19.91,-8.26 -7.46,0 -14.63,2.97 -19.91,8.25l-29.83 29.98c-5.32,5.27 -8.32,12.47 -8.32,19.98 0,7.5 3,14.7 8.32,19.98l25.61 25.61c-3.09,6.31 -5.79,12.89 -8.02,19.57l-36.31 -0.01c-15.53,-0.01 -28.14,12.6 -28.14,28.14l0 42.21c0,15.54 12.61,28.14 28.15,28.14l86.25 0c-5.84,-13.35 -8.86,-27.76 -8.86,-42.34 0,-58.27 47.25,-105.52 105.53,-105.52 58.27,0 105.53,47.25 105.53,105.52 0,0.04 0,0.09 0,0.13l-0.01 -0.01c0,14.53 -3.03,28.91 -8.85,42.22l86.25 0c15.54,0 28.14,-12.6 28.14,-28.14l0 -42.22c0,-15.53 -12.6,-28.14 -28.14,-28.14l0 0.01z"/>
  <path class="fil0" d="M742.3 403.06l-70.12 0 -9.75 0 0 -9.94 0 -69.96c-11.35,1.53 -21.68,5.57 -30.98,12.13 -9.27,6.57 -16.62,14.93 -22.01,25.14 -5.38,10.2 -8.06,21.16 -8.06,32.88 0,9.63 1.86,18.84 5.6,27.6 3.73,8.76 8.76,16.29 15.08,22.61 6.35,6.32 13.88,11.38 22.61,15.14 8.7,3.77 17.88,5.63 27.51,5.63 11.71,0 22.64,-2.71 32.85,-8.1 10.2,-5.38 18.6,-12.76 25.14,-22.06 6.56,-9.33 10.59,-19.69 12.13,-31.07z"/>
  <path class="fil1" d="M667.62 403.06l-41.54 44.16c5.44,4.62 11.63,8.45 18.59,11.44 8.7,3.77 17.88,5.63 27.51,5.63 11.71,0 22.64,-2.71 32.85,-8.1 10.2,-5.38 18.6,-12.76 25.14,-22.06 6.56,-9.33 10.59,-19.69 12.13,-31.07l-70.12 0 -4.56 0z"/>
  <circle class="fil2" cx="809.27" cy="530.49" r="43.79"/>
  <path class="fil12" d="M953.68 96.73l-10.17 30.25 -7.57 22.53 -10.17 30.26c4.38,1.47 9.07,2.27 13.95,2.27 20.3,0 37.37,-13.81 42.33,-32.53 0.96,-3.6 1.47,-7.37 1.47,-11.26 0,-3.9 -0.51,-7.67 -1.47,-11.27 -3.77,-14.22 -14.52,-25.6 -28.37,-30.25z"/>
  <path class="fil12" d="M264.3 226.34l-10.17 30.26 -7.57 22.52 -10.17 30.26c4.38,1.47 9.07,2.27 13.95,2.27 20.3,0 37.36,-13.8 42.33,-32.53 0.96,-3.59 1.46,-7.37 1.46,-11.26 0,-3.89 -0.5,-7.67 -1.46,-11.26 -3.77,-14.23 -14.52,-25.61 -28.37,-30.26z"/>
  <path class="fil13" d="M404.28 357.09l-10.17 30.26 -7.57 22.52 -10.17 30.26c4.38,1.47 9.08,2.27 13.96,2.27 20.29,0 37.36,-13.8 42.33,-32.53 0.95,-3.59 1.46,-7.37 1.46,-11.26 0,-3.89 -0.51,-7.67 -1.46,-11.26 -3.78,-14.23 -14.53,-25.61 -28.38,-30.26z"/>
  <path class="fil12" d="M469.54 619.72l-10.17 30.26 -7.57 22.52 -10.17 30.26c4.38,1.48 9.08,2.27 13.96,2.27 20.29,0 37.36,-13.8 42.33,-32.53 0.95,-3.59 1.46,-7.36 1.46,-11.26 0,-3.89 -0.51,-7.66 -1.46,-11.26 -3.78,-14.22 -14.53,-25.6 -28.38,-30.26z"/>
  <path class="fil13" d="M823.23 487.84l-10.17 30.26 -7.57 22.52 -10.17 30.26c4.38,1.47 9.07,2.27 13.95,2.27 20.3,0 37.36,-13.8 42.33,-32.53 0.96,-3.59 1.46,-7.37 1.46,-11.26 0,-3.89 -0.5,-7.67 -1.46,-11.26 -3.77,-14.23 -14.52,-25.61 -28.37,-30.26z"/>
  <path class="fil4" d="M598.01 424.52c-4.25,-9.99 -6.39,-20.44 -6.39,-31.31 0,-10.89 2.14,-21.28 6.39,-31.21 4.24,-9.97 9.96,-18.52 17.15,-25.68 7.2,-7.2 15.78,-12.92 25.71,-17.19 9.97,-4.25 20.39,-6.39 31.31,-6.39l0 80.56 80.63 0c0,10.93 -2.14,21.41 -6.42,31.37 -4.24,9.97 -9.99,18.55 -17.19,25.77 -7.19,7.2 -15.77,12.95 -25.71,17.19 -9.93,4.28 -20.35,6.42 -31.25,6.42 -10.89,0 -21.31,-2.14 -31.27,-6.42 -9.97,-4.27 -18.55,-10.02 -25.77,-17.28 -7.2,-7.22 -12.92,-15.83 -17.19,-25.83zm3.37 -31.22c0,9.64 1.86,18.85 5.6,27.61 3.73,8.76 8.76,16.29 15.08,22.61 6.35,6.32 13.88,11.38 22.61,15.14 8.7,3.77 17.88,5.63 27.51,5.63 11.72,0 22.64,-2.71 32.85,-8.1 10.2,-5.38 18.6,-12.76 25.14,-22.06 6.56,-9.34 10.59,-19.69 12.13,-31.07l-70.12 0 -9.75 0 0 -9.94 0 -69.96c-11.35,1.53 -21.68,5.57 -30.98,12.13 -9.27,6.56 -16.62,14.93 -22,25.14 -5.39,10.21 -8.07,21.16 -8.07,32.87zm81.79 -10.32l0 -80.53c10.93,0 21.41,2.13 31.4,6.38 10,4.27 18.61,9.99 25.8,17.16 7.2,7.19 12.95,15.74 17.19,25.68 4.28,9.93 6.41,20.38 6.41,31.31l-80.8 0z"/>
  <path class="fil5" d="M171.72 155.33c-0.3,-0.15 -0.82,-0.37 -1.56,-0.66 -3.26,-1.19 -5.63,-2.16 -7.12,-2.9 -6.08,-2.96 -9.15,-7.71 -9.23,-14.23 -0.07,-6.53 2.86,-11.27 8.79,-14.24 2.07,-1.18 4.15,-2.07 6.23,-2.67 3.41,-1.18 4.89,-3.48 4.45,-6.89 -0.45,-7.86 -3.19,-14.61 -8.24,-20.24 -2.37,-2.82 -5.19,-3.49 -8.45,-2 -0.89,0.44 -2.37,1.03 -4.45,1.78l-1.11 0.44c-6.52,2.22 -12.16,0.96 -16.9,-3.78 -2.37,-2.23 -3.82,-4.93 -4.34,-8.12 -0.52,-3.19 -0.11,-6.26 1.22,-9.23l1.34 -3.34c1.63,-3.11 1.11,-5.85 -1.56,-8.23 -5.78,-5.19 -12.31,-8.08 -19.57,-8.67 -3.71,-0.3 -6.16,1.19 -7.34,4.45 -0.3,1.48 -0.97,3.19 -2,5.11 -3.27,5.93 -8.01,8.83 -14.24,8.68 -6.52,0 -11.2,-3.04 -14.01,-9.12 -0.45,-0.89 -1.04,-2.23 -1.78,-4.01l-0.89 -2.22c-0.45,-1.63 -1.23,-2.85 -2.34,-3.67 -1.11,-0.82 -2.48,-1.15 -4.11,-1 -8.6,0.74 -15.79,3.78 -21.58,9.12 -2.37,2.37 -2.89,5.04 -1.55,8.01 0.44,0.89 1.03,2.37 1.78,4.45l0.44 1.11c2.22,5.93 1.26,11.23 -2.89,15.9 -4.15,4.67 -9.49,6.19 -16.02,4.56l-1.11 -0.44c-2.07,-0.75 -3.56,-1.34 -4.45,-1.78 -3.26,-1.64 -6.15,-0.97 -8.67,2 -5.04,5.93 -7.86,12.38 -8.45,19.35 -0.3,2.37 -0.11,4.11 0.55,5.23 0.67,1.11 2.19,2.18 4.56,3.22 0.89,0.3 2.23,0.89 4.01,1.78 5.78,3.26 8.6,8.12 8.45,14.57 -0.15,6.45 -3.26,11.16 -9.34,14.12l-1.12 0.45c-1.48,0.59 -2.59,1.04 -3.33,1.33 -3.26,1.04 -4.75,3.41 -4.45,7.12 0.44,6.53 2.59,12.61 6.45,18.24 1.63,2.52 3.19,4 4.67,4.45 1.48,0.44 3.63,0.07 6.45,-1.11 6.38,-2.67 12.16,-2.23 17.35,1.33 3.41,2.52 5.63,5.71 6.67,9.57 1.04,3.85 0.6,8 -1.33,12.45 -0.74,1.78 -1.04,3.37 -0.89,4.78 0.15,1.41 0.81,2.71 2,3.9 6.52,5.48 13.35,8.45 20.46,8.89 3.86,0.3 6.31,-1.26 7.34,-4.67 0.6,-1.93 1.26,-3.56 2.01,-4.89 1.33,-2.97 3.37,-5.34 6.11,-7.12 2.75,-1.78 5.67,-2.59 8.79,-2.45 3.11,0.15 6,1.19 8.67,3.12 2.67,1.93 4.53,4.37 5.56,7.34 0.45,0.89 0.97,2.22 1.56,4 1.04,2.23 2.15,3.71 3.34,4.45 1.18,0.74 2.96,0.96 5.34,0.67 6.96,-0.89 12.9,-3.41 17.79,-7.57 1.93,-1.48 3.08,-2.92 3.45,-4.33 0.37,-1.41 0.11,-3.3 -0.78,-5.67 -0.45,-0.89 -0.97,-2.23 -1.56,-4.01 -2.52,-6.67 -1.33,-12.38 3.56,-17.13 4.89,-4.74 10.6,-5.85 17.13,-3.33 2.37,0.89 4.93,1.96 7.67,3.22 2.74,1.26 5.01,0.93 6.78,-1 6.53,-6.82 9.79,-14.53 9.79,-23.13 0.15,-2.67 -1.18,-4.45 -4,-5.34zm-83.86 22.24c-7.26,0 -13.9,-1.81 -19.9,-5.44 -6.01,-3.64 -10.79,-8.53 -14.35,-14.68 -3.56,-6.16 -5.34,-12.83 -5.34,-20.02 0,-7.19 1.85,-13.79 5.56,-19.8 3.71,-6 8.6,-10.75 14.68,-14.23 6.08,-3.49 12.72,-5.23 19.91,-5.23 7.19,0 13.79,1.78 19.79,5.34 6.01,3.56 10.76,8.38 14.24,14.45 3.48,6.08 5.23,12.76 5.23,20.02 0,7.27 -1.78,13.9 -5.34,19.91 -3.56,6.01 -8.38,10.79 -14.46,14.35 -6.08,3.56 -12.75,5.33 -20.02,5.33zm0.45 -58.94c-5.19,-0.15 -9.71,1.63 -13.57,5.34 -3.86,3.71 -5.86,8.19 -6.01,13.46 -0.14,5.26 1.63,9.78 5.34,13.57 3.71,3.78 8.19,5.78 13.46,6 5.26,0.22 9.82,-1.56 13.68,-5.34 3.85,-3.78 5.86,-8.26 6,-13.45 0.15,-5.19 -1.66,-9.72 -5.45,-13.57 -3.78,-3.86 -8.26,-5.86 -13.45,-6.01zm-0.22 28.25c-2.53,0 -4.68,-0.89 -6.46,-2.67 -1.77,-1.78 -2.66,-3.93 -2.66,-6.45 0,-2.52 0.89,-4.63 2.66,-6.34 1.78,-1.7 3.86,-2.56 6.23,-2.56 2.37,0 4.45,0.86 6.23,2.56 1.78,1.71 2.71,3.78 2.78,6.23 0.07,2.45 -0.74,4.56 -2.45,6.34 -1.7,1.78 -3.81,2.74 -6.33,2.89zm97.42 -58.72c-0.15,-0.59 -0.22,-1.48 -0.22,-2.67 -0.15,-1.63 0.22,-3.15 1.11,-4.56 0.89,-1.41 2.07,-2.45 3.56,-3.11 1.48,-0.67 3.04,-0.89 4.67,-0.67 1.63,0.22 3.04,0.93 4.22,2.11l1.78 1.34c0.89,0.89 1.71,1.37 2.45,1.44 0.74,0.08 1.63,-0.26 2.67,-1 2.82,-2.07 4.97,-4.6 6.45,-7.56 0.59,-1.19 0.78,-2.15 0.56,-2.89 -0.23,-0.74 -0.78,-1.56 -1.67,-2.45l-1.78 -1.33c-2.52,-2.52 -3.26,-5.42 -2.23,-8.68 1.04,-3.26 3.41,-5.11 7.12,-5.56 0.89,-0.15 2.3,-0.22 4.23,-0.22 1.48,0 2.44,-0.67 2.89,-2 1.48,-4.75 1.18,-9.05 -0.89,-12.9 -0.45,-1.34 -1.48,-1.86 -3.12,-1.56 -2.07,0.3 -3.63,0.44 -4.67,0.44 -3.41,0 -5.89,-1.48 -7.45,-4.44 -1.55,-2.97 -1.37,-5.86 0.56,-8.68 0.44,-0.59 1.19,-1.41 2.22,-2.45 1.34,-1.33 1.56,-2.74 0.67,-4.22 -2.08,-3.56 -4.97,-6.08 -8.67,-7.56 -1.78,-0.75 -3.19,-0.37 -4.23,1.11 -0.44,0.59 -1.11,1.33 -2,2.22 -2.37,2.67 -5.27,3.41 -8.68,2.23 -1.63,-0.6 -2.93,-1.52 -3.89,-2.78 -0.96,-1.26 -1.52,-2.78 -1.67,-4.56l0 -1.78c0,-1.78 -0.89,-2.89 -2.67,-3.34 -3.55,-1.04 -7.19,-0.89 -10.9,0.45 -1.77,0.74 -2.59,2 -2.44,3.78 0.15,0.59 0.22,1.48 0.22,2.67 0,3.55 -1.48,6.04 -4.45,7.45 -2.96,1.41 -5.86,1.07 -8.67,-1 -0.89,-0.74 -1.71,-1.56 -2.45,-2.45 -1.33,-1.19 -2.67,-1.34 -4,-0.45 -4.01,2.38 -6.6,5.42 -7.79,9.12 -0.74,1.64 -0.37,2.97 1.11,4.01 0.6,0.44 1.34,1.11 2.23,2 2.37,2.08 3.15,4.71 2.33,7.9 -0.81,3.18 -2.92,5.15 -6.33,5.89 -0.6,0.15 -1.56,0.22 -2.9,0.22 -1.92,0 -3.11,0.97 -3.56,2.89 -0.89,4.01 -0.74,7.64 0.45,10.9 0.44,1.19 0.96,1.97 1.56,2.34 0.59,0.37 1.55,0.48 2.89,0.33l2.22 0c3.41,0 5.82,1.52 7.23,4.56 1.41,3.04 1.08,5.97 -1,8.79l-0.67 0.67c-0.44,0.59 -0.81,0.96 -1.11,1.11 -1.19,1.33 -1.33,2.74 -0.44,4.22 1.63,2.97 4.07,5.34 7.34,7.12 1.33,0.74 2.37,1.04 3.11,0.89 0.74,-0.15 1.63,-0.81 2.67,-2 2.37,-2.67 5.11,-3.78 8.23,-3.34 2.22,0.3 4,1.23 5.34,2.78 1.33,1.56 2.07,3.6 2.22,6.12 0.3,1.93 1.19,3.11 2.67,3.56 3.86,1.04 7.64,0.81 11.34,-0.67 1.63,-0.74 2.38,-2 2.23,-3.78zm-28.92 -32.03c-2.37,-5.04 -2.67,-10.23 -0.89,-15.57 1.78,-5.34 5.19,-9.27 10.23,-11.79 5.05,-2.52 10.24,-2.85 15.57,-1 5.34,1.85 9.27,5.3 11.79,10.34 2.52,5.05 2.86,10.24 1,15.57 -1.85,5.34 -5.3,9.23 -10.34,11.68 -5.04,2.45 -10.23,2.78 -15.57,1 -5.34,-1.78 -9.27,-5.19 -11.79,-10.23zm14.02 -18.02c-2.38,1.19 -4.05,3.08 -5.01,5.68 -0.96,2.59 -0.89,5.11 0.22,7.56 1.12,2.44 2.97,4.15 5.56,5.11 2.6,0.97 5.16,0.86 7.68,-0.33 2.52,-1.19 4.22,-3.11 5.11,-5.78 0.89,-2.67 0.74,-5.19 -0.44,-7.57 -1.19,-2.37 -3.08,-4 -5.67,-4.89 -2.6,-0.89 -5.08,-0.81 -7.45,0.22zm6.45 13.13c-1.19,0.59 -2.38,0.66 -3.56,0.22 -1.19,-0.45 -2.08,-1.22 -2.67,-2.34 -0.6,-1.11 -0.67,-2.26 -0.22,-3.44 0.44,-1.19 1.18,-2.08 2.22,-2.67 1.04,-0.6 2.15,-0.71 3.34,-0.34 1.18,0.37 2.11,1.15 2.78,2.34 0.66,1.19 0.78,2.37 0.33,3.56 -0.45,1.18 -1.19,2.07 -2.22,2.67zm44.04 53.82c-0.3,-0.14 -0.89,-0.37 -1.78,-0.66 -1.49,-0.45 -2.3,-1.41 -2.45,-2.9 -0.15,-1.48 0.44,-2.52 1.78,-3.11l1.11 -0.67c0.74,-0.44 1.04,-0.96 0.89,-1.55 -0.15,-1.63 -0.81,-3.04 -2,-4.23 -0.74,-0.59 -1.41,-0.67 -2,-0.22l-1.11 0.44c-1.19,0.6 -2.38,0.41 -3.56,-0.55 -1.19,-0.97 -1.56,-2.12 -1.12,-3.45l0.23 -0.89c0.44,-0.59 0.29,-1.11 -0.45,-1.56 -1.18,-1.03 -2.67,-1.55 -4.45,-1.55 -0.74,0 -1.18,0.37 -1.33,1.11l-0.45 1.11c-0.44,1.19 -1.33,1.89 -2.66,2.11 -1.34,0.23 -2.45,-0.33 -3.34,-1.66l-0.67 -1.34c-0.15,-0.59 -0.67,-0.89 -1.56,-0.89 -1.77,0.45 -3.26,1.26 -4.44,2.45 -0.45,0.44 -0.45,1.04 0,1.78l0.44 1.11c0.59,1.19 0.52,2.33 -0.22,3.45 -0.74,1.11 -1.86,1.52 -3.34,1.22l-1.33 -0.22c-0.6,-0.3 -1.19,-0.15 -1.78,0.44 -0.89,1.34 -1.34,2.82 -1.34,4.45 -0.14,0.74 0.23,1.26 1.12,1.56l0.88 0.44c1.19,0.45 1.86,1.37 2.01,2.78 0.15,1.41 -0.37,2.49 -1.56,3.23l-0.89 0.67c-0.59,0.14 -0.89,0.66 -0.89,1.55 0.15,1.34 0.74,2.6 1.78,3.78 0.45,0.45 0.82,0.71 1.11,0.78 0.3,0.08 0.74,-0.04 1.34,-0.33 1.33,-0.59 2.59,-0.59 3.78,0 1.63,1.04 2.15,2.52 1.56,4.45 -0.15,0.89 0,1.48 0.44,1.78 1.19,1.03 2.67,1.55 4.45,1.55 0.89,0 1.41,-0.37 1.56,-1.11l0.22 -1.11c0.74,-1.48 1.78,-2.22 3.11,-2.22 0.59,-0.15 1.23,-0.04 1.89,0.33 0.67,0.37 1.15,0.85 1.45,1.44 0,0.3 0.15,0.6 0.44,0.89 0.45,0.75 1.04,1.04 1.78,0.89 1.49,-0.29 2.75,-0.96 3.78,-2 0.6,-0.59 0.67,-1.26 0.23,-2 0,-0.3 -0.15,-0.59 -0.45,-0.89 -0.44,-1.48 -0.22,-2.74 0.67,-3.78 0.89,-1.04 2,-1.41 3.33,-1.11l1.78 0.66c0.6,0.15 1.12,0 1.56,-0.44 1.19,-1.48 1.71,-3.19 1.56,-5.12 0,-0.59 -0.37,-0.89 -1.11,-0.89zm-17.35 6.23c-2.38,0.3 -4.49,-0.33 -6.34,-1.89 -1.86,-1.56 -2.86,-3.52 -3,-5.89 -0.15,-2.38 0.51,-4.41 2,-6.12 1.48,-1.71 3.41,-2.67 5.78,-2.89 2.37,-0.22 4.45,0.41 6.23,1.89 1.78,1.48 2.82,3.41 3.11,5.78 0.3,2.38 -0.33,4.45 -1.89,6.23 -1.56,1.78 -3.52,2.74 -5.89,2.89zm-1.12 -12.45c-1.18,0 -2.14,0.44 -2.89,1.33 -0.74,0.89 -1.07,1.93 -1,3.12 0.08,1.18 0.56,2.14 1.45,2.89 0.89,0.74 1.93,1.03 3.11,0.89 1.19,-0.15 2.15,-0.67 2.89,-1.56 0.75,-0.89 1.04,-1.89 0.89,-3 -0.14,-1.12 -0.66,-2.04 -1.55,-2.78 -0.89,-0.75 -1.86,-1.04 -2.9,-0.89zm0.45 6c-0.59,0.15 -1.08,0.04 -1.45,-0.33 -0.37,-0.37 -0.59,-0.85 -0.66,-1.45 -0.08,-0.59 0.07,-1.07 0.44,-1.44 0.37,-0.37 0.82,-0.6 1.34,-0.67 0.52,-0.08 1,0.07 1.44,0.44 0.45,0.37 0.67,0.78 0.67,1.23 0,0.44 -0.15,0.89 -0.45,1.33 -0.29,0.45 -0.74,0.74 -1.33,0.89z"/>
 </g>
</svg>
