<?xml version="1.0" encoding="UTF-8"?>
<!DOCTYPE svg PUBLIC "-//W3C//DTD SVG 1.1//EN" "http://www.w3.org/Graphics/SVG/1.1/DTD/svg11.dtd">
<!-- Creator: CorelDRAW 2020 (64-Bit Evaluation Version) -->
<svg xmlns="http://www.w3.org/2000/svg" xml:space="preserve" width="800px" height="512px" version="1.1" style="shape-rendering:geometricPrecision; text-rendering:geometricPrecision; image-rendering:optimizeQuality; fill-rule:evenodd; clip-rule:evenodd"
viewBox="0 0 341.92 219.17"
 xmlns:xlink="http://www.w3.org/1999/xlink"
 xmlns:xodm="http://www.corel.com/coreldraw/odm/2003">
 <defs>
  <style type="text/css">
   <![CDATA[
    .str0 {stroke:#263674;stroke-width:0.37;stroke-miterlimit:10}
    .str1 {stroke:#263674;stroke-width:0.41;stroke-miterlimit:10}
    .fil13 {fill:gray}
    .fil5 {fill:#EFB30C}
    .fil15 {fill:black;fill-rule:nonzero}
    .fil12 {fill:#1A1A1A;fill-rule:nonzero}
    .fil20 {fill:#1D3B54;fill-rule:nonzero}
    .fil18 {fill:#263674;fill-rule:nonzero}
    .fil19 {fill:#333333;fill-rule:nonzero}
    .fil9 {fill:#BD9C42;fill-rule:nonzero}
    .fil17 {fill:#CCCCCC;fill-rule:nonzero}
    .fil8 {fill:#CFA83C;fill-rule:nonzero}
    .fil4 {fill:#D6D6D6;fill-rule:nonzero}
    .fil11 {fill:#D6DCE8;fill-rule:nonzero}
    .fil16 {fill:#E2D2CA;fill-rule:nonzero}
    .fil3 {fill:#EEF0F3;fill-rule:nonzero}
    .fil1 {fill:#EFB30C;fill-rule:nonzero}
    .fil14 {fill:#F2CC9B;fill-rule:nonzero}
    .fil10 {fill:#FAC73A;fill-rule:nonzero}
    .fil7 {fill:white;fill-rule:nonzero}
    .fil0 {fill:white;fill-rule:nonzero}
    .fil6 {fill:url(#id0)}
    .fil2 {fill:url(#id1)}
   ]]>
  </style>
  <linearGradient id="id0" gradientUnits="userSpaceOnUse" x1="31.27" y1="152.97" x2="31.27" y2="214.22">
   <stop offset="0" style="stop-opacity:1; stop-color:#D3DAE0"/>
   <stop offset="1" style="stop-opacity:1; stop-color:white"/>
  </linearGradient>
  <linearGradient id="id1" gradientUnits="userSpaceOnUse" x1="0.07" y1="82.95" x2="0.07" y2="85.78">
   <stop offset="0" style="stop-opacity:1; stop-color:#FFF0C7"/>
   <stop offset="1" style="stop-opacity:1; stop-color:white"/>
  </linearGradient>
 </defs>
 <g id="Layer_x0020_1">
  <metadata id="CorelCorpID_0Corel-Layer"/>
  <polygon class="fil0" points="123.02,207.9 126.63,207.9 126.63,96.22 123.02,96.22 "/>
  <polygon class="fil0" points="143.38,207.9 146.99,207.9 146.99,96.22 143.38,96.22 "/>
  <polygon class="fil0" points="163.75,207.9 167.36,207.9 167.36,96.22 163.75,96.22 "/>
  <polygon class="fil0" points="184.11,207.9 187.72,207.9 187.72,126.85 184.11,126.85 "/>
  <polygon class="fil1" points="121.43,197.39 128.22,197.39 128.22,152.06 121.43,152.06 "/>
  <polygon class="fil1" points="141.79,159.29 148.58,159.29 148.58,113.96 141.79,113.96 "/>
  <polygon class="fil1" points="162.16,184.74 168.95,184.74 168.95,139.42 162.16,139.42 "/>
  <polygon class="fil1" points="182.52,179.49 189.31,179.49 189.31,134.16 182.52,134.16 "/>
  <path class="fil2" d="M0.12 85.79c-0.01,-0.15 -0.02,-0.3 -0.03,-0.45 -0.05,-0.79 -0.08,-1.59 -0.09,-2.39l0.01 2.39 0.01 0.45 0.1 0z"/>
  <g id="_2389658190496">
   <polygon class="fil0" points="6.41,51.73 38.65,51.73 38.65,48.5 6.41,48.5 "/>
   <polygon class="fil0" points="6.41,61.75 43.47,61.75 43.47,58.51 6.41,58.51 "/>
   <polygon class="fil0" points="6.35,71.71 25.52,71.71 25.52,68.47 6.35,68.47 "/>
   <polygon class="fil0" points="6.35,81.67 35.89,81.67 35.89,78.43 6.35,78.43 "/>
  </g>
  <g id="_2389658191744">
   <polygon class="fil0" points="163.86,116.24 164.7,116.24 164.7,39.83 163.86,39.83 "/>
   <polygon class="fil0" points="185.15,116.24 185.99,116.24 185.99,39.83 185.15,39.83 "/>
   <polygon class="fil0" points="206.44,116.24 207.28,116.24 207.28,39.83 206.44,39.83 "/>
   <polygon class="fil0" points="227.72,116.24 228.56,116.24 228.56,39.83 227.72,39.83 "/>
   <polygon class="fil0" points="249.01,116.24 249.85,116.24 249.85,39.83 249.01,39.83 "/>
   <polygon class="fil0" points="270.3,116.24 271.14,116.24 271.14,39.83 270.3,39.83 "/>
   <polygon class="fil0" points="291.59,116.24 292.43,116.24 292.43,39.83 291.59,39.83 "/>
   <polygon class="fil0" points="312.87,116.24 313.71,116.24 313.71,39.83 312.87,39.83 "/>
   <polygon class="fil3" points="164.28,90.93 178.78,76.44 185.84,83.49 201.26,68.07 213.48,80.29 229.12,64.65 239.84,75.37 267.13,48.08 287.58,68.53 299.97,56.14 313.29,69.47 313.29,116.24 164.28,116.24 "/>
   <polygon class="fil1" points="164.28,100.54 175.87,88.95 183.19,96.27 191.67,87.79 207.65,103.77 227.62,83.79 234.79,90.96 255.4,70.35 274.22,89.17 313.26,50.13 313.26,116.24 164.28,116.24 "/>
   <polygon class="fil0" points="163.86,35.28 172.78,35.28 172.78,33.39 163.86,33.39 "/>
   <polygon class="fil0" points="185.15,35.28 191.25,35.28 191.25,33.39 185.15,33.39 "/>
   <polygon class="fil0" points="206.44,35.28 213.98,35.28 213.98,33.39 206.44,33.39 "/>
   <polygon class="fil0" points="227.72,35.28 233.34,35.28 233.34,33.39 227.72,33.39 "/>
   <polygon class="fil0" points="249.01,35.28 253.7,35.28 253.7,33.39 249.01,33.39 "/>
   <polygon class="fil0" points="270.3,35.28 279.42,35.28 279.42,33.39 270.3,33.39 "/>
   <polygon class="fil0" points="291.59,35.28 297.94,35.28 297.94,33.39 291.59,33.39 "/>
   <polygon class="fil0" points="312.87,35.28 316.89,35.28 316.89,33.39 312.87,33.39 "/>
  </g>
  <g id="_2389658198608">
   <polygon class="fil4" points="20.06,208.86 42.48,208.86 42.48,206.1 20.06,206.1 "/>
   <polygon class="fil4" points="14.63,203.95 47.92,203.95 47.92,201.18 14.63,201.18 "/>
   <path class="fil5" d="M37.11 163.28c0,3.19 -2.59,5.78 -5.79,5.78 -3.19,0 -5.78,-2.59 -5.78,-5.78 0,-3.2 2.59,-5.79 5.78,-5.79 3.2,0 5.79,2.59 5.79,5.79z"/>
   <path class="fil5" d="M41.76 182.14l0 11.01c-3.19,1.46 -6.75,2.26 -10.49,2.26 -3.74,0 -7.29,-0.8 -10.49,-2.26l0 -11.01c0,-5.79 4.7,-10.49 10.49,-10.49 5.8,0 10.49,4.7 10.49,10.49z"/>
   <path class="fil6" d="M31.27 145.33c-13.62,0 -24.69,11.08 -24.69,24.7 0,9.66 5.68,18.49 14.49,22.5 3.21,1.46 6.64,2.2 10.2,2.2 3.56,0 7,-0.74 10.21,-2.2 8.8,-4.01 14.49,-12.84 14.49,-22.5 0,-13.62 -11.08,-24.7 -24.7,-24.7zm0 50.77c-3.76,0 -7.38,-0.78 -10.77,-2.32 -9.3,-4.23 -15.3,-13.55 -15.3,-23.75 0,-14.38 11.7,-26.07 26.07,-26.07 14.38,0 26.07,11.69 26.07,26.07 0,10.2 -6,19.52 -15.29,23.75 -3.39,1.54 -7.02,2.32 -10.78,2.32z"/>
  </g>
  <g id="_2389658199568">
   <g>
    <path class="fil7" d="M58.65 34.59c-6.34,0.06 -11.78,-3.88 -13.95,-9.46 -0.51,-1.33 -0.84,-2.75 -0.95,-4.24 -0.03,-0.33 -0.04,-0.66 -0.04,-0.99 -0.03,-3.35 1.05,-6.45 2.9,-8.95 2.68,-3.6 6.95,-5.96 11.79,-6 1.59,-0.01 3.13,0.23 4.58,0.68 5.96,1.88 10.31,7.42 10.37,14.01 0.07,8.19 -6.51,14.88 -14.7,14.95zm19.64 -14.99c-0.07,-8.79 -5.87,-16.19 -13.83,-18.69 -1.92,-0.6 -3.98,-0.92 -6.11,-0.91 -6.44,0.06 -12.15,3.2 -15.71,8.01 -2.47,3.33 -3.92,7.46 -3.88,11.93 0,0.45 0.02,0.89 0.05,1.33 0.15,1.98 0.59,3.88 1.28,5.65 2.89,7.44 10.15,12.69 18.61,12.62 10.91,-0.1 19.69,-9.02 19.59,-19.94z"/>
    <path class="fil8" d="M43.75 20.89l0 0 -4.94 0.38c-0.03,-0.44 -0.05,-0.88 -0.05,-1.33 -0.02,-2.49 0.42,-4.88 1.24,-7.08 1.63,0.25 3.27,0.57 4.95,0.97 -0.82,1.85 -1.26,3.91 -1.24,6.07 0,0.33 0.01,0.66 0.04,0.99z"/>
    <path class="fil9" d="M40.09 26.92c-0.41,-1.05 -0.73,-2.15 -0.95,-3.28 -0.16,-0.78 -0.27,-1.57 -0.33,-2.37l4.94 -0.38c0.04,0.61 0.12,1.2 0.24,1.78 0.17,0.85 0.41,1.67 0.71,2.46l-4.61 1.79z"/>
    <path class="fil10" d="M44.95 13.83c-1.68,-0.4 -3.32,-0.72 -4.95,-0.97 0.65,-1.75 1.55,-3.38 2.64,-4.85l3.97 2.94c-0.65,0.89 -1.22,1.85 -1.66,2.88z"/>
    <path class="fil1" d="M46.61 10.95l0 0 -3.97 -2.94c0.02,-0.03 0.04,-0.06 0.06,-0.09 0.02,-0.03 0.05,-0.06 0.07,-0.09 2.87,-3.78 7.06,-6.49 11.9,-7.45 0,0 0.01,0 0.01,0l0 0c0,0 0,0 0,0 1.17,-0.23 2.37,-0.36 3.6,-0.37 0.01,0 0.02,-0.01 0.03,-0.01 0.01,0 0.03,0 0.04,0l0 0c1.71,-0.01 3.37,0.19 4.96,0.59 0.39,0.09 0.77,0.2 1.15,0.32l-0.05 0.18 -1.43 4.54c-1.45,-0.45 -2.99,-0.69 -4.58,-0.68l0 0c-0.01,0 -0.02,0 -0.03,0l0 0c-0.01,0 -0.03,0 -0.04,0 -0.92,0.01 -1.82,0.11 -2.69,0.28 0,0 0,0 0,0l0 0c0,0 -0.01,0 -0.01,0 -3.66,0.73 -6.83,2.8 -8.98,5.67 0,0.01 -0.01,0.02 -0.02,0.03 0,0.01 -0.01,0.01 -0.02,0.02l0 0z"/>
    <path class="fil11" d="M54.68 0.38c0,0 0,0 0,0l0 0c0,0 0,0 0,0z"/>
    <path class="fil11" d="M58.31 0c-0.01,0 -0.02,0.01 -0.03,0.01 0.01,0 0.02,-0.01 0.03,-0.01z"/>
    <path class="fil11" d="M55.64 5.23c0,0 0,0 0,0l0 0c0,0 0,0 0,0z"/>
    <path class="fil11" d="M42.77 7.83c2.87,-3.78 7.06,-6.5 11.9,-7.45 -4.84,0.96 -9.03,3.67 -11.9,7.45z"/>
    <path class="fil11" d="M58.37 4.95c-0.01,0 -0.03,0 -0.04,0 0.01,0 0.03,0 0.04,0z"/>
    <path class="fil11" d="M58.4 4.95c-0.01,0 -0.02,0 -0.03,0 0.01,0 0.02,0 0.03,0z"/>
    <path class="fil11" d="M46.65 10.9c2.15,-2.87 5.32,-4.94 8.98,-5.67 -3.66,0.73 -6.83,2.8 -8.98,5.67z"/>
    <path class="fil11" d="M46.61 10.95c0.01,-0.01 0.02,-0.01 0.02,-0.02 0,0.01 -0.01,0.01 -0.02,0.02z"/>
    <path class="fil11" d="M40 12.86l0 0c0.65,-1.75 1.55,-3.38 2.64,-4.85 0.02,-0.03 0.04,-0.06 0.06,-0.09 -0.02,0.03 -0.04,0.06 -0.06,0.09l3.97 2.94 0 0 -3.97 -2.94c-1.09,1.47 -1.99,3.1 -2.64,4.85z"/>
    <polygon class="fil12" points="73.4,6.75 73.4,6.75 73.27,6.64 "/>
   </g>
   <g>
    <path class="fil7" d="M109.82 7.09c5.43,3.27 8,9.48 6.92,15.37 -0.26,1.4 -0.72,2.78 -1.41,4.11 -0.15,0.29 -0.31,0.58 -0.48,0.86 -1.73,2.87 -4.28,4.94 -7.17,6.1 -4.17,1.67 -9.04,1.43 -13.18,-1.07 -1.37,-0.83 -2.55,-1.84 -3.54,-2.98 -4.1,-4.72 -4.89,-11.73 -1.48,-17.37 4.23,-7.01 13.34,-9.26 20.34,-5.02zm-24.58 2.46c-4.54,7.53 -3.48,16.87 1.98,23.17 1.32,1.53 2.9,2.87 4.72,3.97 5.52,3.34 12.02,3.65 17.58,1.43 3.85,-1.54 7.25,-4.3 9.56,-8.13 0.23,-0.38 0.45,-0.77 0.65,-1.15 0.91,-1.77 1.54,-3.62 1.88,-5.49 1.44,-7.85 -1.99,-16.13 -9.23,-20.5 -9.34,-5.64 -21.49,-2.64 -27.14,6.7z"/>
    <path class="fil8" d="M115.33 26.57l0 0 4.4 2.27c-0.2,0.38 -0.42,0.77 -0.65,1.15 -1.28,2.14 -2.91,3.94 -4.77,5.38 -1.25,-1.06 -2.49,-2.2 -3.7,-3.41 1.67,-1.16 3.12,-2.68 4.24,-4.53 0.17,-0.28 0.33,-0.57 0.48,-0.86z"/>
    <path class="fil9" d="M121.61 23.35c-0.21,1.11 -0.51,2.22 -0.91,3.3 -0.28,0.74 -0.6,1.47 -0.97,2.19l-4.4 -2.27c0.28,-0.54 0.52,-1.09 0.73,-1.64 0.3,-0.81 0.53,-1.64 0.68,-2.47l4.87 0.89z"/>
    <path class="fil10" d="M110.61 31.96c1.21,1.21 2.45,2.35 3.7,3.41 -1.47,1.15 -3.09,2.07 -4.79,2.75l-1.84 -4.59c1.03,-0.41 2.01,-0.94 2.93,-1.57z"/>
    <path class="fil1" d="M107.68 33.53l0 0 1.84 4.59c-0.03,0.01 -0.06,0.03 -0.1,0.04 -0.03,0.01 -0.07,0.03 -0.1,0.04 -4.43,1.71 -9.42,1.83 -14.04,0.11 -0.01,-0.01 -0.01,-0.01 -0.01,-0.01l0 0c0,0 0,0 0,0 -1.12,-0.41 -2.21,-0.94 -3.27,-1.57 0,0 -0.01,-0.01 -0.02,-0.01 -0.01,-0.01 -0.02,-0.02 -0.04,-0.03l0 0c-1.46,-0.88 -2.77,-1.92 -3.91,-3.09 -0.28,-0.29 -0.55,-0.58 -0.81,-0.88l0.14 -0.12 3.6 -3.12c0.99,1.14 2.17,2.15 3.54,2.98l0 0c0.01,0 0.01,0.01 0.02,0.01l0 0c0.01,0.01 0.03,0.02 0.04,0.02 0.79,0.48 1.6,0.87 2.44,1.18 0,0 0,0 0,0l0 0c0,0 0,0 0,0 3.5,1.3 7.28,1.2 10.62,-0.12 0.01,0 0.02,-0.01 0.03,-0.01 0.01,0 0.02,-0.01 0.03,-0.01l0 0z"/>
    <path class="fil11" d="M95.27 38.3c0,0 0,0 0,0l0 0c0,0 0,0 0,0z"/>
    <path class="fil11" d="M91.98 36.72c0.01,0 0.02,0.01 0.02,0.01 0,0 -0.01,-0.01 -0.02,-0.01z"/>
    <path class="fil11" d="M97 33.67c0,0 0,0 0,0l0 0c0,0 0,0 0,0z"/>
    <path class="fil11" d="M109.32 38.2c-4.43,1.71 -9.42,1.83 -14.04,0.11 4.62,1.72 9.61,1.6 14.04,-0.11z"/>
    <path class="fil11" d="M94.52 32.47c0.01,0.01 0.03,0.02 0.04,0.02 -0.01,0 -0.03,-0.01 -0.04,-0.02z"/>
    <path class="fil11" d="M94.5 32.46c0.01,0 0.01,0.01 0.02,0.01 -0.01,0 -0.01,-0.01 -0.02,-0.01z"/>
    <path class="fil11" d="M107.62 33.55c-3.34,1.32 -7.12,1.42 -10.62,0.12 3.5,1.3 7.28,1.2 10.62,-0.12z"/>
    <path class="fil11" d="M107.68 33.53c-0.01,0 -0.02,0.01 -0.03,0.01 0.01,0 0.02,-0.01 0.03,-0.01z"/>
    <path class="fil11" d="M114.31 35.37l0 0c-1.47,1.15 -3.09,2.07 -4.79,2.75 -0.03,0.01 -0.06,0.03 -0.1,0.04 0.04,-0.01 0.07,-0.03 0.1,-0.04l-1.84 -4.59 0 0 1.84 4.59c1.7,-0.68 3.32,-1.6 4.79,-2.75z"/>
    <polygon class="fil12" points="82.67,23.07 82.67,23.07 82.73,23.22 "/>
   </g>
   <g>
    <path class="fil7" d="M157.94 11.26c3.64,5.2 3.48,11.91 0.11,16.86 -0.8,1.18 -1.79,2.26 -2.95,3.19 -0.26,0.21 -0.52,0.41 -0.8,0.6 -2.74,1.92 -5.91,2.78 -9.02,2.67 -4.48,-0.16 -8.84,-2.34 -11.62,-6.3 -0.91,-1.31 -1.59,-2.71 -2.03,-4.16 -1.84,-5.98 0.27,-12.7 5.66,-16.49 6.71,-4.69 15.95,-3.07 20.65,3.63zm-23.48 -7.68c-7.2,5.05 -10.01,14.02 -7.56,21.99 0.59,1.93 1.49,3.8 2.71,5.54 3.7,5.28 9.52,8.2 15.5,8.42 4.15,0.15 8.37,-1.01 12.03,-3.57 0.37,-0.26 0.72,-0.52 1.06,-0.8 1.55,-1.24 2.87,-2.68 3.94,-4.25 4.5,-6.6 4.7,-15.56 -0.15,-22.48 -6.27,-8.95 -18.59,-11.11 -27.53,-4.85z"/>
    <path class="fil8" d="M155.1 31.31l0 0 3.1 3.85c-0.34,0.28 -0.69,0.54 -1.06,0.8 -2.04,1.43 -4.26,2.42 -6.54,2.99 -0.71,-1.48 -1.38,-3.02 -2,-4.62 1.99,-0.38 3.94,-1.18 5.7,-2.42 0.28,-0.19 0.54,-0.39 0.8,-0.6z"/>
    <path class="fil9" d="M162.14 30.91c-0.64,0.93 -1.36,1.82 -2.17,2.64 -0.55,0.57 -1.14,1.11 -1.77,1.61l-3.1 -3.85c0.47,-0.38 0.91,-0.78 1.33,-1.21 0.6,-0.62 1.14,-1.28 1.62,-1.98l4.09 2.79z"/>
    <path class="fil10" d="M148.6 34.33c0.62,1.6 1.29,3.14 2,4.62 -1.81,0.45 -3.66,0.64 -5.49,0.58l0.17 -4.95c1.11,0.04 2.22,-0.04 3.32,-0.25z"/>
    <path class="fil1" d="M145.28 34.58l0 0 -0.17 4.95c-0.03,0 -0.07,0 -0.1,-0.01 -0.04,0 -0.08,0 -0.12,0 -4.73,-0.22 -9.35,-2.14 -12.88,-5.58 0,0 0,-0.01 -0.01,-0.01l0 0c0,0 0,0 0,0 -0.85,-0.83 -1.64,-1.75 -2.35,-2.76 0,0 -0.01,-0.01 -0.01,-0.02 -0.01,-0.01 -0.02,-0.02 -0.03,-0.04l0 0c-0.98,-1.4 -1.75,-2.88 -2.33,-4.41 -0.14,-0.37 -0.27,-0.75 -0.38,-1.13l0.17 -0.06 4.56 -1.39c0.44,1.45 1.12,2.85 2.03,4.16l0 0c0.01,0 0.01,0.01 0.02,0.01l0 0c0,0.02 0.01,0.03 0.02,0.04 0.53,0.75 1.12,1.44 1.76,2.06 0,0 0,0 0,0l0 0c0,0 0,0 0,0 2.67,2.61 6.17,4.05 9.76,4.19 0.01,0 0.02,0 0.03,0 0.01,0 0.02,0 0.03,0l0 0z"/>
    <path class="fil11" d="M132 33.93c0,0 0,0 0,0l0 0c0,0 0,0 0,0z"/>
    <path class="fil11" d="M129.64 31.15c0,0.01 0.01,0.02 0.01,0.02 0,0 -0.01,-0.01 -0.01,-0.02z"/>
    <path class="fil11" d="M135.46 30.39c0,0 0,0 0,0l0 0c0,0 0,0 0,0z"/>
    <path class="fil11" d="M144.89 39.52c-4.74,-0.22 -9.35,-2.14 -12.88,-5.58 3.53,3.44 8.15,5.36 12.88,5.58z"/>
    <path class="fil11" d="M133.68 28.29c0,0.02 0.01,0.03 0.02,0.04 -0.01,-0.01 -0.02,-0.02 -0.02,-0.04z"/>
    <path class="fil11" d="M133.66 28.28c0.01,0 0.01,0.01 0.02,0.01 -0.01,0 -0.01,-0.01 -0.02,-0.01z"/>
    <path class="fil11" d="M145.22 34.58c-3.59,-0.14 -7.09,-1.58 -9.76,-4.19 2.67,2.61 6.17,4.05 9.76,4.19z"/>
    <path class="fil11" d="M145.28 34.58c-0.01,0 -0.02,0 -0.03,0 0.01,0 0.02,0 0.03,0z"/>
    <path class="fil11" d="M150.6 38.95l0 0c-1.81,0.45 -3.66,0.64 -5.49,0.58 -0.03,0 -0.07,0 -0.1,-0.01 0.03,0.01 0.07,0.01 0.1,0.01l0.17 -4.95 0 0 -0.17 4.95c1.83,0.06 3.68,-0.13 5.49,-0.58z"/>
    <polygon class="fil12" points="126.64,14.9 126.64,14.9 126.63,15.07 "/>
   </g>
  </g>
  <polygon class="fil5" points="31.75,122.4 150.95,102.11 147.5,81.84 28.3,102.14 "/>
  <polygon class="fil13" points="150.53,99.67 156.9,98.58 154.28,83.2 147.91,84.28 "/>
  <path class="fil0" d="M227.22 137.44c-34.59,0 -62.63,-28.04 -62.63,-62.63 0,-34.59 28.04,-62.63 62.63,-62.63 34.59,0 62.64,28.04 62.64,62.63 0,34.59 -28.05,62.63 -62.64,62.63zm0 -137.44c-41.31,0 -74.81,33.49 -74.81,74.81 0,41.32 33.5,74.82 74.81,74.82 41.32,0 74.82,-33.5 74.82,-74.82 0,-41.32 -33.5,-74.81 -74.82,-74.81z"/>
  <path class="fil14" d="M325.93 205.97c0,0 0.55,3.7 0.62,4.26 0.07,0.55 6.1,-0.33 6.1,-0.33l0.49 -4.41c0,0 -6.46,-0.04 -7.21,0.48z"/>
  <path class="fil15" d="M326.48 209.76c0,0 -1.91,2.23 -3.76,3.2 -1.85,0.97 -4.75,1.36 -5.85,2.36 -0.78,0.73 -2.87,3.86 4.81,3.8 7.68,-0.07 11.38,0.44 12.2,-0.76 0.83,-1.2 -1.19,-8.85 -1.19,-8.85 0,0 -1.82,0.63 -6.21,0.25z"/>
  <path class="fil14" d="M282.7 205.97c0,0 0.55,3.7 0.62,4.26 0.07,0.55 6.1,-0.33 6.1,-0.33l0.49 -4.41c0,0 -6.45,-0.04 -7.21,0.48z"/>
  <path class="fil15" d="M283.25 209.76c0,0 -1.91,2.23 -3.76,3.2 -1.85,0.97 -8.65,1.77 -9.74,2.78 -0.79,0.72 -2.1,3.65 8.7,3.38 7.68,-0.2 11.38,0.44 12.2,-0.76 0.83,-1.2 -1.19,-8.85 -1.19,-8.85 0,0 -1.71,0.68 -6.21,0.25z"/>
  <path class="fil15" d="M323.79 110.39c0,0 3.21,9.19 2.79,17.11 -0.43,7.91 1.66,16.58 2.51,24.85 0.95,9.22 4.83,31.04 4.97,35.97 0.14,4.94 -0.6,20.68 -0.6,20.68l-7.78 0.18c0,0 -6.53,-38.16 -8.22,-42.05 -1.69,-3.9 -10.08,-31.66 -10.36,-34.77 -0.29,-3.11 16.69,-21.97 16.69,-21.97z"/>
  <path class="fil15" d="M291.09 112.03c0,0 -4.27,21.7 -4.83,26.54 -0.57,4.85 -0.95,23.45 -1.23,26.48 -0.28,3.03 -1.88,39.63 -3.38,44.13l9.94 0c0,0 7.64,-26.61 7.64,-39.2 0,-12.59 5.89,-27.37 9.7,-35.67 3.81,-8.31 12.52,-8.51 14.86,-23.92 0,0 -29.53,-3.25 -32.7,1.64z"/>
  <path class="fil14" d="M311.3 37.87c0,0 -7.84,-2.82 -11.45,2.93 -3.62,5.75 -3.27,17.25 0.68,18.66 3.95,1.42 9.89,0.68 11.91,-2.92 2.02,-3.59 3.85,-8.79 3.76,-12.26 -0.09,-3.48 -2.84,-5.4 -4.9,-6.41z"/>
  <path class="fil14" d="M301.85 59.11c0,0 0.31,1.98 -0.21,2.95 -0.52,0.98 9.86,1 9.86,1 0,0 0.84,-5.3 2.44,-9.78 1.6,-4.48 -12.09,5.83 -12.09,5.83z"/>
  <path class="fil15" d="M313.94 53.28c0,0 -0.72,1.14 -3.64,0.7 -2.93,-0.44 -6.49,-4.19 -7.72,-4.6 -1.22,-0.41 -1.23,-1.1 -1.23,-1.1l-0.76 1.07 -1.3 0.08c0,0 1.18,-3.35 -0.6,-4.72 -1.79,-1.37 1.85,-10.85 11.23,-7.69 0,0 7.2,1.91 6.94,5.86 -0.26,3.94 -1.31,8.44 -2.92,10.4z"/>
  <path class="fil16" d="M301.03 61.95c0,0 0.03,-1.86 0.9,-2.04 0.88,-0.18 9.68,-1 10.75,-0.59l0 2.17c0,0 -2.07,1.23 -11.65,0.46z"/>
  <path class="fil14" d="M301.55 46.84c0.16,-0.66 1.91,-2.55 2.58,-0.53 0.66,2.03 -1.01,4.75 -1.95,4.52 -0.94,-0.23 -1.05,-2.31 -0.63,-3.99z"/>
  <path class="fil0 str0" d="M301.03 61.95c0,0 -4.83,1.67 -10.41,3.95 0,0 -6.43,2.32 -7.13,9.15 -0.37,3.63 -4.38,22.88 -5.13,24.51 -0.75,1.63 -9.65,27.81 -9.96,28.35 -0.31,0.54 7.26,3.57 7.76,3.33 0.5,-0.24 8.61,-23.87 9.43,-25.62 0,0 4.67,-14.17 4.79,-16.28 0,0 0.14,6.02 0.39,7.7 0.25,1.69 -4.16,34.51 -4.03,35.41 0.13,0.91 20.01,2.06 27.97,1.21 7.95,-0.84 14.38,-2.61 14.38,-2.61 0,0 -6.27,-25.89 -6.08,-28.76 0.42,-6.26 2.6,-18.04 2.6,-18.04l6.48 11.78 -6.9 18.17 1.44 6.41c0,0 14.49,-20.2 15,-22.26 0.5,-2.05 -0.76,-4.66 -1.58,-6.35 -0.81,-1.69 -6.16,-14.55 -7.41,-16.36 -1.26,-1.81 -3.38,-9.06 -8.49,-11.08 -4.28,-1.69 -11.47,-3.07 -11.47,-3.07l-11.65 0.46z"/>
  <polygon class="fil17" points="290.41,139.77 254.05,130.79 260.56,106.37 296.92,115.34 "/>
  <path class="fil14" d="M272.81 138.78c0,0 0.61,-0.62 0.74,-1.02 0,0 0.18,-0.73 0.35,-1.25 0.05,-0.16 0.1,-0.3 0.14,-0.39 0.17,-0.37 0.67,-1.13 0.83,-2.13 0.16,-1 0.62,-5.48 0.62,-5.48l-2.82 -0.68 -2.26 -0.46c0,0 -4.89,4.69 -5.15,5.61 -0.03,0.09 -0.05,0.17 -0.06,0.26 -0.15,0.8 0.09,1.44 0.07,1.87 -0.01,0.15 0.01,1.71 0.39,2 0.52,0.41 1.05,0.49 1.49,0.35 0,0 1.06,0.75 1.95,0.71 0,0 0.95,0.72 2.03,0.36 0,0 1.06,0.63 1.68,0.25z"/>
  <path class="fil15" d="M283.8 110.44c0,0 -6.45,18.82 -7.64,20.8 0,0 -4.73,-0.96 -7.76,-3.33l7.09 -20.31 8.31 2.84z"/>
  <path class="fil0 str1" d="M77.32 69.56c0,0 7.78,-17.62 -1.24,-16.17 0,0 -3.08,2.54 -6.23,7.72 -2.39,3.92 -7.35,14.29 -7.17,17.8 0.18,3.51 2.68,6.12 5.37,11.76 0,0 5.61,10.45 5.84,11.71l5.92 -3.07c0,0 -5.01,-10 -8.55,-18.79l6.06 -10.96z"/>
  <path class="fil14" d="M122.35 218.87l1.47 0c0,0 -0.49,-5.54 0.87,-5.6 1.36,-0.05 4.73,4.51 6.74,5.22 2.01,0.71 12.34,1.3 12.39,-0.6 0.05,-1.9 -3.97,-2.66 -5.22,-3.21 -1.25,-0.54 -7.33,-6.46 -8.42,-7.17 -1.09,-0.71 -2.94,-5.62 -2.94,-5.62l-5.77 -0.25c0,0 -0.32,4.59 -0.67,7.02 -0.13,0.9 -0.23,1.72 -0.24,2.28 -0.05,2.06 1.79,7.93 1.79,7.93z"/>
  <path class="fil14" d="M85.22 217.77l1.22 0 0 -5.16c1.02,0.09 4.44,3.33 5.5,4.27 1.06,0.94 2.52,0.89 6.98,1.18 4.46,0.28 4.89,-2.39 4.18,-3.3 -0.71,-0.91 -2.99,-1.31 -4.18,-1.88 -1.19,-0.56 -5.88,-5.85 -7.13,-7.1 -1.25,-1.25 -2.01,-4.83 -2.01,-4.83l-5.21 0.45c0,0 0.03,3.28 -0.57,6.03l0 0 0 0.02c-0.05,0.23 -0.11,0.46 -0.17,0.69 -0.77,2.85 1.39,9.63 1.39,9.63z"/>
  <path class="fil15" d="M104.51 100.81c0,0 1.97,4.67 2.15,5.85 0.17,1.17 4.79,12.33 6.12,19.85 0.8,4.51 3.01,18.6 3.18,20.4 0.31,3.06 1.76,9.84 1.98,12.97 0.12,1.75 8.75,28.64 10.84,42.67 0,0 -4.97,0.74 -8.69,-0.25 0,0 -7.58,-14.5 -11.78,-35.08 -2.53,-12.4 -4.77,-19 -6.74,-24.11 -1.96,-5.1 -13.07,-19.56 -14.23,-21.18 -1.16,-1.63 -8.43,-10.6 -1.55,-20.32 6.89,-9.73 18.72,-0.8 18.72,-0.8z"/>
  <path class="fil15" d="M79.67 142.11c0.63,4.19 -0.04,9.69 -1.35,25 -1.32,15.3 2.3,33.83 2.3,33.83 4.54,1.56 9.78,0 9.78,0 -0.12,-1.07 0,-37.3 0,-40.53 0,-3.23 0.92,-6.89 1.16,-10.6 0.16,-2.52 1.34,-7.18 2.66,-11.93 0.4,-1.43 0.81,-2.86 1.2,-4.24l0 -0.01c0.23,-0.77 0.45,-1.54 0.66,-2.28 1.86,-6.45 4.37,-31.39 4.37,-31.39 0,0 -13.88,-11.17 -20.64,-0.65 -6.75,10.52 -3.28,18.17 -3.05,19.49 0.24,1.32 2.28,19.13 2.91,23.31z"/>
  <path class="fil12" d="M85.42 119.63c0.11,0.24 7.02,15.59 8.8,18.25 0.4,-1.43 0.81,-2.86 1.2,-4.24l0 -0.01c0,0 -9.77,-13.66 -10,-14z"/>
  <path class="fil15" d="M85.22 217.77l1.22 0 0 -5.16c1.02,0.09 4.44,3.33 5.5,4.27 1.06,0.94 2.52,0.89 6.98,1.18 4.46,0.28 4.89,-2.39 4.18,-3.3 -0.71,-0.91 -2.99,-1.31 -4.18,-1.88 -4.77,0.26 -10.6,-6.45 -13.4,-6.44 -1.48,0.01 -1.47,0.83 -1.52,0.99l0 0 0 0.02c-0.05,0.23 -0.11,0.46 -0.17,0.69 -0.77,2.85 1.39,9.63 1.39,9.63z"/>
  <path class="fil15" d="M122.35 218.87l1.47 0c0,0 -0.49,-5.54 0.87,-5.6 1.36,-0.05 4.73,4.51 6.74,5.22 2.01,0.71 12.34,1.3 12.39,-0.6 0.05,-1.9 -3.97,-2.66 -5.22,-3.21 -4.25,-0.01 -11.18,-4.69 -13.33,-5.64 -2.15,-0.95 -4.47,-0.38 -4.47,-0.38 -0.13,0.9 -0.23,1.72 -0.24,2.28 -0.05,2.06 1.79,7.93 1.79,7.93z"/>
  <path class="fil14" d="M92.26 42.28c0,0 -2.22,5.86 -0.49,10.39 0,0 -8.12,-0.53 -8.43,-1.47 -0.31,-0.95 0.32,-9.73 -0.79,-12.32 -1.12,-2.6 9.71,3.4 9.71,3.4z"/>
  <path class="fil18" d="M93.04 50.69c0,0 4.8,1.71 6.97,2.18 2.17,0.47 6.7,2.62 6.33,10.71 -0.37,8.09 -1.72,15.1 -2.21,18.58 -0.49,3.48 -0.19,12.32 0.61,16.62 0,0 -11.5,2.91 -25.03,0 0,0 2.4,-7.33 2.34,-9.23 -0.06,-1.89 -8,-17.5 -8.37,-19.97 -0.37,-2.46 -1.97,-13.33 1.66,-15.73 3.63,-2.4 6.58,-2.09 8.12,-3.16 1.54,-1.08 7.34,-0.77 9.58,0z"/>
  <path class="fil0 str1" d="M74.53 111.49c19.65,5.21 35.29,0.02 35.29,0.02 -1.43,-2.93 -2.48,-5.85 -3.24,-8.68l0 -0.01c-0.54,-2 -0.93,-3.95 -1.21,-5.83l0 0c-1.6,-10.7 0.49,-18.9 0.49,-18.9 -2.27,-18.67 -30.52,-24.24 -32.78,-18.32 -2.26,5.91 4.38,31.34 4.72,33.53 0.34,2.17 -3.27,18.19 -3.27,18.19z"/>
  <path class="fil14" d="M85.18 18.78c3.26,-1.12 12.09,-2.31 14.35,11.23 2.26,13.54 -2.67,13.78 -7.72,13.39 -5.06,-0.38 -12.97,-9.52 -13.58,-12.3 -0.6,-2.78 -2.36,-9.12 6.95,-12.32z"/>
  <path class="fil15" d="M97.71 23.98c0,0 -2.7,5.77 -6.23,7.78 0,0 -2.22,6.12 -7.01,8.6 0,0 -12.73,-8.43 -5.34,-18.45 7.38,-10.02 17.75,-2.04 18.58,2.07z"/>
  <path class="fil14" d="M91.79 29.76c-0.28,-0.71 -2.19,-1.85 -3.05,0.08 -0.85,1.93 2.22,5.34 3.06,5.15 0.84,-0.18 1.08,-2.56 -0.01,-5.23z"/>
  <path class="fil15" d="M79.56 23.46c-0.28,-0.43 -8.71,-4.34 -10.46,3.82 -1.75,8.15 6.79,17.63 8.28,21.7 1.5,4.08 -0.67,13.63 -0.67,13.63 0,0 5.14,-4.85 6.69,-9.94 1.71,-5.58 2.28,-19.66 -3.84,-29.21z"/>
  <path class="fil19" d="M79.13 23.18c0,0 2.58,2.04 2.92,5.26 0,0 0.48,-2.51 -0.56,-4.04 -1.04,-1.54 -2.36,-1.22 -2.36,-1.22z"/>
  <path class="fil20" d="M106.58 102.82c-0.54,-2 -0.93,-3.95 -1.21,-5.83l0 0c0,0 -1.29,-2.75 -1.73,-4.07 -0.44,-1.32 -3.69,-17.5 -3.69,-17.5 0,0 -3.44,15.2 6.63,27.4z"/>
  <path class="fil14" d="M121.05 103.76c0,0 2.53,2.52 3.35,2.77 0.82,0.26 2.4,-1.14 8.22,-1.57 0.51,-0.04 1.41,0.42 1.2,1.09 -0.21,0.68 -2.75,2.52 -3.83,2.8 -1.08,0.28 -6.2,2.31 -8.69,1.31 -2.49,-1 -4.19,-4.17 -4.19,-4.17l3.94 -2.23z"/>
  <path class="fil0 str1" d="M101.36 53.31c0,0 6.73,2.67 7.13,12.02 0.4,9.36 0.77,14.24 1.13,15.68 0.37,1.45 1.07,7.25 2.76,10.74 1.64,3.39 12.42,14.1 12.42,14.1l-5.21 4.91c0,0 -15.04,-15.08 -15.95,-17.84 -0.91,-2.76 -4.67,-21.95 -4.97,-25.18 -0.24,-2.61 -3.68,-14.23 2.69,-14.43z"/>
 </g>
</svg>
