<?xml version="1.0" encoding="UTF-8"?>
<!DOCTYPE svg PUBLIC "-//W3C//DTD SVG 1.1//EN" "http://www.w3.org/Graphics/SVG/1.1/DTD/svg11.dtd">
<!-- Creator: CorelDRAW 2020 (64-Bit Evaluation Version) -->
<svg xmlns="http://www.w3.org/2000/svg" xml:space="preserve" width="60px" height="60px" version="1.1" style="shape-rendering:geometricPrecision; text-rendering:geometricPrecision; image-rendering:optimizeQuality; fill-rule:evenodd; clip-rule:evenodd"
viewBox="0 0 0.38 0.38"
 xmlns:xlink="http://www.w3.org/1999/xlink"
 xmlns:xodm="http://www.corel.com/coreldraw/odm/2003">
 <defs>
  <style type="text/css">
   <![CDATA[
    .fil1 {fill:#263674}
    .fil0 {fill:#EFB30C}
   ]]>
  </style>
 </defs>
 <g id="Layer_x0020_1">
  <metadata id="CorelCorpID_0Corel-Layer"/>
  <g id="_2237338375536">
   <g>
    <path class="fil0" d="M0.09 0.23c0.06,0 0.07,-0.01 0.12,0.02l0.04 0c0.02,0 0.03,0.02 0.01,0.03 -0.01,0.01 -0.03,0.01 -0.05,0.01 -0.01,0.01 -0.01,0.03 0,0.03 0.04,0.02 0.1,-0.04 0.14,-0.06 0.02,-0.01 0.04,0.01 0.02,0.02 -0.12,0.09 -0.15,0.13 -0.28,0.06l0 -0.11z"/>
    <polygon class="fil1" points="0,0.21 0.08,0.21 0.08,0.35 0,0.35 "/>
   </g>
   <path class="fil1" d="M0.29 0.02c-0.01,-0.01 -0.02,-0.02 -0.04,-0.02 -0.02,0 -0.03,0.01 -0.04,0.02l-0.02 0.01c0,0 0,0 -0.01,0l-0.01 -0.01c-0.01,-0.01 -0.03,-0.02 -0.04,-0.02 -0.02,0 -0.03,0.01 -0.04,0.02 -0.02,0.01 -0.02,0.02 -0.02,0.04 0,0.02 0,0.03 0.02,0.04l0.1 0.11 0.1 -0.11c0.01,-0.01 0.02,-0.02 0.02,-0.04 0,-0.02 -0.01,-0.03 -0.02,-0.04z"/>
  </g>
 </g>
</svg>
