<svg width="111" height="55" viewBox="0 0 111 55" fill="none" xmlns="http://www.w3.org/2000/svg">
<rect x="0.960693" y="0.720703" width="110" height="54" rx="5" fill="#2B3139"/>
<path d="M41.1207 43.8287C42.1827 43.8287 42.8397 43.2797 42.8397 42.3797C42.8397 41.6777 42.4437 41.2277 41.4177 41.0747L41.0577 41.0207C40.4817 40.9307 40.1667 40.7507 40.1667 40.3007C40.1667 39.8597 40.4817 39.5807 41.0757 39.5807C41.6697 39.5807 42.0657 39.8597 42.2727 40.1477L42.7497 39.7157C42.3717 39.2477 41.8767 38.9687 41.1297 38.9687C40.1847 38.9687 39.4737 39.4187 39.4737 40.3367C39.4737 41.2007 40.1127 41.5517 40.9677 41.6777L41.3367 41.7317C41.9487 41.8217 42.1467 42.1007 42.1467 42.4607C42.1467 42.9377 41.7867 43.2167 41.1747 43.2167C40.5897 43.2167 40.1577 42.9557 39.7977 42.5057L39.2847 42.9197C39.6987 43.4687 40.2657 43.8287 41.1207 43.8287ZM44.1114 37.0607V43.7207H44.8314V40.4987C44.8314 39.9047 45.3894 39.6167 45.9654 39.6167C46.6584 39.6167 47.0184 40.0397 47.0184 40.8677V43.7207H47.7384V40.7417C47.7384 39.6167 47.1354 38.9687 46.1814 38.9687C45.4884 38.9687 45.0924 39.3107 44.8674 39.8327H44.8314V37.0607H44.1114ZM52.6017 43.7207H53.0067V43.0907H52.4757V40.5347C52.4757 39.5537 51.8097 38.9687 50.6937 38.9687C49.8567 38.9687 49.2987 39.3827 49.0467 39.8777L49.4787 40.2827C49.7307 39.8597 50.0997 39.5897 50.6577 39.5897C51.3957 39.5897 51.7557 39.9497 51.7557 40.6067V41.0657H50.8377C49.4877 41.0657 48.8577 41.5517 48.8577 42.4247C48.8577 43.2887 49.4337 43.8287 50.4147 43.8287C51.0627 43.8287 51.5577 43.5317 51.7557 42.9647H51.8007C51.8547 43.3967 52.0707 43.7207 52.6017 43.7207ZM50.5317 43.2167C49.9737 43.2167 49.6137 42.9557 49.6137 42.4967V42.3077C49.6137 41.8577 49.9827 41.6057 50.8017 41.6057H51.7557V42.3707C51.7557 42.8477 51.2427 43.2167 50.5317 43.2167ZM54.0163 43.7207H57.3913C57.4543 43.7207 57.4813 43.6937 57.4813 43.6307V43.0907C57.4813 43.0277 57.4543 43.0007 57.3913 43.0007H54.9253V42.9827L56.8693 40.5437C57.2743 40.0307 57.4813 39.5267 57.4813 39.0317C57.4813 38.0327 56.7883 37.3217 55.7083 37.3217C54.6643 37.3217 54.0613 38.0057 53.9263 38.8067C53.9173 38.8607 53.9443 38.9057 53.9983 38.9237L54.5653 39.0407C54.6193 39.0497 54.6553 39.0317 54.6643 38.9687C54.7543 38.3477 55.1143 38.0417 55.6903 38.0417C56.2933 38.0417 56.6893 38.4467 56.6893 39.0317C56.6893 39.3827 56.5363 39.7427 56.2393 40.1297L53.9713 43.0187C53.9443 43.0547 53.9263 43.0997 53.9263 43.1447V43.6307C53.9263 43.6937 53.9533 43.7207 54.0163 43.7207ZM60.6402 43.8287C61.4412 43.8287 62.0982 43.4237 62.3142 42.7217C62.3952 42.4607 62.4402 42.1187 62.4402 41.7047C62.4402 41.2637 62.3952 40.9037 62.3052 40.6067C62.1072 39.9407 61.5312 39.5717 60.7482 39.5717C60.2712 39.5717 59.9292 39.7157 59.7132 39.9857H59.6862V38.2127C59.6862 38.1767 59.7042 38.1587 59.7402 38.1587H62.2242C62.2872 38.1587 62.3142 38.1317 62.3142 38.0687V37.5287C62.3142 37.4657 62.2872 37.4387 62.2242 37.4387H59.0562C58.9932 37.4387 58.9662 37.4657 58.9662 37.5287V40.8767C58.9662 40.9397 58.9932 40.9757 59.0562 40.9757H59.6052C59.6502 40.9757 59.6862 40.9397 59.7132 40.8767C59.8482 40.5617 60.1722 40.2917 60.6402 40.2917C61.1082 40.2917 61.4322 40.4987 61.5582 40.9037C61.6122 41.0747 61.6482 41.3447 61.6482 41.7047C61.6482 42.0827 61.6212 42.3437 61.5672 42.4877C61.4142 42.8927 61.1082 43.1087 60.6402 43.1087C60.0732 43.1087 59.6862 42.8207 59.6142 42.3437C59.6052 42.2807 59.5602 42.2447 59.4972 42.2627L58.9482 42.4067C58.8852 42.4247 58.8672 42.4517 58.8762 42.5147C58.9842 43.2887 59.6772 43.8287 60.6402 43.8287ZM65.4641 43.8287C66.5801 43.8287 67.3991 43.0727 67.3991 41.8757C67.3991 40.7597 66.6251 40.0127 65.6081 40.0127C65.3291 40.0127 65.1131 40.0577 64.9781 40.1567L64.9511 40.1387L66.3641 37.5287C66.3911 37.4657 66.3731 37.4387 66.3011 37.4387H65.6801C65.6171 37.4387 65.5811 37.4567 65.5541 37.5017L63.9611 40.4717C63.6821 40.9847 63.5381 41.4617 63.5381 41.9027C63.5381 43.0907 64.3391 43.8287 65.4641 43.8287ZM65.4641 43.1087C64.7081 43.1087 64.3301 42.5147 64.3301 41.9207C64.3301 41.3267 64.7081 40.7327 65.4641 40.7327C66.2201 40.7327 66.5981 41.3267 66.5981 41.9207C66.5981 42.5147 66.2201 43.1087 65.4641 43.1087Z" fill="#EAECEF"/>
<path d="M40.0081 11.4387V17.7207H42.2311C43.8331 17.7207 44.8861 16.6767 44.8861 14.5797C44.8861 12.4827 43.8331 11.4387 42.2311 11.4387H40.0081ZM42.2311 16.8207H41.0251V12.3387H42.2311C43.1671 12.3387 43.7971 12.9417 43.7971 14.0757V15.0837C43.7971 16.2177 43.1671 16.8207 42.2311 16.8207ZM47.9157 17.8287C49.2207 17.8287 50.0667 16.8747 50.0667 15.3807C50.0667 13.8867 49.2207 12.9327 47.9157 12.9327C46.6107 12.9327 45.7647 13.8867 45.7647 15.3807C45.7647 16.8747 46.6107 17.8287 47.9157 17.8287ZM47.9157 17.0187C47.2497 17.0187 46.7997 16.6047 46.7997 15.7767V14.9847C46.7997 14.1567 47.2497 13.7427 47.9157 13.7427C48.5817 13.7427 49.0317 14.1567 49.0317 14.9847V15.7767C49.0317 16.6047 48.5817 17.0187 47.9157 17.0187ZM50.6302 13.0407L51.9082 17.7207H52.9882L53.6092 15.5877L53.9782 14.2737H53.9962L54.9862 17.7207H56.0932L57.3532 13.0407H56.4442L55.9582 15.0027L55.5442 16.7757H55.5172L55.0222 15.0027L54.4462 13.0407H53.5642L52.9972 15.0027L52.5112 16.7757H52.4842L52.0612 15.0027L51.5842 13.0407H50.6302ZM58.2877 17.7207H59.2687V14.5887C59.2687 14.0397 59.7727 13.7787 60.2857 13.7787C60.8887 13.7787 61.1677 14.1477 61.1677 14.8767V17.7207H62.1487V14.7507C62.1487 13.5987 61.5817 12.9327 60.6277 12.9327C59.9077 12.9327 59.5117 13.3107 59.3137 13.8147H59.2687V13.0407H58.2877V17.7207ZM64.5074 17.7207H65.1374V16.9197H64.4894V11.0607H63.5084V16.7487C63.5084 17.3517 63.8414 17.7207 64.5074 17.7207ZM67.9108 17.8287C69.2158 17.8287 70.0618 16.8747 70.0618 15.3807C70.0618 13.8867 69.2158 12.9327 67.9108 12.9327C66.6058 12.9327 65.7598 13.8867 65.7598 15.3807C65.7598 16.8747 66.6058 17.8287 67.9108 17.8287ZM67.9108 17.0187C67.2448 17.0187 66.7948 16.6047 66.7948 15.7767V14.9847C66.7948 14.1567 67.2448 13.7427 67.9108 13.7427C68.5768 13.7427 69.0268 14.1567 69.0268 14.9847V15.7767C69.0268 16.6047 68.5768 17.0187 67.9108 17.0187ZM74.5839 17.7207H75.1329V16.9197H74.6379V14.5707C74.6379 13.5267 73.9629 12.9327 72.7569 12.9327C71.8479 12.9327 71.2989 13.3197 70.9929 13.8417L71.5779 14.3727C71.8119 14.0037 72.1449 13.7337 72.6939 13.7337C73.3509 13.7337 73.6569 14.0667 73.6569 14.6337V15.0297H72.8109C71.5059 15.0297 70.8129 15.5067 70.8129 16.4337C70.8129 17.2797 71.3619 17.8287 72.3249 17.8287C73.0089 17.8287 73.5129 17.5227 73.6929 16.9377H73.7379C73.8009 17.3967 74.0709 17.7207 74.5839 17.7207ZM72.6039 17.0817C72.1179 17.0817 71.8119 16.8657 71.8119 16.4517V16.2897C71.8119 15.8847 72.1449 15.6597 72.8289 15.6597H73.6569V16.3347C73.6569 16.7937 73.2069 17.0817 72.6039 17.0817ZM79.0373 16.9467V17.7207H80.0183V11.0607H79.0373V13.8147H78.9923C78.7943 13.2567 78.2993 12.9327 77.6783 12.9327C76.4993 12.9327 75.8153 13.8417 75.8153 15.3807C75.8153 16.9197 76.4993 17.8287 77.6783 17.8287C78.2993 17.8287 78.7943 17.4957 78.9923 16.9467H79.0373ZM77.9753 16.9827C77.3003 16.9827 76.8503 16.5057 76.8503 15.7857V14.9757C76.8503 14.2557 77.3003 13.7787 77.9753 13.7787C78.5693 13.7787 79.0373 14.1027 79.0373 14.5797V16.1817C79.0373 16.6587 78.5693 16.9827 77.9753 16.9827ZM83.7905 13.8417V17.7207H84.7715V13.8417H85.7525V13.0407H84.7715V11.8617H85.7525V11.0607H84.9785C84.1955 11.0607 83.7905 11.5107 83.7905 12.2667V13.0407H83.0795V13.8417H83.7905ZM88.4069 17.8287C89.7119 17.8287 90.5579 16.8747 90.5579 15.3807C90.5579 13.8867 89.7119 12.9327 88.4069 12.9327C87.1019 12.9327 86.2559 13.8867 86.2559 15.3807C86.2559 16.8747 87.1019 17.8287 88.4069 17.8287ZM88.4069 17.0187C87.7409 17.0187 87.2909 16.6047 87.2909 15.7767V14.9847C87.2909 14.1567 87.7409 13.7427 88.4069 13.7427C89.0729 13.7427 89.5229 14.1567 89.5229 14.9847V15.7767C89.5229 16.6047 89.0729 17.0187 88.4069 17.0187ZM91.651 17.7207H92.632V14.7327C92.632 14.2467 93.064 13.9857 93.838 13.9857H94.225V13.0407H93.964C93.217 13.0407 92.812 13.4637 92.677 13.9407H92.632V13.0407H91.651V17.7207Z" fill="#EAECEF"/>
<path d="M40.1647 31.3105H45.7227V29.9105H41.7467V21.5385H40.1647V31.3105ZM48.0004 22.7285C48.6304 22.7285 48.8964 22.3925 48.8964 21.9305V21.6925C48.8964 21.2305 48.6304 20.8945 48.0004 20.8945C47.3704 20.8945 47.0904 21.2305 47.0904 21.6925V21.9305C47.0904 22.3925 47.3704 22.7285 48.0004 22.7285ZM47.2304 24.0305V31.3105H48.7564V24.0305H47.2304ZM50.9355 31.3105H52.4615V26.4385C52.4615 25.5845 53.2455 25.1785 54.0435 25.1785C54.9815 25.1785 55.4155 25.7525 55.4155 26.8865V31.3105H56.9415V26.6905C56.9415 24.8985 56.0595 23.8625 54.5755 23.8625C53.4555 23.8625 52.8395 24.4505 52.5315 25.2345H52.4615V24.0305H50.9355V31.3105ZM63.4666 30.1065V31.3105H64.9926V24.0305H63.4666V28.9025C63.4666 29.7565 62.6966 30.1625 61.9126 30.1625C60.9746 30.1625 60.5126 29.5745 60.5126 28.4685V24.0305H58.9866V28.6645C58.9866 30.4565 59.8686 31.4785 61.3666 31.4785C62.5706 31.4785 63.1446 30.8205 63.4106 30.1065H63.4666ZM68.9277 27.6285L66.3657 31.3105H67.9897L69.7397 28.6645H69.7817L71.4617 31.3105H73.2257L70.6917 27.6145L73.1837 24.0305H71.5597L69.8797 26.5645H69.8377L68.1997 24.0305H66.4357L68.9277 27.6285ZM77.9101 31.3105H79.4361V26.6625C79.4361 25.9065 80.1081 25.5005 81.3121 25.5005H81.9141V24.0305H81.5081C80.3461 24.0305 79.7161 24.6885 79.5061 25.4305H79.4361V24.0305H77.9101V31.3105ZM83.2695 24.0305V34.1105H84.7955V30.1065H84.8655C85.1735 30.9605 85.9435 31.4785 86.9095 31.4785C88.7435 31.4785 89.8075 30.0645 89.8075 27.6705C89.8075 25.2765 88.7435 23.8625 86.9095 23.8625C85.9435 23.8625 85.1735 24.3665 84.8655 25.2345H84.7955V24.0305H83.2695ZM86.4475 30.1625C85.5235 30.1625 84.7955 29.6585 84.7955 28.9165V26.4245C84.7955 25.6825 85.5235 25.1785 86.4475 25.1785C87.4975 25.1785 88.1975 25.9205 88.1975 27.0405V28.3005C88.1975 29.4205 87.4975 30.1625 86.4475 30.1625ZM91.5546 31.3105H93.0806V26.4245C93.0806 25.5845 93.8226 25.1785 94.5786 25.1785C95.4746 25.1785 95.9086 25.7385 95.9086 26.8725V31.3105H97.4346V26.4245C97.4346 25.5845 98.1486 25.1785 98.9186 25.1785C99.8426 25.1785 100.263 25.7525 100.263 26.8725V31.3105H101.789V26.6905C101.789 24.8985 100.935 23.8625 99.4926 23.8625C98.3166 23.8625 97.5606 24.5345 97.2946 25.3465H97.2526C96.9026 24.3385 96.0766 23.8625 95.0966 23.8625C93.9906 23.8625 93.4446 24.4785 93.1506 25.2345H93.0806V24.0305H91.5546V31.3105Z" fill="#EAECEF"/>
<g clip-path="url(#clip0_4474_65133)">
<g clip-path="url(#clip1_4474_65133)">
<path d="M29.5417 27.7697C28.9917 27.3237 29.2057 26.3387 28.6347 25.8527C29.1877 22.4877 27.6377 19.5217 25.7897 17.6207C24.2387 16.0257 24.7387 14.4737 24.7387 13.1307C24.7387 10.9847 23.8577 8.7207 21.1887 8.7207C18.3357 8.7207 17.5537 11.1007 17.5257 12.4587C17.4577 15.7207 18.1847 16.5687 16.2757 18.9427C14.0297 21.7357 13.6987 24.5217 14.2057 25.9997C13.9687 26.2757 13.6487 26.5817 13.0507 26.8347C11.3987 27.5547 12.6097 28.7597 12.1527 29.6147C12.0227 29.8577 11.9607 30.1117 11.9607 30.3547C11.9607 31.1047 12.5567 31.7537 13.6397 31.6567C15.1007 31.5267 16.4487 32.5617 17.3207 32.5617C18.0907 32.5617 18.7227 32.1237 19.0167 31.5207C20.3937 31.1817 22.0937 31.2247 23.4697 31.5797C23.7167 32.2707 24.3867 32.7207 25.1317 32.7207C26.7627 32.7207 27.0767 30.8717 28.9477 30.2457C29.6217 30.0207 29.9607 29.3667 29.9607 28.7577C29.9607 28.3677 29.8217 27.9967 29.5417 27.7697ZM20.3947 17.3047C20.0757 17.3047 19.8117 17.0467 19.3947 16.7367C18.8667 16.3447 18.3297 16.1187 18.3357 15.7067C18.3357 15.4237 18.7147 15.3367 19.2047 15.0257C19.7307 14.6927 19.9357 14.3547 20.4537 14.3547C20.9837 14.3547 21.1437 14.6227 21.8637 14.9337C22.5717 15.2407 23.0647 15.3607 23.0647 15.7067C23.0647 16.0617 22.3237 16.3157 21.9067 16.5747C21.2937 16.9527 20.9787 17.3047 20.3947 17.3047ZM22.0597 12.0897C22.9417 12.2307 23.0407 13.7807 22.6187 14.5437L22.2637 14.3987C22.4477 13.8557 22.4447 12.9617 21.8287 12.9047C21.4377 12.8687 21.1857 13.3847 21.1317 13.8267C20.9787 13.7627 20.8117 13.7167 20.6087 13.6997C20.6707 12.7767 21.2667 11.9627 22.0597 12.0897ZM18.6567 12.4207C19.3327 12.2527 19.7317 13.0387 19.7347 13.8557L19.4247 14.0457C19.3827 13.7027 19.2297 13.1487 18.8457 13.2667C18.4347 13.3947 18.5017 14.3497 18.7307 14.5457L18.4247 14.7157C18.0047 14.0087 18.0057 12.5827 18.6567 12.4207ZM16.5417 31.6637C14.5787 30.7707 13.9117 30.9737 13.5367 30.9737C12.7597 30.9737 12.5057 30.3947 12.7977 29.8467C13.0457 29.3817 12.9687 28.8947 12.9077 28.5037C12.8137 27.9047 12.7967 27.7097 13.3857 27.4517C14.2007 27.1057 14.5627 26.6607 14.8327 26.3277C15.5907 25.3907 16.3557 26.8647 16.9827 28.1777C17.3897 29.0287 18.1907 29.4597 18.4377 30.4027C18.6647 31.2737 17.7277 32.2037 16.5417 31.6637ZM23.5287 29.7897C22.1447 30.4627 20.3817 30.7717 19.0627 30.0887C18.8677 29.5257 18.5557 29.1617 18.2197 28.7957C18.7587 28.6537 19.1587 27.9817 18.6797 27.3067C18.1687 26.5857 17.1247 26.0827 16.0697 25.2667C15.0827 24.5037 14.7707 22.6227 16.1147 20.5207C15.4597 22.3827 15.8427 24.0987 16.1717 24.5897C16.2397 23.6017 16.3177 21.9517 17.6677 19.9747C18.3487 18.9767 18.3587 17.6587 18.3737 16.8347L18.9937 17.2587C19.4497 17.5957 19.8317 17.9667 20.3797 17.9667C21.1897 17.9667 21.6377 17.5007 22.2617 17.1137C22.5057 16.9637 22.8747 16.8117 23.1847 16.6007C23.7047 19.0767 25.8587 22.0547 25.9797 23.7507C26.4807 22.7187 25.8377 20.2367 25.8377 20.2367C26.6797 21.5217 26.7467 22.5927 26.7837 23.9067C27.3727 24.1477 28.0047 24.7757 28.0627 25.6027L27.8177 25.5747C27.6917 24.6557 25.2107 23.3057 24.9877 25.0357C23.7977 25.2167 24.2307 27.1017 23.9907 28.3237C23.8807 28.8827 23.6767 29.3247 23.5287 29.7897ZM28.3747 29.7487C27.3897 30.1287 26.7247 30.9357 26.2677 31.4367C25.3877 32.4027 24.2237 31.9397 24.0997 31.0357C23.9687 30.0697 24.4597 29.5427 24.6717 28.4617C24.8647 27.4747 24.6487 25.9557 25.1027 25.7937C25.3977 27.5467 27.1687 26.8097 27.5727 26.3317C28.2297 26.3317 28.2847 26.5537 28.4317 27.1687C28.5237 27.5537 28.6507 27.8777 29.0097 28.2587C29.4277 28.7057 29.2997 29.3917 28.3747 29.7487ZM20.3747 16.7427C19.7237 16.7427 19.2367 16.3097 18.8407 15.9737C18.6377 15.8027 18.8907 15.4867 19.0937 15.6587C19.4807 15.9867 19.8707 16.3337 20.3747 16.3337C20.9817 16.3337 21.5167 15.8147 22.2417 15.5287C22.4887 15.4317 22.6297 15.8137 22.3847 15.9107C21.6807 16.1877 21.1157 16.7427 20.3747 16.7427Z" fill="#EAECEF"/>
</g>
</g>
<defs>
<clipPath id="clip0_4474_65133">
<rect width="24" height="24" fill="white" transform="translate(8.96069 8.7207)"/>
</clipPath>
<clipPath id="clip1_4474_65133">
<rect width="24" height="24" fill="white" transform="translate(8.96069 8.7207)"/>
</clipPath>
</defs>
</svg>
