<?xml version="1.0" encoding="UTF-8"?>
<!DOCTYPE svg PUBLIC "-//W3C//DTD SVG 1.1//EN" "http://www.w3.org/Graphics/SVG/1.1/DTD/svg11.dtd">
<!-- Creator: CorelDRAW 2020 (64-Bit Evaluation Version) -->
<svg xmlns="http://www.w3.org/2000/svg" xml:space="preserve" width="60px" height="60px" version="1.1" style="shape-rendering:geometricPrecision; text-rendering:geometricPrecision; image-rendering:optimizeQuality; fill-rule:evenodd; clip-rule:evenodd"
viewBox="0 0 21.71 21.71"
 xmlns:xlink="http://www.w3.org/1999/xlink"
 xmlns:xodm="http://www.corel.com/coreldraw/odm/2003">
 <defs>
  <style type="text/css">
   <![CDATA[
    .fil0 {fill:#263674}
    .fil1 {fill:#EFB30C}
    .fil2 {fill:#263674;fill-rule:nonzero}
   ]]>
  </style>
 </defs>
 <g id="Layer_x0020_1">
  <metadata id="CorelCorpID_0Corel-Layer"/>
  <g id="_2403618933680">
   <path class="fil0" d="M0 8.67l3.73 0 0 12.87c-0.29,0.11 -0.62,0.17 -0.95,0.17l0 0c-1.53,0 -2.78,-1.25 -2.78,-2.78l0 -10.26z"/>
   <polygon class="fil1" points="5.47,0 21.71,0 21.71,2.82 21.71,21.38 21.71,21.71 5.47,21.71 5.47,2.82 "/>
   <path class="fil2" d="M14.48 6.47l4.38 4.38 -5.27 5.28 -5.27 -5.28 5.27 -5.27 0.89 0.89zm0.83 4.38l-1.72 -1.72 -1.72 1.72 1.72 1.73 1.72 -1.73z"/>
  </g>
 </g>
</svg>
