<?xml version="1.0" encoding="UTF-8"?>
<!DOCTYPE svg PUBLIC "-//W3C//DTD SVG 1.1//EN" "http://www.w3.org/Graphics/SVG/1.1/DTD/svg11.dtd">
<!-- Creator: CorelDRAW 2020 (64-Bit Evaluation Version) -->
<svg xmlns="http://www.w3.org/2000/svg" xml:space="preserve" width="50px" height="49px" version="1.1" style="shape-rendering:geometricPrecision; text-rendering:geometricPrecision; image-rendering:optimizeQuality; fill-rule:evenodd; clip-rule:evenodd"
viewBox="0 0 1.77 1.73"
 xmlns:xlink="http://www.w3.org/1999/xlink"
 xmlns:xodm="http://www.corel.com/coreldraw/odm/2003">
 <defs>
  <style type="text/css">
   <![CDATA[
    .fil0 {fill:#263674}
    .fil3 {fill:#999999}
    .fil1 {fill:#EFB30C}
    .fil2 {fill:#263674;fill-rule:nonzero}
   ]]>
  </style>
 </defs>
 <g id="Layer_x0020_1">
  <metadata id="CorelCorpID_0Corel-Layer"/>
  <g id="_3236840408672">
   <path class="fil0" d="M0.05 0l0.15 0c-0.01,0.01 -0.01,0.02 -0.01,0.03l0 1.03c0.11,-0.1 0.26,-0.24 0.26,-0.24l0.02 -0.02 0.36 0.38 0.87 -0.88c0.02,-0.02 0.04,-0.02 0.05,0 0.02,0.01 0.02,0.03 0.01,0.05l-0.94 0.94 -0.35 -0.39c-0.06,0.06 -0.2,0.18 -0.28,0.26l0 0.35c0,0.02 0.02,0.04 0.05,0.04l1.49 0 0 0.13c0,0.03 -0.02,0.05 -0.05,0.05l-1.63 0c-0.03,0 -0.05,-0.02 -0.05,-0.05l0 -1.63c0,-0.03 0.02,-0.05 0.05,-0.05z"/>
   <g>
    <path class="fil1" d="M0.55 0.72c0.15,0 0.27,-0.12 0.27,-0.27 0,-0.14 -0.27,-0.45 -0.27,-0.45 -0.01,0 -0.27,0.31 -0.27,0.45 0,0.15 0.12,0.27 0.27,0.27z"/>
    <path class="fil2" d="M0.54 0.65l0 -0.04c-0.02,-0.01 -0.04,-0.01 -0.05,-0.02 -0.02,0 -0.03,-0.01 -0.04,-0.03 -0.01,-0.01 -0.01,-0.03 -0.01,-0.05l0.04 -0.01c0,0.02 0.01,0.04 0.01,0.05 0.02,0.01 0.03,0.02 0.05,0.02l0 -0.12c-0.02,-0.01 -0.04,-0.02 -0.06,-0.03 -0.01,0 -0.02,-0.01 -0.03,-0.02 0,-0.02 -0.01,-0.03 -0.01,-0.05 0,-0.03 0.01,-0.05 0.03,-0.07 0.02,-0.01 0.04,-0.02 0.07,-0.02l0 -0.02 0.02 0 0 0.02c0.02,0 0.04,0.01 0.06,0.02 0.01,0.02 0.02,0.04 0.03,0.06l-0.04 0.01c-0.01,-0.02 -0.01,-0.03 -0.02,-0.04 -0.01,-0.01 -0.02,-0.01 -0.03,-0.02l0 0.12c0.02,0.01 0.03,0.01 0.04,0.01 0.01,0.01 0.02,0.01 0.03,0.02 0.01,0.01 0.01,0.02 0.02,0.03 0,0.01 0.01,0.02 0.01,0.04 0,0.02 -0.01,0.05 -0.03,0.07 -0.02,0.02 -0.04,0.03 -0.07,0.03l0 0.04 -0.02 0zm0 -0.36c-0.02,0.01 -0.03,0.01 -0.04,0.02 -0.01,0.01 -0.02,0.02 -0.02,0.04 0,0.01 0.01,0.02 0.02,0.03 0,0.01 0.02,0.02 0.04,0.02l0 -0.11zm0.02 0.28c0.02,0 0.03,-0.01 0.04,-0.02 0.01,-0.01 0.01,-0.02 0.01,-0.04 0,-0.02 0,-0.03 -0.01,-0.04 0,-0.01 -0.02,-0.01 -0.04,-0.02l0 0.12z"/>
   </g>
   <g>
    <path class="fil1" d="M1.31 1.11c0.23,0 0.42,-0.18 0.42,-0.41 0,-0.23 -0.41,-0.7 -0.42,-0.7 0,0 -0.41,0.47 -0.41,0.7 0,0.23 0.19,0.41 0.41,0.41z"/>
    <path class="fil2" d="M1.49 0.42l-0.04 0.05 -0.07 0c0.01,0 0.01,0.01 0.02,0.02 0,0.02 0.01,0.03 0.01,0.04l0.08 0 -0.04 0.05 -0.04 0c0,0.02 -0.01,0.03 -0.02,0.05 -0.01,0.01 -0.02,0.02 -0.03,0.04 -0.01,0.01 -0.03,0.01 -0.05,0.02 -0.02,0 -0.04,0.01 -0.06,0.01l0.21 0.22 -0.09 0 -0.2 -0.22 0 -0.05 0.05 0c0.01,0 0.03,0 0.04,0 0.02,-0.01 0.03,-0.01 0.04,-0.02 0.01,0 0.02,-0.01 0.02,-0.02 0.01,-0.01 0.02,-0.02 0.02,-0.03l-0.19 0 0.03 -0.05 0.16 0c-0.01,-0.02 -0.02,-0.03 -0.04,-0.05 -0.01,-0.01 -0.04,-0.01 -0.07,-0.01l-0.08 0 0.03 -0.05 0.31 0z"/>
   </g>
   <g>
    <g>
     <rect class="fil3" x="0.19" y="1.28" width="0.04" height="0.01"/>
     <rect class="fil3" x="0.28" y="1.28" width="0.04" height="0.01"/>
     <rect class="fil3" x="0.37" y="1.28" width="0.04" height="0.01"/>
     <rect class="fil3" x="0.47" y="1.28" width="0.04" height="0.01"/>
     <rect class="fil3" x="0.56" y="1.28" width="0.04" height="0.01"/>
     <rect class="fil3" x="0.24" y="1.28" width="0.04" height="0.01"/>
     <rect class="fil3" x="0.33" y="1.28" width="0.04" height="0.01"/>
     <rect class="fil3" x="0.42" y="1.28" width="0.04" height="0.01"/>
     <rect class="fil3" x="0.51" y="1.28" width="0.04" height="0.01"/>
     <rect class="fil3" x="0.61" y="1.28" width="0.04" height="0.01"/>
     <rect class="fil3" x="0.65" y="1.28" width="0.04" height="0.01"/>
    </g>
    <g>
     <rect class="fil3" x="0.71" y="1.28" width="0.04" height="0.01"/>
     <rect class="fil3" x="0.8" y="1.28" width="0.04" height="0.01"/>
     <rect class="fil3" x="0.89" y="1.28" width="0.04" height="0.01"/>
     <rect class="fil3" x="0.99" y="1.28" width="0.04" height="0.01"/>
     <rect class="fil3" x="1.08" y="1.28" width="0.04" height="0.01"/>
     <rect class="fil3" x="0.75" y="1.28" width="0.04" height="0.01"/>
     <rect class="fil3" x="0.85" y="1.28" width="0.04" height="0.01"/>
     <rect class="fil3" x="0.94" y="1.28" width="0.04" height="0.01"/>
     <rect class="fil3" x="1.03" y="1.28" width="0.04" height="0.01"/>
     <rect class="fil3" x="1.12" y="1.28" width="0.04" height="0.01"/>
     <rect class="fil3" x="1.17" y="1.28" width="0.04" height="0.01"/>
    </g>
    <g>
     <rect class="fil3" x="1.23" y="1.28" width="0.04" height="0.01"/>
     <rect class="fil3" x="1.32" y="1.28" width="0.04" height="0.01"/>
     <rect class="fil3" x="1.41" y="1.28" width="0.04" height="0.01"/>
     <rect class="fil3" x="1.5" y="1.28" width="0.04" height="0.01"/>
     <rect class="fil3" x="1.6" y="1.28" width="0.04" height="0.01"/>
     <rect class="fil3" x="1.27" y="1.28" width="0.04" height="0.01"/>
     <rect class="fil3" x="1.36" y="1.28" width="0.04" height="0.01"/>
     <rect class="fil3" x="1.46" y="1.28" width="0.04" height="0.01"/>
     <rect class="fil3" x="1.55" y="1.28" width="0.04" height="0.01"/>
     <rect class="fil3" x="1.64" y="1.28" width="0.04" height="0.01"/>
     <rect class="fil3" x="1.69" y="1.28" width="0.04" height="0.01"/>
    </g>
   </g>
  </g>
 </g>
</svg>
