<?xml version="1.0" encoding="UTF-8"?>
<!DOCTYPE svg PUBLIC "-//W3C//DTD SVG 1.1//EN" "http://www.w3.org/Graphics/SVG/1.1/DTD/svg11.dtd">
<!-- Creator: CorelDRAW 2020 (64-Bit Evaluation Version) -->
<svg xmlns="http://www.w3.org/2000/svg" xml:space="preserve" width="50px" height="42px" version="1.1" style="shape-rendering:geometricPrecision; text-rendering:geometricPrecision; image-rendering:optimizeQuality; fill-rule:evenodd; clip-rule:evenodd"
viewBox="0 0 1.72 1.46"
 xmlns:xlink="http://www.w3.org/1999/xlink"
 xmlns:xodm="http://www.corel.com/coreldraw/odm/2003">
 <defs>
  <style type="text/css">
   <![CDATA[
    .fil1 {fill:#EFB30C}
    .fil2 {fill:white}
    .fil0 {fill:#263674;fill-rule:nonzero}
   ]]>
  </style>
 </defs>
 <g id="Layer_x0020_1">
  <metadata id="CorelCorpID_0Corel-Layer"/>
  <g id="_3236840425760">
   <path class="fil0" d="M0.93 1.06c0.01,-0.02 0.03,-0.03 0.04,-0.02 0.02,0 0.03,0.02 0.03,0.04 -0.03,0.11 -0.09,0.21 -0.18,0.28 -0.09,0.06 -0.2,0.1 -0.31,0.1 -0.14,0 -0.27,-0.05 -0.36,-0.15 -0.09,-0.09 -0.15,-0.21 -0.15,-0.35 0,-0.04 0,-0.08 0.01,-0.11 0.01,-0.04 0.02,-0.07 0.04,-0.11 0,-0.01 0.02,-0.02 0.04,-0.01 0.02,0 0.03,0.03 0.02,0.04 -0.01,0.03 -0.02,0.06 -0.03,0.09 -0.01,0.03 -0.01,0.06 -0.01,0.1 0,0.12 0.05,0.23 0.13,0.31 0.08,0.07 0.19,0.12 0.31,0.12 0.1,0 0.19,-0.03 0.27,-0.09 0.07,-0.06 0.13,-0.14 0.15,-0.24z"/>
   <path class="fil0" d="M1.28 0.07c-0.02,-0.01 -0.03,-0.03 -0.03,-0.04 0.01,-0.02 0.03,-0.03 0.04,-0.03 0.13,0.04 0.24,0.11 0.31,0.21 0.08,0.1 0.12,0.22 0.12,0.35l0 0 0 0c0,0.16 -0.06,0.3 -0.17,0.41 -0.1,0.1 -0.25,0.17 -0.41,0.17l0 0 0 0c-0.03,0 -0.06,-0.01 -0.09,-0.01 -0.03,-0.01 -0.06,-0.02 -0.1,-0.03 -0.01,0 -0.02,-0.02 -0.02,-0.04 0.01,-0.02 0.03,-0.03 0.05,-0.02 0.02,0.01 0.05,0.01 0.08,0.02 0.03,0 0.06,0.01 0.08,0.01l0 0 0 0c0.14,0 0.27,-0.06 0.36,-0.15 0.09,-0.09 0.15,-0.22 0.15,-0.36l0 0 0 0c0,-0.12 -0.04,-0.22 -0.1,-0.31 -0.07,-0.09 -0.16,-0.15 -0.27,-0.18z"/>
   <path class="fil1" d="M0.56 0.6l-0.08 0c-0.02,0 -0.03,0.01 -0.03,0.02l0 0.06c-0.03,0.01 -0.07,0.02 -0.1,0.04l-0.06 -0.06 -0.06 0.07c-0.01,0 -0.01,0.02 0,0.03l0.05 0.04c-0.02,0.03 -0.04,0.06 -0.04,0.1l-0.09 0 0 0.09c0,0.01 0.01,0.02 0.02,0.02l0.07 0c0,0.04 0.02,0.07 0.04,0.1l-0.06 0.06 0.06 0.06c0.01,0.01 0.02,0.01 0.03,0l0.04 -0.04c0.03,0.02 0.07,0.03 0.1,0.04l0 0.08 0.09 0c0.01,0 0.02,-0.01 0.02,-0.02l0 -0.06c0.04,-0.01 0.07,-0.02 0.1,-0.04l0.06 0.06 0.06 -0.06c0.01,-0.01 0.01,-0.03 0,-0.04l-0.04 -0.04c0.02,-0.03 0.03,-0.06 0.04,-0.1l0.09 0 0 -0.09c0,-0.01 -0.02,-0.02 -0.03,-0.02l-0.06 0c-0.01,-0.04 -0.02,-0.07 -0.04,-0.1l0.06 -0.06 -0.06 -0.06c-0.01,-0.01 -0.03,-0.01 -0.04,0l-0.04 0.04c-0.03,-0.02 -0.06,-0.03 -0.1,-0.04l0 -0.08z"/>
   <g>
    <path class="fil0" d="M1.21 0.11l-0.1 0c-0.02,0 -0.03,0.01 -0.04,0.02 -0.01,0.01 -0.01,0.02 -0.01,0.03l0 0.06c-0.02,0 -0.03,0.01 -0.05,0.01 -0.02,0.01 -0.03,0.02 -0.05,0.03l-0.07 -0.08 -0.09 0.09c-0.01,0.01 -0.01,0.02 -0.01,0.03 0,0.02 0,0.03 0.01,0.04l0.04 0.04c-0.01,0.01 -0.01,0.03 -0.02,0.04 -0.01,0.02 -0.01,0.04 -0.02,0.05l-0.1 0 0 0.13c0,0.01 0,0.02 0.01,0.03 0.01,0.01 0.02,0.01 0.03,0.01l0.06 0c0.01,0.02 0.01,0.04 0.02,0.05 0.01,0.02 0.01,0.03 0.02,0.05l-0.07 0.07 0.09 0.09c0,0.01 0.02,0.01 0.03,0.01 0.01,0 0.02,0 0.03,-0.01l0.04 -0.04c0.02,0.01 0.03,0.02 0.05,0.02 0.02,0.01 0.03,0.01 0.05,0.02l0 0.1 0.12 0c0.01,0 0.03,0 0.03,-0.01 0.01,-0.01 0.02,-0.02 0.02,-0.03l0 -0.06c0.02,-0.01 0.03,-0.01 0.05,-0.02 0.01,0 0.03,-0.01 0.04,-0.02l0.08 0.07c0.01,-0.01 0.09,-0.08 0.09,-0.08 0,-0.01 0.01,-0.02 0.01,-0.04 0,-0.01 -0.01,-0.02 -0.01,-0.03l-0.05 -0.04c0.01,-0.02 0.02,-0.03 0.03,-0.05 0,-0.01 0.01,-0.03 0.01,-0.05l0.11 0 0 -0.12c0,-0.01 -0.01,-0.02 -0.01,-0.03 -0.01,-0.01 -0.03,-0.02 -0.04,-0.02l-0.06 0c0,-0.01 -0.01,-0.03 -0.01,-0.05 -0.01,-0.01 -0.02,-0.03 -0.03,-0.04l0.08 -0.08c-0.01,-0.01 -0.09,-0.08 -0.09,-0.08 -0.01,-0.01 -0.02,-0.02 -0.03,-0.02 -0.01,0 -0.03,0.01 -0.03,0.02l-0.05 0.04c-0.01,-0.01 -0.03,-0.02 -0.04,-0.03 -0.02,0 -0.03,-0.01 -0.05,-0.01l0 -0.11 -0.02 0zm-0.1 0.04l0.08 0 0 0.1 0.02 0c0.02,0.01 0.03,0.01 0.05,0.02 0.02,0.01 0.04,0.02 0.06,0.03l0.01 0.01 0.06 -0.07c0,0 0.01,0 0.01,0 0,0 0,0 0,0l0.07 0.06 -0.07 0.07 0 0.02c0.01,0.01 0.02,0.03 0.03,0.05 0.01,0.02 0.02,0.04 0.02,0.06l0 0.01 0.09 0c0,0 0.01,0 0.01,0 0,0.01 0,0.01 0,0.01l0 0.09 -0.1 0 0 0.01c0,0.02 -0.01,0.04 -0.02,0.06 -0.01,0.02 -0.02,0.03 -0.03,0.05l0 0.01 0.06 0.07c0,0 0,0 0,0 0,0.01 0,0.01 0,0.01l-0.06 0.06 -0.07 -0.07 -0.01 0.01c-0.02,0.01 -0.04,0.02 -0.06,0.03 -0.02,0 -0.03,0.01 -0.05,0.01l-0.02 0.01 0 0.09c0,0 0,0 0,0 0,0.01 -0.01,0.01 -0.01,0.01l-0.08 0 0 -0.1 -0.02 -0.01c-0.02,0 -0.04,-0.01 -0.06,-0.01 -0.01,-0.01 -0.03,-0.02 -0.05,-0.03l-0.01 -0.01 -0.07 0.06c0,0.01 0,0.01 0,0.01 0,0 -0.01,0 -0.01,-0.01l-0.06 -0.06 0.07 -0.07 -0.01 -0.01c-0.01,-0.02 -0.02,-0.03 -0.03,-0.05 0,-0.02 -0.01,-0.04 -0.01,-0.06l-0.01 -0.01 -0.09 0c0,0 0,-0.01 0,-0.01 0,0 0,0 0,0l0 -0.09 0.09 0 0.01 -0.01c0,-0.02 0.01,-0.04 0.01,-0.06 0.01,-0.02 0.02,-0.04 0.03,-0.05l0.01 -0.02 -0.06 -0.06c0,0 0,0 0,-0.01 0,0 0,0 0,0l0.06 -0.06 0.07 0.07 0.01 -0.01c0.02,-0.01 0.04,-0.02 0.05,-0.03 0.02,-0.01 0.04,-0.01 0.06,-0.02l0.02 0 0 -0.09c0,0 0,-0.01 0,-0.01 0,0 0,0 0.01,0z"/>
    <path class="fil0" d="M1.14 0.36c-0.05,0 -0.1,0.02 -0.14,0.06 -0.04,0.03 -0.06,0.08 -0.06,0.14 0,0.05 0.02,0.1 0.06,0.14 0.04,0.04 0.09,0.06 0.14,0.06 0.06,0 0.11,-0.02 0.15,-0.06 0.03,-0.04 0.05,-0.09 0.05,-0.14 0,-0.06 -0.02,-0.11 -0.05,-0.14 -0.04,-0.04 -0.09,-0.06 -0.15,-0.06zm-0.11 0.08c0.03,-0.03 0.07,-0.05 0.11,-0.05 0.05,0 0.09,0.02 0.12,0.05 0.03,0.03 0.05,0.07 0.05,0.12 0,0.04 -0.02,0.08 -0.05,0.11 -0.03,0.03 -0.07,0.05 -0.12,0.05 -0.04,0 -0.08,-0.02 -0.11,-0.05 -0.03,-0.03 -0.05,-0.07 -0.05,-0.11 0,-0.05 0.02,-0.09 0.05,-0.12z"/>
   </g>
   <circle class="fil2" cx="0.51" cy="0.96" r="0.15"/>
  </g>
 </g>
</svg>
