<?xml version="1.0" encoding="UTF-8"?>
<!DOCTYPE svg PUBLIC "-//W3C//DTD SVG 1.1//EN" "http://www.w3.org/Graphics/SVG/1.1/DTD/svg11.dtd">
<!-- Creator: CorelDRAW 2020 (64-Bit Evaluation Version) -->
<svg xmlns="http://www.w3.org/2000/svg" xml:space="preserve" width="50px" height="50px" version="1.1" style="shape-rendering:geometricPrecision; text-rendering:geometricPrecision; image-rendering:optimizeQuality; fill-rule:evenodd; clip-rule:evenodd"
viewBox="0 0 1.96 1.96"
 xmlns:xlink="http://www.w3.org/1999/xlink"
 xmlns:xodm="http://www.corel.com/coreldraw/odm/2003">
 <defs>
  <style type="text/css">
   <![CDATA[
    .str0 {stroke:white;stroke-width:0.09;stroke-miterlimit:2.61313}
    .fil4 {fill:none;fill-rule:nonzero}
    .fil0 {fill:#263674}
    .fil2 {fill:#263674;fill-rule:nonzero}
    .fil3 {fill:#EFB30C;fill-rule:nonzero}
    .fil1 {fill:white;fill-rule:nonzero}
   ]]>
  </style>
 </defs>
 <g id="Layer_x0020_1">
  <metadata id="CorelCorpID_0Corel-Layer"/>
  <g id="_3237040084400">
   <path class="fil0" d="M1.77 1.96c0.1,0 0.19,-0.09 0.19,-0.19 0,-0.1 -0.19,-0.31 -0.19,-0.31 0,0 -0.18,0.21 -0.18,0.31 0,0.1 0.08,0.19 0.18,0.19z"/>
   <path class="fil1" d="M1.76 1.9l0 -0.02c-0.01,-0.01 -0.02,-0.01 -0.03,-0.01 -0.01,-0.01 -0.02,-0.02 -0.02,-0.03 -0.01,-0.01 -0.01,-0.02 -0.01,-0.03l0.02 -0.01c0.01,0.02 0.01,0.03 0.02,0.04 0,0.01 0.01,0.01 0.02,0.01l0 -0.09c-0.01,0 -0.02,0 -0.03,-0.01 -0.01,0 -0.02,-0.01 -0.02,-0.02 -0.01,-0.01 -0.01,-0.02 -0.01,-0.03 0,-0.02 0.01,-0.04 0.02,-0.05 0.01,-0.01 0.03,-0.01 0.04,-0.01l0 -0.02 0.02 0 0 0.02c0.02,0 0.03,0 0.04,0.01 0.01,0.01 0.02,0.03 0.02,0.04l-0.03 0.01c0,-0.01 0,-0.02 -0.01,-0.03 0,0 -0.01,-0.01 -0.02,-0.01l0 0.08c0.01,0 0.02,0.01 0.03,0.01 0.01,0 0.01,0.01 0.02,0.01 0,0.01 0.01,0.01 0.01,0.02 0,0.01 0.01,0.02 0.01,0.03 0,0.02 -0.01,0.03 -0.02,0.04 -0.01,0.02 -0.03,0.02 -0.05,0.03l0 0.02 -0.02 0zm0 -0.24c-0.01,0 -0.02,0.01 -0.02,0.01 -0.01,0.01 -0.01,0.02 -0.01,0.03 0,0.01 0,0.02 0.01,0.02 0,0.01 0.01,0.01 0.02,0.02l0 -0.08zm0.02 0.19c0.01,0 0.02,0 0.03,-0.01 0,-0.01 0.01,-0.02 0.01,-0.03 0,-0.01 -0.01,-0.02 -0.01,-0.03 -0.01,0 -0.02,-0.01 -0.03,-0.01l0 0.08z"/>
   <path class="fil0" d="M0.24 0.84c0.13,0 0.24,-0.1 0.24,-0.24 0,-0.13 -0.23,-0.4 -0.24,-0.4 0,0 -0.24,0.27 -0.24,0.4 0,0.14 0.11,0.24 0.24,0.24z"/>
   <path class="fil1" d="M0.34 0.44l-0.02 0.03 -0.04 0c0,0 0.01,0.01 0.01,0.01 0,0.01 0,0.02 0.01,0.03l0.04 0 -0.02 0.03 -0.02 0c-0.01,0.01 -0.01,0.01 -0.01,0.02 -0.01,0.01 -0.02,0.02 -0.02,0.02 -0.01,0.01 -0.02,0.01 -0.03,0.02 -0.01,0 -0.02,0 -0.04,0l0.13 0.13 -0.06 0 -0.12 -0.12 0 -0.03 0.03 0c0.01,0 0.02,0 0.03,-0.01 0.01,0 0.01,0 0.02,0 0.01,-0.01 0.01,-0.01 0.02,-0.02 0,0 0,-0.01 0,-0.01l-0.11 0 0.02 -0.03 0.09 0c0,-0.02 -0.01,-0.02 -0.02,-0.03 -0.01,-0.01 -0.02,-0.01 -0.04,-0.01l-0.05 0 0.02 -0.03 0.18 0z"/>
   <path class="fil2" d="M0.98 0c0.11,0 0.21,0.04 0.28,0.12 0.07,0.07 0.11,0.17 0.11,0.28l0 0.42 -0.79 0 0 -0.42c0,-0.11 0.05,-0.21 0.12,-0.28 0.07,-0.08 0.17,-0.12 0.28,-0.12zm0 0.13c-0.07,0 -0.14,0.03 -0.19,0.08 -0.04,0.05 -0.07,0.11 -0.07,0.19l0 0.42 0.52 0 0 -0.42c0,-0.08 -0.03,-0.14 -0.08,-0.19 -0.04,-0.05 -0.11,-0.08 -0.18,-0.08z"/>
   <path class="fil3" d="M0.98 0.61c0.37,0 0.67,0.3 0.67,0.67 0,0.37 -0.3,0.68 -0.67,0.68 -0.37,0 -0.68,-0.31 -0.68,-0.68 0,-0.37 0.31,-0.67 0.68,-0.67z"/>
   <path class="fil4 str0" d="M0.98 0.74c-0.3,0 -0.55,0.24 -0.55,0.54 0,0.31 0.25,0.55 0.55,0.55 0.3,0 0.55,-0.24 0.55,-0.55 0,-0.3 -0.25,-0.54 -0.55,-0.54z"/>
   <path class="fil1" d="M1.03 1.25c-0.02,-0.01 -0.11,-0.03 -0.11,-0.07 0,-0.03 0.03,-0.04 0.05,-0.04 0.02,0 0.04,0.01 0.06,0.02 0,0.01 0.01,0.01 0.01,0.02 0,0.01 0,0.02 0.02,0.02l0.06 0c0.01,0 0.02,0 0.02,-0.02 0,-0.07 -0.06,-0.11 -0.12,-0.12l0 -0.05c0,-0.01 0,-0.02 -0.02,-0.02l-0.05 0c-0.01,0 -0.01,0.01 -0.01,0.02l0 0.05c-0.07,0.01 -0.12,0.05 -0.12,0.13 0,0.08 0.05,0.11 0.12,0.13 0.05,0.02 0.11,0.02 0.11,0.05 0,0.04 -0.03,0.05 -0.06,0.05 -0.03,0 -0.05,-0.01 -0.07,-0.02 0,-0.01 -0.01,-0.02 -0.01,-0.03 0,-0.02 -0.01,-0.02 -0.02,-0.02l-0.06 0c-0.02,0 -0.02,0.01 -0.02,0.02 0,0.08 0.06,0.12 0.13,0.14l0 0.05c0,0.01 0,0.02 0.01,0.02l0.05 0c0.02,0 0.02,-0.01 0.02,-0.02l0 -0.05c0.08,-0.01 0.13,-0.06 0.13,-0.14 0,-0.09 -0.07,-0.11 -0.12,-0.12z"/>
   <g>
    <circle class="fil0" cx="0.98" cy="1.51" r="0.08"/>
    <rect class="fil0" x="0.95" y="1.54" width="0.07" height="0.16" rx="0.03" ry="0.03"/>
   </g>
  </g>
 </g>
</svg>
