<?xml version="1.0" encoding="UTF-8"?>
<!DOCTYPE svg PUBLIC "-//W3C//DTD SVG 1.1//EN" "http://www.w3.org/Graphics/SVG/1.1/DTD/svg11.dtd">
<!-- Creator: CorelDRAW 2020 (64-Bit Evaluation Version) -->
<svg xmlns="http://www.w3.org/2000/svg" xml:space="preserve" width="900px" height="898px" version="1.1" style="shape-rendering:geometricPrecision; text-rendering:geometricPrecision; image-rendering:optimizeQuality; fill-rule:evenodd; clip-rule:evenodd"
viewBox="0 0 114.55 114.3"
 xmlns:xlink="http://www.w3.org/1999/xlink"
 xmlns:xodm="http://www.corel.com/coreldraw/odm/2003">
 <defs>
  <style type="text/css">
   <![CDATA[
    .str4 {stroke:#263674;stroke-width:0.13;stroke-miterlimit:2.61313}
    .str6 {stroke:black;stroke-width:0.3;stroke-linecap:round;stroke-linejoin:round;stroke-miterlimit:10}
    .str3 {stroke:white;stroke-width:1.26;stroke-linecap:round;stroke-linejoin:round;stroke-miterlimit:10}
    .str0 {stroke:white;stroke-width:0.45;stroke-linecap:round;stroke-linejoin:round;stroke-miterlimit:10}
    .str5 {stroke:black;stroke-width:0.77;stroke-linecap:round;stroke-linejoin:round;stroke-miterlimit:10}
    .str2 {stroke:white;stroke-width:0.77;stroke-linecap:round;stroke-linejoin:round;stroke-miterlimit:10}
    .str1 {stroke:white;stroke-width:0.77;stroke-linecap:round;stroke-linejoin:round;stroke-miterlimit:10}
    .str8 {stroke:#263674;stroke-width:0.14;stroke-miterlimit:10}
    .str7 {stroke:#263674;stroke-width:0.12;stroke-miterlimit:10}
    .fil3 {fill:none;fill-rule:nonzero}
    .fil6 {fill:#263674}
    .fil7 {fill:#EFB30C}
    .fil12 {fill:black;fill-rule:nonzero}
    .fil9 {fill:black;fill-rule:nonzero}
    .fil2 {fill:#263674;fill-rule:nonzero}
    .fil11 {fill:#3B4B8C;fill-rule:nonzero}
    .fil0 {fill:#CCCCCC;fill-rule:nonzero}
    .fil10 {fill:#EBC695;fill-rule:nonzero}
    .fil8 {fill:#EEF0F3;fill-rule:nonzero}
    .fil4 {fill:#EFB30C;fill-rule:nonzero}
    .fil13 {fill:#F2CC9B;fill-rule:nonzero}
    .fil5 {fill:white;fill-rule:nonzero}
    .fil1 {fill:white;fill-rule:nonzero}
   ]]>
  </style>
 </defs>
 <g id="Layer_x0020_1">
  <metadata id="CorelCorpID_0Corel-Layer"/>
  <path class="fil0" d="M95.66 31.98c0,0 0.82,-2.36 3.28,-2.43 2.45,-0.06 1.57,1.46 4.15,1.22 2.58,-0.25 1.64,-3.15 5.67,-3.76 4.02,-0.6 5.72,4.97 5.72,4.97l-18.82 0z"/>
  <path class="fil0" d="M58.88 3.74c0,0 0.61,-1.76 2.44,-1.81 1.83,-0.04 1.17,1.09 3.1,0.91 1.93,-0.18 1.22,-2.35 4.23,-2.81 3.01,-0.45 4.28,3.71 4.28,3.71l-14.05 0z"/>
  <path class="fil0" d="M4.72 21.53c0,0 0.55,-1.58 2.18,-1.62 1.64,-0.04 1.05,0.97 2.78,0.81 1.72,-0.16 1.09,-2.1 3.78,-2.5 2.68,-0.41 3.82,3.31 3.82,3.31l-12.56 0z"/>
  <path class="fil1" d="M68.39 114.3l-37.47 0c-4.16,0 -7.53,-3.37 -7.53,-7.53l0 -87.91c0,-4.16 3.37,-7.53 7.53,-7.53l37.47 0c4.15,0 7.52,3.37 7.52,7.53l0 87.91c0,4.16 -3.37,7.53 -7.52,7.53z"/>
  <path class="fil2" d="M68.39 13.91c2.73,0 4.95,2.22 4.95,4.95l0 87.91c0,2.73 -2.22,4.95 -4.95,4.95l-37.47 0c-2.73,0 -4.95,-2.22 -4.95,-4.95l0 -87.91c0,-2.73 2.22,-4.95 4.95,-4.95l37.47 0zm0 -2.58l0 0 -37.47 0c-4.16,0 -7.53,3.37 -7.53,7.53l0 87.91c0,4.16 3.37,7.53 7.53,7.53l37.47 0c4.15,0 7.52,-3.37 7.52,-7.53l0 -87.91c0,-4.16 -3.37,-7.53 -7.52,-7.53z"/>
  <path class="fil2" d="M61.38 11.59l-23.45 0 0 2.73c0,1.21 0.98,2.19 2.19,2.19l19.07 0c1.21,0 2.19,-0.98 2.19,-2.19l0 -2.73z"/>
  <line class="fil3 str0" x1="45.29" y1="13.63" x2="54.28" y2= "13.63" />
  <path class="fil4" d="M59.02 102.98l-26.78 0c-1.16,0 -2.1,-0.93 -2.1,-2.09l0 -22.37c0,-1.15 0.94,-2.09 2.1,-2.09l26.78 0c1.15,0 2.09,0.94 2.09,2.09l0 22.37c0,1.16 -0.94,2.09 -2.09,2.09z"/>
  <g id="_2389694506128">
   <path class="fil1" d="M41.46 87.96l-6.15 0c-0.46,0 -0.84,-0.37 -0.84,-0.83l0 -6.15c0,-0.46 0.38,-0.84 0.84,-0.84l6.15 0c0.46,0 0.83,0.38 0.83,0.84l0 6.15c0,0.46 -0.37,0.83 -0.83,0.83z"/>
   <line class="fil3 str1" x1="44.96" y1="82.61" x2="52.03" y2= "82.61" />
   <line class="fil3 str1" x1="44.96" y1="85.13" x2="56.36" y2= "85.13" />
   <line class="fil3 str2" x1="34.47" y1="91.22" x2="42.29" y2= "91.22" />
   <line class="fil3 str2" x1="34.47" y1="93.82" x2="56.36" y2= "93.82" />
   <line class="fil3 str2" x1="34.47" y1="96.68" x2="56.36" y2= "96.68" />
  </g>
  <path class="fil4" d="M81.06 29.29c0,3.46 -2.81,6.27 -6.28,6.27 -3.46,0 -6.27,-2.81 -6.27,-6.27 0,-3.47 2.81,-6.27 6.27,-6.27 3.47,0 6.28,2.8 6.28,6.27z"/>
  <polyline class="fil3 str3" points="72.26,29.59 74.23,31.05 77.6,27.55 "/>
  <path class="fil2 str4" d="M85.15 70.79l-21 0c-0.76,0 -1.38,-0.61 -1.38,-1.37l0 -14.63c0,-0.76 0.62,-1.37 1.38,-1.37l21 0c0.75,0 1.37,0.61 1.37,1.37l0 14.63c0,0.76 -0.62,1.37 -1.37,1.37z"/>
  <g id="_2389959272400">
   <path class="fil5" d="M78.31 60.69c0,-2.07 -1.68,-3.75 -3.75,-3.75 -2.08,0 -3.76,1.68 -3.76,3.75 0,0.69 0.19,1.34 0.52,1.9l0 0 0.01 0.01c0.14,0.24 0.31,0.47 0.51,0.67l2.72 3.6 2.71 -3.6c0.2,-0.2 0.37,-0.43 0.51,-0.67l0.01 -0.01 0 0c0.33,-0.56 0.52,-1.21 0.52,-1.9zm-3.75 1.63l0 0c-0.92,0 -1.66,-0.73 -1.66,-1.65 0,-0.91 0.74,-1.65 1.66,-1.65 0.91,0 1.65,0.74 1.65,1.65 0,0.92 -0.74,1.65 -1.65,1.65z"/>
  </g>
  <path class="fil5" d="M61.6 70.79l-23.7 0c-0.76,0 -1.37,-0.61 -1.37,-1.37l0 -14.63c0,-0.76 0.61,-1.37 1.37,-1.37l23.7 0c0.75,0 1.37,0.61 1.37,1.37l0 14.63c0,0.76 -0.62,1.37 -1.37,1.37z"/>
  <path class="fil2" d="M59.37 59.34l-18.78 0c-0.4,0 -0.73,-0.33 -0.73,-0.73l0 -2.49c0,-0.4 0.33,-0.73 0.73,-0.73l18.78 0c0.41,0 0.73,0.33 0.73,0.73l0 2.49c0,0.4 -0.32,0.73 -0.73,0.73z"/>
  <g id="_2389959273840">
   <line class="fil3 str5" x1="40.13" y1="61.93" x2="49.35" y2= "61.93" />
   <line class="fil3 str5" x1="40.13" y1="64.17" x2="59.84" y2= "64.17" />
   <line class="fil3 str5" x1="40.13" y1="66.65" x2="59.84" y2= "66.65" />
  </g>
  <path class="fil4" d="M81.18 97.33l-13.73 0c-0.92,0 -1.67,-0.75 -1.67,-1.67l0 -11.91c0,-0.92 0.75,-1.67 1.67,-1.67l13.73 0c0.93,0 1.67,0.75 1.67,1.67l0 11.91c0,0.92 -0.74,1.67 -1.67,1.67z"/>
  <path class="fil5" d="M77.7 89.04l-0.56 -0.1c-0.07,-0.24 -0.17,-0.48 -0.29,-0.7l0.33 -0.46c0.12,-0.17 0.1,-0.41 -0.05,-0.55l-0.34 -0.34c-0.15,-0.14 -0.38,-0.16 -0.55,-0.04l-0.47 0.33c-0.22,-0.13 -0.45,-0.23 -0.7,-0.29l-0.09 -0.57c-0.04,-0.21 -0.21,-0.36 -0.42,-0.36l-0.48 0c-0.21,0 -0.39,0.15 -0.43,0.36l-0.1 0.55c-0.24,0.07 -0.47,0.17 -0.69,0.29l-0.47 -0.31c-0.17,-0.12 -0.4,-0.1 -0.55,0.05l-0.34 0.34c-0.14,0.14 -0.16,0.38 -0.04,0.55l0.32 0.46c-0.12,0.22 -0.22,0.46 -0.29,0.7l-0.56 0.1c-0.2,0.04 -0.35,0.22 -0.35,0.43l0 0.47c0,0.21 0.15,0.39 0.35,0.43l0.56 0.09c0.07,0.25 0.17,0.48 0.29,0.7l-0.32 0.47c-0.12,0.17 -0.1,0.4 0.04,0.55l0.34 0.34c0.15,0.14 0.38,0.16 0.55,0.04l0.47 -0.32c0.22,0.12 0.45,0.22 0.7,0.29l0.09 0.56c0.04,0.2 0.22,0.35 0.43,0.35l0.48 0c0.21,0 0.39,-0.15 0.43,-0.35l0.1 -0.56c0.24,-0.07 0.47,-0.17 0.69,-0.29l0.46 0.32c0.17,0.12 0.4,0.1 0.55,-0.05l0.34 -0.34c0.15,-0.14 0.17,-0.38 0.05,-0.55l-0.33 -0.47c0.12,-0.22 0.22,-0.45 0.29,-0.7l0.56 -0.09c0.21,-0.04 0.36,-0.22 0.36,-0.43l0 -0.48c0,-0.2 -0.16,-0.38 -0.36,-0.42zm-3.38 2.15l0 0c-0.83,0 -1.49,-0.66 -1.49,-1.49 0,-0.82 0.66,-1.49 1.49,-1.49 0.82,0 1.49,0.67 1.49,1.49 0,0.01 0,0.01 0,0.01 -0.01,0.82 -0.67,1.48 -1.49,1.48z"/>
  <path class="fil6" d="M37.36 27.69l0.41 -0.63c0.14,0.2 0.37,0.6 0.43,0.77 0.04,0.11 -0.11,0.29 -0.19,0.41 -0.4,0.58 -0.98,1.01 -1.59,1.32 -0.61,0.31 -1.29,0.47 -1.98,0.47 0,0 -0.01,0 -0.01,0 -1.2,0.07 -2.4,-0.53 -3.23,-1.36 -0.82,-0.83 -1.32,-1.96 -1.32,-3.28 0.01,-0.63 0.13,-1.26 0.37,-1.78 0,0 0.16,-0.47 0.28,-0.49 0.49,0.93 0.98,1.87 1.46,2.8 0.18,0.44 0.37,-0.13 0.5,-0.37l0.32 0.61c0,0 0.19,0.32 0.38,0l0.5 -0.95c0,0 0.11,-0.15 0.17,0.05l0.66 1.26c0,0 0.11,0.31 0.26,-0.05l0.91 -1.73c0,0 0.13,-0.25 0.27,-0.01 0.03,0.05 0.3,0.42 0.26,0.66 0,0 0.02,0.18 -0.22,0.56 -0.2,0.41 -0.7,1.39 -1.03,1.86 0,0 -0.32,0.48 -0.65,0.07 -0.21,-0.31 -0.4,-0.64 -0.56,-0.97l-0.18 -0.31c0,0 -0.04,-0.1 -0.1,0 -0.16,0.28 -0.6,1.2 -0.82,1.34 0,0 -0.26,0.32 -0.64,-0.21l-1.28 -2.4c0,0.02 0,0.05 0,0.06 0,0.01 0,0.01 0,0.02 0,0.99 0.39,1.94 1.08,2.65 0.68,0.7 1.63,1.1 2.61,1.1 0.57,0 1.13,-0.13 1.63,-0.39 0.51,-0.25 0.96,-0.62 1.3,-1.08l0 0z"/>
  <path class="fil7" d="M31.49 23.12l-0.42 0.64c-0.14,-0.2 -0.37,-0.61 -0.43,-0.78 -0.04,-0.11 0.11,-0.29 0.19,-0.4 0.4,-0.59 0.98,-1.02 1.59,-1.33 0.61,-0.3 1.29,-0.46 1.98,-0.46 0,0 0.01,0 0.01,0 1.2,-0.07 2.4,0.52 3.23,1.35 0.82,0.83 1.32,1.96 1.32,3.28 -0.01,0.63 -0.12,1.26 -0.37,1.79 0,0 -0.16,0.47 -0.28,0.49l-1.46 -2.81c-0.18,-0.43 -0.37,0.14 -0.5,0.37l-0.33 -0.63c0,0 -0.2,-0.27 -0.39,0.05l-0.49 0.92c0,0 -0.11,0.15 -0.17,-0.04l-0.65 -1.27c0,0 -0.11,-0.31 -0.26,0.05l-0.92 1.73c0,0 -0.12,0.25 -0.26,0.01 -0.03,-0.04 -0.3,-0.42 -0.26,-0.66 0,0 -0.02,-0.18 0.22,-0.56 0.19,-0.41 0.7,-1.38 1.03,-1.86 0,0 0.32,-0.48 0.65,-0.06 0.21,0.3 0.4,0.63 0.56,0.97l0.18 0.3c0,0 0.04,0.1 0.1,0 0.16,-0.28 0.6,-1.2 0.82,-1.33 0,0 0.26,-0.33 0.64,0.21l1.28 2.39c0,-0.01 0,-0.05 0,-0.06 0,-0.01 0,-0.01 0,-0.01 0,-0.99 -0.39,-1.94 -1.08,-2.65 -0.68,-0.71 -1.63,-1.11 -2.61,-1.11 -0.57,0 -1.13,0.14 -1.63,0.39 -0.51,0.26 -0.95,0.63 -1.3,1.08l0.01 0z"/>
  <polygon class="fil2" points="31.9,50.92 32.09,50.92 32.09,33.19 31.9,33.19 "/>
  <polygon class="fil2" points="36.84,50.92 37.03,50.92 37.03,33.19 36.84,33.19 "/>
  <polygon class="fil2" points="41.78,50.92 41.97,50.92 41.97,33.19 41.78,33.19 "/>
  <polygon class="fil2" points="46.72,50.92 46.91,50.92 46.91,33.19 46.72,33.19 "/>
  <polygon class="fil2" points="51.66,50.92 51.85,50.92 51.85,33.19 51.66,33.19 "/>
  <polygon class="fil2" points="56.6,50.92 56.79,50.92 56.79,33.19 56.6,33.19 "/>
  <polygon class="fil2" points="61.54,50.92 61.73,50.92 61.73,33.19 61.54,33.19 "/>
  <polygon class="fil2" points="66.48,50.92 66.67,50.92 66.67,33.19 66.48,33.19 "/>
  <polygon class="fil8" points="31.99,45.05 35.36,41.68 37,43.32 40.57,39.74 43.41,42.58 47.04,38.95 49.53,41.43 55.86,35.1 60.61,39.85 63.48,36.97 66.58,40.07 66.58,50.92 31.99,50.92 "/>
  <polygon class="fil4" points="31.99,47.28 34.68,44.59 36.38,46.29 38.35,44.32 42.06,48.03 46.69,43.39 48.36,45.05 53.14,40.27 57.51,44.64 66.57,35.58 66.57,50.92 31.99,50.92 "/>
  <polygon class="fil2" points="31.9,32.13 33.97,32.13 33.97,31.69 31.9,31.69 "/>
  <polygon class="fil2" points="36.84,32.13 38.25,32.13 38.25,31.69 36.84,31.69 "/>
  <polygon class="fil2" points="41.78,32.13 43.53,32.13 43.53,31.69 41.78,31.69 "/>
  <polygon class="fil2" points="46.72,32.13 48.02,32.13 48.02,31.69 46.72,31.69 "/>
  <polygon class="fil2" points="51.66,32.13 52.75,32.13 52.75,31.69 51.66,31.69 "/>
  <polygon class="fil2" points="56.6,32.13 58.71,32.13 58.71,31.69 56.6,31.69 "/>
  <polygon class="fil2" points="61.54,32.13 63.01,32.13 63.01,31.69 61.54,31.69 "/>
  <polygon class="fil2" points="66.48,32.13 67.41,32.13 67.41,31.69 66.48,31.69 "/>
  <g id="_2390147552640">
   <path class="fil9" d="M22.26 112.02l2.17 1.19c0.23,0.13 0.37,0.42 0.3,0.69 -0.06,0.22 -0.24,0.39 -0.73,0.4 -1.07,0.02 -5.82,-0.77 -5.82,-0.77l0 0.68 -2.22 0.01c0,0 -0.14,-3.23 0.53,-3.64l5.77 1.44z"/>
   <path class="fil10" d="M19.35 109.64l2.91 2.38c0,0 -0.38,1.07 -2.03,0.36 -1.66,-0.72 -3.74,-1.8 -3.74,-1.8l0.3 -1.24 2.56 0.3z"/>
  </g>
  <polygon class="fil10" points="16.79,109.34 16.49,100.72 19.37,100.48 19.37,110.58 "/>
  <polygon class="fil11" points="21.93,74.83 20.72,108.41 15.13,108.41 14.84,72.12 "/>
  <path class="fil2" d="M21.3 74.25l-2.81 16.35c-0.34,2.02 -2.41,3.25 -4.35,2.59 -1.43,-0.49 -2.34,-1.88 -2.24,-3.38l0.54 -7.43c0.27,-2.52 -0.35,-5.78 2.4,-10.26l6.46 2.13z"/>
  <g id="_2390147558880">
   <path class="fil9" d="M6.51 111.19l1.21 2.17c0.12,0.23 0.09,0.55 -0.12,0.74 -0.16,0.16 -0.41,0.2 -0.82,-0.05 -0.92,-0.55 -4.53,-3.74 -4.53,-3.74l-0.36 0.58 -1.89 -1.17c0,0 1.6,-2.81 2.38,-2.8l4.13 4.27z"/>
   <path class="fil10" d="M5.3 107.64l1.21 3.55c0,0 -0.89,0.72 -1.91,-0.77 -1.03,-1.49 -2.22,-3.5 -2.22,-3.5l0.92 -0.9 2 1.62z"/>
  </g>
  <polygon class="fil10" points="3.3,106.02 7.62,98.56 10.18,99.89 4.83,108.45 "/>
  <polygon class="fil2" points="18.07,91.74 7.67,107.25 2.83,104.14 12.87,87.27 "/>
  <path class="fil9" d="M25.82 47.68c0,0 2.31,-0.3 2.61,1.88 0.23,1.63 -0.52,2.43 0.07,3.74 0.58,1.31 -0.52,2.48 -0.52,2.48 0,0 -2.73,1.27 -5.71,-1.33l3.55 -6.77z"/>
  <polygon class="fil10" points="24.93,54.99 23.67,58.25 21.05,57.55 23.47,52.87 "/>
  <polygon class="fil12" points="24.33,56.55 23.79,54.16 24.77,55.41 "/>
  <path class="fil10" d="M26.12 48.17c0,0 1.55,0.33 1.55,2.3 0,0 0.08,0.76 -0.02,2.82 -0.07,1.45 -0.76,2.46 -2.13,2.32 -0.66,-0.06 -1.35,-0.47 -1.98,-0.99l-0.87 -0.89c-2.01,-2.46 0.09,-6.16 3.22,-5.61 0.07,0.02 0.15,0.03 0.23,0.05z"/>
  <path class="fil10" d="M27.55 52.14l0.55 0.97c0.07,0.1 0.03,0.26 -0.1,0.27l-0.72 0.09 0.27 -1.33z"/>
  <path class="fil9" d="M23.87 51.56c-0.06,-0.44 -0.36,-3.56 1.97,-3.15 0.36,0.06 0.55,-0.42 0.23,-0.62 -0.83,-0.52 -2.15,-0.88 -4.06,-0.14 -0.78,0.3 -1.85,1.32 -1.85,2.33 0,2.16 0.72,3.25 1.98,4.36 0.07,0.06 0.17,0.04 0.21,-0.04l0.82 -1.57c0,-0.01 0,-0.01 0,-0.02 0.09,-0.29 0.55,-0.89 0.67,-1.05 0.03,-0.03 0.03,-0.06 0.03,-0.1z"/>
  <path class="fil9" d="M25.43 47.64c2.93,1.35 -1.36,4.57 -1.36,4.57l-1.2 -2.38c0,0 2.07,-2.41 2.56,-2.19z"/>
  <path class="fil12" d="M27.37 50.33l-1.55 0.53c0,0 0.27,-0.5 0.82,-0.77 0.74,-0.36 0.73,0.24 0.73,0.24z"/>
  <g id="_2390147587200">
   <path class="fil12" d="M27.05 51.39c0,0 -0.52,0.11 -0.54,0.63 -0.02,0.53 0.55,0.49 0.55,0.49 0,0 0.49,-0.63 -0.01,-1.12z"/>
  </g>
  <path class="fil12" d="M26.86 51.47c-0.08,0.26 -0.15,0.7 0.2,1.04 0,0 0.49,-0.63 -0.01,-1.12 0,0 -0.09,0.02 -0.19,0.08z"/>
  <g id="_2390147591904">
   <path class="fil12" d="M27.17 51.26c-0.09,0.01 -0.17,0.03 -0.25,0.06 -0.08,0.03 -0.15,0.08 -0.22,0.13 -0.06,0.06 -0.11,0.13 -0.15,0.2 -0.04,0.07 -0.06,0.15 -0.08,0.23 0,0.01 0.01,0.03 0.02,0.03 0.02,0.01 0.03,0 0.04,-0.01l0 -0.01c0.03,-0.07 0.06,-0.13 0.1,-0.19 0.04,-0.06 0.09,-0.11 0.15,-0.15 0.06,-0.03 0.12,-0.06 0.19,-0.08 0.06,-0.01 0.14,-0.02 0.2,-0.02l0 0c0.05,0.01 0.1,-0.03 0.11,-0.08 0,-0.06 -0.04,-0.1 -0.09,-0.11 -0.01,0 -0.01,0 -0.02,0z"/>
  </g>
  <path class="fil9" d="M23.65 52.88c-0.18,1.31 -0.03,2.75 -0.03,2.75 0,0 -6.5,14.19 -10.77,4.89 0,0 4.1,2.17 6.8,-9.25 0.03,-2.55 0,-4.13 4.32,-4.04 0,0 -0.11,4.18 -0.32,5.65z"/>
  <path class="fil10" d="M22.23 52.18c-0.07,0.55 0.32,1.05 0.87,1.11 0.54,0.07 1.04,-0.31 1.11,-0.86 0.07,-0.55 -0.32,-1.04 -0.87,-1.11 -0.54,-0.07 -1.04,0.32 -1.11,0.86z"/>
  <path class="fil3 str6" d="M23.65 52.73c0,0 -0.04,-0.76 -0.66,-0.77"/>
  <g id="_2390147528208">
   <path class="fil10" d="M17.22 60.05l-6.13 4.96c-0.88,0.75 -0.95,2.09 -0.15,2.92l0 0c0.73,0.76 1.93,0.83 2.74,0.15l6.65 -5.27 -3.11 -2.76z"/>
   <path class="fil2" d="M13.54 61.87c0,0 0.26,1.98 3.7,4.25l4.69 -3.48c1.3,-0.97 1.49,-2.86 0.41,-4.07 -0.9,-1.01 -2.39,-1.22 -3.54,-0.5l-5.26 3.8z"/>
  </g>
  <g id="_2390147530752">
   <g>
    <path class="fil10" d="M13.65 68.16l-6.08 7.81 -1.49 -1.75 4.54 -8.68c0.74,-1 2.2,-1.09 3.06,-0.19 0.76,0.79 0.74,2.03 -0.03,2.81z"/>
   </g>
   <g>
    <path class="fil10" d="M7.93 75.64l0.06 0.39c0.08,0.52 0.04,1.06 -0.12,1.57l-0.29 0.89c-0.06,0.21 -0.31,0.31 -0.5,0.21 -0.17,-0.09 -0.27,-0.27 -0.25,-0.45l0.09 -0.99 -1.98 2.8c-0.09,0.14 -0.28,0.16 -0.41,0.05l-0.09 -0.07c-0.1,-0.09 -0.12,-0.24 -0.05,-0.35l1.26 -1.93 -1.76 2.02c-0.1,0.13 -0.3,0.14 -0.42,0.02l-0.05 -0.05c-0.1,-0.1 -0.12,-0.26 -0.03,-0.37l1.45 -1.87 -1.41 1.18c-0.14,0.11 -0.34,0.08 -0.43,-0.08l-0.02 -0.03c-0.06,-0.11 -0.04,-0.24 0.04,-0.33l1.39 -1.33 -0.87 0.52c-0.16,0.13 -0.4,0.05 -0.45,-0.15 -0.02,-0.09 0.01,-0.19 0.08,-0.26l3.53 -3.3 0.72 0.82c0.26,0.31 0.44,0.68 0.51,1.09z"/>
   </g>
  </g>
  <path class="fil1 str7" d="M21.9 57.45c0,0 2.41,-0.23 2.44,4.12 0.03,4.36 -1.34,6.42 -2.41,13.26 0,0 -4.09,-0.5 -7.09,-2.71 0,0 -0.18,-16.03 7.06,-14.67z"/>
  <path class="fil10" d="M22.39 63.28l5.7 5.46c0.85,0.77 2.18,0.67 2.91,-0.23 0.66,-0.82 0.58,-2.01 -0.2,-2.73l-6.06 -5.94 -2.35 3.44z"/>
  <path class="fil2" d="M23.94 66.74c0,0 1.99,-0.07 4.03,-4.12l-4 -4.24c-1.12,-1.18 -3.02,-1.15 -4.1,0.07 -0.89,1.01 -0.92,2.52 -0.08,3.57l4.15 4.72z"/>
  <g id="_2390169213392">
   <path class="fil10" d="M28.19 65.84l8.11 -6.14 1.07 1.67 -6.42 7.2c-0.78,0.92 -2.2,0.92 -2.98,-0.01 -0.68,-0.81 -0.59,-2.02 0.22,-2.72z"/>
  </g>
  <g id="_2390169214784">
   <path class="fil10" d="M35.23 61.39c0.3,1.03 1.3,0.99 3.25,0.44 1.03,-0.29 1.41,-1.02 1.1,-2.05 -0.3,-1.03 -1.39,-1.61 -2.41,-1.31 -1.03,0.31 -2.25,1.89 -1.94,2.92z"/>
   <path class="fil10" d="M36.81 58.62l2.48 -1.44c0.16,-0.11 0.39,-0.07 0.5,0.08 0.1,0.14 0.08,0.32 -0.05,0.44l-1.92 1.62 -1.01 -0.7z"/>
  </g>
  <path class="fil13" d="M108.38 109.2c0,0 0.21,1.43 0.23,1.64 0.03,0.22 2.36,-0.12 2.36,-0.12l0.19 -1.7c0,0 -2.49,-0.02 -2.78,0.18z"/>
  <path class="fil9" d="M108.59 110.66c0,0 -0.74,0.86 -1.45,1.24 -0.72,0.38 -1.84,0.52 -2.26,0.91 -0.31,0.28 -1.11,1.49 1.85,1.47 2.97,-0.03 4.4,0.17 4.72,-0.3 0.32,-0.46 -0.46,-3.41 -0.46,-3.41 0,0 -0.7,0.24 -2.4,0.09z"/>
  <path class="fil13" d="M91.68 109.2c0,0 0.21,1.43 0.23,1.64 0.03,0.22 2.36,-0.12 2.36,-0.12l0.19 -1.7c0,0 -2.49,-0.02 -2.78,0.18z"/>
  <path class="fil9" d="M91.89 110.66c0,0 -0.74,0.86 -1.45,1.24 -0.72,0.38 -3.34,0.68 -3.77,1.07 -0.3,0.28 -0.81,1.41 3.36,1.31 2.97,-0.08 4.4,0.17 4.72,-0.3 0.32,-0.46 -0.46,-3.41 -0.46,-3.41 0,0 -0.66,0.26 -2.4,0.09z"/>
  <path class="fil2" d="M107.55 72.28c0,0 1.24,3.55 1.08,6.61 -0.17,3.05 0.64,6.4 0.97,9.6 0.36,3.56 1.86,11.99 1.92,13.89 0.05,1.91 -0.23,7.99 -0.23,7.99l-3.01 0.07c0,0 -2.52,-14.74 -3.18,-16.25 -0.65,-1.5 -3.89,-12.22 -4,-13.43 -0.11,-1.2 6.45,-8.48 6.45,-8.48z"/>
  <path class="fil2" d="M94.92 72.91c0,0 -1.65,8.38 -1.87,10.25 -0.22,1.88 -0.36,9.06 -0.47,10.23 -0.11,1.17 -0.73,15.31 -1.31,17.05l3.84 0c0,0 2.95,-10.28 2.95,-15.14 0,-4.87 2.28,-10.58 3.75,-13.78 1.47,-3.21 4.83,-3.29 5.74,-9.24 0,0 -11.41,-1.26 -12.63,0.63z"/>
  <path class="fil13" d="M102.72 44.26c0,0 -3.02,-1.09 -4.42,1.13 -1.4,2.22 -1.26,6.67 0.26,7.21 1.53,0.55 3.82,0.27 4.6,-1.12 0.79,-1.39 1.49,-3.4 1.46,-4.74 -0.04,-1.34 -1.1,-2.09 -1.9,-2.48z"/>
  <path class="fil13" d="M99.07 52.47c0,0 0.13,0.76 -0.08,1.14 -0.2,0.38 3.81,0.39 3.81,0.39 0,0 0.33,-2.05 0.94,-3.78 0.62,-1.73 -4.67,2.25 -4.67,2.25z"/>
  <path class="fil9" d="M103.74 50.22c0,0 -0.27,0.44 -1.4,0.27 -1.13,-0.17 -2.51,-1.62 -2.98,-1.78 -0.47,-0.16 -0.48,-0.43 -0.48,-0.43l-0.29 0.42 -0.51 0.03c0,0 0.46,-1.3 -0.23,-1.82 -0.69,-0.53 0.72,-4.2 4.34,-2.98 0,0 2.78,0.74 2.68,2.27 -0.1,1.52 -0.5,3.26 -1.13,4.02z"/>
  <path class="fil1" d="M98.76 53.56c0,0 0.01,-0.72 0.35,-0.78 0.34,-0.07 3.73,-0.39 4.15,-0.23l0 0.84c0,0 -0.8,0.47 -4.5,0.17z"/>
  <path class="fil13" d="M98.96 47.73c0.06,-0.26 0.73,-0.99 0.99,-0.21 0.26,0.79 -0.39,1.84 -0.75,1.75 -0.36,-0.09 -0.4,-0.89 -0.24,-1.54z"/>
  <path class="fil1 str8" d="M98.76 53.56c0,0 -1.87,0.65 -4.03,1.53 0,0 -2.48,0.9 -2.75,3.54 -0.14,1.4 -1.69,8.84 -1.98,9.47 -0.29,0.62 -3.73,10.74 -3.85,10.95 -0.12,0.21 2.81,1.38 3,1.28 0.19,-0.09 3.33,-9.22 3.64,-9.9 0,0 1.81,-5.47 1.85,-6.29 0,0 0.06,2.33 0.15,2.98 0.1,0.65 -1.6,13.33 -1.55,13.68 0.05,0.35 7.73,0.79 10.8,0.47 3.07,-0.33 5.55,-1.01 5.55,-1.01 0,0 -2.41,-10 -2.34,-11.11 0.16,-2.42 1,-6.97 1,-6.97l2.51 4.55 -2.67 7.02 0.56 2.47c0,0 5.6,-7.8 5.79,-8.59 0.19,-0.8 -0.29,-1.8 -0.61,-2.46 -0.31,-0.65 -2.38,-5.62 -2.86,-6.32 -0.49,-0.7 -1.31,-3.5 -3.28,-4.28 -1.66,-0.65 -4.43,-1.18 -4.43,-1.18l-4.5 0.17z"/>
  <polygon class="fil0" points="94.66,83.63 80.61,80.16 83.12,70.72 97.17,74.19 "/>
  <path class="fil13" d="M87.85 83.24c0,0 0.24,-0.24 0.29,-0.39 0,0 0.07,-0.28 0.14,-0.48 0.02,-0.07 0.03,-0.12 0.05,-0.15 0.07,-0.15 0.26,-0.44 0.32,-0.83 0.06,-0.38 0.24,-2.11 0.24,-2.11l-1.09 -0.27 -0.87 -0.17c0,0 -1.89,1.81 -1.99,2.16 -0.01,0.04 -0.02,0.07 -0.02,0.1 -0.06,0.31 0.03,0.56 0.02,0.73 0,0.06 0.01,0.66 0.15,0.77 0.21,0.16 0.41,0.19 0.58,0.13 0,0 0.41,0.29 0.75,0.28 0,0 0.37,0.28 0.79,0.14 0,0 0.41,0.24 0.64,0.09z"/>
  <path class="fil2" d="M92.1 72.3c0,0 -2.49,7.27 -2.95,8.03 0,0 -1.83,-0.37 -3,-1.28l2.74 -7.85 3.21 1.1z"/>
 </g>
</svg>
