<?xml version="1.0" encoding="UTF-8"?>
<!DOCTYPE svg PUBLIC "-//W3C//DTD SVG 1.1//EN" "http://www.w3.org/Graphics/SVG/1.1/DTD/svg11.dtd">
<!-- Creator: CorelDRAW 2020 (64-Bit Evaluation Version) -->
<svg xmlns="http://www.w3.org/2000/svg" xml:space="preserve" width="40px" height="40px" version="1.1" style="shape-rendering:geometricPrecision; text-rendering:geometricPrecision; image-rendering:optimizeQuality; fill-rule:evenodd; clip-rule:evenodd"
viewBox="0 0 115.8 115.8"
 xmlns:xlink="http://www.w3.org/1999/xlink"
 xmlns:xodm="http://www.corel.com/coreldraw/odm/2003">
 <defs>
  <style type="text/css">
   <![CDATA[
    .fil2 {fill:#F5BE27}
    .fil0 {fill:#263674;fill-rule:nonzero}
    .fil1 {fill:#F5BE27;fill-rule:nonzero}
   ]]>
  </style>
 </defs>
 <g id="Layer_x0020_1">
  <metadata id="CorelCorpID_0Corel-Layer"/>
  <g id="_2403185528368">
   <path class="fil0" d="M34.15 66.72c-2.27,-0.75 -4.35,-1.81 -6.21,-3.18 -1.86,-1.37 -3.5,-3.02 -4.91,-4.94 -1.41,-1.94 -2.51,-4.06 -3.3,-6.42 -5.3,0.71 -10.55,1.51 -15.72,2.44 -1.33,0.23 -2.67,0.48 -4.01,0.73l0 19.41c2.14,3.71 8.35,7.93 21.08,13.18 4.04,1.67 8.26,2.52 12.66,2.52l9.31 0c1.41,0 2.76,-0.25 4.04,-0.75 1.27,-0.48 2.41,-1.16 3.44,-2.05 1.02,-0.88 1.85,-1.93 2.49,-3.16 0.66,-1.2 1.09,-2.53 1.27,-3.93l1.89 -15.38c-1.37,0.9 -2.84,1.57 -4.41,2.01 -1.58,0.42 -3.19,0.64 -4.84,0.64l-5.65 0c-2.47,0 -4.84,-0.38 -7.13,-1.12z"/>
   <path class="fil0" d="M0 47.67c6.18,-1.12 12.41,-2.11 18.67,-2.96l0 -11.26c-6.26,0.89 -12.49,1.92 -18.67,3.06l0 11.16z"/>
   <path class="fil0" d="M0 28.84c7.66,-1.42 15.34,-2.6 23.03,-3.55 11.42,-1.39 22.96,-2.25 34.63,-2.55 -1.34,-3.46 -3.13,-6.58 -5.4,-9.37 -2.25,-2.8 -4.83,-5.17 -7.74,-7.16 -2.9,-1.99 -6.07,-3.52 -9.51,-4.58 -3.44,-1.09 -6.99,-1.63 -10.69,-1.63 -4.47,0 -8.73,0.78 -12.75,2.35 -4.02,1.57 -7.62,3.76 -10.81,6.54 -0.26,0.22 -0.51,0.45 -0.76,0.68l0 19.27z"/>
   <path class="fil0" d="M26.21 32.5l0 12.73c0,2.07 0.4,4.04 1.18,5.85 0.79,1.83 1.85,3.44 3.24,4.8 1.37,1.39 2.97,2.45 4.8,3.24 1.81,0.78 3.78,1.18 5.85,1.18l5.65 0c1.85,0 3.4,-0.4 4.62,-1.18 1.25,-0.79 2.33,-1.65 3.28,-2.6 0.94,-0.92 1.81,-1.78 2.59,-2.57 0.79,-0.78 1.69,-1.18 2.72,-1.18 0.92,0 1.66,0.18 2.17,0.56 0.5,0.36 0.88,0.84 1.12,1.45 0.22,0.58 0.37,1.22 0.41,1.93 0.04,0.7 0.06,1.4 0.06,2.07l0 0.22 0 0.54c0.5,-0.44 0.94,-0.9 1.32,-1.39 0.36,-0.48 0.73,-1 1.03,-1.57 0.94,-1.6 1.75,-3.33 2.39,-5.2 0.64,-1.87 1.17,-3.78 1.59,-5.77 0.4,-1.99 0.72,-3.96 0.9,-5.95 0.2,-1.97 0.3,-3.9 0.3,-5.75 0,-1 -0.38,-1.89 -1.12,-2.63 -0.75,-0.75 -1.63,-1.13 -2.64,-1.13 -6.95,0 -13.87,0.2 -20.74,0.59 -6.88,0.4 -13.77,0.98 -20.72,1.76z"/>
   <path class="fil1" d="M0 74.76l0 33.5 18.83 0c1.42,-6.06 4.53,-12.9 6.73,-18.82 -8.53,-3.23 -16.07,-5.45 -25.56,-14.68z"/>
   <polygon class="fil1" points="89.85,70.85 102.82,93.32 115.8,115.8 96.52,115.8 80.21,87.54 "/>
   <polygon class="fil0" points="64.73,75.31 76.42,95.56 88.11,115.8 64.73,115.8 41.36,115.8 53.04,95.56 "/>
   <rect class="fil2" transform="matrix(8.64872 8.64872 -8.64872 8.64872 79.3249 56.6685)" width="0.81" height="0.81"/>
  </g>
 </g>
</svg>
