<svg xmlns="http://www.w3.org/2000/svg" xmlns:xlink="http://www.w3.org/1999/xlink" width="700" height="443" viewBox="0 0 863.92 547.36" shape-rendering="geometricPrecision" image-rendering="optimizeQuality" fill-rule="evenodd" xmlns:v="https://vecta.io/nano"><style><![CDATA[.L{fill-rule:nonzero}.M{fill:#263674}.N{fill:#f9a92d}.O{fill:#fdbe11}.P{fill:#e6e6e6}.Q{stroke-width:1.21}.R{stroke-miterlimit:2.61313}]]></style><path d="M476.45 401.53h-70.22c-1.77 0-3.21-1.44-3.21-3.21s1.44-3.21 3.21-3.21h70.22c1.77 0 3.21 1.44 3.21 3.21s-1.44 3.21-3.21 3.21h0zm-125.41 17.19c0 .58.46 1.04 1.04 1.04H530.6a1.04 1.04 0 1 0 0-2.08H352.08c-.58 0-1.04.46-1.04 1.04h0z" class="L M"/><circle cx="727.68" cy="152.4" r="56.8" class="L O"/><g class="M L"><path d="M303.34 490.49c0 .58.46 1.04 1.04 1.04h456.4a1.03 1.03 0 0 0 1.03-1.04c0-.57-.46-1.04-1.03-1.04h-456.4a1.04 1.04 0 0 0-1.04 1.04zm6.6-70.22l-1.46-1.6 142.49-130.02 51.34 23.01 55.44-95.07 45.54-21.95 42.2 70.33c22.78-58.98 79.92-120.69 148.39-183.3l1.68 1.36c-64.21 61.48-119.15 123.24-150.33 185.71l-39.04-65.25a7 7 0 0 0-8.97-2.75h0a134.81 134.81 0 0 0-59.52 54.19l-34.73 59.4-7.93-3.55a72.91 72.91 0 0 0-79 12.68l-106.1 96.81z"/><path d="M797.09 93.51l-2.16.15-3.49-7.57-7.82-1.59-.3-2.14 12.88-1.84z"/></g><path d="M574.83 139.8l7.66-29.45 29.83-1.43 8.93 40.59z" fill="#ccc" class="L"/><circle cx="594.46" cy="90.81" r="36.02" class="L P"/><path d="M614.33 98.44h0s-13.68-27.11-29.71-25.55c-16.03 1.57-24.48 3.47-24.48 3.47s-4.75-21.11 17.65-29.23c0 0-28.49-28.08 5.43-41.86 33.91-13.77 52.89 3.8 52.89 3.8s25.1 25.06-6.51 43.79c0 0 23.47 31.58-4.95 57.61 0 0 6.36-21.07-.28-17.18-6.63 3.88-10.04 5.15-10.04 5.15h0 0 0z" class="L"/><path d="M554.72 288.73l-4.79 4.59-34.61 74.21-3.79 122.75h58.15l27.28-60.79 18.38 60.2h52.29l12.12-109.28-32.58-77.29z" class="L M"/><path d="M614.96 136.81h-38.83l-42.24 22.73 9.85 43.94s-2.28 26.52 3.03 46.22c5.3 19.7 3.03 45.47 3.03 45.47l97.37 7.95 3.03-89.41-1.52-59.86-33.72-17.04h0 0z" class="L O"/><path d="M540.33 159.92s-23.49.75-27.28 15.91c-3.79 15.15-6.82 93.2-6.82 93.2s2.27 46.31 27.66 24.29c25.38-22.02 23.11-88.7 23.11-88.7l-16.67-44.7h0 0z" class="L N"/><path d="M768.16 546.49H629.73c-4.68 0-8.5-3.81-8.5-8.5v-143.1c0-4.69 3.82-8.5 8.5-8.5h138.43a8.51 8.51 0 0 1 8.5 8.5v143.1a8.51 8.51 0 0 1-8.5 8.5z" fill="#fff" class="L"/><path d="M768.16 547.36H629.73a9.38 9.38 0 0 1-9.37-9.37v-143.1c0-5.17 4.2-9.38 9.37-9.38h138.43c5.17 0 9.37 4.21 9.37 9.38v143.1a9.38 9.38 0 0 1-9.37 9.37h0zm-138.43-160.1c-4.2 0-7.62 3.42-7.62 7.63v143.1c0 4.2 3.42 7.63 7.62 7.63h138.43c4.2 0 7.62-3.43 7.62-7.63v-143.1c0-4.21-3.42-7.63-7.62-7.63H629.73zm74.68 121.64H693c-1.39 0-2.52-.87-2.52-1.95v-49.12c0-1.07 1.13-1.94 2.52-1.94h11.41c1.39 0 2.52.87 2.52 1.94v49.12c0 1.08-1.13 1.95-2.52 1.95h0z" class="M L"/><path d="M666.69 479.95c-1.12 0-2.04.71-2.04 1.57v25.38c0 .86.92 1.57 2.04 1.57h11.41c1.12 0 2.03-.71 2.03-1.57v-25.38c0-.86-.91-1.57-2.03-1.57h-11.41z" class="L O"/><path d="M730.72 508.9h-11.41c-1.39 0-2.52-.87-2.52-1.95v-80.5c0-1.07 1.13-1.94 2.52-1.94h11.41c1.39 0 2.52.87 2.52 1.94v80.5c0 1.07-1.13 1.95-2.52 1.95h0z" class="L N"/><path d="M485.21 156.04h-13.04c-1.58 0-2.87-.99-2.87-2.22V97.71c0-1.22 1.29-2.22 2.88-2.22h13.03c1.58 0 2.87 1 2.87 2.22v56.11c0 1.23-1.29 2.22-2.87 2.22h0zm-43.09-33.06c-1.28 0-2.32.8-2.32 1.79v28.99c0 .99 1.04 1.79 2.32 1.79h13.03c1.29 0 2.33-.8 2.33-1.79v-28.99c0-.99-1.04-1.79-2.33-1.79h-13.03zm73.14 33.06h-13.03c-1.59 0-2.88-.99-2.88-2.22V61.87c0-1.22 1.29-2.22 2.88-2.22h13.03c1.59 0 2.88 1 2.88 2.22v91.95c0 1.23-1.29 2.22-2.88 2.22h0z" class="M L"/><path d="M677.72 407.21c6.75-.65 11.4-9.77 10.39-20.38-.35-4.24-1.71-8.34-3.97-11.95l-1.3-12.01.2-.06 3.27-56.94c.76-13.24-4.48-26.25-14.57-34.84-6.01-5.12-12.42-7.71-16.54-1.24-6.84 10.72 2.02 54.91 7.84 80.04l2.25 26.85a26.61 26.61 0 0 0-1.62 12.49c1.01 10.61 7.3 18.69 14.05 18.04z" class="L P"/><path d="M640.35 155.37s19.7-7.58 28.79 15.15 18.94 134.88 18.94 134.88l-46.22-8.34-1.51-141.69h0 0z" class="L N"/><g fill="#333" class="L"><use xlink:href="#B"/><use xlink:href="#B" y="-45.51"/><use xlink:href="#B" y="-78.33"/></g><g class="M L"><path d="M339.03 156.2c0 .58.46 1.04 1.04 1.04h178.51a1.04 1.04 0 1 0 0-2.08H340.07c-.58 0-1.04.46-1.04 1.04zm344.29 269.14c0 .58.46 1.04 1.04 1.04h178.52a1.04 1.04 0 0 0 1.04-1.04c0-.57-.47-1.04-1.04-1.04H684.36a1.04 1.04 0 0 0-1.04 1.04h0z"/><path d="M630.89 510.1a1.04 1.04 0 0 0 1.04 1.05h178.52a1.05 1.05 0 0 0 1.04-1.05c0-.57-.47-1.03-1.04-1.03H631.93c-.58 0-1.04.46-1.04 1.04v-.01z" stroke="#263674" class="Q R"/></g><path d="M510.85 150.94c-6.75.65-11.4 9.77-10.38 20.38a26.56 26.56 0 0 0 3.96 11.96l1.3 12.01-.2.05-3.27 56.94c-.76 13.24 4.48 26.25 14.58 34.85 6 5.11 12.41 7.7 16.53 1.24 6.84-10.72-2.02-54.92-7.83-80.05l-2.26-26.85a26.73 26.73 0 0 0 1.63-12.49c-1.02-10.61-7.31-18.68-14.06-18.04h0 0z" class="L P"/><path d="M212.85 416.35l-7.19-3.03-4.94-36.08h-65.76l-5.36 35.93-6.44 3.23c-.51.25-.84.78-.84 1.36 0 .85.68 1.53 1.53 1.53h88.41c.85 0 1.53-.68 1.53-1.53 0-.61-.37-1.17-.94-1.41h0z" fill="#333" class="L"/><path d="M329.72 382.04H6.68c-3.53-.01-6.38-2.88-6.38-6.4v-45.56h335.8v45.56a6.41 6.41 0 0 1-6.38 6.4h0z" class="L M"/><path d="M336.44 351.61H0V156.7c0-4.25 3.46-7.71 7.72-7.71h321c4.26 0 7.72 3.45 7.72 7.71v194.91z" fill="#4a5da8" class="L"/><path d="M316.35 337.47H20.09c-3.28-.01-5.94-2.67-5.94-5.95V169.08a5.94 5.94 0 0 1 5.94-5.94h296.26a5.94 5.94 0 0 1 5.94 5.94v162.44c0 3.28-2.66 5.94-5.94 5.95h0z" fill="#fff" class="L"/><path d="M313.56 419.67H26.69c-.41 0-.75-.34-.75-.76 0-.41.34-.75.75-.75h286.87c.41 0 .75.34.75.75 0 .42-.34.76-.75.76h0z" stroke="#333" fill="#333" class="L Q R"/><path d="M288.51 317.29H47.93c-.42-.01-.76-.34-.76-.76V201.22a.76.76 0 0 1 .76-.76c.41 0 .75.34.75.76v114.56h239.83c.42 0 .76.34.76.75a.75.75 0 0 1-.76.75v.01z" class="L M"/><path d="M99.33 309H77.45c-1.24 0-2.24-1-2.24-2.23V276.6c0-1.23 1-2.23 2.24-2.23h21.88c1.23 0 2.23 1 2.23 2.23v30.17c0 1.23-1 2.23-2.23 2.23h0z" class="L N"/><path d="M139.23 309h-21.88c-1.23 0-2.23-1-2.23-2.23v-58.78c0-1.23 1-2.23 2.23-2.23h21.88c1.24 0 2.24 1 2.24 2.23v58.78c0 1.23-1 2.23-2.24 2.23h0z" class="L O"/><path d="M179.14 309h-21.88c-1.24 0-2.24-1-2.24-2.23V276.6c0-1.23 1-2.23 2.24-2.23h21.88c1.23 0 2.23 1 2.24 2.23v30.17c-.01 1.23-1.01 2.23-2.24 2.23h0z" class="L N"/><path d="M219.05 309h-21.89-.04c-1.19 0-2.16-.94-2.19-2.13V236.6c.03-1.19 1-2.14 2.19-2.14h.04 21.89.04c1.19 0 2.16.95 2.19 2.14v70.27c-.03 1.19-1 2.13-2.19 2.13h-.04 0z" class="L O"/><path d="M258.95 309h-21.88c-1.24 0-2.24-1-2.24-2.23v-90.4c0-1.24 1-2.24 2.24-2.24h21.88a2.25 2.25 0 0 1 2.24 2.24v90.4c-.01 1.23-1.01 2.23-2.24 2.23h0z" class="L N"/><g class="M L"><circle cx="88.39" cy="260.81" r="4.52"/><circle cx="128.29" cy="231.45" r="4.52"/><circle cx="168.2" cy="260.81" r="4.52"/><circle cx="208.1" cy="217.14" r="4.52"/><circle cx="248.01" cy="200.58" r="4.52"/><path d="M168.29 261.83l-40-29.96-39.45 29.55-.9-1.21 40.35-30.23 39.81 29.82 39.56-43.29.16-.06 39.91-16.08.56 1.39-39.75 16.02z"/></g><defs ><path id="B" d="M369.83 144.25H343.3c-1.77 0-3.21-1.44-3.21-3.21s1.44-3.21 3.21-3.21h26.53c1.77 0 3.21 1.44 3.21 3.21s-1.44 3.21-3.21 3.21h0z"/></defs></svg>