<svg width="21" height="20" viewBox="0 0 21 20" fill="none" xmlns="http://www.w3.org/2000/svg">
<path d="M19.9023 12.4164C18.5721 17.7811 13.1333 21.0325 7.78307 19.7024C2.43288 18.3722 -0.833405 12.9336 0.496753 7.58365C1.82691 2.21891 7.251 -1.03245 12.616 0.297649C17.9809 1.64253 21.2324 7.06639 19.9023 12.4164Z" fill="#F6921A"/>
<path d="M14.5328 8.51353C14.7249 7.18343 13.7199 6.47404 12.3307 5.98633L12.774 4.18331L11.6804 3.90251L11.237 5.6612C10.9414 5.58731 10.6458 5.52819 10.365 5.45429L10.8084 3.68082L9.71468 3.40002L9.27129 5.20305C9.03482 5.14394 8.79835 5.0996 8.57666 5.04048L7.06913 4.65623L6.77354 5.82376C6.77354 5.82376 7.58642 6.01589 7.57164 6.01589C8.01503 6.13412 8.10371 6.41492 8.08893 6.65138L7.57164 8.70565C7.6012 8.72043 7.64555 8.72043 7.68989 8.73521C7.66033 8.72043 7.61598 8.72043 7.57164 8.70565L6.84744 11.5875C6.78832 11.7205 6.65532 11.9275 6.34495 11.8536C6.35973 11.8683 5.54685 11.6614 5.54685 11.6614L5 12.9176L6.43363 13.2723C6.69966 13.3462 6.96568 13.4053 7.21693 13.4792L6.75877 15.297L7.85246 15.5778L8.29584 13.7748C8.59143 13.8635 8.88703 13.9374 9.16784 13.9965L8.72445 15.7848L9.81814 16.0655L10.2763 14.2477C12.1533 14.6024 13.5574 14.4546 14.1485 12.7699C14.6215 11.4102 14.119 10.6269 13.1435 10.1096C13.853 9.96186 14.385 9.48893 14.5328 8.51353ZM12.0203 12.0309C11.6803 13.3906 9.38954 12.6516 8.63578 12.4743L9.24174 10.0653C9.99549 10.2427 12.375 10.6121 12.0203 12.0309ZM12.3602 8.49875C12.0498 9.74018 10.1433 9.10468 9.52255 8.95689L10.0694 6.76962C10.6901 6.91741 12.6854 7.1982 12.3602 8.49875Z" fill="white"/>
</svg>
