<svg width="99" height="99" viewBox="0 0 99 99" fill="none" xmlns="http://www.w3.org/2000/svg">
<g opacity="0.96">
<path d="M82.033 58.2172C77.2186 76.1846 58.7504 86.8472 40.783 82.0329C22.8156 77.2185 12.1529 58.7503 16.9673 40.7829L23.4739 42.5263C19.6224 56.9002 28.1525 71.6748 42.5264 75.5263C56.9003 79.3778 71.6749 70.8477 75.5264 56.4737L82.033 58.2172Z" fill="#AEB4BC"/>
<path d="M71 81L67 85L71 89L75 85L71 81Z" fill="#E6E8EA"/>
<path d="M85 81L83 83L85 85L87 83L85 81Z" fill="#E6E8EA"/>
<path d="M25.071 33.082C24.3245 31.7889 22.6711 31.3459 21.3781 32.0924C20.0851 32.839 19.642 34.4924 20.3886 35.7854C21.1351 37.0784 22.7885 37.5214 24.0815 36.7749C25.3745 36.0284 25.8175 34.375 25.071 33.082Z" fill="#AEB4BC"/>
<path d="M75.1805 15.671L72.671 18.1804L75.1805 20.6899L77.6899 18.1804L75.1805 15.671Z" fill="#E6E8EA"/>
<path d="M14.5094 14L11.9999 16.5094L14.5094 19.0189L17.0188 16.5094L14.5094 14Z" fill="#E6E8EA"/>
<path d="M21.2935 10.6477L19.2159 12.7253L21.2935 14.8029L23.3711 12.7253L21.2935 10.6477Z" fill="#E6E8EA"/>
<path d="M80.1875 75L78 77.1875L80.1875 79.375L82.375 77.1875L80.1875 75Z" fill="#CACED3"/>
<path d="M58.2172 16.9672C76.1846 21.7815 86.8472 40.2498 82.0328 58.2172L75.5263 56.4737C79.3778 42.0998 70.8476 27.3252 56.4737 23.4737C49.2859 21.5478 42.0042 22.7151 36.0278 26.1655L39.3783 31.9688L25.5519 28.264L29.2567 14.4375L32.6598 20.3319C40.12 16.0247 49.2344 14.5602 58.2172 16.9672Z" fill="url(#paint0_linear_4583_47439)"/>
<path fill-rule="evenodd" clip-rule="evenodd" d="M35.3223 39.1755H63.2589V60.904H35.3223V39.1755ZM45.4105 44.6077C42.4104 44.6077 39.9784 47.0397 39.9784 50.0398C39.9784 53.0399 42.4104 55.4719 45.4105 55.4719C48.4106 55.4719 50.8426 53.0399 50.8426 50.0398C50.8426 47.0397 48.4106 44.6077 45.4105 44.6077ZM53.9467 44.6077H58.6028V55.4719H53.9467V44.6077ZM45.4108 47.2961L42.6671 50.0398L45.4108 52.7834L48.1544 50.0398L45.4108 47.2961Z" fill="#AEB4BC"/>
</g>
<defs>
<linearGradient id="paint0_linear_4583_47439" x1="86.3914" y1="41.9508" x2="26.2057" y2="25.824" gradientUnits="userSpaceOnUse">
<stop offset="0.333333" stop-color="#F0B90B"/>
<stop offset="1" stop-color="#FBDA3C"/>
</linearGradient>
</defs>
</svg>
