<svg width="21" height="16" viewBox="0 0 21 16" fill="none" xmlns="http://www.w3.org/2000/svg">
<path d="M0 2.5C0 1.39543 0.895431 0.5 2 0.5H19C20.1046 0.5 21 1.39543 21 2.5V13.5C21 14.6046 20.1046 15.5 19 15.5H2C0.89543 15.5 0 14.6046 0 13.5V2.5Z" fill="#CF304A"/>
<path d="M7.28828 8.55V11.5H8.60828V4.52H7.28828V7.38H4.37828V4.52H3.05828V11.5H4.37828V8.55H7.28828ZM12.2358 11.62C13.7358 11.62 14.6658 10.56 14.6658 8.88C14.6658 7.21 13.7358 6.16 12.2358 6.16C10.7458 6.16 9.81578 7.21 9.81578 8.88C9.81578 10.56 10.7458 11.62 12.2358 11.62ZM12.2358 10.59C11.5758 10.59 11.1558 10.16 11.1558 9.37V8.4C11.1558 7.62 11.5758 7.19 12.2358 7.19C12.9058 7.19 13.3258 7.62 13.3258 8.4V9.37C13.3258 10.16 12.9058 10.59 12.2358 10.59ZM17.3915 11.5H18.3115V10.48H17.3215V7.3H18.3915V6.28H17.3215V4.85H16.1715V5.74C16.1715 6.1 16.0515 6.28 15.6715 6.28H15.2715V7.3H16.0415V10.17C16.0415 11.02 16.5115 11.5 17.3915 11.5Z" fill="white"/>
</svg>
