<svg width="28" height="28" viewBox="0 0 28 28" fill="none" xmlns="http://www.w3.org/2000/svg">
<circle cx="14" cy="14" r="14" fill="#474D57"/>
<path d="M13.9999 8.27053C15.9659 8.27053 17.5597 7.34318 17.5597 6.19923C17.5597 5.05528 15.9659 4.12793 13.9999 4.12793C12.0339 4.12793 10.4402 5.05528 10.4402 6.19923C10.4402 7.34318 12.0339 8.27053 13.9999 8.27053Z" fill="white"/>
<path d="M13.9999 23.8716C15.9659 23.8716 17.5597 22.9443 17.5597 21.8003C17.5597 20.6564 15.9659 19.729 13.9999 19.729C12.0339 19.729 10.4402 20.6564 10.4402 21.8003C10.4402 22.9443 12.0339 23.8716 13.9999 23.8716Z" fill="white"/>
<path d="M9.03836 11.1354C10.0214 9.4328 10.0151 7.58888 9.02445 7.01691C8.03376 6.44493 6.43376 7.3615 5.45076 9.06411C4.46775 10.7667 4.47398 12.6106 5.46467 13.1826C6.45535 13.7546 8.05535 12.838 9.03836 11.1354Z" fill="white"/>
<path d="M22.5492 18.9357C23.5322 17.2331 23.526 15.3892 22.5353 14.8172C21.5446 14.2452 19.9446 15.1618 18.9616 16.8644C17.9786 18.567 17.9848 20.4109 18.9755 20.9829C19.9662 21.5549 21.5662 20.6383 22.5492 18.9357Z" fill="white"/>
<path d="M9.02444 20.9831C10.0151 20.4111 10.0214 18.5672 9.03835 16.8646C8.05535 15.162 6.45535 14.2454 5.46467 14.8174C4.47398 15.3894 4.46775 17.2333 5.45076 18.9359C6.43376 20.6385 8.03376 21.5551 9.02444 20.9831Z" fill="white"/>
<path d="M22.5352 13.1823C23.5259 12.6103 23.5322 10.7664 22.5492 9.06381C21.5661 7.36119 19.9662 6.44462 18.9755 7.0166C17.9848 7.58857 17.9786 9.43249 18.9616 11.1351C19.9446 12.8377 21.5446 13.7543 22.5352 13.1823Z" fill="white"/>
</svg>
