<svg width="28" height="28" viewBox="0 0 28 28" fill="none" xmlns="http://www.w3.org/2000/svg">
<path fill-rule="evenodd" clip-rule="evenodd" d="M15.75 16.1361C16.8462 14.746 17.5003 12.9911 17.5003 11.0833C17.5003 9.17561 16.8462 7.4207 15.75 6.03058C16.6081 5.53412 17.6043 5.25 18.667 5.25C21.8886 5.25 24.5003 7.86168 24.5003 11.0833C24.5003 14.305 21.8886 16.9167 18.667 16.9167C17.6043 16.9167 16.6081 16.6325 15.75 16.1361ZM3.5 19.25H24.5V22.75H3.5V19.25ZM15.1667 11.0833C15.1667 14.305 12.555 16.9167 9.33333 16.9167C6.11168 16.9167 3.5 14.305 3.5 11.0833C3.5 7.86168 6.11168 5.25 9.33333 5.25C12.555 5.25 15.1667 7.86168 15.1667 11.0833ZM7 11.0833L9.33333 8.75L11.6667 11.0833L9.33333 13.4167L7 11.0833Z" fill="#474D57"/>
</svg>
