<?xml version="1.0" encoding="UTF-8"?>
<!DOCTYPE svg PUBLIC "-//W3C//DTD SVG 1.1//EN" "http://www.w3.org/Graphics/SVG/1.1/DTD/svg11.dtd">
<!-- Creator: CorelDRAW 2020 (64-Bit Evaluation Version) -->
<svg xmlns="http://www.w3.org/2000/svg" xml:space="preserve" width="30px" height="30px" version="1.1" style="shape-rendering:geometricPrecision; text-rendering:geometricPrecision; image-rendering:optimizeQuality; fill-rule:evenodd; clip-rule:evenodd"
viewBox="0 0 1.46 1.46"
 xmlns:xlink="http://www.w3.org/1999/xlink"
 xmlns:xodm="http://www.corel.com/coreldraw/odm/2003">
 <defs>
  <style type="text/css">
   <![CDATA[
    .fil1 {fill:#263674}
    .fil0 {fill:#EFB30C}
   ]]>
  </style>
 </defs>
 <g id="Layer_x0020_1">
  <metadata id="CorelCorpID_0Corel-Layer"/>
  <g id="_2105099210048">
   <path class="fil0" d="M0.88 1.27c0.01,0.05 -0.01,0.1 -0.05,0.14l0 0c-0.06,0.06 -0.16,0.06 -0.22,0l0 0c-0.04,-0.04 -0.05,-0.09 -0.04,-0.14 0,-0.01 -0.01,-0.02 -0.02,-0.02l-0.35 -0.35c0,-0.01 -0.01,-0.02 -0.02,-0.02 -0.04,0.01 -0.1,-0.01 -0.13,-0.05l0 0c-0.07,-0.06 -0.07,-0.15 0,-0.21l0 0c0.03,-0.04 0.08,-0.06 0.13,-0.05 0.01,0 0.02,-0.01 0.02,-0.02l0.35 -0.35c0.01,0 0.01,-0.01 0.02,-0.02 -0.01,-0.04 0.01,-0.1 0.04,-0.13l0 0c0.06,-0.07 0.16,-0.07 0.22,0l0 0c0.04,0.03 0.06,0.09 0.05,0.13 0,0.01 0.01,0.02 0.02,0.02l0.35 0.35c0,0.01 0.01,0.02 0.02,0.02 0.05,-0.01 0.1,0.01 0.14,0.05l0 0c0.06,0.06 0.06,0.15 0,0.21l0 0c-0.04,0.04 -0.09,0.06 -0.14,0.05 -0.01,0 -0.02,0.01 -0.02,0.02l-0.35 0.35c-0.01,0 -0.02,0.01 -0.02,0.02zm-0.33 -0.72l0.18 -0.17 0.17 0.17c0.1,0.1 0.1,0.26 0,0.35l-0.17 0.18 -0.18 -0.18c-0.09,-0.09 -0.09,-0.25 0,-0.35z"/>
   <g>
    <rect class="fil1" transform="matrix(1.36111 1.36111 -1.36111 1.36111 1.24345 1.05562)" width="0.13" height="0.13" rx="0.07" ry="0.07"/>
    <rect class="fil1" transform="matrix(1.36111 1.36111 -1.36111 1.36111 0.242206 0.0543786)" width="0.13" height="0.13" rx="0.07" ry="0.07"/>
   </g>
   <rect class="fil0" transform="matrix(-1.36111 1.36111 -1.36111 -1.36111 0.412186 1.22558)" width="0.13" height="0.13" rx="0.07" ry="0.07"/>
   <rect class="fil0" transform="matrix(-1.36111 1.36111 -1.36111 -1.36111 1.41343 0.224334)" width="0.13" height="0.13" rx="0.07" ry="0.07"/>
   <path class="fil0" d="M0.73 0.48l0.12 0.13c0.04,0.03 0.05,0.08 0.05,0.12 0,0.05 -0.02,0.09 -0.05,0.12l-0.06 0.06 -0.06 0.06 0 -0.49z"/>
   <path class="fil1" d="M0.61 0.61l0.12 -0.13 0 0 0 0.49 0 0 -0.12 -0.12c-0.07,-0.07 -0.07,-0.18 0,-0.24z"/>
  </g>
 </g>
</svg>
