<?xml version="1.0" encoding="UTF-8"?>
<!DOCTYPE svg PUBLIC "-//W3C//DTD SVG 1.1//EN" "http://www.w3.org/Graphics/SVG/1.1/DTD/svg11.dtd">
<!-- Creator: CorelDRAW 2020 (64-Bit Evaluation Version) -->
<svg xmlns="http://www.w3.org/2000/svg" xml:space="preserve" width="30px" height="25px" version="1.1" style="shape-rendering:geometricPrecision; text-rendering:geometricPrecision; image-rendering:optimizeQuality; fill-rule:evenodd; clip-rule:evenodd"
viewBox="0 0 1.37 1.13"
 xmlns:xlink="http://www.w3.org/1999/xlink"
 xmlns:xodm="http://www.corel.com/coreldraw/odm/2003">
 <defs>
  <style type="text/css">
   <![CDATA[
    .fil0 {fill:#263674}
    .fil1 {fill:#EFB30C}
    .fil3 {fill:#263674;fill-rule:nonzero}
    .fil2 {fill:#EFB30C;fill-rule:nonzero}
   ]]>
  </style>
 </defs>
 <g id="Layer_x0020_1">
  <metadata id="CorelCorpID_0Corel-Layer"/>
  <g id="_2105153724480">
   <path class="fil0" d="M1 0.19c0.2,0 0.37,0.17 0.37,0.37 0,0.21 -0.17,0.37 -0.37,0.37 -0.19,0 -0.34,-0.14 -0.37,-0.31l0.11 0c0.02,0.12 0.13,0.21 0.26,0.21 0.15,0 0.27,-0.12 0.27,-0.27 0,-0.14 -0.12,-0.26 -0.27,-0.26 -0.13,0 -0.24,0.09 -0.26,0.21l-0.11 0c0.02,-0.12 0.1,-0.23 0.21,-0.28 0,-0.01 0,-0.02 0,-0.03 0.01,-0.03 0,-0.05 -0.02,-0.08 -0.02,-0.02 -0.04,-0.03 -0.07,-0.03 -0.02,-0.01 -0.04,0 -0.06,0.01l-0.05 0.05 0.06 0c0.01,0 0.01,0.01 0.02,0.02 0.01,0 0.01,0.01 0.01,0.02 0,0.01 -0.01,0.02 -0.01,0.02 -0.01,0.01 -0.02,0.01 -0.03,0.01l-0.18 -0.01 0.02 -0.18c0,-0.01 0,-0.02 0.01,-0.02 0.01,-0.01 0.01,-0.01 0.02,-0.01 0.01,0 0.02,0 0.03,0.01 0,0.01 0.01,0.02 0.01,0.03l-0.01 0.06 0.05 -0.05c0.04,-0.03 0.07,-0.04 0.12,-0.03 0.04,0 0.08,0.03 0.11,0.06 0.03,0.04 0.04,0.08 0.04,0.12l0 0c0.03,0 0.06,-0.01 0.09,-0.01z"/>
   <path class="fil1" d="M0.37 0.19c0.13,0 0.25,0.07 0.31,0.18 -0.04,0.07 -0.05,0.14 -0.05,0.14 -0.02,-0.12 -0.13,-0.21 -0.26,-0.21 -0.15,0 -0.27,0.12 -0.27,0.26 0,0.15 0.12,0.27 0.27,0.27 0.13,0 0.24,-0.09 0.26,-0.21l0.05 0.14c0,0 0,0 0,0 -0.04,0.06 -0.09,0.11 -0.16,0.14 0,0.01 0,0.02 -0.01,0.03 0,0.03 0.01,0.05 0.03,0.08 0.02,0.02 0.04,0.03 0.06,0.03 0.03,0.01 0.05,0 0.07,-0.01l0.05 -0.05 -0.06 0c-0.01,0 -0.02,-0.01 -0.02,-0.02 -0.01,0 -0.01,-0.01 -0.01,-0.02 0,-0.01 0,-0.02 0.01,-0.02 0.01,-0.01 0.02,-0.01 0.03,-0.01l0.17 0.01 -0.01 0.18c0,0.01 -0.01,0.02 -0.01,0.02 -0.01,0.01 -0.02,0.01 -0.03,0.01 -0.01,0 -0.01,0 -0.02,-0.01 -0.01,-0.01 -0.01,-0.02 -0.01,-0.03l0.01 -0.06 -0.06 0.05c-0.03,0.03 -0.07,0.04 -0.11,0.03 -0.04,0 -0.08,-0.02 -0.11,-0.06 -0.03,-0.04 -0.05,-0.08 -0.04,-0.12l0 -0.01c-0.03,0.01 -0.05,0.01 -0.08,0.01 -0.2,0 -0.37,-0.16 -0.37,-0.37 0,-0.2 0.17,-0.37 0.37,-0.37z"/>
   <path class="fil2" d="M0.73 0.6c0.01,0 0.02,0 0.02,0.01 0,0 -0.01,0.01 -0.02,0.01l-0.18 0c0,0 -0.01,-0.01 -0.01,-0.01 0,-0.01 0,-0.01 0.01,-0.01l0.06 -0.06 0 0.06 0.12 0z"/>
   <path class="fil3" d="M0.64 0.53c-0.01,0 -0.01,-0.01 -0.01,-0.01 0,-0.01 0,-0.01 0.01,-0.01l0.16 0c0.01,0 0.01,0 0.01,0.01 0,0 0,0 0,0.01l-0.05 0.05 0 -0.05 -0.12 0z"/>
   <circle class="fil0" cx="0.37" cy="0.56" r="0.11"/>
   <circle class="fil1" cx="0.99" cy="0.56" r="0.11"/>
   <path class="fil1" d="M0.68 0.77c0,0 0.03,-0.04 0.06,-0.15l-0.11 -0.01 0.05 0.16z"/>
  </g>
 </g>
</svg>
