<?xml version="1.0" encoding="UTF-8"?>
<!DOCTYPE svg PUBLIC "-//W3C//DTD SVG 1.1//EN" "http://www.w3.org/Graphics/SVG/1.1/DTD/svg11.dtd">
<!-- Creator: CorelDRAW 2020 (64-Bit Evaluation Version) -->
<svg xmlns="http://www.w3.org/2000/svg" xml:space="preserve" width="60px" height="60px" version="1.1" style="shape-rendering:geometricPrecision; text-rendering:geometricPrecision; image-rendering:optimizeQuality; fill-rule:evenodd; clip-rule:evenodd"
viewBox="0 0 16.63 16.63"
 xmlns:xlink="http://www.w3.org/1999/xlink"
 xmlns:xodm="http://www.corel.com/coreldraw/odm/2003">
 <defs>
  <style type="text/css">
   <![CDATA[
    .str0 {stroke:#263674;stroke-width:1.05;stroke-linecap:round;stroke-linejoin:round;stroke-miterlimit:2.61313}
    .fil1 {fill:none}
    .fil0 {fill:#FEC00F}
   ]]>
  </style>
 </defs>
 <g id="Layer_x0020_1">
  <metadata id="CorelCorpID_0Corel-Layer"/>
  <path class="fil0" d="M7.92 7.92l-2.07 -2.07 -2.25 -2.25 -2.73 -2.73c-0.21,0.22 -0.34,0.51 -0.34,0.83l0 7.2c0,0.65 0.53,1.18 1.17,1.18l3.44 0 2.78 0.07 0 -2.23z"/>
  <path class="fil0" d="M7.92 7.92l0 1.76c0.2,0.02 0.35,0.19 0.35,0.4 0,0.2 -0.15,0.37 -0.35,0.4l0 1.53 0 0.03c0.01,2.25 1.84,4.07 4.09,4.07 1.13,0 2.16,-0.46 2.9,-1.2l-6.99 -6.99z"/>
  <path class="fil1 str0" d="M5.81 10.08l-4.11 0c-0.64,0 -1.17,-0.53 -1.17,-1.18l0 -7.2c0,-0.64 0.53,-1.17 1.17,-1.17l7.2 0c0.65,0 1.18,0.53 1.18,1.17"/>
  <path class="fil1 str0" d="M7.92 7.18l0 -3.53c0,-0.56 0.46,-1.02 1.02,-1.02l0 0c0.57,0 1.03,0.46 1.03,1.02l0 3.53"/>
  <path class="fil1 str0" d="M9.97 8.64l0 -3.52c0,-0.56 0.46,-1.03 1.02,-1.03l0 0c0.56,0 1.02,0.47 1.02,1.03l0 3.52"/>
  <path class="fil1 str0" d="M12.01 8.64l0 -3.52c0,-0.56 0.46,-1.03 1.03,-1.03l0 0c0.56,0 1.02,0.47 1.02,1.03l0 3.52"/>
  <path class="fil1 str0" d="M14.06 10.41l0 -3.53c0,-0.56 0.46,-1.02 1.02,-1.02l0 0c0.57,0 1.03,0.46 1.03,1.02l0 3.53"/>
  <path class="fil1 str0" d="M16.11 12.01c0,2.26 -1.84,4.1 -4.1,4.1 -2.26,0 -4.09,-1.84 -4.09,-4.1"/>
  <line class="fil1 str0" x1="7.92" y1="7.18" x2="7.92" y2= "12.11" />
  <line class="fil1 str0" x1="16.11" y1="9.66" x2="16.11" y2= "12.07" />
  <path class="fil1 str0" d="M6.78 14.53c-1.54,-0.39 -2.88,-1.32 -3.77,-2.64"/>
  <polyline class="fil1 str0" points="1.99,13.79 2.79,11.57 5.47,11.65 "/>
  <line class="fil1 str0" x1="2.3" y1="3.6" x2="4.63" y2= "3.6" />
  <line class="fil1 str0" x1="3.88" y1="5.85" x2="6.21" y2= "5.85" />
  <line class="fil1 str0" x1="2.56" y1="7.9" x2="4.89" y2= "7.9" />
 </g>
</svg>
