<?xml version="1.0" encoding="UTF-8"?>
<!DOCTYPE svg PUBLIC "-//W3C//DTD SVG 1.1//EN" "http://www.w3.org/Graphics/SVG/1.1/DTD/svg11.dtd">
<!-- Creator: CorelDRAW 2020 (64-Bit Evaluation Version) -->
<svg xmlns="http://www.w3.org/2000/svg" xml:space="preserve" width="30px" height="28px" version="1.1" style="shape-rendering:geometricPrecision; text-rendering:geometricPrecision; image-rendering:optimizeQuality; fill-rule:evenodd; clip-rule:evenodd"
viewBox="0 0 1.22 1.15"
 xmlns:xlink="http://www.w3.org/1999/xlink"
 xmlns:xodm="http://www.corel.com/coreldraw/odm/2003">
 <defs>
  <style type="text/css">
   <![CDATA[
    .fil3 {fill:#263674}
    .fil2 {fill:#263674;fill-rule:nonzero}
    .fil0 {fill:#FEC00F;fill-rule:nonzero}
    .fil1 {fill:white;fill-rule:nonzero}
   ]]>
  </style>
 </defs>
 <g id="Layer_x0020_1">
  <metadata id="CorelCorpID_0Corel-Layer"/>
  <g id="_2104953155280">
   <path class="fil0" d="M1.07 0l0 0c-0.09,0 -0.2,0.04 -0.26,0.1l-0.39 0.39c-0.01,0.01 -0.02,0.03 -0.02,0.05 0,0.01 0.01,0.03 0.02,0.04l0.22 0.22c0.01,0.01 0.03,0.02 0.05,0.02 0.01,0 0.03,-0.01 0.04,-0.02l0.39 -0.39c0.08,-0.08 0.13,-0.24 0.09,-0.35 -0.01,-0.01 -0.01,-0.02 -0.01,-0.02 -0.01,-0.01 -0.02,-0.02 -0.04,-0.03 -0.02,0 -0.05,-0.01 -0.09,-0.01l0 0z"/>
   <path class="fil0" d="M0.73 0.8c-0.01,0.01 -0.03,0.02 -0.04,0.02 -0.01,0 -0.02,0 -0.03,-0.01l-0.01 0.17c0,0.02 0.01,0.04 0.03,0.05 0.01,0.01 0.02,0.01 0.04,0.01 0.01,0 0.02,0 0.03,-0.01l0.21 -0.13c0.02,-0.01 0.03,-0.03 0.03,-0.05l0.02 -0.32c0,0 0,-0.01 0,-0.01l-0.28 0.28z"/>
   <path class="fil0" d="M0.4 0.54c0,-0.02 0.01,-0.04 0.02,-0.05l0.28 -0.28c0,0 0,0 -0.01,0 0,0 0,0 0,0l-0.32 0.02c-0.02,0 -0.04,0.02 -0.05,0.03l-0.13 0.22c-0.01,0.01 -0.01,0.04 0,0.06 0.01,0.02 0.03,0.03 0.05,0.03 0,0 0,0 0.01,0l0.16 -0.01c0,0 -0.01,-0.01 -0.01,-0.02z"/>
   <path class="fil1" d="M0.94 0.19c-0.03,0.02 -0.02,0.07 0,0.09 0.03,0.03 0.07,0.03 0.09,0 0.03,-0.02 0.03,-0.07 0,-0.09 -0.02,-0.03 -0.06,-0.03 -0.09,0z"/>
   <path class="fil2" d="M0.7 0.11c0.01,-0.01 0.03,-0.01 0.04,0 0.01,0.01 0.01,0.02 0,0.03l-0.39 0.39 -0.01 0.02 0 0.01 0 0.01 0.01 0.02 0.22 0.22 0.01 0 0.01 0.01c0.01,0 0.02,-0.01 0.03,-0.01l0.39 -0.39c0.04,-0.04 0.07,-0.1 0.08,-0.16 0.02,-0.06 0.02,-0.12 0,-0.17 -0.02,-0.05 -0.12,-0.04 -0.17,-0.03 -0.01,0 -0.03,-0.01 -0.03,-0.03 0,-0.01 0.01,-0.02 0.03,-0.03 0.07,0 0.18,-0.01 0.22,0.07 0.02,0.06 0.02,0.13 0,0.2 -0.01,0.07 -0.05,0.14 -0.09,0.18l-0.4 0.39c-0.01,0.02 -0.03,0.03 -0.06,0.03l-0.03 -0.01c-0.01,0 -0.02,-0.01 -0.03,-0.02l-0.22 -0.22c-0.01,-0.01 -0.01,-0.02 -0.02,-0.03 0,-0.01 -0.01,-0.02 -0.01,-0.03l0.01 -0.03c0.01,-0.01 0.01,-0.02 0.02,-0.03l0.39 -0.39zm0.13 -0.09c0.02,0 0.03,0 0.04,0.02 0,0.01 -0.01,0.03 -0.02,0.03l-0.05 0.03c-0.01,0 -0.03,0 -0.03,-0.02 -0.01,-0.01 0,-0.03 0.01,-0.03l0.05 -0.03z"/>
   <path class="fil2" d="M0.67 0.83c-0.01,0.01 -0.02,0.01 -0.03,0.02 -0.01,0 -0.02,0.01 -0.03,0.01l-0.01 0.13 0.01 0.02 0.01 0.01c0.05,0.02 0.2,-0.1 0.25,-0.13l0.01 -0.01 0.01 -0.02 0.02 -0.27 -0.24 0.24zm-0.05 0l0.01 -0.01 0.29 -0.31 0.01 -0.01c0.02,0 0.03,0.01 0.03,0.03 0.01,0.08 -0.01,0.24 -0.02,0.33 0,0.02 -0.01,0.03 -0.01,0.04 -0.01,0.02 -0.02,0.03 -0.03,0.03l-0.22 0.14 -0.02 0.01 -0.02 0c-0.03,0 -0.02,0 -0.05,-0.01 -0.01,-0.01 -0.02,-0.02 -0.03,-0.04 -0.01,-0.01 -0.01,-0.03 -0.01,-0.04l0.01 -0.15c0,-0.01 0.02,-0.02 0.03,-0.02 0.02,0.01 0.02,0.01 0.03,0.01z"/>
   <path class="fil2" d="M0.33 0.77c0.01,-0.02 0.04,-0.02 0.06,0 0.02,0.01 0.02,0.04 0,0.06l-0.26 0.26c-0.02,0.02 -0.05,0.02 -0.07,0 -0.01,-0.01 -0.01,-0.04 0,-0.06l0.27 -0.26zm0.11 0.11c0.02,-0.01 0.05,-0.01 0.07,0 0.01,0.02 0.01,0.05 0,0.06l-0.2 0.2c-0.02,0.02 -0.05,0.02 -0.06,0 -0.02,-0.01 -0.02,-0.04 0,-0.06l0.19 -0.2zm-0.23 -0.23c0.02,-0.02 0.04,-0.02 0.06,0 0.02,0.02 0.02,0.04 0,0.06l-0.2 0.2c-0.01,0.01 -0.04,0.01 -0.06,0 -0.01,-0.02 -0.01,-0.05 0,-0.06l0.2 -0.2z"/>
   <circle class="fil3" cx="0.88" cy="0.25" r="0.08"/>
   <path class="fil2" d="M0.3 0.54c0,-0.01 0,-0.02 0.01,-0.04 0,-0.01 0.01,-0.02 0.02,-0.02l0.23 -0.24 -0.26 0.02 -0.02 0.01 -0.01 0.01 -0.13 0.21 -0.01 0.02 0 0.02 0.02 0.01 0.02 0.01 0.13 -0.01 0 0zm0.05 -0.02c0,0.03 0,0.03 0.01,0.05 0,0.01 -0.01,0.02 -0.03,0.02l-0.16 0.01c-0.02,0 -0.04,-0.01 -0.05,-0.01 -0.01,-0.01 -0.02,-0.02 -0.03,-0.04 -0.01,-0.01 -0.01,-0.03 -0.01,-0.04 0,-0.02 0,-0.03 0.01,-0.05l0.13 -0.21c0.01,-0.01 0.02,-0.02 0.03,-0.03 0.01,0 0.03,-0.01 0.04,-0.01 0.09,-0.01 0.25,-0.03 0.34,-0.02 0,0 0.01,0 0.01,0.01 0.01,0.01 0.01,0.02 0,0.03l-0.28 0.28 -0.01 0.01z"/>
  </g>
 </g>
</svg>
