<?xml version="1.0" encoding="UTF-8"?>
<!DOCTYPE svg PUBLIC "-//W3C//DTD SVG 1.1//EN" "http://www.w3.org/Graphics/SVG/1.1/DTD/svg11.dtd">
<!-- Creator: CorelDRAW 2020 (64-Bit Evaluation Version) -->
<svg xmlns="http://www.w3.org/2000/svg" xml:space="preserve" width="30px" height="30px" version="1.1" style="shape-rendering:geometricPrecision; text-rendering:geometricPrecision; image-rendering:optimizeQuality; fill-rule:evenodd; clip-rule:evenodd"
viewBox="0 0 1.11 1.11"
 xmlns:xlink="http://www.w3.org/1999/xlink"
 xmlns:xodm="http://www.corel.com/coreldraw/odm/2003">
 <defs>
  <style type="text/css">
   <![CDATA[
    .fil3 {fill:none}
    .fil7 {fill:none;fill-rule:nonzero}
    .fil0 {fill:#263674}
    .fil1 {fill:#35428F}
    .fil5 {fill:#EFB30C}
    .fil6 {fill:#F2C23A}
    .fil4 {fill:white}
    .fil2 {fill:#263674;fill-rule:nonzero}
   ]]>
  </style>
    <clipPath id="id0">
     <path d="M0.48 0c0.27,0 0.48,0.22 0.48,0.48 0,0.27 -0.21,0.48 -0.48,0.48 -0.26,0 -0.48,-0.21 -0.48,-0.48 0,-0.26 0.22,-0.48 0.48,-0.48z"/>
    </clipPath>
    <clipPath id="id1">
     <path d="M0.48 0.19c0.16,0 0.29,0.13 0.29,0.29 0,0.16 -0.13,0.29 -0.29,0.29 -0.16,0 -0.29,-0.13 -0.29,-0.29 0,-0.16 0.13,-0.29 0.29,-0.29z"/>
    </clipPath>
    <clipPath id="id2" style="clip-rule:nonzero">
     <path d="M0.57 0.37c0.02,0 0.03,0.01 0.04,0.02 0.01,0.01 0.02,0.02 0.02,0.04l0 0.16 -0.29 0 0 -0.11c0,-0.01 0,-0.03 0.01,-0.04 0.01,-0.01 0.03,-0.01 0.04,-0.01 0.01,0 0.03,0 0.04,0.01l0 -0.09c0,-0.01 0,-0.02 0.01,-0.03 0.01,-0.01 0.03,-0.02 0.04,-0.02 0.02,0 0.03,0.01 0.04,0.02 0.01,0.01 0.01,0.02 0.01,0.03l0 0.04c0.01,-0.01 0.03,-0.02 0.04,-0.02zm-0.08 -0.03c0,0 0,0 -0.01,0 0,0 -0.01,0 -0.01,0 -0.01,0.01 -0.01,0.01 -0.01,0.01l0 0.2 0.04 0 0 -0.2c0,0 0,0 -0.01,-0.01zm-0.08 0.21l0 -0.07c0,0 0,-0.01 -0.01,-0.01 0,-0.01 0,-0.01 -0.01,-0.01 0,0 -0.01,0 -0.01,0.01 -0.01,0 -0.01,0.01 -0.01,0.01l0 0.07 0.04 0zm0.18 0l0 -0.12c0,-0.01 0,-0.01 -0.01,-0.02 0,0 0,0 -0.01,0 0,0 -0.01,0 -0.01,0 -0.01,0.01 -0.01,0.01 -0.01,0.02l0 0.12 0.04 0zm0.02 0.11l-0.26 0c0,0 -0.01,0 -0.01,0 0,-0.01 0,-0.01 0,-0.02 0,0 0,-0.01 0,-0.01 0,0 0.01,0 0.01,0l0.26 0c0,0 0.01,0 0.01,0 0,0 0.01,0.01 0.01,0.01 0,0.01 -0.01,0.01 -0.01,0.02 0,0 -0.01,0 -0.01,0z"/>
    </clipPath>
 </defs>
 <g id="Layer_x0020_1">
  <metadata id="CorelCorpID_0Corel-Layer"/>
  <g id="_2104938727344">
   <path class="fil0" d="M0.48 0c0.27,0 0.48,0.22 0.48,0.48 0,0.27 -0.21,0.48 -0.48,0.48 -0.26,0 -0.48,-0.21 -0.48,-0.48 0,-0.26 0.22,-0.48 0.48,-0.48z"/>
   <g style="clip-path:url(#id0)">
    <g>
     <path id="1" class="fil1" d="M0.08 0.88l0.8 -0.79c-0.1,-0.1 -0.23,-0.16 -0.38,-0.16 -0.32,0 -0.57,0.26 -0.57,0.57 0,0.15 0.06,0.28 0.15,0.38z"/>
     <g>
      <path class="fil2" d="M0.77 0.85l0.1 0.08 0.02 -0.02 -0.1 -0.09 -0.02 0.03zm0.11 0.16l-0.18 -0.16 0.09 -0.1 0.18 0.15 -0.09 0.11z"/>
      <path class="fil2" d="M0.89 1.03l0.21 0.18c0.01,0.01 0.03,0.02 0.06,0.02 0.02,0 0.04,-0.01 0.05,-0.03 0.01,-0.01 0.02,-0.03 0.02,-0.06 0,-0.02 -0.01,-0.04 -0.03,-0.05l-0.21 -0.18 -0.1 0.12zm0.26 0.25c-0.03,0 -0.06,-0.01 -0.09,-0.03l-0.25 -0.22 0.18 -0.2 0.25 0.22c0.02,0.02 0.04,0.05 0.04,0.09 0,0.04 -0.01,0.07 -0.03,0.1 -0.02,0.02 -0.05,0.04 -0.09,0.04 0,0 -0.01,0 -0.01,0z"/>
     </g>
    </g>
   </g>
   <path class="fil3" d="M0.48 0c0.27,0 0.48,0.22 0.48,0.48 0,0.27 -0.21,0.48 -0.48,0.48 -0.26,0 -0.48,-0.21 -0.48,-0.48 0,-0.26 0.22,-0.48 0.48,-0.48z"/>
   <circle class="fil4" cx="0.48" cy="0.48" r="0.37"/>
   <path class="fil5" d="M0.48 0.19c0.16,0 0.29,0.13 0.29,0.29 0,0.16 -0.13,0.29 -0.29,0.29 -0.16,0 -0.29,-0.13 -0.29,-0.29 0,-0.16 0.13,-0.29 0.29,-0.29z"/>
   <g style="clip-path:url(#id1)">
    <g>
     <path id="1" class="fil6" d="M0.03 0.94l0.91 -0.91c-0.12,-0.11 -0.27,-0.18 -0.44,-0.18 -0.36,0 -0.65,0.29 -0.65,0.65 0,0.17 0.07,0.33 0.18,0.44z"/>
    </g>
   </g>
   <path class="fil3" d="M0.48 0.19c0.16,0 0.29,0.13 0.29,0.29 0,0.16 -0.13,0.29 -0.29,0.29 -0.16,0 -0.29,-0.13 -0.29,-0.29 0,-0.16 0.13,-0.29 0.29,-0.29z"/>
   <path class="fil2" d="M0.57 0.37c0.02,0 0.03,0.01 0.04,0.02 0.01,0.01 0.02,0.02 0.02,0.04l0 0.16 -0.29 0 0 -0.11c0,-0.01 0,-0.03 0.01,-0.04 0.01,-0.01 0.03,-0.01 0.04,-0.01 0.01,0 0.03,0 0.04,0.01l0 -0.09c0,-0.01 0,-0.02 0.01,-0.03 0.01,-0.01 0.03,-0.02 0.04,-0.02 0.02,0 0.03,0.01 0.04,0.02 0.01,0.01 0.01,0.02 0.01,0.03l0 0.04c0.01,-0.01 0.03,-0.02 0.04,-0.02zm-0.08 -0.03c0,0 0,0 -0.01,0 0,0 -0.01,0 -0.01,0 -0.01,0.01 -0.01,0.01 -0.01,0.01l0 0.2 0.04 0 0 -0.2c0,0 0,0 -0.01,-0.01zm-0.08 0.21l0 -0.07c0,0 0,-0.01 -0.01,-0.01 0,-0.01 0,-0.01 -0.01,-0.01 0,0 -0.01,0 -0.01,0.01 -0.01,0 -0.01,0.01 -0.01,0.01l0 0.07 0.04 0zm0.18 0l0 -0.12c0,-0.01 0,-0.01 -0.01,-0.02 0,0 0,0 -0.01,0 0,0 -0.01,0 -0.01,0 -0.01,0.01 -0.01,0.01 -0.01,0.02l0 0.12 0.04 0zm0.02 0.11l-0.26 0c0,0 -0.01,0 -0.01,0 0,-0.01 0,-0.01 0,-0.02 0,0 0,-0.01 0,-0.01 0,0 0.01,0 0.01,0l0.26 0c0,0 0.01,0 0.01,0 0,0 0.01,0.01 0.01,0.01 0,0.01 -0.01,0.01 -0.01,0.02 0,0 -0.01,0 -0.01,0z"/>
   <g style="clip-path:url(#id2)">
    <g>
     <path id="1" class="fil1" d="M0.03 0.94l0.91 -0.91c-0.12,-0.11 -0.27,-0.18 -0.44,-0.18 -0.36,0 -0.65,0.29 -0.65,0.65 0,0.17 0.07,0.33 0.18,0.44z"/>
    </g>
   </g>
   <path class="fil7" d="M0.57 0.37c0.02,0 0.03,0.01 0.04,0.02 0.01,0.01 0.02,0.02 0.02,0.04l0 0.16 -0.29 0 0 -0.11c0,-0.01 0,-0.03 0.01,-0.04 0.01,-0.01 0.03,-0.01 0.04,-0.01 0.01,0 0.03,0 0.04,0.01l0 -0.09c0,-0.01 0,-0.02 0.01,-0.03 0.01,-0.01 0.03,-0.02 0.04,-0.02 0.02,0 0.03,0.01 0.04,0.02 0.01,0.01 0.01,0.02 0.01,0.03l0 0.04c0.01,-0.01 0.03,-0.02 0.04,-0.02zm-0.08 -0.03c0,0 0,0 -0.01,0 0,0 -0.01,0 -0.01,0 -0.01,0.01 -0.01,0.01 -0.01,0.01l0 0.2 0.04 0 0 -0.2c0,0 0,0 -0.01,-0.01zm-0.08 0.21l0 -0.07c0,0 0,-0.01 -0.01,-0.01 0,-0.01 0,-0.01 -0.01,-0.01 0,0 -0.01,0 -0.01,0.01 -0.01,0 -0.01,0.01 -0.01,0.01l0 0.07 0.04 0zm0.18 0l0 -0.12c0,-0.01 0,-0.01 -0.01,-0.02 0,0 0,0 -0.01,0 0,0 -0.01,0 -0.01,0 -0.01,0.01 -0.01,0.01 -0.01,0.02l0 0.12 0.04 0zm0.02 0.11l-0.26 0c0,0 -0.01,0 -0.01,0 0,-0.01 0,-0.01 0,-0.02 0,0 0,-0.01 0,-0.01 0,0 0.01,0 0.01,0l0.26 0c0,0 0.01,0 0.01,0 0,0 0.01,0.01 0.01,0.01 0,0.01 -0.01,0.01 -0.01,0.02 0,0 -0.01,0 -0.01,0z"/>
   <path class="fil2" d="M0.87 0.98c-0.03,-0.03 -0.03,-0.08 0,-0.11 0.03,-0.03 0.08,-0.03 0.11,0l0.11 0.11c0.03,0.03 0.03,0.08 0,0.11 -0.03,0.03 -0.08,0.03 -0.11,0l-0.11 -0.11z"/>
  </g>
 </g>
</svg>
