<?xml version="1.0" encoding="UTF-8"?>
<!DOCTYPE svg PUBLIC "-//W3C//DTD SVG 1.1//EN" "http://www.w3.org/Graphics/SVG/1.1/DTD/svg11.dtd">
<!-- Creator: CorelDRAW 2020 (64-Bit Evaluation Version) -->
<svg xmlns="http://www.w3.org/2000/svg" xml:space="preserve" width="60px" height="60px" version="1.1" style="shape-rendering:geometricPrecision; text-rendering:geometricPrecision; image-rendering:optimizeQuality; fill-rule:evenodd; clip-rule:evenodd"
viewBox="0 0 6.02 6.02"
 xmlns:xlink="http://www.w3.org/1999/xlink"
 xmlns:xodm="http://www.corel.com/coreldraw/odm/2003">
 <defs>
  <style type="text/css">
   <![CDATA[
    .str0 {stroke:#263674;stroke-width:0.5;stroke-linecap:round;stroke-linejoin:round;stroke-miterlimit:2.61313}
    .fil1 {fill:none}
    .fil0 {fill:#FEC00F}
    .fil2 {fill:#263674;fill-rule:nonzero}
   ]]>
  </style>
 </defs>
 <g id="Layer_x0020_1">
  <metadata id="CorelCorpID_0Corel-Layer"/>
  <g id="_2331840451440">
   <path class="fil0" d="M3.85 3.88l-1.69 -1.69c-0.21,0.21 -0.34,0.51 -0.34,0.83 0,0.66 0.53,1.2 1.19,1.2 0.32,0 0.62,-0.13 0.84,-0.34z"/>
   <circle class="fil1 str0" cx="3.01" cy="3.01" r="1.31"/>
   <path class="fil2" d="M2.72 0.29c0,-0.16 0.13,-0.29 0.29,-0.29 0.16,0 0.29,0.13 0.29,0.29l0 0.4c0,0.16 -0.13,0.29 -0.29,0.29 -0.16,0 -0.29,-0.13 -0.29,-0.29l0 -0.4z"/>
   <path class="fil2" d="M1.63 0.67c-0.06,-0.14 0,-0.31 0.15,-0.38 0.14,-0.06 0.32,0 0.38,0.15l0.16 0.36c0.07,0.15 0,0.32 -0.14,0.38 -0.15,0.07 -0.32,0 -0.38,-0.14l-0.17 -0.37z"/>
   <path class="fil2" d="M0.78 1.44c-0.11,-0.11 -0.12,-0.29 -0.02,-0.41 0.11,-0.12 0.29,-0.13 0.41,-0.02l0.3 0.27c0.11,0.1 0.12,0.29 0.02,0.4 -0.11,0.12 -0.29,0.13 -0.41,0.02l-0.3 -0.26z"/>
   <path class="fil2" d="M0.32 2.48c-0.15,-0.05 -0.24,-0.21 -0.19,-0.36 0.05,-0.15 0.21,-0.23 0.37,-0.18l0.38 0.12c0.15,0.05 0.23,0.21 0.18,0.36 -0.05,0.15 -0.21,0.24 -0.36,0.19l-0.38 -0.13z"/>
   <path class="fil2" d="M0.32 3.63c-0.16,0.01 -0.3,-0.1 -0.32,-0.26 -0.02,-0.16 0.1,-0.3 0.26,-0.32l0.4 -0.04c0.15,-0.01 0.3,0.1 0.31,0.26 0.02,0.16 -0.1,0.3 -0.25,0.32l-0.4 0.04z"/>
   <path class="fil2" d="M0.78 4.67c-0.13,0.08 -0.31,0.04 -0.39,-0.1 -0.08,-0.14 -0.03,-0.32 0.11,-0.4l0.34 -0.2c0.14,-0.08 0.32,-0.03 0.4,0.11 0.07,0.14 0.03,0.31 -0.11,0.39l-0.35 0.2z"/>
   <path class="fil2" d="M1.63 5.44c-0.09,0.13 -0.27,0.16 -0.4,0.06 -0.13,-0.09 -0.16,-0.27 -0.06,-0.4l0.23 -0.32c0.1,-0.13 0.28,-0.16 0.41,-0.07 0.12,0.1 0.15,0.28 0.06,0.41l-0.24 0.32z"/>
   <path class="fil2" d="M2.72 5.79c-0.03,0.16 -0.18,0.26 -0.34,0.22 -0.15,-0.03 -0.25,-0.18 -0.22,-0.34l0.08 -0.39c0.04,-0.15 0.19,-0.25 0.34,-0.22 0.16,0.03 0.26,0.19 0.23,0.34l-0.09 0.39z"/>
   <path class="fil2" d="M3.86 5.67c0.03,0.16 -0.07,0.31 -0.22,0.34 -0.16,0.04 -0.31,-0.06 -0.34,-0.22l-0.09 -0.39c-0.03,-0.15 0.07,-0.31 0.23,-0.34 0.15,-0.03 0.3,0.07 0.34,0.22l0.08 0.39z"/>
   <path class="fil2" d="M4.85 5.1c0.1,0.13 0.07,0.31 -0.06,0.4 -0.13,0.1 -0.31,0.07 -0.4,-0.06l-0.24 -0.32c-0.09,-0.13 -0.06,-0.31 0.06,-0.41 0.13,-0.09 0.31,-0.06 0.41,0.07l0.23 0.32z"/>
   <path class="fil2" d="M5.52 4.17c0.14,0.08 0.19,0.26 0.11,0.4 -0.08,0.14 -0.26,0.18 -0.39,0.1l-0.35 -0.2c-0.14,-0.08 -0.18,-0.25 -0.11,-0.39 0.08,-0.14 0.26,-0.19 0.4,-0.11l0.34 0.2z"/>
   <path class="fil2" d="M5.76 3.05c0.16,0.02 0.28,0.16 0.26,0.32 -0.02,0.16 -0.16,0.27 -0.32,0.26l-0.4 -0.04c-0.15,-0.02 -0.27,-0.16 -0.25,-0.32 0.01,-0.16 0.16,-0.27 0.31,-0.26l0.4 0.04z"/>
   <path class="fil2" d="M5.52 1.94c0.16,-0.05 0.32,0.03 0.37,0.18 0.05,0.15 -0.04,0.31 -0.19,0.36l-0.38 0.13c-0.15,0.05 -0.31,-0.04 -0.36,-0.19 -0.05,-0.15 0.03,-0.31 0.18,-0.36l0.38 -0.12z"/>
   <path class="fil2" d="M4.85 1.01c0.12,-0.11 0.3,-0.1 0.41,0.02 0.1,0.12 0.1,0.3 -0.02,0.41l-0.3 0.26c-0.12,0.11 -0.3,0.1 -0.41,-0.02 -0.1,-0.11 -0.09,-0.3 0.02,-0.4l0.3 -0.27z"/>
   <path class="fil2" d="M3.86 0.44c0.07,-0.15 0.24,-0.21 0.38,-0.15 0.15,0.07 0.21,0.24 0.15,0.38l-0.17 0.37c-0.06,0.14 -0.23,0.21 -0.38,0.14 -0.14,-0.06 -0.21,-0.23 -0.14,-0.38l0.16 -0.36z"/>
  </g>
 </g>
</svg>
