<?xml version="1.0" encoding="UTF-8"?>
<!DOCTYPE svg PUBLIC "-//W3C//DTD SVG 1.1//EN" "http://www.w3.org/Graphics/SVG/1.1/DTD/svg11.dtd">
<!-- Creator: CorelDRAW 2020 (64-Bit Evaluation Version) -->
<svg xmlns="http://www.w3.org/2000/svg" xml:space="preserve" width="50px" height="50px" version="1.1" style="shape-rendering:geometricPrecision; text-rendering:geometricPrecision; image-rendering:optimizeQuality; fill-rule:evenodd; clip-rule:evenodd"
viewBox="0 0 70.29 70.29"
 xmlns:xlink="http://www.w3.org/1999/xlink"
 xmlns:xodm="http://www.corel.com/coreldraw/odm/2003">
 <defs>
  <style type="text/css">
   <![CDATA[
    .fil0 {fill:#263674;fill-rule:nonzero}
    .fil1 {fill:#EFB30C;fill-rule:nonzero}
   ]]>
  </style>
 </defs>
 <g id="Layer_x0020_1">
  <metadata id="CorelCorpID_0Corel-Layer"/>
  <g id="_2646137624416">
   <path class="fil0" d="M70.29 26.19c0,-0.01 0,-0.02 0,-0.02l0 0c-0.01,-7.22 -2.93,-13.75 -7.66,-18.48 -4.75,-4.75 -11.3,-7.69 -18.54,-7.69l0 26.23 0.05 0 18.49 18.48c4.72,-4.73 7.65,-11.27 7.66,-18.48l0 0c0,-0.01 0,-0.02 0,-0.02 0,-0.01 0,-0.01 0,-0.01 0,0 0,-0.01 0,-0.01z"/>
   <path class="fil1" d="M44.14 52.39c7.22,-0.01 13.75,-2.94 18.49,-7.68l-18.49 -18.49 0 -0.05 0 -26.17c-7.24,0 -13.8,2.94 -18.54,7.69 -4.73,4.73 -7.66,11.26 -7.67,18.48l0 0c0,0.01 0,0.01 0,0.02 0,0 0,0 0,0.01 0,0 0,0 0,0.01 0,0 0,0.01 0,0.02l0 0c0.01,7.21 2.94,13.75 7.67,18.48 4.73,4.73 11.27,7.67 18.49,7.68l0 0c0,0 0.01,0 0.02,0 0.01,0 0.02,0 0.03,0l0 0 0 0z"/>
   <rect class="fil0" x="5.49" width="3.69" height="70.29"/>
   <rect class="fil1" y="60.78" width="70.29" height="4.04"/>
  </g>
 </g>
</svg>
