<?xml version="1.0" encoding="UTF-8"?>
<!DOCTYPE svg PUBLIC "-//W3C//DTD SVG 1.1//EN" "http://www.w3.org/Graphics/SVG/1.1/DTD/svg11.dtd">
<!-- Creator: CorelDRAW 2020 (64-Bit Evaluation Version) -->
<svg xmlns="http://www.w3.org/2000/svg" xml:space="preserve" width="60px" height="60px" version="1.1" style="shape-rendering:geometricPrecision; text-rendering:geometricPrecision; image-rendering:optimizeQuality; fill-rule:evenodd; clip-rule:evenodd"
viewBox="0 0 7.89 7.89"
 xmlns:xlink="http://www.w3.org/1999/xlink"
 xmlns:xodm="http://www.corel.com/coreldraw/odm/2003">
 <defs>
  <style type="text/css">
   <![CDATA[
    .fil2 {fill:white}
    .fil0 {fill:#FEC00F;fill-rule:nonzero}
    .fil1 {fill:white;fill-rule:nonzero}
   ]]>
  </style>
 </defs>
 <g id="Layer_x0020_1">
  <metadata id="CorelCorpID_0Corel-Layer"/>
  <g id="_2430356016032">
   <path class="fil0" d="M0.07 7.14l3.44 -6.87c0.12,-0.24 0.41,-0.34 0.65,-0.22 0.1,0.05 0.17,0.13 0.22,0.22l3.46 6.91c0.11,0.24 0.02,0.53 -0.22,0.65 -0.07,0.04 -0.14,0.05 -0.22,0.05l0 0.01 -6.91 0c-0.27,0 -0.49,-0.22 -0.49,-0.49 0,-0.09 0.03,-0.18 0.07,-0.26z"/>
   <g>
    <path class="fil1" d="M3.48 3.05c0,-0.26 0.21,-0.47 0.46,-0.47 0.26,0 0.47,0.21 0.47,0.47l0 1.85c0,0.26 -0.21,0.47 -0.47,0.47 -0.25,0 -0.46,-0.21 -0.46,-0.47l0 -1.85z"/>
    <circle class="fil2" cx="3.94" cy="6.48" r="0.63"/>
   </g>
  </g>
 </g>
</svg>
