<?xml version="1.0" encoding="UTF-8"?>
<!DOCTYPE svg PUBLIC "-//W3C//DTD SVG 1.1//EN" "http://www.w3.org/Graphics/SVG/1.1/DTD/svg11.dtd">
<!-- Creator: CorelDRAW 2020 (64-Bit Evaluation Version) -->
<svg xmlns="http://www.w3.org/2000/svg" xml:space="preserve" width="60px" height="60px" version="1.1" style="shape-rendering:geometricPrecision; text-rendering:geometricPrecision; image-rendering:optimizeQuality; fill-rule:evenodd; clip-rule:evenodd"
viewBox="0 0 6.35 6.35"
 xmlns:xlink="http://www.w3.org/1999/xlink"
 xmlns:xodm="http://www.corel.com/coreldraw/odm/2003">
 <defs>
  <style type="text/css">
   <![CDATA[
    .fil0 {fill:#FEC00F}
    .fil1 {fill:#263674;fill-rule:nonzero}
   ]]>
  </style>
 </defs>
 <g id="Layer_x0020_1">
  <metadata id="CorelCorpID_0Corel-Layer"/>
  <g id="_2465920490832">
   <path class="fil0" d="M1.7 0.67l1.01 1.01 1.04 1.04c0.25,-0.27 0.41,-0.62 0.41,-1.02 0,-0.8 -0.65,-1.45 -1.45,-1.45 -0.39,0 -0.75,0.16 -1.01,0.42z"/>
   <path class="fil1" d="M1.55 1.88c0.02,0.15 -0.08,0.28 -0.22,0.3 -0.14,0.02 -0.27,-0.08 -0.3,-0.22 0,-0.04 -0.01,-0.09 -0.01,-0.13 0,-0.04 0,-0.08 0,-0.12 0,-0.47 0.19,-0.9 0.5,-1.21 0.31,-0.31 0.74,-0.5 1.21,-0.5 0.47,0 0.9,0.19 1.21,0.5 0.31,0.31 0.5,0.74 0.5,1.21 0,0.23 -0.05,0.46 -0.14,0.67 -0.08,0.2 -0.21,0.39 -0.38,0.56 -0.1,0.1 -0.27,0.09 -0.37,-0.01 -0.1,-0.1 -0.09,-0.27 0.01,-0.37 0.11,-0.11 0.2,-0.24 0.26,-0.39 0.06,-0.14 0.1,-0.3 0.1,-0.46 0,-0.33 -0.14,-0.62 -0.35,-0.84 -0.22,-0.21 -0.51,-0.35 -0.84,-0.35 -0.33,0 -0.63,0.14 -0.84,0.35 -0.22,0.22 -0.35,0.51 -0.35,0.84 0,0.03 0,0.06 0,0.09 0.01,0.03 0.01,0.05 0.01,0.08z"/>
   <path class="fil0" d="M2.21 3.42l-1.95 0 0 0.31 1.42 2.36 3.19 0 -0.7 -0.7 -0.96 -0.96c-0.13,0.09 -0.29,0.15 -0.47,0.15l-0.47 0c-0.15,0 -0.27,-0.12 -0.27,-0.27 0,-0.14 0.12,-0.26 0.27,-0.26l0.47 0c0.03,0 0.06,0 0.09,-0.01l-0.62 -0.62z"/>
   <path class="fil1" d="M2.02 4.59c-0.14,0 -0.26,-0.12 -0.26,-0.27 0,-0.14 0.12,-0.26 0.26,-0.26l1.93 0c0.15,0 0.26,0.12 0.26,0.26 0,0.15 -0.11,0.27 -0.26,0.27l-1.93 0z"/>
   <path class="fil1" d="M2.01 5.65c-0.14,0 -0.26,-0.12 -0.26,-0.26 0,-0.15 0.12,-0.26 0.26,-0.26l2.42 0c0.15,0 0.26,0.11 0.26,0.26 0,0.14 -0.11,0.26 -0.26,0.26l-2.42 0z"/>
   <path class="fil1" d="M1.87 5.15c0.13,-0.06 0.29,0 0.35,0.13 0.06,0.13 0,0.28 -0.13,0.34l-0.45 0.22c-0.13,0.06 -0.28,0 -0.34,-0.13 -0.06,-0.13 -0.01,-0.29 0.12,-0.35l0.45 -0.21z"/>
   <path class="fil1" d="M0.04 3.87c-0.08,-0.13 -0.04,-0.29 0.09,-0.36 0.12,-0.08 0.28,-0.04 0.36,0.09l1.42 2.35c0.07,0.12 0.03,0.29 -0.09,0.36 -0.13,0.08 -0.29,0.04 -0.36,-0.09l-1.42 -2.35z"/>
   <path class="fil1" d="M2.51 1.49c-0.01,-0.12 0.09,-0.22 0.21,-0.22 0.12,-0.01 0.22,0.09 0.22,0.21l0.01 0.45c0,0.13 -0.09,0.22 -0.21,0.23 -0.12,0 -0.22,-0.1 -0.22,-0.22l-0.01 -0.45z"/>
   <path class="fil1" d="M1.21 3.42c-0.15,0 -0.26,-0.11 -0.26,-0.26 0,-0.14 0.11,-0.26 0.26,-0.26l1.53 0c0.23,0 0.44,0.09 0.59,0.25 0.16,0.15 0.25,0.36 0.25,0.59 0,0.23 -0.09,0.44 -0.25,0.59 -0.15,0.15 -0.36,0.25 -0.59,0.25l-0.47 0c-0.15,0 -0.27,-0.12 -0.27,-0.27 0,-0.14 0.12,-0.26 0.27,-0.26l0.47 0c0.09,0 0.17,-0.03 0.22,-0.09 0.06,-0.06 0.1,-0.14 0.1,-0.22 0,-0.09 -0.04,-0.17 -0.1,-0.22 -0.05,-0.06 -0.13,-0.1 -0.22,-0.1l-1.53 0z"/>
   <path class="fil1" d="M4.18 4.47c-0.1,0.1 -0.27,0.11 -0.37,0.01 -0.11,-0.1 -0.11,-0.27 -0.01,-0.37l1.09 -1.15c0.16,-0.16 0.37,-0.25 0.58,-0.26 0.21,-0.01 0.43,0.05 0.6,0.21 0,0 0.01,0.01 0.02,0.02 0.16,0.15 0.25,0.36 0.26,0.56 0.01,0.21 -0.06,0.42 -0.21,0.59 0,0 -0.01,0.01 -0.02,0.02l-1.43 1.47c-0.1,0.1 -0.26,0.1 -0.37,0 -0.1,-0.1 -0.1,-0.27 0,-0.37l1.43 -1.47c0,0 0,0 0.01,0 0.05,-0.06 0.07,-0.14 0.06,-0.21 0,-0.08 -0.03,-0.16 -0.09,-0.21 0,-0.01 0,-0.01 -0.01,-0.01 -0.07,-0.06 -0.15,-0.09 -0.22,-0.08 -0.09,0 -0.17,0.04 -0.23,0.1l-1.09 1.15z"/>
  </g>
 </g>
</svg>
