<svg xmlns="http://www.w3.org/2000/svg" width="50" height="56" viewBox="0 0 1.42 1.6" shape-rendering="geometricPrecision" image-rendering="optimizeQuality" fill-rule="evenodd" xmlns:v="https://vecta.io/nano"><g fill="#efb30c" fill-rule="nonzero"><path d="M.65 1.26c-.11 0-.21-.01-.31-.03a.96.96 0 0 1-.24-.08c-.06-.04-.09-.08-.1-.12v.33c0 .04.03.08.09.12s.14.06.24.08a1.15 1.15 0 0 0 .33.04l.21-.01-.11-.14-.12-.15.01-.04zm.52-.45V.7h0a.53.53 0 0 1-.19.06H.96v.05l.11-.05.1.05z"/><path d="M.66 1.14h.02v-.03L.72.93.75.91V.79H.66C.55.79.44.78.34.76S.16.72.1.68C.04.65.01.61 0 .57v.16.16c0 .05.03.09.09.13a.96.96 0 0 0 .24.08c.1.02.21.04.33.04z"/></g><path d="M.66.68A1.15 1.15 0 0 0 .99.64.96.96 0 0 0 1.23.56c.06-.04.09-.08.09-.12v-.2c0-.04-.03-.08-.09-.12A.67.67 0 0 0 .99.03C.89.01.78 0 .66 0S.43.01.33.03a.67.67 0 0 0-.24.09C.03.16 0 .2 0 .24v.2c0 .04.03.08.09.12a.96.96 0 0 0 .24.08 1.15 1.15 0 0 0 .33.04z" fill="#1f2f70" fill-rule="nonzero"/><ellipse cx=".66" cy=".2" rx=".53" ry=".13" fill="#efb30c"/><path d="M.69.24L.63.25c.01 0 .04.01.01.02H.49c.03.01.06.02.09.02h0L.76.28C.8.28.78.27.78.27.78.26.73.24.72.23h.03.07C.85.22.83.21.83.21L.74.16C.72.15.71.15.71.15H.66C.64.16.66.16.66.16L.74.2c.02.01 0 .01 0 .01H.65C.63.21.64.22.64.22l.05.02z" fill="#1f2f70"/><path d="M.66.24L.58.2C.56.19.58.19.58.19L.67.18h.01L.63.16.69.15C.67.14.64.13.67.13.73.13.78.12.84.12.82.12.8.11.78.11.73.1.62.11.56.11.52.12.53.13.53.13.54.13.58.15.6.16L.57.17H.5C.47.17.49.19.49.19l.09.04C.6.24.61.24.61.24h.05z" fill="#fefefe"/><path d="M1.32.24C1.18.34.94.41.66.41S.13.34 0 .24v.2c0 .04.03.08.09.12a.96.96 0 0 0 .24.08 1.15 1.15 0 0 0 .33.04A1.15 1.15 0 0 0 .99.64.96.96 0 0 0 1.23.56c.06-.04.09-.08.09-.12v-.2z" fill="#35447e"/><path d="M.12.57V.31C.07.29.03.27 0 .24v.2c0 .04.03.08.09.12.01 0 .02.01.03.01zM.33.38v.27l.21.02V.41L.33.38zm.42.03v.27L.96.65V.38C.9.4.83.41.75.41zm.42-.09v.27l.06-.03c.06-.04.09-.08.09-.12v-.2a.53.53 0 0 1-.15.08z" fill="#8193de"/><g fill="#ffd45c"><path d="M.12 1.03V.69C.11.69.11.68.1.68.04.65.01.61 0 .57v.16.16c0 .05.03.09.09.13.01 0 .02.01.03.01zM.33.76v.34a.76.76 0 0 0 .21.03V.79L.34.76z"/><path d="M.75.79v.12L.89.85.96.81V.76a.71.71 0 0 1-.21.03z"/><path d="M1.17.7v.11l.07.04.08.03V.73.57c-.01.04-.04.08-.11.11-.01.01-.02.02-.04.02zm-1.05.8v-.35H.1c-.06-.04-.09-.08-.1-.12v.33c0 .04.03.08.09.12.01 0 .02.01.03.02zm.21-.28v.35l.21.02v-.34a1.23 1.23 0 0 1-.2-.02zm.42.22v.16c.04-.01.08-.01.12-.01l-.11-.14-.01-.01z"/></g><path d="M1.07.83l.14.07.14.07.04.15.03.16-.1.12-.1.13h-.15-.16l-.1-.13-.1-.12.04-.16.03-.15L.92.9l.15-.07zm0 .06l.11.06.12.06.03.12.03.13-.08.1-.08.1h-.13-.13l-.09-.1-.08-.1.03-.13.03-.12.12-.06.12-.06z" fill="#efb30c"/><path d="M1 1.23c-.01.02-.02 0-.02 0L.96 1.2c-.01.01-.02.04-.03.02-.02-.04-.04-.08-.05-.12-.02.03-.02.06-.01.08h0l.06.13c.02.03.04.01.04.01.01 0 .04-.05.04-.07l.02.02c.01.02.02.03.03.05.02.02.03 0 .03 0l.06-.1c.01-.02.01-.03.01-.03 0-.02-.01-.04-.01-.04-.01-.01-.02 0-.02 0l-.05.09c0 .02-.01.01-.01.01l-.04-.07-.03.05z" fill="#1f2f70"/><path d="M.98 1.21c.01.01.02 0 .02 0l.04-.1c.01-.02.02 0 .02 0l.03.07.04-.05c.01-.02.02 0 .02 0l.02.03c.01-.01.02-.04.03-.02l.06.12c0-.01.01-.03.01-.05 0-.04-.05-.12-.08-.16-.02-.03-.03-.02-.03-.02-.01.01-.04.06-.04.08l-.02-.02c-.01-.02-.02-.04-.03-.05-.02-.02-.04 0-.04 0-.01.03-.04.08-.05.1s-.01.03-.01.03c0 .02.01.04.01.04z" fill="#efb30c"/><path d="M1.28 1.36l-.08.1h-.13-.13l-.02-.02-.04.06.03.03h.16.15l.1-.13.1-.12-.03-.16-.04-.15-.13-.06-.03.05.11.05.03.12.03.13z" fill="#1f2f70"/></svg>