<svg xmlns="http://www.w3.org/2000/svg" width="50" height="50" viewBox="0 0 4.43 4.42" shape-rendering="geometricPrecision" image-rendering="optimizeQuality" fill-rule="evenodd" xmlns:v="https://vecta.io/nano"><g fill="#263674"><path d="M1.66 2.13h1.11a.62.62 0 0 1 .61.61v1.11a.63.63 0 0 1-.39.57H1.43c-.22-.1-.38-.32-.38-.57V2.74a.62.62 0 0 1 .61-.61h0z"/><path d="M.2 3.25h4.03a.2.2 0 0 1 .2.2v.77a.2.2 0 0 1-.2.2H.2a.2.2 0 0 1-.2-.2v-.77a.2.2 0 0 1 .2-.2z"/></g><path d="M1.79 2.5h.83a.32.32 0 0 1 .33.33v1.59H1.48V2.83c0-.19.14-.33.31-.33z" fill="#fff"/><path d="M1.93 2.79h.57c.11 0 .21.09.21.22v1.41h-.99V3.01c0-.13.1-.22.21-.22h0z" fill="#f0b90b"/><path d="M.47 3.41h.54c.11 0 .21.1.21.21v.8H.26v-.8c0-.11.09-.21.21-.21h0zm2.95 0h.54c.11 0 .21.1.21.21v.8h-.96v-.8c0-.11.09-.21.21-.21h0z" fill="#fff"/><g fill="#f0b90b"><path d="M.99.45L.88.15c0-.03 0-.06.01-.09C.89.03.92.02.95.01c.04-.02.07 0 .11.02.03.03.05.06.03.12l-.1.3zM.16.87l.29.1-.29.11c-.03.02-.06 0-.09-.01s-.04-.03-.06-.06C0 .97.01.93.04.9.07.86.1.86.16.87zm.83.64l.1.3c.02.03 0 .05-.01.08 0 .03-.03.04-.06.06-.04.01-.07 0-.11-.03-.03-.03-.04-.07-.03-.11l.11-.3zm.97-.57c.01.04 0 .07-.03.12-.03.02-.06.04-.11.02l-.3-.11.3-.1c.02-.01.05-.01.08 0s.04.04.06.07zM.33.46C.3.45.27.43.27.4a.11.11 0 0 1 0-.08C.3.28.33.25.37.26a.11.11 0 0 1 .1.06L.61.6.33.46h0zm0 1.23c-.05-.02-.07-.05-.06-.1 0-.05.01-.08.06-.1l.28-.14-.14.29c-.02.03-.03.04-.06.05-.03.02-.06.02-.08 0h0zm1.32-.2c.02.02.05.03.05.06.02.03.02.06 0 .09-.03.04-.05.05-.1.05-.04 0-.08-.01-.1-.05l-.14-.29.29.14h0zm0-1.23c.04.03.07.06.05.1 0 .04-.01.09-.05.1L1.36.6 1.5.32c.02-.03.03-.06.06-.06.03-.01.06-.01.09 0h0zm-1 .38C.75.56.87.5.99.5c.13 0 .23.06.33.14.08.1.14.2.14.33s-.06.24-.14.34a.47.47 0 0 1-.33.14c-.12 0-.24-.05-.34-.14C.57 1.21.51 1.1.51.97S.57.74.65.64z" fill-rule="nonzero"/><path d="M.58 3.62h.31c.07 0 .13.06.13.13v.67H.45v-.67c0-.07.06-.13.13-.13h0zm2.95 0h.31c.07 0 .13.06.13.13v.67H3.4v-.67c0-.07.06-.13.13-.13h0z"/></g></svg>