<svg xmlns="http://www.w3.org/2000/svg" width="50" height="42" viewBox="0 0 0.25 0.21" shape-rendering="geometricPrecision" image-rendering="optimizeQuality" fill-rule="evenodd" xmlns:v="https://vecta.io/nano"><path d="M.21.02v.15h.01V.03h.01c.01 0 .02.01.02.02h0v.12C.25.19.23.21.22.21H.21.03C.02.21 0 .19 0 .18V.17.02C0 .01.01 0 .02 0h0 .17C.2 0 .21.01.21.02h0v.15-.15zM.08.09H.05C.04.09.04.1.04.11h0v.03c0 .01 0 .01.01.02h0 .03C.09.16.1.15.1.14h0V.11C.1.1.09.09.08.09h0zm.08.05H.13h0C.12.15.12.15.13.16h0 .03 0C.17.14.17.14.16.14h0zM.05.11h.03 0v.03h0-.03 0V.11h0 .03-.03zM.16.09H.13h0C.12.1.12.11.13.11h0 .03 0C.17.1.17.09.16.09h0zm0-.04H.04h0v.01h.12 0V.05z" fill="#2b2a29" fill-rule="nonzero"/></svg>