<svg xmlns="http://www.w3.org/2000/svg" width="70" height="70" viewBox="0 0 28.82 28.85" shape-rendering="geometricPrecision" image-rendering="optimizeQuality" fill-rule="evenodd" xmlns:v="https://vecta.io/nano"><g fill-rule="nonzero"><path d="M1.77 22.79c-1.31-1.48-1.03-3.72.55-4.93L23.9.76c1.48-1.21 3.72-.93 4.92.55L1.77 22.79h0z" fill="#263674"/><path d="M4.93 27.72c-1.49 1.21-3.72.93-4.93-.56L27.06 5.68h.09l.19.28c.93 1.49.65 3.54-.75 4.65l-9.02 7.16-12.64 9.95h0z" fill="#efb30c"/></g><path d="M12.74.57c1.95.74 2.97 2.98 2.23 5.02-.84 1.95-3.07 2.98-5.11 2.14C7.9 6.99 6.88 4.75 7.62 2.8 8.46.76 10.69-.17 12.74.57zm-.75 1.86c1.03.37 1.49 1.49 1.12 2.42-.37 1.02-1.49 1.49-2.51 1.11-1.02-.37-1.49-1.48-1.12-2.51.38-.93 1.49-1.48 2.51-1.02z" fill="#efb30c"/><path d="M18.04 21.4c1.95.74 2.97 2.97 2.14 5.02-.75 1.95-2.98 2.97-5.02 2.14-1.96-.75-2.98-2.98-2.24-5.02.84-1.96 3.07-2.89 5.12-2.14zm-.75 1.76c1.03.47 1.49 1.49 1.12 2.52-.37 1.02-1.49 1.48-2.51 1.11s-1.49-1.49-1.12-2.51c.38-.93 1.49-1.49 2.51-1.12z" fill="#263674"/></svg>