<svg xmlns="http://www.w3.org/2000/svg" width="50" height="41" viewBox="0 0 2.14 1.76" shape-rendering="geometricPrecision" image-rendering="optimizeQuality" fill-rule="evenodd" xmlns:v="https://vecta.io/nano"><path d="M1.64.78v.17H.5V.78S.5.77.51.76c0 0 .01-.01.02-.01h.08.03V.74.51c0-.06 0-.1.01-.13C.66.29.69.22.75.16.81.09.87.05.95.02a.36.36 0 0 1 .25 0c.09.02.17.07.23.14a.46.46 0 0 1 .1.25v.17.17h-.17V.58c0-.05.01-.09.01-.12-.01-.02-.01-.05-.01-.07-.02-.07-.05-.12-.1-.16C1.2.18 1.14.16 1.07.17 1.03.17.98.18.95.2.91.23.88.26.85.3.83.34.81.38.81.42V.6.74l.01.01h.02.77c.01 0 .02.01.02.01.01.01.01.02.01.02zm0 .88v.07c0 .01 0 .02-.01.02 0 .01-.01.01-.02.01H.53c-.01 0-.02 0-.02-.01-.01 0-.01-.01-.01-.02v-.07h1.14z" fill="#efb30c"/><rect x=".03" y="1.04" width="2.08" height=".54" rx=".27" fill="#fefefe"/><g fill="#263674" fill-rule="nonzero"><path d="M.3 1.01h1.54c.08 0 .16.03.21.09.06.05.09.13.09.21s-.03.16-.09.21h0c-.05.06-.13.09-.21.09H.3c-.08 0-.16-.03-.21-.09h0C.03 1.47 0 1.39 0 1.31s.03-.16.09-.21c.05-.06.13-.09.21-.09zm1.54.06H.3c-.07 0-.13.02-.17.07-.04.04-.07.1-.07.17s.03.13.07.17h0c.04.04.1.07.17.07h1.54c.07 0 .13-.03.17-.07h0c.05-.04.07-.1.07-.17s-.02-.13-.07-.17c-.04-.05-.1-.07-.17-.07z"/><path d="M.48 1.2H.5c.01.01.01.02 0 .03l-.07.06h.1c.01 0 .01.01.01.02l-.11.01.07.07c.01.01.01.02 0 .02-.01.01-.02.01-.02 0l-.07-.07v.1c0 .01-.01.02-.01.02-.01 0-.02-.01-.02-.02v-.1l-.07.07c0 .01-.01.01-.02 0v-.02l.07-.07h-.1c-.01-.02-.01-.03 0-.03h.1l-.07-.06V1.2h.02l.07.07v-.09c0-.01.01-.02.02-.02 0 0 .01.01.01.02v.09l.07-.07zm.45 0h.02c.01.01.01.02 0 .03l-.07.06h.1c.01 0 .01.01.01.02l-.11.01.07.07c.01.01.01.02 0 .02-.01.01-.02.01-.02 0l-.07-.07v.1c0 .01-.01.02-.01.02-.01 0-.02-.01-.02-.02v-.1l-.07.07c0 .01-.01.01-.02 0v-.02l.07-.07h-.1C.7 1.3.7 1.29.71 1.29h.1l-.07-.06V1.2h.02l.07.07v-.09c0-.01.01-.02.02-.02 0 0 .01.01.01.02v.09l.07-.07zm.45 0h.02c.01.01.01.02 0 .03l-.07.06h.1c.01 0 .01.01.01.02l-.11.01.07.07c.01.01.01.02 0 .02-.01.01-.02.01-.02 0l-.07-.07v.1c0 .01-.01.02-.01.02-.01 0-.02-.01-.02-.02v-.1l-.07.07c0 .01-.01.01-.02 0v-.02l.07-.07h-.1c-.01-.02-.01-.03 0-.03h.1l-.07-.06V1.2h.02l.07.07v-.09c0-.01.01-.02.02-.02 0 0 .01.01.01.02v.09l.07-.07zm.45 0h.02c.01.01.01.02 0 .03l-.07.06h.1c.01 0 .01.01.01.02l-.11.01.07.07c.01.01.01.02 0 .02-.01.01-.02.01-.02 0l-.07-.07v.1c0 .01-.01.02-.01.02-.01 0-.02-.01-.02-.02v-.1l-.07.07c0 .01-.01.01-.02 0-.01 0-.01-.01 0-.02l.07-.07h-.1c-.01-.02-.01-.03 0-.03h.1l-.07-.06c-.01-.01-.01-.02 0-.03h.02l.07.07v-.09c0-.01.01-.02.02-.02 0 0 .01.01.01.02v.09l.07-.07z"/></g></svg>