<?xml version="1.0" encoding="UTF-8"?>
<!DOCTYPE svg PUBLIC "-//W3C//DTD SVG 1.1//EN" "http://www.w3.org/Graphics/SVG/1.1/DTD/svg11.dtd">
<!-- Creator: CorelDRAW 2020 (64-Bit Evaluation Version) -->
<svg xmlns="http://www.w3.org/2000/svg" xml:space="preserve" width="60px" height="60px" version="1.1" style="shape-rendering:geometricPrecision; text-rendering:geometricPrecision; image-rendering:optimizeQuality; fill-rule:evenodd; clip-rule:evenodd"
viewBox="0 0 5.39 5.39"
 xmlns:xlink="http://www.w3.org/1999/xlink"
 xmlns:xodm="http://www.corel.com/coreldraw/odm/2003">
 <defs>
  <style type="text/css">
   <![CDATA[
    .fil0 {fill:#263674;fill-rule:nonzero}
   ]]>
  </style>
 </defs>
 <g id="Layer_x0020_1">
  <metadata id="CorelCorpID_0Corel-Layer"/>
  <path class="fil0" d="M0.2 1.68c0,0 0,0 0,0 -0.04,0 -0.07,-0.01 -0.1,-0.02 -0.06,-0.04 -0.1,-0.1 -0.1,-0.17 0,-0.04 0.01,-0.07 0.03,-0.1 0.25,-0.42 1.01,-1.39 2.67,-1.39 0.72,0 1.35,0.19 1.87,0.56 0.43,0.31 0.67,0.65 0.79,0.82 0.02,0.03 0.03,0.07 0.03,0.11 0,0.06 -0.03,0.12 -0.08,0.16 -0.04,0.02 -0.08,0.03 -0.11,0.03 -0.07,0 -0.13,-0.03 -0.17,-0.08 -0.21,-0.3 -0.84,-1.21 -2.33,-1.21 -1.46,0 -2.12,0.83 -2.33,1.19 -0.04,0.06 -0.1,0.1 -0.17,0.1 0,0 0,0 0,0l0 0z"/>
  <path class="fil0" d="M3.53 5.39c0,0 0,0 0,0 -0.02,0 -0.03,0 -0.05,-0.01 -1.2,-0.29 -1.65,-1.5 -1.67,-1.55l0 -0.01c-0.01,-0.03 -0.25,-0.86 0.12,-1.34 0.17,-0.22 0.43,-0.34 0.77,-0.34 0.32,0 0.54,0.1 0.7,0.31 0.13,0.16 0.18,0.37 0.23,0.57 0.11,0.41 0.18,0.63 0.62,0.65 0.2,0.01 0.32,-0.1 0.39,-0.2 0.2,-0.26 0.23,-0.69 0.08,-1.06 -0.18,-0.49 -0.85,-1.4 -2.02,-1.4 -0.51,0 -0.97,0.16 -1.34,0.46 -0.3,0.25 -0.54,0.61 -0.66,0.97 -0.22,0.68 0.07,1.74 0.07,1.75 0,0.02 0.01,0.04 0.01,0.05 0,0.09 -0.06,0.17 -0.15,0.19 -0.02,0 -0.03,0.01 -0.05,0.01 -0.09,0 -0.17,-0.06 -0.19,-0.15 -0.02,-0.05 -0.32,-1.18 -0.07,-1.97 0.27,-0.84 1.11,-1.7 2.38,-1.7 0.58,0 1.13,0.2 1.59,0.57 0.36,0.3 0.65,0.69 0.8,1.08 0.2,0.5 0.15,1.06 -0.13,1.43 -0.18,0.24 -0.44,0.37 -0.73,0.35 -0.75,-0.03 -0.88,-0.56 -0.98,-0.94 -0.1,-0.39 -0.17,-0.58 -0.55,-0.58 -0.22,0 -0.36,0.06 -0.46,0.18 -0.12,0.17 -0.13,0.42 -0.12,0.61 0.01,0.13 0.03,0.26 0.07,0.39 0.03,0.08 0.43,1.06 1.39,1.3 0.09,0.02 0.15,0.1 0.15,0.19 0,0.01 0,0.03 -0.01,0.04 -0.02,0.09 -0.1,0.15 -0.19,0.15 0,0 0,0 0,0l0 0z"/>
  <path class="fil0" d="M1.99 5.3c0,0 0,0 0,0 -0.06,0 -0.11,-0.02 -0.15,-0.06 -0.48,-0.51 -0.75,-1.07 -0.85,-1.78l0 0c-0.06,-0.47 0.02,-1.13 0.44,-1.59 0.3,-0.33 0.73,-0.51 1.27,-0.51 0.63,0 1.13,0.3 1.44,0.86 0.23,0.4 0.28,0.81 0.28,0.83 0,0 0,0.01 0,0.01 0,0.1 -0.08,0.19 -0.18,0.2 -0.01,0 -0.01,0 -0.02,0 -0.1,0 -0.19,-0.08 -0.2,-0.17l0 0c-0.03,-0.25 -0.11,-0.48 -0.23,-0.7 -0.24,-0.42 -0.61,-0.64 -1.09,-0.64 -0.42,0 -0.75,0.13 -0.98,0.38 -0.33,0.36 -0.39,0.91 -0.34,1.28 0.09,0.62 0.33,1.12 0.75,1.56 0.03,0.04 0.05,0.09 0.05,0.14 0,0.05 -0.02,0.1 -0.06,0.14 -0.04,0.03 -0.08,0.05 -0.13,0.05l0 0z"/>
  <path class="fil0" d="M4.21 4.74c-0.42,0 -0.78,-0.11 -1.07,-0.35 -0.58,-0.46 -0.64,-1.21 -0.64,-1.25 0,0 0,-0.01 0,-0.01 0,-0.11 0.09,-0.2 0.19,-0.2 0.11,0 0.19,0.08 0.2,0.18 0,0.01 0.06,0.63 0.5,0.99 0.27,0.21 0.62,0.29 1.05,0.24 0.01,0 0.02,0 0.02,0 0.1,0 0.19,0.07 0.2,0.17 0,0.01 0,0.02 0,0.02 0,0.1 -0.07,0.19 -0.17,0.2 -0.1,0.01 -0.19,0.01 -0.28,0.01l0 0z"/>
 </g>
</svg>
