<?xml version="1.0" encoding="UTF-8"?>
<!DOCTYPE svg PUBLIC "-//W3C//DTD SVG 1.1//EN" "http://www.w3.org/Graphics/SVG/1.1/DTD/svg11.dtd">
<!-- Creator: CorelDRAW 2020 (64-Bit Evaluation Version) -->
<svg xmlns="http://www.w3.org/2000/svg" xml:space="preserve" width="60px" height="60px" version="1.1" style="shape-rendering:geometricPrecision; text-rendering:geometricPrecision; image-rendering:optimizeQuality; fill-rule:evenodd; clip-rule:evenodd"
viewBox="0 0 5.5 5.49"
 xmlns:xlink="http://www.w3.org/1999/xlink"
 xmlns:xodm="http://www.corel.com/coreldraw/odm/2003">
 <defs>
  <style type="text/css">
   <![CDATA[
    .fil0 {fill:#263674;fill-rule:nonzero}
   ]]>
  </style>
 </defs>
 <g id="Layer_x0020_1">
  <metadata id="CorelCorpID_0Corel-Layer"/>
  <path class="fil0" d="M4.26 4.42c0.07,0 0.14,0.02 0.2,0.04 0.06,0.03 0.12,0.07 0.16,0.11 0.05,0.05 0.08,0.1 0.11,0.17 0.03,0.06 0.04,0.12 0.04,0.19 0,0.08 -0.01,0.14 -0.04,0.2 -0.03,0.07 -0.06,0.12 -0.11,0.17 -0.04,0.04 -0.1,0.08 -0.16,0.11 -0.06,0.02 -0.13,0.04 -0.2,0.04 -0.07,0 -0.13,-0.02 -0.19,-0.04 -0.07,-0.03 -0.12,-0.07 -0.16,-0.11 -0.05,-0.05 -0.09,-0.1 -0.11,-0.17 -0.03,-0.06 -0.04,-0.12 -0.04,-0.2 0,-0.05 0.01,-0.11 0.03,-0.17l-1.41 0c0.02,0.06 0.03,0.12 0.03,0.17 0,0.08 -0.02,0.14 -0.04,0.2 -0.03,0.07 -0.06,0.12 -0.11,0.17 -0.05,0.04 -0.1,0.08 -0.16,0.11 -0.06,0.02 -0.13,0.04 -0.2,0.04 -0.07,0 -0.14,-0.02 -0.2,-0.04 -0.06,-0.03 -0.11,-0.07 -0.16,-0.11 -0.04,-0.05 -0.08,-0.1 -0.11,-0.17 -0.02,-0.06 -0.03,-0.12 -0.03,-0.2 0,-0.09 0.02,-0.18 0.07,-0.27 0.05,-0.08 0.13,-0.14 0.21,-0.18l-1.14 -4.09 -0.49 0 0 -0.34 0.74 0 0.22 0.68 4.44 0 -0.79 3.01 -2.86 0 0.22 0.68 2.24 0zm-3.14 -3.35l0.56 2.33 2.73 0 0.57 -2.33 -3.86 0zm0.95 3.86c0,-0.04 -0.02,-0.08 -0.05,-0.11 -0.03,-0.04 -0.07,-0.06 -0.12,-0.06 -0.04,0 -0.08,0.02 -0.12,0.06 -0.03,0.03 -0.05,0.07 -0.05,0.11 0,0.05 0.02,0.09 0.05,0.12 0.04,0.04 0.08,0.06 0.12,0.06 0.05,0 0.09,-0.02 0.12,-0.06 0.03,-0.03 0.05,-0.07 0.05,-0.12zm2.19 0.18c0.05,0 0.09,-0.02 0.12,-0.06 0.04,-0.03 0.05,-0.07 0.05,-0.12 0,-0.04 -0.01,-0.08 -0.05,-0.11 -0.03,-0.04 -0.07,-0.06 -0.12,-0.06 -0.04,0 -0.08,0.02 -0.11,0.06 -0.04,0.03 -0.05,0.07 -0.05,0.11 0,0.05 0.01,0.09 0.05,0.12 0.03,0.04 0.07,0.06 0.11,0.06z"/>
  <path class="fil0" d="M4.26 4.38c0.04,0 0.08,0 0.11,0.01 0.04,0.01 0.08,0.02 0.11,0.03 0.03,0.02 0.06,0.03 0.09,0.05 0.03,0.02 0.06,0.05 0.08,0.07 0.03,0.03 0.05,0.05 0.07,0.08 0.02,0.03 0.04,0.07 0.05,0.1 0.02,0.03 0.03,0.07 0.03,0.1 0.01,0.04 0.02,0.08 0.02,0.11 0,0.04 -0.01,0.08 -0.02,0.12 0,0.03 -0.01,0.07 -0.03,0.1 -0.01,0.03 -0.03,0.07 -0.05,0.1 -0.02,0.03 -0.04,0.05 -0.07,0.08 -0.02,0.02 -0.05,0.05 -0.08,0.07 -0.03,0.02 -0.06,0.03 -0.09,0.05 -0.03,0.01 -0.07,0.02 -0.11,0.03 -0.03,0.01 -0.07,0.01 -0.11,0.01 -0.03,0 -0.07,0 -0.11,-0.01 -0.03,-0.01 -0.07,-0.02 -0.1,-0.03 -0.03,-0.02 -0.07,-0.03 -0.09,-0.05 -0.03,-0.02 -0.06,-0.05 -0.09,-0.07 -0.02,-0.03 -0.04,-0.05 -0.06,-0.08 -0.02,-0.03 -0.04,-0.07 -0.05,-0.1 -0.02,-0.03 -0.03,-0.07 -0.04,-0.1 0,-0.04 -0.01,-0.08 -0.01,-0.12 0,-0.02 0.01,-0.05 0.01,-0.09l0.01 -0.03 -1.29 0 0 0.03c0.01,0.04 0.01,0.07 0.01,0.09 0,0.04 0,0.08 -0.01,0.12 -0.01,0.03 -0.02,0.07 -0.03,0.1 -0.01,0.03 -0.03,0.07 -0.05,0.1 -0.02,0.03 -0.04,0.05 -0.07,0.08 -0.02,0.02 -0.05,0.05 -0.08,0.07 -0.03,0.02 -0.06,0.03 -0.09,0.05 -0.04,0.01 -0.07,0.02 -0.11,0.03 -0.03,0.01 -0.07,0.01 -0.11,0.01 -0.04,0 -0.07,0 -0.11,-0.01 -0.04,-0.01 -0.07,-0.02 -0.1,-0.03 -0.04,-0.02 -0.07,-0.03 -0.1,-0.05 -0.03,-0.02 -0.05,-0.05 -0.08,-0.07 -0.02,-0.03 -0.05,-0.05 -0.07,-0.08 -0.02,-0.03 -0.03,-0.07 -0.05,-0.1 -0.01,-0.03 -0.02,-0.07 -0.03,-0.1 -0.01,-0.04 -0.01,-0.08 -0.01,-0.12 0,-0.05 0.01,-0.1 0.02,-0.15 0.02,-0.05 0.04,-0.09 0.06,-0.14 0.03,-0.04 0.07,-0.08 0.1,-0.12 0.03,-0.02 0.06,-0.05 0.1,-0.07l-1.12 -4.02 -0.51 0 0 -0.43 0.82 0 0.22 0.68 4.46 0c-0.27,1.04 -0.54,2.07 -0.81,3.11l-2.83 0 0.19 0.59 2.21 0zm0.1 0.1c-0.03,-0.01 -0.06,-0.01 -0.1,-0.01l-2.27 0 -0.25 -0.77 2.88 0 0.77 -2.93 -4.41 0 -0.23 -0.68 -0.66 0 0 0.25 0.49 0c0.38,1.39 0.77,2.77 1.16,4.16l-0.04 0.02c-0.04,0.01 -0.07,0.04 -0.11,0.07 -0.03,0.03 -0.06,0.06 -0.08,0.1 -0.02,0.04 -0.04,0.07 -0.05,0.12 -0.01,0.04 -0.02,0.08 -0.02,0.12 0,0.04 0,0.07 0.01,0.1 0.01,0.03 0.01,0.06 0.03,0.09 0.01,0.02 0.02,0.05 0.04,0.08 0.01,0.02 0.03,0.04 0.05,0.06 0.03,0.03 0.05,0.05 0.07,0.06 0.03,0.02 0.05,0.03 0.08,0.04 0.03,0.02 0.06,0.02 0.09,0.03 0.03,0.01 0.06,0.01 0.09,0.01 0.03,0 0.06,0 0.09,-0.01 0.03,0 0.06,-0.01 0.09,-0.03 0.03,-0.01 0.06,-0.02 0.08,-0.04 0.02,-0.01 0.05,-0.03 0.07,-0.06 0.02,-0.02 0.04,-0.04 0.05,-0.06 0.02,-0.03 0.03,-0.06 0.05,-0.08 0.01,-0.03 0.02,-0.06 0.02,-0.09 0.01,-0.03 0.01,-0.06 0.01,-0.1 0,-0.02 0,-0.05 0,-0.07 -0.01,-0.03 -0.02,-0.05 -0.02,-0.08l-0.02 -0.06 1.53 0 -0.02 0.06c-0.01,0.03 -0.02,0.05 -0.02,0.08 -0.01,0.02 -0.01,0.05 -0.01,0.07 0,0.04 0.01,0.07 0.01,0.1 0.01,0.03 0.02,0.06 0.03,0.09 0.01,0.02 0.02,0.05 0.04,0.08 0.02,0.02 0.04,0.04 0.06,0.06 0.02,0.03 0.04,0.05 0.07,0.06 0.02,0.02 0.05,0.03 0.07,0.04 0.03,0.02 0.06,0.02 0.09,0.03 0.03,0.01 0.06,0.01 0.09,0.01 0.04,0 0.07,0 0.1,-0.01 0.03,0 0.06,-0.01 0.08,-0.03 0.03,-0.01 0.06,-0.02 0.08,-0.04 0.03,-0.01 0.05,-0.03 0.07,-0.06 0.02,-0.02 0.04,-0.04 0.06,-0.06 0.01,-0.03 0.03,-0.06 0.04,-0.08 0.01,-0.03 0.02,-0.06 0.03,-0.09 0,-0.03 0.01,-0.06 0.01,-0.1 0,-0.03 -0.01,-0.06 -0.01,-0.09 -0.01,-0.03 -0.02,-0.06 -0.03,-0.09 -0.01,-0.03 -0.03,-0.05 -0.04,-0.08 -0.02,-0.02 -0.04,-0.04 -0.06,-0.06 -0.02,-0.03 -0.04,-0.04 -0.07,-0.06 -0.02,-0.02 -0.05,-0.03 -0.08,-0.04 -0.02,-0.02 -0.05,-0.03 -0.08,-0.03zm-3.18 -3.37l0.54 2.25 2.66 0 0.54 -2.25 -3.74 0zm0.46 2.3l-0.57 -2.39 3.96 0c-0.19,0.81 -0.39,1.62 -0.58,2.43l-2.8 0 -0.01 -0.04zm0.39 1.52c0,-0.01 -0.01,-0.03 -0.01,-0.04 -0.01,-0.02 -0.02,-0.03 -0.03,-0.04 -0.01,-0.02 -0.03,-0.03 -0.04,-0.03 -0.02,-0.01 -0.03,-0.01 -0.05,-0.01 -0.01,0 -0.03,0 -0.04,0.01 -0.02,0 -0.03,0.01 -0.05,0.03 -0.01,0.01 -0.02,0.02 -0.02,0.04 -0.01,0.01 -0.01,0.03 -0.01,0.04 0,0.02 0,0.04 0.01,0.05 0,0.02 0.01,0.03 0.03,0.04 0.01,0.02 0.02,0.02 0.04,0.03 0.01,0.01 0.03,0.01 0.04,0.01 0.02,0 0.03,0 0.05,-0.01 0.01,0 0.03,-0.01 0.04,-0.03 0.01,-0.01 0.02,-0.02 0.03,-0.04 0,-0.01 0.01,-0.03 0.01,-0.05zm0.07 -0.08c0.01,0.03 0.02,0.06 0.02,0.08 0,0.03 -0.01,0.06 -0.02,0.09 -0.01,0.02 -0.03,0.04 -0.05,0.07 -0.02,0.02 -0.04,0.03 -0.07,0.04 -0.02,0.01 -0.05,0.02 -0.08,0.02 -0.03,0 -0.05,-0.01 -0.08,-0.02 -0.02,-0.01 -0.05,-0.02 -0.07,-0.04 -0.02,-0.03 -0.04,-0.05 -0.05,-0.07 -0.01,-0.03 -0.01,-0.06 -0.01,-0.09 0,-0.02 0,-0.05 0.01,-0.08 0.01,-0.02 0.03,-0.05 0.05,-0.07 0.02,-0.02 0.05,-0.03 0.07,-0.04 0.03,-0.01 0.05,-0.02 0.08,-0.02 0.03,0 0.06,0.01 0.08,0.02 0.03,0.01 0.05,0.02 0.07,0.04 0.02,0.02 0.04,0.05 0.05,0.07zm2.16 0.21c0.02,0 0.04,0 0.05,-0.01 0.01,0 0.03,-0.01 0.04,-0.03 0.01,-0.01 0.02,-0.02 0.03,-0.04 0,-0.01 0.01,-0.03 0.01,-0.05 0,-0.01 -0.01,-0.03 -0.01,-0.04 -0.01,-0.02 -0.02,-0.03 -0.03,-0.04 -0.01,-0.02 -0.03,-0.03 -0.04,-0.03 -0.01,-0.01 -0.03,-0.01 -0.05,-0.01 -0.01,0 -0.03,0 -0.04,0.01 -0.02,0 -0.03,0.01 -0.04,0.03 -0.02,0.01 -0.02,0.02 -0.03,0.04 -0.01,0.01 -0.01,0.03 -0.01,0.04 0,0.02 0,0.04 0.01,0.05 0.01,0.02 0.01,0.03 0.03,0.04 0.01,0.02 0.02,0.02 0.04,0.03 0.01,0.01 0.03,0.01 0.04,0.01zm0.09 0.07c-0.03,0.01 -0.06,0.02 -0.09,0.02 -0.02,0 -0.05,-0.01 -0.08,-0.02 -0.02,-0.01 -0.05,-0.02 -0.07,-0.04 -0.02,-0.03 -0.03,-0.05 -0.04,-0.07 -0.01,-0.03 -0.02,-0.06 -0.02,-0.09 0,-0.02 0.01,-0.05 0.02,-0.08 0.01,-0.02 0.02,-0.05 0.04,-0.07 0.02,-0.02 0.05,-0.03 0.07,-0.04 0.03,-0.01 0.06,-0.02 0.08,-0.02 0.03,0 0.06,0.01 0.09,0.02 0.02,0.01 0.04,0.02 0.06,0.04 0.02,0.02 0.04,0.05 0.05,0.07 0.01,0.03 0.02,0.06 0.02,0.08 0,0.03 -0.01,0.06 -0.02,0.09 -0.01,0.02 -0.03,0.04 -0.05,0.07 -0.02,0.02 -0.04,0.03 -0.06,0.04z"/>
  <path class="fil0" d="M1.17 2.13c-0.12,0 -0.21,-0.1 -0.21,-0.22 0,-0.12 0.09,-0.22 0.21,-0.22l1.06 0 0.37 0.45 1.46 0c0.12,0 0.22,0.1 0.22,0.22 0,0.12 -0.1,0.22 -0.22,0.22l-1.66 0 -0.38 -0.45 -0.85 0z"/>
 </g>
</svg>
