<?xml version="1.0" encoding="UTF-8"?>
<!DOCTYPE svg PUBLIC "-//W3C//DTD SVG 1.1//EN" "http://www.w3.org/Graphics/SVG/1.1/DTD/svg11.dtd">
<!-- Creator: CorelDRAW 2020 (64-Bit Evaluation Version) -->
<svg xmlns="http://www.w3.org/2000/svg" xml:space="preserve" width="60px" height="60px" version="1.1" style="shape-rendering:geometricPrecision; text-rendering:geometricPrecision; image-rendering:optimizeQuality; fill-rule:evenodd; clip-rule:evenodd"
viewBox="0 0 367.04 367.04"
 xmlns:xlink="http://www.w3.org/1999/xlink"
 xmlns:xodm="http://www.corel.com/coreldraw/odm/2003">
 <defs>
  <style type="text/css">
   <![CDATA[
    .fil0 {fill:#263674;fill-rule:nonzero}
   ]]>
  </style>
 </defs>
 <g id="Layer_x0020_1">
  <metadata id="CorelCorpID_0Corel-Layer"/>
  <g id="_1826177270352">
   <path class="fil0" d="M248.41 181.43c-6.18,0 -11.19,-5.01 -11.19,-11.2 0,-6.18 5.01,-11.19 11.19,-11.19l45.1 0c7.36,0 14.04,3 18.88,7.84 4.84,4.84 7.84,11.52 7.84,18.88l0 154.55c0,7.36 -3,14.05 -7.84,18.89 -4.84,4.84 -11.52,7.84 -18.88,7.84l-220.25 0c-7.36,0 -14.05,-3 -18.89,-7.84 -4.84,-4.84 -7.84,-11.52 -7.84,-18.89l0 -154.55c0,-7.36 3,-14.04 7.84,-18.88 4.84,-4.84 11.52,-7.84 18.89,-7.84l28.66 0c6.18,0 11.19,5.01 11.19,11.19 0,6.19 -5.01,11.2 -11.19,11.2l-28.66 0c-1.19,0 -2.27,0.49 -3.06,1.28 -0.79,0.79 -1.28,1.87 -1.28,3.05l0 154.55c0,1.19 0.49,2.27 1.28,3.06 0.79,0.79 1.87,1.28 3.06,1.28l220.25 0c1.18,0 2.26,-0.49 3.05,-1.28 0.79,-0.79 1.29,-1.87 1.29,-3.06l0 -154.55c0,-1.18 -0.5,-2.26 -1.29,-3.05 -0.79,-0.79 -1.87,-1.28 -3.05,-1.28l-45.1 0z"/>
   <path class="fil0" d="M19.87 244.92c-3.87,4.8 -10.89,5.57 -15.7,1.7 -4.81,-3.86 -5.57,-10.89 -1.7,-15.69l50.14 -62.04c3.86,-4.81 10.89,-5.57 15.7,-1.71 4.8,3.87 5.56,10.9 1.7,15.7l-50.14 62.04z"/>
   <path class="fil0" d="M364.3 230.93c3.86,4.8 3.1,11.83 -1.71,15.69 -4.8,3.87 -11.83,3.1 -15.69,-1.7l-50.15 -62.04c-3.86,-4.8 -3.1,-11.83 1.71,-15.7 4.81,-3.86 11.83,-3.1 15.7,1.71l50.14 62.04z"/>
   <path class="fil0" d="M281.6 63.35l-21.75 -32.5 -21.76 32.5 21.76 32.49 21.75 -32.49zm-14.62 -52.7l35.28 52.7 -42.41 63.34 -42.41 -63.34 42.41 -63.35 7.13 10.65z"/>
   <path class="fil0" d="M96.14 99.31l-8.35 -13.44 -8.36 13.44 8.36 13.45 8.35 -13.45zm-1.06 -34.27l21.3 34.27 -28.59 46.02 -28.6 -46.02 28.6 -46.02 7.29 11.75z"/>
   <path class="fil0" d="M344.16 127.51l-13.67 -15.48 -13.66 15.48 13.66 15.48 13.67 -15.48zm-7.24 -34.13l30.12 34.13 -36.55 41.41 -36.54 -41.41 36.54 -41.41 6.43 7.28z"/>
   <path class="fil0" d="M159.07 32.35l-8 -8 -8 8 8 8 8 -8zm-1.91 -26.26l26.26 26.26 -32.35 32.35 -32.35 -32.35 32.35 -32.35 6.09 6.09z"/>
   <path class="fil0" d="M167.99 172.04c6.06,1.16 10.03,7.02 8.87,13.08 -1.16,6.06 -7.01,10.03 -13.07,8.87 -10.73,-2.05 -19.96,-7.76 -26.51,-15.68 -6.56,-7.94 -10.45,-18.09 -10.45,-28.99 0,-12.56 5.1,-23.94 13.33,-32.17 8.24,-8.24 19.61,-13.33 32.18,-13.33 12.56,0 23.94,5.09 32.17,13.33 8.23,8.23 13.33,19.61 13.33,32.17 0,6.18 -5.01,11.2 -11.2,11.2 -6.18,0 -11.19,-5.02 -11.19,-11.2 0,-6.38 -2.59,-12.16 -6.77,-16.34 -4.18,-4.18 -9.96,-6.77 -16.34,-6.77 -6.39,0 -12.17,2.59 -16.35,6.77 -4.18,4.18 -6.77,9.96 -6.77,16.34 0,5.56 1.97,10.72 5.29,14.73 3.34,4.04 8.03,6.95 13.48,7.99z"/>
   <path class="fil0" d="M194.75 210.81c0,-6.18 5.01,-11.19 11.19,-11.19 6.18,0 11.19,5.01 11.19,11.19 0,18 -7.29,34.29 -19.09,46.08 -11.79,11.8 -28.08,19.09 -46.08,19.09 -9.17,0 -18.15,-1.94 -26.38,-5.59 -8.19,-3.63 -15.66,-8.99 -21.88,-15.85 -4.13,-4.57 -3.78,-11.61 0.79,-15.74 4.56,-4.13 11.61,-3.78 15.74,0.78 4.02,4.44 8.92,7.94 14.36,10.35 5.4,2.39 11.31,3.67 17.37,3.67 11.82,0 22.51,-4.79 30.26,-12.53 7.74,-7.75 12.53,-18.44 12.53,-30.26z"/>
   <path class="fil0" d="M195.62 148.11c0.07,-6.15 5.12,-11.09 11.28,-11.02 6.16,0.08 11.09,5.13 11.02,11.29l-0.82 62.76c-0.07,6.16 -5.12,11.1 -11.28,11.02 -6.16,-0.07 -11.09,-5.12 -11.02,-11.28l0.82 -62.77z"/>
  </g>
 </g>
</svg>
