<?xml version="1.0" encoding="UTF-8"?>
<!DOCTYPE svg PUBLIC "-//W3C//DTD SVG 1.1//EN" "http://www.w3.org/Graphics/SVG/1.1/DTD/svg11.dtd">
<!-- Creator: CorelDRAW 2020 (64-Bit Evaluation Version) -->
<svg xmlns="http://www.w3.org/2000/svg" xml:space="preserve" width="60px" height="60px" version="1.1" style="shape-rendering:geometricPrecision; text-rendering:geometricPrecision; image-rendering:optimizeQuality; fill-rule:evenodd; clip-rule:evenodd"
viewBox="0 0 7.53 7.53"
 xmlns:xlink="http://www.w3.org/1999/xlink"
 xmlns:xodm="http://www.corel.com/coreldraw/odm/2003">
 <defs>
  <style type="text/css">
   <![CDATA[
    .str1 {stroke:#263674;stroke-width:0.46;stroke-linecap:round;stroke-linejoin:round;stroke-miterlimit:2.61313}
    .str0 {stroke:#263674;stroke-width:0.46;stroke-linecap:round;stroke-linejoin:bevel;stroke-miterlimit:2.61313}
    .fil0 {fill:none;fill-rule:nonzero}
   ]]>
  </style>
 </defs>
 <g id="Layer_x0020_1">
  <metadata id="CorelCorpID_0Corel-Layer"/>
  <g id="_1908001070016">
   <circle class="fil0 str0" cx="3.1" cy="3.1" r="0.83"/>
   <path class="fil0 str1" d="M3.1 5.98l-0.42 0c-0.05,0 -0.09,-0.04 -0.09,-0.09l0 -0.85 -0.48 -0.2 -0.61 0.6c-0.03,0.03 -0.09,0.03 -0.13,0l-0.6 -0.6c-0.04,-0.04 -0.04,-0.1 0,-0.13l0.6 -0.61 -0.2 -0.48 -0.85 0c-0.05,0 -0.09,-0.04 -0.09,-0.09l0 -0.85c0,-0.05 0.04,-0.09 0.09,-0.09l0.85 0 0.2 -0.48 -0.6 -0.61c-0.04,-0.03 -0.04,-0.09 0,-0.13l0.6 -0.6c0.04,-0.04 0.1,-0.04 0.13,0l0.61 0.6 0.48 -0.2 0 -0.85c0,-0.05 0.04,-0.09 0.09,-0.09l0.85 0c0.05,0 0.09,0.04 0.09,0.09l0 0.85 0.48 0.2 0.61 -0.6c0.03,-0.04 0.09,-0.04 0.13,0l0.6 0.6c0.03,0.04 0.03,0.1 0,0.13l-0.6 0.61"/>
   <path class="fil0 str1" d="M5.04 2.65l0 0c0.25,0 0.45,0.2 0.45,0.45l0 1.34 1.81 0.83 -0.01 1.2c-0.01,0.7 -0.99,1 -1.65,0.75l-1.2 -0.45 -0.47 -0.17c-0.23,-0.09 -0.35,-0.35 -0.26,-0.59l0 0c0.08,-0.23 0.35,-0.35 0.58,-0.26l0.29 0.11 0 -2.76c0,-0.25 0.21,-0.45 0.46,-0.45z"/>
  </g>
 </g>
</svg>
