<?xml version="1.0" encoding="UTF-8"?>
<!DOCTYPE svg PUBLIC "-//W3C//DTD SVG 1.1//EN" "http://www.w3.org/Graphics/SVG/1.1/DTD/svg11.dtd">
<!-- Creator: CorelDRAW 2020 (64-Bit Evaluation Version) -->
<svg xmlns="http://www.w3.org/2000/svg" xml:space="preserve" width="50px" height="50px" version="1.1" style="shape-rendering:geometricPrecision; text-rendering:geometricPrecision; image-rendering:optimizeQuality; fill-rule:evenodd; clip-rule:evenodd"
viewBox="0 0 13.55 13.54"
 xmlns:xlink="http://www.w3.org/1999/xlink"
 xmlns:xodm="http://www.corel.com/coreldraw/odm/2003">
 <defs>
  <style type="text/css">
   <![CDATA[
    .fil0 {fill:#263674}
    .fil1 {fill:#EFB30C}
   ]]>
  </style>
 </defs>
 <g id="Layer_x0020_1">
  <metadata id="CorelCorpID_0Corel-Layer"/>
  <g id="_2064303145648">
   <path class="fil0" d="M13.16 2.07l-0.47 0.47c-0.1,0.1 -0.22,0.15 -0.34,0.14 -0.13,-0.01 -0.24,-0.07 -0.34,-0.19 -0.64,-0.77 -1.41,-1.38 -2.3,-1.81 -0.93,-0.45 -1.91,-0.68 -2.94,-0.68 -1.08,0 -2.09,0.24 -3.04,0.71 -0.92,0.47 -1.69,1.11 -2.33,1.94 -0.63,0.82 -1.05,1.75 -1.26,2.77 -0.03,0.13 0,0.25 0.09,0.35 0.08,0.11 0.2,0.16 0.34,0.16l0.65 0c0.04,0 0.07,0 0.11,-0.01l0 0.01 0.77 0c0.03,-0.04 0.06,-0.08 0.07,-0.12l0.01 -0.03 0.02 -0.05c0.24,-1.06 0.84,-1.98 1.65,-2.62 0.81,-0.64 1.84,-1.02 2.93,-1.02 1.07,0 2.06,0.35 2.86,0.97 0.78,0.59 1.37,1.43 1.66,2.42l0.01 0.03 0.01 0.05c0.06,0.21 0.24,0.35 0.45,0.37l0.06 0 0 0 0 0 1.17 0c0.15,0 0.28,-0.05 0.38,-0.16 0.11,-0.1 0.17,-0.22 0.17,-0.37l0 -3.17c0,-0.15 -0.04,-0.23 -0.11,-0.26 -0.07,-0.03 -0.17,0 -0.28,0.1z"/>
   <path class="fil1" d="M12.96 7.62l-0.65 0 -0.04 0 0 0 0 0 0.72 0 -0.03 0zm-1.61 0.19c0.02,-0.06 0.05,-0.12 0.09,-0.18l0.72 0c0.04,-0.01 0.07,-0.01 0.11,-0.01l0 0 0.72 0 0.01 0c0.12,0.01 0.23,0.06 0.31,0.15 0.08,0.1 0.11,0.22 0.08,0.36 -0.21,1.02 -0.63,1.94 -1.26,2.77 -0.64,0.82 -1.41,1.46 -2.33,1.92 -0.95,0.48 -1.96,0.72 -3.03,0.72 -1.03,0 -2,-0.22 -2.92,-0.66 -0.88,-0.41 -1.65,-1 -2.29,-1.77 -0.09,-0.11 -0.2,-0.17 -0.34,-0.19 -0.14,-0.01 -0.27,0.03 -0.37,0.13l-0.46 0.44c-0.11,0.1 -0.2,0.13 -0.27,0.1 -0.08,-0.04 -0.12,-0.13 -0.12,-0.27l0 -3.18c0,-0.14 0.05,-0.27 0.16,-0.37 0.09,-0.09 0.2,-0.14 0.33,-0.15l0 0 1.22 0 0.01 0.01 0.12 0c0.19,0.04 0.35,0.17 0.4,0.36 0.27,1.03 0.87,1.9 1.67,2.51 0.8,0.62 1.8,0.98 2.86,0.98 1.1,0 2.13,-0.38 2.94,-1.03 0.81,-0.65 1.4,-1.57 1.64,-2.64zm-9.64 -0.19l0 0 -1.18 0 -0.04 0 0 0 0 0 1.22 0z"/>
   <polygon class="fil0" points="6.77,4.52 9.04,6.78 6.77,9.04 4.51,6.78 "/>
  </g>
 </g>
</svg>
