<?xml version="1.0" encoding="UTF-8"?>
<!DOCTYPE svg PUBLIC "-//W3C//DTD SVG 1.1//EN" "http://www.w3.org/Graphics/SVG/1.1/DTD/svg11.dtd">
<!-- Creator: CorelDRAW 2020 (64-Bit Evaluation Version) -->
<svg xmlns="http://www.w3.org/2000/svg" xml:space="preserve" width="50px" height="50px" version="1.1" style="shape-rendering:geometricPrecision; text-rendering:geometricPrecision; image-rendering:optimizeQuality; fill-rule:evenodd; clip-rule:evenodd"
viewBox="0 0 11.04 11.03"
 xmlns:xlink="http://www.w3.org/1999/xlink"
 xmlns:xodm="http://www.corel.com/coreldraw/odm/2003">
 <defs>
  <style type="text/css">
   <![CDATA[
    .fil0 {fill:#1F2C5E}
    .fil4 {fill:#263674}
    .fil2 {fill:#EFB30C}
    .fil1 {fill:#F3C84E}
    .fil3 {fill:white}
    .fil5 {fill:white;fill-rule:nonzero}
   ]]>
  </style>
 </defs>
 <g id="Layer_x0020_1">
  <metadata id="CorelCorpID_0Corel-Layer"/>
  <g id="_2063805819712">
   <ellipse class="fil0" cx="2.08" cy="5.43" rx="2.08" ry="0.74"/>
   <ellipse class="fil0" cx="8.96" cy="5.43" rx="2.08" ry="0.74"/>
   <path class="fil1" d="M8.59 5.45c0.02,-0.11 0.04,-0.21 0.06,-0.32 -0.02,0.11 -0.04,0.21 -0.06,0.32zm-5.05 0l5.05 0 0.28 0c0.02,-0.09 0.03,-0.18 0.05,-0.27 0.14,-0.83 0.14,-1.64 0.01,-2.35 -0.06,-0.31 -0.14,-0.61 -0.24,-0.88 -0.35,-0.92 -0.97,-1.56 -1.76,-1.7l-1.25 -0.22c-0.79,-0.14 -1.58,0.25 -2.23,1 -0.38,0.44 -0.71,0.99 -0.95,1.64 -0.16,0.41 -0.28,0.85 -0.37,1.32 -0.09,0.5 -0.12,0.99 -0.1,1.46l1.51 0zm0.11 -1.2c-0.07,0.41 -0.11,0.81 -0.11,1.2 0,-0.39 0.04,-0.79 0.11,-1.2zm0.71 -2.05c-0.32,0.58 -0.58,1.28 -0.71,2.05 0.13,-0.77 0.39,-1.47 0.71,-2.05zm2.53 -1.69c-0.92,-0.16 -1.88,0.53 -2.53,1.69 0.65,-1.16 1.61,-1.85 2.53,-1.69zm1.74 2.19c-0.26,-1.18 -0.89,-2.04 -1.74,-2.19 0.85,0.15 1.48,1.01 1.74,2.19zm0.02 2.43c0.16,-0.87 0.14,-1.71 -0.02,-2.43 0.16,0.72 0.18,1.56 0.02,2.43z"/>
   <path class="fil2" d="M3.54 5.45c0,-0.39 0.04,-0.79 0.11,-1.2 0.13,-0.77 0.39,-1.47 0.71,-2.05 0.65,-1.16 1.61,-1.85 2.53,-1.69 0.85,0.15 1.48,1.01 1.74,2.19 0.16,0.72 0.18,1.56 0.02,2.43 -0.02,0.11 -0.04,0.21 -0.06,0.32l0.28 0c0.02,-0.09 0.03,-0.18 0.05,-0.27 0.14,-0.83 0.14,-1.64 0.01,-2.35 -0.06,-0.31 -0.14,-0.61 -0.24,-0.88 -0.35,-0.92 -0.97,-1.56 -1.76,-1.7l-1.25 -0.22c-0.79,-0.14 -1.58,0.25 -2.23,1 -0.38,0.44 -0.71,0.99 -0.95,1.64 -0.16,0.41 -0.28,0.85 -0.37,1.32 -0.09,0.5 -0.12,0.99 -0.1,1.46l1.51 0z"/>
   <polygon class="fil3" points="6.36,3.29 7.09,4.03 6.36,5.08 5.62,4.35 "/>
   <path class="fil4" d="M0.14 5.45c-0.06,0 -0.11,-0.01 -0.14,-0.02l0 4.84c0,0.21 0.07,0.39 0.22,0.54 0.15,0.15 0.33,0.22 0.53,0.22l9.53 0c0.22,0 0.4,-0.07 0.54,-0.22 0.14,-0.15 0.22,-0.33 0.22,-0.54l0 -4.84c-0.03,0.01 -0.08,0.02 -0.13,0.02l-10.77 0z"/>
   <path class="fil5" d="M5.82 9.12l-4.29 0c-0.1,0 -0.19,-0.04 -0.26,-0.11 -0.08,-0.08 -0.11,-0.16 -0.11,-0.27l0 -1.01c0,-0.11 0.03,-0.2 0.11,-0.27 0.07,-0.07 0.16,-0.11 0.26,-0.11l4.29 0c0.11,0 0.2,0.04 0.27,0.11 0.07,0.07 0.11,0.16 0.11,0.27l0 1.01 0.01 0c0,0.11 -0.04,0.19 -0.11,0.27 -0.08,0.07 -0.17,0.11 -0.28,0.11z"/>
  </g>
 </g>
</svg>
