<?xml version="1.0" encoding="UTF-8"?>
<!DOCTYPE svg PUBLIC "-//W3C//DTD SVG 1.1//EN" "http://www.w3.org/Graphics/SVG/1.1/DTD/svg11.dtd">
<!-- Creator: CorelDRAW 2020 (64-Bit Evaluation Version) -->
<svg xmlns="http://www.w3.org/2000/svg" xml:space="preserve" width="50px" height="50px" version="1.1" style="shape-rendering:geometricPrecision; text-rendering:geometricPrecision; image-rendering:optimizeQuality; fill-rule:evenodd; clip-rule:evenodd"
viewBox="0 0 12.97 12.97"
 xmlns:xlink="http://www.w3.org/1999/xlink"
 xmlns:xodm="http://www.corel.com/coreldraw/odm/2003">
 <defs>
  <style type="text/css">
   <![CDATA[
    .fil2 {fill:#263674}
    .fil0 {fill:#EFB30C}
    .fil1 {fill:#263674;fill-rule:nonzero}
   ]]>
  </style>
 </defs>
 <g id="Layer_x0020_1">
  <metadata id="CorelCorpID_0Corel-Layer"/>
  <g id="_2064431997904">
   <path class="fil0" d="M6.38 4.77l0 -4.77 6.59 0 0 5.78c-0.94,-1.1 -2.33,-1.79 -3.88,-1.79 -1,0 -1.93,0.28 -2.71,0.78z"/>
   <path class="fil0" d="M0 2.37l1.4 0 0 4.8 2.96 0c-0.24,0.59 -0.37,1.24 -0.37,1.91 0,1.56 0.7,2.95 1.8,3.89l-5.79 0 0 -10.6z"/>
   <path class="fil1" d="M9.17 5.38c-0.69,0 -1.33,0.17 -1.91,0.52 -0.58,0.33 -1.03,0.78 -1.36,1.36 -0.34,0.59 -0.52,1.22 -0.52,1.91 0,0.69 0.18,1.33 0.52,1.92 0.33,0.57 0.78,1.02 1.36,1.36 0.58,0.34 1.22,0.52 1.91,0.52 0.69,0 1.33,-0.18 1.92,-0.52 0.57,-0.34 1.02,-0.79 1.36,-1.36 0.34,-0.59 0.52,-1.23 0.52,-1.92 0,-0.69 -0.18,-1.32 -0.52,-1.91 -0.34,-0.58 -0.79,-1.03 -1.36,-1.36 -0.59,-0.35 -1.23,-0.52 -1.92,-0.52zm2.62 4.04c0,0 0,0.01 0,0.02 -0.01,0.1 -0.03,0.18 -0.05,0.24l-5.14 0 -0.01 -0.04c-0.02,-0.11 -0.03,-0.18 -0.04,-0.23 0,-0.06 0,-0.14 0,-0.25 0,-0.11 0,-0.19 0,-0.23 0.01,-0.05 0.02,-0.12 0.04,-0.22l0.01 -0.05 5.14 0c0.02,0.06 0.04,0.15 0.05,0.27 0,0.06 0.01,0.14 0.01,0.25 0,0.11 -0.01,0.19 -0.01,0.24z"/>
   <rect class="fil2" x="2.96" width="1.79" height="4.89"/>
  </g>
 </g>
</svg>
