<?xml version="1.0" encoding="UTF-8"?>
<!DOCTYPE svg PUBLIC "-//W3C//DTD SVG 1.1//EN" "http://www.w3.org/Graphics/SVG/1.1/DTD/svg11.dtd">
<!-- Creator: CorelDRAW 2020 (64-Bit) -->
<svg xmlns="http://www.w3.org/2000/svg" xml:space="preserve" width="64px" height="64px" version="1.1" style="shape-rendering:geometricPrecision; text-rendering:geometricPrecision; image-rendering:optimizeQuality; fill-rule:evenodd; clip-rule:evenodd"
viewBox="0 0 0.36 0.36"
 xmlns:xlink="http://www.w3.org/1999/xlink"
 xmlns:xodm="http://www.corel.com/coreldraw/odm/2003">
 <defs>
  <style type="text/css">
   <![CDATA[
    .fil5 {fill:none}
    .fil4 {fill:black;fill-rule:nonzero}
    .fil3 {fill:#000088;fill-rule:nonzero}
    .fil2 {fill:#128807;fill-rule:nonzero}
    .fil0 {fill:#FF9933;fill-rule:nonzero}
    .fil1 {fill:white;fill-rule:nonzero}
   ]]>
  </style>
   <clipPath id="id0">
    <path d="M0.18 0c0.1,0 0.18,0.08 0.18,0.18 0,0.1 -0.08,0.18 -0.18,0.18 -0.1,0 -0.18,-0.08 -0.18,-0.18 0,-0.1 0.08,-0.18 0.18,-0.18z"/>
   </clipPath>
 </defs>
 <g id="Layer_x0020_1">
  <metadata id="CorelCorpID_0Corel-Layer"/>
  <g>
  </g>
  <g style="clip-path:url(#id0)">
   <g>
    <path class="fil0" d="M-0.05 0l0.46 0c0.01,0 0.03,0.01 0.03,0.03l0 0.3c0,0.02 -0.02,0.03 -0.03,0.03l-0.46 0c-0.02,0 -0.03,-0.01 -0.03,-0.03l0 -0.3c0,-0.02 0.01,-0.03 0.03,-0.03l0 0z"/>
    <polygon class="fil1" points="-0.08,0.12 0.44,0.12 0.44,0.24 -0.08,0.24 "/>
    <path class="fil2" d="M-0.08 0.24l0.52 0 0 0.09c0,0.02 -0.02,0.03 -0.03,0.03l-0.46 0c-0.02,0 -0.03,-0.01 -0.03,-0.03l0 -0.09 0 0z"/>
    <path class="fil3" d="M0.23 0.18c0,-0.03 -0.02,-0.05 -0.05,-0.05 -0.03,0 -0.05,0.02 -0.05,0.05 0,0.03 0.02,0.05 0.05,0.05 0.03,0 0.05,-0.02 0.05,-0.05l0 0z"/>
    <path class="fil1" d="M0.22 0.18c0,-0.02 -0.02,-0.04 -0.04,-0.04 -0.02,0 -0.04,0.02 -0.04,0.04 0,0.02 0.02,0.04 0.04,0.04 0.02,0 0.04,-0.02 0.04,-0.04l0 0z"/>
    <path class="fil3" d="M0.19 0.18c0,-0.01 -0.01,-0.01 -0.01,-0.01 -0.01,0 -0.01,0 -0.01,0.01 0,0 0,0.01 0.01,0.01 0,0 0.01,-0.01 0.01,-0.01l0 0z"/>
    <path class="fil3" d="M0.22 0.18c0,0 0,0 0,0 0,0 0,0 0,0 0,0.01 0,0.01 0,0.01 0,0 0,0 0,-0.01l0 0z"/>
    <polygon class="fil3" points="0.18,0.22 0.18,0.2 0.18,0.18 0.18,0.2 "/>
    <path class="fil4" d="M0.22 0.2c0,-0.01 0,-0.01 0,-0.01 0,0 0,0 0,0 0,0.01 0,0.01 0,0.01 0,0 0,0 0,0l0 0z"/>
    <polygon class="fil4" points="0.17,0.22 0.18,0.2 0.18,0.18 0.17,0.2 "/>
    <path class="fil4" d="M0.21 0.21c0,0 0,-0.01 0,-0.01 0,0 0,0 0,0 0,0 0,0.01 0,0.01 0,0 0,0 0,0l0 0z"/>
    <polygon class="fil4" points="0.16,0.22 0.17,0.19 0.18,0.18 0.17,0.19 "/>
    <path class="fil4" d="M0.21 0.21c0,0 0,0 0,0 0,0 -0.01,0 -0.01,0 0,0 0,0 0,0 0,0 0.01,0 0.01,0l0 0z"/>
    <polygon class="fil4" points="0.15,0.21 0.17,0.19 0.18,0.18 0.17,0.19 "/>
    <path class="fil4" d="M0.2 0.22c0,0 0,0 0,0 0,0 0,0 -0.01,0 0,0 0,0 0,0 0,0 0,0 0.01,0l0 0z"/>
    <polygon class="fil4" points="0.14,0.2 0.17,0.19 0.18,0.18 0.16,0.19 "/>
    <path class="fil4" d="M0.18 0.22c0.01,0 0.01,0 0.01,0 0,0 0,0 -0.01,0 0,0 0,0 0,0 0,0 0,0 0,0l0 0z"/>
    <polygon class="fil4" points="0.14,0.19 0.16,0.18 0.17,0.18 0.16,0.18 "/>
    <path class="fil4" d="M0.17 0.22c0,0 0.01,0 0.01,0 0,0 0,0 -0.01,0 0,0 0,0 0,0 0,0 0,0 0,0l0 0z"/>
    <polygon class="fil4" points="0.14,0.18 0.16,0.18 0.17,0.18 0.16,0.18 "/>
    <path class="fil4" d="M0.16 0.22c0,0 0,0 0.01,0 0,0 0,0 -0.01,0 0,0 0,0 0,0 0,0 0,0 0,0l0 0z"/>
    <polygon class="fil4" points="0.14,0.17 0.16,0.18 0.17,0.18 0.16,0.17 "/>
    <path class="fil4" d="M0.15 0.21c0,0 0,0 0.01,0 0,0 0,0 0,0 -0.01,0 -0.01,0 -0.01,0 0,0 0,0 0,0l0 0z"/>
    <polygon class="fil4" points="0.14,0.16 0.16,0.17 0.18,0.18 0.17,0.17 "/>
    <path class="fil4" d="M0.14 0.21c0.01,0 0.01,0 0.01,0 0,0 0,-0.01 0,-0.01 0,0 0,0 -0.01,0 0,0 0,0.01 0,0.01l0 0z"/>
    <polygon class="fil4" points="0.15,0.15 0.17,0.17 0.18,0.18 0.17,0.17 "/>
    <path class="fil4" d="M0.14 0.2c0,0 0,0 0,0 0,0 0,0 0,-0.01 0,0 0,0 0,0 0,0 0,0 0,0.01l0 0z"/>
    <polygon class="fil4" points="0.16,0.14 0.17,0.17 0.18,0.18 0.17,0.16 "/>
    <path class="fil4" d="M0.14 0.18c0,0.01 0,0.01 0,0.01 0,0 0,0 0,-0.01 0,0 0,0 0,0 0,0 0,0 0,0l0 0z"/>
    <polygon class="fil4" points="0.17,0.14 0.17,0.16 0.18,0.17 0.18,0.16 "/>
    <path class="fil4" d="M0.14 0.17c0,0 0,0.01 0,0.01 0,0 0,0 0,-0.01 0,0 0,0 0,0 0,0 0,0 0,0l0 0z"/>
    <polygon class="fil4" points="0.18,0.14 0.18,0.16 0.18,0.17 0.18,0.16 "/>
    <path class="fil4" d="M0.14 0.16c0,0 0,0 0,0.01 0,0 0,0 0,-0.01 0,0 0,0 0,0 0,0 0,0 0,0l0 0z"/>
    <polygon class="fil4" points="0.19,0.14 0.18,0.16 0.18,0.17 0.18,0.16 "/>
    <path class="fil4" d="M0.14 0.15c0,0 0,0 0,0.01 0.01,0 0.01,0 0.01,0 0,-0.01 0,-0.01 0,-0.01 0,0 0,0 -0.01,0l0 0z"/>
    <polygon class="fil4" points="0.2,0.14 0.19,0.16 0.18,0.18 0.19,0.17 "/>
    <path class="fil4" d="M0.15 0.14c0,0.01 0,0.01 0,0.01 0,0 0,0 0.01,0 0,0 0,0 0,-0.01 -0.01,0 -0.01,0 -0.01,0l0 0z"/>
    <polygon class="fil4" points="0.21,0.15 0.19,0.17 0.18,0.18 0.19,0.17 "/>
    <path class="fil4" d="M0.16 0.14c0,0 0,0 0,0 0,0 0,0 0,0 0.01,0 0.01,0 0.01,0 -0.01,0 -0.01,0 -0.01,0l0 0z"/>
    <polygon class="fil4" points="0.22,0.16 0.19,0.17 0.18,0.18 0.19,0.17 "/>
    <path class="fil4" d="M0.17 0.14c0,0 0,0 0,0 0,0 0,0 0,0 0.01,0 0.01,0 0.01,0 0,0 -0.01,0 -0.01,0l0 0z"/>
    <polygon class="fil4" points="0.22,0.17 0.2,0.17 0.18,0.18 0.2,0.18 "/>
    <path class="fil4" d="M0.18 0.14c0,0 0,0 0,0 0,0 0,0 0,0 0.01,0 0.01,0 0.01,0 0,0 0,0 -0.01,0l0 0z"/>
    <polygon class="fil4" points="0.22,0.18 0.2,0.18 0.18,0.18 0.2,0.18 "/>
    <path class="fil4" d="M0.2 0.14c0,0 -0.01,0 -0.01,0 0,0 0,0 0,0 0.01,0 0.01,0 0.01,0 0,0 0,0 0,0l0 0z"/>
    <polygon class="fil4" points="0.22,0.19 0.2,0.18 0.18,0.18 0.2,0.18 "/>
    <path class="fil4" d="M0.21 0.14c0,0 -0.01,0 -0.01,0 0,0.01 0,0.01 0,0.01 0,0 0.01,0 0.01,0 0,0 0,0 0,-0.01l0 0z"/>
    <polygon class="fil4" points="0.22,0.2 0.19,0.19 0.18,0.18 0.19,0.19 "/>
    <path class="fil4" d="M0.21 0.15c0,0 0,0 0,0 0,0 0,0 0,0.01 0,0 0,0 0,0 0,-0.01 0,-0.01 0,-0.01l0 0z"/>
    <polygon class="fil4" points="0.21,0.21 0.19,0.19 0.18,0.18 0.19,0.19 "/>
    <path class="fil4" d="M0.22 0.16c0,0 0,0 0,0 0,0 0,0 0,0 0,0.01 0,0.01 0,0.01 0,-0.01 0,-0.01 0,-0.01l0 0z"/>
    <polygon class="fil4" points="0.2,0.22 0.19,0.19 0.18,0.18 0.19,0.19 "/>
    <path class="fil4" d="M0.22 0.17c0,0 0,0 0,0 0,0 0,0 0,0 0,0.01 0,0.01 0,0.01 0,0 0,-0.01 0,-0.01l0 0z"/>
    <polygon class="fil4" points="0.19,0.22 0.18,0.2 0.18,0.18 0.18,0.2 "/>
   </g>
  </g>
  <path class="fil5" d="M0.18 0c0.1,0 0.18,0.08 0.18,0.18 0,0.1 -0.08,0.18 -0.18,0.18 -0.1,0 -0.18,-0.08 -0.18,-0.18 0,-0.1 0.08,-0.18 0.18,-0.18z"/>
 </g>
</svg>
