<?xml version="1.0" encoding="UTF-8"?>
<!DOCTYPE svg PUBLIC "-//W3C//DTD SVG 1.1//EN" "http://www.w3.org/Graphics/SVG/1.1/DTD/svg11.dtd">
<!-- Creator: CorelDRAW 2020 (64-Bit Evaluation Version) -->
<svg xmlns="http://www.w3.org/2000/svg" xml:space="preserve" width="60px" height="60px" version="1.1" style="shape-rendering:geometricPrecision; text-rendering:geometricPrecision; image-rendering:optimizeQuality; fill-rule:evenodd; clip-rule:evenodd"
viewBox="0 0 0.69 0.69"
 xmlns:xlink="http://www.w3.org/1999/xlink"
 xmlns:xodm="http://www.corel.com/coreldraw/odm/2003">
 <defs>
  <style type="text/css">
   <![CDATA[
    .fil1 {fill:#263674;fill-rule:nonzero}
    .fil0 {fill:#FEC00F;fill-rule:nonzero}
   ]]>
  </style>
 </defs>
 <g id="Layer_x0020_1">
  <metadata id="CorelCorpID_0Corel-Layer"/>
  <g id="_1964160862512">
   <path class="fil0" d="M0.15 0.29c0,0 0,0 0,0 -0.01,0 -0.01,0 -0.01,0 -0.01,0 -0.01,-0.01 -0.01,-0.02 0,0 0,0 0,0 0.02,-0.04 0.08,-0.12 0.22,-0.12 0.05,0 0.1,0.02 0.15,0.05 0.03,0.02 0.05,0.05 0.06,0.07 0,0 0,0 0,0 0,0.01 0,0.01 0,0.02 -0.01,0 -0.01,0 -0.01,0 -0.01,0 -0.01,0 -0.02,-0.01 -0.01,-0.02 -0.06,-0.09 -0.18,-0.09 -0.12,0 -0.17,0.06 -0.19,0.09 0,0.01 -0.01,0.01 -0.01,0.01 0,0 0,0 0,0l0 0z"/>
   <path class="fil1" d="M0.41 0.6c0,0 0,0 0,0 0,0 0,0 0,0 -0.1,-0.03 -0.13,-0.13 -0.13,-0.13l-0.01 0c0,0 -0.02,-0.07 0.01,-0.11 0.02,-0.02 0.04,-0.02 0.07,-0.02 0.02,0 0.04,0 0.05,0.02 0.01,0.01 0.02,0.03 0.02,0.05 0.01,0.03 0.02,0.05 0.05,0.05 0.02,0 0.03,-0.01 0.03,-0.02 0.02,-0.02 0.02,-0.05 0.01,-0.08 -0.02,-0.04 -0.07,-0.12 -0.16,-0.12 -0.04,0 -0.08,0.02 -0.11,0.04 -0.03,0.02 -0.04,0.05 -0.05,0.08 -0.02,0.05 0,0.14 0,0.14 0,0 0,0 0,0 0,0.01 0,0.02 -0.01,0.02 0,0 0,0 0,0 -0.01,0 -0.02,-0.01 -0.02,-0.01 0,-0.01 -0.02,-0.1 0,-0.16 0.02,-0.07 0.08,-0.14 0.19,-0.14 0.04,0 0.09,0.02 0.12,0.05 0.03,0.02 0.06,0.05 0.07,0.09 0.01,0.04 0.01,0.08 -0.01,0.11 -0.02,0.02 -0.04,0.03 -0.06,0.03 -0.06,0 -0.07,-0.05 -0.08,-0.08 -0.01,-0.03 -0.01,-0.04 -0.04,-0.04 -0.02,0 -0.03,0 -0.04,0.01 -0.01,0.01 -0.01,0.03 -0.01,0.05 0,0.01 0,0.02 0.01,0.03 0,0.01 0.03,0.09 0.11,0.11 0,0 0.01,0 0.01,0.01 0,0 0,0 0,0 0,0.01 -0.01,0.02 -0.02,0.02 0,0 0,0 0,0l0 0z"/>
   <path class="fil0" d="M0.29 0.59c0,0 0,0 0,0 -0.01,0 -0.01,0 -0.01,-0.01 -0.04,-0.04 -0.06,-0.08 -0.07,-0.14l0 0c-0.01,-0.04 0,-0.09 0.03,-0.13 0.03,-0.02 0.06,-0.04 0.11,-0.04 0.05,0 0.09,0.03 0.11,0.07 0.02,0.03 0.02,0.07 0.02,0.07 0,0 0,0 0,0 0,0.01 0,0.01 -0.01,0.01 0,0 0,0 0,0 -0.01,0 -0.02,0 -0.02,-0.01l0 0c0,-0.02 -0.01,-0.04 -0.02,-0.05 -0.02,-0.04 -0.04,-0.06 -0.08,-0.06 -0.04,0 -0.06,0.01 -0.08,0.03 -0.03,0.03 -0.03,0.08 -0.03,0.11 0.01,0.05 0.03,0.09 0.06,0.12 0,0.01 0,0.01 0,0.01 0,0.01 0,0.01 0,0.01 0,0.01 -0.01,0.01 -0.01,0.01l0 0z"/>
   <path class="fil0" d="M0.47 0.54c-0.04,0 -0.07,-0.01 -0.09,-0.02 -0.04,-0.04 -0.05,-0.1 -0.05,-0.1 0,0 0,-0.01 0,-0.01 0,0 0.01,-0.01 0.02,-0.01 0,0 0.01,0 0.01,0.01 0,0 0.01,0.05 0.04,0.08 0.02,0.02 0.05,0.03 0.09,0.02 0,0 0,0 0,0 0.01,0 0.01,0.01 0.01,0.02 0,0 0,0 0,0 0,0.01 0,0.01 -0.01,0.01 -0.01,0 -0.02,0 -0.02,0l0 0z"/>
   <path class="fil1" d="M0.49 0.13c-0.01,-0.01 -0.06,-0.03 -0.14,-0.03 -0.1,0 -0.14,0.02 -0.15,0.03 0,0 0,0 -0.01,0 0,0 0,0 0,0 0,0.01 0,0.01 0,0.01 0,0.01 0.01,0.02 0.01,0.02 0,0 0,0 0,0 0.01,0 0.01,0 0.01,0 0,0 0.04,-0.03 0.14,-0.03 0.09,0 0.13,0.03 0.13,0.03 0,0 0,0 0.01,0 0,0 0,0 0,0 0,0 0,0 0,0 0.01,0 0.01,-0.01 0.01,-0.02 0,0 0,0 0,0 0,0 0,-0.01 -0.01,-0.01l0 0z"/>
   <polygon class="fil1" points="0.04,0.52 0.04,0.65 0.2,0.65 0.2,0.69 0,0.69 0,0.52 "/>
   <polygon class="fil1" points="0.65,0.17 0.65,0.04 0.49,0.04 0.49,0 0.69,0 0.69,0.17 "/>
   <polygon class="fil1" points="0,0.17 0,0 0.2,0 0.2,0.04 0.04,0.04 0.04,0.17 "/>
   <polygon class="fil1" points="0.69,0.52 0.69,0.69 0.49,0.69 0.49,0.65 0.65,0.65 0.65,0.52 "/>
  </g>
 </g>
</svg>
