<?xml version="1.0" encoding="UTF-8"?>
<!DOCTYPE svg PUBLIC "-//W3C//DTD SVG 1.1//EN" "http://www.w3.org/Graphics/SVG/1.1/DTD/svg11.dtd">
<!-- Creator: CorelDRAW 2020 (64-Bit Evaluation Version) -->
<svg xmlns="http://www.w3.org/2000/svg" xml:space="preserve" width="60px" height="60px" version="1.1" style="shape-rendering:geometricPrecision; text-rendering:geometricPrecision; image-rendering:optimizeQuality; fill-rule:evenodd; clip-rule:evenodd"
viewBox="0 0 0.36 0.36"
 xmlns:xlink="http://www.w3.org/1999/xlink"
 xmlns:xodm="http://www.corel.com/coreldraw/odm/2003">
 <defs>
  <style type="text/css">
   <![CDATA[
    .str1 {stroke:#263674;stroke-width:0.02;stroke-miterlimit:2.61313}
    .str0 {stroke:#263674;stroke-width:0.02;stroke-linecap:round;stroke-miterlimit:2.61313}
    .fil1 {fill:none}
    .fil2 {fill:#263674}
    .fil0 {fill:#FEC00F}
   ]]>
  </style>
 </defs>
 <g id="Layer_x0020_1">
  <metadata id="CorelCorpID_0Corel-Layer"/>
  <g id="_1963973232400">
   <path class="fil0" d="M0.16 0.31l-0.02 -0.04c0,-0.01 0,-0.02 -0.01,-0.03 0,0 0,0 0,0l-0.01 -0.05 -0.02 -0.08 -0.05 0.25c0.06,0 0.06,0 0.12,0l-0.01 -0.05z"/>
   <path class="fil1 str0" d="M0.05 0.18c-0.03,-0.02 -0.04,-0.04 -0.04,-0.08l0 0c0,-0.05 0.04,-0.09 0.09,-0.09l0.16 0c0.05,0 0.1,0.04 0.1,0.09l0 0c0,0.04 -0.02,0.07 -0.05,0.08"/>
   <path class="fil1 str0" d="M0.06 0.15c-0.01,-0.02 -0.01,-0.03 -0.01,-0.04l0 0c0,-0.03 0.03,-0.06 0.06,-0.06l0.14 0c0.04,0 0.07,0.03 0.07,0.06l0 0c0,0.01 -0.01,0.03 -0.02,0.04"/>
   <path class="fil1 str1" d="M0.11 0.1l0.14 0c0.01,0 0.02,0.01 0.02,0.02l0.04 0.22c0,0.01 0,0.02 -0.01,0.02l-0.23 0c-0.01,0 -0.02,-0.01 -0.02,-0.02l0.05 -0.22c0,-0.01 0,-0.02 0.01,-0.02z"/>
   <path class="fil1 str1" d="M0.1 0.28c0.01,0.01 0.02,0.02 0.02,0.03l0.12 0c0.01,-0.01 0.01,-0.02 0.02,-0.03l-0.02 -0.11c-0.01,0 -0.03,-0.01 -0.03,-0.02l-0.05 0c0,0.01 -0.02,0.02 -0.03,0.02 0,0 0,0 -0.01,0l-0.02 0.11z"/>
   <path class="fil2" d="M0.23 0.23c0,0.02 -0.02,0.05 -0.05,0.05 -0.03,0 -0.04,-0.02 -0.05,-0.04 0,0 0,0 0,-0.01 0.01,0.03 0.03,0.05 0.05,0.04 0.03,0 0.05,-0.02 0.05,-0.04 0,0 0,0 0,0z"/>
   <line class="fil0" x1="0.22" y1="0.23" x2="0.22" y2= "0.23" />
   <path class="fil0" d="M0.22 0.23c0,0 0,0.01 0,0.02l0 0 -0.07 -0.05c0,-0.01 0.01,-0.01 0.01,-0.01 0,0 0.01,0 0.02,0 0.02,0 0.03,0.01 0.04,0.02l0 0 0 0.01c0,0 0,0 0,0.01z"/>
   <path class="fil2" d="M0.16 0.24l0 -0.01 0.02 0c0,0 0,0.01 0,0.01 -0.01,0.01 -0.02,0 -0.02,0l0 0zm0.02 -0.01l0 -0.01 0.02 0c0,0.01 0,0.02 -0.01,0.02 0,0 -0.01,0 -0.01,-0.01zm0.03 -0.01l-0.01 0c0,0 0.01,-0.01 0,-0.01 0,0 0,0 0,0.01l-0.04 0c0,-0.01 0,-0.01 0,-0.01 -0.01,0.01 0,0.01 0,0.01l-0.01 0c0,0 0,0.01 0,0.01l0.01 0 0 0.01c0,0.01 0.02,0.02 0.02,0 0.01,0 0,0.01 0.01,0.01 0.01,-0.01 0.02,-0.01 0.02,-0.02 0,0 0,0 0,-0.01 0,0 0,0 0,0l0 0z"/>
  </g>
 </g>
</svg>
