<?xml version="1.0" encoding="UTF-8"?>
<!DOCTYPE svg PUBLIC "-//W3C//DTD SVG 1.1//EN" "http://www.w3.org/Graphics/SVG/1.1/DTD/svg11.dtd">
<!-- Creator: CorelDRAW 2020 (64-Bit Evaluation Version) -->
<svg xmlns="http://www.w3.org/2000/svg" xml:space="preserve" width="60px" height="60px" version="1.1" style="shape-rendering:geometricPrecision; text-rendering:geometricPrecision; image-rendering:optimizeQuality; fill-rule:evenodd; clip-rule:evenodd"
viewBox="0 0 11.21 11.21"
 xmlns:xlink="http://www.w3.org/1999/xlink"
 xmlns:xodm="http://www.corel.com/coreldraw/odm/2003">
 <defs>
  <style type="text/css">
   <![CDATA[
    .fil4 {fill:#263674}
    .fil2 {fill:#FEC00F}
    .fil3 {fill:white}
    .fil1 {fill:#263674;fill-rule:nonzero}
    .fil0 {fill:#FEC00F;fill-rule:nonzero}
   ]]>
  </style>
 </defs>
 <g id="Layer_x0020_1">
  <metadata id="CorelCorpID_0Corel-Layer"/>
  <polygon class="fil0" points="10.73,7.96 10.73,11.21 0.48,11.21 0.48,7.96 1.49,7.96 1.49,10.2 9.72,10.2 9.72,7.96 "/>
  <polygon class="fil1" points="0.98,0 10.73,0 10.73,6.02 9.72,6.02 9.72,1.01 1.49,1.01 1.49,6.02 0.48,6.02 0.48,0 "/>
  <circle class="fil2" cx="5.6" cy="5.6" r="3.08"/>
  <path class="fil3" d="M5.6 7.6l-2.09 0c0,-1.16 0.93,-2.1 2.09,-2.1 1.16,0 2.1,0.94 2.1,2.1l-2.1 0z"/>
  <circle class="fil3" cx="5.6" cy="4.36" r="0.9"/>
  <rect class="fil4" y="6.39" width="11.21" height="1.21"/>
 </g>
</svg>
