<?xml version="1.0" encoding="UTF-8"?>
<!DOCTYPE svg PUBLIC "-//W3C//DTD SVG 1.1//EN" "http://www.w3.org/Graphics/SVG/1.1/DTD/svg11.dtd">
<!-- Creator: CorelDRAW 2020 (64-Bit Evaluation Version) -->
<svg xmlns="http://www.w3.org/2000/svg" xml:space="preserve" width="60px" height="60px" version="1.1" style="shape-rendering:geometricPrecision; text-rendering:geometricPrecision; image-rendering:optimizeQuality; fill-rule:evenodd; clip-rule:evenodd"
viewBox="0 0 11.21 11.21"
 xmlns:xlink="http://www.w3.org/1999/xlink"
 xmlns:xodm="http://www.corel.com/coreldraw/odm/2003">
 <defs>
  <style type="text/css">
   <![CDATA[
    .fil0 {fill:#263674}
    .fil1 {fill:#FEC00F}
    .fil2 {fill:white}
   ]]>
  </style>
 </defs>
 <g id="Layer_x0020_1">
  <metadata id="CorelCorpID_0Corel-Layer"/>
  <path class="fil0" d="M5.77 1.39l0 2.85c0,0.68 -0.55,1.24 -1.23,1.24l0 0c-0.69,0 -1.24,-0.56 -1.24,-1.24l0 -1.28 0 -1.57 0 -0.15c0,-0.68 0.55,-1.24 1.23,-1.24l0 0c0.68,0 1.24,0.56 1.24,1.24l0 0.15 0 0z"/>
  <path class="fil0" d="M8.49 2.11l0 2.86c0,0.68 -0.56,1.23 -1.24,1.23l0 0c-0.68,0 -1.24,-0.55 -1.24,-1.23l0 -1.29 0 -1.57 0 -0.15c0,-0.68 0.56,-1.24 1.24,-1.24l0 0c0.68,0 1.24,0.56 1.24,1.24l0 0.15 0 0z"/>
  <path class="fil0" d="M11.21 2.83l0 2.86c0,0.68 -0.56,1.23 -1.24,1.23l0 0c-0.68,0 -1.24,-0.55 -1.24,-1.23l0 -1.29 0 -1.57 0 -0.15c0,-0.68 0.56,-1.24 1.24,-1.24l0 0c0.68,0 1.23,0.56 1.23,1.24l0 0.15 0.01 0z"/>
  <path class="fil1" d="M0.62 3.96l2.24 0 0 0.44c0,0.46 0.19,0.88 0.49,1.18 0.31,0.3 0.73,0.49 1.19,0.49 0.43,0 0.82,-0.16 1.12,-0.43 0.08,0.25 0.23,0.48 0.41,0.66 0.3,0.31 0.72,0.49 1.18,0.49 0.43,0 0.83,-0.16 1.13,-0.43 0.08,0.25 0.22,0.48 0.41,0.66 0.3,0.31 0.72,0.5 1.18,0.5 0.46,0 0.88,-0.19 1.18,-0.5 0.02,-0.01 0.04,-0.03 0.06,-0.05l0 3.61c0,0.35 -0.28,0.63 -0.63,0.63l-6.6 0c0.02,-0.02 0.04,-0.04 0.06,-0.06 0.3,-0.3 0.49,-0.72 0.49,-1.18 0,-0.46 -0.19,-0.88 -0.49,-1.18 -0.3,-0.31 -0.72,-0.49 -1.18,-0.49l-2.86 0 0 -3.72c0,-0.34 0.28,-0.62 0.62,-0.62zm2.24 5.21l-2.43 0 0 1.6 2.43 0c0.22,0 0.42,-0.09 0.57,-0.23 0.14,-0.15 0.23,-0.35 0.23,-0.57 0,-0.22 -0.09,-0.42 -0.23,-0.57 -0.15,-0.14 -0.35,-0.23 -0.57,-0.23z"/>
  <path class="fil2" d="M5.31 3.74l-1.54 0 0 0.31 0 0.18c0,0.02 -0.01,0.03 -0.01,0.05 0.03,0.4 0.37,0.72 0.78,0.72 0.38,0 0.7,-0.28 0.76,-0.65 0.01,-0.04 0.01,-0.08 0.01,-0.12l0 -0.49z"/>
  <path class="fil2" d="M10.74 5.18l-1.54 0 0 0.32 0 0.17c0,0.02 0,0.04 0,0.05 0.02,0.41 0.36,0.73 0.77,0.73 0.38,0 0.7,-0.29 0.76,-0.65 0.01,-0.04 0.01,-0.08 0.01,-0.13l0 -0.49z"/>
  <g id="_1861944077968">
   <path class="fil2" d="M8.36 8.16l1.12 0c0.2,0 0.36,0.16 0.36,0.36l0 0c0,0.2 -0.16,0.36 -0.36,0.36l-1.12 0c-0.19,0 -0.36,-0.16 -0.36,-0.36l0 0c0,-0.2 0.16,-0.36 0.36,-0.36z"/>
   <path class="fil2" d="M8.36 9.32l2.24 0c0.2,0 0.36,0.16 0.36,0.36l0 0c0,0.2 -0.17,0.36 -0.36,0.36l-2.24 0c-0.19,0 -0.36,-0.16 -0.36,-0.36l0 0c0,-0.2 0.16,-0.36 0.36,-0.36z"/>
  </g>
  <path class="fil0" d="M0 8.73l2.86 0c0.68,0 1.24,0.56 1.24,1.24l0 0c0,0.68 -0.56,1.24 -1.24,1.24l-2.86 0 0 -2.48z"/>
  <path class="fil0" d="M0 8.73l2.86 0c0.68,0 1.24,0.56 1.24,1.24l0 0c0,0.68 -0.56,1.24 -1.24,1.24l-2.86 0 0 -2.48z"/>
  <path class="fil2" d="M2.35 9.19l0 1.55 0.32 0 0.18 0c0.01,0 0.03,0 0.04,0 0.41,-0.03 0.73,-0.36 0.73,-0.77 0,-0.39 -0.28,-0.71 -0.65,-0.77 -0.04,0 -0.08,-0.01 -0.12,-0.01l-0.5 0z"/>
  <g id="_1861944080800">
   <rect class="fil2" x="4.86" y="7.36" width="2.9" height="3.39" rx="0.16" ry="0.16"/>
   <circle class="fil0" cx="6.31" cy="8.64" r="0.61"/>
   <path class="fil0" d="M6.31 10.75l-1.17 0c0,-0.64 0.52,-1.16 1.17,-1.16 0.64,0 1.16,0.52 1.16,1.16l-1.16 0z"/>
  </g>
  <path class="fil2" d="M8.03 4.46l-1.55 0 0 0.31 0 0.18c0,0.02 0,0.04 0,0.05 0.03,0.4 0.36,0.73 0.77,0.73 0.39,0 0.71,-0.29 0.77,-0.65 0,-0.04 0.01,-0.09 0.01,-0.13l0 -0.49z"/>
 </g>
</svg>
