<?xml version="1.0" encoding="UTF-8"?>
<!DOCTYPE svg PUBLIC "-//W3C//DTD SVG 1.1//EN" "http://www.w3.org/Graphics/SVG/1.1/DTD/svg11.dtd">
<!-- Creator: CorelDRAW 2020 (64-Bit Evaluation Version) -->
<svg xmlns="http://www.w3.org/2000/svg" xml:space="preserve" width="60px" height="60px" version="1.1" style="shape-rendering:geometricPrecision; text-rendering:geometricPrecision; image-rendering:optimizeQuality; fill-rule:evenodd; clip-rule:evenodd"
viewBox="0 0 17.71 17.71"
 xmlns:xlink="http://www.w3.org/1999/xlink"
 xmlns:xodm="http://www.corel.com/coreldraw/odm/2003">
 <defs>
  <style type="text/css">
   <![CDATA[
    .fil0 {fill:#FEC00F}
    .fil1 {fill:#263674;fill-rule:nonzero}
   ]]>
  </style>
 </defs>
 <g id="Layer_x0020_1">
  <metadata id="CorelCorpID_0Corel-Layer"/>
  <g id="_2465356215504">
   <path class="fil0" d="M8.24 12.94l-3.51 -4.57c0.66,3.43 1.11,5.39 1.58,7.49l2.11 0.71 -0.18 -3.63 0 0z"/>
   <path class="fil1" d="M2.91 6.52c-0.22,-0.28 -0.17,-0.69 0.12,-0.91 0.29,-0.22 0.7,-0.17 0.92,0.12l5.38 7.02 0.14 0.37 0.16 3.91c0.01,0.36 -0.27,0.67 -0.63,0.68 -0.36,0.02 -0.66,-0.27 -0.68,-0.63l-0.15 -3.7 -5.26 -6.86z"/>
   <path class="fil1" d="M0.13 10.27c-0.22,-0.28 -0.16,-0.7 0.13,-0.91 0.29,-0.22 0.7,-0.16 0.92,0.12l4.44 5.87 3.55 1.08c0.34,0.11 0.54,0.47 0.43,0.82 -0.1,0.34 -0.47,0.54 -0.81,0.43l-3.76 -1.14 -0.33 -0.23 -4.57 -6.04z"/>
   <path class="fil1" d="M0.13 6.52c-0.21,-0.28 -0.16,-0.69 0.13,-0.91 0.29,-0.22 0.7,-0.17 0.92,0.12l5.22 6.85c0.22,0.29 0.16,0.7 -0.13,0.92 -0.28,0.22 -0.69,0.16 -0.91,-0.12l-5.23 -6.86z"/>
   <path class="fil0" d="M11.67 9.52l-4.19 -7.31c-0.72,0.72 -1.2,1.8 -1.2,2.88 0,2.51 2.04,4.55 4.43,4.55 0.36,0 0.72,-0.12 0.96,-0.12l0 0z"/>
   <path class="fil1" d="M14.49 5.09c0,-1.05 -0.43,-1.99 -1.11,-2.67 -0.68,-0.69 -1.63,-1.11 -2.67,-1.11 -1.04,0 -1.98,0.42 -2.67,1.11 -0.68,0.68 -1.1,1.62 -1.1,2.67 0,1.04 0.42,1.98 1.1,2.66 0.69,0.69 1.63,1.11 2.67,1.11 1.04,0 1.99,-0.42 2.67,-1.11 0.68,-0.68 1.11,-1.62 1.11,-2.66zm-0.18 -3.6c0.92,0.92 1.49,2.19 1.49,3.6 0,1.4 -0.57,2.67 -1.49,3.59 -0.92,0.92 -2.19,1.49 -3.6,1.49 -1.4,0 -2.67,-0.57 -3.59,-1.49 -0.92,-0.92 -1.49,-2.19 -1.49,-3.59 0,-1.41 0.57,-2.68 1.49,-3.6 0.92,-0.92 2.19,-1.49 3.59,-1.49 1.41,0 2.68,0.57 3.6,1.49z"/>
   <path class="fil1" d="M10.49 10.16c-0.36,0 -0.66,-0.3 -0.66,-0.66 0,-0.36 0.3,-0.66 0.66,-0.66 1.63,0 3.17,0.55 4.4,1.49 1.22,0.94 2.14,2.27 2.55,3.84 0.09,0.35 -0.12,0.7 -0.47,0.79 -0.35,0.1 -0.7,-0.11 -0.79,-0.46 -0.34,-1.28 -1.09,-2.37 -2.09,-3.13 -1,-0.77 -2.26,-1.21 -3.6,-1.21z"/>
   <path class="fil1" d="M16.4 16.31c0,-0.36 0.3,-0.65 0.66,-0.65 0.36,0 0.65,0.29 0.65,0.65l0 0.75c0,0.36 -0.29,0.65 -0.65,0.65 -0.36,0 -0.66,-0.29 -0.66,-0.65l0 -0.75z"/>
  </g>
 </g>
</svg>
