<?xml version="1.0" encoding="UTF-8"?>
<!DOCTYPE svg PUBLIC "-//W3C//DTD SVG 1.1//EN" "http://www.w3.org/Graphics/SVG/1.1/DTD/svg11.dtd">
<!-- Creator: CorelDRAW 2020 (64-Bit Evaluation Version) -->
<svg xmlns="http://www.w3.org/2000/svg" xml:space="preserve" width="60px" height="60px" version="1.1" style="shape-rendering:geometricPrecision; text-rendering:geometricPrecision; image-rendering:optimizeQuality; fill-rule:evenodd; clip-rule:evenodd"
viewBox="0 0 2.42 2.42"
 xmlns:xlink="http://www.w3.org/1999/xlink"
 xmlns:xodm="http://www.corel.com/coreldraw/odm/2003">
 <defs>
  <style type="text/css">
   <![CDATA[
    .fil0 {fill:#263674}
    .fil1 {fill:#FEC00F}
   ]]>
  </style>
 </defs>
 <g id="Layer_x0020_1">
  <metadata id="CorelCorpID_0Corel-Layer"/>
  <g id="_1826170100608">
   <path class="fil0" d="M0.77 0l1.48 0c0.1,0 0.17,0.08 0.17,0.17l0 1.09c0,0.09 -0.08,0.17 -0.17,0.17l-0.89 0 0 -0.95 -0.75 0 0 -0.31c0,-0.09 0.07,-0.17 0.16,-0.17zm1.44 0.95l0 0.16c-0.1,0 -0.21,-0.03 -0.3,-0.08 -0.09,0.05 -0.2,0.07 -0.3,0.08l-0.01 -0.16c0.05,0 0.11,0 0.16,-0.02 -0.07,-0.07 -0.11,-0.15 -0.14,-0.24l0.16 0c0.03,0.06 0.07,0.12 0.13,0.16 0.08,-0.06 0.13,-0.16 0.14,-0.28l-0.46 0 0 -0.15 0.23 0 0 -0.15 0.15 0 0 0.15 0.26 0 0 0.07c0.01,0.17 -0.05,0.33 -0.16,0.44 0.05,0.02 0.1,0.02 0.14,0.02z"/>
   <path class="fil1" d="M0.17 0.6l1.09 0 0 1.43 -0.53 0 -0.47 0.39 0 -0.39 -0.09 0c-0.09,0 -0.17,-0.08 -0.17,-0.17l0 -1.09c0,-0.09 0.08,-0.17 0.17,-0.17zm0.46 0.54l-0.09 0.26 0.17 0 -0.08 -0.26zm0.18 0.55l-0.04 -0.14 -0.27 0 -0.05 0.14 -0.2 0 0.28 -0.76 0.2 0 0.28 0.76 -0.2 0z"/>
  </g>
 </g>
</svg>
