<?xml version="1.0" encoding="UTF-8"?>
<!DOCTYPE svg PUBLIC "-//W3C//DTD SVG 1.1//EN" "http://www.w3.org/Graphics/SVG/1.1/DTD/svg11.dtd">
<!-- Creator: CorelDRAW 2020 (64-Bit Evaluation Version) -->
<svg xmlns="http://www.w3.org/2000/svg" xml:space="preserve" width="60px" height="60px" version="1.1" style="shape-rendering:geometricPrecision; text-rendering:geometricPrecision; image-rendering:optimizeQuality; fill-rule:evenodd; clip-rule:evenodd"
viewBox="0 0 0.67 0.67"
 xmlns:xlink="http://www.w3.org/1999/xlink"
 xmlns:xodm="http://www.corel.com/coreldraw/odm/2003">
 <defs>
  <style type="text/css">
   <![CDATA[
    .fil2 {fill:#263674}
    .fil0 {fill:#FEC00F}
    .fil1 {fill:#263674;fill-rule:nonzero}
   ]]>
  </style>
 </defs>
 <g id="Layer_x0020_1">
  <metadata id="CorelCorpID_0Corel-Layer"/>
  <g id="_1964154599712">
   <path class="fil0" d="M0.27 0.65c-0.14,-0.02 -0.26,-0.14 -0.26,-0.29 0,-0.09 0.05,-0.18 0.13,-0.23l0.13 0.52z"/>
   <path class="fil1" d="M0.58 0.36c0,0 0,-0.01 0.01,-0.01 0.01,0 0.02,0.01 0.02,0.01 0,0.09 -0.04,0.16 -0.09,0.22 -0.06,0.05 -0.13,0.09 -0.22,0.09 -0.08,0 -0.16,-0.04 -0.21,-0.09 -0.06,-0.06 -0.09,-0.13 -0.09,-0.22 0,-0.07 0.03,-0.14 0.08,-0.2l0 0c0.05,-0.05 0.11,-0.09 0.19,-0.1 0.01,0 0.02,0.01 0.02,0.02 0,0 -0.01,0.01 -0.02,0.01 -0.07,0.01 -0.13,0.04 -0.17,0.09 -0.04,0.05 -0.07,0.11 -0.07,0.18 0,0.08 0.03,0.15 0.08,0.2 0.05,0.05 0.12,0.08 0.19,0.08 0.08,0 0.15,-0.03 0.2,-0.08 0.05,-0.05 0.08,-0.12 0.08,-0.2z"/>
   <path class="fil1" d="M0.4 0.36c0,0 0.01,-0.01 0.02,-0.01 0,0 0.01,0.01 0.01,0.01 0,0.04 -0.01,0.07 -0.04,0.09 -0.02,0.03 -0.05,0.04 -0.09,0.04 -0.03,0 -0.06,-0.01 -0.09,-0.04 -0.02,-0.02 -0.04,-0.05 -0.04,-0.09 0,-0.03 0.02,-0.06 0.04,-0.09 0.03,-0.02 0.06,-0.03 0.09,-0.03 0.02,0 0.03,0 0.05,0 0.01,0.01 0.02,0.02 0.04,0.03 0,0 0,0.01 0,0.02 -0.01,0 -0.02,0 -0.02,0 -0.01,-0.01 -0.02,-0.01 -0.03,-0.02 -0.01,0 -0.03,0 -0.04,0 -0.02,0 -0.05,0.01 -0.07,0.02 -0.02,0.02 -0.03,0.05 -0.03,0.07 0,0.03 0.01,0.06 0.03,0.07 0.02,0.02 0.05,0.03 0.07,0.03 0.03,0 0.05,-0.01 0.07,-0.03 0.02,-0.01 0.03,-0.04 0.03,-0.07z"/>
   <circle class="fil2" transform="matrix(1.36443 -0.483969 0.483969 1.36443 0.231837 0.169291)" r="0.02"/>
   <circle class="fil2" transform="matrix(0.482548 -1.36493 1.36493 0.482548 0.104991 0.29628)" r="0.02"/>
   <circle class="fil2" transform="matrix(-0.757074 -1.23399 1.23399 -0.757074 0.12385 0.47477)" r="0.02"/>
   <circle class="fil2" transform="matrix(-1.43543 -0.188218 0.188218 -1.43543 0.274403 0.572523)" r="0.02"/>
   <circle class="fil2" transform="matrix(-1.04962 0.997091 -0.997091 -1.04962 0.445099 0.516956)" r="0.02"/>
   <path class="fil1" d="M0.3 0.38c-0.01,0 -0.01,-0.01 -0.01,-0.02 0,0 0,-0.01 0.01,-0.01l0.29 0c0.01,0 0.02,0.01 0.02,0.01 0,0.01 -0.01,0.02 -0.02,0.02l-0.29 0z"/>
   <path class="fil0" d="M0.51 0.28l-0.09 -0.22c-0.02,0.01 -0.02,0.01 -0.04,0.01l0 0.05c0,0.01 0,0.02 0,0.02 0.01,0.08 0.07,0.11 0.13,0.14z"/>
   <path class="fil1" d="M0.46 0.15c0,-0.01 0,-0.02 0,-0.02 0.01,-0.01 0.02,-0.01 0.02,0l0.03 0.02 0.07 -0.06c0,0 0.01,0 0.02,0 0,0.01 0,0.02 0,0.02l-0.09 0.08 -0.05 -0.04z"/>
   <path class="fil1" d="M0.42 0.06c-0.01,0 -0.01,0.01 -0.02,0.01 -0.01,0 -0.01,0 -0.02,0l0 0.05c0,0.01 0,0.02 0,0.02 0.01,0.08 0.07,0.11 0.13,0.14 0.06,-0.03 0.12,-0.06 0.13,-0.14 0,0 0,-0.01 0,-0.02l0 -0.05c0,0 -0.01,0 -0.01,0 -0.01,0 -0.02,-0.01 -0.03,-0.01 -0.01,0 -0.02,0 -0.02,-0.01 -0.01,0 -0.02,-0.01 -0.03,-0.01 0,0 0,0 -0.01,-0.01 0,0 0,0 -0.01,0 0,0 0,0 -0.01,0 0,0 0,0 -0.01,0 0,0 -0.01,0 -0.01,0 0,0 -0.01,0 -0.01,0 0,0 -0.01,0 -0.01,0 0,0.01 -0.01,0.01 -0.01,0.01 -0.01,0 -0.02,0.01 -0.02,0.01 -0.01,0.01 -0.02,0.01 -0.03,0.01zm-0.03 -0.02c0.01,0 0.02,0 0.03,0 0,0 0.01,-0.01 0.02,-0.01 0,0 0.01,-0.01 0.02,-0.01 0,0 0.01,-0.01 0.01,-0.01 0,0 0.01,0 0.01,0 0.01,0 0.01,-0.01 0.02,-0.01 0,0 0.01,0 0.01,0 0.01,0 0.01,0 0.02,0 0,0 0.01,0.01 0.01,0.01 0,0 0.01,0 0.01,0 0.01,0 0.01,0.01 0.02,0.01 0,0 0.01,0.01 0.02,0.01 0,0 0.01,0.01 0.02,0.01 0,0 0.01,0 0.02,0 0.01,0 0.01,0.01 0.02,0.01l0.01 0 0 0.07c0,0.01 0,0.02 0,0.03 -0.01,0.08 -0.08,0.12 -0.14,0.15l-0.01 0.01 0 -0.01c-0.07,-0.03 -0.14,-0.07 -0.15,-0.15 0,-0.01 0,-0.02 0,-0.03l0 -0.07 0.01 0c0.01,0 0.02,-0.01 0.02,-0.01z"/>
   <path class="fil1" d="M0.42 0.06c0,0.01 -0.01,0.01 -0.01,0.01 0,0 -0.01,0 -0.01,0 0,0 -0.01,0 -0.01,0l0 0 0 0.05c0,0.01 0,0.01 0,0.01 0,0.01 0,0.01 0,0.01 0.01,0.07 0.06,0.1 0.11,0.13l0.01 0.01 0.01 -0.01c0.06,-0.03 0.11,-0.06 0.12,-0.13 0,0 0,0 0,-0.01 0,0 0,0 0,-0.01l0 -0.05 -0.01 0c0,0 0,0 -0.01,0 0,0 0,0 -0.01,0 0,0 -0.01,0 -0.01,-0.01 0,0 -0.01,0 -0.01,0 -0.01,0 -0.01,0 -0.02,-0.01 0,0 0,0 -0.01,0 0,0 -0.01,-0.01 -0.01,-0.01 0,0 0,0 0,0 -0.01,0 -0.01,0 -0.01,0 0,0 0,-0.01 0,-0.01 -0.01,0 -0.01,0 -0.01,0 0,0 0,0 0,0 0,0 -0.01,0 -0.01,0 0,0 0,0 0,0 0,0 -0.01,0 -0.01,0 0,0 0,0 0,0 -0.01,0 -0.01,0 -0.01,0 0,0 0,0 -0.01,0 0,0 0,0 0,0 0,0 0,0 0,0 -0.01,0 -0.01,0.01 -0.01,0.01 0,0 0,0 0,0 -0.01,0 -0.01,0 -0.01,0 0,0 -0.01,0.01 -0.01,0.01 0,0 -0.01,0 -0.01,0 -0.01,0.01 -0.01,0.01 -0.01,0.01 -0.01,0 -0.01,0 -0.02,0zm-0.01 0c0,0 0.01,0 0.01,0 0.01,0 0.01,0 0.01,-0.01 0.01,0 0.01,0 0.01,0 0.01,0 0.01,0 0.02,-0.01 0,0 0,0 0.01,0 0,0 0,-0.01 0,-0.01 0,0 0.01,0 0.01,0 0,0 0,0 0,0 0.01,0 0.01,0 0.01,0 0,0 0,0 0,0 0.01,-0.01 0.01,-0.01 0.01,-0.01 0,0 0,0 0,0 0.01,0 0.01,0 0.01,0 0,0 0.01,0 0.01,0 0,0 0,0 0,0 0.01,0 0.01,0 0.01,0.01 0,0 0,0 0,0 0.01,0 0.01,0 0.01,0 0,0 0,0 0,0 0.01,0 0.01,0 0.01,0 0,0 0,0.01 0,0.01 0.01,0 0.01,0 0.02,0 0,0.01 0,0.01 0.01,0.01 0,0 0.01,0 0.01,0 0,0.01 0.01,0.01 0.01,0.01 0.01,0 0.01,0 0.01,0 0.01,0 0.01,0 0.02,0 0,0 0,0 0,0 0.01,0 0.01,0.01 0.01,0.01l0 0 0 0.05c0,0.01 0,0.01 0,0.01 0,0.01 0,0.01 0,0.01 -0.01,0.07 -0.06,0.1 -0.11,0.14l-0.02 0 -0.01 0c-0.06,-0.04 -0.11,-0.07 -0.12,-0.14 0,0 0,0 0,-0.01 0,0 0,0 0,-0.01l0 -0.05 0 0c0,0 0.01,-0.01 0.01,-0.01 0,0 0,0 0.01,0 0,0 0,0 0.01,0zm-0.02 -0.02c0.01,0 0.01,0 0.01,0 0.01,0 0.01,0 0.01,0 0.01,-0.01 0.01,-0.01 0.01,-0.01 0.01,0 0.01,0 0.02,0 0,0 0,-0.01 0.01,-0.01 0,0 0,0 0,0 0.01,0 0.01,-0.01 0.01,-0.01 0,0 0.01,0 0.01,0 0,0 0,0 0,0 0.01,0 0.01,-0.01 0.01,-0.01 0,0 0.01,0 0.01,0 0,0 0,0 0.01,0 0,0 0,0 0,0 0.01,0 0.01,0 0.01,0 0,0 0.01,0 0.01,0 0,0 0,0 0.01,0 0,0 0,0 0,0 0.01,0 0.01,0 0.01,0 0,0 0.01,0.01 0.01,0.01 0,0 0,0 0,0 0.01,0 0.01,0 0.01,0 0,0 0.01,0.01 0.01,0.01 0,0 0,0 0.01,0 0,0 0,0.01 0.01,0.01 0,0 0,0 0.01,0 0,0 0,0 0.01,0.01 0,0 0,0 0.01,0 0,0 0.01,0 0.01,0 0,0 0.01,0 0.01,0 0,0 0.01,0 0.01,0l0.02 0 0 0.08c0,0.01 0,0.01 0,0.01 0,0.01 0,0.01 0,0.02 -0.02,0.08 -0.08,0.12 -0.14,0.15l-0.02 0.01 -0.01 -0.01c-0.07,-0.03 -0.13,-0.07 -0.14,-0.15 0,-0.01 0,-0.01 0,-0.02 0,0 0,0 0,-0.01l0 -0.08 0.01 0c0,0 0.01,0 0.01,0 0.01,0 0.01,0 0.01,0zm0.02 0c-0.01,0.01 -0.01,0.01 -0.02,0.01 0,0 0,0 -0.01,0 0,0 -0.01,0 -0.01,0l-0.01 0 0 0.07c0,0.01 0,0.01 0,0.01 0,0.01 0,0.01 0,0.02 0.01,0.08 0.08,0.11 0.14,0.15l0.01 0 0.01 0c0.07,-0.04 0.13,-0.08 0.14,-0.15 0,-0.01 0,-0.01 0,-0.02 0,0 0,0 0,-0.01l0 -0.07 -0.01 0c0,0 -0.01,0 -0.01,0 0,0 -0.01,0 -0.01,0 -0.01,0 -0.01,0 -0.01,-0.01 -0.01,0 -0.01,0 -0.01,0 -0.01,0 -0.01,0 -0.01,0 -0.01,0 -0.01,0 -0.02,-0.01 0,0 0,0 -0.01,0 0,0 0,-0.01 -0.01,-0.01 0,0 0,0 0,0 0,0 -0.01,0 -0.01,0 0,-0.01 0,-0.01 0,-0.01 -0.01,0 -0.01,0 -0.01,0 0,0 -0.01,0 -0.01,0 0,0 0,0 0,0 -0.01,0 -0.01,0 -0.01,0 0,0 -0.01,0 -0.01,0 0,0 0,0 -0.01,0 0,0 0,0 0,0 -0.01,0 -0.01,0 -0.01,0 0,0 0,0 -0.01,0 0,0 0,0 0,0 0,0 -0.01,0 -0.01,0.01 0,0 0,0 -0.01,0 0,0 0,0 0,0 0,0 -0.01,0.01 -0.01,0.01 -0.01,0 -0.01,0 -0.01,0 -0.01,0.01 -0.01,0.01 -0.01,0.01 -0.01,0 -0.01,0 -0.01,0 -0.01,0 -0.01,0 -0.01,0z"/>
  </g>
 </g>
</svg>
