<?xml version="1.0" encoding="UTF-8"?>
<!DOCTYPE svg PUBLIC "-//W3C//DTD SVG 1.1//EN" "http://www.w3.org/Graphics/SVG/1.1/DTD/svg11.dtd">
<!-- Creator: CorelDRAW 2020 (64-Bit Evaluation Version) -->
<svg xmlns="http://www.w3.org/2000/svg" xml:space="preserve" width="31px" height="26px" version="1.1" style="shape-rendering:geometricPrecision; text-rendering:geometricPrecision; image-rendering:optimizeQuality; fill-rule:evenodd; clip-rule:evenodd"
viewBox="0 0 1.51 1.28"
 xmlns:xlink="http://www.w3.org/1999/xlink"
 xmlns:xodm="http://www.corel.com/coreldraw/odm/2003">
 <defs>
  <style type="text/css">
   <![CDATA[
    .fil0 {fill:#263674}
    .fil1 {fill:#FEC00F}
    .fil2 {fill:white}
   ]]>
  </style>
 </defs>
 <g id="Layer_x0020_1">
  <metadata id="CorelCorpID_0Corel-Layer"/>
  <g id="_2105098687888">
   <path class="fil0" d="M0 0.14c0.03,0 0.06,0.01 0.09,0.01 0.21,0.04 0.37,0.23 0.37,0.46 0,0.25 -0.19,0.45 -0.44,0.46l-0.02 0 0 -0.93zm0.16 0.71c-0.03,-0.01 -0.05,-0.02 -0.06,-0.04 -0.02,-0.02 -0.03,-0.05 -0.03,-0.08l0 -0.03 0.08 0 0 0.03c0,0.03 0.01,0.05 0.04,0.05 0.03,0 0.04,-0.02 0.04,-0.05 0,-0.02 0,-0.03 -0.01,-0.05 -0.01,-0.01 -0.03,-0.03 -0.06,-0.05 -0.03,-0.03 -0.05,-0.05 -0.07,-0.08 -0.01,-0.02 -0.02,-0.04 -0.02,-0.07 0,-0.04 0.01,-0.06 0.03,-0.08 0.01,-0.02 0.03,-0.04 0.06,-0.04l0 -0.05 0.07 0 0 0.05c0.03,0 0.05,0.02 0.06,0.04 0.02,0.02 0.02,0.05 0.02,0.08l0 0.01 -0.07 0 0 -0.02c0,-0.03 -0.02,-0.04 -0.04,-0.04 -0.03,0 -0.04,0.01 -0.04,0.04 0,0.02 0,0.04 0.01,0.05 0.01,0.02 0.03,0.03 0.06,0.05 0.03,0.03 0.05,0.06 0.06,0.08 0.02,0.02 0.02,0.05 0.02,0.08 0,0.03 0,0.06 -0.02,0.08 -0.01,0.02 -0.03,0.03 -0.06,0.04l0 0.05 -0.07 0 0 -0.05z"/>
   <path class="fil0" d="M0.76 0.04c0.09,0 0.18,-0.04 0.26,-0.04 0.06,0.07 0.09,0.15 0.14,0.23 -0.02,0.02 -0.04,0.03 -0.05,0.05l-0.01 0.02c-0.05,-0.06 -0.07,-0.14 -0.12,-0.2 -0.07,0 -0.15,0.04 -0.22,0.03 -0.09,0.01 -0.18,-0.03 -0.27,-0.03 -0.05,0.05 -0.06,0.12 -0.1,0.17 -0.02,-0.02 -0.04,-0.04 -0.07,-0.06 0.05,-0.07 0.07,-0.15 0.12,-0.21 0.11,0 0.21,0.04 0.32,0.04zm0.47 1c-0.09,0.04 -0.19,0.04 -0.28,0.09 -0.08,0.03 -0.14,0.12 -0.22,0.15 -0.1,-0.04 -0.17,-0.13 -0.27,-0.18 -0.06,-0.03 -0.13,-0.03 -0.19,-0.05 0.02,-0.02 0.05,-0.04 0.08,-0.06 0.05,0.01 0.11,0.01 0.15,0.04 0.09,0.04 0.15,0.11 0.23,0.15 0.07,-0.03 0.12,-0.1 0.19,-0.13 0.07,-0.04 0.15,-0.04 0.23,-0.07 0.02,0.02 0.05,0.04 0.08,0.06z"/>
   <path class="fil1" d="M0.75 0.19c0.07,0 0.14,-0.03 0.2,-0.03 0.05,0.05 0.07,0.13 0.11,0.19 -0.04,0.07 -0.07,0.16 -0.07,0.26 0,0.12 0.05,0.24 0.12,0.33 -0.07,0.03 -0.15,0.03 -0.21,0.07 -0.06,0.02 -0.11,0.08 -0.17,0.11 -0.07,-0.03 -0.13,-0.1 -0.2,-0.13 -0.04,-0.03 -0.1,-0.03 -0.14,-0.04 0.08,-0.09 0.12,-0.21 0.12,-0.34 0,-0.11 -0.03,-0.21 -0.09,-0.29 0.04,-0.05 0.05,-0.12 0.09,-0.16 0.08,0 0.16,0.03 0.24,0.03zm-0.2 0.43c-0.01,-0.01 -0.02,-0.02 -0.01,-0.04 0,0 0,-0.01 0.01,-0.01 0,-0.01 0.01,-0.01 0.01,-0.01l0.01 0 0.1 -0.01 0.05 -0.1 0 0c0.01,-0.01 0.02,-0.02 0.03,-0.02 0.01,0 0.01,0 0.02,0.01 0,0 0,0.01 0,0.01l0.01 0.01 0.04 0.09 0.11 0.02 0 0c0.01,0 0.02,0.01 0.03,0.02 0,0.01 0,0.02 -0.01,0.03 0,0.01 -0.01,0.01 -0.01,0.02 -0.01,0 -0.01,0.01 -0.02,0.01 -0.01,0.01 -0.01,0.01 -0.01,0.01 -0.02,0.02 -0.04,0.03 -0.04,0.04l0.02 0.1c0,0.02 0,0.03 -0.01,0.04 -0.01,0.01 -0.02,0.01 -0.04,0l0 0 -0.09 -0.05 -0.1 0.05 0 0c0,0 -0.01,0 -0.01,0 -0.01,0 -0.02,0 -0.02,0 -0.01,-0.01 -0.02,-0.02 -0.01,-0.04l0.02 -0.1 -0.08 -0.08z"/>
   <path class="fil0" d="M1.51 0.14c-0.03,0 -0.07,0.01 -0.09,0.01 -0.22,0.04 -0.38,0.23 -0.38,0.46 0,0.25 0.2,0.45 0.44,0.46l0.03 0 0 -0.93z"/>
   <path class="fil2" d="M1.45 0.41l-0.03 0.05 -0.07 0c0.01,0.01 0.01,0.02 0.02,0.03 0,0.01 0.01,0.02 0.01,0.04l0.07 0 -0.03 0.04 -0.04 0c0,0.02 -0.01,0.04 -0.02,0.05 -0.01,0.01 -0.02,0.02 -0.03,0.03 -0.01,0.01 -0.03,0.02 -0.04,0.03 -0.02,0 -0.04,0 -0.06,0l0.2 0.22 -0.09 0 -0.19 -0.21 0 -0.05 0.04 0c0.02,0 0.03,0 0.05,0 0.01,-0.01 0.02,-0.01 0.03,-0.02 0.01,0 0.02,-0.01 0.03,-0.02 0,0 0.01,-0.01 0.01,-0.03l-0.18 0 0.03 -0.04 0.15 0c0,-0.02 -0.02,-0.04 -0.03,-0.05 -0.02,-0.01 -0.04,-0.02 -0.07,-0.02l-0.08 0 0.03 -0.05 0.29 0z"/>
  </g>
 </g>
</svg>
