<?xml version="1.0" encoding="UTF-8"?>
<!DOCTYPE svg PUBLIC "-//W3C//DTD SVG 1.1//EN" "http://www.w3.org/Graphics/SVG/1.1/DTD/svg11.dtd">
<!-- Creator: CorelDRAW 2020 (64-Bit Evaluation Version) -->
<svg xmlns="http://www.w3.org/2000/svg" xml:space="preserve" width="100px" height="86px" version="1.1" style="shape-rendering:geometricPrecision; text-rendering:geometricPrecision; image-rendering:optimizeQuality; fill-rule:evenodd; clip-rule:evenodd"
viewBox="0 0 13.53 11.59"
 xmlns:xlink="http://www.w3.org/1999/xlink"
 xmlns:xodm="http://www.corel.com/coreldraw/odm/2003">
 <defs>
  <style type="text/css">
   <![CDATA[
    .fil0 {fill:#233862}
    .fil1 {fill:#EFB30C}
   ]]>
  </style>
 </defs>
 <g id="Layer_x0020_1">
  <metadata id="CorelCorpID_0Corel-Layer"/>
  <g id="_2295492466992">
   <path class="fil0" d="M9.07 2.92c0.27,1.87 -1.02,3.61 -2.89,3.88 -0.12,0.02 -0.24,0.03 -0.35,0.04 1.33,-0.36 2.21,-1.66 2,-3.06 -0.22,-1.5 -1.61,-2.53 -3.12,-2.31 -1.39,0.2 -2.38,1.42 -2.34,2.8 -0.03,-0.12 -0.05,-0.23 -0.07,-0.35 -0.28,-1.87 1.02,-3.61 2.88,-3.88 1.87,-0.28 3.61,1.01 3.89,2.88z"/>
   <path class="fil0" d="M5.81 3.98c0.07,0.43 -0.23,0.84 -0.66,0.9 -0.03,0 -0.06,0.01 -0.09,0.01 0.31,-0.08 0.52,-0.39 0.47,-0.71 -0.05,-0.35 -0.38,-0.59 -0.72,-0.54 -0.33,0.05 -0.56,0.33 -0.55,0.65 0,-0.02 -0.01,-0.05 -0.01,-0.08 -0.07,-0.43 0.23,-0.83 0.67,-0.9 0.43,-0.06 0.83,0.24 0.89,0.67z"/>
   <path class="fil1" d="M0.63 6.19c1.1,-1.54 3.23,-1.9 4.77,-0.81 0.1,0.07 0.19,0.15 0.28,0.22 -1.21,-0.66 -2.75,-0.33 -3.56,0.82 -0.88,1.24 -0.59,2.95 0.65,3.83 1.15,0.82 2.71,0.62 3.63,-0.4 -0.06,0.1 -0.12,0.2 -0.19,0.3 -1.09,1.54 -3.23,1.9 -4.77,0.81 -1.54,-1.09 -1.9,-3.23 -0.81,-4.77z"/>
   <path class="fil1" d="M3.89 7.33c0.27,-0.38 0.79,-0.47 1.18,-0.2 0.02,0.02 0.04,0.04 0.06,0.06 -0.29,-0.17 -0.67,-0.09 -0.88,0.2 -0.21,0.3 -0.14,0.73 0.16,0.95 0.29,0.2 0.67,0.15 0.9,-0.1 -0.01,0.02 -0.03,0.05 -0.04,0.07 -0.28,0.38 -0.8,0.47 -1.18,0.2 -0.39,-0.27 -0.48,-0.8 -0.2,-1.18z"/>
   <path class="fil1" d="M10.58 11.53c-1.87,0.27 -3.6,-1.04 -3.86,-2.91 -0.02,-0.12 -0.03,-0.23 -0.03,-0.35 0.34,1.33 1.64,2.22 3.04,2.02 1.5,-0.21 2.55,-1.6 2.34,-3.1 -0.2,-1.4 -1.42,-2.4 -2.79,-2.36 0.11,-0.03 0.23,-0.05 0.35,-0.07 1.87,-0.26 3.6,1.04 3.86,2.91 0.27,1.87 -1.04,3.6 -2.91,3.86z"/>
   <path class="fil1" d="M8.97 8.01c-0.44,0.06 -0.84,-0.24 -0.9,-0.67 0,-0.03 -0.01,-0.06 -0.01,-0.08 0.08,0.3 0.38,0.51 0.71,0.46 0.35,-0.04 0.59,-0.37 0.54,-0.71 -0.05,-0.33 -0.33,-0.56 -0.65,-0.55 0.03,-0.01 0.06,-0.01 0.08,-0.02 0.44,-0.06 0.84,0.24 0.9,0.68 0.06,0.43 -0.24,0.83 -0.67,0.89z"/>
  </g>
 </g>
</svg>
