<?xml version="1.0" encoding="UTF-8"?>
<!DOCTYPE svg PUBLIC "-//W3C//DTD SVG 1.1//EN" "http://www.w3.org/Graphics/SVG/1.1/DTD/svg11.dtd">
<!-- Creator: CorelDRAW 2020 (64-Bit Evaluation Version) -->
<svg xmlns="http://www.w3.org/2000/svg" xml:space="preserve" width="100px" height="100px" version="1.1" style="shape-rendering:geometricPrecision; text-rendering:geometricPrecision; image-rendering:optimizeQuality; fill-rule:evenodd; clip-rule:evenodd"
viewBox="0 0 24.52 24.52"
 xmlns:xlink="http://www.w3.org/1999/xlink"
 xmlns:xodm="http://www.corel.com/coreldraw/odm/2003">
 <defs>
  <style type="text/css">
   <![CDATA[
    .fil1 {fill:#233862}
    .fil0 {fill:#EFB30C}
   ]]>
  </style>
 </defs>
 <g id="Layer_x0020_1">
  <metadata id="CorelCorpID_0Corel-Layer"/>
  <circle class="fil0" cx="12.26" cy="21.83" r="2.69"/>
  <path class="fil1" d="M3.74 16.66c-0.43,1.66 -2.22,3.73 -3.74,4.61l24.52 0c-1.78,-1.03 -3.26,-2.98 -3.61,-4.65 -0.35,-1.68 -0.8,-3.84 -1.35,-6.49 -0.1,-0.75 -0.29,-1.44 -0.56,-2.06 -0.27,-0.62 -0.58,-1.14 -0.93,-1.55 -0.35,-0.41 -0.76,-0.76 -1.22,-1.08 -0.46,-0.31 -0.9,-0.56 -1.33,-0.73 -0.43,-0.18 -0.88,-0.32 -1.35,-0.42 -3.04,-0.82 -0.91,-0.63 -3.83,0 -0.47,0.1 -0.92,0.24 -1.35,0.42 -0.43,0.17 -0.87,0.42 -1.34,0.73 -0.46,0.32 -0.87,0.67 -1.22,1.08 -0.35,0.41 -0.66,0.93 -0.94,1.55 -0.27,0.62 -0.46,1.31 -0.55,2.06 -0.37,2.7 -0.77,4.88 -1.2,6.53z"/>
  <path class="fil0" d="M12.26 0l0 0c0.6,0 1.09,0.49 1.09,1.09l0 3.93c0,0.6 -0.49,1.09 -1.09,1.09l0 0c-0.6,0 -1.09,-0.49 -1.09,-1.09l0 -3.93c0,-0.6 0.49,-1.09 1.09,-1.09z"/>
 </g>
</svg>
