<?xml version="1.0" encoding="UTF-8"?>
<!DOCTYPE svg PUBLIC "-//W3C//DTD SVG 1.1//EN" "http://www.w3.org/Graphics/SVG/1.1/DTD/svg11.dtd">
<!-- Creator: CorelDRAW 2020 (64-Bit Evaluation Version) -->
<svg xmlns="http://www.w3.org/2000/svg" xml:space="preserve" width="100px" height="86px" version="1.1" style="shape-rendering:geometricPrecision; text-rendering:geometricPrecision; image-rendering:optimizeQuality; fill-rule:evenodd; clip-rule:evenodd"
viewBox="0 0 31.47 26.98"
 xmlns:xlink="http://www.w3.org/1999/xlink"
 xmlns:xodm="http://www.corel.com/coreldraw/odm/2003">
 <defs>
  <style type="text/css">
   <![CDATA[
    .fil1 {fill:#EFB30C}
    .fil2 {fill:white}
    .fil0 {fill:#233862;fill-rule:nonzero}
   ]]>
  </style>
 </defs>
 <g id="Layer_x0020_1">
  <metadata id="CorelCorpID_0Corel-Layer"/>
  <path class="fil0" d="M0.07 22.16l7.99 -21.65c0.05,-0.13 0.14,-0.25 0.26,-0.35 0.13,-0.1 0.26,-0.15 0.39,-0.16 0.36,0 0.61,0.13 0.76,0.4l7.25 12.6 3.17 -3.65c0.17,-0.21 0.39,-0.29 0.66,-0.27 0.26,0.03 0.46,0.16 0.6,0.38l7.3 12.57c0.16,0.26 0.16,0.51 0,0.76 -0.15,0.27 -0.37,0.41 -0.68,0.41l-26.97 0c-0.27,0 -0.47,-0.11 -0.62,-0.32 -0.14,-0.2 -0.18,-0.43 -0.11,-0.72zm1.8 -0.51l24.56 0 -6.08 -10.47 -3.18 3.65c-0.17,0.2 -0.39,0.28 -0.66,0.25 -0.25,-0.02 -0.45,-0.14 -0.6,-0.36l-6.96 -12.15 -7.08 19.08z"/>
  <g id="_2295410585856">
   <circle class="fil1" cx="24.89" cy="20.39" r="6.59"/>
   <rect class="fil2" transform="matrix(1.68852 1.68852 -1.68852 1.68852 24.8882 17.699)" width="1.6" height="1.6"/>
  </g>
  <path class="fil0" d="M2.65 19.11c-0.38,0 -0.7,-0.32 -0.7,-0.7 0,-0.39 0.32,-0.71 0.7,-0.71l5.84 0c0.39,0 0.7,0.32 0.7,0.71 0,0.38 -0.31,0.7 -0.7,0.7l-5.84 0z"/>
  <path class="fil0" d="M3.38 16.1c-0.38,0 -0.7,-0.32 -0.7,-0.7 0,-0.39 0.32,-0.7 0.7,-0.7l8.3 0c0.39,0 0.7,0.31 0.7,0.7 0,0.38 -0.31,0.7 -0.7,0.7l-8.3 0z"/>
  <path class="fil0" d="M4.59 13.09c-0.38,0 -0.7,-0.32 -0.7,-0.7 0,-0.39 0.32,-0.7 0.7,-0.7l4.15 0c0.39,0 0.7,0.31 0.7,0.7 0,0.38 -0.31,0.7 -0.7,0.7l-4.15 0z"/>
 </g>
</svg>
