<?xml version="1.0" encoding="UTF-8"?>
<!DOCTYPE svg PUBLIC "-//W3C//DTD SVG 1.1//EN" "http://www.w3.org/Graphics/SVG/1.1/DTD/svg11.dtd">
<!-- Creator: CorelDRAW 2020 (64-Bit Evaluation Version) -->
<svg xmlns="http://www.w3.org/2000/svg" xml:space="preserve" width="100px" height="100px" version="1.1" style="shape-rendering:geometricPrecision; text-rendering:geometricPrecision; image-rendering:optimizeQuality; fill-rule:evenodd; clip-rule:evenodd"
viewBox="0 0 17.04 17.02"
 xmlns:xlink="http://www.w3.org/1999/xlink"
 xmlns:xodm="http://www.corel.com/coreldraw/odm/2003">
 <defs>
  <style type="text/css">
   <![CDATA[
    .fil4 {fill:#102347}
    .fil0 {fill:#233862}
    .fil1 {fill:#EFB30C}
    .fil2 {fill:white}
    .fil3 {fill:#233862;fill-rule:nonzero}
   ]]>
  </style>
 </defs>
 <g id="Layer_x0020_1">
  <metadata id="CorelCorpID_0Corel-Layer"/>
  <path class="fil0" d="M0 3.45l3.27 0c-0.06,0.29 -0.1,0.27 -0.1,0.91 0,0.65 0.32,1.87 0.85,2.6l-4.02 0 0 -3.51zm14.04 0l1.25 0c0.96,0 1.75,0.79 1.75,1.75l0 1.76 -3.75 0c0.53,-0.73 0.85,-1.95 0.85,-2.6 0,-0.64 -0.03,-0.62 -0.1,-0.91z"/>
  <path class="fil1" d="M9.12 11.61c0,-1.61 1.31,-2.92 2.92,-2.92l5 0 0 -1.66c0,-0.69 -0.56,-1.25 -1.25,-1.25l-14.54 0c-0.47,0 -0.9,-0.16 -1.25,-0.42l0 10.41c0,0.69 0.56,1.25 1.25,1.25l14.54 0c0.69,0 1.25,-0.56 1.25,-1.25l0 -1.25 -5 0c-1.61,0 -2.92,-1.3 -2.92,-2.91z"/>
  <path class="fil1" d="M17.04 9.53l-5 0c-1.15,0 -2.08,0.93 -2.08,2.08 0,1.15 0.93,2.08 2.08,2.08l5 0 0 -4.16z"/>
  <circle class="fil2" cx="12.06" cy="11.61" r="1.06"/>
  <path class="fil3" d="M5.07 2.82c-0.06,0.12 -0.2,0.17 -0.32,0.12 -0.11,-0.05 -0.17,-0.19 -0.12,-0.31 0.34,-0.78 0.89,-1.42 1.57,-1.88 0.67,-0.46 1.48,-0.72 2.33,-0.75 0.13,0 0.24,0.1 0.24,0.23 0,0.13 -0.1,0.24 -0.23,0.24 -0.76,0.02 -1.47,0.26 -2.08,0.67 -0.6,0.41 -1.09,0.99 -1.39,1.68z"/>
  <path class="fil3" d="M4.74 4.39c0,0.13 -0.11,0.24 -0.24,0.24 -0.13,0 -0.24,-0.11 -0.24,-0.24 0,-0.24 0.02,-0.47 0.06,-0.71 0.02,-0.13 0.15,-0.22 0.27,-0.2 0.13,0.02 0.22,0.14 0.2,0.27 -0.04,0.21 -0.05,0.42 -0.05,0.64z"/>
  <path class="fil3" d="M11.95 2.26c-0.07,-0.11 -0.04,-0.25 0.07,-0.33 0.11,-0.07 0.25,-0.04 0.32,0.07 0.23,0.36 0.41,0.74 0.53,1.15 0.12,0.4 0.18,0.82 0.18,1.24l0 0.19 -0.02 0.19c-0.01,0.13 -0.12,0.23 -0.25,0.22 -0.13,-0.01 -0.23,-0.13 -0.22,-0.26l0.01 -0.17 0.01 -0.17c0,-0.38 -0.06,-0.75 -0.16,-1.11 -0.11,-0.36 -0.27,-0.7 -0.47,-1.02z"/>
  <path class="fil3" d="M9.42 0.54c-0.13,-0.02 -0.21,-0.14 -0.19,-0.27 0.03,-0.13 0.15,-0.21 0.28,-0.19 0.19,0.04 0.38,0.09 0.56,0.15 0.18,0.06 0.36,0.14 0.54,0.22 0.11,0.06 0.16,0.2 0.1,0.32 -0.05,0.12 -0.2,0.17 -0.31,0.11 -0.16,-0.08 -0.32,-0.15 -0.48,-0.2 -0.16,-0.06 -0.33,-0.1 -0.5,-0.14z"/>
  <path class="fil3" d="M11.08 1.31c-0.1,-0.08 -0.12,-0.23 -0.04,-0.33 0.08,-0.1 0.23,-0.12 0.33,-0.04 0.07,0.05 0.14,0.11 0.22,0.18 0.07,0.06 0.14,0.13 0.2,0.19 0.09,0.09 0.09,0.24 0,0.33 -0.1,0.09 -0.25,0.09 -0.34,0 -0.06,-0.06 -0.12,-0.12 -0.18,-0.17 -0.05,-0.05 -0.12,-0.1 -0.19,-0.16z"/>
  <path class="fil4" d="M8.96 1.58l-0.51 -0.03c-0.29,-0.01 -0.54,0.21 -0.55,0.49l-0.01 0.16c-0.03,0.6 -0.7,0.94 -1.21,0.61l-0.13 -0.08c-0.24,-0.16 -0.56,-0.09 -0.72,0.15l-0.28 0.43c-0.16,0.24 -0.09,0.56 0.15,0.72l0.13 0.09c0.5,0.33 0.46,1.08 -0.07,1.35l-0.14 0.07c-0.26,0.13 -0.36,0.44 -0.23,0.7l0.23 0.46c0.13,0.26 0.44,0.36 0.7,0.23l0.14 -0.07c0.54,-0.27 1.16,0.14 1.13,0.74l-0.01 0.16c-0.01,0.28 0.21,0.53 0.49,0.54l0.52 0.03c0.29,0.02 0.53,-0.2 0.55,-0.49l0.01 -0.16c0.03,-0.6 0.7,-0.93 1.2,-0.61l0.14 0.09c0.24,0.16 0.56,0.09 0.72,-0.15l0.28 -0.44c0.16,-0.24 0.09,-0.56 -0.15,-0.72l-0.13 -0.08c-0.51,-0.33 -0.46,-1.08 0.07,-1.35l0.14 -0.07c0.26,-0.13 0.36,-0.45 0.23,-0.7l-0.23 -0.47c-0.13,-0.25 -0.45,-0.35 -0.7,-0.22l-0.14 0.07c-0.54,0.27 -1.17,-0.14 -1.13,-0.74l0.01 -0.16c0.01,-0.29 -0.21,-0.53 -0.5,-0.55zm-1.31 2.79c0.31,-0.48 0.96,-0.61 1.44,-0.3 0.48,0.32 0.61,0.96 0.3,1.44 -0.31,0.48 -0.96,0.62 -1.44,0.3 -0.48,-0.31 -0.62,-0.96 -0.3,-1.44z"/>
  <path class="fil0" d="M8.58 3.9l0.12 -2.33 -0.25 -0.02c-0.29,-0.01 -0.54,0.21 -0.55,0.49l-0.01 0.16c-0.03,0.6 -0.7,0.94 -1.21,0.61l-0.13 -0.08c-0.24,-0.16 -0.56,-0.09 -0.72,0.15l-0.28 0.43c-0.16,0.24 -0.09,0.56 0.15,0.72l0.13 0.09c0.5,0.33 0.46,1.08 -0.07,1.35l-0.14 0.07c-0.26,0.13 -0.36,0.44 -0.23,0.7l0.23 0.46c0.13,0.26 0.44,0.36 0.7,0.23l0.14 -0.07c0.54,-0.27 1.16,0.14 1.13,0.74l-0.01 0.16c-0.01,0.28 0.21,0.53 0.49,0.54l0.26 0.02 0.13 -2.34c-0.17,-0.01 -0.35,-0.06 -0.51,-0.17 -0.48,-0.31 -0.62,-0.96 -0.3,-1.44 0.21,-0.32 0.57,-0.49 0.93,-0.47z"/>
 </g>
</svg>
