<svg xmlns="http://www.w3.org/2000/svg" width="70" height="87" viewBox="0 0 20.56 25.46" shape-rendering="geometricPrecision" image-rendering="optimizeQuality" fill-rule="evenodd" xmlns:v="https://vecta.io/nano"><path d="M10.28 0S7.23 4.44 0 4.44v8.2c.1 4.5.47 8.3 10.28 12.82 9.81-4.52 10.18-8.32 10.28-12.82v-8.2C13.33 4.44 10.28 0 10.28 0z" fill="#efb30c" fill-rule="nonzero"/><path d="M10.28 7.23l6.448 6.448-6.448 6.448-6.448-6.448z" fill="#1f2f70"/><circle cx="10.28" cy="13.71" r="2.16" fill="#fefefe"/><path d="M10.28 0v9.37l5.32 5.32-5.32 3.36v7.41c9.81-4.52 10.18-8.32 10.28-12.82v-8.2C13.33 4.44 10.28 0 10.28 0z" fill="#f0bf39"/><path d="M16.76 13.71l-6.48-6.48v4.32c1.19 0 2.16.97 2.16 2.16s-.97 2.16-2.16 2.16v4.32l6.48-6.48z" fill="#3248a1"/><path d="M12.44 13.71c0-1.19-.97-2.16-2.16-2.16v4.32c1.19 0 2.16-.97 2.16-2.16z" fill="#ebecec"/><path d="M10.28 1.9c-.79.93-3.57 3.7-8.91 3.79v7.05c.05 1.97.15 3.78 1.3 5.57 1.15 1.8 3.36 3.61 7.61 5.58 4.25-1.97 6.46-3.78 7.61-5.58 1.15-1.79 1.25-3.6 1.3-5.57V5.69c-5.34-.09-8.13-2.86-8.91-3.79zm-9.2 3.22c6.32 0 8.96-3.84 8.96-3.85l.24-.34.24.34c0 .01 2.64 3.85 8.96 3.85h.29l-.01 7.62c-.04 2.06-.15 3.96-1.38 5.88-1.22 1.91-3.54 3.8-7.98 5.85l-.12.06-.12-.06c-4.45-2.05-6.76-3.94-7.98-5.85C.95 16.7.84 14.8.8 12.74.58 11.68.79 6.63.79 5.12h.29z" fill="#fefefe" fill-rule="nonzero"/><path d="M10.28 1.9c.78.93 3.57 3.7 8.91 3.79v7.05c-.05 1.97-.15 3.78-1.3 5.57-1.15 1.8-3.36 3.61-7.61 5.58v.64l.12-.06c4.44-2.05 6.76-3.94 7.98-5.85 1.23-1.92 1.34-3.82 1.38-5.88.22-1.06.01-6.11.01-7.62h-.29c-6.32 0-8.96-3.84-8.96-3.85l-.24-.34v.97z" fill="#ebecec"/></svg>