<?xml version="1.0" encoding="UTF-8"?>
<!DOCTYPE svg PUBLIC "-//W3C//DTD SVG 1.1//EN" "http://www.w3.org/Graphics/SVG/1.1/DTD/svg11.dtd">
<!-- Creator: CorelDRAW 2020 (64-Bit Evaluation Version) -->
<svg xmlns="http://www.w3.org/2000/svg" xml:space="preserve" width="350px" height="310px" version="1.1" style="shape-rendering:geometricPrecision; text-rendering:geometricPrecision; image-rendering:optimizeQuality; fill-rule:evenodd; clip-rule:evenodd"
viewBox="0 0 417.97 369.92"
 xmlns:xlink="http://www.w3.org/1999/xlink"
 xmlns:xodm="http://www.corel.com/coreldraw/odm/2003">
 <defs>
  <style type="text/css">
   <![CDATA[
    .str0 {stroke:#DF8813;stroke-width:0.28;stroke-miterlimit:2.61313}
    .fil19 {fill:black}
    .fil18 {fill:#111C44}
    .fil0 {fill:#152254}
    .fil12 {fill:#172045}
    .fil7 {fill:#1A1A1A}
    .fil4 {fill:#263674}
    .fil10 {fill:#EFB30C}
    .fil15 {fill:white}
    .fil8 {fill:black;fill-rule:nonzero}
    .fil17 {fill:#1A1A1A;fill-rule:nonzero}
    .fil1 {fill:#1A1A1A;fill-rule:nonzero}
    .fil6 {fill:#222753;fill-rule:nonzero}
    .fil14 {fill:#CF9A05;fill-rule:nonzero}
    .fil3 {fill:#D99E71;fill-rule:nonzero}
    .fil16 {fill:#F29B89;fill-rule:nonzero}
    .fil2 {fill:#F2B78A;fill-rule:nonzero}
    .fil5 {fill:#F2F2F2;fill-rule:nonzero}
    .fil11 {fill:#FC563A;fill-rule:nonzero}
    .fil9 {fill:#FFBE06;fill-rule:nonzero}
    .fil13 {fill:white;fill-rule:nonzero}
   ]]>
  </style>
 </defs>
 <g id="Layer_x0020_1">
  <metadata id="CorelCorpID_0Corel-Layer"/>
  <g id="_2064509252160">
   <path class="fil0" d="M99.05 103.37c10.38,6.4 24.43,7.42 37.12,3.56 5.83,-1.77 11.34,-4.52 16.02,-8.12 10.76,-6.49 13.96,-10.81 17.3,-13.84 4.37,3.44 14.6,11.68 14.71,11.77 -10.16,14.84 -23.19,26.27 -37.69,33.19 -19.49,9.3 -41.63,10.44 -63.01,0.74l15.55 -27.3z"/>
   <path class="fil0" d="M48.66 131.09c-14.42,8.7 -21.19,16.88 -23.25,26.19 -2.43,11.03 1.77,22.6 7.74,34.94 -3.18,2.38 -15.31,11.49 -15.41,11.56 -14.02,-16.5 -19.2,-33.86 -17.39,-50.14 2.13,-19.28 13.85,-37.77 32.45,-50.86l15.86 28.31z"/>
   <polygon class="fil1" points="37.58,190.47 29.07,339.96 54.98,339.96 67.09,217.42 69.72,217.28 100.57,339.96 123.93,339.96 94.62,184.79 "/>
   <path class="fil2" d="M73.48 86.12l1.06 15.13c0,0 -12.82,3.05 -16.18,-0.34 -0.77,-0.77 0.96,-18.04 0.96,-18.04l14.16 3.25z"/>
   <path class="fil3" d="M73.78 90.1c-2.45,-0.03 -8.66,-3.1 -8.66,-3.1 0,0 2.72,4.9 8.8,5.86 -0.04,-0.75 -0.11,-1.66 -0.14,-2.76z"/>
   <path class="fil2" d="M79.26 65.31c0,0 5.39,20.6 -1.35,23.97 -6.75,3.37 -18.86,-4.72 -18.86,-4.72l-3.67 -17.17 23.88 -2.08z"/>
   <path class="fil4" d="M98.82 102.77c0,0 -0.01,62.16 0,91.55 -24.28,13.5 -62.85,0 -62.85,0l-4.21 -54.64 1.04 -36.91 18.56 -2.94 7.22 -1.15 7.77 0.63 9.69 -0.15 9.9 1.57 12.88 2.04z"/>
   <path class="fil5" d="M85.94 100.73c-2.71,6.45 -9.01,21.05 -13.54,28.43 -1.62,2.63 -3.01,4.35 -3.93,4.44 -0.9,0.09 -2.28,-1.63 -3.91,-4.41 -0.01,-0.01 -0.01,-0.02 -0.01,-0.02 -4.14,-7.07 -9.86,-20.93 -13.19,-29.34l7.22 -1.15 7.77 0.63 9.69 -0.15 9.9 1.57z"/>
   <path class="fil0" d="M53.97 99.74c0.08,-0.35 3.55,-4.54 3.55,-4.54 0,0 7.37,3.12 9.29,3.05 1.91,-0.07 9.15,-3.05 9.15,-3.05l3.12 5.18c0,0 -5.89,5.72 -12.13,6.1 -5.9,0.35 -12.98,-6.74 -12.98,-6.74z"/>
   <path class="fil3" d="M169.74 87.29c0,0 11.36,-11.04 15.77,-14.09 0.67,-0.46 3.21,-1.33 3.11,0.94 -0.11,2.28 -3.29,4.25 -5.29,6.21 1.84,-0.34 8.14,6.37 7.69,7.91 -0.45,1.53 -11.61,8.68 -11.61,8.68l-9.67 -9.65z"/>
   <path class="fil2" d="M19.85 197.73c0,0 2.86,9.16 6.1,13.83 1.45,2.09 4.21,4.94 5.27,3.93 0.55,-0.52 0.54,-1.6 0.54,-1.6 0,0 2.27,1.93 3.07,1.3 1.02,-0.82 0.6,-2.56 0.6,-2.56 0,0 2,1.17 2.49,0.66 0.95,-1.01 -0.62,-3.47 -0.62,-3.47 0,0 1.7,0.85 2.32,-0.27 0.36,-0.65 -4.5,-9.5 -4.5,-9.5 0,0 5.86,2.44 5.71,0.65 -0.15,-1.8 -12.73,-10.93 -12.73,-10.93l-8.25 7.96z"/>
   <path class="fil6" d="M31.76 214.12c-0.05,0 -0.1,-0.02 -0.14,-0.05 -0.11,-0.09 -2.7,-2.11 -2.94,-2.32 -0.26,-0.21 -2.39,-3.2 -2.82,-3.8 -0.07,-0.1 -0.04,-0.24 0.06,-0.32 0.1,-0.07 0.24,-0.04 0.31,0.06 0.96,1.35 2.55,3.55 2.74,3.72 0.24,0.2 2.9,2.28 2.93,2.3 0.1,0.08 0.11,0.22 0.04,0.32 -0.05,0.06 -0.11,0.09 -0.18,0.09z"/>
   <path class="fil6" d="M35.43 212.86c-0.05,0 -0.1,-0.01 -0.14,-0.04l-3.68 -2.78c-0.02,-0.01 -0.04,-0.04 -0.06,-0.06l-2.78 -4.33c-0.06,-0.1 -0.03,-0.24 0.07,-0.31 0.11,-0.07 0.25,-0.04 0.31,0.07l2.76 4.29 3.65 2.75c0.1,0.08 0.12,0.22 0.05,0.32 -0.04,0.06 -0.11,0.09 -0.18,0.09z"/>
   <path class="fil6" d="M37.3 210.05c-0.06,0 -0.11,-0.02 -0.16,-0.07l-2.73 -2.75 -2.66 -3.61c-0.07,-0.1 -0.05,-0.25 0.05,-0.32 0.1,-0.07 0.24,-0.05 0.32,0.05l2.63 3.59 2.71 2.73c0.09,0.08 0.09,0.23 0,0.32 -0.04,0.04 -0.1,0.06 -0.16,0.06z"/>
   <circle class="fil7" cx="55.57" cy="67.65" r="8.06"/>
   <circle class="fil7" cx="60.49" cy="59.42" r="8.06"/>
   <circle class="fil7" cx="68.01" cy="60.03" r="8.06"/>
   <circle class="fil7" cx="76.53" cy="62.41" r="5.98"/>
   <path class="fil2" d="M182.66 80.52c-0.37,0.94 -1.25,2.03 -1.48,2.31 -0.01,0 -0.01,0.01 -0.02,0.01 -1.62,1.64 -1.71,2.85 -1.25,3.43 0.46,0.59 1.46,0.61 2.37,0.06 0.05,-0.03 0.1,-0.04 0.16,-0.03 1.99,-1.4 2.78,-4.81 2.79,-4.84 0.02,-0.11 0.12,-0.18 0.22,-0.18 -0.88,-0.64 -1.65,-1.02 -2.12,-0.93l0 0 -0.67 0.17z"/>
   <path class="fil3" d="M182.78 79.49c0.09,0.25 0.05,0.58 -0.08,0.94l0.74 -0.19c2.01,-1.92 5.07,-3.87 5.18,-6.09 0.1,-2.28 -2.44,-1.41 -3.11,-0.95 -2.44,1.69 -7.03,5.85 -10.64,9.21 1.46,-1.03 3.64,-2.51 4.56,-2.85l0.32 -0.12c1.36,-0.5 2.64,-0.97 3.03,0.05z"/>
   <path class="fil2" d="M185.67 81.56c-0.04,0.15 -0.89,3.81 -3.15,5.23 -0.47,0.97 -0.52,1.87 -0.12,2.28 0.43,0.43 1.36,0.31 2.62,-0.34 0.01,-0.01 0.01,-0.01 0.02,-0.01 2.51,-1.55 3.45,-4.42 3.46,-4.45 0.01,-0.04 0.04,-0.07 0.07,-0.1 -0.92,-1.01 -1.96,-2 -2.9,-2.72 0.01,0.03 0.01,0.07 0,0.11z"/>
   <path class="fil2" d="M188.89 84.54c-0.22,0.59 -1.22,3.08 -3.59,4.54 -0.95,1.52 -0.86,2.4 -0.45,2.71 0.46,0.35 1.47,0.17 2.23,-0.66 0.08,-0.09 0.22,-0.1 0.32,-0.01 0.09,0.08 0.1,0.22 0.01,0.32 -0.05,0.06 -0.11,0.11 -0.17,0.17 1.99,-1.46 3.61,-2.79 3.78,-3.35 0.19,-0.64 -0.79,-2.17 -2.13,-3.72z"/>
   <circle class="fil3" cx="61.09" cy="74.99" r="2.92"/>
   <path class="fil0" d="M66.95 106.48c-1.33,0.08 -2.72,-0.22 -4.07,-0.73l0 20.38c2.31,4.44 4.39,7.59 5.59,7.47 0.46,-0.05 1.04,-0.5 1.7,-1.27l0 -26.48c-1.04,0.33 -2.13,0.56 -3.22,0.63z"/>
   <polygon class="fil2" points="50.39,339.96 35.96,339.96 35.96,352.58 50.39,350.23 "/>
   <polygon class="fil2" points="105.02,339.96 119.44,339.96 119.44,352.58 105.02,350.23 "/>
   <path class="fil8" d="M50.39 349.92l-25.39 4.39c-4.12,0.71 -7.61,3.42 -7.61,7.6l0 3.22 33 0 0 -15.21z"/>
   <path class="fil8" d="M105.02 349.92l25.39 4.39c4.12,0.71 7.6,3.42 7.6,7.6l0 3.22 -32.99 0 0 -15.21z"/>
   <g>
    <image x="104.34" y="136.99" width="53.76" height="20.02" xlink:href="responsible-trading_Images\responsible-trading_ImgID1.png"/>
   </g>
   <g>
    <image x="80.22" y="186.01" width="35.84" height="22.78" xlink:href="responsible-trading_Images\responsible-trading_ImgID2.png"/>
   </g>
   <g>
    <image x="91.94" y="120.42" width="14.47" height="65.59" xlink:href="responsible-trading_Images\responsible-trading_ImgID3.png"/>
   </g>
   <polygon class="fil9" points="93.88,213.91 95.19,213.16 95.27,239.91 93.96,240.67 "/>
   <polygon class="fil9" points="94.27,350.88 94.19,323.95 95.5,323.19 95.58,350.12 "/>
   <path class="fil9" d="M98.85 237.84c1.53,-0.88 2.78,-0.17 2.79,1.6l0.21 76.88c0.01,1.77 -1.23,3.92 -2.77,4.81l-3.58 2.06 -1.31 0.76 -3.58 2.07c-1.53,0.88 -2.78,0.17 -2.79,-1.6l-0.22 -76.88c0,-1.77 1.24,-3.92 2.78,-4.81l3.58 -2.06 1.31 -0.76 3.58 -2.07z"/>
   <polygon class="fil4" points="116.1,146.25 117.4,145.49 117.46,163.82 116.15,164.57 "/>
   <polygon class="fil4" points="116.37,240.08 116.31,221.64 117.62,220.88 117.67,239.33 "/>
   <path class="fil4" d="M121.03 161.75c1.55,-0.89 2.8,-0.17 2.8,1.6l0.15 50.66c0,1.76 -1.24,3.92 -2.78,4.81l-3.58 2.06 -1.31 0.76 -3.58 2.06c-1.54,0.89 -2.79,0.18 -2.79,-1.58l-0.15 -50.66c0,-1.78 1.24,-3.93 2.78,-4.82l3.58 -2.07 1.31 -0.75 3.57 -2.07z"/>
   <polygon class="fil9" points="144.96,174.44 146.27,173.69 146.34,200.45 145.04,201.2 "/>
   <path class="fil9" d="M149.93 198.38c1.54,-0.89 2.79,-0.18 2.79,1.59l0.22 76.88c0,1.76 -1.24,3.92 -2.77,4.8l-3.59 2.07 -1.3 0.76 -3.58 2.06c-1.55,0.89 -2.79,0.18 -2.8,-1.59l-0.21 -76.88c-0.01,-1.76 1.23,-3.91 2.77,-4.8l3.58 -2.07 1.3 -0.75 3.59 -2.07z"/>
   <polygon class="fil9" points="145.3,293.41 145.28,284.48 146.58,283.72 146.6,292.66 "/>
   <path class="fil4" d="M177.74 185.13c1.53,-0.89 2.78,-0.18 2.79,1.59l0.01 5.69c0.01,1.77 -1.23,3.92 -2.77,4.8l-3.59 2.07 -1.3 0.76 -3.58 2.06c-1.54,0.89 -2.79,0.19 -2.8,-1.58l-0.01 -5.69c-0.01,-1.77 1.23,-3.92 2.78,-4.81l3.58 -2.07 1.3 -0.75 3.59 -2.07z"/>
   <polygon class="fil4" points="173.01,245.48 172.88,200.04 174.18,199.29 174.31,244.72 "/>
   <polygon class="fil4" points="172.67,124.65 173.97,123.89 174.15,187.2 172.85,187.95 "/>
   <polygon class="fil9" points="202.85,267.08 202.66,209.64 203.97,208.89 204.16,266.32 "/>
   <path class="fil9" d="M207.43 165.09c1.54,-0.89 2.79,-0.17 2.79,1.59l0.1 35.33c0.01,1.77 -1.24,3.92 -2.77,4.81l-3.58 2.07 -1.31 0.75 -3.58 2.07c-1.54,0.89 -2.79,0.17 -2.79,-1.6l-0.1 -35.33c-0.01,-1.76 1.24,-3.91 2.77,-4.8l3.58 -2.07 1.31 -0.75 3.58 -2.07z"/>
   <polygon class="fil9" points="202.46,141.16 203.78,140.4 203.85,167.16 202.54,167.91 "/>
   <path class="fil10" d="M235.07 91.16c1.53,-0.89 2.78,-0.18 2.79,1.59l0.19 66.37c0,1.78 -1.24,3.93 -2.78,4.81l-3.58 2.07 -1.31 0.76 -3.58 2.06c-1.53,0.89 -2.78,0.18 -2.79,-1.59l-0.19 -66.38c0,-1.76 1.24,-3.92 2.78,-4.8l3.58 -2.07 1.3 -0.75 3.59 -2.07z"/>
   <polygon class="fil10" points="230.17,91.36 231.47,90.61 231.48,93.23 230.18,93.98 "/>
   <polygon class="fil10" points="230.44,185.2 230.38,166.76 231.69,166 231.74,184.45 "/>
   <polygon class="fil9" points="253.89,220.66 253.87,213.94 255.17,213.19 255.19,219.91 "/>
   <polygon class="fil9" points="261.43,172.28 261.54,209.51 255.17,213.19 253.87,213.94 247.5,217.61 247.4,180.38 253.76,176.71 255.06,175.96 "/>
   <polygon class="fil9" points="253.63,131.25 254.94,130.49 255.06,175.96 253.76,176.71 "/>
   <polygon class="fil4" points="280.67,77.21 281.98,76.45 282.08,110.96 280.77,111.71 "/>
   <polygon class="fil4" points="281.01,198.03 280.88,152.6 282.19,151.85 282.32,197.28 "/>
   <path class="fil4" d="M285.65 108.89c1.54,-0.89 2.79,-0.17 2.8,1.59l0.09 34.5c0.01,1.76 -1.23,3.91 -2.77,4.8l-3.58 2.07 -1.31 0.75 -3.58 2.07c-1.53,0.89 -2.78,0.17 -2.79,-1.59l-0.1 -34.5c0,-1.76 1.24,-3.91 2.78,-4.8l3.58 -2.07 1.31 -0.75 3.57 -2.07z"/>
   <g>
    <polygon class="fil9" points="305,84.12 306.31,83.36 306.38,110.12 305.08,110.87 "/>
    <g>
     <polygon class="fil9" points="305.34,203.08 305.32,194.16 306.62,193.4 306.64,202.33 "/>
     <path class="fil9" d="M309.96 108.05c1.54,-0.89 2.79,-0.17 2.79,1.59l0.22 76.89c0.01,1.77 -1.23,3.92 -2.77,4.81l-3.58 2.06 -1.31 0.75 -3.58 2.08c-1.54,0.88 -2.79,0.17 -2.79,-1.59l-0.22 -76.89c-0.01,-1.77 1.24,-3.92 2.77,-4.81l3.59 -2.07 1.3 -0.75 3.58 -2.07z"/>
    </g>
   </g>
   <polygon class="fil4" points="331.87,50.55 333.18,49.8 333.25,76.55 331.95,77.3 "/>
   <polygon class="fil4" points="332.21,169.52 332.19,160.58 333.49,159.83 333.51,168.77 "/>
   <path class="fil4" d="M336.83 74.48c1.54,-0.89 2.79,-0.17 2.79,1.6l0.22 76.88c0,1.76 -1.23,3.91 -2.77,4.8l-3.58 2.07 -1.31 0.75 -3.58 2.07c-1.54,0.89 -2.79,0.18 -2.79,-1.59l-0.22 -76.88c-0.01,-1.77 1.24,-3.93 2.77,-4.81l3.59 -2.07 1.3 -0.75 3.58 -2.07z"/>
   <path class="fil9" d="M364.51 15.05c1.54,-0.89 2.78,-0.17 2.79,1.6l0.13 45.69c0,1.77 -1.23,3.92 -2.78,4.81l-3.57 2.06 -1.31 0.76 -3.58 2.07c-1.54,0.88 -2.79,0.17 -2.8,-1.59l-0.13 -45.7c0,-1.77 1.24,-3.92 2.78,-4.81l3.58 -2.07 1.31 -0.75 3.58 -2.07z"/>
   <polygon class="fil9" points="359.58,0.75 360.88,0 360.93,17.12 359.62,17.87 "/>
   <polygon class="fil9" points="359.92,121.57 359.77,69.97 361.08,69.21 361.22,120.82 "/>
   <path class="fil4" d="M394.33 41.19c1.54,-0.89 2.8,-0.18 2.8,1.59l0.1 35.33c0.01,1.77 -1.24,3.92 -2.78,4.81l-3.58 2.07 -1.3 0.75 -3.58 2.07c-1.54,0.89 -2.79,0.18 -2.8,-1.59l-0.1 -35.33c0,-1.77 1.24,-3.92 2.78,-4.81l3.58 -2.07 1.3 -0.75 3.58 -2.07z"/>
   <polygon class="fil4" points="389.37,17.26 390.68,16.51 390.75,43.26 389.45,44.01 "/>
   <polygon class="fil4" points="389.76,154.22 389.57,85.74 390.87,84.99 391.07,153.47 "/>
   <g>
    <path class="fil11" d="M395.89 95.59c0.56,0.59 1.34,0.86 2.26,0.76l-29.42 67.24c-0.68,-0.41 -1.54,-0.48 -2.51,-0.18l29.67 -67.82z"/>
    <path class="fil11" d="M365.1 163.92c0.38,-0.22 0.76,-0.39 1.11,-0.5 0.98,-0.31 1.85,-0.24 2.52,0.17 0.88,0.53 1.43,1.64 1.44,3.22 0.01,3.2 -2.25,7.11 -5.04,8.72 -2.79,1.61 -5.06,0.31 -5.07,-2.89 0,-1.22 0.33,-2.55 0.89,-3.81 0.55,-1.24 1.32,-2.41 2.23,-3.37 0.59,-0.62 1.24,-1.15 1.92,-1.54z"/>
    <path class="fil11" d="M306.14 107.73c0.94,-0.89 1.76,-2.02 2.36,-3.23l54.68 60.96c-0.91,0.96 -1.68,2.13 -2.23,3.37l-54.81 -61.1z"/>
    <path class="fil11" d="M304.55 97.31c2.79,-1.61 5.06,-0.32 5.07,2.88 0,1.39 -0.41,2.91 -1.12,4.31 -0.6,1.21 -1.42,2.34 -2.36,3.23 -0.49,0.47 -1.01,0.87 -1.55,1.19 -0.53,0.3 -1.03,0.5 -1.51,0.6 -0.94,0.21 -1.77,0.04 -2.39,-0.46 -0.73,-0.58 -1.17,-1.62 -1.17,-3.03 -0.01,-3.21 2.24,-7.11 5.03,-8.72z"/>
    <g>
     <path class="fil11" d="M300.69 109.06c0.62,0.5 1.45,0.67 2.39,0.46l-39 89.18c-0.7,-0.37 -1.58,-0.4 -2.57,-0.05l39.18 -89.59z"/>
     <g>
      <path class="fil11" d="M260.56 199.1c0.32,-0.19 0.64,-0.34 0.95,-0.45 0.99,-0.35 1.87,-0.32 2.57,0.05 0.95,0.51 1.54,1.65 1.55,3.28 0.01,3.21 -2.25,7.11 -5.04,8.72 -2.79,1.61 -5.06,0.32 -5.07,-2.88 0,-1.39 0.42,-2.91 1.13,-4.32 0.6,-1.21 1.42,-2.34 2.36,-3.23 0.49,-0.46 1.01,-0.86 1.55,-1.17z"/>
      <path class="fil11" d="M254 200.55c0.91,-0.96 1.68,-2.14 2.22,-3.38l2.79 3.1c-0.94,0.89 -1.76,2.02 -2.36,3.23l-2.65 -2.95z"/>
      <path class="fil11" d="M252.01 190.53c2.79,-1.61 5.06,-0.32 5.07,2.89 0,1.2 -0.31,2.5 -0.86,3.75 -0.54,1.24 -1.31,2.42 -2.22,3.38 -0.6,0.64 -1.26,1.19 -1.96,1.59 -0.43,0.25 -0.84,0.43 -1.24,0.54 -0.97,0.28 -1.82,0.17 -2.48,-0.27 -0.83,-0.55 -1.34,-1.64 -1.35,-3.16 -0.01,-3.2 2.25,-7.11 5.04,-8.72z"/>
      <path class="fil11" d="M239.48 218.27c0.79,-0.45 1.54,-0.67 2.2,-0.69 0.89,-0.02 1.64,0.34 2.15,1.02 0.46,0.61 0.72,1.48 0.72,2.56 0.01,3.21 -2.24,7.12 -5.03,8.73 -2.79,1.6 -5.06,0.31 -5.07,-2.89 -0.01,-1.5 0.49,-3.16 1.3,-4.66 0.64,-1.19 1.49,-2.29 2.45,-3.13 0.41,-0.36 0.84,-0.68 1.28,-0.94z"/>
      <path class="fil11" d="M248.32 202.41c0.66,0.44 1.51,0.55 2.48,0.27l-6.97 15.92c-0.51,-0.68 -1.25,-1.04 -2.15,-1.02l6.64 -15.17z"/>
      <path class="fil11" d="M214.93 190.92c2.78,-1.61 5.05,-0.32 5.06,2.89 0.01,1.29 -0.36,2.7 -0.97,4.02 -0.58,1.23 -1.37,2.38 -2.3,3.31 -0.54,0.56 -1.14,1.03 -1.76,1.39 -0.78,0.45 -1.52,0.67 -2.18,0.69 -0.9,0.02 -1.64,-0.33 -2.15,-1 -0.47,-0.61 -0.74,-1.48 -0.74,-2.58 -0.01,-3.2 2.25,-7.11 5.04,-8.72z"/>
      <path class="fil11" d="M216.72 201.14c0.93,-0.92 1.72,-2.08 2.3,-3.31l19.18 21.38c-0.96,0.84 -1.81,1.94 -2.45,3.13l-19.03 -21.2z"/>
      <path class="fil11" d="M203.28 215.5c0.64,-0.37 1.26,-0.58 1.83,-0.66 0.91,-0.12 1.7,0.13 2.27,0.71 0.61,0.6 0.97,1.57 0.97,2.84 0.01,3.21 -2.25,7.11 -5.04,8.72 -2.78,1.61 -5.06,0.32 -5.06,-2.88 -0.01,-1.13 0.27,-2.35 0.75,-3.52 0.52,-1.26 1.27,-2.46 2.16,-3.45 0.65,-0.71 1.37,-1.32 2.12,-1.76z"/>
      <path class="fil11" d="M210.63 202.22c0.51,0.67 1.25,1.02 2.15,1l-5.4 12.33c-0.57,-0.58 -1.36,-0.83 -2.28,-0.71l5.53 -12.62z"/>
      <path class="fil11" d="M177.27 188.1c2.78,-1.61 5.05,-0.32 5.06,2.89 0.01,1.32 -0.38,2.77 -1.03,4.13 -0.58,1.22 -1.38,2.36 -2.31,3.28 -0.53,0.52 -1.1,0.97 -1.69,1.31 -0.57,0.32 -1.11,0.53 -1.61,0.63 -0.94,0.18 -1.75,-0.02 -2.36,-0.54 -0.68,-0.6 -1.1,-1.61 -1.1,-2.98 -0.01,-3.2 2.24,-7.11 5.04,-8.72z"/>
      <path class="fil11" d="M178.99 198.4c0.93,-0.92 1.73,-2.06 2.31,-3.28l19.87 22.14c-0.9,0.99 -1.65,2.19 -2.17,3.45l-20.01 -22.31z"/>
      <path class="fil11" d="M173.33 199.8c0.61,0.52 1.42,0.72 2.36,0.54l-43.45 99.33c-0.76,-0.27 -1.7,-0.2 -2.72,0.29l43.81 -100.16z"/>
      <path class="fil11" d="M87.2 253.29c2.78,-1.61 5.06,-0.32 5.07,2.89 0,1.51 -0.5,3.18 -1.32,4.69 -0.65,1.19 -1.5,2.28 -2.46,3.12 -0.4,0.35 -0.83,0.65 -1.26,0.91 -0.6,0.34 -1.17,0.55 -1.7,0.64 -0.93,0.15 -1.74,-0.06 -2.33,-0.61 -0.65,-0.6 -1.03,-1.59 -1.04,-2.91 -0.01,-3.22 2.25,-7.12 5.04,-8.73z"/>
      <path class="fil11" d="M129.04 300.2c0.16,-0.09 0.32,-0.17 0.48,-0.24 1.02,-0.49 1.96,-0.56 2.72,-0.29 1.13,0.41 1.87,1.61 1.87,3.42 0.01,3.21 -2.25,7.12 -5.03,8.73 -2.79,1.6 -5.06,0.31 -5.07,-2.89 -0.01,-1.34 0.39,-2.81 1.05,-4.17 0.59,-1.22 1.39,-2.36 2.32,-3.27 0.52,-0.51 1.08,-0.95 1.66,-1.29z"/>
      <path class="fil11" d="M88.49 263.99c0.96,-0.84 1.81,-1.93 2.46,-3.12l36.43 40.62c-0.93,0.91 -1.73,2.05 -2.32,3.27l-36.57 -40.77z"/>
      <path class="fil11" d="M57.9 319.98c0.52,-0.31 1.02,-0.51 1.49,-0.61 0.95,-0.21 1.78,-0.04 2.39,0.46 0.74,0.58 1.18,1.62 1.18,3.03 0.01,3.21 -2.24,7.12 -5.03,8.72 -2.79,1.61 -5.06,0.32 -5.07,-2.88 -0.01,-3.21 2.25,-7.11 5.04,-8.72z"/>
      <path class="fil11" d="M83.2 264.93c0.59,0.55 1.4,0.77 2.33,0.61l-23.75 54.29c-0.62,-0.5 -1.44,-0.67 -2.39,-0.46l23.81 -54.44z"/>
     </g>
    </g>
    <path class="fil11" d="M400 84.07c2.79,-1.61 5.05,-0.31 5.06,2.89 0.01,3.2 -2.24,7.11 -5.03,8.72 -0.66,0.38 -1.3,0.6 -1.88,0.67 -0.92,0.1 -1.7,-0.17 -2.26,-0.76 -0.58,-0.61 -0.92,-1.56 -0.93,-2.8 0,-3.2 2.24,-7.11 5.04,-8.72z"/>
   </g>
   <path class="fil12" d="M261.13 37.07l0 2.27c0.02,5.93 -4.2,13.23 -9.36,16.22l-23.16 13.37 -25.71 14.84c-5.18,2.98 -9.42,0.56 -9.44,-5.36l0 -2.27c-0.02,-5.94 4.2,-13.23 9.37,-16.23l18.41 -10.62 8.19 -4.74 4.69 -2.7 8.68 -5.01 8.9 -5.14c5.17,-2.98 9.4,-0.56 9.43,5.37z"/>
   <path class="fil4" d="M264.27 40.22l0 2.26c0.02,5.94 -4.19,13.23 -9.36,16.22l-23.16 13.37 -25.71 14.85c-5.17,2.97 -9.41,0.56 -9.43,-5.37l0 -2.27c-0.03,-5.94 4.19,-13.23 9.36,-16.22l18.41 -10.63 8.2 -4.73 4.69 -2.7 8.67 -5.01 8.91 -5.15c5.16,-2.97 9.4,-0.56 9.42,5.38z"/>
   <path class="fil13" d="M235.54 50.14l0.03 10.01c0.01,1.14 -0.22,2.26 -0.66,3.39 -0.44,1.11 -1.08,2.14 -1.92,3.08 -0.84,0.94 -1.83,1.75 -2.98,2.42 -1.73,0.99 -3.07,1.26 -4.04,0.79 -0.96,-0.46 -1.44,-1.58 -1.45,-3.35l-0.02 -9.96 2.84 -1.64 0.03 9.46c0,1.19 0.22,1.94 0.63,2.26 0.42,0.32 1.11,0.2 2.08,-0.36 0.93,-0.54 1.6,-1.21 2.02,-2.02 0.42,-0.79 0.63,-1.8 0.62,-3l-0.02 -9.44 2.84 -1.64z"/>
   <path class="fil13" d="M214.79 64.82l0.01 3.43 1.65 -0.96c0.78,-0.44 1.34,-0.9 1.69,-1.38 0.34,-0.48 0.51,-1.03 0.51,-1.66 0,-0.59 -0.19,-0.91 -0.57,-0.95 -0.38,-0.03 -0.97,0.18 -1.79,0.65l-1.5 0.87zm3.63 7.46c0.37,-0.56 0.55,-1.19 0.55,-1.91 -0.01,-1.28 -0.8,-1.46 -2.4,-0.54l-1.76 1.02 0.01 4.03 1.86 -1.08c0.78,-0.45 1.36,-0.95 1.74,-1.52zm2.95 -5.35c0.37,0.38 0.56,1.07 0.57,2.06 0,1.41 -0.44,2.77 -1.33,4.07 -0.88,1.3 -2.09,2.39 -3.6,3.27l-5.04 2.91 -0.04 -15.46 4.18 -2.42c1.91,-1.1 3.3,-1.6 4.16,-1.47 0.86,0.14 1.3,0.87 1.31,2.23 0,0.92 -0.19,1.8 -0.57,2.61 -0.37,0.8 -0.87,1.45 -1.5,1.93l0.01 0.11c0.85,-0.28 1.46,-0.22 1.85,0.16z"/>
   <polygon class="fil13" points="248.91,42.43 244.47,54.44 244.48,60.47 241.65,62.1 241.64,56.18 237.14,49.22 240.24,47.43 243.04,52.19 245.83,44.2 "/>
   <path class="fil9" d="M285.03 225.01l0 2.26c0.02,5.94 -4.19,13.24 -9.36,16.22l-40.16 23.19 -8.72 5.03c-5.16,2.99 -9.4,0.57 -9.42,-5.38l0 -2.26c-0.03,-5.94 4.19,-13.23 9.35,-16.22l38.34 -22.12 10.55 -6.09c5.16,-2.98 9.4,-0.57 9.42,5.37z"/>
   <polygon class="fil13" points="266.77,228.7 266.81,241.85 272.52,238.55 272.53,241.35 263.83,246.37 263.79,230.42 "/>
   <polygon class="fil13" points="255.63,235.13 255.66,248.29 261.38,244.99 261.39,247.78 252.69,252.8 252.65,236.85 "/>
   <polygon class="fil13" points="249.71,238.55 249.72,241.32 244.59,244.28 244.6,247.78 249.37,245.03 249.38,247.8 244.61,250.55 244.62,254.67 249.75,251.7 249.75,254.5 241.65,259.18 241.6,243.23 "/>
   <path class="fil13" d="M234.79 246.93c0.74,-0.43 1.44,-0.73 2.1,-0.92 0.67,-0.18 1.37,-0.31 2.09,-0.37l-0.96 3.18c-0.75,0.09 -1.37,0.21 -1.86,0.35 -0.49,0.15 -0.98,0.35 -1.45,0.63 -0.56,0.32 -1,0.73 -1.3,1.19 -0.3,0.48 -0.45,0.95 -0.45,1.44 0,0.29 0.07,0.52 0.19,0.67 0.12,0.15 0.31,0.25 0.58,0.31 0.26,0.05 0.9,0.06 1.9,0.03 1.31,-0.05 2.22,0.14 2.71,0.58 0.49,0.43 0.73,1.17 0.74,2.21 0,1.44 -0.45,2.84 -1.37,4.2 -0.9,1.35 -2.18,2.5 -3.81,3.44 -1.5,0.87 -2.84,1.32 -3.99,1.35l-0.01 -3.14c0.95,-0.07 1.75,-0.2 2.42,-0.39 0.65,-0.18 1.26,-0.43 1.8,-0.74 0.66,-0.38 1.16,-0.81 1.51,-1.3 0.35,-0.48 0.52,-1.01 0.52,-1.57 0,-0.31 -0.08,-0.55 -0.23,-0.7 -0.16,-0.16 -0.38,-0.26 -0.69,-0.31 -0.29,-0.06 -0.9,-0.06 -1.83,-0.02 -0.86,0.03 -1.5,-0.04 -1.93,-0.21 -0.43,-0.17 -0.78,-0.47 -1.04,-0.87 -0.25,-0.42 -0.38,-1 -0.38,-1.75 -0.01,-1.41 0.41,-2.76 1.25,-4.06 0.84,-1.3 2.01,-2.38 3.49,-3.23z"/>
   <path class="fil14" d="M224.39 246.5l48.88 -28.22 0 0c2.6,-1.5 4.96,-1.63 6.67,-0.64l2.34 1.36c-1.71,-1 -4.08,-0.86 -6.68,0.64l0 0 -48.88 28.22c-5.16,2.98 -9.37,10.27 -9.36,16.21l0 0 0.01 2.26 0 0c0.01,2.96 1.06,5.04 2.75,6.02l-2.33 -1.35c-1.69,-0.99 -2.74,-3.07 -2.75,-6.02l-0.01 -2.27c-0.02,-5.93 4.2,-13.23 9.36,-16.21z"/>
   <g>
    <rect class="fil10 str0" x="344.86" y="262.06" width="63.53" height="12.58" rx="6.29" ry="6.29"/>
    <rect class="fil10 str0" x="351.15" y="274.64" width="63.53" height="12.58" rx="6.29" ry="6.29"/>
    <rect class="fil10 str0" x="344.08" y="287.22" width="63.53" height="12.58" rx="6.29" ry="6.29"/>
    <rect class="fil10 str0" x="353.51" y="299.81" width="63.53" height="12.58" rx="6.29" ry="6.29"/>
    <rect class="fil10 str0" x="344.86" y="312.54" width="63.53" height="12.58" rx="6.29" ry="6.29"/>
    <rect class="fil10 str0" x="354.3" y="325.28" width="63.53" height="12.58" rx="6.29" ry="6.29"/>
    <rect class="fil10 str0" x="348.8" y="338.02" width="63.53" height="12.58" rx="6.29" ry="6.29"/>
    <g>
     <polygon class="fil15 str0" points="353.45,264.63 353.45,272.07 351.31,272.07 351.31,264.63 "/>
     <polygon class="fil15 str0" points="365.57,264.63 365.57,272.07 363.44,272.07 363.44,264.63 "/>
     <polygon class="fil15 str0" points="377.7,264.63 377.7,272.07 375.56,272.07 375.56,264.63 "/>
     <polygon class="fil15 str0" points="389.83,264.63 389.83,272.07 387.69,272.07 387.69,264.63 "/>
     <polygon class="fil15 str0" points="401.95,264.63 401.95,272.07 399.82,272.07 399.82,264.63 "/>
    </g>
    <g>
     <polygon class="fil15 str0" points="359.73,277.21 359.73,284.65 357.6,284.65 357.6,277.21 "/>
     <polygon class="fil15 str0" points="371.86,277.21 371.86,284.65 369.73,284.65 369.73,277.21 "/>
     <polygon class="fil15 str0" points="383.99,277.21 383.99,284.65 381.85,284.65 381.85,277.21 "/>
     <polygon class="fil15 str0" points="396.11,277.21 396.11,284.65 393.98,284.65 393.98,277.21 "/>
     <polygon class="fil15 str0" points="408.24,277.21 408.24,284.65 406.1,284.65 406.1,277.21 "/>
    </g>
    <g>
     <polygon class="fil15 str0" points="352.66,289.79 352.66,297.24 350.52,297.24 350.52,289.79 "/>
     <polygon class="fil15 str0" points="364.79,289.79 364.79,297.24 362.65,297.24 362.65,289.79 "/>
     <polygon class="fil15 str0" points="376.91,289.79 376.91,297.24 374.78,297.24 374.78,289.79 "/>
     <polygon class="fil15 str0" points="389.04,289.79 389.04,297.24 386.9,297.24 386.9,289.79 "/>
     <polygon class="fil15 str0" points="401.17,289.79 401.17,297.24 399.03,297.24 399.03,289.79 "/>
    </g>
    <g>
     <polygon class="fil15 str0" points="362.09,302.38 362.09,309.82 359.96,309.82 359.96,302.38 "/>
     <polygon class="fil15 str0" points="374.22,302.38 374.22,309.82 372.08,309.82 372.08,302.38 "/>
     <polygon class="fil15 str0" points="386.35,302.38 386.35,309.82 384.21,309.82 384.21,302.38 "/>
     <polygon class="fil15 str0" points="398.47,302.38 398.47,309.82 396.34,309.82 396.34,302.38 "/>
     <polygon class="fil15 str0" points="410.6,302.38 410.6,309.82 408.46,309.82 408.46,302.38 "/>
    </g>
    <g>
     <polygon class="fil15 str0" points="353.45,315.12 353.45,322.56 351.31,322.56 351.31,315.12 "/>
     <polygon class="fil15 str0" points="365.57,315.12 365.57,322.56 363.44,322.56 363.44,315.12 "/>
     <polygon class="fil15 str0" points="377.7,315.12 377.7,322.56 375.56,322.56 375.56,315.12 "/>
     <polygon class="fil15 str0" points="389.83,315.12 389.83,322.56 387.69,322.56 387.69,315.12 "/>
     <polygon class="fil15 str0" points="401.95,315.12 401.95,322.56 399.82,322.56 399.82,315.12 "/>
    </g>
    <g>
     <polygon class="fil15 str0" points="362.88,327.85 362.88,335.29 360.74,335.29 360.74,327.85 "/>
     <polygon class="fil15 str0" points="375.01,327.85 375.01,335.29 372.87,335.29 372.87,327.85 "/>
     <polygon class="fil15 str0" points="387.13,327.85 387.13,335.29 384.99,335.29 384.99,327.85 "/>
     <polygon class="fil15 str0" points="399.26,327.85 399.26,335.29 397.12,335.29 397.12,327.85 "/>
     <polygon class="fil15 str0" points="411.38,327.85 411.38,335.29 409.25,335.29 409.25,327.85 "/>
    </g>
    <g>
     <polygon class="fil15 str0" points="357.38,340.59 357.38,348.03 355.24,348.03 355.24,340.59 "/>
     <polygon class="fil15 str0" points="369.5,340.59 369.5,348.03 367.37,348.03 367.37,340.59 "/>
     <polygon class="fil15 str0" points="381.63,340.59 381.63,348.03 379.49,348.03 379.49,340.59 "/>
     <polygon class="fil15 str0" points="393.76,340.59 393.76,348.03 391.62,348.03 391.62,340.59 "/>
     <polygon class="fil15 str0" points="405.88,340.59 405.88,348.03 403.75,348.03 403.75,340.59 "/>
    </g>
    <g>
     <polygon class="fil2" points="352.14,326.13 333.76,331.26 338.25,347.34 355.79,339.21 "/>
     <path class="fil8" d="M355.68 338.82l-30.79 14.61c-5,2.37 -8.47,7.07 -6.99,12.39l1.15 4.1 42.03 -11.72 -5.4 -19.38z"/>
    </g>
    <g>
     <polygon class="fil2" points="297.88,329.15 279.83,322.98 274.43,338.78 293.49,342 "/>
     <path class="fil8" d="M293.62 341.61l-33.65 -5.35c-5.47,-0.88 -10.98,1.03 -12.77,6.26l-1.38 4.03 41.3 14.1 6.5 -19.04z"/>
    </g>
    <path class="fil16" d="M313.6 222.29c0,0 0.95,-7.8 12.07,-8.94 4.56,-0.47 5.4,7.98 5.4,7.98l-17.47 0.96z"/>
    <path class="fil17" d="M273.41 321c0.57,-0.85 34.84,-71.76 34.84,-71.76 0,0 3.91,-16.63 14.45,-19.48 5.07,-1.37 12.53,0 12.53,0l7.4 23.07c0,0 -24.24,48.96 -37.19,78.67l-32.03 -10.5z"/>
    <path class="fil0" d="M321.36 213.33c0,0 20.36,-7.87 20.57,-8.7 1.96,-7.65 4.38,-39.46 17.89,-43.96 5.31,-1.76 3.55,22.5 3.55,22.5l0.85 37.17 -33.17 5.56 -9.69 -12.57z"/>
    <path class="fil8" d="M326.52 333.26c0,0 -21.44,-72.78 -22.62,-78.89 -2.73,-14.01 10.34,-28.76 18.03,-28.76 7.69,0 80.66,-2.05 83.4,0 7.18,5.34 9.69,29.58 1.43,35.76 -9.39,7.03 -68.57,-2.73 -68.57,-2.73l19.96 65.79 -31.63 8.83z"/>
    <polygon class="fil6" points="308.25,225.31 362.63,225.31 362.63,219.28 308.25,219.28 "/>
    <path class="fil6" d="M297.74 177.47l16.13 45.57 -5.69 2.01 -18.14 -51.25 0 0c3.14,-1.11 6.59,0.53 7.7,3.67z"/>
    <path class="fil4" d="M412.78 240.98l-58.55 -16.52c0,0 -9.95,-47.77 -0.19,-59.24 2.36,-2.79 4.18,-4.45 9.25,-5.6 6.31,-1.46 14.11,-1.65 21.86,-0.65 2.85,0.37 5.71,0.91 8.47,1.6 8.22,5.11 19.16,80.41 19.16,80.41z"/>
    <path class="fil2" d="M355.18 128.61c0,0 -2.35,20.73 4.66,23.06 7.01,2.33 17.64,-7.21 17.64,-7.21l1.16 -17.16 -23.46 1.31z"/>
    <path class="fil2" d="M364.87 148.13l0.92 14.11c0,0 11.99,1.76 14.63,-2.02 0.6,-0.86 -4.71,-16.16 -4.71,-16.16l-10.84 4.07z"/>
    <path class="fil8" d="M351.22 125.06c-0.52,1.63 -0.85,5.08 2.75,5.98 3.6,0.91 12.59,-3.51 13.27,-1.77 1.06,2.72 3.46,6.01 5.83,6.64 1.44,4.11 1.41,4.3 1.41,4.3 0,0 -0.87,7.35 2.83,10.9 2.33,2.24 12.62,-3 12.58,-8.64 -0.04,-5.4 -2.42,-8.71 -4.74,-11.45 -2.32,-2.74 -2.31,-5.46 -3.33,-7.4 -1.03,-1.94 -4.46,-4.86 -7.67,-3.9 -3.92,1.17 -4.51,-3.38 -9.21,-0.72 -4.39,2.49 -12.11,1.08 -13.72,6.06z"/>
    <path class="fil3" d="M365.21 151.62c2.22,-0.38 6.49,-4.12 6.49,-4.12l-6.4 7.23c0,0 0.01,-2.04 -0.09,-3.11z"/>
    <path class="fil3" d="M372.18 136.98c0.11,-0.04 0.65,-2.34 2.91,-2.27 2.01,0.06 2.57,3.28 2.02,4.08 -1.69,2.47 -3.72,2.64 -3.72,2.64l-1.21 -4.45z"/>
    <path class="fil2" d="M385.15 158.97c-2.97,3.15 -10.97,10.88 -17.33,10.1 -6.19,-0.78 -5.27,-6.78 -4.53,-9.45 6.31,-1.46 14.11,-1.65 21.86,-0.65z"/>
    <path class="fil16" d="M332.07 219.28c-1.37,-4.72 12.74,-8.49 18.12,-7.64 5.38,0.86 3.38,8.12 3.38,8.12 0,0 -10.94,-0.48 -21.5,-0.48z"/>
    <path class="fil18" d="M387.03 185.51c0,0 2.03,7.47 0.94,16.74 -0.68,5.73 -20,7.09 -20,7.09 0,0 22.73,7.32 26.97,2.18 4.33,-5.24 -7.91,-26.01 -7.91,-26.01z"/>
    <path class="fil0" d="M350.19 210.49c0,0 36,-2.07 42.41,-1.98 3.52,0.05 -9.17,-25.76 -10.52,-29.54 -2.89,-8.09 5.28,-17.61 8.08,-18.42 8.09,-2.33 16.59,12.89 21.26,26.2 4.66,13.3 5.21,29.9 5.21,29.9 0,0 2.07,10.3 -6.57,11.12 -8.64,0.83 -61.73,-3.31 -61.73,-3.31 0,0 -0.34,-11.91 1.86,-13.97z"/>
    <circle class="fil19" cx="354.22" cy="125.68" r="5.48"/>
    <circle class="fil19" cx="355.71" cy="119.5" r="5.48"/>
    <circle class="fil19" cx="363.32" cy="116.19" r="7.26"/>
    <circle class="fil19" cx="371.72" cy="115.23" r="7.07"/>
    <circle class="fil19" cx="378.74" cy="121.28" r="7.07"/>
    <circle class="fil19" cx="381.6" cy="128.33" r="5.98"/>
    <circle class="fil19" cx="385.31" cy="136.61" r="5.98"/>
    <circle class="fil19" cx="386.11" cy="145.14" r="5.98"/>
    <circle class="fil19" cx="382.8" cy="150.96" r="4.94"/>
    <circle class="fil19" cx="377.95" cy="145.77" r="5.83"/>
   </g>
  </g>
 </g>
</svg>
