<?xml version="1.0" encoding="UTF-8"?>
<!DOCTYPE svg PUBLIC "-//W3C//DTD SVG 1.1//EN" "http://www.w3.org/Graphics/SVG/1.1/DTD/svg11.dtd">
<!-- Creator: CorelDRAW 2020 (64-Bit Evaluation Version) -->
<svg xmlns="http://www.w3.org/2000/svg" xml:space="preserve" width="30px" height="30px" version="1.1" style="shape-rendering:geometricPrecision; text-rendering:geometricPrecision; image-rendering:optimizeQuality; fill-rule:evenodd; clip-rule:evenodd"
viewBox="0 0 1.37 1.37"
 xmlns:xlink="http://www.w3.org/1999/xlink"
 xmlns:xodm="http://www.corel.com/coreldraw/odm/2003">
 <defs>
  <style type="text/css">
   <![CDATA[
    .fil0 {fill:#263674}
    .fil1 {fill:#EFB30C}
   ]]>
  </style>
 </defs>
 <g id="Layer_x0020_1">
  <metadata id="CorelCorpID_0Corel-Layer"/>
  <g id="_2140979716096">
   <path class="fil0" d="M0.1 0.14l0.72 0 0 -0.12 0 -0.02 0.17 0.17 0 0 0.01 0.01 0 0 0.08 0.08 0.07 0.07 -0.03 0.03 -0.09 0 -0.05 0 -0.16 0 -0.07 0 -0.15 0 -0.33 0c-0.03,0 -0.06,0.02 -0.06,0.06l0 0.16 -0.21 0 0 -0.33c0,-0.06 0.05,-0.11 0.1,-0.11zm1.05 0.19l0.03 0.03 -0.05 0 -0.01 0 0.03 -0.03z"/>
   <path class="fil1" d="M1.27 1.23l-0.72 0 0 0.12 0 0.02 -0.17 -0.17 0 0 -0.01 0 0 -0.01 -0.08 -0.08 -0.07 -0.06 0.03 -0.03 0.1 0 0.04 0 0.16 0 0.07 0 0.15 0 0.33 0c0.03,0 0.06,-0.03 0.06,-0.06l0 -0.17 0.21 0 0 0.33c0,0.06 -0.04,0.11 -0.1,0.11zm-1.05 -0.18l-0.02 -0.03 0.05 0 0 0 -0.03 0.03z"/>
   <g>
    <polygon class="fil1" points="1,0.69 0.79,0.49 0.78,0.47 0.78,0.9 0.81,0.87 "/>
    <polygon class="fil0" points="0.38,0.69 0.58,0.89 0.59,0.9 0.59,0.47 0.56,0.5 "/>
   </g>
  </g>
 </g>
</svg>
