<?xml version="1.0" encoding="UTF-8"?>
<!DOCTYPE svg PUBLIC "-//W3C//DTD SVG 1.1//EN" "http://www.w3.org/Graphics/SVG/1.1/DTD/svg11.dtd">
<!-- Creator: CorelDRAW 2020 (64-Bit Evaluation Version) -->
<svg xmlns="http://www.w3.org/2000/svg" xml:space="preserve" width="60px" height="60px" version="1.1" style="shape-rendering:geometricPrecision; text-rendering:geometricPrecision; image-rendering:optimizeQuality; fill-rule:evenodd; clip-rule:evenodd"
viewBox="0 0 6.56 6.56"
 xmlns:xlink="http://www.w3.org/1999/xlink"
 xmlns:xodm="http://www.corel.com/coreldraw/odm/2003">
 <defs>
  <style type="text/css">
   <![CDATA[
    .fil1 {fill:#263674}
    .fil2 {fill:#FEC00F}
    .fil0 {fill:#263674;fill-rule:nonzero}
   ]]>
  </style>
 </defs>
 <g id="Layer_x0020_1">
  <metadata id="CorelCorpID_0Corel-Layer"/>
  <g id="_1907903628784">
   <g>
    <path class="fil0" d="M3.28 0c0.41,0 0.79,0.17 1.06,0.44 0.28,0.27 0.45,0.65 0.45,1.07 0,0.41 -0.17,0.79 -0.45,1.06 -0.27,0.27 -0.65,0.44 -1.06,0.44 -0.42,0 -0.79,-0.17 -1.07,-0.44 -0.27,-0.27 -0.44,-0.65 -0.44,-1.06 0,-0.42 0.17,-0.8 0.44,-1.07 0.28,-0.27 0.65,-0.44 1.07,-0.44zm0.7 0.8c-0.18,-0.17 -0.43,-0.29 -0.7,-0.29 -0.28,0 -0.52,0.12 -0.7,0.29 -0.18,0.18 -0.29,0.43 -0.29,0.71 0,0.27 0.11,0.52 0.29,0.7 0.18,0.18 0.42,0.29 0.7,0.29 0.27,0 0.52,-0.11 0.7,-0.29 0.18,-0.18 0.29,-0.43 0.29,-0.7 0,-0.28 -0.11,-0.53 -0.29,-0.71z"/>
    <path class="fil0" d="M1.82 3.54c-0.11,0.09 -0.27,0.08 -0.36,-0.03 -0.09,-0.11 -0.08,-0.28 0.03,-0.37 0.25,-0.2 0.53,-0.35 0.83,-0.46 0.29,-0.11 0.61,-0.16 0.93,-0.16 0.33,0 0.66,0.06 0.97,0.17 0.31,0.12 0.6,0.29 0.85,0.51 0.11,0.1 0.12,0.26 0.03,0.36 -0.1,0.11 -0.26,0.12 -0.36,0.03 -0.21,-0.18 -0.45,-0.32 -0.7,-0.41 -0.25,-0.1 -0.52,-0.15 -0.79,-0.15 -0.26,0 -0.52,0.05 -0.76,0.13 -0.24,0.09 -0.47,0.22 -0.67,0.38z"/>
   </g>
   <path class="fil0" d="M0.95 3.3c-0.14,0 -0.27,0.05 -0.37,0.15 -0.09,0.09 -0.15,0.22 -0.15,0.37 0,0.14 0.06,0.27 0.15,0.36 0.1,0.1 0.23,0.15 0.37,0.15 0.14,0 0.27,-0.05 0.37,-0.15 0.09,-0.09 0.15,-0.22 0.15,-0.36 0,-0.15 -0.06,-0.28 -0.15,-0.37 -0.1,-0.1 -0.23,-0.15 -0.37,-0.15zm-0.67 -0.16c0.17,-0.17 0.41,-0.27 0.67,-0.27 0.26,0 0.5,0.1 0.67,0.27 0.17,0.18 0.28,0.41 0.28,0.68 0,0.26 -0.11,0.49 -0.28,0.67 -0.17,0.17 -0.41,0.27 -0.67,0.27 -0.26,0 -0.5,-0.1 -0.67,-0.27 -0.17,-0.18 -0.28,-0.41 -0.28,-0.67 0,-0.27 0.11,-0.5 0.28,-0.68z"/>
   <path class="fil0" d="M5.61 3.3c-0.15,0 -0.28,0.05 -0.37,0.15 -0.09,0.09 -0.15,0.22 -0.15,0.37 0,0.14 0.06,0.27 0.15,0.36 0.09,0.1 0.22,0.15 0.37,0.15 0.14,0 0.27,-0.05 0.36,-0.15 0.1,-0.09 0.16,-0.22 0.16,-0.36 0,-0.15 -0.06,-0.28 -0.16,-0.37 -0.09,-0.1 -0.22,-0.15 -0.36,-0.15zm-0.67 -0.16c0.17,-0.17 0.41,-0.27 0.67,-0.27 0.26,0 0.5,0.1 0.67,0.27 0.17,0.18 0.28,0.41 0.28,0.68 0,0.26 -0.11,0.49 -0.28,0.67 -0.17,0.17 -0.41,0.27 -0.67,0.27 -0.26,0 -0.5,-0.1 -0.67,-0.27 -0.18,-0.18 -0.28,-0.41 -0.28,-0.67 0,-0.27 0.1,-0.5 0.28,-0.68z"/>
   <g>
    <polygon class="fil1" points="3.59,3.6 4.47,4.47 3.59,5.34 3.59,4.85 2.67,4.85 2.67,4.09 3.59,4.09 "/>
    <polygon class="fil1" points="2.4,4.81 1.52,5.68 2.4,6.56 2.4,6.07 3.32,6.07 3.32,5.3 2.4,5.3 "/>
   </g>
   <path class="fil2" d="M1.33 4.17l-0.73 -0.73c-0.01,0 -0.01,0 -0.02,0.01 -0.09,0.09 -0.15,0.22 -0.15,0.37 0,0.14 0.06,0.27 0.15,0.36 0.1,0.1 0.23,0.15 0.37,0.15 0.14,0 0.27,-0.05 0.37,-0.15 0,0 0.01,-0.01 0.01,-0.01z"/>
   <path class="fil2" d="M2.29 1.51c0,0.27 0.11,0.52 0.29,0.7 0.18,0.18 0.42,0.29 0.7,0.29 0.27,0 0.52,-0.11 0.7,-0.29 0.01,-0.01 0.03,-0.03 0.04,-0.04l-1.44 -1.37c0,0 0,0 0,0 -0.18,0.18 -0.29,0.43 -0.29,0.71z"/>
   <path class="fil2" d="M5.09 3.82c0,0.14 0.06,0.27 0.15,0.36 0.09,0.1 0.22,0.15 0.37,0.15 0.14,0 0.27,-0.05 0.36,-0.15 0.03,-0.03 0.06,-0.06 0.08,-0.09l-0.74 -0.7c-0.03,0.02 -0.05,0.04 -0.07,0.06 -0.09,0.09 -0.15,0.22 -0.15,0.37z"/>
  </g>
 </g>
</svg>
