<?xml version="1.0" encoding="UTF-8"?>
<!DOCTYPE svg PUBLIC "-//W3C//DTD SVG 1.1//EN" "http://www.w3.org/Graphics/SVG/1.1/DTD/svg11.dtd">
<!-- Creator: CorelDRAW 2020 (64-Bit Evaluation Version) -->
<svg xmlns="http://www.w3.org/2000/svg" xml:space="preserve" width="60px" height="60px" version="1.1" style="shape-rendering:geometricPrecision; text-rendering:geometricPrecision; image-rendering:optimizeQuality; fill-rule:evenodd; clip-rule:evenodd"
viewBox="0 0 4.97 4.97"
 xmlns:xlink="http://www.w3.org/1999/xlink"
 xmlns:xodm="http://www.corel.com/coreldraw/odm/2003">
 <defs>
  <style type="text/css">
   <![CDATA[
    .fil0 {fill:#263674}
    .fil1 {fill:#FEC00F}
    .fil2 {fill:white}
    .fil3 {fill:white}
   ]]>
  </style>
 </defs>
 <g id="Layer_x0020_1">
  <metadata id="CorelCorpID_0Corel-Layer"/>
  <g id="_1776565165840">
   <path class="fil0" d="M1.73 4.11l-0.89 -0.6c-0.2,-0.13 -0.46,-0.08 -0.6,0.12l0 0c-0.13,0.2 -0.07,0.46 0.12,0.6l1.1 0.73 0 0.01 2.64 0 0 -0.55 0 -0.31 0 -0.12 0 -0.67 0 -0.19 -1.49 0c-0.24,0 -0.43,0.2 -0.43,0.43l0 0c0,0.24 0.19,0.43 0.43,0.43l0.41 0 -0.06 0.12 -1.23 0z"/>
   <path class="fil1" d="M0.9 2.55l-0.65 0c-0.14,0 -0.25,-0.11 -0.25,-0.25l0 -0.52 0.9 0.77z"/>
   <path class="fil1" d="M3.21 0l0.64 0c0.14,0 0.25,0.11 0.25,0.25l0 0.52 -0.89 -0.77z"/>
   <path class="fil1" d="M0.25 0l2.56 0 1.29 1.12 0 1.18c0,0.14 -0.11,0.25 -0.25,0.25l-2.55 0 -1.3 -1.11 0 -1.19c0,-0.14 0.11,-0.25 0.25,-0.25z"/>
   <rect class="fil0" x="4.29" y="2.75" width="0.68" height="2.22"/>
   <path class="fil2" d="M1.9 0.38c0.48,-0.07 0.93,0.26 1,0.75 0.08,0.48 -0.26,0.93 -0.74,1 -0.02,0.01 -0.05,0.01 -0.07,0.01 0.44,-0.1 0.74,-0.53 0.67,-0.99 -0.07,-0.46 -0.48,-0.78 -0.93,-0.75 0.02,-0.01 0.04,-0.01 0.07,-0.02z"/>
   <circle class="fil3" transform="matrix(2.26451 -0.343228 0.343228 2.26451 1.79293 1.29426)" r="0.39"/>
   <path class="fil0" d="M2.08 1.51l-0.19 0.09 -0.11 -0.23c0.11,-0.06 0.23,-0.14 0.3,-0.11 0.1,0.05 0.12,0.19 0,0.25zm-0.26 -0.34l-0.11 0.06 -0.12 -0.24c0.11,-0.05 0.22,-0.13 0.3,0.02 0.02,0.05 0.01,0.12 -0.07,0.16zm-0.36 -0.33l0.02 0.03c-0.12,0.06 -0.24,0.09 -0.18,0.2 0.02,0.05 0.1,0.02 0.15,-0.01l0.29 0.61c-0.18,0.09 -0.07,0.18 -0.02,0.17 0.04,0 0.14,-0.06 0.18,-0.08l0.04 0.07c0.05,0.11 0.18,0.04 0.14,-0.06l-0.04 -0.07 0.13 -0.07c0.23,-0.11 0.17,-0.51 -0.12,-0.52 -0.02,-0.09 0.02,-0.06 -0.04,-0.19 -0.07,-0.15 -0.24,-0.18 -0.4,-0.11 -0.04,-0.08 -0.05,-0.13 -0.14,-0.09 -0.04,0.02 -0.03,0.08 -0.01,0.12z"/>
   <polygon class="fil3" points="0,1.44 0,1.78 0.9,2.55 1.3,2.55 "/>
   <polygon class="fil3" points="2.81,0 4.1,1.12 4.1,0.77 3.21,0 "/>
  </g>
 </g>
</svg>
