<?xml version="1.0" encoding="UTF-8"?>
<!DOCTYPE svg PUBLIC "-//W3C//DTD SVG 1.1//EN" "http://www.w3.org/Graphics/SVG/1.1/DTD/svg11.dtd">
<!-- Creator: CorelDRAW 2020 (64-Bit) -->
<svg xmlns="http://www.w3.org/2000/svg" xml:space="preserve" width="300px" height="300px" version="1.1" style="shape-rendering:geometricPrecision; text-rendering:geometricPrecision; image-rendering:optimizeQuality; fill-rule:evenodd; clip-rule:evenodd"
viewBox="0 0 9.01 9.01"
 xmlns:xlink="http://www.w3.org/1999/xlink"
 xmlns:xodm="http://www.corel.com/coreldraw/odm/2003">
 <defs>
  <style type="text/css">
   <![CDATA[
    .fil1 {fill:none;fill-rule:nonzero}
    .fil0 {fill:#FFDA46}
    .fil2 {fill:#FFCC00;fill-rule:nonzero}
    .fil3 {fill:white;fill-rule:nonzero}
   ]]>
  </style>
    <clipPath id="id0" style="clip-rule:nonzero">
     <path d="M5.75 1.83l1.34 2.32 0 0 1.35 2.34c0.39,0.68 0.16,1.55 -0.52,1.95 -0.22,0.13 -0.47,0.19 -0.71,0.19l-5.4 0c-0.79,0 -1.43,-0.64 -1.43,-1.43 0,-0.29 0.09,-0.57 0.24,-0.79l1.31 -2.26c0.01,-0.02 0.03,-0.05 0.04,-0.07l1.31 -2.26c0.39,-0.68 1.25,-0.92 1.93,-0.52 0.24,0.13 0.41,0.32 0.54,0.53z"/>
    </clipPath>
    <clipPath id="id1" style="clip-rule:nonzero">
     <path d="M5.75 1.83l1.34 2.32 0 0 1.35 2.34c0.39,0.68 0.16,1.55 -0.52,1.95 -0.22,0.13 -0.47,0.19 -0.71,0.19l-5.4 0c-0.79,0 -1.43,-0.64 -1.43,-1.43 0,-0.29 0.09,-0.57 0.24,-0.79l1.31 -2.26c0.01,-0.02 0.03,-0.05 0.04,-0.07l1.31 -2.26c0.39,-0.68 1.25,-0.92 1.93,-0.52 0.24,0.13 0.41,0.32 0.54,0.53z"/>
    </clipPath>
 </defs>
 <g id="Layer_x0020_1">
  <metadata id="CorelCorpID_0Corel-Layer"/>
  <g id="_2564885541136">
   <g>
   </g>
   <g style="clip-path:url(#id0)">
    <g id="_2564885543152">
     <path class="fil0" d="M4.51 8.63l0 -7.52c-0.5,0 -0.97,0.25 -1.23,0.71l-1.31 2.26c-0.01,0.02 -0.03,0.05 -0.04,0.07l-1.31 2.26c-0.15,0.22 -0.24,0.5 -0.24,0.79 0,0.79 0.64,1.43 1.43,1.43l2.7 0z"/>
    </g>
   </g>
   <path class="fil1" d="M5.75 1.83l1.34 2.32 0 0 1.35 2.34c0.39,0.68 0.16,1.55 -0.52,1.95 -0.22,0.13 -0.47,0.19 -0.71,0.19l-5.4 0c-0.79,0 -1.43,-0.64 -1.43,-1.43 0,-0.29 0.09,-0.57 0.24,-0.79l1.31 -2.26c0.01,-0.02 0.03,-0.05 0.04,-0.07l1.31 -2.26c0.39,-0.68 1.25,-0.92 1.93,-0.52 0.24,0.13 0.41,0.32 0.54,0.53z"/>
   <path class="fil2" d="M6.08 1.65l1.14 1.99 0.01 -0.01 1.54 2.67c0.25,0.43 0.3,0.92 0.18,1.37 -0.12,0.44 -0.41,0.84 -0.84,1.09 -0.14,0.08 -0.29,0.15 -0.44,0.19 -0.15,0.04 -0.3,0.06 -0.46,0.06l-5.4 0 0 0c-0.5,0 -0.95,-0.2 -1.28,-0.53 -0.33,-0.33 -0.53,-0.78 -0.53,-1.28 0,-0.18 0.03,-0.35 0.08,-0.52 0.05,-0.18 0.13,-0.34 0.23,-0.48l1.29 -2.24 0.03 -0.05 0 0 0.02 -0.03 1.3 -2.25 0 0c0.25,-0.43 0.64,-0.72 1.09,-0.84 0.44,-0.12 0.93,-0.07 1.36,0.18 0.15,0.08 0.28,0.18 0.39,0.29 0.11,0.12 0.21,0.25 0.29,0.39zm0.68 2.69l-1.35 -2.32c-0.04,-0.08 -0.1,-0.16 -0.16,-0.22 -0.07,-0.07 -0.14,-0.13 -0.22,-0.18 -0.25,-0.14 -0.54,-0.17 -0.8,-0.1 -0.25,0.07 -0.48,0.24 -0.63,0.49l0 0 -1.3 2.26 -0.03 0.04 0 0.01 -0.02 0.02 -1.31 2.28c-0.06,0.09 -0.11,0.18 -0.14,0.28 -0.02,0.09 -0.04,0.19 -0.04,0.3 0,0.29 0.12,0.55 0.31,0.74 0.19,0.19 0.45,0.31 0.74,0.31l0 0 5.4 0c0.09,0 0.18,-0.01 0.27,-0.04 0.09,-0.02 0.17,-0.06 0.25,-0.1 0.25,-0.15 0.42,-0.38 0.49,-0.64 0.06,-0.25 0.03,-0.54 -0.11,-0.79l-1.16 -2.01 0 0 -0.19 -0.33z"/>
   <path class="fil2" d="M5.75 1.83l1.34 2.32 0 0 1.35 2.34c0.39,0.68 0.16,1.55 -0.52,1.95 -0.22,0.13 -0.47,0.19 -0.71,0.19l-5.4 0c-0.79,0 -1.43,-0.64 -1.43,-1.43 0,-0.29 0.09,-0.57 0.24,-0.79l1.31 -2.26c0.01,-0.02 0.03,-0.05 0.04,-0.07l1.31 -2.26c0.39,-0.68 1.25,-0.92 1.93,-0.52 0.24,0.13 0.41,0.32 0.54,0.53z"/>
   <g style="clip-path:url(#id1)">
    <g id="_2564885542768">
     <path id="1" class="fil0" d="M4.51 8.63l0 -7.52c-0.5,0 -0.97,0.25 -1.23,0.71l-1.31 2.26c-0.01,0.02 -0.03,0.05 -0.04,0.07l-1.31 2.26c-0.15,0.22 -0.24,0.5 -0.24,0.79 0,0.79 0.64,1.43 1.43,1.43l2.7 0z"/>
    </g>
   </g>
   <path class="fil1" d="M5.75 1.83l1.34 2.32 0 0 1.35 2.34c0.39,0.68 0.16,1.55 -0.52,1.95 -0.22,0.13 -0.47,0.19 -0.71,0.19l-5.4 0c-0.79,0 -1.43,-0.64 -1.43,-1.43 0,-0.29 0.09,-0.57 0.24,-0.79l1.31 -2.26c0.01,-0.02 0.03,-0.05 0.04,-0.07l1.31 -2.26c0.39,-0.68 1.25,-0.92 1.93,-0.52 0.24,0.13 0.41,0.32 0.54,0.53z"/>
   <path class="fil3" d="M5.83 1.79l1.29 2.23 0 0 1.4 2.42c0.21,0.37 0.25,0.78 0.15,1.15 -0.1,0.38 -0.34,0.72 -0.7,0.93 -0.12,0.07 -0.24,0.12 -0.37,0.15 -0.13,0.03 -0.26,0.05 -0.39,0.05l-5.4 0c-0.42,0.01 -0.8,-0.17 -1.08,-0.44 -0.27,-0.28 -0.44,-0.66 -0.44,-1.08 0,-0.15 0.02,-0.3 0.06,-0.44 0.05,-0.15 0.11,-0.28 0.19,-0.41l1.3 -2.25 0.03 -0.04 0.02 -0.03 1.3 -2.26c0.21,-0.36 0.55,-0.61 0.92,-0.71 0.38,-0.1 0.79,-0.06 1.15,0.15 0.12,0.07 0.23,0.16 0.32,0.25 0.1,0.1 0.18,0.21 0.25,0.33zm1.17 2.41l-1.34 -2.32c-0.05,-0.1 -0.13,-0.2 -0.21,-0.29 -0.08,-0.08 -0.18,-0.15 -0.28,-0.21 -0.32,-0.18 -0.68,-0.22 -1.01,-0.13 -0.33,0.09 -0.62,0.3 -0.8,0.62 -0.43,0.74 -0.87,1.59 -1.33,2.29 -0.45,0.76 -0.87,1.54 -1.33,2.3 -0.07,0.11 -0.13,0.23 -0.17,0.35 -0.03,0.13 -0.05,0.26 -0.05,0.39 0,0.37 0.14,0.7 0.39,0.95 0.24,0.24 0.57,0.38 0.94,0.38l5.4 0c0.11,0 0.23,-0.01 0.34,-0.04 0.11,-0.03 0.22,-0.08 0.32,-0.14 0.32,-0.18 0.53,-0.48 0.62,-0.8 0.09,-0.33 0.05,-0.69 -0.13,-1.01l-1.31 -2.26 0 0 -0.05 -0.08z"/>
   <path class="fil3" d="M4.52 2.32c-0.57,0 -0.73,0.16 -0.73,0.37 0,0.15 0.03,0.3 0.09,0.62 0.17,0.92 0.3,1.83 0.43,2.82 0.02,0.11 0.38,0.1 0.4,0 0.13,-0.99 0.26,-1.9 0.43,-2.82 0.06,-0.32 0.08,-0.47 0.08,-0.62 0,-0.21 -0.16,-0.37 -0.69,-0.37l-0.01 0zm0.01 5.79c0.37,0 0.65,-0.27 0.65,-0.67 0,-0.38 -0.28,-0.66 -0.65,-0.66 -0.38,0 -0.65,0.28 -0.65,0.66 0,0.4 0.27,0.67 0.64,0.67l0.01 0z"/>
   <rect class="fil0" transform="matrix(0.283334 0.283334 -0.283334 0.283334 8.37209 1.02425E-05)" width="2.25" height="2.25"/>
   <rect class="fil0" transform="matrix(0.260484 0.260484 -0.260484 0.260484 0.792874 2.60932)" width="2.25" height="2.25"/>
   <rect class="fil0" transform="matrix(0.177651 0.177651 -0.177651 0.177651 1.51306 1.19682)" width="2.25" height="2.25"/>
   <rect class="fil0" transform="matrix(0.148974 0.148974 -0.148974 0.148974 0.760203 0.180851)" width="2.25" height="2.25"/>
   <rect class="fil0" transform="matrix(0.111731 0.111731 -0.111731 0.111731 4.09236 0.0957832)" width="2.25" height="2.25"/>
   <rect class="fil0" transform="matrix(0.111731 0.111731 -0.111731 0.111731 8.43775 4.05657)" width="2.25" height="2.25"/>
   <rect class="fil0" transform="matrix(0.148974 0.148974 -0.148974 0.148974 7.68695 2.18937)" width="2.25" height="2.25"/>
  </g>
 </g>
</svg>
