<?xml version="1.0" encoding="UTF-8"?>
<!DOCTYPE svg PUBLIC "-//W3C//DTD SVG 1.1//EN" "http://www.w3.org/Graphics/SVG/1.1/DTD/svg11.dtd">
<!-- Creator: CorelDRAW 2020 (64-Bit) -->
<svg xmlns="http://www.w3.org/2000/svg" xml:space="preserve" width="64px" height="64px" version="1.1" style="shape-rendering:geometricPrecision; text-rendering:geometricPrecision; image-rendering:optimizeQuality; fill-rule:evenodd; clip-rule:evenodd"
viewBox="0 0 0.36 0.36"
 xmlns:xlink="http://www.w3.org/1999/xlink"
 xmlns:xodm="http://www.corel.com/coreldraw/odm/2003">
 <defs>
  <style type="text/css">
   <![CDATA[
    .fil8 {fill:none}
    .fil0 {fill:#283991}
    .fil4 {fill:#DB3027}
    .fil1 {fill:#E63625}
    .fil3 {fill:#E7E7E7}
    .fil7 {fill:#E9EAEB}
    .fil6 {fill:#EDEDEE}
    .fil5 {fill:#EDEEEE}
    .fil2 {fill:#F2F3F4}
   ]]>
  </style>
   <clipPath id="id0">
    <path d="M0.18 0c0.1,0 0.18,0.08 0.18,0.18 0,0.1 -0.08,0.18 -0.18,0.18 -0.1,0 -0.18,-0.08 -0.18,-0.18 0,-0.1 0.08,-0.18 0.18,-0.18z"/>
   </clipPath>
 </defs>
 <g id="Layer_x0020_1">
  <metadata id="CorelCorpID_0Corel-Layer"/>
  <g>
  </g>
  <g style="clip-path:url(#id0)">
   <g>
    <g id="_1608978189408">
     <path class="fil0" d="M0.14 0.14l0.01 0 0 -0.01c0,0 0,0.01 0,0 0,0 0,0 0,0 0,0 0,0 0,0l0.01 0.01 0 0c0,0 0,0 0,0l0 0 0 0.01c0,0 0,0 -0.01,0 0,0 0,0 0,0l0 -0.01c0,0 -0.01,0 -0.01,0zm-0.06 0l0.01 0c0,0 0,-0.01 0,-0.01l0.01 0.01 0 0c0,0 0,0 0,0l0 0 0 0.01c0,0 0,0 -0.01,0 0,0 0,0 0,0l0 -0.01c0,0 -0.01,0 -0.01,0zm-0.06 0c0.02,0 0.01,0 0.01,-0.01l0.01 0.01 0 0c0,0 0,0 0,0l0 0.01c0,0 0,0 -0.01,0 0,0 0,0 0,0l0 -0.01c0,0 -0.01,0 -0.01,0zm0.1 -0.02c0,0 0,0 0,0 0,0 0,0 0,0 0.01,0 0.01,0 0.01,0 0,0.01 0,0.01 0,0.01l0 0.01c0,0 0,-0.01 -0.01,-0.01 0,0 0,0.01 0,0.01l0 -0.01c0,0 -0.01,0 -0.01,-0.01l0.01 0zm-0.06 0c0.01,0 0,0 0.01,0 0,0 0,0.01 0,0.01l0 0.01c0,0 0,-0.01 -0.01,-0.01 0,0 0,0.01 0,0.01l0 -0.01c0,0 -0.01,0 -0.01,-0.01l0.01 0 0 0zm0.09 -0.01c0,0 0,-0.01 0,-0.01l0.01 0.01 0.01 0c-0.01,0 -0.01,0 -0.01,0l0 0.01c0,0 0,0 -0.01,0 0,0 0,0 0,0l0 -0.01c0,0 -0.01,0 -0.01,0l0.01 0zm-0.06 -0.01l0.01 0.01 0 0c0,0 0,0 0,0l0 0.01c0,0 0,0 -0.01,0 0,0 0,0 0,0l0 -0.01c0,0 -0.01,0 -0.01,0l0.01 0 0 -0.01zm-0.06 0l0.01 0.01 0 0c0,0 0,0 0,0l0 0.01c0,0 0,0 -0.01,0 0,0 0,0 0,0l0 -0.01c0,0 -0.01,0 -0.01,0l0.01 0 0 -0.01zm0.09 -0.01l0.01 0 0 0c0,0.01 0,0.01 0,0.01l0 0.01c0,0 0,-0.01 -0.01,-0.01 0,0 0,0 0,0.01l0 -0.01c0,0 -0.01,0 -0.01,-0.01l0.01 0 0 0zm-0.06 0l0.01 0 0 0 0 0.01 0 0.01c0,0 0,-0.01 -0.01,-0.01 0,0 0,0.01 0,0.01l0 -0.01c0,0 -0.01,0 -0.01,-0.01l0.01 0 0 0zm0.09 -0.02l0.01 0.01 0 0c0,0 0,0 0,0l0 0 0 0.01c0,0 0,0 -0.01,0 0,0 0,0 0,0l0 -0.01c0,0 0,0 0,0l-0.01 0 0.01 0 0 -0.01zm-0.06 0l0.01 0.01 0 0c0,0 0,0 0,0l0 0.01c0,0 0,0 -0.01,0 0,0 0,0 0,0l0 -0.01c0,0 -0.01,0 -0.01,0l0.01 0 0 -0.01zm0.03 -0.01c0,0 0,0 0,0 0,0 0,0 0.01,0 0,0 0,0 0,0 0,0 0,0.01 0,0.01l0 0.01c0,0 0,-0.01 -0.01,-0.01 0,0 0,0.01 0,0.01l0 -0.01c0,0 -0.01,-0.01 -0.01,-0.01l0.01 0zm-0.06 0c0.01,0 0,0 0.01,0l0 0.01 0 0.01c0,0 0,-0.01 -0.01,-0.01 0,0 0,0.01 0,0.01l0 -0.01c0,0 -0.01,0 -0.01,-0.01l0.01 0 0 0zm0.09 -0.01c0,0 0,-0.01 0,-0.01l0.01 0.01 0 0c0,0 0,0 0,0l0 0.01c0,0 0,0 -0.01,0 0,0 0,0 0,0l0 -0.01c0,0 -0.01,0 -0.01,0l0.01 0zm-0.06 -0.01c0.01,0 0.01,0.01 0.01,0.01l0 0c0,0 0,0 0,0 0,0 0,0 0,0 0,0 0,0 0,0l0 0.01c0,0 0,0 -0.01,0 0,0 0,0 0,0l0 -0.01c0,0 -0.01,0 -0.01,0l0.01 0 0 -0.01zm0.03 -0.01c0,0 0,0 0,0 0,0 0,0 0,0l0.01 0 0 0c0,0.01 0,0.01 0,0.01l0 0.01c0,0 0,-0.01 -0.01,-0.01 0,0 0,0 0,0.01l0 -0.01c0,0 -0.01,-0.01 -0.01,-0.01l0.01 0zm0.03 -0.02l0.01 0.01 0 0 0 0 0 0.01c0,0 0,0 -0.01,0 0,0 0,0 0,0l0 -0.01c0,0 -0.01,0 -0.01,0l0.01 0 0 -0.01zm-0.05 0.01c0,0 0,0 0,0 0,0 0,0 0,0 0,0 0,0 0,0l0 0.01c0,0 0,0 -0.01,0 0,0 0,0 0,0 0,-0.01 0,0 0,-0.01 -0.01,0 -0.01,0.01 -0.01,0.01 0,0 -0.01,0 -0.01,0l0 0 0 0c0,0.01 0,0.01 0,0.01 0,0 0,0 0,0l0 0.01c0,0 0,-0.01 -0.01,-0.01 0,0 0,0.01 0,0.01l0 -0.01c-0.01,0.01 -0.02,0.02 -0.03,0.03 0,0 0,0.01 0,0.01 0,0 0,0 0,-0.01 0.01,0 0,0 0.01,0.01l0 0c0,0 0,0 0,0l0 0c0,0 0,0 0,0l0 0.01c0,0 0,0 -0.01,0 0,0 0,0 0,0l0 -0.01c0,0 0,0 0,0 -0.01,0 -0.01,0.02 -0.02,0.02 0,0.01 0,0.01 0,0.02 0,0 0,0 0,0l0 0c0,0 0,0.01 0,0.01 0,0 0,0 0,0l0 0.01c0,0 -0.01,-0.01 -0.01,-0.01 0,0.01 0,0.02 0,0.03l0.17 0 0 -0.03 0 0 0 -0.03 0 0 0 -0.04 0 0 0 -0.03 0 -0.03 0 0c-0.01,0 -0.03,0 -0.04,0 0,0 -0.01,0.01 -0.02,0.01 0,0 -0.01,0 -0.01,0.01z"/>
     <path class="fil1" d="M0 0.23l0.25 0 0.1 0 0 0 -0.1 0 0 -0.03 -0.25 0c0,0 0,0.03 0,0.03z"/>
     <path class="fil2" d="M0 0.2c0.06,-0.01 0.13,0 0.19,0 0.01,0 0.06,0 0.06,-0.01l0 -0.03 -0.25 0c0,0.01 0,0.01 0,0.02l0 0 0 0 0 0 0 0 0 0 0 0.01c0,0 0,0 0,0.01z"/>
     <path class="fil2" d="M0.02 0.26l0.23 0 0 -0.03 -0.25 0c0.01,0 0.01,0.01 0.01,0.02 0,0 0,0.01 0.01,0.01z"/>
     <path class="fil1" d="M0.04 0.29l0.2 0 0.08 0 0 0 -0.08 0 0.01 -0.03 -0.23 0c0,0.01 0,0.01 0.01,0.02 0,0 0.01,0.01 0.01,0.01z"/>
     <path class="fil2" d="M0.08 0.33l0.14 0c0,0 0.01,-0.01 0.01,-0.02 0,0 0.01,-0.01 0.01,-0.02l-0.2 0c0,0.01 0.02,0.03 0.03,0.03 0,0 0,0 0.01,0.01z"/>
     <path class="fil3" d="M0 0.2l0 0 0.25 0 0.11 0 0 -0.04 -0.11 0 -0.08 0 -0.17 0 0 0 0.25 0 0 0.03c0,0.01 -0.05,0.01 -0.06,0.01 -0.06,0 -0.13,-0.01 -0.19,0z"/>
     <path class="fil4" d="M0.25 0.16l0.11 0c0,0 0,-0.01 0,-0.01 0,-0.01 0,-0.01 0,-0.01 -0.01,0 -0.01,-0.01 -0.01,-0.01l-0.1 0 0 0.03z"/>
     <path class="fil3" d="M0.17 0.13l0 0 0.08 0 0.1 0c0,0 0,-0.01 0,-0.01l-0.01 -0.02c0,0 0,0 0,0 0,0 0,0 0,0l0 0 -0.09 0 -0.08 0 0 0 0.08 0 0 0.03 -0.08 0z"/>
     <path class="fil4" d="M0.35 0.23c0,0 0,0 0,0l0.01 -0.01c0,0 0,0 0,-0.01 0,0 0,-0.01 0,-0.01l-0.11 0 0 0.03 0.1 0z"/>
     <path class="fil1" d="M0.19 0.36c0,0 0,0 0,0l0 0c0.01,-0.01 0.02,-0.01 0.03,-0.02l0 -0.01 -0.14 0c0,0 0,0 0,0 0.01,0.01 0.01,0.01 0.02,0.01 0.01,0.01 0.01,0.01 0.02,0.01 0.03,0.01 0.04,0.01 0.07,0.01z"/>
     <path class="fil3" d="M0.25 0.26l0.09 0c0,0 0.01,-0.01 0.01,-0.01 0,-0.01 0,-0.02 0,-0.02l-0.1 0 0 0.03z"/>
     <path class="fil4" d="M0.25 0.1l0.09 0c0,-0.01 -0.01,-0.03 -0.02,-0.03 0,0 0,-0.01 0,-0.01l-0.08 0 0.01 0.04z"/>
     <path class="fil4" d="M0.32 0.29c0,0 0,0 0,0 0.01,-0.01 0.01,-0.01 0.01,-0.01 0,-0.01 0.01,-0.01 0.01,-0.02l-0.09 0 -0.01 0.03 0.08 0z"/>
     <polygon class="fil1" points="0.17,0.16 0.25,0.16 0.25,0.13 0.17,0.13 "/>
     <path class="fil3" d="M0.17 0.06l0 0 0.07 0 0.08 0c0,0 0,0 0,0 -0.01,0 -0.01,0 -0.01,-0.01 0,0 -0.01,-0.01 -0.02,-0.01 0,0 -0.01,-0.01 -0.01,-0.01l-0.06 0c0.01,0.01 0.01,0.01 0.01,0.02 0,0 0.01,0.01 0.01,0.01l-0.07 0z"/>
     <path class="fil3" d="M0.22 0.33l0.06 0c0.01,0 0.01,-0.01 0.01,-0.01l0.02 -0.02c0,0 0.01,0 0.01,-0.01l-0.08 0c0,0.01 -0.01,0.02 -0.01,0.02 0,0.01 -0.01,0.02 -0.01,0.02z"/>
     <polygon class="fil2" points="0.17,0.13 0.25,0.13 0.25,0.1 0.17,0.1 "/>
     <polygon class="fil1" points="0.17,0.1 0.25,0.1 0.24,0.06 0.17,0.06 "/>
     <path class="fil2" d="M0.17 0.06l0.07 0c0,0 -0.01,-0.01 -0.01,-0.01 0,-0.01 0,-0.01 -0.01,-0.02l0 0 -0.05 0 0 0.03z"/>
     <path class="fil4" d="M0.22 0.03l0 0 0.06 0c0,-0.01 -0.03,-0.02 -0.04,-0.02 -0.01,-0.01 -0.02,-0.01 -0.03,-0.01 -0.01,0 -0.02,0 -0.04,0l0 0c0.02,0 0.03,0 0.04,0.01 0,0 0.01,0.01 0.01,0.02z"/>
     <path class="fil4" d="M0.19 0.36c0.01,0 0.02,0 0.02,0 0.01,-0.01 0.03,-0.01 0.04,-0.01 0.01,-0.01 0.03,-0.02 0.03,-0.02l-0.06 0 0 0.01c-0.01,0.01 -0.02,0.01 -0.03,0.02l0 0c0,0 0,0 0,0z"/>
     <path class="fil1" d="M0.17 0.03l0.05 0c0,-0.01 -0.01,-0.02 -0.01,-0.02 -0.01,-0.01 -0.02,-0.01 -0.04,-0.01l0 0.03z"/>
     <path class="fil5" d="M0.12 0.12l-0.01 0c0,0.01 0.01,0.01 0.01,0.01l0 0.01c0,0 0,-0.01 0,-0.01 0.01,0 0.01,0.01 0.01,0.01l0 -0.01c0,0 0,0 0,-0.01 0,0 0,0 -0.01,0 0,0 0,0 0,0 0,0 0,0 0,0z"/>
     <path class="fil5" d="M0.12 0.03l-0.01 0c0,0 0.01,0.01 0.01,0.01l0 0.01c0,-0.01 0,-0.01 0,-0.01 0.01,0 0.01,0.01 0.01,0.01l0 -0.01c0,0 0,0 0,-0.01l0 0 -0.01 0c0,0 0,0 0,0 0,0 0,0 0,0z"/>
     <path class="fil5" d="M0.02 0.14c0,0 0.01,0 0.01,0l0 0.01c0,0 0,0 0,0 0.01,0 0.01,0 0.01,0l0 -0.01c0,0 0,0 0,0l0 0 -0.01 -0.01c0,0.01 0.01,0.01 -0.01,0.01z"/>
     <path class="fil5" d="M0.09 0.05l-0.01 0c0,0 0.01,0 0.01,0l0 0.01c0,0 0,0 0,0 0.01,0 0.01,0 0.01,0l0 -0.01c0,0 0,0 0,0 0,0 0,0 0,0 0,0 0,0 0,0l0 0c0,0 0,-0.01 -0.01,-0.01l0 0.01z"/>
     <path class="fil6" d="M0.06 0.06l-0.01 0c0,0.01 0.01,0.01 0.01,0.01l0 0.01c0,0 0,-0.01 0,-0.01 0.01,0 0.01,0.01 0.01,0.01l0 -0.01 0 -0.01c-0.01,0 0,0 -0.01,0l0 0z"/>
     <path class="fil6" d="M0.12 0.06l-0.01 0c0,0 0.01,0.01 0.01,0.01l0 0.01c0,0 0,-0.01 0,-0.01 0.01,0 0.01,0.01 0.01,0.01l0 -0.01c0,0 0,-0.01 0,-0.01 0,0 0,0 0,0 -0.01,0 -0.01,0 -0.01,0 0,0 0,0 0,0z"/>
     <path class="fil5" d="M0.15 0.05l-0.01 0c0,0 0.01,0 0.01,0l0 0.01c0,0 0,0 0,0 0.01,0 0.01,0 0.01,0l0 -0.01c0,0 0,0 0,0l0 0 -0.01 -0.01c0,0 0,0.01 0,0.01z"/>
     <path class="fil5" d="M0.15 0.11l-0.01 0c0,0 0.01,0 0.01,0l0 0.01c0,0 0,0 0,0 0.01,0 0.01,0 0.01,0l0 -0.01c0,0 0,0 0.01,0l-0.01 0 -0.01 -0.01c0,0 0,0.01 0,0.01z"/>
     <path class="fil5" d="M0.06 0.12l-0.01 0c0,0.01 0.01,0.01 0.01,0.01l0 0.01c0,0 0,-0.01 0,-0.01 0.01,0 0.01,0.01 0.01,0.01l0 -0.01c0,0 0,-0.01 0,-0.01 -0.01,0 0,0 -0.01,0l0 0z"/>
     <path class="fil5" d="M0.12 0.09l-0.01 0c0,0.01 0.01,0.01 0.01,0.01l0 0.01c0,-0.01 0,-0.01 0,-0.01 0.01,0 0.01,0.01 0.01,0.01l0 -0.01c0,0 0,0 0,-0.01l0 0 -0.01 0 0 0z"/>
     <path class="fil5" d="M0.15 0.15c0,0 0,0 0,0 0.01,0 0.01,0 0.01,0l0 -0.01 0 0c0,0 0,0 0,0l0 0 -0.01 -0.01c0,0 0,0 0,0 0,0 0,0 0,0 0,0.01 0,0 0,0l0 0.01 -0.01 0c0,0 0.01,0 0.01,0l0 0.01z"/>
     <path class="fil5" d="M0.09 0.08l-0.01 0c0,0 0.01,0 0.01,0l0 0.01c0,0 0,0 0,0 0.01,0 0.01,0 0.01,0l0 -0.01c0,0 0,0 0,0l0 0 -0.01 -0.01 0 0.01z"/>
     <path class="fil5" d="M0.08 0.14c0,0 0.01,0 0.01,0l0 0.01c0,0 0,0 0,0 0.01,0 0.01,0 0.01,0l0 -0.01 0 0c0,0 0,0 0,0l0 0 -0.01 -0.01c0,0 0,0.01 0,0.01l-0.01 0z"/>
     <path class="fil5" d="M0.03 0.11l-0.01 0c0,0 0.01,0 0.01,0l0 0.01c0,0 0,0 0,0 0.01,0 0.01,0 0.01,0l0 -0.01c0,0 0,0 0,0l0 0 -0.01 -0.01 0 0.01z"/>
     <path class="fil5" d="M0.06 0.09l-0.01 0c0,0.01 0.01,0.01 0.01,0.01l0 0.01c0,0 0,-0.01 0,-0.01 0.01,0 0.01,0.01 0.01,0.01l0 -0.01 0 -0.01 0 0 -0.01 0 0 0z"/>
     <path class="fil5" d="M0.09 0.11l-0.01 0c0,0 0.01,0 0.01,0l0 0.01c0,0 0,0 0,0 0.01,0 0.01,0 0.01,0l0 -0.01c0,0 0,0 0,0l0 0 -0.01 -0.01 0 0.01z"/>
     <path class="fil5" d="M0.15 0.02l-0.01 0c0,0 0.01,0 0.01,0l0 0.01c0,0 0,0 0,0 0.01,0 0.01,0 0.01,0l0 -0.01 0 0 0 0 -0.01 -0.01 0 0.01z"/>
     <path class="fil5" d="M0.15 0.08l-0.01 0 0.01 0c0,0 0,0 0,0l0 0.01c0,0 0,0 0,0 0.01,0 0.01,0 0.01,0l0 -0.01 0 0c0,0 0,0 0,0l0 0 -0.01 -0.01 0 0.01z"/>
     <path class="fil5" d="M0.03 0.08c0,0 0,0 0,0 0,0 0,0 0,0l0 0.01c0,0 0,0 0,0 0.01,0 0.01,0 0.01,0l0 -0.01c0,0 0,0 0,0l0 0c0,0 0,0 0,0l0 0c-0.01,-0.01 0,-0.01 -0.01,-0.01 0,0.01 0,0.01 0,0.01z"/>
     <path class="fil6" d="M0.09 0.02c0,0.01 0,0 0,0.01 0,0 0,0 0,0 0.01,0 0.01,0 0.01,0l0 -0.01c0,0 0,0 0,0 0,0 0,0 0,0 0,0 0,0 0,0l-0.01 0c0,0 0,0 0,0z"/>
     <path class="fil7" d="M0.06 0.04l0 0.01c0,0 0,-0.01 0,-0.01 0.01,0 0.01,0.01 0.01,0.01l0 -0.01c0,0 0,0 0,0 0,0 0,0 0,-0.01l0 0 0 0c0,0 0,0 0,0.01 0,0 -0.01,0 -0.01,0 0,0 0,0 0,0z"/>
     <path class="fil7" d="M0 0.13c0,0 0.01,0.01 0.01,0.01l0 -0.01c0,0 0,0 0,0 0,0 0,-0.01 0,-0.01l0 0c0,0 0,0 0,0 0,0 -0.01,0.01 -0.01,0.01z"/>
    </g>
   </g>
  </g>
  <path class="fil8" d="M0.18 0c0.1,0 0.18,0.08 0.18,0.18 0,0.1 -0.08,0.18 -0.18,0.18 -0.1,0 -0.18,-0.08 -0.18,-0.18 0,-0.1 0.08,-0.18 0.18,-0.18z"/>
 </g>
</svg>
