<?xml version="1.0" encoding="UTF-8"?>
<!DOCTYPE svg PUBLIC "-//W3C//DTD SVG 1.1//EN" "http://www.w3.org/Graphics/SVG/1.1/DTD/svg11.dtd">
<!-- Creator: CorelDRAW 2020 (64-Bit Evaluation Version) -->
<svg xmlns="http://www.w3.org/2000/svg" xml:space="preserve" width="50px" height="50px" version="1.1" style="shape-rendering:geometricPrecision; text-rendering:geometricPrecision; image-rendering:optimizeQuality; fill-rule:evenodd; clip-rule:evenodd"
viewBox="0 0 1.7 1.7"
 xmlns:xlink="http://www.w3.org/1999/xlink"
 xmlns:xodm="http://www.corel.com/coreldraw/odm/2003">
 <defs>
  <style type="text/css">
   <![CDATA[
    .fil0 {fill:#0CEF63}
    .fil1 {fill:#EFB30C}
   ]]>
  </style>
 </defs>
 <g id="Layer_x0020_1">
  <metadata id="CorelCorpID_0Corel-Layer"/>
  <path class="fil0" d="M1.29 1c-0.03,0 -0.07,-0.04 -0.09,-0.07 -0.03,-0.03 -0.07,-0.06 -0.07,-0.09 0,-0.02 0.01,-0.03 0.01,-0.04 0.06,-0.06 0.12,0.05 0.15,0.07 0.01,-0.01 0.03,-0.04 0.04,-0.05l0.09 -0.11c0.02,-0.01 0.03,-0.04 0.06,-0.04 0.04,0 0.07,0.06 0.04,0.09l-0.18 0.21c-0.01,0.01 -0.03,0.03 -0.05,0.03zm0.04 0.2c0.08,0 0.1,0 0.16,-0.03 0.07,-0.03 0.15,-0.1 0.17,-0.17 0.03,-0.06 0.04,-0.09 0.04,-0.16 0,-0.09 -0.05,-0.18 -0.11,-0.24 -0.08,-0.08 -0.21,-0.12 -0.32,-0.09 -0.03,0 -0.06,0.01 -0.08,0.02l-0.04 0.03c-0.05,0.03 -0.1,0.09 -0.13,0.14 -0.02,0.07 -0.02,0.07 -0.03,0.14 0,0.02 0.01,0.06 0.01,0.08 0.01,0.06 0.05,0.13 0.09,0.17 0.06,0.07 0.15,0.11 0.24,0.11z"/>
  <g id="_2804770743968">
   <path class="fil1" d="M1.17 1.7c0,-0.24 -0.14,-0.42 -0.33,-0.52 -0.11,-0.05 -0.17,-0.05 -0.3,-0.05 -0.07,0 -0.17,0.03 -0.22,0.06 -0.04,0.02 -0.13,0.08 -0.16,0.11 -0.09,0.11 -0.16,0.24 -0.16,0.4l1.17 0z"/>
   <path class="fil1" d="M0.61 1.05c0.27,0 0.4,-0.38 0.19,-0.56 -0.13,-0.11 -0.31,-0.11 -0.44,0.02 -0.06,0.05 -0.09,0.14 -0.09,0.22 0,0.07 0.03,0.17 0.09,0.22 0.07,0.08 0.14,0.1 0.25,0.1z"/>
  </g>
  <path class="fil1" d="M1.4 1.38c-0.02,-0.01 -0.02,-0.03 -0.02,-0.04 0.01,-0.02 0.03,-0.03 0.05,-0.02l0.06 0.03 0.03 -0.06c0,-0.02 0.02,-0.02 0.04,-0.02 0.01,0.01 0.02,0.03 0.01,0.05l-0.02 0.06 0.06 0.02c0.02,0.01 0.02,0.03 0.02,0.05 -0.01,0.01 -0.03,0.02 -0.05,0.01l-0.06 -0.03 -0.03 0.06c0,0.02 -0.02,0.02 -0.04,0.02 -0.01,-0.01 -0.02,-0.03 -0.01,-0.04l0.02 -0.06 -0.06 -0.03z"/>
  <path class="fil1" d="M1.54 0.03c0,-0.02 0.02,-0.03 0.03,-0.03 0.02,0 0.03,0.01 0.03,0.03l0 0.07 0.07 0c0.01,0 0.03,0.02 0.03,0.03 0,0.02 -0.02,0.03 -0.03,0.03l-0.07 0 0 0.07c0,0.02 -0.01,0.03 -0.03,0.03 -0.02,0 -0.03,-0.01 -0.03,-0.03l0 -0.07 -0.06 0c-0.02,0 -0.04,-0.01 -0.04,-0.03 0,-0.02 0.02,-0.03 0.04,-0.03l0.06 0 0 -0.07z"/>
  <path class="fil1" d="M1.25 0.27c0,-0.01 0.01,-0.02 0.02,-0.02 0.01,0 0.02,0.01 0.02,0.02l0 0.04 0.04 0c0.01,0 0.02,0.01 0.02,0.02 0,0.01 -0.01,0.02 -0.02,0.02l-0.04 0 0 0.05c0,0.01 -0.01,0.02 -0.02,0.02 -0.01,0 -0.02,-0.01 -0.02,-0.02l0 -0.05 -0.04 0c-0.01,0 -0.02,-0.01 -0.02,-0.02 0,-0.01 0.01,-0.02 0.02,-0.02l0.04 0 0 -0.04z"/>
  <path class="fil1" d="M0.97 0.07c0,-0.01 0.01,-0.02 0.02,-0.02 0.01,0 0.02,0.01 0.02,0.02l0 0.04 0.04 0.01c0.01,0 0.02,0 0.02,0.02 0,0.01 -0.01,0.02 -0.02,0.01l-0.04 0 0 0.05c0,0.01 -0.01,0.02 -0.02,0.02 -0.01,0 -0.02,-0.01 -0.02,-0.02l0 -0.05 -0.04 0c-0.01,0 -0.02,-0.01 -0.02,-0.02 0,-0.01 0.01,-0.02 0.02,-0.02l0.04 0 0 -0.04z"/>
 </g>
</svg>
