<?xml version="1.0" encoding="UTF-8"?>
<!DOCTYPE svg PUBLIC "-//W3C//DTD SVG 1.1//EN" "http://www.w3.org/Graphics/SVG/1.1/DTD/svg11.dtd">
<!-- Creator: CorelDRAW 2020 (64-Bit Evaluation Version) -->
<svg xmlns="http://www.w3.org/2000/svg" xml:space="preserve" width="50px" height="50px" version="1.1" style="shape-rendering:geometricPrecision; text-rendering:geometricPrecision; image-rendering:optimizeQuality; fill-rule:evenodd; clip-rule:evenodd"
viewBox="0 0 6.78 6.78"
 xmlns:xlink="http://www.w3.org/1999/xlink"
 xmlns:xodm="http://www.corel.com/coreldraw/odm/2003">
 <defs>
  <style type="text/css">
   <![CDATA[
    .fil1 {fill:#EFB30C}
    .fil0 {fill:#EFB30C;fill-rule:nonzero}
   ]]>
  </style>
 </defs>
 <g id="Layer_x0020_1">
  <metadata id="CorelCorpID_0Corel-Layer"/>
  <g id="_2804874182720">
   <path class="fil0" d="M3.39 0c0.93,0 1.78,0.38 2.4,0.99 0.61,0.62 0.99,1.46 0.99,2.4 0,0.93 -0.38,1.78 -0.99,2.4 -0.62,0.61 -1.47,0.99 -2.4,0.99 -0.94,0 -1.78,-0.38 -2.4,-0.99 -0.61,-0.62 -0.99,-1.47 -0.99,-2.4 0,-0.94 0.38,-1.78 0.99,-2.4 0.62,-0.61 1.46,-0.99 2.4,-0.99zm2.01 1.37c-0.51,-0.51 -1.22,-0.83 -2.01,-0.83 -0.79,0 -1.5,0.32 -2.02,0.83 -0.51,0.52 -0.83,1.23 -0.83,2.02 0,0.79 0.32,1.5 0.83,2.01 0.52,0.52 1.23,0.84 2.02,0.84 0.79,0 1.5,-0.32 2.01,-0.84 0.52,-0.51 0.84,-1.22 0.84,-2.01 0,-0.79 -0.32,-1.5 -0.84,-2.02z"/>
   <path class="fil1" d="M5.42 5.71c0,-0.83 -0.5,-1.46 -1.14,-1.78 -0.4,-0.2 -0.6,-0.2 -1.04,-0.2 -0.25,0 -0.58,0.12 -0.76,0.2 -0.14,0.07 -0.46,0.31 -0.55,0.41 -0.32,0.38 -0.57,0.82 -0.57,1.37 1.35,1.16 2.71,1.14 4.06,0z"/>
   <path class="fil1" d="M3.47 3.45c0.95,0 1.37,-1.32 0.68,-1.92 -0.47,-0.39 -1.09,-0.4 -1.54,0.05 -0.19,0.19 -0.32,0.49 -0.32,0.76 0,0.27 0.13,0.59 0.3,0.77 0.26,0.27 0.51,0.34 0.88,0.34z"/>
  </g>
 </g>
</svg>
