<?xml version="1.0" encoding="UTF-8"?>
<!DOCTYPE svg PUBLIC "-//W3C//DTD SVG 1.1//EN" "http://www.w3.org/Graphics/SVG/1.1/DTD/svg11.dtd">
<!-- Creator: CorelDRAW 2020 (64-Bit Evaluation Version) -->
<svg xmlns="http://www.w3.org/2000/svg" xml:space="preserve" width="300px" height="215px" version="1.1" style="shape-rendering:geometricPrecision; text-rendering:geometricPrecision; image-rendering:optimizeQuality; fill-rule:evenodd; clip-rule:evenodd"
viewBox="0 0 84.76 60.67"
 xmlns:xlink="http://www.w3.org/1999/xlink"
 xmlns:xodm="http://www.corel.com/coreldraw/odm/2003">
 <defs>
  <style type="text/css">
   <![CDATA[
    .fil2 {fill:white}
    .fil4 {fill:#263674;fill-rule:nonzero}
    .fil0 {fill:url(#id0)}
    .fil1 {fill:url(#id1)}
    .fil3 {fill:url(#id2)}
   ]]>
  </style>
  <linearGradient id="id0" gradientUnits="userSpaceOnUse" x1="47.07" y1="0" x2="47.07" y2="49.52">
   <stop offset="0" style="stop-opacity:1; stop-color:#E0E6FC"/>
   <stop offset="1" style="stop-opacity:1; stop-color:#FFE987"/>
  </linearGradient>
  <linearGradient id="id1" gradientUnits="userSpaceOnUse" xlink:href="#id0" x1="37.7" y1="11.15" x2="37.7" y2="60.67">
  </linearGradient>
  <linearGradient id="id2" gradientUnits="userSpaceOnUse" x1="35.19" y1="20.9" x2="31.4" y2="70.09">
   <stop offset="0" style="stop-opacity:1; stop-color:#C4CEF2"/>
   <stop offset="1" style="stop-opacity:1; stop-color:#FFE987"/>
  </linearGradient>
 </defs>
 <g id="Layer_x0020_1">
  <metadata id="CorelCorpID_0Corel-Layer"/>
  <g id="_2806734659376">
   <polygon class="fil0" points="9.37,0 84.76,0 84.76,49.52 78.96,49.52 78.96,7.58 9.37,7.58 "/>
   <rect class="fil1" y="11.15" width="75.39" height="49.52"/>
   <rect class="fil2" y="36.16" width="75.39" height="7.92"/>
   <rect class="fil2" x="19.78" y="47.92" width="35.83" height="3.32" rx="1" ry="1.66"/>
   <path class="fil2" d="M24.29 53.41l26.81 0c0.39,0 0.71,0.32 0.71,0.71l0 0c0,0.39 -0.32,0.71 -0.71,0.71l-26.81 0c-0.39,0 -0.71,-0.32 -0.71,-0.71l0 0c0,-0.39 0.32,-0.71 0.71,-0.71z"/>
   <path class="fil2" d="M28.05 56.53l19.29 0c0.28,0 0.51,0.22 0.51,0.51l0 0c0,0.28 -0.23,0.5 -0.51,0.5l-19.29 0c-0.28,0 -0.51,-0.22 -0.51,-0.5l0 0c0,-0.29 0.23,-0.51 0.51,-0.51z"/>
   <rect class="fil2" x="27.6" y="13.86" width="20.19" height="23.53" rx="1.06" ry="1.06"/>
   <path class="fil3" d="M37.7 18.33c2.17,0 3.93,1.76 3.93,3.93 0,2.17 -1.76,3.93 -3.93,3.93 -2.17,0 -3.93,-1.76 -3.93,-3.93 0,-2.17 1.76,-3.93 3.93,-3.93zm-2.87 9.2l5.73 0c2.62,0 4.77,2.14 4.77,4.77l0 4.77 -15.27 0 0 -4.77c0,-2.63 2.15,-4.77 4.77,-4.77z"/>
   <circle class="fil2" cx="8.77" cy="17.93" r="3.79"/>
   <path class="fil4" d="M30.01 40.05l0.18 -0.57c0.43,0.15 0.73,0.28 0.92,0.39 -0.05,-0.48 -0.07,-0.81 -0.08,-0.99l0.58 0c0,0.26 -0.03,0.59 -0.09,0.99 0.28,-0.14 0.59,-0.27 0.94,-0.39l0.19 0.57c-0.34,0.11 -0.67,0.19 -1,0.22 0.17,0.14 0.39,0.4 0.69,0.76l-0.48 0.34c-0.15,-0.21 -0.34,-0.5 -0.55,-0.86 -0.19,0.37 -0.37,0.66 -0.52,0.86l-0.46 -0.34c0.3,-0.38 0.52,-0.63 0.66,-0.76 -0.35,-0.06 -0.67,-0.14 -0.98,-0.22zm3.18 0l0.19 -0.57c0.42,0.15 0.73,0.28 0.92,0.39 -0.05,-0.48 -0.08,-0.81 -0.08,-0.99l0.58 0c-0.01,0.26 -0.04,0.59 -0.09,0.99 0.27,-0.14 0.58,-0.27 0.94,-0.39l0.18 0.57c-0.34,0.11 -0.67,0.19 -0.99,0.22 0.16,0.14 0.39,0.4 0.68,0.76l-0.47 0.34c-0.16,-0.21 -0.34,-0.5 -0.55,-0.86 -0.2,0.37 -0.37,0.66 -0.52,0.86l-0.47 -0.34c0.31,-0.38 0.53,-0.63 0.66,-0.76 -0.34,-0.06 -0.67,-0.14 -0.98,-0.22zm3.19 0l0.18 -0.57c0.42,0.15 0.73,0.28 0.92,0.39 -0.05,-0.48 -0.07,-0.81 -0.08,-0.99l0.58 0c0,0.26 -0.03,0.59 -0.09,0.99 0.27,-0.14 0.59,-0.27 0.94,-0.39l0.18 0.57c-0.33,0.11 -0.66,0.19 -0.99,0.22 0.17,0.14 0.39,0.4 0.69,0.76l-0.48 0.34c-0.15,-0.21 -0.34,-0.5 -0.55,-0.86 -0.19,0.37 -0.37,0.66 -0.52,0.86l-0.47 -0.34c0.31,-0.38 0.53,-0.63 0.66,-0.76 -0.34,-0.06 -0.66,-0.14 -0.97,-0.22zm3.18 0l0.19 -0.57c0.42,0.15 0.73,0.28 0.92,0.39 -0.05,-0.48 -0.08,-0.81 -0.08,-0.99l0.58 0c-0.01,0.26 -0.04,0.59 -0.09,0.99 0.27,-0.14 0.58,-0.27 0.94,-0.39l0.18 0.57c-0.34,0.11 -0.67,0.19 -0.99,0.22 0.16,0.14 0.39,0.4 0.68,0.76l-0.48 0.34c-0.15,-0.21 -0.33,-0.5 -0.54,-0.86 -0.2,0.37 -0.37,0.66 -0.52,0.86l-0.47 -0.34c0.31,-0.38 0.53,-0.63 0.66,-0.76 -0.34,-0.06 -0.67,-0.14 -0.98,-0.22zm3.19 0l0.18 -0.57c0.42,0.15 0.73,0.28 0.92,0.39 -0.05,-0.48 -0.08,-0.81 -0.08,-0.99l0.58 0c-0.01,0.26 -0.04,0.59 -0.09,0.99 0.27,-0.14 0.59,-0.27 0.94,-0.39l0.18 0.57c-0.33,0.11 -0.66,0.19 -0.99,0.22 0.16,0.14 0.39,0.4 0.69,0.76l-0.48 0.34c-0.15,-0.21 -0.34,-0.5 -0.55,-0.86 -0.19,0.37 -0.37,0.66 -0.52,0.86l-0.47 -0.34c0.31,-0.38 0.53,-0.63 0.66,-0.76 -0.34,-0.06 -0.66,-0.14 -0.97,-0.22z"/>
  </g>
 </g>
</svg>
