<svg xmlns="http://www.w3.org/2000/svg" xmlns:xlink="http://www.w3.org/1999/xlink" viewBox="0 0 700 598.85"><defs><style>.cls-1{isolation:isolate;}.cls-2{opacity:0.07;fill:url(#linear-gradient);}.cls-11,.cls-3{fill:none;}.cls-3{stroke:#b8bdcc;stroke-miterlimit:10;stroke-width:2px;}.cls-4{fill:#fff1ca;}.cls-5{fill:#fff5e0;}.cls-13,.cls-22,.cls-6{fill:#fff;}.cls-7{opacity:0.8;}.cls-8{fill:#ffc900;}.cls-9{fill:#ffd336;}.cls-10{fill:#ffdf80;}.cls-11{stroke:#fff;stroke-linecap:round;stroke-linejoin:round;stroke-width:0.58px;opacity:0.5;}.cls-12{fill:#25336b;}.cls-12,.cls-13,.cls-14,.cls-26{fill-rule:evenodd;}.cls-14,.cls-20,.cls-22{opacity:0.3;}.cls-15{fill:#00d9c7;}.cls-16{fill:#00c1a4;}.cls-17{fill:#00ab8d;}.cls-18{fill:#008e73;}.cls-19{fill:#f6b000;}.cls-20,.cls-27,.cls-28{mix-blend-mode:soft-light;}.cls-21{fill:#d79200;}.cls-23{fill:#35b568;}.cls-24,.cls-26{fill:#3ece78;}.cls-25{fill:#21b75d;}.cls-27{fill:#f8f8f8;}.cls-28{opacity:0.6;}.cls-29{fill:#dd9800;}.cls-30{fill:#b8bdcc;}</style><linearGradient id="linear-gradient" x1="357.27" y1="243.58" x2="342.92" y2="392.47" gradientUnits="userSpaceOnUse"><stop offset="0"/><stop offset="1" stop-color="#fff" stop-opacity="0"/></linearGradient></defs><g class="cls-1"><g id="Layer_2" data-name="Layer 2"><g id="OBJECTS"><polygon class="cls-2" points="700 213.43 700 384.03 0 384.03 0 253.91 5.32 253.91 17.54 268.14 29.94 268.14 29.94 194.44 58.47 194.44 58.47 213.43 82.68 213.43 82.68 250.09 115.21 250.09 115.21 204.09 140.88 204.09 140.88 223.44 154.23 223.44 165.78 210 178.93 210 178.93 165.41 215.68 165.41 215.68 231.59 253.26 231.59 253.26 247.54 267.82 247.54 267.82 223.45 323.34 223.45 323.34 250.09 344.56 250.09 344.56 213.43 376.95 213.43 376.95 268.14 378.84 268.14 378.84 194.44 407.38 194.44 407.38 213.43 431.59 213.43 431.59 250.09 464.1 250.09 464.1 204.09 489.78 204.09 489.78 223.44 503.14 223.44 514.69 210 527.83 210 527.83 165.41 564.58 165.41 564.58 231.59 602.17 231.59 602.17 247.54 616.73 247.54 616.73 223.45 645.97 223.45 645.97 250.09 693.46 250.09 693.46 213.43 700 213.43"/><ellipse class="cls-3" cx="350" cy="295.53" rx="83.26" ry="285.37"/><ellipse class="cls-3" cx="350" cy="295.53" rx="83.26" ry="285.37" transform="translate(-80.94 450.88) rotate(-60)"/><ellipse class="cls-3" cx="350" cy="295.53" rx="285.37" ry="83.26" transform="translate(-100.88 214.59) rotate(-30)"/><polygon class="cls-4" points="182.76 32.95 173.83 50.05 194.04 49.73 203.01 32.37 182.76 32.95"/><polygon class="cls-5" points="173.83 50.05 184.7 67.82 205.05 66.47 194.04 49.73 173.83 50.05"/><polygon class="cls-6" points="203.01 32.37 214.69 49.21 205.05 66.47 194.04 49.73 203.01 32.37"/><g class="cls-7"><polygon class="cls-8" points="169.92 13.79 150.73 50.52 194.15 49.84 213.42 12.55 169.92 13.79"/><polygon class="cls-9" points="150.73 50.52 174.08 88.7 217.81 85.81 194.15 49.84 150.73 50.52"/><polygon class="cls-10" points="213.42 12.55 238.51 48.73 217.81 85.81 194.15 49.84 213.42 12.55"/></g><polygon class="cls-4" points="113.64 125.86 108.7 135.32 119.89 135.14 124.85 125.54 113.64 125.86"/><polygon class="cls-5" points="108.7 135.32 114.72 145.15 125.98 144.4 119.89 135.14 108.7 135.32"/><polygon class="cls-6" points="124.85 125.54 131.31 134.85 125.98 144.4 119.89 135.14 124.85 125.54"/><g class="cls-7"><polygon class="cls-8" points="106.54 115.26 95.93 135.58 119.95 135.2 130.61 114.57 106.54 115.26"/><polygon class="cls-9" points="95.93 135.58 108.84 156.7 133.03 155.1 119.95 135.2 95.93 135.58"/><polygon class="cls-10" points="130.61 114.57 144.49 134.58 133.03 155.1 119.95 135.2 130.61 114.57"/></g><polygon class="cls-4" points="304.16 38.41 300.88 44.7 308.31 44.58 311.61 38.2 304.16 38.41"/><polygon class="cls-5" points="300.88 44.7 304.87 51.24 312.36 50.74 308.31 44.58 300.88 44.7"/><polygon class="cls-6" points="311.61 38.2 315.9 44.39 312.36 50.74 308.31 44.58 311.61 38.2"/><g class="cls-7"><polygon class="cls-8" points="299.44 31.36 292.38 44.87 308.35 44.62 315.44 30.91 299.44 31.36"/><polygon class="cls-9" points="292.38 44.87 300.97 58.92 317.05 57.85 308.35 44.62 292.38 44.87"/><polygon class="cls-10" points="315.44 30.91 324.67 44.21 317.05 57.85 308.35 44.62 315.44 30.91"/></g><line class="cls-11" x1="166.03" y1="75.54" x2="137.31" y2="123.82"/><line class="cls-11" x1="214.69" y1="49.21" x2="292.38" y2="44.87"/><path class="cls-12" d="M356,150A13.34,13.34,0,0,0,344,150L237.19,203.43a13.36,13.36,0,0,0-7.38,11.95V295.5c0,35.55,11.49,65.32,32.09,89.69,20.38,24.11,49.17,42.35,83,56.21a13.33,13.33,0,0,0,10.12,0c33.87-13.86,62.66-32.1,83-56.21,20.6-24.37,32.09-54.14,32.09-89.69V215.38a13.36,13.36,0,0,0-7.38-11.95Z"/><path class="cls-13" d="M413.53,264.16a13.35,13.35,0,0,0-20.22-17.45l-59.83,69.35-27.55-27a13.35,13.35,0,0,0-18.7,19.07l37.71,37a13.35,13.35,0,0,0,19.46-.81Z"/><path class="cls-14" d="M470.19,215.43v80.16c0,35.46-11.54,65.27-32.09,89.66-20.43,24-49.16,42.31-83.05,56.25a14.55,14.55,0,0,1-5.05,1V337.78l63.46-73.56a13.33,13.33,0,1,0-20.19-17.42L350,296.92V148.6a13.55,13.55,0,0,1,6,1.44l106.73,53.49A13.18,13.18,0,0,1,470.19,215.43Z"/><path class="cls-14" d="M413.46,264.22,350,337.78V296.92l43.27-50.12a13.33,13.33,0,1,1,20.19,17.42Z"/><polygon class="cls-8" points="416.88 31.55 430.76 36.89 417.59 42.06 412.31 55.34 407.11 42.06 393.87 36.89 407.6 31.92 412.31 18.45 416.88 31.55"/><polygon class="cls-8" points="428.19 6.55 435.13 9.22 428.55 11.81 425.91 18.45 423.3 11.81 416.68 9.22 423.55 6.74 425.91 0 428.19 6.55"/><polygon class="cls-15" points="141.86 290.1 159.6 248.53 138.59 240.04 141.86 290.1"/><polygon class="cls-16" points="141.86 290.1 138.59 240.04 118.23 250.63 141.86 290.1"/><polygon class="cls-17" points="118.23 250.63 139.78 258 159.6 248.53 138.59 240.04 118.23 250.63"/><polygon class="cls-18" points="127.69 249.9 139.37 253.9 150.11 248.76 138.72 244.16 127.69 249.9"/><polygon class="cls-15" points="135.74 201.05 118 242.62 139.01 251.11 135.74 201.05"/><polygon class="cls-16" points="135.74 201.05 139.01 251.11 159.38 240.51 135.74 201.05"/><path class="cls-19" d="M161.33,436.42a13.15,13.15,0,0,1-1.43,7.73,22.14,22.14,0,0,1-3.73,5.2,34.6,34.6,0,0,1-4.94,4.29c-1.27.91-2.64,1.79-4.09,2.63a57,57,0,0,1-5.58,2.83c-1.35.6-2.76,1.17-4.22,1.7-1.7.62-3.47,1.21-5.3,1.73-1.4.4-2.83.77-4.3,1.1-1.76.4-3.55.76-5.39,1.05-.73.13-1.47.24-2.22.34s-1.42.19-2.14.27q-2.88.33-5.69.46-2.25.11-4.44.09c-2,0-3.91-.1-5.79-.25-1.54-.13-3.06-.31-4.52-.53a57.34,57.34,0,0,1-6.45-1.34,47.17,47.17,0,0,1-4.66-1.5,33.55,33.55,0,0,1-5.24-2.54,21.85,21.85,0,0,1-5-4,12.49,12.49,0,0,1-2-14.78,21.85,21.85,0,0,1,3.73-5.2c7-7.39,20.25-13.49,36-15.67s30.22.11,38.94,5.34a22.12,22.12,0,0,1,5,4A13.07,13.07,0,0,1,161.33,436.42Z"/><rect class="cls-19" x="71.21" y="426.26" width="89.42" height="16.34" transform="translate(-58.22 19.89) rotate(-7.85)"/><g class="cls-20"><path d="M119.86,446.61l2.49,18.07c-.73.13-1.47.24-2.22.34s-1.42.19-2.14.27l-2.49-18.08Z"/><path d="M129.58,444.62,132,462.53c-1.4.4-2.83.77-4.3,1.1l-2.53-18.41Z"/><path d="M139.2,442l2.36,17.11c-1.35.6-2.76,1.17-4.22,1.7l-2.51-18.21Z"/><path d="M148.85,436.43l2.38,17.21c-1.27.91-2.64,1.79-4.09,2.63L144.48,437Z"/><path d="M156.65,420.57l3.25,23.58a22.14,22.14,0,0,1-3.73,5.2l-3.88-28.18Z"/><path d="M109.66,446.62l2.64,19.13q-2.25.11-4.44.09l-2.56-18.62Z"/><path d="M99.4,446.19l2.67,19.4c-1.54-.13-3.06-.31-4.52-.53L95,446.79Z"/><path d="M88.35,443.8l2.75,19.92a47.17,47.17,0,0,1-4.66-1.5L84,444.4Z"/><path d="M77,429.07l4.21,30.61a21.85,21.85,0,0,1-5-4l-3.59-26Z"/></g><ellipse class="cls-8" cx="114.8" cy="426.34" rx="44.71" ry="22.71" transform="matrix(0.99, -0.14, 0.14, 0.99, -57.13, 19.66)"/><ellipse class="cls-19" cx="114.8" cy="426.34" rx="30.89" ry="15.69" transform="translate(-57.13 19.66) rotate(-7.85)"/><path class="cls-21" d="M134.55,425.41l.09.28c.88,2.84-3.54,6.36-9.87,7.84l-.28.06.48,1.52-7.37,1.73-.46-1.52-3,.71.47,1.52-7.36,1.72-.47-1.52-1.71.4-3.65.86-1-3.31,3.65-.85-1.24-4-1-3.31-1.1-3.58-3.65.86-1-3.31,3.65-.85,1.72-.41-.58-1.85,7.35-1.73.58,1.86,3-.71-.58-1.86,7.36-1.72.58,1.87c5.82-1.19,11.08-.11,11.89,2.52l.09.27c.36,1.14-.19,2.39-1.38,3.57C132.25,422.91,134.09,423.92,134.55,425.41Zm-7.27,2-.08-.29c-.32-1-2.41-1.41-4.67-.88l-1,.22-11.42,2.68,1.23,4,1.56-.36,10.81-2.54c2.27-.53,3.85-1.79,3.53-2.8M108,422.27l1.1,3.58,11.42-2.68c2-.48,3.46-1.61,3.17-2.52l-.08-.27c-.29-.91-2.16-1.27-4.19-.79l-9.86,2.31-1.56.37"/><polygon class="cls-21" points="96.43 423.79 97.02 424.85 98.49 423.74 97.74 422.73 96.43 423.79"/><polygon class="cls-21" points="100.8 437.95 101.4 439.01 103.05 436.59 100.8 437.95"/><polygon class="cls-21" points="106.64 438.21 107.23 439.27 114.59 437.55 113.99 436.49 106.64 438.21"/><polygon class="cls-21" points="117.01 435.78 117.61 436.84 124.97 435.11 124.37 434.06 117.01 435.78"/><polygon class="cls-21" points="107.55 415.64 108.14 416.7 107.37 418.53 107.55 415.64"/><polygon class="cls-21" points="117.93 413.21 118.53 414.27 117.39 415.93 117.93 413.21"/><path class="cls-8" d="M134,424.35l.09.29c.88,2.84-3.55,6.35-9.87,7.83l-.28.07.47,1.52L117,435.78l-.47-1.52-3,.71.47,1.52-7.35,1.72-.47-1.52-1.72.41-3.65.85-1-3.3,3.65-.86-1.23-4-1-3.31-1.11-3.57-3.64.85-1-3.3,3.65-.86,1.72-.4-.57-1.86,7.35-1.72.58,1.85,3-.7-.57-1.86,7.36-1.73.57,1.88c5.83-1.2,11.09-.12,11.9,2.51l.09.27c.35,1.14-.2,2.39-1.38,3.57C131.66,421.85,133.5,422.86,134,424.35Zm-7.27,2-.09-.28c-.31-1-2.4-1.42-4.67-.89l-1,.23-11.42,2.68,1.22,4,1.57-.37,10.81-2.53c2.26-.54,3.85-1.79,3.53-2.81m-19.25-5.15,1.1,3.58L120,422.11c2-.47,3.45-1.6,3.17-2.51l-.08-.28c-.29-.91-2.17-1.26-4.2-.79L109,420.84l-1.56.37"/><path class="cls-22" d="M72,430.56c0,.93.29,2.07,1.2,2.28a1.66,1.66,0,0,0,1.76-1.35,10.44,10.44,0,0,0,.11-2.44,6.06,6.06,0,0,1,2-4.32,11.81,11.81,0,0,0,1.87-1.65,1.77,1.77,0,0,0,0-2.27c-1.87-1.78-4.37,1.76-5.15,3.05A13,13,0,0,0,72,430.56Z"/><polygon class="cls-8" points="355.2 550.15 332.43 558.08 350.4 574.63 373.42 566.49 355.2 550.15"/><polygon class="cls-9" points="332.43 558.08 326.41 583.11 345.4 598.85 350.4 574.63 332.43 558.08"/><polygon class="cls-10" points="373.42 566.49 368.92 591.36 345.4 598.85 350.4 574.63 373.42 566.49"/><polygon class="cls-8" points="609.52 142.9 586.76 150.83 604.72 167.38 627.74 159.24 609.52 142.9"/><polygon class="cls-9" points="586.76 150.83 580.73 175.86 599.72 191.6 604.72 167.38 586.76 150.83"/><polygon class="cls-10" points="627.74 159.24 623.25 184.11 599.72 191.6 604.72 167.38 627.74 159.24"/><circle class="cls-23" cx="433.71" cy="399.54" r="55.41"/><circle class="cls-24" cx="433.71" cy="399.54" r="51.44" transform="translate(-148.87 490.87) rotate(-51.56)"/><path class="cls-24" d="M445.6,449.58,427.86,348.44A51.43,51.43,0,0,1,445.6,449.58Z"/><circle class="cls-25" cx="433.71" cy="399.54" r="39.09" transform="translate(-128.04 220.16) rotate(-24.94)"/><g id="Layer_1-2" data-name="Layer_1"><g id="_2074208353808" data-name=" 2074208353808"><path class="cls-26" d="M448.42,411.4l2-3a24.49,24.49,0,0,1,2.07,3.72c.2.53-.53,1.36-.92,1.92a20.15,20.15,0,0,1-7.73,6.32,22,22,0,0,1-9.72,2.22c-5.8.34-11.65-2.51-15.71-6.46a21.83,21.83,0,0,1-6.4-15.65,20.92,20.92,0,0,1,1.77-8.53s.79-2.23,1.39-2.34L422.33,403c.87,2.06,1.76-.67,2.42-1.77l1.56,2.9s.93,1.53,1.87,0l2.44-4.5s.52-.7.81.2l3.2,6s.55,1.5,1.28-.23l4.43-8.24s.58-1.19,1.29-.06c.14.21,1.44,2,1.25,3.14,0,0,.1.86-1.05,2.67a84.75,84.75,0,0,1-5,8.89s-1.57,2.28-3.2.31a36.83,36.83,0,0,1-2.68-4.62l-.87-1.47s-.23-.47-.5,0c-.76,1.33-2.91,5.72-4,6.39,0,0-1.27,1.55-3.11-1l-6.2-11.43c0,.07,0,.21,0,.28a18,18,0,0,0,32.19,10.95Z"/><path class="cls-26" d="M419.85,389.59l-2,3a22.87,22.87,0,0,1-2.07-3.72c-.21-.53.53-1.36.91-1.93a20.12,20.12,0,0,1,7.73-6.31,22.09,22.09,0,0,1,9.72-2.22c5.82-.34,11.66,2.5,15.71,6.46a21.77,21.77,0,0,1,6.4,15.64,20.85,20.85,0,0,1-1.77,8.53s-.79,2.24-1.39,2.34L445.94,398c-.87-2.06-1.76.67-2.42,1.77l-1.61-3s-1-1.32-1.9.23l-2.35,4.39s-.53.7-.82-.2l-3.19-6s-.56-1.5-1.29.23l-4.43,8.24s-.58,1.19-1.29.06c-.13-.22-1.44-2-1.25-3.14,0,0-.1-.86,1.05-2.67a84.75,84.75,0,0,1,5-8.89s1.57-2.29,3.2-.31a36.83,36.83,0,0,1,2.68,4.62l.87,1.47s.24.47.5,0c.76-1.33,2.91-5.72,4-6.4,0,0,1.28-1.54,3.11,1l6.2,11.43c0-.07,0-.23,0-.29a18,18,0,0,0-18-17.95,17.89,17.89,0,0,0-14.24,7Z"/></g></g><path class="cls-27" d="M453.67,447a51.45,51.45,0,0,0-17.34-98.8Z"/><path class="cls-27" d="M430,450.85l-17.24-98.28a51.44,51.44,0,0,1,12.09-3.69c1-.18,2-.33,3-.44L445.6,449.58c-1,.24-2,.44-3,.62A51.36,51.36,0,0,1,430,450.85Z"/><path class="cls-28" d="M615.14,307l-30.42,25.16a4.82,4.82,0,0,1-3.2-3.87l27.7-22.91Q612.28,306.14,615.14,307Z"/><polygon class="cls-29" points="580.25 242.32 580.25 278.2 574.71 271.8 574.63 241.17 580.25 242.32"/><path class="cls-30" d="M585.12,332.05a4.82,4.82,0,0,1-5,0v-91a2.51,2.51,0,0,1,5,0Z"/><polygon class="cls-19" points="585.03 244.75 585.03 280.63 593.44 274.73 593.44 244.75 585.03 244.75"/></g></g></g></svg>