<?xml version="1.0" encoding="UTF-8"?>
<!DOCTYPE svg PUBLIC "-//W3C//DTD SVG 1.1//EN" "http://www.w3.org/Graphics/SVG/1.1/DTD/svg11.dtd">
<!-- Creator: CorelDRAW 2020 (64-Bit Evaluation Version) -->
<svg xmlns="http://www.w3.org/2000/svg" xml:space="preserve" width="50px" height="50px" version="1.1" style="shape-rendering:geometricPrecision; text-rendering:geometricPrecision; image-rendering:optimizeQuality; fill-rule:evenodd; clip-rule:evenodd"
viewBox="0 0 11.12 11.12"
 xmlns:xlink="http://www.w3.org/1999/xlink"
 xmlns:xodm="http://www.corel.com/coreldraw/odm/2003">
 <defs>
  <style type="text/css">
   <![CDATA[
    .fil2 {fill:none}
    .fil3 {fill:#263674}
    .fil8 {fill:#3C4A82}
    .fil6 {fill:#E6E6E6}
    .fil5 {fill:#EFB30C}
    .fil7 {fill:#F5BE27}
    .fil4 {fill:white}
    .fil1 {fill:white;fill-opacity:0.501961}
    .fil0 {fill:url(#id1)}
   ]]>
  </style>
    <clipPath id="id0">
     <path d="M5.56 0c3.07,0 5.56,2.49 5.56,5.56 0,3.07 -2.49,5.56 -5.56,5.56 -3.07,0 -5.56,-2.49 -5.56,-5.56 0,-3.07 2.49,-5.56 5.56,-5.56z"/>
    </clipPath>
  <linearGradient id="id1" gradientUnits="userSpaceOnUse" x1="6.04" y1="11.3" x2="6.04" y2="0">
   <stop offset="0" style="stop-opacity:1; stop-color:#D4D7E4"/>
   <stop offset="1" style="stop-opacity:1; stop-color:white"/>
  </linearGradient>
 </defs>
 <g id="Layer_x0020_1">
  <metadata id="CorelCorpID_0Corel-Layer"/>
  <g id="_2063981301888">
   <path class="fil0" d="M5.56 0c3.07,0 5.56,2.49 5.56,5.56 0,3.07 -2.49,5.56 -5.56,5.56 -3.07,0 -5.56,-2.49 -5.56,-5.56 0,-3.07 2.49,-5.56 5.56,-5.56z"/>
   <g style="clip-path:url(#id0)">
    <g>
     <polygon id="1" class="fil1" points="5.48,-1.43 12.79,-1.43 12.79,11.94 5.48,11.94 "/>
    </g>
   </g>
   <path class="fil2" d="M5.56 0c3.07,0 5.56,2.49 5.56,5.56 0,3.07 -2.49,5.56 -5.56,5.56 -3.07,0 -5.56,-2.49 -5.56,-5.56 0,-3.07 2.49,-5.56 5.56,-5.56z"/>
   <g>
    <circle class="fil3" cx="5.56" cy="5.56" r="2.99"/>
    <circle class="fil4" cx="5.56" cy="5.56" r="2.22"/>
    <g>
     <circle class="fil5" transform="matrix(1.56842E-13 -5.92334 5.92331 1.56843E-13 2.82664 5.56087)" r="0.23"/>
     <rect class="fil4" transform="matrix(1.55876 -1.55876 1.55876 1.55876 2.45423 5.56088)" width="0.24" height="0.24" rx="0.02" ry="0.02"/>
     <path class="fil6" d="M3.17 5.53l-0.32 -0.31c0,-0.01 -0.01,-0.02 -0.02,-0.02l0 0.72c0.01,0 0.02,-0.01 0.02,-0.01l0.32 -0.32c0.02,-0.02 0.02,-0.04 0,-0.06z"/>
     <path class="fil7" d="M3.42 4.97c0.15,0.15 0.25,0.36 0.25,0.59 0,0.23 -0.1,0.44 -0.25,0.59 -0.15,0.15 -0.36,0.25 -0.59,0.25l0 0.37 0 0.16c0.02,0 0.05,0 0.07,0 0.28,-0.01 0.53,-0.11 0.74,-0.26 0.34,-0.25 0.56,-0.66 0.56,-1.11 0,-0.45 -0.22,-0.86 -0.56,-1.11 -0.21,-0.15 -0.46,-0.24 -0.74,-0.26 -0.02,0 -0.05,0 -0.07,0l0 0.16 0 0.37c0.23,0 0.44,0.1 0.59,0.25z"/>
    </g>
    <g>
     <circle class="fil5" transform="matrix(1.56842E-13 -5.92334 5.92331 1.56843E-13 8.29482 5.56087)" r="0.23"/>
     <rect class="fil4" transform="matrix(1.55876 -1.55876 1.55876 1.55876 7.9224 5.56088)" width="0.24" height="0.24" rx="0.02" ry="0.02"/>
     <path class="fil6" d="M8.64 5.53l-0.32 -0.31c-0.01,-0.01 -0.02,-0.02 -0.03,-0.02l0 0.72c0.01,0 0.02,-0.01 0.03,-0.01l0.32 -0.32c0.02,-0.02 0.02,-0.04 0,-0.06z"/>
     <path class="fil7" d="M8.89 4.97c0.15,0.15 0.24,0.36 0.24,0.59 0,0.23 -0.09,0.44 -0.24,0.59 -0.15,0.15 -0.36,0.25 -0.6,0.25l0 0.37 0 0.16c0.03,0 0.06,0 0.08,0 0.28,-0.01 0.53,-0.11 0.74,-0.26 0.34,-0.25 0.56,-0.66 0.56,-1.11 0,-0.45 -0.22,-0.86 -0.56,-1.11 -0.21,-0.15 -0.46,-0.24 -0.74,-0.26 -0.02,0 -0.05,0 -0.08,0l0 0.16 0 0.37c0.24,0 0.45,0.1 0.6,0.25z"/>
    </g>
    <g>
     <circle class="fil3" transform="matrix(1.56842E-13 -5.92334 5.92331 1.56843E-13 5.56073 2.82667)" r="0.23"/>
     <rect class="fil4" transform="matrix(1.55876 -1.55876 1.55876 1.55876 5.18832 2.82669)" width="0.24" height="0.24" rx="0.02" ry="0.02"/>
     <path class="fil6" d="M5.91 2.8l-0.32 -0.32c-0.01,-0.01 -0.02,-0.01 -0.03,-0.01l0 0.71c0.01,0 0.02,0 0.03,-0.01l0.32 -0.32c0.01,-0.01 0.01,-0.04 0,-0.05z"/>
     <path class="fil8" d="M6.16 2.24c0.15,0.15 0.24,0.36 0.24,0.59 0,0.23 -0.09,0.43 -0.24,0.59 -0.16,0.15 -0.37,0.25 -0.6,0.25l0 0.37 0 0.16c0.03,0 0.05,0 0.08,0 0.27,-0.02 0.52,-0.11 0.73,-0.27 0.34,-0.25 0.56,-0.65 0.56,-1.1 0,-0.46 -0.22,-0.86 -0.56,-1.11 -0.21,-0.15 -0.46,-0.25 -0.73,-0.26 -0.03,0 -0.05,-0.01 -0.08,-0.01l0 0.17 0 0.37c0.23,0 0.44,0.09 0.6,0.25z"/>
     <circle class="fil4" transform="matrix(9.60124E-14 -3.6196 3.61958 9.60129E-14 5.56076 2.82673)" r="0.23"/>
     <rect class="fil3" transform="matrix(1.55876 -1.55876 1.55876 1.55876 5.18835 2.82675)" width="0.24" height="0.24" rx="0.02" ry="0.02"/>
     <path class="fil8" d="M5.91 2.8l-0.32 -0.32c-0.01,-0.01 -0.02,-0.01 -0.03,-0.01l0 0.71c0.01,0 0.02,0 0.03,-0.01l0.32 -0.32c0.01,-0.01 0.01,-0.04 0,-0.05z"/>
    </g>
    <g>
     <circle class="fil3" transform="matrix(1.56842E-13 -5.92334 5.92331 1.56843E-13 5.56073 8.29496)" r="0.23"/>
     <rect class="fil4" transform="matrix(1.55876 -1.55876 1.55876 1.55876 5.18832 8.29497)" width="0.24" height="0.24" rx="0.02" ry="0.02"/>
     <path class="fil6" d="M5.91 8.27l-0.32 -0.32c-0.01,-0.01 -0.02,-0.01 -0.03,-0.01l0 0.71c0.01,0 0.02,0 0.03,-0.01l0.32 -0.32c0.01,-0.01 0.01,-0.04 0,-0.05z"/>
     <path class="fil8" d="M6.16 7.71c0.15,0.15 0.24,0.35 0.24,0.58 0,0.23 -0.09,0.44 -0.24,0.59 -0.16,0.16 -0.37,0.25 -0.6,0.25l0 0.37 0 0.17c0.03,0 0.05,0 0.08,0 0.27,-0.02 0.52,-0.12 0.73,-0.27 0.34,-0.25 0.56,-0.65 0.56,-1.11 0,-0.45 -0.22,-0.85 -0.56,-1.1 -0.21,-0.15 -0.46,-0.25 -0.73,-0.27 -0.03,0 -0.05,0 -0.08,0l0 0.17 0 0.37c0.23,0 0.44,0.09 0.6,0.25z"/>
     <circle class="fil4" transform="matrix(9.60124E-14 -3.6196 3.61958 9.60129E-14 5.56076 8.29502)" r="0.23"/>
     <rect class="fil3" transform="matrix(1.55876 -1.55876 1.55876 1.55876 5.18835 8.29503)" width="0.24" height="0.24" rx="0.02" ry="0.02"/>
     <path class="fil8" d="M5.91 8.27l-0.32 -0.32c-0.01,-0.01 -0.02,-0.01 -0.03,-0.01l0 0.71c0.01,0 0.02,0 0.03,-0.01l0.32 -0.32c0.01,-0.01 0.01,-0.04 0,-0.05z"/>
    </g>
    <g>
     <rect class="fil5" transform="matrix(3.3885 -3.38851 3.3885 3.38851 4.75109 5.56091)" width="0.24" height="0.24" rx="0.02" ry="0.02"/>
     <path class="fil7" d="M6.31 5.5l-0.69 -0.69c-0.02,-0.02 -0.04,-0.02 -0.06,-0.02l0 1.55c0.02,0 0.04,-0.01 0.06,-0.03l0.69 -0.69c0.03,-0.03 0.03,-0.09 0,-0.12z"/>
    </g>
   </g>
  </g>
 </g>
</svg>
