<?xml version="1.0" encoding="UTF-8"?>
<!DOCTYPE svg PUBLIC "-//W3C//DTD SVG 1.1//EN" "http://www.w3.org/Graphics/SVG/1.1/DTD/svg11.dtd">
<!-- Creator: CorelDRAW 2020 (64-Bit Evaluation Version) -->
<svg xmlns="http://www.w3.org/2000/svg" xml:space="preserve" width="50px" height="50px" version="1.1" style="shape-rendering:geometricPrecision; text-rendering:geometricPrecision; image-rendering:optimizeQuality; fill-rule:evenodd; clip-rule:evenodd"
viewBox="0 0 11.84 11.84"
 xmlns:xlink="http://www.w3.org/1999/xlink"
 xmlns:xodm="http://www.corel.com/coreldraw/odm/2003">
 <defs>
  <style type="text/css">
   <![CDATA[
    .fil2 {fill:none}
    .fil4 {fill:#3C4A82}
    .fil5 {fill:#EFB30C}
    .fil6 {fill:#F5BE27}
    .fil3 {fill:#263674;fill-rule:nonzero}
    .fil7 {fill:white;fill-rule:nonzero}
    .fil1 {fill:white;fill-opacity:0.501961}
    .fil0 {fill:url(#id1)}
   ]]>
  </style>
    <clipPath id="id0">
     <path d="M5.92 0c3.27,0 5.92,2.65 5.92,5.92 0,3.27 -2.65,5.92 -5.92,5.92 -3.27,0 -5.92,-2.65 -5.92,-5.92 0,-3.27 2.65,-5.92 5.92,-5.92z"/>
    </clipPath>
  <linearGradient id="id1" gradientUnits="userSpaceOnUse" x1="6.43" y1="12.03" x2="6.43" y2="0">
   <stop offset="0" style="stop-opacity:1; stop-color:#D4D7E4"/>
   <stop offset="1" style="stop-opacity:1; stop-color:white"/>
  </linearGradient>
 </defs>
 <g id="Layer_x0020_1">
  <metadata id="CorelCorpID_0Corel-Layer"/>
  <g id="_2064303133648">
   <path class="fil0" d="M5.92 0c3.27,0 5.92,2.65 5.92,5.92 0,3.27 -2.65,5.92 -5.92,5.92 -3.27,0 -5.92,-2.65 -5.92,-5.92 0,-3.27 2.65,-5.92 5.92,-5.92z"/>
   <g style="clip-path:url(#id0)">
    <g>
     <polygon id="1" class="fil1" points="5.83,-1.52 13.61,-1.52 13.61,12.71 5.83,12.71 "/>
    </g>
   </g>
   <path class="fil2" d="M5.92 0c3.27,0 5.92,2.65 5.92,5.92 0,3.27 -2.65,5.92 -5.92,5.92 -3.27,0 -5.92,-2.65 -5.92,-5.92 0,-3.27 2.65,-5.92 5.92,-5.92z"/>
   <g>
    <path class="fil3" d="M5 5.09c0.52,0 1.01,-0.05 1.46,-0.14 0.44,-0.1 0.8,-0.22 1.06,-0.39 0.26,-0.16 0.39,-0.34 0.39,-0.52l0 -0.88c0,-0.19 -0.13,-0.37 -0.39,-0.53 -0.26,-0.16 -0.62,-0.29 -1.06,-0.38 -0.45,-0.1 -0.94,-0.15 -1.46,-0.15 -0.53,0 -1.02,0.05 -1.47,0.15 -0.43,0.09 -0.78,0.22 -1.04,0.38 -0.26,0.16 -0.39,0.34 -0.39,0.53l0 0.88c0,0.18 0.13,0.36 0.39,0.52 0.26,0.17 0.61,0.29 1.04,0.39 0.45,0.09 0.94,0.14 1.47,0.14zm2.9 -0.47c-0.03,0.18 -0.18,0.34 -0.45,0.49 -0.27,0.15 -0.62,0.27 -1.04,0.35 -0.44,0.09 -0.91,0.14 -1.41,0.14 -0.5,0 -0.97,-0.05 -1.41,-0.14 -0.43,-0.08 -0.77,-0.2 -1.04,-0.35 -0.27,-0.15 -0.42,-0.31 -0.45,-0.49 -0.01,0.01 -0.01,0.25 0,0.72l0 0.71c0,0.19 0.13,0.37 0.39,0.54 0.26,0.16 0.61,0.29 1.04,0.38 0.45,0.1 0.94,0.14 1.47,0.14 0.52,0 1.01,-0.04 1.46,-0.14 0.44,-0.09 0.8,-0.22 1.06,-0.38 0.26,-0.17 0.39,-0.35 0.39,-0.54l0 -0.71c0,-0.47 -0.01,-0.71 -0.01,-0.72zm-2.9 3.03c-0.5,0 -0.97,-0.05 -1.41,-0.14 -0.43,-0.09 -0.77,-0.2 -1.04,-0.35 -0.27,-0.15 -0.42,-0.32 -0.45,-0.5l0 1.44c0,0.19 0.13,0.37 0.39,0.53 0.26,0.17 0.61,0.29 1.04,0.39 0.45,0.09 0.94,0.14 1.47,0.14 0.52,0 1.01,-0.05 1.46,-0.14 0.44,-0.1 0.8,-0.22 1.06,-0.39 0.26,-0.16 0.39,-0.34 0.39,-0.53l-0.01 -1.44c-0.03,0.18 -0.18,0.35 -0.45,0.5 -0.27,0.15 -0.62,0.26 -1.04,0.35 -0.44,0.09 -0.91,0.14 -1.41,0.14z"/>
    <path class="fil4" d="M3.27 7.43c-0.29,-0.07 -0.52,-0.16 -0.72,-0.27 -0.27,-0.15 -0.42,-0.32 -0.45,-0.5l0 1.44c0,0.19 0.13,0.37 0.39,0.53 0.2,0.13 0.46,0.24 0.78,0.32l0 -1.52z"/>
    <path class="fil4" d="M2.49 4.56c0.2,0.13 0.46,0.24 0.78,0.32l0 -2.57c-0.32,0.08 -0.58,0.19 -0.78,0.32 -0.26,0.16 -0.39,0.34 -0.39,0.53l0 0.87c0,0.19 0.13,0.37 0.39,0.53z"/>
    <path class="fil4" d="M3.27 5.39c-0.29,-0.08 -0.52,-0.17 -0.72,-0.28 -0.27,-0.15 -0.42,-0.31 -0.45,-0.49 -0.01,0.01 -0.01,0.25 0,0.72l0 0.71c0,0.19 0.13,0.37 0.39,0.54 0.2,0.12 0.46,0.23 0.78,0.32l0 -1.52z"/>
   </g>
   <g>
    <path class="fil5" d="M10.02 3.93c-0.38,0 -0.73,-0.03 -1.04,-0.08 -0.26,-0.04 -0.49,-0.11 -0.7,-0.19 -0.16,-0.07 -0.3,-0.14 -0.41,-0.24 -0.08,-0.06 -0.15,-0.12 -0.2,-0.19 -0.04,-0.05 -0.06,-0.08 -0.06,-0.09 -0.01,-0.02 -0.02,-0.03 -0.04,-0.04 -0.01,-0.02 -0.03,-0.02 -0.05,-0.02l0 0c-0.03,0 -0.04,0 -0.06,0.02 -0.02,0.01 -0.03,0.02 -0.03,0.04 -0.01,0.01 -0.03,0.04 -0.07,0.09 -0.05,0.06 -0.11,0.13 -0.2,0.19 -0.11,0.09 -0.25,0.17 -0.42,0.24 -0.2,0.08 -0.43,0.14 -0.69,0.19 -0.31,0.05 -0.66,0.08 -1.04,0.08 -0.03,0 -0.06,0.01 -0.08,0.03 -0.02,0.03 -0.02,0.05 -0.02,0.08l0 3.5c0,0.42 0.2,0.85 0.62,1.28 0.3,0.31 0.69,0.62 1.19,0.91 0.25,0.15 0.5,0.29 0.75,0.4l0.01 0c0,0 0.01,0.01 0.04,0.01 0.02,0 0.03,-0.01 0.04,-0.01l0 0c0.25,-0.11 0.5,-0.25 0.75,-0.4 0.5,-0.29 0.9,-0.6 1.2,-0.91 0.41,-0.43 0.62,-0.86 0.62,-1.28l0 -3.5c0,-0.03 -0.01,-0.05 -0.03,-0.08 -0.02,-0.02 -0.04,-0.03 -0.08,-0.03z"/>
    <path class="fil6" d="M7.52 3.08l0 7.06c0.02,0 0.03,-0.01 0.04,-0.01l0 0c0.25,-0.11 0.5,-0.25 0.75,-0.4 0.5,-0.29 0.9,-0.6 1.2,-0.91 0.41,-0.43 0.62,-0.86 0.62,-1.28l0 -3.5c0,-0.03 -0.01,-0.05 -0.03,-0.08 -0.02,-0.02 -0.04,-0.03 -0.08,-0.03 -0.38,0 -0.73,-0.03 -1.04,-0.08 -0.26,-0.04 -0.49,-0.11 -0.7,-0.19 -0.16,-0.07 -0.3,-0.14 -0.41,-0.24 -0.08,-0.06 -0.15,-0.12 -0.2,-0.19 -0.04,-0.05 -0.06,-0.08 -0.06,-0.09 -0.01,-0.02 -0.02,-0.03 -0.04,-0.04 -0.01,-0.02 -0.03,-0.02 -0.05,-0.02z"/>
    <path class="fil7" d="M7.43 6.39l1.32 0 -1.86 2.47 -0.01 -0.01 0.68 -1.85 -1.28 0.05 1.89 -2.69 0.01 0 -0.2 0.54c-0.24,0.66 -0.42,1.16 -0.55,1.49z"/>
   </g>
  </g>
 </g>
</svg>
