<?xml version="1.0" encoding="UTF-8"?>
<!DOCTYPE svg PUBLIC "-//W3C//DTD SVG 1.1//EN" "http://www.w3.org/Graphics/SVG/1.1/DTD/svg11.dtd">
<!-- Creator: CorelDRAW 2020 (64-Bit Evaluation Version) -->
<svg xmlns="http://www.w3.org/2000/svg" xml:space="preserve" width="50px" height="50px" version="1.1" style="shape-rendering:geometricPrecision; text-rendering:geometricPrecision; image-rendering:optimizeQuality; fill-rule:evenodd; clip-rule:evenodd"
viewBox="0 0 9.85 9.85"
 xmlns:xlink="http://www.w3.org/1999/xlink"
 xmlns:xodm="http://www.corel.com/coreldraw/odm/2003">
 <defs>
  <style type="text/css">
   <![CDATA[
    .fil6 {fill:none}
    .fil3 {fill:#263674}
    .fil5 {fill:#3C4A82}
    .fil4 {fill:#F5BE27}
    .fil2 {fill:#EFB30C;fill-rule:nonzero}
    .fil1 {fill:white;fill-opacity:0.501961}
    .fil0 {fill:url(#id1)}
   ]]>
  </style>
   <clipPath id="id0">
    <path d="M4.92 0c2.72,0 4.93,2.2 4.93,4.92 0,2.72 -2.21,4.93 -4.93,4.93 -2.72,0 -4.92,-2.21 -4.92,-4.93 0,-2.72 2.2,-4.92 4.92,-4.92z"/>
   </clipPath>
  <linearGradient id="id1" gradientUnits="userSpaceOnUse" x1="5.35" y1="10" x2="5.35" y2="0">
   <stop offset="0" style="stop-opacity:1; stop-color:#D4D7E4"/>
   <stop offset="1" style="stop-opacity:1; stop-color:white"/>
  </linearGradient>
 </defs>
 <g id="Layer_x0020_1">
  <metadata id="CorelCorpID_0Corel-Layer"/>
  <path class="fil0" d="M4.92 0c2.72,0 4.93,2.2 4.93,4.92 0,2.72 -2.21,4.93 -4.93,4.93 -2.72,0 -4.92,-2.21 -4.92,-4.93 0,-2.72 2.2,-4.92 4.92,-4.92z"/>
  <g style="clip-path:url(#id0)">
   <g id="_2063904147984">
    <polygon id="1" class="fil1" points="4.86,-0.69 11.33,-0.69 11.33,11.14 4.86,11.14 "/>
    <path class="fil2" d="M3.54 1.98c0.96,-0.77 2.37,-0.63 3.15,0.34 0.77,0.96 0.62,2.37 -0.34,3.15l0 0c-0.96,0.78 -2.37,0.63 -3.15,-0.33 -0.78,-0.97 -0.63,-2.38 0.33,-3.15l0.01 -0.01z"/>
    <path class="fil3" d="M3.56 3.83l2.76 0c-0.03,0.1 -0.04,0.21 -0.04,0.32 0,0.38 0.17,0.72 0.45,0.93 0.28,-0.37 0.43,-0.81 0.45,-1.25 0.03,-0.53 -0.14,-1.07 -0.49,-1.51 -0.78,-0.97 -2.19,-1.11 -3.15,-0.34l-0.01 0.01c-0.57,0.46 -0.86,1.15 -0.83,1.84 0.02,0.44 0.17,0.88 0.46,1.25 0.27,-0.21 0.45,-0.55 0.45,-0.93 0,-0.11 -0.02,-0.22 -0.05,-0.32z"/>
    <path class="fil4" d="M4.94 5.97c0.5,0 0.99,-0.16 1.41,-0.5l0 0c0.15,-0.12 0.27,-0.25 0.38,-0.39 -0.28,-0.21 -0.45,-0.55 -0.45,-0.93 0,-0.11 0.01,-0.22 0.04,-0.32l-1.38 0 0 2.14z"/>
    <path class="fil5" d="M4.94 3.83l1.38 0c-0.03,0.1 -0.04,0.21 -0.04,0.32 0,0.38 0.17,0.72 0.45,0.93 0.28,-0.37 0.43,-0.81 0.45,-1.25 0.03,-0.53 -0.14,-1.07 -0.49,-1.51 -0.45,-0.55 -1.09,-0.84 -1.75,-0.84l0 2.35z"/>
    <path class="fil3" d="M2.55 6.28l4.79 0c0.99,0 1.8,0.81 1.8,1.8l0 1.8 -8.4 0 0 -1.8c0,-0.99 0.82,-1.8 1.81,-1.8z"/>
    <path class="fil5" d="M3.14 7.98l3.61 0c0.52,0 0.95,0.43 0.95,0.95l0 0.95 -5.52 0 0 -0.95c0,-0.53 0.43,-0.95 0.96,-0.95z"/>
    <ellipse class="fil3" cx="4.89" cy="6.34" rx="1.6" ry="0.56"/>
   </g>
  </g>
  <path class="fil6" d="M4.92 0c2.72,0 4.93,2.2 4.93,4.92 0,2.72 -2.21,4.93 -4.93,4.93 -2.72,0 -4.92,-2.21 -4.92,-4.93 0,-2.72 2.2,-4.92 4.92,-4.92z"/>
 </g>
</svg>
