<?xml version="1.0" encoding="UTF-8"?>
<!DOCTYPE svg PUBLIC "-//W3C//DTD SVG 1.1//EN" "http://www.w3.org/Graphics/SVG/1.1/DTD/svg11.dtd">
<!-- Creator: CorelDRAW 2020 (64-Bit Evaluation Version) -->
<svg xmlns="http://www.w3.org/2000/svg" xml:space="preserve" width="30px" height="30px" version="1.1" style="shape-rendering:geometricPrecision; text-rendering:geometricPrecision; image-rendering:optimizeQuality; fill-rule:evenodd; clip-rule:evenodd"
viewBox="0 0 5.84 5.84"
 xmlns:xlink="http://www.w3.org/1999/xlink"
 xmlns:xodm="http://www.corel.com/coreldraw/odm/2003">
 <defs>
  <style type="text/css">
   <![CDATA[
    .fil1 {fill:#263674}
    .fil2 {fill:#EFB30C}
    .fil0 {fill:#263674;fill-rule:nonzero}
    .fil3 {fill:#EFB30C;fill-rule:nonzero}
   ]]>
  </style>
 </defs>
 <g id="Layer_x0020_1">
  <metadata id="CorelCorpID_0Corel-Layer"/>
  <g id="_2104934343712">
   <path class="fil0" d="M2.04 2.07c0.24,-0.24 0.54,-0.35 0.88,-0.35 0.34,0 0.64,0.11 0.88,0.35 0.25,0.24 0.37,0.52 0.37,0.85 0,0.34 -0.12,0.62 -0.37,0.86 -0.24,0.23 -0.54,0.35 -0.88,0.35 -0.34,0 -0.64,-0.12 -0.88,-0.35 -0.24,-0.24 -0.37,-0.52 -0.37,-0.86 0,-0.33 0.13,-0.61 0.37,-0.85zm1.16 -0.08l0 -0.1c-0.1,-0.03 -0.19,-0.04 -0.28,-0.04 -0.17,0 -0.32,0.03 -0.47,0.1 -0.14,0.07 -0.27,0.16 -0.37,0.28l-0.07 0.09 -0.05 0.08 0.41 0.39c0,-0.01 0,-0.02 0,-0.04 0,-0.01 0.01,-0.03 0.04,-0.06 0.02,-0.02 0.05,-0.03 0.09,-0.03l0 0.26 0.28 0.27 0 0.27c0.09,0 0.15,0 0.19,0 0.03,0 0.08,0.01 0.12,0.02 0.04,0.01 0.07,0.02 0.08,0.04 0.02,0.02 0.03,0.04 0.03,0.08 0.05,-0.03 0.09,-0.05 0.11,-0.06 0.03,-0.01 0.05,-0.03 0.08,-0.06 0.03,-0.02 0.05,-0.04 0.05,-0.05 0.01,-0.01 0.01,-0.04 0.02,-0.09 0.01,-0.04 0.02,-0.08 0.02,-0.11 0,-0.04 0,-0.09 0,-0.17l0.13 -0.14 -0.13 -0.13 0 0.27 -0.14 0c0,0.03 -0.02,0.07 -0.05,0.09 -0.02,0.03 -0.06,0.04 -0.09,0.04 -0.04,0 -0.07,-0.01 -0.1,-0.04 -0.03,-0.02 -0.04,-0.06 -0.04,-0.09 0,-0.04 0.01,-0.07 0.04,-0.1 0.03,-0.02 0.06,-0.04 0.1,-0.04l0 -0.4c0,-0.04 -0.02,-0.07 -0.04,-0.09 -0.03,-0.03 -0.06,-0.04 -0.1,-0.04 -0.04,0 -0.07,0.01 -0.1,0.04 -0.03,0.02 -0.04,0.05 -0.04,0.09 0,0.08 0,0.14 -0.01,0.2 -0.01,0.05 -0.03,0.09 -0.04,0.12 -0.01,0.02 -0.03,0.04 -0.04,0.06 -0.01,0.01 -0.02,0.02 -0.03,0.02l-0.02 0 0 -0.4c0,-0.07 0.02,-0.13 0.06,-0.19 0.03,-0.05 0.08,-0.08 0.15,-0.08 0.07,0 0.12,-0.02 0.15,-0.08 0.04,-0.05 0.06,-0.11 0.06,-0.18z"/>
   <circle class="fil1" cx="0.56" cy="2.92" r="0.56"/>
   <circle class="fil1" cx="5.28" cy="2.92" r="0.56"/>
   <circle class="fil1" cx="2.92" cy="0.56" r="0.56"/>
   <circle class="fil2" cx="0.56" cy="1.23" r="0.56"/>
   <polygon class="fil3" points="1.07,1.04 1.61,1.04 2.12,1.74 1.84,1.94 1.44,1.39 1.07,1.39 "/>
   <circle class="fil2" cx="5.28" cy="1.23" r="0.56"/>
   <polygon class="fil3" points="4.77,1.39 4.41,1.39 4.01,1.94 3.73,1.74 4.23,1.04 4.77,1.04 "/>
   <polygon class="fil0" points="3.09,1.03 3.09,1.54 2.75,1.54 2.75,1.04 "/>
   <polygon class="fil0" points="1.56,3.09 1.06,3.09 1.05,2.75 1.56,2.75 "/>
   <polygon class="fil0" points="4.79,3.09 4.3,3.09 4.3,2.75 4.79,2.75 "/>
   <circle class="fil1" cx="2.92" cy="5.28" r="0.56"/>
   <circle class="fil2" cx="0.56" cy="4.61" r="0.56"/>
   <polygon class="fil3" points="1.07,4.46 1.44,4.46 1.84,3.9 2.12,4.1 1.61,4.8 1.07,4.8 "/>
   <circle class="fil2" cx="5.28" cy="4.61" r="0.56"/>
   <polygon class="fil3" points="4.77,4.8 4.23,4.8 3.73,4.1 4.01,3.9 4.41,4.46 4.77,4.46 "/>
   <polygon class="fil0" points="2.75,4.81 2.75,4.31 3.09,4.31 3.09,4.81 "/>
  </g>
 </g>
</svg>
