<?xml version="1.0" encoding="UTF-8"?>
<!DOCTYPE svg PUBLIC "-//W3C//DTD SVG 1.1//EN" "http://www.w3.org/Graphics/SVG/1.1/DTD/svg11.dtd">
<!-- Creator: CorelDRAW 2020 (64-Bit Evaluation Version) -->
<svg xmlns="http://www.w3.org/2000/svg" xml:space="preserve" width="30px" height="27px" version="1.1" style="shape-rendering:geometricPrecision; text-rendering:geometricPrecision; image-rendering:optimizeQuality; fill-rule:evenodd; clip-rule:evenodd"
viewBox="0 0 1.11 1"
 xmlns:xlink="http://www.w3.org/1999/xlink"
 xmlns:xodm="http://www.corel.com/coreldraw/odm/2003">
 <defs>
  <style type="text/css">
   <![CDATA[
    .fil2 {fill:#263674}
    .fil0 {fill:#263674;fill-rule:nonzero}
    .fil1 {fill:#EFB30C;fill-rule:nonzero}
   ]]>
  </style>
 </defs>
 <g id="Layer_x0020_1">
  <metadata id="CorelCorpID_0Corel-Layer"/>
  <g id="_2104960161760">
   <path class="fil0" d="M0.7 0.69c0,0.02 -0.01,0.04 -0.03,0.04l-0.21 0c-0.01,0 -0.03,-0.02 -0.03,-0.04l0 -0.1 -0.41 0 0 0.31c0,0.05 0.05,0.1 0.1,0.1l0.89 0c0.06,0 0.1,-0.05 0.1,-0.1l0 -0.31 -0.41 0 0 0.1z"/>
   <path class="fil1" d="M0.99 0.21l-0.17 0 0 -0.11c0,-0.05 -0.05,-0.1 -0.1,-0.1l-0.34 0c-0.06,0 -0.11,0.05 -0.11,0.1l0 0.11 -0.17 0c-0.05,0 -0.1,0.04 -0.1,0.1l0 0.24 0.44 0 0 -0.04c0,-0.04 0.26,-0.04 0.26,0l0 0.04 0.39 0 0 -0.24c0,-0.06 -0.04,-0.1 -0.1,-0.1zm-0.27 0l-0.34 0 0 -0.11 0.34 0 0 0.11z"/>
   <circle class="fil2" cx="0.57" cy="0.61" r="0.04"/>
  </g>
 </g>
</svg>
