<?xml version="1.0" encoding="UTF-8"?>
<!DOCTYPE svg PUBLIC "-//W3C//DTD SVG 1.1//EN" "http://www.w3.org/Graphics/SVG/1.1/DTD/svg11.dtd">
<!-- Creator: CorelDRAW 2020 (64-Bit Evaluation Version) -->
<svg xmlns="http://www.w3.org/2000/svg" xml:space="preserve" width="30px" height="41px" version="1.1" style="shape-rendering:geometricPrecision; text-rendering:geometricPrecision; image-rendering:optimizeQuality; fill-rule:evenodd; clip-rule:evenodd"
viewBox="0 0 1.16 1.59"
 xmlns:xlink="http://www.w3.org/1999/xlink"
 xmlns:xodm="http://www.corel.com/coreldraw/odm/2003">
 <defs>
  <style type="text/css">
   <![CDATA[
    .fil1 {fill:#263674;fill-rule:nonzero}
    .fil0 {fill:#EFB30C;fill-rule:nonzero}
   ]]>
  </style>
 </defs>
 <g id="Layer_x0020_1">
  <metadata id="CorelCorpID_0Corel-Layer"/>
  <g id="_2104938723024">
   <path class="fil0" d="M0.89 0.31l-0.02 0.61c0,0.31 -0.15,0.48 -0.29,0.56l0 0c0,0 0.5,-0.17 0.5,-0.55l0.01 -0.72c-0.05,0.05 -0.15,0.06 -0.2,0.1z"/>
   <path class="fil1" d="M0.58 1.57l-0.01 -0.01c-0.02,-0.01 -0.55,-0.31 -0.55,-0.67l0 -0.01c0,-0.02 0.01,-0.03 0.03,-0.03 0.01,0 0.03,0.01 0.03,0.03l0 0.01c0,0.3 0.42,0.56 0.5,0.61 0.08,-0.05 0.51,-0.31 0.51,-0.61l0 -0.68c-0.1,0.1 -0.23,0.15 -0.36,0.15l-0.3 0c-0.13,0 -0.25,-0.05 -0.35,-0.15l0 0.2c0,0.01 -0.02,0.03 -0.03,0.03 -0.02,0 -0.03,-0.02 -0.03,-0.03l0 -0.35 0.05 0.06c0.1,0.12 0.22,0.19 0.36,0.19l0.3 0c0.14,0 0.27,-0.07 0.36,-0.19l0.05 -0.06 0 0.83c0,0.36 -0.52,0.66 -0.54,0.67l-0.02 0.01z"/>
   <path class="fil1" d="M0.57 1.58l-0.01 0c-0.02,-0.01 -0.25,-0.14 -0.41,-0.34 -0.09,-0.1 -0.15,-0.22 -0.15,-0.35l0 -0.01c0,-0.01 0.01,-0.03 0.01,-0.03 0.01,-0.01 0.02,-0.02 0.04,-0.02 0.01,0 0.02,0.01 0.03,0.02 0.01,0 0.02,0.02 0.02,0.03l0 0.01c0,0.1 0.05,0.2 0.12,0.29 0.12,0.15 0.3,0.26 0.36,0.3 0.06,-0.04 0.24,-0.15 0.36,-0.3 0.07,-0.09 0.13,-0.19 0.13,-0.29l0 -0.64c-0.04,0.04 -0.09,0.07 -0.14,0.09 -0.06,0.03 -0.13,0.04 -0.2,0.04l-0.3 0c-0.07,0 -0.13,-0.01 -0.2,-0.04 -0.04,-0.02 -0.09,-0.05 -0.13,-0.09l0 0.16c0,0.01 -0.01,0.02 -0.02,0.03 -0.01,0.01 -0.02,0.02 -0.03,0.02 -0.02,0 -0.03,-0.01 -0.04,-0.02 0,-0.01 -0.01,-0.02 -0.01,-0.03l0 -0.41 0.08 0.11c0.05,0.05 0.11,0.1 0.16,0.13 0.06,0.03 0.13,0.05 0.19,0.05l0.3 0c0.07,0 0.13,-0.02 0.19,-0.05 0.06,-0.03 0.11,-0.08 0.16,-0.13l0.08 -0.11 0 0.89c0,0.13 -0.06,0.25 -0.14,0.35 -0.16,0.2 -0.4,0.33 -0.42,0.34l-0.02 0.01 -0.01 -0.01zm0.01 -0.04l0 0 0.01 0c0.01,-0.01 0.24,-0.13 0.4,-0.32 0.08,-0.1 0.13,-0.21 0.13,-0.33l0 -0.78 -0.01 0.02c-0.05,0.06 -0.11,0.11 -0.17,0.14 -0.07,0.04 -0.14,0.05 -0.21,0.05l-0.3 0c-0.07,0 -0.14,-0.01 -0.2,-0.05 -0.07,-0.03 -0.13,-0.08 -0.18,-0.14l-0.01 -0.02 0 0.3 0 0.01 0.01 0 0 0 0.01 -0.01 0 -0.25 0.03 0.03c0.05,0.05 0.1,0.09 0.16,0.11 0.06,0.03 0.12,0.04 0.18,0.04l0.3 0c0.07,0 0.13,-0.01 0.18,-0.04 0.06,-0.02 0.12,-0.06 0.16,-0.11l0.04 -0.03 0 0.73c0,0.11 -0.06,0.22 -0.14,0.32 -0.13,0.16 -0.33,0.28 -0.38,0.31l-0.01 0 -0.01 0c-0.05,-0.03 -0.24,-0.15 -0.38,-0.31 -0.08,-0.1 -0.13,-0.21 -0.13,-0.32l0 -0.01 -0.01 -0.01 0 0 -0.01 0 0 0.01 0 0.01c0,0.12 0.06,0.23 0.14,0.33 0.15,0.19 0.38,0.31 0.4,0.32z"/>
   <path class="fil1" d="M0.05 0.73c-0.02,0 -0.03,-0.02 -0.03,-0.03l0 -0.14c0,-0.01 0.01,-0.02 0.03,-0.02 0.01,0 0.03,0.01 0.03,0.02l0 0.14c0,0.01 -0.02,0.03 -0.03,0.03z"/>
   <path class="fil1" d="M0.05 0.75c-0.02,0 -0.03,-0.01 -0.04,-0.02 0,-0.01 -0.01,-0.02 -0.01,-0.03l0 -0.14c0,-0.01 0.01,-0.02 0.01,-0.03 0.01,-0.01 0.02,-0.01 0.04,-0.01 0.01,0 0.02,0 0.03,0.01 0.01,0.01 0.02,0.02 0.02,0.03l0 0.14c0,0.01 -0.01,0.02 -0.02,0.03 -0.01,0.01 -0.02,0.02 -0.03,0.02zm-0.01 -0.05l0.01 0.01 0 -0.01 0.01 0 0 -0.14 -0.01 0 0 -0.01 -0.01 0.01 0 0 0 0.14 0 0z"/>
   <path class="fil1" d="M0.53 1.04l-0.27 -0.32c-0.01,-0.01 -0.01,-0.03 0,-0.04 0.01,-0.01 0.03,-0.01 0.04,0l0.23 0.28 0.33 -0.41c0.01,-0.01 0.03,-0.01 0.04,0 0.01,0.01 0.02,0.02 0.01,0.04l-0.38 0.45z"/>
   <path class="fil1" d="M0.52 1.06l-0.28 -0.33c-0.01,-0.01 -0.01,-0.02 -0.01,-0.03 0,-0.01 0.01,-0.03 0.02,-0.03l0 0c0.01,-0.01 0.02,-0.02 0.03,-0.02 0.01,0 0.03,0.01 0.03,0.02l0.22 0.26 0.32 -0.39c0.01,-0.01 0.02,-0.02 0.03,-0.02 0.01,0 0.02,0 0.03,0.01 0.01,0.01 0.02,0.02 0.02,0.03 0,0.02 0,0.03 -0.01,0.04l-0.39 0.47 -0.01 -0.01zm-0.25 -0.35l0.26 0.3 0.36 -0.44 0 0 0 -0.01 -0.01 0 0 0 -0.35 0.43c-0.04,-0.05 -0.23,-0.29 -0.25,-0.3 -0.01,0 -0.01,0 -0.01,0.01l0 0.01z"/>
  </g>
 </g>
</svg>
