<?xml version="1.0" encoding="UTF-8"?>
<!DOCTYPE svg PUBLIC "-//W3C//DTD SVG 1.1//EN" "http://www.w3.org/Graphics/SVG/1.1/DTD/svg11.dtd">
<!-- Creator: CorelDRAW 2020 (64-Bit Evaluation Version) -->
<svg xmlns="http://www.w3.org/2000/svg" xml:space="preserve" width="60px" height="60px" version="1.1" style="shape-rendering:geometricPrecision; text-rendering:geometricPrecision; image-rendering:optimizeQuality; fill-rule:evenodd; clip-rule:evenodd"
viewBox="0 0 4.97 4.97"
 xmlns:xlink="http://www.w3.org/1999/xlink"
 xmlns:xodm="http://www.corel.com/coreldraw/odm/2003">
 <defs>
  <style type="text/css">
   <![CDATA[
    .fil0 {fill:#263674}
    .fil2 {fill:#FEC00F}
    .fil1 {fill:white}
   ]]>
  </style>
 </defs>
 <g id="Layer_x0020_1">
  <metadata id="CorelCorpID_0Corel-Layer"/>
  <g id="_1776940393536">
   <path class="fil0" d="M2.49 0l0 0 2.48 0.86 0 0.69c-1.66,0 -3.31,0 -4.97,0l0 -0.69 2.49 -0.86 0 0 0 0 0 0z"/>
   <path class="fil0" d="M3.3 4.97l1.67 0 0 -1.08 -0.82 0c-0.11,0.47 -0.43,0.86 -0.85,1.08zm-2.48 -1.08l-0.82 0 0 1.08 1.67 0c-0.42,-0.22 -0.74,-0.61 -0.85,-1.08z"/>
   <path class="fil0" d="M3.25 1.77l-0.76 0 0 0 -0.77 0 0 0.31c0.23,-0.11 0.49,-0.17 0.77,-0.17 0.27,0 0.53,0.06 0.76,0.17l0 -0.31z"/>
   <path class="fil0" d="M4.33 1.77l-0.77 0 0 0.5c0.38,0.3 0.63,0.76 0.63,1.27 0,0.06 -0.01,0.13 -0.01,0.19l0.15 0 0 -1.96z"/>
   <path class="fil0" d="M0.65 1.77l0.76 0 0 0.5c-0.38,0.3 -0.63,0.76 -0.63,1.27 0,0.06 0.01,0.13 0.02,0.19l-0.15 0 0 -1.96z"/>
   <circle class="fil1" cx="2.49" cy="0.84" r="0.39"/>
   <g>
    <path class="fil0" d="M2.6 2.1c0.8,0 1.44,0.64 1.44,1.44 0,0.79 -0.64,1.43 -1.44,1.43 -0.02,0 -0.04,0 -0.07,0 0.76,-0.04 1.36,-0.67 1.36,-1.43 0,-0.77 -0.6,-1.4 -1.36,-1.44 0.03,0 0.05,0 0.07,0z"/>
    <path class="fil2" d="M2.46 2.24c0.72,0 1.3,0.58 1.3,1.3 0,0.6 -0.41,1.11 -0.97,1.25l0 0 -0.01 0c-0.1,0.03 -0.21,0.05 -0.33,0.05 -0.71,0 -1.29,-0.58 -1.29,-1.3 0,-0.6 0.41,-1.11 0.97,-1.25l0 -0.01 0.01 0c0.1,-0.02 0.21,-0.04 0.32,-0.04z"/>
    <path class="fil0" d="M2.37 2.1c-0.8,0 -1.44,0.64 -1.44,1.44 0,0.79 0.64,1.43 1.44,1.43 0.02,0 0.05,0 0.07,0 -0.76,-0.04 -1.36,-0.67 -1.36,-1.43 0,-0.77 0.6,-1.4 1.36,-1.44 -0.02,0 -0.05,0 -0.07,0z"/>
    <path class="fil0" d="M2.66 4.07l-0.34 -0.02 0.02 -0.4c0.2,0.01 0.43,-0.02 0.5,0.07 0.11,0.14 0.02,0.35 -0.18,0.35zm-0.1 -0.67l-0.21 0 0.02 -0.41c0.19,0.01 0.41,-0.02 0.4,0.24 -0.01,0.09 -0.08,0.18 -0.21,0.17zm-0.26 -0.71l0 0.05c-0.2,-0.01 -0.39,-0.06 -0.4,0.13 0,0.09 0.13,0.11 0.22,0.11l-0.05 1.06c-0.32,-0.01 -0.23,0.19 -0.15,0.22 0.06,0.02 0.23,0.02 0.31,0.02l0 0.12c-0.01,0.19 0.22,0.2 0.23,0.03l0.01 -0.14 0.23 0.01c0.39,0.02 0.61,-0.59 0.22,-0.81 0.04,-0.13 0.07,-0.06 0.08,-0.29 0.01,-0.27 -0.2,-0.44 -0.47,-0.45 0.01,-0.14 0.03,-0.22 -0.12,-0.23 -0.07,0 -0.11,0.09 -0.11,0.17z"/>
   </g>
  </g>
 </g>
</svg>
