<?xml version="1.0" encoding="UTF-8"?>
<!DOCTYPE svg PUBLIC "-//W3C//DTD SVG 1.1//EN" "http://www.w3.org/Graphics/SVG/1.1/DTD/svg11.dtd">
<!-- Creator: CorelDRAW 2020 (64-Bit Evaluation Version) -->
<svg xmlns="http://www.w3.org/2000/svg" xml:space="preserve" width="60px" height="59px" version="1.1" style="shape-rendering:geometricPrecision; text-rendering:geometricPrecision; image-rendering:optimizeQuality; fill-rule:evenodd; clip-rule:evenodd"
viewBox="0 0 4.97 4.89"
 xmlns:xlink="http://www.w3.org/1999/xlink"
 xmlns:xodm="http://www.corel.com/coreldraw/odm/2003">
 <defs>
  <style type="text/css">
   <![CDATA[
    .str0 {stroke:white;stroke-width:0.03;stroke-miterlimit:2.61313}
    .fil0 {fill:#263674}
    .fil3 {fill:#FEC00F}
    .fil1 {fill:white}
    .fil2 {fill:#263674;fill-rule:nonzero}
    .fil4 {fill:#FEC00F;fill-rule:nonzero}
    .fil5 {fill:white;fill-rule:nonzero}
   ]]>
  </style>
 </defs>
 <g id="Layer_x0020_1">
  <metadata id="CorelCorpID_0Corel-Layer"/>
  <g id="_1776926239840">
   <path class="fil0" d="M0.9 3.33l0 0.08 0 0 0 0 0 0 0 0.21c-0.16,0 -0.29,0 -0.4,-0.01 -0.12,-0.02 -0.24,-0.06 -0.34,-0.15 -0.09,-0.1 -0.13,-0.22 -0.14,-0.34 -0.02,-0.11 -0.02,-0.26 -0.02,-0.42l0 -0.4c0,-0.17 0,-0.31 0.02,-0.42 0.01,-0.13 0.05,-0.24 0.14,-0.34 0.1,-0.09 0.22,-0.13 0.34,-0.15 0.11,-0.01 0.26,-0.01 0.42,-0.01l1.14 0c0,0 0,0 0.01,0 0.16,0 0.31,0 0.42,0.01 0.12,0.02 0.24,0.06 0.34,0.15 0.09,0.1 0.13,0.21 0.15,0.34 0,0.03 0,0.06 0,0.09 -0.07,0.02 -0.14,0.04 -0.21,0.06 -0.16,0.07 -0.25,0.16 -0.25,0.27l0 0.05 0 0.05 0 0 0 0 0 0.12 0 0 0 0.17 0 0.01 0 0.11c-0.15,-0.04 -0.33,-0.06 -0.51,-0.06 -0.28,0 -0.55,0.05 -0.75,0.14 -0.23,0.09 -0.35,0.23 -0.36,0.38l0 0.06z"/>
   <path class="fil1" d="M0.93 2.5c0,-0.31 0.26,-0.56 0.57,-0.56 0.31,0 0.56,0.25 0.56,0.56 0,0.31 -0.25,0.56 -0.56,0.56 -0.31,0 -0.57,-0.25 -0.57,-0.56z"/>
   <path class="fil2" d="M1.5 2.38l0.03 -0.18 0 0c-0.03,0 -0.05,0.01 -0.07,0.02 -0.01,0.02 -0.02,0.04 -0.02,0.07 0,0.01 0.01,0.03 0.01,0.04 0.01,0.02 0.03,0.03 0.05,0.05zm-0.03 0.4c0.03,0 0.05,-0.01 0.07,-0.03 0.02,-0.01 0.02,-0.03 0.02,-0.06 0,-0.02 0,-0.03 -0.01,-0.05 -0.01,-0.01 -0.03,-0.02 -0.05,-0.04l-0.03 0.18zm-0.09 0.06c-0.02,-0.01 -0.05,-0.02 -0.06,-0.03 -0.03,-0.03 -0.06,-0.05 -0.08,-0.09l0.09 -0.05c0.01,0.02 0.03,0.04 0.04,0.06 0.02,0.02 0.04,0.03 0.06,0.04l0.03 -0.19c-0.07,-0.03 -0.13,-0.07 -0.16,-0.11 -0.03,-0.03 -0.04,-0.08 -0.04,-0.13 0,-0.06 0.02,-0.12 0.07,-0.16 0.04,-0.04 0.11,-0.06 0.18,-0.06 0.01,0 0.02,0 0.02,0 0.01,0 0.01,0 0.01,0l0.02 -0.08 0.04 0 -0.01 0.09c0.03,0.01 0.06,0.02 0.09,0.04 0.02,0.03 0.04,0.05 0.06,0.09l-0.07 0.05c-0.01,-0.03 -0.02,-0.05 -0.04,-0.06 -0.02,-0.02 -0.04,-0.03 -0.06,-0.04l-0.03 0.19c0.08,0.04 0.14,0.08 0.16,0.11 0.03,0.03 0.05,0.07 0.05,0.12 0,0.06 -0.02,0.11 -0.05,0.14 -0.12,0.02 -0.22,0.04 -0.32,0.07z"/>
   <path class="fil0 str0" d="M2.61 2.78l0.06 0.05 -0.06 -0.02c0,-0.01 0,-0.02 0,-0.03z"/>
   <path class="fil3 str0" d="M1.17 0.12l0.87 0.25 -0.73 0.92 -0.39 0 0 0c-0.08,0 -0.16,0 -0.23,0 -0.02,0.01 -0.03,0.01 -0.05,0.01l0.3 -1.05c0.02,-0.1 0.13,-0.16 0.23,-0.13z"/>
   <path class="fil0" d="M4.93 1.81l-2.27 -1.79c-0.02,-0.02 -0.05,-0.02 -0.07,-0.02 -0.03,0 -0.06,0.02 -0.07,0.04l-0.99 1.25 0.54 0 0 0c0.08,0 0.16,0 0.23,0 0.08,0.01 0.14,0.01 0.2,0.02 0.07,0.01 0.14,0.02 0.2,0.05 0.07,0.03 0.13,0.07 0.19,0.12l0 0c0.05,0.06 0.09,0.12 0.12,0.19 0.02,0.04 0.03,0.09 0.04,0.14 0.47,0.04 0.64,0.03 1.9,0.14 0.02,-0.02 0.02,-0.05 0.02,-0.07 0,-0.03 -0.02,-0.06 -0.04,-0.07z"/>
   <path class="fil4" d="M1.17 3.47c0.05,0.04 0.12,0.08 0.21,0.12 0.19,0.08 0.42,0.12 0.63,0.12 0.14,0 0.29,-0.02 0.43,-0.05l0 -0.76c-0.13,-0.03 -0.28,-0.05 -0.43,-0.05 -0.23,0 -0.45,0.04 -0.61,0.11 -0.19,0.08 -0.29,0.19 -0.29,0.31l0 0.12c0,0 0,0 0,0 0,0.01 0,0.02 0,0.02 0.02,0.01 0.04,0.04 0.06,0.06z"/>
   <path class="fil4" d="M2.46 3.81c-0.15,0.03 -0.31,0.06 -0.45,0.06 -0.21,0 -0.47,-0.06 -0.67,-0.14 -0.19,-0.08 -0.24,-0.16 -0.24,-0.16l0 0.21c0.01,0.03 0.03,0.07 0.07,0.11 0.05,0.04 0.12,0.08 0.21,0.12 0.19,0.08 0.42,0.12 0.63,0.12 0.15,0 0.31,-0.02 0.45,-0.06l0 -0.26z"/>
   <path class="fil4" d="M2.46 4.18c-0.15,0.03 -0.31,0.06 -0.45,0.06 -0.21,0 -0.47,-0.06 -0.67,-0.14 -0.19,-0.08 -0.24,-0.16 -0.24,-0.16l0 0.21c0.01,0.03 0.03,0.07 0.07,0.11 0.05,0.04 0.12,0.08 0.21,0.12 0.19,0.08 0.42,0.12 0.63,0.12 0.15,0 0.31,-0.02 0.45,-0.06l0 -0.26z"/>
   <path class="fil4" d="M2.46 4.56c-0.15,0.04 -0.31,0.06 -0.45,0.06 -0.21,0 -0.47,-0.05 -0.67,-0.14 -0.19,-0.08 -0.24,-0.16 -0.24,-0.16l0 0.21c0.01,0.03 0.03,0.07 0.07,0.11 0.05,0.04 0.12,0.09 0.21,0.12 0.19,0.08 0.42,0.13 0.63,0.13 0.15,0 0.31,-0.03 0.45,-0.07l0 -0.26z"/>
   <path id="XMLID_238_" class="fil5" d="M1.77 2.96c-0.02,-0.03 -0.07,-0.03 -0.11,-0.02 -0.03,0.01 -0.04,0.04 -0.02,0.06 0.03,0.03 0.06,0.06 0.09,0.08 -0.04,0.02 -0.09,0.04 -0.13,0.06 -0.03,0.01 -0.04,0.04 -0.02,0.06 0.04,0.03 0.07,0.06 0.1,0.09 0.04,0.03 0.07,0.06 0.1,0.09 0.03,0.03 0.07,0.07 0.1,0.1 0.03,0.03 0.07,0.06 0.1,0.1 0.02,0.02 0.06,0.02 0.09,0.01 0.04,-0.02 0.08,-0.04 0.12,-0.05 0.03,0.02 0.05,0.05 0.07,0.07 0.02,0.02 0.06,0.03 0.1,0.01 0.03,-0.01 0.04,-0.04 0.02,-0.06 -0.02,-0.02 -0.04,-0.05 -0.06,-0.07 0,-0.01 0,-0.01 0,-0.01 0.06,-0.02 0.11,-0.06 0.13,-0.1 0.02,-0.04 0.01,-0.09 -0.02,-0.12 -0.05,-0.05 -0.12,-0.07 -0.2,-0.07 0.01,-0.04 0,-0.07 -0.03,-0.1 -0.04,-0.04 -0.09,-0.06 -0.15,-0.07 -0.07,-0.01 -0.13,0 -0.19,0.01 -0.03,-0.02 -0.06,-0.05 -0.09,-0.07zm0.48 0.45c-0.06,0.02 -0.13,0.05 -0.19,0.08 -0.04,-0.04 -0.08,-0.08 -0.12,-0.12 0.06,-0.03 0.11,-0.05 0.17,-0.07 0.01,-0.01 0.02,-0.01 0.03,-0.01 0.05,-0.03 0.13,-0.02 0.16,0.02 0.03,0.03 0.01,0.08 -0.05,0.1zm-0.18 -0.27c0.03,0.02 0.01,0.06 -0.04,0.08 -0.06,0.03 -0.11,0.05 -0.17,0.07 -0.04,-0.03 -0.08,-0.07 -0.11,-0.1 0.05,-0.03 0.11,-0.05 0.17,-0.07 0.05,-0.02 0.12,-0.01 0.15,0.02z"/>
   <path class="fil4" d="M4.67 3.92c-0.26,0.11 -0.57,0.17 -0.84,0.17 -0.27,0 -0.58,-0.06 -0.84,-0.17 -0.26,-0.11 -0.3,-0.2 -0.3,-0.2l0 0.21c0,0.17 0.1,0.23 0.37,0.35 0.21,0.09 0.48,0.13 0.77,0.13 0.29,0 0.56,-0.04 0.77,-0.13 0.27,-0.12 0.37,-0.18 0.37,-0.35l0 -0.21c0,0 -0.04,0.09 -0.3,0.2z"/>
   <path class="fil4" d="M4.67 4.39c-0.26,0.11 -0.57,0.17 -0.84,0.17 -0.27,0 -0.58,-0.06 -0.84,-0.17 -0.26,-0.11 -0.3,-0.2 -0.3,-0.2l0 0.21c0,0.17 0.1,0.24 0.37,0.35 0.21,0.09 0.48,0.14 0.77,0.14 0.29,0 0.56,-0.05 0.77,-0.14 0.27,-0.11 0.37,-0.18 0.37,-0.35l0 -0.21c0,0 -0.04,0.09 -0.3,0.2z"/>
   <path class="fil4" d="M2.78 2.73c0.06,0.05 0.15,0.11 0.26,0.15 0.23,0.1 0.53,0.16 0.79,0.16 0.26,0 0.56,-0.06 0.79,-0.16 0.11,-0.04 0.2,-0.1 0.27,-0.15 0.03,-0.03 0.05,-0.06 0.07,-0.07 0.01,-0.01 0.01,-0.02 0.01,-0.03 0,0 0,0 0,0l0 -0.14 0 0c0,-0.16 -0.13,-0.3 -0.37,-0.4 -0.21,-0.09 -0.48,-0.13 -0.77,-0.13 -0.29,0 -0.56,0.04 -0.77,0.13 -0.23,0.1 -0.36,0.24 -0.37,0.4l0 0.14c0,0 0,0 0,0 0,0.01 0.01,0.02 0.01,0.03 0.02,0.01 0.04,0.04 0.08,0.07z"/>
   <path class="fil4" d="M4.67 3c-0.24,0.1 -0.57,0.17 -0.84,0.17 -0.27,0 -0.6,-0.07 -0.84,-0.17 -0.24,-0.11 -0.3,-0.2 -0.3,-0.2l0 0.26c0,0.04 0.03,0.08 0.09,0.13 0.06,0.06 0.15,0.11 0.26,0.16 0.23,0.09 0.53,0.15 0.79,0.15 0.26,0 0.56,-0.06 0.79,-0.15 0.11,-0.05 0.2,-0.1 0.26,-0.16 0.06,-0.05 0.09,-0.09 0.09,-0.14l0 -0.25c0,0 -0.05,0.09 -0.3,0.2z"/>
   <path class="fil4" d="M4.67 3.46c-0.26,0.11 -0.57,0.17 -0.84,0.17 -0.27,0 -0.6,-0.07 -0.84,-0.17 -0.24,-0.1 -0.3,-0.2 -0.3,-0.2l0 0.25c0,0.04 0.03,0.09 0.09,0.14 0.06,0.05 0.15,0.11 0.26,0.15 0.23,0.1 0.53,0.16 0.79,0.16 0.26,0 0.56,-0.06 0.79,-0.16 0.11,-0.04 0.2,-0.1 0.27,-0.15 0.05,-0.05 0.08,-0.1 0.08,-0.14l0 -0.25c0,0 -0.04,0.09 -0.3,0.2z"/>
   <path class="fil1" d="M4.17 2.68c0.01,-0.01 0.03,-0.03 0.04,-0.04 -0.08,-0.03 -0.17,-0.05 -0.25,-0.07 -0.09,-0.03 -0.17,-0.05 -0.26,-0.07 0,-0.05 -0.01,-0.1 -0.01,-0.15 -0.01,-0.05 -0.01,-0.1 -0.02,-0.14 -0.03,0 -0.06,-0.01 -0.09,-0.01 -0.08,0.08 -0.15,0.16 -0.23,0.23 -0.07,0.08 -0.15,0.15 -0.23,0.23 0.18,0 0.35,0.01 0.53,0.01 0.17,0 0.35,0.01 0.52,0.01zm0.1 -0.1c0.06,-0.06 0.12,-0.12 0.17,-0.18 0.06,-0.06 0.12,-0.11 0.18,-0.17 -0.14,-0.01 -0.27,-0.01 -0.41,-0.01 -0.13,-0.01 -0.27,-0.01 -0.4,-0.01 0,0.04 0.01,0.08 0.01,0.12 0,0.04 0.01,0.09 0.01,0.13 0.08,0.02 0.15,0.04 0.22,0.06 0.07,0.02 0.15,0.04 0.22,0.06z"/>
  </g>
 </g>
</svg>
