<?xml version="1.0" encoding="UTF-8"?>
<!DOCTYPE svg PUBLIC "-//W3C//DTD SVG 1.1//EN" "http://www.w3.org/Graphics/SVG/1.1/DTD/svg11.dtd">
<!-- Creator: CorelDRAW 2020 (64-Bit Evaluation Version) -->
<svg xmlns="http://www.w3.org/2000/svg" xml:space="preserve" width="60px" height="60px" version="1.1" style="shape-rendering:geometricPrecision; text-rendering:geometricPrecision; image-rendering:optimizeQuality; fill-rule:evenodd; clip-rule:evenodd"
viewBox="0 0 2.99 2.99"
 xmlns:xlink="http://www.w3.org/1999/xlink"
 xmlns:xodm="http://www.corel.com/coreldraw/odm/2003">
 <defs>
  <style type="text/css">
   <![CDATA[
    .fil1 {fill:#263674}
    .fil0 {fill:#FEC00F}
    .fil2 {fill:#263674;fill-rule:nonzero}
    .fil3 {fill:#FEC00F;fill-rule:nonzero}
   ]]>
  </style>
 </defs>
 <g id="Layer_x0020_1">
  <metadata id="CorelCorpID_0Corel-Layer"/>
  <g id="_1826170094320">
   <path class="fil0" d="M0.11 0.04c0,-0.02 0.02,-0.04 0.05,-0.04 0.02,0 0.04,0.03 0.04,0.05l-0.01 0.05 0.05 0.01c0.03,0 0.05,0.02 0.04,0.05 0,0.02 -0.02,0.04 -0.05,0.04l-0.05 -0.01 0 0.05c-0.01,0.03 -0.03,0.05 -0.06,0.04 -0.02,0 -0.04,-0.02 -0.04,-0.05l0.01 -0.05 -0.05 0c-0.02,-0.01 -0.04,-0.03 -0.04,-0.06 0,-0.02 0.03,-0.04 0.05,-0.04l0.05 0.01 0.01 -0.05 0 0z"/>
   <path class="fil0" d="M2.28 2.54c0.01,-0.03 0.04,-0.04 0.06,-0.03 0.03,0.01 0.04,0.04 0.03,0.06l-0.02 0.05 0.05 0.01c0.02,0.01 0.03,0.04 0.02,0.06 -0.01,0.03 -0.03,0.04 -0.06,0.03l-0.04 -0.02 -0.02 0.05c-0.01,0.02 -0.04,0.03 -0.06,0.03 -0.02,-0.01 -0.04,-0.04 -0.03,-0.06l0.02 -0.05 -0.05 -0.02c-0.02,-0.01 -0.03,-0.03 -0.02,-0.06 0.01,-0.02 0.03,-0.03 0.06,-0.02l0.04 0.01 0.02 -0.04 0 0z"/>
   <path class="fil1" d="M0.15 2.53c0.01,-0.01 0.02,-0.03 0.04,-0.02 0.02,0 0.03,0.01 0.03,0.03l-0.01 0.03 0.04 0.01c0.01,0 0.02,0.02 0.02,0.03 0,0.02 -0.02,0.03 -0.03,0.03l-0.04 0 0 0.03c0,0.02 -0.02,0.03 -0.03,0.03 -0.02,0 -0.03,-0.02 -0.03,-0.04l0 -0.03 -0.03 0c-0.02,-0.01 -0.03,-0.02 -0.03,-0.04 0,-0.02 0.02,-0.03 0.04,-0.03l0.03 0.01 0 -0.04 0 0z"/>
   <rect class="fil0" transform="matrix(11.9208 11.9208 -11.9208 11.9208 2.80033 1.15222)" width="0.01" height="0.01"/>
   <rect class="fil0" transform="matrix(11.9208 11.9208 -11.9208 11.9208 0.0722988 2.078)" width="0.01" height="0.01"/>
   <rect class="fil0" transform="matrix(11.9208 11.9208 -11.9208 11.9208 1.47701 2.84064)" width="0.01" height="0.01"/>
   <rect class="fil0" transform="matrix(11.9208 11.9208 -11.9208 11.9208 0.920511 5.82297E-06)" width="0.01" height="0.01"/>
   <rect class="fil0" transform="matrix(11.9208 11.9208 -11.9208 11.9208 0.421141 2.84061)" width="0.01" height="0.01"/>
   <rect class="fil1" transform="matrix(22.3116 22.3115 -22.3116 22.3115 2.75625 1.981)" width="0.01" height="0.01"/>
   <rect class="fil1" transform="matrix(17.5539 17.5538 -17.5539 17.5538 0.848839 2.71942)" width="0.01" height="0.01"/>
   <rect class="fil1" transform="matrix(13.1649 13.1648 -13.1649 13.1648 0.536947 0.165115)" width="0.01" height="0.01"/>
   <rect class="fil1" transform="matrix(11.5602 11.5602 -11.5602 11.5602 2.91511 2.84499)" width="0.01" height="0.01"/>
   <rect class="fil1" transform="matrix(7.9218 7.92178 -7.9218 7.92178 0.0480507 1.55234)" width="0.01" height="0.01"/>
   <g>
    <path class="fil0" d="M0.97 1.39l0 -0.22c0,-0.07 0.02,-0.14 0.05,-0.19l-0.32 -0.43c-0.03,0.01 -0.06,0.01 -0.09,0.02 -0.06,0.01 -0.12,0.02 -0.18,0.03 -0.06,0 -0.13,0 -0.19,0l0 0.61c0,0.12 0.01,0.24 0.04,0.34 0.03,0.11 0.08,0.21 0.13,0.3 0.05,0.1 0.12,0.19 0.19,0.27 0.07,0.08 0.15,0.16 0.23,0.23 0.09,0.08 0.18,0.14 0.27,0.21 0.09,0.06 0.19,0.12 0.28,0.18 0.1,-0.06 0.19,-0.12 0.28,-0.18 0.1,-0.07 0.19,-0.13 0.27,-0.21 0.02,-0.02 0.05,-0.04 0.07,-0.06l-0.27 -0.36 -0.54 -0.72 0 0.18 -0.22 0z"/>
    <g>
     <path class="fil2" d="M1.34 2.81c-0.05,-0.03 -0.1,-0.06 -0.14,-0.09 -0.05,-0.03 -0.1,-0.06 -0.15,-0.09 -0.04,-0.03 -0.09,-0.07 -0.14,-0.1 -0.04,-0.04 -0.09,-0.07 -0.13,-0.11 -0.05,-0.04 -0.09,-0.08 -0.13,-0.12 -0.04,-0.04 -0.08,-0.08 -0.12,-0.12 -0.04,-0.05 -0.07,-0.09 -0.1,-0.14 -0.04,-0.05 -0.07,-0.09 -0.1,-0.14l0 0c-0.02,-0.05 -0.05,-0.11 -0.07,-0.16 -0.02,-0.05 -0.04,-0.11 -0.06,-0.16l0 0c-0.02,-0.06 -0.03,-0.12 -0.04,-0.18 0,-0.06 -0.01,-0.12 -0.01,-0.19l0 -0.69 0.09 0c0.06,0 0.12,0 0.18,-0.01l0 0c0.03,0 0.06,0 0.09,-0.01 0.03,0 0.06,-0.01 0.08,-0.01 0.03,-0.01 0.06,-0.02 0.08,-0.02 0.03,-0.01 0.06,-0.02 0.08,-0.03 0.03,-0.01 0.06,-0.03 0.08,-0.04 0.03,-0.01 0.06,-0.03 0.08,-0.04l0 0c0.07,-0.05 0.15,-0.09 0.22,-0.11 0.04,-0.01 0.08,-0.02 0.12,-0.03 0.05,0 0.09,-0.01 0.13,-0.01 0.02,0 0.04,0 0.07,0 0.02,0.01 0.04,0.01 0.06,0.01 0.02,0 0.04,0.01 0.06,0.01 0.02,0.01 0.04,0.01 0.06,0.02l0 0c0.02,0.01 0.04,0.01 0.06,0.02l0 0c0.02,0.01 0.04,0.02 0.05,0.02 0.01,0.01 0.02,0.01 0.03,0.02 -0.02,0.05 -0.03,0.11 -0.03,0.18 -0.01,-0.01 -0.02,-0.01 -0.03,-0.02 -0.01,-0.01 -0.03,-0.01 -0.04,-0.02 -0.02,-0.01 -0.03,-0.02 -0.05,-0.02l0 0c-0.01,-0.01 -0.03,-0.01 -0.04,-0.02l0 0c-0.02,0 -0.03,-0.01 -0.05,-0.01 -0.01,0 -0.03,-0.01 -0.04,-0.01 -0.02,0 -0.04,0 -0.05,0 -0.02,0 -0.04,0 -0.06,0 -0.03,0 -0.07,0 -0.1,0 -0.03,0.01 -0.07,0.01 -0.09,0.02l-0.01 0c-0.05,0.02 -0.12,0.05 -0.18,0.09l0 0c-0.03,0.02 -0.06,0.04 -0.09,0.05 -0.03,0.02 -0.06,0.03 -0.09,0.05 -0.03,0.01 -0.06,0.02 -0.1,0.03 -0.03,0.01 -0.06,0.02 -0.09,0.02 -0.03,0.01 -0.06,0.02 -0.1,0.02 -0.03,0.01 -0.06,0.01 -0.09,0.01 -0.04,0.01 -0.08,0.01 -0.12,0.01l0 0.52c0,0.06 0.01,0.12 0.02,0.17 0,0.05 0.01,0.1 0.03,0.15 0.01,0.05 0.03,0.1 0.05,0.15 0.02,0.04 0.04,0.09 0.06,0.13l0 0c0.03,0.05 0.06,0.09 0.09,0.13 0.03,0.04 0.06,0.08 0.09,0.12 0.04,0.04 0.07,0.08 0.11,0.12 0.04,0.04 0.08,0.07 0.12,0.11l0 0c0.04,0.03 0.08,0.07 0.13,0.1 0.04,0.03 0.08,0.06 0.13,0.1l0 0c0.05,0.03 0.09,0.06 0.14,0.09 0.03,0.02 0.06,0.04 0.09,0.06 0.04,-0.02 0.07,-0.04 0.1,-0.06 0.04,-0.03 0.09,-0.06 0.14,-0.09l0 0c0.04,-0.04 0.09,-0.07 0.13,-0.1 0.04,-0.03 0.08,-0.07 0.12,-0.1l0.01 0c0.04,-0.04 0.08,-0.07 0.11,-0.11 0.04,-0.04 0.08,-0.08 0.11,-0.12 0.04,-0.04 0.07,-0.08 0.1,-0.12 0.03,-0.04 0.06,-0.08 0.08,-0.13l0 0c0.03,-0.04 0.05,-0.09 0.07,-0.13 0.02,-0.05 0.03,-0.1 0.05,-0.15 0.01,-0.05 0.02,-0.1 0.03,-0.15 0.01,-0.05 0.01,-0.1 0.01,-0.15 0.01,0 0.02,0 0.02,0 0.05,0 0.1,0 0.15,-0.01 0,0.06 0,0.12 -0.01,0.18 -0.01,0.06 -0.02,0.12 -0.04,0.18l0 0c-0.01,0.05 -0.03,0.11 -0.05,0.16 -0.03,0.05 -0.05,0.11 -0.08,0.16l0 0c-0.03,0.05 -0.06,0.09 -0.09,0.14 -0.03,0.05 -0.07,0.09 -0.11,0.14 -0.04,0.04 -0.08,0.08 -0.12,0.12 -0.04,0.04 -0.08,0.08 -0.12,0.12l0 0c-0.04,0.03 -0.09,0.07 -0.14,0.11 -0.04,0.03 -0.09,0.07 -0.14,0.1 -0.04,0.03 -0.09,0.06 -0.14,0.09 -0.05,0.03 -0.1,0.06 -0.14,0.09l-0.05 0.03 -0.04 -0.03z"/>
     <path class="fil1" d="M0.96 1.48l0 0.24c0,0.11 0.05,0.21 0.12,0.29 0.08,0.08 0.18,0.12 0.3,0.12 0.11,0 0.22,-0.04 0.29,-0.12 0.08,-0.08 0.12,-0.18 0.12,-0.29l0 -0.25 -0.83 0.01zm0.35 0.27c0,-0.04 0.03,-0.08 0.07,-0.08 0.04,0 0.07,0.04 0.07,0.08 0,0.02 -0.01,0.04 -0.03,0.06l0 0.1c0,0.02 -0.02,0.04 -0.04,0.04 -0.03,0 -0.04,-0.02 -0.04,-0.04l0 -0.1c-0.02,-0.02 -0.03,-0.04 -0.03,-0.06z"/>
     <path class="fil1" d="M1.09 0.88c-0.07,0.07 -0.12,0.18 -0.12,0.29l0 0.22 0.22 0 0 -0.2c0,-0.05 0.02,-0.1 0.06,-0.13 0.01,-0.01 0.02,-0.02 0.04,-0.03 0.03,-0.01 0.06,-0.02 0.09,-0.02 0,0 0,0 0,0 0.03,0 0.06,0.01 0.09,0.02 0.01,0.01 0.03,0.02 0.04,0.03 0.03,0.03 0.06,0.08 0.06,0.13l0 0.2 0.22 0 0 -0.22c0,-0.11 -0.05,-0.22 -0.12,-0.29 -0.03,-0.02 -0.06,-0.05 -0.1,-0.07 -0.06,-0.03 -0.12,-0.04 -0.19,-0.04 0,0 0,0 0,0 -0.07,0 -0.14,0.01 -0.2,0.04 -0.03,0.02 -0.06,0.05 -0.09,0.07z"/>
     <path class="fil3" d="M2.83 0.6c0,-0.04 0.04,-0.06 0.08,-0.05 0.04,0 0.06,0.04 0.05,0.08 -0.03,0.11 -0.09,0.21 -0.18,0.28 -0.09,0.07 -0.2,0.11 -0.32,0.11 -0.14,0 -0.26,-0.06 -0.36,-0.15 -0.09,-0.09 -0.15,-0.22 -0.15,-0.36 0,-0.14 0.06,-0.27 0.15,-0.36 0.1,-0.09 0.22,-0.15 0.36,-0.15 0.04,0 0.07,0.03 0.07,0.07 0,0.04 -0.03,0.07 -0.07,0.07 -0.1,0 -0.19,0.04 -0.26,0.11 -0.07,0.06 -0.11,0.16 -0.11,0.26 0,0.1 0.04,0.2 0.11,0.26 0.07,0.07 0.16,0.11 0.26,0.11 0.09,0 0.17,-0.03 0.23,-0.08 0.07,-0.05 0.12,-0.12 0.14,-0.2z"/>
     <path class="fil2" d="M2.24 0.49c-0.03,-0.03 -0.04,-0.08 -0.01,-0.11 0.03,-0.04 0.08,-0.04 0.12,-0.01l0.13 0.12 0.37 -0.39c0.03,-0.04 0.08,-0.04 0.11,-0.01 0.03,0.03 0.03,0.08 0,0.11l-0.46 0.52 -0.26 -0.23z"/>
    </g>
   </g>
   <rect class="fil1" transform="matrix(17.5539 17.5538 -17.5539 17.5538 1.85649 4.70418E-06)" width="0.01" height="0.01"/>
  </g>
 </g>
</svg>
