<?xml version="1.0" encoding="UTF-8"?>
<!DOCTYPE svg PUBLIC "-//W3C//DTD SVG 1.1//EN" "http://www.w3.org/Graphics/SVG/1.1/DTD/svg11.dtd">
<!-- Creator: CorelDRAW 2020 (64-Bit Evaluation Version) -->
<svg xmlns="http://www.w3.org/2000/svg" xml:space="preserve" width="100px" height="100px" version="1.1" style="shape-rendering:geometricPrecision; text-rendering:geometricPrecision; image-rendering:optimizeQuality; fill-rule:evenodd; clip-rule:evenodd"
viewBox="0 0 129.64 129.64"
 xmlns:xlink="http://www.w3.org/1999/xlink"
 xmlns:xodm="http://www.corel.com/coreldraw/odm/2003">
 <defs>
  <style type="text/css">
   <![CDATA[
    .fil0 {fill:#EFB30C}
    .fil1 {fill:#F5BE27}
    .fil2 {fill:white}
    .fil3 {fill:#263674;fill-rule:nonzero}
   ]]>
  </style>
 </defs>
 <g id="Layer_x0020_1">
  <metadata id="CorelCorpID_0Corel-Layer"/>
  <g id="_2571576745392">
   <circle class="fil0" cx="64.82" cy="64.82" r="23.09"/>
   <circle class="fil1" cx="64.82" cy="64.82" r="19.58"/>
   <rect class="fil2" transform="matrix(9.94546 9.94546 -9.94546 9.94546 64.8186 53.7387)" width="1.11" height="1.11"/>
   <path class="fil3" d="M129.64 12.59l0 52.23c0,35.65 -29.17,64.82 -64.82,64.82l-52.23 0 26.03 -26.04 14.58 0c27.72,0 50.4,-22.68 50.4,-50.4l0 -14.58 26.04 -26.03z"/>
   <path class="fil0" d="M64.82 0l52.23 0 -26.03 26.03 -14.58 0c-27.73,0 -50.41,22.68 -50.41,50.41l0 14.58 -26.03 26.03 0 -52.23c0,-35.65 29.17,-64.82 64.82,-64.82z"/>
   <path class="fil3" d="M85.37 96.42c0,-2.37 0.61,-4.36 1.83,-6.04 1.15,-1.61 2.91,-2.45 5.13,-2.45 2.06,0 3.82,0.76 5.2,2.22 1.3,1.45 1.99,3.67 1.99,6.5 0,2.83 -0.69,4.97 -2.07,6.42 -1.37,1.53 -3.06,2.3 -5.05,2.3 -1.98,0 -3.67,-0.77 -5.04,-2.22 -1.3,-1.53 -1.99,-3.75 -1.99,-6.73l0 0z"/>
  </g>
 </g>
</svg>
