<svg xmlns="http://www.w3.org/2000/svg" viewBox="0 0 1920 1080"><defs><style>.cls-1{fill:#263674;}.cls-2{opacity:0.6;}.cls-3{opacity:0.1;}</style></defs><g id="Layer_2" data-name="Layer 2"><g id="Layer_1-2" data-name="Layer 1"><rect class="cls-1" x="0.83" width="1918.33" height="1080"/><g class="cls-2"><rect class="cls-3" y="451.76" width="43.17" height="628.24"/><rect class="cls-3" x="43.65" y="685.37" width="43.17" height="394.63"/><rect class="cls-3" x="87.31" y="596.02" width="43.17" height="483.98"/><rect class="cls-3" x="130.96" y="824.05" width="43.17" height="255.95"/><rect class="cls-3" x="174.62" y="687.23" width="43.17" height="392.77"/><rect class="cls-3" x="218.27" y="478.75" width="43.17" height="601.25"/><rect class="cls-3" x="261.93" y="762.76" width="43.17" height="317.24"/><rect class="cls-3" x="305.58" y="596.02" width="43.17" height="483.98"/><rect class="cls-3" x="349.24" y="824.05" width="43.17" height="255.95"/><rect class="cls-3" x="392.89" y="636.76" width="43.17" height="443.24"/><rect class="cls-3" x="436.55" y="478.75" width="43.17" height="601.25"/><rect class="cls-3" x="480.2" y="569.76" width="43.17" height="510.24"/><rect class="cls-3" x="523.86" y="685.37" width="43.17" height="394.63"/><rect class="cls-3" x="567.51" y="596.02" width="43.17" height="483.98"/><rect class="cls-3" x="611.17" y="824.05" width="43.17" height="255.95"/><rect class="cls-3" x="654.82" y="687.23" width="43.17" height="392.77"/><rect class="cls-3" x="698.48" y="478.75" width="43.17" height="601.25"/><rect class="cls-3" x="742.13" y="685.37" width="43.17" height="394.63"/><rect class="cls-3" x="785.79" y="596.02" width="43.17" height="483.98"/><rect class="cls-3" x="829.44" y="824.05" width="43.17" height="255.95"/><rect class="cls-3" x="873.1" y="687.23" width="43.17" height="392.77"/><rect class="cls-3" x="916.75" y="478.75" width="43.17" height="601.25"/><rect class="cls-3" x="960.07" y="451.76" width="43.17" height="628.24"/><rect class="cls-3" x="1003.73" y="685.37" width="43.17" height="394.63"/><rect class="cls-3" x="1047.38" y="596.02" width="43.17" height="483.98"/><rect class="cls-3" x="1091.04" y="824.05" width="43.17" height="255.95"/><rect class="cls-3" x="1134.69" y="687.23" width="43.17" height="392.77"/><rect class="cls-3" x="1178.35" y="478.75" width="43.17" height="601.25"/><rect class="cls-3" x="1222" y="685.37" width="43.17" height="394.63"/><rect class="cls-3" x="1265.66" y="596.02" width="43.17" height="483.98"/><rect class="cls-3" x="1309.31" y="824.05" width="43.17" height="255.95"/><rect class="cls-3" x="1352.97" y="687.23" width="43.17" height="392.77"/><rect class="cls-3" x="1396.62" y="478.75" width="43.17" height="601.25"/><rect class="cls-3" x="1440.28" y="451.76" width="43.17" height="628.24"/><rect class="cls-3" x="1483.93" y="685.37" width="43.17" height="394.63"/><rect class="cls-3" x="1527.59" y="596.02" width="43.17" height="483.98"/><rect class="cls-3" x="1571.24" y="824.05" width="43.17" height="255.95"/><rect class="cls-3" x="1614.9" y="687.23" width="43.17" height="392.77"/><rect class="cls-3" x="1658.55" y="478.75" width="43.17" height="601.25"/><rect class="cls-3" x="1702.21" y="685.37" width="43.17" height="394.63"/><rect class="cls-3" x="1745.86" y="596.02" width="43.17" height="483.98"/><rect class="cls-3" x="1789.52" y="824.05" width="43.17" height="255.95"/><rect class="cls-3" x="1833.17" y="687.23" width="43.17" height="392.77"/><rect class="cls-3" x="1876.83" y="478.75" width="43.17" height="601.25"/></g></g></g></svg>