<svg xmlns="http://www.w3.org/2000/svg" viewBox="0 0 100.69 100"><defs><style>.cls-1{fill:#263674;}.cls-2{fill:#efb30c;}</style></defs><g id="Layer_2" data-name="Layer 2"><g id="Layer_1-2" data-name="Layer 1"><path class="cls-1" d="M43.73,89.06c-8.37-.37-16.49-2.62-21.24-5.37l3.75-14.61A44,44,0,0,0,47,74.58c7.12,0,12-2.75,12-7.74,0-4.75-4-7.75-13.24-10.87-13.36-4.5-22.48-10.74-22.48-22.85,0-11,7.75-19.61,21.11-22.23V0a50.33,50.33,0,0,0-.62,99.87Z"/><path class="cls-1" d="M58.9,42.31A21.6,21.6,0,0,1,100.69,50h0A50.35,50.35,0,0,0,56.59,0V10c8.37.38,14,2.13,18.11,4.13L71.07,28.25c-3.24-1.38-9-4.25-18-4.25C45,24,42.35,27.5,42.35,31c0,4.13,4.37,6.75,15,10.75Q58.13,42,58.9,42.31Z"/><path class="cls-1" d="M79.09,71.6c-.62,0-1.23,0-1.84-.08-2.47,8.2-9.8,14.67-21.29,16.67V100a50.33,50.33,0,0,0,44.72-49.68A21.6,21.6,0,0,1,79.09,71.6Z"/><path class="cls-2" d="M79.09,32.87A17.13,17.13,0,1,0,96.22,50,17.13,17.13,0,0,0,79.09,32.87Zm-3.4,25.48-7.25-7.91,2.78-2.54,4.59,5L87.07,41.65l2.66,2.66Z"/></g></g></svg>