<?xml version="1.0" encoding="UTF-8"?>
<!DOCTYPE svg PUBLIC "-//W3C//DTD SVG 1.1//EN" "http://www.w3.org/Graphics/SVG/1.1/DTD/svg11.dtd">
<!-- Creator: CorelDRAW 2020 (64-Bit Evaluation Version) -->
<svg xmlns="http://www.w3.org/2000/svg" xml:space="preserve" width="3428px" height="812px" version="1.1" style="shape-rendering:geometricPrecision; text-rendering:geometricPrecision; image-rendering:optimizeQuality; fill-rule:evenodd; clip-rule:evenodd"
viewBox="0 0 3004.15 711.9"
 xmlns:xlink="http://www.w3.org/1999/xlink"
 xmlns:xodm="http://www.corel.com/coreldraw/odm/2003">
 <defs>
  <style type="text/css">
   <![CDATA[
    .fil0 {fill:#2D3C7D}
   ]]>
  </style>
 </defs>
 <g id="Layer_x0020_1">
  <metadata id="CorelCorpID_0Corel-Layer"/>
  <g id="_2204908373760">
   <path class="fil0" d="M0 700.07l130.15 0 0 -262.28 179.46 0c127.2,0 204.11,-84.8 204.11,-212.98 0,-127.19 -76.91,-212.98 -204.11,-212.98l-309.61 0 0 688.24zm130.15 -374.68l0 -200.17 167.63 0c50.29,0 80.85,26.63 80.85,76.91l0 45.36c0,50.29 -30.56,77.9 -80.85,77.9l-167.63 0z"/>
   <path class="fil0" d="M1007.34 591.61l-255.38 0 201.15 -246.5c50.29,-62.12 66.06,-97.62 66.06,-149.88 0,-118.32 -79.86,-195.23 -201.14,-195.23 -117.34,0 -196.22,73.95 -202.14,184.39 0,7.88 4.93,11.83 11.83,11.83l92.69 0c6.9,0 11.83,-3.95 12.82,-11.83 3.94,-48.32 37.47,-79.87 84.8,-79.87 52.25,0 84.79,33.52 84.79,88.74 0,28.59 -8.87,51.27 -30.56,77.89l-252.42 313.56c-3.95,3.94 -4.93,8.87 -4.93,14.79l0 88.74c0,6.9 4.93,11.83 11.83,11.83l380.6 0c6.9,0 11.83,-4.93 11.83,-11.83l0 -84.8c0,-6.9 -4.93,-11.83 -11.83,-11.83z"/>
   <path class="fil0" d="M1157.41 700.07l130.16 0 0 -262.28 179.45 0c127.2,0 204.11,-84.8 204.11,-212.98 0,-127.19 -76.91,-212.98 -204.11,-212.98l-309.61 0 0 688.24zm130.16 -374.68l0 -200.17 167.62 0c50.29,0 80.86,26.63 80.86,76.91l0 45.36c0,50.29 -30.57,77.9 -80.86,77.9l-167.62 0z"/>
   <path class="fil0" d="M1919.24 700.07l0 -265.24 123.25 0 128.18 265.24 144.95 0 -141 -280.03c84.79,-28.59 128.18,-100.57 128.18,-195.23 0,-130.15 -77.9,-212.98 -203.12,-212.98l-310.6 0 0 688.24 130.16 0zm167.62 -374.68l-167.62 0 0 -200.17 167.62 0c50.29,0 80.85,26.63 80.85,76.91l0 45.36c0,50.29 -30.56,77.9 -80.85,77.9z"/>
   <path class="fil0" d="M2704.4 711.9c181.43,0 299.75,-123.25 299.75,-355.95 0,-232.7 -118.32,-355.95 -299.75,-355.95 -180.44,0 -299.75,123.25 -299.75,355.95 0,232.7 119.31,355.95 299.75,355.95zm0 -115.36c-98.6,0 -161.71,-70.01 -161.71,-187.34l0 -106.49c0,-117.34 63.11,-187.35 161.71,-187.35 98.6,0 161.71,70.01 161.71,187.35l0 106.49c0,117.33 -63.11,187.34 -161.71,187.34z"/>
  </g>
 </g>
</svg>
