<?xml version="1.0" encoding="UTF-8"?>
<!DOCTYPE svg PUBLIC "-//W3C//DTD SVG 1.1//EN" "http://www.w3.org/Graphics/SVG/1.1/DTD/svg11.dtd">
<!-- Creator: CorelDRAW 2020 (64-Bit Evaluation Version) -->
<svg xmlns="http://www.w3.org/2000/svg" xml:space="preserve" width="70px" height="70px" version="1.1" style="shape-rendering:geometricPrecision; text-rendering:geometricPrecision; image-rendering:optimizeQuality; fill-rule:evenodd; clip-rule:evenodd"
viewBox="0 0 9.61 9.63"
 xmlns:xlink="http://www.w3.org/1999/xlink"
 xmlns:xodm="http://www.corel.com/coreldraw/odm/2003">
 <defs>
  <style type="text/css">
   <![CDATA[
    .fil1 {fill:#263674}
    .fil0 {fill:#FEC00F}
    .fil2 {fill:#263674;fill-rule:nonzero}
   ]]>
  </style>
 </defs>
 <g id="Layer_x0020_1">
  <metadata id="CorelCorpID_0Corel-Layer"/>
  <g id="_2326867661680">
   <path class="fil0" d="M7.26 6.81l-5.3 -4.97c-0.1,0.03 -0.21,0.04 -0.32,0.06 -0.13,0.02 -0.25,0.03 -0.38,0.04 -0.09,0 -0.2,0.01 -0.32,0.01l0 1.76c0,0.2 0.02,0.39 0.04,0.56 0.03,0.18 0.06,0.35 0.12,0.52 0.05,0.18 0.11,0.34 0.18,0.51 0.08,0.16 0.16,0.32 0.25,0.47l0 0c0.09,0.15 0.19,0.3 0.3,0.44 0.11,0.15 0.23,0.29 0.35,0.42 0.13,0.14 0.27,0.28 0.41,0.41 0.14,0.13 0.28,0.25 0.44,0.37 0.15,0.13 0.31,0.25 0.47,0.36 0.15,0.11 0.32,0.22 0.49,0.33l0 0.01c0.18,0.11 0.35,0.21 0.52,0.31 0.1,0.06 0.2,0.12 0.3,0.18 0.1,-0.06 0.2,-0.12 0.3,-0.18 0.16,-0.1 0.34,-0.2 0.51,-0.31l0 -0.01c0.18,-0.11 0.34,-0.22 0.5,-0.33 0.16,-0.11 0.32,-0.23 0.47,-0.36 0.15,-0.12 0.3,-0.24 0.44,-0.37 0.08,-0.08 0.15,-0.15 0.23,-0.23z"/>
   <path class="fil1" d="M6.36 2.11c0.22,0.89 0.73,1.51 1.66,1.55 -0.96,0.31 -1.54,0.82 -1.66,1.56 -0.16,-0.73 -0.71,-1.26 -1.66,-1.56 0.4,-0.07 0.73,-0.23 1.01,-0.49 0.28,-0.26 0.49,-0.62 0.65,-1.06z"/>
   <path class="fil2" d="M4.59 9.42c-0.19,-0.11 -0.37,-0.21 -0.54,-0.31 -0.19,-0.11 -0.37,-0.22 -0.54,-0.33l0 0c-0.18,-0.12 -0.36,-0.24 -0.54,-0.36 -0.17,-0.13 -0.34,-0.26 -0.51,-0.39 -0.16,-0.13 -0.32,-0.27 -0.48,-0.41 -0.15,-0.15 -0.3,-0.3 -0.45,-0.45 -0.14,-0.16 -0.28,-0.32 -0.4,-0.49 -0.13,-0.17 -0.25,-0.34 -0.36,-0.52l0 0c-0.11,-0.18 -0.2,-0.37 -0.29,-0.55 -0.08,-0.2 -0.16,-0.39 -0.22,-0.6l0 0c-0.06,-0.2 -0.1,-0.41 -0.14,-0.63 -0.03,-0.23 -0.04,-0.45 -0.04,-0.67l0 -2.56 0.43 0c0.14,0 0.26,0 0.35,0 0.1,-0.01 0.21,-0.01 0.34,-0.02l0 0c0.11,-0.01 0.21,-0.02 0.31,-0.03 0.11,-0.02 0.21,-0.04 0.31,-0.06 0.1,-0.02 0.2,-0.04 0.29,-0.07 0.1,-0.03 0.2,-0.06 0.29,-0.09l0 -0.01c0.11,-0.03 0.2,-0.08 0.29,-0.12l0 0c0.1,-0.05 0.2,-0.1 0.29,-0.15l0 -0.01c0.13,-0.08 0.28,-0.15 0.42,-0.22 0.15,-0.07 0.3,-0.12 0.44,-0.16l0 0c0.15,-0.05 0.31,-0.08 0.47,-0.1 0.16,-0.02 0.33,-0.03 0.5,-0.03 0.07,0 0.16,0 0.25,0 0.08,0.01 0.16,0.02 0.24,0.03 0.08,0.01 0.15,0.02 0.24,0.04 0.07,0.02 0.15,0.03 0.23,0.06 0.07,0.02 0.15,0.04 0.22,0.07 0.09,0.03 0.16,0.06 0.22,0.09 0.07,0.03 0.14,0.07 0.22,0.11 0.05,0.02 0.12,0.06 0.2,0.11l0.01 0c0.08,0.06 0.18,0.11 0.29,0.16l0 0c0.08,0.04 0.18,0.09 0.28,0.12l0 0.01c0.1,0.03 0.2,0.06 0.29,0.09 0.1,0.03 0.19,0.05 0.29,0.07 0.11,0.02 0.21,0.04 0.31,0.06 0.1,0.01 0.21,0.02 0.31,0.03l0.01 0c0.12,0.01 0.24,0.01 0.33,0.02 0.09,0 0.21,0 0.36,0l0.43 0 0 2.56c0,0.22 -0.02,0.44 -0.05,0.67 -0.03,0.22 -0.08,0.43 -0.14,0.63l0 0c-0.06,0.21 -0.13,0.4 -0.22,0.6 -0.08,0.18 -0.18,0.37 -0.29,0.55l0 0c-0.1,0.18 -0.22,0.35 -0.35,0.52 -0.13,0.17 -0.26,0.33 -0.41,0.49 -0.14,0.15 -0.29,0.3 -0.45,0.45 -0.15,0.14 -0.31,0.28 -0.48,0.41 -0.17,0.13 -0.33,0.26 -0.51,0.39 -0.18,0.12 -0.35,0.24 -0.53,0.36l0 0c-0.18,0.11 -0.36,0.22 -0.54,0.33 -0.19,0.11 -0.37,0.21 -0.54,0.31l-0.22 0.12 -0.22 -0.12zm-0.08 -1c0.1,0.06 0.2,0.12 0.3,0.18 0.1,-0.06 0.2,-0.12 0.3,-0.18 0.16,-0.1 0.34,-0.2 0.51,-0.31l0 -0.01c0.18,-0.11 0.34,-0.22 0.5,-0.33 0.16,-0.11 0.32,-0.23 0.47,-0.36 0.15,-0.12 0.3,-0.24 0.44,-0.37 0.14,-0.13 0.27,-0.27 0.4,-0.41 0.13,-0.13 0.24,-0.27 0.36,-0.42 0.1,-0.14 0.2,-0.29 0.3,-0.44l0 0c0.09,-0.15 0.17,-0.31 0.24,-0.47 0.07,-0.17 0.14,-0.33 0.19,-0.51l0 0c0.05,-0.17 0.09,-0.34 0.11,-0.52 0.03,-0.17 0.04,-0.36 0.04,-0.56l0 -1.76c-0.12,0 -0.23,-0.01 -0.32,-0.01 -0.12,-0.01 -0.25,-0.02 -0.37,-0.04 -0.12,-0.02 -0.25,-0.04 -0.37,-0.06 -0.12,-0.03 -0.24,-0.06 -0.36,-0.09 -0.12,-0.04 -0.24,-0.08 -0.36,-0.12l0 0c-0.11,-0.05 -0.24,-0.1 -0.36,-0.16l0 0c-0.11,-0.05 -0.23,-0.12 -0.35,-0.19 -0.05,-0.03 -0.11,-0.06 -0.18,-0.1 -0.05,-0.02 -0.11,-0.05 -0.16,-0.08 -0.07,-0.03 -0.12,-0.05 -0.16,-0.07 -0.06,-0.02 -0.11,-0.03 -0.16,-0.05l-0.01 0c-0.05,-0.01 -0.1,-0.03 -0.16,-0.04 -0.05,-0.01 -0.1,-0.02 -0.17,-0.03 -0.06,-0.01 -0.12,-0.01 -0.18,-0.02 -0.05,0 -0.12,0 -0.19,0 -0.14,0 -0.26,0.01 -0.38,0.02 -0.11,0.02 -0.23,0.04 -0.33,0.07l0 0c-0.11,0.03 -0.22,0.07 -0.32,0.12 -0.11,0.05 -0.22,0.11 -0.34,0.18l0 0c-0.13,0.07 -0.24,0.14 -0.35,0.19l0 0c-0.13,0.06 -0.25,0.11 -0.36,0.16l0 0c-0.12,0.04 -0.24,0.08 -0.36,0.12 -0.13,0.03 -0.25,0.06 -0.37,0.09 -0.12,0.02 -0.24,0.04 -0.36,0.06 -0.13,0.02 -0.25,0.03 -0.38,0.04 -0.09,0 -0.2,0.01 -0.32,0.01l0 1.76c0,0.2 0.02,0.39 0.04,0.56 0.03,0.18 0.06,0.35 0.12,0.52l0 0c0.05,0.18 0.11,0.34 0.18,0.51 0.08,0.16 0.16,0.32 0.25,0.47l0 0c0.09,0.15 0.19,0.3 0.3,0.44 0.11,0.15 0.23,0.29 0.35,0.42 0.13,0.14 0.27,0.28 0.41,0.41 0.14,0.13 0.28,0.25 0.44,0.37 0.15,0.13 0.31,0.25 0.47,0.36 0.15,0.11 0.32,0.22 0.49,0.33l0 0.01c0.18,0.11 0.35,0.21 0.52,0.31z"/>
   <path class="fil2" d="M4.55 9.48c-0.09,-0.05 -0.18,-0.1 -0.28,-0.15 -0.09,-0.05 -0.18,-0.11 -0.26,-0.16 -0.09,-0.05 -0.19,-0.11 -0.28,-0.16 -0.06,-0.04 -0.13,-0.08 -0.2,-0.13l-0.06 -0.04c-0.09,-0.05 -0.18,-0.11 -0.27,-0.17 -0.09,-0.06 -0.18,-0.13 -0.27,-0.19 -0.09,-0.06 -0.17,-0.13 -0.26,-0.19 -0.09,-0.07 -0.17,-0.13 -0.25,-0.2 -0.09,-0.07 -0.17,-0.14 -0.25,-0.21 -0.08,-0.07 -0.16,-0.14 -0.24,-0.21 -0.08,-0.07 -0.15,-0.14 -0.23,-0.22 -0.07,-0.07 -0.15,-0.15 -0.22,-0.23 -0.08,-0.08 -0.15,-0.16 -0.22,-0.24 -0.06,-0.08 -0.13,-0.16 -0.2,-0.25 -0.06,-0.09 -0.12,-0.17 -0.18,-0.26 -0.06,-0.09 -0.12,-0.18 -0.17,-0.27l-0.04 -0.07 0 0c-0.04,-0.07 -0.08,-0.14 -0.12,-0.21 -0.05,-0.1 -0.1,-0.19 -0.14,-0.28 -0.04,-0.1 -0.08,-0.2 -0.12,-0.3 -0.03,-0.1 -0.07,-0.2 -0.1,-0.3l0 0c-0.03,-0.11 -0.06,-0.21 -0.08,-0.32 -0.03,-0.11 -0.05,-0.22 -0.06,-0.33 -0.03,-0.23 -0.05,-0.46 -0.05,-0.68l0 -2.64 0.51 0 0.19 0c0.06,0 0.11,0 0.16,0 0.04,0 0.1,0 0.15,-0.01 0.06,0 0.12,0 0.18,-0.01l0.01 0c0.05,0 0.1,-0.01 0.15,-0.01 0.05,-0.01 0.1,-0.01 0.15,-0.02 0.05,-0.01 0.1,-0.01 0.15,-0.02 0.05,-0.01 0.1,-0.02 0.16,-0.03 0.04,-0.01 0.09,-0.02 0.14,-0.03 0.05,-0.02 0.1,-0.03 0.14,-0.04 0.05,-0.01 0.09,-0.03 0.14,-0.04l0.08 -0.03 0.07 -0.03c0.05,-0.02 0.09,-0.04 0.14,-0.06 0.04,-0.01 0.07,-0.02 0.09,-0.04l0 0 0.05 -0.02c0.05,-0.03 0.1,-0.05 0.14,-0.07l0.08 -0.05 0.06 -0.03c0.07,-0.04 0.14,-0.08 0.21,-0.12 0.07,-0.04 0.15,-0.08 0.22,-0.11 0.08,-0.03 0.15,-0.06 0.23,-0.09 0.04,-0.02 0.09,-0.04 0.14,-0.05l0 0 0.08 -0.03c0.08,-0.02 0.16,-0.04 0.23,-0.05 0.08,-0.02 0.17,-0.04 0.25,-0.05 0.08,-0.01 0.17,-0.02 0.25,-0.02 0.09,-0.01 0.17,-0.01 0.26,-0.01 0.03,0 0.07,0 0.12,0 0.05,0 0.09,0.01 0.13,0.01 0.04,0 0.09,0 0.13,0.01 0.04,0 0.08,0.01 0.12,0.01 0.04,0.01 0.08,0.01 0.12,0.02 0.04,0.01 0.08,0.02 0.12,0.02 0.04,0.01 0.08,0.02 0.12,0.03 0.04,0.01 0.08,0.02 0.12,0.03 0.04,0.02 0.08,0.03 0.12,0.04 0.03,0.01 0.07,0.03 0.11,0.04 0.04,0.02 0.08,0.03 0.12,0.05 0.04,0.01 0.08,0.03 0.11,0.04 0.03,0.02 0.07,0.04 0.1,0.05 0.04,0.02 0.07,0.04 0.11,0.06l0.1 0.05c0.04,0.02 0.08,0.05 0.12,0.07 0.04,0.02 0.08,0.05 0.13,0.07 0.05,0.03 0.1,0.06 0.15,0.08l0.04 0.02 0 0c0.03,0.02 0.06,0.03 0.09,0.04 0.05,0.02 0.1,0.04 0.15,0.06l0.06 0.03 0.08 0.03c0.05,0.01 0.1,0.03 0.14,0.04 0.05,0.01 0.09,0.02 0.14,0.04 0.05,0.01 0.1,0.02 0.15,0.03 0.05,0.01 0.1,0.02 0.15,0.03 0.05,0.01 0.1,0.01 0.15,0.02 0.05,0.01 0.1,0.01 0.15,0.02 0.05,0 0.1,0.01 0.15,0.01l0.01 0c0.07,0.01 0.13,0.01 0.18,0.01 0.06,0.01 0.11,0.01 0.16,0.01 0.04,0 0.09,0 0.15,0l0.2 0 0.5 0 0 2.64c0,0.22 -0.01,0.45 -0.04,0.68 -0.02,0.11 -0.04,0.22 -0.06,0.33 -0.03,0.11 -0.05,0.21 -0.08,0.32l-0.01 0c-0.03,0.1 -0.06,0.2 -0.1,0.3 -0.04,0.1 -0.08,0.2 -0.12,0.3 -0.04,0.09 -0.08,0.18 -0.13,0.28 -0.04,0.07 -0.08,0.14 -0.12,0.21l0 0 -0.04 0.07c-0.06,0.09 -0.11,0.18 -0.17,0.27 -0.06,0.09 -0.12,0.17 -0.19,0.26 -0.07,0.09 -0.13,0.17 -0.2,0.25 -0.07,0.08 -0.14,0.16 -0.21,0.24 -0.08,0.08 -0.15,0.16 -0.23,0.23 -0.07,0.08 -0.15,0.15 -0.23,0.22 -0.07,0.07 -0.15,0.14 -0.23,0.21 -0.09,0.07 -0.17,0.14 -0.25,0.21 -0.08,0.07 -0.17,0.13 -0.25,0.2 -0.09,0.06 -0.18,0.13 -0.26,0.19 -0.1,0.06 -0.19,0.13 -0.27,0.19 -0.09,0.06 -0.18,0.11 -0.27,0.17l-0.07 0.04c-0.07,0.05 -0.13,0.09 -0.2,0.13 -0.09,0.05 -0.18,0.11 -0.27,0.16 -0.1,0.06 -0.19,0.12 -0.28,0.17 -0.08,0.04 -0.17,0.09 -0.26,0.14l-0.26 0.15 -0.26 -0.15zm-0.2 -0.28c0.09,0.05 0.18,0.1 0.28,0.15l0.18 0.1 0.18 -0.1c0.07,-0.04 0.16,-0.09 0.26,-0.15 0.1,-0.05 0.19,-0.1 0.28,-0.16 0.09,-0.05 0.18,-0.11 0.27,-0.16 0.1,-0.06 0.18,-0.12 0.27,-0.17l0.06 -0.04c0.07,-0.04 0.13,-0.08 0.2,-0.13 0.09,-0.06 0.18,-0.12 0.27,-0.19 0.09,-0.06 0.17,-0.12 0.25,-0.18 0.09,-0.07 0.17,-0.13 0.25,-0.2 0.09,-0.06 0.17,-0.13 0.25,-0.2 0.07,-0.07 0.15,-0.14 0.23,-0.21 0.08,-0.07 0.15,-0.14 0.23,-0.22 0.07,-0.07 0.15,-0.15 0.22,-0.22 0.07,-0.08 0.14,-0.16 0.2,-0.24 0.07,-0.08 0.14,-0.16 0.2,-0.24 0.06,-0.09 0.12,-0.17 0.18,-0.26 0.04,-0.06 0.08,-0.12 0.12,-0.18l0 -0.01 0.05 -0.07c0.05,-0.09 0.1,-0.18 0.15,-0.27 0.05,-0.09 0.09,-0.18 0.13,-0.27 0.04,-0.1 0.08,-0.2 0.12,-0.29 0.04,-0.1 0.07,-0.2 0.1,-0.29l0 -0.01c0.03,-0.1 0.06,-0.2 0.08,-0.3 0.02,-0.11 0.04,-0.22 0.06,-0.32 0.03,-0.22 0.04,-0.44 0.04,-0.66l0 -2.48 -0.35 0 -0.2 0c-0.06,0 -0.11,-0.01 -0.16,-0.01 -0.05,0 -0.1,0 -0.16,0 -0.06,-0.01 -0.12,-0.01 -0.17,-0.02l-0.01 0c-0.05,0 -0.11,0 -0.16,-0.01 -0.06,-0.01 -0.11,-0.01 -0.16,-0.02 -0.05,-0.01 -0.1,-0.01 -0.15,-0.02 -0.06,-0.01 -0.11,-0.02 -0.16,-0.03 -0.05,-0.01 -0.1,-0.02 -0.15,-0.04 -0.05,-0.01 -0.1,-0.02 -0.15,-0.03 -0.05,-0.02 -0.1,-0.03 -0.15,-0.05 -0.05,-0.02 -0.1,-0.03 -0.14,-0.05l-0.08 -0.03 0 0 -0.08 -0.04c-0.04,-0.02 -0.09,-0.04 -0.14,-0.06l-0.04 -0.02 0 0c-0.04,-0.02 -0.08,-0.04 -0.11,-0.06 -0.05,-0.03 -0.1,-0.05 -0.14,-0.08 -0.04,-0.02 -0.08,-0.04 -0.12,-0.07l-0.09 -0.05c-0.04,-0.02 -0.07,-0.03 -0.11,-0.05 -0.03,-0.02 -0.07,-0.04 -0.1,-0.05 -0.03,-0.01 -0.06,-0.03 -0.1,-0.04 -0.03,-0.02 -0.07,-0.03 -0.11,-0.05 -0.04,-0.01 -0.08,-0.02 -0.11,-0.03 -0.04,-0.02 -0.08,-0.03 -0.11,-0.04l0 0c-0.04,-0.01 -0.08,-0.02 -0.12,-0.03 -0.03,-0.01 -0.07,-0.02 -0.11,-0.03 -0.04,0 -0.08,-0.01 -0.12,-0.02 -0.04,-0.01 -0.07,-0.01 -0.11,-0.02 -0.04,0 -0.08,-0.01 -0.11,-0.01 -0.04,0 -0.08,-0.01 -0.13,-0.01 -0.04,0 -0.09,0 -0.12,-0.01 -0.04,0 -0.08,0 -0.12,0 -0.09,0 -0.17,0.01 -0.25,0.01 -0.08,0.01 -0.16,0.01 -0.24,0.02 -0.08,0.02 -0.16,0.03 -0.23,0.04 -0.06,0.02 -0.12,0.03 -0.17,0.04l-0.06 0.02c-0.06,0.02 -0.13,0.04 -0.21,0.07 -0.07,0.03 -0.14,0.06 -0.21,0.09 -0.08,0.03 -0.15,0.07 -0.22,0.1 -0.04,0.03 -0.09,0.05 -0.13,0.08l-0.07 0.04c-0.05,0.03 -0.1,0.05 -0.14,0.08 -0.04,0.02 -0.08,0.04 -0.11,0.06l0 0 -0.05 0.02c-0.04,0.02 -0.09,0.04 -0.14,0.06l-0.07 0.04 0 0 -0.08 0.03c-0.05,0.02 -0.1,0.03 -0.15,0.05 -0.05,0.02 -0.09,0.03 -0.15,0.05 -0.04,0.01 -0.09,0.02 -0.14,0.03 -0.05,0.02 -0.1,0.03 -0.15,0.04 -0.05,0.01 -0.11,0.02 -0.16,0.03 -0.05,0.01 -0.1,0.01 -0.16,0.02 -0.05,0.01 -0.1,0.01 -0.15,0.02 -0.06,0.01 -0.11,0.01 -0.16,0.01l-0.01 0c-0.06,0.01 -0.12,0.01 -0.18,0.02 -0.05,0 -0.11,0 -0.16,0 -0.04,0 -0.09,0.01 -0.15,0.01l-0.2 0 -0.36 0 0 2.48c0,0.22 0.02,0.44 0.05,0.66 0.01,0.1 0.03,0.21 0.06,0.32 0.02,0.1 0.05,0.2 0.08,0.3l0 0.01c0.03,0.09 0.06,0.19 0.1,0.29 0.03,0.09 0.07,0.19 0.11,0.29 0.04,0.09 0.09,0.18 0.13,0.27 0.05,0.09 0.1,0.18 0.16,0.27l0.04 0.07 0 0.01c0.04,0.06 0.08,0.12 0.12,0.18 0.06,0.09 0.12,0.17 0.19,0.26 0.06,0.08 0.12,0.16 0.19,0.24 0.07,0.08 0.14,0.16 0.21,0.24 0.07,0.07 0.14,0.15 0.22,0.22 0.07,0.08 0.15,0.15 0.22,0.22 0.08,0.07 0.16,0.14 0.24,0.21 0.08,0.07 0.16,0.14 0.24,0.2 0.09,0.07 0.17,0.13 0.25,0.2 0.08,0.06 0.17,0.12 0.26,0.18 0.08,0.07 0.17,0.13 0.26,0.19 0.07,0.04 0.14,0.09 0.2,0.13l0.07 0.04c0.08,0.05 0.17,0.11 0.26,0.17 0.09,0.05 0.18,0.11 0.28,0.16 0.08,0.05 0.17,0.11 0.26,0.16zm0.2 -0.84l0.15 0.08 0.11 0.07 0.11 -0.07 0.15 -0.08c0.08,-0.05 0.16,-0.1 0.25,-0.16 0.1,-0.05 0.18,-0.11 0.26,-0.16l0 0c0.09,-0.06 0.17,-0.11 0.25,-0.16 0.09,-0.06 0.16,-0.11 0.24,-0.17 0.09,-0.06 0.17,-0.12 0.24,-0.17 0.08,-0.06 0.15,-0.12 0.23,-0.18 0.08,-0.06 0.15,-0.13 0.22,-0.19 0.07,-0.06 0.14,-0.12 0.21,-0.19 0.08,-0.06 0.14,-0.13 0.21,-0.2 0.07,-0.06 0.13,-0.13 0.2,-0.2 0.06,-0.06 0.12,-0.13 0.18,-0.2 0.06,-0.07 0.11,-0.14 0.16,-0.21 0.06,-0.07 0.11,-0.14 0.16,-0.22 0.05,-0.07 0.1,-0.15 0.14,-0.22l0.02 -0.04 0.01 0c0.03,-0.06 0.07,-0.12 0.1,-0.19 0.04,-0.07 0.08,-0.15 0.11,-0.24 0.04,-0.07 0.07,-0.15 0.1,-0.24 0.03,-0.08 0.06,-0.17 0.09,-0.25l0 -0.03c0.03,-0.07 0.05,-0.15 0.06,-0.22 0.02,-0.09 0.04,-0.17 0.05,-0.26 0.01,-0.09 0.02,-0.17 0.03,-0.27 0,-0.09 0.01,-0.18 0.01,-0.28l0 -1.68 -0.1 -0.01c-0.06,0 -0.11,0 -0.15,-0.01 -0.07,0 -0.13,-0.01 -0.19,-0.01 -0.07,-0.01 -0.13,-0.02 -0.19,-0.03 -0.06,0 -0.13,-0.01 -0.19,-0.02 -0.06,-0.02 -0.12,-0.03 -0.18,-0.04 -0.06,-0.01 -0.12,-0.02 -0.19,-0.04 -0.06,-0.01 -0.12,-0.03 -0.18,-0.05 -0.07,-0.02 -0.13,-0.04 -0.19,-0.06 -0.06,-0.02 -0.12,-0.04 -0.18,-0.06l0 0c-0.06,-0.02 -0.11,-0.05 -0.18,-0.07 -0.04,-0.02 -0.08,-0.04 -0.12,-0.06l0 0 -0.07 -0.03c-0.05,-0.03 -0.11,-0.06 -0.17,-0.09 -0.06,-0.03 -0.12,-0.07 -0.18,-0.1l-0.08 -0.05 -0.09 -0.05 -0.08 -0.04 -0.09 -0.04c-0.03,-0.01 -0.06,-0.03 -0.08,-0.04 -0.02,-0.01 -0.05,-0.02 -0.07,-0.02 -0.02,-0.01 -0.05,-0.02 -0.08,-0.03 -0.02,-0.01 -0.05,-0.02 -0.07,-0.02l-0.01 -0.01c-0.02,0 -0.05,-0.01 -0.07,-0.02 -0.03,0 -0.06,-0.01 -0.08,-0.02 -0.03,0 -0.05,0 -0.08,-0.01 -0.03,0 -0.06,-0.01 -0.09,-0.01 -0.03,-0.01 -0.06,-0.01 -0.08,-0.01 -0.03,-0.01 -0.06,-0.01 -0.09,-0.01 -0.03,0 -0.06,0 -0.09,0l-0.1 0c-0.14,0 -0.26,0 -0.37,0.02 -0.05,0.01 -0.11,0.01 -0.16,0.03 -0.06,0.01 -0.11,0.02 -0.16,0.04l0 0c-0.05,0.01 -0.11,0.03 -0.16,0.05 -0.05,0.02 -0.1,0.04 -0.15,0.06 -0.05,0.02 -0.11,0.05 -0.16,0.08 -0.05,0.03 -0.11,0.06 -0.17,0.09l0 0c-0.06,0.04 -0.12,0.08 -0.18,0.11 -0.07,0.03 -0.12,0.06 -0.18,0.09l-0.06 0.03 0 0c-0.05,0.02 -0.09,0.04 -0.13,0.06 -0.06,0.02 -0.12,0.05 -0.18,0.07l0 0c-0.06,0.02 -0.12,0.04 -0.18,0.06 -0.06,0.02 -0.12,0.04 -0.18,0.06 -0.06,0.02 -0.13,0.04 -0.19,0.05 -0.06,0.02 -0.12,0.03 -0.18,0.04 -0.06,0.01 -0.12,0.02 -0.19,0.04 -0.06,0.01 -0.12,0.02 -0.18,0.02 -0.07,0.01 -0.13,0.02 -0.19,0.03 -0.07,0 -0.13,0.01 -0.19,0.01 -0.04,0.01 -0.1,0.01 -0.15,0.01l-0.1 0.01 0 1.68c0,0.1 0,0.19 0.01,0.28 0,0.1 0.01,0.18 0.03,0.27 0.01,0.08 0.02,0.17 0.04,0.26 0.02,0.07 0.04,0.15 0.06,0.22l0.01 0.03c0.02,0.08 0.05,0.17 0.08,0.25 0.04,0.09 0.07,0.17 0.1,0.24 0.04,0.09 0.08,0.17 0.12,0.24 0.03,0.07 0.06,0.13 0.1,0.19l0 0 0.02 0.04c0.05,0.07 0.1,0.15 0.15,0.22 0.05,0.08 0.1,0.15 0.15,0.22 0.05,0.07 0.11,0.14 0.17,0.21 0.06,0.07 0.12,0.14 0.18,0.2 0.06,0.07 0.13,0.14 0.2,0.2 0.06,0.07 0.13,0.14 0.2,0.2 0.07,0.07 0.14,0.13 0.21,0.19 0.08,0.06 0.15,0.13 0.22,0.19 0.08,0.06 0.16,0.12 0.23,0.18 0.08,0.05 0.16,0.11 0.24,0.17 0.08,0.06 0.16,0.11 0.24,0.17 0.08,0.05 0.16,0.1 0.25,0.16l0.01 0c0.07,0.05 0.16,0.11 0.25,0.16 0.09,0.06 0.18,0.11 0.26,0.16zm0.07 0.22l-0.15 -0.09c-0.09,-0.05 -0.17,-0.11 -0.26,-0.16 -0.07,-0.04 -0.16,-0.1 -0.26,-0.16l0 0c-0.09,-0.06 -0.17,-0.11 -0.25,-0.17 -0.09,-0.05 -0.17,-0.11 -0.25,-0.17 -0.08,-0.05 -0.16,-0.11 -0.24,-0.17 -0.08,-0.07 -0.16,-0.13 -0.23,-0.19 -0.08,-0.06 -0.15,-0.12 -0.23,-0.18 -0.07,-0.07 -0.14,-0.13 -0.21,-0.2 -0.07,-0.06 -0.14,-0.13 -0.21,-0.2 -0.07,-0.06 -0.13,-0.13 -0.2,-0.2 -0.07,-0.07 -0.13,-0.14 -0.19,-0.21 -0.06,-0.07 -0.11,-0.14 -0.17,-0.22 -0.06,-0.07 -0.11,-0.15 -0.16,-0.22 -0.04,-0.06 -0.08,-0.13 -0.13,-0.2l0 0 -0.02 -0.03c-0.04,-0.08 -0.09,-0.16 -0.13,-0.24 -0.04,-0.08 -0.08,-0.16 -0.12,-0.24 -0.03,-0.09 -0.07,-0.17 -0.1,-0.25 -0.02,-0.06 -0.04,-0.13 -0.06,-0.19l-0.01 0 -0.02 -0.08c-0.02,-0.08 -0.05,-0.17 -0.07,-0.26 -0.02,-0.09 -0.03,-0.18 -0.04,-0.27 -0.02,-0.09 -0.03,-0.18 -0.03,-0.28 -0.01,-0.09 -0.01,-0.19 -0.01,-0.29l0 -1.83 0.07 0c0.06,0 0.11,-0.01 0.17,-0.01 0.05,0 0.1,-0.01 0.15,-0.01l0 0c0.06,0 0.12,-0.01 0.18,-0.02 0.06,0 0.12,-0.01 0.19,-0.02 0.06,-0.01 0.12,-0.01 0.18,-0.02 0.05,-0.01 0.11,-0.03 0.18,-0.04 0.06,-0.01 0.12,-0.02 0.17,-0.04 0.06,-0.01 0.13,-0.03 0.19,-0.05 0.06,-0.01 0.11,-0.03 0.17,-0.05 0.06,-0.02 0.12,-0.04 0.18,-0.06l0 0c0.06,-0.03 0.11,-0.05 0.17,-0.07 0.06,-0.03 0.12,-0.06 0.19,-0.09l0.06 -0.03 0 0c0.03,-0.02 0.07,-0.04 0.1,-0.05 0.06,-0.04 0.12,-0.07 0.18,-0.11l0.01 0c0.05,-0.03 0.11,-0.07 0.17,-0.1 0.05,-0.03 0.11,-0.05 0.17,-0.08 0.05,-0.02 0.11,-0.05 0.16,-0.07 0.06,-0.02 0.11,-0.04 0.17,-0.05l0 0c0.05,-0.02 0.11,-0.03 0.17,-0.04 0.05,-0.01 0.11,-0.02 0.17,-0.03 0.12,-0.02 0.25,-0.03 0.39,-0.03 0.03,0 0.06,0 0.11,0 0.03,0.01 0.06,0.01 0.09,0.01 0.03,0 0.06,0 0.09,0.01 0.03,0 0.06,0 0.09,0.01 0.03,0 0.07,0.01 0.1,0.01 0.03,0.01 0.05,0.01 0.08,0.02 0.03,0 0.06,0.01 0.08,0.01 0.03,0.01 0.06,0.02 0.08,0.03l0.01 0c0.03,0.01 0.05,0.02 0.08,0.02 0.03,0.01 0.05,0.02 0.08,0.03 0.02,0.01 0.05,0.02 0.08,0.03 0.02,0.01 0.05,0.03 0.09,0.04l0.08 0.04c0.03,0.02 0.06,0.03 0.09,0.05l0.1 0.05 0.08 0.04c0.06,0.04 0.12,0.08 0.18,0.11 0.03,0.01 0.06,0.03 0.09,0.05l0 0 0.07 0.03c0.06,0.03 0.12,0.06 0.18,0.09 0.06,0.02 0.12,0.04 0.17,0.07l0.01 0c0.05,0.02 0.11,0.04 0.17,0.06 0.06,0.02 0.12,0.04 0.18,0.05 0.06,0.02 0.12,0.04 0.18,0.05 0.06,0.02 0.12,0.03 0.18,0.04 0.06,0.01 0.12,0.03 0.18,0.04 0.06,0.01 0.12,0.01 0.18,0.02 0.06,0.01 0.12,0.02 0.18,0.02 0.06,0.01 0.12,0.02 0.19,0.02l0.15 0.01 0.24 0.01 0 1.83c0,0.1 -0.01,0.2 -0.01,0.29 -0.01,0.1 -0.02,0.19 -0.03,0.28 -0.01,0.09 -0.03,0.18 -0.05,0.27 -0.02,0.09 -0.04,0.18 -0.07,0.26l-0.02 0.08 0 0c-0.02,0.06 -0.04,0.13 -0.07,0.19 -0.03,0.08 -0.06,0.16 -0.1,0.25 -0.03,0.08 -0.07,0.16 -0.12,0.24 -0.04,0.08 -0.08,0.16 -0.13,0.24l-0.02 0.03 0 0c-0.04,0.07 -0.08,0.14 -0.13,0.2 -0.05,0.07 -0.1,0.15 -0.15,0.22 -0.06,0.08 -0.12,0.15 -0.18,0.22 -0.06,0.07 -0.12,0.14 -0.18,0.21 -0.07,0.07 -0.14,0.14 -0.2,0.2 -0.07,0.07 -0.14,0.14 -0.21,0.2 -0.07,0.07 -0.14,0.13 -0.22,0.2 -0.07,0.06 -0.15,0.12 -0.22,0.18 -0.08,0.06 -0.16,0.12 -0.24,0.19 -0.08,0.06 -0.16,0.12 -0.24,0.17 -0.08,0.06 -0.16,0.12 -0.24,0.17 -0.08,0.06 -0.17,0.11 -0.25,0.17l-0.01 0c-0.09,0.06 -0.18,0.12 -0.26,0.16 -0.08,0.05 -0.17,0.11 -0.25,0.16l-0.15 0.08 -0.19 0.11 -0.19 -0.1z"/>
  </g>
 </g>
</svg>
