<?xml version="1.0" encoding="UTF-8"?>
<!DOCTYPE svg PUBLIC "-//W3C//DTD SVG 1.1//EN" "http://www.w3.org/Graphics/SVG/1.1/DTD/svg11.dtd">
<!-- Creator: CorelDRAW 2020 (64-Bit Evaluation Version) -->
<svg xmlns="http://www.w3.org/2000/svg" xml:space="preserve" width="60px" height="60px" version="1.1" style="shape-rendering:geometricPrecision; text-rendering:geometricPrecision; image-rendering:optimizeQuality; fill-rule:evenodd; clip-rule:evenodd"
viewBox="0 0 3.28 3.28"
 xmlns:xlink="http://www.w3.org/1999/xlink"
 xmlns:xodm="http://www.corel.com/coreldraw/odm/2003">
 <defs>
  <style type="text/css">
   <![CDATA[
    .fil0 {fill:#263674}
    .fil1 {fill:#FEC00F}
   ]]>
  </style>
 </defs>
 <g id="Layer_x0020_1">
  <metadata id="CorelCorpID_0Corel-Layer"/>
  <g id="_2316968431184">
   <path class="fil0" d="M2.7 2.45l0.16 -0.22c0.04,0.07 0.13,0.21 0.15,0.27 0.01,0.04 -0.04,0.11 -0.07,0.15 -0.14,0.2 -0.35,0.36 -0.57,0.47 -0.23,0.11 -0.47,0.16 -0.73,0.16 -0.43,0.03 -0.86,-0.18 -1.16,-0.48 -0.3,-0.29 -0.48,-0.69 -0.48,-1.16 0,-0.23 0.04,-0.45 0.13,-0.64 0,0 0.06,-0.16 0.11,-0.17 0.17,0.33 0.35,0.66 0.52,1 0.07,0.15 0.13,-0.05 0.18,-0.13l0.12 0.21c0,0 0.07,0.12 0.14,0l0.18 -0.34c0,0 0.04,-0.05 0.06,0.02l0.24 0.45c0,0 0.04,0.11 0.09,-0.02l0.33 -0.61c0,0 0.05,-0.09 0.1,-0.01 0.01,0.02 0.11,0.15 0.09,0.24 0,0 0.01,0.06 -0.08,0.2 -0.07,0.14 -0.25,0.49 -0.37,0.66 0,0 -0.12,0.17 -0.24,0.02 0,0 -0.13,-0.21 -0.2,-0.34l-0.06 -0.11c0,0 -0.02,-0.04 -0.04,0 -0.05,0.1 -0.21,0.42 -0.3,0.47 0,0 -0.09,0.12 -0.23,-0.07l-0.46 -0.85c0,0 0,0.01 0,0.02 0,0.37 0.15,0.7 0.39,0.94 0.24,0.25 0.58,0.39 0.95,0.39 0.2,0 0.4,-0.04 0.59,-0.13 0.18,-0.09 0.34,-0.22 0.46,-0.39l0 0z"/>
   <path class="fil1" d="M0.58 0.83l-0.15 0.23c-0.05,-0.08 -0.13,-0.22 -0.15,-0.28 -0.02,-0.04 0.03,-0.1 0.06,-0.14 0.15,-0.21 0.36,-0.36 0.58,-0.47 0.22,-0.11 0.47,-0.17 0.72,-0.17 0.43,-0.02 0.87,0.19 1.17,0.48 0.29,0.3 0.47,0.7 0.47,1.17 0,0.22 -0.04,0.44 -0.13,0.63 0,0 -0.06,0.17 -0.1,0.17 -0.18,-0.33 -0.35,-0.66 -0.53,-0.99 -0.06,-0.16 -0.13,0.05 -0.18,0.13l-0.12 -0.22c0,0 -0.07,-0.1 -0.14,0.01l-0.18 0.33c0,0 -0.04,0.05 -0.06,-0.02l-0.23 -0.44c0,0 -0.05,-0.12 -0.1,0.01l-0.33 0.62c0,0 -0.04,0.08 -0.1,0 0,-0.02 -0.1,-0.15 -0.09,-0.23 0,0 -0.01,-0.07 0.08,-0.2 0.07,-0.15 0.25,-0.49 0.37,-0.66 0,0 0.12,-0.17 0.24,-0.03 0,0 0.14,0.21 0.2,0.35l0.06 0.11c0,0 0.02,0.03 0.04,0 0.06,-0.1 0.22,-0.43 0.3,-0.48 0,0 0.1,-0.11 0.23,0.08l0.46 0.84c0,0 0,-0.01 0,-0.02 0,-0.36 -0.15,-0.7 -0.39,-0.94 -0.24,-0.24 -0.57,-0.39 -0.94,-0.39 -0.21,0 -0.41,0.05 -0.59,0.14 -0.18,0.09 -0.34,0.22 -0.47,0.38l0 0z"/>
  </g>
 </g>
</svg>
