<?xml version="1.0" encoding="UTF-8"?>
<!DOCTYPE svg PUBLIC "-//W3C//DTD SVG 1.1//EN" "http://www.w3.org/Graphics/SVG/1.1/DTD/svg11.dtd">
<!-- Creator: CorelDRAW 2020 (64-Bit Evaluation Version) -->
<svg xmlns="http://www.w3.org/2000/svg" xml:space="preserve" width="70px" height="70px" version="1.1" style="shape-rendering:geometricPrecision; text-rendering:geometricPrecision; image-rendering:optimizeQuality; fill-rule:evenodd; clip-rule:evenodd"
viewBox="0 0 10.22 10.24"
 xmlns:xlink="http://www.w3.org/1999/xlink"
 xmlns:xodm="http://www.corel.com/coreldraw/odm/2003">
 <defs>
  <style type="text/css">
   <![CDATA[
    .fil0 {fill:#FEC00F}
    .fil1 {fill:#263674;fill-rule:nonzero}
   ]]>
  </style>
 </defs>
 <g id="Layer_x0020_1">
  <metadata id="CorelCorpID_0Corel-Layer"/>
  <g id="_2318083429440">
   <path class="fil0" d="M9.13 8.87l-2.24 -2.24c-0.04,0.01 -0.09,0.02 -0.13,0.02 -0.06,0.01 -0.11,0.02 -0.16,0.02 -0.04,0 -0.09,0.01 -0.14,0.01l0 0.79c0,0.09 0.01,0.17 0.02,0.25 0.01,0.08 0.03,0.16 0.05,0.24 0.02,0.08 0.05,0.15 0.08,0.22 0.03,0.08 0.06,0.15 0.1,0.22l0 0c0.04,0.07 0.08,0.13 0.13,0.2 0.05,0.06 0.1,0.13 0.15,0.19 0.05,0.06 0.11,0.12 0.17,0.18 0.06,0.06 0.12,0.11 0.18,0.17 0.07,0.05 0.13,0.11 0.2,0.16 0.07,0.05 0.14,0.1 0.21,0.15l0 0c0.08,0.05 0.15,0.1 0.22,0.14 0.04,0.03 0.08,0.05 0.13,0.08 0.04,-0.03 0.08,-0.05 0.12,-0.08 0.07,-0.04 0.15,-0.09 0.22,-0.14l0 0c0.07,-0.05 0.14,-0.1 0.21,-0.15 0.07,-0.05 0.13,-0.11 0.2,-0.16 0.06,-0.06 0.12,-0.11 0.18,-0.17 0.04,-0.04 0.07,-0.07 0.1,-0.1z"/>
   <path class="fil1" d="M8 10.04c-0.08,-0.05 -0.15,-0.09 -0.23,-0.14 -0.07,-0.05 -0.15,-0.1 -0.22,-0.15l0 0c-0.08,-0.05 -0.15,-0.1 -0.23,-0.16 -0.07,-0.06 -0.14,-0.12 -0.21,-0.18 -0.07,-0.06 -0.14,-0.12 -0.21,-0.18 -0.06,-0.07 -0.13,-0.13 -0.19,-0.2 -0.06,-0.07 -0.12,-0.15 -0.17,-0.22 -0.05,-0.08 -0.1,-0.16 -0.15,-0.24l0 0c-0.04,-0.08 -0.09,-0.16 -0.12,-0.25 -0.04,-0.08 -0.07,-0.17 -0.09,-0.26l0 0c-0.03,-0.1 -0.05,-0.19 -0.06,-0.29 -0.02,-0.1 -0.02,-0.2 -0.02,-0.3l0 -1.15 0.18 0c0.06,0 0.11,0 0.15,-0.01 0.04,0 0.09,0 0.14,0l0 0c0.05,-0.01 0.09,-0.01 0.14,-0.02 0.04,0 0.08,-0.01 0.12,-0.02 0.05,-0.01 0.09,-0.02 0.13,-0.03 0.04,-0.02 0.08,-0.03 0.12,-0.05l0 0c0.04,-0.02 0.08,-0.03 0.12,-0.05l0 0c0.05,-0.03 0.09,-0.05 0.12,-0.07l0 0c0.06,-0.04 0.12,-0.08 0.18,-0.1 0.07,-0.03 0.13,-0.06 0.19,-0.08l0 0c0.06,-0.02 0.13,-0.03 0.2,-0.04 0.06,-0.01 0.13,-0.02 0.21,-0.02 0.03,0 0.06,0 0.1,0.01 0.04,0 0.07,0 0.11,0.01 0.03,0 0.06,0.01 0.09,0.02 0.04,0 0.07,0.01 0.1,0.02 0.03,0.01 0.07,0.02 0.1,0.04 0.03,0.01 0.06,0.02 0.09,0.04 0.03,0.01 0.06,0.03 0.09,0.04 0.02,0.02 0.05,0.03 0.09,0.05l0 0.01c0.04,0.02 0.08,0.04 0.12,0.07l0 0c0.04,0.02 0.08,0.03 0.12,0.05l0 0c0.04,0.02 0.08,0.03 0.12,0.05 0.04,0.01 0.08,0.02 0.13,0.03 0.04,0.01 0.08,0.02 0.13,0.02 0.04,0.01 0.08,0.01 0.13,0.02l0 0c0.05,0 0.1,0 0.14,0 0.04,0.01 0.09,0.01 0.15,0.01l0.18 0 0 1.15c0,0.1 0,0.2 -0.02,0.3 -0.01,0.1 -0.03,0.19 -0.05,0.29l0 0c-0.03,0.09 -0.06,0.18 -0.1,0.26 -0.03,0.09 -0.07,0.17 -0.12,0.25l0 0c-0.04,0.08 -0.09,0.16 -0.15,0.24 -0.05,0.07 -0.11,0.15 -0.17,0.22 -0.06,0.07 -0.13,0.13 -0.19,0.2 -0.07,0.06 -0.13,0.12 -0.2,0.18 -0.07,0.06 -0.15,0.12 -0.22,0.18 -0.07,0.06 -0.15,0.11 -0.22,0.16l-0.01 0c-0.07,0.05 -0.14,0.1 -0.22,0.15 -0.08,0.05 -0.16,0.1 -0.23,0.14l-0.09 0.05 -0.1 -0.05zm-0.03 -0.45c0.04,0.03 0.08,0.05 0.13,0.08 0.04,-0.03 0.08,-0.05 0.12,-0.08 0.07,-0.04 0.15,-0.09 0.22,-0.14l0 0c0.07,-0.05 0.14,-0.1 0.21,-0.15 0.07,-0.05 0.13,-0.11 0.2,-0.16 0.06,-0.06 0.12,-0.11 0.18,-0.17 0.06,-0.06 0.12,-0.12 0.17,-0.18 0.06,-0.06 0.11,-0.13 0.15,-0.19 0.05,-0.07 0.09,-0.13 0.13,-0.2l0 0c0.04,-0.07 0.07,-0.14 0.1,-0.22 0.03,-0.07 0.06,-0.14 0.08,-0.22l0 0c0.03,-0.08 0.04,-0.16 0.05,-0.24 0.01,-0.08 0.02,-0.16 0.02,-0.25l0 -0.79c-0.05,0 -0.1,-0.01 -0.14,-0.01 -0.05,0 -0.1,-0.01 -0.15,-0.02 -0.06,0 -0.11,-0.01 -0.16,-0.02 -0.05,-0.02 -0.1,-0.03 -0.15,-0.04 -0.05,-0.02 -0.11,-0.04 -0.15,-0.06l-0.01 0c-0.04,-0.02 -0.09,-0.04 -0.15,-0.07l0 0c-0.04,-0.02 -0.09,-0.05 -0.15,-0.09 -0.01,-0.01 -0.04,-0.02 -0.07,-0.04 -0.02,-0.01 -0.05,-0.02 -0.07,-0.04 -0.03,-0.01 -0.05,-0.02 -0.07,-0.03 -0.02,0 -0.04,-0.01 -0.06,-0.02l-0.01 0c-0.02,-0.01 -0.04,-0.01 -0.06,-0.02 -0.02,0 -0.05,-0.01 -0.08,-0.01 -0.02,0 -0.05,-0.01 -0.07,-0.01 -0.02,0 -0.05,0 -0.08,0 -0.06,0 -0.11,0 -0.16,0.01 -0.05,0.01 -0.1,0.02 -0.14,0.03l0 0c-0.05,0.01 -0.09,0.03 -0.14,0.05 -0.04,0.03 -0.09,0.05 -0.14,0.08l0 0c-0.05,0.04 -0.1,0.07 -0.15,0.09l0 0c-0.05,0.03 -0.11,0.05 -0.15,0.07l0 0c-0.05,0.02 -0.1,0.04 -0.15,0.06 -0.06,0.01 -0.11,0.02 -0.16,0.04 -0.05,0.01 -0.1,0.02 -0.15,0.02 -0.06,0.01 -0.11,0.02 -0.16,0.02 -0.04,0 -0.09,0.01 -0.14,0.01l0 0.79c0,0.09 0.01,0.17 0.02,0.25 0.01,0.08 0.03,0.16 0.05,0.24l0 0c0.02,0.08 0.05,0.15 0.08,0.22 0.03,0.08 0.06,0.15 0.1,0.22l0 0c0.04,0.07 0.08,0.13 0.13,0.2 0.05,0.06 0.1,0.13 0.15,0.19 0.05,0.06 0.11,0.12 0.17,0.18 0.06,0.06 0.12,0.11 0.18,0.17 0.07,0.05 0.13,0.11 0.2,0.16 0.07,0.05 0.14,0.1 0.21,0.15l0 0c0.08,0.05 0.15,0.1 0.22,0.14z"/>
   <path class="fil1" d="M7.94 10.15l-0.12 -0.07 -0.11 -0.07 -0.1 -0.06 0 0 -0.13 -0.09c-0.04,-0.03 -0.08,-0.06 -0.12,-0.08 -0.04,-0.03 -0.08,-0.06 -0.12,-0.09 -0.03,-0.03 -0.07,-0.06 -0.11,-0.09 -0.03,-0.03 -0.07,-0.06 -0.11,-0.09 -0.03,-0.03 -0.07,-0.06 -0.1,-0.09 -0.04,-0.03 -0.07,-0.07 -0.11,-0.1 -0.03,-0.04 -0.06,-0.07 -0.1,-0.1 -0.03,-0.04 -0.06,-0.07 -0.09,-0.11 -0.03,-0.04 -0.06,-0.07 -0.1,-0.11 -0.03,-0.04 -0.06,-0.08 -0.08,-0.12 -0.03,-0.04 -0.06,-0.08 -0.08,-0.12l-0.01 0c-0.02,-0.04 -0.05,-0.08 -0.07,-0.12l-0.06 -0.12 0 0 -0.01 -0.02 0 0c-0.02,-0.04 -0.04,-0.09 -0.06,-0.13 -0.02,-0.04 -0.03,-0.09 -0.05,-0.14 -0.02,-0.05 -0.03,-0.09 -0.05,-0.14l0 0c-0.01,-0.05 -0.02,-0.1 -0.03,-0.15 -0.01,-0.05 -0.02,-0.1 -0.03,-0.15 -0.01,-0.06 -0.01,-0.11 -0.01,-0.16 -0.01,-0.06 -0.01,-0.11 -0.01,-0.16l0 -1.28c0.15,0 0.3,0 0.45,0l0.07 -0.01c0.04,0 0.09,0 0.14,-0.01l0.06 0 0.06 -0.01 0.06 -0.02 0.06 -0.01c0.01,0 0.03,-0.01 0.05,-0.02 0.03,-0.01 0.06,-0.01 0.08,-0.02l0.09 -0.04 0.03 -0.01 0.02 -0.02 0.06 -0.03 0.03 -0.02 0.02 -0.01c0.04,-0.02 0.07,-0.04 0.1,-0.06l0 0c0.03,-0.02 0.06,-0.03 0.1,-0.05 0.02,-0.01 0.05,-0.02 0.07,-0.03l0 -0.01 0.13 -0.04c0.03,-0.01 0.07,-0.02 0.11,-0.03 0.03,-0.01 0.07,-0.01 0.11,-0.02 0.04,0 0.07,-0.01 0.11,-0.01 0.04,0 0.08,0 0.12,0l0.05 0 0.06 0 0.06 0 0.05 0.01c0.06,0.01 0.11,0.02 0.17,0.03l0.05 0.02 0.05 0.02 0.05 0.02 0 0c0.06,0.02 0.1,0.04 0.15,0.07l0.05 0.02 0.04 0.03 0.06 0.03c0.01,0.01 0.03,0.02 0.05,0.03 0.04,0.02 0.07,0.04 0.11,0.06 0.02,0.01 0.04,0.01 0.06,0.02l0.03 0.02 0.03 0.01 0.05 0.01 0.06 0.02 0.05 0.01 0.06 0.02 0.06 0.01 0.07 0c0.04,0.01 0.09,0.01 0.13,0.01l0.07 0.01c0.15,0 0.3,0 0.45,0l0 1.28c0,0.1 -0.01,0.21 -0.02,0.32 -0.01,0.05 -0.02,0.1 -0.03,0.15 -0.01,0.05 -0.02,0.1 -0.03,0.15l0 0c-0.01,0.05 -0.03,0.09 -0.05,0.14 -0.01,0.05 -0.03,0.1 -0.05,0.14 -0.02,0.05 -0.04,0.09 -0.06,0.13l0 0 -0.01 0.02 0.01 0 -0.07 0.12c-0.02,0.04 -0.05,0.08 -0.07,0.12l0 0c-0.03,0.04 -0.06,0.08 -0.09,0.12 -0.02,0.04 -0.05,0.08 -0.08,0.12 -0.03,0.04 -0.06,0.07 -0.1,0.11 -0.03,0.04 -0.06,0.07 -0.09,0.11 -0.03,0.03 -0.07,0.06 -0.1,0.1 -0.04,0.03 -0.07,0.07 -0.1,0.1 -0.04,0.03 -0.07,0.06 -0.11,0.09 -0.04,0.03 -0.07,0.06 -0.11,0.09 -0.04,0.03 -0.08,0.06 -0.11,0.09 -0.04,0.03 -0.08,0.06 -0.12,0.09 -0.04,0.02 -0.08,0.05 -0.11,0.08 -0.08,0.05 -0.16,0.1 -0.23,0.15l-0.12 0.07 -0.12 0.07 -0.15 0.09 -0.16 -0.09zm0.01 -0.29l0.15 0.09 0.13 -0.09 0.12 -0.07 0.11 -0.07c0.04,-0.03 0.08,-0.05 0.11,-0.07l0.08 -0.05 0.03 -0.03c0.04,-0.02 0.07,-0.05 0.11,-0.08 0.04,-0.03 0.08,-0.06 0.11,-0.09 0.03,-0.02 0.07,-0.05 0.1,-0.08l0 0c0.04,-0.03 0.07,-0.06 0.1,-0.09 0.04,-0.03 0.07,-0.06 0.1,-0.09 0.03,-0.03 0.06,-0.07 0.09,-0.1 0.03,-0.03 0.06,-0.07 0.09,-0.1 0.03,-0.03 0.06,-0.07 0.09,-0.1 0.02,-0.03 0.05,-0.07 0.08,-0.11 0.02,-0.03 0.05,-0.07 0.07,-0.11l0.04 -0.06 0.03 -0.05c0.02,-0.04 0.04,-0.08 0.06,-0.12l0 0c0.02,-0.04 0.04,-0.08 0.05,-0.12 0.02,-0.04 0.04,-0.08 0.05,-0.12 0.02,-0.04 0.03,-0.08 0.04,-0.13l0 0c0.01,-0.04 0.03,-0.09 0.03,-0.13 0.01,-0.04 0.02,-0.09 0.03,-0.14 0.01,-0.09 0.02,-0.19 0.02,-0.28l0 -1.03c-0.07,0 -0.14,0 -0.21,0l-0.07 0 -0.08 -0.01 -0.07 0 -0.07 -0.01 -0.07 -0.01 -0.07 -0.02c-0.02,0 -0.04,-0.01 -0.07,-0.01 -0.02,-0.01 -0.04,-0.02 -0.06,-0.02 -0.03,-0.01 -0.05,-0.02 -0.07,-0.02 -0.02,-0.01 -0.04,-0.02 -0.07,-0.03l-0.11 -0.04 0 -0.01 -0.09 -0.05 0 0c-0.02,-0.01 -0.04,-0.02 -0.06,-0.04l-0.05 -0.03 -0.03 -0.02 -0.05 -0.02 -0.04 -0.02 -0.03 -0.02 -0.05 -0.02 0 0 -0.04 -0.01 -0.05 -0.02 -0.04 -0.01 -0.04 -0.01 -0.05 -0.01 -0.04 -0.01 -0.05 0c-0.05,-0.01 -0.09,-0.01 -0.14,-0.01 -0.04,0 -0.07,0 -0.1,0 -0.03,0.01 -0.07,0.01 -0.1,0.01 -0.03,0.01 -0.06,0.01 -0.09,0.02 -0.02,0 -0.04,0.01 -0.06,0.02l-0.02 0c-0.03,0.01 -0.06,0.02 -0.09,0.03 -0.03,0.01 -0.06,0.03 -0.08,0.04 -0.03,0.01 -0.06,0.03 -0.09,0.04l-0.06 0.04 -0.02 0.01c-0.02,0.02 -0.04,0.03 -0.06,0.04l0 0 -0.08 0.04 0.01 0.01 -0.13 0.05c-0.03,0.01 -0.05,0.02 -0.07,0.03 -0.02,0 -0.04,0.01 -0.06,0.02 -0.02,0 -0.05,0.01 -0.07,0.02 -0.03,0 -0.05,0.01 -0.07,0.01l-0.07 0.02 -0.07 0.01 -0.07 0.01c-0.02,0 -0.05,0 -0.07,0l-0.08 0.01 -0.07 0c-0.07,0 -0.13,0 -0.2,0l0 1.03c0,0.05 0,0.09 0,0.14l0 0c0,0.05 0.01,0.1 0.01,0.14 0.01,0.05 0.02,0.1 0.03,0.14 0.01,0.04 0.02,0.09 0.03,0.13l0 0c0.01,0.05 0.03,0.09 0.04,0.13 0.01,0.04 0.03,0.08 0.05,0.12l0 0c0.01,0.04 0.03,0.08 0.05,0.12l0 0c0.02,0.04 0.04,0.08 0.06,0.12l0.03 0.05 0.04 0.06c0.02,0.04 0.05,0.08 0.07,0.11 0.03,0.04 0.06,0.08 0.08,0.11 0.03,0.03 0.06,0.07 0.09,0.1 0.03,0.03 0.06,0.07 0.09,0.1 0.03,0.03 0.06,0.07 0.09,0.1l0 0c0.03,0.03 0.07,0.06 0.1,0.09 0.03,0.03 0.07,0.06 0.1,0.09l0 0c0.03,0.03 0.07,0.06 0.1,0.08 0.04,0.03 0.07,0.06 0.11,0.09 0.04,0.03 0.08,0.06 0.11,0.08l0.04 0.03 0.07 0.05 0.11 0.07 0.11 0.07 0.11 0.07zm0.09 -0.38l0.06 0.04 0.06 -0.04c0.02,-0.01 0.06,-0.04 0.1,-0.06l0.11 -0.08c0.03,-0.02 0.06,-0.04 0.1,-0.07l0 0c0.04,-0.02 0.07,-0.05 0.1,-0.07 0.04,-0.03 0.07,-0.06 0.1,-0.08 0.03,-0.02 0.06,-0.05 0.1,-0.08 0.03,-0.03 0.06,-0.05 0.09,-0.08 0.03,-0.03 0.06,-0.06 0.08,-0.08 0.03,-0.03 0.06,-0.06 0.09,-0.09 0.03,-0.03 0.05,-0.06 0.08,-0.09 0.02,-0.03 0.05,-0.06 0.07,-0.09 0.02,-0.02 0.05,-0.05 0.07,-0.09 0.02,-0.03 0.04,-0.06 0.06,-0.09 0.02,-0.03 0.04,-0.06 0.06,-0.1l0.03 -0.05 0.02 -0.04c0.02,-0.04 0.03,-0.07 0.05,-0.11 0.01,-0.03 0.03,-0.07 0.04,-0.1l0 0c0.01,-0.03 0.02,-0.07 0.03,-0.11l0.01 -0.02c0.01,-0.03 0.01,-0.06 0.02,-0.09 0,-0.03 0.01,-0.07 0.02,-0.1 0,-0.04 0,-0.08 0.01,-0.12 0,-0.04 0,-0.08 0,-0.12l0 -0.67 -0.1 -0.01c-0.03,0 -0.06,-0.01 -0.08,-0.01 -0.03,0 -0.05,-0.01 -0.08,-0.01 -0.04,-0.01 -0.06,-0.02 -0.09,-0.02 -0.02,-0.01 -0.05,-0.01 -0.08,-0.02 -0.02,-0.01 -0.05,-0.01 -0.08,-0.02 -0.03,-0.01 -0.06,-0.02 -0.08,-0.03 -0.03,-0.01 -0.05,-0.02 -0.08,-0.03l0 0 -0.05 -0.02 -0.01 0 -0.11 -0.06c-0.02,-0.01 -0.04,-0.02 -0.07,-0.04l0 0c-0.02,-0.01 -0.05,-0.03 -0.08,-0.05 -0.04,-0.02 -0.07,-0.04 -0.1,-0.05l-0.07 -0.04 -0.02 -0.01c-0.03,-0.01 -0.06,-0.02 -0.09,-0.03l-0.03 0 -0.06 -0.01 -0.04 -0.01 -0.06 0 -0.04 0c-0.06,0 -0.1,0 -0.15,0.01 -0.02,0 -0.04,0 -0.06,0.01 -0.01,0 -0.03,0.01 -0.06,0.01l0 0c-0.02,0.01 -0.04,0.02 -0.06,0.02 -0.02,0.01 -0.04,0.02 -0.05,0.03 -0.02,0.01 -0.05,0.02 -0.07,0.03 -0.02,0.01 -0.04,0.03 -0.06,0.04l0 0c-0.03,0.02 -0.06,0.04 -0.08,0.05 -0.03,0.02 -0.06,0.03 -0.08,0.04l-0.12 0.07 0 -0.01 -0.04 0.02 -0.01 0c-0.03,0.01 -0.05,0.02 -0.08,0.03l0 0c-0.02,0.01 -0.05,0.02 -0.08,0.03 -0.03,0.01 -0.05,0.01 -0.08,0.02 -0.03,0.01 -0.06,0.01 -0.08,0.02 -0.02,0 -0.05,0.01 -0.08,0.02 -0.04,0 -0.06,0.01 -0.09,0.01 -0.02,0 -0.05,0.01 -0.08,0.01l0 0c-0.03,0 -0.06,0.01 -0.08,0.01l-0.02 0 0 0.67c0,0.04 0,0.08 0.01,0.12 0,0.04 0,0.08 0.01,0.12 0,0.03 0.01,0.07 0.01,0.1 0.01,0.03 0.02,0.06 0.02,0.09l0.01 0.02c0.01,0.04 0.02,0.08 0.04,0.11 0.01,0.03 0.02,0.07 0.04,0.1l0 0c0.01,0.04 0.02,0.07 0.04,0.11l0.03 0.05 0.02 0.04c0.02,0.04 0.04,0.07 0.06,0.1 0.02,0.03 0.04,0.07 0.06,0.09 0.03,0.04 0.05,0.07 0.07,0.09 0.02,0.03 0.05,0.06 0.07,0.09 0.03,0.03 0.06,0.06 0.08,0.09 0.03,0.03 0.06,0.06 0.09,0.09 0.03,0.02 0.05,0.05 0.09,0.08 0.03,0.03 0.06,0.05 0.09,0.08 0.03,0.03 0.06,0.06 0.09,0.08 0.03,0.02 0.07,0.05 0.1,0.08 0.03,0.02 0.07,0.05 0.1,0.07l0 0c0.03,0.02 0.07,0.05 0.1,0.07l0.11 0.08 0.11 0.06zm-0.07 0.26l-0.07 -0.04 -0.11 -0.07 -0.11 -0.08c-0.04,-0.02 -0.08,-0.05 -0.11,-0.07 -0.04,-0.03 -0.07,-0.06 -0.1,-0.08 -0.04,-0.03 -0.07,-0.05 -0.11,-0.08 -0.03,-0.03 -0.07,-0.06 -0.1,-0.09 -0.03,-0.02 -0.07,-0.05 -0.1,-0.08 -0.03,-0.03 -0.06,-0.06 -0.09,-0.09 -0.03,-0.03 -0.06,-0.06 -0.09,-0.09 -0.03,-0.03 -0.06,-0.07 -0.09,-0.1 -0.02,-0.03 -0.05,-0.06 -0.08,-0.1 -0.03,-0.03 -0.05,-0.07 -0.08,-0.1 -0.02,-0.04 -0.04,-0.07 -0.07,-0.1l-0.02 -0.05 0 0 -0.04 -0.06c-0.02,-0.04 -0.04,-0.07 -0.06,-0.11 -0.02,-0.04 -0.03,-0.08 -0.05,-0.12 -0.01,-0.02 -0.02,-0.05 -0.03,-0.07l-0.01 0 -0.04 -0.17c-0.02,-0.04 -0.03,-0.08 -0.03,-0.12 -0.01,-0.05 -0.02,-0.09 -0.03,-0.13 0,-0.05 -0.01,-0.09 -0.01,-0.13 0,-0.05 0,-0.1 0,-0.14l0 -0.91c0.08,-0.01 0.17,-0.02 0.25,-0.02 0.03,0 0.05,0 0.07,0l0.08 -0.01 0.07 -0.01 0.07 -0.02c0.03,0 0.05,-0.01 0.08,-0.02 0.02,0 0.04,-0.01 0.07,-0.02 0.02,0 0.04,-0.01 0.07,-0.02l0.07 -0.03c0.03,-0.01 0.05,-0.02 0.07,-0.03 0.02,-0.01 0.05,-0.02 0.07,-0.03l0.02 -0.01 0.05 -0.03c0.02,-0.01 0.05,-0.03 0.07,-0.04 0.03,-0.02 0.05,-0.04 0.08,-0.05l0 0c0.03,-0.02 0.05,-0.03 0.08,-0.04 0.02,-0.01 0.05,-0.03 0.07,-0.03 0.03,-0.01 0.05,-0.02 0.08,-0.03l0 0c0.02,-0.01 0.05,-0.02 0.08,-0.02 0.03,-0.01 0.05,-0.01 0.08,-0.02 0.05,0 0.11,-0.01 0.18,-0.01l0.09 0 0.04 0.01c0.03,0 0.06,0 0.08,0.01 0.06,0.01 0.11,0.02 0.16,0.04l0.04 0.02 0.04 0.01 0.04 0.02c0.04,0.02 0.12,0.06 0.15,0.09 0.02,0.01 0.05,0.02 0.08,0.04l0.04 0.02 0.02 0.02c0.03,0.01 0.05,0.02 0.07,0.03 0.02,0.01 0.05,0.02 0.07,0.03l0 0c0.02,0.01 0.05,0.02 0.07,0.03 0.03,0.01 0.05,0.02 0.07,0.02 0.03,0.01 0.05,0.02 0.08,0.02 0.02,0.01 0.04,0.02 0.07,0.02l0.07 0.02 0.07 0.01c0.03,0 0.05,0 0.08,0.01 0.02,0 0.05,0 0.07,0 0.08,0 0.18,0.01 0.26,0.02l0 0.91c0,0.04 -0.01,0.09 -0.01,0.14 0,0.04 -0.01,0.08 -0.01,0.13 -0.01,0.04 -0.01,0.08 -0.02,0.13 -0.01,0.04 -0.02,0.08 -0.03,0.12l-0.04 0.14 -0.01 0c-0.01,0.03 -0.02,0.07 -0.04,0.1 -0.01,0.04 -0.03,0.08 -0.05,0.12 -0.02,0.03 -0.04,0.07 -0.06,0.11l-0.03 0.06 -0.01 0 -0.02 0.05c-0.03,0.03 -0.05,0.07 -0.07,0.1 -0.03,0.03 -0.05,0.07 -0.08,0.1 -0.03,0.04 -0.05,0.07 -0.08,0.1 -0.03,0.03 -0.06,0.07 -0.09,0.1 -0.03,0.03 -0.06,0.06 -0.09,0.09 -0.03,0.03 -0.06,0.06 -0.09,0.09 -0.03,0.03 -0.06,0.06 -0.1,0.08 -0.03,0.03 -0.06,0.06 -0.1,0.09 -0.04,0.03 -0.07,0.05 -0.1,0.08 -0.04,0.02 -0.07,0.05 -0.11,0.08 -0.03,0.02 -0.06,0.04 -0.11,0.07l-0.11 0.08c-0.1,0.06 -0.2,0.13 -0.3,0.19l-0.13 -0.08z"/>
   <path class="fil0" d="M5.33 3.51l-2.08 -2.7c-0.41,0.31 -0.67,0.8 -0.67,1.35 0,0.94 0.77,1.71 1.71,1.71 0.39,0 0.75,-0.13 1.04,-0.36z"/>
   <path class="fil1" d="M4.29 0c0.6,0 1.14,0.24 1.53,0.63 0.39,0.39 0.63,0.94 0.63,1.53 0,0.6 -0.24,1.14 -0.63,1.53 -0.39,0.39 -0.93,0.63 -1.53,0.63 -0.6,0 -1.14,-0.24 -1.53,-0.63 -0.39,-0.39 -0.63,-0.93 -0.63,-1.53 0,-0.59 0.24,-1.14 0.63,-1.53 0.39,-0.39 0.93,-0.63 1.53,-0.63zm0.88 1.28c-0.22,-0.23 -0.54,-0.37 -0.88,-0.37 -0.35,0 -0.66,0.14 -0.88,0.37 -0.23,0.22 -0.37,0.54 -0.37,0.88 0,0.35 0.14,0.66 0.37,0.89 0.22,0.22 0.53,0.36 0.88,0.36 0.34,0 0.66,-0.14 0.88,-0.36 0.23,-0.23 0.37,-0.54 0.37,-0.89 0,-0.34 -0.14,-0.66 -0.37,-0.88z"/>
   <path class="fil0" d="M3.97 8.06l-1.55 -3.42c-1.17,0.66 -1.96,1.9 -1.96,3.33l0 0.02 0 2.1 4.44 0 -0.93 -2.03z"/>
   <path class="fil1" d="M0.91 7.99c0,0.25 -0.2,0.45 -0.45,0.45 -0.26,0 -0.46,-0.2 -0.46,-0.45 0,-1.19 0.48,-2.26 1.26,-3.03 0.77,-0.78 1.84,-1.26 3.03,-1.26 0.49,0 0.97,0.08 1.42,0.24 0.46,0.16 0.89,0.4 1.27,0.71 0.19,0.16 0.22,0.44 0.07,0.64 -0.16,0.19 -0.45,0.22 -0.64,0.07 -0.3,-0.24 -0.64,-0.43 -1,-0.56 -0.36,-0.12 -0.73,-0.19 -1.12,-0.19 -0.93,0 -1.78,0.38 -2.39,0.99 -0.61,0.61 -0.99,1.46 -0.99,2.39z"/>
   <polygon class="fil1" points="0.91,7.91 0.91,10.09 0,10.09 0,7.91 "/>
   <polygon class="fil1" points="7.65,7.55 8.09,8.01 9.04,6.96 9.44,7.33 8.1,8.81 7.25,7.93 "/>
  </g>
 </g>
</svg>
