<?xml version="1.0" encoding="UTF-8"?>
<!DOCTYPE svg PUBLIC "-//W3C//DTD SVG 1.1//EN" "http://www.w3.org/Graphics/SVG/1.1/DTD/svg11.dtd">
<!-- Creator: CorelDRAW 2020 (64-Bit Evaluation Version) -->
<svg xmlns="http://www.w3.org/2000/svg" xml:space="preserve" width="30px" height="28px" version="1.1" style="shape-rendering:geometricPrecision; text-rendering:geometricPrecision; image-rendering:optimizeQuality; fill-rule:evenodd; clip-rule:evenodd"
viewBox="0 0 1.46 1.36"
 xmlns:xlink="http://www.w3.org/1999/xlink"
 xmlns:xodm="http://www.corel.com/coreldraw/odm/2003">
 <defs>
  <style type="text/css">
   <![CDATA[
    .fil2 {fill:#263674}
    .fil4 {fill:#EFB30C}
    .fil0 {fill:#263674;fill-rule:nonzero}
    .fil1 {fill:#EFB30C;fill-rule:nonzero}
    .fil3 {fill:white;fill-rule:nonzero}
   ]]>
  </style>
 </defs>
 <g id="Layer_x0020_1">
  <metadata id="CorelCorpID_0Corel-Layer"/>
  <g id="_2105153520160">
   <path class="fil0" d="M0.29 0.27c-0.02,0.02 -0.04,0.02 -0.06,0 -0.02,-0.01 -0.02,-0.04 0,-0.06 0.06,-0.06 0.13,-0.12 0.21,-0.15 0.09,-0.04 0.18,-0.06 0.27,-0.06 0.16,0 0.31,0.06 0.43,0.16 0.11,0.1 0.19,0.25 0.21,0.41 0,0.02 -0.01,0.04 -0.04,0.04 -0.02,0.01 -0.04,-0.01 -0.04,-0.03 -0.02,-0.14 -0.09,-0.27 -0.19,-0.36 -0.1,-0.08 -0.23,-0.14 -0.37,-0.14 -0.08,0 -0.16,0.02 -0.23,0.05 -0.07,0.03 -0.14,0.08 -0.19,0.14z"/>
   <path class="fil0" d="M1.16 0.99c0.01,-0.02 0.04,-0.02 0.05,-0.01 0.02,0.02 0.03,0.04 0.01,0.06 -0.05,0.07 -0.12,0.13 -0.19,0.17 -0.08,0.04 -0.16,0.07 -0.25,0.08 -0.02,0 -0.05,-0.01 -0.05,-0.04 0,-0.02 0.02,-0.04 0.04,-0.04 0.08,-0.01 0.15,-0.03 0.21,-0.07 0.07,-0.04 0.13,-0.09 0.18,-0.15z"/>
   <path class="fil0" d="M0.28 1.02c0.02,0.02 0.02,0.04 0,0.06 -0.02,0.01 -0.04,0.01 -0.06,-0.01 -0.05,-0.05 -0.09,-0.12 -0.12,-0.19 -0.03,-0.08 -0.04,-0.15 -0.04,-0.23 0,-0.04 0,-0.08 0.01,-0.12 0.01,-0.03 0.03,-0.04 0.05,-0.04 0.02,0.01 0.04,0.03 0.03,0.05 0,0.04 -0.01,0.07 -0.01,0.11 0,0.07 0.02,0.13 0.04,0.2 0.02,0.06 0.06,0.12 0.1,0.17z"/>
   <path class="fil1" d="M0.39 0.59c0,0.03 -0.02,0.05 -0.05,0.04 -0.02,0 -0.04,-0.03 -0.04,-0.05 0.02,-0.1 0.07,-0.18 0.14,-0.24 0.08,-0.07 0.17,-0.1 0.27,-0.1 0.02,0 0.04,0 0.07,0 0.02,0.01 0.04,0.01 0.06,0.02 0.03,0.01 0.04,0.04 0.03,0.06 -0.01,0.02 -0.03,0.04 -0.06,0.03 -0.01,-0.01 -0.03,-0.01 -0.05,-0.02 -0.02,0 -0.03,0 -0.05,0 -0.08,0 -0.15,0.03 -0.21,0.07 -0.05,0.05 -0.09,0.12 -0.11,0.19z"/>
   <path class="fil1" d="M1.02 0.7c0,-0.02 0.03,-0.04 0.05,-0.03 0.03,0 0.04,0.03 0.04,0.05 -0.02,0.1 -0.07,0.18 -0.14,0.24 -0.07,0.06 -0.16,0.1 -0.26,0.1 -0.08,0 -0.15,-0.02 -0.21,-0.06 -0.06,-0.04 -0.11,-0.09 -0.15,-0.15 -0.01,-0.02 0,-0.05 0.02,-0.06 0.02,-0.01 0.05,-0.01 0.06,0.02 0.03,0.05 0.07,0.09 0.12,0.11 0.05,0.03 0.1,0.05 0.16,0.05 0.07,0 0.15,-0.03 0.2,-0.08 0.06,-0.04 0.1,-0.11 0.11,-0.19z"/>
   <path class="fil2" d="M0.7 0.4c0.06,0 0.11,0.02 0.15,0.05 -0.01,0 -0.01,0.01 -0.01,0.01l-0.1 0.15 -0.03 -0.04c-0.01,-0.01 -0.02,-0.01 -0.03,-0.01 -0.01,0 -0.02,0 -0.02,0.01 -0.01,0.01 -0.01,0.01 -0.01,0.02 0,0.01 0,0.02 0.01,0.03l0.07 0.07c0,0.01 0.01,0.01 0.02,0.01 0.02,0 0.03,-0.01 0.03,-0.02l0.12 -0.18 0 0c0.03,0.04 0.05,0.09 0.05,0.14 0,0.14 -0.11,0.25 -0.25,0.25 -0.13,0 -0.24,-0.11 -0.24,-0.25 0,-0.13 0.11,-0.24 0.24,-0.24zm0.13 0.41l-0.21 0c-0.02,0 -0.04,-0.01 -0.06,-0.02 -0.01,-0.02 -0.02,-0.04 -0.02,-0.06l0 -0.21c0,-0.02 0.01,-0.04 0.02,-0.06 0.02,-0.01 0.04,-0.02 0.06,-0.02l0.13 0c0,0 0.01,0 0.02,0.01 0,0 0,0.01 0,0.02 0,0 0,0.01 0,0.02 -0.01,0 -0.02,0 -0.02,0l-0.13 0c-0.01,0 -0.02,0.01 -0.02,0.01 -0.01,0.01 -0.01,0.01 -0.01,0.02l0 0.21c0,0.01 0,0.01 0.01,0.02 0,0 0.01,0.01 0.02,0.01l0.21 0c0,0 0.01,-0.01 0.01,-0.01 0.01,-0.01 0.01,-0.01 0.01,-0.02l0 -0.08c0,-0.01 0.01,-0.01 0.01,-0.02 0.01,0 0.01,0 0.02,0 0.01,0 0.01,0 0.02,0 0,0.01 0,0.01 0,0.02l0 0.08c0,0.02 0,0.04 -0.02,0.06 -0.01,0.01 -0.03,0.02 -0.05,0.02z"/>
   <g>
    <path class="fil3" d="M0.14 0.28c0.03,0 0.07,0.01 0.09,0.04 0.03,0.02 0.04,0.06 0.04,0.09 0,0.04 -0.01,0.08 -0.04,0.1 -0.02,0.03 -0.06,0.04 -0.09,0.04 -0.04,0 -0.08,-0.01 -0.1,-0.04 -0.02,-0.02 -0.04,-0.06 -0.04,-0.1 0,-0.03 0.02,-0.07 0.04,-0.09 0.02,-0.03 0.06,-0.04 0.1,-0.04zm0.03 0.1c0,-0.01 -0.02,-0.02 -0.03,-0.02 -0.02,0 -0.03,0.01 -0.04,0.02 -0.01,0.01 -0.02,0.02 -0.02,0.03 0,0.02 0.01,0.03 0.02,0.04 0.01,0.01 0.02,0.02 0.04,0.02 0.01,0 0.03,-0.01 0.03,-0.02 0.01,-0.01 0.02,-0.02 0.02,-0.04 0,-0.01 -0.01,-0.02 -0.02,-0.03z"/>
    <circle class="fil4" cx="0.14" cy="0.41" r="0.1"/>
   </g>
   <g>
    <path class="fil3" d="M0.45 1.01c0.05,0 0.09,0.02 0.12,0.05 0.04,0.03 0.06,0.08 0.06,0.13 0,0.04 -0.02,0.09 -0.06,0.12 -0.03,0.03 -0.07,0.05 -0.12,0.05 -0.05,0 -0.09,-0.02 -0.12,-0.05 -0.04,-0.03 -0.06,-0.08 -0.06,-0.12 0,-0.05 0.02,-0.1 0.06,-0.13 0.03,-0.03 0.07,-0.05 0.12,-0.05zm0.05 0.13c-0.01,-0.02 -0.03,-0.02 -0.05,-0.02 -0.02,0 -0.04,0 -0.05,0.02 -0.01,0.01 -0.02,0.03 -0.02,0.05 0,0.01 0.01,0.03 0.02,0.04 0.01,0.02 0.03,0.02 0.05,0.02 0.02,0 0.04,0 0.05,-0.02 0.01,-0.01 0.02,-0.03 0.02,-0.04 0,-0.02 -0.01,-0.04 -0.02,-0.05z"/>
    <circle class="fil4" cx="0.45" cy="1.19" r="0.12"/>
   </g>
   <path class="fil3" d="M1.28 0.62c0.05,0 0.09,0.02 0.13,0.06 0.03,0.03 0.05,0.07 0.05,0.12 0,0.05 -0.02,0.09 -0.05,0.12 -0.04,0.04 -0.08,0.06 -0.13,0.06 -0.05,0 -0.09,-0.02 -0.12,-0.06 -0.03,-0.03 -0.05,-0.07 -0.05,-0.12 0,-0.05 0.02,-0.09 0.05,-0.12 0.03,-0.04 0.07,-0.06 0.12,-0.06zm0.05 0.13c-0.01,-0.01 -0.03,-0.02 -0.05,-0.02 -0.02,0 -0.03,0.01 -0.05,0.02 -0.01,0.01 -0.02,0.03 -0.02,0.05 0,0.02 0.01,0.04 0.02,0.05 0.02,0.01 0.03,0.02 0.05,0.02 0.02,0 0.04,-0.01 0.05,-0.02 0.01,-0.01 0.02,-0.03 0.02,-0.05 0,-0.02 -0.01,-0.04 -0.02,-0.05z"/>
   <circle class="fil2" cx="1.28" cy="0.8" r="0.12"/>
  </g>
 </g>
</svg>
