<?xml version="1.0" encoding="UTF-8"?>
<!DOCTYPE svg PUBLIC "-//W3C//DTD SVG 1.1//EN" "http://www.w3.org/Graphics/SVG/1.1/DTD/svg11.dtd">
<!-- Creator: CorelDRAW 2020 (64-Bit Evaluation Version) -->
<svg xmlns="http://www.w3.org/2000/svg" xml:space="preserve" width="30px" height="30px" version="1.1" style="shape-rendering:geometricPrecision; text-rendering:geometricPrecision; image-rendering:optimizeQuality; fill-rule:evenodd; clip-rule:evenodd"
viewBox="0 0 1.46 1.46"
 xmlns:xlink="http://www.w3.org/1999/xlink"
 xmlns:xodm="http://www.corel.com/coreldraw/odm/2003">
 <defs>
  <style type="text/css">
   <![CDATA[
    .fil0 {fill:#263674}
    .fil2 {fill:#EFB30C}
    .fil1 {fill:white}
   ]]>
  </style>
 </defs>
 <g id="Layer_x0020_1">
  <metadata id="CorelCorpID_0Corel-Layer"/>
  <g id="_2105161489632">
   <g>
    <path class="fil0" d="M0.73 0.2c0.04,0 0.07,0.07 0.12,0.1 0.04,0.02 0.11,0.01 0.13,0.05 0.03,0.04 -0.02,0.1 -0.02,0.15 0,0.05 0.04,0.1 0.02,0.15 -0.02,0.04 -0.09,0.03 -0.14,0.05 -0.04,0.03 -0.07,0.09 -0.11,0.09 -0.05,0 -0.08,-0.06 -0.12,-0.09 -0.04,-0.02 -0.11,-0.02 -0.14,-0.05 -0.02,-0.04 0.02,-0.1 0.02,-0.15 0,-0.05 -0.04,-0.11 -0.02,-0.15 0.03,-0.04 0.1,-0.03 0.14,-0.05 0.04,-0.03 0.07,-0.09 0.12,-0.1z"/>
    <polygon class="fil1" points="0.72,0.42 0.81,0.38 0.79,0.46 0.86,0.53 0.77,0.53 0.73,0.62 0.69,0.54 0.6,0.53 0.67,0.47 0.65,0.38 "/>
   </g>
   <g>
    <path class="fil2" d="M0.12 1.16c0.03,0.06 0.03,0.06 0.03,0.14l0.35 0c0.01,-0.05 0.01,-0.12 -0.01,-0.16 -0.02,-0.04 -0.03,-0.07 -0.05,-0.11 -0.03,-0.07 -0.03,-0.07 -0.03,-0.15 0,-0.06 0,-0.12 0,-0.18 0,-0.07 -0.07,-0.08 -0.09,-0.06 -0.06,0.05 0.06,0.43 -0.12,0.4l0 -0.02c0.06,-0.01 0.07,-0.04 0.07,-0.11 0,-0.2 -0.02,-0.27 0.07,-0.44 0.04,-0.08 0.12,-0.18 0.1,-0.24 -0.02,-0.06 -0.08,-0.02 -0.1,0 -0.08,0.12 -0.2,0.29 -0.28,0.42 -0.07,0.11 -0.08,0.12 -0.03,0.25l0.09 0.26z"/>
    <rect class="fil0" x="0.11" y="1.31" width="0.43" height="0.14" rx="0.03" ry="0.03"/>
   </g>
   <g>
    <path class="fil2" d="M1.33 1.16c-0.02,0.06 -0.02,0.06 -0.03,0.14l-0.35 0c0,-0.05 -0.01,-0.12 0.01,-0.16 0.02,-0.04 0.04,-0.07 0.06,-0.11 0.03,-0.07 0.03,-0.07 0.03,-0.15 0,-0.06 0,-0.12 0,-0.18 0,-0.07 0.07,-0.08 0.09,-0.06 0.06,0.05 -0.06,0.43 0.11,0.4l0 -0.02c-0.06,-0.01 -0.06,-0.04 -0.06,-0.11 0,-0.2 0.01,-0.27 -0.07,-0.44 -0.04,-0.08 -0.13,-0.18 -0.1,-0.24 0.02,-0.06 0.08,-0.02 0.1,0 0.08,0.12 0.19,0.29 0.27,0.42 0.08,0.11 0.08,0.12 0.03,0.25l-0.09 0.26z"/>
    <rect class="fil0" x="0.91" y="1.31" width="0.43" height="0.14" rx="0.03" ry="0.03"/>
   </g>
   <circle class="fil0" cx="0.59" cy="0.92" r="0.11"/>
   <circle class="fil2" cx="0.56" cy="0.11" r="0.11"/>
   <circle class="fil2" cx="0.9" cy="0.88" r="0.05"/>
   <circle class="fil0" cx="0.91" cy="0.19" r="0.05"/>
  </g>
 </g>
</svg>
