<?xml version="1.0" encoding="UTF-8"?>
<!DOCTYPE svg PUBLIC "-//W3C//DTD SVG 1.1//EN" "http://www.w3.org/Graphics/SVG/1.1/DTD/svg11.dtd">
<!-- Creator: CorelDRAW 2020 (64-Bit Evaluation Version) -->
<svg xmlns="http://www.w3.org/2000/svg" xml:space="preserve" width="30px" height="30px" version="1.1" style="shape-rendering:geometricPrecision; text-rendering:geometricPrecision; image-rendering:optimizeQuality; fill-rule:evenodd; clip-rule:evenodd"
viewBox="0 0 1.45 1.45"
 xmlns:xlink="http://www.w3.org/1999/xlink"
 xmlns:xodm="http://www.corel.com/coreldraw/odm/2003">
 <defs>
  <style type="text/css">
   <![CDATA[
    .fil1 {fill:#263674}
    .fil0 {fill:#EFB30C}
    .fil3 {fill:white}
    .fil2 {fill:#263674;fill-rule:nonzero}
   ]]>
  </style>
 </defs>
 <g id="Layer_x0020_1">
  <metadata id="CorelCorpID_0Corel-Layer"/>
  <g id="_2104826736656">
   <path class="fil0" d="M1.45 0l0 0 -0.55 0.1 -0.67 0.67c-0.01,0.01 -0.03,0.03 -0.04,0.05l0.14 0.14 0.34 -0.35c0.05,-0.05 0.13,-0.05 0.17,0 0.05,0.05 0.05,0.13 0,0.18l-0.34 0.34 0.13 0.13c0.02,-0.01 0.04,-0.02 0.06,-0.04l0.66 -0.67 0.1 -0.55z"/>
   <path class="fil1" d="M0.11 0.74c0.01,-0.02 0.03,-0.04 0.05,-0.06l0.26 -0.26 -0.01 -0.01 -0.19 0 -0.22 0.22 0.11 0.11z"/>
   <path class="fil1" d="M1.05 1.04l-0.01 -0.01 -0.27 0.27c-0.02,0.02 -0.04,0.03 -0.05,0.05l0.1 0.1 0.23 -0.22 0 -0.19z"/>
   <path class="fil2" d="M0.8 0.74c0.02,-0.02 0.02,-0.06 0,-0.08 -0.02,-0.03 -0.06,-0.03 -0.09,0l-0.4 0.4c-0.02,0.02 -0.02,0.06 0,0.08 0.03,0.03 0.07,0.03 0.09,0l0.4 -0.4z"/>
   <path class="fil2" d="M0.54 1.32c0.02,-0.02 0.02,-0.06 0,-0.09 -0.02,-0.02 -0.06,-0.02 -0.09,0l-0.03 0.04c-0.02,0.02 -0.02,0.06 0,0.08 0.03,0.03 0.06,0.03 0.09,0l0.03 -0.03z"/>
   <path class="fil2" d="M0.23 1.01c0.02,-0.02 0.02,-0.06 0,-0.09 -0.03,-0.02 -0.06,-0.02 -0.09,0l-0.03 0.03c-0.02,0.03 -0.02,0.07 0,0.09 0.02,0.03 0.06,0.03 0.09,0l0.03 -0.03z"/>
   <path class="fil3" d="M1.16 0.3c-0.02,-0.01 -0.05,0 -0.06,-0.01 -0.02,0 -0.04,-0.04 -0.05,-0.03 -0.02,0.01 -0.03,0.04 -0.04,0.04 -0.02,0.02 -0.06,0 -0.06,0.02 0,0.02 0.02,0.04 0.01,0.06 0,0.02 -0.04,0.04 -0.02,0.06 0.01,0.01 0.04,0.01 0.05,0.03 0.01,0.01 0.01,0.05 0.03,0.05 0.02,0 0.04,-0.03 0.06,-0.02 0.01,-0.01 0.05,0.02 0.06,0.01 0.01,-0.02 0,-0.05 0.02,-0.06 0,-0.02 0.04,-0.03 0.04,-0.04 -0.01,-0.02 -0.04,-0.04 -0.04,-0.06 -0.01,-0.01 0.02,-0.05 0,-0.05z"/>
  </g>
 </g>
</svg>
