<?xml version="1.0" encoding="UTF-8"?>
<!DOCTYPE svg PUBLIC "-//W3C//DTD SVG 1.1//EN" "http://www.w3.org/Graphics/SVG/1.1/DTD/svg11.dtd">
<!-- Creator: CorelDRAW 2020 (64-Bit Evaluation Version) -->
<svg xmlns="http://www.w3.org/2000/svg" xml:space="preserve" width="30px" height="42px" version="1.1" style="shape-rendering:geometricPrecision; text-rendering:geometricPrecision; image-rendering:optimizeQuality; fill-rule:evenodd; clip-rule:evenodd"
viewBox="0 0 1.45 2.01"
 xmlns:xlink="http://www.w3.org/1999/xlink"
 xmlns:xodm="http://www.corel.com/coreldraw/odm/2003">
 <defs>
  <style type="text/css">
   <![CDATA[
    .fil0 {fill:#263674}
    .fil2 {fill:#EFB30C}
    .fil1 {fill:white}
    .fil3 {fill:#263674;fill-rule:nonzero}
   ]]>
  </style>
 </defs>
 <g id="Layer_x0020_1">
  <metadata id="CorelCorpID_0Corel-Layer"/>
  <g id="_2105148317856">
   <g>
    <circle class="fil0" cx="0.61" cy="0.59" r="0.19"/>
    <path class="fil1" d="M0.61 0.48c-0.02,0.02 -0.03,0.05 -0.04,0.07 -0.03,0.01 -0.06,0 -0.08,0.01 0.01,0.02 0.04,0.04 0.05,0.06 0.01,0.02 -0.01,0.05 -0.01,0.08 0.03,-0.01 0.05,-0.03 0.08,-0.03 0.02,0 0.04,0.02 0.07,0.03 0,-0.02 -0.01,-0.06 -0.01,-0.08 0.01,-0.02 0.04,-0.04 0.05,-0.06 -0.02,-0.01 -0.05,0 -0.08,-0.01 -0.01,-0.02 -0.02,-0.05 -0.03,-0.07z"/>
   </g>
   <g>
    <circle class="fil0" cx="1.01" cy="0.44" r="0.15"/>
    <path class="fil1" d="M1.01 0.35c-0.01,0.02 -0.02,0.04 -0.03,0.06 -0.02,0.01 -0.05,0 -0.06,0.01 0.01,0.02 0.03,0.03 0.04,0.05 0,0.02 -0.01,0.04 -0.01,0.06 0.02,0 0.04,-0.02 0.06,-0.02 0.02,0 0.04,0.02 0.06,0.02 0,-0.02 -0.01,-0.04 -0.01,-0.06 0.01,-0.02 0.04,-0.03 0.05,-0.05 -0.02,-0.01 -0.05,0 -0.07,-0.01 -0.01,-0.02 -0.01,-0.04 -0.03,-0.06z"/>
   </g>
   <g>
    <circle class="fil0" cx="0.66" cy="0.15" r="0.15"/>
    <path class="fil1" d="M0.66 0.06c-0.01,0.02 -0.02,0.04 -0.03,0.06 -0.02,0.01 -0.05,0 -0.06,0.01 0.01,0.02 0.03,0.03 0.04,0.05 0,0.02 -0.01,0.04 -0.01,0.06 0.02,0 0.04,-0.02 0.06,-0.02 0.02,0 0.04,0.02 0.06,0.02 0,-0.02 -0.01,-0.04 -0.01,-0.06 0.01,-0.02 0.04,-0.03 0.05,-0.05 -0.02,-0.01 -0.05,0 -0.07,-0.01 -0.01,-0.02 -0.01,-0.04 -0.03,-0.06z"/>
   </g>
   <g>
    <path class="fil2" d="M0.85 0.83l-0.41 0c-0.18,0 -0.33,0.15 -0.33,0.33l0 0.17c0,0 0,0.01 0,0.01 -0.01,0 -0.03,0.01 -0.04,0.01 -0.03,0 -0.06,-0.02 -0.06,-0.05 -0.01,0.01 -0.01,0.02 -0.01,0.03 0,0.07 0.05,0.12 0.11,0.14l0 0 0 0.14c0,0.15 0.11,0.28 0.25,0.31l0 0.07c0,0.03 0.04,0.03 0.07,0.02l0.17 -0.08c0.04,0.01 0.08,0.02 0.14,0l0.16 0.08c0.03,0.01 0.08,0.01 0.08,-0.02l0 -0.06c0.12,-0.03 0.16,-0.11 0.21,-0.21l0.02 0c0.16,0.03 0.06,-0.11 0.05,-0.12 0.25,0.07 0.2,-0.41 0.16,-0.45 -0.04,-0.04 -0.08,0.06 -0.12,0.06 -0.1,0 -0.07,-0.23 -0.23,-0.33 0.01,-0.05 0.01,-0.11 0.01,-0.15 0,-0.06 -0.08,-0.08 -0.12,-0.03l-0.11 0.13zm0.16 0.38c-0.04,0 -0.07,0.03 -0.07,0.06 0,0.04 0.03,0.07 0.07,0.07 0.04,0 0.07,-0.03 0.07,-0.07 0,-0.03 -0.03,-0.06 -0.07,-0.06z"/>
    <path class="fil3" d="M0.79 1.07c0.02,-0.01 0.03,-0.03 0.02,-0.04 0,-0.02 -0.02,-0.02 -0.04,-0.02 -0.13,0.05 -0.26,0.05 -0.39,0 -0.01,0 -0.03,0 -0.04,0.02 0,0.01 0.01,0.03 0.02,0.04 0.15,0.05 0.29,0.05 0.43,0z"/>
   </g>
  </g>
 </g>
</svg>
