<?xml version="1.0" encoding="UTF-8"?>
<!DOCTYPE svg PUBLIC "-//W3C//DTD SVG 1.1//EN" "http://www.w3.org/Graphics/SVG/1.1/DTD/svg11.dtd">
<!-- Creator: CorelDRAW 2020 (64-Bit Evaluation Version) -->
<svg xmlns="http://www.w3.org/2000/svg" xml:space="preserve" width="30px" height="18px" version="1.1" style="shape-rendering:geometricPrecision; text-rendering:geometricPrecision; image-rendering:optimizeQuality; fill-rule:evenodd; clip-rule:evenodd"
viewBox="0 0 1.63 0.98"
 xmlns:xlink="http://www.w3.org/1999/xlink"
 xmlns:xodm="http://www.corel.com/coreldraw/odm/2003">
 <defs>
  <style type="text/css">
   <![CDATA[
    .fil2 {fill:none;fill-rule:nonzero}
    .fil3 {fill:#263674;fill-rule:nonzero}
    .fil0 {fill:#73D0F4;fill-rule:nonzero}
    .fil1 {fill:#EFB30C;fill-rule:nonzero}
   ]]>
  </style>
 </defs>
 <g id="Layer_x0020_1">
  <metadata id="CorelCorpID_0Corel-Layer"/>
  <g id="_2105153445344">
   <path class="fil0" d="M1.41 0.89l0.13 0 0 -0.14c-0.07,0.02 -0.12,0.07 -0.13,0.14z"/>
   <path class="fil1" d="M1.41 0.89l0.13 0 0 -0.14c-0.07,0.02 -0.12,0.07 -0.13,0.14z"/>
   <path class="fil1" d="M0.23 0.09l-0.14 0 0 0.14c0.07,-0.02 0.12,-0.07 0.14,-0.14z"/>
   <path class="fil1" d="M0.09 0.75l0 0.14 0.14 0c-0.02,-0.07 -0.07,-0.12 -0.14,-0.14z"/>
   <path class="fil0" d="M1.54 0.23l0 -0.14 -0.13 0c0.01,0.07 0.06,0.12 0.13,0.14z"/>
   <path class="fil2" d="M1.31 0.09l-0.99 0c-0.02,0.12 -0.11,0.21 -0.23,0.23l0 0.34c0.12,0.02 0.21,0.11 0.23,0.23l0.99 0c0.02,-0.12 0.11,-0.21 0.23,-0.23l0 -0.34c-0.12,-0.02 -0.21,-0.11 -0.23,-0.23z"/>
   <path class="fil1" d="M1.54 0.23l0 -0.14 -0.13 0c0.01,0.07 0.06,0.12 0.13,0.14z"/>
   <path class="fil3" d="M1.58 0l-1.53 0c-0.03,0 -0.05,0.02 -0.05,0.05l0 0.88c0,0.03 0.02,0.05 0.05,0.05l1.53 0c0.03,0 0.05,-0.02 0.05,-0.05l0 -0.88c0,-0.03 -0.02,-0.05 -0.05,-0.05zm-1.49 0.89l0 -0.14c0.07,0.02 0.12,0.07 0.14,0.14l-0.14 0zm0.14 -0.8c-0.02,0.07 -0.07,0.12 -0.14,0.14l0 -0.14 0.14 0zm1.31 0.8l-0.13 0c0.01,-0.07 0.06,-0.12 0.13,-0.14l0 0.14zm0 -0.23c-0.12,0.02 -0.21,0.11 -0.23,0.23l-0.99 0c-0.02,-0.12 -0.11,-0.21 -0.23,-0.23l0 -0.34c0.12,-0.02 0.21,-0.11 0.23,-0.23l0.99 0c0.02,0.12 0.11,0.21 0.23,0.23l0 0.34 0 0zm0 -0.43c-0.07,-0.02 -0.12,-0.07 -0.13,-0.14l0.13 0 0 0.14z"/>
   <path class="fil1" d="M1 0.49c0,-0.1 -0.08,-0.19 -0.18,-0.19 -0.11,0 -0.19,0.09 -0.19,0.19 0,0.1 0.08,0.19 0.19,0.19 0.1,0 0.18,-0.09 0.18,-0.19z"/>
   <path class="fil3" d="M0.82 0.21c-0.16,0 -0.28,0.13 -0.28,0.28 0,0.15 0.12,0.28 0.28,0.28 0.15,0 0.27,-0.13 0.27,-0.28 0,-0.15 -0.12,-0.28 -0.27,-0.28zm-0.19 0.28c0,-0.1 0.08,-0.19 0.19,-0.19 0.1,0 0.18,0.09 0.18,0.19 0,0.1 -0.08,0.19 -0.18,0.19 -0.11,0 -0.19,-0.09 -0.19,-0.19z"/>
  </g>
 </g>
</svg>
