<?xml version="1.0" encoding="UTF-8"?>
<!DOCTYPE svg PUBLIC "-//W3C//DTD SVG 1.1//EN" "http://www.w3.org/Graphics/SVG/1.1/DTD/svg11.dtd">
<!-- Creator: CorelDRAW 2020 (64-Bit Evaluation Version) -->
<svg xmlns="http://www.w3.org/2000/svg" xml:space="preserve" width="30px" height="35px" version="1.1" style="shape-rendering:geometricPrecision; text-rendering:geometricPrecision; image-rendering:optimizeQuality; fill-rule:evenodd; clip-rule:evenodd"
viewBox="0 0 1.45 1.7"
 xmlns:xlink="http://www.w3.org/1999/xlink"
 xmlns:xodm="http://www.corel.com/coreldraw/odm/2003">
 <defs>
  <style type="text/css">
   <![CDATA[
    .fil2 {fill:#263674}
    .fil0 {fill:#EFB30C}
    .fil3 {fill:white}
    .fil1 {fill:#263674;fill-rule:nonzero}
   ]]>
  </style>
 </defs>
 <g id="Layer_x0020_1">
  <metadata id="CorelCorpID_0Corel-Layer"/>
  <g id="_2104814214016">
   <path class="fil0" d="M0.95 1.66c0.03,0 0.03,-0.04 0,-0.05 -0.16,-0.07 -0.33,-0.14 -0.49,-0.21 -0.06,-0.04 0.26,-0.47 -0.21,-0.07l0 0.33 0.7 0z"/>
   <path class="fil1" d="M1.1 0.26c0.01,-0.02 0.03,-0.1 0.03,-0.13 0,-0.03 -0.02,-0.06 -0.04,-0.08 -0.01,-0.01 -0.02,-0.02 -0.03,-0.02 -0.02,-0.01 -0.03,-0.01 -0.04,-0.01 -0.03,0 -0.05,0 -0.07,0.02 -0.02,-0.03 -0.06,-0.04 -0.09,-0.04 -0.04,0 -0.07,0.02 -0.1,0.04 -0.02,-0.02 -0.04,-0.02 -0.06,-0.02 -0.02,0 -0.03,0 -0.05,0.01 -0.01,0 -0.02,0.01 -0.03,0.02 -0.02,0.02 -0.03,0.05 -0.03,0.08 0,0.05 0,0.1 0.02,0.14 0.01,0 0.48,0 0.49,-0.01z"/>
   <path class="fil1" d="M0.62 0.3l0.02 0.08c0.16,0 0.3,0 0.46,0l0 -0.09c-0.16,0 -0.31,0 -0.48,0.01z"/>
   <polygon class="fil1" points="0.86,0.73 0.96,0.79 1.07,0.85 1.07,0.97 1.07,1.09 0.96,1.15 0.86,1.21 0.76,1.15 0.65,1.09 0.65,0.97 0.65,0.85 0.76,0.79 "/>
   <path class="fil1" d="M1.05 1.56c0.09,-0.03 0.16,-0.08 0.23,-0.15 0.11,-0.11 0.17,-0.25 0.17,-0.42 0,-0.1 -0.02,-0.2 -0.07,-0.29 -0.05,-0.08 -0.21,-0.22 -0.29,-0.29l-0.45 0c-0.11,0.1 -0.24,0.18 -0.3,0.29 -0.05,0.09 -0.07,0.19 -0.07,0.29 0,0.07 0.01,0.14 0.03,0.2 0.16,-0.13 0.23,-0.14 0.26,-0.11 0.03,0.04 0.01,0.1 -0.01,0.16 -0.02,0.04 -0.03,0.08 -0.02,0.09l0.52 0.23z"/>
   <polygon class="fil0" points="0.86,0.73 0.96,0.79 1.07,0.85 1.07,0.97 1.07,1.09 0.96,1.15 0.86,1.21 0.76,1.15 0.65,1.09 0.65,0.97 0.65,0.85 0.76,0.79 "/>
   <path class="fil0" d="M0.86 0.55c0.23,0 0.42,0.19 0.42,0.42 0,0.23 -0.19,0.42 -0.42,0.42 -0.13,0 -0.24,-0.05 -0.32,-0.14 0.01,0 0.01,0 0.01,-0.01 0.02,-0.06 0.04,-0.12 0.01,-0.16 -0.02,-0.02 -0.05,-0.02 -0.1,0.01 -0.01,-0.04 -0.02,-0.08 -0.02,-0.12 0,-0.23 0.19,-0.42 0.42,-0.42z"/>
   <path class="fil1" d="M0.88 0.7l0.22 0.13 0 0.28 -0.24 0.14 -0.24 -0.14 0 -0.28 0.24 -0.14 0.02 0.01zm0.07 0.12l-0.09 -0.05 -0.18 0.1 0 0.21 0.18 0.1 0.18 -0.11 0 -0.2 -0.09 -0.05z"/>
   <rect class="fil2" y="1.26" width="0.25" height="0.44"/>
   <polygon class="fil3" points="0.95,0.82 0.86,0.77 0.68,0.87 0.68,1.08 0.86,1.18 1.04,1.07 1.04,0.87 "/>
  </g>
 </g>
</svg>
