<?xml version="1.0" encoding="UTF-8"?>
<!DOCTYPE svg PUBLIC "-//W3C//DTD SVG 1.1//EN" "http://www.w3.org/Graphics/SVG/1.1/DTD/svg11.dtd">
<!-- Creator: CorelDRAW 2020 (64-Bit Evaluation Version) -->
<svg xmlns="http://www.w3.org/2000/svg" xml:space="preserve" width="30px" height="30px" version="1.1" style="shape-rendering:geometricPrecision; text-rendering:geometricPrecision; image-rendering:optimizeQuality; fill-rule:evenodd; clip-rule:evenodd"
viewBox="0 0 1.45 1.46"
 xmlns:xlink="http://www.w3.org/1999/xlink"
 xmlns:xodm="http://www.corel.com/coreldraw/odm/2003">
 <defs>
  <style type="text/css">
   <![CDATA[
    .fil1 {fill:#263674}
    .fil0 {fill:#EFB30C}
    .fil3 {fill:#263674;fill-rule:nonzero}
    .fil2 {fill:#EFB30C;fill-rule:nonzero}
    .fil4 {fill:white;fill-rule:nonzero}
   ]]>
  </style>
 </defs>
 <g id="Layer_x0020_1">
  <metadata id="CorelCorpID_0Corel-Layer"/>
  <g id="_2104822047664">
   <path class="fil0" d="M0.64 1.16l0.67 0c0.08,0 0.14,0.06 0.14,0.14l0 0c0,0.07 -0.06,0.14 -0.14,0.14l-1.07 0 0 -0.1 0 -0.18 0 -0.34 0.15 0c0.14,0 0.26,0.12 0.26,0.26l0 0c0,0.03 0,0.05 -0.01,0.08z"/>
   <path class="fil1" d="M0.25 0.7l-0.22 0c-0.02,0 -0.03,0.01 -0.03,0.03l0 0.69c0,0.02 0.02,0.04 0.05,0.04l0.2 0 0 -0.76z"/>
   <path class="fil0" d="M0.7 0.27c0.13,0 0.23,0.1 0.23,0.23 0,0.13 -0.1,0.23 -0.23,0.23 -0.13,0 -0.23,-0.1 -0.23,-0.23 0,-0.13 0.1,-0.23 0.23,-0.23z"/>
   <path class="fil2" d="M0.53 0.11c0,-0.01 0.01,-0.02 0.03,-0.02 0.01,0 0.02,0.01 0.02,0.02l0 0.24c0,0.02 -0.01,0.03 -0.02,0.03 -0.02,0 -0.03,-0.01 -0.03,-0.03l0 -0.24z"/>
   <path class="fil2" d="M0.84 0.25c0,-0.01 0.01,-0.02 0.02,-0.02 0.02,0 0.03,0.01 0.03,0.02l0 0.12c0,0.02 -0.01,0.03 -0.03,0.03 -0.01,0 -0.02,-0.01 -0.02,-0.03l0 -0.12z"/>
   <path class="fil2" d="M0.74 0.18c0,-0.01 0.01,-0.02 0.02,-0.02 0.02,0 0.03,0.01 0.03,0.02l0 0.12c0,0.02 -0.01,0.03 -0.03,0.03 -0.01,0 -0.02,-0.01 -0.02,-0.03l0 -0.12z"/>
   <path class="fil2" d="M0.64 0.23c0,-0.02 0.01,-0.03 0.02,-0.03 0.01,0 0.02,0.01 0.02,0.03l0 0.05c0,0.01 -0.01,0.02 -0.02,0.02 -0.01,0 -0.02,-0.01 -0.02,-0.02l0 -0.05z"/>
   <circle class="fil0" cx="0.76" cy="0.09" r="0.03"/>
   <circle class="fil0" cx="0.56" cy="0.03" r="0.03"/>
   <path class="fil1" d="M1.21 0.61c0.13,0 0.23,0.11 0.23,0.23 0,0.13 -0.1,0.23 -0.23,0.23 -0.12,0 -0.23,-0.1 -0.23,-0.23 0,-0.12 0.11,-0.23 0.23,-0.23z"/>
   <path class="fil3" d="M1.05 0.45c0,-0.01 0.01,-0.02 0.02,-0.02 0.01,0 0.03,0.01 0.03,0.02l0 0.24c0,0.02 -0.02,0.03 -0.03,0.03 -0.01,0 -0.02,-0.01 -0.02,-0.03l0 -0.24z"/>
   <path class="fil3" d="M1.35 0.59c0,-0.01 0.01,-0.02 0.03,-0.02 0.01,0 0.02,0.01 0.02,0.02l0 0.13c0,0.01 -0.01,0.02 -0.02,0.02 -0.02,0 -0.03,-0.01 -0.03,-0.02l0 -0.13z"/>
   <path class="fil3" d="M1.25 0.53c0,-0.02 0.01,-0.03 0.03,-0.03 0.01,0 0.02,0.01 0.02,0.03l0 0.12c0,0.01 -0.01,0.02 -0.02,0.02 -0.02,0 -0.03,-0.01 -0.03,-0.02l0 -0.12z"/>
   <path class="fil3" d="M1.15 0.57c0,-0.02 0.01,-0.03 0.02,-0.03 0.02,0 0.03,0.01 0.03,0.03l0 0.05c0,0.01 -0.01,0.03 -0.03,0.03 -0.01,0 -0.02,-0.02 -0.02,-0.03l0 -0.05z"/>
   <circle class="fil1" cx="1.28" cy="0.44" r="0.03"/>
   <circle class="fil1" cx="1.07" cy="0.38" r="0.03"/>
   <g>
    <path class="fil4" d="M0.63 0.41c0,-0.01 0.01,-0.02 0.03,-0.02 0.01,0 0.02,0.01 0.02,0.02l0 0.12c0,0.01 -0.01,0.02 -0.02,0.02 -0.02,0 -0.03,-0.01 -0.03,-0.02l0 -0.12z"/>
    <path class="fil4" d="M0.72 0.47c0,-0.01 0.01,-0.02 0.03,-0.02 0.01,0 0.02,0.01 0.02,0.02l0 0.12c0,0.01 -0.01,0.02 -0.02,0.02 -0.02,0 -0.03,-0.01 -0.03,-0.02l0 -0.12z"/>
   </g>
   <g>
    <path class="fil4" d="M1.15 0.76c0,-0.02 0.01,-0.03 0.02,-0.03 0.01,0 0.02,0.01 0.02,0.03l0 0.11c0,0.01 -0.01,0.02 -0.02,0.02 -0.01,0 -0.02,-0.01 -0.02,-0.02l0 -0.11z"/>
    <path class="fil4" d="M1.23 0.82c0,-0.02 0.01,-0.03 0.03,-0.03 0.01,0 0.02,0.01 0.02,0.03l0 0.11c0,0.01 -0.01,0.03 -0.02,0.03 -0.02,0 -0.03,-0.02 -0.03,-0.03l0 -0.11z"/>
   </g>
  </g>
 </g>
</svg>
